G04*
G04 #@! TF.GenerationSoftware,Altium Limited,Altium Designer,21.6.4 (81)*
G04*
G04 Layer_Physical_Order=1*
G04 Layer_Color=255*
%FSLAX25Y25*%
%MOIN*%
G70*
G04*
G04 #@! TF.SameCoordinates,6B608D9E-A8E0-47A2-ABE4-9162D6615288*
G04*
G04*
G04 #@! TF.FilePolarity,Positive*
G04*
G01*
G75*
%ADD11C,0.02000*%
%ADD12C,0.01000*%
%ADD15R,0.04134X0.01968*%
G04:AMPARAMS|DCode=16|XSize=41.34mil|YSize=19.68mil|CornerRadius=4.92mil|HoleSize=0mil|Usage=FLASHONLY|Rotation=180.000|XOffset=0mil|YOffset=0mil|HoleType=Round|Shape=RoundedRectangle|*
%AMROUNDEDRECTD16*
21,1,0.04134,0.00984,0,0,180.0*
21,1,0.03150,0.01968,0,0,180.0*
1,1,0.00984,-0.01575,0.00492*
1,1,0.00984,0.01575,0.00492*
1,1,0.00984,0.01575,-0.00492*
1,1,0.00984,-0.01575,-0.00492*
%
%ADD16ROUNDEDRECTD16*%
G04:AMPARAMS|DCode=17|XSize=55.12mil|YSize=35.43mil|CornerRadius=2.66mil|HoleSize=0mil|Usage=FLASHONLY|Rotation=0.000|XOffset=0mil|YOffset=0mil|HoleType=Round|Shape=RoundedRectangle|*
%AMROUNDEDRECTD17*
21,1,0.05512,0.03012,0,0,0.0*
21,1,0.04980,0.03543,0,0,0.0*
1,1,0.00532,0.02490,-0.01506*
1,1,0.00532,-0.02490,-0.01506*
1,1,0.00532,-0.02490,0.01506*
1,1,0.00532,0.02490,0.01506*
%
%ADD17ROUNDEDRECTD17*%
G04:AMPARAMS|DCode=18|XSize=43.31mil|YSize=39.37mil|CornerRadius=3.94mil|HoleSize=0mil|Usage=FLASHONLY|Rotation=270.000|XOffset=0mil|YOffset=0mil|HoleType=Round|Shape=RoundedRectangle|*
%AMROUNDEDRECTD18*
21,1,0.04331,0.03150,0,0,270.0*
21,1,0.03543,0.03937,0,0,270.0*
1,1,0.00787,-0.01575,-0.01772*
1,1,0.00787,-0.01575,0.01772*
1,1,0.00787,0.01575,0.01772*
1,1,0.00787,0.01575,-0.01772*
%
%ADD18ROUNDEDRECTD18*%
G04:AMPARAMS|DCode=19|XSize=43.31mil|YSize=39.37mil|CornerRadius=2.95mil|HoleSize=0mil|Usage=FLASHONLY|Rotation=90.000|XOffset=0mil|YOffset=0mil|HoleType=Round|Shape=RoundedRectangle|*
%AMROUNDEDRECTD19*
21,1,0.04331,0.03347,0,0,90.0*
21,1,0.03740,0.03937,0,0,90.0*
1,1,0.00591,0.01673,0.01870*
1,1,0.00591,0.01673,-0.01870*
1,1,0.00591,-0.01673,-0.01870*
1,1,0.00591,-0.01673,0.01870*
%
%ADD19ROUNDEDRECTD19*%
%ADD31O,0.05937X0.11874*%
%ADD32R,0.05937X0.11874*%
%ADD33C,0.05906*%
G04:AMPARAMS|DCode=34|XSize=129.92mil|YSize=122.05mil|CornerRadius=30.51mil|HoleSize=0mil|Usage=FLASHONLY|Rotation=180.000|XOffset=0mil|YOffset=0mil|HoleType=Round|Shape=RoundedRectangle|*
%AMROUNDEDRECTD34*
21,1,0.12992,0.06102,0,0,180.0*
21,1,0.06890,0.12205,0,0,180.0*
1,1,0.06102,-0.03445,0.03051*
1,1,0.06102,0.03445,0.03051*
1,1,0.06102,0.03445,-0.03051*
1,1,0.06102,-0.03445,-0.03051*
%
%ADD34ROUNDEDRECTD34*%
%ADD35R,0.11874X0.05937*%
%ADD36O,0.11874X0.05937*%
%ADD37C,0.02362*%
G36*
X70800Y125431D02*
X71478Y124978D01*
X71931Y124300D01*
X72086Y123520D01*
X72082Y123500D01*
X72082Y3000D01*
X72086Y2980D01*
X71931Y2200D01*
X71478Y1522D01*
X70800Y1069D01*
X70020Y914D01*
X70000Y918D01*
X33083D01*
X32983Y1418D01*
X33387Y1585D01*
X34192Y2202D01*
X34809Y3007D01*
X35197Y3943D01*
X35329Y4949D01*
Y7600D01*
X28000D01*
X20671D01*
Y4949D01*
X20803Y3943D01*
X21191Y3007D01*
X21808Y2202D01*
X22613Y1585D01*
X23017Y1418D01*
X22917Y918D01*
X3000D01*
X2980Y914D01*
X2200Y1069D01*
X1522Y1522D01*
X1069Y2200D01*
X914Y2980D01*
X918Y3000D01*
X918Y123000D01*
X918Y123012D01*
X918Y123500D01*
X1002Y123965D01*
X1069Y124300D01*
X1522Y124978D01*
X2200Y125431D01*
X2980Y125586D01*
X3000Y125582D01*
X70000Y125582D01*
X70020Y125586D01*
X70800Y125431D01*
D02*
G37*
%LPC*%
G36*
X38425Y124989D02*
X37250D01*
Y122400D01*
X39642D01*
Y123772D01*
X39550Y124237D01*
X39286Y124632D01*
X38891Y124896D01*
X38425Y124989D01*
D02*
G37*
G36*
X36450D02*
X35276D01*
X34810Y124896D01*
X34415Y124632D01*
X34151Y124237D01*
X34058Y123772D01*
Y122400D01*
X36450D01*
Y124989D01*
D02*
G37*
G36*
X44724D02*
X41575D01*
X41109Y124896D01*
X40714Y124632D01*
X40450Y124237D01*
X40358Y123772D01*
Y120228D01*
X40450Y119763D01*
X40714Y119368D01*
X41109Y119104D01*
X41575Y119011D01*
X44724D01*
X45190Y119104D01*
X45585Y119368D01*
X45849Y119763D01*
X45899Y120015D01*
X46024Y120063D01*
X46211Y120111D01*
X46315Y120127D01*
X46412Y120112D01*
X46592Y120065D01*
X46711Y120018D01*
X46735Y120003D01*
X46795Y119703D01*
X47037Y119340D01*
X47399Y119098D01*
X47827Y119013D01*
X51173D01*
X51601Y119098D01*
X51963Y119340D01*
X52205Y119703D01*
X52290Y120130D01*
Y123870D01*
X52205Y124297D01*
X51963Y124660D01*
X51601Y124902D01*
X51173Y124987D01*
X47827D01*
X47399Y124902D01*
X47037Y124660D01*
X46795Y124297D01*
X46735Y123997D01*
X46711Y123983D01*
X46592Y123935D01*
X46412Y123888D01*
X46315Y123873D01*
X46211Y123889D01*
X46024Y123937D01*
X45899Y123986D01*
X45849Y124237D01*
X45585Y124632D01*
X45190Y124896D01*
X44724Y124989D01*
D02*
G37*
G36*
X39642Y121600D02*
X37250D01*
Y119011D01*
X38425D01*
X38891Y119104D01*
X39286Y119368D01*
X39550Y119763D01*
X39642Y120228D01*
Y121600D01*
D02*
G37*
G36*
X36450D02*
X34058D01*
Y120228D01*
X34151Y119763D01*
X34415Y119368D01*
X34810Y119104D01*
X35276Y119011D01*
X36450D01*
Y121600D01*
D02*
G37*
G36*
X68494Y116841D02*
X68335Y116810D01*
X66913D01*
X66409Y116709D01*
X65982Y116424D01*
X65696Y115996D01*
X65596Y115492D01*
Y115400D01*
X68488D01*
X71380D01*
Y115492D01*
X71280Y115996D01*
X70995Y116424D01*
X70567Y116709D01*
X70063Y116810D01*
X68653D01*
X68494Y116841D01*
D02*
G37*
G36*
X41240Y117177D02*
X40467Y117024D01*
X39812Y116586D01*
X39374Y115930D01*
X39220Y115157D01*
X39374Y114384D01*
X39812Y113729D01*
X40467Y113291D01*
X41240Y113138D01*
X42013Y113291D01*
X42537Y113642D01*
X42542Y113644D01*
X42546Y113647D01*
X42638Y113708D01*
X42648Y113713D01*
X42682Y113725D01*
X42723Y113737D01*
X42773Y113747D01*
X42817Y113753D01*
X44368D01*
X44395Y113751D01*
X44483Y113738D01*
X44552Y113723D01*
X44601Y113708D01*
X44631Y113695D01*
X44642Y113689D01*
X44663Y113661D01*
X44668Y113657D01*
X44722Y113576D01*
X44894Y113461D01*
X44904Y113453D01*
X44910Y113451D01*
X45149Y113291D01*
X45654Y113190D01*
X48803D01*
X49307Y113291D01*
X49735Y113576D01*
X50020Y114004D01*
X50121Y114508D01*
Y115492D01*
X50020Y115996D01*
X49735Y116424D01*
X49307Y116709D01*
X48803Y116810D01*
X45654D01*
X45347Y116748D01*
X45332Y116749D01*
X45313Y116742D01*
X45149Y116709D01*
X45048Y116641D01*
X45034Y116636D01*
X44945Y116580D01*
X44875Y116543D01*
X44802Y116509D01*
X44727Y116480D01*
X44648Y116455D01*
X44565Y116434D01*
X44488Y116419D01*
X44343Y116404D01*
X42909D01*
X42871Y116410D01*
X42833Y116419D01*
X42805Y116429D01*
X42786Y116437D01*
X42774Y116444D01*
X42766Y116449D01*
X42762Y116453D01*
X42747Y116468D01*
X42669Y116586D01*
X42013Y117024D01*
X41240Y117177D01*
D02*
G37*
G36*
X71380Y114600D02*
X68488D01*
X65596D01*
Y114508D01*
X65696Y114004D01*
X65982Y113576D01*
X66409Y113291D01*
X66913Y113190D01*
X68359D01*
X68488Y113165D01*
X68617Y113190D01*
X70063D01*
X70567Y113291D01*
X70995Y113576D01*
X71280Y114004D01*
X71380Y114508D01*
Y114600D01*
D02*
G37*
G36*
X70063Y111810D02*
X66913D01*
X66409Y111709D01*
X65982Y111424D01*
X65696Y110996D01*
X65596Y110492D01*
Y109508D01*
X65696Y109004D01*
X65982Y108576D01*
X66409Y108291D01*
X66913Y108190D01*
X70063D01*
X70567Y108291D01*
X70995Y108576D01*
X71280Y109004D01*
X71380Y109508D01*
Y110492D01*
X71280Y110996D01*
X70995Y111424D01*
X70567Y111709D01*
X70063Y111810D01*
D02*
G37*
G36*
X16737Y122268D02*
X3263D01*
Y114732D01*
X16737D01*
Y116168D01*
X17199Y116360D01*
X24496Y109063D01*
X24926Y108775D01*
X25433Y108675D01*
X44395D01*
X44442Y108673D01*
X44536Y108662D01*
X44618Y108648D01*
X44675Y108633D01*
X44687Y108629D01*
X44722Y108576D01*
X44917Y108446D01*
X44919Y108445D01*
X44919Y108444D01*
X45149Y108291D01*
X45654Y108190D01*
X48803D01*
X49307Y108291D01*
X49735Y108576D01*
X50020Y109004D01*
X50121Y109508D01*
Y110492D01*
X50020Y110996D01*
X49735Y111424D01*
X49307Y111709D01*
X48803Y111810D01*
X45654D01*
X45149Y111709D01*
X44919Y111556D01*
X44919Y111555D01*
X44917Y111554D01*
X44722Y111424D01*
X44687Y111371D01*
X44675Y111367D01*
X44618Y111352D01*
X44547Y111340D01*
X44380Y111326D01*
X25982D01*
X17870Y119437D01*
X17440Y119725D01*
X16933Y119825D01*
X16737D01*
Y122268D01*
D02*
G37*
G36*
X70063Y106810D02*
X66913D01*
X66409Y106709D01*
X65982Y106424D01*
X65696Y105996D01*
X65596Y105492D01*
Y104508D01*
X65696Y104004D01*
X65982Y103576D01*
X66409Y103291D01*
X66913Y103190D01*
X70063D01*
X70567Y103291D01*
X70995Y103576D01*
X71280Y104004D01*
X71380Y104508D01*
Y105492D01*
X71280Y105996D01*
X70995Y106424D01*
X70567Y106709D01*
X70063Y106810D01*
D02*
G37*
G36*
X12968Y112301D02*
X7032D01*
X6048Y112171D01*
X5131Y111792D01*
X4344Y111188D01*
X3740Y110400D01*
X3360Y109484D01*
X3230Y108500D01*
X3360Y107516D01*
X3740Y106599D01*
X4344Y105812D01*
X5131Y105208D01*
X6048Y104829D01*
X7032Y104699D01*
X12968D01*
X13952Y104829D01*
X14869Y105208D01*
X15656Y105812D01*
X16260Y106599D01*
X16492Y107158D01*
X16567Y107169D01*
X16640Y107175D01*
X20872D01*
X23984Y104063D01*
X24414Y103775D01*
X24921Y103674D01*
X44395D01*
X44442Y103673D01*
X44536Y103662D01*
X44618Y103648D01*
X44675Y103633D01*
X44687Y103629D01*
X44722Y103576D01*
X44917Y103446D01*
X44919Y103445D01*
X44919Y103444D01*
X45149Y103291D01*
X45654Y103190D01*
X48803D01*
X49307Y103291D01*
X49735Y103576D01*
X50020Y104004D01*
X50121Y104508D01*
Y105492D01*
X50020Y105996D01*
X49735Y106424D01*
X49307Y106709D01*
X48803Y106810D01*
X45654D01*
X45149Y106709D01*
X44919Y106556D01*
X44919Y106555D01*
X44917Y106554D01*
X44722Y106424D01*
X44687Y106371D01*
X44675Y106367D01*
X44618Y106352D01*
X44547Y106340D01*
X44380Y106325D01*
X25470D01*
X22358Y109437D01*
X21928Y109725D01*
X21421Y109826D01*
X16640D01*
X16567Y109831D01*
X16492Y109842D01*
X16260Y110400D01*
X15656Y111188D01*
X14869Y111792D01*
X13952Y112171D01*
X12968Y112301D01*
D02*
G37*
G36*
X70063Y101810D02*
X66913D01*
X66409Y101709D01*
X65982Y101424D01*
X65696Y100996D01*
X65596Y100492D01*
Y99508D01*
X65696Y99004D01*
X65982Y98576D01*
X66409Y98291D01*
X66913Y98190D01*
X70063D01*
X70567Y98291D01*
X70995Y98576D01*
X71280Y99004D01*
X71380Y99508D01*
Y100492D01*
X71280Y100996D01*
X70995Y101424D01*
X70567Y101709D01*
X70063Y101810D01*
D02*
G37*
G36*
X12968Y102301D02*
X7032D01*
X6048Y102172D01*
X5131Y101792D01*
X4344Y101188D01*
X3740Y100400D01*
X3360Y99484D01*
X3230Y98500D01*
X3360Y97516D01*
X3740Y96600D01*
X4344Y95812D01*
X5131Y95208D01*
X6048Y94828D01*
X7032Y94699D01*
X12968D01*
X13952Y94828D01*
X14869Y95208D01*
X15656Y95812D01*
X16260Y96600D01*
X16492Y97158D01*
X16567Y97169D01*
X16640Y97175D01*
X23397D01*
X23904Y97275D01*
X24334Y97563D01*
X25446Y98674D01*
X35617D01*
X35934Y98175D01*
X35892Y97963D01*
Y96857D01*
X43045D01*
Y97963D01*
X43003Y98175D01*
X43320Y98674D01*
X44395D01*
X44442Y98673D01*
X44536Y98662D01*
X44618Y98648D01*
X44675Y98633D01*
X44687Y98629D01*
X44722Y98576D01*
X44917Y98446D01*
X44919Y98445D01*
X44919Y98444D01*
X45149Y98291D01*
X45654Y98190D01*
X48803D01*
X49307Y98291D01*
X49735Y98576D01*
X50020Y99004D01*
X50121Y99508D01*
Y100492D01*
X50020Y100996D01*
X49735Y101424D01*
X49307Y101709D01*
X48803Y101810D01*
X45654D01*
X45149Y101709D01*
X44919Y101556D01*
X44919Y101555D01*
X44917Y101554D01*
X44722Y101424D01*
X44687Y101371D01*
X44675Y101367D01*
X44618Y101352D01*
X44547Y101340D01*
X44380Y101326D01*
X24897D01*
X24390Y101225D01*
X23960Y100937D01*
X22848Y99826D01*
X16640D01*
X16567Y99831D01*
X16492Y99842D01*
X16260Y100400D01*
X15656Y101188D01*
X14869Y101792D01*
X13952Y102172D01*
X12968Y102301D01*
D02*
G37*
G36*
X48803Y96810D02*
X47628D01*
Y95400D01*
X50121D01*
Y95492D01*
X50020Y95996D01*
X49735Y96424D01*
X49307Y96709D01*
X48803Y96810D01*
D02*
G37*
G36*
X46828D02*
X45654D01*
X45149Y96709D01*
X44722Y96424D01*
X44436Y95996D01*
X44336Y95492D01*
Y95400D01*
X46828D01*
Y96810D01*
D02*
G37*
G36*
X29852Y96687D02*
X27762D01*
Y94494D01*
X30939D01*
Y95600D01*
X30856Y96016D01*
X30621Y96369D01*
X30268Y96604D01*
X29852Y96687D01*
D02*
G37*
G36*
X26962D02*
X24872D01*
X24456Y96604D01*
X24104Y96369D01*
X23868Y96016D01*
X23785Y95600D01*
Y94494D01*
X26962D01*
Y96687D01*
D02*
G37*
G36*
X43045Y96057D02*
X39869D01*
Y93864D01*
X41959D01*
X42375Y93947D01*
X42727Y94182D01*
X42963Y94535D01*
X43045Y94951D01*
Y96057D01*
D02*
G37*
G36*
X39068D02*
X35892D01*
Y94951D01*
X35974Y94535D01*
X36210Y94182D01*
X36562Y93947D01*
X36978Y93864D01*
X39068D01*
Y96057D01*
D02*
G37*
G36*
X70063Y96810D02*
X66913D01*
X66409Y96709D01*
X65982Y96424D01*
X65696Y95996D01*
X65596Y95492D01*
Y94508D01*
X65696Y94004D01*
X65982Y93576D01*
X66409Y93291D01*
X66913Y93190D01*
X70063D01*
X70567Y93291D01*
X70995Y93576D01*
X71280Y94004D01*
X71380Y94508D01*
Y95492D01*
X71280Y95996D01*
X70995Y96424D01*
X70567Y96709D01*
X70063Y96810D01*
D02*
G37*
G36*
X50121Y94600D02*
X47628D01*
Y93190D01*
X48803D01*
X49307Y93291D01*
X49735Y93576D01*
X50020Y94004D01*
X50121Y94508D01*
Y94600D01*
D02*
G37*
G36*
X46828D02*
X44336D01*
Y94508D01*
X44436Y94004D01*
X44722Y93576D01*
X45149Y93291D01*
X45654Y93190D01*
X46828D01*
Y94600D01*
D02*
G37*
G36*
X57472Y124987D02*
X54126D01*
X53699Y124902D01*
X53336Y124660D01*
X53094Y124297D01*
X53009Y123870D01*
Y120130D01*
X53094Y119703D01*
X53336Y119340D01*
X53699Y119098D01*
X54126Y119013D01*
X57472D01*
X57900Y119098D01*
X58262Y119340D01*
X58504Y119703D01*
X58505Y119706D01*
X59044Y119860D01*
X60665Y118240D01*
Y94260D01*
X58240Y91835D01*
X49000D01*
X48837Y91803D01*
X48803Y91810D01*
X45654D01*
X45585Y91796D01*
X43758D01*
X43699Y91800D01*
X43484Y91828D01*
X43301Y91865D01*
X43149Y91907D01*
X43030Y91953D01*
X42943Y91999D01*
X42883Y92040D01*
X42845Y92075D01*
X42781Y92156D01*
X42778Y92158D01*
X42727Y92235D01*
X42545Y92356D01*
X42539Y92362D01*
X42535Y92363D01*
X42375Y92471D01*
X41959Y92553D01*
X36978D01*
X36562Y92471D01*
X36395Y92359D01*
X36388Y92356D01*
X36378Y92347D01*
X36210Y92235D01*
X36154Y92152D01*
X36149Y92147D01*
X36075Y92051D01*
X36026Y92002D01*
X35963Y91954D01*
X35883Y91907D01*
X35781Y91862D01*
X35655Y91820D01*
X35503Y91784D01*
X35326Y91757D01*
X35277Y91752D01*
X34898D01*
X34195Y91613D01*
X33600Y91215D01*
X32707Y90322D01*
X32505Y90160D01*
X32246Y89985D01*
X31980Y89833D01*
X31706Y89706D01*
X31422Y89602D01*
X31128Y89521D01*
X31043Y89545D01*
X30924Y89591D01*
X30836Y89637D01*
X30777Y89678D01*
X30739Y89712D01*
X30675Y89794D01*
X30672Y89796D01*
X30621Y89873D01*
X30439Y89994D01*
X30432Y90000D01*
X30429Y90001D01*
X30268Y90108D01*
X29852Y90191D01*
X24872D01*
X24456Y90108D01*
X24296Y90001D01*
X24292Y90000D01*
X24285Y89994D01*
X24104Y89873D01*
X24052Y89796D01*
X24050Y89794D01*
X23985Y89712D01*
X23948Y89678D01*
X23888Y89637D01*
X23800Y89591D01*
X23681Y89545D01*
X23530Y89502D01*
X23358Y89468D01*
X23012Y89434D01*
X21098D01*
X20396Y89294D01*
X19801Y88896D01*
X7702Y76798D01*
X7304Y76202D01*
X7165Y75500D01*
Y74469D01*
X7150Y74303D01*
X7112Y74071D01*
X7065Y73897D01*
X7019Y73784D01*
X6991Y73737D01*
X5232D01*
Y60263D01*
X6957D01*
X7003Y60258D01*
X7026Y60220D01*
X7070Y60110D01*
X7114Y59942D01*
X7151Y59716D01*
X7165Y59563D01*
Y59110D01*
X7304Y58408D01*
X7702Y57812D01*
X10513Y55001D01*
X11109Y54604D01*
X11811Y54464D01*
X21693D01*
X21854Y53991D01*
X21808Y53955D01*
X21191Y53151D01*
X20803Y52214D01*
X20671Y51209D01*
Y48557D01*
X28000D01*
X35329D01*
Y51209D01*
X35197Y52214D01*
X34809Y53151D01*
X34192Y53955D01*
X34146Y53991D01*
X34306Y54464D01*
X50815D01*
X54070Y51208D01*
Y17323D01*
X54210Y16621D01*
X54608Y16025D01*
X58616Y12017D01*
X59211Y11619D01*
X59913Y11480D01*
X63122D01*
X63234Y11466D01*
X63429Y11427D01*
X63618Y11371D01*
X63801Y11300D01*
X63981Y11212D01*
X64158Y11107D01*
X64333Y10984D01*
X64507Y10840D01*
X64625Y10728D01*
X64694Y10639D01*
X65478Y10037D01*
X66390Y9659D01*
X67370Y9530D01*
X68350Y9659D01*
X69263Y10037D01*
X70047Y10639D01*
X70648Y11422D01*
X71026Y12335D01*
X71155Y13315D01*
X71026Y14295D01*
X70648Y15207D01*
X70047Y15992D01*
X69263Y16593D01*
X68350Y16971D01*
X67370Y17100D01*
X66390Y16971D01*
X65478Y16593D01*
X64694Y15992D01*
X64625Y15902D01*
X64507Y15790D01*
X64333Y15646D01*
X64158Y15523D01*
X63981Y15417D01*
X63801Y15330D01*
X63618Y15259D01*
X63429Y15203D01*
X63234Y15164D01*
X63122Y15150D01*
X60674D01*
X57741Y18083D01*
Y51968D01*
X57601Y52671D01*
X57203Y53266D01*
X52873Y57597D01*
X52277Y57995D01*
X51575Y58135D01*
X44618D01*
X44512Y58218D01*
X44256Y58635D01*
X44335Y59035D01*
Y59528D01*
X44350Y59692D01*
X44388Y59921D01*
X44434Y60093D01*
X44480Y60206D01*
X44511Y60256D01*
X44578Y60263D01*
X46268D01*
Y73412D01*
X47183D01*
X48967Y71627D01*
X49015Y71571D01*
X49060Y71511D01*
X48829Y70952D01*
X48699Y69968D01*
Y64031D01*
X48829Y63048D01*
X49208Y62131D01*
X49812Y61344D01*
X50599Y60740D01*
X51516Y60360D01*
X52500Y60230D01*
X53484Y60360D01*
X54400Y60740D01*
X55188Y61344D01*
X55792Y62131D01*
X56172Y63048D01*
X56301Y64031D01*
Y69968D01*
X56172Y70952D01*
X55792Y71869D01*
X55188Y72656D01*
X54400Y73260D01*
X53484Y73640D01*
X52500Y73769D01*
X51516Y73640D01*
X50958Y73409D01*
X50897Y73454D01*
X50841Y73502D01*
X48669Y75674D01*
X48239Y75962D01*
X47732Y76063D01*
X43181D01*
X42914Y76562D01*
X42927Y76582D01*
X43010Y76998D01*
Y78104D01*
X39433D01*
X35856D01*
Y76998D01*
X35939Y76582D01*
X35952Y76562D01*
X35685Y76063D01*
X23768D01*
X23261Y75962D01*
X22831Y75674D01*
X20659Y73502D01*
X20603Y73454D01*
X20542Y73409D01*
X19984Y73640D01*
X19000Y73769D01*
X18016Y73640D01*
X17099Y73260D01*
X16312Y72656D01*
X15708Y71869D01*
X15328Y70952D01*
X15199Y69968D01*
Y64031D01*
X15328Y63048D01*
X15708Y62131D01*
X16312Y61344D01*
X17099Y60740D01*
X18016Y60360D01*
X19000Y60230D01*
X19984Y60360D01*
X20900Y60740D01*
X21688Y61344D01*
X22292Y62131D01*
X22671Y63048D01*
X22801Y64031D01*
Y69968D01*
X22671Y70952D01*
X22440Y71511D01*
X22486Y71571D01*
X22533Y71627D01*
X24317Y73412D01*
X26475D01*
X26645Y72912D01*
X26312Y72656D01*
X25708Y71869D01*
X25328Y70952D01*
X25199Y69968D01*
Y67400D01*
X29000D01*
X32801D01*
Y69968D01*
X32671Y70952D01*
X32292Y71869D01*
X31688Y72656D01*
X31355Y72912D01*
X31525Y73412D01*
X38732D01*
Y60263D01*
X40422D01*
X40489Y60256D01*
X40520Y60206D01*
X40566Y60093D01*
X40612Y59921D01*
X40637Y59768D01*
X39004Y58135D01*
X12571D01*
X10901Y59805D01*
X11026Y60210D01*
X11048Y60263D01*
X12768D01*
Y73737D01*
X11009D01*
X10981Y73784D01*
X10935Y73897D01*
X10888Y74071D01*
X10850Y74303D01*
X10835Y74469D01*
Y74740D01*
X21859Y85763D01*
X23073D01*
X23132Y85759D01*
X23346Y85731D01*
X23530Y85695D01*
X23681Y85652D01*
X23800Y85606D01*
X23888Y85560D01*
X23948Y85519D01*
X23985Y85484D01*
X24050Y85403D01*
X24052Y85401D01*
X24104Y85324D01*
X24285Y85203D01*
X24292Y85197D01*
X24296Y85196D01*
X24456Y85089D01*
X24872Y85006D01*
X29852D01*
X30268Y85089D01*
X30429Y85196D01*
X30432Y85197D01*
X30439Y85203D01*
X30621Y85324D01*
X30672Y85401D01*
X30675Y85403D01*
X30739Y85484D01*
X30777Y85519D01*
X30836Y85560D01*
X30924Y85606D01*
X31043Y85652D01*
X31128Y85676D01*
X31422Y85595D01*
X31706Y85491D01*
X31980Y85363D01*
X32246Y85212D01*
X32505Y85037D01*
X32707Y84875D01*
X33700Y83882D01*
X34295Y83484D01*
X34998Y83344D01*
X35475D01*
X35531Y83340D01*
X35729Y83314D01*
X35877Y83282D01*
X35900Y83274D01*
X35939Y83078D01*
X36175Y82726D01*
X36527Y82490D01*
X36943Y82407D01*
X41923D01*
X42339Y82490D01*
X42500Y82598D01*
X42503Y82599D01*
X42510Y82604D01*
X42692Y82726D01*
X42743Y82802D01*
X42746Y82805D01*
X42810Y82886D01*
X42847Y82921D01*
X42907Y82962D01*
X42995Y83007D01*
X43114Y83053D01*
X43265Y83096D01*
X43437Y83130D01*
X43783Y83165D01*
X47343D01*
X47472Y83190D01*
X48803D01*
X49307Y83291D01*
X49735Y83576D01*
X50020Y84004D01*
X50121Y84508D01*
Y85492D01*
X50020Y85996D01*
X49735Y86424D01*
X49307Y86709D01*
X48803Y86810D01*
X47472D01*
X47343Y86835D01*
X43722D01*
X43664Y86839D01*
X43449Y86867D01*
X43265Y86904D01*
X43114Y86947D01*
X42995Y86993D01*
X42907Y87038D01*
X42847Y87079D01*
X42810Y87114D01*
X42796Y87131D01*
X42787Y87147D01*
X42738Y87389D01*
X42729Y87628D01*
X42807Y87798D01*
X42845Y87847D01*
X42883Y87881D01*
X42943Y87922D01*
X43030Y87968D01*
X43149Y88014D01*
X43301Y88057D01*
X43472Y88091D01*
X43819Y88125D01*
X48961D01*
X49159Y88165D01*
X59000D01*
X59702Y88304D01*
X60298Y88702D01*
X63798Y92202D01*
X64196Y92798D01*
X64335Y93500D01*
Y119000D01*
X64196Y119702D01*
X63798Y120298D01*
X60894Y123202D01*
X60299Y123599D01*
X59596Y123739D01*
X59136D01*
X59024Y123748D01*
X58811Y123780D01*
X58651Y123819D01*
X58589Y123842D01*
Y123870D01*
X58504Y124297D01*
X58262Y124660D01*
X57900Y124902D01*
X57472Y124987D01*
D02*
G37*
G36*
X30939Y93695D02*
X27762D01*
Y91502D01*
X29852D01*
X30268Y91585D01*
X30621Y91820D01*
X30856Y92173D01*
X30939Y92589D01*
Y93695D01*
D02*
G37*
G36*
X26962D02*
X23785D01*
Y92589D01*
X23868Y92173D01*
X24104Y91820D01*
X24456Y91585D01*
X24872Y91502D01*
X26962D01*
Y93695D01*
D02*
G37*
G36*
X70063Y91810D02*
X66913D01*
X66409Y91709D01*
X65982Y91424D01*
X65696Y90996D01*
X65596Y90492D01*
Y89508D01*
X65696Y89004D01*
X65982Y88576D01*
X66409Y88291D01*
X66913Y88190D01*
X70063D01*
X70567Y88291D01*
X70995Y88576D01*
X71280Y89004D01*
X71380Y89508D01*
Y90492D01*
X71280Y90996D01*
X70995Y91424D01*
X70567Y91709D01*
X70063Y91810D01*
D02*
G37*
G36*
X12968Y92301D02*
X7032D01*
X6048Y92172D01*
X5131Y91792D01*
X4344Y91188D01*
X3740Y90400D01*
X3360Y89484D01*
X3230Y88500D01*
X3360Y87516D01*
X3740Y86599D01*
X4344Y85812D01*
X5131Y85208D01*
X6048Y84829D01*
X7032Y84699D01*
X12968D01*
X13952Y84829D01*
X14869Y85208D01*
X15656Y85812D01*
X16260Y86599D01*
X16640Y87516D01*
X16770Y88500D01*
X16640Y89484D01*
X16260Y90400D01*
X15656Y91188D01*
X14869Y91792D01*
X13952Y92172D01*
X12968Y92301D01*
D02*
G37*
G36*
X41923Y81097D02*
X39833D01*
Y78904D01*
X43010D01*
Y80010D01*
X42927Y80426D01*
X42692Y80778D01*
X42339Y81014D01*
X41923Y81097D01*
D02*
G37*
G36*
X39033D02*
X36943D01*
X36527Y81014D01*
X36175Y80778D01*
X35939Y80426D01*
X35856Y80010D01*
Y78904D01*
X39033D01*
Y81097D01*
D02*
G37*
G36*
X62900Y73717D02*
Y67400D01*
X66301D01*
Y69968D01*
X66171Y70952D01*
X65792Y71869D01*
X65188Y72656D01*
X64401Y73260D01*
X63484Y73640D01*
X62900Y73717D01*
D02*
G37*
G36*
X62100D02*
X61516Y73640D01*
X60599Y73260D01*
X59812Y72656D01*
X59208Y71869D01*
X58829Y70952D01*
X58699Y69968D01*
Y67400D01*
X62100D01*
Y73717D01*
D02*
G37*
G36*
X66301Y66600D02*
X62900D01*
Y60283D01*
X63484Y60360D01*
X64401Y60740D01*
X65188Y61344D01*
X65792Y62131D01*
X66171Y63048D01*
X66301Y64031D01*
Y66600D01*
D02*
G37*
G36*
X32801D02*
X29400D01*
Y60283D01*
X29984Y60360D01*
X30900Y60740D01*
X31688Y61344D01*
X32292Y62131D01*
X32671Y63048D01*
X32801Y64031D01*
Y66600D01*
D02*
G37*
G36*
X62100D02*
X58699D01*
Y64031D01*
X58829Y63048D01*
X59208Y62131D01*
X59812Y61344D01*
X60599Y60740D01*
X61516Y60360D01*
X62100Y60283D01*
Y66600D01*
D02*
G37*
G36*
X28600D02*
X25199D01*
Y64031D01*
X25328Y63048D01*
X25708Y62131D01*
X26312Y61344D01*
X27099Y60740D01*
X28016Y60360D01*
X28600Y60283D01*
Y66600D01*
D02*
G37*
G36*
X67770Y46575D02*
Y43242D01*
X71102D01*
X71026Y43822D01*
X70648Y44735D01*
X70047Y45519D01*
X69263Y46121D01*
X68350Y46499D01*
X67770Y46575D01*
D02*
G37*
G36*
X66970D02*
X66390Y46499D01*
X65478Y46121D01*
X64694Y45519D01*
X64092Y44735D01*
X63714Y43822D01*
X63638Y43242D01*
X66970D01*
Y46575D01*
D02*
G37*
G36*
X35329Y47758D02*
X28400D01*
Y41222D01*
X31445D01*
X32450Y41354D01*
X33387Y41742D01*
X34192Y42360D01*
X34809Y43164D01*
X35197Y44101D01*
X35329Y45106D01*
Y47758D01*
D02*
G37*
G36*
X27600D02*
X20671D01*
Y45106D01*
X20803Y44101D01*
X21191Y43164D01*
X21808Y42360D01*
X22613Y41742D01*
X23550Y41354D01*
X24555Y41222D01*
X27600D01*
Y47758D01*
D02*
G37*
G36*
X71102Y42443D02*
X67770D01*
Y39110D01*
X68350Y39186D01*
X69263Y39564D01*
X70047Y40166D01*
X70648Y40950D01*
X71026Y41863D01*
X71102Y42443D01*
D02*
G37*
G36*
X66970D02*
X63638D01*
X63714Y41863D01*
X64092Y40950D01*
X64694Y40166D01*
X65478Y39564D01*
X66390Y39186D01*
X66970Y39110D01*
Y42443D01*
D02*
G37*
G36*
X71355Y86784D02*
X65621D01*
Y83216D01*
X67163D01*
Y54766D01*
X60480Y48083D01*
X60193Y47653D01*
X60092Y47146D01*
Y34032D01*
X60193Y33524D01*
X60480Y33094D01*
X63193Y30382D01*
X63260Y30279D01*
X63329Y30138D01*
X63396Y29960D01*
X63458Y29743D01*
X63510Y29489D01*
X63551Y29207D01*
X63599Y28502D01*
X63601Y28201D01*
X63585Y28079D01*
X63714Y27099D01*
X64092Y26186D01*
X64694Y25402D01*
X65478Y24801D01*
X66390Y24423D01*
X67370Y24294D01*
X68350Y24423D01*
X69263Y24801D01*
X70047Y25402D01*
X70648Y26186D01*
X71026Y27099D01*
X71155Y28079D01*
X71026Y29058D01*
X70648Y29971D01*
X70047Y30755D01*
X69263Y31357D01*
X68350Y31735D01*
X67370Y31864D01*
X67248Y31848D01*
X66947Y31850D01*
X66241Y31898D01*
X65960Y31938D01*
X65706Y31991D01*
X65489Y32052D01*
X65310Y32120D01*
X65170Y32189D01*
X65067Y32256D01*
X62743Y34580D01*
Y46597D01*
X69425Y53279D01*
X69713Y53709D01*
X69814Y54216D01*
Y83216D01*
X71355D01*
Y86784D01*
D02*
G37*
G36*
X31445Y14936D02*
X28400D01*
Y8400D01*
X35329D01*
Y11051D01*
X35197Y12056D01*
X34809Y12993D01*
X34192Y13798D01*
X33387Y14415D01*
X32450Y14803D01*
X31445Y14936D01*
D02*
G37*
G36*
X27600D02*
X24555D01*
X23550Y14803D01*
X22613Y14415D01*
X21808Y13798D01*
X21191Y12993D01*
X20803Y12056D01*
X20671Y11051D01*
Y8400D01*
X27600D01*
Y14936D01*
D02*
G37*
%LPD*%
G36*
X47583Y120007D02*
X47562Y120195D01*
X47501Y120364D01*
X47399Y120513D01*
X47256Y120642D01*
X47072Y120752D01*
X46847Y120841D01*
X46581Y120911D01*
X46317Y120953D01*
X46046Y120911D01*
X45774Y120841D01*
X45544Y120752D01*
X45356Y120642D01*
X45209Y120513D01*
X45105Y120364D01*
X45042Y120195D01*
X45021Y120007D01*
Y123993D01*
X45042Y123805D01*
X45105Y123636D01*
X45209Y123487D01*
X45356Y123358D01*
X45544Y123248D01*
X45774Y123159D01*
X46046Y123089D01*
X46317Y123047D01*
X46581Y123089D01*
X46847Y123159D01*
X47072Y123248D01*
X47256Y123358D01*
X47399Y123487D01*
X47501Y123636D01*
X47562Y123805D01*
X47583Y123993D01*
Y120007D01*
D02*
G37*
G36*
X42200Y115860D02*
X42269Y115801D01*
X42344Y115749D01*
X42426Y115704D01*
X42515Y115666D01*
X42609Y115634D01*
X42711Y115610D01*
X42818Y115593D01*
X42932Y115582D01*
X43052Y115579D01*
X42978Y114579D01*
X42859Y114576D01*
X42744Y114567D01*
X42635Y114551D01*
X42532Y114530D01*
X42434Y114503D01*
X42342Y114470D01*
X42255Y114430D01*
X42173Y114385D01*
X42097Y114334D01*
X42027Y114276D01*
X42137Y115926D01*
X42200Y115860D01*
D02*
G37*
G36*
X45307Y114162D02*
X45246Y114241D01*
X45173Y114312D01*
X45088Y114374D01*
X44991Y114429D01*
X44882Y114474D01*
X44762Y114512D01*
X44630Y114541D01*
X44486Y114562D01*
X44331Y114575D01*
X44164Y114579D01*
X44181Y115579D01*
X44327Y115582D01*
X44607Y115612D01*
X44741Y115637D01*
X44871Y115670D01*
X44998Y115710D01*
X45121Y115758D01*
X45240Y115813D01*
X45355Y115875D01*
X45466Y115944D01*
X45307Y114162D01*
D02*
G37*
G36*
X15923Y119405D02*
X15954Y119320D01*
X16004Y119245D01*
X16075Y119180D01*
X16166Y119125D01*
X16277Y119080D01*
X16409Y119045D01*
X16561Y119020D01*
X16733Y119005D01*
X16925Y119000D01*
Y118000D01*
X16733Y117995D01*
X16561Y117980D01*
X16409Y117955D01*
X16277Y117920D01*
X16166Y117875D01*
X16075Y117820D01*
X16004Y117755D01*
X15954Y117680D01*
X15923Y117595D01*
X15913Y117500D01*
Y119500D01*
X15923Y119405D01*
D02*
G37*
G36*
X45307Y109162D02*
X45255Y109226D01*
X45189Y109283D01*
X45110Y109334D01*
X45016Y109378D01*
X44909Y109415D01*
X44788Y109446D01*
X44653Y109470D01*
X44504Y109486D01*
X44166Y109500D01*
Y110500D01*
X44342Y110503D01*
X44653Y110530D01*
X44788Y110554D01*
X44909Y110585D01*
X45016Y110622D01*
X45110Y110666D01*
X45189Y110716D01*
X45255Y110774D01*
X45307Y110838D01*
Y109162D01*
D02*
G37*
G36*
X15755Y109402D02*
X15789Y109318D01*
X15846Y109243D01*
X15927Y109179D01*
X16030Y109124D01*
X16156Y109079D01*
X16305Y109045D01*
X16477Y109020D01*
X16672Y109005D01*
X16890Y109000D01*
Y108000D01*
X16672Y107995D01*
X16477Y107980D01*
X16305Y107955D01*
X16156Y107921D01*
X16030Y107876D01*
X15927Y107821D01*
X15846Y107757D01*
X15789Y107682D01*
X15755Y107598D01*
X15743Y107503D01*
Y109496D01*
X15755Y109402D01*
D02*
G37*
G36*
X45307Y104162D02*
X45255Y104226D01*
X45189Y104283D01*
X45110Y104334D01*
X45016Y104378D01*
X44909Y104415D01*
X44788Y104446D01*
X44653Y104470D01*
X44504Y104487D01*
X44166Y104500D01*
Y105500D01*
X44342Y105503D01*
X44653Y105530D01*
X44788Y105554D01*
X44909Y105585D01*
X45016Y105622D01*
X45110Y105666D01*
X45189Y105717D01*
X45255Y105774D01*
X45307Y105838D01*
Y104162D01*
D02*
G37*
G36*
Y99162D02*
X45255Y99226D01*
X45189Y99283D01*
X45110Y99334D01*
X45016Y99378D01*
X44909Y99415D01*
X44788Y99446D01*
X44653Y99470D01*
X44504Y99487D01*
X44166Y99500D01*
Y100500D01*
X44342Y100503D01*
X44653Y100530D01*
X44788Y100554D01*
X44909Y100585D01*
X45016Y100622D01*
X45110Y100666D01*
X45189Y100716D01*
X45255Y100774D01*
X45307Y100838D01*
Y99162D01*
D02*
G37*
G36*
X15755Y99402D02*
X15789Y99318D01*
X15846Y99243D01*
X15927Y99179D01*
X16030Y99124D01*
X16156Y99079D01*
X16305Y99045D01*
X16477Y99020D01*
X16672Y99005D01*
X16890Y99000D01*
Y98000D01*
X16672Y97995D01*
X16477Y97980D01*
X16305Y97955D01*
X16156Y97921D01*
X16030Y97876D01*
X15927Y97821D01*
X15846Y97757D01*
X15789Y97682D01*
X15755Y97598D01*
X15743Y97504D01*
Y99497D01*
X15755Y99402D01*
D02*
G37*
G36*
X57767Y123580D02*
X57822Y123438D01*
X57914Y123313D01*
X58043Y123204D01*
X58210Y123113D01*
X58413Y123037D01*
X58653Y122979D01*
X58930Y122937D01*
X59245Y122912D01*
X59596Y122904D01*
Y120904D01*
X59244Y120896D01*
X58928Y120871D01*
X58649Y120829D01*
X58408Y120771D01*
X58203Y120696D01*
X58036Y120604D01*
X57906Y120496D01*
X57813Y120371D01*
X57756Y120229D01*
X57737Y120071D01*
X57749Y123739D01*
X57767Y123580D01*
D02*
G37*
G36*
X36795Y88272D02*
X36699Y88394D01*
X36582Y88504D01*
X36443Y88601D01*
X36285Y88685D01*
X36105Y88756D01*
X35905Y88814D01*
X35684Y88859D01*
X35443Y88891D01*
X35307Y88901D01*
X35153Y88730D01*
X34955Y88447D01*
X34813Y88164D01*
X34728Y87881D01*
X34700Y87598D01*
X34728Y87316D01*
X34813Y87033D01*
X34955Y86750D01*
X35153Y86467D01*
X35397Y86195D01*
X35754Y86225D01*
X35962Y86261D01*
X36149Y86307D01*
X36315Y86363D01*
X36458Y86429D01*
X36581Y86505D01*
X36681Y86592D01*
X36760Y86689D01*
X36696Y83495D01*
X36682Y83625D01*
X36633Y83741D01*
X36549Y83844D01*
X36431Y83933D01*
X36278Y84008D01*
X36091Y84070D01*
X35870Y84118D01*
X35614Y84152D01*
X35323Y84172D01*
X34998Y84179D01*
Y85960D01*
X33579Y85184D01*
X33290Y85453D01*
X32990Y85693D01*
X32678Y85905D01*
X32354Y86089D01*
X32018Y86245D01*
X31671Y86372D01*
X31312Y86471D01*
X31111Y86510D01*
X31003Y86488D01*
X30784Y86426D01*
X30588Y86351D01*
X30415Y86261D01*
X30266Y86158D01*
X30139Y86041D01*
X30035Y85910D01*
Y89287D01*
X30139Y89156D01*
X30266Y89039D01*
X30415Y88936D01*
X30588Y88846D01*
X30784Y88771D01*
X31003Y88709D01*
X31111Y88687D01*
X31312Y88726D01*
X31671Y88825D01*
X32018Y88952D01*
X32354Y89108D01*
X32678Y89291D01*
X32990Y89504D01*
X33290Y89744D01*
X33579Y90013D01*
X34898Y89291D01*
Y90917D01*
X35170Y90925D01*
X35424Y90946D01*
X35660Y90983D01*
X35877Y91034D01*
X36076Y91100D01*
X36257Y91181D01*
X36419Y91276D01*
X36563Y91386D01*
X36688Y91510D01*
X36795Y91650D01*
Y88272D01*
D02*
G37*
G36*
X42245Y91519D02*
X42372Y91401D01*
X42522Y91298D01*
X42695Y91209D01*
X42891Y91133D01*
X43110Y91071D01*
X43352Y91023D01*
X43617Y90988D01*
X43906Y90968D01*
X44217Y90961D01*
Y88961D01*
X43906Y88954D01*
X43352Y88899D01*
X43110Y88850D01*
X42891Y88788D01*
X42695Y88713D01*
X42522Y88623D01*
X42372Y88520D01*
X42245Y88403D01*
X42142Y88272D01*
Y91650D01*
X42245Y91519D01*
D02*
G37*
G36*
X24689Y85910D02*
X24586Y86041D01*
X24459Y86158D01*
X24309Y86261D01*
X24136Y86351D01*
X23940Y86426D01*
X23721Y86488D01*
X23479Y86536D01*
X23213Y86571D01*
X22925Y86592D01*
X22613Y86598D01*
Y88598D01*
X22925Y88605D01*
X23479Y88660D01*
X23721Y88709D01*
X23940Y88771D01*
X24136Y88846D01*
X24309Y88936D01*
X24459Y89039D01*
X24586Y89156D01*
X24689Y89287D01*
Y85910D01*
D02*
G37*
G36*
X42210Y86558D02*
X42336Y86441D01*
X42486Y86338D01*
X42659Y86248D01*
X42855Y86172D01*
X43074Y86110D01*
X43317Y86062D01*
X43582Y86027D01*
X43870Y86007D01*
X44182Y86000D01*
Y84000D01*
X43870Y83993D01*
X43317Y83938D01*
X43074Y83890D01*
X42855Y83828D01*
X42659Y83752D01*
X42486Y83662D01*
X42336Y83559D01*
X42210Y83442D01*
X42106Y83311D01*
Y86689D01*
X42210Y86558D01*
D02*
G37*
G36*
X10010Y74543D02*
X10040Y74201D01*
X10090Y73899D01*
X10160Y73637D01*
X10250Y73416D01*
X10360Y73235D01*
X10490Y73094D01*
X10640Y72993D01*
X10810Y72933D01*
X11000Y72913D01*
X7000D01*
X7190Y72933D01*
X7360Y72993D01*
X7510Y73094D01*
X7640Y73235D01*
X7750Y73416D01*
X7840Y73637D01*
X7910Y73899D01*
X7960Y74201D01*
X7990Y74543D01*
X8000Y74925D01*
X10000D01*
X10010Y74543D01*
D02*
G37*
G36*
X22127Y72388D02*
X21976Y72230D01*
X21849Y72082D01*
X21745Y71943D01*
X21664Y71813D01*
X21606Y71692D01*
X21572Y71580D01*
X21561Y71478D01*
X21573Y71385D01*
X21608Y71301D01*
X21667Y71226D01*
X20257Y72635D01*
X20332Y72577D01*
X20416Y72541D01*
X20509Y72529D01*
X20612Y72540D01*
X20723Y72575D01*
X20844Y72632D01*
X20974Y72713D01*
X21113Y72817D01*
X21262Y72944D01*
X21419Y73095D01*
X22127Y72388D01*
D02*
G37*
G36*
X50238Y72944D02*
X50387Y72817D01*
X50526Y72713D01*
X50656Y72632D01*
X50777Y72575D01*
X50888Y72540D01*
X50991Y72529D01*
X51084Y72541D01*
X51168Y72577D01*
X51243Y72635D01*
X49833Y71226D01*
X49892Y71301D01*
X49927Y71385D01*
X49939Y71478D01*
X49928Y71580D01*
X49894Y71692D01*
X49836Y71813D01*
X49755Y71943D01*
X49651Y72082D01*
X49524Y72230D01*
X49373Y72388D01*
X50081Y73095D01*
X50238Y72944D01*
D02*
G37*
G36*
X10781Y61055D02*
X10617Y60996D01*
X10473Y60898D01*
X10347Y60761D01*
X10241Y60584D01*
X10154Y60368D01*
X10087Y60112D01*
X10039Y59818D01*
X10010Y59484D01*
X10000Y59110D01*
X8000D01*
X7990Y59484D01*
X7961Y59818D01*
X7913Y60112D01*
X7846Y60368D01*
X7759Y60584D01*
X7653Y60761D01*
X7527Y60898D01*
X7383Y60996D01*
X7219Y61055D01*
X7035Y61075D01*
X10965D01*
X10781Y61055D01*
D02*
G37*
G36*
X44310Y61055D02*
X44140Y60995D01*
X43990Y60895D01*
X43860Y60755D01*
X43750Y60575D01*
X43660Y60355D01*
X43590Y60095D01*
X43540Y59795D01*
X43510Y59455D01*
X43500Y59075D01*
X41500D01*
X41490Y59455D01*
X41460Y59795D01*
X41410Y60095D01*
X41340Y60355D01*
X41250Y60575D01*
X41140Y60755D01*
X41010Y60895D01*
X40860Y60995D01*
X40690Y61055D01*
X40500Y61075D01*
X44500D01*
X44310Y61055D01*
D02*
G37*
G36*
X65261Y11248D02*
X65049Y11451D01*
X64829Y11632D01*
X64602Y11792D01*
X64369Y11931D01*
X64128Y12048D01*
X63881Y12144D01*
X63626Y12219D01*
X63364Y12272D01*
X63096Y12304D01*
X62820Y12315D01*
Y14315D01*
X63096Y14326D01*
X63364Y14358D01*
X63626Y14411D01*
X63881Y14486D01*
X64128Y14582D01*
X64369Y14699D01*
X64602Y14838D01*
X64829Y14998D01*
X65049Y15179D01*
X65261Y15382D01*
Y11248D01*
D02*
G37*
G36*
X69393Y84030D02*
X69308Y83999D01*
X69233Y83949D01*
X69168Y83878D01*
X69113Y83787D01*
X69068Y83675D01*
X69033Y83544D01*
X69008Y83392D01*
X68993Y83220D01*
X68988Y83028D01*
X67988D01*
X67983Y83220D01*
X67968Y83392D01*
X67943Y83544D01*
X67908Y83675D01*
X67863Y83787D01*
X67808Y83878D01*
X67743Y83949D01*
X67668Y83999D01*
X67583Y84030D01*
X67488Y84040D01*
X69488D01*
X69393Y84030D01*
D02*
G37*
G36*
X64574Y31604D02*
X64765Y31480D01*
X64985Y31371D01*
X65233Y31277D01*
X65512Y31198D01*
X65819Y31135D01*
X66156Y31086D01*
X66916Y31034D01*
X67340Y31031D01*
X64417Y28108D01*
X64414Y28532D01*
X64363Y29293D01*
X64314Y29630D01*
X64251Y29937D01*
X64172Y30215D01*
X64078Y30464D01*
X63969Y30684D01*
X63845Y30874D01*
X63706Y31036D01*
X64413Y31743D01*
X64574Y31604D01*
D02*
G37*
D11*
X34998Y85179D02*
X39254D01*
X32579Y87598D02*
X34998Y85179D01*
X39254D02*
X39433Y85000D01*
X21098Y87598D02*
X27362D01*
X47228Y89961D02*
X48961D01*
X41535D02*
X47228D01*
X39425Y89917D02*
X39469Y89961D01*
X34898Y89917D02*
X39425D01*
X27362Y87598D02*
X32579D01*
X34898Y89917D01*
X55895Y121904D02*
X59596D01*
X62500Y119000D01*
X55799Y122000D02*
X55895Y121904D01*
X39433Y85000D02*
X47228D01*
X47343D01*
X49000Y90000D02*
X59000D01*
X62500Y93500D01*
X11811Y56299D02*
X51575D01*
X9000Y67000D02*
Y75500D01*
Y59110D02*
Y67000D01*
Y75500D02*
X21098Y87598D01*
X9000Y59110D02*
X11811Y56299D01*
X51575D02*
X55905Y51968D01*
X42500Y59035D02*
Y67000D01*
X39961Y56496D02*
X42500Y59035D01*
X55905Y17323D02*
Y51968D01*
Y17323D02*
X59913Y13315D01*
X67370D01*
X41526Y89951D02*
X41535Y89961D01*
X62500Y93500D02*
Y119000D01*
X68488Y115000D02*
X68494Y115006D01*
X43150Y122000D02*
X49500D01*
D12*
X10000Y118500D02*
X16933D01*
X25433Y110000D02*
X47228D01*
X16933Y118500D02*
X25433Y110000D01*
X10000Y108500D02*
X21421D01*
X24921Y105000D02*
X47228D01*
X21421Y108500D02*
X24921Y105000D01*
X10000Y98500D02*
X23397D01*
X24897Y100000D02*
X47228D01*
X23397Y98500D02*
X24897Y100000D01*
X47150Y115079D02*
X47228Y115000D01*
X41240Y115157D02*
X41319Y115079D01*
X47150D01*
X61417Y34032D02*
Y47146D01*
X68488Y54216D02*
Y85000D01*
X61417Y47146D02*
X68488Y54216D01*
X61417Y34032D02*
X67370Y28079D01*
X47732Y74737D02*
X52500Y69968D01*
Y67000D02*
Y69968D01*
X23768Y74737D02*
X47732D01*
X19000Y69968D02*
X23768Y74737D01*
X19000Y67000D02*
Y69968D01*
D15*
X68488Y85000D02*
D03*
D16*
Y90000D02*
D03*
Y95000D02*
D03*
Y100000D02*
D03*
Y105000D02*
D03*
Y110000D02*
D03*
Y115000D02*
D03*
X47228Y85000D02*
D03*
Y90000D02*
D03*
Y95000D02*
D03*
Y100000D02*
D03*
Y105000D02*
D03*
Y110000D02*
D03*
Y115000D02*
D03*
D17*
X27362Y94095D02*
D03*
Y87598D02*
D03*
X39433Y85000D02*
D03*
Y78504D02*
D03*
X39469Y89961D02*
D03*
Y96457D02*
D03*
D18*
X43150Y122000D02*
D03*
X36850D02*
D03*
D19*
X49500D02*
D03*
X55799D02*
D03*
D31*
X62500Y67000D02*
D03*
X52500D02*
D03*
X29000D02*
D03*
X19000D02*
D03*
D32*
X42500D02*
D03*
X9000D02*
D03*
D33*
X67370Y42843D02*
D03*
Y28079D02*
D03*
Y13315D02*
D03*
D34*
X28000Y48158D02*
D03*
Y8000D02*
D03*
D35*
X10000Y118500D02*
D03*
D36*
Y108500D02*
D03*
Y88500D02*
D03*
Y98500D02*
D03*
D37*
X35039Y64468D02*
D03*
Y69685D02*
D03*
X44685Y78543D02*
D03*
X62500Y75492D02*
D03*
Y58465D02*
D03*
X18799Y7972D02*
D03*
X27953Y16929D02*
D03*
X37303Y7972D02*
D03*
X37106Y48130D02*
D03*
X18898Y48228D02*
D03*
X67323D02*
D03*
X67421Y37402D02*
D03*
X56595Y116339D02*
D03*
X68405Y118996D02*
D03*
X56693Y107087D02*
D03*
X23622Y122047D02*
D03*
X32382D02*
D03*
X36811Y117717D02*
D03*
X51870Y94980D02*
D03*
X34252Y96457D02*
D03*
X22047Y94095D02*
D03*
X32677D02*
D03*
X33858Y81496D02*
D03*
Y78347D02*
D03*
X56693Y94945D02*
D03*
X63779Y80772D02*
D03*
Y24079D02*
D03*
X56693Y9905D02*
D03*
X49606Y80772D02*
D03*
Y52425D02*
D03*
X42520Y38252D02*
D03*
X49606Y24079D02*
D03*
X42520Y9905D02*
D03*
X28346Y38252D02*
D03*
X35433Y24079D02*
D03*
X21260Y80772D02*
D03*
X14173Y38252D02*
D03*
X21260Y24079D02*
D03*
X14173Y9905D02*
D03*
X41240Y115157D02*
D03*
M02*
