G04*
G04 #@! TF.GenerationSoftware,Altium Limited,Altium Designer,21.6.4 (81)*
G04*
G04 Layer_Color=8388736*
%FSLAX25Y25*%
%MOIN*%
G70*
G04*
G04 #@! TF.SameCoordinates,9C5CF058-6E8D-4512-A6E1-B80F84B0311E*
G04*
G04*
G04 #@! TF.FilePolarity,Negative*
G04*
G01*
G75*
G04:AMPARAMS|DCode=19|XSize=61.02mil|YSize=41.34mil|CornerRadius=5.61mil|HoleSize=0mil|Usage=FLASHONLY|Rotation=270.000|XOffset=0mil|YOffset=0mil|HoleType=Round|Shape=RoundedRectangle|*
%AMROUNDEDRECTD19*
21,1,0.06102,0.03012,0,0,270.0*
21,1,0.04980,0.04134,0,0,270.0*
1,1,0.01122,-0.01506,-0.02490*
1,1,0.01122,-0.01506,0.02490*
1,1,0.01122,0.01506,0.02490*
1,1,0.01122,0.01506,-0.02490*
%
%ADD19ROUNDEDRECTD19*%
G04:AMPARAMS|DCode=20|XSize=49.21mil|YSize=45.28mil|CornerRadius=6.89mil|HoleSize=0mil|Usage=FLASHONLY|Rotation=270.000|XOffset=0mil|YOffset=0mil|HoleType=Round|Shape=RoundedRectangle|*
%AMROUNDEDRECTD20*
21,1,0.04921,0.03150,0,0,270.0*
21,1,0.03543,0.04528,0,0,270.0*
1,1,0.01378,-0.01575,-0.01772*
1,1,0.01378,-0.01575,0.01772*
1,1,0.01378,0.01575,0.01772*
1,1,0.01378,0.01575,-0.01772*
%
%ADD20ROUNDEDRECTD20*%
G04:AMPARAMS|DCode=21|XSize=49.21mil|YSize=45.28mil|CornerRadius=5.91mil|HoleSize=0mil|Usage=FLASHONLY|Rotation=90.000|XOffset=0mil|YOffset=0mil|HoleType=Round|Shape=RoundedRectangle|*
%AMROUNDEDRECTD21*
21,1,0.04921,0.03347,0,0,90.0*
21,1,0.03740,0.04528,0,0,90.0*
1,1,0.01181,0.01673,0.01870*
1,1,0.01181,0.01673,-0.01870*
1,1,0.01181,-0.01673,-0.01870*
1,1,0.01181,-0.01673,0.01870*
%
%ADD21ROUNDEDRECTD21*%
G04:AMPARAMS|DCode=22|XSize=61.02mil|YSize=41.34mil|CornerRadius=5.61mil|HoleSize=0mil|Usage=FLASHONLY|Rotation=180.000|XOffset=0mil|YOffset=0mil|HoleType=Round|Shape=RoundedRectangle|*
%AMROUNDEDRECTD22*
21,1,0.06102,0.03012,0,0,180.0*
21,1,0.04980,0.04134,0,0,180.0*
1,1,0.01122,-0.02490,0.01506*
1,1,0.01122,0.02490,0.01506*
1,1,0.01122,0.02490,-0.01506*
1,1,0.01122,-0.02490,-0.01506*
%
%ADD22ROUNDEDRECTD22*%
%ADD23R,0.05900X0.05900*%
%ADD24C,0.05900*%
%ADD25R,0.06528X0.12465*%
%ADD26O,0.06528X0.12465*%
%ADD27O,0.12465X0.06528*%
%ADD28R,0.12465X0.06528*%
%ADD29C,0.06496*%
G04:AMPARAMS|DCode=30|XSize=135.83mil|YSize=127.95mil|CornerRadius=33.47mil|HoleSize=0mil|Usage=FLASHONLY|Rotation=180.000|XOffset=0mil|YOffset=0mil|HoleType=Round|Shape=RoundedRectangle|*
%AMROUNDEDRECTD30*
21,1,0.13583,0.06102,0,0,180.0*
21,1,0.06890,0.12795,0,0,180.0*
1,1,0.06693,-0.03445,0.03051*
1,1,0.06693,0.03445,0.03051*
1,1,0.06693,0.03445,-0.03051*
1,1,0.06693,-0.03445,-0.03051*
%
%ADD30ROUNDEDRECTD30*%
D19*
X15453Y85433D02*
D03*
X8957D02*
D03*
D20*
X18898Y157087D02*
D03*
X12598D02*
D03*
D21*
X24803D02*
D03*
X31102D02*
D03*
D22*
X29921Y91339D02*
D03*
Y84842D02*
D03*
Y101279D02*
D03*
Y107776D02*
D03*
D23*
X68189Y91260D02*
D03*
D24*
Y101260D02*
D03*
Y111260D02*
D03*
Y121260D02*
D03*
Y131260D02*
D03*
Y141260D02*
D03*
Y151260D02*
D03*
X38189D02*
D03*
Y141260D02*
D03*
Y131260D02*
D03*
Y121260D02*
D03*
Y111260D02*
D03*
Y101260D02*
D03*
Y91260D02*
D03*
D25*
X42500Y67000D02*
D03*
X9000D02*
D03*
D26*
X52500D02*
D03*
X62500D02*
D03*
X29000D02*
D03*
X19000D02*
D03*
D27*
X10000Y121335D02*
D03*
Y111335D02*
D03*
Y131335D02*
D03*
D28*
Y141335D02*
D03*
D29*
X67370Y42843D02*
D03*
Y28079D02*
D03*
Y13315D02*
D03*
D30*
X28000Y48158D02*
D03*
Y8000D02*
D03*
M02*
