G04*
G04 #@! TF.GenerationSoftware,Altium Limited,Altium Designer,21.6.4 (81)*
G04*
G04 Layer_Physical_Order=2*
G04 Layer_Color=16711680*
%FSLAX25Y25*%
%MOIN*%
G70*
G04*
G04 #@! TF.SameCoordinates,6B608D9E-A8E0-47A2-ABE4-9162D6615288*
G04*
G04*
G04 #@! TF.FilePolarity,Positive*
G04*
G01*
G75*
%ADD12C,0.01000*%
%ADD31O,0.05937X0.11874*%
%ADD32R,0.05937X0.11874*%
%ADD33C,0.05906*%
G04:AMPARAMS|DCode=34|XSize=129.92mil|YSize=122.05mil|CornerRadius=30.51mil|HoleSize=0mil|Usage=FLASHONLY|Rotation=180.000|XOffset=0mil|YOffset=0mil|HoleType=Round|Shape=RoundedRectangle|*
%AMROUNDEDRECTD34*
21,1,0.12992,0.06102,0,0,180.0*
21,1,0.06890,0.12205,0,0,180.0*
1,1,0.06102,-0.03445,0.03051*
1,1,0.06102,0.03445,0.03051*
1,1,0.06102,0.03445,-0.03051*
1,1,0.06102,-0.03445,-0.03051*
%
%ADD34ROUNDEDRECTD34*%
%ADD35R,0.11874X0.05937*%
%ADD36O,0.11874X0.05937*%
%ADD37C,0.02362*%
G36*
X70800Y125431D02*
X71478Y124978D01*
X71931Y124300D01*
X72086Y123520D01*
X72082Y123500D01*
X72082Y3000D01*
X72086Y2980D01*
X71931Y2200D01*
X71478Y1522D01*
X70800Y1069D01*
X70020Y914D01*
X70000Y918D01*
X33083D01*
X32983Y1418D01*
X33387Y1585D01*
X34192Y2202D01*
X34809Y3007D01*
X35197Y3943D01*
X35329Y4949D01*
Y7600D01*
X28000D01*
X20671D01*
Y4949D01*
X20803Y3943D01*
X21191Y3007D01*
X21808Y2202D01*
X22613Y1585D01*
X23017Y1418D01*
X22917Y918D01*
X3000D01*
X2980Y914D01*
X2200Y1069D01*
X1522Y1522D01*
X1069Y2200D01*
X914Y2980D01*
X918Y3000D01*
X918Y123000D01*
X918Y123012D01*
X918Y123500D01*
X1002Y123965D01*
X1069Y124300D01*
X1522Y124978D01*
X2200Y125431D01*
X2980Y125586D01*
X3000Y125582D01*
X70000Y125582D01*
X70020Y125586D01*
X70800Y125431D01*
D02*
G37*
%LPC*%
G36*
X16737Y122268D02*
X3263D01*
Y114732D01*
X16737D01*
Y122268D01*
D02*
G37*
G36*
X41240Y117177D02*
X40467Y117024D01*
X39812Y116586D01*
X39772Y116527D01*
X39759Y116520D01*
X39733Y116510D01*
X39698Y116499D01*
X39654Y116489D01*
X39613Y116483D01*
X34843D01*
X34335Y116382D01*
X33905Y116095D01*
X29259Y111448D01*
X28971Y111018D01*
X28871Y110511D01*
Y93378D01*
X25323Y89830D01*
X16639D01*
X16566Y89836D01*
X16490Y89847D01*
X16260Y90400D01*
X15656Y91188D01*
X14869Y91792D01*
X13952Y92172D01*
X12968Y92301D01*
X7032D01*
X6048Y92172D01*
X5131Y91792D01*
X4344Y91188D01*
X3740Y90400D01*
X3360Y89484D01*
X3230Y88500D01*
X3360Y87516D01*
X3740Y86599D01*
X4344Y85812D01*
X5131Y85208D01*
X6048Y84829D01*
X7032Y84699D01*
X12968D01*
X13952Y84829D01*
X14869Y85208D01*
X15656Y85812D01*
X16260Y86599D01*
X16494Y87163D01*
X16567Y87174D01*
X16641Y87179D01*
X25872D01*
X26379Y87280D01*
X26809Y87568D01*
X31133Y91892D01*
X31421Y92322D01*
X31521Y92829D01*
Y109962D01*
X35392Y113832D01*
X39613D01*
X39654Y113826D01*
X39698Y113816D01*
X39733Y113805D01*
X39759Y113795D01*
X39772Y113788D01*
X39812Y113729D01*
X40467Y113291D01*
X41240Y113138D01*
X42013Y113291D01*
X42669Y113729D01*
X43106Y114384D01*
X43260Y115157D01*
X43106Y115930D01*
X42669Y116586D01*
X42013Y117024D01*
X41240Y117177D01*
D02*
G37*
G36*
X12968Y112301D02*
X7032D01*
X6048Y112171D01*
X5131Y111792D01*
X4344Y111188D01*
X3740Y110400D01*
X3360Y109484D01*
X3230Y108500D01*
X3360Y107516D01*
X3740Y106599D01*
X4344Y105812D01*
X5131Y105208D01*
X6048Y104829D01*
X7032Y104699D01*
X12968D01*
X13952Y104829D01*
X14869Y105208D01*
X15656Y105812D01*
X16260Y106599D01*
X16640Y107516D01*
X16770Y108500D01*
X16640Y109484D01*
X16260Y110400D01*
X15656Y111188D01*
X14869Y111792D01*
X13952Y112171D01*
X12968Y112301D01*
D02*
G37*
G36*
Y102301D02*
X7032D01*
X6048Y102172D01*
X5131Y101792D01*
X4344Y101188D01*
X3740Y100400D01*
X3360Y99484D01*
X3230Y98500D01*
X3360Y97516D01*
X3740Y96600D01*
X4344Y95812D01*
X5131Y95208D01*
X6048Y94828D01*
X7032Y94699D01*
X12968D01*
X13952Y94828D01*
X14869Y95208D01*
X15656Y95812D01*
X16260Y96600D01*
X16640Y97516D01*
X16770Y98500D01*
X16640Y99484D01*
X16260Y100400D01*
X15656Y101188D01*
X14869Y101792D01*
X13952Y102172D01*
X12968Y102301D01*
D02*
G37*
G36*
X62900Y73717D02*
Y67400D01*
X66301D01*
Y69968D01*
X66171Y70952D01*
X65792Y71869D01*
X65188Y72656D01*
X64401Y73260D01*
X63484Y73640D01*
X62900Y73717D01*
D02*
G37*
G36*
X29400D02*
Y67400D01*
X32801D01*
Y69968D01*
X32671Y70952D01*
X32292Y71869D01*
X31688Y72656D01*
X30900Y73260D01*
X29984Y73640D01*
X29400Y73717D01*
D02*
G37*
G36*
X62100D02*
X61516Y73640D01*
X60599Y73260D01*
X59812Y72656D01*
X59208Y71869D01*
X58829Y70952D01*
X58699Y69968D01*
Y67400D01*
X62100D01*
Y73717D01*
D02*
G37*
G36*
X28600D02*
X28016Y73640D01*
X27099Y73260D01*
X26312Y72656D01*
X25708Y71869D01*
X25328Y70952D01*
X25199Y69968D01*
Y67400D01*
X28600D01*
Y73717D01*
D02*
G37*
G36*
X66301Y66600D02*
X62900D01*
Y60283D01*
X63484Y60360D01*
X64401Y60740D01*
X65188Y61344D01*
X65792Y62131D01*
X66171Y63048D01*
X66301Y64031D01*
Y66600D01*
D02*
G37*
G36*
X32801D02*
X29400D01*
Y60283D01*
X29984Y60360D01*
X30900Y60740D01*
X31688Y61344D01*
X32292Y62131D01*
X32671Y63048D01*
X32801Y64031D01*
Y66600D01*
D02*
G37*
G36*
X62100D02*
X58699D01*
Y64031D01*
X58829Y63048D01*
X59208Y62131D01*
X59812Y61344D01*
X60599Y60740D01*
X61516Y60360D01*
X62100Y60283D01*
Y66600D01*
D02*
G37*
G36*
X28600D02*
X25199D01*
Y64031D01*
X25328Y63048D01*
X25708Y62131D01*
X26312Y61344D01*
X27099Y60740D01*
X28016Y60360D01*
X28600Y60283D01*
Y66600D01*
D02*
G37*
G36*
X46268Y73737D02*
X38732D01*
Y60263D01*
X46268D01*
Y73737D01*
D02*
G37*
G36*
X12768D02*
X5232D01*
Y60263D01*
X12768D01*
Y73737D01*
D02*
G37*
G36*
X52500Y73769D02*
X51516Y73640D01*
X50599Y73260D01*
X49812Y72656D01*
X49208Y71869D01*
X48829Y70952D01*
X48699Y69968D01*
Y64031D01*
X48829Y63048D01*
X49208Y62131D01*
X49812Y61344D01*
X50599Y60740D01*
X51516Y60360D01*
X52500Y60230D01*
X53484Y60360D01*
X54400Y60740D01*
X55188Y61344D01*
X55792Y62131D01*
X56172Y63048D01*
X56301Y64031D01*
Y69968D01*
X56172Y70952D01*
X55792Y71869D01*
X55188Y72656D01*
X54400Y73260D01*
X53484Y73640D01*
X52500Y73769D01*
D02*
G37*
G36*
X19000D02*
X18016Y73640D01*
X17099Y73260D01*
X16312Y72656D01*
X15708Y71869D01*
X15328Y70952D01*
X15199Y69968D01*
Y64031D01*
X15328Y63048D01*
X15708Y62131D01*
X16312Y61344D01*
X17099Y60740D01*
X18016Y60360D01*
X19000Y60230D01*
X19984Y60360D01*
X20900Y60740D01*
X21688Y61344D01*
X22292Y62131D01*
X22671Y63048D01*
X22801Y64031D01*
Y69968D01*
X22671Y70952D01*
X22292Y71869D01*
X21688Y72656D01*
X20900Y73260D01*
X19984Y73640D01*
X19000Y73769D01*
D02*
G37*
G36*
X31445Y55093D02*
X28400D01*
Y48557D01*
X35329D01*
Y51209D01*
X35197Y52214D01*
X34809Y53151D01*
X34192Y53955D01*
X33387Y54573D01*
X32450Y54961D01*
X31445Y55093D01*
D02*
G37*
G36*
X27600D02*
X24555D01*
X23550Y54961D01*
X22613Y54573D01*
X21808Y53955D01*
X21191Y53151D01*
X20803Y52214D01*
X20671Y51209D01*
Y48557D01*
X27600D01*
Y55093D01*
D02*
G37*
G36*
X67770Y46575D02*
Y43242D01*
X71102D01*
X71026Y43822D01*
X70648Y44735D01*
X70047Y45519D01*
X69263Y46121D01*
X68350Y46499D01*
X67770Y46575D01*
D02*
G37*
G36*
X66970D02*
X66390Y46499D01*
X65478Y46121D01*
X64694Y45519D01*
X64092Y44735D01*
X63714Y43822D01*
X63638Y43242D01*
X66970D01*
Y46575D01*
D02*
G37*
G36*
X35329Y47758D02*
X28400D01*
Y41222D01*
X31445D01*
X32450Y41354D01*
X33387Y41742D01*
X34192Y42360D01*
X34809Y43164D01*
X35197Y44101D01*
X35329Y45106D01*
Y47758D01*
D02*
G37*
G36*
X27600D02*
X20671D01*
Y45106D01*
X20803Y44101D01*
X21191Y43164D01*
X21808Y42360D01*
X22613Y41742D01*
X23550Y41354D01*
X24555Y41222D01*
X27600D01*
Y47758D01*
D02*
G37*
G36*
X71102Y42443D02*
X67770D01*
Y39110D01*
X68350Y39186D01*
X69263Y39564D01*
X70047Y40166D01*
X70648Y40950D01*
X71026Y41863D01*
X71102Y42443D01*
D02*
G37*
G36*
X66970D02*
X63638D01*
X63714Y41863D01*
X64092Y40950D01*
X64694Y40166D01*
X65478Y39564D01*
X66390Y39186D01*
X66970Y39110D01*
Y42443D01*
D02*
G37*
G36*
X67370Y31864D02*
X66390Y31735D01*
X65478Y31357D01*
X64694Y30755D01*
X64092Y29971D01*
X63714Y29058D01*
X63585Y28079D01*
X63714Y27099D01*
X64092Y26186D01*
X64694Y25402D01*
X65478Y24801D01*
X66390Y24423D01*
X67370Y24294D01*
X68350Y24423D01*
X69263Y24801D01*
X70047Y25402D01*
X70648Y26186D01*
X71026Y27099D01*
X71155Y28079D01*
X71026Y29058D01*
X70648Y29971D01*
X70047Y30755D01*
X69263Y31357D01*
X68350Y31735D01*
X67370Y31864D01*
D02*
G37*
G36*
Y17100D02*
X66390Y16971D01*
X65478Y16593D01*
X64694Y15992D01*
X64092Y15207D01*
X63714Y14295D01*
X63585Y13315D01*
X63714Y12335D01*
X64092Y11422D01*
X64694Y10639D01*
X65478Y10037D01*
X66390Y9659D01*
X67370Y9530D01*
X68350Y9659D01*
X69263Y10037D01*
X70047Y10639D01*
X70648Y11422D01*
X71026Y12335D01*
X71155Y13315D01*
X71026Y14295D01*
X70648Y15207D01*
X70047Y15992D01*
X69263Y16593D01*
X68350Y16971D01*
X67370Y17100D01*
D02*
G37*
G36*
X31445Y14936D02*
X28400D01*
Y8400D01*
X35329D01*
Y11051D01*
X35197Y12056D01*
X34809Y12993D01*
X34192Y13798D01*
X33387Y14415D01*
X32450Y14803D01*
X31445Y14936D01*
D02*
G37*
G36*
X27600D02*
X24555D01*
X23550Y14803D01*
X22613Y14415D01*
X21808Y13798D01*
X21191Y12993D01*
X20803Y12056D01*
X20671Y11051D01*
Y8400D01*
X27600D01*
Y14936D01*
D02*
G37*
%LPD*%
G36*
X40397Y114331D02*
X40330Y114393D01*
X40257Y114448D01*
X40178Y114497D01*
X40093Y114540D01*
X40003Y114576D01*
X39906Y114605D01*
X39804Y114628D01*
X39696Y114644D01*
X39582Y114654D01*
X39461Y114657D01*
Y115657D01*
X39582Y115661D01*
X39696Y115671D01*
X39804Y115687D01*
X39906Y115710D01*
X40003Y115739D01*
X40093Y115775D01*
X40178Y115818D01*
X40257Y115867D01*
X40330Y115922D01*
X40397Y115984D01*
Y114331D01*
D02*
G37*
G36*
X15753Y89407D02*
X15788Y89323D01*
X15845Y89248D01*
X15926Y89183D01*
X16029Y89129D01*
X16155Y89084D01*
X16305Y89050D01*
X16477Y89025D01*
X16672Y89010D01*
X16890Y89005D01*
X16891Y88005D01*
X16673Y88000D01*
X16478Y87985D01*
X16306Y87960D01*
X16157Y87925D01*
X16031Y87881D01*
X15928Y87826D01*
X15847Y87761D01*
X15790Y87687D01*
X15756Y87603D01*
X15745Y87508D01*
X15742Y89501D01*
X15753Y89407D01*
D02*
G37*
D12*
X30196Y92829D02*
Y110511D01*
X34843Y115157D02*
X41240D01*
X30196Y110511D02*
X34843Y115157D01*
X25872Y88505D02*
X30196Y92829D01*
X10005Y88505D02*
X25872D01*
X10000Y88500D02*
X10005Y88505D01*
D31*
X62500Y67000D02*
D03*
X52500D02*
D03*
X29000D02*
D03*
X19000D02*
D03*
D32*
X42500D02*
D03*
X9000D02*
D03*
D33*
X67370Y42843D02*
D03*
Y28079D02*
D03*
Y13315D02*
D03*
D34*
X28000Y48158D02*
D03*
Y8000D02*
D03*
D35*
X10000Y118500D02*
D03*
D36*
Y108500D02*
D03*
Y88500D02*
D03*
Y98500D02*
D03*
D37*
X35039Y64468D02*
D03*
Y69685D02*
D03*
X44685Y78543D02*
D03*
X62500Y75492D02*
D03*
Y58465D02*
D03*
X18799Y7972D02*
D03*
X27953Y16929D02*
D03*
X37303Y7972D02*
D03*
X37106Y48130D02*
D03*
X18898Y48228D02*
D03*
X67323D02*
D03*
X67421Y37402D02*
D03*
X56595Y116339D02*
D03*
X68405Y118996D02*
D03*
X56693Y107087D02*
D03*
X23622Y122047D02*
D03*
X32382D02*
D03*
X36811Y117717D02*
D03*
X51870Y94980D02*
D03*
X34252Y96457D02*
D03*
X22047Y94095D02*
D03*
X32677D02*
D03*
X33858Y81496D02*
D03*
Y78347D02*
D03*
X56693Y94945D02*
D03*
X63779Y80772D02*
D03*
Y24079D02*
D03*
X56693Y9905D02*
D03*
X49606Y80772D02*
D03*
Y52425D02*
D03*
X42520Y38252D02*
D03*
X49606Y24079D02*
D03*
X42520Y9905D02*
D03*
X28346Y38252D02*
D03*
X35433Y24079D02*
D03*
X21260Y80772D02*
D03*
X14173Y38252D02*
D03*
X21260Y24079D02*
D03*
X14173Y9905D02*
D03*
X41240Y115157D02*
D03*
M02*
