G04*
G04 #@! TF.GenerationSoftware,Altium Limited,Altium Designer,21.6.4 (81)*
G04*
G04 Layer_Color=65535*
%FSLAX25Y25*%
%MOIN*%
G70*
G04*
G04 #@! TF.SameCoordinates,6B608D9E-A8E0-47A2-ABE4-9162D6615288*
G04*
G04*
G04 #@! TF.FilePolarity,Positive*
G04*
G01*
G75*
%ADD10C,0.00984*%
%ADD11C,0.02000*%
%ADD12C,0.01000*%
%ADD13C,0.00300*%
%ADD14C,0.00500*%
D10*
X68882Y81063D02*
X68094D01*
X68882D01*
D11*
X38394Y57185D02*
X37644Y57618D01*
Y56752D01*
X38394Y57185D01*
X9500Y77000D02*
X8750Y77433D01*
Y76567D01*
X9500Y77000D01*
X21000Y123000D02*
X20250Y123433D01*
Y122567D01*
X21000Y123000D01*
D12*
X37500Y60000D02*
X67500D01*
X37500Y72000D02*
Y74000D01*
Y60000D02*
Y72000D01*
Y74000D02*
X67500D01*
Y60000D02*
Y74000D01*
X4000Y60000D02*
X34000D01*
X4000Y72000D02*
Y74000D01*
Y60000D02*
Y72000D01*
Y74000D02*
X34000D01*
Y60000D02*
Y74000D01*
X15000Y123500D02*
X17000D01*
X3000Y83500D02*
X15000D01*
X17000D02*
Y123500D01*
X15000Y83500D02*
X17000D01*
X3000D02*
Y123500D01*
X15000D01*
D13*
X61082Y57872D02*
X60748Y58205D01*
X60082D01*
X59749Y57872D01*
Y56539D01*
X60082Y56205D01*
X60748D01*
X61082Y56539D01*
Y57205D01*
X60415D01*
X61748Y56205D02*
Y58205D01*
X63081Y56205D01*
Y58205D01*
X63748D02*
Y56205D01*
X64747D01*
X65080Y56539D01*
Y57872D01*
X64747Y58205D01*
X63748D01*
X27633Y57966D02*
X27300Y58299D01*
X26633D01*
X26300Y57966D01*
Y56633D01*
X26633Y56300D01*
X27300D01*
X27633Y56633D01*
Y57300D01*
X26966D01*
X28299Y56300D02*
Y58299D01*
X29632Y56300D01*
Y58299D01*
X30299D02*
Y56300D01*
X31298D01*
X31632Y56633D01*
Y57966D01*
X31298Y58299D01*
X30299D01*
X40064Y57872D02*
X40397Y58205D01*
X41063D01*
X41397Y57872D01*
Y57538D01*
X41063Y57205D01*
X40730D01*
X41063D01*
X41397Y56872D01*
Y56539D01*
X41063Y56205D01*
X40397D01*
X40064Y56539D01*
X42063Y58205D02*
Y56872D01*
X42730Y56205D01*
X43396Y56872D01*
Y58205D01*
X44063Y57872D02*
X44396Y58205D01*
X45062D01*
X45395Y57872D01*
Y57538D01*
X45062Y57205D01*
X44729D01*
X45062D01*
X45395Y56872D01*
Y56539D01*
X45062Y56205D01*
X44396D01*
X44063Y56539D01*
X49800Y56300D02*
Y58299D01*
X50800D01*
X51133Y57966D01*
Y57300D01*
X50800Y56966D01*
X49800D01*
X51799Y58299D02*
Y56300D01*
X52466Y56966D01*
X53132Y56300D01*
Y58299D01*
X53799Y56300D02*
Y58299D01*
X54465Y57633D01*
X55132Y58299D01*
Y56300D01*
X6300Y57966D02*
X6633Y58299D01*
X7300D01*
X7633Y57966D01*
Y57633D01*
X7300Y57300D01*
X6966D01*
X7300D01*
X7633Y56966D01*
Y56633D01*
X7300Y56300D01*
X6633D01*
X6300Y56633D01*
X8299Y58299D02*
Y56966D01*
X8966Y56300D01*
X9632Y56966D01*
Y58299D01*
X10299Y57966D02*
X10632Y58299D01*
X11298D01*
X11632Y57966D01*
Y57633D01*
X11298Y57300D01*
X10965D01*
X11298D01*
X11632Y56966D01*
Y56633D01*
X11298Y56300D01*
X10632D01*
X10299Y56633D01*
X16300Y56300D02*
Y58299D01*
X17300D01*
X17633Y57966D01*
Y57300D01*
X17300Y56966D01*
X16300D01*
X18299Y58299D02*
Y56300D01*
X18966Y56966D01*
X19632Y56300D01*
Y58299D01*
X20299Y56300D02*
Y58299D01*
X20965Y57633D01*
X21632Y58299D01*
Y56300D01*
D14*
X17000Y78999D02*
X18000D01*
X17500D01*
Y76000D01*
X17000D01*
X18000D01*
X19499D02*
Y78999D01*
X21498Y76000D01*
Y78999D01*
X49999D02*
X49000D01*
X48500Y78499D01*
Y76500D01*
X49000Y76000D01*
X49999D01*
X50499Y76500D01*
Y78499D01*
X49999Y78999D01*
X51499D02*
Y76500D01*
X51999Y76000D01*
X52999D01*
X53498Y76500D01*
Y78999D01*
X54498D02*
X56497D01*
X55498D01*
Y76000D01*
X20610Y89023D02*
X20110Y89523D01*
X19110D01*
X18610Y89023D01*
Y87024D01*
X19110Y86524D01*
X20110D01*
X20610Y87024D01*
X23609Y89023D02*
X23109Y89523D01*
X22109D01*
X21609Y89023D01*
Y88523D01*
X22109Y88023D01*
X23109D01*
X23609Y87523D01*
Y87024D01*
X23109Y86524D01*
X22109D01*
X21609Y87024D01*
X20708Y99456D02*
X20208Y99956D01*
X19208D01*
X18709Y99456D01*
Y97457D01*
X19208Y96957D01*
X20208D01*
X20708Y97457D01*
X21708Y99956D02*
Y96957D01*
X23707D01*
X24707Y99956D02*
Y96957D01*
Y97956D01*
X26706Y99956D01*
X25207Y98456D01*
X26706Y96957D01*
X18709Y106996D02*
Y109995D01*
X19708Y108995D01*
X20708Y109995D01*
Y106996D01*
X21708Y109995D02*
X22707D01*
X22208D01*
Y106996D01*
X21708D01*
X22707D01*
X26206Y109495D02*
X25706Y109995D01*
X24707D01*
X24207Y109495D01*
Y108995D01*
X24707Y108496D01*
X25706D01*
X26206Y107996D01*
Y107496D01*
X25706Y106996D01*
X24707D01*
X24207Y107496D01*
X28705Y109995D02*
X27706D01*
X27206Y109495D01*
Y107496D01*
X27706Y106996D01*
X28705D01*
X29205Y107496D01*
Y109495D01*
X28705Y109995D01*
X18709Y116937D02*
Y119936D01*
X19708Y118936D01*
X20708Y119936D01*
Y116937D01*
X23207Y119936D02*
X22208D01*
X21708Y119436D01*
Y117437D01*
X22208Y116937D01*
X23207D01*
X23707Y117437D01*
Y119436D01*
X23207Y119936D01*
X26706Y119436D02*
X26206Y119936D01*
X25207D01*
X24707Y119436D01*
Y118936D01*
X25207Y118437D01*
X26206D01*
X26706Y117937D01*
Y117437D01*
X26206Y116937D01*
X25207D01*
X24707Y117437D01*
X27706Y119936D02*
X28705D01*
X28206D01*
Y116937D01*
X27706D01*
X28705D01*
M02*
