G04*
G04 #@! TF.GenerationSoftware,Altium Limited,Altium Designer,21.6.4 (81)*
G04*
G04 Layer_Color=16711935*
%FSLAX25Y25*%
%MOIN*%
G70*
G04*
G04 #@! TF.SameCoordinates,9C5CF058-6E8D-4512-A6E1-B80F84B0311E*
G04*
G04*
G04 #@! TF.FilePolarity,Negative*
G04*
G01*
G75*
%ADD23R,0.05900X0.05900*%
%ADD24C,0.05900*%
%ADD25R,0.06528X0.12465*%
%ADD26O,0.06528X0.12465*%
%ADD27O,0.12465X0.06528*%
%ADD28R,0.12465X0.06528*%
%ADD29C,0.06496*%
G04:AMPARAMS|DCode=30|XSize=135.83mil|YSize=127.95mil|CornerRadius=33.47mil|HoleSize=0mil|Usage=FLASHONLY|Rotation=180.000|XOffset=0mil|YOffset=0mil|HoleType=Round|Shape=RoundedRectangle|*
%AMROUNDEDRECTD30*
21,1,0.13583,0.06102,0,0,180.0*
21,1,0.06890,0.12795,0,0,180.0*
1,1,0.06693,-0.03445,0.03051*
1,1,0.06693,0.03445,0.03051*
1,1,0.06693,0.03445,-0.03051*
1,1,0.06693,-0.03445,-0.03051*
%
%ADD30ROUNDEDRECTD30*%
D23*
X68189Y91260D02*
D03*
D24*
Y101260D02*
D03*
Y111260D02*
D03*
Y121260D02*
D03*
Y131260D02*
D03*
Y141260D02*
D03*
Y151260D02*
D03*
X38189D02*
D03*
Y141260D02*
D03*
Y131260D02*
D03*
Y121260D02*
D03*
Y111260D02*
D03*
Y101260D02*
D03*
Y91260D02*
D03*
D25*
X42500Y67000D02*
D03*
X9000D02*
D03*
D26*
X52500D02*
D03*
X62500D02*
D03*
X29000D02*
D03*
X19000D02*
D03*
D27*
X10000Y121335D02*
D03*
Y111335D02*
D03*
Y131335D02*
D03*
D28*
Y141335D02*
D03*
D29*
X67370Y42843D02*
D03*
Y28079D02*
D03*
Y13315D02*
D03*
D30*
X28000Y48158D02*
D03*
Y8000D02*
D03*
M02*
