G04*
G04 #@! TF.GenerationSoftware,Altium Limited,Altium Designer,21.6.4 (81)*
G04*
G04 Layer_Physical_Order=2*
G04 Layer_Color=16711680*
%FSLAX25Y25*%
%MOIN*%
G70*
G04*
G04 #@! TF.SameCoordinates,9C5CF058-6E8D-4512-A6E1-B80F84B0311E*
G04*
G04*
G04 #@! TF.FilePolarity,Positive*
G04*
G01*
G75*
%ADD23R,0.05900X0.05900*%
%ADD24C,0.05900*%
%ADD31C,0.01500*%
%ADD32R,0.05937X0.11874*%
%ADD33O,0.05937X0.11874*%
%ADD34O,0.11874X0.05937*%
%ADD35R,0.11874X0.05937*%
%ADD36C,0.05906*%
G04:AMPARAMS|DCode=37|XSize=129.92mil|YSize=122.05mil|CornerRadius=30.51mil|HoleSize=0mil|Usage=FLASHONLY|Rotation=180.000|XOffset=0mil|YOffset=0mil|HoleType=Round|Shape=RoundedRectangle|*
%AMROUNDEDRECTD37*
21,1,0.12992,0.06102,0,0,180.0*
21,1,0.06890,0.12205,0,0,180.0*
1,1,0.06102,-0.03445,0.03051*
1,1,0.06102,0.03445,0.03051*
1,1,0.06102,0.03445,-0.03051*
1,1,0.06102,-0.03445,-0.03051*
%
%ADD37ROUNDEDRECTD37*%
%ADD38C,0.02362*%
G36*
X70866Y164432D02*
X71646Y164329D01*
X72373Y164028D01*
X72998Y163549D01*
X73477Y162925D01*
X73778Y162197D01*
X73880Y161417D01*
X73886D01*
X73886Y3937D01*
X73880D01*
X73778Y3157D01*
X73477Y2430D01*
X72998Y1805D01*
X72373Y1326D01*
X71646Y1025D01*
X70866Y923D01*
Y916D01*
X33079Y916D01*
X32980Y1416D01*
X33387Y1585D01*
X34192Y2202D01*
X34809Y3007D01*
X35197Y3943D01*
X35329Y4949D01*
Y7600D01*
X28000D01*
X20671D01*
Y4949D01*
X20803Y3943D01*
X21191Y3007D01*
X21808Y2202D01*
X22613Y1585D01*
X23020Y1416D01*
X22921Y916D01*
X4437D01*
X3937Y923D01*
X3937Y923D01*
X3937Y923D01*
X3157Y1025D01*
X2430Y1326D01*
X1805Y1805D01*
X1326Y2430D01*
X1025Y3157D01*
X923Y3937D01*
X916D01*
X916Y160917D01*
X923Y161417D01*
X923Y161417D01*
X923Y161417D01*
X1025Y162197D01*
X1326Y162925D01*
X1805Y163549D01*
X2430Y164028D01*
X3157Y164329D01*
X3937Y164432D01*
Y164437D01*
X70866D01*
Y164432D01*
D02*
G37*
%LPC*%
G36*
X68589Y154990D02*
Y151660D01*
X71919D01*
X71842Y152239D01*
X71465Y153151D01*
X70863Y153934D01*
X70080Y154535D01*
X69168Y154913D01*
X68589Y154990D01*
D02*
G37*
G36*
X67789D02*
X67210Y154913D01*
X66298Y154535D01*
X65514Y153934D01*
X64913Y153151D01*
X64535Y152239D01*
X64459Y151660D01*
X67789D01*
Y154990D01*
D02*
G37*
G36*
X71919Y150860D02*
X68589D01*
Y147530D01*
X69168Y147606D01*
X70080Y147984D01*
X70863Y148585D01*
X71465Y149369D01*
X71842Y150281D01*
X71919Y150860D01*
D02*
G37*
G36*
X67789D02*
X64459D01*
X64535Y150281D01*
X64913Y149369D01*
X65514Y148585D01*
X66298Y147984D01*
X67210Y147606D01*
X67789Y147530D01*
Y150860D01*
D02*
G37*
G36*
X38189Y155042D02*
X37210Y154913D01*
X36298Y154535D01*
X35885Y154219D01*
X35823Y154189D01*
X35268Y153769D01*
X35031Y153615D01*
X34797Y153481D01*
X34576Y153370D01*
X34368Y153283D01*
X34173Y153219D01*
X33992Y153175D01*
X33862Y153155D01*
X31791D01*
X31187Y153035D01*
X30674Y152692D01*
X25753Y147771D01*
X25410Y147258D01*
X25290Y146653D01*
Y117288D01*
X20916Y112915D01*
X16913D01*
X16759Y112926D01*
X16544Y112955D01*
X16382Y112991D01*
X16358Y112999D01*
X16260Y113235D01*
X15656Y114022D01*
X14869Y114626D01*
X13952Y115006D01*
X12968Y115136D01*
X7032D01*
X6048Y115006D01*
X5131Y114626D01*
X4344Y114022D01*
X3740Y113235D01*
X3360Y112318D01*
X3230Y111335D01*
X3360Y110351D01*
X3740Y109434D01*
X4344Y108647D01*
X5131Y108043D01*
X6048Y107663D01*
X7032Y107534D01*
X12968D01*
X13952Y107663D01*
X14869Y108043D01*
X15656Y108647D01*
X16260Y109434D01*
X16358Y109670D01*
X16382Y109678D01*
X16531Y109711D01*
X16955Y109754D01*
X21571D01*
X22176Y109875D01*
X22688Y110217D01*
X27988Y115516D01*
X28330Y116029D01*
X28451Y116634D01*
Y145999D01*
X32446Y149994D01*
X33691D01*
X33824Y149972D01*
X33985Y149926D01*
X34149Y149861D01*
X34318Y149772D01*
X34492Y149659D01*
X34671Y149519D01*
X34855Y149350D01*
X35043Y149153D01*
X35249Y148908D01*
X35297Y148869D01*
X35514Y148585D01*
X36298Y147984D01*
X37210Y147606D01*
X38189Y147477D01*
X39168Y147606D01*
X40080Y147984D01*
X40863Y148585D01*
X41465Y149369D01*
X41842Y150281D01*
X41971Y151260D01*
X41842Y152239D01*
X41465Y153151D01*
X40863Y153934D01*
X40080Y154535D01*
X39168Y154913D01*
X38189Y155042D01*
D02*
G37*
G36*
X16737Y145103D02*
X3263D01*
Y137566D01*
X16737D01*
Y145103D01*
D02*
G37*
G36*
X68189Y145042D02*
X67210Y144913D01*
X66298Y144536D01*
X65514Y143934D01*
X64913Y143151D01*
X64535Y142239D01*
X64407Y141260D01*
X64535Y140281D01*
X64913Y139369D01*
X65514Y138585D01*
X66298Y137984D01*
X67210Y137606D01*
X68189Y137478D01*
X69168Y137606D01*
X70080Y137984D01*
X70863Y138585D01*
X71465Y139369D01*
X71842Y140281D01*
X71971Y141260D01*
X71842Y142239D01*
X71465Y143151D01*
X70863Y143934D01*
X70080Y144536D01*
X69168Y144913D01*
X68189Y145042D01*
D02*
G37*
G36*
X38189D02*
X37210Y144913D01*
X36298Y144536D01*
X35514Y143934D01*
X34913Y143151D01*
X34536Y142239D01*
X34407Y141260D01*
X34536Y140281D01*
X34913Y139369D01*
X35514Y138585D01*
X36298Y137984D01*
X37210Y137606D01*
X38189Y137478D01*
X39168Y137606D01*
X40080Y137984D01*
X40863Y138585D01*
X41465Y139369D01*
X41842Y140281D01*
X41971Y141260D01*
X41842Y142239D01*
X41465Y143151D01*
X40863Y143934D01*
X40080Y144536D01*
X39168Y144913D01*
X38189Y145042D01*
D02*
G37*
G36*
X12968Y135136D02*
X7032D01*
X6048Y135006D01*
X5131Y134626D01*
X4344Y134022D01*
X3740Y133235D01*
X3360Y132318D01*
X3230Y131335D01*
X3360Y130351D01*
X3740Y129434D01*
X4344Y128647D01*
X5131Y128043D01*
X6048Y127663D01*
X7032Y127534D01*
X12968D01*
X13952Y127663D01*
X14869Y128043D01*
X15656Y128647D01*
X16260Y129434D01*
X16640Y130351D01*
X16770Y131335D01*
X16640Y132318D01*
X16260Y133235D01*
X15656Y134022D01*
X14869Y134626D01*
X13952Y135006D01*
X12968Y135136D01*
D02*
G37*
G36*
X68189Y135042D02*
X67210Y134913D01*
X66298Y134536D01*
X65514Y133934D01*
X64913Y133151D01*
X64535Y132239D01*
X64407Y131260D01*
X64535Y130281D01*
X64913Y129369D01*
X65514Y128585D01*
X66298Y127984D01*
X67210Y127606D01*
X68189Y127478D01*
X69168Y127606D01*
X70080Y127984D01*
X70863Y128585D01*
X71465Y129369D01*
X71842Y130281D01*
X71971Y131260D01*
X71842Y132239D01*
X71465Y133151D01*
X70863Y133934D01*
X70080Y134536D01*
X69168Y134913D01*
X68189Y135042D01*
D02*
G37*
G36*
X38189D02*
X37210Y134913D01*
X36298Y134536D01*
X35514Y133934D01*
X34913Y133151D01*
X34536Y132239D01*
X34407Y131260D01*
X34536Y130281D01*
X34913Y129369D01*
X35514Y128585D01*
X36298Y127984D01*
X37210Y127606D01*
X38189Y127478D01*
X39168Y127606D01*
X40080Y127984D01*
X40863Y128585D01*
X41465Y129369D01*
X41842Y130281D01*
X41971Y131260D01*
X41842Y132239D01*
X41465Y133151D01*
X40863Y133934D01*
X40080Y134536D01*
X39168Y134913D01*
X38189Y135042D01*
D02*
G37*
G36*
X12968Y125136D02*
X7032D01*
X6048Y125006D01*
X5131Y124626D01*
X4344Y124022D01*
X3740Y123235D01*
X3360Y122318D01*
X3230Y121335D01*
X3360Y120351D01*
X3740Y119434D01*
X4344Y118647D01*
X5131Y118043D01*
X6048Y117663D01*
X7032Y117534D01*
X12968D01*
X13952Y117663D01*
X14869Y118043D01*
X15656Y118647D01*
X16260Y119434D01*
X16640Y120351D01*
X16770Y121335D01*
X16640Y122318D01*
X16260Y123235D01*
X15656Y124022D01*
X14869Y124626D01*
X13952Y125006D01*
X12968Y125136D01*
D02*
G37*
G36*
X68189Y125042D02*
X67210Y124913D01*
X66298Y124536D01*
X65514Y123934D01*
X64913Y123151D01*
X64535Y122239D01*
X64407Y121260D01*
X64535Y120281D01*
X64913Y119369D01*
X65514Y118585D01*
X66298Y117984D01*
X67210Y117606D01*
X68189Y117478D01*
X69168Y117606D01*
X70080Y117984D01*
X70863Y118585D01*
X71465Y119369D01*
X71842Y120281D01*
X71971Y121260D01*
X71842Y122239D01*
X71465Y123151D01*
X70863Y123934D01*
X70080Y124536D01*
X69168Y124913D01*
X68189Y125042D01*
D02*
G37*
G36*
X38189D02*
X37210Y124913D01*
X36298Y124536D01*
X35514Y123934D01*
X34913Y123151D01*
X34536Y122239D01*
X34407Y121260D01*
X34536Y120281D01*
X34913Y119369D01*
X35514Y118585D01*
X36298Y117984D01*
X37210Y117606D01*
X38189Y117478D01*
X39168Y117606D01*
X40080Y117984D01*
X40863Y118585D01*
X41465Y119369D01*
X41842Y120281D01*
X41971Y121260D01*
X41842Y122239D01*
X41465Y123151D01*
X40863Y123934D01*
X40080Y124536D01*
X39168Y124913D01*
X38189Y125042D01*
D02*
G37*
G36*
X38589Y114989D02*
Y111660D01*
X41919D01*
X41842Y112239D01*
X41465Y113151D01*
X40863Y113934D01*
X40080Y114535D01*
X39168Y114913D01*
X38589Y114989D01*
D02*
G37*
G36*
X37789D02*
X37210Y114913D01*
X36298Y114535D01*
X35514Y113934D01*
X34913Y113151D01*
X34536Y112239D01*
X34459Y111660D01*
X37789D01*
Y114989D01*
D02*
G37*
G36*
X41919Y110860D02*
X38589D01*
Y107530D01*
X39168Y107606D01*
X40080Y107984D01*
X40863Y108585D01*
X41465Y109369D01*
X41842Y110281D01*
X41919Y110860D01*
D02*
G37*
G36*
X37789D02*
X34459D01*
X34536Y110281D01*
X34913Y109369D01*
X35514Y108585D01*
X36298Y107984D01*
X37210Y107606D01*
X37789Y107530D01*
Y110860D01*
D02*
G37*
G36*
X68189Y115042D02*
X67210Y114913D01*
X66298Y114535D01*
X65514Y113934D01*
X64913Y113151D01*
X64535Y112239D01*
X64407Y111260D01*
X64535Y110281D01*
X64913Y109369D01*
X65514Y108585D01*
X66298Y107984D01*
X67210Y107606D01*
X68189Y107477D01*
X69168Y107606D01*
X70080Y107984D01*
X70863Y108585D01*
X71465Y109369D01*
X71842Y110281D01*
X71971Y111260D01*
X71842Y112239D01*
X71465Y113151D01*
X70863Y113934D01*
X70080Y114535D01*
X69168Y114913D01*
X68189Y115042D01*
D02*
G37*
G36*
Y105042D02*
X67210Y104913D01*
X66298Y104535D01*
X65514Y103934D01*
X64913Y103151D01*
X64535Y102239D01*
X64407Y101260D01*
X64535Y100281D01*
X64913Y99369D01*
X65514Y98585D01*
X66298Y97984D01*
X67210Y97606D01*
X68189Y97478D01*
X69168Y97606D01*
X70080Y97984D01*
X70863Y98585D01*
X71465Y99369D01*
X71842Y100281D01*
X71971Y101260D01*
X71842Y102239D01*
X71465Y103151D01*
X70863Y103934D01*
X70080Y104535D01*
X69168Y104913D01*
X68189Y105042D01*
D02*
G37*
G36*
X38189D02*
X37210Y104913D01*
X36298Y104535D01*
X35514Y103934D01*
X34913Y103151D01*
X34536Y102239D01*
X34407Y101260D01*
X34536Y100281D01*
X34913Y99369D01*
X35514Y98585D01*
X36298Y97984D01*
X37210Y97606D01*
X38189Y97478D01*
X39168Y97606D01*
X40080Y97984D01*
X40863Y98585D01*
X41465Y99369D01*
X41842Y100281D01*
X41971Y101260D01*
X41842Y102239D01*
X41465Y103151D01*
X40863Y103934D01*
X40080Y104535D01*
X39168Y104913D01*
X38189Y105042D01*
D02*
G37*
G36*
X71939Y95010D02*
X64439D01*
Y87510D01*
X71939D01*
Y95010D01*
D02*
G37*
G36*
X38189Y95042D02*
X37210Y94913D01*
X36298Y94535D01*
X35514Y93934D01*
X34913Y93151D01*
X34536Y92239D01*
X34407Y91260D01*
X34536Y90281D01*
X34913Y89369D01*
X35514Y88585D01*
X36298Y87984D01*
X37210Y87606D01*
X38189Y87477D01*
X39168Y87606D01*
X40080Y87984D01*
X40863Y88585D01*
X41465Y89369D01*
X41842Y90281D01*
X41971Y91260D01*
X41842Y92239D01*
X41465Y93151D01*
X40863Y93934D01*
X40080Y94535D01*
X39168Y94913D01*
X38189Y95042D01*
D02*
G37*
G36*
X62900Y73717D02*
Y67400D01*
X66301D01*
Y69968D01*
X66171Y70952D01*
X65792Y71869D01*
X65188Y72656D01*
X64401Y73260D01*
X63484Y73640D01*
X62900Y73717D01*
D02*
G37*
G36*
X29400D02*
Y67400D01*
X32801D01*
Y69968D01*
X32671Y70952D01*
X32292Y71869D01*
X31688Y72656D01*
X30900Y73260D01*
X29984Y73640D01*
X29400Y73717D01*
D02*
G37*
G36*
X62100D02*
X61516Y73640D01*
X60599Y73260D01*
X59812Y72656D01*
X59208Y71869D01*
X58829Y70952D01*
X58699Y69968D01*
Y67400D01*
X62100D01*
Y73717D01*
D02*
G37*
G36*
X28600D02*
X28016Y73640D01*
X27099Y73260D01*
X26312Y72656D01*
X25708Y71869D01*
X25328Y70952D01*
X25199Y69968D01*
Y67400D01*
X28600D01*
Y73717D01*
D02*
G37*
G36*
X66301Y66600D02*
X62900D01*
Y60283D01*
X63484Y60360D01*
X64401Y60740D01*
X65188Y61344D01*
X65792Y62131D01*
X66171Y63048D01*
X66301Y64031D01*
Y66600D01*
D02*
G37*
G36*
X32801D02*
X29400D01*
Y60283D01*
X29984Y60360D01*
X30900Y60740D01*
X31688Y61344D01*
X32292Y62131D01*
X32671Y63048D01*
X32801Y64031D01*
Y66600D01*
D02*
G37*
G36*
X62100D02*
X58699D01*
Y64031D01*
X58829Y63048D01*
X59208Y62131D01*
X59812Y61344D01*
X60599Y60740D01*
X61516Y60360D01*
X62100Y60283D01*
Y66600D01*
D02*
G37*
G36*
X28600D02*
X25199D01*
Y64031D01*
X25328Y63048D01*
X25708Y62131D01*
X26312Y61344D01*
X27099Y60740D01*
X28016Y60360D01*
X28600Y60283D01*
Y66600D01*
D02*
G37*
G36*
X46268Y73737D02*
X38732D01*
Y60263D01*
X46268D01*
Y73737D01*
D02*
G37*
G36*
X12768D02*
X5232D01*
Y60263D01*
X12768D01*
Y73737D01*
D02*
G37*
G36*
X52500Y73769D02*
X51516Y73640D01*
X50599Y73260D01*
X49812Y72656D01*
X49208Y71869D01*
X48829Y70952D01*
X48699Y69968D01*
Y64031D01*
X48829Y63048D01*
X49208Y62131D01*
X49812Y61344D01*
X50599Y60740D01*
X51516Y60360D01*
X52500Y60230D01*
X53484Y60360D01*
X54400Y60740D01*
X55188Y61344D01*
X55792Y62131D01*
X56172Y63048D01*
X56301Y64031D01*
Y69968D01*
X56172Y70952D01*
X55792Y71869D01*
X55188Y72656D01*
X54400Y73260D01*
X53484Y73640D01*
X52500Y73769D01*
D02*
G37*
G36*
X19000D02*
X18016Y73640D01*
X17099Y73260D01*
X16312Y72656D01*
X15708Y71869D01*
X15328Y70952D01*
X15199Y69968D01*
Y64031D01*
X15328Y63048D01*
X15708Y62131D01*
X16312Y61344D01*
X17099Y60740D01*
X18016Y60360D01*
X19000Y60230D01*
X19984Y60360D01*
X20900Y60740D01*
X21688Y61344D01*
X22292Y62131D01*
X22671Y63048D01*
X22801Y64031D01*
Y69968D01*
X22671Y70952D01*
X22292Y71869D01*
X21688Y72656D01*
X20900Y73260D01*
X19984Y73640D01*
X19000Y73769D01*
D02*
G37*
G36*
X31445Y55093D02*
X28400D01*
Y48557D01*
X35329D01*
Y51209D01*
X35197Y52214D01*
X34809Y53151D01*
X34192Y53955D01*
X33387Y54573D01*
X32450Y54961D01*
X31445Y55093D01*
D02*
G37*
G36*
X27600D02*
X24555D01*
X23550Y54961D01*
X22613Y54573D01*
X21808Y53955D01*
X21191Y53151D01*
X20803Y52214D01*
X20671Y51209D01*
Y48557D01*
X27600D01*
Y55093D01*
D02*
G37*
G36*
X67770Y46575D02*
Y43242D01*
X71102D01*
X71026Y43822D01*
X70648Y44735D01*
X70047Y45519D01*
X69263Y46121D01*
X68350Y46499D01*
X67770Y46575D01*
D02*
G37*
G36*
X66970D02*
X66390Y46499D01*
X65478Y46121D01*
X64694Y45519D01*
X64092Y44735D01*
X63714Y43822D01*
X63638Y43242D01*
X66970D01*
Y46575D01*
D02*
G37*
G36*
X35329Y47758D02*
X28400D01*
Y41222D01*
X31445D01*
X32450Y41354D01*
X33387Y41742D01*
X34192Y42360D01*
X34809Y43164D01*
X35197Y44101D01*
X35329Y45106D01*
Y47758D01*
D02*
G37*
G36*
X27600D02*
X20671D01*
Y45106D01*
X20803Y44101D01*
X21191Y43164D01*
X21808Y42360D01*
X22613Y41742D01*
X23550Y41354D01*
X24555Y41222D01*
X27600D01*
Y47758D01*
D02*
G37*
G36*
X71102Y42443D02*
X67770D01*
Y39110D01*
X68350Y39186D01*
X69263Y39564D01*
X70047Y40166D01*
X70648Y40950D01*
X71026Y41863D01*
X71102Y42443D01*
D02*
G37*
G36*
X66970D02*
X63638D01*
X63714Y41863D01*
X64092Y40950D01*
X64694Y40166D01*
X65478Y39564D01*
X66390Y39186D01*
X66970Y39110D01*
Y42443D01*
D02*
G37*
G36*
X67370Y31864D02*
X66390Y31735D01*
X65478Y31357D01*
X64694Y30755D01*
X64092Y29971D01*
X63714Y29058D01*
X63585Y28079D01*
X63714Y27099D01*
X64092Y26186D01*
X64694Y25402D01*
X65478Y24801D01*
X66390Y24423D01*
X67370Y24294D01*
X68350Y24423D01*
X69263Y24801D01*
X70047Y25402D01*
X70648Y26186D01*
X71026Y27099D01*
X71155Y28079D01*
X71026Y29058D01*
X70648Y29971D01*
X70047Y30755D01*
X69263Y31357D01*
X68350Y31735D01*
X67370Y31864D01*
D02*
G37*
G36*
Y17100D02*
X66390Y16971D01*
X65478Y16593D01*
X64694Y15992D01*
X64092Y15207D01*
X63714Y14295D01*
X63585Y13315D01*
X63714Y12335D01*
X64092Y11422D01*
X64694Y10639D01*
X65478Y10037D01*
X66390Y9659D01*
X67370Y9530D01*
X68350Y9659D01*
X69263Y10037D01*
X70047Y10639D01*
X70648Y11422D01*
X71026Y12335D01*
X71155Y13315D01*
X71026Y14295D01*
X70648Y15207D01*
X70047Y15992D01*
X69263Y16593D01*
X68350Y16971D01*
X67370Y17100D01*
D02*
G37*
G36*
X31445Y14936D02*
X28400D01*
Y8400D01*
X35329D01*
Y11051D01*
X35197Y12056D01*
X34809Y12993D01*
X34192Y13798D01*
X33387Y14415D01*
X32450Y14803D01*
X31445Y14936D01*
D02*
G37*
G36*
X27600D02*
X24555D01*
X23550Y14803D01*
X22613Y14415D01*
X21808Y13798D01*
X21191Y12993D01*
X20803Y12056D01*
X20671Y11051D01*
Y8400D01*
X27600D01*
Y14936D01*
D02*
G37*
%LPD*%
G36*
X35874Y149432D02*
X35652Y149696D01*
X35427Y149933D01*
X35198Y150142D01*
X34966Y150323D01*
X34731Y150477D01*
X34492Y150602D01*
X34249Y150699D01*
X34003Y150769D01*
X33754Y150811D01*
X33501Y150825D01*
X33668Y152325D01*
X33905Y152337D01*
X34149Y152373D01*
X34398Y152434D01*
X34654Y152519D01*
X34916Y152628D01*
X35184Y152761D01*
X35457Y152919D01*
X35737Y153101D01*
X36315Y153538D01*
X35874Y149432D01*
D02*
G37*
G36*
X15527Y112688D02*
X15581Y112561D01*
X15673Y112449D01*
X15800Y112353D01*
X15964Y112271D01*
X16164Y112204D01*
X16401Y112152D01*
X16675Y112114D01*
X16984Y112092D01*
X17331Y112085D01*
Y110585D01*
X16984Y110577D01*
X16401Y110518D01*
X16164Y110466D01*
X15964Y110399D01*
X15800Y110317D01*
X15673Y110220D01*
X15581Y110108D01*
X15527Y109982D01*
X15508Y109840D01*
Y112829D01*
X15527Y112688D01*
D02*
G37*
D23*
X68189Y91260D02*
D03*
D24*
Y101260D02*
D03*
Y111260D02*
D03*
Y121260D02*
D03*
Y131260D02*
D03*
Y141260D02*
D03*
Y151260D02*
D03*
X38189D02*
D03*
Y141260D02*
D03*
Y131260D02*
D03*
Y121260D02*
D03*
Y111260D02*
D03*
Y101260D02*
D03*
Y91260D02*
D03*
D31*
X37874Y151575D02*
X38189Y151260D01*
X31791Y151575D02*
X37874D01*
X26870Y146653D02*
X31791Y151575D01*
X26870Y116634D02*
Y146653D01*
X10000Y111335D02*
X21571D01*
X26870Y116634D01*
D32*
X42500Y67000D02*
D03*
X9000D02*
D03*
D33*
X52500D02*
D03*
X62500D02*
D03*
X29000D02*
D03*
X19000D02*
D03*
D34*
X10000Y121335D02*
D03*
Y111335D02*
D03*
Y131335D02*
D03*
D35*
Y141335D02*
D03*
D36*
X67370Y42843D02*
D03*
Y28079D02*
D03*
Y13315D02*
D03*
D37*
X28000Y48158D02*
D03*
Y8000D02*
D03*
D38*
X34744Y116043D02*
D03*
X43701Y111221D02*
D03*
X35433Y106496D02*
D03*
X29921Y112205D02*
D03*
X24508Y107776D02*
D03*
X35433Y84842D02*
D03*
X29921Y80413D02*
D03*
X24409Y84842D02*
D03*
X15453Y90748D02*
D03*
X19882Y85433D02*
D03*
X15453Y80020D02*
D03*
X12598Y162008D02*
D03*
X7776Y157087D02*
D03*
X68209Y156890D02*
D03*
X62500Y151279D02*
D03*
X34646Y65354D02*
D03*
Y68602D02*
D03*
X62500Y75590D02*
D03*
Y58366D02*
D03*
X67323Y48327D02*
D03*
X67421Y37205D02*
D03*
X27953Y16831D02*
D03*
X18799Y7972D02*
D03*
X37303D02*
D03*
X37205Y48228D02*
D03*
X18799D02*
D03*
X56693Y151638D02*
D03*
X63779Y137465D02*
D03*
X56693Y123291D02*
D03*
Y94945D02*
D03*
X63779Y80772D02*
D03*
Y24079D02*
D03*
X56693Y9905D02*
D03*
X42520Y94945D02*
D03*
X49606Y80772D02*
D03*
Y52425D02*
D03*
X42520Y38252D02*
D03*
X49606Y24079D02*
D03*
X42520Y9905D02*
D03*
X35433Y80772D02*
D03*
X28346Y38252D02*
D03*
X35433Y24079D02*
D03*
X14173Y151638D02*
D03*
X21260Y137465D02*
D03*
Y80772D02*
D03*
X14173Y38252D02*
D03*
X21260Y24079D02*
D03*
X14173Y9905D02*
D03*
M02*
