M48
;Layer_Color=9474304
;FILE_FORMAT=2:4
INCH,TZ
;TYPE=PLATED
T1F00S00C0.0118
T2F00S00C0.0157
T3F00S00C0.0394
T4F00S00C0.0522
T5F00S00C0.0945
%
T01
X23307Y6260
X19597Y11820
X17874Y10748
Y10315
X13976Y11811
X12874Y11260
X12598Y11535
X12992Y7874
Y7126
X14331Y7283
X8110Y12913
X7244Y14567
T02
X1024Y2520
X2126
X3228
Y3622
X4331
X5433
Y4724
X4331
X3228
X2126Y3622
X1024
X3228Y1417
X4331
X5433
Y2520
X6220Y3780
X6693
X7165
X7008Y4173
X7953
X8898
X8740Y3622
X9843
X9843Y4173
X10787
X10984Y3740
X11457
X11732Y4173
X12677
X13622
X14567
X14252Y3622
X13150
Y2520
Y1417
X14252
X15354
X16457
X17559
X18661
X19764
X20866
X21024Y3740
X20512Y3740
X20000
X19488
X18543
X18071
X18346Y5118
X19291
X20551Y5000
X21142Y4567
X16457Y4173
X16220Y3780
X15748
X15276
X15512Y4173
X16575Y3425
Y2953
Y2480
X12047Y1417
X10945
X9843
Y2520
X8740Y1417
X7638
X6535
X7520Y2480
Y2953
Y3425
X6063Y4173
X21929Y4567
X22717
X22598Y3740
X23071
X23622Y3189
Y2717
X22047Y2717
Y3189
X21969Y1417
X23071
X24173
X25276
X26378
X25866Y4173
X25354Y4173
X24843Y4173
X24843Y4685
X25354Y4685
X25866Y4685
X25866Y5197
X25354Y5197
X24843Y5197
X24331
X23819
X23819Y4685
X24331
X24331Y4173
X23819
X28583Y4724
Y3622
Y2520
Y5827
Y6929
X27480Y8031
Y9134
Y10236
Y11339
Y12441
X28583
Y13543
Y14646
Y15748
Y16850
X27480
Y15748
Y14646
Y13543
X26378
Y14646
Y15748
Y16850
Y17953
Y19055
X27480
X28583
X25276
Y17953
X24173
Y19055
X23071Y17953
X21969
X22047Y16968
Y16496
X22598Y15945
X23071
X23307Y15315
Y14843
X22795
X22795Y15315
X22283
X22283Y14843
X21772
X21772Y15315
X21260
X21260Y14843
X24961Y14567
Y15512
Y13622
Y12677
Y11732
X25236Y11299
Y10827
X25709
Y10354
X25236
X24961Y9843
Y8898
Y7953
X24843Y7244
X25354Y7244
X25866Y7244
X25866Y6732
X25354Y6732
X24843Y6732
X24843Y6220
X25354Y6220
X25866Y6220
X25866Y5709
X25354Y5709
X24843Y5709
X24331
X23819
X23819Y6220
X24331
X24331Y6732
X23819
X23819Y7244
X24331
X26378Y8031
X25709Y11299
X26378Y12441
X24016Y11732
X23071
X22126
X23622Y16496
X24016Y16457
X23622Y16968
X20866Y17953
Y19055
X19764
Y17953
X18661
X17559
X16457
Y16850
X16339Y15197
X16339Y14724
X16339Y14252
Y13780
Y13307
X16850
Y13780
Y14252
X16850Y14724
X16850Y15197
X17362
X17362Y14724
X17362Y14252
Y13780
Y13307
X18189Y14843
X18189Y15315
X18701
X18701Y14843
X19213
X19213Y15315
X19724
X19724Y14843
X20236
X20236Y15315
X20748
X20748Y14843
X19094Y16496
Y16968
X18543Y15945
X18071
X15354Y15748
X14252Y15906
X13780
X13307
X12953Y16260
Y16732
Y17205
X13150Y17953
X14252
X15354
X13150Y19055
X12047
Y17953
X10945
X9843
Y19055
X8740Y17953
X8465Y16968
Y16496
X9016Y15945
X9488
X10039Y16496
Y16968
X10787Y15512
X11732
X12677
X10984Y12992
Y12598
Y12205
Y11811
X10591
Y12205
X10197
Y11811
Y12598
Y12992
X10591
Y12598
X13622Y11732
X17795Y9567
X19449
X19213Y9016
X18819Y8661
X19213Y8228
Y7441
X18819Y7677
Y6693
X19213Y6654
Y5866
X18819Y5709
X20236Y11732
X21181
X7953Y15512
X7008
X6063
Y16457
X6535Y17953
X7638Y19055
X7953Y7953
X7244Y7992
X6142
X5433Y6929
Y5827
X3228
Y6929
X2126
Y8031
X3819Y8386
X4291
Y8858
Y9331
X3819
Y8858
X5118Y8898
Y9843
Y10787
Y11732
Y12677
Y13622
Y14567
Y15512
X4961Y15945
X4488
X4173Y15512
Y14567
Y13622
Y12677
Y11732
Y10787
Y9843
X2126Y10236
Y11339
Y12441
X3228
Y13543
Y14646
Y15748
Y16850
Y17953
X4331
X5433
X5512Y16968
Y16496
X5433Y19055
X3228
X2126
X1024
Y16850
X2126
Y15748
Y14646
Y13543
X1024
Y14646
Y15748
Y12441
Y6929
T03
X26677Y3622
X27677
X27673Y5217
X26673
Y6791
X27673
T04
X4724Y2953
X6693
X9252
X11220
X13780
X15748
X18307
X20276
X22835
X24803
X26575Y8858
Y10827
X24803Y16732
X22835
X20276
X18307
X15748
X13780
X11220
X9252
X6693
X4724
X2953Y10827
Y8858
T05
X1575Y1575
X27953
Y18110
X1575
M30
