G04*
G04 #@! TF.GenerationSoftware,Altium Limited,Altium Designer,21.9.2 (33)*
G04*
G04 Layer_Physical_Order=4*
G04 Layer_Color=16711680*
%FSLAX25Y25*%
%MOIN*%
G70*
G04*
G04 #@! TF.SameCoordinates,4D01AB76-DD33-443A-9DFE-E83AFE04FE17*
G04*
G04*
G04 #@! TF.FilePolarity,Positive*
G04*
G01*
G75*
%ADD17C,0.01000*%
%ADD81O,0.05937X0.11874*%
%ADD82R,0.05937X0.11874*%
%ADD83R,0.11874X0.05937*%
%ADD84O,0.11874X0.05937*%
%ADD85C,0.09055*%
%ADD86C,0.02362*%
G36*
X289106Y333595D02*
X290768Y333196D01*
X292348Y332542D01*
X293805Y331649D01*
X295105Y330538D01*
X296216Y329238D01*
X297109Y327781D01*
X297763Y326201D01*
X298162Y324539D01*
X298258Y323323D01*
X298295Y322835D01*
X298295Y322835D01*
X298295Y322343D01*
X298295Y11811D01*
X298296Y11807D01*
X298162Y10107D01*
X297763Y8444D01*
X297109Y6865D01*
X296216Y5407D01*
X295105Y4107D01*
X293805Y2997D01*
X292348Y2104D01*
X290768Y1450D01*
X289106Y1051D01*
X287406Y917D01*
X287402Y918D01*
X11811D01*
X11807Y917D01*
X10107Y1051D01*
X8444Y1450D01*
X6865Y2104D01*
X5407Y2997D01*
X4107Y4107D01*
X2997Y5407D01*
X2104Y6865D01*
X1450Y8444D01*
X1051Y10107D01*
X955Y11322D01*
X918Y11811D01*
X918Y11811D01*
X918Y12303D01*
X918Y322835D01*
X917Y322839D01*
X1051Y324539D01*
X1450Y326201D01*
X2104Y327781D01*
X2997Y329238D01*
X4107Y330538D01*
X5407Y331649D01*
X6865Y332542D01*
X8444Y333196D01*
X10107Y333595D01*
X11807Y333729D01*
X11811Y333728D01*
X287402D01*
X287406Y333729D01*
X289106Y333595D01*
D02*
G37*
%LPC*%
G36*
X72247Y327206D02*
Y321066D01*
X75445D01*
Y323835D01*
X75329Y324714D01*
X74990Y325533D01*
X74450Y326237D01*
X73746Y326777D01*
X72927Y327116D01*
X72247Y327206D01*
D02*
G37*
G36*
X71847D02*
X71168Y327116D01*
X70349Y326777D01*
X69645Y326237D01*
X69105Y325533D01*
X68765Y324714D01*
X68650Y323835D01*
Y321066D01*
X71847D01*
Y327206D01*
D02*
G37*
G36*
X216657Y326812D02*
Y320672D01*
X219854D01*
Y323441D01*
X219739Y324320D01*
X219399Y325140D01*
X218859Y325843D01*
X218156Y326383D01*
X217336Y326723D01*
X216657Y326812D01*
D02*
G37*
G36*
X216257D02*
X215577Y326723D01*
X214758Y326383D01*
X214054Y325843D01*
X213514Y325140D01*
X213175Y324320D01*
X213059Y323441D01*
Y320672D01*
X216257D01*
Y326812D01*
D02*
G37*
G36*
X154368Y326124D02*
X141694D01*
Y319387D01*
X154368D01*
Y326124D01*
D02*
G37*
G36*
X139014D02*
X126340D01*
Y319387D01*
X139014D01*
Y326124D01*
D02*
G37*
G36*
X123660D02*
X110986D01*
Y319387D01*
X123660D01*
Y326124D01*
D02*
G37*
G36*
X108306D02*
X95631D01*
Y319387D01*
X108306D01*
Y326124D01*
D02*
G37*
G36*
X285039Y326230D02*
X283549Y326034D01*
X282160Y325459D01*
X280968Y324544D01*
X280053Y323351D01*
X279478Y321963D01*
X279281Y320472D01*
X279478Y318982D01*
X280053Y317594D01*
X280968Y316401D01*
X282160Y315486D01*
X283549Y314911D01*
X285039Y314715D01*
X286530Y314911D01*
X287918Y315486D01*
X289111Y316401D01*
X290026Y317594D01*
X290601Y318982D01*
X290797Y320472D01*
X290601Y321963D01*
X290026Y323351D01*
X289111Y324544D01*
X287918Y325459D01*
X286530Y326034D01*
X285039Y326230D01*
D02*
G37*
G36*
X14173D02*
X12683Y326034D01*
X11294Y325459D01*
X10102Y324544D01*
X9187Y323351D01*
X8612Y321963D01*
X8415Y320472D01*
X8612Y318982D01*
X9187Y317594D01*
X10102Y316401D01*
X11294Y315486D01*
X12683Y314911D01*
X14173Y314715D01*
X15664Y314911D01*
X17052Y315486D01*
X18245Y316401D01*
X19160Y317594D01*
X19735Y318982D01*
X19931Y320472D01*
X19735Y321963D01*
X19160Y323351D01*
X18245Y324544D01*
X17052Y325459D01*
X15664Y326034D01*
X14173Y326230D01*
D02*
G37*
G36*
X45416Y327203D02*
X38679D01*
Y314529D01*
X45416D01*
Y327203D01*
D02*
G37*
G36*
X71847Y320666D02*
X68650D01*
Y317898D01*
X68765Y317018D01*
X69105Y316199D01*
X69645Y315495D01*
X70349Y314955D01*
X71168Y314616D01*
X71847Y314526D01*
Y320666D01*
D02*
G37*
G36*
X75445D02*
X72247D01*
Y314526D01*
X72927Y314616D01*
X73746Y314955D01*
X74450Y315495D01*
X74990Y316199D01*
X75329Y317018D01*
X75445Y317898D01*
Y320666D01*
D02*
G37*
G36*
X169825Y326810D02*
X163088D01*
Y314135D01*
X169825D01*
Y326810D01*
D02*
G37*
G36*
X219854Y320272D02*
X216657D01*
Y314133D01*
X217336Y314222D01*
X218156Y314562D01*
X218859Y315102D01*
X219399Y315805D01*
X219739Y316625D01*
X219854Y317504D01*
Y320272D01*
D02*
G37*
G36*
X216257D02*
X213059D01*
Y317504D01*
X213175Y316625D01*
X213514Y315805D01*
X214054Y315102D01*
X214758Y314562D01*
X215577Y314222D01*
X216257Y314133D01*
Y320272D01*
D02*
G37*
G36*
X206457Y326838D02*
X205577Y326723D01*
X204758Y326383D01*
X204054Y325843D01*
X203514Y325140D01*
X203175Y324320D01*
X203059Y323441D01*
Y317504D01*
X203175Y316625D01*
X203514Y315805D01*
X204054Y315102D01*
X204758Y314562D01*
X205577Y314222D01*
X206457Y314106D01*
X207336Y314222D01*
X208155Y314562D01*
X208859Y315102D01*
X209399Y315805D01*
X209738Y316625D01*
X209854Y317504D01*
Y323441D01*
X209738Y324320D01*
X209399Y325140D01*
X208859Y325843D01*
X208155Y326383D01*
X207336Y326723D01*
X206457Y326838D01*
D02*
G37*
G36*
X196457D02*
X195577Y326723D01*
X194758Y326383D01*
X194054Y325843D01*
X193514Y325140D01*
X193175Y324320D01*
X193059Y323441D01*
Y317504D01*
X193175Y316625D01*
X193514Y315805D01*
X194054Y315102D01*
X194758Y314562D01*
X195577Y314222D01*
X196457Y314106D01*
X197336Y314222D01*
X198155Y314562D01*
X198859Y315102D01*
X199399Y315805D01*
X199739Y316625D01*
X199854Y317504D01*
Y323441D01*
X199739Y324320D01*
X199399Y325140D01*
X198859Y325843D01*
X198155Y326383D01*
X197336Y326723D01*
X196457Y326838D01*
D02*
G37*
G36*
X186457D02*
X185577Y326723D01*
X184758Y326383D01*
X184054Y325843D01*
X183514Y325140D01*
X183175Y324320D01*
X183059Y323441D01*
Y317504D01*
X183175Y316625D01*
X183514Y315805D01*
X184054Y315102D01*
X184758Y314562D01*
X185577Y314222D01*
X186457Y314106D01*
X187336Y314222D01*
X188155Y314562D01*
X188859Y315102D01*
X189399Y315805D01*
X189739Y316625D01*
X189854Y317504D01*
Y323441D01*
X189739Y324320D01*
X189399Y325140D01*
X188859Y325843D01*
X188155Y326383D01*
X187336Y326723D01*
X186457Y326838D01*
D02*
G37*
G36*
X176457D02*
X175577Y326723D01*
X174758Y326383D01*
X174054Y325843D01*
X173514Y325140D01*
X173175Y324320D01*
X173059Y323441D01*
Y317504D01*
X173175Y316625D01*
X173514Y315805D01*
X174054Y315102D01*
X174758Y314562D01*
X175577Y314222D01*
X176457Y314106D01*
X177336Y314222D01*
X178156Y314562D01*
X178859Y315102D01*
X179399Y315805D01*
X179738Y316625D01*
X179854Y317504D01*
Y323441D01*
X179738Y324320D01*
X179399Y325140D01*
X178859Y325843D01*
X178156Y326383D01*
X177336Y326723D01*
X176457Y326838D01*
D02*
G37*
G36*
X151000Y316154D02*
X148231D01*
Y312956D01*
X154371D01*
X154282Y313635D01*
X153942Y314455D01*
X153402Y315158D01*
X152699Y315698D01*
X151879Y316038D01*
X151000Y316154D01*
D02*
G37*
G36*
X147831D02*
X145063D01*
X144184Y316038D01*
X143364Y315698D01*
X142660Y315158D01*
X142121Y314455D01*
X141781Y313635D01*
X141692Y312956D01*
X147831D01*
Y316154D01*
D02*
G37*
G36*
X135646D02*
X132877D01*
Y312956D01*
X139017D01*
X138927Y313635D01*
X138588Y314455D01*
X138048Y315158D01*
X137345Y315698D01*
X136525Y316038D01*
X135646Y316154D01*
D02*
G37*
G36*
X132477D02*
X129709D01*
X128829Y316038D01*
X128010Y315698D01*
X127306Y315158D01*
X126766Y314455D01*
X126427Y313635D01*
X126337Y312956D01*
X132477D01*
Y316154D01*
D02*
G37*
G36*
X120291D02*
X117523D01*
Y312956D01*
X123663D01*
X123573Y313635D01*
X123234Y314455D01*
X122694Y315158D01*
X121990Y315698D01*
X121171Y316038D01*
X120291Y316154D01*
D02*
G37*
G36*
X117123D02*
X114354D01*
X113475Y316038D01*
X112655Y315698D01*
X111952Y315158D01*
X111412Y314455D01*
X111073Y313635D01*
X110983Y312956D01*
X117123D01*
Y316154D01*
D02*
G37*
G36*
X104937D02*
X102169D01*
Y312956D01*
X108308D01*
X108219Y313635D01*
X107879Y314455D01*
X107340Y315158D01*
X106636Y315698D01*
X105816Y316038D01*
X104937Y316154D01*
D02*
G37*
G36*
X101769D02*
X99000D01*
X98121Y316038D01*
X97301Y315698D01*
X96598Y315158D01*
X96058Y314455D01*
X95718Y313635D01*
X95629Y312956D01*
X101769D01*
Y316154D01*
D02*
G37*
G36*
X242326Y314393D02*
Y309649D01*
X247070D01*
X246927Y310735D01*
X246430Y311934D01*
X245640Y312963D01*
X244611Y313753D01*
X243412Y314249D01*
X242326Y314393D01*
D02*
G37*
G36*
X241926Y314393D02*
X240840Y314249D01*
X239641Y313753D01*
X238612Y312963D01*
X237822Y311934D01*
X237325Y310735D01*
X237182Y309649D01*
X241926D01*
Y314393D01*
D02*
G37*
G36*
X154371Y312556D02*
X148231D01*
Y309358D01*
X151000D01*
X151879Y309474D01*
X152699Y309813D01*
X153402Y310353D01*
X153942Y311057D01*
X154282Y311877D01*
X154371Y312556D01*
D02*
G37*
G36*
X147831D02*
X141692D01*
X141781Y311877D01*
X142121Y311057D01*
X142660Y310353D01*
X143364Y309813D01*
X144184Y309474D01*
X145063Y309358D01*
X147831D01*
Y312556D01*
D02*
G37*
G36*
X139017D02*
X132877D01*
Y309358D01*
X135646D01*
X136525Y309474D01*
X137345Y309813D01*
X138048Y310353D01*
X138588Y311057D01*
X138927Y311877D01*
X139017Y312556D01*
D02*
G37*
G36*
X132477D02*
X126337D01*
X126427Y311877D01*
X126766Y311057D01*
X127306Y310353D01*
X128010Y309813D01*
X128829Y309474D01*
X129709Y309358D01*
X132477D01*
Y312556D01*
D02*
G37*
G36*
X123663D02*
X117523D01*
Y309358D01*
X120291D01*
X121171Y309474D01*
X121990Y309813D01*
X122694Y310353D01*
X123234Y311057D01*
X123573Y311877D01*
X123663Y312556D01*
D02*
G37*
G36*
X117123D02*
X110983D01*
X111073Y311877D01*
X111412Y311057D01*
X111952Y310353D01*
X112655Y309813D01*
X113475Y309474D01*
X114354Y309358D01*
X117123D01*
Y312556D01*
D02*
G37*
G36*
X108308D02*
X102169D01*
Y309358D01*
X104937D01*
X105816Y309474D01*
X106636Y309813D01*
X107340Y310353D01*
X107879Y311057D01*
X108219Y311877D01*
X108308Y312556D01*
D02*
G37*
G36*
X101769D02*
X95629D01*
X95718Y311877D01*
X96058Y311057D01*
X96598Y310353D01*
X97301Y309813D01*
X98121Y309474D01*
X99000Y309358D01*
X101769D01*
Y312556D01*
D02*
G37*
G36*
X247070Y309249D02*
X242326D01*
Y304505D01*
X243412Y304648D01*
X244611Y305145D01*
X245640Y305934D01*
X246430Y306964D01*
X246927Y308162D01*
X247070Y309249D01*
D02*
G37*
G36*
X241926D02*
X237182D01*
X237325Y308162D01*
X237822Y306964D01*
X238612Y305934D01*
X239641Y305145D01*
X240840Y304648D01*
X241926Y304505D01*
Y309249D01*
D02*
G37*
G36*
X261811Y314419D02*
X260525Y314249D01*
X259326Y313753D01*
X258297Y312963D01*
X257507Y311934D01*
X257010Y310735D01*
X256841Y309449D01*
X257010Y308162D01*
X257507Y306964D01*
X258297Y305934D01*
X259326Y305145D01*
X260525Y304648D01*
X261811Y304479D01*
X263097Y304648D01*
X264296Y305145D01*
X265325Y305934D01*
X266115Y306964D01*
X266612Y308162D01*
X266781Y309449D01*
X266612Y310735D01*
X266115Y311934D01*
X265325Y312963D01*
X264296Y313753D01*
X263097Y314249D01*
X261811Y314419D01*
D02*
G37*
G36*
X220116Y309195D02*
X207442D01*
Y302458D01*
X220116D01*
Y309195D01*
D02*
G37*
G36*
X151000Y306153D02*
X145063D01*
X144184Y306038D01*
X143364Y305698D01*
X142660Y305158D01*
X142121Y304455D01*
X141781Y303635D01*
X141665Y302756D01*
X141781Y301876D01*
X142058Y301208D01*
X142052Y301190D01*
X142019Y301120D01*
X141961Y301026D01*
X141876Y300913D01*
X141766Y300785D01*
X141623Y300636D01*
X141610Y300600D01*
X140001Y298991D01*
X139802Y298694D01*
X139732Y298342D01*
Y136864D01*
X139717Y136830D01*
X139714Y136722D01*
X139706Y136635D01*
X139694Y136555D01*
X139678Y136484D01*
X139659Y136420D01*
X139648Y136392D01*
X139438Y136251D01*
X139066Y135695D01*
X138936Y135039D01*
X139066Y134383D01*
X139438Y133827D01*
X139994Y133456D01*
X140650Y133325D01*
X141305Y133456D01*
X141862Y133827D01*
X142353Y133662D01*
X142489Y133459D01*
X143045Y133087D01*
X143701Y132957D01*
X144357Y133087D01*
X144913Y133459D01*
X145094Y133730D01*
X145695D01*
X145748Y133652D01*
X146304Y133280D01*
X146960Y133150D01*
X147616Y133280D01*
X148172Y133652D01*
X148544Y134208D01*
X148674Y134864D01*
X148544Y135520D01*
X148172Y136076D01*
X147857Y136286D01*
X147848Y136306D01*
X147829Y136364D01*
X147812Y136430D01*
X147800Y136506D01*
X147792Y136591D01*
X147789Y136698D01*
X147782Y136712D01*
X147787Y136727D01*
X147774Y136752D01*
Y225594D01*
X147789Y225628D01*
X147792Y225736D01*
X147799Y225827D01*
X147810Y225911D01*
X147825Y225987D01*
X147844Y226056D01*
X147850Y226074D01*
X147964Y226150D01*
X148336Y226706D01*
X148466Y227362D01*
X148336Y228018D01*
X147964Y228574D01*
X147408Y228946D01*
X146752Y229076D01*
X146096Y228946D01*
X145540Y228574D01*
X145168Y228018D01*
X145118Y227767D01*
X144618Y227816D01*
Y288971D01*
X145051Y289360D01*
X145063Y289358D01*
X151000D01*
X151879Y289474D01*
X152699Y289813D01*
X153402Y290353D01*
X153942Y291057D01*
X154282Y291877D01*
X154398Y292756D01*
X154282Y293635D01*
X153942Y294455D01*
X153402Y295158D01*
X152699Y295698D01*
X151879Y296038D01*
X151000Y296153D01*
X145063D01*
X144184Y296038D01*
X143364Y295698D01*
X142660Y295158D01*
X142121Y294455D01*
X142067Y294326D01*
X141567Y294425D01*
Y297962D01*
X142908Y299303D01*
X142943Y299316D01*
X143092Y299459D01*
X143220Y299569D01*
X143333Y299654D01*
X143427Y299712D01*
X143497Y299745D01*
X143515Y299751D01*
X144184Y299474D01*
X145063Y299358D01*
X151000D01*
X151879Y299474D01*
X152699Y299814D01*
X153402Y300354D01*
X153942Y301057D01*
X154282Y301876D01*
X154398Y302756D01*
X154282Y303635D01*
X153942Y304455D01*
X153402Y305158D01*
X152699Y305698D01*
X151879Y306038D01*
X151000Y306153D01*
D02*
G37*
G36*
X135646D02*
X129709D01*
X128829Y306038D01*
X128010Y305698D01*
X127306Y305158D01*
X126766Y304455D01*
X126427Y303635D01*
X126311Y302756D01*
X126427Y301876D01*
X126766Y301057D01*
X127306Y300354D01*
X127311Y300288D01*
X124646Y297624D01*
X124448Y297326D01*
X124378Y296975D01*
Y290158D01*
X124448Y289806D01*
X124646Y289509D01*
X129397Y284758D01*
Y263583D01*
X129467Y263231D01*
X129666Y262934D01*
X132941Y259659D01*
Y240407D01*
X132925Y240373D01*
X132922Y240266D01*
X132915Y240178D01*
X132903Y240099D01*
X132887Y240027D01*
X132868Y239963D01*
X132856Y239935D01*
X132646Y239795D01*
X132275Y239239D01*
X132144Y238583D01*
X132275Y237927D01*
X132646Y237371D01*
X133202Y236999D01*
X133858Y236869D01*
X134137Y236924D01*
X134562Y236499D01*
X134506Y236221D01*
X134637Y235564D01*
X135009Y235009D01*
X135564Y234637D01*
X136221Y234506D01*
X136876Y234637D01*
X137433Y235009D01*
X137804Y235564D01*
X137935Y236221D01*
X137804Y236876D01*
X137433Y237433D01*
X137222Y237573D01*
X137211Y237601D01*
X137192Y237665D01*
X137176Y237736D01*
X137164Y237816D01*
X137156Y237903D01*
X137153Y238011D01*
X137138Y238045D01*
Y261417D01*
X137068Y261769D01*
X136869Y262066D01*
X133595Y265341D01*
Y288740D01*
X133610Y288774D01*
X133615Y288953D01*
X133627Y289095D01*
X133646Y289210D01*
X133669Y289296D01*
X133691Y289350D01*
X133696Y289358D01*
X135646D01*
X136525Y289474D01*
X137345Y289813D01*
X138048Y290353D01*
X138588Y291057D01*
X138927Y291877D01*
X139043Y292756D01*
X138927Y293635D01*
X138588Y294455D01*
X138048Y295158D01*
X137345Y295698D01*
X136525Y296038D01*
X135646Y296153D01*
X129709D01*
X128829Y296038D01*
X128010Y295698D01*
X127306Y295158D01*
X126766Y294455D01*
X126713Y294326D01*
X126213Y294425D01*
Y296595D01*
X128882Y299264D01*
X128945Y299359D01*
X129034Y299447D01*
X129709Y299358D01*
X135646D01*
X136525Y299474D01*
X137345Y299814D01*
X138048Y300354D01*
X138588Y301057D01*
X138927Y301876D01*
X139043Y302756D01*
X138927Y303635D01*
X138588Y304455D01*
X138048Y305158D01*
X137345Y305698D01*
X136525Y306038D01*
X135646Y306153D01*
D02*
G37*
G36*
X15397Y305159D02*
Y299019D01*
X18594D01*
Y301787D01*
X18479Y302667D01*
X18139Y303486D01*
X17599Y304190D01*
X16896Y304730D01*
X16076Y305069D01*
X15397Y305159D01*
D02*
G37*
G36*
X14997D02*
X14318Y305069D01*
X13498Y304730D01*
X12794Y304190D01*
X12254Y303486D01*
X11915Y302667D01*
X11799Y301787D01*
Y299019D01*
X14997D01*
Y305159D01*
D02*
G37*
G36*
X120291Y306153D02*
X114354D01*
X113475Y306038D01*
X112655Y305698D01*
X111952Y305158D01*
X111412Y304455D01*
X111073Y303635D01*
X110957Y302756D01*
X111073Y301876D01*
X111412Y301057D01*
X111952Y300354D01*
X111868Y299787D01*
X111863Y299782D01*
X111850Y299748D01*
X111820Y299729D01*
X111817Y299714D01*
X108800Y296697D01*
X108601Y296400D01*
X108531Y296048D01*
Y294188D01*
X108031Y294088D01*
X107879Y294455D01*
X107340Y295158D01*
X106636Y295698D01*
X105816Y296038D01*
X104937Y296153D01*
X99000D01*
X98121Y296038D01*
X97301Y295698D01*
X96598Y295158D01*
X96058Y294455D01*
X95718Y293635D01*
X95602Y292756D01*
X95718Y291877D01*
X96058Y291057D01*
X96598Y290353D01*
X97301Y289813D01*
X98121Y289474D01*
X99000Y289358D01*
X100950D01*
X100955Y289350D01*
X100977Y289296D01*
X101000Y289210D01*
X101019Y289095D01*
X101031Y288953D01*
X101036Y288774D01*
X101051Y288740D01*
Y278333D01*
X81218Y258500D01*
X80756Y258692D01*
Y263317D01*
X93562Y276123D01*
X93761Y276420D01*
X93831Y276772D01*
Y293948D01*
X98601Y298718D01*
X98616Y298721D01*
X98636Y298752D01*
X98670Y298765D01*
X98826Y298915D01*
X98968Y299039D01*
X99101Y299141D01*
X99224Y299224D01*
X99336Y299288D01*
X99435Y299332D01*
X99516Y299358D01*
X104937D01*
X105816Y299474D01*
X106636Y299814D01*
X107340Y300354D01*
X107879Y301057D01*
X108219Y301876D01*
X108335Y302756D01*
X108219Y303635D01*
X107879Y304455D01*
X107340Y305158D01*
X106636Y305698D01*
X105816Y306038D01*
X104937Y306153D01*
X99000D01*
X98121Y306038D01*
X97301Y305698D01*
X96598Y305158D01*
X96058Y304455D01*
X95718Y303635D01*
X95602Y302756D01*
X95718Y301876D01*
X96058Y301057D01*
X96598Y300354D01*
X96773Y300219D01*
X96834Y300098D01*
X96863Y299597D01*
X96855Y299576D01*
X96831Y299544D01*
X92264Y294977D01*
X92066Y294679D01*
X91996Y294328D01*
Y277152D01*
X79190Y264346D01*
X78991Y264048D01*
X78921Y263697D01*
Y228059D01*
X78421Y227791D01*
X78313Y227863D01*
X77658Y227994D01*
X77002Y227863D01*
X76446Y227491D01*
X76074Y226936D01*
X75943Y226279D01*
X76074Y225624D01*
X76446Y225067D01*
X77002Y224696D01*
X77658Y224566D01*
X78313Y224696D01*
X78421Y224768D01*
X78921Y224501D01*
Y183073D01*
X71103Y175255D01*
X70904Y174958D01*
X70834Y174606D01*
Y171805D01*
X70819Y171771D01*
X70816Y171663D01*
X70809Y171576D01*
X70797Y171496D01*
X70781Y171425D01*
X70761Y171361D01*
X70750Y171333D01*
X70540Y171192D01*
X70168Y170636D01*
X70038Y169980D01*
X70168Y169324D01*
X70540Y168768D01*
X71096Y168397D01*
X71752Y168266D01*
X72408Y168397D01*
X72964Y168768D01*
X73335Y169324D01*
X73466Y169980D01*
X73335Y170636D01*
X72964Y171192D01*
X72936Y171211D01*
X72918Y171468D01*
X73367Y171739D01*
X73655Y171546D01*
X74311Y171416D01*
X74967Y171546D01*
X75523Y171918D01*
X75895Y172474D01*
X76025Y173130D01*
X75976Y173378D01*
X75988Y173406D01*
X76019Y173465D01*
X76058Y173526D01*
X76106Y173591D01*
X76163Y173658D01*
X76237Y173736D01*
X76250Y173771D01*
X81887Y179409D01*
X82086Y179706D01*
X82156Y180058D01*
Y256843D01*
X102617Y277304D01*
X102816Y277602D01*
X102886Y277953D01*
Y288740D01*
X102901Y288774D01*
X102906Y288953D01*
X102918Y289095D01*
X102937Y289210D01*
X102960Y289296D01*
X102982Y289350D01*
X102987Y289358D01*
X104937D01*
X105816Y289474D01*
X106636Y289813D01*
X107340Y290353D01*
X107879Y291057D01*
X108031Y291424D01*
X108531Y291324D01*
Y278866D01*
X84883Y255218D01*
X84684Y254920D01*
X84614Y254569D01*
Y238537D01*
X84599Y238503D01*
X84596Y238396D01*
X84588Y238308D01*
X84576Y238228D01*
X84560Y238157D01*
X84541Y238093D01*
X84530Y238065D01*
X84320Y237925D01*
X83948Y237368D01*
X83817Y236713D01*
X83948Y236057D01*
X84320Y235501D01*
X84876Y235129D01*
X85532Y234999D01*
X86187Y235129D01*
X86743Y235501D01*
X86891Y235721D01*
X87081Y235736D01*
X87456Y235667D01*
X87764Y235205D01*
X88320Y234834D01*
X88976Y234703D01*
X89632Y234834D01*
X90188Y235205D01*
X90366Y235471D01*
X90768Y235674D01*
X90993Y235579D01*
X91372Y235326D01*
X92028Y235195D01*
X92684Y235326D01*
X93240Y235697D01*
X93611Y236253D01*
X93742Y236910D01*
X93611Y237565D01*
X93240Y238122D01*
X93029Y238262D01*
X93018Y238290D01*
X92999Y238354D01*
X92983Y238425D01*
X92971Y238505D01*
X92963Y238593D01*
X92960Y238700D01*
X92945Y238734D01*
Y239187D01*
X93799Y240040D01*
X93997Y240338D01*
X94067Y240689D01*
Y241657D01*
X94140Y241850D01*
X94790Y241979D01*
X95346Y242351D01*
X95717Y242907D01*
X95848Y243563D01*
X95717Y244219D01*
X95346Y244775D01*
X94790Y245146D01*
X94134Y245277D01*
X93478Y245146D01*
X92922Y244775D01*
X92550Y244219D01*
X92534Y244135D01*
X92501Y244113D01*
X92302Y243816D01*
X92232Y243465D01*
Y242317D01*
X92228Y242298D01*
X92232Y242271D01*
Y241069D01*
X91379Y240216D01*
X91180Y239918D01*
X91110Y239567D01*
Y238734D01*
X91095Y238700D01*
X91092Y238593D01*
X91084Y238505D01*
X91072Y238425D01*
X91056Y238354D01*
X91037Y238290D01*
X91026Y238262D01*
X90816Y238122D01*
X90638Y237856D01*
X90440Y237756D01*
X90371Y237762D01*
X90273Y237785D01*
X90183Y237824D01*
X89922Y237997D01*
X89920Y238013D01*
X89912Y238100D01*
X89909Y238208D01*
X89894Y238242D01*
Y248833D01*
X117784Y276722D01*
X117983Y277020D01*
X118053Y277371D01*
Y288740D01*
X118068Y288774D01*
X118072Y288953D01*
X118085Y289095D01*
X118104Y289210D01*
X118126Y289296D01*
X118148Y289350D01*
X118154Y289358D01*
X120291D01*
X121171Y289474D01*
X121990Y289813D01*
X122694Y290353D01*
X123234Y291057D01*
X123573Y291877D01*
X123689Y292756D01*
X123573Y293635D01*
X123234Y294455D01*
X122694Y295158D01*
X121990Y295698D01*
X121171Y296038D01*
X120291Y296153D01*
X114354D01*
X113475Y296038D01*
X112655Y295698D01*
X111952Y295158D01*
X111412Y294455D01*
X111073Y293635D01*
X110957Y292756D01*
X111073Y291877D01*
X111412Y291057D01*
X111952Y290353D01*
X112655Y289813D01*
X113475Y289474D01*
X114354Y289358D01*
X116116D01*
X116121Y289350D01*
X116143Y289296D01*
X116166Y289210D01*
X116185Y289095D01*
X116198Y288953D01*
X116202Y288774D01*
X116217Y288740D01*
Y277751D01*
X88327Y249862D01*
X88129Y249564D01*
X88059Y249213D01*
Y238242D01*
X88044Y238208D01*
X88041Y238100D01*
X88033Y238013D01*
X88021Y237933D01*
X88005Y237862D01*
X87986Y237798D01*
X87975Y237770D01*
X87764Y237629D01*
X87617Y237409D01*
X87427Y237393D01*
X87052Y237463D01*
X86743Y237925D01*
X86533Y238065D01*
X86522Y238093D01*
X86503Y238157D01*
X86487Y238229D01*
X86475Y238308D01*
X86467Y238396D01*
X86464Y238503D01*
X86449Y238537D01*
Y254189D01*
X110098Y277837D01*
X110297Y278135D01*
X110366Y278486D01*
Y295668D01*
X113274Y298576D01*
X113308Y298588D01*
X113701Y298954D01*
X113865Y299088D01*
X114018Y299198D01*
X114152Y299281D01*
X114266Y299338D01*
X114330Y299362D01*
X114354Y299358D01*
X120291D01*
X121171Y299474D01*
X121990Y299814D01*
X122694Y300354D01*
X123234Y301057D01*
X123573Y301876D01*
X123689Y302756D01*
X123573Y303635D01*
X123234Y304455D01*
X122694Y305158D01*
X121990Y305698D01*
X121171Y306038D01*
X120291Y306153D01*
D02*
G37*
G36*
X68565Y305156D02*
X61828D01*
Y292482D01*
X68565D01*
Y305156D01*
D02*
G37*
G36*
X18594Y298619D02*
X15397D01*
Y292479D01*
X16076Y292569D01*
X16896Y292908D01*
X17599Y293448D01*
X18139Y294152D01*
X18479Y294971D01*
X18594Y295850D01*
Y298619D01*
D02*
G37*
G36*
X14997D02*
X11799D01*
Y295850D01*
X11915Y294971D01*
X12254Y294152D01*
X12794Y293448D01*
X13498Y292908D01*
X14318Y292569D01*
X14997Y292479D01*
Y298619D01*
D02*
G37*
G36*
X55197Y305185D02*
X54317Y305069D01*
X53498Y304730D01*
X52794Y304190D01*
X52254Y303486D01*
X51915Y302667D01*
X51799Y301787D01*
Y295850D01*
X51915Y294971D01*
X52254Y294152D01*
X52794Y293448D01*
X53498Y292908D01*
X54317Y292569D01*
X55197Y292453D01*
X56076Y292569D01*
X56896Y292908D01*
X57599Y293448D01*
X58139Y294152D01*
X58479Y294971D01*
X58594Y295850D01*
Y301787D01*
X58479Y302667D01*
X58139Y303486D01*
X57599Y304190D01*
X56896Y304730D01*
X56076Y305069D01*
X55197Y305185D01*
D02*
G37*
G36*
X45197D02*
X44317Y305069D01*
X43498Y304730D01*
X42794Y304190D01*
X42254Y303486D01*
X41915Y302667D01*
X41799Y301787D01*
Y295850D01*
X41915Y294971D01*
X42254Y294152D01*
X42794Y293448D01*
X43498Y292908D01*
X44317Y292569D01*
X45197Y292453D01*
X46076Y292569D01*
X46896Y292908D01*
X47599Y293448D01*
X48139Y294152D01*
X48479Y294971D01*
X48594Y295850D01*
Y301787D01*
X48479Y302667D01*
X48139Y303486D01*
X47599Y304190D01*
X46896Y304730D01*
X46076Y305069D01*
X45197Y305185D01*
D02*
G37*
G36*
X25197D02*
X24317Y305069D01*
X23498Y304730D01*
X22794Y304190D01*
X22254Y303486D01*
X21915Y302667D01*
X21799Y301787D01*
Y295850D01*
X21915Y294971D01*
X22254Y294152D01*
X22794Y293448D01*
X23498Y292908D01*
X24317Y292569D01*
X25197Y292453D01*
X26076Y292569D01*
X26896Y292908D01*
X27599Y293448D01*
X28139Y294152D01*
X28479Y294971D01*
X28594Y295850D01*
Y301787D01*
X28479Y302667D01*
X28139Y303486D01*
X27599Y304190D01*
X26896Y304730D01*
X26076Y305069D01*
X25197Y305185D01*
D02*
G37*
G36*
X216748Y299224D02*
X210811D01*
X209932Y299109D01*
X209112Y298769D01*
X208409Y298229D01*
X207869Y297526D01*
X207529Y296706D01*
X207414Y295827D01*
X207529Y294947D01*
X207869Y294128D01*
X208409Y293424D01*
X209112Y292884D01*
X209932Y292545D01*
X210811Y292429D01*
X216748D01*
X217627Y292545D01*
X218447Y292884D01*
X219150Y293424D01*
X219690Y294128D01*
X220030Y294947D01*
X220146Y295827D01*
X220030Y296706D01*
X219690Y297526D01*
X219150Y298229D01*
X218447Y298769D01*
X217627Y299109D01*
X216748Y299224D01*
D02*
G37*
G36*
X201575Y302895D02*
X200919Y302765D01*
X200363Y302393D01*
X199991Y301837D01*
X199861Y301181D01*
X199991Y300525D01*
X200363Y299969D01*
X200573Y299829D01*
X200584Y299800D01*
X200604Y299737D01*
X200620Y299665D01*
X200631Y299586D01*
X200639Y299498D01*
X200642Y299391D01*
X200657Y299357D01*
Y291982D01*
X200642Y291948D01*
X200639Y291841D01*
X200631Y291753D01*
X200620Y291673D01*
X200604Y291602D01*
X200584Y291538D01*
X200573Y291510D01*
X200363Y291370D01*
X199991Y290813D01*
X199861Y290158D01*
X199991Y289502D01*
X200363Y288946D01*
X200919Y288574D01*
X201575Y288443D01*
X202231Y288574D01*
X202787Y288946D01*
X203158Y289502D01*
X203289Y290158D01*
X203158Y290813D01*
X202787Y291370D01*
X202577Y291510D01*
X202566Y291538D01*
X202546Y291602D01*
X202530Y291673D01*
X202518Y291753D01*
X202510Y291841D01*
X202508Y291948D01*
X202492Y291982D01*
Y299357D01*
X202508Y299391D01*
X202510Y299498D01*
X202518Y299586D01*
X202530Y299665D01*
X202546Y299737D01*
X202565Y299800D01*
X202577Y299829D01*
X202787Y299969D01*
X203158Y300525D01*
X203289Y301181D01*
X203158Y301837D01*
X202787Y302393D01*
X202231Y302765D01*
X201575Y302895D01*
D02*
G37*
G36*
X216748Y289224D02*
X210811D01*
X209932Y289109D01*
X209112Y288769D01*
X208409Y288229D01*
X207869Y287526D01*
X207529Y286706D01*
X207414Y285827D01*
X207529Y284947D01*
X207869Y284128D01*
X208409Y283424D01*
X209112Y282884D01*
X209932Y282545D01*
X210811Y282429D01*
X216748D01*
X217627Y282545D01*
X218447Y282884D01*
X219150Y283424D01*
X219690Y284128D01*
X220030Y284947D01*
X220146Y285827D01*
X220030Y286706D01*
X219690Y287526D01*
X219150Y288229D01*
X218447Y288769D01*
X217627Y289109D01*
X216748Y289224D01*
D02*
G37*
G36*
X293307Y281242D02*
X292651Y281111D01*
X292095Y280740D01*
X291723Y280184D01*
X291593Y279528D01*
X291723Y278872D01*
X292095Y278316D01*
X292651Y277944D01*
X293307Y277814D01*
X293963Y277944D01*
X294519Y278316D01*
X294891Y278872D01*
X295021Y279528D01*
X294891Y280184D01*
X294519Y280740D01*
X293963Y281111D01*
X293307Y281242D01*
D02*
G37*
G36*
X287402D02*
X286746Y281111D01*
X286190Y280740D01*
X285818Y280184D01*
X285687Y279528D01*
X285818Y278872D01*
X286190Y278316D01*
X286746Y277944D01*
X287402Y277814D01*
X288057Y277944D01*
X288614Y278316D01*
X288985Y278872D01*
X289116Y279528D01*
X288985Y280184D01*
X288614Y280740D01*
X288057Y281111D01*
X287402Y281242D01*
D02*
G37*
G36*
X281496D02*
X280840Y281111D01*
X280284Y280740D01*
X279912Y280184D01*
X279782Y279528D01*
X279912Y278872D01*
X280284Y278316D01*
X280840Y277944D01*
X281496Y277814D01*
X282152Y277944D01*
X282708Y278316D01*
X283080Y278872D01*
X283210Y279528D01*
X283080Y280184D01*
X282708Y280740D01*
X282152Y281111D01*
X281496Y281242D01*
D02*
G37*
G36*
X62047Y327232D02*
X61168Y327116D01*
X60348Y326777D01*
X59645Y326237D01*
X59105Y325533D01*
X58765Y324714D01*
X58650Y323835D01*
Y317898D01*
X58765Y317018D01*
X59105Y316199D01*
X59645Y315495D01*
X60348Y314955D01*
X61168Y314616D01*
X62047Y314500D01*
X62927Y314616D01*
X63746Y314955D01*
X64450Y315495D01*
X64855Y316024D01*
X64857Y316026D01*
X65106Y316135D01*
X65308Y316148D01*
X65497Y316118D01*
X72311Y309305D01*
Y273709D01*
X72231Y273655D01*
X71639Y273655D01*
X60957Y284337D01*
Y312874D01*
X60887Y313225D01*
X60688Y313523D01*
X56059Y318152D01*
X56048Y318184D01*
X56041Y318187D01*
X56038Y318194D01*
X55898Y318341D01*
X55783Y318474D01*
X55686Y318602D01*
X55606Y318722D01*
X55542Y318834D01*
X55495Y318938D01*
X55463Y319033D01*
X55445Y319114D01*
Y323835D01*
X55329Y324714D01*
X54990Y325533D01*
X54450Y326237D01*
X53746Y326777D01*
X52927Y327116D01*
X52047Y327232D01*
X51168Y327116D01*
X50349Y326777D01*
X49645Y326237D01*
X49105Y325533D01*
X48765Y324714D01*
X48650Y323835D01*
Y317898D01*
X48765Y317018D01*
X49105Y316199D01*
X49645Y315495D01*
X50349Y314955D01*
X51168Y314616D01*
X52047Y314500D01*
X52927Y314616D01*
X53746Y314955D01*
X54450Y315495D01*
X54855Y316024D01*
X54857Y316026D01*
X55106Y316135D01*
X55308Y316148D01*
X55497Y316118D01*
X59122Y312494D01*
Y283957D01*
X59192Y283606D01*
X59390Y283308D01*
X70072Y272626D01*
Y219836D01*
X70057Y219802D01*
X70054Y219695D01*
X70046Y219607D01*
X70034Y219528D01*
X70018Y219456D01*
X69999Y219392D01*
X69988Y219364D01*
X69778Y219224D01*
X69406Y218668D01*
X69276Y218012D01*
X69406Y217356D01*
X69778Y216800D01*
X70227Y216500D01*
X70295Y216102D01*
X70274Y215930D01*
X70048Y215779D01*
X69676Y215223D01*
X69546Y214567D01*
X69676Y213911D01*
X70048Y213355D01*
X70604Y212983D01*
X71260Y212853D01*
X71916Y212983D01*
X72472Y213355D01*
X72843Y213911D01*
X72974Y214567D01*
X72934Y214767D01*
X72945Y214793D01*
X72979Y214853D01*
X73019Y214916D01*
X73069Y214982D01*
X73126Y215050D01*
X73201Y215128D01*
X73214Y215163D01*
X73877Y215826D01*
X74076Y216124D01*
X74146Y216475D01*
Y309685D01*
X74076Y310036D01*
X73877Y310334D01*
X66059Y318152D01*
X66048Y318184D01*
X66041Y318187D01*
X66038Y318194D01*
X65898Y318341D01*
X65783Y318474D01*
X65686Y318602D01*
X65605Y318722D01*
X65542Y318834D01*
X65495Y318938D01*
X65463Y319033D01*
X65445Y319114D01*
Y323835D01*
X65329Y324714D01*
X64990Y325533D01*
X64450Y326237D01*
X63746Y326777D01*
X62927Y327116D01*
X62047Y327232D01*
D02*
G37*
G36*
X293307Y275336D02*
X292651Y275206D01*
X292095Y274834D01*
X291723Y274278D01*
X291593Y273622D01*
X291723Y272966D01*
X292095Y272410D01*
X292651Y272039D01*
X293307Y271908D01*
X293963Y272039D01*
X294519Y272410D01*
X294891Y272966D01*
X295021Y273622D01*
X294891Y274278D01*
X294519Y274834D01*
X293963Y275206D01*
X293307Y275336D01*
D02*
G37*
G36*
X287402Y275336D02*
X286746Y275206D01*
X286190Y274834D01*
X285818Y274278D01*
X285687Y273622D01*
X285818Y272966D01*
X286190Y272410D01*
X286746Y272039D01*
X287402Y271908D01*
X288057Y272039D01*
X288614Y272410D01*
X288985Y272966D01*
X289116Y273622D01*
X288985Y274278D01*
X288614Y274834D01*
X288057Y275206D01*
X287402Y275336D01*
D02*
G37*
G36*
X281496Y275336D02*
X280840Y275206D01*
X280284Y274834D01*
X279912Y274278D01*
X279782Y273622D01*
X279912Y272966D01*
X280284Y272410D01*
X280840Y272039D01*
X281496Y271908D01*
X282152Y272039D01*
X282708Y272410D01*
X283080Y272966D01*
X283210Y273622D01*
X283080Y274278D01*
X282708Y274834D01*
X282152Y275206D01*
X281496Y275336D01*
D02*
G37*
G36*
X35397Y272481D02*
Y266342D01*
X38594D01*
Y269110D01*
X38479Y269990D01*
X38139Y270809D01*
X37599Y271513D01*
X36896Y272053D01*
X36076Y272392D01*
X35397Y272481D01*
D02*
G37*
G36*
X34997D02*
X34317Y272392D01*
X33498Y272053D01*
X32794Y271513D01*
X32254Y270809D01*
X31915Y269990D01*
X31799Y269110D01*
Y266342D01*
X34997D01*
Y272481D01*
D02*
G37*
G36*
X216748Y269224D02*
X213980D01*
Y266027D01*
X220119D01*
X220030Y266706D01*
X219690Y267526D01*
X219150Y268229D01*
X218447Y268769D01*
X217627Y269109D01*
X216748Y269224D01*
D02*
G37*
G36*
X213580D02*
X210811D01*
X209932Y269109D01*
X209112Y268769D01*
X208409Y268229D01*
X207869Y267526D01*
X207529Y266706D01*
X207440Y266027D01*
X213580D01*
Y269224D01*
D02*
G37*
G36*
X293307Y269431D02*
X292651Y269300D01*
X292095Y268929D01*
X291723Y268373D01*
X291593Y267717D01*
X291723Y267061D01*
X292095Y266505D01*
X292651Y266133D01*
X293307Y266002D01*
X293963Y266133D01*
X294519Y266505D01*
X294891Y267061D01*
X295021Y267717D01*
X294891Y268373D01*
X294519Y268929D01*
X293963Y269300D01*
X293307Y269431D01*
D02*
G37*
G36*
X287402Y269431D02*
X286746Y269300D01*
X286190Y268929D01*
X285818Y268373D01*
X285687Y267717D01*
X285818Y267061D01*
X286190Y266505D01*
X286746Y266133D01*
X287402Y266002D01*
X288057Y266133D01*
X288614Y266505D01*
X288985Y267061D01*
X289116Y267717D01*
X288985Y268373D01*
X288614Y268929D01*
X288057Y269300D01*
X287402Y269431D01*
D02*
G37*
G36*
X281496D02*
X280840Y269300D01*
X280284Y268929D01*
X279912Y268373D01*
X279782Y267717D01*
X279912Y267061D01*
X280284Y266505D01*
X280840Y266133D01*
X281496Y266002D01*
X282152Y266133D01*
X282708Y266505D01*
X283080Y267061D01*
X283210Y267717D01*
X283080Y268373D01*
X282708Y268929D01*
X282152Y269300D01*
X281496Y269431D01*
D02*
G37*
G36*
X220119Y265627D02*
X213980D01*
Y262429D01*
X216748D01*
X217627Y262545D01*
X218447Y262884D01*
X219150Y263424D01*
X219690Y264128D01*
X220030Y264947D01*
X220119Y265627D01*
D02*
G37*
G36*
X213580D02*
X207440D01*
X207529Y264947D01*
X207869Y264128D01*
X208409Y263424D01*
X209112Y262884D01*
X209932Y262545D01*
X210811Y262429D01*
X213580D01*
Y265627D01*
D02*
G37*
G36*
X293307Y263525D02*
X292651Y263395D01*
X292095Y263023D01*
X291723Y262467D01*
X291593Y261811D01*
X291723Y261155D01*
X292095Y260599D01*
X292651Y260227D01*
X293307Y260097D01*
X293963Y260227D01*
X294519Y260599D01*
X294891Y261155D01*
X295021Y261811D01*
X294891Y262467D01*
X294519Y263023D01*
X293963Y263395D01*
X293307Y263525D01*
D02*
G37*
G36*
X287402Y263525D02*
X286746Y263395D01*
X286190Y263023D01*
X285818Y262467D01*
X285687Y261811D01*
X285818Y261155D01*
X286190Y260599D01*
X286746Y260227D01*
X287402Y260097D01*
X288057Y260227D01*
X288614Y260599D01*
X288985Y261155D01*
X289116Y261811D01*
X288985Y262467D01*
X288614Y263023D01*
X288057Y263395D01*
X287402Y263525D01*
D02*
G37*
G36*
X281496D02*
X280840Y263395D01*
X280284Y263023D01*
X279912Y262467D01*
X279782Y261811D01*
X279912Y261155D01*
X280284Y260599D01*
X280840Y260227D01*
X281496Y260097D01*
X282152Y260227D01*
X282708Y260599D01*
X283080Y261155D01*
X283210Y261811D01*
X283080Y262467D01*
X282708Y263023D01*
X282152Y263395D01*
X281496Y263525D01*
D02*
G37*
G36*
X18565Y272479D02*
X11828D01*
Y259805D01*
X18565D01*
Y272479D01*
D02*
G37*
G36*
X38594Y265942D02*
X35397D01*
Y259802D01*
X36076Y259891D01*
X36896Y260231D01*
X37599Y260771D01*
X38139Y261474D01*
X38479Y262294D01*
X38594Y263173D01*
Y265942D01*
D02*
G37*
G36*
X34997D02*
X31799D01*
Y263173D01*
X31915Y262294D01*
X32254Y261474D01*
X32794Y260771D01*
X33498Y260231D01*
X34317Y259891D01*
X34997Y259802D01*
Y265942D01*
D02*
G37*
G36*
X45197Y272508D02*
X44317Y272392D01*
X43498Y272053D01*
X42794Y271513D01*
X42254Y270809D01*
X41915Y269990D01*
X41799Y269110D01*
Y263173D01*
X41915Y262294D01*
X42254Y261474D01*
X42794Y260771D01*
X43498Y260231D01*
X44317Y259891D01*
X45197Y259776D01*
X46076Y259891D01*
X46896Y260231D01*
X47599Y260771D01*
X48139Y261474D01*
X48479Y262294D01*
X48594Y263173D01*
Y269110D01*
X48479Y269990D01*
X48139Y270809D01*
X47599Y271513D01*
X46896Y272053D01*
X46076Y272392D01*
X45197Y272508D01*
D02*
G37*
G36*
X25197D02*
X24317Y272392D01*
X23498Y272053D01*
X22794Y271513D01*
X22254Y270809D01*
X21915Y269990D01*
X21799Y269110D01*
Y263173D01*
X21915Y262294D01*
X22254Y261474D01*
X22794Y260771D01*
X23498Y260231D01*
X24317Y259891D01*
X25197Y259776D01*
X26076Y259891D01*
X26896Y260231D01*
X27599Y260771D01*
X28139Y261474D01*
X28479Y262294D01*
X28594Y263173D01*
Y269110D01*
X28479Y269990D01*
X28139Y270809D01*
X27599Y271513D01*
X26896Y272053D01*
X26076Y272392D01*
X25197Y272508D01*
D02*
G37*
G36*
X238189Y262738D02*
X237533Y262607D01*
X236977Y262236D01*
X236605Y261680D01*
X236475Y261024D01*
X236605Y260368D01*
X236977Y259812D01*
X237533Y259440D01*
X238189Y259310D01*
X238845Y259440D01*
X239401Y259812D01*
X239773Y260368D01*
X239903Y261024D01*
X239773Y261680D01*
X239401Y262236D01*
X238845Y262607D01*
X238189Y262738D01*
D02*
G37*
G36*
X156299Y262049D02*
X155643Y261918D01*
X155087Y261547D01*
X154716Y260991D01*
X154585Y260335D01*
X154634Y260087D01*
X154622Y260059D01*
X154591Y260000D01*
X154552Y259938D01*
X154504Y259874D01*
X154447Y259806D01*
X154374Y259728D01*
X154360Y259693D01*
X150532Y255865D01*
X150333Y255568D01*
X150264Y255217D01*
Y232972D01*
X150333Y232621D01*
X150532Y232324D01*
X161250Y221606D01*
X161263Y221571D01*
X161337Y221493D01*
X161394Y221426D01*
X161442Y221361D01*
X161481Y221299D01*
X161512Y221240D01*
X161524Y221212D01*
X161475Y220965D01*
X161605Y220309D01*
X161977Y219753D01*
X162533Y219381D01*
X163189Y219250D01*
X163845Y219381D01*
X164401Y219753D01*
X164772Y220309D01*
X164903Y220965D01*
X164772Y221620D01*
X164401Y222177D01*
X163845Y222548D01*
X163189Y222679D01*
X162941Y222629D01*
X162913Y222641D01*
X162854Y222673D01*
X162793Y222712D01*
X162728Y222760D01*
X162661Y222816D01*
X162583Y222890D01*
X162548Y222903D01*
X152099Y233352D01*
Y254837D01*
X155658Y258396D01*
X155693Y258409D01*
X155771Y258483D01*
X155838Y258540D01*
X155903Y258587D01*
X155965Y258627D01*
X156024Y258658D01*
X156051Y258670D01*
X156299Y258621D01*
X156955Y258751D01*
X157511Y259123D01*
X157883Y259679D01*
X158013Y260335D01*
X157883Y260991D01*
X157511Y261547D01*
X156955Y261918D01*
X156299Y262049D01*
D02*
G37*
G36*
X216748Y259224D02*
X210811D01*
X209932Y259109D01*
X209112Y258769D01*
X208409Y258229D01*
X207869Y257526D01*
X207529Y256706D01*
X207414Y255827D01*
X207529Y254947D01*
X207869Y254128D01*
X208409Y253424D01*
X209112Y252884D01*
X209932Y252545D01*
X210811Y252429D01*
X216748D01*
X217627Y252545D01*
X218447Y252884D01*
X219150Y253424D01*
X219690Y254128D01*
X220030Y254947D01*
X220146Y255827D01*
X220030Y256706D01*
X219690Y257526D01*
X219150Y258229D01*
X218447Y258769D01*
X217627Y259109D01*
X216748Y259224D01*
D02*
G37*
G36*
X35397Y257127D02*
Y250987D01*
X38594D01*
Y253756D01*
X38479Y254635D01*
X38139Y255455D01*
X37599Y256158D01*
X36896Y256698D01*
X36076Y257038D01*
X35397Y257127D01*
D02*
G37*
G36*
X34997D02*
X34317Y257038D01*
X33498Y256698D01*
X32794Y256158D01*
X32254Y255455D01*
X31915Y254635D01*
X31799Y253756D01*
Y250987D01*
X34997D01*
Y257127D01*
D02*
G37*
G36*
X18565Y257124D02*
X11828D01*
Y244450D01*
X18565D01*
Y257124D01*
D02*
G37*
G36*
X38594Y250587D02*
X35397D01*
Y244448D01*
X36076Y244537D01*
X36896Y244877D01*
X37599Y245416D01*
X38139Y246120D01*
X38479Y246939D01*
X38594Y247819D01*
Y250587D01*
D02*
G37*
G36*
X34997D02*
X31799D01*
Y247819D01*
X31915Y246939D01*
X32254Y246120D01*
X32794Y245416D01*
X33498Y244877D01*
X34317Y244537D01*
X34997Y244448D01*
Y250587D01*
D02*
G37*
G36*
X45197Y257154D02*
X44317Y257038D01*
X43498Y256698D01*
X42794Y256158D01*
X42254Y255455D01*
X41915Y254635D01*
X41799Y253756D01*
Y247819D01*
X41915Y246939D01*
X42254Y246120D01*
X42794Y245416D01*
X43498Y244877D01*
X44317Y244537D01*
X45197Y244421D01*
X46076Y244537D01*
X46896Y244877D01*
X47599Y245416D01*
X48139Y246120D01*
X48479Y246939D01*
X48594Y247819D01*
Y253756D01*
X48479Y254635D01*
X48139Y255455D01*
X47599Y256158D01*
X46896Y256698D01*
X46076Y257038D01*
X45197Y257154D01*
D02*
G37*
G36*
X25197D02*
X24317Y257038D01*
X23498Y256698D01*
X22794Y256158D01*
X22254Y255455D01*
X21915Y254635D01*
X21799Y253756D01*
Y247819D01*
X21915Y246939D01*
X22254Y246120D01*
X22794Y245416D01*
X23498Y244877D01*
X24317Y244537D01*
X25197Y244421D01*
X26076Y244537D01*
X26896Y244877D01*
X27599Y245416D01*
X28139Y246120D01*
X28479Y246939D01*
X28594Y247819D01*
Y253756D01*
X28479Y254635D01*
X28139Y255455D01*
X27599Y256158D01*
X26896Y256698D01*
X26076Y257038D01*
X25197Y257154D01*
D02*
G37*
G36*
X216748Y279224D02*
X210811D01*
X209932Y279109D01*
X209112Y278769D01*
X208409Y278229D01*
X207869Y277526D01*
X207529Y276706D01*
X207414Y275827D01*
X207529Y274947D01*
X207869Y274128D01*
X208409Y273424D01*
X209112Y272884D01*
X209932Y272545D01*
X210811Y272429D01*
X216748D01*
X217627Y272545D01*
X218447Y272884D01*
X218936Y273260D01*
X218939Y273258D01*
X219022Y273209D01*
X219127Y273131D01*
X219253Y273024D01*
X219401Y272882D01*
X219436Y272868D01*
X219469Y272836D01*
X219478Y272823D01*
X219482Y272823D01*
X221523Y270781D01*
Y224199D01*
X219108Y221784D01*
X208465D01*
X208113Y221714D01*
X207816Y221515D01*
X204075Y217774D01*
X203575Y217982D01*
Y241746D01*
X206738Y244909D01*
X206845D01*
X206880Y244894D01*
X207086Y244889D01*
X207255Y244876D01*
X207394Y244856D01*
X207502Y244831D01*
X207575Y244805D01*
X207592Y244796D01*
X207869Y244128D01*
X208409Y243424D01*
X209112Y242884D01*
X209932Y242545D01*
X210811Y242429D01*
X216748D01*
X217627Y242545D01*
X218447Y242884D01*
X219150Y243424D01*
X219690Y244128D01*
X220030Y244947D01*
X220146Y245827D01*
X220030Y246706D01*
X219690Y247526D01*
X219150Y248229D01*
X218447Y248769D01*
X217627Y249109D01*
X216748Y249224D01*
X210811D01*
X209932Y249109D01*
X209112Y248769D01*
X208409Y248229D01*
X207869Y247526D01*
X207592Y246857D01*
X207575Y246848D01*
X207502Y246822D01*
X207394Y246797D01*
X207255Y246777D01*
X207086Y246764D01*
X206880Y246760D01*
X206845Y246744D01*
X206358D01*
X206007Y246674D01*
X205709Y246476D01*
X202009Y242775D01*
X201810Y242477D01*
X201740Y242126D01*
Y174691D01*
X185939Y158890D01*
X181890D01*
X181539Y158820D01*
X181241Y158621D01*
X176490Y153870D01*
X170974D01*
X170974Y153870D01*
X165604D01*
X165570Y153886D01*
X165463Y153888D01*
X165375Y153896D01*
X165295Y153908D01*
X165224Y153924D01*
X165160Y153943D01*
X165132Y153955D01*
X164991Y154165D01*
X164825Y154276D01*
Y154877D01*
X164991Y154989D01*
X165363Y155545D01*
X165494Y156201D01*
X165363Y156857D01*
X164991Y157413D01*
X164436Y157784D01*
X163779Y157915D01*
X163124Y157784D01*
X162567Y157413D01*
X162389Y157145D01*
X162382Y157144D01*
X162313Y157134D01*
X162114Y157120D01*
X161996Y157118D01*
X161925Y157088D01*
X161652Y157033D01*
X161354Y156834D01*
X160768Y156249D01*
X160570Y155951D01*
X160500Y155600D01*
Y147539D01*
X160570Y147188D01*
X160768Y146890D01*
X161654Y146005D01*
X161952Y145806D01*
X162303Y145736D01*
X177716D01*
X178067Y145806D01*
X178365Y146005D01*
X183275Y150915D01*
X184259D01*
X184610Y150985D01*
X184908Y151183D01*
X214447Y180722D01*
X214646Y181020D01*
X214715Y181371D01*
Y211828D01*
X214731Y211863D01*
X214735Y212042D01*
X214748Y212184D01*
X214767Y212299D01*
X214789Y212384D01*
X214811Y212439D01*
X214816Y212447D01*
X216766D01*
X217646Y212563D01*
X218465Y212902D01*
X219169Y213442D01*
X219709Y214146D01*
X220048Y214965D01*
X220164Y215845D01*
X220048Y216724D01*
X219709Y217544D01*
X219169Y218247D01*
X218465Y218787D01*
X217646Y219127D01*
X216766Y219242D01*
X210829D01*
X209950Y219127D01*
X209131Y218787D01*
X208427Y218247D01*
X207887Y217544D01*
X207547Y216724D01*
X207432Y215845D01*
X207547Y214965D01*
X207887Y214146D01*
X208427Y213442D01*
X209131Y212902D01*
X209950Y212563D01*
X210829Y212447D01*
X212779D01*
X212784Y212439D01*
X212806Y212384D01*
X212829Y212299D01*
X212848Y212184D01*
X212860Y212042D01*
X212865Y211863D01*
X212880Y211828D01*
Y181751D01*
X205907Y174778D01*
X205445Y174970D01*
Y216549D01*
X208845Y219949D01*
X219488D01*
X219839Y220018D01*
X220137Y220217D01*
X223090Y223170D01*
X223289Y223468D01*
X223359Y223819D01*
Y271161D01*
X223289Y271513D01*
X223090Y271810D01*
X220556Y274344D01*
X220542Y274379D01*
X220396Y274533D01*
X220279Y274668D01*
X220186Y274790D01*
X220117Y274897D01*
X220071Y274986D01*
X220045Y275054D01*
X220044Y275057D01*
X220146Y275827D01*
X220030Y276706D01*
X219690Y277526D01*
X219150Y278229D01*
X218447Y278769D01*
X217627Y279109D01*
X216748Y279224D01*
D02*
G37*
G36*
X76575Y243545D02*
X75919Y243414D01*
X75363Y243043D01*
X74991Y242487D01*
X74861Y241831D01*
X74991Y241175D01*
X75363Y240619D01*
X75919Y240247D01*
X76575Y240117D01*
X77231Y240247D01*
X77787Y240619D01*
X78158Y241175D01*
X78289Y241831D01*
X78158Y242487D01*
X77787Y243043D01*
X77231Y243414D01*
X76575Y243545D01*
D02*
G37*
G36*
X116142Y242265D02*
X115486Y242135D01*
X114930Y241763D01*
X114558Y241207D01*
X114428Y240551D01*
X114558Y239895D01*
X114930Y239339D01*
X115486Y238968D01*
X116142Y238837D01*
X116798Y238968D01*
X117354Y239339D01*
X117725Y239895D01*
X117856Y240551D01*
X117725Y241207D01*
X117354Y241763D01*
X116798Y242135D01*
X116142Y242265D01*
D02*
G37*
G36*
X165354Y241970D02*
X164698Y241840D01*
X164142Y241468D01*
X163771Y240912D01*
X163640Y240256D01*
X163771Y239600D01*
X164142Y239044D01*
X164698Y238672D01*
X165354Y238542D01*
X166010Y238672D01*
X166566Y239044D01*
X166938Y239600D01*
X167068Y240256D01*
X166938Y240912D01*
X166566Y241468D01*
X166010Y241840D01*
X165354Y241970D01*
D02*
G37*
G36*
X101575Y241084D02*
X100919Y240954D01*
X100363Y240582D01*
X99991Y240026D01*
X99861Y239370D01*
X99991Y238714D01*
X100363Y238158D01*
X100919Y237787D01*
X101575Y237656D01*
X102231Y237787D01*
X102787Y238158D01*
X103158Y238714D01*
X103289Y239370D01*
X103158Y240026D01*
X102787Y240582D01*
X102231Y240954D01*
X101575Y241084D01*
D02*
G37*
G36*
X216766Y239243D02*
X210829D01*
X209950Y239127D01*
X209131Y238788D01*
X208427Y238248D01*
X207887Y237544D01*
X207547Y236725D01*
X207432Y235846D01*
X207547Y234966D01*
X207887Y234147D01*
X208427Y233443D01*
X209131Y232903D01*
X209950Y232564D01*
X210829Y232448D01*
X216766D01*
X217646Y232564D01*
X218465Y232903D01*
X219169Y233443D01*
X219709Y234147D01*
X220048Y234966D01*
X220164Y235846D01*
X220048Y236725D01*
X219709Y237544D01*
X219169Y238248D01*
X218465Y238788D01*
X217646Y239127D01*
X216766Y239243D01*
D02*
G37*
G36*
X35197Y305185D02*
X34317Y305069D01*
X33498Y304730D01*
X32794Y304190D01*
X32254Y303486D01*
X31915Y302667D01*
X31799Y301787D01*
Y295850D01*
X31915Y294971D01*
X32254Y294152D01*
X32794Y293448D01*
X33498Y292908D01*
X34166Y292631D01*
X34175Y292615D01*
X34201Y292541D01*
X34226Y292434D01*
X34246Y292294D01*
X34259Y292125D01*
X34264Y291919D01*
X34279Y291884D01*
Y282126D01*
X34349Y281775D01*
X34548Y281477D01*
X39240Y276785D01*
Y236404D01*
X32433Y229596D01*
X32398Y229583D01*
X32320Y229509D01*
X32252Y229453D01*
X32188Y229405D01*
X32126Y229366D01*
X32067Y229334D01*
X32039Y229322D01*
X31791Y229372D01*
X31135Y229241D01*
X30579Y228870D01*
X30208Y228313D01*
X30077Y227658D01*
X30208Y227002D01*
X30579Y226446D01*
X31135Y226074D01*
X31791Y225943D01*
X32447Y226074D01*
X33003Y226446D01*
X33375Y227002D01*
X33505Y227658D01*
X33456Y227905D01*
X33468Y227933D01*
X33499Y227992D01*
X33539Y228054D01*
X33586Y228119D01*
X33643Y228186D01*
X33717Y228264D01*
X33730Y228299D01*
X40806Y235375D01*
X41005Y235672D01*
X41075Y236024D01*
Y277165D01*
X41005Y277517D01*
X40806Y277814D01*
X36114Y282506D01*
Y291884D01*
X36130Y291919D01*
X36134Y292125D01*
X36147Y292294D01*
X36167Y292434D01*
X36193Y292541D01*
X36219Y292615D01*
X36227Y292631D01*
X36896Y292908D01*
X37599Y293448D01*
X38139Y294152D01*
X38479Y294971D01*
X38594Y295850D01*
Y301787D01*
X38479Y302667D01*
X38139Y303486D01*
X37599Y304190D01*
X36896Y304730D01*
X36076Y305069D01*
X35197Y305185D01*
D02*
G37*
G36*
X216766Y229228D02*
X210829D01*
X209950Y229113D01*
X209131Y228773D01*
X208427Y228233D01*
X207887Y227530D01*
X207547Y226710D01*
X207432Y225831D01*
X207547Y224952D01*
X207887Y224132D01*
X208427Y223429D01*
X209131Y222888D01*
X209950Y222549D01*
X210829Y222433D01*
X216766D01*
X217646Y222549D01*
X218465Y222888D01*
X219169Y223429D01*
X219709Y224132D01*
X220048Y224952D01*
X220164Y225831D01*
X220048Y226710D01*
X219709Y227530D01*
X219169Y228233D01*
X218465Y228773D01*
X217646Y229113D01*
X216766Y229228D01*
D02*
G37*
G36*
X178740Y218053D02*
X178084Y217922D01*
X177528Y217551D01*
X177157Y216995D01*
X177026Y216339D01*
X177157Y215683D01*
X177528Y215127D01*
X178084Y214755D01*
X178740Y214625D01*
X179396Y214755D01*
X179952Y215127D01*
X180324Y215683D01*
X180454Y216339D01*
X180324Y216995D01*
X179952Y217551D01*
X179396Y217922D01*
X178740Y218053D01*
D02*
G37*
G36*
X245079Y216281D02*
X244423Y216150D01*
X243867Y215779D01*
X243495Y215223D01*
X243365Y214567D01*
X243495Y213911D01*
X243867Y213355D01*
X244423Y212983D01*
X245079Y212853D01*
X245735Y212983D01*
X246291Y213355D01*
X246662Y213911D01*
X246793Y214567D01*
X246662Y215223D01*
X246291Y215779D01*
X245735Y216150D01*
X245079Y216281D01*
D02*
G37*
G36*
X240158D02*
X239502Y216150D01*
X238946Y215779D01*
X238574Y215223D01*
X238443Y214567D01*
X238574Y213911D01*
X238946Y213355D01*
X239502Y212983D01*
X240158Y212853D01*
X240813Y212983D01*
X241370Y213355D01*
X241741Y213911D01*
X241872Y214567D01*
X241741Y215223D01*
X241370Y215779D01*
X240813Y216150D01*
X240158Y216281D01*
D02*
G37*
G36*
X235236D02*
X234580Y216150D01*
X234024Y215779D01*
X233653Y215223D01*
X233522Y214567D01*
X233653Y213911D01*
X234024Y213355D01*
X234580Y212983D01*
X235236Y212853D01*
X235892Y212983D01*
X236448Y213355D01*
X236820Y213911D01*
X236950Y214567D01*
X236820Y215223D01*
X236448Y215779D01*
X235892Y216150D01*
X235236Y216281D01*
D02*
G37*
G36*
X230315D02*
X229659Y216150D01*
X229103Y215779D01*
X228731Y215223D01*
X228601Y214567D01*
X228731Y213911D01*
X229103Y213355D01*
X229659Y212983D01*
X230315Y212853D01*
X230971Y212983D01*
X231527Y213355D01*
X231898Y213911D01*
X232029Y214567D01*
X231898Y215223D01*
X231527Y215779D01*
X230971Y216150D01*
X230315Y216281D01*
D02*
G37*
G36*
X245079Y211360D02*
X244423Y211229D01*
X243867Y210858D01*
X243495Y210302D01*
X243365Y209646D01*
X243495Y208990D01*
X243867Y208434D01*
X244423Y208062D01*
X245079Y207932D01*
X245735Y208062D01*
X246291Y208434D01*
X246662Y208990D01*
X246793Y209646D01*
X246662Y210302D01*
X246291Y210858D01*
X245735Y211229D01*
X245079Y211360D01*
D02*
G37*
G36*
X240158D02*
X239502Y211229D01*
X238946Y210858D01*
X238574Y210302D01*
X238443Y209646D01*
X238574Y208990D01*
X238946Y208434D01*
X239502Y208062D01*
X240158Y207932D01*
X240813Y208062D01*
X241370Y208434D01*
X241741Y208990D01*
X241872Y209646D01*
X241741Y210302D01*
X241370Y210858D01*
X240813Y211229D01*
X240158Y211360D01*
D02*
G37*
G36*
X235236D02*
X234580Y211229D01*
X234024Y210858D01*
X233653Y210302D01*
X233522Y209646D01*
X233653Y208990D01*
X234024Y208434D01*
X234580Y208062D01*
X235236Y207932D01*
X235892Y208062D01*
X236448Y208434D01*
X236820Y208990D01*
X236950Y209646D01*
X236820Y210302D01*
X236448Y210858D01*
X235892Y211229D01*
X235236Y211360D01*
D02*
G37*
G36*
X230315D02*
X229659Y211229D01*
X229103Y210858D01*
X228731Y210302D01*
X228601Y209646D01*
X228731Y208990D01*
X229103Y208434D01*
X229659Y208062D01*
X230315Y207932D01*
X230971Y208062D01*
X231527Y208434D01*
X231898Y208990D01*
X232029Y209646D01*
X231898Y210302D01*
X231527Y210858D01*
X230971Y211229D01*
X230315Y211360D01*
D02*
G37*
G36*
X55118D02*
X54462Y211229D01*
X53906Y210858D01*
X53535Y210302D01*
X53404Y209646D01*
X53535Y208990D01*
X53906Y208434D01*
X54462Y208062D01*
X55118Y207932D01*
X55774Y208062D01*
X56330Y208434D01*
X56702Y208990D01*
X56832Y209646D01*
X56702Y210302D01*
X56330Y210858D01*
X55774Y211229D01*
X55118Y211360D01*
D02*
G37*
G36*
X245079Y206438D02*
X244423Y206308D01*
X243867Y205936D01*
X243495Y205380D01*
X243365Y204724D01*
X243495Y204068D01*
X243867Y203512D01*
X244423Y203141D01*
X245079Y203010D01*
X245735Y203141D01*
X246291Y203512D01*
X246662Y204068D01*
X246793Y204724D01*
X246662Y205380D01*
X246291Y205936D01*
X245735Y206308D01*
X245079Y206438D01*
D02*
G37*
G36*
X240158D02*
X239502Y206308D01*
X238946Y205936D01*
X238574Y205380D01*
X238443Y204724D01*
X238574Y204068D01*
X238946Y203512D01*
X239502Y203141D01*
X240158Y203010D01*
X240813Y203141D01*
X241370Y203512D01*
X241741Y204068D01*
X241872Y204724D01*
X241741Y205380D01*
X241370Y205936D01*
X240813Y206308D01*
X240158Y206438D01*
D02*
G37*
G36*
X235236D02*
X234580Y206308D01*
X234024Y205936D01*
X233653Y205380D01*
X233522Y204724D01*
X233653Y204068D01*
X234024Y203512D01*
X234580Y203141D01*
X235236Y203010D01*
X235892Y203141D01*
X236448Y203512D01*
X236820Y204068D01*
X236950Y204724D01*
X236820Y205380D01*
X236448Y205936D01*
X235892Y206308D01*
X235236Y206438D01*
D02*
G37*
G36*
X230315D02*
X229659Y206308D01*
X229103Y205936D01*
X228731Y205380D01*
X228601Y204724D01*
X228731Y204068D01*
X229103Y203512D01*
X229659Y203141D01*
X230315Y203010D01*
X230971Y203141D01*
X231527Y203512D01*
X231898Y204068D01*
X232029Y204724D01*
X231898Y205380D01*
X231527Y205936D01*
X230971Y206308D01*
X230315Y206438D01*
D02*
G37*
G36*
X62608Y205454D02*
X61953Y205324D01*
X61396Y204952D01*
X61025Y204396D01*
X60895Y203740D01*
X61025Y203084D01*
X61396Y202528D01*
X61953Y202157D01*
X62608Y202026D01*
X63264Y202157D01*
X63820Y202528D01*
X64192Y203084D01*
X64323Y203740D01*
X64192Y204396D01*
X63820Y204952D01*
X63264Y205324D01*
X62608Y205454D01*
D02*
G37*
G36*
X245079Y201517D02*
X244423Y201387D01*
X243867Y201015D01*
X243495Y200459D01*
X243365Y199803D01*
X243495Y199147D01*
X243867Y198591D01*
X244423Y198220D01*
X245079Y198089D01*
X245735Y198220D01*
X246291Y198591D01*
X246662Y199147D01*
X246793Y199803D01*
X246662Y200459D01*
X246291Y201015D01*
X245735Y201387D01*
X245079Y201517D01*
D02*
G37*
G36*
X240158D02*
X239502Y201387D01*
X238946Y201015D01*
X238574Y200459D01*
X238443Y199803D01*
X238574Y199147D01*
X238946Y198591D01*
X239502Y198220D01*
X240158Y198089D01*
X240813Y198220D01*
X241370Y198591D01*
X241741Y199147D01*
X241872Y199803D01*
X241741Y200459D01*
X241370Y201015D01*
X240813Y201387D01*
X240158Y201517D01*
D02*
G37*
G36*
X235236D02*
X234580Y201387D01*
X234024Y201015D01*
X233653Y200459D01*
X233522Y199803D01*
X233653Y199147D01*
X234024Y198591D01*
X234580Y198220D01*
X235236Y198089D01*
X235892Y198220D01*
X236448Y198591D01*
X236820Y199147D01*
X236950Y199803D01*
X236820Y200459D01*
X236448Y201015D01*
X235892Y201387D01*
X235236Y201517D01*
D02*
G37*
G36*
X230315D02*
X229659Y201387D01*
X229103Y201015D01*
X228731Y200459D01*
X228601Y199803D01*
X228731Y199147D01*
X229103Y198591D01*
X229659Y198220D01*
X230315Y198089D01*
X230971Y198220D01*
X231527Y198591D01*
X231898Y199147D01*
X232029Y199803D01*
X231898Y200459D01*
X231527Y201015D01*
X230971Y201387D01*
X230315Y201517D01*
D02*
G37*
G36*
X182480Y198761D02*
X181824Y198631D01*
X181268Y198259D01*
X180897Y197703D01*
X180766Y197047D01*
X180897Y196391D01*
X181268Y195835D01*
X181824Y195464D01*
X182480Y195333D01*
X183136Y195464D01*
X183692Y195835D01*
X184064Y196391D01*
X184194Y197047D01*
X184064Y197703D01*
X183692Y198259D01*
X183136Y198631D01*
X182480Y198761D01*
D02*
G37*
G36*
X245079Y196596D02*
X244423Y196466D01*
X243867Y196094D01*
X243495Y195538D01*
X243365Y194882D01*
X243495Y194226D01*
X243867Y193670D01*
X244423Y193298D01*
X245079Y193168D01*
X245735Y193298D01*
X246291Y193670D01*
X246662Y194226D01*
X246793Y194882D01*
X246662Y195538D01*
X246291Y196094D01*
X245735Y196466D01*
X245079Y196596D01*
D02*
G37*
G36*
X240158D02*
X239502Y196466D01*
X238946Y196094D01*
X238574Y195538D01*
X238443Y194882D01*
X238574Y194226D01*
X238946Y193670D01*
X239502Y193298D01*
X240158Y193168D01*
X240813Y193298D01*
X241370Y193670D01*
X241741Y194226D01*
X241872Y194882D01*
X241741Y195538D01*
X241370Y196094D01*
X240813Y196466D01*
X240158Y196596D01*
D02*
G37*
G36*
X235236D02*
X234580Y196466D01*
X234024Y196094D01*
X233653Y195538D01*
X233522Y194882D01*
X233653Y194226D01*
X234024Y193670D01*
X234580Y193298D01*
X235236Y193168D01*
X235892Y193298D01*
X236448Y193670D01*
X236820Y194226D01*
X236950Y194882D01*
X236820Y195538D01*
X236448Y196094D01*
X235892Y196466D01*
X235236Y196596D01*
D02*
G37*
G36*
X230315D02*
X229659Y196466D01*
X229103Y196094D01*
X228731Y195538D01*
X228601Y194882D01*
X228731Y194226D01*
X229103Y193670D01*
X229659Y193298D01*
X230315Y193168D01*
X230971Y193298D01*
X231527Y193670D01*
X231898Y194226D01*
X232029Y194882D01*
X231898Y195538D01*
X231527Y196094D01*
X230971Y196466D01*
X230315Y196596D01*
D02*
G37*
G36*
X59153Y194627D02*
X58498Y194497D01*
X57942Y194125D01*
X57570Y193569D01*
X57440Y192913D01*
X57570Y192257D01*
X57942Y191701D01*
X58498Y191330D01*
X59153Y191199D01*
X59809Y191330D01*
X60365Y191701D01*
X60737Y192257D01*
X60868Y192913D01*
X60737Y193569D01*
X60365Y194125D01*
X59809Y194497D01*
X59153Y194627D01*
D02*
G37*
G36*
X41339Y199746D02*
X40683Y199615D01*
X40127Y199243D01*
X39755Y198687D01*
X39625Y198031D01*
X39755Y197376D01*
X40127Y196819D01*
X40683Y196448D01*
X41339Y196318D01*
X41755Y196400D01*
X41768Y196395D01*
X41821Y196370D01*
X41879Y196335D01*
X41940Y196292D01*
X42005Y196238D01*
X42083Y196165D01*
X42105Y196157D01*
X42116Y196137D01*
X42139Y196131D01*
X46837Y191432D01*
X46850Y191397D01*
X46926Y191319D01*
X46986Y191249D01*
X47038Y191181D01*
X47083Y191115D01*
X47120Y191052D01*
X47124Y191044D01*
X47105Y190945D01*
X47235Y190289D01*
X47607Y189733D01*
X48163Y189361D01*
X48819Y189231D01*
X49475Y189361D01*
X50031Y189733D01*
X50402Y190289D01*
X50533Y190945D01*
X50402Y191601D01*
X50031Y192157D01*
X49475Y192528D01*
X48819Y192659D01*
X48403Y192576D01*
X48389Y192581D01*
X48336Y192607D01*
X48279Y192641D01*
X48217Y192685D01*
X48152Y192738D01*
X48074Y192812D01*
X48053Y192820D01*
X48041Y192840D01*
X48019Y192846D01*
X43321Y197544D01*
X43307Y197579D01*
X43232Y197658D01*
X43172Y197728D01*
X43119Y197795D01*
X43075Y197861D01*
X43037Y197924D01*
X43033Y197933D01*
X43053Y198031D01*
X42922Y198687D01*
X42551Y199243D01*
X41995Y199615D01*
X41339Y199746D01*
D02*
G37*
G36*
X182185Y186556D02*
X181529Y186426D01*
X180973Y186055D01*
X180602Y185498D01*
X180471Y184843D01*
X180602Y184187D01*
X180973Y183631D01*
X181529Y183259D01*
X182185Y183128D01*
X182841Y183259D01*
X183397Y183631D01*
X183769Y184187D01*
X183899Y184843D01*
X183769Y185498D01*
X183397Y186055D01*
X182841Y186426D01*
X182185Y186556D01*
D02*
G37*
G36*
X52658Y177895D02*
X52002Y177765D01*
X51446Y177393D01*
X51074Y176837D01*
X50943Y176181D01*
X51074Y175525D01*
X51446Y174969D01*
X52002Y174598D01*
X52658Y174467D01*
X53313Y174598D01*
X53869Y174969D01*
X54241Y175525D01*
X54372Y176181D01*
X54241Y176837D01*
X53869Y177393D01*
X53313Y177765D01*
X52658Y177895D01*
D02*
G37*
G36*
X218504Y168249D02*
X217848Y168119D01*
X217292Y167747D01*
X216920Y167191D01*
X216790Y166535D01*
X216920Y165879D01*
X217292Y165323D01*
X217848Y164952D01*
X218504Y164821D01*
X219160Y164952D01*
X219716Y165323D01*
X220088Y165879D01*
X220218Y166535D01*
X220088Y167191D01*
X219716Y167747D01*
X219160Y168119D01*
X218504Y168249D01*
D02*
G37*
G36*
X52756Y170021D02*
X52100Y169891D01*
X51544Y169519D01*
X51172Y168963D01*
X51042Y168307D01*
X51172Y167651D01*
X51544Y167095D01*
X52100Y166724D01*
X52756Y166593D01*
X53412Y166724D01*
X53968Y167095D01*
X54108Y167305D01*
X54137Y167316D01*
X54200Y167336D01*
X54272Y167352D01*
X54351Y167364D01*
X54439Y167371D01*
X54546Y167374D01*
X54580Y167390D01*
X55919D01*
X64607Y158702D01*
X64905Y158503D01*
X65256Y158433D01*
X69632D01*
X69666Y158418D01*
X69774Y158415D01*
X69861Y158407D01*
X69941Y158395D01*
X70012Y158379D01*
X70076Y158360D01*
X70104Y158349D01*
X70245Y158138D01*
X70801Y157767D01*
X71457Y157636D01*
X72113Y157767D01*
X72669Y158138D01*
X73040Y158695D01*
X73171Y159350D01*
X73040Y160006D01*
X72669Y160562D01*
X72113Y160934D01*
X71457Y161064D01*
X70801Y160934D01*
X70245Y160562D01*
X70104Y160352D01*
X70076Y160341D01*
X70012Y160322D01*
X69941Y160306D01*
X69861Y160294D01*
X69774Y160286D01*
X69666Y160283D01*
X69632Y160268D01*
X65636D01*
X56948Y168956D01*
X56650Y169155D01*
X56299Y169225D01*
X54580D01*
X54546Y169240D01*
X54439Y169243D01*
X54351Y169250D01*
X54272Y169262D01*
X54200Y169278D01*
X54137Y169298D01*
X54108Y169309D01*
X53968Y169519D01*
X53412Y169891D01*
X52756Y170021D01*
D02*
G37*
G36*
X206299Y160375D02*
X205643Y160245D01*
X205087Y159873D01*
X204716Y159317D01*
X204585Y158661D01*
X204716Y158005D01*
X205087Y157449D01*
X205643Y157078D01*
X206299Y156947D01*
X206955Y157078D01*
X207511Y157449D01*
X207883Y158005D01*
X208013Y158661D01*
X207883Y159317D01*
X207511Y159873D01*
X206955Y160245D01*
X206299Y160375D01*
D02*
G37*
G36*
X13484Y148860D02*
X12828Y148729D01*
X12272Y148358D01*
X11901Y147802D01*
X11770Y147146D01*
X11901Y146490D01*
X12272Y145934D01*
X12828Y145562D01*
X13484Y145432D01*
X14140Y145562D01*
X14696Y145934D01*
X15068Y146490D01*
X15198Y147146D01*
X15068Y147802D01*
X14696Y148358D01*
X14140Y148729D01*
X13484Y148860D01*
D02*
G37*
G36*
X206693Y139903D02*
X206037Y139772D01*
X205481Y139401D01*
X205109Y138845D01*
X204979Y138189D01*
X205109Y137533D01*
X205481Y136977D01*
X206037Y136605D01*
X206693Y136475D01*
X207349Y136605D01*
X207905Y136977D01*
X208277Y137533D01*
X208407Y138189D01*
X208277Y138845D01*
X207905Y139401D01*
X207349Y139772D01*
X206693Y139903D01*
D02*
G37*
G36*
X191535Y145710D02*
X190879Y145580D01*
X190323Y145208D01*
X189952Y144652D01*
X189821Y143996D01*
X189937Y143417D01*
X189927Y143395D01*
X189897Y143342D01*
X189856Y143284D01*
X189804Y143220D01*
X189732Y143143D01*
X189719Y143108D01*
X189687Y143077D01*
X189675Y143068D01*
X189675Y143065D01*
X189320Y142709D01*
X189121Y142412D01*
X189051Y142060D01*
Y133950D01*
X189036Y133916D01*
X189033Y133809D01*
X189025Y133721D01*
X189013Y133642D01*
X188997Y133570D01*
X188978Y133506D01*
X188967Y133478D01*
X188757Y133338D01*
X188385Y132782D01*
X188254Y132126D01*
X188385Y131470D01*
X188757Y130914D01*
X189313Y130542D01*
X189969Y130412D01*
X190624Y130542D01*
X191181Y130914D01*
X191552Y131470D01*
X191683Y132126D01*
X191552Y132782D01*
X191181Y133338D01*
X190970Y133478D01*
X190959Y133506D01*
X190940Y133570D01*
X190924Y133642D01*
X190912Y133721D01*
X190904Y133809D01*
X190901Y133916D01*
X190886Y133950D01*
Y141680D01*
X191198Y141992D01*
X191234Y142006D01*
X191310Y142080D01*
X191460Y142207D01*
X191524Y142254D01*
X191581Y142291D01*
X192191Y142412D01*
X192747Y142784D01*
X193119Y143340D01*
X193249Y143996D01*
X193119Y144652D01*
X192747Y145208D01*
X192191Y145580D01*
X191535Y145710D01*
D02*
G37*
G36*
X218898Y132029D02*
X218242Y131898D01*
X217686Y131527D01*
X217314Y130971D01*
X217184Y130315D01*
X217314Y129659D01*
X217686Y129103D01*
X218242Y128731D01*
X218898Y128601D01*
X219554Y128731D01*
X220110Y129103D01*
X220481Y129659D01*
X220612Y130315D01*
X220481Y130971D01*
X220110Y131527D01*
X219554Y131898D01*
X218898Y132029D01*
D02*
G37*
G36*
X80315Y117068D02*
X79659Y116938D01*
X79103Y116566D01*
X78731Y116010D01*
X78601Y115354D01*
X78731Y114698D01*
X79103Y114142D01*
X79659Y113771D01*
X80315Y113640D01*
X80971Y113771D01*
X81527Y114142D01*
X81898Y114698D01*
X82029Y115354D01*
X81898Y116010D01*
X81527Y116566D01*
X80971Y116938D01*
X80315Y117068D01*
D02*
G37*
G36*
X35397Y111064D02*
Y104924D01*
X38594D01*
Y107693D01*
X38479Y108572D01*
X38139Y109392D01*
X37599Y110095D01*
X36896Y110635D01*
X36076Y110975D01*
X35397Y111064D01*
D02*
G37*
G36*
X34997D02*
X34317Y110975D01*
X33498Y110635D01*
X32794Y110095D01*
X32254Y109392D01*
X31915Y108572D01*
X31799Y107693D01*
Y104924D01*
X34997D01*
Y111064D01*
D02*
G37*
G36*
X18565Y111061D02*
X11828D01*
Y98387D01*
X18565D01*
Y111061D01*
D02*
G37*
G36*
X38594Y104524D02*
X35397D01*
Y98385D01*
X36076Y98474D01*
X36896Y98813D01*
X37599Y99353D01*
X38139Y100057D01*
X38479Y100876D01*
X38594Y101756D01*
Y104524D01*
D02*
G37*
G36*
X34997D02*
X31799D01*
Y101756D01*
X31915Y100876D01*
X32254Y100057D01*
X32794Y99353D01*
X33498Y98813D01*
X34317Y98474D01*
X34997Y98385D01*
Y104524D01*
D02*
G37*
G36*
X45197Y111091D02*
X44317Y110975D01*
X43498Y110635D01*
X42794Y110095D01*
X42254Y109392D01*
X41915Y108572D01*
X41799Y107693D01*
Y101756D01*
X41915Y100876D01*
X42254Y100057D01*
X42794Y99353D01*
X43498Y98813D01*
X44317Y98474D01*
X45197Y98358D01*
X46076Y98474D01*
X46896Y98813D01*
X47599Y99353D01*
X48139Y100057D01*
X48479Y100876D01*
X48594Y101756D01*
Y107693D01*
X48479Y108572D01*
X48139Y109392D01*
X47599Y110095D01*
X46896Y110635D01*
X46076Y110975D01*
X45197Y111091D01*
D02*
G37*
G36*
X25197D02*
X24317Y110975D01*
X23498Y110635D01*
X22794Y110095D01*
X22254Y109392D01*
X21915Y108572D01*
X21799Y107693D01*
Y101756D01*
X21915Y100876D01*
X22254Y100057D01*
X22794Y99353D01*
X23498Y98813D01*
X24317Y98474D01*
X25197Y98358D01*
X26076Y98474D01*
X26896Y98813D01*
X27599Y99353D01*
X28139Y100057D01*
X28479Y100876D01*
X28594Y101756D01*
Y107693D01*
X28479Y108572D01*
X28139Y109392D01*
X27599Y110095D01*
X26896Y110635D01*
X26076Y110975D01*
X25197Y111091D01*
D02*
G37*
G36*
X133054Y102993D02*
Y96854D01*
X136252D01*
Y99622D01*
X136136Y100501D01*
X135797Y101321D01*
X135257Y102024D01*
X134553Y102564D01*
X133734Y102904D01*
X133054Y102993D01*
D02*
G37*
G36*
X132654D02*
X131975Y102904D01*
X131156Y102564D01*
X130452Y102024D01*
X129912Y101321D01*
X129572Y100501D01*
X129457Y99622D01*
Y96854D01*
X132654D01*
Y102993D01*
D02*
G37*
G36*
X176223Y102991D02*
X169486D01*
Y90316D01*
X176223D01*
Y102991D01*
D02*
G37*
G36*
X132654Y96453D02*
X129457D01*
Y93685D01*
X129572Y92806D01*
X129912Y91986D01*
X130452Y91283D01*
X131156Y90743D01*
X131975Y90403D01*
X132654Y90314D01*
Y96453D01*
D02*
G37*
G36*
X136252D02*
X133054D01*
Y90314D01*
X133734Y90403D01*
X134553Y90743D01*
X135257Y91283D01*
X135797Y91986D01*
X136136Y92806D01*
X136252Y93685D01*
Y96453D01*
D02*
G37*
G36*
X152854Y103020D02*
X151975Y102904D01*
X151155Y102564D01*
X150452Y102024D01*
X149912Y101321D01*
X149573Y100501D01*
X149457Y99622D01*
Y93685D01*
X149573Y92806D01*
X149912Y91986D01*
X150452Y91283D01*
X151155Y90743D01*
X151975Y90403D01*
X152854Y90288D01*
X153734Y90403D01*
X154553Y90743D01*
X155257Y91283D01*
X155797Y91986D01*
X156136Y92806D01*
X156252Y93685D01*
Y99622D01*
X156136Y100501D01*
X155797Y101321D01*
X155257Y102024D01*
X154553Y102564D01*
X153734Y102904D01*
X152854Y103020D01*
D02*
G37*
G36*
X142854D02*
X141975Y102904D01*
X141156Y102564D01*
X140452Y102024D01*
X139912Y101321D01*
X139573Y100501D01*
X139457Y99622D01*
Y93685D01*
X139573Y92806D01*
X139912Y91986D01*
X140452Y91283D01*
X141156Y90743D01*
X141975Y90403D01*
X142854Y90288D01*
X143734Y90403D01*
X144553Y90743D01*
X145257Y91283D01*
X145797Y91986D01*
X146136Y92806D01*
X146252Y93685D01*
Y99622D01*
X146136Y100501D01*
X145797Y101321D01*
X145257Y102024D01*
X144553Y102564D01*
X143734Y102904D01*
X142854Y103020D01*
D02*
G37*
G36*
X90546Y89121D02*
X89890Y88990D01*
X89334Y88619D01*
X88963Y88063D01*
X88886Y87950D01*
X88483Y87783D01*
X88451Y87804D01*
X87795Y87934D01*
X87139Y87804D01*
X86583Y87432D01*
X86212Y86876D01*
X86081Y86221D01*
X86212Y85565D01*
X86583Y85009D01*
X87139Y84637D01*
X87795Y84506D01*
X88043Y84556D01*
X88071Y84544D01*
X88130Y84512D01*
X88192Y84473D01*
X88257Y84425D01*
X88324Y84369D01*
X88402Y84295D01*
X88437Y84281D01*
X92146Y80572D01*
X92444Y80373D01*
X92795Y80303D01*
X95511D01*
X95542Y80288D01*
X95760Y80278D01*
X95841Y80268D01*
X95920Y80254D01*
X95993Y80236D01*
X95993Y80236D01*
X96032Y80178D01*
X96588Y79806D01*
X97244Y79676D01*
X97900Y79806D01*
X98456Y80178D01*
X98828Y80734D01*
X98958Y81390D01*
X98828Y82046D01*
X98532Y82489D01*
X98486Y82821D01*
X98532Y83153D01*
X98828Y83596D01*
X98958Y84252D01*
X98828Y84908D01*
X98456Y85464D01*
X97900Y85835D01*
X97244Y85966D01*
X96588Y85835D01*
X96032Y85464D01*
X95892Y85254D01*
X95863Y85243D01*
X95800Y85223D01*
X95728Y85207D01*
X95649Y85195D01*
X95561Y85188D01*
X95454Y85185D01*
X95420Y85170D01*
X94081D01*
X92485Y86765D01*
X92472Y86800D01*
X92398Y86878D01*
X92341Y86946D01*
X92293Y87010D01*
X92254Y87072D01*
X92223Y87131D01*
X92211Y87159D01*
X92260Y87407D01*
X92130Y88063D01*
X91758Y88619D01*
X91202Y88990D01*
X90546Y89121D01*
D02*
G37*
G36*
X162854Y103020D02*
X161975Y102904D01*
X161155Y102564D01*
X160452Y102024D01*
X159912Y101321D01*
X159573Y100501D01*
X159457Y99622D01*
Y93685D01*
X159573Y92806D01*
X159912Y91986D01*
X160452Y91283D01*
X161155Y90743D01*
X161824Y90466D01*
X161833Y90449D01*
X161859Y90376D01*
X161884Y90268D01*
X161904Y90129D01*
X161917Y89960D01*
X161922Y89754D01*
X161937Y89719D01*
Y86561D01*
X155427Y80051D01*
X149856D01*
X149822Y80067D01*
X149715Y80070D01*
X149627Y80077D01*
X149547Y80089D01*
X149476Y80105D01*
X149412Y80124D01*
X149384Y80136D01*
X149243Y80346D01*
X148687Y80717D01*
X148031Y80848D01*
X147376Y80717D01*
X146819Y80346D01*
X146448Y79790D01*
X146318Y79134D01*
X146448Y78478D01*
X146819Y77922D01*
X147376Y77550D01*
X148031Y77420D01*
X148687Y77550D01*
X149243Y77922D01*
X149384Y78132D01*
X149412Y78143D01*
X149476Y78163D01*
X149547Y78179D01*
X149627Y78191D01*
X149715Y78198D01*
X149822Y78201D01*
X149856Y78216D01*
X155807D01*
X156158Y78286D01*
X156456Y78485D01*
X163503Y85532D01*
X163702Y85830D01*
X163772Y86181D01*
Y89719D01*
X163787Y89754D01*
X163792Y89960D01*
X163805Y90129D01*
X163825Y90268D01*
X163850Y90376D01*
X163876Y90449D01*
X163885Y90466D01*
X164553Y90743D01*
X165257Y91283D01*
X165797Y91986D01*
X166136Y92806D01*
X166252Y93685D01*
Y99622D01*
X166136Y100501D01*
X165797Y101321D01*
X165257Y102024D01*
X164553Y102564D01*
X163734Y102904D01*
X162854Y103020D01*
D02*
G37*
G36*
X64961Y76911D02*
X64305Y76780D01*
X63749Y76409D01*
X63377Y75853D01*
X63247Y75197D01*
X63377Y74541D01*
X63749Y73985D01*
X64305Y73613D01*
X64961Y73483D01*
X65617Y73613D01*
X66173Y73985D01*
X66544Y74541D01*
X66675Y75197D01*
X66544Y75853D01*
X66173Y76409D01*
X65617Y76780D01*
X64961Y76911D01*
D02*
G37*
G36*
X125787Y74155D02*
X125131Y74024D01*
X124575Y73653D01*
X124204Y73097D01*
X124073Y72441D01*
X124204Y71785D01*
X124575Y71229D01*
X125131Y70857D01*
X125787Y70727D01*
X126443Y70857D01*
X126999Y71229D01*
X127371Y71785D01*
X127501Y72441D01*
X127371Y73097D01*
X126999Y73653D01*
X126443Y74024D01*
X125787Y74155D01*
D02*
G37*
G36*
X74213Y45415D02*
X73557Y45284D01*
X73001Y44913D01*
X72629Y44357D01*
X72499Y43701D01*
X72629Y43045D01*
X73001Y42489D01*
X73557Y42117D01*
X74213Y41987D01*
X74869Y42117D01*
X75425Y42489D01*
X75621Y42783D01*
X83872D01*
X86287Y40368D01*
Y23425D01*
X86357Y23074D01*
X86556Y22776D01*
X90296Y19036D01*
X90594Y18837D01*
X90945Y18767D01*
X95393D01*
X95563Y18267D01*
X95098Y17910D01*
X94558Y17207D01*
X94218Y16387D01*
X94102Y15508D01*
Y9571D01*
X94218Y8692D01*
X94558Y7872D01*
X95098Y7168D01*
X95801Y6628D01*
X96621Y6289D01*
X97500Y6173D01*
X98379Y6289D01*
X99199Y6628D01*
X99902Y7168D01*
X100442Y7872D01*
X100782Y8692D01*
X100898Y9571D01*
Y11080D01*
X101398Y11287D01*
X101805Y11015D01*
X102461Y10884D01*
X103117Y11015D01*
X103602Y11339D01*
X103885Y11260D01*
X104102Y11130D01*
Y9571D01*
X104218Y8692D01*
X104558Y7872D01*
X105098Y7168D01*
X105801Y6628D01*
X106621Y6289D01*
X107500Y6173D01*
X108379Y6289D01*
X109199Y6628D01*
X109902Y7168D01*
X110442Y7872D01*
X110782Y8692D01*
X110898Y9571D01*
Y15508D01*
X110782Y16387D01*
X110442Y17207D01*
X109902Y17910D01*
X109199Y18450D01*
X108379Y18790D01*
X107500Y18905D01*
X106621Y18790D01*
X105801Y18450D01*
X105098Y17910D01*
X104558Y17207D01*
X104218Y16387D01*
X104102Y15508D01*
Y14388D01*
X104057Y14308D01*
X103952Y14191D01*
X103873Y14147D01*
X103602Y14093D01*
X103396Y14281D01*
X103393Y14389D01*
X103378Y14423D01*
Y16018D01*
X103308Y16369D01*
X103110Y16667D01*
X99443Y20334D01*
X99145Y20533D01*
X99114Y21049D01*
X99221Y21210D01*
X99352Y21866D01*
X99221Y22522D01*
X98850Y23078D01*
X98640Y23219D01*
X98628Y23247D01*
X98609Y23311D01*
X98593Y23382D01*
X98581Y23462D01*
X98573Y23549D01*
X98571Y23657D01*
X98555Y23691D01*
Y34856D01*
X104393Y40694D01*
X104823Y40609D01*
X105479Y40739D01*
X106035Y41111D01*
X106406Y41667D01*
X106537Y42323D01*
X106406Y42979D01*
X106035Y43535D01*
X105479Y43906D01*
X104823Y44037D01*
X104167Y43906D01*
X103611Y43535D01*
X103239Y42979D01*
X103109Y42323D01*
X103162Y42058D01*
X96989Y35885D01*
X96790Y35587D01*
X96720Y35236D01*
Y23691D01*
X96705Y23657D01*
X96702Y23549D01*
X96695Y23462D01*
X96683Y23382D01*
X96667Y23311D01*
X96647Y23247D01*
X96636Y23219D01*
X96426Y23078D01*
X96054Y22522D01*
X95924Y21866D01*
X96054Y21210D01*
X96126Y21103D01*
X95859Y20603D01*
X91325D01*
X88122Y23805D01*
Y40748D01*
X88052Y41099D01*
X87854Y41397D01*
X84901Y44350D01*
X84603Y44549D01*
X84252Y44618D01*
X75621D01*
X75425Y44913D01*
X74869Y45284D01*
X74213Y45415D01*
D02*
G37*
G36*
X53543Y41084D02*
X52887Y40954D01*
X52331Y40582D01*
X51960Y40026D01*
X51829Y39370D01*
X51960Y38714D01*
X52331Y38158D01*
X52887Y37786D01*
X53543Y37656D01*
X54199Y37786D01*
X54755Y38158D01*
X55127Y38714D01*
X55257Y39370D01*
X55127Y40026D01*
X54755Y40582D01*
X54199Y40954D01*
X53543Y41084D01*
D02*
G37*
G36*
X268975Y34369D02*
X256301D01*
Y27632D01*
X268975D01*
Y34369D01*
D02*
G37*
G36*
X253475D02*
X240801D01*
Y27632D01*
X253475D01*
Y34369D01*
D02*
G37*
G36*
X237975D02*
X225301D01*
Y27632D01*
X237975D01*
Y34369D01*
D02*
G37*
G36*
X222475D02*
X209801D01*
Y27632D01*
X222475D01*
Y34369D01*
D02*
G37*
G36*
X206975D02*
X194301D01*
Y27632D01*
X206975D01*
Y34369D01*
D02*
G37*
G36*
X191475D02*
X178801D01*
Y27632D01*
X191475D01*
Y34369D01*
D02*
G37*
G36*
X175975D02*
X163301D01*
Y27632D01*
X175975D01*
Y34369D01*
D02*
G37*
G36*
X160475D02*
X147801D01*
Y27632D01*
X160475D01*
Y34369D01*
D02*
G37*
G36*
X144975D02*
X132301D01*
Y27632D01*
X144975D01*
Y34369D01*
D02*
G37*
G36*
X81988Y40690D02*
X81332Y40560D01*
X80776Y40188D01*
X80405Y39632D01*
X80274Y38976D01*
X80405Y38320D01*
X80776Y37764D01*
X80972Y37633D01*
Y20866D01*
X81042Y20515D01*
X81241Y20217D01*
X83947Y17511D01*
X83961Y17476D01*
X84104Y17326D01*
X84214Y17198D01*
X84299Y17084D01*
X84359Y16988D01*
X84395Y16914D01*
X84410Y16867D01*
X84411Y16863D01*
X84398Y16844D01*
X84387Y16795D01*
X84218Y16387D01*
X84102Y15508D01*
Y9571D01*
X84218Y8692D01*
X84558Y7872D01*
X85098Y7168D01*
X85801Y6628D01*
X86621Y6289D01*
X87500Y6173D01*
X88379Y6289D01*
X89199Y6628D01*
X89902Y7168D01*
X90442Y7872D01*
X90782Y8692D01*
X90898Y9571D01*
Y15508D01*
X90782Y16387D01*
X90442Y17207D01*
X89902Y17910D01*
X89199Y18450D01*
X88379Y18790D01*
X87500Y18905D01*
X86621Y18790D01*
X85801Y18450D01*
X85766Y18423D01*
X85716Y18447D01*
X85626Y18502D01*
X85516Y18584D01*
X85389Y18693D01*
X85241Y18834D01*
X85234Y18837D01*
X85231Y18843D01*
X85199Y18855D01*
X82807Y21246D01*
Y23516D01*
X83307Y23784D01*
X83415Y23712D01*
X84071Y23581D01*
X84727Y23712D01*
X85283Y24083D01*
X85654Y24639D01*
X85785Y25295D01*
X85654Y25951D01*
X85283Y26507D01*
X84727Y26879D01*
X84071Y27009D01*
X83415Y26879D01*
X83307Y26807D01*
X82807Y27074D01*
Y37502D01*
X83200Y37764D01*
X83572Y38320D01*
X83702Y38976D01*
X83572Y39632D01*
X83200Y40188D01*
X82644Y40560D01*
X81988Y40690D01*
D02*
G37*
G36*
X107283Y23466D02*
X106628Y23336D01*
X106071Y22964D01*
X105700Y22408D01*
X105569Y21752D01*
X105700Y21096D01*
X106071Y20540D01*
X106628Y20168D01*
X107283Y20038D01*
X107939Y20168D01*
X108495Y20540D01*
X108867Y21096D01*
X108997Y21752D01*
X108867Y22408D01*
X108495Y22964D01*
X107939Y23336D01*
X107283Y23466D01*
D02*
G37*
G36*
X265606Y24398D02*
X259669D01*
X258790Y24282D01*
X257970Y23942D01*
X257267Y23402D01*
X256727Y22699D01*
X256387Y21879D01*
X256272Y21000D01*
X256387Y20121D01*
X256727Y19301D01*
X257267Y18598D01*
X257970Y18058D01*
X258790Y17718D01*
X259669Y17602D01*
X265606D01*
X266486Y17718D01*
X267305Y18058D01*
X268009Y18598D01*
X268549Y19301D01*
X268888Y20121D01*
X269004Y21000D01*
X268888Y21879D01*
X268549Y22699D01*
X268009Y23402D01*
X267305Y23942D01*
X266486Y24282D01*
X265606Y24398D01*
D02*
G37*
G36*
X250106D02*
X244169D01*
X243290Y24282D01*
X242471Y23942D01*
X241767Y23402D01*
X241227Y22699D01*
X240887Y21879D01*
X240772Y21000D01*
X240887Y20121D01*
X241227Y19301D01*
X241767Y18598D01*
X242471Y18058D01*
X243290Y17718D01*
X244169Y17602D01*
X250106D01*
X250986Y17718D01*
X251805Y18058D01*
X252509Y18598D01*
X253049Y19301D01*
X253388Y20121D01*
X253504Y21000D01*
X253388Y21879D01*
X253049Y22699D01*
X252509Y23402D01*
X251805Y23942D01*
X250986Y24282D01*
X250106Y24398D01*
D02*
G37*
G36*
X234606D02*
X228669D01*
X227790Y24282D01*
X226971Y23942D01*
X226267Y23402D01*
X225727Y22699D01*
X225388Y21879D01*
X225272Y21000D01*
X225388Y20121D01*
X225727Y19301D01*
X226267Y18598D01*
X226971Y18058D01*
X227790Y17718D01*
X228669Y17602D01*
X234606D01*
X235486Y17718D01*
X236305Y18058D01*
X237009Y18598D01*
X237549Y19301D01*
X237888Y20121D01*
X238004Y21000D01*
X237888Y21879D01*
X237549Y22699D01*
X237009Y23402D01*
X236305Y23942D01*
X235486Y24282D01*
X234606Y24398D01*
D02*
G37*
G36*
X219106D02*
X213169D01*
X212290Y24282D01*
X211471Y23942D01*
X210767Y23402D01*
X210227Y22699D01*
X209888Y21879D01*
X209772Y21000D01*
X209888Y20121D01*
X210227Y19301D01*
X210767Y18598D01*
X211471Y18058D01*
X212290Y17718D01*
X213169Y17602D01*
X219106D01*
X219986Y17718D01*
X220805Y18058D01*
X221509Y18598D01*
X222049Y19301D01*
X222388Y20121D01*
X222504Y21000D01*
X222388Y21879D01*
X222049Y22699D01*
X221509Y23402D01*
X220805Y23942D01*
X219986Y24282D01*
X219106Y24398D01*
D02*
G37*
G36*
X203606D02*
X197669D01*
X196790Y24282D01*
X195970Y23942D01*
X195267Y23402D01*
X194727Y22699D01*
X194387Y21879D01*
X194272Y21000D01*
X194387Y20121D01*
X194727Y19301D01*
X195267Y18598D01*
X195970Y18058D01*
X196790Y17718D01*
X197669Y17602D01*
X203606D01*
X204486Y17718D01*
X205305Y18058D01*
X206009Y18598D01*
X206549Y19301D01*
X206888Y20121D01*
X207004Y21000D01*
X206888Y21879D01*
X206549Y22699D01*
X206009Y23402D01*
X205305Y23942D01*
X204486Y24282D01*
X203606Y24398D01*
D02*
G37*
G36*
X188106D02*
X182169D01*
X181290Y24282D01*
X180471Y23942D01*
X179767Y23402D01*
X179227Y22699D01*
X178887Y21879D01*
X178772Y21000D01*
X178887Y20121D01*
X179227Y19301D01*
X179767Y18598D01*
X180471Y18058D01*
X181290Y17718D01*
X182169Y17602D01*
X188106D01*
X188986Y17718D01*
X189805Y18058D01*
X190509Y18598D01*
X191049Y19301D01*
X191388Y20121D01*
X191504Y21000D01*
X191388Y21879D01*
X191049Y22699D01*
X190509Y23402D01*
X189805Y23942D01*
X188986Y24282D01*
X188106Y24398D01*
D02*
G37*
G36*
X172606D02*
X166669D01*
X165790Y24282D01*
X164971Y23942D01*
X164267Y23402D01*
X163727Y22699D01*
X163388Y21879D01*
X163272Y21000D01*
X163388Y20121D01*
X163727Y19301D01*
X164267Y18598D01*
X164971Y18058D01*
X165790Y17718D01*
X166669Y17602D01*
X172606D01*
X173486Y17718D01*
X174305Y18058D01*
X175009Y18598D01*
X175549Y19301D01*
X175888Y20121D01*
X176004Y21000D01*
X175888Y21879D01*
X175549Y22699D01*
X175009Y23402D01*
X174305Y23942D01*
X173486Y24282D01*
X172606Y24398D01*
D02*
G37*
G36*
X157106D02*
X151169D01*
X150290Y24282D01*
X149470Y23942D01*
X148767Y23402D01*
X148227Y22699D01*
X147888Y21879D01*
X147772Y21000D01*
X147888Y20121D01*
X148227Y19301D01*
X148767Y18598D01*
X149470Y18058D01*
X150290Y17718D01*
X151169Y17602D01*
X157106D01*
X157986Y17718D01*
X158805Y18058D01*
X159509Y18598D01*
X160049Y19301D01*
X160388Y20121D01*
X160504Y21000D01*
X160388Y21879D01*
X160049Y22699D01*
X159509Y23402D01*
X158805Y23942D01*
X157986Y24282D01*
X157106Y24398D01*
D02*
G37*
G36*
X141606D02*
X135669D01*
X134790Y24282D01*
X133970Y23942D01*
X133267Y23402D01*
X132727Y22699D01*
X132387Y21879D01*
X132272Y21000D01*
X132387Y20121D01*
X132727Y19301D01*
X133267Y18598D01*
X133970Y18058D01*
X134790Y17718D01*
X135669Y17602D01*
X141606D01*
X142486Y17718D01*
X143305Y18058D01*
X144009Y18598D01*
X144549Y19301D01*
X144888Y20121D01*
X145004Y21000D01*
X144888Y21879D01*
X144549Y22699D01*
X144009Y23402D01*
X143305Y23942D01*
X142486Y24282D01*
X141606Y24398D01*
D02*
G37*
G36*
X265606Y14398D02*
X262838D01*
Y11200D01*
X268978D01*
X268888Y11879D01*
X268549Y12699D01*
X268009Y13402D01*
X267305Y13942D01*
X266486Y14282D01*
X265606Y14398D01*
D02*
G37*
G36*
X262438D02*
X259669D01*
X258790Y14282D01*
X257970Y13942D01*
X257267Y13402D01*
X256727Y12699D01*
X256387Y11879D01*
X256298Y11200D01*
X262438D01*
Y14398D01*
D02*
G37*
G36*
X250106D02*
X247338D01*
Y11200D01*
X253478D01*
X253388Y11879D01*
X253049Y12699D01*
X252509Y13402D01*
X251805Y13942D01*
X250986Y14282D01*
X250106Y14398D01*
D02*
G37*
G36*
X246938D02*
X244169D01*
X243290Y14282D01*
X242471Y13942D01*
X241767Y13402D01*
X241227Y12699D01*
X240887Y11879D01*
X240798Y11200D01*
X246938D01*
Y14398D01*
D02*
G37*
G36*
X234606D02*
X231838D01*
Y11200D01*
X237978D01*
X237888Y11879D01*
X237549Y12699D01*
X237009Y13402D01*
X236305Y13942D01*
X235486Y14282D01*
X234606Y14398D01*
D02*
G37*
G36*
X231438D02*
X228669D01*
X227790Y14282D01*
X226971Y13942D01*
X226267Y13402D01*
X225727Y12699D01*
X225388Y11879D01*
X225298Y11200D01*
X231438D01*
Y14398D01*
D02*
G37*
G36*
X219106D02*
X216338D01*
Y11200D01*
X222478D01*
X222388Y11879D01*
X222049Y12699D01*
X221509Y13402D01*
X220805Y13942D01*
X219986Y14282D01*
X219106Y14398D01*
D02*
G37*
G36*
X215938D02*
X213169D01*
X212290Y14282D01*
X211471Y13942D01*
X210767Y13402D01*
X210227Y12699D01*
X209888Y11879D01*
X209798Y11200D01*
X215938D01*
Y14398D01*
D02*
G37*
G36*
X203606D02*
X200838D01*
Y11200D01*
X206978D01*
X206888Y11879D01*
X206549Y12699D01*
X206009Y13402D01*
X205305Y13942D01*
X204486Y14282D01*
X203606Y14398D01*
D02*
G37*
G36*
X200438D02*
X197669D01*
X196790Y14282D01*
X195970Y13942D01*
X195267Y13402D01*
X194727Y12699D01*
X194387Y11879D01*
X194298Y11200D01*
X200438D01*
Y14398D01*
D02*
G37*
G36*
X188106D02*
X185338D01*
Y11200D01*
X191478D01*
X191388Y11879D01*
X191049Y12699D01*
X190509Y13402D01*
X189805Y13942D01*
X188986Y14282D01*
X188106Y14398D01*
D02*
G37*
G36*
X184938D02*
X182169D01*
X181290Y14282D01*
X180471Y13942D01*
X179767Y13402D01*
X179227Y12699D01*
X178887Y11879D01*
X178798Y11200D01*
X184938D01*
Y14398D01*
D02*
G37*
G36*
X172606D02*
X169838D01*
Y11200D01*
X175978D01*
X175888Y11879D01*
X175549Y12699D01*
X175009Y13402D01*
X174305Y13942D01*
X173486Y14282D01*
X172606Y14398D01*
D02*
G37*
G36*
X169438D02*
X166669D01*
X165790Y14282D01*
X164971Y13942D01*
X164267Y13402D01*
X163727Y12699D01*
X163388Y11879D01*
X163298Y11200D01*
X169438D01*
Y14398D01*
D02*
G37*
G36*
X157106D02*
X154338D01*
Y11200D01*
X160477D01*
X160388Y11879D01*
X160049Y12699D01*
X159509Y13402D01*
X158805Y13942D01*
X157986Y14282D01*
X157106Y14398D01*
D02*
G37*
G36*
X153938D02*
X151169D01*
X150290Y14282D01*
X149470Y13942D01*
X148767Y13402D01*
X148227Y12699D01*
X147888Y11879D01*
X147798Y11200D01*
X153938D01*
Y14398D01*
D02*
G37*
G36*
X141606D02*
X138838D01*
Y11200D01*
X144977D01*
X144888Y11879D01*
X144549Y12699D01*
X144009Y13402D01*
X143305Y13942D01*
X142486Y14282D01*
X141606Y14398D01*
D02*
G37*
G36*
X138438D02*
X135669D01*
X134790Y14282D01*
X133970Y13942D01*
X133267Y13402D01*
X132727Y12699D01*
X132387Y11879D01*
X132298Y11200D01*
X138438D01*
Y14398D01*
D02*
G37*
G36*
X285039Y19931D02*
X283549Y19735D01*
X282160Y19160D01*
X280968Y18245D01*
X280053Y17052D01*
X279478Y15664D01*
X279281Y14173D01*
X279478Y12683D01*
X280053Y11294D01*
X280968Y10102D01*
X282160Y9187D01*
X283549Y8612D01*
X285039Y8415D01*
X286530Y8612D01*
X287918Y9187D01*
X289111Y10102D01*
X290026Y11294D01*
X290601Y12683D01*
X290797Y14173D01*
X290601Y15664D01*
X290026Y17052D01*
X289111Y18245D01*
X287918Y19160D01*
X286530Y19735D01*
X285039Y19931D01*
D02*
G37*
G36*
X14173D02*
X12683Y19735D01*
X11294Y19160D01*
X10102Y18245D01*
X9187Y17052D01*
X8612Y15664D01*
X8415Y14173D01*
X8612Y12683D01*
X9187Y11294D01*
X10102Y10102D01*
X11294Y9187D01*
X12683Y8612D01*
X14173Y8415D01*
X15664Y8612D01*
X17052Y9187D01*
X18245Y10102D01*
X19160Y11294D01*
X19735Y12683D01*
X19931Y14173D01*
X19735Y15664D01*
X19160Y17052D01*
X18245Y18245D01*
X17052Y19160D01*
X15664Y19735D01*
X14173Y19931D01*
D02*
G37*
G36*
X268978Y10800D02*
X262838D01*
Y7602D01*
X265606D01*
X266486Y7718D01*
X267305Y8058D01*
X268009Y8598D01*
X268549Y9301D01*
X268888Y10121D01*
X268978Y10800D01*
D02*
G37*
G36*
X262438D02*
X256298D01*
X256387Y10121D01*
X256727Y9301D01*
X257267Y8598D01*
X257970Y8058D01*
X258790Y7718D01*
X259669Y7602D01*
X262438D01*
Y10800D01*
D02*
G37*
G36*
X253478D02*
X247338D01*
Y7602D01*
X250106D01*
X250986Y7718D01*
X251805Y8058D01*
X252509Y8598D01*
X253049Y9301D01*
X253388Y10121D01*
X253478Y10800D01*
D02*
G37*
G36*
X246938D02*
X240798D01*
X240887Y10121D01*
X241227Y9301D01*
X241767Y8598D01*
X242471Y8058D01*
X243290Y7718D01*
X244169Y7602D01*
X246938D01*
Y10800D01*
D02*
G37*
G36*
X237978D02*
X231838D01*
Y7602D01*
X234606D01*
X235486Y7718D01*
X236305Y8058D01*
X237009Y8598D01*
X237549Y9301D01*
X237888Y10121D01*
X237978Y10800D01*
D02*
G37*
G36*
X231438D02*
X225298D01*
X225388Y10121D01*
X225727Y9301D01*
X226267Y8598D01*
X226971Y8058D01*
X227790Y7718D01*
X228669Y7602D01*
X231438D01*
Y10800D01*
D02*
G37*
G36*
X222478D02*
X216338D01*
Y7602D01*
X219106D01*
X219986Y7718D01*
X220805Y8058D01*
X221509Y8598D01*
X222049Y9301D01*
X222388Y10121D01*
X222478Y10800D01*
D02*
G37*
G36*
X215938D02*
X209798D01*
X209888Y10121D01*
X210227Y9301D01*
X210767Y8598D01*
X211471Y8058D01*
X212290Y7718D01*
X213169Y7602D01*
X215938D01*
Y10800D01*
D02*
G37*
G36*
X206978D02*
X200838D01*
Y7602D01*
X203606D01*
X204486Y7718D01*
X205305Y8058D01*
X206009Y8598D01*
X206549Y9301D01*
X206888Y10121D01*
X206978Y10800D01*
D02*
G37*
G36*
X200438D02*
X194298D01*
X194387Y10121D01*
X194727Y9301D01*
X195267Y8598D01*
X195970Y8058D01*
X196790Y7718D01*
X197669Y7602D01*
X200438D01*
Y10800D01*
D02*
G37*
G36*
X191478D02*
X185338D01*
Y7602D01*
X188106D01*
X188986Y7718D01*
X189805Y8058D01*
X190509Y8598D01*
X191049Y9301D01*
X191388Y10121D01*
X191478Y10800D01*
D02*
G37*
G36*
X184938D02*
X178798D01*
X178887Y10121D01*
X179227Y9301D01*
X179767Y8598D01*
X180471Y8058D01*
X181290Y7718D01*
X182169Y7602D01*
X184938D01*
Y10800D01*
D02*
G37*
G36*
X175978D02*
X169838D01*
Y7602D01*
X172606D01*
X173486Y7718D01*
X174305Y8058D01*
X175009Y8598D01*
X175549Y9301D01*
X175888Y10121D01*
X175978Y10800D01*
D02*
G37*
G36*
X169438D02*
X163298D01*
X163388Y10121D01*
X163727Y9301D01*
X164267Y8598D01*
X164971Y8058D01*
X165790Y7718D01*
X166669Y7602D01*
X169438D01*
Y10800D01*
D02*
G37*
G36*
X160477D02*
X154338D01*
Y7602D01*
X157106D01*
X157986Y7718D01*
X158805Y8058D01*
X159509Y8598D01*
X160049Y9301D01*
X160388Y10121D01*
X160477Y10800D01*
D02*
G37*
G36*
X153938D02*
X147798D01*
X147888Y10121D01*
X148227Y9301D01*
X148767Y8598D01*
X149470Y8058D01*
X150290Y7718D01*
X151169Y7602D01*
X153938D01*
Y10800D01*
D02*
G37*
G36*
X144977D02*
X138838D01*
Y7602D01*
X141606D01*
X142486Y7718D01*
X143305Y8058D01*
X144009Y8598D01*
X144549Y9301D01*
X144888Y10121D01*
X144977Y10800D01*
D02*
G37*
G36*
X138438D02*
X132298D01*
X132387Y10121D01*
X132727Y9301D01*
X133267Y8598D01*
X133970Y8058D01*
X134790Y7718D01*
X135669Y7602D01*
X138438D01*
Y10800D01*
D02*
G37*
G36*
X70868Y18876D02*
X64131D01*
Y6202D01*
X70868D01*
Y18876D01*
D02*
G37*
G36*
X77264Y40789D02*
X76608Y40658D01*
X76052Y40287D01*
X75680Y39731D01*
X75550Y39075D01*
X75680Y38419D01*
X76052Y37863D01*
X76464Y37587D01*
Y18725D01*
X75801Y18450D01*
X75098Y17910D01*
X74558Y17207D01*
X74218Y16387D01*
X74102Y15508D01*
Y9571D01*
X74218Y8692D01*
X74558Y7872D01*
X75098Y7168D01*
X75801Y6628D01*
X76621Y6289D01*
X77500Y6173D01*
X78379Y6289D01*
X79199Y6628D01*
X79902Y7168D01*
X80442Y7872D01*
X80782Y8692D01*
X80898Y9571D01*
Y15508D01*
X80782Y16387D01*
X80442Y17207D01*
X79902Y17910D01*
X79199Y18450D01*
X78379Y18790D01*
X78299Y18800D01*
Y37745D01*
X78476Y37863D01*
X78847Y38419D01*
X78978Y39075D01*
X78847Y39731D01*
X78476Y40287D01*
X77920Y40658D01*
X77264Y40789D01*
D02*
G37*
%LPD*%
G36*
X143806Y300089D02*
X143731Y300148D01*
X143647Y300183D01*
X143554Y300195D01*
X143451Y300184D01*
X143340Y300150D01*
X143219Y300092D01*
X143089Y300011D01*
X142950Y299907D01*
X142801Y299780D01*
X142644Y299629D01*
X141937Y300337D01*
X142087Y300494D01*
X142214Y300642D01*
X142318Y300782D01*
X142399Y300912D01*
X142457Y301032D01*
X142491Y301144D01*
X142502Y301247D01*
X142490Y301340D01*
X142455Y301424D01*
X142396Y301499D01*
X143806Y300089D01*
D02*
G37*
G36*
X144655Y289837D02*
X144647Y289832D01*
X144628Y289815D01*
X144054Y289250D01*
X143347Y289957D01*
X143394Y290004D01*
X143576Y290209D01*
X143575Y290213D01*
X144655Y289837D01*
D02*
G37*
G36*
X147594Y226523D02*
X147544Y226447D01*
X147500Y226364D01*
X147462Y226277D01*
X147430Y226184D01*
X147403Y226086D01*
X147382Y225982D01*
X147368Y225873D01*
X147359Y225758D01*
X147356Y225639D01*
X146356Y225541D01*
X146353Y225661D01*
X146342Y225775D01*
X146324Y225882D01*
X146300Y225983D01*
X146268Y226077D01*
X146229Y226165D01*
X146183Y226246D01*
X146130Y226320D01*
X146070Y226388D01*
X146003Y226449D01*
X147650Y226595D01*
X147594Y226523D01*
D02*
G37*
G36*
X141153Y136698D02*
X141163Y136584D01*
X141179Y136476D01*
X141202Y136373D01*
X141231Y136277D01*
X141267Y136186D01*
X141310Y136101D01*
X141359Y136023D01*
X141414Y135950D01*
X141476Y135883D01*
X139823D01*
X139885Y135950D01*
X139941Y136023D01*
X139989Y136101D01*
X140032Y136186D01*
X140068Y136277D01*
X140097Y136373D01*
X140120Y136476D01*
X140137Y136584D01*
X140146Y136698D01*
X140150Y136818D01*
X141150D01*
X141153Y136698D01*
D02*
G37*
G36*
X147360Y136565D02*
X147370Y136451D01*
X147388Y136344D01*
X147413Y136243D01*
X147444Y136149D01*
X147483Y136061D01*
X147529Y135980D01*
X147582Y135906D01*
X147642Y135838D01*
X147709Y135777D01*
X146062Y135631D01*
X146118Y135702D01*
X146168Y135779D01*
X146212Y135861D01*
X146250Y135949D01*
X146283Y136042D01*
X146309Y136140D01*
X146330Y136244D01*
X146344Y136353D01*
X146353Y136467D01*
X146356Y136587D01*
X147356Y136685D01*
X147360Y136565D01*
D02*
G37*
G36*
X144204Y136329D02*
X144214Y136215D01*
X144230Y136107D01*
X144253Y136005D01*
X144282Y135908D01*
X144318Y135818D01*
X144361Y135733D01*
X144410Y135654D01*
X144465Y135581D01*
X144528Y135514D01*
X142874D01*
X142936Y135581D01*
X142992Y135654D01*
X143041Y135733D01*
X143083Y135818D01*
X143119Y135908D01*
X143149Y136005D01*
X143171Y136107D01*
X143188Y136215D01*
X143198Y136329D01*
X143201Y136450D01*
X144201D01*
X144204Y136329D01*
D02*
G37*
G36*
X133582Y289787D02*
X133497Y289757D01*
X133422Y289706D01*
X133357Y289635D01*
X133302Y289544D01*
X133257Y289433D01*
X133222Y289301D01*
X133197Y289149D01*
X133182Y288977D01*
X133177Y288785D01*
X132177D01*
X132172Y288977D01*
X132157Y289149D01*
X132132Y289301D01*
X132097Y289433D01*
X132052Y289544D01*
X131997Y289635D01*
X131932Y289706D01*
X131857Y289757D01*
X131772Y289787D01*
X131677Y289797D01*
X133677D01*
X133582Y289787D01*
D02*
G37*
G36*
X134362Y240241D02*
X134371Y240127D01*
X134388Y240019D01*
X134411Y239917D01*
X134440Y239820D01*
X134476Y239729D01*
X134518Y239645D01*
X134567Y239566D01*
X134623Y239493D01*
X134685Y239426D01*
X133031D01*
X133094Y239493D01*
X133149Y239566D01*
X133198Y239645D01*
X133241Y239729D01*
X133277Y239820D01*
X133306Y239917D01*
X133329Y240019D01*
X133345Y240127D01*
X133355Y240241D01*
X133358Y240361D01*
X134358D01*
X134362Y240241D01*
D02*
G37*
G36*
X136724Y237879D02*
X136733Y237765D01*
X136750Y237657D01*
X136773Y237554D01*
X136802Y237458D01*
X136838Y237367D01*
X136881Y237283D01*
X136930Y237204D01*
X136985Y237131D01*
X137047Y237064D01*
X135394D01*
X135456Y237131D01*
X135511Y237204D01*
X135560Y237283D01*
X135603Y237367D01*
X135639Y237458D01*
X135668Y237554D01*
X135691Y237657D01*
X135707Y237765D01*
X135717Y237879D01*
X135721Y237999D01*
X136721D01*
X136724Y237879D01*
D02*
G37*
G36*
X114600Y299797D02*
X114489Y299819D01*
X114368Y299816D01*
X114237Y299789D01*
X114094Y299736D01*
X113941Y299660D01*
X113777Y299558D01*
X113602Y299432D01*
X113416Y299281D01*
X113013Y298905D01*
X112176Y299483D01*
X112329Y299643D01*
X112454Y299790D01*
X112553Y299923D01*
X112624Y300044D01*
X112667Y300151D01*
X112683Y300245D01*
X112672Y300326D01*
X112633Y300394D01*
X112567Y300448D01*
X112474Y300490D01*
X114600Y299797D01*
D02*
G37*
G36*
X99785D02*
X99666Y299810D01*
X99542Y299805D01*
X99413Y299780D01*
X99279Y299737D01*
X99140Y299674D01*
X98997Y299593D01*
X98848Y299493D01*
X98694Y299373D01*
X98535Y299235D01*
X98370Y299078D01*
X97176Y299298D01*
X97331Y299460D01*
X97456Y299607D01*
X97553Y299739D01*
X97621Y299857D01*
X97661Y299960D01*
X97671Y300049D01*
X97653Y300124D01*
X97606Y300183D01*
X97530Y300228D01*
X97425Y300259D01*
X99785Y299797D01*
D02*
G37*
G36*
X118040Y289787D02*
X117955Y289757D01*
X117880Y289706D01*
X117815Y289635D01*
X117760Y289544D01*
X117715Y289433D01*
X117680Y289301D01*
X117655Y289149D01*
X117640Y288977D01*
X117635Y288785D01*
X116635D01*
X116630Y288977D01*
X116615Y289149D01*
X116590Y289301D01*
X116555Y289433D01*
X116510Y289544D01*
X116455Y289635D01*
X116390Y289706D01*
X116315Y289757D01*
X116230Y289787D01*
X116135Y289797D01*
X118135D01*
X118040Y289787D01*
D02*
G37*
G36*
X102874D02*
X102788Y289757D01*
X102714Y289706D01*
X102648Y289635D01*
X102594Y289544D01*
X102549Y289433D01*
X102514Y289301D01*
X102489Y289149D01*
X102473Y288977D01*
X102469Y288785D01*
X101469D01*
X101463Y288977D01*
X101449Y289149D01*
X101424Y289301D01*
X101389Y289433D01*
X101344Y289544D01*
X101288Y289635D01*
X101224Y289706D01*
X101148Y289757D01*
X101064Y289787D01*
X100969Y289797D01*
X102969D01*
X102874Y289787D01*
D02*
G37*
G36*
X93888Y242408D02*
X93650Y241777D01*
X92650Y242201D01*
X92953Y243531D01*
X93888Y242408D01*
D02*
G37*
G36*
X92531Y238568D02*
X92541Y238454D01*
X92557Y238346D01*
X92580Y238243D01*
X92609Y238147D01*
X92645Y238056D01*
X92688Y237972D01*
X92737Y237893D01*
X92792Y237820D01*
X92854Y237753D01*
X91201D01*
X91263Y237820D01*
X91318Y237893D01*
X91367Y237972D01*
X91410Y238056D01*
X91446Y238147D01*
X91475Y238243D01*
X91498Y238346D01*
X91514Y238454D01*
X91524Y238568D01*
X91528Y238688D01*
X92528D01*
X92531Y238568D01*
D02*
G37*
G36*
X86035Y238371D02*
X86045Y238257D01*
X86061Y238149D01*
X86084Y238047D01*
X86113Y237950D01*
X86149Y237860D01*
X86192Y237775D01*
X86241Y237696D01*
X86296Y237623D01*
X86358Y237556D01*
X84705D01*
X84767Y237623D01*
X84822Y237696D01*
X84871Y237775D01*
X84914Y237860D01*
X84950Y237950D01*
X84979Y238047D01*
X85002Y238149D01*
X85018Y238257D01*
X85028Y238371D01*
X85031Y238491D01*
X86032D01*
X86035Y238371D01*
D02*
G37*
G36*
X89480Y238076D02*
X89489Y237962D01*
X89506Y237854D01*
X89529Y237751D01*
X89558Y237655D01*
X89594Y237564D01*
X89636Y237479D01*
X89685Y237401D01*
X89741Y237328D01*
X89803Y237261D01*
X88150D01*
X88212Y237328D01*
X88267Y237401D01*
X88316Y237479D01*
X88359Y237564D01*
X88395Y237655D01*
X88424Y237751D01*
X88447Y237854D01*
X88463Y237962D01*
X88473Y238076D01*
X88476Y238196D01*
X89476D01*
X89480Y238076D01*
D02*
G37*
G36*
X75922Y174034D02*
X75840Y173947D01*
X75766Y173859D01*
X75701Y173771D01*
X75645Y173683D01*
X75597Y173594D01*
X75559Y173504D01*
X75529Y173414D01*
X75508Y173324D01*
X75495Y173233D01*
X75492Y173142D01*
X74323Y174311D01*
X74414Y174314D01*
X74505Y174327D01*
X74595Y174348D01*
X74685Y174378D01*
X74775Y174416D01*
X74864Y174464D01*
X74952Y174520D01*
X75040Y174585D01*
X75128Y174659D01*
X75215Y174741D01*
X75922Y174034D01*
D02*
G37*
G36*
X72255Y171639D02*
X72265Y171525D01*
X72281Y171417D01*
X72304Y171314D01*
X72334Y171218D01*
X72370Y171127D01*
X72412Y171043D01*
X72461Y170964D01*
X72517Y170891D01*
X72579Y170824D01*
X70925D01*
X70987Y170891D01*
X71043Y170964D01*
X71092Y171043D01*
X71134Y171127D01*
X71170Y171218D01*
X71200Y171314D01*
X71223Y171417D01*
X71239Y171525D01*
X71249Y171639D01*
X71252Y171759D01*
X72252D01*
X72255Y171639D01*
D02*
G37*
G36*
X202340Y300271D02*
X202284Y300198D01*
X202235Y300119D01*
X202192Y300034D01*
X202156Y299944D01*
X202127Y299847D01*
X202104Y299745D01*
X202088Y299637D01*
X202078Y299522D01*
X202075Y299402D01*
X201075D01*
X201072Y299522D01*
X201062Y299637D01*
X201045Y299745D01*
X201023Y299847D01*
X200993Y299944D01*
X200957Y300034D01*
X200915Y300119D01*
X200866Y300198D01*
X200810Y300271D01*
X200748Y300338D01*
X202402D01*
X202340Y300271D01*
D02*
G37*
G36*
X202078Y291816D02*
X202088Y291702D01*
X202104Y291594D01*
X202127Y291491D01*
X202156Y291395D01*
X202192Y291304D01*
X202235Y291220D01*
X202284Y291141D01*
X202340Y291068D01*
X202402Y291001D01*
X200748D01*
X200810Y291068D01*
X200866Y291141D01*
X200915Y291220D01*
X200957Y291304D01*
X200993Y291395D01*
X201023Y291491D01*
X201045Y291594D01*
X201062Y291702D01*
X201072Y291816D01*
X201075Y291936D01*
X202075D01*
X202078Y291816D01*
D02*
G37*
G36*
X65002Y319181D02*
X65016Y319050D01*
X65046Y318916D01*
X65092Y318778D01*
X65156Y318638D01*
X65236Y318496D01*
X65333Y318350D01*
X65447Y318201D01*
X65578Y318050D01*
X65725Y317895D01*
X65651Y316555D01*
X65493Y316706D01*
X65351Y316827D01*
X65224Y316918D01*
X65112Y316980D01*
X65016Y317013D01*
X64934Y317016D01*
X64868Y316989D01*
X64818Y316933D01*
X64783Y316847D01*
X64763Y316732D01*
X65006Y319309D01*
X65002Y319181D01*
D02*
G37*
G36*
X55002D02*
X55016Y319050D01*
X55046Y318916D01*
X55092Y318778D01*
X55156Y318638D01*
X55236Y318496D01*
X55333Y318350D01*
X55447Y318201D01*
X55578Y318050D01*
X55725Y317895D01*
X55651Y316555D01*
X55493Y316706D01*
X55351Y316827D01*
X55224Y316918D01*
X55112Y316980D01*
X55015Y317013D01*
X54934Y317016D01*
X54868Y316989D01*
X54818Y316933D01*
X54783Y316847D01*
X54763Y316732D01*
X55006Y319309D01*
X55002Y319181D01*
D02*
G37*
G36*
X71493Y219671D02*
X71503Y219556D01*
X71519Y219448D01*
X71542Y219346D01*
X71571Y219249D01*
X71607Y219159D01*
X71650Y219074D01*
X71699Y218995D01*
X71754Y218922D01*
X71816Y218855D01*
X70163D01*
X70225Y218922D01*
X70280Y218995D01*
X70329Y219074D01*
X70372Y219159D01*
X70408Y219249D01*
X70437Y219346D01*
X70460Y219448D01*
X70477Y219556D01*
X70486Y219671D01*
X70490Y219791D01*
X71490D01*
X71493Y219671D01*
D02*
G37*
G36*
X72886Y215426D02*
X72804Y215339D01*
X72730Y215252D01*
X72664Y215164D01*
X72607Y215075D01*
X72558Y214987D01*
X72518Y214897D01*
X72486Y214808D01*
X72462Y214718D01*
X72447Y214627D01*
X72440Y214536D01*
X71314Y215747D01*
X71406Y215747D01*
X71496Y215757D01*
X71587Y215775D01*
X71677Y215803D01*
X71766Y215840D01*
X71855Y215886D01*
X71944Y215941D01*
X72032Y216005D01*
X72120Y216079D01*
X72207Y216161D01*
X72886Y215426D01*
D02*
G37*
G36*
X156287Y259154D02*
X156196Y259150D01*
X156105Y259138D01*
X156015Y259117D01*
X155925Y259087D01*
X155835Y259048D01*
X155746Y259001D01*
X155658Y258945D01*
X155570Y258880D01*
X155482Y258806D01*
X155395Y258723D01*
X154688Y259431D01*
X154771Y259518D01*
X154844Y259605D01*
X154909Y259693D01*
X154965Y259782D01*
X155013Y259871D01*
X155052Y259960D01*
X155081Y260050D01*
X155102Y260141D01*
X155115Y260232D01*
X155118Y260323D01*
X156287Y259154D01*
D02*
G37*
G36*
X162372Y222493D02*
X162460Y222420D01*
X162548Y222355D01*
X162636Y222298D01*
X162725Y222251D01*
X162815Y222212D01*
X162905Y222182D01*
X162995Y222161D01*
X163086Y222149D01*
X163177Y222146D01*
X162008Y220976D01*
X162004Y221068D01*
X161992Y221159D01*
X161971Y221249D01*
X161941Y221339D01*
X161903Y221428D01*
X161855Y221517D01*
X161799Y221606D01*
X161734Y221694D01*
X161660Y221782D01*
X161578Y221869D01*
X162285Y222576D01*
X162372Y222493D01*
D02*
G37*
G36*
X219619Y275254D02*
X219601Y275154D01*
X219604Y275047D01*
X219628Y274932D01*
X219674Y274809D01*
X219742Y274679D01*
X219832Y274540D01*
X219943Y274395D01*
X220075Y274241D01*
X220229Y274080D01*
X219700Y273195D01*
X219543Y273345D01*
X219397Y273470D01*
X219262Y273569D01*
X219138Y273644D01*
X219026Y273693D01*
X218924Y273717D01*
X218834Y273716D01*
X218754Y273690D01*
X218686Y273638D01*
X218629Y273561D01*
X219659Y275346D01*
X219619Y275254D01*
D02*
G37*
G36*
X208036Y244830D02*
X208025Y244925D01*
X207990Y245009D01*
X207933Y245083D01*
X207853Y245148D01*
X207750Y245203D01*
X207623Y245247D01*
X207474Y245282D01*
X207302Y245307D01*
X207107Y245322D01*
X206889Y245327D01*
Y246327D01*
X207107Y246332D01*
X207302Y246347D01*
X207474Y246372D01*
X207623Y246406D01*
X207750Y246451D01*
X207853Y246505D01*
X207933Y246570D01*
X207990Y246644D01*
X208025Y246729D01*
X208036Y246823D01*
Y244830D01*
D02*
G37*
G36*
X214703Y212876D02*
X214618Y212845D01*
X214543Y212795D01*
X214478Y212724D01*
X214423Y212633D01*
X214378Y212522D01*
X214343Y212390D01*
X214318Y212238D01*
X214303Y212066D01*
X214298Y211874D01*
X213298D01*
X213293Y212066D01*
X213278Y212238D01*
X213253Y212390D01*
X213218Y212522D01*
X213173Y212633D01*
X213118Y212724D01*
X213053Y212795D01*
X212978Y212845D01*
X212893Y212876D01*
X212798Y212886D01*
X214798D01*
X214703Y212876D01*
D02*
G37*
G36*
X162833Y155494D02*
X162799Y155530D01*
X162754Y155563D01*
X162699Y155592D01*
X162633Y155617D01*
X162555Y155638D01*
X162468Y155655D01*
X162369Y155668D01*
X162139Y155684D01*
X162008Y155686D01*
X162003Y156686D01*
X162132Y156688D01*
X162359Y156703D01*
X162456Y156717D01*
X162542Y156735D01*
X162618Y156757D01*
X162684Y156782D01*
X162738Y156812D01*
X162782Y156846D01*
X162815Y156883D01*
X162833Y155494D01*
D02*
G37*
G36*
X164690Y153717D02*
X164763Y153662D01*
X164842Y153613D01*
X164926Y153570D01*
X165017Y153534D01*
X165113Y153505D01*
X165216Y153482D01*
X165324Y153466D01*
X165438Y153456D01*
X165558Y153453D01*
Y152453D01*
X165438Y152450D01*
X165324Y152440D01*
X165216Y152423D01*
X165113Y152401D01*
X165017Y152371D01*
X164926Y152335D01*
X164842Y152293D01*
X164763Y152244D01*
X164690Y152188D01*
X164623Y152126D01*
Y153779D01*
X164690Y153717D01*
D02*
G37*
G36*
Y150273D02*
X164763Y150217D01*
X164842Y150168D01*
X164926Y150126D01*
X165017Y150090D01*
X165113Y150060D01*
X165216Y150037D01*
X165324Y150021D01*
X165438Y150011D01*
X165558Y150008D01*
Y149008D01*
X165438Y149005D01*
X165324Y148995D01*
X165216Y148978D01*
X165113Y148956D01*
X165017Y148926D01*
X164926Y148890D01*
X164842Y148848D01*
X164763Y148799D01*
X164690Y148743D01*
X164623Y148681D01*
Y150335D01*
X164690Y150273D01*
D02*
G37*
G36*
X36099Y293064D02*
X36015Y293030D01*
X35940Y292972D01*
X35876Y292892D01*
X35821Y292789D01*
X35776Y292663D01*
X35741Y292514D01*
X35717Y292342D01*
X35702Y292147D01*
X35697Y291929D01*
X34697D01*
X34692Y292147D01*
X34677Y292342D01*
X34652Y292514D01*
X34617Y292663D01*
X34573Y292789D01*
X34518Y292892D01*
X34454Y292972D01*
X34379Y293030D01*
X34295Y293064D01*
X34200Y293076D01*
X36193D01*
X36099Y293064D01*
D02*
G37*
G36*
X33403Y228562D02*
X33320Y228474D01*
X33246Y228387D01*
X33181Y228299D01*
X33125Y228210D01*
X33078Y228121D01*
X33039Y228032D01*
X33009Y227942D01*
X32988Y227851D01*
X32976Y227761D01*
X32972Y227669D01*
X31803Y228838D01*
X31894Y228842D01*
X31985Y228854D01*
X32076Y228875D01*
X32166Y228905D01*
X32255Y228944D01*
X32344Y228991D01*
X32433Y229047D01*
X32521Y229112D01*
X32608Y229186D01*
X32695Y229269D01*
X33403Y228562D01*
D02*
G37*
G36*
X42526Y198070D02*
X42548Y197981D01*
X42576Y197892D01*
X42613Y197804D01*
X42657Y197716D01*
X42709Y197628D01*
X42769Y197541D01*
X42836Y197454D01*
X42911Y197367D01*
X42994Y197280D01*
X42380Y196480D01*
X42292Y196563D01*
X42204Y196635D01*
X42116Y196698D01*
X42027Y196751D01*
X41938Y196794D01*
X41849Y196827D01*
X41759Y196850D01*
X41670Y196863D01*
X41580Y196867D01*
X41489Y196860D01*
X42513Y198159D01*
X42526Y198070D01*
D02*
G37*
G36*
X47866Y192414D02*
X47954Y192341D01*
X48042Y192278D01*
X48131Y192225D01*
X48219Y192182D01*
X48309Y192149D01*
X48398Y192126D01*
X48488Y192113D01*
X48578Y192110D01*
X48668Y192116D01*
X47645Y190817D01*
X47631Y190907D01*
X47610Y190995D01*
X47581Y191084D01*
X47545Y191172D01*
X47500Y191260D01*
X47448Y191348D01*
X47389Y191435D01*
X47321Y191523D01*
X47246Y191610D01*
X47164Y191696D01*
X47778Y192496D01*
X47866Y192414D01*
D02*
G37*
G36*
X53666Y169072D02*
X53739Y169016D01*
X53818Y168967D01*
X53903Y168925D01*
X53993Y168889D01*
X54090Y168859D01*
X54192Y168836D01*
X54300Y168820D01*
X54415Y168810D01*
X54535Y168807D01*
Y167807D01*
X54415Y167804D01*
X54300Y167794D01*
X54192Y167778D01*
X54090Y167755D01*
X53993Y167725D01*
X53903Y167690D01*
X53818Y167647D01*
X53739Y167598D01*
X53666Y167542D01*
X53599Y167480D01*
Y169134D01*
X53666Y169072D01*
D02*
G37*
G36*
X70613Y158524D02*
X70546Y158586D01*
X70473Y158641D01*
X70394Y158690D01*
X70310Y158733D01*
X70219Y158769D01*
X70123Y158798D01*
X70020Y158821D01*
X69912Y158837D01*
X69798Y158847D01*
X69678Y158850D01*
Y159850D01*
X69798Y159854D01*
X69912Y159863D01*
X70020Y159880D01*
X70123Y159903D01*
X70219Y159932D01*
X70310Y159968D01*
X70394Y160011D01*
X70473Y160059D01*
X70546Y160115D01*
X70613Y160177D01*
Y158524D01*
D02*
G37*
G36*
X191785Y142841D02*
X191701Y142820D01*
X191617Y142792D01*
X191532Y142756D01*
X191448Y142715D01*
X191363Y142666D01*
X191277Y142610D01*
X191192Y142547D01*
X191020Y142401D01*
X190933Y142318D01*
X190047Y142846D01*
X190130Y142935D01*
X190202Y143023D01*
X190263Y143111D01*
X190314Y143199D01*
X190353Y143287D01*
X190381Y143375D01*
X190399Y143462D01*
X190406Y143549D01*
X190401Y143637D01*
X190386Y143724D01*
X191785Y142841D01*
D02*
G37*
G36*
X190472Y133784D02*
X190482Y133670D01*
X190498Y133562D01*
X190521Y133460D01*
X190550Y133363D01*
X190586Y133273D01*
X190629Y133188D01*
X190678Y133109D01*
X190733Y133036D01*
X190795Y132969D01*
X189142D01*
X189204Y133036D01*
X189259Y133109D01*
X189308Y133188D01*
X189351Y133273D01*
X189387Y133363D01*
X189416Y133460D01*
X189439Y133562D01*
X189455Y133670D01*
X189465Y133784D01*
X189469Y133904D01*
X190469D01*
X190472Y133784D01*
D02*
G37*
G36*
X91730Y87304D02*
X91743Y87213D01*
X91764Y87122D01*
X91794Y87033D01*
X91832Y86943D01*
X91880Y86854D01*
X91936Y86765D01*
X92001Y86677D01*
X92075Y86590D01*
X92157Y86502D01*
X91450Y85795D01*
X91363Y85878D01*
X91275Y85952D01*
X91187Y86017D01*
X91099Y86073D01*
X91010Y86120D01*
X90920Y86159D01*
X90830Y86189D01*
X90740Y86210D01*
X90649Y86222D01*
X90558Y86226D01*
X91727Y87395D01*
X91730Y87304D01*
D02*
G37*
G36*
X88980Y86117D02*
X88992Y86027D01*
X89013Y85936D01*
X89043Y85846D01*
X89082Y85757D01*
X89129Y85668D01*
X89185Y85579D01*
X89250Y85491D01*
X89324Y85404D01*
X89407Y85316D01*
X88700Y84609D01*
X88612Y84692D01*
X88525Y84765D01*
X88437Y84830D01*
X88348Y84887D01*
X88259Y84934D01*
X88169Y84973D01*
X88080Y85003D01*
X87989Y85024D01*
X87898Y85036D01*
X87807Y85039D01*
X88976Y86209D01*
X88980Y86117D01*
D02*
G37*
G36*
X96401Y83425D02*
X96334Y83487D01*
X96261Y83543D01*
X96182Y83592D01*
X96097Y83634D01*
X96007Y83670D01*
X95910Y83700D01*
X95808Y83723D01*
X95700Y83739D01*
X95585Y83749D01*
X95465Y83752D01*
Y84752D01*
X95585Y84755D01*
X95700Y84765D01*
X95808Y84781D01*
X95910Y84804D01*
X96007Y84834D01*
X96097Y84870D01*
X96182Y84912D01*
X96261Y84961D01*
X96334Y85017D01*
X96401Y85079D01*
Y83425D01*
D02*
G37*
G36*
X96528Y80451D02*
X96455Y80502D01*
X96376Y80548D01*
X96292Y80588D01*
X96204Y80623D01*
X96109Y80653D01*
X96010Y80677D01*
X95906Y80696D01*
X95797Y80710D01*
X95562Y80721D01*
X95402Y81721D01*
X95522Y81724D01*
X95636Y81735D01*
X95742Y81753D01*
X95842Y81779D01*
X95934Y81812D01*
X96020Y81853D01*
X96098Y81900D01*
X96169Y81955D01*
X96234Y82017D01*
X96291Y82087D01*
X96528Y80451D01*
D02*
G37*
G36*
X163757Y90899D02*
X163672Y90864D01*
X163598Y90807D01*
X163533Y90727D01*
X163479Y90624D01*
X163434Y90497D01*
X163399Y90348D01*
X163374Y90176D01*
X163359Y89981D01*
X163354Y89763D01*
X162354D01*
X162349Y89981D01*
X162335Y90176D01*
X162310Y90348D01*
X162275Y90497D01*
X162230Y90624D01*
X162176Y90727D01*
X162111Y90807D01*
X162037Y90864D01*
X161952Y90899D01*
X161858Y90910D01*
X163851D01*
X163757Y90899D01*
D02*
G37*
G36*
X148942Y79899D02*
X149015Y79843D01*
X149094Y79794D01*
X149178Y79751D01*
X149269Y79716D01*
X149365Y79686D01*
X149468Y79663D01*
X149576Y79647D01*
X149690Y79637D01*
X149810Y79634D01*
Y78634D01*
X149690Y78631D01*
X149576Y78621D01*
X149468Y78604D01*
X149365Y78582D01*
X149269Y78552D01*
X149178Y78516D01*
X149094Y78474D01*
X149015Y78425D01*
X148942Y78369D01*
X148875Y78307D01*
Y79961D01*
X148942Y79899D01*
D02*
G37*
G36*
X98141Y23525D02*
X98151Y23411D01*
X98167Y23302D01*
X98190Y23200D01*
X98220Y23104D01*
X98255Y23013D01*
X98298Y22928D01*
X98347Y22850D01*
X98403Y22777D01*
X98465Y22710D01*
X96811D01*
X96873Y22777D01*
X96929Y22850D01*
X96978Y22928D01*
X97020Y23013D01*
X97056Y23104D01*
X97085Y23200D01*
X97108Y23302D01*
X97125Y23411D01*
X97135Y23525D01*
X97138Y23645D01*
X98138D01*
X98141Y23525D01*
D02*
G37*
G36*
X102964Y14257D02*
X102974Y14143D01*
X102990Y14035D01*
X103013Y13932D01*
X103042Y13836D01*
X103078Y13745D01*
X103121Y13661D01*
X103170Y13582D01*
X103225Y13509D01*
X103287Y13442D01*
X101634D01*
X101696Y13509D01*
X101751Y13582D01*
X101801Y13661D01*
X101843Y13745D01*
X101879Y13836D01*
X101908Y13932D01*
X101931Y14035D01*
X101948Y14143D01*
X101957Y14257D01*
X101961Y14377D01*
X102961D01*
X102964Y14257D01*
D02*
G37*
G36*
X85099Y18371D02*
X85246Y18246D01*
X85383Y18143D01*
X85511Y18065D01*
X85629Y18010D01*
X85738Y17978D01*
X85837Y17970D01*
X85927Y17985D01*
X86008Y18024D01*
X86078Y18087D01*
X84753Y16597D01*
X84808Y16675D01*
X84839Y16762D01*
X84848Y16858D01*
X84834Y16963D01*
X84798Y17076D01*
X84739Y17198D01*
X84657Y17329D01*
X84552Y17469D01*
X84424Y17617D01*
X84274Y17775D01*
X84942Y18521D01*
X85099Y18371D01*
D02*
G37*
D17*
X104724Y42323D02*
X104823D01*
X97638Y35236D02*
X104724Y42323D01*
X74213Y43701D02*
X84252D01*
X87205Y40748D01*
X81890Y20866D02*
Y38878D01*
X81988Y38976D01*
X77382Y12657D02*
X77500Y12539D01*
X77264Y39075D02*
X77382Y38957D01*
Y12657D02*
Y38957D01*
X92028Y236910D02*
Y239567D01*
X93150Y240689D02*
Y243465D01*
X92028Y239567D02*
X93150Y240689D01*
X151181Y232972D02*
Y255217D01*
X156299Y260335D01*
X151181Y232972D02*
X163189Y220965D01*
X146856Y134968D02*
Y227258D01*
Y134968D02*
X146960Y134864D01*
X40157Y236024D02*
Y277165D01*
X35197Y282126D02*
Y298819D01*
Y282126D02*
X40157Y277165D01*
X31791Y227658D02*
X40157Y236024D01*
X52756Y168307D02*
X56299D01*
X65256Y159350D01*
X189969Y132126D02*
Y142060D01*
X191535Y143627D01*
Y143996D01*
X81890Y20866D02*
X87500Y15256D01*
Y12539D02*
Y15256D01*
X130315Y263583D02*
Y285138D01*
Y263583D02*
X133858Y260039D01*
X125295Y290158D02*
X130315Y285138D01*
X133858Y238668D02*
Y260039D01*
X125295Y296975D02*
X128233Y299913D01*
X125295Y290158D02*
Y296975D01*
X128233Y299944D02*
X131045Y302756D01*
X132677D01*
X128233Y299913D02*
Y299944D01*
X177716Y146653D02*
X182895Y151832D01*
X161417Y147539D02*
X162303Y146653D01*
X177716D01*
X163779Y149508D02*
X178590D01*
X161417Y147539D02*
Y155600D01*
X163764Y156186D02*
X163779Y156201D01*
X161417Y155600D02*
X162003Y156186D01*
X163764D01*
X148031Y79134D02*
X155807D01*
X162854Y86181D01*
Y96653D01*
X71320Y214567D02*
X73228Y216475D01*
X62047Y320866D02*
X73228Y309685D01*
Y216475D02*
Y309685D01*
X70990Y218012D02*
Y273006D01*
X71260Y214567D02*
X71320D01*
X60039Y283957D02*
X70990Y273006D01*
X85532Y254569D02*
X109449Y278486D01*
X85532Y236713D02*
Y254569D01*
X88976Y249213D02*
X117135Y277371D01*
X88976Y236417D02*
Y249213D01*
X93701Y84252D02*
X97244D01*
X90546Y87407D02*
X93701Y84252D01*
X87795Y86221D02*
X92795Y81221D01*
X79839Y263697D02*
X92913Y276772D01*
X79839Y182693D02*
Y263697D01*
X71752Y174606D02*
X79839Y182693D01*
X74311Y173130D02*
X81239Y180058D01*
Y257223D02*
X101969Y277953D01*
X81239Y180058D02*
Y257223D01*
X146752Y227362D02*
X146856Y227258D01*
X182315Y153232D02*
X183679D01*
X184259Y151832D02*
X213798Y181371D01*
X182895Y151832D02*
X184259D01*
X178590Y149508D02*
X182315Y153232D01*
X183679D02*
X204528Y174081D01*
X181890Y157972D02*
X186319D01*
X170974Y152953D02*
X176870D01*
X181890Y157972D01*
X204528Y174081D02*
Y216929D01*
X213798Y181371D02*
Y215845D01*
X202658Y174311D02*
Y242126D01*
X186319Y157972D02*
X202658Y174311D01*
Y242126D02*
X206358Y245827D01*
X213779D01*
X222441Y223819D02*
Y271161D01*
X213779Y275827D02*
X217776D01*
X222441Y271161D01*
X219488Y220866D02*
X222441Y223819D01*
X208465Y220866D02*
X219488D01*
X204528Y216929D02*
X208465Y220866D01*
X163779Y152953D02*
X170974D01*
X170974Y152953D01*
X143701Y134671D02*
Y289603D01*
X140650Y135039D02*
Y298342D01*
X143701Y289603D02*
X144118Y290021D01*
Y290475D01*
X146399Y292756D02*
X148031D01*
X144118Y290475D02*
X146399Y292756D01*
X140650Y298342D02*
X145063Y302756D01*
X65256Y159350D02*
X71457D01*
X60039Y283957D02*
Y312874D01*
X52047Y320866D02*
X60039Y312874D01*
X136221Y236221D02*
Y261417D01*
X132677Y264961D02*
Y292756D01*
Y264961D02*
X136221Y261417D01*
X87205Y23425D02*
X90945Y19685D01*
X98794D01*
X102461Y16018D01*
X97638Y21866D02*
Y35236D01*
X102461Y12598D02*
Y16018D01*
X92795Y81221D02*
X97075D01*
X97244Y81390D01*
X87205Y23425D02*
Y40748D01*
X71752Y169980D02*
Y174606D01*
X145063Y302756D02*
X148031D01*
X113410Y300475D02*
X115690Y302756D01*
X109449Y296048D02*
X113410Y300009D01*
X109449Y278486D02*
Y296048D01*
X115690Y302756D02*
X117323D01*
X113410Y300009D02*
Y300475D01*
X92913Y276772D02*
Y294328D01*
X101341Y302756D01*
X101969D01*
Y277953D02*
Y292756D01*
X117135Y277371D02*
Y292568D01*
X117323Y292756D01*
X201575Y290158D02*
Y301181D01*
X41535Y198031D02*
X48622Y190945D01*
X41339Y198031D02*
X41535D01*
X48622Y190945D02*
X48819D01*
D81*
X45197Y298819D02*
D03*
X35197D02*
D03*
X55197D02*
D03*
X25197D02*
D03*
X15197D02*
D03*
X186457Y320472D02*
D03*
X196457D02*
D03*
X176457D02*
D03*
X206457D02*
D03*
X216457D02*
D03*
X152854Y96653D02*
D03*
X142854D02*
D03*
X162854D02*
D03*
X132854D02*
D03*
X87500Y12539D02*
D03*
X97500D02*
D03*
X77500D02*
D03*
X107500D02*
D03*
X52047Y320866D02*
D03*
X72047D02*
D03*
X62047D02*
D03*
X25197Y266142D02*
D03*
X45197D02*
D03*
X35197D02*
D03*
X25197Y104724D02*
D03*
X45197D02*
D03*
X35197D02*
D03*
X25197Y250787D02*
D03*
X45197D02*
D03*
X35197D02*
D03*
D82*
X65197Y298819D02*
D03*
X166457Y320472D02*
D03*
X172854Y96653D02*
D03*
X67500Y12539D02*
D03*
X42047Y320866D02*
D03*
X15197Y266142D02*
D03*
Y104724D02*
D03*
Y250787D02*
D03*
D83*
X169638Y31000D02*
D03*
X154138D02*
D03*
X185138D02*
D03*
X200638D02*
D03*
X216138D02*
D03*
X247138D02*
D03*
X262638D02*
D03*
X138638D02*
D03*
X231638D02*
D03*
X213779Y305827D02*
D03*
X117323Y322756D02*
D03*
X101969D02*
D03*
X148031D02*
D03*
X132677D02*
D03*
D84*
X169638Y21000D02*
D03*
Y11000D02*
D03*
X154138Y21000D02*
D03*
Y11000D02*
D03*
X185138Y21000D02*
D03*
Y11000D02*
D03*
X200638Y21000D02*
D03*
Y11000D02*
D03*
X216138Y21000D02*
D03*
Y11000D02*
D03*
X247138Y21000D02*
D03*
Y11000D02*
D03*
X262638Y21000D02*
D03*
Y11000D02*
D03*
X138638Y21000D02*
D03*
Y11000D02*
D03*
X231638Y21000D02*
D03*
Y11000D02*
D03*
X213798Y215845D02*
D03*
Y225831D02*
D03*
Y235846D02*
D03*
X213779Y245827D02*
D03*
Y285827D02*
D03*
Y275827D02*
D03*
Y295827D02*
D03*
Y265827D02*
D03*
Y255827D02*
D03*
X117323Y312756D02*
D03*
Y292756D02*
D03*
Y302756D02*
D03*
X101969Y312756D02*
D03*
Y292756D02*
D03*
Y302756D02*
D03*
X148031Y312756D02*
D03*
Y292756D02*
D03*
Y302756D02*
D03*
X132677Y312756D02*
D03*
Y292756D02*
D03*
Y302756D02*
D03*
D85*
X242126Y309449D02*
D03*
X261811D02*
D03*
D86*
X104823Y42323D02*
D03*
X74213Y43701D02*
D03*
X81988Y38976D02*
D03*
X77264Y39075D02*
D03*
X165354Y240256D02*
D03*
X155905Y250394D02*
D03*
X160630Y250197D02*
D03*
X218898Y130315D02*
D03*
X218504Y166535D02*
D03*
X206693Y138189D02*
D03*
X206299Y158661D02*
D03*
X19783Y147343D02*
D03*
X146960Y134864D02*
D03*
X282677Y176870D02*
D03*
Y148524D02*
D03*
Y120177D02*
D03*
Y49311D02*
D03*
Y35138D02*
D03*
X268504Y148524D02*
D03*
Y120177D02*
D03*
Y49311D02*
D03*
X254331Y261910D02*
D03*
Y176870D02*
D03*
Y148524D02*
D03*
Y120177D02*
D03*
Y49311D02*
D03*
X240158Y318602D02*
D03*
Y176870D02*
D03*
Y148524D02*
D03*
Y120177D02*
D03*
X225984Y318602D02*
D03*
Y304429D02*
D03*
Y290256D02*
D03*
Y276083D02*
D03*
Y261910D02*
D03*
Y247736D02*
D03*
Y233563D02*
D03*
Y219390D02*
D03*
Y162697D02*
D03*
Y148524D02*
D03*
Y134350D02*
D03*
Y63484D02*
D03*
X211811Y148524D02*
D03*
Y120177D02*
D03*
Y106004D02*
D03*
Y91831D02*
D03*
Y63484D02*
D03*
X197638Y290256D02*
D03*
Y191043D02*
D03*
Y176870D02*
D03*
Y148524D02*
D03*
Y120177D02*
D03*
Y63484D02*
D03*
X183465Y304429D02*
D03*
Y290256D02*
D03*
Y276083D02*
D03*
Y261910D02*
D03*
Y247736D02*
D03*
Y219390D02*
D03*
Y120177D02*
D03*
Y106004D02*
D03*
Y77658D02*
D03*
Y63484D02*
D03*
X169291Y290256D02*
D03*
Y276083D02*
D03*
Y261910D02*
D03*
Y247736D02*
D03*
Y120177D02*
D03*
X155118Y276083D02*
D03*
Y219390D02*
D03*
Y205217D02*
D03*
Y191043D02*
D03*
Y176870D02*
D03*
Y162697D02*
D03*
Y148524D02*
D03*
Y134350D02*
D03*
X126772Y276083D02*
D03*
Y219390D02*
D03*
Y205217D02*
D03*
Y191043D02*
D03*
Y176870D02*
D03*
Y162697D02*
D03*
Y148524D02*
D03*
Y134350D02*
D03*
Y106004D02*
D03*
Y6791D02*
D03*
X112599Y276083D02*
D03*
Y247736D02*
D03*
Y219390D02*
D03*
Y205217D02*
D03*
Y191043D02*
D03*
Y176870D02*
D03*
Y162697D02*
D03*
Y148524D02*
D03*
Y134350D02*
D03*
Y106004D02*
D03*
Y91831D02*
D03*
X98425Y219390D02*
D03*
Y205217D02*
D03*
Y191043D02*
D03*
Y176870D02*
D03*
Y162697D02*
D03*
Y148524D02*
D03*
Y134350D02*
D03*
Y49311D02*
D03*
X84252Y318602D02*
D03*
Y304429D02*
D03*
Y290256D02*
D03*
Y276083D02*
D03*
Y219390D02*
D03*
Y205217D02*
D03*
Y191043D02*
D03*
Y176870D02*
D03*
Y162697D02*
D03*
Y148524D02*
D03*
Y134350D02*
D03*
Y63484D02*
D03*
Y49311D02*
D03*
X70079Y134350D02*
D03*
Y106004D02*
D03*
Y35138D02*
D03*
X55905Y233563D02*
D03*
Y106004D02*
D03*
Y91831D02*
D03*
Y6791D02*
D03*
X41732Y191043D02*
D03*
Y162697D02*
D03*
Y77658D02*
D03*
Y49311D02*
D03*
Y35138D02*
D03*
Y20965D02*
D03*
Y6791D02*
D03*
X27559Y318602D02*
D03*
Y205217D02*
D03*
Y191043D02*
D03*
Y148524D02*
D03*
Y120177D02*
D03*
Y91831D02*
D03*
Y77658D02*
D03*
Y20965D02*
D03*
Y6791D02*
D03*
X13386Y205217D02*
D03*
Y191043D02*
D03*
Y134350D02*
D03*
Y120177D02*
D03*
Y77658D02*
D03*
Y63484D02*
D03*
Y49311D02*
D03*
X235236Y214567D02*
D03*
Y209646D02*
D03*
Y204724D02*
D03*
Y199803D02*
D03*
Y194882D02*
D03*
X230315Y199803D02*
D03*
Y214567D02*
D03*
Y209646D02*
D03*
Y204724D02*
D03*
Y194882D02*
D03*
X245079Y214567D02*
D03*
Y209646D02*
D03*
X240158Y204724D02*
D03*
Y214567D02*
D03*
Y209646D02*
D03*
X245079Y204724D02*
D03*
X240158Y199803D02*
D03*
X245079D02*
D03*
Y194882D02*
D03*
X240158D02*
D03*
X281496Y261811D02*
D03*
X287402D02*
D03*
X293307Y261811D02*
D03*
Y273622D02*
D03*
Y267717D02*
D03*
X287402Y267717D02*
D03*
X281496D02*
D03*
X287402Y273622D02*
D03*
X281496Y273622D02*
D03*
X293307Y279528D02*
D03*
X287402D02*
D03*
X281496D02*
D03*
X31791Y227658D02*
D03*
X18898Y218898D02*
D03*
Y183071D02*
D03*
X17126Y162894D02*
D03*
X14469Y69980D02*
D03*
Y34154D02*
D03*
X258169Y171457D02*
D03*
X255020Y157677D02*
D03*
X254921Y134153D02*
D03*
X286221Y126181D02*
D03*
X288878Y139469D02*
D03*
Y176476D02*
D03*
X287894Y170768D02*
D03*
X257874Y226772D02*
D03*
X248622Y284941D02*
D03*
X234055D02*
D03*
X254921Y281299D02*
D03*
X257776Y262992D02*
D03*
X251870Y272047D02*
D03*
X52756Y168307D02*
D03*
X189969Y132126D02*
D03*
X178740Y216339D02*
D03*
X68701Y233563D02*
D03*
X115256Y237697D02*
D03*
X163189Y220965D02*
D03*
X156299Y260335D02*
D03*
X101575Y239370D02*
D03*
X69784Y25295D02*
D03*
X52658Y176181D02*
D03*
X182480Y190748D02*
D03*
X70177Y119685D02*
D03*
X163779Y149508D02*
D03*
X70990Y218012D02*
D03*
X76575Y241831D02*
D03*
X125787Y72441D02*
D03*
X65256Y81496D02*
D03*
X64961Y75197D02*
D03*
X90546Y87407D02*
D03*
X87795Y86221D02*
D03*
X148031Y79134D02*
D03*
X238189Y261024D02*
D03*
X72559Y190866D02*
D03*
X71457Y193799D02*
D03*
X71063Y197736D02*
D03*
X77658Y226279D02*
D03*
X146752Y227362D02*
D03*
X172146Y229331D02*
D03*
X182480Y178543D02*
D03*
X182185Y184843D02*
D03*
X189075Y212205D02*
D03*
X188878Y202559D02*
D03*
X182480Y197047D02*
D03*
X182776Y161713D02*
D03*
X182480Y155413D02*
D03*
X182776Y147835D02*
D03*
X163779Y152953D02*
D03*
Y156201D02*
D03*
X143701Y134671D02*
D03*
X140650Y135039D02*
D03*
X149619Y133059D02*
D03*
X191535Y143996D02*
D03*
X71457Y159350D02*
D03*
X13484Y147146D02*
D03*
X52658Y182579D02*
D03*
X85532Y236713D02*
D03*
X88976Y236417D02*
D03*
X59153Y192913D02*
D03*
X52953Y192815D02*
D03*
X59153Y220768D02*
D03*
X55118Y209646D02*
D03*
X62608Y203740D02*
D03*
X49114Y205020D02*
D03*
X71260Y214567D02*
D03*
X92028Y236910D02*
D03*
X94134Y243563D02*
D03*
X130709Y240748D02*
D03*
X133858Y238583D02*
D03*
X116142Y240551D02*
D03*
X136221Y236221D02*
D03*
X97638Y21866D02*
D03*
X97244Y81390D02*
D03*
Y84252D02*
D03*
X80315Y115354D02*
D03*
X53543Y39370D02*
D03*
Y45669D02*
D03*
X74311Y173130D02*
D03*
X84071Y25295D02*
D03*
X107283Y21752D02*
D03*
X100984Y21457D02*
D03*
X102461Y12598D02*
D03*
X125394Y66142D02*
D03*
X71752Y169980D02*
D03*
X201575Y301181D02*
D03*
Y290158D02*
D03*
X41339Y198031D02*
D03*
X48819Y190945D02*
D03*
M02*
