G04*
G04 #@! TF.GenerationSoftware,Altium Limited,Altium Designer,21.9.2 (33)*
G04*
G04 Layer_Color=8388736*
%FSLAX25Y25*%
%MOIN*%
G70*
G04*
G04 #@! TF.SameCoordinates,4D01AB76-DD33-443A-9DFE-E83AFE04FE17*
G04*
G04*
G04 #@! TF.FilePolarity,Negative*
G04*
G01*
G75*
%ADD20R,0.08465X0.05118*%
%ADD21R,0.22441X0.22441*%
%ADD46R,0.04337X0.03550*%
%ADD47R,0.04921X0.03543*%
%ADD48R,0.04921X0.03937*%
%ADD49R,0.04528X0.05315*%
%ADD50R,0.05906X0.08071*%
%ADD51R,0.07677X0.05197*%
%ADD52R,0.05906X0.06693*%
%ADD53R,0.02559X0.02953*%
%ADD54R,0.06102X0.08858*%
%ADD55R,0.04528X0.04410*%
%ADD56R,0.05315X0.01772*%
%ADD57R,0.01772X0.05315*%
%ADD58R,0.01772X0.05315*%
%ADD59R,0.05315X0.01772*%
%ADD60R,0.02791X0.05791*%
%ADD61R,0.02591X0.05791*%
%ADD62R,0.06591X0.06591*%
%ADD63R,0.06591X0.06591*%
%ADD64R,0.04134X0.04331*%
G04:AMPARAMS|DCode=65|XSize=61.02mil|YSize=41.34mil|CornerRadius=5.61mil|HoleSize=0mil|Usage=FLASHONLY|Rotation=270.000|XOffset=0mil|YOffset=0mil|HoleType=Round|Shape=RoundedRectangle|*
%AMROUNDEDRECTD65*
21,1,0.06102,0.03012,0,0,270.0*
21,1,0.04980,0.04134,0,0,270.0*
1,1,0.01122,-0.01506,-0.02490*
1,1,0.01122,-0.01506,0.02490*
1,1,0.01122,0.01506,0.02490*
1,1,0.01122,0.01506,-0.02490*
%
%ADD65ROUNDEDRECTD65*%
G04:AMPARAMS|DCode=66|XSize=49.21mil|YSize=45.28mil|CornerRadius=5.91mil|HoleSize=0mil|Usage=FLASHONLY|Rotation=0.000|XOffset=0mil|YOffset=0mil|HoleType=Round|Shape=RoundedRectangle|*
%AMROUNDEDRECTD66*
21,1,0.04921,0.03347,0,0,0.0*
21,1,0.03740,0.04528,0,0,0.0*
1,1,0.01181,0.01870,-0.01673*
1,1,0.01181,-0.01870,-0.01673*
1,1,0.01181,-0.01870,0.01673*
1,1,0.01181,0.01870,0.01673*
%
%ADD66ROUNDEDRECTD66*%
G04:AMPARAMS|DCode=67|XSize=49.21mil|YSize=45.28mil|CornerRadius=5.91mil|HoleSize=0mil|Usage=FLASHONLY|Rotation=270.000|XOffset=0mil|YOffset=0mil|HoleType=Round|Shape=RoundedRectangle|*
%AMROUNDEDRECTD67*
21,1,0.04921,0.03347,0,0,270.0*
21,1,0.03740,0.04528,0,0,270.0*
1,1,0.01181,-0.01673,-0.01870*
1,1,0.01181,-0.01673,0.01870*
1,1,0.01181,0.01673,0.01870*
1,1,0.01181,0.01673,-0.01870*
%
%ADD67ROUNDEDRECTD67*%
G04:AMPARAMS|DCode=68|XSize=49.21mil|YSize=45.28mil|CornerRadius=6.89mil|HoleSize=0mil|Usage=FLASHONLY|Rotation=180.000|XOffset=0mil|YOffset=0mil|HoleType=Round|Shape=RoundedRectangle|*
%AMROUNDEDRECTD68*
21,1,0.04921,0.03150,0,0,180.0*
21,1,0.03543,0.04528,0,0,180.0*
1,1,0.01378,-0.01772,0.01575*
1,1,0.01378,0.01772,0.01575*
1,1,0.01378,0.01772,-0.01575*
1,1,0.01378,-0.01772,-0.01575*
%
%ADD68ROUNDEDRECTD68*%
G04:AMPARAMS|DCode=69|XSize=49.21mil|YSize=45.28mil|CornerRadius=6.89mil|HoleSize=0mil|Usage=FLASHONLY|Rotation=90.000|XOffset=0mil|YOffset=0mil|HoleType=Round|Shape=RoundedRectangle|*
%AMROUNDEDRECTD69*
21,1,0.04921,0.03150,0,0,90.0*
21,1,0.03543,0.04528,0,0,90.0*
1,1,0.01378,0.01575,0.01772*
1,1,0.01378,0.01575,-0.01772*
1,1,0.01378,-0.01575,-0.01772*
1,1,0.01378,-0.01575,0.01772*
%
%ADD69ROUNDEDRECTD69*%
G04:AMPARAMS|DCode=70|XSize=61.02mil|YSize=41.34mil|CornerRadius=5.61mil|HoleSize=0mil|Usage=FLASHONLY|Rotation=180.000|XOffset=0mil|YOffset=0mil|HoleType=Round|Shape=RoundedRectangle|*
%AMROUNDEDRECTD70*
21,1,0.06102,0.03012,0,0,180.0*
21,1,0.04980,0.04134,0,0,180.0*
1,1,0.01122,-0.02490,0.01506*
1,1,0.01122,0.02490,0.01506*
1,1,0.01122,0.02490,-0.01506*
1,1,0.01122,-0.02490,-0.01506*
%
%ADD70ROUNDEDRECTD70*%
%ADD71C,0.00591*%
%ADD72O,0.06528X0.12465*%
%ADD73R,0.06528X0.12465*%
%ADD74R,0.12465X0.06528*%
%ADD75O,0.12465X0.06528*%
%ADD76C,0.09646*%
%ADD77C,0.02953*%
D20*
X273484Y253878D02*
D03*
Y235886D02*
D03*
D21*
X247044Y244882D02*
D03*
D46*
X259941Y288779D02*
D03*
Y285039D02*
D03*
X269390Y288779D02*
D03*
Y285039D02*
D03*
Y281299D02*
D03*
X259941D02*
D03*
D47*
X292963Y130955D02*
D03*
D48*
Y135089D02*
D03*
Y139419D02*
D03*
Y143750D02*
D03*
Y148081D02*
D03*
Y152411D02*
D03*
Y156742D02*
D03*
Y161073D02*
D03*
D49*
X268750Y171447D02*
D03*
X254183D02*
D03*
X46260Y56890D02*
D03*
X51378Y56890D02*
D03*
X46260Y63583D02*
D03*
X51378D02*
D03*
D50*
X250344Y134163D02*
D03*
Y157667D02*
D03*
D51*
X291585Y126191D02*
D03*
D52*
X292471Y170758D02*
D03*
D53*
X47244Y160039D02*
D03*
X50394D02*
D03*
X47244Y164370D02*
D03*
X50394D02*
D03*
D54*
X14173Y183071D02*
D03*
X31890D02*
D03*
X14173Y218898D02*
D03*
X31890D02*
D03*
X9843Y34154D02*
D03*
X27559D02*
D03*
X9843Y69980D02*
D03*
X27559D02*
D03*
D55*
X36220Y140551D02*
D03*
X30433D02*
D03*
D56*
X66622Y222362D02*
D03*
Y220394D02*
D03*
Y218425D02*
D03*
Y216457D02*
D03*
Y214488D02*
D03*
Y212520D02*
D03*
Y210551D02*
D03*
Y208583D02*
D03*
Y206614D02*
D03*
Y204646D02*
D03*
Y202677D02*
D03*
Y200709D02*
D03*
Y198740D02*
D03*
Y196772D02*
D03*
Y194803D02*
D03*
Y192835D02*
D03*
Y190866D02*
D03*
Y188898D02*
D03*
Y186929D02*
D03*
Y184961D02*
D03*
Y182992D02*
D03*
Y181024D02*
D03*
Y179055D02*
D03*
Y177087D02*
D03*
Y175118D02*
D03*
Y173150D02*
D03*
Y171181D02*
D03*
Y169213D02*
D03*
Y167244D02*
D03*
Y165276D02*
D03*
Y163307D02*
D03*
Y161339D02*
D03*
Y159370D02*
D03*
Y157402D02*
D03*
Y155433D02*
D03*
Y153465D02*
D03*
Y151496D02*
D03*
Y149528D02*
D03*
Y147559D02*
D03*
Y145591D02*
D03*
Y143622D02*
D03*
Y141654D02*
D03*
Y139685D02*
D03*
Y137716D02*
D03*
X169378Y137716D02*
D03*
Y139685D02*
D03*
Y141654D02*
D03*
Y143622D02*
D03*
Y145591D02*
D03*
Y147559D02*
D03*
Y149528D02*
D03*
Y151496D02*
D03*
Y153465D02*
D03*
Y155433D02*
D03*
Y157402D02*
D03*
Y159370D02*
D03*
Y161339D02*
D03*
Y163307D02*
D03*
Y165276D02*
D03*
Y167244D02*
D03*
Y169213D02*
D03*
Y171181D02*
D03*
Y173150D02*
D03*
Y175118D02*
D03*
Y177087D02*
D03*
Y179055D02*
D03*
Y181024D02*
D03*
Y182992D02*
D03*
Y184961D02*
D03*
Y186929D02*
D03*
Y188898D02*
D03*
Y190866D02*
D03*
Y192835D02*
D03*
Y194803D02*
D03*
Y196772D02*
D03*
Y198740D02*
D03*
Y200709D02*
D03*
Y202677D02*
D03*
Y204646D02*
D03*
Y206614D02*
D03*
Y208583D02*
D03*
Y210551D02*
D03*
Y212520D02*
D03*
Y214488D02*
D03*
Y216457D02*
D03*
Y218425D02*
D03*
Y220394D02*
D03*
Y222362D02*
D03*
D57*
X75677Y128661D02*
D03*
X77646D02*
D03*
X79614D02*
D03*
X81583D02*
D03*
X83551D02*
D03*
X85520D02*
D03*
X87488D02*
D03*
X89457D02*
D03*
X91425D02*
D03*
X93394D02*
D03*
X95362D02*
D03*
X97331D02*
D03*
X99299D02*
D03*
X101268D02*
D03*
X103236D02*
D03*
X105205D02*
D03*
X107173D02*
D03*
X109142D02*
D03*
X111110D02*
D03*
X113079D02*
D03*
X115047D02*
D03*
X117016D02*
D03*
X118984D02*
D03*
X120953D02*
D03*
X122921D02*
D03*
X124890D02*
D03*
X126858D02*
D03*
X128827D02*
D03*
X130795D02*
D03*
X132764D02*
D03*
X134732D02*
D03*
X136701D02*
D03*
X138669D02*
D03*
X140638D02*
D03*
X142606D02*
D03*
X144575D02*
D03*
X146543D02*
D03*
X148512D02*
D03*
X150480D02*
D03*
X152449D02*
D03*
X154417D02*
D03*
X156386D02*
D03*
X158354D02*
D03*
X160323D02*
D03*
X160323Y231417D02*
D03*
X158354D02*
D03*
X156386D02*
D03*
X154417D02*
D03*
X152449D02*
D03*
X150480D02*
D03*
X148512D02*
D03*
X146543D02*
D03*
X144575D02*
D03*
X142606D02*
D03*
X140638D02*
D03*
X138669D02*
D03*
X136701D02*
D03*
X134732D02*
D03*
X132764D02*
D03*
X130795D02*
D03*
X128827D02*
D03*
X126858D02*
D03*
X124890D02*
D03*
X122921D02*
D03*
X120953D02*
D03*
X118984D02*
D03*
X117016D02*
D03*
X115047D02*
D03*
X113079D02*
D03*
X111110D02*
D03*
X109142D02*
D03*
X107173D02*
D03*
X105205D02*
D03*
X103236D02*
D03*
X101268D02*
D03*
X99299D02*
D03*
X97331D02*
D03*
X95362D02*
D03*
X93394D02*
D03*
X91425D02*
D03*
X89457D02*
D03*
X87488D02*
D03*
X85520D02*
D03*
X83551D02*
D03*
X81583D02*
D03*
X79614D02*
D03*
X77646D02*
D03*
X75677D02*
D03*
D58*
X104264Y77177D02*
D03*
X102295D02*
D03*
X100327D02*
D03*
X98358D02*
D03*
X96390D02*
D03*
X94421D02*
D03*
X92453D02*
D03*
X90484D02*
D03*
X88516D02*
D03*
X86547D02*
D03*
X84579D02*
D03*
X82610D02*
D03*
X80642D02*
D03*
X78673D02*
D03*
X76705D02*
D03*
X74736D02*
D03*
Y31902D02*
D03*
X76705D02*
D03*
X78673D02*
D03*
X80642D02*
D03*
X82610D02*
D03*
X84579D02*
D03*
X86547D02*
D03*
X88516D02*
D03*
X90484D02*
D03*
X92453D02*
D03*
X94421D02*
D03*
X96390D02*
D03*
X98358D02*
D03*
X100327D02*
D03*
X102295D02*
D03*
X104264D02*
D03*
D59*
X66862Y69303D02*
D03*
Y67335D02*
D03*
Y65366D02*
D03*
Y63398D02*
D03*
Y61429D02*
D03*
Y59461D02*
D03*
Y57492D02*
D03*
Y55524D02*
D03*
Y53555D02*
D03*
Y51587D02*
D03*
Y49618D02*
D03*
Y47650D02*
D03*
Y45681D02*
D03*
Y43713D02*
D03*
Y41744D02*
D03*
Y39776D02*
D03*
X112138D02*
D03*
Y41744D02*
D03*
Y43713D02*
D03*
Y45681D02*
D03*
Y47650D02*
D03*
Y49618D02*
D03*
Y51587D02*
D03*
Y53555D02*
D03*
Y55524D02*
D03*
Y57492D02*
D03*
Y59461D02*
D03*
Y61429D02*
D03*
Y63398D02*
D03*
Y65366D02*
D03*
Y67335D02*
D03*
Y69303D02*
D03*
D60*
X13435Y158691D02*
D03*
X20835D02*
D03*
D61*
X17135Y167291D02*
D03*
D62*
X285433Y253937D02*
D03*
Y235827D02*
D03*
X235039Y144488D02*
D03*
Y152362D02*
D03*
Y136614D02*
D03*
Y128347D02*
D03*
Y168110D02*
D03*
X234646Y160236D02*
D03*
X15354Y287008D02*
D03*
X201575Y215748D02*
D03*
Y225984D02*
D03*
Y235827D02*
D03*
Y245669D02*
D03*
Y255512D02*
D03*
X201476Y275984D02*
D03*
X201575Y295669D02*
D03*
X176378Y307874D02*
D03*
X30315Y158691D02*
D03*
X81890Y96457D02*
D03*
X89000Y96539D02*
D03*
X96063Y96457D02*
D03*
X103150D02*
D03*
X132972Y83169D02*
D03*
X153008D02*
D03*
X162808D02*
D03*
X173008D02*
D03*
X201575Y200000D02*
D03*
Y207480D02*
D03*
X141339Y254331D02*
D03*
X134252D02*
D03*
X127165D02*
D03*
X148468Y254402D02*
D03*
X106053Y111762D02*
D03*
D63*
X25197Y287008D02*
D03*
X35039D02*
D03*
X44882D02*
D03*
X55512D02*
D03*
X65354D02*
D03*
X201575Y285433D02*
D03*
X166142Y307874D02*
D03*
X143012Y83169D02*
D03*
X98327Y111713D02*
D03*
D64*
X255709Y272047D02*
D03*
X268110D02*
D03*
D65*
X200252Y86921D02*
D03*
X206748D02*
D03*
X200252Y94921D02*
D03*
X206748D02*
D03*
X200252Y102921D02*
D03*
X206748D02*
D03*
X200252Y77921D02*
D03*
X206748D02*
D03*
X200252Y69921D02*
D03*
X206748D02*
D03*
X268012Y262992D02*
D03*
X261516D02*
D03*
X268012Y226772D02*
D03*
X261516D02*
D03*
X295374Y180905D02*
D03*
X288878D02*
D03*
X178740Y202559D02*
D03*
X185236D02*
D03*
X59252Y205020D02*
D03*
X52756D02*
D03*
X36713Y133858D02*
D03*
X30217D02*
D03*
X165650Y233957D02*
D03*
X172146D02*
D03*
X144587Y118504D02*
D03*
X138091D02*
D03*
D66*
X244488Y264961D02*
D03*
Y271260D02*
D03*
X238189Y264961D02*
D03*
Y271260D02*
D03*
X202756Y138287D02*
D03*
Y144587D02*
D03*
Y158661D02*
D03*
Y152362D02*
D03*
X214567Y130315D02*
D03*
Y136614D02*
D03*
X226378Y122047D02*
D03*
Y128347D02*
D03*
Y174508D02*
D03*
Y168209D02*
D03*
X214567Y166535D02*
D03*
Y160236D02*
D03*
X55118Y251969D02*
D03*
Y258268D02*
D03*
Y270866D02*
D03*
Y264567D02*
D03*
X14961Y234252D02*
D03*
Y240551D02*
D03*
D67*
X195276Y264173D02*
D03*
X201575D02*
D03*
X50000Y146063D02*
D03*
X56299D02*
D03*
X65350Y245161D02*
D03*
X71650D02*
D03*
X87835Y253638D02*
D03*
X94134D02*
D03*
X71650Y251161D02*
D03*
X65350D02*
D03*
X94134Y247638D02*
D03*
X87835D02*
D03*
X62850Y88776D02*
D03*
X69150D02*
D03*
X69291Y94882D02*
D03*
X62992D02*
D03*
X21654Y94095D02*
D03*
X15354D02*
D03*
X38976D02*
D03*
X45276D02*
D03*
X38976Y238976D02*
D03*
X45276D02*
D03*
X92815Y118898D02*
D03*
X99114D02*
D03*
X111221Y119095D02*
D03*
X104921D02*
D03*
D68*
X244488Y283858D02*
D03*
Y277559D02*
D03*
X238189Y283858D02*
D03*
Y277559D02*
D03*
X59153Y216929D02*
D03*
Y210630D02*
D03*
X56693Y182579D02*
D03*
Y176279D02*
D03*
X62106Y131693D02*
D03*
Y125394D02*
D03*
X178740Y155413D02*
D03*
Y161713D02*
D03*
X178445Y178543D02*
D03*
Y184843D02*
D03*
Y197047D02*
D03*
Y190748D02*
D03*
X155610Y240059D02*
D03*
Y246358D02*
D03*
X160630Y240059D02*
D03*
Y246358D02*
D03*
X53500Y125890D02*
D03*
Y132189D02*
D03*
X56791Y153248D02*
D03*
Y159547D02*
D03*
X56693Y164961D02*
D03*
Y171260D02*
D03*
X69291Y81496D02*
D03*
Y75197D02*
D03*
X121358Y66142D02*
D03*
Y72441D02*
D03*
X35630Y47244D02*
D03*
Y53543D02*
D03*
X58268Y57087D02*
D03*
Y50787D02*
D03*
Y69291D02*
D03*
Y62992D02*
D03*
X39370Y167815D02*
D03*
Y174114D02*
D03*
X178740Y147835D02*
D03*
Y141535D02*
D03*
D69*
X225650Y86921D02*
D03*
X219350D02*
D03*
X225650Y94921D02*
D03*
X219350D02*
D03*
X225650Y102921D02*
D03*
X219350D02*
D03*
X225650Y77921D02*
D03*
X219350D02*
D03*
X225650Y69921D02*
D03*
X219350D02*
D03*
X59252Y196850D02*
D03*
X52953D02*
D03*
X74016Y119685D02*
D03*
X80315D02*
D03*
X122638Y119095D02*
D03*
X116339D02*
D03*
X127291Y119083D02*
D03*
X133591D02*
D03*
X155512Y118996D02*
D03*
X149213D02*
D03*
X30315Y126378D02*
D03*
X36614D02*
D03*
X185039Y212205D02*
D03*
X178740D02*
D03*
X126772Y239370D02*
D03*
X120472D02*
D03*
X105118D02*
D03*
X111417D02*
D03*
X69193Y237697D02*
D03*
X75492D02*
D03*
X13484Y151575D02*
D03*
X19783D02*
D03*
X107283Y25492D02*
D03*
X100984D02*
D03*
X79921Y25295D02*
D03*
X73622D02*
D03*
D70*
X44500Y132287D02*
D03*
Y125791D02*
D03*
X58268Y39272D02*
D03*
Y45768D02*
D03*
D71*
X14173Y320472D02*
D03*
X285039D02*
D03*
X14173Y14173D02*
D03*
X285039D02*
D03*
D72*
X45197Y298819D02*
D03*
X35197D02*
D03*
X55197D02*
D03*
X25197D02*
D03*
X15197D02*
D03*
X186457Y320472D02*
D03*
X196457D02*
D03*
X176457D02*
D03*
X206457D02*
D03*
X216457D02*
D03*
X152854Y96653D02*
D03*
X142854D02*
D03*
X162854D02*
D03*
X132854D02*
D03*
X87500Y12539D02*
D03*
X97500D02*
D03*
X77500D02*
D03*
X107500D02*
D03*
X52047Y320866D02*
D03*
X72047D02*
D03*
X62047D02*
D03*
X25197Y266142D02*
D03*
X45197D02*
D03*
X35197D02*
D03*
X25197Y104724D02*
D03*
X45197D02*
D03*
X35197D02*
D03*
X25197Y250787D02*
D03*
X45197D02*
D03*
X35197D02*
D03*
D73*
X65197Y298819D02*
D03*
X166457Y320472D02*
D03*
X172854Y96653D02*
D03*
X67500Y12539D02*
D03*
X42047Y320866D02*
D03*
X15197Y266142D02*
D03*
Y104724D02*
D03*
Y250787D02*
D03*
D74*
X169638Y31000D02*
D03*
X154138D02*
D03*
X185138D02*
D03*
X200638D02*
D03*
X216138D02*
D03*
X247138D02*
D03*
X262638D02*
D03*
X138638D02*
D03*
X231638D02*
D03*
X213779Y305827D02*
D03*
X117323Y322756D02*
D03*
X101969D02*
D03*
X148031D02*
D03*
X132677D02*
D03*
D75*
X169638Y21000D02*
D03*
Y11000D02*
D03*
X154138Y21000D02*
D03*
Y11000D02*
D03*
X185138Y21000D02*
D03*
Y11000D02*
D03*
X200638Y21000D02*
D03*
Y11000D02*
D03*
X216138Y21000D02*
D03*
Y11000D02*
D03*
X247138Y21000D02*
D03*
Y11000D02*
D03*
X262638Y21000D02*
D03*
Y11000D02*
D03*
X138638Y21000D02*
D03*
Y11000D02*
D03*
X231638Y21000D02*
D03*
Y11000D02*
D03*
X213798Y215845D02*
D03*
Y225831D02*
D03*
Y235846D02*
D03*
X213779Y245827D02*
D03*
Y285827D02*
D03*
Y275827D02*
D03*
Y295827D02*
D03*
Y265827D02*
D03*
Y255827D02*
D03*
X117323Y312756D02*
D03*
Y292756D02*
D03*
Y302756D02*
D03*
X101969Y312756D02*
D03*
Y292756D02*
D03*
Y302756D02*
D03*
X148031Y312756D02*
D03*
Y292756D02*
D03*
Y302756D02*
D03*
X132677Y312756D02*
D03*
Y292756D02*
D03*
Y302756D02*
D03*
D76*
X242126Y309449D02*
D03*
X261811D02*
D03*
D77*
X165354Y240256D02*
D03*
X218898Y130315D02*
D03*
X218504Y166535D02*
D03*
X206693Y138189D02*
D03*
X206299Y158661D02*
D03*
M02*
