G04*
G04 #@! TF.GenerationSoftware,Altium Limited,Altium Designer,21.9.2 (33)*
G04*
G04 Layer_Color=8421504*
%FSLAX25Y25*%
%MOIN*%
G70*
G04*
G04 #@! TF.SameCoordinates,4D01AB76-DD33-443A-9DFE-E83AFE04FE17*
G04*
G04*
G04 #@! TF.FilePolarity,Positive*
G04*
G01*
G75*
%ADD19R,0.03937X0.03150*%
%ADD20R,0.08465X0.05118*%
%ADD21R,0.22441X0.22441*%
%ADD22R,0.04331X0.02953*%
%ADD23R,0.04331X0.03347*%
%ADD24R,0.03937X0.04724*%
%ADD25R,0.05315X0.07480*%
%ADD26R,0.07087X0.04606*%
%ADD27R,0.05315X0.06102*%
%ADD28R,0.01968X0.02362*%
%ADD29R,0.05512X0.08268*%
%ADD30R,0.03937X0.03819*%
%ADD31R,0.04724X0.01181*%
%ADD32R,0.01181X0.04724*%
%ADD33R,0.01181X0.04724*%
%ADD34R,0.04724X0.01181*%
%ADD35R,0.02200X0.05200*%
%ADD36R,0.02000X0.05200*%
%ADD37R,0.06000X0.06000*%
%ADD38R,0.06000X0.06000*%
%ADD39R,0.03543X0.03740*%
G04:AMPARAMS|DCode=40|XSize=55.12mil|YSize=35.43mil|CornerRadius=2.66mil|HoleSize=0mil|Usage=FLASHONLY|Rotation=270.000|XOffset=0mil|YOffset=0mil|HoleType=Round|Shape=RoundedRectangle|*
%AMROUNDEDRECTD40*
21,1,0.05512,0.03012,0,0,270.0*
21,1,0.04980,0.03543,0,0,270.0*
1,1,0.00532,-0.01506,-0.02490*
1,1,0.00532,-0.01506,0.02490*
1,1,0.00532,0.01506,0.02490*
1,1,0.00532,0.01506,-0.02490*
%
%ADD40ROUNDEDRECTD40*%
G04:AMPARAMS|DCode=41|XSize=43.31mil|YSize=39.37mil|CornerRadius=2.95mil|HoleSize=0mil|Usage=FLASHONLY|Rotation=0.000|XOffset=0mil|YOffset=0mil|HoleType=Round|Shape=RoundedRectangle|*
%AMROUNDEDRECTD41*
21,1,0.04331,0.03347,0,0,0.0*
21,1,0.03740,0.03937,0,0,0.0*
1,1,0.00591,0.01870,-0.01673*
1,1,0.00591,-0.01870,-0.01673*
1,1,0.00591,-0.01870,0.01673*
1,1,0.00591,0.01870,0.01673*
%
%ADD41ROUNDEDRECTD41*%
G04:AMPARAMS|DCode=42|XSize=43.31mil|YSize=39.37mil|CornerRadius=2.95mil|HoleSize=0mil|Usage=FLASHONLY|Rotation=270.000|XOffset=0mil|YOffset=0mil|HoleType=Round|Shape=RoundedRectangle|*
%AMROUNDEDRECTD42*
21,1,0.04331,0.03347,0,0,270.0*
21,1,0.03740,0.03937,0,0,270.0*
1,1,0.00591,-0.01673,-0.01870*
1,1,0.00591,-0.01673,0.01870*
1,1,0.00591,0.01673,0.01870*
1,1,0.00591,0.01673,-0.01870*
%
%ADD42ROUNDEDRECTD42*%
G04:AMPARAMS|DCode=43|XSize=43.31mil|YSize=39.37mil|CornerRadius=3.94mil|HoleSize=0mil|Usage=FLASHONLY|Rotation=180.000|XOffset=0mil|YOffset=0mil|HoleType=Round|Shape=RoundedRectangle|*
%AMROUNDEDRECTD43*
21,1,0.04331,0.03150,0,0,180.0*
21,1,0.03543,0.03937,0,0,180.0*
1,1,0.00787,-0.01772,0.01575*
1,1,0.00787,0.01772,0.01575*
1,1,0.00787,0.01772,-0.01575*
1,1,0.00787,-0.01772,-0.01575*
%
%ADD43ROUNDEDRECTD43*%
G04:AMPARAMS|DCode=44|XSize=43.31mil|YSize=39.37mil|CornerRadius=3.94mil|HoleSize=0mil|Usage=FLASHONLY|Rotation=90.000|XOffset=0mil|YOffset=0mil|HoleType=Round|Shape=RoundedRectangle|*
%AMROUNDEDRECTD44*
21,1,0.04331,0.03150,0,0,90.0*
21,1,0.03543,0.03937,0,0,90.0*
1,1,0.00787,0.01575,0.01772*
1,1,0.00787,0.01575,-0.01772*
1,1,0.00787,-0.01575,-0.01772*
1,1,0.00787,-0.01575,0.01772*
%
%ADD44ROUNDEDRECTD44*%
G04:AMPARAMS|DCode=45|XSize=55.12mil|YSize=35.43mil|CornerRadius=2.66mil|HoleSize=0mil|Usage=FLASHONLY|Rotation=180.000|XOffset=0mil|YOffset=0mil|HoleType=Round|Shape=RoundedRectangle|*
%AMROUNDEDRECTD45*
21,1,0.05512,0.03012,0,0,180.0*
21,1,0.04980,0.03543,0,0,180.0*
1,1,0.00532,-0.02490,0.01506*
1,1,0.00532,0.02490,0.01506*
1,1,0.00532,0.02490,-0.01506*
1,1,0.00532,-0.02490,-0.01506*
%
%ADD45ROUNDEDRECTD45*%
D19*
X259941Y288779D02*
D03*
Y285039D02*
D03*
X269390Y288779D02*
D03*
Y285039D02*
D03*
Y281299D02*
D03*
X259941D02*
D03*
D20*
X273484Y253878D02*
D03*
Y235886D02*
D03*
D21*
X247044Y244882D02*
D03*
D22*
X292963Y130955D02*
D03*
D23*
Y135089D02*
D03*
Y139419D02*
D03*
Y143750D02*
D03*
Y148081D02*
D03*
Y152411D02*
D03*
Y156742D02*
D03*
Y161073D02*
D03*
D24*
X268750Y171447D02*
D03*
X254183D02*
D03*
X46260Y56890D02*
D03*
X51378Y56890D02*
D03*
X46260Y63583D02*
D03*
X51378D02*
D03*
D25*
X250344Y134163D02*
D03*
Y157667D02*
D03*
D26*
X291585Y126191D02*
D03*
D27*
X292471Y170758D02*
D03*
D28*
X47244Y160039D02*
D03*
X50394D02*
D03*
X47244Y164370D02*
D03*
X50394D02*
D03*
D29*
X14173Y183071D02*
D03*
X31890D02*
D03*
X14173Y218898D02*
D03*
X31890D02*
D03*
X9843Y34154D02*
D03*
X27559D02*
D03*
X9843Y69980D02*
D03*
X27559D02*
D03*
D30*
X36220Y140551D02*
D03*
X30433D02*
D03*
D31*
X66622Y222362D02*
D03*
Y220394D02*
D03*
Y218425D02*
D03*
Y216457D02*
D03*
Y214488D02*
D03*
Y212520D02*
D03*
Y210551D02*
D03*
Y208583D02*
D03*
Y206614D02*
D03*
Y204646D02*
D03*
Y202677D02*
D03*
Y200709D02*
D03*
Y198740D02*
D03*
Y196772D02*
D03*
Y194803D02*
D03*
Y192835D02*
D03*
Y190866D02*
D03*
Y188898D02*
D03*
Y186929D02*
D03*
Y184961D02*
D03*
Y182992D02*
D03*
Y181024D02*
D03*
Y179055D02*
D03*
Y177087D02*
D03*
Y175118D02*
D03*
Y173150D02*
D03*
Y171181D02*
D03*
Y169213D02*
D03*
Y167244D02*
D03*
Y165276D02*
D03*
Y163307D02*
D03*
Y161339D02*
D03*
Y159370D02*
D03*
Y157402D02*
D03*
Y155433D02*
D03*
Y153465D02*
D03*
Y151496D02*
D03*
Y149528D02*
D03*
Y147559D02*
D03*
Y145591D02*
D03*
Y143622D02*
D03*
Y141654D02*
D03*
Y139685D02*
D03*
Y137716D02*
D03*
X169378Y137716D02*
D03*
Y139685D02*
D03*
Y141654D02*
D03*
Y143622D02*
D03*
Y145591D02*
D03*
Y147559D02*
D03*
Y149528D02*
D03*
Y151496D02*
D03*
Y153465D02*
D03*
Y155433D02*
D03*
Y157402D02*
D03*
Y159370D02*
D03*
Y161339D02*
D03*
Y163307D02*
D03*
Y165276D02*
D03*
Y167244D02*
D03*
Y169213D02*
D03*
Y171181D02*
D03*
Y173150D02*
D03*
Y175118D02*
D03*
Y177087D02*
D03*
Y179055D02*
D03*
Y181024D02*
D03*
Y182992D02*
D03*
Y184961D02*
D03*
Y186929D02*
D03*
Y188898D02*
D03*
Y190866D02*
D03*
Y192835D02*
D03*
Y194803D02*
D03*
Y196772D02*
D03*
Y198740D02*
D03*
Y200709D02*
D03*
Y202677D02*
D03*
Y204646D02*
D03*
Y206614D02*
D03*
Y208583D02*
D03*
Y210551D02*
D03*
Y212520D02*
D03*
Y214488D02*
D03*
Y216457D02*
D03*
Y218425D02*
D03*
Y220394D02*
D03*
Y222362D02*
D03*
D32*
X75677Y128661D02*
D03*
X77646D02*
D03*
X79614D02*
D03*
X81583D02*
D03*
X83551D02*
D03*
X85520D02*
D03*
X87488D02*
D03*
X89457D02*
D03*
X91425D02*
D03*
X93394D02*
D03*
X95362D02*
D03*
X97331D02*
D03*
X99299D02*
D03*
X101268D02*
D03*
X103236D02*
D03*
X105205D02*
D03*
X107173D02*
D03*
X109142D02*
D03*
X111110D02*
D03*
X113079D02*
D03*
X115047D02*
D03*
X117016D02*
D03*
X118984D02*
D03*
X120953D02*
D03*
X122921D02*
D03*
X124890D02*
D03*
X126858D02*
D03*
X128827D02*
D03*
X130795D02*
D03*
X132764D02*
D03*
X134732D02*
D03*
X136701D02*
D03*
X138669D02*
D03*
X140638D02*
D03*
X142606D02*
D03*
X144575D02*
D03*
X146543D02*
D03*
X148512D02*
D03*
X150480D02*
D03*
X152449D02*
D03*
X154417D02*
D03*
X156386D02*
D03*
X158354D02*
D03*
X160323D02*
D03*
X160323Y231417D02*
D03*
X158354D02*
D03*
X156386D02*
D03*
X154417D02*
D03*
X152449D02*
D03*
X150480D02*
D03*
X148512D02*
D03*
X146543D02*
D03*
X144575D02*
D03*
X142606D02*
D03*
X140638D02*
D03*
X138669D02*
D03*
X136701D02*
D03*
X134732D02*
D03*
X132764D02*
D03*
X130795D02*
D03*
X128827D02*
D03*
X126858D02*
D03*
X124890D02*
D03*
X122921D02*
D03*
X120953D02*
D03*
X118984D02*
D03*
X117016D02*
D03*
X115047D02*
D03*
X113079D02*
D03*
X111110D02*
D03*
X109142D02*
D03*
X107173D02*
D03*
X105205D02*
D03*
X103236D02*
D03*
X101268D02*
D03*
X99299D02*
D03*
X97331D02*
D03*
X95362D02*
D03*
X93394D02*
D03*
X91425D02*
D03*
X89457D02*
D03*
X87488D02*
D03*
X85520D02*
D03*
X83551D02*
D03*
X81583D02*
D03*
X79614D02*
D03*
X77646D02*
D03*
X75677D02*
D03*
D33*
X104264Y77177D02*
D03*
X102295D02*
D03*
X100327D02*
D03*
X98358D02*
D03*
X96390D02*
D03*
X94421D02*
D03*
X92453D02*
D03*
X90484D02*
D03*
X88516D02*
D03*
X86547D02*
D03*
X84579D02*
D03*
X82610D02*
D03*
X80642D02*
D03*
X78673D02*
D03*
X76705D02*
D03*
X74736D02*
D03*
Y31902D02*
D03*
X76705D02*
D03*
X78673D02*
D03*
X80642D02*
D03*
X82610D02*
D03*
X84579D02*
D03*
X86547D02*
D03*
X88516D02*
D03*
X90484D02*
D03*
X92453D02*
D03*
X94421D02*
D03*
X96390D02*
D03*
X98358D02*
D03*
X100327D02*
D03*
X102295D02*
D03*
X104264D02*
D03*
D34*
X66862Y69303D02*
D03*
Y67335D02*
D03*
Y65366D02*
D03*
Y63398D02*
D03*
Y61429D02*
D03*
Y59461D02*
D03*
Y57492D02*
D03*
Y55524D02*
D03*
Y53555D02*
D03*
Y51587D02*
D03*
Y49618D02*
D03*
Y47650D02*
D03*
Y45681D02*
D03*
Y43713D02*
D03*
Y41744D02*
D03*
Y39776D02*
D03*
X112138D02*
D03*
Y41744D02*
D03*
Y43713D02*
D03*
Y45681D02*
D03*
Y47650D02*
D03*
Y49618D02*
D03*
Y51587D02*
D03*
Y53555D02*
D03*
Y55524D02*
D03*
Y57492D02*
D03*
Y59461D02*
D03*
Y61429D02*
D03*
Y63398D02*
D03*
Y65366D02*
D03*
Y67335D02*
D03*
Y69303D02*
D03*
D35*
X13435Y158691D02*
D03*
X20835D02*
D03*
D36*
X17135Y167291D02*
D03*
D37*
X285433Y253937D02*
D03*
Y235827D02*
D03*
X235039Y144488D02*
D03*
Y152362D02*
D03*
Y136614D02*
D03*
Y128347D02*
D03*
Y168110D02*
D03*
X234646Y160236D02*
D03*
X15354Y287008D02*
D03*
X201575Y215748D02*
D03*
Y225984D02*
D03*
Y235827D02*
D03*
Y245669D02*
D03*
Y255512D02*
D03*
X201476Y275984D02*
D03*
X201575Y295669D02*
D03*
X176378Y307874D02*
D03*
X30315Y158691D02*
D03*
X81890Y96457D02*
D03*
X89000Y96539D02*
D03*
X96063Y96457D02*
D03*
X103150D02*
D03*
X132972Y83169D02*
D03*
X153008D02*
D03*
X162808D02*
D03*
X173008D02*
D03*
X201575Y200000D02*
D03*
Y207480D02*
D03*
X141339Y254331D02*
D03*
X134252D02*
D03*
X127165D02*
D03*
X148468Y254402D02*
D03*
X106053Y111762D02*
D03*
D38*
X25197Y287008D02*
D03*
X35039D02*
D03*
X44882D02*
D03*
X55512D02*
D03*
X65354D02*
D03*
X201575Y285433D02*
D03*
X166142Y307874D02*
D03*
X143012Y83169D02*
D03*
X98327Y111713D02*
D03*
D39*
X255709Y272047D02*
D03*
X268110D02*
D03*
D40*
X200252Y86921D02*
D03*
X206748D02*
D03*
X200252Y94921D02*
D03*
X206748D02*
D03*
X200252Y102921D02*
D03*
X206748D02*
D03*
X200252Y77921D02*
D03*
X206748D02*
D03*
X200252Y69921D02*
D03*
X206748D02*
D03*
X268012Y262992D02*
D03*
X261516D02*
D03*
X268012Y226772D02*
D03*
X261516D02*
D03*
X295374Y180905D02*
D03*
X288878D02*
D03*
X178740Y202559D02*
D03*
X185236D02*
D03*
X59252Y205020D02*
D03*
X52756D02*
D03*
X36713Y133858D02*
D03*
X30217D02*
D03*
X165650Y233957D02*
D03*
X172146D02*
D03*
X144587Y118504D02*
D03*
X138091D02*
D03*
D41*
X244488Y264961D02*
D03*
Y271260D02*
D03*
X238189Y264961D02*
D03*
Y271260D02*
D03*
X202756Y138287D02*
D03*
Y144587D02*
D03*
Y158661D02*
D03*
Y152362D02*
D03*
X214567Y130315D02*
D03*
Y136614D02*
D03*
X226378Y122047D02*
D03*
Y128347D02*
D03*
Y174508D02*
D03*
Y168209D02*
D03*
X214567Y166535D02*
D03*
Y160236D02*
D03*
X55118Y251969D02*
D03*
Y258268D02*
D03*
Y270866D02*
D03*
Y264567D02*
D03*
X14961Y234252D02*
D03*
Y240551D02*
D03*
D42*
X195276Y264173D02*
D03*
X201575D02*
D03*
X50000Y146063D02*
D03*
X56299D02*
D03*
X65350Y245161D02*
D03*
X71650D02*
D03*
X87835Y253638D02*
D03*
X94134D02*
D03*
X71650Y251161D02*
D03*
X65350D02*
D03*
X94134Y247638D02*
D03*
X87835D02*
D03*
X62850Y88776D02*
D03*
X69150D02*
D03*
X69291Y94882D02*
D03*
X62992D02*
D03*
X21654Y94095D02*
D03*
X15354D02*
D03*
X38976D02*
D03*
X45276D02*
D03*
X38976Y238976D02*
D03*
X45276D02*
D03*
X92815Y118898D02*
D03*
X99114D02*
D03*
X111221Y119095D02*
D03*
X104921D02*
D03*
D43*
X244488Y283858D02*
D03*
Y277559D02*
D03*
X238189Y283858D02*
D03*
Y277559D02*
D03*
X59153Y216929D02*
D03*
Y210630D02*
D03*
X56693Y182579D02*
D03*
Y176279D02*
D03*
X62106Y131693D02*
D03*
Y125394D02*
D03*
X178740Y155413D02*
D03*
Y161713D02*
D03*
X178445Y178543D02*
D03*
Y184843D02*
D03*
Y197047D02*
D03*
Y190748D02*
D03*
X155610Y240059D02*
D03*
Y246358D02*
D03*
X160630Y240059D02*
D03*
Y246358D02*
D03*
X53500Y125890D02*
D03*
Y132189D02*
D03*
X56791Y153248D02*
D03*
Y159547D02*
D03*
X56693Y164961D02*
D03*
Y171260D02*
D03*
X69291Y81496D02*
D03*
Y75197D02*
D03*
X121358Y66142D02*
D03*
Y72441D02*
D03*
X35630Y47244D02*
D03*
Y53543D02*
D03*
X58268Y57087D02*
D03*
Y50787D02*
D03*
Y69291D02*
D03*
Y62992D02*
D03*
X39370Y167815D02*
D03*
Y174114D02*
D03*
X178740Y147835D02*
D03*
Y141535D02*
D03*
D44*
X225650Y86921D02*
D03*
X219350D02*
D03*
X225650Y94921D02*
D03*
X219350D02*
D03*
X225650Y102921D02*
D03*
X219350D02*
D03*
X225650Y77921D02*
D03*
X219350D02*
D03*
X225650Y69921D02*
D03*
X219350D02*
D03*
X59252Y196850D02*
D03*
X52953D02*
D03*
X74016Y119685D02*
D03*
X80315D02*
D03*
X122638Y119095D02*
D03*
X116339D02*
D03*
X127291Y119083D02*
D03*
X133591D02*
D03*
X155512Y118996D02*
D03*
X149213D02*
D03*
X30315Y126378D02*
D03*
X36614D02*
D03*
X185039Y212205D02*
D03*
X178740D02*
D03*
X126772Y239370D02*
D03*
X120472D02*
D03*
X105118D02*
D03*
X111417D02*
D03*
X69193Y237697D02*
D03*
X75492D02*
D03*
X13484Y151575D02*
D03*
X19783D02*
D03*
X107283Y25492D02*
D03*
X100984D02*
D03*
X79921Y25295D02*
D03*
X73622D02*
D03*
D45*
X44500Y132287D02*
D03*
Y125791D02*
D03*
X58268Y39272D02*
D03*
Y45768D02*
D03*
M02*
