G04*
G04 #@! TF.GenerationSoftware,Altium Limited,Altium Designer,21.9.2 (33)*
G04*
G04 Layer_Physical_Order=2*
G04 Layer_Color=16440176*
%FSLAX25Y25*%
%MOIN*%
G70*
G04*
G04 #@! TF.SameCoordinates,F924B2C3-1D75-45BD-9772-218C77F4F8C2*
G04*
G04*
G04 #@! TF.FilePolarity,Positive*
G04*
G01*
G75*
%ADD57O,0.05937X0.11874*%
%ADD58C,0.09055*%
%ADD59C,0.03150*%
%ADD60C,0.02362*%
G36*
X288739Y195702D02*
X290026Y195311D01*
X291211Y194678D01*
X292250Y193825D01*
X293103Y192786D01*
X293737Y191601D01*
X294127Y190314D01*
X294258Y188985D01*
X294256Y188976D01*
Y7874D01*
X294258Y7865D01*
X294127Y6536D01*
X293737Y5250D01*
X293103Y4064D01*
X292250Y3025D01*
X291211Y2173D01*
X290026Y1539D01*
X288739Y1149D01*
X287410Y1018D01*
X287402Y1020D01*
X7874D01*
X7865Y1018D01*
X6536Y1149D01*
X5250Y1539D01*
X4064Y2173D01*
X3025Y3025D01*
X2173Y4064D01*
X1539Y5250D01*
X1149Y6536D01*
X1018Y7865D01*
X1020Y7874D01*
Y188976D01*
X1018Y188985D01*
X1149Y190314D01*
X1539Y191601D01*
X2173Y192786D01*
X3025Y193825D01*
X4064Y194678D01*
X5250Y195311D01*
X6536Y195702D01*
X7865Y195833D01*
X7874Y195831D01*
X287402D01*
X287410Y195833D01*
X288739Y195702D01*
D02*
G37*
%LPC*%
G36*
X285827Y192667D02*
X285017Y192506D01*
X284331Y192047D01*
X283872Y191361D01*
X283711Y190551D01*
X283872Y189742D01*
X284331Y189055D01*
X285017Y188597D01*
X285827Y188436D01*
X286636Y188597D01*
X287323Y189055D01*
X287781Y189742D01*
X287942Y190551D01*
X287781Y191361D01*
X287323Y192047D01*
X286636Y192506D01*
X285827Y192667D01*
D02*
G37*
G36*
X274803D02*
X273993Y192506D01*
X273307Y192047D01*
X272849Y191361D01*
X272688Y190551D01*
X272849Y189742D01*
X273307Y189055D01*
X273993Y188597D01*
X274803Y188436D01*
X275613Y188597D01*
X276299Y189055D01*
X276758Y189742D01*
X276919Y190551D01*
X276758Y191361D01*
X276299Y192047D01*
X275613Y192506D01*
X274803Y192667D01*
D02*
G37*
G36*
X263779D02*
X262970Y192506D01*
X262284Y192047D01*
X261825Y191361D01*
X261664Y190551D01*
X261825Y189742D01*
X262284Y189055D01*
X262970Y188597D01*
X263779Y188436D01*
X264589Y188597D01*
X265275Y189055D01*
X265734Y189742D01*
X265895Y190551D01*
X265734Y191361D01*
X265275Y192047D01*
X264589Y192506D01*
X263779Y192667D01*
D02*
G37*
G36*
X252756D02*
X251946Y192506D01*
X251260Y192047D01*
X250801Y191361D01*
X250640Y190551D01*
X250801Y189742D01*
X251260Y189055D01*
X251946Y188597D01*
X252756Y188436D01*
X253565Y188597D01*
X254252Y189055D01*
X254710Y189742D01*
X254871Y190551D01*
X254710Y191361D01*
X254252Y192047D01*
X253565Y192506D01*
X252756Y192667D01*
D02*
G37*
G36*
X241732D02*
X240923Y192506D01*
X240236Y192047D01*
X239778Y191361D01*
X239617Y190551D01*
X239778Y189742D01*
X240236Y189055D01*
X240923Y188597D01*
X241732Y188436D01*
X242542Y188597D01*
X243228Y189055D01*
X243687Y189742D01*
X243848Y190551D01*
X243687Y191361D01*
X243228Y192047D01*
X242542Y192506D01*
X241732Y192667D01*
D02*
G37*
G36*
X208661D02*
X207852Y192506D01*
X207166Y192047D01*
X206707Y191361D01*
X206546Y190551D01*
X206707Y189742D01*
X207166Y189055D01*
X207852Y188597D01*
X208661Y188436D01*
X209471Y188597D01*
X210157Y189055D01*
X210616Y189742D01*
X210777Y190551D01*
X210616Y191361D01*
X210157Y192047D01*
X209471Y192506D01*
X208661Y192667D01*
D02*
G37*
G36*
X197638D02*
X196828Y192506D01*
X196142Y192047D01*
X195683Y191361D01*
X195522Y190551D01*
X195683Y189742D01*
X196142Y189055D01*
X196828Y188597D01*
X197638Y188436D01*
X198447Y188597D01*
X199134Y189055D01*
X199592Y189742D01*
X199753Y190551D01*
X199592Y191361D01*
X199134Y192047D01*
X198447Y192506D01*
X197638Y192667D01*
D02*
G37*
G36*
X131496D02*
X130686Y192506D01*
X130000Y192047D01*
X129542Y191361D01*
X129381Y190551D01*
X129542Y189742D01*
X130000Y189055D01*
X130686Y188597D01*
X131496Y188436D01*
X132306Y188597D01*
X132992Y189055D01*
X133450Y189742D01*
X133612Y190551D01*
X133450Y191361D01*
X132992Y192047D01*
X132306Y192506D01*
X131496Y192667D01*
D02*
G37*
G36*
X120472D02*
X119663Y192506D01*
X118976Y192047D01*
X118518Y191361D01*
X118357Y190551D01*
X118518Y189742D01*
X118976Y189055D01*
X119663Y188597D01*
X120472Y188436D01*
X121282Y188597D01*
X121968Y189055D01*
X122427Y189742D01*
X122588Y190551D01*
X122427Y191361D01*
X121968Y192047D01*
X121282Y192506D01*
X120472Y192667D01*
D02*
G37*
G36*
X98425D02*
X97616Y192506D01*
X96929Y192047D01*
X96471Y191361D01*
X96310Y190551D01*
X96471Y189742D01*
X96929Y189055D01*
X97616Y188597D01*
X98425Y188436D01*
X99235Y188597D01*
X99921Y189055D01*
X100380Y189742D01*
X100541Y190551D01*
X100380Y191361D01*
X99921Y192047D01*
X99235Y192506D01*
X98425Y192667D01*
D02*
G37*
G36*
X76378D02*
X75568Y192506D01*
X74882Y192047D01*
X74423Y191361D01*
X74262Y190551D01*
X74423Y189742D01*
X74882Y189055D01*
X75568Y188597D01*
X76378Y188436D01*
X77188Y188597D01*
X77874Y189055D01*
X78332Y189742D01*
X78493Y190551D01*
X78332Y191361D01*
X77874Y192047D01*
X77188Y192506D01*
X76378Y192667D01*
D02*
G37*
G36*
X54331D02*
X53521Y192506D01*
X52835Y192047D01*
X52376Y191361D01*
X52215Y190551D01*
X52376Y189742D01*
X52835Y189055D01*
X53521Y188597D01*
X54331Y188436D01*
X55140Y188597D01*
X55826Y189055D01*
X56285Y189742D01*
X56446Y190551D01*
X56285Y191361D01*
X55826Y192047D01*
X55140Y192506D01*
X54331Y192667D01*
D02*
G37*
G36*
X32283D02*
X31474Y192506D01*
X30788Y192047D01*
X30329Y191361D01*
X30168Y190551D01*
X30329Y189742D01*
X30788Y189055D01*
X31474Y188597D01*
X32283Y188436D01*
X33093Y188597D01*
X33779Y189055D01*
X34238Y189742D01*
X34399Y190551D01*
X34238Y191361D01*
X33779Y192047D01*
X33093Y192506D01*
X32283Y192667D01*
D02*
G37*
G36*
X21260D02*
X20450Y192506D01*
X19764Y192047D01*
X19305Y191361D01*
X19144Y190551D01*
X19305Y189742D01*
X19764Y189055D01*
X20450Y188597D01*
X21260Y188436D01*
X22069Y188597D01*
X22756Y189055D01*
X23214Y189742D01*
X23375Y190551D01*
X23214Y191361D01*
X22756Y192047D01*
X22069Y192506D01*
X21260Y192667D01*
D02*
G37*
G36*
X10236D02*
X9427Y192506D01*
X8740Y192047D01*
X8282Y191361D01*
X8121Y190551D01*
X8282Y189742D01*
X8740Y189055D01*
X9427Y188597D01*
X10236Y188436D01*
X11046Y188597D01*
X11732Y189055D01*
X12191Y189742D01*
X12352Y190551D01*
X12191Y191361D01*
X11732Y192047D01*
X11046Y192506D01*
X10236Y192667D01*
D02*
G37*
G36*
X263779Y181643D02*
X262970Y181482D01*
X262284Y181023D01*
X261825Y180337D01*
X261664Y179527D01*
X261825Y178718D01*
X262284Y178032D01*
X262970Y177573D01*
X263779Y177412D01*
X264589Y177573D01*
X265275Y178032D01*
X265734Y178718D01*
X265895Y179527D01*
X265734Y180337D01*
X265275Y181023D01*
X264589Y181482D01*
X263779Y181643D01*
D02*
G37*
G36*
X252756D02*
X251946Y181482D01*
X251260Y181023D01*
X250801Y180337D01*
X250640Y179527D01*
X250801Y178718D01*
X251260Y178032D01*
X251946Y177573D01*
X252756Y177412D01*
X253565Y177573D01*
X254252Y178032D01*
X254710Y178718D01*
X254871Y179527D01*
X254710Y180337D01*
X254252Y181023D01*
X253565Y181482D01*
X252756Y181643D01*
D02*
G37*
G36*
X241732D02*
X240923Y181482D01*
X240236Y181023D01*
X239778Y180337D01*
X239617Y179527D01*
X239778Y178718D01*
X240236Y178032D01*
X240923Y177573D01*
X241732Y177412D01*
X242542Y177573D01*
X243228Y178032D01*
X243687Y178718D01*
X243848Y179527D01*
X243687Y180337D01*
X243228Y181023D01*
X242542Y181482D01*
X241732Y181643D01*
D02*
G37*
G36*
X230709D02*
X229899Y181482D01*
X229213Y181023D01*
X228754Y180337D01*
X228593Y179527D01*
X228754Y178718D01*
X229213Y178032D01*
X229899Y177573D01*
X230709Y177412D01*
X231518Y177573D01*
X232204Y178032D01*
X232663Y178718D01*
X232824Y179527D01*
X232663Y180337D01*
X232204Y181023D01*
X231518Y181482D01*
X230709Y181643D01*
D02*
G37*
G36*
X219685D02*
X218875Y181482D01*
X218189Y181023D01*
X217731Y180337D01*
X217569Y179527D01*
X217731Y178718D01*
X218189Y178032D01*
X218875Y177573D01*
X219685Y177412D01*
X220495Y177573D01*
X221181Y178032D01*
X221639Y178718D01*
X221800Y179527D01*
X221639Y180337D01*
X221181Y181023D01*
X220495Y181482D01*
X219685Y181643D01*
D02*
G37*
G36*
X208661D02*
X207852Y181482D01*
X207166Y181023D01*
X206707Y180337D01*
X206546Y179527D01*
X206707Y178718D01*
X207166Y178032D01*
X207852Y177573D01*
X208661Y177412D01*
X209471Y177573D01*
X210157Y178032D01*
X210616Y178718D01*
X210777Y179527D01*
X210616Y180337D01*
X210157Y181023D01*
X209471Y181482D01*
X208661Y181643D01*
D02*
G37*
G36*
X197638D02*
X196828Y181482D01*
X196142Y181023D01*
X195683Y180337D01*
X195522Y179527D01*
X195683Y178718D01*
X196142Y178032D01*
X196828Y177573D01*
X197638Y177412D01*
X198447Y177573D01*
X199134Y178032D01*
X199592Y178718D01*
X199753Y179527D01*
X199592Y180337D01*
X199134Y181023D01*
X198447Y181482D01*
X197638Y181643D01*
D02*
G37*
G36*
X186614D02*
X185805Y181482D01*
X185118Y181023D01*
X184660Y180337D01*
X184499Y179527D01*
X184660Y178718D01*
X185118Y178032D01*
X185805Y177573D01*
X186614Y177412D01*
X187424Y177573D01*
X188110Y178032D01*
X188568Y178718D01*
X188730Y179527D01*
X188568Y180337D01*
X188110Y181023D01*
X187424Y181482D01*
X186614Y181643D01*
D02*
G37*
G36*
X175591D02*
X174781Y181482D01*
X174095Y181023D01*
X173636Y180337D01*
X173475Y179527D01*
X173636Y178718D01*
X174095Y178032D01*
X174781Y177573D01*
X175591Y177412D01*
X176400Y177573D01*
X177086Y178032D01*
X177545Y178718D01*
X177706Y179527D01*
X177545Y180337D01*
X177086Y181023D01*
X176400Y181482D01*
X175591Y181643D01*
D02*
G37*
G36*
X164567D02*
X163757Y181482D01*
X163071Y181023D01*
X162612Y180337D01*
X162451Y179527D01*
X162612Y178718D01*
X163071Y178032D01*
X163757Y177573D01*
X164567Y177412D01*
X165376Y177573D01*
X166063Y178032D01*
X166521Y178718D01*
X166682Y179527D01*
X166521Y180337D01*
X166063Y181023D01*
X165376Y181482D01*
X164567Y181643D01*
D02*
G37*
G36*
X153543D02*
X152734Y181482D01*
X152047Y181023D01*
X151589Y180337D01*
X151428Y179527D01*
X151589Y178718D01*
X152047Y178032D01*
X152734Y177573D01*
X153543Y177412D01*
X154353Y177573D01*
X155039Y178032D01*
X155498Y178718D01*
X155659Y179527D01*
X155498Y180337D01*
X155039Y181023D01*
X154353Y181482D01*
X153543Y181643D01*
D02*
G37*
G36*
X142520D02*
X141710Y181482D01*
X141024Y181023D01*
X140565Y180337D01*
X140404Y179527D01*
X140565Y178718D01*
X141024Y178032D01*
X141710Y177573D01*
X142520Y177412D01*
X143329Y177573D01*
X144016Y178032D01*
X144474Y178718D01*
X144635Y179527D01*
X144474Y180337D01*
X144016Y181023D01*
X143329Y181482D01*
X142520Y181643D01*
D02*
G37*
G36*
X131496D02*
X130686Y181482D01*
X130000Y181023D01*
X129542Y180337D01*
X129381Y179527D01*
X129542Y178718D01*
X130000Y178032D01*
X130686Y177573D01*
X131496Y177412D01*
X132306Y177573D01*
X132992Y178032D01*
X133450Y178718D01*
X133612Y179527D01*
X133450Y180337D01*
X132992Y181023D01*
X132306Y181482D01*
X131496Y181643D01*
D02*
G37*
G36*
X120472D02*
X119663Y181482D01*
X118976Y181023D01*
X118518Y180337D01*
X118357Y179527D01*
X118518Y178718D01*
X118976Y178032D01*
X119663Y177573D01*
X120472Y177412D01*
X121282Y177573D01*
X121968Y178032D01*
X122427Y178718D01*
X122588Y179527D01*
X122427Y180337D01*
X121968Y181023D01*
X121282Y181482D01*
X120472Y181643D01*
D02*
G37*
G36*
X109449D02*
X108639Y181482D01*
X107953Y181023D01*
X107494Y180337D01*
X107333Y179527D01*
X107494Y178718D01*
X107953Y178032D01*
X108639Y177573D01*
X109449Y177412D01*
X110258Y177573D01*
X110945Y178032D01*
X111403Y178718D01*
X111564Y179527D01*
X111403Y180337D01*
X110945Y181023D01*
X110258Y181482D01*
X109449Y181643D01*
D02*
G37*
G36*
X98425D02*
X97616Y181482D01*
X96929Y181023D01*
X96471Y180337D01*
X96310Y179527D01*
X96471Y178718D01*
X96929Y178032D01*
X97616Y177573D01*
X98425Y177412D01*
X99235Y177573D01*
X99921Y178032D01*
X100380Y178718D01*
X100541Y179527D01*
X100380Y180337D01*
X99921Y181023D01*
X99235Y181482D01*
X98425Y181643D01*
D02*
G37*
G36*
X87401D02*
X86592Y181482D01*
X85906Y181023D01*
X85447Y180337D01*
X85286Y179527D01*
X85447Y178718D01*
X85906Y178032D01*
X86592Y177573D01*
X87401Y177412D01*
X88211Y177573D01*
X88897Y178032D01*
X89356Y178718D01*
X89517Y179527D01*
X89356Y180337D01*
X88897Y181023D01*
X88211Y181482D01*
X87401Y181643D01*
D02*
G37*
G36*
X65354D02*
X64545Y181482D01*
X63858Y181023D01*
X63400Y180337D01*
X63239Y179527D01*
X63400Y178718D01*
X63858Y178032D01*
X64545Y177573D01*
X65354Y177412D01*
X66164Y177573D01*
X66850Y178032D01*
X67309Y178718D01*
X67470Y179527D01*
X67309Y180337D01*
X66850Y181023D01*
X66164Y181482D01*
X65354Y181643D01*
D02*
G37*
G36*
X54331D02*
X53521Y181482D01*
X52835Y181023D01*
X52376Y180337D01*
X52215Y179527D01*
X52376Y178718D01*
X52835Y178032D01*
X53521Y177573D01*
X54331Y177412D01*
X55140Y177573D01*
X55826Y178032D01*
X56285Y178718D01*
X56446Y179527D01*
X56285Y180337D01*
X55826Y181023D01*
X55140Y181482D01*
X54331Y181643D01*
D02*
G37*
G36*
X43307D02*
X42498Y181482D01*
X41811Y181023D01*
X41353Y180337D01*
X41192Y179527D01*
X41353Y178718D01*
X41811Y178032D01*
X42498Y177573D01*
X43307Y177412D01*
X44117Y177573D01*
X44803Y178032D01*
X45261Y178718D01*
X45423Y179527D01*
X45261Y180337D01*
X44803Y181023D01*
X44117Y181482D01*
X43307Y181643D01*
D02*
G37*
G36*
X32283D02*
X31474Y181482D01*
X30788Y181023D01*
X30329Y180337D01*
X30168Y179527D01*
X30329Y178718D01*
X30788Y178032D01*
X31474Y177573D01*
X32283Y177412D01*
X33093Y177573D01*
X33779Y178032D01*
X34238Y178718D01*
X34399Y179527D01*
X34238Y180337D01*
X33779Y181023D01*
X33093Y181482D01*
X32283Y181643D01*
D02*
G37*
G36*
X279528Y186860D02*
X278037Y186664D01*
X276649Y186089D01*
X275456Y185174D01*
X274541Y183981D01*
X273966Y182593D01*
X273770Y181102D01*
X273966Y179612D01*
X274541Y178223D01*
X275456Y177031D01*
X276649Y176116D01*
X278037Y175541D01*
X279528Y175344D01*
X281018Y175541D01*
X282406Y176116D01*
X283599Y177031D01*
X284514Y178223D01*
X285089Y179612D01*
X285285Y181102D01*
X285089Y182593D01*
X284514Y183981D01*
X283599Y185174D01*
X282406Y186089D01*
X281018Y186664D01*
X279528Y186860D01*
D02*
G37*
G36*
X15748D02*
X14258Y186664D01*
X12869Y186089D01*
X11677Y185174D01*
X10762Y183981D01*
X10186Y182593D01*
X9990Y181102D01*
X10186Y179612D01*
X10762Y178223D01*
X11677Y177031D01*
X12869Y176116D01*
X14258Y175541D01*
X15748Y175344D01*
X17238Y175541D01*
X18627Y176116D01*
X19819Y177031D01*
X20734Y178223D01*
X21310Y179612D01*
X21506Y181102D01*
X21310Y182593D01*
X20734Y183981D01*
X19819Y185174D01*
X18627Y186089D01*
X17238Y186664D01*
X15748Y186860D01*
D02*
G37*
G36*
X184571Y172685D02*
Y168823D01*
X188433D01*
X187899Y170110D01*
X187013Y171265D01*
X185859Y172151D01*
X184571Y172685D01*
D02*
G37*
G36*
X139295Y172685D02*
Y168823D01*
X143157D01*
X142624Y170110D01*
X141738Y171265D01*
X140583Y172151D01*
X139295Y172685D01*
D02*
G37*
G36*
X229847D02*
Y168823D01*
X233708D01*
X233175Y170110D01*
X232289Y171265D01*
X231134Y172151D01*
X229847Y172685D01*
D02*
G37*
G36*
X94020D02*
Y168823D01*
X97881D01*
X97348Y170110D01*
X96462Y171265D01*
X95307Y172151D01*
X94020Y172685D01*
D02*
G37*
G36*
X48744D02*
Y168823D01*
X52606D01*
X52072Y170110D01*
X51186Y171265D01*
X50032Y172151D01*
X48744Y172685D01*
D02*
G37*
G36*
X136295D02*
X135008Y172151D01*
X133853Y171265D01*
X132967Y170110D01*
X132434Y168823D01*
X136295D01*
Y172685D01*
D02*
G37*
G36*
X226847D02*
X225559Y172151D01*
X224404Y171265D01*
X223518Y170110D01*
X222985Y168823D01*
X226847D01*
Y172685D01*
D02*
G37*
G36*
X91020D02*
X89732Y172151D01*
X88577Y171265D01*
X87691Y170110D01*
X87158Y168823D01*
X91020D01*
Y172685D01*
D02*
G37*
G36*
X45744D02*
X44456Y172151D01*
X43302Y171265D01*
X42416Y170110D01*
X41882Y168823D01*
X45744D01*
Y172685D01*
D02*
G37*
G36*
X181571Y172685D02*
X180283Y172151D01*
X179129Y171265D01*
X178243Y170110D01*
X177709Y168823D01*
X181571D01*
Y172685D01*
D02*
G37*
G36*
X285827Y170619D02*
X285017Y170458D01*
X284331Y170000D01*
X283872Y169313D01*
X283711Y168504D01*
X283872Y167694D01*
X284331Y167008D01*
X285017Y166550D01*
X285827Y166388D01*
X286636Y166550D01*
X287323Y167008D01*
X287781Y167694D01*
X287942Y168504D01*
X287781Y169313D01*
X287323Y170000D01*
X286636Y170458D01*
X285827Y170619D01*
D02*
G37*
G36*
X274803D02*
X273993Y170458D01*
X273307Y170000D01*
X272849Y169313D01*
X272688Y168504D01*
X272849Y167694D01*
X273307Y167008D01*
X273993Y166550D01*
X274803Y166388D01*
X275613Y166550D01*
X276299Y167008D01*
X276758Y167694D01*
X276919Y168504D01*
X276758Y169313D01*
X276299Y170000D01*
X275613Y170458D01*
X274803Y170619D01*
D02*
G37*
G36*
X263779D02*
X262970Y170458D01*
X262284Y170000D01*
X261825Y169313D01*
X261664Y168504D01*
X261825Y167694D01*
X262284Y167008D01*
X262970Y166550D01*
X263779Y166388D01*
X264589Y166550D01*
X265275Y167008D01*
X265734Y167694D01*
X265895Y168504D01*
X265734Y169313D01*
X265275Y170000D01*
X264589Y170458D01*
X263779Y170619D01*
D02*
G37*
G36*
X157480Y172394D02*
X156168Y172221D01*
X154945Y171714D01*
X153895Y170908D01*
X153089Y169858D01*
X152582Y168635D01*
X152409Y167323D01*
X152582Y166010D01*
X153089Y164787D01*
X153895Y163737D01*
X154945Y162931D01*
X156168Y162425D01*
X157480Y162252D01*
X158793Y162425D01*
X160016Y162931D01*
X161066Y163737D01*
X161872Y164787D01*
X162379Y166010D01*
X162503Y166958D01*
X163023Y167079D01*
X163071Y167008D01*
X163757Y166550D01*
X164567Y166388D01*
X165376Y166550D01*
X166063Y167008D01*
X166521Y167694D01*
X166682Y168504D01*
X166521Y169313D01*
X166063Y170000D01*
X165376Y170458D01*
X164567Y170619D01*
X163757Y170458D01*
X163071Y170000D01*
X162629Y169338D01*
X162491Y169311D01*
X162101Y169305D01*
X161872Y169858D01*
X161066Y170908D01*
X160016Y171714D01*
X158793Y172221D01*
X157480Y172394D01*
D02*
G37*
G36*
X32283Y170619D02*
X31474Y170458D01*
X30788Y170000D01*
X30329Y169313D01*
X30168Y168504D01*
X30329Y167694D01*
X30788Y167008D01*
X31474Y166550D01*
X32283Y166388D01*
X33093Y166550D01*
X33779Y167008D01*
X34238Y167694D01*
X34399Y168504D01*
X34238Y169313D01*
X33779Y170000D01*
X33093Y170458D01*
X32283Y170619D01*
D02*
G37*
G36*
X21260D02*
X20450Y170458D01*
X19764Y170000D01*
X19305Y169313D01*
X19144Y168504D01*
X19305Y167694D01*
X19764Y167008D01*
X20450Y166550D01*
X21260Y166388D01*
X22069Y166550D01*
X22756Y167008D01*
X23214Y167694D01*
X23375Y168504D01*
X23214Y169313D01*
X22756Y170000D01*
X22069Y170458D01*
X21260Y170619D01*
D02*
G37*
G36*
X10236D02*
X9427Y170458D01*
X8740Y170000D01*
X8282Y169313D01*
X8121Y168504D01*
X8282Y167694D01*
X8740Y167008D01*
X9427Y166550D01*
X10236Y166388D01*
X11046Y166550D01*
X11732Y167008D01*
X12191Y167694D01*
X12352Y168504D01*
X12191Y169313D01*
X11732Y170000D01*
X11046Y170458D01*
X10236Y170619D01*
D02*
G37*
G36*
X248031Y172394D02*
X246719Y172221D01*
X245496Y171714D01*
X244446Y170908D01*
X243640Y169858D01*
X243133Y168635D01*
X242961Y167323D01*
X243133Y166010D01*
X243640Y164787D01*
X244446Y163737D01*
X245496Y162931D01*
X246719Y162425D01*
X248031Y162252D01*
X249344Y162425D01*
X250567Y162931D01*
X251617Y163737D01*
X252423Y164787D01*
X252930Y166010D01*
X253102Y167323D01*
X252930Y168635D01*
X252423Y169858D01*
X251617Y170908D01*
X250567Y171714D01*
X249344Y172221D01*
X248031Y172394D01*
D02*
G37*
G36*
X202756D02*
X201444Y172221D01*
X200220Y171714D01*
X199170Y170908D01*
X198364Y169858D01*
X197858Y168635D01*
X197685Y167323D01*
X197858Y166010D01*
X198364Y164787D01*
X199170Y163737D01*
X200220Y162931D01*
X201444Y162425D01*
X202756Y162252D01*
X204068Y162425D01*
X205291Y162931D01*
X206342Y163737D01*
X207148Y164787D01*
X207654Y166010D01*
X207827Y167323D01*
X207654Y168635D01*
X207148Y169858D01*
X206342Y170908D01*
X205291Y171714D01*
X204068Y172221D01*
X202756Y172394D01*
D02*
G37*
G36*
X112205D02*
X110892Y172221D01*
X109669Y171714D01*
X108619Y170908D01*
X107813Y169858D01*
X107307Y168635D01*
X107134Y167323D01*
X107307Y166010D01*
X107813Y164787D01*
X108619Y163737D01*
X109669Y162931D01*
X110892Y162425D01*
X112205Y162252D01*
X113517Y162425D01*
X114740Y162931D01*
X115790Y163737D01*
X116596Y164787D01*
X117103Y166010D01*
X117276Y167323D01*
X117103Y168635D01*
X116596Y169858D01*
X115790Y170908D01*
X114740Y171714D01*
X113517Y172221D01*
X112205Y172394D01*
D02*
G37*
G36*
X66929D02*
X65617Y172221D01*
X64394Y171714D01*
X63343Y170908D01*
X62538Y169858D01*
X62031Y168635D01*
X61858Y167323D01*
X62031Y166010D01*
X62538Y164787D01*
X63343Y163737D01*
X64394Y162931D01*
X65617Y162425D01*
X66929Y162252D01*
X68242Y162425D01*
X69465Y162931D01*
X70515Y163737D01*
X71321Y164787D01*
X71827Y166010D01*
X72000Y167323D01*
X71827Y168635D01*
X71321Y169858D01*
X70515Y170908D01*
X69465Y171714D01*
X68242Y172221D01*
X66929Y172394D01*
D02*
G37*
G36*
X188433Y165823D02*
X184571D01*
Y161961D01*
X185859Y162495D01*
X187013Y163381D01*
X187899Y164535D01*
X188433Y165823D01*
D02*
G37*
G36*
X233708D02*
X229847D01*
Y161961D01*
X231134Y162495D01*
X232289Y163381D01*
X233175Y164535D01*
X233708Y165823D01*
D02*
G37*
G36*
X143157D02*
X139295D01*
Y161961D01*
X140583Y162495D01*
X141738Y163381D01*
X142624Y164535D01*
X143157Y165823D01*
D02*
G37*
G36*
X97881D02*
X94020D01*
Y161961D01*
X95307Y162495D01*
X96462Y163381D01*
X97348Y164535D01*
X97881Y165823D01*
D02*
G37*
G36*
X52606D02*
X48744D01*
Y161961D01*
X50032Y162495D01*
X51186Y163381D01*
X52072Y164535D01*
X52606Y165823D01*
D02*
G37*
G36*
X45744D02*
X41882D01*
X42416Y164535D01*
X43302Y163381D01*
X44456Y162495D01*
X45744Y161961D01*
Y165823D01*
D02*
G37*
G36*
X226847D02*
X222985D01*
X223518Y164535D01*
X224404Y163381D01*
X225559Y162495D01*
X226847Y161961D01*
Y165823D01*
D02*
G37*
G36*
X136295D02*
X132434D01*
X132967Y164535D01*
X133853Y163381D01*
X135008Y162495D01*
X136295Y161961D01*
Y165823D01*
D02*
G37*
G36*
X91020D02*
X87158D01*
X87691Y164535D01*
X88577Y163381D01*
X89732Y162495D01*
X91020Y161961D01*
Y165823D01*
D02*
G37*
G36*
X181571D02*
X177709D01*
X178243Y164535D01*
X179129Y163381D01*
X180283Y162495D01*
X181571Y161961D01*
Y165823D01*
D02*
G37*
G36*
X285827Y159596D02*
X285017Y159435D01*
X284331Y158976D01*
X283872Y158290D01*
X283711Y157480D01*
X283872Y156671D01*
X284331Y155984D01*
X285017Y155526D01*
X285827Y155365D01*
X286636Y155526D01*
X287323Y155984D01*
X287781Y156671D01*
X287942Y157480D01*
X287781Y158290D01*
X287323Y158976D01*
X286636Y159435D01*
X285827Y159596D01*
D02*
G37*
G36*
X274803D02*
X273993Y159435D01*
X273307Y158976D01*
X272849Y158290D01*
X272688Y157480D01*
X272849Y156671D01*
X273307Y155984D01*
X273993Y155526D01*
X274803Y155365D01*
X275613Y155526D01*
X276299Y155984D01*
X276758Y156671D01*
X276919Y157480D01*
X276758Y158290D01*
X276299Y158976D01*
X275613Y159435D01*
X274803Y159596D01*
D02*
G37*
G36*
X263779D02*
X262970Y159435D01*
X262284Y158976D01*
X261825Y158290D01*
X261664Y157480D01*
X261825Y156671D01*
X262284Y155984D01*
X262970Y155526D01*
X263779Y155365D01*
X264589Y155526D01*
X265275Y155984D01*
X265734Y156671D01*
X265895Y157480D01*
X265734Y158290D01*
X265275Y158976D01*
X264589Y159435D01*
X263779Y159596D01*
D02*
G37*
G36*
X153543D02*
X152734Y159435D01*
X152047Y158976D01*
X151589Y158290D01*
X151428Y157480D01*
X151589Y156671D01*
X152047Y155984D01*
X152734Y155526D01*
X153543Y155365D01*
X154353Y155526D01*
X155039Y155984D01*
X155498Y156671D01*
X155659Y157480D01*
X155498Y158290D01*
X155039Y158976D01*
X154353Y159435D01*
X153543Y159596D01*
D02*
G37*
G36*
X32283D02*
X31474Y159435D01*
X30788Y158976D01*
X30329Y158290D01*
X30168Y157480D01*
X30329Y156671D01*
X30788Y155984D01*
X31474Y155526D01*
X32283Y155365D01*
X33093Y155526D01*
X33779Y155984D01*
X34238Y156671D01*
X34399Y157480D01*
X34238Y158290D01*
X33779Y158976D01*
X33093Y159435D01*
X32283Y159596D01*
D02*
G37*
G36*
X21260D02*
X20450Y159435D01*
X19764Y158976D01*
X19305Y158290D01*
X19144Y157480D01*
X19305Y156671D01*
X19764Y155984D01*
X20450Y155526D01*
X21260Y155365D01*
X22069Y155526D01*
X22756Y155984D01*
X23214Y156671D01*
X23375Y157480D01*
X23214Y158290D01*
X22756Y158976D01*
X22069Y159435D01*
X21260Y159596D01*
D02*
G37*
G36*
X10236D02*
X9427Y159435D01*
X8740Y158976D01*
X8282Y158290D01*
X8121Y157480D01*
X8282Y156671D01*
X8740Y155984D01*
X9427Y155526D01*
X10236Y155365D01*
X11046Y155526D01*
X11732Y155984D01*
X12191Y156671D01*
X12352Y157480D01*
X12191Y158290D01*
X11732Y158976D01*
X11046Y159435D01*
X10236Y159596D01*
D02*
G37*
G36*
X233071Y155265D02*
X232261Y155104D01*
X231575Y154646D01*
X231116Y153959D01*
X230955Y153150D01*
X231116Y152340D01*
X231575Y151654D01*
X232261Y151195D01*
X233071Y151034D01*
X233880Y151195D01*
X234567Y151654D01*
X235025Y152340D01*
X235186Y153150D01*
X235025Y153959D01*
X234567Y154646D01*
X233880Y155104D01*
X233071Y155265D01*
D02*
G37*
G36*
X227953D02*
X227143Y155104D01*
X226457Y154646D01*
X225998Y153959D01*
X225837Y153150D01*
X225998Y152340D01*
X226457Y151654D01*
X227143Y151195D01*
X227953Y151034D01*
X228762Y151195D01*
X229449Y151654D01*
X229907Y152340D01*
X230068Y153150D01*
X229907Y153959D01*
X229449Y154646D01*
X228762Y155104D01*
X227953Y155265D01*
D02*
G37*
G36*
X222835D02*
X222025Y155104D01*
X221339Y154646D01*
X220880Y153959D01*
X220719Y153150D01*
X220880Y152340D01*
X221339Y151654D01*
X222025Y151195D01*
X222835Y151034D01*
X223644Y151195D01*
X224330Y151654D01*
X224789Y152340D01*
X224950Y153150D01*
X224789Y153959D01*
X224330Y154646D01*
X223644Y155104D01*
X222835Y155265D01*
D02*
G37*
G36*
X217717D02*
X216907Y155104D01*
X216221Y154646D01*
X215762Y153959D01*
X215601Y153150D01*
X215762Y152340D01*
X216221Y151654D01*
X216907Y151195D01*
X217717Y151034D01*
X218526Y151195D01*
X219212Y151654D01*
X219671Y152340D01*
X219832Y153150D01*
X219671Y153959D01*
X219212Y154646D01*
X218526Y155104D01*
X217717Y155265D01*
D02*
G37*
G36*
X212598D02*
X211789Y155104D01*
X211103Y154646D01*
X210644Y153959D01*
X210483Y153150D01*
X210644Y152340D01*
X211103Y151654D01*
X211789Y151195D01*
X212598Y151034D01*
X213408Y151195D01*
X214094Y151654D01*
X214553Y152340D01*
X214714Y153150D01*
X214553Y153959D01*
X214094Y154646D01*
X213408Y155104D01*
X212598Y155265D01*
D02*
G37*
G36*
X207480D02*
X206671Y155104D01*
X205984Y154646D01*
X205526Y153959D01*
X205365Y153150D01*
X205526Y152340D01*
X205984Y151654D01*
X206671Y151195D01*
X207480Y151034D01*
X208290Y151195D01*
X208976Y151654D01*
X209435Y152340D01*
X209596Y153150D01*
X209435Y153959D01*
X208976Y154646D01*
X208290Y155104D01*
X207480Y155265D01*
D02*
G37*
G36*
X202362D02*
X201553Y155104D01*
X200866Y154646D01*
X200408Y153959D01*
X200247Y153150D01*
X200408Y152340D01*
X200866Y151654D01*
X201553Y151195D01*
X202362Y151034D01*
X203172Y151195D01*
X203858Y151654D01*
X204317Y152340D01*
X204478Y153150D01*
X204317Y153959D01*
X203858Y154646D01*
X203172Y155104D01*
X202362Y155265D01*
D02*
G37*
G36*
X197244D02*
X196434Y155104D01*
X195748Y154646D01*
X195290Y153959D01*
X195129Y153150D01*
X195290Y152340D01*
X195748Y151654D01*
X196434Y151195D01*
X197244Y151034D01*
X198054Y151195D01*
X198740Y151654D01*
X199198Y152340D01*
X199360Y153150D01*
X199198Y153959D01*
X198740Y154646D01*
X198054Y155104D01*
X197244Y155265D01*
D02*
G37*
G36*
X192126D02*
X191316Y155104D01*
X190630Y154646D01*
X190172Y153959D01*
X190010Y153150D01*
X190172Y152340D01*
X190630Y151654D01*
X191316Y151195D01*
X192126Y151034D01*
X192936Y151195D01*
X193622Y151654D01*
X194080Y152340D01*
X194241Y153150D01*
X194080Y153959D01*
X193622Y154646D01*
X192936Y155104D01*
X192126Y155265D01*
D02*
G37*
G36*
X187008D02*
X186198Y155104D01*
X185512Y154646D01*
X185054Y153959D01*
X184892Y153150D01*
X185054Y152340D01*
X185512Y151654D01*
X186198Y151195D01*
X187008Y151034D01*
X187817Y151195D01*
X188504Y151654D01*
X188962Y152340D01*
X189123Y153150D01*
X188962Y153959D01*
X188504Y154646D01*
X187817Y155104D01*
X187008Y155265D01*
D02*
G37*
G36*
X181890D02*
X181080Y155104D01*
X180394Y154646D01*
X179935Y153959D01*
X179774Y153150D01*
X179935Y152340D01*
X180394Y151654D01*
X181080Y151195D01*
X181890Y151034D01*
X182699Y151195D01*
X183386Y151654D01*
X183844Y152340D01*
X184005Y153150D01*
X183844Y153959D01*
X183386Y154646D01*
X182699Y155104D01*
X181890Y155265D01*
D02*
G37*
G36*
X173622Y154084D02*
X172812Y153923D01*
X172126Y153464D01*
X171668Y152778D01*
X171507Y151969D01*
X171668Y151159D01*
X172126Y150473D01*
X172812Y150014D01*
X173622Y149853D01*
X174432Y150014D01*
X175118Y150473D01*
X175576Y151159D01*
X175738Y151969D01*
X175576Y152778D01*
X175118Y153464D01*
X174432Y153923D01*
X173622Y154084D01*
D02*
G37*
G36*
X168504D02*
X167694Y153923D01*
X167008Y153464D01*
X166550Y152778D01*
X166388Y151969D01*
X166550Y151159D01*
X167008Y150473D01*
X167694Y150014D01*
X168504Y149853D01*
X169314Y150014D01*
X170000Y150473D01*
X170458Y151159D01*
X170619Y151969D01*
X170458Y152778D01*
X170000Y153464D01*
X169314Y153923D01*
X168504Y154084D01*
D02*
G37*
G36*
X163386D02*
X162576Y153923D01*
X161890Y153464D01*
X161431Y152778D01*
X161270Y151969D01*
X161431Y151159D01*
X161890Y150473D01*
X162576Y150014D01*
X163386Y149853D01*
X164195Y150014D01*
X164882Y150473D01*
X165340Y151159D01*
X165501Y151969D01*
X165340Y152778D01*
X164882Y153464D01*
X164195Y153923D01*
X163386Y154084D01*
D02*
G37*
G36*
X233071Y150541D02*
X232261Y150380D01*
X231575Y149921D01*
X231116Y149235D01*
X230955Y148425D01*
X231116Y147616D01*
X231575Y146929D01*
X232261Y146471D01*
X233071Y146310D01*
X233880Y146471D01*
X234567Y146929D01*
X235025Y147616D01*
X235186Y148425D01*
X235025Y149235D01*
X234567Y149921D01*
X233880Y150380D01*
X233071Y150541D01*
D02*
G37*
G36*
X227953D02*
X227143Y150380D01*
X226457Y149921D01*
X225998Y149235D01*
X225837Y148425D01*
X225998Y147616D01*
X226457Y146929D01*
X227143Y146471D01*
X227953Y146310D01*
X228762Y146471D01*
X229449Y146929D01*
X229907Y147616D01*
X230068Y148425D01*
X229907Y149235D01*
X229449Y149921D01*
X228762Y150380D01*
X227953Y150541D01*
D02*
G37*
G36*
X222835D02*
X222025Y150380D01*
X221339Y149921D01*
X220880Y149235D01*
X220719Y148425D01*
X220880Y147616D01*
X221339Y146929D01*
X222025Y146471D01*
X222835Y146310D01*
X223644Y146471D01*
X224330Y146929D01*
X224789Y147616D01*
X224950Y148425D01*
X224789Y149235D01*
X224330Y149921D01*
X223644Y150380D01*
X222835Y150541D01*
D02*
G37*
G36*
X217717D02*
X216907Y150380D01*
X216221Y149921D01*
X215762Y149235D01*
X215601Y148425D01*
X215762Y147616D01*
X216221Y146929D01*
X216907Y146471D01*
X217717Y146310D01*
X218526Y146471D01*
X219212Y146929D01*
X219671Y147616D01*
X219832Y148425D01*
X219671Y149235D01*
X219212Y149921D01*
X218526Y150380D01*
X217717Y150541D01*
D02*
G37*
G36*
X212598D02*
X211789Y150380D01*
X211103Y149921D01*
X210644Y149235D01*
X210483Y148425D01*
X210644Y147616D01*
X211103Y146929D01*
X211789Y146471D01*
X212598Y146310D01*
X213408Y146471D01*
X214094Y146929D01*
X214553Y147616D01*
X214714Y148425D01*
X214553Y149235D01*
X214094Y149921D01*
X213408Y150380D01*
X212598Y150541D01*
D02*
G37*
G36*
X207480D02*
X206671Y150380D01*
X205984Y149921D01*
X205526Y149235D01*
X205365Y148425D01*
X205526Y147616D01*
X205984Y146929D01*
X206671Y146471D01*
X207480Y146310D01*
X208290Y146471D01*
X208976Y146929D01*
X209435Y147616D01*
X209596Y148425D01*
X209435Y149235D01*
X208976Y149921D01*
X208290Y150380D01*
X207480Y150541D01*
D02*
G37*
G36*
X202362D02*
X201553Y150380D01*
X200866Y149921D01*
X200408Y149235D01*
X200247Y148425D01*
X200408Y147616D01*
X200866Y146929D01*
X201553Y146471D01*
X202362Y146310D01*
X203172Y146471D01*
X203858Y146929D01*
X204317Y147616D01*
X204478Y148425D01*
X204317Y149235D01*
X203858Y149921D01*
X203172Y150380D01*
X202362Y150541D01*
D02*
G37*
G36*
X197244D02*
X196435Y150380D01*
X195748Y149921D01*
X195290Y149235D01*
X195129Y148425D01*
X195290Y147616D01*
X195748Y146929D01*
X196435Y146471D01*
X197244Y146310D01*
X198054Y146471D01*
X198740Y146929D01*
X199198Y147616D01*
X199360Y148425D01*
X199198Y149235D01*
X198740Y149921D01*
X198054Y150380D01*
X197244Y150541D01*
D02*
G37*
G36*
X192126D02*
X191316Y150380D01*
X190630Y149921D01*
X190172Y149235D01*
X190011Y148425D01*
X190172Y147616D01*
X190630Y146929D01*
X191316Y146471D01*
X192126Y146310D01*
X192936Y146471D01*
X193622Y146929D01*
X194080Y147616D01*
X194241Y148425D01*
X194080Y149235D01*
X193622Y149921D01*
X192936Y150380D01*
X192126Y150541D01*
D02*
G37*
G36*
X187008D02*
X186198Y150380D01*
X185512Y149921D01*
X185054Y149235D01*
X184892Y148425D01*
X185054Y147616D01*
X185512Y146929D01*
X186198Y146471D01*
X187008Y146310D01*
X187818Y146471D01*
X188504Y146929D01*
X188962Y147616D01*
X189123Y148425D01*
X188962Y149235D01*
X188504Y149921D01*
X187818Y150380D01*
X187008Y150541D01*
D02*
G37*
G36*
X181890D02*
X181080Y150380D01*
X180394Y149921D01*
X179935Y149235D01*
X179774Y148425D01*
X179935Y147616D01*
X180394Y146929D01*
X181080Y146471D01*
X181890Y146310D01*
X182699Y146471D01*
X183386Y146929D01*
X183844Y147616D01*
X184005Y148425D01*
X183844Y149235D01*
X183386Y149921D01*
X182699Y150380D01*
X181890Y150541D01*
D02*
G37*
G36*
X173622Y149360D02*
X172812Y149198D01*
X172126Y148740D01*
X171668Y148054D01*
X171507Y147244D01*
X171668Y146434D01*
X172126Y145748D01*
X172812Y145290D01*
X173622Y145129D01*
X174432Y145290D01*
X175118Y145748D01*
X175576Y146434D01*
X175738Y147244D01*
X175576Y148054D01*
X175118Y148740D01*
X174432Y149198D01*
X173622Y149360D01*
D02*
G37*
G36*
X168504D02*
X167694Y149198D01*
X167008Y148740D01*
X166550Y148054D01*
X166388Y147244D01*
X166550Y146434D01*
X167008Y145748D01*
X167694Y145290D01*
X168504Y145129D01*
X169314Y145290D01*
X170000Y145748D01*
X170458Y146434D01*
X170619Y147244D01*
X170458Y148054D01*
X170000Y148740D01*
X169314Y149198D01*
X168504Y149360D01*
D02*
G37*
G36*
X163386D02*
X162576Y149198D01*
X161890Y148740D01*
X161431Y148054D01*
X161270Y147244D01*
X161431Y146434D01*
X161890Y145748D01*
X162576Y145290D01*
X163386Y145129D01*
X164195Y145290D01*
X164882Y145748D01*
X165340Y146434D01*
X165501Y147244D01*
X165340Y148054D01*
X164882Y148740D01*
X164195Y149198D01*
X163386Y149360D01*
D02*
G37*
G36*
X285827Y148572D02*
X285017Y148411D01*
X284331Y147952D01*
X283872Y147266D01*
X283711Y146457D01*
X283872Y145647D01*
X284331Y144961D01*
X285017Y144502D01*
X285827Y144341D01*
X286636Y144502D01*
X287323Y144961D01*
X287781Y145647D01*
X287942Y146457D01*
X287781Y147266D01*
X287323Y147952D01*
X286636Y148411D01*
X285827Y148572D01*
D02*
G37*
G36*
X274803D02*
X273993Y148411D01*
X273307Y147952D01*
X272849Y147266D01*
X272688Y146457D01*
X272849Y145647D01*
X273307Y144961D01*
X273993Y144502D01*
X274803Y144341D01*
X275613Y144502D01*
X276299Y144961D01*
X276758Y145647D01*
X276919Y146457D01*
X276758Y147266D01*
X276299Y147952D01*
X275613Y148411D01*
X274803Y148572D01*
D02*
G37*
G36*
X263779D02*
X262970Y148411D01*
X262284Y147952D01*
X261825Y147266D01*
X261664Y146457D01*
X261825Y145647D01*
X262284Y144961D01*
X262970Y144502D01*
X263779Y144341D01*
X264589Y144502D01*
X265275Y144961D01*
X265734Y145647D01*
X265895Y146457D01*
X265734Y147266D01*
X265275Y147952D01*
X264589Y148411D01*
X263779Y148572D01*
D02*
G37*
G36*
X32283D02*
X31474Y148411D01*
X30788Y147952D01*
X30329Y147266D01*
X30168Y146457D01*
X30329Y145647D01*
X30788Y144961D01*
X31474Y144502D01*
X32283Y144341D01*
X33093Y144502D01*
X33779Y144961D01*
X34238Y145647D01*
X34399Y146457D01*
X34238Y147266D01*
X33779Y147952D01*
X33093Y148411D01*
X32283Y148572D01*
D02*
G37*
G36*
X21260D02*
X20450Y148411D01*
X19764Y147952D01*
X19305Y147266D01*
X19144Y146457D01*
X19305Y145647D01*
X19764Y144961D01*
X20450Y144502D01*
X21260Y144341D01*
X22069Y144502D01*
X22756Y144961D01*
X23214Y145647D01*
X23375Y146457D01*
X23214Y147266D01*
X22756Y147952D01*
X22069Y148411D01*
X21260Y148572D01*
D02*
G37*
G36*
X10236D02*
X9427Y148411D01*
X8740Y147952D01*
X8282Y147266D01*
X8121Y146457D01*
X8282Y145647D01*
X8740Y144961D01*
X9427Y144502D01*
X10236Y144341D01*
X11046Y144502D01*
X11732Y144961D01*
X12191Y145647D01*
X12352Y146457D01*
X12191Y147266D01*
X11732Y147952D01*
X11046Y148411D01*
X10236Y148572D01*
D02*
G37*
G36*
X72441Y147383D02*
X71785Y147253D01*
X71229Y146881D01*
X70857Y146325D01*
X70727Y145669D01*
X70857Y145013D01*
X71229Y144457D01*
X71785Y144086D01*
X72441Y143955D01*
X73097Y144086D01*
X73653Y144457D01*
X74024Y145013D01*
X74155Y145669D01*
X74024Y146325D01*
X73653Y146881D01*
X73097Y147253D01*
X72441Y147383D01*
D02*
G37*
G36*
X173622Y144635D02*
X172812Y144474D01*
X172126Y144016D01*
X171668Y143329D01*
X171507Y142520D01*
X171668Y141710D01*
X172126Y141024D01*
X172812Y140565D01*
X173622Y140404D01*
X174432Y140565D01*
X175118Y141024D01*
X175576Y141710D01*
X175738Y142520D01*
X175576Y143329D01*
X175118Y144016D01*
X174432Y144474D01*
X173622Y144635D01*
D02*
G37*
G36*
X168504D02*
X167694Y144474D01*
X167008Y144016D01*
X166550Y143329D01*
X166388Y142520D01*
X166550Y141710D01*
X167008Y141024D01*
X167694Y140565D01*
X168504Y140404D01*
X169314Y140565D01*
X170000Y141024D01*
X170458Y141710D01*
X170619Y142520D01*
X170458Y143329D01*
X170000Y144016D01*
X169314Y144474D01*
X168504Y144635D01*
D02*
G37*
G36*
X163386D02*
X162576Y144474D01*
X161890Y144016D01*
X161431Y143329D01*
X161270Y142520D01*
X161431Y141710D01*
X161890Y141024D01*
X162576Y140565D01*
X163386Y140404D01*
X164195Y140565D01*
X164882Y141024D01*
X165340Y141710D01*
X165501Y142520D01*
X165340Y143329D01*
X164882Y144016D01*
X164195Y144474D01*
X163386Y144635D01*
D02*
G37*
G36*
X173622Y139911D02*
X172812Y139750D01*
X172126Y139291D01*
X171668Y138605D01*
X171507Y137795D01*
X171668Y136986D01*
X172126Y136299D01*
X172812Y135841D01*
X173622Y135680D01*
X174432Y135841D01*
X175118Y136299D01*
X175576Y136986D01*
X175738Y137795D01*
X175576Y138605D01*
X175118Y139291D01*
X174432Y139750D01*
X173622Y139911D01*
D02*
G37*
G36*
X168504D02*
X167694Y139750D01*
X167008Y139291D01*
X166550Y138605D01*
X166388Y137795D01*
X166550Y136986D01*
X167008Y136299D01*
X167694Y135841D01*
X168504Y135680D01*
X169314Y135841D01*
X170000Y136299D01*
X170458Y136986D01*
X170619Y137795D01*
X170458Y138605D01*
X170000Y139291D01*
X169314Y139750D01*
X168504Y139911D01*
D02*
G37*
G36*
X163386D02*
X162576Y139750D01*
X161890Y139291D01*
X161431Y138605D01*
X161270Y137795D01*
X161431Y136986D01*
X161890Y136299D01*
X162576Y135841D01*
X163386Y135680D01*
X164195Y135841D01*
X164882Y136299D01*
X165340Y136986D01*
X165501Y137795D01*
X165340Y138605D01*
X164882Y139291D01*
X164195Y139750D01*
X163386Y139911D01*
D02*
G37*
G36*
X285827Y137548D02*
X285017Y137387D01*
X284331Y136929D01*
X283872Y136243D01*
X283711Y135433D01*
X283872Y134624D01*
X284331Y133937D01*
X285017Y133479D01*
X285827Y133318D01*
X286636Y133479D01*
X287323Y133937D01*
X287781Y134624D01*
X287942Y135433D01*
X287781Y136243D01*
X287323Y136929D01*
X286636Y137387D01*
X285827Y137548D01*
D02*
G37*
G36*
X274803D02*
X273993Y137387D01*
X273307Y136929D01*
X272849Y136243D01*
X272688Y135433D01*
X272849Y134624D01*
X273307Y133937D01*
X273993Y133479D01*
X274803Y133318D01*
X275613Y133479D01*
X276299Y133937D01*
X276758Y134624D01*
X276919Y135433D01*
X276758Y136243D01*
X276299Y136929D01*
X275613Y137387D01*
X274803Y137548D01*
D02*
G37*
G36*
X263779D02*
X262970Y137387D01*
X262284Y136929D01*
X261825Y136243D01*
X261664Y135433D01*
X261825Y134624D01*
X262284Y133937D01*
X262970Y133479D01*
X263779Y133318D01*
X264589Y133479D01*
X265275Y133937D01*
X265734Y134624D01*
X265895Y135433D01*
X265734Y136243D01*
X265275Y136929D01*
X264589Y137387D01*
X263779Y137548D01*
D02*
G37*
G36*
X32283D02*
X31474Y137387D01*
X30788Y136929D01*
X30329Y136243D01*
X30168Y135433D01*
X30329Y134624D01*
X30788Y133937D01*
X31474Y133479D01*
X32283Y133318D01*
X33093Y133479D01*
X33779Y133937D01*
X34238Y134624D01*
X34399Y135433D01*
X34238Y136243D01*
X33779Y136929D01*
X33093Y137387D01*
X32283Y137548D01*
D02*
G37*
G36*
X21260D02*
X20450Y137387D01*
X19764Y136929D01*
X19305Y136243D01*
X19144Y135433D01*
X19305Y134624D01*
X19764Y133937D01*
X20450Y133479D01*
X21260Y133318D01*
X22069Y133479D01*
X22756Y133937D01*
X23214Y134624D01*
X23375Y135433D01*
X23214Y136243D01*
X22756Y136929D01*
X22069Y137387D01*
X21260Y137548D01*
D02*
G37*
G36*
X10236D02*
X9427Y137387D01*
X8740Y136929D01*
X8282Y136243D01*
X8121Y135433D01*
X8282Y134624D01*
X8740Y133937D01*
X9427Y133479D01*
X10236Y133318D01*
X11046Y133479D01*
X11732Y133937D01*
X12191Y134624D01*
X12352Y135433D01*
X12191Y136243D01*
X11732Y136929D01*
X11046Y137387D01*
X10236Y137548D01*
D02*
G37*
G36*
X173622Y135186D02*
X172812Y135025D01*
X172126Y134567D01*
X171668Y133880D01*
X171507Y133071D01*
X171668Y132261D01*
X172126Y131575D01*
X172812Y131116D01*
X173622Y130955D01*
X174432Y131116D01*
X175118Y131575D01*
X175576Y132261D01*
X175738Y133071D01*
X175576Y133880D01*
X175118Y134567D01*
X174432Y135025D01*
X173622Y135186D01*
D02*
G37*
G36*
X168504D02*
X167694Y135025D01*
X167008Y134567D01*
X166550Y133880D01*
X166388Y133071D01*
X166550Y132261D01*
X167008Y131575D01*
X167694Y131116D01*
X168504Y130955D01*
X169314Y131116D01*
X170000Y131575D01*
X170458Y132261D01*
X170619Y133071D01*
X170458Y133880D01*
X170000Y134567D01*
X169314Y135025D01*
X168504Y135186D01*
D02*
G37*
G36*
X163386D02*
X162576Y135025D01*
X161890Y134567D01*
X161431Y133880D01*
X161270Y133071D01*
X161431Y132261D01*
X161890Y131575D01*
X162576Y131116D01*
X163386Y130955D01*
X164195Y131116D01*
X164882Y131575D01*
X165340Y132261D01*
X165501Y133071D01*
X165340Y133880D01*
X164882Y134567D01*
X164195Y135025D01*
X163386Y135186D01*
D02*
G37*
G36*
X81102Y130848D02*
X80446Y130717D01*
X79890Y130346D01*
X79519Y129790D01*
X79388Y129134D01*
X79519Y128478D01*
X79890Y127922D01*
X80446Y127550D01*
X81102Y127420D01*
X81758Y127550D01*
X82314Y127922D01*
X82686Y128478D01*
X82816Y129134D01*
X82686Y129790D01*
X82314Y130346D01*
X81758Y130717D01*
X81102Y130848D01*
D02*
G37*
G36*
X285827Y126525D02*
X285017Y126364D01*
X284331Y125905D01*
X283872Y125219D01*
X283711Y124409D01*
X283872Y123600D01*
X284331Y122914D01*
X285017Y122455D01*
X285827Y122294D01*
X286636Y122455D01*
X287323Y122914D01*
X287781Y123600D01*
X287942Y124409D01*
X287781Y125219D01*
X287323Y125905D01*
X286636Y126364D01*
X285827Y126525D01*
D02*
G37*
G36*
X274803D02*
X273993Y126364D01*
X273307Y125905D01*
X272849Y125219D01*
X272688Y124409D01*
X272849Y123600D01*
X273307Y122914D01*
X273993Y122455D01*
X274803Y122294D01*
X275613Y122455D01*
X276299Y122914D01*
X276758Y123600D01*
X276919Y124409D01*
X276758Y125219D01*
X276299Y125905D01*
X275613Y126364D01*
X274803Y126525D01*
D02*
G37*
G36*
X263779D02*
X262970Y126364D01*
X262284Y125905D01*
X261825Y125219D01*
X261664Y124409D01*
X261825Y123600D01*
X262284Y122914D01*
X262970Y122455D01*
X263779Y122294D01*
X264589Y122455D01*
X265275Y122914D01*
X265734Y123600D01*
X265895Y124409D01*
X265734Y125219D01*
X265275Y125905D01*
X264589Y126364D01*
X263779Y126525D01*
D02*
G37*
G36*
X32283D02*
X31474Y126364D01*
X30788Y125905D01*
X30329Y125219D01*
X30168Y124409D01*
X30329Y123600D01*
X30788Y122914D01*
X31474Y122455D01*
X32283Y122294D01*
X33093Y122455D01*
X33779Y122914D01*
X34238Y123600D01*
X34399Y124409D01*
X34238Y125219D01*
X33779Y125905D01*
X33093Y126364D01*
X32283Y126525D01*
D02*
G37*
G36*
X21260D02*
X20450Y126364D01*
X19764Y125905D01*
X19305Y125219D01*
X19144Y124409D01*
X19305Y123600D01*
X19764Y122914D01*
X20450Y122455D01*
X21260Y122294D01*
X22069Y122455D01*
X22756Y122914D01*
X23214Y123600D01*
X23375Y124409D01*
X23214Y125219D01*
X22756Y125905D01*
X22069Y126364D01*
X21260Y126525D01*
D02*
G37*
G36*
X10236D02*
X9427Y126364D01*
X8740Y125905D01*
X8282Y125219D01*
X8121Y124409D01*
X8282Y123600D01*
X8740Y122914D01*
X9427Y122455D01*
X10236Y122294D01*
X11046Y122455D01*
X11732Y122914D01*
X12191Y123600D01*
X12352Y124409D01*
X12191Y125219D01*
X11732Y125905D01*
X11046Y126364D01*
X10236Y126525D01*
D02*
G37*
G36*
X195974Y119913D02*
X195318Y119782D01*
X194762Y119411D01*
X194391Y118855D01*
X194260Y118199D01*
X194391Y117543D01*
X194762Y116987D01*
X195318Y116615D01*
X195974Y116485D01*
X196630Y116615D01*
X197186Y116987D01*
X197558Y117543D01*
X197688Y118199D01*
X197558Y118855D01*
X197186Y119411D01*
X196630Y119782D01*
X195974Y119913D01*
D02*
G37*
G36*
X139764Y119824D02*
X139108Y119694D01*
X138552Y119322D01*
X138180Y118766D01*
X138050Y118110D01*
X138180Y117454D01*
X138552Y116898D01*
X139108Y116527D01*
X139764Y116396D01*
X140420Y116527D01*
X140976Y116898D01*
X141347Y117454D01*
X141478Y118110D01*
X141347Y118766D01*
X140976Y119322D01*
X140420Y119694D01*
X139764Y119824D01*
D02*
G37*
G36*
X274803Y115501D02*
X273993Y115340D01*
X273307Y114882D01*
X272849Y114195D01*
X272688Y113386D01*
X272849Y112576D01*
X273307Y111890D01*
X273993Y111431D01*
X274803Y111270D01*
X275613Y111431D01*
X276299Y111890D01*
X276758Y112576D01*
X276919Y113386D01*
X276758Y114195D01*
X276299Y114882D01*
X275613Y115340D01*
X274803Y115501D01*
D02*
G37*
G36*
X21260D02*
X20450Y115340D01*
X19764Y114882D01*
X19305Y114195D01*
X19144Y113386D01*
X19305Y112576D01*
X19764Y111890D01*
X20450Y111431D01*
X21260Y111270D01*
X22069Y111431D01*
X22756Y111890D01*
X23214Y112576D01*
X23375Y113386D01*
X23214Y114195D01*
X22756Y114882D01*
X22069Y115340D01*
X21260Y115501D01*
D02*
G37*
G36*
X125000Y118110D02*
X123031Y116142D01*
Y112205D01*
X125000Y110236D01*
X130905Y110236D01*
X132874Y112205D01*
Y116142D01*
X130906Y118110D01*
X125000Y118110D01*
D02*
G37*
G36*
X267248Y113629D02*
Y109768D01*
X271110D01*
X270576Y111055D01*
X269690Y112210D01*
X268536Y113096D01*
X267248Y113629D01*
D02*
G37*
G36*
X264248Y113629D02*
X262960Y113096D01*
X261806Y112210D01*
X260920Y111055D01*
X260386Y109768D01*
X264248D01*
Y113629D01*
D02*
G37*
G36*
X29528Y113339D02*
X28215Y113166D01*
X26992Y112659D01*
X25942Y111853D01*
X25136Y110803D01*
X24629Y109580D01*
X24457Y108268D01*
X24629Y106955D01*
X25136Y105732D01*
X25942Y104682D01*
X26992Y103876D01*
X28215Y103370D01*
X29528Y103197D01*
X30840Y103370D01*
X32063Y103876D01*
X33113Y104682D01*
X33919Y105732D01*
X34426Y106955D01*
X34598Y108268D01*
X34426Y109580D01*
X33919Y110803D01*
X33113Y111853D01*
X32063Y112659D01*
X30840Y113166D01*
X29528Y113339D01*
D02*
G37*
G36*
X271110Y106768D02*
X267248D01*
Y102906D01*
X268536Y103439D01*
X269690Y104325D01*
X270576Y105480D01*
X271110Y106768D01*
D02*
G37*
G36*
X264248D02*
X260386D01*
X260920Y105480D01*
X261806Y104325D01*
X262960Y103439D01*
X264248Y102906D01*
Y106768D01*
D02*
G37*
G36*
X181102Y110236D02*
X177165D01*
X175197Y108268D01*
X175197Y102362D01*
X177165Y100394D01*
X181102D01*
X183071Y102362D01*
X183071Y108268D01*
X181102Y110236D01*
D02*
G37*
G36*
X274803Y104478D02*
X273993Y104317D01*
X273307Y103858D01*
X272849Y103172D01*
X272688Y102362D01*
X272849Y101553D01*
X273307Y100866D01*
X273993Y100408D01*
X274803Y100247D01*
X275613Y100408D01*
X276299Y100866D01*
X276758Y101553D01*
X276919Y102362D01*
X276758Y103172D01*
X276299Y103858D01*
X275613Y104317D01*
X274803Y104478D01*
D02*
G37*
G36*
X21260D02*
X20450Y104317D01*
X19764Y103858D01*
X19305Y103172D01*
X19144Y102362D01*
X19305Y101553D01*
X19764Y100866D01*
X20450Y100408D01*
X21260Y100247D01*
X22069Y100408D01*
X22756Y100866D01*
X23214Y101553D01*
X23375Y102362D01*
X23214Y103172D01*
X22756Y103858D01*
X22069Y104317D01*
X21260Y104478D01*
D02*
G37*
G36*
X31028Y93944D02*
Y90083D01*
X34889D01*
X34356Y91370D01*
X33470Y92525D01*
X32315Y93411D01*
X31028Y93944D01*
D02*
G37*
G36*
X28028D02*
X26740Y93411D01*
X25585Y92525D01*
X24699Y91370D01*
X24166Y90083D01*
X28028D01*
Y93944D01*
D02*
G37*
G36*
X274803Y93454D02*
X273993Y93293D01*
X273307Y92834D01*
X272849Y92148D01*
X272688Y91338D01*
X272849Y90529D01*
X273307Y89843D01*
X273993Y89384D01*
X274803Y89223D01*
X275613Y89384D01*
X276299Y89843D01*
X276758Y90529D01*
X276919Y91338D01*
X276758Y92148D01*
X276299Y92834D01*
X275613Y93293D01*
X274803Y93454D01*
D02*
G37*
G36*
X265748Y93654D02*
X264436Y93481D01*
X263213Y92974D01*
X262162Y92168D01*
X261356Y91118D01*
X260850Y89895D01*
X260677Y88583D01*
X260850Y87270D01*
X261356Y86047D01*
X262162Y84997D01*
X263213Y84191D01*
X264436Y83684D01*
X265748Y83512D01*
X267060Y83684D01*
X268284Y84191D01*
X269334Y84997D01*
X270140Y86047D01*
X270646Y87270D01*
X270819Y88583D01*
X270646Y89895D01*
X270140Y91118D01*
X269334Y92168D01*
X268284Y92974D01*
X267060Y93481D01*
X265748Y93654D01*
D02*
G37*
G36*
X34889Y87083D02*
X31028D01*
Y83221D01*
X32315Y83754D01*
X33470Y84640D01*
X34356Y85795D01*
X34889Y87083D01*
D02*
G37*
G36*
X28028D02*
X24166D01*
X24699Y85795D01*
X25585Y84640D01*
X26740Y83754D01*
X28028Y83221D01*
Y87083D01*
D02*
G37*
G36*
X274803Y82430D02*
X273993Y82269D01*
X273307Y81811D01*
X272849Y81125D01*
X272688Y80315D01*
X272849Y79505D01*
X273307Y78819D01*
X273993Y78360D01*
X274803Y78199D01*
X275613Y78360D01*
X276299Y78819D01*
X276758Y79505D01*
X276919Y80315D01*
X276758Y81125D01*
X276299Y81811D01*
X275613Y82269D01*
X274803Y82430D01*
D02*
G37*
G36*
X263779D02*
X262970Y82269D01*
X262284Y81811D01*
X261825Y81125D01*
X261664Y80315D01*
X261825Y79505D01*
X262284Y78819D01*
X262970Y78360D01*
X263779Y78199D01*
X264589Y78360D01*
X265275Y78819D01*
X265734Y79505D01*
X265895Y80315D01*
X265734Y81125D01*
X265275Y81811D01*
X264589Y82269D01*
X263779Y82430D01*
D02*
G37*
G36*
X21260D02*
X20450Y82269D01*
X19764Y81811D01*
X19305Y81125D01*
X19144Y80315D01*
X19305Y79505D01*
X19764Y78819D01*
X20450Y78360D01*
X21260Y78199D01*
X22069Y78360D01*
X22756Y78819D01*
X23214Y79505D01*
X23375Y80315D01*
X23214Y81125D01*
X22756Y81811D01*
X22069Y82269D01*
X21260Y82430D01*
D02*
G37*
G36*
X143307Y74549D02*
X142651Y74418D01*
X142095Y74047D01*
X141724Y73491D01*
X141593Y72835D01*
X141724Y72179D01*
X142095Y71623D01*
X142651Y71251D01*
X143307Y71121D01*
X143963Y71251D01*
X144519Y71623D01*
X144891Y72179D01*
X145021Y72835D01*
X144891Y73491D01*
X144519Y74047D01*
X143963Y74418D01*
X143307Y74549D01*
D02*
G37*
G36*
X258661Y74556D02*
X257852Y74395D01*
X257166Y73937D01*
X256707Y73251D01*
X256546Y72441D01*
X256707Y71631D01*
X257166Y70945D01*
X257852Y70486D01*
X258661Y70325D01*
X259471Y70486D01*
X260157Y70945D01*
X260616Y71631D01*
X260777Y72441D01*
X260616Y73251D01*
X260157Y73937D01*
X259471Y74395D01*
X258661Y74556D01*
D02*
G37*
G36*
X253543Y74556D02*
X252734Y74395D01*
X252047Y73937D01*
X251589Y73251D01*
X251428Y72441D01*
X251589Y71631D01*
X252047Y70945D01*
X252734Y70486D01*
X253543Y70325D01*
X254353Y70486D01*
X255039Y70945D01*
X255498Y71631D01*
X255659Y72441D01*
X255498Y73251D01*
X255039Y73937D01*
X254353Y74395D01*
X253543Y74556D01*
D02*
G37*
G36*
X248425Y74556D02*
X247616Y74395D01*
X246929Y73937D01*
X246471Y73251D01*
X246310Y72441D01*
X246471Y71631D01*
X246929Y70945D01*
X247616Y70486D01*
X248425Y70325D01*
X249235Y70486D01*
X249921Y70945D01*
X250380Y71631D01*
X250541Y72441D01*
X250380Y73251D01*
X249921Y73937D01*
X249235Y74395D01*
X248425Y74556D01*
D02*
G37*
G36*
X243307D02*
X242497Y74395D01*
X241811Y73937D01*
X241353Y73251D01*
X241192Y72441D01*
X241353Y71631D01*
X241811Y70945D01*
X242497Y70486D01*
X243307Y70325D01*
X244117Y70486D01*
X244803Y70945D01*
X245262Y71631D01*
X245423Y72441D01*
X245262Y73251D01*
X244803Y73937D01*
X244117Y74395D01*
X243307Y74556D01*
D02*
G37*
G36*
X238189D02*
X237379Y74395D01*
X236693Y73937D01*
X236235Y73251D01*
X236073Y72441D01*
X236235Y71631D01*
X236693Y70945D01*
X237379Y70486D01*
X238189Y70325D01*
X238999Y70486D01*
X239685Y70945D01*
X240143Y71631D01*
X240304Y72441D01*
X240143Y73251D01*
X239685Y73937D01*
X238999Y74395D01*
X238189Y74556D01*
D02*
G37*
G36*
X278232Y74556D02*
Y69413D01*
X280735D01*
Y70882D01*
X280599Y71918D01*
X280199Y72883D01*
X279563Y73712D01*
X278734Y74348D01*
X278232Y74556D01*
D02*
G37*
G36*
X275232Y74556D02*
X274731Y74348D01*
X273902Y73712D01*
X273266Y72883D01*
X272866Y71918D01*
X272729Y70882D01*
Y69413D01*
X275232D01*
Y74556D01*
D02*
G37*
G36*
X285827Y71407D02*
X285017Y71246D01*
X284331Y70787D01*
X283872Y70101D01*
X283711Y69291D01*
X283872Y68482D01*
X284331Y67795D01*
X285017Y67337D01*
X285827Y67176D01*
X286636Y67337D01*
X287323Y67795D01*
X287781Y68482D01*
X287942Y69291D01*
X287781Y70101D01*
X287323Y70787D01*
X286636Y71246D01*
X285827Y71407D01*
D02*
G37*
G36*
X54331D02*
X53521Y71246D01*
X52835Y70787D01*
X52376Y70101D01*
X52215Y69291D01*
X52376Y68482D01*
X52835Y67795D01*
X53521Y67337D01*
X54331Y67176D01*
X55140Y67337D01*
X55826Y67795D01*
X56285Y68482D01*
X56446Y69291D01*
X56285Y70101D01*
X55826Y70787D01*
X55140Y71246D01*
X54331Y71407D01*
D02*
G37*
G36*
X32283D02*
X31474Y71246D01*
X30788Y70787D01*
X30329Y70101D01*
X30168Y69291D01*
X30329Y68482D01*
X30788Y67795D01*
X31474Y67337D01*
X32283Y67176D01*
X33093Y67337D01*
X33779Y67795D01*
X34238Y68482D01*
X34399Y69291D01*
X34238Y70101D01*
X33779Y70787D01*
X33093Y71246D01*
X32283Y71407D01*
D02*
G37*
G36*
X21260D02*
X20450Y71246D01*
X19764Y70787D01*
X19305Y70101D01*
X19144Y69291D01*
X19305Y68482D01*
X19764Y67795D01*
X20450Y67337D01*
X21260Y67176D01*
X22069Y67337D01*
X22756Y67795D01*
X23214Y68482D01*
X23375Y69291D01*
X23214Y70101D01*
X22756Y70787D01*
X22069Y71246D01*
X21260Y71407D01*
D02*
G37*
G36*
X10236D02*
X9427Y71246D01*
X8740Y70787D01*
X8282Y70101D01*
X8121Y69291D01*
X8282Y68482D01*
X8740Y67795D01*
X9427Y67337D01*
X10236Y67176D01*
X11046Y67337D01*
X11732Y67795D01*
X12191Y68482D01*
X12352Y69291D01*
X12191Y70101D01*
X11732Y70787D01*
X11046Y71246D01*
X10236Y71407D01*
D02*
G37*
G36*
X258661Y69438D02*
X257852Y69277D01*
X257166Y68819D01*
X256707Y68132D01*
X256546Y67323D01*
X256707Y66513D01*
X257166Y65827D01*
X257852Y65368D01*
X258661Y65207D01*
X259471Y65368D01*
X260157Y65827D01*
X260616Y66513D01*
X260777Y67323D01*
X260616Y68132D01*
X260157Y68819D01*
X259471Y69277D01*
X258661Y69438D01*
D02*
G37*
G36*
X253543Y69438D02*
X252734Y69277D01*
X252047Y68819D01*
X251589Y68132D01*
X251428Y67323D01*
X251589Y66513D01*
X252047Y65827D01*
X252734Y65368D01*
X253543Y65207D01*
X254353Y65368D01*
X255039Y65827D01*
X255498Y66513D01*
X255659Y67323D01*
X255498Y68132D01*
X255039Y68819D01*
X254353Y69277D01*
X253543Y69438D01*
D02*
G37*
G36*
X248425Y69438D02*
X247616Y69277D01*
X246929Y68819D01*
X246471Y68132D01*
X246310Y67323D01*
X246471Y66513D01*
X246929Y65827D01*
X247616Y65368D01*
X248425Y65207D01*
X249235Y65368D01*
X249921Y65827D01*
X250380Y66513D01*
X250541Y67323D01*
X250380Y68132D01*
X249921Y68819D01*
X249235Y69277D01*
X248425Y69438D01*
D02*
G37*
G36*
X243307D02*
X242497Y69277D01*
X241811Y68819D01*
X241353Y68132D01*
X241192Y67323D01*
X241353Y66513D01*
X241811Y65827D01*
X242497Y65368D01*
X243307Y65207D01*
X244117Y65368D01*
X244803Y65827D01*
X245262Y66513D01*
X245423Y67323D01*
X245262Y68132D01*
X244803Y68819D01*
X244117Y69277D01*
X243307Y69438D01*
D02*
G37*
G36*
X238189D02*
X237379Y69277D01*
X236693Y68819D01*
X236235Y68132D01*
X236073Y67323D01*
X236235Y66513D01*
X236693Y65827D01*
X237379Y65368D01*
X238189Y65207D01*
X238999Y65368D01*
X239685Y65827D01*
X240143Y66513D01*
X240304Y67323D01*
X240143Y68132D01*
X239685Y68819D01*
X238999Y69277D01*
X238189Y69438D01*
D02*
G37*
G36*
X270201Y74350D02*
X263264D01*
Y61476D01*
X270201D01*
Y74350D01*
D02*
G37*
G36*
X280735Y66413D02*
X278232D01*
Y61271D01*
X278734Y61478D01*
X279563Y62115D01*
X280199Y62944D01*
X280599Y63909D01*
X280735Y64945D01*
Y66413D01*
D02*
G37*
G36*
X275232D02*
X272729D01*
Y64945D01*
X272866Y63909D01*
X273266Y62944D01*
X273902Y62115D01*
X274731Y61478D01*
X275232Y61271D01*
Y66413D01*
D02*
G37*
G36*
X233071Y64312D02*
X232415Y64182D01*
X231859Y63810D01*
X231487Y63254D01*
X231357Y62598D01*
X231487Y61942D01*
X231859Y61386D01*
X232415Y61015D01*
X233071Y60884D01*
X233727Y61015D01*
X234283Y61386D01*
X234654Y61942D01*
X234785Y62598D01*
X234654Y63254D01*
X234283Y63810D01*
X233727Y64182D01*
X233071Y64312D01*
D02*
G37*
G36*
X258661Y64320D02*
X257852Y64159D01*
X257166Y63701D01*
X256707Y63014D01*
X256546Y62205D01*
X256707Y61395D01*
X257166Y60709D01*
X257852Y60250D01*
X258661Y60089D01*
X259471Y60250D01*
X260157Y60709D01*
X260616Y61395D01*
X260777Y62205D01*
X260616Y63014D01*
X260157Y63701D01*
X259471Y64159D01*
X258661Y64320D01*
D02*
G37*
G36*
X253543Y64320D02*
X252734Y64159D01*
X252047Y63701D01*
X251589Y63014D01*
X251428Y62205D01*
X251589Y61395D01*
X252047Y60709D01*
X252734Y60250D01*
X253543Y60089D01*
X254353Y60250D01*
X255039Y60709D01*
X255498Y61395D01*
X255659Y62205D01*
X255498Y63014D01*
X255039Y63701D01*
X254353Y64159D01*
X253543Y64320D01*
D02*
G37*
G36*
X248425Y64320D02*
X247616Y64159D01*
X246929Y63701D01*
X246471Y63014D01*
X246310Y62205D01*
X246471Y61395D01*
X246929Y60709D01*
X247616Y60250D01*
X248425Y60089D01*
X249235Y60250D01*
X249921Y60709D01*
X250380Y61395D01*
X250541Y62205D01*
X250380Y63014D01*
X249921Y63701D01*
X249235Y64159D01*
X248425Y64320D01*
D02*
G37*
G36*
X243307D02*
X242497Y64159D01*
X241811Y63701D01*
X241353Y63014D01*
X241192Y62205D01*
X241353Y61395D01*
X241811Y60709D01*
X242497Y60250D01*
X243307Y60089D01*
X244117Y60250D01*
X244803Y60709D01*
X245262Y61395D01*
X245423Y62205D01*
X245262Y63014D01*
X244803Y63701D01*
X244117Y64159D01*
X243307Y64320D01*
D02*
G37*
G36*
X238189D02*
X237379Y64159D01*
X236693Y63701D01*
X236235Y63014D01*
X236073Y62205D01*
X236235Y61395D01*
X236693Y60709D01*
X237379Y60250D01*
X238189Y60089D01*
X238999Y60250D01*
X239685Y60709D01*
X240143Y61395D01*
X240304Y62205D01*
X240143Y63014D01*
X239685Y63701D01*
X238999Y64159D01*
X238189Y64320D01*
D02*
G37*
G36*
X285827Y60383D02*
X285017Y60222D01*
X284331Y59763D01*
X283872Y59077D01*
X283711Y58268D01*
X283872Y57458D01*
X284331Y56772D01*
X285017Y56313D01*
X285827Y56152D01*
X286636Y56313D01*
X287323Y56772D01*
X287781Y57458D01*
X287942Y58268D01*
X287781Y59077D01*
X287323Y59763D01*
X286636Y60222D01*
X285827Y60383D01*
D02*
G37*
G36*
X54331D02*
X53521Y60222D01*
X52835Y59763D01*
X52376Y59077D01*
X52215Y58268D01*
X52376Y57458D01*
X52835Y56772D01*
X53521Y56313D01*
X54331Y56152D01*
X55140Y56313D01*
X55826Y56772D01*
X56285Y57458D01*
X56446Y58268D01*
X56285Y59077D01*
X55826Y59763D01*
X55140Y60222D01*
X54331Y60383D01*
D02*
G37*
G36*
X32283D02*
X31474Y60222D01*
X30788Y59763D01*
X30329Y59077D01*
X30168Y58268D01*
X30329Y57458D01*
X30788Y56772D01*
X31474Y56313D01*
X32283Y56152D01*
X33093Y56313D01*
X33779Y56772D01*
X34238Y57458D01*
X34399Y58268D01*
X34238Y59077D01*
X33779Y59763D01*
X33093Y60222D01*
X32283Y60383D01*
D02*
G37*
G36*
X258661Y59202D02*
X257852Y59041D01*
X257166Y58583D01*
X256707Y57896D01*
X256546Y57087D01*
X256707Y56277D01*
X257166Y55591D01*
X257852Y55132D01*
X258661Y54971D01*
X259471Y55132D01*
X260157Y55591D01*
X260616Y56277D01*
X260777Y57087D01*
X260616Y57896D01*
X260157Y58583D01*
X259471Y59041D01*
X258661Y59202D01*
D02*
G37*
G36*
X253543Y59202D02*
X252734Y59041D01*
X252047Y58583D01*
X251589Y57896D01*
X251428Y57087D01*
X251589Y56277D01*
X252047Y55591D01*
X252734Y55132D01*
X253543Y54971D01*
X254353Y55132D01*
X255039Y55591D01*
X255498Y56277D01*
X255659Y57087D01*
X255498Y57896D01*
X255039Y58583D01*
X254353Y59041D01*
X253543Y59202D01*
D02*
G37*
G36*
X248425Y59202D02*
X247616Y59041D01*
X246929Y58583D01*
X246471Y57896D01*
X246310Y57087D01*
X246471Y56277D01*
X246929Y55591D01*
X247616Y55132D01*
X248425Y54971D01*
X249235Y55132D01*
X249921Y55591D01*
X250380Y56277D01*
X250541Y57087D01*
X250380Y57896D01*
X249921Y58583D01*
X249235Y59041D01*
X248425Y59202D01*
D02*
G37*
G36*
X243307D02*
X242497Y59041D01*
X241811Y58583D01*
X241353Y57896D01*
X241192Y57087D01*
X241353Y56277D01*
X241811Y55591D01*
X242497Y55132D01*
X243307Y54971D01*
X244117Y55132D01*
X244803Y55591D01*
X245262Y56277D01*
X245423Y57087D01*
X245262Y57896D01*
X244803Y58583D01*
X244117Y59041D01*
X243307Y59202D01*
D02*
G37*
G36*
X238189D02*
X237379Y59041D01*
X236693Y58583D01*
X236235Y57896D01*
X236073Y57087D01*
X236235Y56277D01*
X236693Y55591D01*
X237379Y55132D01*
X238189Y54971D01*
X238999Y55132D01*
X239685Y55591D01*
X240143Y56277D01*
X240304Y57087D01*
X240143Y57896D01*
X239685Y58583D01*
X238999Y59041D01*
X238189Y59202D01*
D02*
G37*
G36*
X278232Y58808D02*
Y53665D01*
X280735D01*
Y55134D01*
X280599Y56170D01*
X280199Y57135D01*
X279563Y57964D01*
X278734Y58600D01*
X278232Y58808D01*
D02*
G37*
G36*
X275232D02*
X274731Y58600D01*
X273902Y57964D01*
X273266Y57135D01*
X272866Y56170D01*
X272729Y55134D01*
Y53665D01*
X275232D01*
Y58808D01*
D02*
G37*
G36*
X258661Y54084D02*
X257852Y53923D01*
X257166Y53464D01*
X256707Y52778D01*
X256546Y51968D01*
X256707Y51159D01*
X257166Y50473D01*
X257852Y50014D01*
X258661Y49853D01*
X259471Y50014D01*
X260157Y50473D01*
X260616Y51159D01*
X260777Y51968D01*
X260616Y52778D01*
X260157Y53464D01*
X259471Y53923D01*
X258661Y54084D01*
D02*
G37*
G36*
X253543Y54084D02*
X252734Y53923D01*
X252047Y53464D01*
X251589Y52778D01*
X251428Y51968D01*
X251589Y51159D01*
X252047Y50473D01*
X252734Y50014D01*
X253543Y49853D01*
X254353Y50014D01*
X255039Y50473D01*
X255498Y51159D01*
X255659Y51968D01*
X255498Y52778D01*
X255039Y53464D01*
X254353Y53923D01*
X253543Y54084D01*
D02*
G37*
G36*
X248425Y54084D02*
X247616Y53923D01*
X246929Y53464D01*
X246471Y52778D01*
X246310Y51968D01*
X246471Y51159D01*
X246929Y50473D01*
X247616Y50014D01*
X248425Y49853D01*
X249235Y50014D01*
X249921Y50473D01*
X250380Y51159D01*
X250541Y51968D01*
X250380Y52778D01*
X249921Y53464D01*
X249235Y53923D01*
X248425Y54084D01*
D02*
G37*
G36*
X243307D02*
X242497Y53923D01*
X241811Y53464D01*
X241353Y52778D01*
X241192Y51968D01*
X241353Y51159D01*
X241811Y50473D01*
X242497Y50014D01*
X243307Y49853D01*
X244117Y50014D01*
X244803Y50473D01*
X245262Y51159D01*
X245423Y51968D01*
X245262Y52778D01*
X244803Y53464D01*
X244117Y53923D01*
X243307Y54084D01*
D02*
G37*
G36*
X238189D02*
X237379Y53923D01*
X236693Y53464D01*
X236234Y52778D01*
X236073Y51968D01*
X236234Y51159D01*
X236693Y50473D01*
X237379Y50014D01*
X238189Y49853D01*
X238999Y50014D01*
X239685Y50473D01*
X240143Y51159D01*
X240304Y51968D01*
X240143Y52778D01*
X239685Y53464D01*
X238999Y53923D01*
X238189Y54084D01*
D02*
G37*
G36*
X270201Y58602D02*
X263264D01*
Y45728D01*
X270201D01*
Y58602D01*
D02*
G37*
G36*
X280735Y50665D02*
X278232D01*
Y45523D01*
X278734Y45730D01*
X279563Y46367D01*
X280199Y47196D01*
X280599Y48161D01*
X280735Y49197D01*
Y50665D01*
D02*
G37*
G36*
X275232D02*
X272729D01*
Y49197D01*
X272866Y48161D01*
X273266Y47196D01*
X273902Y46367D01*
X274731Y45730D01*
X275232Y45523D01*
Y50665D01*
D02*
G37*
G36*
X285827Y49360D02*
X285017Y49198D01*
X284331Y48740D01*
X283872Y48054D01*
X283711Y47244D01*
X283872Y46435D01*
X284331Y45748D01*
X285017Y45290D01*
X285827Y45129D01*
X286636Y45290D01*
X287323Y45748D01*
X287781Y46435D01*
X287942Y47244D01*
X287781Y48054D01*
X287323Y48740D01*
X286636Y49198D01*
X285827Y49360D01*
D02*
G37*
G36*
X54331D02*
X53521Y49198D01*
X52835Y48740D01*
X52376Y48054D01*
X52215Y47244D01*
X52376Y46435D01*
X52835Y45748D01*
X53521Y45290D01*
X54331Y45129D01*
X55140Y45290D01*
X55826Y45748D01*
X56285Y46435D01*
X56446Y47244D01*
X56285Y48054D01*
X55826Y48740D01*
X55140Y49198D01*
X54331Y49360D01*
D02*
G37*
G36*
X43307D02*
X42498Y49198D01*
X41811Y48740D01*
X41353Y48054D01*
X41192Y47244D01*
X41353Y46435D01*
X41811Y45748D01*
X42498Y45290D01*
X43307Y45129D01*
X44117Y45290D01*
X44803Y45748D01*
X45261Y46435D01*
X45423Y47244D01*
X45261Y48054D01*
X44803Y48740D01*
X44117Y49198D01*
X43307Y49360D01*
D02*
G37*
G36*
X32283D02*
X31474Y49198D01*
X30788Y48740D01*
X30329Y48054D01*
X30168Y47244D01*
X30329Y46435D01*
X30788Y45748D01*
X31474Y45290D01*
X32283Y45129D01*
X33093Y45290D01*
X33779Y45748D01*
X34238Y46435D01*
X34399Y47244D01*
X34238Y48054D01*
X33779Y48740D01*
X33093Y49198D01*
X32283Y49360D01*
D02*
G37*
G36*
X258661Y48966D02*
X257852Y48805D01*
X257166Y48346D01*
X256707Y47660D01*
X256546Y46850D01*
X256707Y46041D01*
X257166Y45355D01*
X257852Y44896D01*
X258661Y44735D01*
X259471Y44896D01*
X260157Y45355D01*
X260616Y46041D01*
X260777Y46850D01*
X260616Y47660D01*
X260157Y48346D01*
X259471Y48805D01*
X258661Y48966D01*
D02*
G37*
G36*
X253543Y48966D02*
X252734Y48805D01*
X252047Y48346D01*
X251589Y47660D01*
X251428Y46850D01*
X251589Y46041D01*
X252047Y45355D01*
X252734Y44896D01*
X253543Y44735D01*
X254353Y44896D01*
X255039Y45355D01*
X255498Y46041D01*
X255659Y46850D01*
X255498Y47660D01*
X255039Y48346D01*
X254353Y48805D01*
X253543Y48966D01*
D02*
G37*
G36*
X248425Y48966D02*
X247616Y48805D01*
X246929Y48346D01*
X246471Y47660D01*
X246310Y46850D01*
X246471Y46041D01*
X246929Y45355D01*
X247616Y44896D01*
X248425Y44735D01*
X249235Y44896D01*
X249921Y45355D01*
X250380Y46041D01*
X250541Y46850D01*
X250380Y47660D01*
X249921Y48346D01*
X249235Y48805D01*
X248425Y48966D01*
D02*
G37*
G36*
X243307D02*
X242497Y48805D01*
X241811Y48346D01*
X241353Y47660D01*
X241192Y46850D01*
X241353Y46041D01*
X241811Y45355D01*
X242497Y44896D01*
X243307Y44735D01*
X244117Y44896D01*
X244803Y45355D01*
X245262Y46041D01*
X245423Y46850D01*
X245262Y47660D01*
X244803Y48346D01*
X244117Y48805D01*
X243307Y48966D01*
D02*
G37*
G36*
X238189D02*
X237379Y48805D01*
X236693Y48346D01*
X236235Y47660D01*
X236073Y46850D01*
X236235Y46041D01*
X236693Y45355D01*
X237379Y44896D01*
X238189Y44735D01*
X238999Y44896D01*
X239685Y45355D01*
X240143Y46041D01*
X240304Y46850D01*
X240143Y47660D01*
X239685Y48346D01*
X238999Y48805D01*
X238189Y48966D01*
D02*
G37*
G36*
X258661Y43848D02*
X257852Y43687D01*
X257166Y43228D01*
X256707Y42542D01*
X256546Y41732D01*
X256707Y40923D01*
X257166Y40236D01*
X257852Y39778D01*
X258661Y39617D01*
X259471Y39778D01*
X260157Y40236D01*
X260616Y40923D01*
X260777Y41732D01*
X260616Y42542D01*
X260157Y43228D01*
X259471Y43687D01*
X258661Y43848D01*
D02*
G37*
G36*
X253543Y43848D02*
X252734Y43687D01*
X252047Y43228D01*
X251589Y42542D01*
X251428Y41732D01*
X251589Y40923D01*
X252047Y40236D01*
X252734Y39778D01*
X253543Y39617D01*
X254353Y39778D01*
X255039Y40236D01*
X255498Y40923D01*
X255659Y41732D01*
X255498Y42542D01*
X255039Y43228D01*
X254353Y43687D01*
X253543Y43848D01*
D02*
G37*
G36*
X248425Y43848D02*
X247616Y43687D01*
X246929Y43228D01*
X246471Y42542D01*
X246310Y41732D01*
X246471Y40923D01*
X246929Y40236D01*
X247616Y39778D01*
X248425Y39617D01*
X249235Y39778D01*
X249921Y40236D01*
X250380Y40923D01*
X250541Y41732D01*
X250380Y42542D01*
X249921Y43228D01*
X249235Y43687D01*
X248425Y43848D01*
D02*
G37*
G36*
X243307D02*
X242497Y43687D01*
X241811Y43228D01*
X241353Y42542D01*
X241192Y41732D01*
X241353Y40923D01*
X241811Y40236D01*
X242497Y39778D01*
X243307Y39617D01*
X244117Y39778D01*
X244803Y40236D01*
X245262Y40923D01*
X245423Y41732D01*
X245262Y42542D01*
X244803Y43228D01*
X244117Y43687D01*
X243307Y43848D01*
D02*
G37*
G36*
X238189D02*
X237379Y43687D01*
X236693Y43228D01*
X236234Y42542D01*
X236073Y41732D01*
X236234Y40923D01*
X236693Y40236D01*
X237379Y39778D01*
X238189Y39617D01*
X238999Y39778D01*
X239685Y40236D01*
X240143Y40923D01*
X240304Y41732D01*
X240143Y42542D01*
X239685Y43228D01*
X238999Y43687D01*
X238189Y43848D01*
D02*
G37*
G36*
X278272Y42863D02*
Y37721D01*
X280774D01*
Y39189D01*
X280638Y40225D01*
X280238Y41190D01*
X279602Y42019D01*
X278773Y42656D01*
X278272Y42863D01*
D02*
G37*
G36*
X275272Y42863D02*
X274770Y42656D01*
X273941Y42019D01*
X273305Y41190D01*
X272905Y40225D01*
X272769Y39189D01*
Y37721D01*
X275272D01*
Y42863D01*
D02*
G37*
G36*
X210236Y39517D02*
X209427Y39356D01*
X208740Y38897D01*
X208282Y38211D01*
X208121Y37402D01*
X208282Y36592D01*
X208740Y35906D01*
X209427Y35447D01*
X210236Y35286D01*
X211046Y35447D01*
X211732Y35906D01*
X212191Y36592D01*
X212352Y37402D01*
X212191Y38211D01*
X211732Y38897D01*
X211046Y39356D01*
X210236Y39517D01*
D02*
G37*
G36*
X230709Y39517D02*
X229899Y39356D01*
X229213Y38897D01*
X228754Y38211D01*
X228593Y37402D01*
X228754Y36592D01*
X229213Y35906D01*
X229899Y35447D01*
X230709Y35286D01*
X231518Y35447D01*
X232205Y35906D01*
X232663Y36592D01*
X232824Y37402D01*
X232663Y38211D01*
X232205Y38897D01*
X231518Y39356D01*
X230709Y39517D01*
D02*
G37*
G36*
X225984D02*
X225175Y39356D01*
X224488Y38897D01*
X224030Y38211D01*
X223869Y37402D01*
X224030Y36592D01*
X224488Y35906D01*
X225175Y35447D01*
X225984Y35286D01*
X226794Y35447D01*
X227480Y35906D01*
X227939Y36592D01*
X228100Y37402D01*
X227939Y38211D01*
X227480Y38897D01*
X226794Y39356D01*
X225984Y39517D01*
D02*
G37*
G36*
X205118D02*
X204309Y39356D01*
X203622Y38897D01*
X203164Y38211D01*
X203003Y37402D01*
X203164Y36592D01*
X203622Y35906D01*
X204309Y35447D01*
X205118Y35286D01*
X205928Y35447D01*
X206614Y35906D01*
X207073Y36592D01*
X207234Y37402D01*
X207073Y38211D01*
X206614Y38897D01*
X205928Y39356D01*
X205118Y39517D01*
D02*
G37*
G36*
X200000D02*
X199190Y39356D01*
X198504Y38897D01*
X198046Y38211D01*
X197885Y37402D01*
X198046Y36592D01*
X198504Y35906D01*
X199190Y35447D01*
X200000Y35286D01*
X200810Y35447D01*
X201496Y35906D01*
X201954Y36592D01*
X202116Y37402D01*
X201954Y38211D01*
X201496Y38897D01*
X200810Y39356D01*
X200000Y39517D01*
D02*
G37*
G36*
X194882D02*
X194072Y39356D01*
X193386Y38897D01*
X192928Y38211D01*
X192766Y37402D01*
X192928Y36592D01*
X193386Y35906D01*
X194072Y35447D01*
X194882Y35286D01*
X195692Y35447D01*
X196378Y35906D01*
X196836Y36592D01*
X196997Y37402D01*
X196836Y38211D01*
X196378Y38897D01*
X195692Y39356D01*
X194882Y39517D01*
D02*
G37*
G36*
X185433D02*
X184624Y39356D01*
X183937Y38897D01*
X183479Y38211D01*
X183318Y37402D01*
X183479Y36592D01*
X183937Y35906D01*
X184624Y35447D01*
X185433Y35286D01*
X186243Y35447D01*
X186929Y35906D01*
X187388Y36592D01*
X187548Y37402D01*
X187388Y38211D01*
X186929Y38897D01*
X186243Y39356D01*
X185433Y39517D01*
D02*
G37*
G36*
X180709D02*
X179899Y39356D01*
X179213Y38897D01*
X178754Y38211D01*
X178593Y37402D01*
X178754Y36592D01*
X179213Y35906D01*
X179899Y35447D01*
X180709Y35286D01*
X181518Y35447D01*
X182204Y35906D01*
X182663Y36592D01*
X182824Y37402D01*
X182663Y38211D01*
X182204Y38897D01*
X181518Y39356D01*
X180709Y39517D01*
D02*
G37*
G36*
X285827Y38336D02*
X285017Y38175D01*
X284331Y37716D01*
X283872Y37030D01*
X283711Y36220D01*
X283872Y35411D01*
X284331Y34725D01*
X285017Y34266D01*
X285827Y34105D01*
X286636Y34266D01*
X287323Y34725D01*
X287781Y35411D01*
X287942Y36220D01*
X287781Y37030D01*
X287323Y37716D01*
X286636Y38175D01*
X285827Y38336D01*
D02*
G37*
G36*
X142520D02*
X141710Y38175D01*
X141024Y37716D01*
X140565Y37030D01*
X140404Y36220D01*
X140565Y35411D01*
X141024Y34725D01*
X141710Y34266D01*
X142520Y34105D01*
X143329Y34266D01*
X144016Y34725D01*
X144474Y35411D01*
X144635Y36220D01*
X144474Y37030D01*
X144016Y37716D01*
X143329Y38175D01*
X142520Y38336D01*
D02*
G37*
G36*
X131496D02*
X130686Y38175D01*
X130000Y37716D01*
X129542Y37030D01*
X129381Y36220D01*
X129542Y35411D01*
X130000Y34725D01*
X130686Y34266D01*
X131496Y34105D01*
X132306Y34266D01*
X132992Y34725D01*
X133450Y35411D01*
X133612Y36220D01*
X133450Y37030D01*
X132992Y37716D01*
X132306Y38175D01*
X131496Y38336D01*
D02*
G37*
G36*
X98425D02*
X97616Y38175D01*
X96929Y37716D01*
X96471Y37030D01*
X96310Y36220D01*
X96471Y35411D01*
X96929Y34725D01*
X97616Y34266D01*
X98425Y34105D01*
X99235Y34266D01*
X99921Y34725D01*
X100380Y35411D01*
X100541Y36220D01*
X100380Y37030D01*
X99921Y37716D01*
X99235Y38175D01*
X98425Y38336D01*
D02*
G37*
G36*
X87401D02*
X86592Y38175D01*
X85906Y37716D01*
X85447Y37030D01*
X85286Y36220D01*
X85447Y35411D01*
X85906Y34725D01*
X86592Y34266D01*
X87401Y34105D01*
X88211Y34266D01*
X88897Y34725D01*
X89356Y35411D01*
X89517Y36220D01*
X89356Y37030D01*
X88897Y37716D01*
X88211Y38175D01*
X87401Y38336D01*
D02*
G37*
G36*
X54331D02*
X53521Y38175D01*
X52835Y37716D01*
X52376Y37030D01*
X52215Y36220D01*
X52376Y35411D01*
X52835Y34725D01*
X53521Y34266D01*
X54331Y34105D01*
X55140Y34266D01*
X55826Y34725D01*
X56285Y35411D01*
X56446Y36220D01*
X56285Y37030D01*
X55826Y37716D01*
X55140Y38175D01*
X54331Y38336D01*
D02*
G37*
G36*
X43307D02*
X42498Y38175D01*
X41811Y37716D01*
X41353Y37030D01*
X41192Y36220D01*
X41353Y35411D01*
X41811Y34725D01*
X42498Y34266D01*
X43307Y34105D01*
X44117Y34266D01*
X44803Y34725D01*
X45261Y35411D01*
X45423Y36220D01*
X45261Y37030D01*
X44803Y37716D01*
X44117Y38175D01*
X43307Y38336D01*
D02*
G37*
G36*
X32283D02*
X31474Y38175D01*
X30788Y37716D01*
X30329Y37030D01*
X30168Y36220D01*
X30329Y35411D01*
X30788Y34725D01*
X31474Y34266D01*
X32283Y34105D01*
X33093Y34266D01*
X33779Y34725D01*
X34238Y35411D01*
X34399Y36220D01*
X34238Y37030D01*
X33779Y37716D01*
X33093Y38175D01*
X32283Y38336D01*
D02*
G37*
G36*
X21260D02*
X20450Y38175D01*
X19764Y37716D01*
X19305Y37030D01*
X19144Y36220D01*
X19305Y35411D01*
X19764Y34725D01*
X20450Y34266D01*
X21260Y34105D01*
X22069Y34266D01*
X22756Y34725D01*
X23214Y35411D01*
X23375Y36220D01*
X23214Y37030D01*
X22756Y37716D01*
X22069Y38175D01*
X21260Y38336D01*
D02*
G37*
G36*
X10236D02*
X9427Y38175D01*
X8740Y37716D01*
X8282Y37030D01*
X8121Y36220D01*
X8282Y35411D01*
X8740Y34725D01*
X9427Y34266D01*
X10236Y34105D01*
X11046Y34266D01*
X11732Y34725D01*
X12191Y35411D01*
X12352Y36220D01*
X12191Y37030D01*
X11732Y37716D01*
X11046Y38175D01*
X10236Y38336D01*
D02*
G37*
G36*
X249532Y34889D02*
Y31028D01*
X253393D01*
X252860Y32315D01*
X251974Y33470D01*
X250819Y34356D01*
X249532Y34889D01*
D02*
G37*
G36*
X246532D02*
X245244Y34356D01*
X244089Y33470D01*
X243203Y32315D01*
X242670Y31028D01*
X246532D01*
Y34889D01*
D02*
G37*
G36*
X204256D02*
Y31028D01*
X208118D01*
X207584Y32315D01*
X206698Y33470D01*
X205543Y34356D01*
X204256Y34889D01*
D02*
G37*
G36*
X201256D02*
X199968Y34356D01*
X198814Y33470D01*
X197928Y32315D01*
X197394Y31028D01*
X201256D01*
Y34889D01*
D02*
G37*
G36*
X158980D02*
Y31028D01*
X162842D01*
X162309Y32315D01*
X161423Y33470D01*
X160268Y34356D01*
X158980Y34889D01*
D02*
G37*
G36*
X155980D02*
X154693Y34356D01*
X153538Y33470D01*
X152652Y32315D01*
X152119Y31028D01*
X155980D01*
Y34889D01*
D02*
G37*
G36*
X113705D02*
Y31028D01*
X117566D01*
X117033Y32315D01*
X116147Y33470D01*
X114992Y34356D01*
X113705Y34889D01*
D02*
G37*
G36*
X110705D02*
X109417Y34356D01*
X108262Y33470D01*
X107376Y32315D01*
X106843Y31028D01*
X110705D01*
Y34889D01*
D02*
G37*
G36*
X68429D02*
Y31028D01*
X72291D01*
X71757Y32315D01*
X70871Y33470D01*
X69717Y34356D01*
X68429Y34889D01*
D02*
G37*
G36*
X65429D02*
X64141Y34356D01*
X62987Y33470D01*
X62101Y32315D01*
X61567Y31028D01*
X65429D01*
Y34889D01*
D02*
G37*
G36*
X270240Y42658D02*
X263303D01*
Y29783D01*
X270240D01*
Y42658D01*
D02*
G37*
G36*
X220472Y34005D02*
X219663Y33844D01*
X218977Y33386D01*
X218518Y32699D01*
X218357Y31890D01*
X218518Y31080D01*
X218977Y30394D01*
X219663Y29935D01*
X220472Y29774D01*
X221282Y29935D01*
X221968Y30394D01*
X222427Y31080D01*
X222588Y31890D01*
X222427Y32699D01*
X221968Y33386D01*
X221282Y33844D01*
X220472Y34005D01*
D02*
G37*
G36*
X236221Y34005D02*
X235411Y33844D01*
X234725Y33386D01*
X234266Y32699D01*
X234105Y31890D01*
X234266Y31080D01*
X234725Y30394D01*
X235411Y29935D01*
X236221Y29774D01*
X237030Y29935D01*
X237716Y30394D01*
X238175Y31080D01*
X238336Y31890D01*
X238175Y32699D01*
X237716Y33386D01*
X237030Y33844D01*
X236221Y34005D01*
D02*
G37*
G36*
X275272Y34721D02*
X272769D01*
Y33252D01*
X272905Y32216D01*
X273305Y31251D01*
X273941Y30422D01*
X274770Y29785D01*
X275272Y29578D01*
Y34721D01*
D02*
G37*
G36*
X280774D02*
X278272D01*
Y29578D01*
X278773Y29785D01*
X279602Y30422D01*
X280238Y31251D01*
X280638Y32216D01*
X280774Y33252D01*
Y34721D01*
D02*
G37*
G36*
X220472Y29281D02*
X219663Y29120D01*
X218977Y28661D01*
X218518Y27975D01*
X218357Y27165D01*
X218518Y26356D01*
X218977Y25670D01*
X219663Y25211D01*
X220472Y25050D01*
X221282Y25211D01*
X221968Y25670D01*
X222427Y26356D01*
X222588Y27165D01*
X222427Y27975D01*
X221968Y28661D01*
X221282Y29120D01*
X220472Y29281D01*
D02*
G37*
G36*
X236221Y29281D02*
X235411Y29120D01*
X234725Y28661D01*
X234266Y27975D01*
X234105Y27165D01*
X234266Y26356D01*
X234725Y25670D01*
X235411Y25211D01*
X236221Y25050D01*
X237030Y25211D01*
X237716Y25670D01*
X238175Y26356D01*
X238336Y27165D01*
X238175Y27975D01*
X237716Y28661D01*
X237030Y29120D01*
X236221Y29281D01*
D02*
G37*
G36*
X228346Y34598D02*
X227034Y34426D01*
X225811Y33919D01*
X224761Y33113D01*
X223955Y32063D01*
X223448Y30840D01*
X223275Y29528D01*
X223448Y28215D01*
X223955Y26992D01*
X224761Y25942D01*
X225811Y25136D01*
X227034Y24629D01*
X228346Y24457D01*
X229659Y24629D01*
X230882Y25136D01*
X231932Y25942D01*
X232738Y26992D01*
X233245Y28215D01*
X233417Y29528D01*
X233245Y30840D01*
X232738Y32063D01*
X231932Y33113D01*
X230882Y33919D01*
X229659Y34426D01*
X228346Y34598D01*
D02*
G37*
G36*
X183071D02*
X181758Y34426D01*
X180535Y33919D01*
X179485Y33113D01*
X178679Y32063D01*
X178173Y30840D01*
X178000Y29528D01*
X178173Y28215D01*
X178679Y26992D01*
X179485Y25942D01*
X180535Y25136D01*
X181758Y24629D01*
X183071Y24457D01*
X184383Y24629D01*
X185606Y25136D01*
X186657Y25942D01*
X187462Y26992D01*
X187969Y28215D01*
X188142Y29528D01*
X187969Y30840D01*
X187462Y32063D01*
X186657Y33113D01*
X185606Y33919D01*
X184383Y34426D01*
X183071Y34598D01*
D02*
G37*
G36*
X137795D02*
X136483Y34426D01*
X135260Y33919D01*
X134210Y33113D01*
X133404Y32063D01*
X132897Y30840D01*
X132724Y29528D01*
X132897Y28215D01*
X133404Y26992D01*
X134210Y25942D01*
X135260Y25136D01*
X136483Y24629D01*
X137795Y24457D01*
X139108Y24629D01*
X140331Y25136D01*
X141381Y25942D01*
X142187Y26992D01*
X142693Y28215D01*
X142866Y29528D01*
X142693Y30840D01*
X142187Y32063D01*
X141381Y33113D01*
X140331Y33919D01*
X139108Y34426D01*
X137795Y34598D01*
D02*
G37*
G36*
X47244D02*
X45932Y34426D01*
X44709Y33919D01*
X43658Y33113D01*
X42853Y32063D01*
X42346Y30840D01*
X42173Y29528D01*
X42346Y28215D01*
X42853Y26992D01*
X43658Y25942D01*
X44709Y25136D01*
X45932Y24629D01*
X47244Y24457D01*
X48557Y24629D01*
X49780Y25136D01*
X50830Y25942D01*
X51636Y26992D01*
X52142Y28215D01*
X52315Y29528D01*
X52142Y30840D01*
X51636Y32063D01*
X50830Y33113D01*
X49780Y33919D01*
X48557Y34426D01*
X47244Y34598D01*
D02*
G37*
G36*
X253393Y28028D02*
X249532D01*
Y24166D01*
X250819Y24699D01*
X251974Y25585D01*
X252860Y26740D01*
X253393Y28028D01*
D02*
G37*
G36*
X246532D02*
X242670D01*
X243203Y26740D01*
X244089Y25585D01*
X245244Y24699D01*
X246532Y24166D01*
Y28028D01*
D02*
G37*
G36*
X208118D02*
X204256D01*
Y24166D01*
X205543Y24699D01*
X206698Y25585D01*
X207584Y26740D01*
X208118Y28028D01*
D02*
G37*
G36*
X201256D02*
X197394D01*
X197928Y26740D01*
X198814Y25585D01*
X199968Y24699D01*
X201256Y24166D01*
Y28028D01*
D02*
G37*
G36*
X162842D02*
X158980D01*
Y24166D01*
X160268Y24699D01*
X161423Y25585D01*
X162309Y26740D01*
X162842Y28028D01*
D02*
G37*
G36*
X155980D02*
X152119D01*
X152652Y26740D01*
X153538Y25585D01*
X154693Y24699D01*
X155980Y24166D01*
Y28028D01*
D02*
G37*
G36*
X117566D02*
X113705D01*
Y24166D01*
X114992Y24699D01*
X116147Y25585D01*
X117033Y26740D01*
X117566Y28028D01*
D02*
G37*
G36*
X110705D02*
X106843D01*
X107376Y26740D01*
X108262Y25585D01*
X109417Y24699D01*
X110705Y24166D01*
Y28028D01*
D02*
G37*
G36*
X72291D02*
X68429D01*
Y24166D01*
X69717Y24699D01*
X70871Y25585D01*
X71757Y26740D01*
X72291Y28028D01*
D02*
G37*
G36*
X65429D02*
X61567D01*
X62101Y26740D01*
X62987Y25585D01*
X64141Y24699D01*
X65429Y24166D01*
Y28028D01*
D02*
G37*
G36*
X285827Y27312D02*
X285017Y27151D01*
X284331Y26693D01*
X283872Y26006D01*
X283711Y25197D01*
X283872Y24387D01*
X284331Y23701D01*
X285017Y23242D01*
X285827Y23081D01*
X286636Y23242D01*
X287323Y23701D01*
X287781Y24387D01*
X287942Y25197D01*
X287781Y26006D01*
X287323Y26693D01*
X286636Y27151D01*
X285827Y27312D01*
D02*
G37*
G36*
X131496D02*
X130686Y27151D01*
X130000Y26693D01*
X129542Y26006D01*
X129381Y25197D01*
X129542Y24387D01*
X130000Y23701D01*
X130686Y23242D01*
X131496Y23081D01*
X132306Y23242D01*
X132992Y23701D01*
X133450Y24387D01*
X133612Y25197D01*
X133450Y26006D01*
X132992Y26693D01*
X132306Y27151D01*
X131496Y27312D01*
D02*
G37*
G36*
X92520Y34598D02*
X91207Y34426D01*
X89984Y33919D01*
X88934Y33113D01*
X88128Y32063D01*
X87621Y30840D01*
X87449Y29528D01*
X87621Y28215D01*
X88128Y26992D01*
X88934Y25942D01*
X89984Y25136D01*
X91207Y24629D01*
X92520Y24457D01*
X93832Y24629D01*
X95055Y25136D01*
X95920Y25799D01*
X96373Y25517D01*
X96310Y25197D01*
X96471Y24387D01*
X96929Y23701D01*
X97616Y23242D01*
X98425Y23081D01*
X99235Y23242D01*
X99921Y23701D01*
X100380Y24387D01*
X100541Y25197D01*
X100380Y26006D01*
X99921Y26693D01*
X99235Y27151D01*
X98425Y27312D01*
X97616Y27151D01*
X97481Y27061D01*
X97077Y27393D01*
X97418Y28215D01*
X97591Y29528D01*
X97418Y30840D01*
X96911Y32063D01*
X96105Y33113D01*
X95055Y33919D01*
X93832Y34426D01*
X92520Y34598D01*
D02*
G37*
G36*
X54331Y27312D02*
X53521Y27151D01*
X52835Y26693D01*
X52376Y26006D01*
X52215Y25197D01*
X52376Y24387D01*
X52835Y23701D01*
X53521Y23242D01*
X54331Y23081D01*
X55140Y23242D01*
X55826Y23701D01*
X56285Y24387D01*
X56446Y25197D01*
X56285Y26006D01*
X55826Y26693D01*
X55140Y27151D01*
X54331Y27312D01*
D02*
G37*
G36*
X32283D02*
X31474Y27151D01*
X30788Y26693D01*
X30329Y26006D01*
X30168Y25197D01*
X30329Y24387D01*
X30788Y23701D01*
X31474Y23242D01*
X32283Y23081D01*
X33093Y23242D01*
X33779Y23701D01*
X34238Y24387D01*
X34399Y25197D01*
X34238Y26006D01*
X33779Y26693D01*
X33093Y27151D01*
X32283Y27312D01*
D02*
G37*
G36*
X21260D02*
X20450Y27151D01*
X19764Y26693D01*
X19305Y26006D01*
X19144Y25197D01*
X19305Y24387D01*
X19764Y23701D01*
X20450Y23242D01*
X21260Y23081D01*
X22069Y23242D01*
X22756Y23701D01*
X23214Y24387D01*
X23375Y25197D01*
X23214Y26006D01*
X22756Y26693D01*
X22069Y27151D01*
X21260Y27312D01*
D02*
G37*
G36*
X10236D02*
X9427Y27151D01*
X8740Y26693D01*
X8282Y26006D01*
X8121Y25197D01*
X8282Y24387D01*
X8740Y23701D01*
X9427Y23242D01*
X10236Y23081D01*
X11046Y23242D01*
X11732Y23701D01*
X12191Y24387D01*
X12352Y25197D01*
X12191Y26006D01*
X11732Y26693D01*
X11046Y27151D01*
X10236Y27312D01*
D02*
G37*
G36*
X263779Y16289D02*
X262970Y16128D01*
X262284Y15669D01*
X261825Y14983D01*
X261664Y14173D01*
X261825Y13364D01*
X262284Y12677D01*
X262970Y12219D01*
X263779Y12058D01*
X264589Y12219D01*
X265275Y12677D01*
X265734Y13364D01*
X265895Y14173D01*
X265734Y14983D01*
X265275Y15669D01*
X264589Y16128D01*
X263779Y16289D01*
D02*
G37*
G36*
X252756D02*
X251946Y16128D01*
X251260Y15669D01*
X250801Y14983D01*
X250640Y14173D01*
X250801Y13364D01*
X251260Y12677D01*
X251946Y12219D01*
X252756Y12058D01*
X253565Y12219D01*
X254252Y12677D01*
X254710Y13364D01*
X254871Y14173D01*
X254710Y14983D01*
X254252Y15669D01*
X253565Y16128D01*
X252756Y16289D01*
D02*
G37*
G36*
X241732D02*
X240923Y16128D01*
X240236Y15669D01*
X239778Y14983D01*
X239617Y14173D01*
X239778Y13364D01*
X240236Y12677D01*
X240923Y12219D01*
X241732Y12058D01*
X242542Y12219D01*
X243228Y12677D01*
X243687Y13364D01*
X243848Y14173D01*
X243687Y14983D01*
X243228Y15669D01*
X242542Y16128D01*
X241732Y16289D01*
D02*
G37*
G36*
X230709D02*
X229899Y16128D01*
X229213Y15669D01*
X228754Y14983D01*
X228593Y14173D01*
X228754Y13364D01*
X229213Y12677D01*
X229899Y12219D01*
X230709Y12058D01*
X231518Y12219D01*
X232204Y12677D01*
X232663Y13364D01*
X232824Y14173D01*
X232663Y14983D01*
X232204Y15669D01*
X231518Y16128D01*
X230709Y16289D01*
D02*
G37*
G36*
X219685D02*
X218875Y16128D01*
X218189Y15669D01*
X217731Y14983D01*
X217569Y14173D01*
X217731Y13364D01*
X218189Y12677D01*
X218875Y12219D01*
X219685Y12058D01*
X220495Y12219D01*
X221181Y12677D01*
X221639Y13364D01*
X221800Y14173D01*
X221639Y14983D01*
X221181Y15669D01*
X220495Y16128D01*
X219685Y16289D01*
D02*
G37*
G36*
X208661D02*
X207852Y16128D01*
X207166Y15669D01*
X206707Y14983D01*
X206546Y14173D01*
X206707Y13364D01*
X207166Y12677D01*
X207852Y12219D01*
X208661Y12058D01*
X209471Y12219D01*
X210157Y12677D01*
X210616Y13364D01*
X210777Y14173D01*
X210616Y14983D01*
X210157Y15669D01*
X209471Y16128D01*
X208661Y16289D01*
D02*
G37*
G36*
X197638D02*
X196828Y16128D01*
X196142Y15669D01*
X195683Y14983D01*
X195522Y14173D01*
X195683Y13364D01*
X196142Y12677D01*
X196828Y12219D01*
X197638Y12058D01*
X198447Y12219D01*
X199134Y12677D01*
X199592Y13364D01*
X199753Y14173D01*
X199592Y14983D01*
X199134Y15669D01*
X198447Y16128D01*
X197638Y16289D01*
D02*
G37*
G36*
X186614D02*
X185805Y16128D01*
X185118Y15669D01*
X184660Y14983D01*
X184499Y14173D01*
X184660Y13364D01*
X185118Y12677D01*
X185805Y12219D01*
X186614Y12058D01*
X187424Y12219D01*
X188110Y12677D01*
X188568Y13364D01*
X188730Y14173D01*
X188568Y14983D01*
X188110Y15669D01*
X187424Y16128D01*
X186614Y16289D01*
D02*
G37*
G36*
X175591D02*
X174781Y16128D01*
X174095Y15669D01*
X173636Y14983D01*
X173475Y14173D01*
X173636Y13364D01*
X174095Y12677D01*
X174781Y12219D01*
X175591Y12058D01*
X176400Y12219D01*
X177086Y12677D01*
X177545Y13364D01*
X177706Y14173D01*
X177545Y14983D01*
X177086Y15669D01*
X176400Y16128D01*
X175591Y16289D01*
D02*
G37*
G36*
X164567D02*
X163757Y16128D01*
X163071Y15669D01*
X162612Y14983D01*
X162451Y14173D01*
X162612Y13364D01*
X163071Y12677D01*
X163757Y12219D01*
X164567Y12058D01*
X165376Y12219D01*
X166063Y12677D01*
X166521Y13364D01*
X166682Y14173D01*
X166521Y14983D01*
X166063Y15669D01*
X165376Y16128D01*
X164567Y16289D01*
D02*
G37*
G36*
X153543D02*
X152734Y16128D01*
X152047Y15669D01*
X151589Y14983D01*
X151428Y14173D01*
X151589Y13364D01*
X152047Y12677D01*
X152734Y12219D01*
X153543Y12058D01*
X154353Y12219D01*
X155039Y12677D01*
X155498Y13364D01*
X155659Y14173D01*
X155498Y14983D01*
X155039Y15669D01*
X154353Y16128D01*
X153543Y16289D01*
D02*
G37*
G36*
X142520D02*
X141710Y16128D01*
X141024Y15669D01*
X140565Y14983D01*
X140404Y14173D01*
X140565Y13364D01*
X141024Y12677D01*
X141710Y12219D01*
X142520Y12058D01*
X143329Y12219D01*
X144016Y12677D01*
X144474Y13364D01*
X144635Y14173D01*
X144474Y14983D01*
X144016Y15669D01*
X143329Y16128D01*
X142520Y16289D01*
D02*
G37*
G36*
X131496D02*
X130686Y16128D01*
X130000Y15669D01*
X129542Y14983D01*
X129381Y14173D01*
X129542Y13364D01*
X130000Y12677D01*
X130686Y12219D01*
X131496Y12058D01*
X132306Y12219D01*
X132992Y12677D01*
X133450Y13364D01*
X133612Y14173D01*
X133450Y14983D01*
X132992Y15669D01*
X132306Y16128D01*
X131496Y16289D01*
D02*
G37*
G36*
X120472D02*
X119663Y16128D01*
X118976Y15669D01*
X118518Y14983D01*
X118357Y14173D01*
X118518Y13364D01*
X118976Y12677D01*
X119663Y12219D01*
X120472Y12058D01*
X121282Y12219D01*
X121968Y12677D01*
X122427Y13364D01*
X122588Y14173D01*
X122427Y14983D01*
X121968Y15669D01*
X121282Y16128D01*
X120472Y16289D01*
D02*
G37*
G36*
X109449D02*
X108639Y16128D01*
X107953Y15669D01*
X107494Y14983D01*
X107333Y14173D01*
X107494Y13364D01*
X107953Y12677D01*
X108639Y12219D01*
X109449Y12058D01*
X110258Y12219D01*
X110945Y12677D01*
X111403Y13364D01*
X111564Y14173D01*
X111403Y14983D01*
X110945Y15669D01*
X110258Y16128D01*
X109449Y16289D01*
D02*
G37*
G36*
X98425D02*
X97616Y16128D01*
X96929Y15669D01*
X96471Y14983D01*
X96310Y14173D01*
X96471Y13364D01*
X96929Y12677D01*
X97616Y12219D01*
X98425Y12058D01*
X99235Y12219D01*
X99921Y12677D01*
X100380Y13364D01*
X100541Y14173D01*
X100380Y14983D01*
X99921Y15669D01*
X99235Y16128D01*
X98425Y16289D01*
D02*
G37*
G36*
X87401D02*
X86592Y16128D01*
X85906Y15669D01*
X85447Y14983D01*
X85286Y14173D01*
X85447Y13364D01*
X85906Y12677D01*
X86592Y12219D01*
X87401Y12058D01*
X88211Y12219D01*
X88897Y12677D01*
X89356Y13364D01*
X89517Y14173D01*
X89356Y14983D01*
X88897Y15669D01*
X88211Y16128D01*
X87401Y16289D01*
D02*
G37*
G36*
X76378D02*
X75568Y16128D01*
X74882Y15669D01*
X74423Y14983D01*
X74262Y14173D01*
X74423Y13364D01*
X74882Y12677D01*
X75568Y12219D01*
X76378Y12058D01*
X77188Y12219D01*
X77874Y12677D01*
X78332Y13364D01*
X78493Y14173D01*
X78332Y14983D01*
X77874Y15669D01*
X77188Y16128D01*
X76378Y16289D01*
D02*
G37*
G36*
X65354D02*
X64545Y16128D01*
X63858Y15669D01*
X63400Y14983D01*
X63239Y14173D01*
X63400Y13364D01*
X63858Y12677D01*
X64545Y12219D01*
X65354Y12058D01*
X66164Y12219D01*
X66850Y12677D01*
X67309Y13364D01*
X67470Y14173D01*
X67309Y14983D01*
X66850Y15669D01*
X66164Y16128D01*
X65354Y16289D01*
D02*
G37*
G36*
X54331D02*
X53521Y16128D01*
X52835Y15669D01*
X52376Y14983D01*
X52215Y14173D01*
X52376Y13364D01*
X52835Y12677D01*
X53521Y12219D01*
X54331Y12058D01*
X55140Y12219D01*
X55826Y12677D01*
X56285Y13364D01*
X56446Y14173D01*
X56285Y14983D01*
X55826Y15669D01*
X55140Y16128D01*
X54331Y16289D01*
D02*
G37*
G36*
X43307D02*
X42498Y16128D01*
X41811Y15669D01*
X41353Y14983D01*
X41192Y14173D01*
X41353Y13364D01*
X41811Y12677D01*
X42498Y12219D01*
X43307Y12058D01*
X44117Y12219D01*
X44803Y12677D01*
X45261Y13364D01*
X45423Y14173D01*
X45261Y14983D01*
X44803Y15669D01*
X44117Y16128D01*
X43307Y16289D01*
D02*
G37*
G36*
X32283D02*
X31474Y16128D01*
X30788Y15669D01*
X30329Y14983D01*
X30168Y14173D01*
X30329Y13364D01*
X30788Y12677D01*
X31474Y12219D01*
X32283Y12058D01*
X33093Y12219D01*
X33779Y12677D01*
X34238Y13364D01*
X34399Y14173D01*
X34238Y14983D01*
X33779Y15669D01*
X33093Y16128D01*
X32283Y16289D01*
D02*
G37*
G36*
X279528Y21506D02*
X278037Y21310D01*
X276649Y20734D01*
X275456Y19819D01*
X274541Y18627D01*
X273966Y17238D01*
X273770Y15748D01*
X273966Y14258D01*
X274541Y12869D01*
X275456Y11677D01*
X276649Y10762D01*
X278037Y10186D01*
X279528Y9990D01*
X281018Y10186D01*
X282406Y10762D01*
X283599Y11677D01*
X284514Y12869D01*
X285089Y14258D01*
X285285Y15748D01*
X285089Y17238D01*
X284514Y18627D01*
X283599Y19819D01*
X282406Y20734D01*
X281018Y21310D01*
X279528Y21506D01*
D02*
G37*
G36*
X15748D02*
X14258Y21310D01*
X12869Y20734D01*
X11677Y19819D01*
X10762Y18627D01*
X10186Y17238D01*
X9990Y15748D01*
X10186Y14258D01*
X10762Y12869D01*
X11677Y11677D01*
X12869Y10762D01*
X14258Y10186D01*
X15748Y9990D01*
X17238Y10186D01*
X18627Y10762D01*
X19819Y11677D01*
X20734Y12869D01*
X21310Y14258D01*
X21506Y15748D01*
X21310Y17238D01*
X20734Y18627D01*
X19819Y19819D01*
X18627Y20734D01*
X17238Y21310D01*
X15748Y21506D01*
D02*
G37*
%LPD*%
D57*
X276772Y36220D02*
D03*
X276732Y52165D02*
D03*
Y67913D02*
D03*
D58*
X265748Y108268D02*
D03*
X183071Y167323D02*
D03*
X228346D02*
D03*
X248031Y29528D02*
D03*
X112205D02*
D03*
X66929D02*
D03*
X137795Y167323D02*
D03*
X47244D02*
D03*
X157480Y29528D02*
D03*
X92520Y167323D02*
D03*
X202756Y29528D02*
D03*
X29528Y88583D02*
D03*
D59*
X249606Y155118D02*
D03*
Y145669D02*
D03*
Y136221D02*
D03*
Y126772D02*
D03*
Y117323D02*
D03*
Y98425D02*
D03*
Y88976D02*
D03*
Y79528D02*
D03*
X240158Y164567D02*
D03*
Y117323D02*
D03*
X230709D02*
D03*
X221260D02*
D03*
X211811D02*
D03*
X202362D02*
D03*
X192913Y51181D02*
D03*
X183465D02*
D03*
X164567Y41732D02*
D03*
X155118D02*
D03*
X145669D02*
D03*
X136221Y117323D02*
D03*
Y41732D02*
D03*
X126772Y155118D02*
D03*
Y41732D02*
D03*
X117323Y155118D02*
D03*
Y41732D02*
D03*
X107874Y155118D02*
D03*
Y41732D02*
D03*
X98425D02*
D03*
X88976D02*
D03*
X79528Y155118D02*
D03*
Y79528D02*
D03*
Y41732D02*
D03*
X70079Y155118D02*
D03*
Y41732D02*
D03*
X60630Y164567D02*
D03*
Y155118D02*
D03*
Y41732D02*
D03*
X51181Y155118D02*
D03*
Y145669D02*
D03*
Y136221D02*
D03*
Y126772D02*
D03*
Y117323D02*
D03*
Y107874D02*
D03*
Y98425D02*
D03*
Y88976D02*
D03*
X41732Y155118D02*
D03*
Y145669D02*
D03*
Y136221D02*
D03*
Y126772D02*
D03*
Y117323D02*
D03*
Y107874D02*
D03*
Y98425D02*
D03*
X194488Y95669D02*
D03*
X177953D02*
D03*
X62205Y37795D02*
D03*
X71653D02*
D03*
X66929D02*
D03*
X75197Y24803D02*
D03*
Y34252D02*
D03*
Y29528D02*
D03*
X165748D02*
D03*
Y34252D02*
D03*
Y24803D02*
D03*
X157480Y37795D02*
D03*
X162205D02*
D03*
X152756D02*
D03*
X220472Y169685D02*
D03*
Y164961D02*
D03*
X225984Y159449D02*
D03*
X230709D02*
D03*
X236221Y169685D02*
D03*
Y164961D02*
D03*
X180709Y159449D02*
D03*
X185433D02*
D03*
X190945Y169685D02*
D03*
Y164961D02*
D03*
X100394D02*
D03*
Y169685D02*
D03*
X94882Y159449D02*
D03*
X90158D02*
D03*
X84646Y164961D02*
D03*
Y169685D02*
D03*
X55118Y169685D02*
D03*
Y164961D02*
D03*
X49606Y159449D02*
D03*
X44882D02*
D03*
X114567Y37402D02*
D03*
X109843D02*
D03*
X227165Y45669D02*
D03*
X219291D02*
D03*
X211417D02*
D03*
X192126Y58661D02*
D03*
X188189Y57087D02*
D03*
X101969Y122047D02*
D03*
X105905D02*
D03*
X109843D02*
D03*
Y125984D02*
D03*
Y129921D02*
D03*
Y118110D02*
D03*
X101969Y125984D02*
D03*
Y129921D02*
D03*
Y118110D02*
D03*
X105905Y129921D02*
D03*
Y118110D02*
D03*
Y125984D02*
D03*
X142520Y159055D02*
D03*
X129528Y172047D02*
D03*
X133071Y159055D02*
D03*
X129528Y162598D02*
D03*
Y167323D02*
D03*
X137795Y159055D02*
D03*
X205512Y50000D02*
D03*
X257087Y108268D02*
D03*
Y103543D02*
D03*
X252362Y108268D02*
D03*
Y103543D02*
D03*
X257087Y112992D02*
D03*
X252362D02*
D03*
X192126Y90158D02*
D03*
Y82284D02*
D03*
Y74410D02*
D03*
Y66535D02*
D03*
X188189Y86614D02*
D03*
Y76772D02*
D03*
Y66929D02*
D03*
X72441Y79921D02*
D03*
X42913Y83858D02*
D03*
X61417Y79921D02*
D03*
X38189Y83858D02*
D03*
X42913Y93307D02*
D03*
Y88583D02*
D03*
X38189Y93307D02*
D03*
Y88583D02*
D03*
D60*
X129921Y71260D02*
D03*
Y78740D02*
D03*
M02*
