G04*
G04 #@! TF.GenerationSoftware,Altium Limited,Altium Designer,21.9.2 (33)*
G04*
G04 Layer_Color=16711935*
%FSLAX25Y25*%
%MOIN*%
G70*
G04*
G04 #@! TF.SameCoordinates,F924B2C3-1D75-45BD-9772-218C77F4F8C2*
G04*
G04*
G04 #@! TF.FilePolarity,Negative*
G04*
G01*
G75*
%ADD48R,0.06528X0.12465*%
%ADD49O,0.06528X0.12465*%
%ADD50C,0.00591*%
%ADD51C,0.09646*%
D48*
X266772Y36220D02*
D03*
X266732Y52165D02*
D03*
Y67913D02*
D03*
D49*
X276772Y36220D02*
D03*
X276732Y52165D02*
D03*
Y67913D02*
D03*
D50*
X279528Y15748D02*
D03*
X15748D02*
D03*
X279528Y181102D02*
D03*
X15748D02*
D03*
D51*
X265748Y108268D02*
D03*
Y88583D02*
D03*
X202756Y167323D02*
D03*
X183071D02*
D03*
X228346D02*
D03*
X248031D02*
D03*
X228346Y29528D02*
D03*
X248031D02*
D03*
X112205D02*
D03*
X66929D02*
D03*
X47244D02*
D03*
X92520D02*
D03*
X137795Y167323D02*
D03*
X157480D02*
D03*
X47244D02*
D03*
X66929D02*
D03*
X137795Y29528D02*
D03*
X157480D02*
D03*
X112205Y167323D02*
D03*
X92520D02*
D03*
X183071Y29528D02*
D03*
X202756D02*
D03*
X29528Y88583D02*
D03*
Y108268D02*
D03*
M02*
