G04*
G04 #@! TF.GenerationSoftware,Altium Limited,Altium Designer,21.9.2 (33)*
G04*
G04 Layer_Physical_Order=1*
G04 Layer_Color=255*
%FSLAX25Y25*%
%MOIN*%
G70*
G04*
G04 #@! TF.SameCoordinates,F924B2C3-1D75-45BD-9772-218C77F4F8C2*
G04*
G04*
G04 #@! TF.FilePolarity,Positive*
G04*
G01*
G75*
G04:AMPARAMS|DCode=16|XSize=43.31mil|YSize=39.37mil|CornerRadius=2.95mil|HoleSize=0mil|Usage=FLASHONLY|Rotation=180.000|XOffset=0mil|YOffset=0mil|HoleType=Round|Shape=RoundedRectangle|*
%AMROUNDEDRECTD16*
21,1,0.04331,0.03347,0,0,180.0*
21,1,0.03740,0.03937,0,0,180.0*
1,1,0.00591,-0.01870,0.01673*
1,1,0.00591,0.01870,0.01673*
1,1,0.00591,0.01870,-0.01673*
1,1,0.00591,-0.01870,-0.01673*
%
%ADD16ROUNDEDRECTD16*%
G04:AMPARAMS|DCode=17|XSize=43.31mil|YSize=39.37mil|CornerRadius=3.94mil|HoleSize=0mil|Usage=FLASHONLY|Rotation=90.000|XOffset=0mil|YOffset=0mil|HoleType=Round|Shape=RoundedRectangle|*
%AMROUNDEDRECTD17*
21,1,0.04331,0.03150,0,0,90.0*
21,1,0.03543,0.03937,0,0,90.0*
1,1,0.00787,0.01575,0.01772*
1,1,0.00787,0.01575,-0.01772*
1,1,0.00787,-0.01575,-0.01772*
1,1,0.00787,-0.01575,0.01772*
%
%ADD17ROUNDEDRECTD17*%
G04:AMPARAMS|DCode=18|XSize=43.31mil|YSize=39.37mil|CornerRadius=3.94mil|HoleSize=0mil|Usage=FLASHONLY|Rotation=180.000|XOffset=0mil|YOffset=0mil|HoleType=Round|Shape=RoundedRectangle|*
%AMROUNDEDRECTD18*
21,1,0.04331,0.03150,0,0,180.0*
21,1,0.03543,0.03937,0,0,180.0*
1,1,0.00787,-0.01772,0.01575*
1,1,0.00787,0.01772,0.01575*
1,1,0.00787,0.01772,-0.01575*
1,1,0.00787,-0.01772,-0.01575*
%
%ADD18ROUNDEDRECTD18*%
G04:AMPARAMS|DCode=19|XSize=43.31mil|YSize=39.37mil|CornerRadius=2.95mil|HoleSize=0mil|Usage=FLASHONLY|Rotation=90.000|XOffset=0mil|YOffset=0mil|HoleType=Round|Shape=RoundedRectangle|*
%AMROUNDEDRECTD19*
21,1,0.04331,0.03347,0,0,90.0*
21,1,0.03740,0.03937,0,0,90.0*
1,1,0.00591,0.01673,0.01870*
1,1,0.00591,0.01673,-0.01870*
1,1,0.00591,-0.01673,-0.01870*
1,1,0.00591,-0.01673,0.01870*
%
%ADD19ROUNDEDRECTD19*%
G04:AMPARAMS|DCode=20|XSize=23.62mil|YSize=35.43mil|CornerRadius=1.77mil|HoleSize=0mil|Usage=FLASHONLY|Rotation=180.000|XOffset=0mil|YOffset=0mil|HoleType=Round|Shape=RoundedRectangle|*
%AMROUNDEDRECTD20*
21,1,0.02362,0.03189,0,0,180.0*
21,1,0.02008,0.03543,0,0,180.0*
1,1,0.00354,-0.01004,0.01595*
1,1,0.00354,0.01004,0.01595*
1,1,0.00354,0.01004,-0.01595*
1,1,0.00354,-0.01004,-0.01595*
%
%ADD20ROUNDEDRECTD20*%
G04:AMPARAMS|DCode=21|XSize=55.12mil|YSize=35.43mil|CornerRadius=2.66mil|HoleSize=0mil|Usage=FLASHONLY|Rotation=90.000|XOffset=0mil|YOffset=0mil|HoleType=Round|Shape=RoundedRectangle|*
%AMROUNDEDRECTD21*
21,1,0.05512,0.03012,0,0,90.0*
21,1,0.04980,0.03543,0,0,90.0*
1,1,0.00532,0.01506,0.02490*
1,1,0.00532,0.01506,-0.02490*
1,1,0.00532,-0.01506,-0.02490*
1,1,0.00532,-0.01506,0.02490*
%
%ADD21ROUNDEDRECTD21*%
G04:AMPARAMS|DCode=22|XSize=55.12mil|YSize=35.43mil|CornerRadius=2.66mil|HoleSize=0mil|Usage=FLASHONLY|Rotation=180.000|XOffset=0mil|YOffset=0mil|HoleType=Round|Shape=RoundedRectangle|*
%AMROUNDEDRECTD22*
21,1,0.05512,0.03012,0,0,180.0*
21,1,0.04980,0.03543,0,0,180.0*
1,1,0.00532,-0.02490,0.01506*
1,1,0.00532,0.02490,0.01506*
1,1,0.00532,0.02490,-0.01506*
1,1,0.00532,-0.02490,-0.01506*
%
%ADD22ROUNDEDRECTD22*%
G04:AMPARAMS|DCode=23|XSize=74.8mil|YSize=68.9mil|CornerRadius=6.89mil|HoleSize=0mil|Usage=FLASHONLY|Rotation=270.000|XOffset=0mil|YOffset=0mil|HoleType=Round|Shape=RoundedRectangle|*
%AMROUNDEDRECTD23*
21,1,0.07480,0.05512,0,0,270.0*
21,1,0.06102,0.06890,0,0,270.0*
1,1,0.01378,-0.02756,-0.03051*
1,1,0.01378,-0.02756,0.03051*
1,1,0.01378,0.02756,0.03051*
1,1,0.01378,0.02756,-0.03051*
%
%ADD23ROUNDEDRECTD23*%
G04:AMPARAMS|DCode=24|XSize=57.09mil|YSize=122.05mil|CornerRadius=4.28mil|HoleSize=0mil|Usage=FLASHONLY|Rotation=90.000|XOffset=0mil|YOffset=0mil|HoleType=Round|Shape=RoundedRectangle|*
%AMROUNDEDRECTD24*
21,1,0.05709,0.11348,0,0,90.0*
21,1,0.04852,0.12205,0,0,90.0*
1,1,0.00856,0.05674,0.02426*
1,1,0.00856,0.05674,-0.02426*
1,1,0.00856,-0.05674,-0.02426*
1,1,0.00856,-0.05674,0.02426*
%
%ADD24ROUNDEDRECTD24*%
G04:AMPARAMS|DCode=25|XSize=192.91mil|YSize=153.54mil|CornerRadius=11.52mil|HoleSize=0mil|Usage=FLASHONLY|Rotation=0.000|XOffset=0mil|YOffset=0mil|HoleType=Round|Shape=RoundedRectangle|*
%AMROUNDEDRECTD25*
21,1,0.19291,0.13051,0,0,0.0*
21,1,0.16988,0.15354,0,0,0.0*
1,1,0.02303,0.08494,-0.06526*
1,1,0.02303,-0.08494,-0.06526*
1,1,0.02303,-0.08494,0.06526*
1,1,0.02303,0.08494,0.06526*
%
%ADD25ROUNDEDRECTD25*%
G04:AMPARAMS|DCode=26|XSize=28.35mil|YSize=74.8mil|CornerRadius=2.13mil|HoleSize=0mil|Usage=FLASHONLY|Rotation=270.000|XOffset=0mil|YOffset=0mil|HoleType=Round|Shape=RoundedRectangle|*
%AMROUNDEDRECTD26*
21,1,0.02835,0.07055,0,0,270.0*
21,1,0.02410,0.07480,0,0,270.0*
1,1,0.00425,-0.03528,-0.01205*
1,1,0.00425,-0.03528,0.01205*
1,1,0.00425,0.03528,0.01205*
1,1,0.00425,0.03528,-0.01205*
%
%ADD26ROUNDEDRECTD26*%
%ADD27R,0.03740X0.03543*%
%ADD28R,0.07008X0.01654*%
%ADD29R,0.12205X0.16929*%
G04:AMPARAMS|DCode=30|XSize=70.08mil|YSize=16.54mil|CornerRadius=2.07mil|HoleSize=0mil|Usage=FLASHONLY|Rotation=0.000|XOffset=0mil|YOffset=0mil|HoleType=Round|Shape=RoundedRectangle|*
%AMROUNDEDRECTD30*
21,1,0.07008,0.01240,0,0,0.0*
21,1,0.06594,0.01654,0,0,0.0*
1,1,0.00413,0.03297,-0.00620*
1,1,0.00413,-0.03297,-0.00620*
1,1,0.00413,-0.03297,0.00620*
1,1,0.00413,0.03297,0.00620*
%
%ADD30ROUNDEDRECTD30*%
%ADD52R,0.17756X0.16910*%
%ADD53R,0.02657X0.03150*%
%ADD54C,0.02000*%
%ADD55C,0.01500*%
%ADD56R,0.05937X0.11874*%
%ADD57O,0.05937X0.11874*%
%ADD58C,0.09055*%
%ADD59C,0.03150*%
%ADD60C,0.02362*%
G36*
X288739Y195702D02*
X290026Y195311D01*
X291211Y194678D01*
X292250Y193825D01*
X293103Y192786D01*
X293737Y191601D01*
X294127Y190314D01*
X294258Y188985D01*
X294256Y188976D01*
Y7874D01*
X294258Y7865D01*
X294127Y6536D01*
X293737Y5250D01*
X293103Y4064D01*
X292250Y3025D01*
X291211Y2173D01*
X290026Y1539D01*
X288739Y1149D01*
X287410Y1018D01*
X287402Y1020D01*
X7874D01*
X7865Y1018D01*
X6536Y1149D01*
X5250Y1539D01*
X4064Y2173D01*
X3025Y3025D01*
X2173Y4064D01*
X1539Y5250D01*
X1149Y6536D01*
X1018Y7865D01*
X1020Y7874D01*
Y188976D01*
X1018Y188985D01*
X1149Y190314D01*
X1539Y191601D01*
X2173Y192786D01*
X3025Y193825D01*
X4064Y194678D01*
X5250Y195311D01*
X6536Y195702D01*
X7865Y195833D01*
X7874Y195831D01*
X287402D01*
X287410Y195833D01*
X288739Y195702D01*
D02*
G37*
%LPC*%
G36*
X280279Y186811D02*
X278776D01*
X277324Y186422D01*
X276022Y185670D01*
X274959Y184608D01*
X274208Y183306D01*
X273819Y181854D01*
Y180351D01*
X274208Y178899D01*
X274959Y177597D01*
X276022Y176534D01*
X277324Y175783D01*
X278776Y175394D01*
X280279D01*
X281731Y175783D01*
X283033Y176534D01*
X284096Y177597D01*
X284847Y178899D01*
X285236Y180351D01*
Y181854D01*
X284847Y183306D01*
X284096Y184608D01*
X283033Y185670D01*
X281731Y186422D01*
X280279Y186811D01*
D02*
G37*
G36*
X16500D02*
X14997D01*
X13545Y186422D01*
X12243Y185670D01*
X11180Y184608D01*
X10428Y183306D01*
X10039Y181854D01*
Y180351D01*
X10428Y178899D01*
X11180Y177597D01*
X12243Y176534D01*
X13545Y175783D01*
X14997Y175394D01*
X16500D01*
X17952Y175783D01*
X19253Y176534D01*
X20316Y177597D01*
X21068Y178899D01*
X21457Y180351D01*
Y181854D01*
X21068Y183306D01*
X20316Y184608D01*
X19253Y185670D01*
X17952Y186422D01*
X16500Y186811D01*
D02*
G37*
G36*
X158730Y172710D02*
Y168573D01*
X162868D01*
X162631Y169456D01*
X161904Y170717D01*
X160874Y171746D01*
X159614Y172474D01*
X158730Y172710D01*
D02*
G37*
G36*
X156230D02*
X155347Y172474D01*
X154086Y171746D01*
X153057Y170717D01*
X152329Y169456D01*
X152093Y168573D01*
X156230D01*
Y172710D01*
D02*
G37*
G36*
X162868Y166073D02*
X158730D01*
Y161935D01*
X159614Y162172D01*
X160874Y162900D01*
X161904Y163929D01*
X162631Y165189D01*
X162868Y166073D01*
D02*
G37*
G36*
X156230D02*
X152093D01*
X152329Y165189D01*
X153057Y163929D01*
X154086Y162900D01*
X155347Y162172D01*
X156230Y161935D01*
Y166073D01*
D02*
G37*
G36*
X251969Y175197D02*
X179134D01*
X175197Y171260D01*
Y156447D01*
X161811Y156447D01*
X161811Y156447D01*
X161428Y156288D01*
X158279Y153139D01*
X158120Y152756D01*
X158120Y152756D01*
Y150000D01*
X145669D01*
Y171260D01*
X141732Y175197D01*
X43307D01*
X39370Y171260D01*
Y100394D01*
X35433Y96457D01*
X25591D01*
X21654Y92520D01*
Y84646D01*
X25591Y80709D01*
X53150D01*
X57087Y76772D01*
Y42323D01*
Y25591D01*
X61024Y21654D01*
X78740D01*
X82677Y25591D01*
Y35433D01*
X86614Y39370D01*
X98425D01*
X102362Y35433D01*
Y25591D01*
X106299Y21654D01*
X118110Y21654D01*
X122047Y25591D01*
Y35433D01*
X125984Y39370D01*
X145669D01*
X149606Y35433D01*
Y25591D01*
X153543Y21654D01*
X270472D01*
X272441Y23622D01*
Y74803D01*
X270472Y76772D01*
X255906D01*
Y96457D01*
X259842Y100394D01*
X269685D01*
X273622Y104331D01*
Y112205D01*
X269685Y116142D01*
X259842D01*
X255906Y120079D01*
Y171260D01*
X251969Y175197D01*
D02*
G37*
G36*
X30778Y113655D02*
Y109518D01*
X34915D01*
X34678Y110401D01*
X33951Y111662D01*
X32922Y112691D01*
X31661Y113419D01*
X30778Y113655D01*
D02*
G37*
G36*
X28278D02*
X27394Y113419D01*
X26134Y112691D01*
X25104Y111662D01*
X24377Y110401D01*
X24140Y109518D01*
X28278D01*
Y113655D01*
D02*
G37*
G36*
X34915Y107018D02*
X30778D01*
Y102880D01*
X31661Y103117D01*
X32922Y103845D01*
X33951Y104874D01*
X34678Y106134D01*
X34915Y107018D01*
D02*
G37*
G36*
X28278D02*
X24140D01*
X24377Y106134D01*
X25104Y104874D01*
X26134Y103845D01*
X27394Y103117D01*
X28278Y102880D01*
Y107018D01*
D02*
G37*
G36*
X266998Y93970D02*
Y89833D01*
X271136D01*
X270899Y90716D01*
X270171Y91977D01*
X269142Y93006D01*
X267882Y93734D01*
X266998Y93970D01*
D02*
G37*
G36*
X264498Y93970D02*
X263615Y93734D01*
X262354Y93006D01*
X261325Y91977D01*
X260597Y90716D01*
X260360Y89833D01*
X264498D01*
Y93970D01*
D02*
G37*
G36*
X271136Y87333D02*
X266998D01*
Y83195D01*
X267882Y83432D01*
X269142Y84159D01*
X270171Y85189D01*
X270899Y86449D01*
X271136Y87333D01*
D02*
G37*
G36*
X264498D02*
X260360D01*
X260597Y86449D01*
X261325Y85189D01*
X262354Y84159D01*
X263615Y83432D01*
X264498Y83195D01*
Y87333D01*
D02*
G37*
G36*
X50968Y68175D02*
X48441D01*
Y67243D01*
X51695D01*
Y67448D01*
X51640Y67726D01*
X51482Y67962D01*
X51247Y68119D01*
X50968Y68175D01*
D02*
G37*
G36*
X46441D02*
X43913D01*
X43635Y68119D01*
X43400Y67962D01*
X43242Y67726D01*
X43187Y67448D01*
Y67243D01*
X46441D01*
Y68175D01*
D02*
G37*
G36*
X51695Y65243D02*
X48441D01*
Y64312D01*
X50968D01*
X51247Y64367D01*
X51482Y64525D01*
X51640Y64761D01*
X51695Y65039D01*
Y65243D01*
D02*
G37*
G36*
X46441D02*
X43187D01*
Y65039D01*
X43242Y64761D01*
X43400Y64525D01*
X43635Y64367D01*
X43913Y64312D01*
X46441D01*
Y65243D01*
D02*
G37*
G36*
X50968Y63175D02*
X48441D01*
Y62243D01*
X51695D01*
Y62448D01*
X51640Y62726D01*
X51482Y62962D01*
X51247Y63119D01*
X50968Y63175D01*
D02*
G37*
G36*
X46441D02*
X43913D01*
X43635Y63119D01*
X43400Y62962D01*
X43242Y62726D01*
X43187Y62448D01*
Y62243D01*
X46441D01*
Y63175D01*
D02*
G37*
G36*
X276732Y74380D02*
X275827Y74261D01*
X274983Y73912D01*
X274258Y73356D01*
X273703Y72631D01*
X273353Y71787D01*
X273234Y70882D01*
Y64945D01*
X273353Y64039D01*
X273703Y63196D01*
X274258Y62471D01*
X274983Y61915D01*
X275827Y61566D01*
X276732Y61446D01*
X277638Y61566D01*
X278482Y61915D01*
X279206Y62471D01*
X279762Y63196D01*
X280112Y64039D01*
X280231Y64945D01*
Y70882D01*
X280112Y71787D01*
X279762Y72631D01*
X279206Y73356D01*
X278482Y73912D01*
X277638Y74261D01*
X276732Y74380D01*
D02*
G37*
G36*
X51695Y60243D02*
X48441D01*
Y59312D01*
X50968D01*
X51247Y59367D01*
X51482Y59525D01*
X51640Y59761D01*
X51695Y60039D01*
Y60243D01*
D02*
G37*
G36*
X46441D02*
X43187D01*
Y60039D01*
X43242Y59761D01*
X43400Y59525D01*
X43635Y59367D01*
X43913Y59312D01*
X46441D01*
Y60243D01*
D02*
G37*
G36*
X50968Y58175D02*
X48441D01*
Y57243D01*
X51695D01*
Y57448D01*
X51640Y57726D01*
X51482Y57962D01*
X51247Y58119D01*
X50968Y58175D01*
D02*
G37*
G36*
X46441D02*
X43913D01*
X43635Y58119D01*
X43400Y57962D01*
X43242Y57726D01*
X43187Y57448D01*
Y57243D01*
X46441D01*
Y58175D01*
D02*
G37*
G36*
X51695Y55243D02*
X48441D01*
Y54312D01*
X50968D01*
X51247Y54367D01*
X51482Y54525D01*
X51640Y54761D01*
X51695Y55039D01*
Y55243D01*
D02*
G37*
G36*
X46441D02*
X43187D01*
Y55039D01*
X43242Y54761D01*
X43400Y54525D01*
X43635Y54367D01*
X43913Y54312D01*
X46441D01*
Y55243D01*
D02*
G37*
G36*
X50968Y53175D02*
X48441D01*
Y52243D01*
X51695D01*
Y52448D01*
X51640Y52726D01*
X51482Y52962D01*
X51247Y53119D01*
X50968Y53175D01*
D02*
G37*
G36*
X46441D02*
X43913D01*
X43635Y53119D01*
X43400Y52962D01*
X43242Y52726D01*
X43187Y52448D01*
Y52243D01*
X46441D01*
Y53175D01*
D02*
G37*
G36*
X51695Y50243D02*
X48441D01*
Y49312D01*
X50968D01*
X51247Y49367D01*
X51482Y49525D01*
X51640Y49761D01*
X51695Y50039D01*
Y50243D01*
D02*
G37*
G36*
X46441D02*
X43187D01*
Y50039D01*
X43242Y49761D01*
X43400Y49525D01*
X43635Y49367D01*
X43913Y49312D01*
X46441D01*
Y50243D01*
D02*
G37*
G36*
X276732Y58632D02*
X275827Y58513D01*
X274983Y58164D01*
X274258Y57608D01*
X273703Y56883D01*
X273353Y56039D01*
X273234Y55134D01*
Y49197D01*
X273353Y48291D01*
X273703Y47448D01*
X274258Y46723D01*
X274983Y46167D01*
X275827Y45818D01*
X276732Y45698D01*
X277638Y45818D01*
X278482Y46167D01*
X279206Y46723D01*
X279762Y47448D01*
X280112Y48291D01*
X280231Y49197D01*
Y55134D01*
X280112Y56039D01*
X279762Y56883D01*
X279206Y57608D01*
X278482Y58164D01*
X277638Y58513D01*
X276732Y58632D01*
D02*
G37*
G36*
X139045Y34915D02*
Y30778D01*
X143183D01*
X142946Y31661D01*
X142218Y32922D01*
X141189Y33951D01*
X139929Y34678D01*
X139045Y34915D01*
D02*
G37*
G36*
X136545D02*
X135662Y34678D01*
X134401Y33951D01*
X133372Y32922D01*
X132644Y31661D01*
X132408Y30778D01*
X136545D01*
Y34915D01*
D02*
G37*
G36*
X93770D02*
Y30778D01*
X97907D01*
X97671Y31661D01*
X96943Y32922D01*
X95914Y33951D01*
X94653Y34678D01*
X93770Y34915D01*
D02*
G37*
G36*
X91270D02*
X90386Y34678D01*
X89126Y33951D01*
X88096Y32922D01*
X87369Y31661D01*
X87132Y30778D01*
X91270D01*
Y34915D01*
D02*
G37*
G36*
X48494D02*
Y30778D01*
X52632D01*
X52395Y31661D01*
X51667Y32922D01*
X50638Y33951D01*
X49378Y34678D01*
X48494Y34915D01*
D02*
G37*
G36*
X45994D02*
X45110Y34678D01*
X43850Y33951D01*
X42821Y32922D01*
X42093Y31661D01*
X41857Y30778D01*
X45994D01*
Y34915D01*
D02*
G37*
G36*
X276772Y42687D02*
X275866Y42568D01*
X275022Y42219D01*
X274298Y41663D01*
X273742Y40938D01*
X273392Y40094D01*
X273273Y39189D01*
Y33252D01*
X273392Y32346D01*
X273742Y31503D01*
X274298Y30778D01*
X275022Y30222D01*
X275866Y29873D01*
X276772Y29754D01*
X277677Y29873D01*
X278521Y30222D01*
X279245Y30778D01*
X279801Y31503D01*
X280151Y32346D01*
X280270Y33252D01*
Y39189D01*
X280151Y40094D01*
X279801Y40938D01*
X279245Y41663D01*
X278521Y42219D01*
X277677Y42568D01*
X276772Y42687D01*
D02*
G37*
G36*
X143183Y28278D02*
X139045D01*
Y24140D01*
X139929Y24377D01*
X141189Y25104D01*
X142218Y26134D01*
X142946Y27394D01*
X143183Y28278D01*
D02*
G37*
G36*
X136545D02*
X132408D01*
X132644Y27394D01*
X133372Y26134D01*
X134401Y25104D01*
X135662Y24377D01*
X136545Y24140D01*
Y28278D01*
D02*
G37*
G36*
X97907D02*
X93770D01*
Y24140D01*
X94653Y24377D01*
X95914Y25104D01*
X96943Y26134D01*
X97671Y27394D01*
X97907Y28278D01*
D02*
G37*
G36*
X91270D02*
X87132D01*
X87369Y27394D01*
X88096Y26134D01*
X89126Y25104D01*
X90386Y24377D01*
X91270Y24140D01*
Y28278D01*
D02*
G37*
G36*
X52632D02*
X48494D01*
Y24140D01*
X49378Y24377D01*
X50638Y25104D01*
X51667Y26134D01*
X52395Y27394D01*
X52632Y28278D01*
D02*
G37*
G36*
X45994D02*
X41857D01*
X42093Y27394D01*
X42821Y26134D01*
X43850Y25104D01*
X45110Y24377D01*
X45994Y24140D01*
Y28278D01*
D02*
G37*
G36*
X280279Y21457D02*
X278776D01*
X277324Y21068D01*
X276022Y20316D01*
X274959Y19253D01*
X274208Y17952D01*
X273819Y16500D01*
Y14997D01*
X274208Y13545D01*
X274959Y12243D01*
X276022Y11180D01*
X277324Y10428D01*
X278776Y10039D01*
X280279D01*
X281731Y10428D01*
X283033Y11180D01*
X284096Y12243D01*
X284847Y13545D01*
X285236Y14997D01*
Y16500D01*
X284847Y17952D01*
X284096Y19253D01*
X283033Y20316D01*
X281731Y21068D01*
X280279Y21457D01*
D02*
G37*
G36*
X16500D02*
X14997D01*
X13545Y21068D01*
X12243Y20316D01*
X11180Y19253D01*
X10428Y17952D01*
X10039Y16500D01*
Y14997D01*
X10428Y13545D01*
X11180Y12243D01*
X12243Y11180D01*
X13545Y10428D01*
X14997Y10039D01*
X16500D01*
X17952Y10428D01*
X19253Y11180D01*
X20316Y12243D01*
X21068Y13545D01*
X21457Y14997D01*
Y16500D01*
X21068Y17952D01*
X20316Y19253D01*
X19253Y20316D01*
X17952Y21068D01*
X16500Y21457D01*
D02*
G37*
%LPD*%
G36*
X67667Y147291D02*
X67807Y147150D01*
X67967Y147026D01*
X68146Y146918D01*
X68345Y146827D01*
X68563Y146753D01*
X68801Y146695D01*
X69058Y146653D01*
X69335Y146628D01*
X69631Y146620D01*
Y144620D01*
X69347Y144611D01*
X69079Y144583D01*
X68828Y144537D01*
X68594Y144472D01*
X68378Y144388D01*
X68177Y144287D01*
X67994Y144166D01*
X67828Y144027D01*
X67679Y143869D01*
X67547Y143693D01*
Y147448D01*
X67667Y147291D01*
D02*
G37*
G36*
X63398Y143693D02*
X63272Y143860D01*
X63127Y144009D01*
X62964Y144141D01*
X62783Y144255D01*
X62584Y144351D01*
X62366Y144430D01*
X62130Y144492D01*
X61876Y144536D01*
X61604Y144562D01*
X61313Y144571D01*
Y146571D01*
X61604Y146580D01*
X61876Y146606D01*
X62130Y146650D01*
X62366Y146711D01*
X62584Y146790D01*
X62783Y146887D01*
X62964Y147001D01*
X63127Y147132D01*
X63272Y147282D01*
X63398Y147448D01*
Y143693D01*
D02*
G37*
G36*
X67634Y140629D02*
X67680Y140502D01*
X67755Y140389D01*
X67861Y140292D01*
X67997Y140209D01*
X68164Y140142D01*
X68360Y140089D01*
X68587Y140052D01*
X68844Y140029D01*
X69131Y140022D01*
Y138522D01*
X68844Y138514D01*
X68587Y138492D01*
X68360Y138454D01*
X68164Y138402D01*
X67997Y138334D01*
X67861Y138252D01*
X67755Y138154D01*
X67680Y138042D01*
X67634Y137914D01*
X67619Y137772D01*
Y140772D01*
X67634Y140629D01*
D02*
G37*
G36*
X126583Y137697D02*
X126564Y137806D01*
X126513Y137903D01*
X126428Y137990D01*
X126311Y138065D01*
X126162Y138128D01*
X125979Y138180D01*
X125764Y138220D01*
X125516Y138249D01*
X125235Y138266D01*
X124921Y138272D01*
Y140272D01*
X125226Y140277D01*
X125739Y140324D01*
X125947Y140365D01*
X126123Y140417D01*
X126266Y140481D01*
X126377Y140557D01*
X126455Y140644D01*
X126501Y140743D01*
X126515Y140853D01*
X126583Y137697D01*
D02*
G37*
G36*
X132029Y140928D02*
X132155Y140811D01*
X132305Y140708D01*
X132478Y140618D01*
X132674Y140542D01*
X132893Y140480D01*
X133135Y140432D01*
X133401Y140398D01*
X133689Y140377D01*
X134001Y140370D01*
Y138370D01*
X133689Y138363D01*
X133135Y138308D01*
X132893Y138260D01*
X132674Y138198D01*
X132478Y138122D01*
X132305Y138032D01*
X132155Y137929D01*
X132029Y137812D01*
X131925Y137681D01*
Y141059D01*
X132029Y140928D01*
D02*
G37*
G36*
X66230Y137328D02*
X66230Y137322D01*
X66972D01*
X66830Y137306D01*
X66702Y137261D01*
X66590Y137186D01*
X66492Y137080D01*
X66410Y136944D01*
X66342Y136777D01*
X66325Y136713D01*
X66342Y136648D01*
X66410Y136482D01*
X66492Y136346D01*
X66590Y136240D01*
X66702Y136164D01*
X66830Y136119D01*
X66972Y136104D01*
X66230D01*
X66230Y136097D01*
X66222Y135810D01*
X64722D01*
X64715Y136097D01*
X64714Y136104D01*
X63972D01*
X64115Y136119D01*
X64242Y136164D01*
X64355Y136240D01*
X64452Y136346D01*
X64535Y136482D01*
X64602Y136648D01*
X64620Y136713D01*
X64602Y136777D01*
X64535Y136944D01*
X64452Y137080D01*
X64355Y137186D01*
X64242Y137261D01*
X64115Y137306D01*
X63972Y137322D01*
X64714D01*
X64715Y137328D01*
X64722Y137616D01*
X66222D01*
X66230Y137328D01*
D02*
G37*
G36*
X142333Y133539D02*
X142318Y133682D01*
X142273Y133809D01*
X142197Y133922D01*
X142091Y134019D01*
X141955Y134102D01*
X141789Y134169D01*
X141592Y134222D01*
X141366Y134259D01*
X141109Y134282D01*
X140821Y134289D01*
Y135789D01*
X141109Y135797D01*
X141366Y135819D01*
X141592Y135857D01*
X141789Y135909D01*
X141955Y135977D01*
X142091Y136059D01*
X142197Y136157D01*
X142273Y136269D01*
X142318Y136397D01*
X142333Y136539D01*
Y133539D01*
D02*
G37*
G36*
X121969Y132243D02*
X121045Y132203D01*
Y133741D01*
X121969Y133743D01*
Y132243D01*
D02*
G37*
G36*
X90766Y132203D02*
X90750Y132207D01*
X90703Y132210D01*
X90024Y132221D01*
X89258Y132222D01*
Y133722D01*
X90766Y133741D01*
Y132203D01*
D02*
G37*
G36*
X80036Y134330D02*
X80081Y134202D01*
X80157Y134090D01*
X80263Y133992D01*
X80399Y133910D01*
X80565Y133842D01*
X80762Y133790D01*
X80989Y133752D01*
X81246Y133730D01*
X81533Y133722D01*
Y132222D01*
X81246Y132215D01*
X80989Y132192D01*
X80762Y132155D01*
X80565Y132102D01*
X80399Y132035D01*
X80263Y131952D01*
X80157Y131855D01*
X80081Y131742D01*
X80036Y131615D01*
X80021Y131472D01*
Y134472D01*
X80036Y134330D01*
D02*
G37*
G36*
X132004Y134231D02*
X132049Y134104D01*
X132125Y133992D01*
X132231Y133894D01*
X132367Y133811D01*
X132533Y133744D01*
X132730Y133692D01*
X132957Y133654D01*
X133214Y133632D01*
X133501Y133624D01*
Y132124D01*
X133214Y132116D01*
X132957Y132094D01*
X132730Y132056D01*
X132533Y132004D01*
X132367Y131937D01*
X132231Y131854D01*
X132125Y131756D01*
X132049Y131644D01*
X132004Y131517D01*
X131989Y131374D01*
Y134374D01*
X132004Y134231D01*
D02*
G37*
G36*
X126532Y131284D02*
X126516Y131427D01*
X126470Y131554D01*
X126393Y131666D01*
X126285Y131763D01*
X126148Y131845D01*
X125979Y131913D01*
X125781Y131965D01*
X125552Y132002D01*
X125293Y132025D01*
X125003Y132032D01*
Y133532D01*
X125291Y133540D01*
X125549Y133562D01*
X125776Y133600D01*
X125973Y133652D01*
X126139Y133720D01*
X126275Y133802D01*
X126381Y133900D01*
X126456Y134012D01*
X126501Y134140D01*
X126515Y134282D01*
X126532Y131284D01*
D02*
G37*
G36*
X62717Y129823D02*
X62618Y129921D01*
Y129921D01*
X62717Y129823D01*
D02*
G37*
G36*
X121061Y131179D02*
X121107Y131176D01*
X121780Y131165D01*
X122539Y131163D01*
Y129663D01*
X121045Y129644D01*
Y131183D01*
X121061Y131179D01*
D02*
G37*
G36*
X90766Y129644D02*
X90750Y129648D01*
X90703Y129651D01*
X90024Y129662D01*
X89258Y129663D01*
Y131163D01*
X90766Y131183D01*
Y129644D01*
D02*
G37*
G36*
X156661Y130337D02*
X156707Y129857D01*
X156746Y129662D01*
X156797Y129497D01*
X156860Y129362D01*
X156933Y129257D01*
X157018Y129182D01*
X157115Y129137D01*
X157222Y129122D01*
X154589D01*
X154697Y129137D01*
X154793Y129182D01*
X154878Y129257D01*
X154952Y129362D01*
X155014Y129497D01*
X155065Y129662D01*
X155104Y129857D01*
X155133Y130082D01*
X155150Y130337D01*
X155156Y130622D01*
X156656D01*
X156661Y130337D01*
D02*
G37*
G36*
X90766Y127085D02*
X90750Y127089D01*
X90703Y127092D01*
X90024Y127103D01*
X89258Y127104D01*
Y128604D01*
X90766Y128623D01*
Y127085D01*
D02*
G37*
G36*
X240158Y152559D02*
Y128937D01*
X236221Y125000D01*
X158661Y125000D01*
X158661Y152756D01*
X161811Y155905D01*
X236811Y155905D01*
X240158Y152559D01*
D02*
G37*
G36*
X121061Y126061D02*
X121107Y126058D01*
X121787Y126047D01*
X122553Y126045D01*
Y124545D01*
X121045Y124526D01*
Y126064D01*
X121061Y126061D01*
D02*
G37*
G36*
X90766Y124526D02*
X90750Y124530D01*
X90703Y124533D01*
X90024Y124544D01*
X89258Y124545D01*
Y126045D01*
X90766Y126064D01*
Y124526D01*
D02*
G37*
G36*
X126515Y124501D02*
X126500Y124640D01*
X126455Y124765D01*
X126381Y124875D01*
X126276Y124970D01*
X126141Y125051D01*
X125977Y125117D01*
X125782Y125168D01*
X125558Y125205D01*
X125304Y125227D01*
X125020Y125234D01*
Y126734D01*
X125304Y126742D01*
X125558Y126764D01*
X125782Y126800D01*
X125977Y126852D01*
X126141Y126918D01*
X126276Y126998D01*
X126381Y127094D01*
X126455Y127204D01*
X126500Y127328D01*
X126515Y127468D01*
Y124501D01*
D02*
G37*
G36*
X138593Y124484D02*
X138578Y124627D01*
X138533Y124754D01*
X138457Y124867D01*
X138351Y124964D01*
X138215Y125047D01*
X138049Y125114D01*
X137852Y125167D01*
X137625Y125204D01*
X137368Y125227D01*
X137081Y125234D01*
Y126734D01*
X137368Y126742D01*
X137625Y126764D01*
X137852Y126802D01*
X138049Y126854D01*
X138215Y126922D01*
X138351Y127004D01*
X138457Y127102D01*
X138533Y127214D01*
X138578Y127342D01*
X138593Y127484D01*
Y124484D01*
D02*
G37*
G36*
X132004Y127342D02*
X132049Y127214D01*
X132125Y127102D01*
X132231Y127004D01*
X132367Y126922D01*
X132533Y126854D01*
X132730Y126802D01*
X132957Y126764D01*
X133214Y126742D01*
X133501Y126734D01*
Y125234D01*
X133214Y125227D01*
X132957Y125204D01*
X132730Y125167D01*
X132533Y125114D01*
X132367Y125047D01*
X132231Y124964D01*
X132125Y124867D01*
X132049Y124754D01*
X132004Y124627D01*
X131989Y124484D01*
Y127484D01*
X132004Y127342D01*
D02*
G37*
G36*
X255364Y171036D02*
Y120079D01*
X255523Y119696D01*
X255523Y119696D01*
X259460Y115759D01*
X259842Y115601D01*
X259842Y115601D01*
X269461D01*
X273081Y111980D01*
Y104555D01*
X269461Y100935D01*
X259842D01*
X259460Y100776D01*
X259460Y100776D01*
X255523Y96839D01*
X255364Y96457D01*
X255364Y96457D01*
Y76772D01*
X255331Y76722D01*
X244909D01*
X240699Y80933D01*
Y108268D01*
X240540Y108651D01*
X240540Y108651D01*
X236603Y112587D01*
X236603Y112587D01*
X236221Y112746D01*
X236220Y112746D01*
X205118Y112746D01*
X204735Y112587D01*
X204735Y112587D01*
X200405Y108257D01*
X200246Y107874D01*
X200246Y107874D01*
Y55118D01*
X200246Y55118D01*
X200405Y54735D01*
X200405Y54735D01*
X201979Y53161D01*
X202362Y53002D01*
X202362Y53002D01*
X231666D01*
X233711Y50957D01*
Y45500D01*
X232059Y43848D01*
X179134D01*
X178751Y43690D01*
X178751Y43690D01*
X174814Y39753D01*
X174656Y39370D01*
X174656Y39370D01*
Y22195D01*
X153768D01*
X150147Y25815D01*
Y35433D01*
X150147Y35433D01*
X149989Y35816D01*
X146052Y39753D01*
X145669Y39911D01*
X145669Y39911D01*
X125984D01*
X125984Y39911D01*
X125602Y39753D01*
X121665Y35816D01*
X121506Y35433D01*
X121506Y35433D01*
Y25815D01*
X117886Y22195D01*
X106523Y22195D01*
X102903Y25815D01*
Y35433D01*
X102903Y35433D01*
X102745Y35816D01*
X98808Y39753D01*
X98425Y39911D01*
X98425Y39911D01*
X86614D01*
X86614Y39911D01*
X86231Y39753D01*
X82294Y35816D01*
X82136Y35433D01*
X82136Y35433D01*
Y25815D01*
X78516Y22195D01*
X61248D01*
X57628Y25815D01*
Y42323D01*
Y46309D01*
X170866Y46309D01*
X170866Y46309D01*
X171249Y46468D01*
X171249Y46468D01*
X175580Y50798D01*
X175580Y50798D01*
X175738Y51181D01*
X175738Y51181D01*
Y99213D01*
X183841D01*
X184003Y99077D01*
X184183Y98713D01*
X184179Y98705D01*
X184191Y98677D01*
X184182Y98647D01*
X184269Y98489D01*
X184338Y98322D01*
X184366Y98310D01*
X184380Y98284D01*
X184404Y98277D01*
X184405Y98277D01*
X184405D01*
X184462Y98259D01*
X184554Y98233D01*
X184721Y98163D01*
X184946D01*
Y95866D01*
X185043Y95378D01*
X185319Y94965D01*
X185733Y94689D01*
X186221Y94592D01*
X186708Y94689D01*
X187122Y94965D01*
X187398Y95378D01*
X187495Y95866D01*
Y98163D01*
X187721D01*
X187887Y98233D01*
X188061Y98284D01*
X188075Y98310D01*
X188103Y98322D01*
X188172Y98489D01*
X188259Y98647D01*
X188250Y98677D01*
X188262Y98705D01*
X188258Y98713D01*
X188438Y99077D01*
X188600Y99213D01*
X192520D01*
X193898Y100591D01*
Y110679D01*
X194280Y110838D01*
X194439Y111221D01*
Y116640D01*
X194939Y116869D01*
X195318Y116615D01*
X195974Y116485D01*
X196630Y116615D01*
X197186Y116987D01*
X197558Y117543D01*
X197688Y118199D01*
X197558Y118855D01*
X197249Y119317D01*
Y120366D01*
X197803D01*
Y124459D01*
X236221D01*
X236221Y124459D01*
X236603Y124617D01*
X240540Y128554D01*
X240699Y128937D01*
X240699Y128937D01*
Y152559D01*
X240540Y152942D01*
X240540Y152942D01*
X237194Y156288D01*
X237194Y156288D01*
X236811Y156447D01*
X236811Y156447D01*
X176238Y156447D01*
X175738Y156447D01*
Y171036D01*
X179358Y174656D01*
X251744D01*
X255364Y171036D01*
D02*
G37*
G36*
X110036Y123610D02*
X109100Y122895D01*
X108268Y122063D01*
X108261Y122097D01*
X108242Y122141D01*
X108209Y122196D01*
X108163Y122261D01*
X108031Y122422D01*
X107845Y122624D01*
X107607Y122869D01*
X107754Y123015D01*
X107652Y123119D01*
X108337Y123599D01*
X109021Y124283D01*
X109143Y124163D01*
X109315Y124284D01*
X110036Y123610D01*
D02*
G37*
G36*
X104335Y123642D02*
X105349Y123521D01*
X104412Y121548D01*
X104391Y121584D01*
X104352Y121616D01*
X104296Y121644D01*
X104223Y121669D01*
X104132Y121689D01*
X104024Y121706D01*
X103947Y121713D01*
X103850Y121706D01*
X103742Y121689D01*
X103651Y121669D01*
X103578Y121644D01*
X103522Y121616D01*
X103483Y121584D01*
X103462Y121548D01*
X101969Y122985D01*
X102525Y123521D01*
X103539Y123642D01*
X103544Y123736D01*
X103937Y123689D01*
X104330Y123736D01*
X104335Y123642D01*
D02*
G37*
G36*
X121061Y123502D02*
X121107Y123498D01*
X121787Y123488D01*
X122553Y123486D01*
X122553Y121986D01*
X121045Y121967D01*
Y123505D01*
X121061Y123502D01*
D02*
G37*
G36*
X99827Y123710D02*
X101412Y123521D01*
X101969Y122985D01*
X100475Y121548D01*
X100454Y121584D01*
X100415Y121616D01*
X100359Y121644D01*
X100285Y121669D01*
X100195Y121689D01*
X100086Y121706D01*
X99827Y121723D01*
Y120736D01*
X99807Y120926D01*
X99747Y121096D01*
X99646Y121246D01*
X99505Y121376D01*
X99324Y121486D01*
X99103Y121576D01*
X98841Y121646D01*
X98540Y121696D01*
X98197Y121726D01*
X97815Y121736D01*
Y123736D01*
X98197Y123746D01*
X98540Y123776D01*
X98841Y123826D01*
X99103Y123896D01*
X99324Y123986D01*
X99505Y124096D01*
X99646Y124226D01*
X99747Y124376D01*
X99807Y124546D01*
X99827Y124736D01*
Y123710D01*
D02*
G37*
G36*
X90766Y119408D02*
X90750Y119412D01*
X90703Y119415D01*
X90024Y119425D01*
X89258Y119427D01*
Y120927D01*
X90766Y120946D01*
Y119408D01*
D02*
G37*
G36*
X112004Y121987D02*
X112064Y121817D01*
X112165Y121667D01*
X112306Y121537D01*
X112487Y121427D01*
X112708Y121337D01*
X112970Y121267D01*
X113272Y121217D01*
X113614Y121187D01*
X113996Y121177D01*
Y119177D01*
X113614Y119167D01*
X113272Y119137D01*
X112970Y119087D01*
X112708Y119017D01*
X112487Y118927D01*
X112306Y118817D01*
X112165Y118687D01*
X112064Y118537D01*
X112004Y118367D01*
X111984Y118177D01*
Y122177D01*
X112004Y121987D01*
D02*
G37*
G36*
X139243Y119693D02*
X139652Y119335D01*
X139693Y119311D01*
X139727Y119296D01*
X139752Y119291D01*
X138583Y118122D01*
X138578Y118147D01*
X138563Y118181D01*
X138539Y118222D01*
X138504Y118270D01*
X138405Y118391D01*
X138266Y118543D01*
X138087Y118726D01*
X139148Y119787D01*
X139243Y119693D01*
D02*
G37*
G36*
X126515Y118005D02*
X126500Y118097D01*
X126455Y118179D01*
X126381Y118251D01*
X126276Y118314D01*
X126141Y118367D01*
X125977Y118411D01*
X125782Y118445D01*
X125558Y118469D01*
X125020Y118488D01*
Y120488D01*
X125304Y120493D01*
X125782Y120532D01*
X125977Y120565D01*
X126141Y120609D01*
X126276Y120662D01*
X126381Y120725D01*
X126455Y120798D01*
X126500Y120880D01*
X126515Y120972D01*
Y118005D01*
D02*
G37*
G36*
X132029Y121046D02*
X132155Y120929D01*
X132305Y120826D01*
X132478Y120736D01*
X132674Y120660D01*
X132893Y120598D01*
X133135Y120550D01*
X133401Y120516D01*
X133689Y120495D01*
X134001Y120488D01*
Y118488D01*
X133689Y118481D01*
X133135Y118426D01*
X132893Y118378D01*
X132674Y118316D01*
X132478Y118240D01*
X132305Y118151D01*
X132155Y118047D01*
X132029Y117930D01*
X131925Y117799D01*
Y121177D01*
X132029Y121046D01*
D02*
G37*
G36*
X135526Y119432D02*
X136072Y118956D01*
X136127Y118924D01*
X136171Y118904D01*
X136205Y118898D01*
X134646Y117339D01*
X134639Y117372D01*
X134620Y117417D01*
X134587Y117471D01*
X134541Y117536D01*
X134409Y117697D01*
X134223Y117900D01*
X133985Y118144D01*
X135399Y119558D01*
X135526Y119432D01*
D02*
G37*
G36*
X121061Y118384D02*
X121107Y118380D01*
X121787Y118370D01*
X122553Y118368D01*
Y116868D01*
X121045Y116849D01*
Y118387D01*
X121061Y118384D01*
D02*
G37*
G36*
X90766Y116849D02*
X90750Y116853D01*
X90703Y116856D01*
X90024Y116866D01*
X89258Y116868D01*
Y118368D01*
X90766Y118387D01*
Y116849D01*
D02*
G37*
G36*
X80038Y118582D02*
X80083Y118454D01*
X80159Y118342D01*
X80265Y118244D01*
X80401Y118162D01*
X80567Y118094D01*
X80764Y118042D01*
X80990Y118004D01*
X81248Y117982D01*
X81535Y117974D01*
Y116474D01*
X81248Y116467D01*
X80990Y116444D01*
X80764Y116407D01*
X80567Y116354D01*
X80401Y116287D01*
X80265Y116204D01*
X80159Y116107D01*
X80083Y115994D01*
X80038Y115867D01*
X80023Y115724D01*
Y118724D01*
X80038Y118582D01*
D02*
G37*
G36*
X125267Y116901D02*
X125577Y116630D01*
X125637Y116587D01*
X125691Y116556D01*
X125737Y116534D01*
X125776Y116523D01*
X125808Y116522D01*
X124813Y115201D01*
X124807Y115213D01*
X124792Y115234D01*
X124766Y115264D01*
X124488Y115555D01*
X124308Y115737D01*
X125171Y116995D01*
X125267Y116901D01*
D02*
G37*
G36*
X137007Y115958D02*
X136972Y115929D01*
X136942Y115884D01*
X136915Y115822D01*
X136891Y115743D01*
X136872Y115648D01*
X136855Y115536D01*
X136834Y115263D01*
X136827Y114925D01*
X134827Y115645D01*
X134872Y116509D01*
X137007Y115958D01*
D02*
G37*
G36*
X126849Y116166D02*
X126883Y116154D01*
X126929Y116142D01*
X126988Y116132D01*
X127144Y116117D01*
X127349Y116107D01*
X127605Y116104D01*
Y114604D01*
X127471Y114604D01*
X126929Y114567D01*
X126883Y114555D01*
X126849Y114542D01*
X126828Y114528D01*
Y116181D01*
X126849Y116166D01*
D02*
G37*
G36*
X74134Y135335D02*
Y122691D01*
Y119632D01*
Y114862D01*
X73740Y114469D01*
X69803D01*
X69410Y114862D01*
Y119980D01*
X69016Y120374D01*
X63110D01*
X62717Y120768D01*
Y129823D01*
X62717Y129823D01*
X63110Y130217D01*
X69016D01*
X69410Y130610D01*
Y135335D01*
X69803Y135728D01*
X73740D01*
X74134Y135335D01*
D02*
G37*
G36*
X121061Y115824D02*
X121107Y115821D01*
X121787Y115811D01*
X122553Y115809D01*
Y114309D01*
X121045Y114290D01*
Y115828D01*
X121061Y115824D01*
D02*
G37*
G36*
X90766Y114290D02*
X90757Y114279D01*
X90720Y114269D01*
X90654Y114260D01*
X90438Y114247D01*
X89406Y114232D01*
X89227Y115732D01*
X89512Y115733D01*
X90744Y115810D01*
X90766Y115828D01*
Y114290D01*
D02*
G37*
G36*
X66230Y114494D02*
X66230Y114487D01*
X66972D01*
X66830Y114472D01*
X66702Y114426D01*
X66590Y114351D01*
X66492Y114245D01*
X66410Y114109D01*
X66342Y113943D01*
X66325Y113878D01*
X66342Y113813D01*
X66410Y113647D01*
X66492Y113511D01*
X66590Y113405D01*
X66702Y113329D01*
X66830Y113284D01*
X66972Y113269D01*
X66230D01*
X66230Y113262D01*
X66222Y112975D01*
X64722D01*
X64715Y113262D01*
X64714Y113269D01*
X63972D01*
X64115Y113284D01*
X64242Y113329D01*
X64355Y113405D01*
X64452Y113511D01*
X64535Y113647D01*
X64602Y113813D01*
X64620Y113878D01*
X64602Y113943D01*
X64535Y114109D01*
X64452Y114245D01*
X64355Y114351D01*
X64242Y114426D01*
X64115Y114472D01*
X63972Y114487D01*
X64714D01*
X64715Y114494D01*
X64722Y114781D01*
X66222D01*
X66230Y114494D01*
D02*
G37*
G36*
X75922Y109819D02*
X75907Y109961D01*
X75862Y110089D01*
X75786Y110201D01*
X75680Y110299D01*
X75544Y110381D01*
X75378Y110449D01*
X75181Y110501D01*
X74954Y110539D01*
X74920Y110542D01*
X74886Y110539D01*
X74659Y110501D01*
X74463Y110449D01*
X74297Y110381D01*
X74160Y110299D01*
X74055Y110201D01*
X73979Y110089D01*
X73934Y109961D01*
X73919Y109819D01*
Y112819D01*
X73934Y112676D01*
X73979Y112549D01*
X74055Y112436D01*
X74160Y112339D01*
X74297Y112256D01*
X74463Y112189D01*
X74659Y112136D01*
X74886Y112099D01*
X74920Y112096D01*
X74954Y112099D01*
X75181Y112136D01*
X75378Y112189D01*
X75544Y112256D01*
X75680Y112339D01*
X75786Y112436D01*
X75862Y112549D01*
X75907Y112676D01*
X75922Y112819D01*
Y109819D01*
D02*
G37*
G36*
X69625Y109819D02*
X69610Y109961D01*
X69564Y110089D01*
X69489Y110201D01*
X69383Y110299D01*
X69247Y110381D01*
X69080Y110449D01*
X68884Y110501D01*
X68657Y110539D01*
X68622Y110542D01*
X68587Y110539D01*
X68360Y110501D01*
X68164Y110449D01*
X67997Y110381D01*
X67861Y110299D01*
X67755Y110201D01*
X67680Y110089D01*
X67634Y109961D01*
X67619Y109819D01*
Y112819D01*
X67634Y112676D01*
X67680Y112549D01*
X67755Y112436D01*
X67861Y112339D01*
X67997Y112256D01*
X68164Y112189D01*
X68360Y112136D01*
X68587Y112099D01*
X68622Y112096D01*
X68657Y112099D01*
X68884Y112136D01*
X69080Y112189D01*
X69247Y112256D01*
X69383Y112339D01*
X69489Y112436D01*
X69564Y112549D01*
X69610Y112676D01*
X69625Y112819D01*
Y109819D01*
D02*
G37*
G36*
X127897Y111772D02*
X127875Y111786D01*
X127841Y111799D01*
X127795Y111811D01*
X127736Y111821D01*
X127581Y111836D01*
X127375Y111845D01*
X127119Y111848D01*
Y113348D01*
X127253Y113349D01*
X127795Y113386D01*
X127841Y113398D01*
X127875Y113411D01*
X127897Y113425D01*
Y111772D01*
D02*
G37*
G36*
X121057Y113265D02*
X121091Y113262D01*
X121225Y113257D01*
X122146Y113250D01*
Y111750D01*
X121045Y111731D01*
Y113269D01*
X121057Y113265D01*
D02*
G37*
G36*
X193898Y111221D02*
X188674D01*
X188387Y111437D01*
X188259Y111589D01*
X188172Y111747D01*
X188103Y111914D01*
X188075Y111926D01*
X188061Y111952D01*
X188061Y111952D01*
X188036Y111960D01*
X187887Y112004D01*
X187721Y112073D01*
X187495D01*
Y114370D01*
X187398Y114858D01*
X187122Y115271D01*
X186708Y115548D01*
X186221Y115645D01*
X185733Y115548D01*
X185319Y115271D01*
X185043Y114858D01*
X184946Y114370D01*
Y112073D01*
X184721D01*
X184554Y112004D01*
X184380Y111952D01*
X184380Y111952D01*
X184366Y111926D01*
X184338Y111914D01*
X184269Y111747D01*
X184182Y111589D01*
X184054Y111437D01*
X183767Y111221D01*
X175738D01*
Y124459D01*
X175738Y124459D01*
X193898D01*
Y111221D01*
D02*
G37*
G36*
X80230Y112262D02*
X80260Y112222D01*
X80310Y112186D01*
X80380Y112155D01*
X80470Y112129D01*
X80580Y112107D01*
X80710Y112090D01*
X81030Y112071D01*
X81221Y112069D01*
Y110569D01*
X81030Y110566D01*
X80580Y110531D01*
X80470Y110509D01*
X80380Y110483D01*
X80310Y110452D01*
X80260Y110416D01*
X80230Y110375D01*
X80220Y110330D01*
Y112308D01*
X80230Y112262D01*
D02*
G37*
G36*
X187578Y111516D02*
X187451Y111471D01*
X187338Y111396D01*
X187241Y111290D01*
X187158Y111154D01*
X187091Y110987D01*
X187038Y110791D01*
X187001Y110564D01*
X186978Y110307D01*
X186970Y110020D01*
X185470D01*
X185463Y110307D01*
X185441Y110564D01*
X185403Y110791D01*
X185351Y110987D01*
X185283Y111154D01*
X185201Y111290D01*
X185103Y111396D01*
X184991Y111471D01*
X184863Y111516D01*
X184721Y111532D01*
X187721D01*
X187578Y111516D01*
D02*
G37*
G36*
X179605Y108292D02*
X179639Y108279D01*
X179685Y108268D01*
X179744Y108258D01*
X179900Y108243D01*
X180105Y108233D01*
X180361Y108230D01*
Y106730D01*
X180227Y106729D01*
X179685Y106693D01*
X179639Y106681D01*
X179605Y106668D01*
X179584Y106653D01*
Y108307D01*
X179605Y108292D01*
D02*
G37*
G36*
X144307Y111024D02*
X142307Y106609D01*
X142293Y106975D01*
X142251Y107273D01*
X142180Y107502D01*
X142081Y107663D01*
X141954Y107756D01*
X141798Y107780D01*
X141614Y107736D01*
X141402Y107624D01*
X141162Y107444D01*
X140893Y107195D01*
Y110024D01*
X141162Y110312D01*
X141402Y110613D01*
X141614Y110925D01*
X141798Y111249D01*
X141954Y111584D01*
X142081Y111932D01*
X142180Y112291D01*
X142251Y112661D01*
X142293Y113044D01*
X142307Y113438D01*
X144307Y111024D01*
D02*
G37*
G36*
X80234Y106282D02*
X80275Y106174D01*
X80345Y106080D01*
X80443Y105997D01*
X80568Y105928D01*
X80722Y105871D01*
X80903Y105827D01*
X81112Y105795D01*
X81349Y105776D01*
X81614Y105770D01*
Y104270D01*
X81349Y104263D01*
X81112Y104244D01*
X80903Y104213D01*
X80722Y104168D01*
X80568Y104112D01*
X80443Y104042D01*
X80345Y103960D01*
X80275Y103865D01*
X80234Y103757D01*
X80220Y103637D01*
Y106402D01*
X80234Y106282D01*
D02*
G37*
G36*
X179605Y103962D02*
X179639Y103949D01*
X179685Y103937D01*
X179744Y103927D01*
X179900Y103912D01*
X180105Y103903D01*
X180361Y103900D01*
Y102400D01*
X180227Y102399D01*
X179685Y102362D01*
X179639Y102350D01*
X179605Y102337D01*
X179584Y102323D01*
Y103976D01*
X179605Y103962D01*
D02*
G37*
G36*
X136435Y102922D02*
X136480Y102250D01*
X136501Y102142D01*
X136525Y102058D01*
X136553Y101998D01*
X136585Y101962D01*
X136621Y101950D01*
X134246D01*
X134281Y101962D01*
X134313Y101998D01*
X134341Y102058D01*
X134366Y102142D01*
X134386Y102250D01*
X134403Y102382D01*
X134426Y102718D01*
X134433Y103150D01*
X136433D01*
X136435Y102922D01*
D02*
G37*
G36*
X144317Y103574D02*
X144347Y103226D01*
X144396Y102919D01*
X144466Y102653D01*
X144555Y102428D01*
X144665Y102244D01*
X144794Y102101D01*
X144943Y101999D01*
X145112Y101938D01*
X145300Y101917D01*
X141314D01*
X141502Y101938D01*
X141671Y101999D01*
X141820Y102101D01*
X141949Y102244D01*
X142059Y102428D01*
X142148Y102653D01*
X142218Y102919D01*
X142267Y103226D01*
X142297Y103574D01*
X142307Y103962D01*
X144307D01*
X144317Y103574D01*
D02*
G37*
G36*
X67277Y103082D02*
X67108Y103021D01*
X66959Y102919D01*
X66830Y102775D01*
X66721Y102591D01*
X66631Y102366D01*
X66562Y102101D01*
X66512Y101794D01*
X66482Y101446D01*
X66472Y101058D01*
X64472D01*
X64463Y101446D01*
X64433Y101794D01*
X64383Y102101D01*
X64314Y102366D01*
X64224Y102591D01*
X64115Y102775D01*
X63986Y102919D01*
X63837Y103021D01*
X63668Y103082D01*
X63479Y103103D01*
X67466D01*
X67277Y103082D01*
D02*
G37*
G36*
X79428Y103052D02*
X79301Y103007D01*
X79188Y102932D01*
X79091Y102826D01*
X79008Y102690D01*
X78941Y102523D01*
X78888Y102327D01*
X78851Y102100D01*
X78839Y101969D01*
X78851Y101837D01*
X78888Y101610D01*
X78941Y101414D01*
X79008Y101247D01*
X79091Y101111D01*
X79188Y101005D01*
X79301Y100930D01*
X79428Y100884D01*
X79571Y100869D01*
X76571D01*
X76713Y100884D01*
X76841Y100930D01*
X76953Y101005D01*
X77051Y101111D01*
X77133Y101247D01*
X77201Y101414D01*
X77253Y101610D01*
X77291Y101837D01*
X77302Y101969D01*
X77291Y102100D01*
X77253Y102327D01*
X77201Y102523D01*
X77133Y102690D01*
X77051Y102826D01*
X76953Y102932D01*
X76841Y103007D01*
X76713Y103052D01*
X76571Y103068D01*
X79571D01*
X79428Y103052D01*
D02*
G37*
G36*
X73129Y103054D02*
X73002Y103009D01*
X72889Y102934D01*
X72792Y102828D01*
X72709Y102692D01*
X72642Y102525D01*
X72589Y102329D01*
X72552Y102102D01*
X72540Y101969D01*
X72552Y101837D01*
X72589Y101610D01*
X72642Y101414D01*
X72709Y101247D01*
X72792Y101111D01*
X72889Y101005D01*
X73002Y100930D01*
X73129Y100884D01*
X73272Y100869D01*
X70272D01*
X70414Y100884D01*
X70542Y100930D01*
X70654Y101005D01*
X70752Y101111D01*
X70834Y101247D01*
X70902Y101414D01*
X70954Y101610D01*
X70992Y101837D01*
X71003Y101969D01*
X70992Y102102D01*
X70954Y102329D01*
X70902Y102525D01*
X70834Y102692D01*
X70752Y102828D01*
X70654Y102934D01*
X70542Y103009D01*
X70414Y103054D01*
X70272Y103070D01*
X73272D01*
X73129Y103054D01*
D02*
G37*
G36*
X186978Y99929D02*
X187001Y99672D01*
X187038Y99445D01*
X187091Y99249D01*
X187158Y99083D01*
X187241Y98946D01*
X187338Y98841D01*
X187451Y98765D01*
X187578Y98720D01*
X187721Y98705D01*
X184721D01*
X184863Y98720D01*
X184991Y98765D01*
X185103Y98841D01*
X185201Y98946D01*
X185283Y99083D01*
X185351Y99249D01*
X185403Y99445D01*
X185441Y99672D01*
X185463Y99929D01*
X185470Y100217D01*
X186970D01*
X186978Y99929D01*
D02*
G37*
G36*
X145128Y171036D02*
Y150000D01*
X144628Y150000D01*
X57480Y150000D01*
X53150Y145669D01*
X53150Y130421D01*
X53150Y129921D01*
X53150Y129921D01*
X53150Y129921D01*
X53150Y92126D01*
X57480Y87795D01*
X80709D01*
X84646Y83858D01*
Y77313D01*
X69584Y77313D01*
X69445Y77615D01*
X69399Y77813D01*
X69548Y78036D01*
X69610Y78347D01*
Y79020D01*
X64248D01*
Y78347D01*
X64310Y78036D01*
X64459Y77813D01*
X64413Y77615D01*
X64275Y77313D01*
X58128D01*
X58128Y77313D01*
X57972Y77248D01*
X57658Y77189D01*
X57283Y77341D01*
X53532Y81091D01*
X53150Y81250D01*
X53150Y81250D01*
X25815D01*
X22195Y84870D01*
Y92295D01*
X25815Y95916D01*
X35433D01*
X35433Y95916D01*
X35816Y96074D01*
X39753Y100011D01*
X39911Y100394D01*
X39911Y100394D01*
Y171036D01*
X43531Y174656D01*
X141508D01*
X145128Y171036D01*
D02*
G37*
G36*
X133359Y91823D02*
X133232Y91990D01*
X133088Y92139D01*
X132925Y92271D01*
X132744Y92385D01*
X132545Y92481D01*
X132327Y92560D01*
X132091Y92622D01*
X131837Y92666D01*
X131565Y92692D01*
X131274Y92701D01*
Y94701D01*
X131565Y94710D01*
X131837Y94736D01*
X132091Y94780D01*
X132327Y94841D01*
X132545Y94920D01*
X132744Y95017D01*
X132925Y95131D01*
X133088Y95262D01*
X133232Y95411D01*
X133359Y95578D01*
Y91823D01*
D02*
G37*
G36*
X86039Y96022D02*
X86054Y95628D01*
X86096Y95245D01*
X86167Y94875D01*
X86266Y94516D01*
X86393Y94168D01*
X86549Y93833D01*
X86732Y93509D01*
X86945Y93197D01*
X87185Y92896D01*
X87454Y92608D01*
X86039Y91193D01*
X85751Y91462D01*
X85450Y91703D01*
X85138Y91915D01*
X84814Y92098D01*
X84479Y92254D01*
X84131Y92381D01*
X83772Y92480D01*
X83402Y92551D01*
X83019Y92593D01*
X82625Y92608D01*
X82039Y94608D01*
X82419Y94628D01*
X82759Y94688D01*
X83059Y94788D01*
X83319Y94928D01*
X83539Y95108D01*
X83719Y95328D01*
X83859Y95588D01*
X83959Y95888D01*
X84019Y96228D01*
X84039Y96608D01*
X86039Y96022D01*
D02*
G37*
G36*
X145112Y91763D02*
X144943Y91702D01*
X144794Y91600D01*
X144665Y91457D01*
X144555Y91272D01*
X144466Y91048D01*
X144396Y90782D01*
X144347Y90475D01*
X144317Y90127D01*
X144307Y89739D01*
X142307D01*
X142297Y90127D01*
X142267Y90475D01*
X142218Y90782D01*
X142148Y91048D01*
X142059Y91272D01*
X141949Y91457D01*
X141820Y91600D01*
X141671Y91702D01*
X141502Y91763D01*
X141314Y91784D01*
X145300D01*
X145112Y91763D01*
D02*
G37*
G36*
X109090Y87189D02*
X108710Y87169D01*
X108370Y87109D01*
X108070Y87009D01*
X107810Y86869D01*
X107590Y86689D01*
X107410Y86469D01*
X107270Y86209D01*
X107170Y85909D01*
X107110Y85569D01*
X107090Y85189D01*
X105090D01*
X105070Y85569D01*
X105010Y85909D01*
X104910Y86209D01*
X104770Y86469D01*
X104590Y86689D01*
X104370Y86869D01*
X104110Y87009D01*
X103810Y87109D01*
X103470Y87169D01*
X103090Y87189D01*
X106090Y89189D01*
X109090Y87189D01*
D02*
G37*
G36*
X144307Y80709D02*
X142307Y78294D01*
X142293Y78689D01*
X142251Y79071D01*
X142180Y79442D01*
X142081Y79801D01*
X141954Y80148D01*
X141798Y80484D01*
X141614Y80807D01*
X141402Y81120D01*
X141162Y81420D01*
X140893Y81709D01*
Y84537D01*
X141162Y84288D01*
X141402Y84108D01*
X141614Y83996D01*
X141798Y83952D01*
X141954Y83976D01*
X142081Y84069D01*
X142180Y84230D01*
X142251Y84459D01*
X142293Y84757D01*
X142307Y85123D01*
X144307Y80709D01*
D02*
G37*
G36*
X107099Y82577D02*
X107125Y82304D01*
X107169Y82050D01*
X107231Y81814D01*
X107310Y81597D01*
X107406Y81398D01*
X107520Y81217D01*
X107652Y81054D01*
X107801Y80909D01*
X107968Y80783D01*
X104213D01*
X104380Y80909D01*
X104529Y81054D01*
X104660Y81217D01*
X104774Y81398D01*
X104871Y81597D01*
X104950Y81814D01*
X105011Y82050D01*
X105055Y82304D01*
X105081Y82577D01*
X105090Y82867D01*
X107090D01*
X107099Y82577D01*
D02*
G37*
G36*
X116817Y76715D02*
X116797Y76904D01*
X116734Y77073D01*
X116629Y77222D01*
X116483Y77351D01*
X116294Y77460D01*
X116064Y77549D01*
X115792Y77619D01*
X115548Y77658D01*
X115309Y77619D01*
X115043Y77549D01*
X114818Y77460D01*
X114634Y77351D01*
X114491Y77222D01*
X114388Y77073D01*
X114327Y76904D01*
X114307Y76715D01*
Y80702D01*
X114327Y80513D01*
X114388Y80344D01*
X114491Y80195D01*
X114634Y80066D01*
X114818Y79957D01*
X115043Y79867D01*
X115309Y79798D01*
X115548Y79759D01*
X115792Y79798D01*
X116064Y79867D01*
X116294Y79957D01*
X116483Y80066D01*
X116629Y80195D01*
X116734Y80344D01*
X116797Y80513D01*
X116817Y80702D01*
Y76715D01*
D02*
G37*
G36*
X126871Y80529D02*
X126934Y80360D01*
X127040Y80211D01*
X127188Y80082D01*
X127377Y79973D01*
X127608Y79883D01*
X127882Y79814D01*
X128196Y79764D01*
X128553Y79734D01*
X128952Y79724D01*
Y77724D01*
X128555Y77714D01*
X128201Y77684D01*
X127888Y77635D01*
X127617Y77565D01*
X127388Y77476D01*
X127200Y77367D01*
X127055Y77237D01*
X126952Y77088D01*
X126890Y76920D01*
X126870Y76731D01*
X126849Y80718D01*
X126871Y80529D01*
D02*
G37*
G36*
X116817Y69235D02*
X116797Y69424D01*
X116734Y69592D01*
X116629Y69741D01*
X116483Y69871D01*
X116294Y69980D01*
X116064Y70069D01*
X115792Y70139D01*
X115548Y70177D01*
X115309Y70139D01*
X115043Y70069D01*
X114818Y69980D01*
X114634Y69871D01*
X114491Y69741D01*
X114388Y69592D01*
X114327Y69424D01*
X114307Y69235D01*
Y73221D01*
X114327Y73033D01*
X114388Y72864D01*
X114491Y72715D01*
X114634Y72586D01*
X114818Y72476D01*
X115043Y72387D01*
X115309Y72317D01*
X115548Y72279D01*
X115792Y72317D01*
X116064Y72387D01*
X116294Y72476D01*
X116483Y72586D01*
X116629Y72715D01*
X116734Y72864D01*
X116797Y73033D01*
X116817Y73221D01*
Y69235D01*
D02*
G37*
G36*
X126871Y73049D02*
X126935Y72880D01*
X127040Y72731D01*
X127188Y72601D01*
X127377Y72492D01*
X127608Y72403D01*
X127882Y72333D01*
X128196Y72284D01*
X128553Y72254D01*
X128952Y72244D01*
Y70244D01*
X128555Y70234D01*
X128201Y70204D01*
X127888Y70155D01*
X127617Y70085D01*
X127388Y69996D01*
X127200Y69886D01*
X127055Y69757D01*
X126952Y69608D01*
X126890Y69439D01*
X126870Y69251D01*
X126849Y73237D01*
X126871Y73049D01*
D02*
G37*
G36*
X104173Y69235D02*
X104153Y69424D01*
X104091Y69592D01*
X103989Y69741D01*
X103846Y69871D01*
X103662Y69980D01*
X103437Y70069D01*
X103171Y70139D01*
X102864Y70188D01*
X102517Y70218D01*
X102128Y70228D01*
Y72228D01*
X102517Y72238D01*
X102864Y72268D01*
X103171Y72317D01*
X103437Y72387D01*
X103662Y72476D01*
X103846Y72586D01*
X103989Y72715D01*
X104091Y72864D01*
X104153Y73033D01*
X104173Y73221D01*
Y69235D01*
D02*
G37*
G36*
X89166Y73848D02*
X89226Y73508D01*
X89326Y73208D01*
X89466Y72948D01*
X89646Y72728D01*
X89866Y72548D01*
X90126Y72408D01*
X90426Y72308D01*
X90766Y72248D01*
X91146Y72228D01*
Y70228D01*
X90766Y70208D01*
X90426Y70148D01*
X90126Y70048D01*
X89866Y69908D01*
X89646Y69728D01*
X89466Y69508D01*
X89326Y69248D01*
X89226Y68948D01*
X89166Y68608D01*
X89146Y68228D01*
X87146Y71228D01*
X89146Y74228D01*
X89166Y73848D01*
D02*
G37*
G36*
X84646Y76772D02*
Y65108D01*
X70986D01*
Y65243D01*
X66732D01*
X62478D01*
Y65108D01*
X57628D01*
Y76272D01*
X58128Y76772D01*
X84646Y76772D01*
D02*
G37*
G36*
X175197Y111221D02*
X175197D01*
X175197Y99213D01*
Y51181D01*
X170866Y46850D01*
X57628Y46850D01*
Y64567D01*
X62663D01*
X62691Y64525D01*
X62927Y64367D01*
X63205Y64312D01*
X70260D01*
X70538Y64367D01*
X70774Y64525D01*
X70802Y64567D01*
X147244D01*
X151575Y68898D01*
Y122835D01*
X153199Y124459D01*
X153199D01*
X175197Y124459D01*
Y111221D01*
D02*
G37*
G36*
X240158Y108268D02*
Y80709D01*
X244685Y76181D01*
X270298D01*
X271900Y74579D01*
Y23846D01*
X270248Y22195D01*
X175197D01*
Y39370D01*
X179134Y43307D01*
X232283D01*
X234252Y45276D01*
Y51181D01*
X231890Y53543D01*
X202362D01*
X200787Y55118D01*
Y107874D01*
X205118Y112205D01*
X236221Y112205D01*
X240158Y108268D01*
D02*
G37*
%LPC*%
G36*
X184571Y172685D02*
Y168823D01*
X188433D01*
X187899Y170110D01*
X187013Y171265D01*
X185859Y172151D01*
X184571Y172685D01*
D02*
G37*
G36*
X229847Y172685D02*
Y168823D01*
X233708D01*
X233175Y170110D01*
X232289Y171265D01*
X231134Y172151D01*
X229847Y172685D01*
D02*
G37*
G36*
X226847D02*
X225559Y172151D01*
X224404Y171265D01*
X223518Y170110D01*
X222985Y168823D01*
X226847D01*
Y172685D01*
D02*
G37*
G36*
X181571Y172685D02*
X180283Y172151D01*
X179129Y171265D01*
X178243Y170110D01*
X177709Y168823D01*
X181571D01*
Y172685D01*
D02*
G37*
G36*
X248031Y172394D02*
X246719Y172221D01*
X245496Y171714D01*
X244446Y170908D01*
X243640Y169858D01*
X243133Y168635D01*
X242961Y167323D01*
X243133Y166010D01*
X243640Y164787D01*
X244446Y163737D01*
X245496Y162931D01*
X246719Y162425D01*
X248031Y162252D01*
X249344Y162425D01*
X250567Y162931D01*
X251617Y163737D01*
X252423Y164787D01*
X252930Y166010D01*
X253102Y167323D01*
X252930Y168635D01*
X252423Y169858D01*
X251617Y170908D01*
X250567Y171714D01*
X249344Y172221D01*
X248031Y172394D01*
D02*
G37*
G36*
X202756D02*
X201444Y172221D01*
X200220Y171714D01*
X199170Y170908D01*
X198364Y169858D01*
X197858Y168635D01*
X197685Y167323D01*
X197858Y166010D01*
X198364Y164787D01*
X199170Y163737D01*
X200220Y162931D01*
X201444Y162425D01*
X202756Y162252D01*
X204068Y162425D01*
X205291Y162931D01*
X206342Y163737D01*
X207148Y164787D01*
X207654Y166010D01*
X207827Y167323D01*
X207654Y168635D01*
X207148Y169858D01*
X206342Y170908D01*
X205291Y171714D01*
X204068Y172221D01*
X202756Y172394D01*
D02*
G37*
G36*
X188433Y165823D02*
X184571D01*
Y161961D01*
X185859Y162495D01*
X187013Y163381D01*
X187899Y164535D01*
X188433Y165823D01*
D02*
G37*
G36*
X233708D02*
X229847D01*
Y161961D01*
X231134Y162495D01*
X232289Y163381D01*
X233175Y164535D01*
X233708Y165823D01*
D02*
G37*
G36*
X226847D02*
X222985D01*
X223518Y164535D01*
X224404Y163381D01*
X225559Y162495D01*
X226847Y161961D01*
Y165823D01*
D02*
G37*
G36*
X181571D02*
X177709D01*
X178243Y164535D01*
X179129Y163381D01*
X180283Y162495D01*
X181571Y161961D01*
Y165823D01*
D02*
G37*
G36*
X267248Y113629D02*
Y109768D01*
X271110D01*
X270576Y111055D01*
X269690Y112210D01*
X268536Y113096D01*
X267248Y113629D01*
D02*
G37*
G36*
X264248Y113629D02*
X262960Y113096D01*
X261806Y112210D01*
X260920Y111055D01*
X260386Y109768D01*
X264248D01*
Y113629D01*
D02*
G37*
G36*
X271110Y106768D02*
X267248D01*
Y102906D01*
X268536Y103439D01*
X269690Y104325D01*
X270576Y105480D01*
X271110Y106768D01*
D02*
G37*
G36*
X264248D02*
X260386D01*
X260920Y105480D01*
X261806Y104325D01*
X262960Y103439D01*
X264248Y102906D01*
Y106768D01*
D02*
G37*
G36*
X198896Y93380D02*
Y91908D01*
X199432D01*
Y92648D01*
X199373Y92946D01*
X199204Y93200D01*
X198950Y93369D01*
X198896Y93380D01*
D02*
G37*
G36*
X195396Y93380D02*
X195341Y93369D01*
X195088Y93200D01*
X194919Y92946D01*
X194859Y92648D01*
Y91908D01*
X195396D01*
Y93380D01*
D02*
G37*
G36*
X184252Y90878D02*
X182496D01*
Y87614D01*
X185464D01*
Y89665D01*
X185372Y90129D01*
X185109Y90522D01*
X184716Y90785D01*
X184252Y90878D01*
D02*
G37*
G36*
X180496D02*
X178740D01*
X178276Y90785D01*
X177883Y90522D01*
X177620Y90129D01*
X177528Y89665D01*
Y87614D01*
X180496D01*
Y90878D01*
D02*
G37*
G36*
X199432Y88407D02*
X198896D01*
Y86935D01*
X198950Y86946D01*
X199204Y87115D01*
X199373Y87369D01*
X199432Y87667D01*
Y88407D01*
D02*
G37*
G36*
X195396D02*
X194859D01*
Y87667D01*
X194919Y87369D01*
X195088Y87115D01*
X195341Y86946D01*
X195396Y86935D01*
Y88407D01*
D02*
G37*
G36*
X198896Y85506D02*
Y84034D01*
X199432D01*
Y84774D01*
X199373Y85072D01*
X199204Y85326D01*
X198950Y85495D01*
X198896Y85506D01*
D02*
G37*
G36*
X195396Y85506D02*
X195341Y85495D01*
X195088Y85326D01*
X194919Y85072D01*
X194859Y84774D01*
Y84034D01*
X195396D01*
Y85506D01*
D02*
G37*
G36*
X185464Y85614D02*
X182496D01*
Y82351D01*
X184252D01*
X184716Y82443D01*
X185109Y82706D01*
X185372Y83099D01*
X185464Y83563D01*
Y85614D01*
D02*
G37*
G36*
X180496D02*
X177528D01*
Y83563D01*
X177620Y83099D01*
X177883Y82706D01*
X178276Y82443D01*
X178740Y82351D01*
X180496D01*
Y85614D01*
D02*
G37*
G36*
X199432Y80533D02*
X198896D01*
Y79061D01*
X198950Y79072D01*
X199204Y79241D01*
X199373Y79495D01*
X199432Y79793D01*
Y80533D01*
D02*
G37*
G36*
X195396D02*
X194859D01*
Y79793D01*
X194919Y79495D01*
X195088Y79241D01*
X195341Y79072D01*
X195396Y79061D01*
Y80533D01*
D02*
G37*
G36*
X184252Y81035D02*
X182496D01*
Y77772D01*
X185464D01*
Y79823D01*
X185372Y80287D01*
X185109Y80680D01*
X184716Y80943D01*
X184252Y81035D01*
D02*
G37*
G36*
X180496D02*
X178740D01*
X178276Y80943D01*
X177883Y80680D01*
X177620Y80287D01*
X177528Y79823D01*
Y77772D01*
X180496D01*
Y81035D01*
D02*
G37*
G36*
X198896Y77632D02*
Y76159D01*
X199432D01*
Y76900D01*
X199373Y77198D01*
X199204Y77452D01*
X198950Y77621D01*
X198896Y77632D01*
D02*
G37*
G36*
X195396D02*
X195341Y77621D01*
X195088Y77452D01*
X194919Y77198D01*
X194859Y76900D01*
Y76159D01*
X195396D01*
Y77632D01*
D02*
G37*
G36*
X185464Y75772D02*
X182496D01*
Y72508D01*
X184252D01*
X184716Y72601D01*
X185109Y72863D01*
X185372Y73257D01*
X185464Y73721D01*
Y75772D01*
D02*
G37*
G36*
X180496D02*
X177528D01*
Y73721D01*
X177620Y73257D01*
X177883Y72863D01*
X178276Y72601D01*
X178740Y72508D01*
X180496D01*
Y75772D01*
D02*
G37*
G36*
X199432Y72659D02*
X198896D01*
Y71187D01*
X198950Y71198D01*
X199204Y71367D01*
X199373Y71621D01*
X199432Y71919D01*
Y72659D01*
D02*
G37*
G36*
X195396D02*
X194859D01*
Y71919D01*
X194919Y71621D01*
X195088Y71367D01*
X195341Y71198D01*
X195396Y71187D01*
Y72659D01*
D02*
G37*
G36*
X198896Y69758D02*
Y68285D01*
X199432D01*
Y69026D01*
X199373Y69324D01*
X199204Y69578D01*
X198950Y69747D01*
X198896Y69758D01*
D02*
G37*
G36*
X195396Y69758D02*
X195341Y69747D01*
X195088Y69578D01*
X194919Y69324D01*
X194859Y69026D01*
Y68285D01*
X195396D01*
Y69758D01*
D02*
G37*
G36*
X184252Y71193D02*
X182496D01*
Y67929D01*
X185464D01*
Y69980D01*
X185372Y70444D01*
X185109Y70837D01*
X184716Y71100D01*
X184252Y71193D01*
D02*
G37*
G36*
X180496D02*
X178740D01*
X178276Y71100D01*
X177883Y70837D01*
X177620Y70444D01*
X177528Y69980D01*
Y67929D01*
X180496D01*
Y71193D01*
D02*
G37*
G36*
X199432Y64785D02*
X198896D01*
Y63313D01*
X198950Y63324D01*
X199204Y63493D01*
X199373Y63747D01*
X199432Y64045D01*
Y64785D01*
D02*
G37*
G36*
X195396D02*
X194859D01*
Y64045D01*
X194919Y63747D01*
X195088Y63493D01*
X195341Y63324D01*
X195396Y63313D01*
Y64785D01*
D02*
G37*
G36*
X185464Y65929D02*
X182496D01*
Y62666D01*
X184252D01*
X184716Y62758D01*
X185109Y63021D01*
X185372Y63414D01*
X185464Y63878D01*
Y65929D01*
D02*
G37*
G36*
X180496D02*
X177528D01*
Y63878D01*
X177620Y63414D01*
X177883Y63021D01*
X178276Y62758D01*
X178740Y62666D01*
X180496D01*
Y65929D01*
D02*
G37*
G36*
X198896Y61884D02*
Y60411D01*
X199432D01*
Y61152D01*
X199373Y61450D01*
X199204Y61704D01*
X198950Y61873D01*
X198896Y61884D01*
D02*
G37*
G36*
X195396Y61884D02*
X195341Y61873D01*
X195088Y61704D01*
X194919Y61450D01*
X194859Y61152D01*
Y60411D01*
X195396D01*
Y61884D01*
D02*
G37*
G36*
X184252Y61350D02*
X182496D01*
Y58087D01*
X185464D01*
Y60138D01*
X185372Y60602D01*
X185109Y60995D01*
X184716Y61258D01*
X184252Y61350D01*
D02*
G37*
G36*
X180496D02*
X178740D01*
X178276Y61258D01*
X177883Y60995D01*
X177620Y60602D01*
X177528Y60138D01*
Y58087D01*
X180496D01*
Y61350D01*
D02*
G37*
G36*
X199432Y56911D02*
X198896D01*
Y55439D01*
X198950Y55450D01*
X199204Y55619D01*
X199373Y55872D01*
X199432Y56171D01*
Y56911D01*
D02*
G37*
G36*
X195396D02*
X194859D01*
Y56171D01*
X194919Y55872D01*
X195088Y55619D01*
X195341Y55450D01*
X195396Y55439D01*
Y56911D01*
D02*
G37*
G36*
X185464Y56087D02*
X182496D01*
Y52823D01*
X184252D01*
X184716Y52915D01*
X185109Y53178D01*
X185372Y53571D01*
X185464Y54035D01*
Y56087D01*
D02*
G37*
G36*
X180496D02*
X177528D01*
Y54035D01*
X177620Y53571D01*
X177883Y53178D01*
X178276Y52915D01*
X178740Y52823D01*
X180496D01*
Y56087D01*
D02*
G37*
G36*
X229656Y52188D02*
X228915D01*
Y51652D01*
X230388D01*
X230377Y51706D01*
X230208Y51960D01*
X229954Y52129D01*
X229656Y52188D01*
D02*
G37*
G36*
X213908D02*
X213167D01*
Y51652D01*
X214640D01*
X214629Y51706D01*
X214459Y51960D01*
X214206Y52129D01*
X213908Y52188D01*
D02*
G37*
G36*
X221781D02*
X221041D01*
Y51652D01*
X222514D01*
X222503Y51706D01*
X222334Y51960D01*
X222080Y52129D01*
X221781Y52188D01*
D02*
G37*
G36*
X209667D02*
X208927D01*
X208628Y52129D01*
X208375Y51960D01*
X208206Y51706D01*
X208195Y51652D01*
X209667D01*
Y52188D01*
D02*
G37*
G36*
X217541D02*
X216801D01*
X216502Y52129D01*
X216249Y51960D01*
X216080Y51706D01*
X216069Y51652D01*
X217541D01*
Y52188D01*
D02*
G37*
G36*
X225415D02*
X224675D01*
X224376Y52129D01*
X224123Y51960D01*
X223954Y51706D01*
X223943Y51652D01*
X225415D01*
Y52188D01*
D02*
G37*
G36*
X211417Y49902D02*
D01*
D01*
D01*
D02*
G37*
G36*
X230388Y48152D02*
X228915D01*
Y47615D01*
X229656D01*
X229954Y47674D01*
X230208Y47844D01*
X230377Y48097D01*
X230388Y48152D01*
D02*
G37*
G36*
X225415D02*
X223943D01*
X223954Y48097D01*
X224123Y47844D01*
X224376Y47674D01*
X224675Y47615D01*
X225415D01*
Y48152D01*
D02*
G37*
G36*
X222514D02*
X221041D01*
Y47615D01*
X221781D01*
X222080Y47674D01*
X222334Y47844D01*
X222503Y48097D01*
X222514Y48152D01*
D02*
G37*
G36*
X217541D02*
X216069D01*
X216080Y48097D01*
X216249Y47844D01*
X216502Y47674D01*
X216801Y47615D01*
X217541D01*
Y48152D01*
D02*
G37*
G36*
X214640D02*
X213167D01*
Y47615D01*
X213908D01*
X214206Y47674D01*
X214459Y47844D01*
X214629Y48097D01*
X214640Y48152D01*
D02*
G37*
G36*
X209667D02*
X208195D01*
X208206Y48097D01*
X208375Y47844D01*
X208628Y47674D01*
X208927Y47615D01*
X209667D01*
Y48152D01*
D02*
G37*
G36*
X158980Y34889D02*
Y31028D01*
X162842D01*
X162309Y32315D01*
X161423Y33470D01*
X160268Y34356D01*
X158980Y34889D01*
D02*
G37*
G36*
X155980D02*
X154693Y34356D01*
X153538Y33470D01*
X152652Y32315D01*
X152119Y31028D01*
X155980D01*
Y34889D01*
D02*
G37*
G36*
X113705D02*
Y31028D01*
X117566D01*
X117033Y32315D01*
X116147Y33470D01*
X114992Y34356D01*
X113705Y34889D01*
D02*
G37*
G36*
X110705D02*
X109417Y34356D01*
X108262Y33470D01*
X107376Y32315D01*
X106843Y31028D01*
X110705D01*
Y34889D01*
D02*
G37*
G36*
X68429D02*
Y31028D01*
X72291D01*
X71757Y32315D01*
X70871Y33470D01*
X69717Y34356D01*
X68429Y34889D01*
D02*
G37*
G36*
X65429D02*
X64141Y34356D01*
X62987Y33470D01*
X62101Y32315D01*
X61567Y31028D01*
X65429D01*
Y34889D01*
D02*
G37*
G36*
X162842Y28028D02*
X158980D01*
Y24166D01*
X160268Y24699D01*
X161423Y25585D01*
X162309Y26740D01*
X162842Y28028D01*
D02*
G37*
G36*
X155980D02*
X152119D01*
X152652Y26740D01*
X153538Y25585D01*
X154693Y24699D01*
X155980Y24166D01*
Y28028D01*
D02*
G37*
G36*
X117566D02*
X113705D01*
Y24166D01*
X114992Y24699D01*
X116147Y25585D01*
X117033Y26740D01*
X117566Y28028D01*
D02*
G37*
G36*
X110705D02*
X106843D01*
X107376Y26740D01*
X108262Y25585D01*
X109417Y24699D01*
X110705Y24166D01*
Y28028D01*
D02*
G37*
G36*
X72291D02*
X68429D01*
Y24166D01*
X69717Y24699D01*
X70871Y25585D01*
X71757Y26740D01*
X72291Y28028D01*
D02*
G37*
G36*
X65429D02*
X61567D01*
X62101Y26740D01*
X62987Y25585D01*
X64141Y24699D01*
X65429Y24166D01*
Y28028D01*
D02*
G37*
G36*
X139295Y172685D02*
Y168823D01*
X143157D01*
X142624Y170110D01*
X141738Y171265D01*
X140583Y172151D01*
X139295Y172685D01*
D02*
G37*
G36*
X94020D02*
Y168823D01*
X97881D01*
X97348Y170110D01*
X96462Y171265D01*
X95307Y172151D01*
X94020Y172685D01*
D02*
G37*
G36*
X48744D02*
Y168823D01*
X52606D01*
X52072Y170110D01*
X51186Y171265D01*
X50032Y172151D01*
X48744Y172685D01*
D02*
G37*
G36*
X136295D02*
X135008Y172151D01*
X133853Y171265D01*
X132967Y170110D01*
X132434Y168823D01*
X136295D01*
Y172685D01*
D02*
G37*
G36*
X91020D02*
X89732Y172151D01*
X88577Y171265D01*
X87691Y170110D01*
X87158Y168823D01*
X91020D01*
Y172685D01*
D02*
G37*
G36*
X45744D02*
X44456Y172151D01*
X43302Y171265D01*
X42416Y170110D01*
X41882Y168823D01*
X45744D01*
Y172685D01*
D02*
G37*
G36*
X112205Y172394D02*
X110892Y172221D01*
X109669Y171714D01*
X108619Y170908D01*
X107813Y169858D01*
X107307Y168635D01*
X107134Y167323D01*
X107307Y166010D01*
X107813Y164787D01*
X108619Y163737D01*
X109669Y162931D01*
X110892Y162425D01*
X112205Y162252D01*
X113517Y162425D01*
X114740Y162931D01*
X115790Y163737D01*
X116596Y164787D01*
X117103Y166010D01*
X117276Y167323D01*
X117103Y168635D01*
X116596Y169858D01*
X115790Y170908D01*
X114740Y171714D01*
X113517Y172221D01*
X112205Y172394D01*
D02*
G37*
G36*
X66929D02*
X65617Y172221D01*
X64394Y171714D01*
X63343Y170908D01*
X62538Y169858D01*
X62031Y168635D01*
X61858Y167323D01*
X62031Y166010D01*
X62538Y164787D01*
X63343Y163737D01*
X64394Y162931D01*
X65617Y162425D01*
X66929Y162252D01*
X68242Y162425D01*
X69465Y162931D01*
X70515Y163737D01*
X71321Y164787D01*
X71827Y166010D01*
X72000Y167323D01*
X71827Y168635D01*
X71321Y169858D01*
X70515Y170908D01*
X69465Y171714D01*
X68242Y172221D01*
X66929Y172394D01*
D02*
G37*
G36*
X143157Y165823D02*
X139295D01*
Y161961D01*
X140583Y162495D01*
X141738Y163381D01*
X142624Y164535D01*
X143157Y165823D01*
D02*
G37*
G36*
X97881D02*
X94020D01*
Y161961D01*
X95307Y162495D01*
X96462Y163381D01*
X97348Y164535D01*
X97881Y165823D01*
D02*
G37*
G36*
X52606D02*
X48744D01*
Y161961D01*
X50032Y162495D01*
X51186Y163381D01*
X52072Y164535D01*
X52606Y165823D01*
D02*
G37*
G36*
X45744D02*
X41882D01*
X42416Y164535D01*
X43302Y163381D01*
X44456Y162495D01*
X45744Y161961D01*
Y165823D01*
D02*
G37*
G36*
X136295D02*
X132434D01*
X132967Y164535D01*
X133853Y163381D01*
X135008Y162495D01*
X136295Y161961D01*
Y165823D01*
D02*
G37*
G36*
X91020D02*
X87158D01*
X87691Y164535D01*
X88577Y163381D01*
X89732Y162495D01*
X91020Y161961D01*
Y165823D01*
D02*
G37*
G36*
X31028Y93944D02*
Y90083D01*
X34889D01*
X34356Y91370D01*
X33470Y92525D01*
X32315Y93411D01*
X31028Y93944D01*
D02*
G37*
G36*
X28028D02*
X26740Y93411D01*
X25585Y92525D01*
X24699Y91370D01*
X24166Y90083D01*
X28028D01*
Y93944D01*
D02*
G37*
G36*
X34889Y87083D02*
X31028D01*
Y83221D01*
X32315Y83754D01*
X33470Y84640D01*
X34356Y85795D01*
X34889Y87083D01*
D02*
G37*
G36*
X28028D02*
X24166D01*
X24699Y85795D01*
X25585Y84640D01*
X26740Y83754D01*
X28028Y83221D01*
Y87083D01*
D02*
G37*
G36*
X68799Y82504D02*
X67929D01*
Y81020D01*
X69610D01*
Y81693D01*
X69548Y82003D01*
X69373Y82266D01*
X69109Y82442D01*
X68799Y82504D01*
D02*
G37*
G36*
X65929D02*
X65059D01*
X64749Y82442D01*
X64486Y82266D01*
X64310Y82003D01*
X64248Y81693D01*
Y81020D01*
X65929D01*
Y82504D01*
D02*
G37*
G36*
X68799Y76205D02*
X67929D01*
Y74721D01*
X69610D01*
Y75394D01*
X69548Y75704D01*
X69373Y75967D01*
X69109Y76143D01*
X68799Y76205D01*
D02*
G37*
G36*
X65929D02*
X65059D01*
X64749Y76143D01*
X64486Y75967D01*
X64310Y75704D01*
X64248Y75394D01*
Y74721D01*
X65929D01*
Y76205D01*
D02*
G37*
G36*
X69610Y72720D02*
X67929D01*
Y71236D01*
X68799D01*
X69109Y71298D01*
X69373Y71474D01*
X69548Y71737D01*
X69610Y72047D01*
Y72720D01*
D02*
G37*
G36*
X65929D02*
X64248D01*
Y72047D01*
X64310Y71737D01*
X64486Y71474D01*
X64749Y71298D01*
X65059Y71236D01*
X65929D01*
Y72720D01*
D02*
G37*
G36*
X81110Y72449D02*
X79740D01*
Y71177D01*
X81110D01*
Y72449D01*
D02*
G37*
G36*
X77740D02*
X76370D01*
Y71177D01*
X77740D01*
Y72449D01*
D02*
G37*
G36*
X81110Y69177D02*
X79740D01*
Y67905D01*
X81110D01*
Y69177D01*
D02*
G37*
G36*
X77740D02*
X76370D01*
Y67905D01*
X77740D01*
Y69177D01*
D02*
G37*
G36*
X70260Y68175D02*
X67732D01*
Y67243D01*
X70986D01*
Y67448D01*
X70931Y67726D01*
X70774Y67962D01*
X70538Y68119D01*
X70260Y68175D01*
D02*
G37*
G36*
X65732D02*
X63205D01*
X62927Y68119D01*
X62691Y67962D01*
X62533Y67726D01*
X62478Y67448D01*
Y67243D01*
X65732D01*
Y68175D01*
D02*
G37*
G36*
X171653Y90878D02*
X169898D01*
Y87614D01*
X172866D01*
Y89665D01*
X172774Y90129D01*
X172511Y90522D01*
X172117Y90785D01*
X171653Y90878D01*
D02*
G37*
G36*
X167898D02*
X166142D01*
X165678Y90785D01*
X165285Y90522D01*
X165022Y90129D01*
X164929Y89665D01*
Y87614D01*
X167898D01*
Y90878D01*
D02*
G37*
G36*
X172866Y85614D02*
X169898D01*
Y82351D01*
X171653D01*
X172117Y82443D01*
X172511Y82706D01*
X172774Y83099D01*
X172866Y83563D01*
Y85614D01*
D02*
G37*
G36*
X167898D02*
X164929D01*
Y83563D01*
X165022Y83099D01*
X165285Y82706D01*
X165678Y82443D01*
X166142Y82351D01*
X167898D01*
Y85614D01*
D02*
G37*
G36*
X171653Y81035D02*
X169898D01*
Y77772D01*
X172866D01*
Y79823D01*
X172774Y80287D01*
X172511Y80680D01*
X172117Y80943D01*
X171653Y81035D01*
D02*
G37*
G36*
X167898D02*
X166142D01*
X165678Y80943D01*
X165285Y80680D01*
X165022Y80287D01*
X164929Y79823D01*
Y77772D01*
X167898D01*
Y81035D01*
D02*
G37*
G36*
X172866Y75772D02*
X169898D01*
Y72508D01*
X171653D01*
X172117Y72601D01*
X172511Y72863D01*
X172774Y73257D01*
X172866Y73721D01*
Y75772D01*
D02*
G37*
G36*
X167898D02*
X164929D01*
Y73721D01*
X165022Y73257D01*
X165285Y72863D01*
X165678Y72601D01*
X166142Y72508D01*
X167898D01*
Y75772D01*
D02*
G37*
G36*
X171653Y71193D02*
X169898D01*
Y67929D01*
X172866D01*
Y69980D01*
X172774Y70444D01*
X172511Y70837D01*
X172117Y71100D01*
X171653Y71193D01*
D02*
G37*
G36*
X167898D02*
X166142D01*
X165678Y71100D01*
X165285Y70837D01*
X165022Y70444D01*
X164929Y69980D01*
Y67929D01*
X167898D01*
Y71193D01*
D02*
G37*
G36*
X172866Y65929D02*
X169898D01*
Y62666D01*
X171653D01*
X172117Y62758D01*
X172511Y63021D01*
X172774Y63414D01*
X172866Y63878D01*
Y65929D01*
D02*
G37*
G36*
X167898D02*
X164929D01*
Y63878D01*
X165022Y63414D01*
X165285Y63021D01*
X165678Y62758D01*
X166142Y62666D01*
X167898D01*
Y65929D01*
D02*
G37*
G36*
X70260Y63175D02*
X67732D01*
Y62243D01*
X70986D01*
Y62448D01*
X70931Y62726D01*
X70774Y62962D01*
X70538Y63119D01*
X70260Y63175D01*
D02*
G37*
G36*
X65732D02*
X63205D01*
X62927Y63119D01*
X62691Y62962D01*
X62533Y62726D01*
X62478Y62448D01*
Y62243D01*
X65732D01*
Y63175D01*
D02*
G37*
G36*
X70986Y60243D02*
X67732D01*
Y59312D01*
X70260D01*
X70538Y59367D01*
X70774Y59525D01*
X70931Y59761D01*
X70986Y60039D01*
Y60243D01*
D02*
G37*
G36*
X65732D02*
X62478D01*
Y60039D01*
X62533Y59761D01*
X62691Y59525D01*
X62927Y59367D01*
X63205Y59312D01*
X65732D01*
Y60243D01*
D02*
G37*
G36*
X81110Y60047D02*
X79740D01*
Y58776D01*
X81110D01*
Y60047D01*
D02*
G37*
G36*
X77740D02*
X76370D01*
Y58776D01*
X77740D01*
Y60047D01*
D02*
G37*
G36*
X171653Y61350D02*
X169898D01*
Y58087D01*
X172866D01*
Y60138D01*
X172774Y60602D01*
X172511Y60995D01*
X172117Y61258D01*
X171653Y61350D01*
D02*
G37*
G36*
X167898D02*
X166142D01*
X165678Y61258D01*
X165285Y60995D01*
X165022Y60602D01*
X164929Y60138D01*
Y58087D01*
X167898D01*
Y61350D01*
D02*
G37*
G36*
X70260Y58175D02*
X67732D01*
Y57243D01*
X70986D01*
Y57448D01*
X70931Y57726D01*
X70774Y57962D01*
X70538Y58119D01*
X70260Y58175D01*
D02*
G37*
G36*
X65732D02*
X63205D01*
X62927Y58119D01*
X62691Y57962D01*
X62533Y57726D01*
X62478Y57448D01*
Y57243D01*
X65732D01*
Y58175D01*
D02*
G37*
G36*
X81110Y56776D02*
X79740D01*
Y55504D01*
X81110D01*
Y56776D01*
D02*
G37*
G36*
X77740D02*
X76370D01*
Y55504D01*
X77740D01*
Y56776D01*
D02*
G37*
G36*
X70986Y55243D02*
X67732D01*
Y54312D01*
X70260D01*
X70538Y54367D01*
X70774Y54525D01*
X70931Y54761D01*
X70986Y55039D01*
Y55243D01*
D02*
G37*
G36*
X65732D02*
X62478D01*
Y55039D01*
X62533Y54761D01*
X62691Y54525D01*
X62927Y54367D01*
X63205Y54312D01*
X65732D01*
Y55243D01*
D02*
G37*
G36*
X172866Y56087D02*
X169898D01*
Y52823D01*
X171653D01*
X172117Y52915D01*
X172511Y53178D01*
X172774Y53571D01*
X172866Y54035D01*
Y56087D01*
D02*
G37*
G36*
X167898D02*
X164929D01*
Y54035D01*
X165022Y53571D01*
X165285Y53178D01*
X165678Y52915D01*
X166142Y52823D01*
X167898D01*
Y56087D01*
D02*
G37*
G36*
X70260Y53175D02*
X67732D01*
Y52243D01*
X70986D01*
Y52448D01*
X70931Y52726D01*
X70774Y52962D01*
X70538Y53119D01*
X70260Y53175D01*
D02*
G37*
G36*
X65732D02*
X63205D01*
X62927Y53119D01*
X62691Y52962D01*
X62533Y52726D01*
X62478Y52448D01*
Y52243D01*
X65732D01*
Y53175D01*
D02*
G37*
G36*
X70986Y50243D02*
X67732D01*
Y49312D01*
X70260D01*
X70538Y49367D01*
X70774Y49525D01*
X70931Y49761D01*
X70986Y50039D01*
Y50243D01*
D02*
G37*
G36*
X65732D02*
X62478D01*
Y50039D01*
X62533Y49761D01*
X62691Y49525D01*
X62927Y49367D01*
X63205Y49312D01*
X65732D01*
Y50243D01*
D02*
G37*
G36*
X228966Y106832D02*
X222222D01*
Y100372D01*
X230650D01*
Y105148D01*
X230522Y105792D01*
X230157Y106338D01*
X229611Y106703D01*
X228966Y106832D01*
D02*
G37*
G36*
X218722D02*
X211978D01*
X211334Y106703D01*
X210788Y106338D01*
X210423Y105792D01*
X210294Y105148D01*
Y100372D01*
X218722D01*
Y106832D01*
D02*
G37*
G36*
X205392Y93380D02*
Y91908D01*
X205928D01*
Y92648D01*
X205869Y92946D01*
X205700Y93200D01*
X205446Y93369D01*
X205392Y93380D01*
D02*
G37*
G36*
X201892Y93380D02*
X201837Y93369D01*
X201584Y93200D01*
X201414Y92946D01*
X201355Y92648D01*
Y91908D01*
X201892D01*
Y93380D01*
D02*
G37*
G36*
X230650Y96872D02*
X222222D01*
Y90412D01*
X228966D01*
X229611Y90541D01*
X230157Y90906D01*
X230522Y91452D01*
X230650Y92097D01*
Y96872D01*
D02*
G37*
G36*
X218722D02*
X210294D01*
Y92097D01*
X210423Y91452D01*
X210788Y90906D01*
X211334Y90541D01*
X211978Y90412D01*
X218722D01*
Y96872D01*
D02*
G37*
G36*
X201892Y88407D02*
X201355D01*
Y87667D01*
X201414Y87369D01*
X201584Y87115D01*
X201837Y86946D01*
X201892Y86935D01*
Y88407D01*
D02*
G37*
G36*
X205928D02*
X205392D01*
Y86935D01*
X205446Y86946D01*
X205700Y87115D01*
X205869Y87369D01*
X205928Y87667D01*
Y88407D01*
D02*
G37*
G36*
X205392Y85506D02*
Y84034D01*
X205928D01*
Y84774D01*
X205869Y85072D01*
X205700Y85326D01*
X205446Y85495D01*
X205392Y85506D01*
D02*
G37*
G36*
X201892D02*
X201837Y85495D01*
X201584Y85326D01*
X201414Y85072D01*
X201355Y84774D01*
Y84034D01*
X201892D01*
Y85506D01*
D02*
G37*
G36*
X205928Y80533D02*
X205392D01*
Y79061D01*
X205446Y79072D01*
X205700Y79241D01*
X205869Y79495D01*
X205928Y79793D01*
Y80533D01*
D02*
G37*
G36*
X201892D02*
X201355D01*
Y79793D01*
X201414Y79495D01*
X201584Y79241D01*
X201837Y79072D01*
X201892Y79061D01*
Y80533D01*
D02*
G37*
G36*
X205392Y77632D02*
Y76160D01*
X205928D01*
Y76900D01*
X205869Y77198D01*
X205700Y77452D01*
X205446Y77621D01*
X205392Y77632D01*
D02*
G37*
G36*
X201892Y77632D02*
X201837Y77621D01*
X201584Y77452D01*
X201414Y77198D01*
X201355Y76900D01*
Y76160D01*
X201892D01*
Y77632D01*
D02*
G37*
G36*
Y72659D02*
X201355D01*
Y71919D01*
X201414Y71621D01*
X201584Y71367D01*
X201837Y71198D01*
X201892Y71187D01*
Y72659D01*
D02*
G37*
G36*
X205928D02*
X205392D01*
Y71187D01*
X205446Y71198D01*
X205700Y71367D01*
X205869Y71621D01*
X205928Y71919D01*
Y72659D01*
D02*
G37*
G36*
X270701Y74850D02*
X268345D01*
Y69526D01*
X270701D01*
Y74850D01*
D02*
G37*
G36*
X265120D02*
X262764D01*
Y69526D01*
X265120D01*
Y74850D01*
D02*
G37*
G36*
X205392Y69758D02*
Y68285D01*
X205928D01*
Y69026D01*
X205869Y69324D01*
X205700Y69578D01*
X205446Y69747D01*
X205392Y69758D01*
D02*
G37*
G36*
X201892Y69758D02*
X201837Y69747D01*
X201584Y69578D01*
X201414Y69324D01*
X201355Y69026D01*
Y68285D01*
X201892D01*
Y69758D01*
D02*
G37*
G36*
Y64785D02*
X201355D01*
Y64045D01*
X201414Y63747D01*
X201584Y63493D01*
X201837Y63324D01*
X201892Y63313D01*
Y64785D01*
D02*
G37*
G36*
X205928D02*
X205392D01*
Y63313D01*
X205446Y63324D01*
X205700Y63493D01*
X205869Y63747D01*
X205928Y64045D01*
Y64785D01*
D02*
G37*
G36*
X270701Y66301D02*
X268345D01*
Y60976D01*
X270701D01*
Y66301D01*
D02*
G37*
G36*
X265120D02*
X262764D01*
Y60976D01*
X265120D01*
Y66301D01*
D02*
G37*
G36*
X205392Y61884D02*
Y60411D01*
X205928D01*
Y61152D01*
X205869Y61450D01*
X205700Y61704D01*
X205446Y61873D01*
X205392Y61884D01*
D02*
G37*
G36*
X201892Y61884D02*
X201837Y61873D01*
X201584Y61704D01*
X201414Y61450D01*
X201355Y61152D01*
Y60411D01*
X201892D01*
Y61884D01*
D02*
G37*
G36*
X229656Y58684D02*
X228915D01*
Y58148D01*
X230388D01*
X230377Y58202D01*
X230208Y58456D01*
X229954Y58625D01*
X229656Y58684D01*
D02*
G37*
G36*
X213908D02*
X213167D01*
Y58148D01*
X214640D01*
X214629Y58202D01*
X214459Y58456D01*
X214206Y58625D01*
X213908Y58684D01*
D02*
G37*
G36*
X221781D02*
X221041D01*
Y58148D01*
X222514D01*
X222503Y58202D01*
X222334Y58456D01*
X222080Y58625D01*
X221781Y58684D01*
D02*
G37*
G36*
X209667D02*
X208927D01*
X208628Y58625D01*
X208375Y58456D01*
X208206Y58202D01*
X208195Y58148D01*
X209667D01*
Y58684D01*
D02*
G37*
G36*
X217541D02*
X216801D01*
X216502Y58625D01*
X216249Y58456D01*
X216080Y58202D01*
X216069Y58148D01*
X217541D01*
Y58684D01*
D02*
G37*
G36*
X225415D02*
X224675D01*
X224376Y58625D01*
X224123Y58456D01*
X223954Y58202D01*
X223943Y58148D01*
X225415D01*
Y58684D01*
D02*
G37*
G36*
X201892Y56911D02*
X201355D01*
Y56171D01*
X201414Y55872D01*
X201584Y55619D01*
X201837Y55450D01*
X201892Y55439D01*
Y56911D01*
D02*
G37*
G36*
X205928D02*
X205392D01*
Y55439D01*
X205446Y55450D01*
X205700Y55619D01*
X205869Y55872D01*
X205928Y56171D01*
Y56911D01*
D02*
G37*
G36*
X230388Y54648D02*
X228915D01*
Y54111D01*
X229656D01*
X229954Y54170D01*
X230208Y54340D01*
X230377Y54593D01*
X230388Y54648D01*
D02*
G37*
G36*
X225415D02*
X223943D01*
X223954Y54593D01*
X224123Y54340D01*
X224376Y54170D01*
X224675Y54111D01*
X225415D01*
Y54648D01*
D02*
G37*
G36*
X222514D02*
X221041D01*
Y54111D01*
X221781D01*
X222080Y54170D01*
X222334Y54340D01*
X222503Y54593D01*
X222514Y54648D01*
D02*
G37*
G36*
X217541D02*
X216069D01*
X216080Y54593D01*
X216249Y54340D01*
X216502Y54170D01*
X216801Y54111D01*
X217541D01*
Y54648D01*
D02*
G37*
G36*
X214640D02*
X213167D01*
Y54111D01*
X213908D01*
X214206Y54170D01*
X214459Y54340D01*
X214629Y54593D01*
X214640Y54648D01*
D02*
G37*
G36*
X209667D02*
X208195D01*
X208206Y54593D01*
X208375Y54340D01*
X208628Y54170D01*
X208927Y54111D01*
X209667D01*
Y54648D01*
D02*
G37*
G36*
X270701Y59102D02*
X268345D01*
Y53778D01*
X270701D01*
Y59102D01*
D02*
G37*
G36*
X265120D02*
X262764D01*
Y53778D01*
X265120D01*
Y59102D01*
D02*
G37*
G36*
X270701Y50553D02*
X268345D01*
Y45228D01*
X270701D01*
Y50553D01*
D02*
G37*
G36*
X265120D02*
X262764D01*
Y45228D01*
X265120D01*
Y50553D01*
D02*
G37*
G36*
X270740Y43158D02*
X268384D01*
Y37833D01*
X270740D01*
Y43158D01*
D02*
G37*
G36*
X265159D02*
X262803D01*
Y37833D01*
X265159D01*
Y43158D01*
D02*
G37*
G36*
X229959Y34818D02*
Y31140D01*
X233637D01*
X233497Y31661D01*
X232770Y32922D01*
X231740Y33951D01*
X230480Y34678D01*
X229959Y34818D01*
D02*
G37*
G36*
X226734D02*
X226213Y34678D01*
X224953Y33951D01*
X223923Y32922D01*
X223196Y31661D01*
X223056Y31140D01*
X226734D01*
Y34818D01*
D02*
G37*
G36*
X184683D02*
Y31140D01*
X188361D01*
X188222Y31661D01*
X187494Y32922D01*
X186465Y33951D01*
X185204Y34678D01*
X184683Y34818D01*
D02*
G37*
G36*
X181458D02*
X180937Y34678D01*
X179677Y33951D01*
X178648Y32922D01*
X177920Y31661D01*
X177780Y31140D01*
X181458D01*
Y34818D01*
D02*
G37*
G36*
X270740Y34608D02*
X268384D01*
Y29283D01*
X270740D01*
Y34608D01*
D02*
G37*
G36*
X265159D02*
X262803D01*
Y29283D01*
X265159D01*
Y34608D01*
D02*
G37*
G36*
X248693Y34555D02*
X247370D01*
X246091Y34212D01*
X244945Y33551D01*
X244008Y32615D01*
X243347Y31468D01*
X243004Y30189D01*
Y28866D01*
X243347Y27587D01*
X244008Y26441D01*
X244945Y25504D01*
X246091Y24843D01*
X247370Y24500D01*
X248693D01*
X249972Y24843D01*
X251118Y25504D01*
X252055Y26441D01*
X252716Y27587D01*
X253059Y28866D01*
Y30189D01*
X252716Y31468D01*
X252055Y32615D01*
X251118Y33551D01*
X249972Y34212D01*
X248693Y34555D01*
D02*
G37*
G36*
X203418D02*
X202094D01*
X200815Y34212D01*
X199669Y33551D01*
X198733Y32615D01*
X198071Y31468D01*
X197728Y30189D01*
Y28866D01*
X198071Y27587D01*
X198733Y26441D01*
X199669Y25504D01*
X200815Y24843D01*
X202094Y24500D01*
X203418D01*
X204696Y24843D01*
X205843Y25504D01*
X206779Y26441D01*
X207441Y27587D01*
X207784Y28866D01*
Y30189D01*
X207441Y31468D01*
X206779Y32615D01*
X205843Y33551D01*
X204696Y34212D01*
X203418Y34555D01*
D02*
G37*
G36*
X233637Y27915D02*
X229959D01*
Y24237D01*
X230480Y24377D01*
X231740Y25104D01*
X232770Y26134D01*
X233497Y27394D01*
X233637Y27915D01*
D02*
G37*
G36*
X226734D02*
X223056D01*
X223196Y27394D01*
X223923Y26134D01*
X224953Y25104D01*
X226213Y24377D01*
X226734Y24237D01*
Y27915D01*
D02*
G37*
G36*
X188361D02*
X184683D01*
Y24237D01*
X185204Y24377D01*
X186465Y25104D01*
X187494Y26134D01*
X188222Y27394D01*
X188361Y27915D01*
D02*
G37*
G36*
X181458D02*
X177780D01*
X177920Y27394D01*
X178648Y26134D01*
X179677Y25104D01*
X180937Y24377D01*
X181458Y24237D01*
Y27915D01*
D02*
G37*
%LPD*%
D16*
X135433Y100000D02*
D03*
Y93701D02*
D03*
X143307Y93701D02*
D03*
Y100000D02*
D03*
X65472Y105020D02*
D03*
Y111319D02*
D03*
Y127854D02*
D03*
Y134153D02*
D03*
X65472Y116437D02*
D03*
Y122736D02*
D03*
X65472Y139272D02*
D03*
Y145571D02*
D03*
X71772Y111319D02*
D03*
Y105020D02*
D03*
X66929Y73721D02*
D03*
Y80020D02*
D03*
D17*
X71772Y117224D02*
D03*
X78071D02*
D03*
Y125098D02*
D03*
X71772D02*
D03*
Y98720D02*
D03*
X78071D02*
D03*
X124988Y71228D02*
D03*
X118689D02*
D03*
X118689Y78708D02*
D03*
X124988D02*
D03*
D18*
X78071Y105020D02*
D03*
Y111319D02*
D03*
D19*
X78071Y132972D02*
D03*
X71772D02*
D03*
X106090Y78708D02*
D03*
X112390D02*
D03*
X106090Y71228D02*
D03*
X112390D02*
D03*
D20*
X143504Y135039D02*
D03*
X147244Y125984D02*
D03*
X139764D02*
D03*
D21*
X203642Y58661D02*
D03*
X197146D02*
D03*
X203642Y90158D02*
D03*
X197146D02*
D03*
Y66535D02*
D03*
X203642D02*
D03*
X197146Y82284D02*
D03*
X203642D02*
D03*
X197146Y74410D02*
D03*
X203642D02*
D03*
D22*
X211417Y56398D02*
D03*
Y49902D02*
D03*
X219291Y56398D02*
D03*
Y49902D02*
D03*
X227165Y56398D02*
D03*
Y49902D02*
D03*
X129252Y139370D02*
D03*
Y132874D02*
D03*
Y119488D02*
D03*
Y125984D02*
D03*
D23*
X181496Y86614D02*
D03*
X168898D02*
D03*
X181496Y76772D02*
D03*
X168898D02*
D03*
X181496Y66929D02*
D03*
X168898D02*
D03*
X181496Y57087D02*
D03*
X168898D02*
D03*
D24*
X186221Y95866D02*
D03*
Y114370D02*
D03*
D25*
X220472Y98622D02*
D03*
Y137598D02*
D03*
D26*
X47441Y66243D02*
D03*
Y61243D02*
D03*
Y56243D02*
D03*
Y51243D02*
D03*
X66732D02*
D03*
Y56243D02*
D03*
Y61243D02*
D03*
Y66243D02*
D03*
D27*
X78740Y57776D02*
D03*
Y70177D02*
D03*
D28*
X94213Y135531D02*
D03*
D29*
X105905Y124016D02*
D03*
D30*
X117598Y135531D02*
D03*
Y132973D02*
D03*
Y130413D02*
D03*
Y127854D02*
D03*
Y125295D02*
D03*
Y122736D02*
D03*
Y120177D02*
D03*
Y117618D02*
D03*
Y115059D02*
D03*
Y112500D02*
D03*
X94213D02*
D03*
Y115059D02*
D03*
Y117618D02*
D03*
Y122736D02*
D03*
Y120177D02*
D03*
Y125295D02*
D03*
Y127854D02*
D03*
Y130413D02*
D03*
Y132973D02*
D03*
D52*
X163455Y115246D02*
D03*
X188425Y134754D02*
D03*
D53*
X155907Y105310D02*
D03*
X160856D02*
D03*
X166053D02*
D03*
X171002D02*
D03*
X171004Y127559D02*
D03*
X166053D02*
D03*
X160856D02*
D03*
X155905D02*
D03*
X185827Y144690D02*
D03*
X180878D02*
D03*
X180876Y122441D02*
D03*
X185827D02*
D03*
X191024D02*
D03*
Y144690D02*
D03*
X195972D02*
D03*
X195974Y122441D02*
D03*
D54*
X130699Y93701D02*
X135433D01*
X129528Y94872D02*
X130699Y93701D01*
X129528Y94872D02*
Y104724D01*
X163075Y147244D02*
X163386D01*
X141339Y146457D02*
X162287D01*
X134252Y139370D02*
X141339Y146457D01*
X162287D02*
X163075Y147244D01*
X129528Y104724D02*
X131890Y107087D01*
X133858D01*
X135827Y109055D01*
Y117717D01*
X129252Y119488D02*
X134055D01*
X135827Y117717D01*
X125020Y119488D02*
X129252D01*
X125381Y129528D02*
X142136D01*
X143307Y128356D01*
Y111024D02*
Y128356D01*
X123708Y127854D02*
X125381Y129528D01*
X129252Y139370D02*
X134252D01*
X65472Y96732D02*
X68597Y93608D01*
X85039D01*
Y108806D01*
X57087Y94488D02*
X61024Y90551D01*
X83465D01*
X57087Y94488D02*
Y141732D01*
X60925Y145571D01*
X65472D01*
X90458Y88189D02*
X106090D01*
X135827D01*
X106090Y78708D02*
Y88189D01*
X135827D02*
X143307Y80709D01*
X85039Y93608D02*
X90458Y88189D01*
X88146Y71228D02*
Y85869D01*
Y71228D02*
X106090D01*
X88146Y62687D02*
Y71228D01*
X83465Y90551D02*
X88146Y85869D01*
X85039Y108806D02*
X88733Y112500D01*
X109990Y121195D02*
X111008Y120177D01*
X102165Y121850D02*
X103051Y122736D01*
X104626D02*
X105905Y124016D01*
X101969Y122047D02*
X102165Y121850D01*
X105905Y124016D02*
X108169D01*
X109990Y121195D02*
Y122195D01*
X107874Y124016D02*
X109843Y122047D01*
X108169Y124016D02*
X109990Y122195D01*
X85158Y122736D02*
X104626D01*
X111008Y120177D02*
X124331D01*
X129905Y71244D02*
X129921Y71260D01*
X125004Y71244D02*
X129905D01*
Y78724D02*
X129921Y78740D01*
X125004Y78724D02*
X129905D01*
X124988Y71228D02*
X125004Y71244D01*
X124988Y78708D02*
X125004Y78724D01*
X117598Y135531D02*
X121181D01*
X124921Y139272D01*
X129154D02*
X129252Y139370D01*
X124921Y139272D02*
X129154D01*
X117598Y127854D02*
X123708D01*
X143307Y80709D02*
Y93602D01*
Y72835D02*
Y80709D01*
X65472Y96732D02*
Y105020D01*
X72441Y145669D02*
X76772D01*
X86909Y135531D02*
X94213D01*
X76772Y145669D02*
X86909Y135531D01*
X65522Y145620D02*
X72392D01*
X72441Y145669D01*
X83583Y121161D02*
X85158Y122736D01*
X65472Y145571D02*
X65522Y145620D01*
X72165Y121161D02*
X83583D01*
X135433Y103150D02*
X143307Y111024D01*
X135433Y100098D02*
Y103150D01*
X143307Y100098D02*
Y111024D01*
X124331Y120177D02*
X125020Y119488D01*
X88733Y112500D02*
X94213D01*
X112390Y71228D02*
X118689D01*
X112390Y78708D02*
X118689D01*
D55*
X135138Y122736D02*
X139764Y118110D01*
X134941Y136122D02*
X137402Y138583D01*
X152756D01*
X125098Y136122D02*
X134941D01*
X81614Y105020D02*
X82789Y106195D01*
Y109738D01*
X88033Y114982D01*
X155905Y127559D02*
Y135433D01*
X195974Y118199D02*
Y122441D01*
X82842Y128969D02*
X83957Y127854D01*
X81102Y129134D02*
X81267Y128969D01*
X82842D01*
X83957Y127854D02*
X94213D01*
X80131Y125295D02*
X94213D01*
X117619Y132993D02*
X121969D01*
X117598Y132973D02*
X117619Y132993D01*
X121969D02*
X125098Y136122D01*
X152756Y138583D02*
X155905Y135433D01*
X124908Y132782D02*
X129160D01*
X122539Y130413D02*
X124908Y132782D01*
X117598Y130413D02*
X122539D01*
X129160Y132782D02*
X129252Y132874D01*
X85925Y130413D02*
X94213D01*
X83189Y132972D02*
X85748Y130413D01*
X65472Y139272D02*
X79718D01*
X78071Y132972D02*
X83189D01*
X79718Y139272D02*
X86017Y132973D01*
X94213D01*
X78071Y125098D02*
X78191Y125218D01*
X65472Y111319D02*
Y116437D01*
X71772Y111319D02*
X78071D01*
X66260Y111319D02*
X71772D01*
X71772Y98720D02*
Y105020D01*
X78071Y98720D02*
Y105020D01*
Y111319D02*
X81221D01*
X78071Y105020D02*
X81614D01*
X78071Y132972D02*
X78071Y132972D01*
X78071Y117224D02*
X83583D01*
X65472Y134153D02*
Y139272D01*
X117598Y122736D02*
X135138D01*
X131496Y111024D02*
Y114173D01*
X130315Y115354D02*
X131496Y114173D01*
X125302Y112598D02*
X128740D01*
X125984Y115354D02*
X130315D01*
X125751D02*
X125984D01*
X122842Y115059D02*
X125302Y112598D01*
X130315Y109843D02*
X131496Y111024D01*
X122146Y112500D02*
X124803Y109843D01*
X130315D01*
X117598Y112500D02*
X122146D01*
X117598Y115059D02*
X122842D01*
X123487Y117618D02*
X125751Y115354D01*
X117598Y117618D02*
X123487D01*
X137205Y135039D02*
X143504D01*
X129252Y125984D02*
X139764D01*
X125020Y125984D02*
X129252D01*
X184646Y107480D02*
X186221Y109055D01*
X178740Y107480D02*
X184646D01*
X135039Y132874D02*
X137205Y135039D01*
X129252Y132874D02*
X135039D01*
X186221Y109055D02*
Y114370D01*
X185039Y103150D02*
X186221Y101969D01*
X178740Y103150D02*
X185039D01*
X186221Y95866D02*
Y101969D01*
X86536Y120177D02*
X94213D01*
X83583Y117224D02*
X86536Y120177D01*
X88033Y114982D02*
X94136D01*
X81221Y111319D02*
X87520Y117618D01*
X94213D01*
X94136Y114982D02*
X94213Y115059D01*
X124331Y125295D02*
X125020Y125984D01*
X117598Y125295D02*
X124331D01*
X117598Y122736D02*
X117598Y122736D01*
D56*
X266772Y36220D02*
D03*
X266732Y52165D02*
D03*
Y67913D02*
D03*
D57*
X276772Y36220D02*
D03*
X276732Y52165D02*
D03*
Y67913D02*
D03*
D58*
X265748Y108268D02*
D03*
Y88583D02*
D03*
X202756Y167323D02*
D03*
X183071D02*
D03*
X228346D02*
D03*
X248031D02*
D03*
X228346Y29528D02*
D03*
X248031D02*
D03*
X112205D02*
D03*
X66929D02*
D03*
X47244D02*
D03*
X92520D02*
D03*
X137795Y167323D02*
D03*
X157480D02*
D03*
X47244D02*
D03*
X66929D02*
D03*
X137795Y29528D02*
D03*
X157480D02*
D03*
X112205Y167323D02*
D03*
X92520D02*
D03*
X183071Y29528D02*
D03*
X202756D02*
D03*
X29528Y88583D02*
D03*
Y108268D02*
D03*
D59*
X285827Y190551D02*
D03*
Y168504D02*
D03*
Y157480D02*
D03*
Y146457D02*
D03*
Y135433D02*
D03*
Y124409D02*
D03*
Y69291D02*
D03*
Y58268D02*
D03*
Y47244D02*
D03*
Y36220D02*
D03*
Y25197D02*
D03*
X274803Y190551D02*
D03*
Y168504D02*
D03*
Y157480D02*
D03*
Y146457D02*
D03*
Y135433D02*
D03*
Y124409D02*
D03*
Y113386D02*
D03*
Y102362D02*
D03*
Y91338D02*
D03*
Y80315D02*
D03*
X263779Y190551D02*
D03*
Y179527D02*
D03*
Y168504D02*
D03*
Y157480D02*
D03*
Y146457D02*
D03*
Y135433D02*
D03*
Y124409D02*
D03*
Y80315D02*
D03*
Y14173D02*
D03*
X252756Y190551D02*
D03*
Y179527D02*
D03*
Y14173D02*
D03*
X241732Y190551D02*
D03*
Y179527D02*
D03*
Y14173D02*
D03*
X230709Y179527D02*
D03*
Y14173D02*
D03*
X219685Y179527D02*
D03*
Y14173D02*
D03*
X208661Y190551D02*
D03*
Y179527D02*
D03*
Y14173D02*
D03*
X197638Y190551D02*
D03*
Y179527D02*
D03*
Y14173D02*
D03*
X186614Y179527D02*
D03*
Y14173D02*
D03*
X175591Y179527D02*
D03*
Y14173D02*
D03*
X164567Y179527D02*
D03*
Y168504D02*
D03*
Y14173D02*
D03*
X153543Y179527D02*
D03*
Y157480D02*
D03*
Y14173D02*
D03*
X142520Y179527D02*
D03*
Y36220D02*
D03*
Y14173D02*
D03*
X131496Y190551D02*
D03*
Y179527D02*
D03*
Y36220D02*
D03*
Y25197D02*
D03*
Y14173D02*
D03*
X120472Y190551D02*
D03*
Y179527D02*
D03*
Y14173D02*
D03*
X109449Y179527D02*
D03*
Y14173D02*
D03*
X98425Y190551D02*
D03*
Y179527D02*
D03*
Y36220D02*
D03*
Y25197D02*
D03*
Y14173D02*
D03*
X87401Y179527D02*
D03*
Y36220D02*
D03*
Y14173D02*
D03*
X76378Y190551D02*
D03*
Y14173D02*
D03*
X65354Y179527D02*
D03*
Y14173D02*
D03*
X54331Y190551D02*
D03*
Y179527D02*
D03*
Y69291D02*
D03*
Y58268D02*
D03*
Y47244D02*
D03*
Y36220D02*
D03*
Y25197D02*
D03*
Y14173D02*
D03*
X43307Y179527D02*
D03*
Y47244D02*
D03*
Y36220D02*
D03*
Y14173D02*
D03*
X32283Y190551D02*
D03*
Y179527D02*
D03*
Y168504D02*
D03*
Y157480D02*
D03*
Y146457D02*
D03*
Y135433D02*
D03*
Y124409D02*
D03*
Y69291D02*
D03*
Y58268D02*
D03*
Y47244D02*
D03*
Y36220D02*
D03*
Y25197D02*
D03*
Y14173D02*
D03*
X21260Y190551D02*
D03*
Y168504D02*
D03*
Y157480D02*
D03*
Y146457D02*
D03*
Y135433D02*
D03*
Y124409D02*
D03*
Y113386D02*
D03*
Y102362D02*
D03*
Y80315D02*
D03*
Y69291D02*
D03*
Y36220D02*
D03*
Y25197D02*
D03*
X10236Y190551D02*
D03*
Y168504D02*
D03*
Y157480D02*
D03*
Y146457D02*
D03*
Y135433D02*
D03*
Y124409D02*
D03*
Y69291D02*
D03*
Y36220D02*
D03*
Y25197D02*
D03*
X249606Y155118D02*
D03*
Y145669D02*
D03*
Y136221D02*
D03*
Y126772D02*
D03*
Y117323D02*
D03*
Y98425D02*
D03*
Y88976D02*
D03*
Y79528D02*
D03*
X240158Y164567D02*
D03*
Y117323D02*
D03*
X230709D02*
D03*
X221260D02*
D03*
X211811D02*
D03*
X202362D02*
D03*
X192913Y51181D02*
D03*
X183465D02*
D03*
X164567Y41732D02*
D03*
X155118D02*
D03*
X145669D02*
D03*
X136221Y117323D02*
D03*
Y41732D02*
D03*
X126772Y155118D02*
D03*
Y41732D02*
D03*
X117323Y155118D02*
D03*
Y41732D02*
D03*
X107874Y155118D02*
D03*
Y41732D02*
D03*
X98425D02*
D03*
X88976D02*
D03*
X79528Y155118D02*
D03*
Y79528D02*
D03*
Y41732D02*
D03*
X70079Y155118D02*
D03*
Y41732D02*
D03*
X60630Y164567D02*
D03*
Y155118D02*
D03*
Y41732D02*
D03*
X51181Y155118D02*
D03*
Y145669D02*
D03*
Y136221D02*
D03*
Y126772D02*
D03*
Y117323D02*
D03*
Y107874D02*
D03*
Y98425D02*
D03*
Y88976D02*
D03*
X41732Y155118D02*
D03*
Y145669D02*
D03*
Y136221D02*
D03*
Y126772D02*
D03*
Y117323D02*
D03*
Y107874D02*
D03*
Y98425D02*
D03*
X236221Y27165D02*
D03*
Y31890D02*
D03*
X238189Y72441D02*
D03*
X238189Y67323D02*
D03*
X243307Y72441D02*
D03*
X243307Y67323D02*
D03*
X248425Y72441D02*
D03*
X248425Y67323D02*
D03*
X253543Y72441D02*
D03*
X253543Y67323D02*
D03*
X258661Y72441D02*
D03*
X258661Y67323D02*
D03*
X258661Y62205D02*
D03*
X253543Y62205D02*
D03*
X248425Y62205D02*
D03*
X243307D02*
D03*
X238189D02*
D03*
X238189Y57087D02*
D03*
X243307D02*
D03*
X248425D02*
D03*
X253543Y57087D02*
D03*
X258661Y57087D02*
D03*
X258661Y51968D02*
D03*
X253543Y51968D02*
D03*
X248425Y51968D02*
D03*
X243307D02*
D03*
X238189D02*
D03*
Y41732D02*
D03*
X238189Y46850D02*
D03*
X243307D02*
D03*
X243307Y41732D02*
D03*
X248425Y46850D02*
D03*
X248425Y41732D02*
D03*
X253543Y46850D02*
D03*
X253543Y41732D02*
D03*
X258661Y46850D02*
D03*
X258661Y41732D02*
D03*
X194488Y95669D02*
D03*
X177953D02*
D03*
X62205Y37795D02*
D03*
X71653D02*
D03*
X66929D02*
D03*
X75197Y24803D02*
D03*
Y34252D02*
D03*
Y29528D02*
D03*
X165748D02*
D03*
Y34252D02*
D03*
Y24803D02*
D03*
X157480Y37795D02*
D03*
X162205D02*
D03*
X152756D02*
D03*
X220472Y31890D02*
D03*
Y27165D02*
D03*
Y169685D02*
D03*
Y164961D02*
D03*
X225984Y159449D02*
D03*
X230709D02*
D03*
X236221Y169685D02*
D03*
Y164961D02*
D03*
X180709Y159449D02*
D03*
X185433D02*
D03*
X190945Y169685D02*
D03*
Y164961D02*
D03*
X163386Y151969D02*
D03*
X168504D02*
D03*
X173622D02*
D03*
X217717Y153150D02*
D03*
X212598D02*
D03*
X100394Y164961D02*
D03*
Y169685D02*
D03*
X94882Y159449D02*
D03*
X90158D02*
D03*
X84646Y164961D02*
D03*
Y169685D02*
D03*
X55118Y169685D02*
D03*
Y164961D02*
D03*
X49606Y159449D02*
D03*
X44882D02*
D03*
X200000Y37402D02*
D03*
X205118D02*
D03*
X210236Y37402D02*
D03*
X194882Y37402D02*
D03*
X114567D02*
D03*
X109843D02*
D03*
X185433D02*
D03*
X180709D02*
D03*
X225984D02*
D03*
X230709D02*
D03*
X227165Y45669D02*
D03*
X219291D02*
D03*
X211417D02*
D03*
X181890Y153150D02*
D03*
X187008D02*
D03*
X192126D02*
D03*
X197244D02*
D03*
X202362D02*
D03*
X207480D02*
D03*
X222835D02*
D03*
X227953D02*
D03*
X192126Y58661D02*
D03*
X188189Y57087D02*
D03*
X181890Y148425D02*
D03*
X233071D02*
D03*
Y153150D02*
D03*
X227953Y148425D02*
D03*
X222835D02*
D03*
X217717D02*
D03*
X202362D02*
D03*
X207480D02*
D03*
X212598D02*
D03*
X197244D02*
D03*
X192126D02*
D03*
X187008D02*
D03*
X173622Y142520D02*
D03*
Y137795D02*
D03*
Y133071D02*
D03*
X173622Y147244D02*
D03*
X168504D02*
D03*
X168504Y133071D02*
D03*
Y137795D02*
D03*
Y142520D02*
D03*
X163386Y147244D02*
D03*
X163386Y133071D02*
D03*
Y137795D02*
D03*
Y142520D02*
D03*
X101969Y122047D02*
D03*
X105905D02*
D03*
X109843D02*
D03*
Y125984D02*
D03*
Y129921D02*
D03*
Y118110D02*
D03*
X101969Y125984D02*
D03*
Y129921D02*
D03*
Y118110D02*
D03*
X105905Y129921D02*
D03*
Y118110D02*
D03*
Y125984D02*
D03*
X142520Y159055D02*
D03*
X129528Y172047D02*
D03*
X133071Y159055D02*
D03*
X129528Y162598D02*
D03*
Y167323D02*
D03*
X137795Y159055D02*
D03*
X205512Y50000D02*
D03*
X257087Y108268D02*
D03*
Y103543D02*
D03*
X252362Y108268D02*
D03*
Y103543D02*
D03*
X257087Y112992D02*
D03*
X252362D02*
D03*
X192126Y90158D02*
D03*
Y82284D02*
D03*
Y74410D02*
D03*
Y66535D02*
D03*
X188189Y86614D02*
D03*
Y76772D02*
D03*
Y66929D02*
D03*
X72441Y79921D02*
D03*
X42913Y83858D02*
D03*
X61417Y79921D02*
D03*
X38189Y83858D02*
D03*
X42913Y93307D02*
D03*
Y88583D02*
D03*
X38189Y93307D02*
D03*
Y88583D02*
D03*
D60*
X139764Y118110D02*
D03*
X233071Y62598D02*
D03*
X195974Y118199D02*
D03*
X81102Y129134D02*
D03*
X129921Y71260D02*
D03*
Y78740D02*
D03*
X72441Y145669D02*
D03*
X143307Y72835D02*
D03*
X128740Y112598D02*
D03*
X125984Y115354D02*
D03*
X178740Y107480D02*
D03*
Y103150D02*
D03*
M02*
