G04*
G04 #@! TF.GenerationSoftware,Altium Limited,Altium Designer,21.3.2 (30)*
G04*
G04 Layer_Physical_Order=1*
G04 Layer_Color=255*
%FSLAX25Y25*%
%MOIN*%
G70*
G04*
G04 #@! TF.SameCoordinates,176562F1-B387-4AA2-8F74-3CF4574A4688*
G04*
G04*
G04 #@! TF.FilePolarity,Positive*
G04*
G01*
G75*
%ADD15C,0.01200*%
G04:AMPARAMS|DCode=29|XSize=47.24mil|YSize=51.18mil|CornerRadius=3.54mil|HoleSize=0mil|Usage=FLASHONLY|Rotation=0.000|XOffset=0mil|YOffset=0mil|HoleType=Round|Shape=RoundedRectangle|*
%AMROUNDEDRECTD29*
21,1,0.04724,0.04409,0,0,0.0*
21,1,0.04016,0.05118,0,0,0.0*
1,1,0.00709,0.02008,-0.02205*
1,1,0.00709,-0.02008,-0.02205*
1,1,0.00709,-0.02008,0.02205*
1,1,0.00709,0.02008,0.02205*
%
%ADD29ROUNDEDRECTD29*%
G04:AMPARAMS|DCode=30|XSize=96.46mil|YSize=104.33mil|CornerRadius=7.23mil|HoleSize=0mil|Usage=FLASHONLY|Rotation=180.000|XOffset=0mil|YOffset=0mil|HoleType=Round|Shape=RoundedRectangle|*
%AMROUNDEDRECTD30*
21,1,0.09646,0.08986,0,0,180.0*
21,1,0.08199,0.10433,0,0,180.0*
1,1,0.01447,-0.04099,0.04493*
1,1,0.01447,0.04099,0.04493*
1,1,0.01447,0.04099,-0.04493*
1,1,0.01447,-0.04099,-0.04493*
%
%ADD30ROUNDEDRECTD30*%
G04:AMPARAMS|DCode=31|XSize=47.24mil|YSize=51.18mil|CornerRadius=3.54mil|HoleSize=0mil|Usage=FLASHONLY|Rotation=90.000|XOffset=0mil|YOffset=0mil|HoleType=Round|Shape=RoundedRectangle|*
%AMROUNDEDRECTD31*
21,1,0.04724,0.04409,0,0,90.0*
21,1,0.04016,0.05118,0,0,90.0*
1,1,0.00709,0.02205,0.02008*
1,1,0.00709,0.02205,-0.02008*
1,1,0.00709,-0.02205,-0.02008*
1,1,0.00709,-0.02205,0.02008*
%
%ADD31ROUNDEDRECTD31*%
G04:AMPARAMS|DCode=32|XSize=53.15mil|YSize=61.02mil|CornerRadius=3.99mil|HoleSize=0mil|Usage=FLASHONLY|Rotation=180.000|XOffset=0mil|YOffset=0mil|HoleType=Round|Shape=RoundedRectangle|*
%AMROUNDEDRECTD32*
21,1,0.05315,0.05305,0,0,180.0*
21,1,0.04518,0.06102,0,0,180.0*
1,1,0.00797,-0.02259,0.02653*
1,1,0.00797,0.02259,0.02653*
1,1,0.00797,0.02259,-0.02653*
1,1,0.00797,-0.02259,-0.02653*
%
%ADD32ROUNDEDRECTD32*%
G04:AMPARAMS|DCode=33|XSize=53.15mil|YSize=61.02mil|CornerRadius=3.99mil|HoleSize=0mil|Usage=FLASHONLY|Rotation=90.000|XOffset=0mil|YOffset=0mil|HoleType=Round|Shape=RoundedRectangle|*
%AMROUNDEDRECTD33*
21,1,0.05315,0.05305,0,0,90.0*
21,1,0.04518,0.06102,0,0,90.0*
1,1,0.00797,0.02653,0.02259*
1,1,0.00797,0.02653,-0.02259*
1,1,0.00797,-0.02653,-0.02259*
1,1,0.00797,-0.02653,0.02259*
%
%ADD33ROUNDEDRECTD33*%
G04:AMPARAMS|DCode=34|XSize=15.75mil|YSize=33.47mil|CornerRadius=1.97mil|HoleSize=0mil|Usage=FLASHONLY|Rotation=180.000|XOffset=0mil|YOffset=0mil|HoleType=Round|Shape=RoundedRectangle|*
%AMROUNDEDRECTD34*
21,1,0.01575,0.02953,0,0,180.0*
21,1,0.01181,0.03347,0,0,180.0*
1,1,0.00394,-0.00591,0.01476*
1,1,0.00394,0.00591,0.01476*
1,1,0.00394,0.00591,-0.01476*
1,1,0.00394,-0.00591,-0.01476*
%
%ADD34ROUNDEDRECTD34*%
G04:AMPARAMS|DCode=35|XSize=29.53mil|YSize=39.37mil|CornerRadius=2.22mil|HoleSize=0mil|Usage=FLASHONLY|Rotation=180.000|XOffset=0mil|YOffset=0mil|HoleType=Round|Shape=RoundedRectangle|*
%AMROUNDEDRECTD35*
21,1,0.02953,0.03494,0,0,180.0*
21,1,0.02510,0.03937,0,0,180.0*
1,1,0.00443,-0.01255,0.01747*
1,1,0.00443,0.01255,0.01747*
1,1,0.00443,0.01255,-0.01747*
1,1,0.00443,-0.01255,-0.01747*
%
%ADD35ROUNDEDRECTD35*%
G04:AMPARAMS|DCode=36|XSize=29.53mil|YSize=39.37mil|CornerRadius=2.22mil|HoleSize=0mil|Usage=FLASHONLY|Rotation=90.000|XOffset=0mil|YOffset=0mil|HoleType=Round|Shape=RoundedRectangle|*
%AMROUNDEDRECTD36*
21,1,0.02953,0.03494,0,0,90.0*
21,1,0.02510,0.03937,0,0,90.0*
1,1,0.00443,0.01747,0.01255*
1,1,0.00443,0.01747,-0.01255*
1,1,0.00443,-0.01747,-0.01255*
1,1,0.00443,-0.01747,0.01255*
%
%ADD36ROUNDEDRECTD36*%
%ADD37C,0.02000*%
%ADD38C,0.05000*%
%ADD39C,0.02500*%
%ADD40C,0.04000*%
%ADD41C,0.20000*%
%ADD42C,0.16000*%
%ADD43C,0.07874*%
%ADD44C,0.12795*%
%ADD45C,0.11811*%
%ADD46C,0.02400*%
%ADD47C,0.05000*%
G36*
X157500Y257500D02*
Y239450D01*
X157093Y239303D01*
X157000Y239285D01*
X156777Y239435D01*
X156495Y239491D01*
X153001D01*
X152752Y239441D01*
X152730Y239445D01*
X152602Y239357D01*
X152458Y239298D01*
X152437Y239248D01*
X152419Y239233D01*
X152391Y239214D01*
X152368Y239202D01*
X152275Y239169D01*
X152130Y239134D01*
X151950Y239105D01*
X151114Y239045D01*
X150768Y239041D01*
X150741Y239029D01*
X147094D01*
X147068Y239041D01*
X146702Y239051D01*
X146397Y239077D01*
X146142Y239120D01*
X145939Y239174D01*
X145789Y239235D01*
X145691Y239294D01*
X145637Y239344D01*
X145609Y239385D01*
X145593Y239431D01*
X145580Y239557D01*
X145558Y239597D01*
X145510Y239841D01*
X145321Y240124D01*
X145038Y240313D01*
X144705Y240379D01*
X143765D01*
X143757Y240383D01*
X143739Y240385D01*
X143735Y240391D01*
X143710Y240453D01*
X143684Y240553D01*
X143661Y240688D01*
X143647Y240857D01*
X143641Y241071D01*
X143622Y241115D01*
Y242500D01*
X143536Y242929D01*
X143293Y243293D01*
X143293Y243293D01*
X136364Y250222D01*
X136000Y250465D01*
X135571Y250551D01*
X135571Y250551D01*
X129607D01*
X129564Y250570D01*
X129350Y250576D01*
X129181Y250590D01*
X129046Y250613D01*
X128946Y250639D01*
X128884Y250664D01*
X128878Y250668D01*
X128876Y250686D01*
X128860Y250715D01*
Y250905D01*
X128806Y251177D01*
X128652Y251408D01*
X128421Y251562D01*
X128150Y251616D01*
X126969D01*
X126697Y251562D01*
X126682Y251552D01*
X126249Y251749D01*
X126186Y252249D01*
X128293Y254356D01*
X128293Y254356D01*
X128536Y254720D01*
X128622Y255149D01*
Y255695D01*
X128641Y255739D01*
X128647Y255953D01*
X128661Y256122D01*
X128684Y256257D01*
X128710Y256357D01*
X128735Y256419D01*
X128739Y256425D01*
X128757Y256427D01*
X128765Y256431D01*
X129759D01*
X130110Y256501D01*
X130407Y256700D01*
X130605Y256997D01*
X130675Y257347D01*
Y262653D01*
X130605Y263003D01*
X130407Y263300D01*
X130381Y263318D01*
X130376Y263329D01*
X130344Y263342D01*
X130110Y263499D01*
X129759Y263569D01*
X129748D01*
X129721Y263588D01*
X129638Y263682D01*
X129549Y263833D01*
X129465Y264049D01*
X129392Y264331D01*
X129337Y264676D01*
X129303Y265082D01*
X129291Y265560D01*
X129284Y265576D01*
Y267500D01*
X129148Y268183D01*
X128762Y268762D01*
X128183Y269148D01*
X127500Y269284D01*
X126817Y269148D01*
X126238Y268762D01*
X125852Y268183D01*
X125716Y267500D01*
Y265576D01*
X125709Y265560D01*
X125697Y265082D01*
X125663Y264676D01*
X125608Y264331D01*
X125535Y264049D01*
X125451Y263833D01*
X125362Y263682D01*
X125279Y263588D01*
X125251Y263569D01*
X125241D01*
X124890Y263499D01*
X124656Y263342D01*
X124624Y263329D01*
X124619Y263318D01*
X124593Y263300D01*
X124395Y263003D01*
X124325Y262653D01*
Y257347D01*
X124395Y256997D01*
X124593Y256700D01*
X124890Y256501D01*
X125241Y256431D01*
X126235D01*
X126243Y256427D01*
X126261Y256425D01*
X126265Y256419D01*
X126290Y256357D01*
X126316Y256257D01*
X126339Y256122D01*
X126353Y255953D01*
X126359Y255739D01*
X126378Y255695D01*
Y255613D01*
X124207Y253442D01*
X123964Y253078D01*
X123878Y252649D01*
X123878Y252649D01*
Y252357D01*
X123859Y252312D01*
X123856Y252155D01*
X123527Y251921D01*
X123350Y251858D01*
X123191Y251890D01*
Y249429D01*
Y246968D01*
X123420Y247014D01*
X123750Y247234D01*
X124138Y247296D01*
X124409Y247242D01*
X125591D01*
X125862Y247296D01*
X126093Y247450D01*
X126466D01*
X126697Y247296D01*
X126969Y247242D01*
X128150D01*
X128421Y247296D01*
X128652Y247450D01*
X128806Y247681D01*
X128860Y247953D01*
Y248143D01*
X128876Y248172D01*
X128878Y248190D01*
X128884Y248194D01*
X128946Y248219D01*
X129046Y248245D01*
X129181Y248268D01*
X129350Y248283D01*
X129564Y248288D01*
X129607Y248308D01*
X135106D01*
X141378Y242035D01*
Y241115D01*
X141359Y241071D01*
X141353Y240857D01*
X141339Y240688D01*
X141316Y240553D01*
X141290Y240453D01*
X141265Y240391D01*
X141261Y240385D01*
X141243Y240383D01*
X141235Y240379D01*
X140295D01*
X139962Y240313D01*
X139679Y240124D01*
X139490Y239841D01*
X139424Y239508D01*
Y235492D01*
X139490Y235159D01*
X139679Y234876D01*
X139962Y234687D01*
X140295Y234621D01*
X144705D01*
X145038Y234687D01*
X145321Y234876D01*
X145510Y235159D01*
X145558Y235403D01*
X145580Y235443D01*
X145593Y235569D01*
X145609Y235615D01*
X145637Y235656D01*
X145691Y235706D01*
X145789Y235765D01*
X145939Y235826D01*
X146142Y235880D01*
X146397Y235923D01*
X146702Y235949D01*
X147068Y235959D01*
X147094Y235971D01*
X150741D01*
X150768Y235959D01*
X151118Y235955D01*
X151711Y235923D01*
X151939Y235897D01*
X152130Y235866D01*
X152275Y235831D01*
X152368Y235798D01*
X152391Y235786D01*
X152419Y235767D01*
X152437Y235752D01*
X152458Y235702D01*
X152602Y235643D01*
X152730Y235555D01*
X152752Y235559D01*
X153001Y235509D01*
X156495D01*
X156777Y235565D01*
X157000Y235715D01*
X157093Y235697D01*
X157500Y235550D01*
Y232433D01*
X157000Y232166D01*
X156894Y232237D01*
X156495Y232316D01*
X155498D01*
Y230020D01*
Y227723D01*
X156495D01*
X156894Y227803D01*
X157000Y227874D01*
X157500Y227606D01*
Y205000D01*
X150000Y197500D01*
X125000D01*
X117029Y205471D01*
X117236Y205971D01*
X117500D01*
X118085Y206087D01*
X118581Y206419D01*
X124258Y212095D01*
X125237D01*
X125263Y212083D01*
X125571Y212074D01*
X125833Y212051D01*
X126062Y212012D01*
X126258Y211962D01*
X126421Y211901D01*
X126552Y211834D01*
X126655Y211761D01*
X126734Y211685D01*
X126795Y211602D01*
X126863Y211470D01*
X126929Y211414D01*
X126962Y211334D01*
X127012Y211313D01*
X127027Y211295D01*
X127046Y211267D01*
X127058Y211244D01*
X127091Y211151D01*
X127125Y211006D01*
X127155Y210826D01*
X127215Y209990D01*
X127219Y209644D01*
X127230Y209616D01*
Y207094D01*
X127219Y207068D01*
X127209Y206702D01*
X127182Y206397D01*
X127140Y206142D01*
X127086Y205939D01*
X127025Y205789D01*
X126965Y205691D01*
X126915Y205637D01*
X126875Y205609D01*
X126829Y205593D01*
X126703Y205580D01*
X126663Y205558D01*
X126419Y205509D01*
X126136Y205321D01*
X125947Y205038D01*
X125881Y204705D01*
Y200295D01*
X125947Y199962D01*
X126136Y199679D01*
X126419Y199490D01*
X126752Y199424D01*
X130768D01*
X131101Y199490D01*
X131384Y199679D01*
X131572Y199962D01*
X131639Y200295D01*
Y204705D01*
X131572Y205038D01*
X131384Y205321D01*
X131101Y205509D01*
X130857Y205558D01*
X130817Y205580D01*
X130691Y205593D01*
X130645Y205609D01*
X130604Y205637D01*
X130554Y205691D01*
X130495Y205789D01*
X130434Y205939D01*
X130379Y206142D01*
X130337Y206397D01*
X130310Y206702D01*
X130301Y207068D01*
X130289Y207094D01*
Y209616D01*
X130301Y209644D01*
X130305Y209994D01*
X130337Y210587D01*
X130362Y210816D01*
X130394Y211006D01*
X130429Y211151D01*
X130462Y211244D01*
X130473Y211267D01*
X130493Y211295D01*
X130508Y211313D01*
X130558Y211334D01*
X130617Y211478D01*
X130705Y211606D01*
X130701Y211628D01*
X130750Y211877D01*
Y215371D01*
X130694Y215653D01*
X130535Y215891D01*
X130296Y216051D01*
X130015Y216107D01*
X127505D01*
X127223Y216051D01*
X127213Y216044D01*
X127179Y216047D01*
X127081Y215963D01*
X126962Y215914D01*
X126929Y215834D01*
X126863Y215778D01*
X126795Y215646D01*
X126734Y215563D01*
X126655Y215487D01*
X126552Y215415D01*
X126421Y215347D01*
X126258Y215286D01*
X126062Y215236D01*
X125833Y215197D01*
X125571Y215174D01*
X125263Y215165D01*
X125237Y215153D01*
X123624D01*
X123039Y215037D01*
X122543Y214705D01*
X116876Y209039D01*
X116871Y209041D01*
X116506Y209051D01*
X116200Y209077D01*
X115945Y209120D01*
X115742Y209174D01*
X115592Y209235D01*
X115494Y209294D01*
X115440Y209344D01*
X115413Y209385D01*
X115396Y209431D01*
X115383Y209557D01*
X115379Y209565D01*
Y209705D01*
X115313Y210038D01*
X115124Y210321D01*
X114841Y210509D01*
X114508Y210576D01*
X111924D01*
X106607Y215893D01*
Y216922D01*
X106614Y216937D01*
X106624Y217285D01*
X106653Y217590D01*
X106701Y217868D01*
X106765Y218118D01*
X106845Y218341D01*
X106940Y218539D01*
X107049Y218713D01*
X107172Y218866D01*
X107310Y219000D01*
X107491Y219138D01*
X107513Y219176D01*
X107554Y219194D01*
X107589Y219284D01*
X107731Y219497D01*
X107801Y219847D01*
Y225153D01*
X107731Y225503D01*
X107533Y225800D01*
X107236Y225999D01*
X106885Y226069D01*
X102367D01*
X102016Y225999D01*
X101719Y225800D01*
X101521Y225503D01*
X101451Y225153D01*
Y225065D01*
X101447Y225057D01*
X101428Y224883D01*
X101397Y224795D01*
X101345Y224717D01*
X101256Y224634D01*
X101113Y224547D01*
X100908Y224464D01*
X100639Y224392D01*
X100309Y224337D01*
X99919Y224303D01*
X99459Y224291D01*
X99444Y224284D01*
X98216D01*
X87500Y235000D01*
X57500Y235000D01*
X50000Y242500D01*
Y282500D01*
X54046Y286546D01*
X57657Y290157D01*
X58263Y290056D01*
X58590Y289631D01*
X67880Y280341D01*
X68507Y279860D01*
X69236Y279557D01*
X70020Y279454D01*
X90000D01*
X90783Y279557D01*
X90889Y279601D01*
X92205D01*
X92538Y279668D01*
X92821Y279856D01*
X93010Y280139D01*
X93076Y280472D01*
Y284488D01*
X93010Y284822D01*
X92821Y285104D01*
X92538Y285293D01*
X92205Y285359D01*
X90889D01*
X90783Y285403D01*
X90000Y285506D01*
X71273D01*
X66241Y290538D01*
X66433Y291000D01*
X86125Y291000D01*
Y289867D01*
X86218Y289399D01*
X86483Y289003D01*
X86880Y288738D01*
X87347Y288645D01*
X88424D01*
X88454Y288256D01*
X88459Y287991D01*
X88484Y287933D01*
X88587Y287415D01*
X88919Y286919D01*
X89415Y286587D01*
X90000Y286471D01*
X90585Y286587D01*
X91081Y286919D01*
X91413Y287415D01*
X91514Y287922D01*
X91541Y287981D01*
X91559Y288496D01*
X91575Y288645D01*
X92653D01*
X93120Y288738D01*
X93517Y289003D01*
X93782Y289399D01*
X93875Y289867D01*
Y291000D01*
X95466D01*
X106261D01*
X106452Y290538D01*
X104207Y288293D01*
X103964Y287929D01*
X103878Y287500D01*
X103878Y287500D01*
Y287108D01*
X103859Y287064D01*
X103853Y286850D01*
X103839Y286681D01*
X103816Y286546D01*
X103790Y286446D01*
X103765Y286384D01*
X103761Y286378D01*
X103743Y286376D01*
X103691Y286348D01*
X103464Y286303D01*
X103225Y286143D01*
X103066Y285905D01*
X103009Y285623D01*
Y282129D01*
X103066Y281847D01*
X103225Y281609D01*
X103464Y281449D01*
X103745Y281393D01*
X106255D01*
X106536Y281449D01*
X106775Y281609D01*
X106934Y281847D01*
X106991Y282129D01*
Y282587D01*
X107008Y282619D01*
X107010Y282637D01*
X107016Y282641D01*
X107078Y282666D01*
X107177Y282692D01*
X107313Y282715D01*
X107482Y282729D01*
X107696Y282735D01*
X107739Y282754D01*
X110659D01*
X113878Y279535D01*
Y256822D01*
X113859Y256780D01*
X113850Y256549D01*
X113842Y256470D01*
X113830Y256399D01*
X113817Y256340D01*
X113803Y256295D01*
X113791Y256265D01*
X113781Y256247D01*
X113778Y256241D01*
X113755Y256216D01*
X113725Y256129D01*
X113559Y255963D01*
X113300Y255338D01*
Y254662D01*
X113559Y254037D01*
X114037Y253559D01*
X114662Y253300D01*
X115338D01*
X115963Y253559D01*
X116441Y254037D01*
X116700Y254662D01*
Y255338D01*
X116441Y255963D01*
X116275Y256129D01*
X116245Y256216D01*
X116222Y256241D01*
X116218Y256247D01*
X116209Y256265D01*
X116197Y256295D01*
X116183Y256340D01*
X116170Y256399D01*
X116159Y256464D01*
X116143Y256657D01*
X116141Y256769D01*
X116122Y256814D01*
Y280000D01*
X116036Y280429D01*
X115793Y280793D01*
X115793Y280793D01*
X111917Y284669D01*
X111553Y284912D01*
X111124Y284998D01*
X111124Y284998D01*
X107739D01*
X107696Y285017D01*
X107482Y285023D01*
X107313Y285037D01*
X107177Y285060D01*
X107078Y285086D01*
X107016Y285111D01*
X107010Y285115D01*
X107008Y285133D01*
X106991Y285165D01*
Y285623D01*
X106934Y285905D01*
X106775Y286143D01*
X106536Y286303D01*
X106309Y286348D01*
X106257Y286376D01*
X106239Y286378D01*
X106235Y286384D01*
X106210Y286446D01*
X106184Y286546D01*
X106161Y286681D01*
X106147Y286850D01*
X106141Y287055D01*
X110086Y291000D01*
X124000Y291000D01*
X157500Y257500D01*
D02*
G37*
G36*
X143106Y240827D02*
X143124Y240621D01*
X143154Y240439D01*
X143196Y240281D01*
X143250Y240148D01*
X143316Y240039D01*
X143394Y239954D01*
X143484Y239893D01*
X143586Y239857D01*
X143700Y239845D01*
X143123D01*
X143208Y238207D01*
X141793D01*
X141813Y238247D01*
X141831Y238325D01*
X141847Y238440D01*
X141873Y238784D01*
X141892Y239845D01*
X141300D01*
X141414Y239857D01*
X141516Y239893D01*
X141606Y239954D01*
X141684Y240039D01*
X141750Y240148D01*
X141804Y240281D01*
X141846Y240439D01*
X141876Y240621D01*
X141894Y240827D01*
X141900Y241057D01*
X143100D01*
X143106Y240827D01*
D02*
G37*
G36*
X152841Y236085D02*
X152789Y236164D01*
X152703Y236234D01*
X152583Y236297D01*
X152427Y236350D01*
X152238Y236396D01*
X152014Y236434D01*
X151756Y236463D01*
X151136Y236496D01*
X150774Y236500D01*
Y238500D01*
X151136Y238504D01*
X152014Y238566D01*
X152238Y238604D01*
X152427Y238650D01*
X152583Y238703D01*
X152703Y238766D01*
X152789Y238836D01*
X152841Y238915D01*
Y236085D01*
D02*
G37*
G36*
X145062Y239310D02*
X145122Y239140D01*
X145223Y238990D01*
X145364Y238860D01*
X145545Y238750D01*
X145766Y238660D01*
X146028Y238590D01*
X146329Y238540D01*
X146671Y238510D01*
X147054Y238500D01*
Y236500D01*
X146671Y236490D01*
X146329Y236460D01*
X146028Y236410D01*
X145766Y236340D01*
X145545Y236250D01*
X145364Y236140D01*
X145223Y236010D01*
X145122Y235860D01*
X145062Y235690D01*
X145042Y235500D01*
Y239500D01*
X145062Y239310D01*
D02*
G37*
G36*
X101985Y220000D02*
X101960Y220237D01*
X101884Y220450D01*
X101759Y220637D01*
X101583Y220800D01*
X101357Y220937D01*
X101081Y221050D01*
X100754Y221137D01*
X100377Y221200D01*
X99950Y221237D01*
X99473Y221250D01*
Y223750D01*
X99950Y223762D01*
X100377Y223800D01*
X100754Y223863D01*
X101081Y223950D01*
X101357Y224062D01*
X101583Y224200D01*
X101759Y224362D01*
X101884Y224550D01*
X101960Y224763D01*
X101985Y225000D01*
Y220000D01*
D02*
G37*
G36*
X106956Y219411D02*
X106771Y219231D01*
X106607Y219027D01*
X106465Y218800D01*
X106345Y218550D01*
X106247Y218277D01*
X106171Y217981D01*
X106116Y217662D01*
X106084Y217319D01*
X106073Y216953D01*
X103573D01*
X103560Y217437D01*
X103523Y217868D01*
X103461Y218249D01*
X103373Y218578D01*
X103261Y218856D01*
X103124Y219082D01*
X102962Y219257D01*
X102774Y219381D01*
X102562Y219453D01*
X102325Y219474D01*
X107164Y219569D01*
X106956Y219411D01*
D02*
G37*
G36*
X106085Y212204D02*
X106121Y211874D01*
X106181Y211564D01*
X106265Y211274D01*
X106373Y211003D01*
X106505Y210753D01*
X106662Y210523D01*
X106842Y210313D01*
X107046Y210122D01*
X107274Y209951D01*
X102765D01*
X102919Y210075D01*
X103056Y210228D01*
X103177Y210412D01*
X103282Y210627D01*
X103371Y210872D01*
X103444Y211147D01*
X103500Y211453D01*
X103541Y211790D01*
X103565Y212157D01*
X103573Y212554D01*
X106073D01*
X106085Y212204D01*
D02*
G37*
G36*
X127345Y211717D02*
X130175D01*
X130096Y211665D01*
X130026Y211579D01*
X129963Y211458D01*
X129909Y211303D01*
X129864Y211114D01*
X129826Y210890D01*
X129797Y210632D01*
X129764Y210012D01*
X129760Y209650D01*
X127760D01*
X127756Y210012D01*
X127693Y210890D01*
X127656Y211114D01*
X127610Y211303D01*
X127556Y211458D01*
X127494Y211579D01*
X127424Y211665D01*
X127345Y211717D01*
X127256Y211889D01*
X127142Y212043D01*
X127001Y212179D01*
X126834Y212297D01*
X126640Y212397D01*
X126420Y212479D01*
X126174Y212542D01*
X125902Y212588D01*
X125603Y212615D01*
X125278Y212624D01*
Y214624D01*
X125603Y214633D01*
X125902Y214660D01*
X126174Y214706D01*
X126420Y214769D01*
X126640Y214851D01*
X126834Y214951D01*
X127001Y215069D01*
X127142Y215205D01*
X127256Y215359D01*
X127345Y215531D01*
Y211717D01*
D02*
G37*
G36*
X114865Y209310D02*
X114925Y209140D01*
X115026Y208990D01*
X115167Y208860D01*
X115348Y208750D01*
X115569Y208660D01*
X115831Y208590D01*
X116133Y208540D01*
X116475Y208510D01*
X116857Y208500D01*
Y206500D01*
X116475Y206490D01*
X116133Y206460D01*
X115831Y206410D01*
X115569Y206340D01*
X115348Y206250D01*
X115167Y206140D01*
X115026Y206010D01*
X114925Y205860D01*
X114865Y205690D01*
X114845Y205500D01*
Y209500D01*
X114865Y209310D01*
D02*
G37*
G36*
X219271Y203235D02*
X216319Y200396D01*
X213429Y205089D01*
X213540Y205082D01*
X213675Y205110D01*
X213832Y205173D01*
X214012Y205272D01*
X214215Y205407D01*
X214441Y205576D01*
X214962Y206022D01*
X215573Y206609D01*
X219271Y203235D01*
D02*
G37*
G36*
X129770Y206672D02*
X129800Y206329D01*
X129850Y206028D01*
X129920Y205766D01*
X130010Y205545D01*
X130120Y205364D01*
X130250Y205223D01*
X130400Y205122D01*
X130570Y205062D01*
X130760Y205042D01*
X126760D01*
X126950Y205062D01*
X127120Y205122D01*
X127270Y205223D01*
X127400Y205364D01*
X127510Y205545D01*
X127600Y205766D01*
X127670Y206028D01*
X127720Y206329D01*
X127750Y206672D01*
X127760Y207054D01*
X129760D01*
X129770Y206672D01*
D02*
G37*
G36*
X215188Y198385D02*
X215144Y198272D01*
X215106Y198117D01*
X215072Y197921D01*
X215021Y197403D01*
X214990Y196717D01*
X214980Y195864D01*
X209980D01*
X209978Y196311D01*
X209855Y198117D01*
X209817Y198272D01*
X209773Y198385D01*
X209724Y198456D01*
X215236D01*
X215188Y198385D01*
D02*
G37*
%LPC*%
G36*
X109995Y278912D02*
X109490D01*
Y276874D01*
X111037D01*
Y277871D01*
X110957Y278270D01*
X110731Y278608D01*
X110394Y278833D01*
X109995Y278912D01*
D02*
G37*
G36*
X107990D02*
X107485D01*
X107087Y278833D01*
X106749Y278608D01*
X106523Y278270D01*
X106444Y277871D01*
Y276874D01*
X107990D01*
Y278912D01*
D02*
G37*
G36*
X60631Y281405D02*
X59369D01*
X58132Y281159D01*
X56966Y280677D01*
X55917Y279976D01*
X55024Y279083D01*
X54324Y278034D01*
X53841Y276868D01*
X53594Y275631D01*
Y274369D01*
X53841Y273132D01*
X54324Y271966D01*
X55024Y270917D01*
X55917Y270024D01*
X56966Y269323D01*
X58132Y268841D01*
X59369Y268595D01*
X60631D01*
X61868Y268841D01*
X63034Y269323D01*
X64083Y270024D01*
X64500Y270441D01*
X64597Y270481D01*
X65190Y271065D01*
X66311Y272043D01*
X66826Y272429D01*
X67321Y272754D01*
X67788Y273015D01*
X68228Y273214D01*
X68637Y273352D01*
X69015Y273432D01*
X69379Y273458D01*
X78919Y263919D01*
X79415Y263587D01*
X80000Y263471D01*
X84913D01*
X84939Y263459D01*
X85305Y263449D01*
X85610Y263423D01*
X85865Y263380D01*
X86068Y263326D01*
X86218Y263265D01*
X86316Y263206D01*
X86370Y263156D01*
X86397Y263115D01*
X86414Y263069D01*
X86427Y262943D01*
X86431Y262935D01*
Y262741D01*
X86501Y262390D01*
X86700Y262093D01*
X86997Y261895D01*
X87347Y261825D01*
X92653D01*
X93003Y261895D01*
X93300Y262093D01*
X93499Y262390D01*
X93569Y262741D01*
Y267259D01*
X93499Y267610D01*
X93300Y267907D01*
X93003Y268105D01*
X92653Y268175D01*
X92065D01*
X92057Y268179D01*
X91931Y268193D01*
X91885Y268209D01*
X91844Y268236D01*
X91794Y268290D01*
X91735Y268388D01*
X91674Y268538D01*
X91620Y268741D01*
X91577Y268997D01*
X91551Y269302D01*
X91541Y269667D01*
X91529Y269693D01*
Y270603D01*
X91541Y270629D01*
X91551Y270994D01*
X91577Y271300D01*
X91620Y271555D01*
X91674Y271758D01*
X91735Y271908D01*
X91794Y272006D01*
X91844Y272060D01*
X91885Y272087D01*
X91931Y272104D01*
X92057Y272117D01*
X92065Y272121D01*
X92205D01*
X92538Y272187D01*
X92821Y272376D01*
X93010Y272659D01*
X93076Y272992D01*
Y273683D01*
X93081Y273694D01*
X93091Y273818D01*
X93105Y273860D01*
X93129Y273897D01*
X93180Y273944D01*
X93276Y274003D01*
X93426Y274063D01*
X93631Y274118D01*
X93889Y274160D01*
X94197Y274187D01*
X94568Y274197D01*
X94594Y274208D01*
X97743D01*
X97770Y274197D01*
X98110Y274192D01*
X98685Y274152D01*
X98903Y274121D01*
X99086Y274083D01*
X99225Y274041D01*
X99316Y274002D01*
X99358Y273975D01*
X99381Y273938D01*
X99439Y273895D01*
X99468Y273828D01*
X99600Y273776D01*
X99714Y273692D01*
X99736Y273695D01*
X100005Y273641D01*
X102515D01*
X102796Y273697D01*
X103035Y273857D01*
X103194Y274096D01*
X103250Y274377D01*
Y277871D01*
X103194Y278153D01*
X103035Y278391D01*
X102796Y278551D01*
X102515Y278607D01*
X100005D01*
X99723Y278551D01*
X99485Y278391D01*
X99325Y278153D01*
X99269Y277871D01*
Y277821D01*
X99251Y277787D01*
X99240Y277662D01*
X99225Y277618D01*
X99200Y277580D01*
X99147Y277532D01*
X99051Y277473D01*
X98901Y277412D01*
X98697Y277357D01*
X98440Y277315D01*
X98133Y277288D01*
X97764Y277279D01*
X97738Y277267D01*
X94589D01*
X94562Y277279D01*
X94239Y277284D01*
X93684Y277323D01*
X93467Y277354D01*
X93280Y277393D01*
X93130Y277436D01*
X93019Y277481D01*
X92947Y277521D01*
X92913Y277548D01*
X92865Y277605D01*
X92837Y277619D01*
X92824Y277647D01*
X92734Y277682D01*
X92538Y277813D01*
X92205Y277879D01*
X87795D01*
X87462Y277813D01*
X87179Y277624D01*
X86990Y277341D01*
X86924Y277008D01*
Y272992D01*
X86990Y272659D01*
X87179Y272376D01*
X87462Y272187D01*
X87795Y272121D01*
X87935D01*
X87943Y272117D01*
X88069Y272104D01*
X88115Y272087D01*
X88156Y272060D01*
X88206Y272006D01*
X88265Y271908D01*
X88326Y271758D01*
X88380Y271555D01*
X88423Y271300D01*
X88449Y270994D01*
X88459Y270629D01*
X88471Y270603D01*
Y269693D01*
X88459Y269667D01*
X88449Y269302D01*
X88423Y268997D01*
X88380Y268741D01*
X88326Y268538D01*
X88265Y268388D01*
X88206Y268290D01*
X88156Y268236D01*
X88115Y268209D01*
X88069Y268193D01*
X87943Y268179D01*
X87935Y268175D01*
X87347D01*
X86997Y268105D01*
X86700Y267907D01*
X86501Y267610D01*
X86431Y267259D01*
Y267065D01*
X86427Y267057D01*
X86414Y266931D01*
X86397Y266885D01*
X86370Y266844D01*
X86316Y266794D01*
X86218Y266735D01*
X86068Y266674D01*
X85865Y266620D01*
X85610Y266577D01*
X85305Y266551D01*
X84939Y266541D01*
X84913Y266529D01*
X80633D01*
X71081Y276081D01*
X70585Y276413D01*
X70000Y276529D01*
X69424D01*
X69403Y276540D01*
X69015Y276568D01*
X68637Y276648D01*
X68228Y276786D01*
X67788Y276985D01*
X67321Y277246D01*
X66826Y277571D01*
X66311Y277957D01*
X65190Y278935D01*
X64597Y279519D01*
X64500Y279559D01*
X64083Y279976D01*
X63034Y280677D01*
X61868Y281159D01*
X60631Y281405D01*
D02*
G37*
G36*
X111037Y275374D02*
X109490D01*
Y273336D01*
X109995D01*
X110394Y273415D01*
X110731Y273640D01*
X110957Y273978D01*
X111037Y274377D01*
Y275374D01*
D02*
G37*
G36*
X107990D02*
X106444D01*
Y274377D01*
X106523Y273978D01*
X106749Y273640D01*
X107087Y273415D01*
X107485Y273336D01*
X107990D01*
Y275374D01*
D02*
G37*
G36*
X137633Y263875D02*
X136124D01*
Y260750D01*
X138855D01*
Y262653D01*
X138762Y263120D01*
X138497Y263517D01*
X138101Y263782D01*
X137633Y263875D01*
D02*
G37*
G36*
X134624D02*
X133115D01*
X132648Y263782D01*
X132251Y263517D01*
X131986Y263120D01*
X131893Y262653D01*
Y260750D01*
X134624D01*
Y263875D01*
D02*
G37*
G36*
X92653Y260607D02*
X90750D01*
Y257876D01*
X93875D01*
Y259385D01*
X93782Y259853D01*
X93517Y260249D01*
X93120Y260514D01*
X92653Y260607D01*
D02*
G37*
G36*
X89250D02*
X87347D01*
X86880Y260514D01*
X86483Y260249D01*
X86218Y259853D01*
X86125Y259385D01*
Y257876D01*
X89250D01*
Y260607D01*
D02*
G37*
G36*
X138855Y259250D02*
X136124D01*
Y256125D01*
X137633D01*
X138101Y256218D01*
X138497Y256483D01*
X138762Y256880D01*
X138855Y257347D01*
Y259250D01*
D02*
G37*
G36*
X134624D02*
X131893D01*
Y257347D01*
X131986Y256880D01*
X132251Y256483D01*
X132648Y256218D01*
X133115Y256125D01*
X134624D01*
Y259250D01*
D02*
G37*
G36*
X93875Y256376D02*
X90750D01*
Y253645D01*
X92653D01*
X93120Y253738D01*
X93517Y254003D01*
X93782Y254399D01*
X93875Y254867D01*
Y256376D01*
D02*
G37*
G36*
X89250D02*
X86125D01*
Y254867D01*
X86218Y254399D01*
X86483Y254003D01*
X86880Y253738D01*
X87347Y253645D01*
X89250D01*
Y256376D01*
D02*
G37*
G36*
X60750Y256688D02*
Y250750D01*
X66688D01*
X66448Y251956D01*
X65942Y253176D01*
X65209Y254275D01*
X64275Y255208D01*
X63176Y255942D01*
X61956Y256448D01*
X60750Y256688D01*
D02*
G37*
G36*
X59250D02*
X58044Y256448D01*
X56824Y255942D01*
X55726Y255208D01*
X54791Y254275D01*
X54058Y253176D01*
X53552Y251956D01*
X53312Y250750D01*
X59250D01*
Y256688D01*
D02*
G37*
G36*
X121691Y251890D02*
X121461Y251845D01*
X121132Y251624D01*
X120911Y251294D01*
X120834Y250905D01*
Y250179D01*
X121691D01*
Y251890D01*
D02*
G37*
G36*
Y248679D02*
X120834D01*
Y247953D01*
X120911Y247564D01*
X121132Y247234D01*
X121461Y247014D01*
X121691Y246968D01*
Y248679D01*
D02*
G37*
G36*
X100000Y254284D02*
X99317Y254149D01*
X98738Y253762D01*
X98352Y253183D01*
X98216Y252500D01*
X98352Y251817D01*
X98738Y251238D01*
X103187Y246790D01*
X103766Y246403D01*
X104449Y246267D01*
X107417D01*
X107432Y246260D01*
X107789Y246251D01*
X108103Y246223D01*
X108388Y246179D01*
X108642Y246119D01*
X108866Y246045D01*
X109062Y245957D01*
X109230Y245859D01*
X109373Y245749D01*
X109495Y245629D01*
X109619Y245466D01*
X109652Y245448D01*
X109666Y245414D01*
X109755Y245377D01*
X109962Y245238D01*
X110295Y245172D01*
X114705D01*
X115038Y245238D01*
X115321Y245427D01*
X115509Y245710D01*
X115576Y246043D01*
Y250059D01*
X115509Y250392D01*
X115321Y250675D01*
X115038Y250864D01*
X114705Y250930D01*
X110295D01*
X109962Y250864D01*
X109755Y250725D01*
X109666Y250689D01*
X109652Y250654D01*
X109619Y250636D01*
X109495Y250474D01*
X109373Y250353D01*
X109230Y250243D01*
X109062Y250145D01*
X108866Y250058D01*
X108642Y249983D01*
X108388Y249923D01*
X108103Y249879D01*
X107789Y249852D01*
X107432Y249842D01*
X107417Y249835D01*
X105188D01*
X101262Y253762D01*
X100683Y254149D01*
X100000Y254284D01*
D02*
G37*
G36*
X66688Y249250D02*
X60750D01*
Y243312D01*
X61956Y243552D01*
X63176Y244058D01*
X64275Y244792D01*
X65209Y245725D01*
X65942Y246824D01*
X66448Y248044D01*
X66688Y249250D01*
D02*
G37*
G36*
X59250D02*
X53312D01*
X53552Y248044D01*
X54058Y246824D01*
X54791Y245725D01*
X55726Y244792D01*
X56824Y244058D01*
X58044Y243552D01*
X59250Y243312D01*
Y249250D01*
D02*
G37*
G36*
X114705Y243450D02*
X110295D01*
X109962Y243384D01*
X109679Y243195D01*
X109491Y242912D01*
X109424Y242579D01*
Y238563D01*
X109491Y238230D01*
X109679Y237947D01*
X109962Y237758D01*
X110295Y237692D01*
X114705D01*
X115038Y237758D01*
X115321Y237947D01*
X115509Y238230D01*
X115576Y238563D01*
Y239306D01*
X115580Y239314D01*
X115582Y239332D01*
X115588Y239335D01*
X115650Y239361D01*
X115750Y239387D01*
X115885Y239409D01*
X116054Y239424D01*
X116268Y239430D01*
X116312Y239449D01*
X120393D01*
X120436Y239430D01*
X120650Y239424D01*
X120819Y239409D01*
X120954Y239387D01*
X121059Y239174D01*
X121169Y238922D01*
X121178Y238903D01*
X121194Y238823D01*
X121238Y238757D01*
X121239Y238750D01*
X121237Y238734D01*
X121240Y238721D01*
X121299Y237906D01*
X121300Y237695D01*
X121319Y237649D01*
Y227559D01*
X121319Y227559D01*
X121405Y227130D01*
X121648Y226766D01*
X127831Y220583D01*
X128195Y220340D01*
X128624Y220254D01*
X128624Y220254D01*
X129761D01*
X129804Y220235D01*
X130018Y220229D01*
X130187Y220215D01*
X130323Y220192D01*
X130422Y220166D01*
X130484Y220141D01*
X130490Y220137D01*
X130492Y220119D01*
X130509Y220087D01*
Y219629D01*
X130566Y219347D01*
X130725Y219109D01*
X130964Y218949D01*
X131245Y218893D01*
X133755D01*
X134036Y218949D01*
X134275Y219109D01*
X134434Y219347D01*
X134491Y219629D01*
Y223123D01*
X134434Y223405D01*
X134275Y223643D01*
X134036Y223803D01*
X133755Y223859D01*
X131245D01*
X130964Y223803D01*
X130725Y223643D01*
X130566Y223405D01*
X130509Y223123D01*
Y222665D01*
X130492Y222633D01*
X130490Y222615D01*
X130484Y222611D01*
X130422Y222586D01*
X130323Y222560D01*
X130187Y222537D01*
X130018Y222523D01*
X129804Y222517D01*
X129761Y222498D01*
X129089D01*
X123563Y228024D01*
Y237643D01*
X123582Y237688D01*
X123585Y237845D01*
X123914Y238080D01*
X124091Y238141D01*
X124250Y238110D01*
Y240571D01*
Y243032D01*
X124021Y242986D01*
X123691Y242766D01*
X123303Y242704D01*
X123031Y242758D01*
X121850D01*
X121579Y242704D01*
X121348Y242550D01*
X121194Y242319D01*
X121140Y242047D01*
Y241857D01*
X121124Y241828D01*
X121122Y241810D01*
X121116Y241806D01*
X121054Y241781D01*
X120954Y241755D01*
X120819Y241732D01*
X120650Y241718D01*
X120436Y241712D01*
X120393Y241692D01*
X116312D01*
X116268Y241712D01*
X116054Y241718D01*
X115885Y241732D01*
X115750Y241755D01*
X115650Y241781D01*
X115588Y241806D01*
X115582Y241810D01*
X115580Y241828D01*
X115576Y241836D01*
Y242579D01*
X115509Y242912D01*
X115321Y243195D01*
X115038Y243384D01*
X114705Y243450D01*
D02*
G37*
G36*
X125750Y243032D02*
Y240571D01*
Y238110D01*
X125872Y238134D01*
X126166Y238011D01*
X126388Y237827D01*
X126388Y237708D01*
X126408Y237661D01*
Y234339D01*
X126389Y234297D01*
X126380Y234067D01*
X126371Y233990D01*
X126359Y233920D01*
X126346Y233863D01*
X126332Y233820D01*
X126320Y233791D01*
X126311Y233775D01*
X126308Y233771D01*
X126285Y233746D01*
X126251Y233656D01*
X126059Y233463D01*
X125800Y232838D01*
Y232162D01*
X126059Y231537D01*
X126537Y231059D01*
X127162Y230800D01*
X127838D01*
X128463Y231059D01*
X128941Y231537D01*
X129200Y232162D01*
Y232838D01*
X128941Y233463D01*
X128800Y233604D01*
X128774Y233686D01*
X128752Y233712D01*
X128748Y233718D01*
X128738Y233737D01*
X128726Y233770D01*
X128712Y233816D01*
X128699Y233876D01*
X128688Y233943D01*
X128673Y234139D01*
X128671Y234251D01*
X128651Y234296D01*
Y237642D01*
X128671Y237687D01*
X128670Y237689D01*
X128671Y237690D01*
X128672Y237911D01*
X128684Y238276D01*
X128708Y238540D01*
X128720Y238618D01*
X128730Y238662D01*
X128744Y238703D01*
X128743Y238728D01*
X128806Y238823D01*
X128815Y238869D01*
X128829Y238894D01*
X128824Y238912D01*
X128832Y238951D01*
X128832Y238953D01*
X128832Y238953D01*
X128860Y239094D01*
Y242047D01*
X128806Y242319D01*
X128652Y242550D01*
X128421Y242704D01*
X128150Y242758D01*
X126969D01*
X126697Y242704D01*
X126309Y242766D01*
X125979Y242986D01*
X125750Y243032D01*
D02*
G37*
G36*
X144705Y233205D02*
X143250D01*
Y230770D01*
X145882D01*
Y232028D01*
X145792Y232478D01*
X145537Y232860D01*
X145155Y233115D01*
X144705Y233205D01*
D02*
G37*
G36*
X153998Y232316D02*
X153001D01*
X152602Y232237D01*
X152265Y232011D01*
X152039Y231673D01*
X151960Y231275D01*
Y230770D01*
X153998D01*
Y232316D01*
D02*
G37*
G36*
X141750Y233205D02*
X140295D01*
X139845Y233115D01*
X139463Y232860D01*
X139208Y232478D01*
X139118Y232028D01*
Y230770D01*
X141750D01*
Y233205D01*
D02*
G37*
G36*
X153998Y229270D02*
X151960D01*
Y228765D01*
X152039Y228366D01*
X152265Y228028D01*
X152602Y227803D01*
X153001Y227723D01*
X153998D01*
Y229270D01*
D02*
G37*
G36*
X145882D02*
X143250D01*
Y226835D01*
X144705D01*
X145155Y226924D01*
X145537Y227180D01*
X145792Y227561D01*
X145882Y228012D01*
Y229270D01*
D02*
G37*
G36*
X141750D02*
X139118D01*
Y228012D01*
X139208Y227561D01*
X139463Y227180D01*
X139845Y226924D01*
X140295Y226835D01*
X141750D01*
Y229270D01*
D02*
G37*
G36*
X114759Y226375D02*
X113250D01*
Y223250D01*
X115981D01*
Y225153D01*
X115888Y225620D01*
X115623Y226017D01*
X115226Y226282D01*
X114759Y226375D01*
D02*
G37*
G36*
X111750D02*
X110241D01*
X109774Y226282D01*
X109377Y226017D01*
X109112Y225620D01*
X109019Y225153D01*
Y223250D01*
X111750D01*
Y226375D01*
D02*
G37*
G36*
X115981Y221750D02*
X113250D01*
Y218625D01*
X114759D01*
X115226Y218718D01*
X115623Y218983D01*
X115888Y219380D01*
X115981Y219847D01*
Y221750D01*
D02*
G37*
G36*
X111750D02*
X109019D01*
Y219847D01*
X109112Y219380D01*
X109377Y218983D01*
X109774Y218718D01*
X110241Y218625D01*
X111750D01*
Y221750D01*
D02*
G37*
G36*
X137495Y216412D02*
X136990D01*
Y214374D01*
X138537D01*
Y215371D01*
X138457Y215770D01*
X138232Y216108D01*
X137894Y216333D01*
X137495Y216412D01*
D02*
G37*
G36*
X135490D02*
X134985D01*
X134587Y216333D01*
X134249Y216108D01*
X134023Y215770D01*
X133944Y215371D01*
Y214374D01*
X135490D01*
Y216412D01*
D02*
G37*
G36*
X138537Y212874D02*
X136990D01*
Y210836D01*
X137495D01*
X137894Y210915D01*
X138232Y211140D01*
X138457Y211478D01*
X138537Y211877D01*
Y212874D01*
D02*
G37*
G36*
X135490D02*
X133944D01*
Y211877D01*
X134023Y211478D01*
X134249Y211140D01*
X134587Y210915D01*
X134985Y210836D01*
X135490D01*
Y212874D01*
D02*
G37*
G36*
X138248Y205882D02*
X136990D01*
Y203250D01*
X139425D01*
Y204705D01*
X139335Y205155D01*
X139080Y205537D01*
X138698Y205792D01*
X138248Y205882D01*
D02*
G37*
G36*
X135490D02*
X134232D01*
X133782Y205792D01*
X133400Y205537D01*
X133145Y205155D01*
X133055Y204705D01*
Y203250D01*
X135490D01*
Y205882D01*
D02*
G37*
G36*
X139425Y201750D02*
X136990D01*
Y199118D01*
X138248D01*
X138698Y199208D01*
X139080Y199463D01*
X139335Y199845D01*
X139425Y200295D01*
Y201750D01*
D02*
G37*
G36*
X135490D02*
X133055D01*
Y200295D01*
X133145Y199845D01*
X133400Y199463D01*
X133782Y199208D01*
X134232Y199118D01*
X135490D01*
Y201750D01*
D02*
G37*
%LPD*%
G36*
X123148Y238931D02*
X123125Y238885D01*
X123106Y238817D01*
X123089Y238726D01*
X123074Y238612D01*
X123053Y238315D01*
X123041Y237698D01*
X121841D01*
X121840Y237927D01*
X121776Y238817D01*
X121756Y238885D01*
X121734Y238931D01*
X121709Y238953D01*
X123173D01*
X123148Y238931D01*
D02*
G37*
G36*
X131030Y220176D02*
X131018Y220290D01*
X130982Y220392D01*
X130921Y220482D01*
X130836Y220560D01*
X130727Y220626D01*
X130594Y220680D01*
X130437Y220722D01*
X130255Y220752D01*
X130049Y220770D01*
X129818Y220776D01*
Y221976D01*
X130049Y221982D01*
X130255Y222000D01*
X130437Y222030D01*
X130594Y222072D01*
X130727Y222126D01*
X130836Y222192D01*
X130921Y222270D01*
X130982Y222360D01*
X131018Y222462D01*
X131030Y222576D01*
Y220176D01*
D02*
G37*
G36*
X128260Y238928D02*
X128233Y238881D01*
X128209Y238812D01*
X128188Y238720D01*
X128170Y238605D01*
X128144Y238308D01*
X128131Y237922D01*
X128129Y237694D01*
X126929Y237711D01*
X126928Y237939D01*
X126864Y238890D01*
X126847Y238933D01*
X126827Y238953D01*
X128291D01*
X128260Y238928D01*
D02*
G37*
G36*
X128129Y234242D02*
X128132Y234112D01*
X128150Y233880D01*
X128166Y233776D01*
X128187Y233682D01*
X128213Y233595D01*
X128243Y233518D01*
X128278Y233449D01*
X128317Y233388D01*
X128361Y233336D01*
X126681Y233377D01*
X126728Y233428D01*
X126771Y233487D01*
X126808Y233556D01*
X126840Y233632D01*
X126867Y233718D01*
X126890Y233812D01*
X126907Y233915D01*
X126920Y234026D01*
X126929Y234276D01*
X128129Y234242D01*
D02*
G37*
D15*
X125000Y249429D02*
Y252649D01*
X127500Y255149D01*
Y260000D01*
X115000Y255000D02*
Y280000D01*
X105000Y283876D02*
X111124D01*
X115000Y280000D01*
X105000Y287500D02*
X117860Y300360D01*
X105000Y283876D02*
Y287500D01*
X117860Y300360D02*
Y304640D01*
X117500Y305000D02*
X117860Y304640D01*
X127530Y232529D02*
Y240541D01*
X127500Y232500D02*
X127530Y232529D01*
X142500Y237500D02*
Y242500D01*
X127559Y249429D02*
X135571D01*
X142500Y242500D01*
X122441Y240000D02*
Y240571D01*
Y227559D02*
Y240000D01*
X112520Y240571D02*
X122441D01*
X112500Y240020D02*
X112520Y240000D01*
X122441Y227559D02*
X128624Y221376D01*
X132500D01*
X127530Y240541D02*
X127559Y240571D01*
D29*
X105020Y207500D02*
D03*
X112500D02*
D03*
X136240Y202500D02*
D03*
X128760D02*
D03*
D30*
X145000Y295000D02*
D03*
Y311929D02*
D03*
X80000Y195000D02*
D03*
Y178071D02*
D03*
X55000Y195000D02*
D03*
Y178071D02*
D03*
X30000Y195000D02*
D03*
Y178071D02*
D03*
D31*
X142500Y237500D02*
D03*
Y230020D02*
D03*
X90000Y275000D02*
D03*
Y282480D02*
D03*
X117500Y311929D02*
D03*
Y304449D02*
D03*
X80000Y215000D02*
D03*
Y222480D02*
D03*
X112500Y240571D02*
D03*
Y248051D02*
D03*
D32*
X135374Y260000D02*
D03*
X127500D02*
D03*
X104626Y222500D02*
D03*
X112500D02*
D03*
D33*
X90000Y257126D02*
D03*
Y265000D02*
D03*
Y300000D02*
D03*
Y292126D02*
D03*
D34*
X122441Y240571D02*
D03*
X125000D02*
D03*
X127559D02*
D03*
Y249429D02*
D03*
X125000D02*
D03*
X122441D02*
D03*
D35*
X101260Y276124D02*
D03*
X108740D02*
D03*
X105000Y283876D02*
D03*
X132500Y221376D02*
D03*
X136240Y213624D02*
D03*
X128760D02*
D03*
D36*
X162500Y233760D02*
D03*
X154748Y230020D02*
D03*
Y237500D02*
D03*
D37*
X128760Y202500D02*
Y213624D01*
X117500Y207500D02*
X123624Y213624D01*
X128760D01*
X112500Y207500D02*
X117500D01*
X70000Y275000D02*
X80000Y265000D01*
X90000D01*
X111949Y247500D02*
X112500Y248051D01*
X142500Y237500D02*
X154748D01*
X90000Y288000D02*
Y292500D01*
X90738Y275738D02*
X100874D01*
X101260Y276124D01*
X90000Y275000D02*
X90738Y275738D01*
X90000Y265000D02*
Y275000D01*
X60000D02*
X70000D01*
D38*
X60000Y300000D02*
X89232D01*
X89449Y300217D01*
X109429Y311929D02*
X143465D01*
X97500Y300000D02*
X109429Y311929D01*
X90551Y300000D02*
X97500D01*
X143465Y312500D02*
X145000Y310965D01*
X212480Y201268D02*
X213258D01*
X215205Y202705D02*
X232500Y220000D01*
Y265000D01*
X213258Y201268D02*
X214695Y202705D01*
X215205D01*
X185000Y312500D02*
X232500Y265000D01*
Y67744D02*
Y167500D01*
X212480Y187520D02*
Y201268D01*
Y187520D02*
X232500Y167500D01*
X212480Y47724D02*
X232500Y67744D01*
X145571Y312500D02*
X185000D01*
X145000Y311929D02*
X145571Y312500D01*
X60729Y291771D02*
Y299271D01*
X70020Y282480D02*
X90000D01*
X60729Y291771D02*
X70020Y282480D01*
X60000Y300000D02*
X60729Y299271D01*
D39*
X104449Y248051D02*
X112500D01*
X100000Y252500D02*
X104449Y248051D01*
X80000Y222480D02*
X80020Y222500D01*
X104626D01*
X127500Y260000D02*
Y267500D01*
X58850Y121480D02*
Y141150D01*
X55000Y145000D02*
X58850Y141150D01*
X55000Y145000D02*
Y178071D01*
X30000Y195000D02*
X55000D01*
X80000D01*
X30000Y160000D02*
Y178071D01*
X37500Y92831D02*
X58850Y71480D01*
X37500Y137500D02*
X42500Y142500D01*
X37500Y92831D02*
Y137500D01*
X80000Y160000D02*
Y178071D01*
X75000Y155000D02*
X80000Y160000D01*
X104823Y207697D02*
Y222303D01*
Y207697D02*
X105020Y207500D01*
X58850Y96480D02*
X59472Y97102D01*
X196858D02*
X197480Y97724D01*
X80000Y195000D02*
Y215000D01*
D40*
X162500Y233760D02*
Y262500D01*
X145000Y280000D02*
X162500Y262500D01*
X145000Y285000D02*
Y295000D01*
Y280000D02*
Y285000D01*
D41*
X305659Y291268D02*
X311485Y285441D01*
X314953Y281974D01*
X267480Y291268D02*
X305659D01*
X314953Y162772D02*
Y281974D01*
X324870Y107500D02*
X351810Y134440D01*
X315000Y162724D02*
X340094D01*
X351810Y151009D01*
Y134440D02*
Y151009D01*
X314953Y162772D02*
X315000Y162724D01*
X267480Y137724D02*
X315000D01*
X267480D02*
Y179980D01*
X295000Y27500D02*
X317500Y50000D01*
X102831Y27500D02*
X295000D01*
X58850Y71480D02*
X102831Y27500D01*
X108980Y121480D02*
X180000Y192500D01*
Y233787D02*
X197480Y251268D01*
X180000Y192500D02*
Y233787D01*
X58850Y121480D02*
X108980D01*
X267480Y261268D02*
X277500Y251248D01*
X267480Y179980D02*
X277500Y190000D01*
Y251248D01*
X267705Y107500D02*
X324870D01*
X59472Y97102D02*
X196858D01*
D42*
X197480Y251268D02*
Y251268D01*
X267480Y107724D02*
X267705Y107500D01*
D43*
X252480Y47724D02*
D03*
X212480D02*
D03*
Y201268D02*
D03*
X252480D02*
D03*
D44*
X197480Y97724D02*
D03*
X267480Y137724D02*
D03*
Y107724D02*
D03*
Y261268D02*
D03*
Y291268D02*
D03*
X197480Y251268D02*
D03*
D45*
X60000Y300000D02*
D03*
Y275000D02*
D03*
Y250000D02*
D03*
X317500Y75000D02*
D03*
Y50000D02*
D03*
X315000Y162724D02*
D03*
Y137724D02*
D03*
X58850Y71480D02*
D03*
Y96480D02*
D03*
Y121480D02*
D03*
D46*
X97500Y267500D02*
D03*
X140374Y260000D02*
D03*
X82500Y240000D02*
D03*
Y247500D02*
D03*
X105000Y272500D02*
D03*
X97500Y257500D02*
D03*
X112500Y230000D02*
D03*
X82500Y257500D02*
D03*
X117874Y222500D02*
D03*
X127874Y227500D02*
D03*
X97500Y235000D02*
D03*
X112500Y287500D02*
D03*
X102500Y230000D02*
D03*
X142874Y202500D02*
D03*
X155374Y215000D02*
D03*
X142500Y225000D02*
D03*
X155374D02*
D03*
X150000Y245000D02*
D03*
X152874Y255000D02*
D03*
X115000Y215000D02*
D03*
X135000Y240000D02*
D03*
X130000Y275000D02*
D03*
X92500Y240000D02*
D03*
X135374Y267500D02*
D03*
X90000Y288000D02*
D03*
X127500Y267500D02*
D03*
X100000Y252500D02*
D03*
X115000Y255000D02*
D03*
X127500Y232500D02*
D03*
X30000Y160000D02*
D03*
X75000Y155000D02*
D03*
X42500Y142500D02*
D03*
D47*
X145000Y285000D02*
D03*
M02*
