G04*
G04 #@! TF.GenerationSoftware,Altium Limited,Altium Designer,21.3.2 (30)*
G04*
G04 Layer_Physical_Order=2*
G04 Layer_Color=16711680*
%FSLAX25Y25*%
%MOIN*%
G70*
G04*
G04 #@! TF.SameCoordinates,176562F1-B387-4AA2-8F74-3CF4574A4688*
G04*
G04*
G04 #@! TF.FilePolarity,Positive*
G04*
G01*
G75*
%ADD15C,0.01200*%
%ADD39C,0.02500*%
%ADD40C,0.04000*%
%ADD41C,0.20000*%
%ADD43C,0.07874*%
%ADD44C,0.12795*%
%ADD45C,0.11811*%
%ADD46C,0.02400*%
%ADD47C,0.05000*%
G36*
X157500Y257500D02*
Y205000D01*
X150000Y197500D01*
X125000D01*
X87500Y235000D01*
X57500D01*
X50000Y242500D01*
Y282500D01*
X58500Y291000D01*
X73216D01*
Y272126D01*
X73352Y271443D01*
X73738Y270864D01*
X93364Y251238D01*
X93943Y250851D01*
X94626Y250716D01*
X94626Y250716D01*
X100000D01*
X100683Y250851D01*
X101262Y251238D01*
X115739Y265716D01*
X127500D01*
X128183Y265851D01*
X128762Y266238D01*
X129148Y266817D01*
X129284Y267500D01*
X129148Y268183D01*
X128762Y268762D01*
X128183Y269148D01*
X127500Y269284D01*
X115000D01*
X114317Y269148D01*
X113738Y268762D01*
X113738Y268762D01*
X99261Y254284D01*
X95365D01*
X76784Y272865D01*
Y291000D01*
X124000D01*
X124000Y291000D01*
X157500Y257500D01*
D02*
G37*
G36*
X250480Y195514D02*
X250473Y195940D01*
X250412Y196703D01*
X250359Y197041D01*
X250291Y197350D01*
X250208Y197630D01*
X250110Y197880D01*
X249996Y198101D01*
X249868Y198293D01*
X249724Y198456D01*
X255236D01*
X255093Y198293D01*
X254964Y198101D01*
X254851Y197880D01*
X254752Y197630D01*
X254669Y197350D01*
X254601Y197041D01*
X254548Y196703D01*
X254511Y196336D01*
X254480Y195514D01*
X250480D01*
D02*
G37*
G36*
X249826Y206750D02*
X250132Y206455D01*
X250715Y205958D01*
X250992Y205756D01*
X251258Y205586D01*
X251515Y205447D01*
X251761Y205339D01*
X251998Y205263D01*
X252224Y205218D01*
X252441Y205205D01*
X248544Y201307D01*
X248530Y201524D01*
X248485Y201750D01*
X248409Y201987D01*
X248301Y202234D01*
X248162Y202490D01*
X247992Y202756D01*
X247791Y203033D01*
X247558Y203319D01*
X246998Y203922D01*
X249826Y206750D01*
D02*
G37*
%LPC*%
G36*
X60631Y281405D02*
X59369D01*
X58132Y281159D01*
X56966Y280677D01*
X55917Y279976D01*
X55024Y279083D01*
X54324Y278034D01*
X53841Y276868D01*
X53594Y275631D01*
Y274369D01*
X53841Y273132D01*
X54324Y271966D01*
X55024Y270917D01*
X55917Y270024D01*
X56966Y269323D01*
X58132Y268841D01*
X59369Y268595D01*
X60631D01*
X61868Y268841D01*
X63034Y269323D01*
X64083Y270024D01*
X64976Y270917D01*
X65676Y271966D01*
X66159Y273132D01*
X66405Y274369D01*
Y275631D01*
X66159Y276868D01*
X65676Y278034D01*
X64976Y279083D01*
X64083Y279976D01*
X63034Y280677D01*
X61868Y281159D01*
X60631Y281405D01*
D02*
G37*
G36*
X60750Y256688D02*
Y250750D01*
X66688D01*
X66448Y251956D01*
X65942Y253176D01*
X65209Y254275D01*
X64275Y255208D01*
X63176Y255942D01*
X61956Y256448D01*
X60750Y256688D01*
D02*
G37*
G36*
X59250D02*
X58044Y256448D01*
X56824Y255942D01*
X55726Y255208D01*
X54791Y254275D01*
X54058Y253176D01*
X53552Y251956D01*
X53312Y250750D01*
X59250D01*
Y256688D01*
D02*
G37*
G36*
X66688Y249250D02*
X60750D01*
Y243312D01*
X61956Y243552D01*
X63176Y244058D01*
X64275Y244792D01*
X65209Y245725D01*
X65942Y246824D01*
X66448Y248044D01*
X66688Y249250D01*
D02*
G37*
G36*
X59250D02*
X53312D01*
X53552Y248044D01*
X54058Y246824D01*
X54791Y245725D01*
X55726Y244792D01*
X56824Y244058D01*
X58044Y243552D01*
X59250Y243312D01*
Y249250D01*
D02*
G37*
G36*
X115338Y256700D02*
X114662D01*
X114037Y256441D01*
X113559Y255963D01*
X113300Y255338D01*
Y254662D01*
X113559Y254037D01*
X113725Y253871D01*
X113755Y253784D01*
X113778Y253759D01*
X113781Y253753D01*
X113791Y253735D01*
X113803Y253705D01*
X113817Y253660D01*
X113830Y253602D01*
X113841Y253536D01*
X113857Y253343D01*
X113859Y253231D01*
X113878Y253186D01*
Y240000D01*
X113878Y240000D01*
X113964Y239571D01*
X114207Y239207D01*
X121707Y231707D01*
X121707Y231707D01*
X122071Y231464D01*
X122500Y231379D01*
X125678D01*
X125720Y231359D01*
X125951Y231350D01*
X126030Y231342D01*
X126102Y231330D01*
X126160Y231317D01*
X126205Y231303D01*
X126235Y231291D01*
X126253Y231281D01*
X126259Y231278D01*
X126284Y231255D01*
X126371Y231225D01*
X126537Y231059D01*
X127162Y230800D01*
X127838D01*
X128463Y231059D01*
X128941Y231537D01*
X129200Y232162D01*
Y232838D01*
X128941Y233463D01*
X128463Y233941D01*
X127838Y234200D01*
X127162D01*
X126537Y233941D01*
X126371Y233775D01*
X126284Y233745D01*
X126259Y233722D01*
X126253Y233718D01*
X126235Y233709D01*
X126205Y233697D01*
X126160Y233683D01*
X126102Y233670D01*
X126036Y233659D01*
X125843Y233643D01*
X125731Y233641D01*
X125686Y233622D01*
X122965D01*
X116122Y240465D01*
Y253178D01*
X116141Y253220D01*
X116150Y253451D01*
X116158Y253530D01*
X116170Y253602D01*
X116183Y253660D01*
X116197Y253705D01*
X116209Y253735D01*
X116218Y253753D01*
X116222Y253759D01*
X116245Y253784D01*
X116275Y253871D01*
X116441Y254037D01*
X116700Y254662D01*
Y255338D01*
X116441Y255963D01*
X115963Y256441D01*
X115338Y256700D01*
D02*
G37*
%LPD*%
G36*
X126643Y231660D02*
X126592Y231706D01*
X126532Y231746D01*
X126463Y231782D01*
X126386Y231814D01*
X126300Y231840D01*
X126205Y231862D01*
X126102Y231878D01*
X125990Y231890D01*
X125741Y231900D01*
Y233100D01*
X125870Y233102D01*
X126102Y233122D01*
X126205Y233138D01*
X126300Y233160D01*
X126386Y233186D01*
X126463Y233218D01*
X126532Y233254D01*
X126592Y233294D01*
X126643Y233340D01*
Y231660D01*
D02*
G37*
D15*
X115000Y240000D02*
X122500Y232500D01*
X115000Y240000D02*
Y255000D01*
X122500Y232500D02*
X127500D01*
D39*
X75000Y272126D02*
Y295000D01*
X60000Y300000D02*
X70000D01*
X75000Y295000D01*
Y272126D02*
X94626Y252500D01*
X197480Y251268D02*
Y251268D01*
X100000Y252500D02*
X115000Y267500D01*
X127500D01*
X94626Y252500D02*
X100000D01*
X30000Y125000D02*
Y160000D01*
X196858Y97102D02*
X197480Y97724D01*
X58850Y96480D02*
X59472Y97102D01*
X42500Y142500D02*
X55000Y155000D01*
X75000D01*
X58520Y96480D02*
X58850D01*
X30000Y125000D02*
X58520Y96480D01*
D40*
X145000Y285000D02*
X217500D01*
X240000Y262500D01*
Y60205D02*
Y177500D01*
X252480Y189980D02*
Y201268D01*
X240000Y177500D02*
X252480Y189980D01*
X240000Y60205D02*
X252480Y47724D01*
X240000Y213748D02*
X252480Y201268D01*
X240000Y213748D02*
Y262500D01*
D41*
X325000Y107500D02*
X351716Y134216D01*
X315224Y162500D02*
X340000D01*
X315000Y162724D02*
X315224Y162500D01*
X340000D02*
X351716Y150784D01*
Y134216D02*
Y150784D01*
X267705Y107500D02*
X325000D01*
X267480Y107724D02*
X267705Y107500D01*
X267480Y291299D02*
X305627D01*
X315000Y162724D02*
Y281927D01*
X305627Y291299D02*
X315000Y281927D01*
X108980Y121480D02*
X180000Y192500D01*
X59472Y97102D02*
X196858D01*
X58850Y121480D02*
X108980D01*
X267480Y137724D02*
X315000D01*
X58850Y71480D02*
X102831Y27500D01*
X295000D02*
X317500Y50000D01*
X102831Y27500D02*
X295000D01*
X180000Y233787D02*
X197480Y251268D01*
X180000Y192500D02*
Y233787D01*
X267480Y137724D02*
Y179980D01*
X277500Y190000D01*
Y251248D01*
X267480Y261268D02*
X277500Y251248D01*
D43*
X252480Y47724D02*
D03*
X212480D02*
D03*
Y201268D02*
D03*
X252480D02*
D03*
D44*
X197480Y97724D02*
D03*
X267480Y137724D02*
D03*
Y107724D02*
D03*
Y261268D02*
D03*
Y291268D02*
D03*
X197480Y251268D02*
D03*
D45*
X60000Y300000D02*
D03*
Y275000D02*
D03*
Y250000D02*
D03*
X317500Y75000D02*
D03*
Y50000D02*
D03*
X315000Y162724D02*
D03*
Y137724D02*
D03*
X58850Y71480D02*
D03*
Y96480D02*
D03*
Y121480D02*
D03*
D46*
X97500Y267500D02*
D03*
X140374Y260000D02*
D03*
X82500Y240000D02*
D03*
Y247500D02*
D03*
X105000Y272500D02*
D03*
X97500Y257500D02*
D03*
X112500Y230000D02*
D03*
X82500Y257500D02*
D03*
X117874Y222500D02*
D03*
X127874Y227500D02*
D03*
X97500Y235000D02*
D03*
X112500Y287500D02*
D03*
X102500Y230000D02*
D03*
X142874Y202500D02*
D03*
X155374Y215000D02*
D03*
X142500Y225000D02*
D03*
X155374D02*
D03*
X150000Y245000D02*
D03*
X152874Y255000D02*
D03*
X115000Y215000D02*
D03*
X135000Y240000D02*
D03*
X130000Y275000D02*
D03*
X92500Y240000D02*
D03*
X135374Y267500D02*
D03*
X90000Y288000D02*
D03*
X127500Y267500D02*
D03*
X100000Y252500D02*
D03*
X115000Y255000D02*
D03*
X127500Y232500D02*
D03*
X30000Y160000D02*
D03*
X75000Y155000D02*
D03*
X42500Y142500D02*
D03*
D47*
X145000Y285000D02*
D03*
M02*
