M48
;Layer_Color=9474304
;FILE_FORMAT=2:4
INCH,TZ
;TYPE=PLATED
T1F00S00C0.0100
T2F00S00C0.0280
T3F00S00C0.0461
T4F00S00C0.0551
T5F00S00C0.0811
T6F00S00C0.0862
%
T01
X4250Y14250
X7500Y15500
X11500Y21500
X14287Y20250
X15537Y21500
X3000Y16000
X8250Y24000
Y24750
Y25750
X9750
X10000Y25250
X9750Y26750
X10500Y27250
X11250Y28750
X9000Y28800
X9250Y24000
X9750Y23500
X10250Y23000
X11250
X11787Y22250
X12787Y22750
X12750Y23250
X13500Y24000
X15000Y24500
X15287Y25500
X14037Y26000
X13537Y26750
X12750
X13000Y27500
X11500Y25500
X14250Y22500
X15537
T02
X14500Y28500
T03
X21248Y4772
X25248
Y20127
X21248
T04
X31750Y5000
Y7500
X31500Y13772
Y16272
X5885Y12148
Y9648
Y7148
X6000Y25000
Y27500
Y30000
T05
X19748Y9772
Y25127
T06
X26748Y10772
Y13772
Y26127
Y29127
M30
