G04*
G04 #@! TF.GenerationSoftware,Altium Limited,Altium Designer,21.3.2 (30)*
G04*
G04 Layer_Color=8388736*
%FSLAX25Y25*%
%MOIN*%
G70*
G04*
G04 #@! TF.SameCoordinates,176562F1-B387-4AA2-8F74-3CF4574A4688*
G04*
G04*
G04 #@! TF.FilePolarity,Negative*
G04*
G01*
G75*
G04:AMPARAMS|DCode=17|XSize=53.15mil|YSize=57.09mil|CornerRadius=6.5mil|HoleSize=0mil|Usage=FLASHONLY|Rotation=0.000|XOffset=0mil|YOffset=0mil|HoleType=Round|Shape=RoundedRectangle|*
%AMROUNDEDRECTD17*
21,1,0.05315,0.04409,0,0,0.0*
21,1,0.04016,0.05709,0,0,0.0*
1,1,0.01299,0.02008,-0.02205*
1,1,0.01299,-0.02008,-0.02205*
1,1,0.01299,-0.02008,0.02205*
1,1,0.01299,0.02008,0.02205*
%
%ADD17ROUNDEDRECTD17*%
G04:AMPARAMS|DCode=18|XSize=102.36mil|YSize=110.24mil|CornerRadius=10.19mil|HoleSize=0mil|Usage=FLASHONLY|Rotation=180.000|XOffset=0mil|YOffset=0mil|HoleType=Round|Shape=RoundedRectangle|*
%AMROUNDEDRECTD18*
21,1,0.10236,0.08986,0,0,180.0*
21,1,0.08199,0.11024,0,0,180.0*
1,1,0.02037,-0.04099,0.04493*
1,1,0.02037,0.04099,0.04493*
1,1,0.02037,0.04099,-0.04493*
1,1,0.02037,-0.04099,-0.04493*
%
%ADD18ROUNDEDRECTD18*%
G04:AMPARAMS|DCode=19|XSize=53.15mil|YSize=57.09mil|CornerRadius=6.5mil|HoleSize=0mil|Usage=FLASHONLY|Rotation=90.000|XOffset=0mil|YOffset=0mil|HoleType=Round|Shape=RoundedRectangle|*
%AMROUNDEDRECTD19*
21,1,0.05315,0.04409,0,0,90.0*
21,1,0.04016,0.05709,0,0,90.0*
1,1,0.01299,0.02205,0.02008*
1,1,0.01299,0.02205,-0.02008*
1,1,0.01299,-0.02205,-0.02008*
1,1,0.01299,-0.02205,0.02008*
%
%ADD19ROUNDEDRECTD19*%
G04:AMPARAMS|DCode=20|XSize=59.06mil|YSize=66.93mil|CornerRadius=6.94mil|HoleSize=0mil|Usage=FLASHONLY|Rotation=180.000|XOffset=0mil|YOffset=0mil|HoleType=Round|Shape=RoundedRectangle|*
%AMROUNDEDRECTD20*
21,1,0.05906,0.05305,0,0,180.0*
21,1,0.04518,0.06693,0,0,180.0*
1,1,0.01388,-0.02259,0.02653*
1,1,0.01388,0.02259,0.02653*
1,1,0.01388,0.02259,-0.02653*
1,1,0.01388,-0.02259,-0.02653*
%
%ADD20ROUNDEDRECTD20*%
G04:AMPARAMS|DCode=21|XSize=59.06mil|YSize=66.93mil|CornerRadius=6.94mil|HoleSize=0mil|Usage=FLASHONLY|Rotation=90.000|XOffset=0mil|YOffset=0mil|HoleType=Round|Shape=RoundedRectangle|*
%AMROUNDEDRECTD21*
21,1,0.05906,0.05305,0,0,90.0*
21,1,0.04518,0.06693,0,0,90.0*
1,1,0.01388,0.02653,0.02259*
1,1,0.01388,0.02653,-0.02259*
1,1,0.01388,-0.02653,-0.02259*
1,1,0.01388,-0.02653,0.02259*
%
%ADD21ROUNDEDRECTD21*%
G04:AMPARAMS|DCode=22|XSize=21.65mil|YSize=39.37mil|CornerRadius=4.92mil|HoleSize=0mil|Usage=FLASHONLY|Rotation=180.000|XOffset=0mil|YOffset=0mil|HoleType=Round|Shape=RoundedRectangle|*
%AMROUNDEDRECTD22*
21,1,0.02165,0.02953,0,0,180.0*
21,1,0.01181,0.03937,0,0,180.0*
1,1,0.00984,-0.00591,0.01476*
1,1,0.00984,0.00591,0.01476*
1,1,0.00984,0.00591,-0.01476*
1,1,0.00984,-0.00591,-0.01476*
%
%ADD22ROUNDEDRECTD22*%
G04:AMPARAMS|DCode=23|XSize=35.43mil|YSize=45.28mil|CornerRadius=5.17mil|HoleSize=0mil|Usage=FLASHONLY|Rotation=180.000|XOffset=0mil|YOffset=0mil|HoleType=Round|Shape=RoundedRectangle|*
%AMROUNDEDRECTD23*
21,1,0.03543,0.03494,0,0,180.0*
21,1,0.02510,0.04528,0,0,180.0*
1,1,0.01034,-0.01255,0.01747*
1,1,0.01034,0.01255,0.01747*
1,1,0.01034,0.01255,-0.01747*
1,1,0.01034,-0.01255,-0.01747*
%
%ADD23ROUNDEDRECTD23*%
G04:AMPARAMS|DCode=24|XSize=35.43mil|YSize=45.28mil|CornerRadius=5.17mil|HoleSize=0mil|Usage=FLASHONLY|Rotation=90.000|XOffset=0mil|YOffset=0mil|HoleType=Round|Shape=RoundedRectangle|*
%AMROUNDEDRECTD24*
21,1,0.03543,0.03494,0,0,90.0*
21,1,0.02510,0.04528,0,0,90.0*
1,1,0.01034,0.01747,0.01255*
1,1,0.01034,0.01747,-0.01255*
1,1,0.01034,-0.01747,-0.01255*
1,1,0.01034,-0.01747,0.01255*
%
%ADD24ROUNDEDRECTD24*%
%ADD25C,0.08465*%
%ADD26C,0.13386*%
%ADD27C,0.12614*%
%ADD28C,0.12402*%
D17*
X105020Y207500D02*
D03*
X112500D02*
D03*
X136240Y202500D02*
D03*
X128760D02*
D03*
D18*
X145000Y295000D02*
D03*
Y311929D02*
D03*
X80000Y195000D02*
D03*
Y178071D02*
D03*
X55000Y195000D02*
D03*
Y178071D02*
D03*
X30000Y195000D02*
D03*
Y178071D02*
D03*
D19*
X142500Y237500D02*
D03*
Y230020D02*
D03*
X90000Y275000D02*
D03*
Y282480D02*
D03*
X117500Y311929D02*
D03*
Y304449D02*
D03*
X80000Y215000D02*
D03*
Y222480D02*
D03*
X112500Y240571D02*
D03*
Y248051D02*
D03*
D20*
X135374Y260000D02*
D03*
X127500D02*
D03*
X104626Y222500D02*
D03*
X112500D02*
D03*
D21*
X90000Y257126D02*
D03*
Y265000D02*
D03*
Y300000D02*
D03*
Y292126D02*
D03*
D22*
X122441Y240571D02*
D03*
X125000D02*
D03*
X127559D02*
D03*
Y249429D02*
D03*
X125000D02*
D03*
X122441D02*
D03*
D23*
X101260Y276124D02*
D03*
X108740D02*
D03*
X105000Y283876D02*
D03*
X132500Y221376D02*
D03*
X136240Y213624D02*
D03*
X128760D02*
D03*
D24*
X162500Y233760D02*
D03*
X154748Y230020D02*
D03*
Y237500D02*
D03*
D25*
X252480Y47724D02*
D03*
X212480D02*
D03*
Y201268D02*
D03*
X252480D02*
D03*
D26*
X197480Y97724D02*
D03*
X267480Y137724D02*
D03*
Y107724D02*
D03*
Y261268D02*
D03*
Y291268D02*
D03*
X197480Y251268D02*
D03*
D27*
X60000Y300000D02*
D03*
Y275000D02*
D03*
Y250000D02*
D03*
X58850Y71480D02*
D03*
Y96480D02*
D03*
Y121480D02*
D03*
D28*
X317500Y75000D02*
D03*
Y50000D02*
D03*
X315000Y162724D02*
D03*
Y137724D02*
D03*
M02*
