M48
;Layer_Color=9474304
;FILE_FORMAT=2:4
INCH,LZ
;TYPE=PLATED
T1F00S00C0.0118
T2F00S00C0.0522
%
T01
X003327Y001319
X004114Y001319
Y002146
Y003012
Y003799
X003327Y003799
Y004626
X004685Y004134
X004961
X005236
X00498Y003799
X005118Y003179
X00498Y002146
X005807
Y001319
X00498
X006181Y004173
X007461Y003799
X008287
Y002972
X007461
X007549Y005236
X007569Y005482
X007343Y005374
X008287Y00628
Y007106
Y007933
Y00876
Y009587
Y010413
Y01124
X007244Y011417
X006457
X005669
X004882
X004144Y008848
X0025Y00876
Y007933
Y007106
X003327
Y007933
X001673
Y010413
X0025
Y009587
X00498Y007933
X005807
X006634
X007461
X005807Y007106
X00498
X000846Y007933
Y00876
Y010413
T02
X001417Y002598
X003386
Y009291
X001417
M30
