M48
;Layer_Color=9474304
;FILE_FORMAT=2:4
INCH,TZ
;TYPE=PLATED
T1F00S00C0.0118
T2F00S00C0.0394
T3F00S00C0.0433
%
T01
X1417Y991
X1880Y797
X3730
X4252Y991
X5669
X6378Y2408
X4961
X3543
X2126
X2795Y1693
X2835Y3825
X4252
X3711Y4813
X4961Y5243
X6250Y5846
X6732Y4823
X6742Y3740
X6250Y7549
X6378Y8077
X4961
X4469Y7854
X3386Y7835
Y8150
X3504Y6969
Y6447
X2126Y8077
X2205Y9409
X3268
X3425Y9646
X5187Y9498
X5669Y9494
X5669Y10709
X5659Y11634
X6841Y11900
X4124Y11516
X3681Y11772
X3238Y12205
X2362
X1890Y4823
X1417Y3825
T02
X900Y6700
X1900
X2900
X4250
X5250
X6250
X1000Y8850
Y9850
Y10850
Y11850
T03
X6737Y1331
Y2808
Y4284
M30
