M48
;Layer_Color=9474304
;FILE_FORMAT=2:4
INCH,TZ
;TYPE=PLATED
T1F00S00C0.0118
T2F00S00C0.0390
T3F00S00C0.0394
T4F00S00C0.0433
%
T01
X1417Y991
X1880Y797
X3730
X4252Y991
X5669
X6378Y2408
X4961
X3543
X2126
X2795Y1683
X2835Y3825
X4252
X3720Y4823
X4961Y5243
X6250Y5837
X6732Y4833
X6742Y3720
X6250Y7559
X6378Y8077
X4961
X3543
Y8484
X2992Y8041
X2126Y8077
X1988Y8543
X2441Y8484
X1545Y8002
Y9075
X2451Y10778
X2992Y11220
X3474Y11604
X3543Y10650
X4370Y11122
X4252Y9494
X5669
Y12329
X6378Y13746
X6250Y15128
X5669Y15164
X6821Y15689
X1417Y15164
X778Y15709
X1260Y16201
X2126Y13746
X3465Y6860
Y6535
X1880Y4823
X1417Y3825
T02
X3819Y9126
Y10126
Y11126
Y12126
Y13126
Y14126
Y15126
X6819
Y14126
Y13126
Y12126
Y11126
Y10126
Y9126
T03
X900Y6700
X1900
X2900
X4250
X5250
X6250
X1000Y11133
Y12133
Y13133
Y14133
T04
X6737Y1331
Y2808
Y4284
M30
