M48
;Layer_Color=9474304
;FILE_FORMAT=2:4
INCH,TZ
;TYPE=PLATED
T01F00S00C0.0098
%
T01
X13661Y5787
Y6811
Y7559
Y8543
Y9882
X14449
X15591Y9722
X15512Y7913
X15517Y7418
X15079Y6614
X14717Y6321
X15315Y6063
X15579Y11697
X15578Y12061
X15578Y12613
X15571Y12928
X15591Y13307
X15551Y13858
X14762Y13316
X13661Y13032
Y12323
Y11299
Y13937
X16614Y12638
X16929Y11351
X17402Y11219
X18032Y11181
X18583
X18425Y10276
X19213Y10238
X19647
X20787Y10354
X21317Y9843
X22402
Y9252
Y8858
X21555Y8780
X20791Y8979
X20276Y8976
X20273Y8467
X19766Y8966
X19017Y8978
X18173Y9231
X17756Y9488
X16968Y9567
Y8976
X17717Y8465
X17323Y8031
X17835Y7480
X18150Y7598
X18622Y7520
X18661Y7087
X19409Y6732
Y5984
X20315Y6693
X20790Y7765
X21417Y7795
X21496Y6063
X19415Y7722
X18465Y8346
X15984Y8189
X15629Y8196
X15664Y7144
X16181Y7480
Y6772
X16191Y6024
X17087Y6102
Y6535
Y6969
X17598Y6339
X16614Y10866
X16314Y11217
X15906Y11496
X18110Y12047
X18780
Y12587
Y13228
X18209Y13268
X19724Y13228
X20512Y12992
Y12677
Y12362
X19736Y12087
X20300Y11374
X20273Y9492
X21850Y10866
X22417Y10843
X22362Y11220
X21309Y12724
X21417Y13701
M30
