G04*
G04 #@! TF.GenerationSoftware,Altium Limited,Altium Designer,24.7.2 (38)*
G04*
G04 Layer_Color=32896*
%FSLAX25Y25*%
%MOIN*%
G70*
G04*
G04 #@! TF.SameCoordinates,0AE953C0-7C88-47E9-B79E-664DAA7B62C1*
G04*
G04*
G04 #@! TF.FilePolarity,Positive*
G04*
G01*
G75*
%ADD16C,0.00600*%
%ADD73C,0.02000*%
%ADD74C,0.00800*%
G36*
X161527Y137176D02*
X161584D01*
Y137060D01*
X161642D01*
Y136887D01*
X161699D01*
Y136772D01*
X161757D01*
Y136599D01*
X161815D01*
Y136426D01*
X161873D01*
Y136310D01*
X161930D01*
Y136137D01*
X161988D01*
Y135964D01*
X162046D01*
Y135849D01*
X162103D01*
Y135676D01*
X162161D01*
Y135503D01*
X162219D01*
Y135388D01*
X162276D01*
Y135215D01*
X162334D01*
Y135099D01*
X162392D01*
Y134926D01*
X162449D01*
Y134753D01*
X162507D01*
Y134638D01*
X162565D01*
Y134465D01*
X162622D01*
Y134292D01*
X162680D01*
Y134177D01*
X162738D01*
Y134004D01*
X162795D01*
Y133831D01*
X162853D01*
Y133715D01*
X162911D01*
Y133542D01*
X162968D01*
Y133427D01*
X163026D01*
Y133254D01*
X163084D01*
Y133081D01*
X163141D01*
Y132966D01*
X163199D01*
Y132792D01*
X163257D01*
Y132620D01*
X163314D01*
Y132504D01*
X163372D01*
Y132331D01*
X163430D01*
Y132216D01*
X163487D01*
Y132273D01*
X163545D01*
Y132447D01*
X163603D01*
Y132562D01*
X163660D01*
Y132735D01*
X163718D01*
Y132850D01*
X163776D01*
Y133023D01*
X163833D01*
Y133196D01*
X163891D01*
Y133312D01*
X163949D01*
Y133485D01*
X164006D01*
Y133600D01*
X164064D01*
Y133773D01*
X164122D01*
Y133888D01*
X164179D01*
Y134061D01*
X164237D01*
Y134234D01*
X164295D01*
Y134350D01*
X164352D01*
Y134523D01*
X164410D01*
Y134638D01*
X164468D01*
Y134811D01*
X164525D01*
Y134926D01*
X164583D01*
Y135099D01*
X164641D01*
Y135272D01*
X164698D01*
Y135388D01*
X164756D01*
Y135561D01*
X164814D01*
Y135676D01*
X164871D01*
Y135849D01*
X164929D01*
Y135964D01*
X164987D01*
Y136137D01*
X165044D01*
Y136310D01*
X165102D01*
Y136426D01*
X165160D01*
Y136599D01*
X165217D01*
Y136714D01*
X165275D01*
Y136887D01*
X165333D01*
Y136945D01*
X166486D01*
Y136772D01*
X166429D01*
Y136656D01*
X166371D01*
Y136484D01*
X166313D01*
Y136368D01*
X166255D01*
Y136195D01*
X166198D01*
Y136080D01*
X166140D01*
Y135964D01*
Y135907D01*
X166083D01*
Y135791D01*
X166025D01*
Y135618D01*
X165967D01*
Y135503D01*
X165910D01*
Y135330D01*
X165852D01*
Y135215D01*
X165794D01*
Y135042D01*
X165736D01*
Y134926D01*
X165679D01*
Y134753D01*
X165621D01*
Y134638D01*
X165563D01*
Y134465D01*
X165506D01*
Y134350D01*
X165448D01*
Y134177D01*
X165391D01*
Y134061D01*
X165333D01*
Y133888D01*
X165275D01*
Y133773D01*
X165217D01*
Y133600D01*
X165160D01*
Y133485D01*
X165102D01*
Y133312D01*
X165044D01*
Y133196D01*
X164987D01*
Y133023D01*
X164929D01*
Y132850D01*
X164871D01*
Y132735D01*
X164814D01*
Y132562D01*
X164756D01*
Y132447D01*
X164698D01*
Y132273D01*
X164641D01*
Y132158D01*
X164583D01*
Y131985D01*
X164525D01*
Y131870D01*
X164468D01*
Y131697D01*
X164410D01*
Y131581D01*
X164352D01*
Y131408D01*
X164295D01*
Y131293D01*
X164237D01*
Y131120D01*
X164179D01*
Y131005D01*
X164122D01*
Y130832D01*
X164064D01*
Y130716D01*
X164006D01*
Y130543D01*
X163949D01*
Y130428D01*
X163891D01*
Y130255D01*
X163833D01*
Y130140D01*
X163776D01*
Y129967D01*
X163718D01*
Y129851D01*
X163660D01*
Y129678D01*
X163603D01*
Y129563D01*
X163545D01*
Y129390D01*
X163487D01*
Y129332D01*
X163430D01*
Y129448D01*
X163372D01*
Y129621D01*
X163314D01*
Y129736D01*
X163257D01*
Y129909D01*
X163199D01*
Y130082D01*
X163141D01*
Y130197D01*
X163084D01*
Y130370D01*
X163026D01*
Y130486D01*
X162968D01*
Y130659D01*
X162911D01*
Y130832D01*
X162853D01*
Y130947D01*
X162795D01*
Y131120D01*
X162738D01*
Y131293D01*
X162680D01*
Y131408D01*
X162622D01*
Y131581D01*
X162565D01*
Y131754D01*
X162507D01*
Y131870D01*
X162449D01*
Y132043D01*
X162392D01*
Y132216D01*
X162334D01*
Y132331D01*
X162276D01*
Y132504D01*
X162219D01*
Y132620D01*
X162161D01*
Y132792D01*
X162103D01*
Y132966D01*
X162046D01*
Y133081D01*
X161988D01*
Y133254D01*
X161930D01*
Y133427D01*
X161873D01*
Y133542D01*
X161815D01*
Y133715D01*
X161757D01*
Y133888D01*
X161699D01*
Y134004D01*
X161642D01*
Y134177D01*
X161584D01*
Y134292D01*
X161527D01*
Y134177D01*
X161469D01*
Y134061D01*
X161411D01*
Y133888D01*
X161354D01*
Y133715D01*
X161296D01*
Y133542D01*
X161238D01*
Y133427D01*
X161180D01*
Y133254D01*
X161123D01*
Y133081D01*
X161065D01*
Y132908D01*
X161007D01*
Y132792D01*
X160950D01*
Y132620D01*
X160892D01*
Y132447D01*
X160835D01*
Y132273D01*
X160777D01*
Y132158D01*
X160719D01*
Y131985D01*
X160661D01*
Y131812D01*
X160604D01*
Y131639D01*
X160546D01*
Y131524D01*
X160488D01*
Y131351D01*
X160431D01*
Y131178D01*
X160373D01*
Y131005D01*
X160315D01*
Y130889D01*
X160258D01*
Y130716D01*
X160200D01*
Y130543D01*
X160142D01*
Y130370D01*
X160085D01*
Y130255D01*
X160027D01*
Y130082D01*
X159969D01*
Y129909D01*
X159912D01*
Y129736D01*
X159854D01*
Y129621D01*
X159796D01*
Y129448D01*
X159739D01*
Y129332D01*
X159681D01*
Y129448D01*
X159623D01*
Y129563D01*
X159566D01*
Y129678D01*
X159508D01*
Y129851D01*
X159450D01*
Y129967D01*
X159393D01*
Y130140D01*
X159335D01*
Y130255D01*
X159277D01*
Y130370D01*
X159220D01*
Y130543D01*
X159162D01*
Y130659D01*
X159104D01*
Y130774D01*
X159047D01*
Y130947D01*
X158989D01*
Y131062D01*
X158931D01*
Y131235D01*
X158874D01*
Y131351D01*
X158816D01*
Y131466D01*
X158758D01*
Y131639D01*
X158701D01*
Y131754D01*
X158643D01*
Y131870D01*
X158585D01*
Y132043D01*
X158528D01*
Y132158D01*
X158470D01*
Y132331D01*
X158412D01*
Y132447D01*
X158355D01*
Y132562D01*
X158297D01*
Y132735D01*
X158239D01*
Y132850D01*
X158182D01*
Y133023D01*
X158124D01*
Y133139D01*
X158066D01*
Y133254D01*
X158009D01*
Y133427D01*
X157951D01*
Y133542D01*
X157893D01*
Y133658D01*
X157836D01*
Y133831D01*
X157778D01*
Y133946D01*
X157720D01*
Y134119D01*
X157663D01*
Y134234D01*
X157605D01*
Y134350D01*
X157547D01*
Y134523D01*
X157490D01*
Y134638D01*
X157432D01*
Y134753D01*
X157374D01*
Y134926D01*
X157317D01*
Y135042D01*
X157259D01*
Y135215D01*
X157201D01*
Y135330D01*
X157143D01*
Y135445D01*
X157086D01*
Y135618D01*
X157028D01*
Y135734D01*
X156971D01*
Y135849D01*
X156913D01*
Y136022D01*
X156855D01*
Y136137D01*
X156798D01*
Y136310D01*
X156740D01*
Y136426D01*
X156682D01*
Y136541D01*
X156624D01*
Y136714D01*
X156567D01*
Y136829D01*
X156509D01*
Y136945D01*
X157663D01*
Y136887D01*
X157720D01*
Y136772D01*
X157778D01*
Y136656D01*
X157836D01*
Y136541D01*
X157893D01*
Y136368D01*
X157951D01*
Y136253D01*
X158009D01*
Y136080D01*
X158066D01*
Y135964D01*
X158124D01*
Y135791D01*
X158182D01*
Y135676D01*
X158239D01*
Y135561D01*
X158297D01*
Y135388D01*
X158355D01*
Y135272D01*
X158412D01*
Y135099D01*
X158470D01*
Y134984D01*
X158528D01*
Y134869D01*
X158585D01*
Y134696D01*
X158643D01*
Y134580D01*
X158701D01*
Y134407D01*
X158758D01*
Y134292D01*
X158816D01*
Y134119D01*
X158874D01*
Y134004D01*
X158931D01*
Y133888D01*
X158989D01*
Y133715D01*
X159047D01*
Y133600D01*
X159104D01*
Y133427D01*
X159162D01*
Y133312D01*
X159220D01*
Y133196D01*
X159277D01*
Y133023D01*
X159335D01*
Y132908D01*
X159393D01*
Y132735D01*
X159450D01*
Y132620D01*
X159508D01*
Y132447D01*
X159566D01*
Y132331D01*
X159623D01*
Y132216D01*
X159681D01*
Y132273D01*
X159739D01*
Y132447D01*
X159796D01*
Y132620D01*
X159854D01*
Y132735D01*
X159912D01*
Y132908D01*
X159969D01*
Y133081D01*
X160027D01*
Y133254D01*
X160085D01*
Y133369D01*
X160142D01*
Y133542D01*
X160200D01*
Y133715D01*
X160258D01*
Y133888D01*
X160315D01*
Y134004D01*
X160373D01*
Y134177D01*
X160431D01*
Y134350D01*
X160488D01*
Y134523D01*
X160546D01*
Y134638D01*
X160604D01*
Y134811D01*
X160661D01*
Y134984D01*
X160719D01*
Y135157D01*
X160777D01*
Y135272D01*
X160835D01*
Y135445D01*
X160892D01*
Y135618D01*
X160950D01*
Y135791D01*
X161007D01*
Y135907D01*
X161065D01*
Y136080D01*
X161123D01*
Y136253D01*
X161180D01*
Y136426D01*
X161238D01*
Y136599D01*
X161296D01*
Y136714D01*
X161354D01*
Y136887D01*
X161411D01*
Y137060D01*
X161469D01*
Y137233D01*
X161527D01*
Y137176D01*
D02*
G37*
G36*
X140765Y137003D02*
X141111D01*
Y136945D01*
X141342D01*
Y136887D01*
X141572D01*
Y136829D01*
X141688D01*
Y136772D01*
X141861D01*
Y136714D01*
X141976D01*
Y136656D01*
X142091D01*
Y136599D01*
X142207D01*
Y136541D01*
X142264D01*
Y136484D01*
X142380D01*
Y136426D01*
X142437D01*
Y136368D01*
X142553D01*
Y136310D01*
X142610D01*
Y136253D01*
X142668D01*
Y136195D01*
X142726D01*
Y136137D01*
X142783D01*
Y136080D01*
X142899D01*
Y136022D01*
X142956D01*
Y135964D01*
X143014D01*
Y135907D01*
X143072D01*
Y135791D01*
X143130D01*
Y135734D01*
X143187D01*
Y135676D01*
X143245D01*
Y135618D01*
X143303D01*
Y135561D01*
X143360D01*
Y135445D01*
X143418D01*
Y135388D01*
X143475D01*
Y135272D01*
X143533D01*
Y135215D01*
X143591D01*
Y135099D01*
X143649D01*
Y134984D01*
X143706D01*
Y134869D01*
X143764D01*
Y134753D01*
X143822D01*
Y134580D01*
X143879D01*
Y134407D01*
X143937D01*
Y134177D01*
X143994D01*
Y133831D01*
X144052D01*
Y132850D01*
X143994D01*
Y132504D01*
X143937D01*
Y132273D01*
X143879D01*
Y132100D01*
X143822D01*
Y131927D01*
X143764D01*
Y131812D01*
X143706D01*
Y131697D01*
X143649D01*
Y131581D01*
X143591D01*
Y131466D01*
X143533D01*
Y131351D01*
X143475D01*
Y131293D01*
X143418D01*
Y131178D01*
X143360D01*
Y131120D01*
X143303D01*
Y131062D01*
X143245D01*
Y130947D01*
X143187D01*
Y130889D01*
X143130D01*
Y130832D01*
X143072D01*
Y130774D01*
X143014D01*
Y130716D01*
X142956D01*
Y130659D01*
X142899D01*
Y130601D01*
X142841D01*
Y130543D01*
X142783D01*
Y130486D01*
X142726D01*
Y130428D01*
X142668D01*
Y130370D01*
X142553D01*
Y130313D01*
X142495D01*
Y130255D01*
X142437D01*
Y130197D01*
X142322D01*
Y130140D01*
X142207D01*
Y130082D01*
X142149D01*
Y130024D01*
X142034D01*
Y129967D01*
X141918D01*
Y129909D01*
X141745D01*
Y129851D01*
X141630D01*
Y129794D01*
X141457D01*
Y129736D01*
X141226D01*
Y129678D01*
X140880D01*
Y129621D01*
X139900D01*
Y129678D01*
X139611D01*
Y129736D01*
X139381D01*
Y129794D01*
X139208D01*
Y129851D01*
X139035D01*
Y129909D01*
X138919D01*
Y129967D01*
X138804D01*
Y130024D01*
X138689D01*
Y130082D01*
X138631D01*
Y130140D01*
X138516D01*
Y130197D01*
X138458D01*
Y130255D01*
X138343D01*
Y130313D01*
X138285D01*
Y130370D01*
X138227D01*
Y130428D01*
X138170D01*
Y130486D01*
X138112D01*
Y130543D01*
X138054D01*
Y130601D01*
X137997D01*
Y130659D01*
X137939D01*
Y130716D01*
X137881D01*
Y130774D01*
X137824D01*
Y130832D01*
X137766D01*
Y130889D01*
X137708D01*
Y130947D01*
X137651D01*
Y131062D01*
X137593D01*
Y131120D01*
X137535D01*
Y131235D01*
X137478D01*
Y131351D01*
X137420D01*
Y131466D01*
X137362D01*
Y131581D01*
X137305D01*
Y131697D01*
X137247D01*
Y131927D01*
X137189D01*
Y132100D01*
X137132D01*
Y132447D01*
X137074D01*
Y133485D01*
X140015D01*
Y132447D01*
X138227D01*
Y132389D01*
X138285D01*
Y132100D01*
X138343D01*
Y131927D01*
X138400D01*
Y131812D01*
X138458D01*
Y131697D01*
X138516D01*
Y131639D01*
X138574D01*
Y131524D01*
X138631D01*
Y131466D01*
X138689D01*
Y131408D01*
X138747D01*
Y131351D01*
X138804D01*
Y131293D01*
X138862D01*
Y131235D01*
X138919D01*
Y131178D01*
X138977D01*
Y131120D01*
X139035D01*
Y131062D01*
X139150D01*
Y131005D01*
X139208D01*
Y130947D01*
X139323D01*
Y130889D01*
X139438D01*
Y130832D01*
X139554D01*
Y130774D01*
X139727D01*
Y130716D01*
X139958D01*
Y130659D01*
X140765D01*
Y130716D01*
X141053D01*
Y130774D01*
X141226D01*
Y130832D01*
X141342D01*
Y130889D01*
X141457D01*
Y130947D01*
X141572D01*
Y131005D01*
X141630D01*
Y131062D01*
X141745D01*
Y131120D01*
X141803D01*
Y131178D01*
X141918D01*
Y131235D01*
X141976D01*
Y131293D01*
X142034D01*
Y131351D01*
X142091D01*
Y131408D01*
X142149D01*
Y131466D01*
X142207D01*
Y131524D01*
X142264D01*
Y131581D01*
X142322D01*
Y131639D01*
X142380D01*
Y131697D01*
X142437D01*
Y131754D01*
X142495D01*
Y131870D01*
X142553D01*
Y131927D01*
X142610D01*
Y132043D01*
X142668D01*
Y132158D01*
X142726D01*
Y132273D01*
X142783D01*
Y132447D01*
X142841D01*
Y132620D01*
X142899D01*
Y132966D01*
X142956D01*
Y133658D01*
X142899D01*
Y134004D01*
X142841D01*
Y134234D01*
X142783D01*
Y134407D01*
X142726D01*
Y134523D01*
X142668D01*
Y134638D01*
X142610D01*
Y134753D01*
X142553D01*
Y134811D01*
X142495D01*
Y134926D01*
X142437D01*
Y134984D01*
X142380D01*
Y135042D01*
X142322D01*
Y135099D01*
X142264D01*
Y135157D01*
X142207D01*
Y135215D01*
X142149D01*
Y135272D01*
X142091D01*
Y135330D01*
X142034D01*
Y135388D01*
X141976D01*
Y135445D01*
X141918D01*
Y135503D01*
X141861D01*
Y135561D01*
X141745D01*
Y135618D01*
X141688D01*
Y135676D01*
X141572D01*
Y135734D01*
X141457D01*
Y135791D01*
X141342D01*
Y135849D01*
X141169D01*
Y135907D01*
X140996D01*
Y135964D01*
X140650D01*
Y136022D01*
X139958D01*
Y135964D01*
X139669D01*
Y135907D01*
X139438D01*
Y135849D01*
X139323D01*
Y135791D01*
X139208D01*
Y135734D01*
X139093D01*
Y135676D01*
X138977D01*
Y135618D01*
X138919D01*
Y135561D01*
X138804D01*
Y135503D01*
X138747D01*
Y135445D01*
X138689D01*
Y135388D01*
X138631D01*
Y135330D01*
X138574D01*
Y135272D01*
X138516D01*
Y135215D01*
X138458D01*
Y135157D01*
X138400D01*
Y135099D01*
X138343D01*
Y135042D01*
X138285D01*
Y134984D01*
X138227D01*
Y134926D01*
X138170D01*
Y134869D01*
X138112D01*
Y134926D01*
X138054D01*
Y134984D01*
X137997D01*
Y135042D01*
X137939D01*
Y135099D01*
X137824D01*
Y135157D01*
X137766D01*
Y135215D01*
X137708D01*
Y135272D01*
X137651D01*
Y135330D01*
X137593D01*
Y135388D01*
X137535D01*
Y135445D01*
X137478D01*
Y135503D01*
X137420D01*
Y135561D01*
X137362D01*
Y135618D01*
X137420D01*
Y135676D01*
X137478D01*
Y135734D01*
X137535D01*
Y135791D01*
X137593D01*
Y135849D01*
X137651D01*
Y135907D01*
X137708D01*
Y135964D01*
X137766D01*
Y136022D01*
X137824D01*
Y136080D01*
X137881D01*
Y136137D01*
X137939D01*
Y136195D01*
X137997D01*
Y136253D01*
X138054D01*
Y136310D01*
X138170D01*
Y136368D01*
X138227D01*
Y136426D01*
X138285D01*
Y136484D01*
X138400D01*
Y136541D01*
X138458D01*
Y136599D01*
X138574D01*
Y136656D01*
X138689D01*
Y136714D01*
X138804D01*
Y136772D01*
X138919D01*
Y136829D01*
X139093D01*
Y136887D01*
X139266D01*
Y136945D01*
X139496D01*
Y137003D01*
X139842D01*
Y137060D01*
X140765D01*
Y137003D01*
D02*
G37*
G36*
X149185Y136887D02*
X149243D01*
Y129794D01*
X149185D01*
Y129736D01*
X148147D01*
Y132677D01*
X147916D01*
Y132562D01*
X147859D01*
Y132504D01*
X147801D01*
Y132389D01*
X147743D01*
Y132331D01*
X147686D01*
Y132216D01*
X147628D01*
Y132158D01*
X147570D01*
Y132100D01*
X147512D01*
Y131985D01*
X147455D01*
Y131927D01*
X147397D01*
Y131812D01*
X147339D01*
Y131754D01*
X147282D01*
Y131639D01*
X147224D01*
Y131581D01*
X147166D01*
Y131524D01*
X147109D01*
Y131408D01*
X147051D01*
Y131351D01*
X146993D01*
Y131235D01*
X146936D01*
Y131178D01*
X146878D01*
Y131062D01*
X146820D01*
Y131005D01*
X146763D01*
Y130947D01*
X146705D01*
Y130832D01*
X146647D01*
Y130774D01*
X146590D01*
Y130659D01*
X146532D01*
Y130601D01*
X146474D01*
Y130486D01*
X146417D01*
Y130428D01*
X146359D01*
Y130370D01*
X146301D01*
Y130255D01*
X146244D01*
Y130197D01*
X146186D01*
Y130082D01*
X146128D01*
Y130024D01*
X146071D01*
Y129909D01*
X146013D01*
Y129851D01*
X145955D01*
Y129794D01*
X145898D01*
Y129736D01*
X144629D01*
Y129851D01*
X144687D01*
Y129967D01*
X144744D01*
Y130024D01*
X144802D01*
Y130082D01*
X144860D01*
Y130197D01*
X144917D01*
Y130255D01*
X144975D01*
Y130370D01*
X145033D01*
Y130428D01*
X145090D01*
Y130486D01*
X145148D01*
Y130601D01*
X145206D01*
Y130659D01*
X145263D01*
Y130774D01*
X145321D01*
Y130832D01*
X145379D01*
Y130889D01*
X145436D01*
Y131005D01*
X145494D01*
Y131062D01*
X145552D01*
Y131120D01*
X145609D01*
Y131235D01*
X145667D01*
Y131293D01*
X145725D01*
Y131408D01*
X145782D01*
Y131466D01*
X145840D01*
Y131524D01*
X145898D01*
Y131639D01*
X145955D01*
Y131697D01*
X146013D01*
Y131754D01*
X146071D01*
Y131870D01*
X146128D01*
Y131927D01*
X146186D01*
Y132043D01*
X146244D01*
Y132100D01*
X146301D01*
Y132158D01*
X146359D01*
Y132273D01*
X146417D01*
Y132331D01*
X146474D01*
Y132389D01*
X146532D01*
Y132504D01*
X146590D01*
Y132562D01*
X146647D01*
Y132677D01*
X146705D01*
Y132735D01*
X146763D01*
Y132792D01*
X146705D01*
Y132850D01*
X146532D01*
Y132908D01*
X146359D01*
Y132966D01*
X146244D01*
Y133023D01*
X146128D01*
Y133081D01*
X146071D01*
Y133139D01*
X146013D01*
Y133196D01*
X145898D01*
Y133254D01*
X145840D01*
Y133312D01*
X145782D01*
Y133369D01*
X145725D01*
Y133427D01*
X145667D01*
Y133542D01*
X145609D01*
Y133600D01*
X145552D01*
Y133658D01*
X145494D01*
Y133773D01*
X145436D01*
Y133888D01*
X145379D01*
Y134004D01*
X145321D01*
Y134177D01*
X145263D01*
Y134465D01*
X145206D01*
Y134926D01*
Y134984D01*
Y135157D01*
X145263D01*
Y135445D01*
X145321D01*
Y135618D01*
X145379D01*
Y135734D01*
X145436D01*
Y135849D01*
X145494D01*
Y135964D01*
X145552D01*
Y136022D01*
X145609D01*
Y136080D01*
X145667D01*
Y136195D01*
X145725D01*
Y136253D01*
X145782D01*
Y136310D01*
X145840D01*
Y136368D01*
X145955D01*
Y136426D01*
X146013D01*
Y136484D01*
X146071D01*
Y136541D01*
X146186D01*
Y136599D01*
X146301D01*
Y136656D01*
X146417D01*
Y136714D01*
X146590D01*
Y136772D01*
X146820D01*
Y136829D01*
X147109D01*
Y136887D01*
X147743D01*
Y136945D01*
X149185D01*
Y136887D01*
D02*
G37*
G36*
X153568Y137291D02*
X153626D01*
Y137176D01*
X153683D01*
Y137060D01*
X153741D01*
Y136887D01*
X153799D01*
Y136772D01*
X153856D01*
Y136656D01*
X153914D01*
Y136541D01*
X153972D01*
Y136426D01*
X154029D01*
Y136310D01*
X154087D01*
Y136195D01*
X154145D01*
Y136080D01*
X154202D01*
Y135964D01*
X154260D01*
Y135849D01*
X154318D01*
Y135734D01*
X154375D01*
Y135618D01*
X154433D01*
Y135503D01*
X154491D01*
Y135388D01*
X154548D01*
Y135272D01*
X154606D01*
Y135157D01*
X154664D01*
Y135042D01*
X154721D01*
Y134926D01*
X154779D01*
Y134811D01*
X154837D01*
Y134696D01*
X154894D01*
Y134580D01*
X154952D01*
Y134465D01*
X155010D01*
Y134350D01*
X155067D01*
Y134234D01*
X155125D01*
Y134119D01*
X155183D01*
Y134004D01*
X155240D01*
Y133888D01*
X155298D01*
Y133773D01*
X155356D01*
Y133658D01*
X155413D01*
Y133542D01*
X155471D01*
Y133427D01*
X155529D01*
Y133312D01*
X155586D01*
Y133196D01*
X155644D01*
Y133081D01*
X155702D01*
Y132966D01*
X155759D01*
Y132850D01*
X155817D01*
Y132735D01*
X155875D01*
Y132620D01*
X155932D01*
Y132447D01*
X155990D01*
Y132331D01*
X156048D01*
Y132216D01*
X156105D01*
Y132100D01*
X156163D01*
Y131985D01*
X156221D01*
Y131870D01*
X156279D01*
Y131754D01*
X156336D01*
Y131639D01*
X156394D01*
Y131524D01*
X156451D01*
Y131408D01*
X156509D01*
Y131293D01*
X156567D01*
Y131178D01*
X156624D01*
Y131062D01*
X156682D01*
Y130947D01*
X156740D01*
Y130832D01*
X156798D01*
Y130716D01*
X156855D01*
Y130601D01*
X156913D01*
Y130486D01*
X156971D01*
Y130370D01*
X157028D01*
Y130255D01*
X157086D01*
Y130140D01*
X157143D01*
Y130024D01*
X157201D01*
Y129909D01*
X157259D01*
Y129794D01*
X157317D01*
Y129678D01*
X157374D01*
Y129563D01*
X157317D01*
Y129621D01*
X157086D01*
Y129678D01*
X156855D01*
Y129736D01*
X156624D01*
Y129794D01*
X156567D01*
Y129851D01*
X156509D01*
Y129909D01*
X156451D01*
Y130024D01*
X156394D01*
Y130082D01*
X156336D01*
Y130140D01*
X156279D01*
Y130197D01*
X156221D01*
Y130313D01*
X156163D01*
Y130370D01*
X156105D01*
Y130428D01*
X156048D01*
Y130486D01*
X155990D01*
Y130543D01*
X155932D01*
Y130601D01*
X155875D01*
Y130659D01*
X155817D01*
Y130716D01*
X155759D01*
Y130774D01*
X155702D01*
Y130832D01*
X155644D01*
Y131178D01*
X155586D01*
Y130889D01*
X155529D01*
Y130947D01*
X155471D01*
Y131005D01*
X155356D01*
Y131062D01*
X155298D01*
Y131120D01*
X155183D01*
Y131178D01*
X155067D01*
Y131235D01*
X155010D01*
Y131466D01*
X154952D01*
Y131697D01*
X154894D01*
Y131985D01*
X154837D01*
Y132216D01*
X154779D01*
Y132504D01*
X154721D01*
Y132735D01*
X154664D01*
Y132966D01*
X154606D01*
Y133139D01*
X154548D01*
Y133312D01*
X154491D01*
Y133427D01*
X154433D01*
Y133542D01*
X154375D01*
Y133715D01*
X154318D01*
Y133831D01*
X154260D01*
Y133946D01*
X154202D01*
Y134119D01*
X154145D01*
Y134234D01*
X154087D01*
Y134350D01*
X154029D01*
Y134523D01*
X153972D01*
Y134638D01*
X153914D01*
Y134753D01*
X153856D01*
Y134580D01*
X153914D01*
Y134407D01*
X153972D01*
Y134234D01*
X154029D01*
Y134061D01*
X154087D01*
Y133888D01*
X154145D01*
Y133715D01*
X154202D01*
Y133542D01*
X154260D01*
Y133312D01*
X154202D01*
Y133254D01*
X154145D01*
Y133196D01*
X154087D01*
Y133139D01*
X154029D01*
Y133081D01*
X153972D01*
Y132966D01*
X153914D01*
Y132850D01*
X153972D01*
Y132792D01*
X154029D01*
Y132677D01*
X154087D01*
Y132620D01*
X154145D01*
Y132504D01*
X154202D01*
Y132447D01*
X154260D01*
Y132389D01*
X154145D01*
Y132447D01*
X153856D01*
Y132389D01*
X153799D01*
Y132273D01*
X153741D01*
Y132100D01*
X153683D01*
Y131927D01*
X153626D01*
Y131697D01*
X153568D01*
Y131581D01*
X153510D01*
Y131754D01*
X153453D01*
Y131985D01*
X153395D01*
Y132158D01*
X153337D01*
Y132331D01*
X153280D01*
Y132389D01*
X153222D01*
Y132447D01*
X153164D01*
Y132504D01*
X153106D01*
Y132447D01*
X152934D01*
Y132389D01*
X152818D01*
Y132447D01*
X152876D01*
Y132504D01*
X152934D01*
Y132562D01*
X152991D01*
Y132677D01*
X153049D01*
Y132735D01*
X153106D01*
Y132850D01*
X153164D01*
Y132908D01*
X153222D01*
Y132966D01*
X153164D01*
Y133023D01*
X153106D01*
Y133081D01*
X153049D01*
Y133139D01*
X152991D01*
Y133196D01*
X152934D01*
Y133312D01*
X152876D01*
Y133369D01*
X152818D01*
Y133427D01*
X152876D01*
Y133658D01*
X152934D01*
Y133831D01*
X152991D01*
Y134004D01*
X153049D01*
Y134177D01*
X153106D01*
Y134350D01*
X153164D01*
Y134523D01*
X153222D01*
Y134696D01*
X153280D01*
Y134869D01*
X153222D01*
Y134753D01*
X153164D01*
Y134580D01*
X153106D01*
Y134465D01*
X153049D01*
Y134350D01*
X152991D01*
Y134177D01*
X152934D01*
Y134061D01*
X152876D01*
Y133946D01*
X152818D01*
Y133773D01*
X152761D01*
Y133658D01*
X152703D01*
Y133542D01*
X152645D01*
Y133369D01*
X152587D01*
Y133254D01*
X152530D01*
Y133081D01*
X152472D01*
Y132908D01*
X152415D01*
Y132620D01*
X152357D01*
Y132389D01*
X152299D01*
Y132100D01*
X152242D01*
Y131870D01*
X152184D01*
Y131581D01*
X152126D01*
Y131351D01*
X152068D01*
Y131235D01*
X152011D01*
Y131178D01*
X151895D01*
Y131120D01*
X151780D01*
Y131062D01*
X151723D01*
Y131005D01*
X151607D01*
Y130947D01*
X151549D01*
Y130889D01*
X151492D01*
Y131062D01*
X151434D01*
Y130774D01*
X151376D01*
Y130716D01*
X151261D01*
Y130659D01*
X151203D01*
Y130601D01*
X151146D01*
Y130543D01*
X151088D01*
Y130486D01*
X151030D01*
Y130428D01*
X150973D01*
Y130370D01*
X150915D01*
Y130255D01*
X150857D01*
Y130197D01*
X150800D01*
Y130140D01*
X150742D01*
Y130082D01*
X150684D01*
Y129967D01*
X150627D01*
Y129909D01*
X150569D01*
Y129794D01*
X150454D01*
Y129736D01*
X150223D01*
Y129678D01*
X149992D01*
Y129621D01*
X149819D01*
Y129563D01*
X149704D01*
Y129621D01*
X149762D01*
Y129736D01*
X149819D01*
Y129851D01*
X149877D01*
Y129967D01*
X149935D01*
Y130082D01*
X149992D01*
Y130197D01*
X150050D01*
Y130313D01*
X150108D01*
Y130428D01*
X150165D01*
Y130543D01*
X150223D01*
Y130659D01*
X150281D01*
Y130774D01*
X150338D01*
Y130947D01*
X150396D01*
Y131062D01*
X150454D01*
Y131178D01*
X150511D01*
Y131293D01*
X150569D01*
Y131408D01*
X150627D01*
Y131524D01*
X150684D01*
Y131639D01*
X150742D01*
Y131754D01*
X150800D01*
Y131870D01*
X150857D01*
Y131985D01*
X150915D01*
Y132100D01*
X150973D01*
Y132216D01*
X151030D01*
Y132331D01*
X151088D01*
Y132447D01*
X151146D01*
Y132562D01*
X151203D01*
Y132677D01*
X151261D01*
Y132792D01*
X151319D01*
Y132908D01*
X151376D01*
Y133023D01*
X151434D01*
Y133139D01*
X151492D01*
Y133254D01*
X151549D01*
Y133369D01*
X151607D01*
Y133485D01*
X151665D01*
Y133600D01*
X151723D01*
Y133715D01*
X151780D01*
Y133831D01*
X151838D01*
Y133946D01*
X151895D01*
Y134061D01*
X151953D01*
Y134177D01*
X152011D01*
Y134292D01*
X152068D01*
Y134407D01*
X152126D01*
Y134523D01*
X152184D01*
Y134638D01*
X152242D01*
Y134753D01*
X152299D01*
Y134926D01*
X152357D01*
Y135042D01*
X152415D01*
Y135157D01*
X152472D01*
Y135272D01*
X152530D01*
Y135388D01*
X152587D01*
Y135503D01*
X152645D01*
Y135618D01*
X152703D01*
Y135734D01*
X152761D01*
Y135849D01*
X152818D01*
Y135964D01*
X152876D01*
Y136080D01*
X152934D01*
Y136195D01*
X152991D01*
Y136310D01*
X153049D01*
Y136426D01*
X153106D01*
Y136541D01*
X153164D01*
Y136656D01*
X153222D01*
Y136772D01*
X153280D01*
Y136887D01*
X153337D01*
Y137003D01*
X153395D01*
Y137118D01*
X153453D01*
Y137176D01*
Y137233D01*
X153510D01*
Y137348D01*
X153568D01*
Y137291D01*
D02*
G37*
G36*
X181016Y125785D02*
X182067D01*
Y125635D01*
X182368D01*
Y125484D01*
X182968D01*
Y125334D01*
X183569D01*
Y125184D01*
X184019D01*
Y125034D01*
X184320D01*
Y124884D01*
X184620D01*
Y124734D01*
X184920D01*
Y124583D01*
X185221D01*
Y124433D01*
X185521D01*
Y124283D01*
X185671D01*
Y124133D01*
X185971D01*
Y123983D01*
X186122D01*
Y123833D01*
X186272D01*
Y123682D01*
X186572D01*
Y123532D01*
X186722D01*
Y123382D01*
X186872D01*
Y123232D01*
X187173D01*
Y123082D01*
X187323D01*
Y122932D01*
X187473D01*
Y122782D01*
X187623D01*
Y122631D01*
X187773D01*
Y122481D01*
X187924D01*
Y122331D01*
X188074D01*
Y122031D01*
X188224D01*
Y121881D01*
X188374D01*
Y121580D01*
X188524D01*
Y121430D01*
X188674D01*
Y121280D01*
X188824D01*
Y120980D01*
X188974D01*
Y120679D01*
X189125D01*
Y120529D01*
X189275D01*
Y120229D01*
X189425D01*
Y119929D01*
X189575D01*
Y119628D01*
X190176D01*
Y119778D01*
X191227D01*
Y119628D01*
X191677D01*
Y119478D01*
X191978D01*
Y119328D01*
X192278D01*
Y119178D01*
X192428D01*
Y119028D01*
X192728D01*
Y118877D01*
X192879D01*
Y118727D01*
X193029D01*
Y118577D01*
X193179D01*
Y118427D01*
X193329D01*
Y118277D01*
X193479D01*
Y117977D01*
X193629D01*
Y117826D01*
X193780D01*
Y117526D01*
X193930D01*
Y117076D01*
X194080D01*
Y116625D01*
X194230D01*
Y115724D01*
X194380D01*
Y115574D01*
X194230D01*
Y114673D01*
X194080D01*
Y114223D01*
X193930D01*
Y113922D01*
X193780D01*
Y113622D01*
X193479D01*
Y113322D01*
X193329D01*
Y113172D01*
X193179D01*
Y113021D01*
X193029D01*
Y112871D01*
X192728D01*
Y112721D01*
X192428D01*
Y112571D01*
X191677D01*
Y111820D01*
X191527D01*
Y111370D01*
X192128D01*
Y111220D01*
X192578D01*
Y111069D01*
X193029D01*
Y110919D01*
X193479D01*
Y110769D01*
X193930D01*
Y110619D01*
X194080D01*
Y110469D01*
X194530D01*
Y110319D01*
X194831D01*
Y110169D01*
X195131D01*
Y110018D01*
X195431D01*
Y109868D01*
X195732D01*
Y109718D01*
X196182D01*
Y109418D01*
X196633D01*
Y109267D01*
X196933D01*
Y109117D01*
X197233D01*
Y108967D01*
X197533D01*
Y108817D01*
X197834D01*
Y108667D01*
X198434D01*
Y108517D01*
X198885D01*
Y108367D01*
X199185D01*
Y108217D01*
X199786D01*
Y108066D01*
X200386D01*
Y107916D01*
X200837D01*
Y107766D01*
X201738D01*
Y107616D01*
X202789D01*
Y107466D01*
X203390D01*
Y107316D01*
X203840D01*
Y107165D01*
X204290D01*
Y107015D01*
X204891D01*
Y106865D01*
X205342D01*
Y106715D01*
X205492D01*
Y106565D01*
X205792D01*
Y106415D01*
X206092D01*
Y106264D01*
X206543D01*
Y105964D01*
X206693D01*
Y105814D01*
X206993D01*
Y105664D01*
X207143D01*
Y105514D01*
X207294D01*
Y105364D01*
X207444D01*
Y105213D01*
X207594D01*
Y104913D01*
X207744D01*
Y104613D01*
X207894D01*
Y104312D01*
X208044D01*
Y100709D01*
X207894D01*
Y100408D01*
X207744D01*
Y100258D01*
X207594D01*
Y99958D01*
X207444D01*
Y99808D01*
X207294D01*
Y99658D01*
X206993D01*
Y99357D01*
X206693D01*
Y99207D01*
X206543D01*
Y99057D01*
X206242D01*
Y98907D01*
X205942D01*
Y98757D01*
X205642D01*
Y98606D01*
X205041D01*
Y98306D01*
X204140D01*
Y98156D01*
X203390D01*
Y98006D01*
X199335D01*
Y98156D01*
X197684D01*
Y97856D01*
X197834D01*
Y97706D01*
X197984D01*
Y97555D01*
X198134D01*
Y97405D01*
X198284D01*
Y97105D01*
X198434D01*
Y96805D01*
X198584D01*
Y96654D01*
X198735D01*
Y96354D01*
X198885D01*
Y95904D01*
X199035D01*
Y95754D01*
X199185D01*
Y95453D01*
X199335D01*
Y95153D01*
X199485D01*
Y94853D01*
X199636D01*
Y94252D01*
X199786D01*
Y94102D01*
X199936D01*
Y93351D01*
X200086D01*
Y90949D01*
X200386D01*
Y90798D01*
X200536D01*
Y90498D01*
X200687D01*
Y90348D01*
X200837D01*
Y90198D01*
X200987D01*
Y89747D01*
X201137D01*
Y89447D01*
X201287D01*
Y88846D01*
X201437D01*
Y88546D01*
X201588D01*
Y86894D01*
X201437D01*
Y86594D01*
X201287D01*
Y86144D01*
X201137D01*
Y85993D01*
X200987D01*
Y85843D01*
X200837D01*
Y85693D01*
X200687D01*
Y85543D01*
X200536D01*
Y85393D01*
X199936D01*
Y85243D01*
X198434D01*
Y85393D01*
X197834D01*
Y85543D01*
X197684D01*
Y85693D01*
X197383D01*
Y85843D01*
X197233D01*
Y85993D01*
X197083D01*
Y86144D01*
X196783D01*
Y86294D01*
X196633D01*
Y86444D01*
X196482D01*
Y86744D01*
X196182D01*
Y87045D01*
X196032D01*
Y87195D01*
X195732D01*
Y87495D01*
X195581D01*
Y87645D01*
X195431D01*
Y87795D01*
X195281D01*
Y87945D01*
X195131D01*
Y88096D01*
X194981D01*
Y88246D01*
X194831D01*
Y87645D01*
X194681D01*
Y87495D01*
X194530D01*
Y87195D01*
X194230D01*
Y87045D01*
X193780D01*
Y87195D01*
X193179D01*
Y87495D01*
X192879D01*
Y87645D01*
X192728D01*
Y87795D01*
X192578D01*
Y88096D01*
X192428D01*
Y88246D01*
X192278D01*
Y88696D01*
X192128D01*
Y90498D01*
X192278D01*
Y88846D01*
X192428D01*
Y88396D01*
X192578D01*
Y88246D01*
X192728D01*
Y88096D01*
X192879D01*
Y87795D01*
X193179D01*
Y87645D01*
X193329D01*
Y87495D01*
X193930D01*
Y87345D01*
X194080D01*
Y87495D01*
X194380D01*
Y87645D01*
X194530D01*
Y88696D01*
X194380D01*
Y89147D01*
X194230D01*
Y89297D01*
X194080D01*
Y89597D01*
X193930D01*
Y89898D01*
X194080D01*
Y89747D01*
X194230D01*
Y89447D01*
X194380D01*
Y89297D01*
X194530D01*
Y88696D01*
X194831D01*
Y88546D01*
X194981D01*
Y88396D01*
X195131D01*
Y88246D01*
X195281D01*
Y88096D01*
X195431D01*
Y87945D01*
X195581D01*
Y87795D01*
X195732D01*
Y87645D01*
X195882D01*
Y87495D01*
X196032D01*
Y87345D01*
X196182D01*
Y87045D01*
X196482D01*
Y86894D01*
X196633D01*
Y86744D01*
X196783D01*
Y86444D01*
X197083D01*
Y86294D01*
X197233D01*
Y86144D01*
X197383D01*
Y85993D01*
X197684D01*
Y85843D01*
X197984D01*
Y85693D01*
X198284D01*
Y85543D01*
X198885D01*
Y86294D01*
X198735D01*
Y86894D01*
X198434D01*
Y87345D01*
X198284D01*
Y87495D01*
X198134D01*
Y87795D01*
X197984D01*
Y87945D01*
X197834D01*
Y88096D01*
X197984D01*
Y87945D01*
X198134D01*
Y87795D01*
X198284D01*
Y87645D01*
X198434D01*
Y87345D01*
X198584D01*
Y87195D01*
X198735D01*
Y86894D01*
X198885D01*
Y86444D01*
X199035D01*
Y85993D01*
X199185D01*
Y85543D01*
X199035D01*
Y85393D01*
X199485D01*
Y85543D01*
X199936D01*
Y85693D01*
X200236D01*
Y85843D01*
X200386D01*
Y86894D01*
X200536D01*
Y86144D01*
X200837D01*
Y86294D01*
X200987D01*
Y86594D01*
X201137D01*
Y87645D01*
X200987D01*
Y88246D01*
X200837D01*
Y88546D01*
X200687D01*
Y88846D01*
X200536D01*
Y89147D01*
X200386D01*
Y89447D01*
X200086D01*
Y89597D01*
X199936D01*
Y89747D01*
X200236D01*
Y89597D01*
X200386D01*
Y89447D01*
X200536D01*
Y89147D01*
X200687D01*
Y88996D01*
X200837D01*
Y88846D01*
X200987D01*
Y88546D01*
X201137D01*
Y89147D01*
X200987D01*
Y89597D01*
X200837D01*
Y89898D01*
X200687D01*
Y90198D01*
X200536D01*
Y90348D01*
X200386D01*
Y90798D01*
X199936D01*
Y90498D01*
X199786D01*
Y90348D01*
X199636D01*
Y90048D01*
X199485D01*
Y89747D01*
X199335D01*
Y89597D01*
X199185D01*
Y89447D01*
X199035D01*
Y89297D01*
X198735D01*
Y89147D01*
X198434D01*
Y88846D01*
X195882D01*
Y88996D01*
X195732D01*
Y89147D01*
X195281D01*
Y89297D01*
X194981D01*
Y89447D01*
X194831D01*
Y89597D01*
X194681D01*
Y89747D01*
X194530D01*
Y89898D01*
X194230D01*
Y90198D01*
X193930D01*
Y90348D01*
X193780D01*
Y90648D01*
X193479D01*
Y90949D01*
X193329D01*
Y91099D01*
X193179D01*
Y91249D01*
X193029D01*
Y91399D01*
X192879D01*
Y91549D01*
X192728D01*
Y91699D01*
X192578D01*
Y91849D01*
X192428D01*
Y90498D01*
X192278D01*
Y92000D01*
X191077D01*
Y92150D01*
X190776D01*
Y92450D01*
X190626D01*
Y92000D01*
X190476D01*
Y91849D01*
X190326D01*
Y91699D01*
X190176D01*
Y91399D01*
X190026D01*
Y91099D01*
X189875D01*
Y90949D01*
X188224D01*
Y91099D01*
X187924D01*
Y91249D01*
X187623D01*
Y91399D01*
X187173D01*
Y91549D01*
X186722D01*
Y91399D01*
X183719D01*
Y91249D01*
X183569D01*
Y91099D01*
X183419D01*
Y90798D01*
X183269D01*
Y90348D01*
X182968D01*
Y89447D01*
X182818D01*
Y88846D01*
X182668D01*
Y88546D01*
X182968D01*
Y88396D01*
X183269D01*
Y88246D01*
X183419D01*
Y88096D01*
X183869D01*
Y87945D01*
X184019D01*
Y87795D01*
X184470D01*
Y87645D01*
X184920D01*
Y87495D01*
X185221D01*
Y87195D01*
X185521D01*
Y87045D01*
X185671D01*
Y85993D01*
X185521D01*
Y85843D01*
X185221D01*
Y85543D01*
X183269D01*
Y85393D01*
X182968D01*
Y85243D01*
X182818D01*
Y84642D01*
Y84492D01*
Y82089D01*
X182668D01*
Y81489D01*
X182518D01*
Y81339D01*
X182368D01*
Y81038D01*
X182218D01*
Y80738D01*
X182067D01*
Y80588D01*
X181917D01*
Y80438D01*
X181767D01*
Y80287D01*
X181617D01*
Y80137D01*
X181317D01*
Y79987D01*
X181167D01*
Y79837D01*
X180416D01*
Y79987D01*
X181016D01*
Y80137D01*
X181167D01*
Y80287D01*
X181016D01*
Y80588D01*
X181317D01*
Y80438D01*
X181617D01*
Y80588D01*
X181767D01*
Y80888D01*
X181917D01*
Y81038D01*
X182067D01*
Y81188D01*
X182218D01*
Y81489D01*
X182368D01*
Y81939D01*
X182518D01*
Y82390D01*
X182668D01*
Y83441D01*
X182518D01*
Y85243D01*
X182668D01*
Y85393D01*
X182818D01*
Y85543D01*
X182968D01*
Y85693D01*
X183118D01*
Y85843D01*
X185071D01*
Y85993D01*
X185371D01*
Y86144D01*
X185521D01*
Y86894D01*
X185371D01*
Y87045D01*
X185221D01*
Y87195D01*
X184920D01*
Y87345D01*
X184770D01*
Y87495D01*
X184320D01*
Y87645D01*
X183869D01*
Y87795D01*
X183419D01*
Y87945D01*
X183269D01*
Y88096D01*
X182968D01*
Y88246D01*
X182518D01*
Y87645D01*
X182368D01*
Y87045D01*
X182218D01*
Y85993D01*
X182067D01*
Y85843D01*
X181917D01*
Y85243D01*
X181767D01*
Y84792D01*
X181617D01*
Y84642D01*
X181467D01*
Y84342D01*
X181317D01*
Y84192D01*
X181167D01*
Y84041D01*
X181016D01*
Y83741D01*
X180716D01*
Y83591D01*
X180416D01*
Y83291D01*
X179965D01*
Y83140D01*
X179515D01*
Y82990D01*
X178314D01*
Y83140D01*
X177713D01*
Y83291D01*
X177262D01*
Y83591D01*
X177112D01*
Y82540D01*
X176812D01*
Y83891D01*
X176662D01*
Y84041D01*
X176512D01*
Y84192D01*
X176362D01*
Y84342D01*
X176211D01*
Y84492D01*
X176061D01*
Y84642D01*
X175911D01*
Y84792D01*
X175761D01*
Y85093D01*
X175611D01*
Y85543D01*
X175461D01*
Y85993D01*
X175160D01*
Y87045D01*
X175010D01*
Y87195D01*
X175160D01*
Y87945D01*
X175010D01*
Y87795D01*
X174409D01*
Y87645D01*
X173959D01*
Y87495D01*
X172457D01*
Y87345D01*
X171556D01*
Y87495D01*
X170205D01*
Y87645D01*
X169905D01*
Y87795D01*
X169605D01*
Y87945D01*
X169454D01*
Y88096D01*
X169304D01*
Y88246D01*
X169004D01*
Y88546D01*
X168854D01*
Y88696D01*
X168703D01*
Y88846D01*
X168553D01*
Y89147D01*
X168403D01*
Y89447D01*
X168253D01*
Y90048D01*
X168103D01*
Y90198D01*
X167953D01*
Y91099D01*
X167803D01*
Y92150D01*
X167953D01*
Y93201D01*
X168103D01*
Y93351D01*
X168253D01*
Y94102D01*
X168403D01*
Y94402D01*
X168553D01*
Y94853D01*
X168703D01*
Y95003D01*
X168854D01*
Y95453D01*
X169004D01*
Y95904D01*
X169154D01*
Y96204D01*
X169304D01*
Y96354D01*
X169454D01*
Y96654D01*
X169605D01*
Y96955D01*
X169755D01*
Y97105D01*
X169905D01*
Y97405D01*
X170055D01*
Y97555D01*
X170205D01*
Y98006D01*
X170505D01*
Y98456D01*
X170656D01*
Y98757D01*
X170806D01*
Y99057D01*
X170956D01*
Y99207D01*
X171106D01*
Y99658D01*
X171256D01*
Y99958D01*
X171406D01*
Y100258D01*
X171556D01*
Y100408D01*
X171707D01*
Y101309D01*
X171857D01*
Y101459D01*
Y101610D01*
X172007D01*
Y101910D01*
X172157D01*
Y102360D01*
X172307D01*
Y102811D01*
X172457D01*
Y103111D01*
X172608D01*
Y103562D01*
X172758D01*
Y103862D01*
X172908D01*
Y104162D01*
X173058D01*
Y104312D01*
X173208D01*
Y104613D01*
X173358D01*
Y104913D01*
X173659D01*
Y105213D01*
X173959D01*
Y105964D01*
X173809D01*
Y106565D01*
X173659D01*
Y107015D01*
X172908D01*
Y107165D01*
X172457D01*
Y107316D01*
X172157D01*
Y107466D01*
X172007D01*
Y107616D01*
X171707D01*
Y107766D01*
X171556D01*
Y107916D01*
X171406D01*
Y108066D01*
X171256D01*
Y108217D01*
X171106D01*
Y108517D01*
X170956D01*
Y108667D01*
X170806D01*
Y108817D01*
Y109267D01*
X170656D01*
Y109418D01*
X170806D01*
Y109868D01*
X170956D01*
Y110169D01*
X171106D01*
Y110319D01*
X171256D01*
Y110469D01*
X171707D01*
Y110319D01*
X171406D01*
Y110169D01*
X171256D01*
Y109868D01*
X171106D01*
Y109267D01*
X170956D01*
Y108817D01*
X171106D01*
Y108517D01*
X171256D01*
Y108367D01*
X171406D01*
Y108217D01*
X171556D01*
Y108066D01*
X171707D01*
Y107916D01*
X171857D01*
Y107766D01*
X172157D01*
Y107616D01*
X172457D01*
Y107466D01*
X172758D01*
Y107316D01*
X173659D01*
Y108667D01*
X173809D01*
Y108967D01*
X173659D01*
Y109267D01*
X173509D01*
Y109418D01*
X173058D01*
Y109568D01*
X172908D01*
Y109718D01*
X171857D01*
Y109568D01*
X171707D01*
Y109418D01*
X171556D01*
Y109718D01*
X171707D01*
Y109868D01*
X172908D01*
Y109718D01*
X173358D01*
Y109868D01*
X173208D01*
Y110319D01*
X173058D01*
Y110469D01*
X171707D01*
Y110619D01*
X171857D01*
Y110769D01*
X172758D01*
Y110919D01*
X172608D01*
Y111069D01*
X172457D01*
Y111220D01*
X172307D01*
Y111370D01*
X172157D01*
Y111520D01*
X171857D01*
Y111820D01*
X171707D01*
Y111970D01*
X171556D01*
Y112120D01*
X171406D01*
Y112271D01*
X171256D01*
Y112421D01*
X170956D01*
Y112571D01*
X170806D01*
Y112721D01*
X170656D01*
Y112871D01*
X170505D01*
Y113021D01*
X170355D01*
Y113172D01*
X170205D01*
Y113472D01*
X170055D01*
Y113622D01*
X169905D01*
Y113472D01*
X169755D01*
Y113172D01*
X169454D01*
Y113021D01*
X169304D01*
Y112871D01*
X169004D01*
Y112721D01*
X168253D01*
Y112871D01*
X167953D01*
Y113172D01*
X168253D01*
Y113322D01*
X168403D01*
Y113472D01*
X168553D01*
Y113622D01*
X168703D01*
Y113772D01*
X168854D01*
Y113922D01*
X169004D01*
Y114223D01*
X169154D01*
Y114523D01*
X168854D01*
Y114373D01*
X168253D01*
Y114223D01*
X167652D01*
Y114373D01*
X167202D01*
Y114523D01*
X166902D01*
Y114673D01*
X166752D01*
Y114823D01*
X166601D01*
Y115124D01*
X166301D01*
Y115574D01*
X166601D01*
Y115724D01*
X166752D01*
Y115574D01*
X167202D01*
Y115424D01*
X168403D01*
Y115574D01*
X168553D01*
Y115724D01*
X169004D01*
Y116024D01*
X168253D01*
Y116175D01*
X167953D01*
Y116325D01*
X167652D01*
Y116475D01*
X167352D01*
Y116625D01*
X167202D01*
Y116926D01*
X167052D01*
Y117526D01*
X167803D01*
Y117376D01*
X168253D01*
Y117076D01*
X169154D01*
Y117376D01*
X169454D01*
Y117526D01*
X169605D01*
Y117676D01*
X169755D01*
Y117826D01*
X169905D01*
Y118127D01*
X170055D01*
Y118427D01*
X170205D01*
Y119028D01*
X170505D01*
Y119628D01*
X170656D01*
Y119929D01*
X170806D01*
Y120379D01*
X170956D01*
Y120529D01*
X171106D01*
Y120829D01*
X171256D01*
Y121130D01*
X171406D01*
Y121430D01*
X171556D01*
Y121580D01*
X171707D01*
Y122031D01*
X171857D01*
Y122331D01*
X172007D01*
Y122481D01*
X172157D01*
Y122631D01*
X172307D01*
Y122782D01*
X172457D01*
Y122932D01*
X172608D01*
Y123082D01*
X172758D01*
Y123232D01*
X172908D01*
Y123532D01*
X173208D01*
Y123682D01*
X173358D01*
Y123833D01*
X173509D01*
Y123983D01*
X173659D01*
Y124133D01*
X173809D01*
Y124283D01*
X174109D01*
Y124433D01*
X174259D01*
Y124583D01*
X174409D01*
Y124734D01*
X174860D01*
Y124884D01*
X175160D01*
Y125034D01*
X175461D01*
Y125184D01*
X175911D01*
Y125334D01*
X176512D01*
Y125484D01*
X177262D01*
Y125635D01*
X177563D01*
Y125785D01*
X178614D01*
Y125935D01*
X181016D01*
Y125785D01*
D02*
G37*
G36*
X171556Y109267D02*
X171406D01*
Y109418D01*
X171556D01*
Y109267D01*
D02*
G37*
G36*
X199335Y88696D02*
X199485D01*
Y88546D01*
X199636D01*
Y88246D01*
X199786D01*
Y88096D01*
X199936D01*
Y87795D01*
X200086D01*
Y87495D01*
X200236D01*
Y87345D01*
X200386D01*
Y87045D01*
X200086D01*
Y87195D01*
Y87345D01*
X199936D01*
Y87645D01*
X199786D01*
Y87795D01*
X199636D01*
Y88246D01*
X199485D01*
Y88396D01*
X199335D01*
Y88546D01*
Y88696D01*
X199035D01*
Y88846D01*
X199335D01*
Y88696D01*
D02*
G37*
G36*
X177863Y81038D02*
X178013D01*
Y80738D01*
Y80588D01*
X178314D01*
Y80438D01*
X178614D01*
Y80287D01*
X178914D01*
Y80137D01*
X179064D01*
Y79987D01*
X179365D01*
Y80438D01*
X179214D01*
Y80888D01*
Y81038D01*
Y81339D01*
X179365D01*
Y80438D01*
X179515D01*
Y79987D01*
X179815D01*
Y79837D01*
X180416D01*
Y79687D01*
X179515D01*
Y79837D01*
X178914D01*
Y79987D01*
X178614D01*
Y80137D01*
X178464D01*
Y80287D01*
X178314D01*
Y80438D01*
X178013D01*
Y80588D01*
X177863D01*
Y80888D01*
X177713D01*
Y81038D01*
X177563D01*
Y81188D01*
X177413D01*
Y81489D01*
X177262D01*
Y81939D01*
X177112D01*
Y82390D01*
X177262D01*
Y82089D01*
X177413D01*
Y81639D01*
X177563D01*
Y81489D01*
X177713D01*
Y82390D01*
X177863D01*
Y81038D01*
D02*
G37*
G36*
X180716Y81939D02*
X180866D01*
Y81789D01*
X181016D01*
Y81639D01*
Y81489D01*
Y80738D01*
X180866D01*
Y80888D01*
X180716D01*
Y81939D01*
X180566D01*
Y82089D01*
Y82240D01*
Y82390D01*
X180716D01*
Y81939D01*
D02*
G37*
%LPC*%
G36*
X148147Y135907D02*
X147686D01*
Y135849D01*
X147166D01*
Y135791D01*
X146936D01*
Y135734D01*
X146820D01*
Y135676D01*
X146705D01*
Y135618D01*
X146647D01*
Y135561D01*
X146532D01*
Y135445D01*
X146474D01*
Y135388D01*
X146417D01*
Y135272D01*
X146359D01*
Y135157D01*
X146301D01*
Y134407D01*
X146359D01*
Y134292D01*
X146417D01*
Y134177D01*
X146474D01*
Y134061D01*
X146532D01*
Y134004D01*
X146590D01*
Y133946D01*
X146705D01*
Y133888D01*
X146763D01*
Y133831D01*
X146878D01*
Y133773D01*
X146993D01*
Y133715D01*
X147224D01*
Y133658D01*
X148147D01*
Y135907D01*
D02*
G37*
G36*
X153741Y135157D02*
X153683D01*
Y135099D01*
X153741D01*
Y135157D01*
D02*
G37*
G36*
X153395D02*
X153337D01*
Y135042D01*
X153395D01*
Y135157D01*
D02*
G37*
G36*
X153337Y135042D02*
X153280D01*
Y134869D01*
X153337D01*
Y135042D01*
D02*
G37*
G36*
X153799D02*
X153741D01*
Y134926D01*
X153799D01*
Y134753D01*
X153856D01*
Y134926D01*
X153799D01*
Y135042D01*
D02*
G37*
G36*
X151607Y131581D02*
X151549D01*
Y131524D01*
X151607D01*
Y131581D01*
D02*
G37*
G36*
X155586Y131466D02*
X155529D01*
Y131178D01*
X155586D01*
Y131466D01*
D02*
G37*
G36*
X151549Y131408D02*
X151492D01*
Y131062D01*
X151549D01*
Y131408D01*
D02*
G37*
G36*
X191377Y119328D02*
X190026D01*
Y119178D01*
X189575D01*
Y119028D01*
X189275D01*
Y118727D01*
X188974D01*
Y118577D01*
X188824D01*
Y118277D01*
X188674D01*
Y118127D01*
X188524D01*
Y117977D01*
X188374D01*
Y117376D01*
X188824D01*
Y117226D01*
X188974D01*
Y117076D01*
X189425D01*
Y116926D01*
X189575D01*
Y117076D01*
X189725D01*
Y117376D01*
X189875D01*
Y117676D01*
X190176D01*
Y117977D01*
X190476D01*
Y118127D01*
X191077D01*
Y118277D01*
X191677D01*
Y118127D01*
X191227D01*
Y117977D01*
X190776D01*
Y117826D01*
X190476D01*
Y117526D01*
X190176D01*
Y117376D01*
X190026D01*
Y117076D01*
X189875D01*
Y116475D01*
X190026D01*
Y116325D01*
X190326D01*
Y116024D01*
X190626D01*
Y115724D01*
X190776D01*
Y115424D01*
X190927D01*
Y115274D01*
X191077D01*
Y114973D01*
X191227D01*
Y114523D01*
X191377D01*
Y114373D01*
X191527D01*
Y113622D01*
X191677D01*
Y112871D01*
X192128D01*
Y113021D01*
X192578D01*
Y113172D01*
X192879D01*
Y113322D01*
X193029D01*
Y113472D01*
X193179D01*
Y113622D01*
X193479D01*
Y114223D01*
X193629D01*
Y114373D01*
X193780D01*
Y115124D01*
X193930D01*
Y116325D01*
X193780D01*
Y117076D01*
X193629D01*
Y117226D01*
X193479D01*
Y117526D01*
X193329D01*
Y117977D01*
X193179D01*
Y118127D01*
X192879D01*
Y118427D01*
X192728D01*
Y118577D01*
X192428D01*
Y118727D01*
X192278D01*
Y119028D01*
X191827D01*
Y119178D01*
X191377D01*
Y119328D01*
D02*
G37*
G36*
X194380Y105964D02*
X194080D01*
Y105814D01*
X194380D01*
Y105964D01*
D02*
G37*
G36*
X207143Y105213D02*
X206993D01*
Y105063D01*
X207143D01*
Y105213D01*
D02*
G37*
G36*
X182067Y121430D02*
X180416D01*
Y121280D01*
X180115D01*
Y121130D01*
X179815D01*
Y120980D01*
X179515D01*
Y120829D01*
X179365D01*
Y120679D01*
X179064D01*
Y120379D01*
X178914D01*
Y120229D01*
X178614D01*
Y119929D01*
X178464D01*
Y119778D01*
X178314D01*
Y119478D01*
X178163D01*
Y119328D01*
X178013D01*
Y119178D01*
X177863D01*
Y118877D01*
X177713D01*
Y118577D01*
X177413D01*
Y118277D01*
X177262D01*
Y118127D01*
X177112D01*
Y117977D01*
X176812D01*
Y117826D01*
X176662D01*
Y117676D01*
X176362D01*
Y117526D01*
X175761D01*
Y117376D01*
X172307D01*
Y117226D01*
X172157D01*
Y117076D01*
X171707D01*
Y116926D01*
X171556D01*
Y116625D01*
X171256D01*
Y116325D01*
X171106D01*
Y116024D01*
X170956D01*
Y115724D01*
X170806D01*
Y114673D01*
X170956D01*
Y114223D01*
X171106D01*
Y113772D01*
X171256D01*
Y113472D01*
X171406D01*
Y113172D01*
X171556D01*
Y112871D01*
X171707D01*
Y112571D01*
X171857D01*
Y112421D01*
X172007D01*
Y112120D01*
X172157D01*
Y111970D01*
X172307D01*
Y111820D01*
X172457D01*
Y111520D01*
X172608D01*
Y111370D01*
X172758D01*
Y111069D01*
X172908D01*
Y110769D01*
X173208D01*
Y110469D01*
X173358D01*
Y110169D01*
X173509D01*
Y109868D01*
X173659D01*
Y109568D01*
X173809D01*
Y109117D01*
X173959D01*
Y107766D01*
X173809D01*
Y107616D01*
X173959D01*
Y107466D01*
X173809D01*
Y107165D01*
X173959D01*
Y106264D01*
X174109D01*
Y105514D01*
X174409D01*
Y104913D01*
X174560D01*
Y104763D01*
X174710D01*
Y104613D01*
X174860D01*
Y104463D01*
X175010D01*
Y104312D01*
X175160D01*
Y104162D01*
X175310D01*
Y104012D01*
X175461D01*
Y103862D01*
X175611D01*
Y103712D01*
X175761D01*
Y103562D01*
X176061D01*
Y103411D01*
X176211D01*
Y103261D01*
X176512D01*
Y103111D01*
X176812D01*
Y102961D01*
X177262D01*
Y102811D01*
X177713D01*
Y102661D01*
X178013D01*
Y102510D01*
X178764D01*
Y102360D01*
X179365D01*
Y102210D01*
X182067D01*
Y102360D01*
X182818D01*
Y102510D01*
X183419D01*
Y102661D01*
X184019D01*
Y102811D01*
X184320D01*
Y102961D01*
X184770D01*
Y103111D01*
X185221D01*
Y103261D01*
X185521D01*
Y103411D01*
X185671D01*
Y103562D01*
X185971D01*
Y103712D01*
X186272D01*
Y103862D01*
X186572D01*
Y104162D01*
X186872D01*
Y104312D01*
X187173D01*
Y104613D01*
X187323D01*
Y104763D01*
X187623D01*
Y104913D01*
X187773D01*
Y105063D01*
X187924D01*
Y105213D01*
X188074D01*
Y105364D01*
X188224D01*
Y105514D01*
X188374D01*
Y105814D01*
X188524D01*
Y105964D01*
X188824D01*
Y106114D01*
Y106264D01*
X188974D01*
Y106415D01*
X189275D01*
Y106715D01*
X189425D01*
Y106865D01*
X189575D01*
Y107165D01*
X189875D01*
Y107616D01*
X190026D01*
Y107766D01*
X190176D01*
Y108217D01*
X190326D01*
Y108517D01*
X190476D01*
Y108817D01*
X190626D01*
Y109267D01*
X190776D01*
Y110319D01*
X190927D01*
Y110619D01*
X191077D01*
Y111220D01*
X190927D01*
Y111370D01*
X191077D01*
Y111820D01*
X190927D01*
Y111970D01*
X190776D01*
Y113021D01*
X190626D01*
Y113472D01*
X190476D01*
Y113622D01*
X190326D01*
Y113922D01*
X190176D01*
Y114073D01*
X190026D01*
Y114373D01*
X189875D01*
Y114523D01*
X189575D01*
Y114823D01*
X189425D01*
Y114973D01*
X189125D01*
Y115124D01*
X188974D01*
Y115274D01*
X188524D01*
Y115424D01*
X188224D01*
Y115574D01*
X187924D01*
Y115724D01*
X187173D01*
Y115874D01*
X187022D01*
Y115724D01*
X186422D01*
Y116024D01*
X186272D01*
Y116325D01*
X186122D01*
Y116926D01*
X185971D01*
Y117526D01*
X185671D01*
Y118127D01*
X185521D01*
Y118277D01*
X185371D01*
Y118577D01*
X185221D01*
Y118877D01*
X185071D01*
Y119028D01*
X184920D01*
Y119328D01*
X184770D01*
Y119478D01*
X184620D01*
Y119628D01*
X184470D01*
Y119929D01*
X184320D01*
Y120079D01*
X184170D01*
Y120229D01*
X184019D01*
Y120379D01*
X183869D01*
Y120529D01*
X183569D01*
Y120679D01*
X183419D01*
Y120829D01*
X183118D01*
Y120980D01*
X182818D01*
Y121130D01*
X182518D01*
Y121280D01*
X182067D01*
Y121430D01*
D02*
G37*
G36*
X184320Y101760D02*
X183569D01*
Y101610D01*
X182518D01*
Y101459D01*
X181917D01*
Y101309D01*
X181617D01*
Y101159D01*
X181467D01*
Y101009D01*
X181167D01*
Y100859D01*
X181016D01*
Y100709D01*
X180866D01*
Y100558D01*
X180716D01*
Y100408D01*
X180566D01*
Y100258D01*
X180416D01*
Y99958D01*
X180265D01*
Y99808D01*
X180115D01*
Y99658D01*
X179965D01*
Y99207D01*
X179815D01*
Y98907D01*
X179665D01*
Y98606D01*
X179515D01*
Y96504D01*
X179665D01*
Y95904D01*
X179815D01*
Y95603D01*
X179965D01*
Y95303D01*
X180115D01*
Y95153D01*
X180265D01*
Y94853D01*
X180416D01*
Y94702D01*
X180566D01*
Y94402D01*
X180716D01*
Y94252D01*
X181016D01*
Y93952D01*
X181167D01*
Y93801D01*
X181317D01*
Y93651D01*
X181617D01*
Y93501D01*
X181767D01*
Y93351D01*
X182067D01*
Y93201D01*
X182368D01*
Y93051D01*
X184019D01*
Y92901D01*
X184470D01*
Y92750D01*
X183869D01*
Y92600D01*
X184470D01*
Y92450D01*
X185071D01*
Y92300D01*
X185521D01*
Y92150D01*
X186122D01*
Y92000D01*
X186722D01*
Y92150D01*
X186272D01*
Y92300D01*
X185971D01*
Y92450D01*
X185371D01*
Y92600D01*
X184770D01*
Y92750D01*
X185671D01*
Y92600D01*
X186122D01*
Y92450D01*
X186572D01*
Y92300D01*
X186872D01*
Y92150D01*
X187323D01*
Y92000D01*
X187924D01*
Y91849D01*
X188374D01*
Y91699D01*
X188674D01*
Y91549D01*
X188824D01*
Y91699D01*
X188974D01*
Y91549D01*
X189875D01*
Y91699D01*
X190026D01*
Y91849D01*
X190176D01*
Y92000D01*
X189875D01*
Y91849D01*
X189725D01*
Y92000D01*
X189575D01*
Y92150D01*
X190026D01*
Y92450D01*
X190176D01*
Y92901D01*
X190026D01*
Y93201D01*
X189875D01*
Y93351D01*
X189575D01*
Y93651D01*
X189425D01*
Y93801D01*
X188974D01*
Y93952D01*
X188824D01*
Y94102D01*
X188374D01*
Y94252D01*
X187924D01*
Y94402D01*
X187173D01*
Y94552D01*
X186872D01*
Y94702D01*
X186122D01*
Y94853D01*
X185371D01*
Y95003D01*
X184920D01*
Y95153D01*
X184470D01*
Y95303D01*
X184170D01*
Y95453D01*
X183719D01*
Y95603D01*
X183569D01*
Y95754D01*
X183419D01*
Y95904D01*
X183269D01*
Y96054D01*
X182968D01*
Y96504D01*
X182818D01*
Y96654D01*
X182668D01*
Y97105D01*
X182518D01*
Y98156D01*
X182668D01*
Y98757D01*
X182818D01*
Y99057D01*
X182968D01*
Y99207D01*
X183118D01*
Y99357D01*
X183419D01*
Y99658D01*
X185221D01*
Y99507D01*
X185521D01*
Y99357D01*
X186122D01*
Y99207D01*
X187323D01*
Y99357D01*
X187773D01*
Y99507D01*
X187924D01*
Y99958D01*
X187773D01*
Y100108D01*
X187623D01*
Y100408D01*
X187473D01*
Y100709D01*
X187323D01*
Y100859D01*
X187173D01*
Y101009D01*
X186722D01*
Y101159D01*
X186572D01*
Y101309D01*
X185971D01*
Y101459D01*
X185221D01*
Y101610D01*
X184320D01*
Y101760D01*
D02*
G37*
G36*
X183719Y96204D02*
X183569D01*
Y96054D01*
X183719D01*
Y96204D01*
D02*
G37*
G36*
X194981Y95754D02*
X194831D01*
Y95603D01*
X194981D01*
Y95754D01*
D02*
G37*
G36*
X194831Y95453D02*
X194530D01*
Y95303D01*
X194380D01*
Y95003D01*
X194530D01*
Y95153D01*
X194681D01*
Y95303D01*
X194831D01*
Y95453D01*
D02*
G37*
G36*
X194380Y95003D02*
X194230D01*
Y94853D01*
X194080D01*
Y94702D01*
X193930D01*
Y94552D01*
X193780D01*
Y94252D01*
X193629D01*
Y94102D01*
X193479D01*
Y93801D01*
X193329D01*
Y93651D01*
X193179D01*
Y93201D01*
X193029D01*
Y93051D01*
X192879D01*
Y92901D01*
Y92750D01*
X192728D01*
Y92600D01*
X192578D01*
Y92450D01*
X192728D01*
Y92300D01*
X192879D01*
Y92450D01*
X193179D01*
Y92600D01*
X193329D01*
Y92750D01*
X193479D01*
Y93351D01*
X193629D01*
Y93501D01*
X193780D01*
Y93952D01*
X193930D01*
Y94252D01*
X194080D01*
Y94552D01*
X194230D01*
Y94702D01*
X194380D01*
Y95003D01*
D02*
G37*
G36*
X193179Y105964D02*
X191677D01*
Y105814D01*
X191077D01*
Y105664D01*
X190927D01*
Y105514D01*
X190626D01*
Y105364D01*
X190476D01*
Y105213D01*
X190176D01*
Y104913D01*
X190026D01*
Y104613D01*
X189875D01*
Y104162D01*
X189575D01*
Y103712D01*
X189425D01*
Y103111D01*
X189275D01*
Y102961D01*
X189125D01*
Y102661D01*
X188974D01*
Y102360D01*
X188824D01*
Y102060D01*
X188524D01*
Y101910D01*
X188374D01*
Y101610D01*
X188224D01*
Y101459D01*
X188074D01*
Y101309D01*
X187924D01*
Y101009D01*
X187773D01*
Y100408D01*
X187924D01*
Y100108D01*
X188074D01*
Y99958D01*
X188674D01*
Y99808D01*
X188824D01*
Y99958D01*
X189575D01*
Y100258D01*
X189875D01*
Y100408D01*
X190026D01*
Y100558D01*
X190176D01*
Y100709D01*
X190326D01*
Y101009D01*
X190476D01*
Y101309D01*
X190626D01*
Y101459D01*
X190776D01*
Y101910D01*
X191077D01*
Y102210D01*
X191227D01*
Y102360D01*
X191377D01*
Y102510D01*
X191677D01*
Y102661D01*
X192728D01*
Y102510D01*
X193029D01*
Y102360D01*
X193179D01*
Y102210D01*
X193329D01*
Y102060D01*
X193479D01*
Y101760D01*
X193629D01*
Y101610D01*
X193780D01*
Y99207D01*
X193629D01*
Y99057D01*
X193479D01*
Y98306D01*
X193329D01*
Y98006D01*
X193179D01*
Y97706D01*
X193029D01*
Y97555D01*
X192879D01*
Y97405D01*
X192728D01*
Y97105D01*
X192578D01*
Y96955D01*
X192428D01*
Y96805D01*
X192278D01*
Y96504D01*
X192128D01*
Y96354D01*
X191978D01*
Y96204D01*
X191827D01*
Y95904D01*
X191677D01*
Y95754D01*
X191527D01*
Y95603D01*
X191377D01*
Y95453D01*
X191227D01*
Y95303D01*
X191077D01*
Y95003D01*
X190927D01*
Y94853D01*
X190776D01*
Y94552D01*
X190626D01*
Y94102D01*
X190476D01*
Y93201D01*
X190626D01*
Y93051D01*
X190776D01*
Y92750D01*
X191377D01*
Y92901D01*
X191527D01*
Y93051D01*
X191827D01*
Y93201D01*
X192128D01*
Y93501D01*
X192278D01*
Y93801D01*
X192428D01*
Y93952D01*
X192578D01*
Y94252D01*
X192728D01*
Y94402D01*
X192879D01*
Y94702D01*
X193029D01*
Y94853D01*
X193179D01*
Y95153D01*
X193329D01*
Y95303D01*
X193479D01*
Y95603D01*
X193629D01*
Y95754D01*
X193780D01*
Y95904D01*
X193930D01*
Y96204D01*
X194080D01*
Y96354D01*
X194230D01*
Y96504D01*
X194380D01*
Y96654D01*
X194530D01*
Y96955D01*
X194831D01*
Y97105D01*
X194981D01*
Y97255D01*
X195131D01*
Y97555D01*
X195431D01*
Y97706D01*
X195581D01*
Y97856D01*
X195732D01*
Y97706D01*
Y97555D01*
X195581D01*
Y97405D01*
X195431D01*
Y97105D01*
X195131D01*
Y96955D01*
X194981D01*
Y96654D01*
X194831D01*
Y96504D01*
X194530D01*
Y96204D01*
X194380D01*
Y96054D01*
X194230D01*
Y95904D01*
X194080D01*
Y95754D01*
X193930D01*
Y95453D01*
X193780D01*
Y95153D01*
X193479D01*
Y94853D01*
X193329D01*
Y94552D01*
X193179D01*
Y94252D01*
X193029D01*
Y94102D01*
X192879D01*
Y93952D01*
X192728D01*
Y93651D01*
X192428D01*
Y93351D01*
X192278D01*
Y93201D01*
X192128D01*
Y93051D01*
X191978D01*
Y92901D01*
X191827D01*
Y92750D01*
X191527D01*
Y92600D01*
X191377D01*
Y92450D01*
X191227D01*
Y92300D01*
X191377D01*
Y92150D01*
X191677D01*
Y92300D01*
X191978D01*
Y92450D01*
X192128D01*
Y92600D01*
X192278D01*
Y92750D01*
X192428D01*
Y93051D01*
X192578D01*
Y93201D01*
X192728D01*
Y93351D01*
X192879D01*
Y93651D01*
X193029D01*
Y93801D01*
X193179D01*
Y94102D01*
X193329D01*
Y94402D01*
X193479D01*
Y94702D01*
X193780D01*
Y95003D01*
X194080D01*
Y95303D01*
X194230D01*
Y95453D01*
X194380D01*
Y95603D01*
X194530D01*
Y95754D01*
X194681D01*
Y95904D01*
X194831D01*
Y96054D01*
X194981D01*
Y96354D01*
X195131D01*
Y96504D01*
X195281D01*
Y96654D01*
X195581D01*
Y96955D01*
X195732D01*
Y97255D01*
X195882D01*
Y97405D01*
X196032D01*
Y97706D01*
X196182D01*
Y98606D01*
X196332D01*
Y98757D01*
X196482D01*
Y102510D01*
X196182D01*
Y103261D01*
X196032D01*
Y103562D01*
X195882D01*
Y103712D01*
X195732D01*
Y104012D01*
X195581D01*
Y104162D01*
X195431D01*
Y104463D01*
X195281D01*
Y104613D01*
X195131D01*
Y104763D01*
X194981D01*
Y104913D01*
X194831D01*
Y105213D01*
X194380D01*
Y105364D01*
X194230D01*
Y105514D01*
X193930D01*
Y105664D01*
X193780D01*
Y105814D01*
X193179D01*
Y105964D01*
D02*
G37*
G36*
X190326Y92150D02*
X190176D01*
Y92000D01*
X190326D01*
Y92150D01*
D02*
G37*
G36*
X187173Y92000D02*
X186872D01*
Y91849D01*
X187173D01*
Y92000D01*
D02*
G37*
G36*
X187773Y91849D02*
X187323D01*
Y91699D01*
X187623D01*
Y91549D01*
X187924D01*
Y91399D01*
X188224D01*
Y91249D01*
X188524D01*
Y91099D01*
X189875D01*
Y91249D01*
X188824D01*
Y91399D01*
X188374D01*
Y91549D01*
X187924D01*
Y91699D01*
X187773D01*
Y91849D01*
D02*
G37*
%LPD*%
G36*
X182818Y117076D02*
X183419D01*
Y116926D01*
X183719D01*
Y116625D01*
X183869D01*
Y116475D01*
X184019D01*
Y116325D01*
X183869D01*
Y116475D01*
X183569D01*
Y116625D01*
X183269D01*
Y116775D01*
X182218D01*
Y116625D01*
X181917D01*
Y116475D01*
X181617D01*
Y116325D01*
X181467D01*
Y116175D01*
X181317D01*
Y116024D01*
X181167D01*
Y115874D01*
X181016D01*
Y116024D01*
Y116175D01*
Y116475D01*
X181167D01*
Y116625D01*
X181317D01*
Y116926D01*
X181617D01*
Y117076D01*
X182218D01*
Y117226D01*
X182518D01*
Y117376D01*
X182818D01*
Y117076D01*
D02*
G37*
G36*
X183569Y114973D02*
X183719D01*
Y114823D01*
X183869D01*
Y114673D01*
X184019D01*
Y114073D01*
X184170D01*
Y113922D01*
X184019D01*
Y113772D01*
Y113622D01*
X183869D01*
Y113472D01*
X183719D01*
Y113322D01*
X183569D01*
Y113172D01*
X182668D01*
Y113322D01*
X182518D01*
Y113472D01*
X182368D01*
Y113622D01*
X182218D01*
Y114073D01*
X182668D01*
Y114823D01*
X182368D01*
Y114973D01*
X182518D01*
Y115124D01*
X183569D01*
Y114973D01*
D02*
G37*
G36*
X175911Y113622D02*
X176362D01*
Y113472D01*
X176662D01*
Y113172D01*
X176362D01*
Y113322D01*
X176211D01*
Y113472D01*
X175010D01*
Y113322D01*
X174860D01*
Y113172D01*
X174560D01*
Y113021D01*
X174409D01*
Y112721D01*
X174109D01*
Y112120D01*
X173959D01*
Y111370D01*
X174109D01*
Y111220D01*
X173959D01*
Y111370D01*
X173809D01*
Y111820D01*
X173659D01*
Y112421D01*
X173809D01*
Y112871D01*
X173959D01*
Y113172D01*
X174109D01*
Y113472D01*
X174409D01*
Y113622D01*
X174710D01*
Y113772D01*
X175911D01*
Y113622D01*
D02*
G37*
G36*
X188074Y112571D02*
X188524D01*
Y112421D01*
X188824D01*
Y112271D01*
X188974D01*
Y112120D01*
X189125D01*
Y111970D01*
X188824D01*
Y112120D01*
X188374D01*
Y111970D01*
X188524D01*
Y111520D01*
X188374D01*
Y111370D01*
X188524D01*
Y111220D01*
X188374D01*
Y110319D01*
X188224D01*
Y109718D01*
X188074D01*
Y109267D01*
X187924D01*
Y109117D01*
Y108967D01*
X187773D01*
Y108667D01*
X187623D01*
Y108217D01*
X187473D01*
Y108066D01*
X187323D01*
Y107766D01*
X187173D01*
Y107466D01*
X187022D01*
Y107316D01*
X186872D01*
Y106715D01*
X186722D01*
Y106415D01*
X186572D01*
Y106114D01*
X186422D01*
Y105814D01*
X186272D01*
Y105514D01*
X186122D01*
Y105213D01*
X185971D01*
Y104913D01*
X185671D01*
Y104613D01*
X185371D01*
Y104463D01*
X185221D01*
Y104162D01*
X184920D01*
Y104012D01*
X184770D01*
Y103862D01*
X184470D01*
Y103712D01*
X184170D01*
Y103562D01*
X183869D01*
Y103411D01*
X183419D01*
Y103261D01*
X181467D01*
Y103411D01*
X180716D01*
Y103562D01*
X180115D01*
Y103712D01*
X179515D01*
Y103862D01*
X178914D01*
Y104012D01*
X178764D01*
Y104162D01*
X178163D01*
Y104312D01*
X177863D01*
Y104463D01*
X177413D01*
Y104613D01*
X177112D01*
Y104763D01*
X176662D01*
Y104913D01*
X176211D01*
Y105213D01*
X175911D01*
Y105364D01*
X175761D01*
Y105514D01*
X175611D01*
Y105364D01*
X175461D01*
Y105514D01*
X175160D01*
Y105664D01*
Y105814D01*
Y106264D01*
X175310D01*
Y106415D01*
X175461D01*
Y106565D01*
X175611D01*
Y106715D01*
X175761D01*
Y106415D01*
X175611D01*
Y105664D01*
X175761D01*
Y105514D01*
X176061D01*
Y105364D01*
X176211D01*
Y105213D01*
X176662D01*
Y105063D01*
Y104913D01*
X177262D01*
Y104763D01*
X177713D01*
Y104613D01*
X178314D01*
Y104463D01*
X179064D01*
Y104312D01*
X181617D01*
Y104463D01*
X182218D01*
Y104613D01*
X182818D01*
Y104763D01*
X183269D01*
Y104913D01*
X183719D01*
Y105063D01*
X183869D01*
Y105213D01*
X184320D01*
Y105364D01*
X184620D01*
Y105514D01*
X184770D01*
Y105664D01*
X184920D01*
Y105814D01*
X185221D01*
Y105964D01*
X185521D01*
Y106264D01*
X185671D01*
Y106415D01*
X185971D01*
Y106715D01*
X186122D01*
Y106865D01*
X186272D01*
Y107015D01*
X186422D01*
Y107165D01*
X186572D01*
Y107466D01*
X186722D01*
Y107616D01*
X186872D01*
Y108066D01*
X187173D01*
Y108517D01*
X187323D01*
Y108817D01*
X187473D01*
Y108967D01*
X187623D01*
Y109418D01*
X187773D01*
Y109868D01*
X187924D01*
Y110469D01*
X188074D01*
Y110919D01*
X188224D01*
Y112271D01*
X188074D01*
Y112421D01*
X187323D01*
Y112721D01*
X188074D01*
Y112571D01*
D02*
G37*
G36*
X181467Y111670D02*
Y111520D01*
X179965D01*
Y111820D01*
X181467D01*
Y111670D01*
D02*
G37*
G36*
X179815Y111370D02*
X179515D01*
Y111220D01*
X179365D01*
Y111069D01*
X179064D01*
Y111370D01*
X179214D01*
Y111520D01*
X179815D01*
Y111370D01*
D02*
G37*
G36*
X179064Y110919D02*
X178914D01*
Y111069D01*
X179064D01*
Y110919D01*
D02*
G37*
G36*
X178914Y110769D02*
X178764D01*
Y110919D01*
X178914D01*
Y110769D01*
D02*
G37*
G36*
X178614Y110319D02*
X178464D01*
Y110469D01*
X178614D01*
Y110319D01*
D02*
G37*
G36*
X176362Y111820D02*
X176812D01*
Y111370D01*
X176962D01*
Y111220D01*
X177112D01*
Y110769D01*
X176812D01*
Y110319D01*
X176512D01*
Y110169D01*
X175761D01*
Y110319D01*
X175611D01*
Y110469D01*
X175310D01*
Y110619D01*
X175160D01*
Y110769D01*
X175461D01*
Y110919D01*
X175611D01*
Y111820D01*
Y111970D01*
X176362D01*
Y111820D01*
D02*
G37*
G36*
X181317Y110769D02*
X181167D01*
Y110619D01*
X181016D01*
Y110469D01*
X180716D01*
Y110169D01*
X180566D01*
Y109868D01*
X180416D01*
Y109718D01*
X178764D01*
Y110018D01*
X178914D01*
Y110169D01*
X179365D01*
Y110018D01*
X179815D01*
Y109868D01*
X180265D01*
Y110018D01*
X180416D01*
Y110319D01*
X180566D01*
Y110769D01*
X180716D01*
Y110919D01*
X181016D01*
Y111069D01*
X181317D01*
Y110769D01*
D02*
G37*
G36*
X178464Y110018D02*
Y109868D01*
Y109718D01*
X178314D01*
Y110319D01*
X178464D01*
Y110018D01*
D02*
G37*
G36*
X182818Y93351D02*
X182518D01*
Y93651D01*
X182818D01*
Y93351D01*
D02*
G37*
G36*
X183719D02*
X184770D01*
Y93201D01*
X185521D01*
Y93051D01*
X186422D01*
Y92901D01*
X186722D01*
Y92750D01*
X187473D01*
Y92600D01*
X187924D01*
Y92450D01*
X188374D01*
Y92300D01*
X188674D01*
Y92150D01*
X189125D01*
Y92000D01*
X189425D01*
Y91849D01*
X189125D01*
Y92000D01*
X188374D01*
Y92150D01*
X188074D01*
Y92300D01*
X187623D01*
Y92450D01*
X187173D01*
Y92600D01*
X186722D01*
Y92750D01*
X185821D01*
Y92901D01*
X185521D01*
Y93051D01*
X184620D01*
Y93201D01*
X183569D01*
Y93351D01*
X183269D01*
Y93501D01*
X183719D01*
Y93351D01*
D02*
G37*
G36*
X196032Y98006D02*
X195882D01*
Y97856D01*
X195732D01*
Y98006D01*
Y98156D01*
X196032D01*
Y98006D01*
D02*
G37*
D16*
X132976Y83378D02*
Y116031D01*
X144600Y121355D02*
X150676D01*
Y114618D02*
Y121355D01*
X144600Y78055D02*
X150676D01*
Y84792D01*
D73*
X151326Y125205D02*
G03*
X151326Y125205I-500J0D01*
G01*
X151141D02*
G03*
X151141Y125205I-315J0D01*
G01*
D74*
X192507Y72060D02*
Y75602D01*
X191326Y74421D01*
X190146Y75602D01*
Y72060D01*
X187194D02*
X188375D01*
X188965Y72650D01*
Y73830D01*
X188375Y74421D01*
X187194D01*
X186603Y73830D01*
Y73240D01*
X188965D01*
X184242Y70879D02*
X183652D01*
X183061Y71469D01*
Y74421D01*
X184832D01*
X185423Y73830D01*
Y72650D01*
X184832Y72060D01*
X183061D01*
X181881Y75602D02*
Y72060D01*
Y73830D01*
X181290Y74421D01*
X180110D01*
X179519Y73830D01*
Y72060D01*
X177748Y74421D02*
X176567D01*
X175977Y73830D01*
Y72060D01*
X177748D01*
X178338Y72650D01*
X177748Y73240D01*
X175977D01*
X174796Y72060D02*
Y74421D01*
X173025D01*
X172435Y73830D01*
Y72060D01*
X167712Y75602D02*
Y72060D01*
X165941D01*
X165350Y72650D01*
Y75011D01*
X165941Y75602D01*
X167712D01*
X163579Y74421D02*
X162399D01*
X161808Y73830D01*
Y72060D01*
X163579D01*
X164170Y72650D01*
X163579Y73240D01*
X161808D01*
X160628Y72060D02*
Y74421D01*
X158857D01*
X158266Y73830D01*
Y72060D01*
X155905Y70879D02*
X155314D01*
X154724Y71469D01*
Y74421D01*
X156495D01*
X157086Y73830D01*
Y72650D01*
X156495Y72060D01*
X154724D01*
X198609Y69303D02*
Y65761D01*
X196838D01*
X196248Y66351D01*
Y68712D01*
X196838Y69303D01*
X198609D01*
X194477Y68122D02*
X193296D01*
X192706Y67532D01*
Y65761D01*
X194477D01*
X195067Y66351D01*
X194477Y66941D01*
X192706D01*
X191525Y65761D02*
Y68122D01*
X189754D01*
X189164Y67532D01*
Y65761D01*
X187983D02*
X186802D01*
X187393D01*
Y68122D01*
X187983D01*
X183260Y65761D02*
X184441D01*
X185031Y66351D01*
Y67532D01*
X184441Y68122D01*
X183260D01*
X182670Y67532D01*
Y66941D01*
X185031D01*
X181489Y65761D02*
X180308D01*
X180899D01*
Y69303D01*
X181489D01*
X174995Y65761D02*
Y69303D01*
X173224D01*
X172634Y68712D01*
Y67532D01*
X173224Y66941D01*
X174995D01*
X171453Y68122D02*
Y66351D01*
X170862Y65761D01*
X169091D01*
Y68122D01*
X167911D02*
Y65761D01*
Y66941D01*
X167320Y67532D01*
X166730Y68122D01*
X166140D01*
X163778D02*
X162598D01*
X162007Y67532D01*
Y65761D01*
X163778D01*
X164369Y66351D01*
X163778Y66941D01*
X162007D01*
X160236Y68712D02*
Y68122D01*
X160826D01*
X159646D01*
X160236D01*
Y66351D01*
X159646Y65761D01*
X157875D02*
X156694D01*
X157284D01*
Y68122D01*
X157875D01*
X152561D02*
X154332D01*
X154923Y67532D01*
Y66351D01*
X154332Y65761D01*
X152561D01*
X151381Y69303D02*
Y65761D01*
Y67532D01*
X150790Y68122D01*
X149610D01*
X149019Y67532D01*
Y65761D01*
X207862Y63397D02*
X210224D01*
Y59855D01*
X207862D01*
X210224Y61626D02*
X209043D01*
X204320Y62806D02*
X204910Y63397D01*
X206091D01*
X206681Y62806D01*
Y62216D01*
X206091Y61626D01*
X204910D01*
X204320Y61036D01*
Y60445D01*
X204910Y59855D01*
X206091D01*
X206681Y60445D01*
X200778Y62806D02*
X201368Y63397D01*
X202549D01*
X203139Y62806D01*
Y60445D01*
X202549Y59855D01*
X201368D01*
X200778Y60445D01*
X193693Y62806D02*
X194284Y63397D01*
X195465D01*
X196055Y62806D01*
Y60445D01*
X195465Y59855D01*
X194284D01*
X193693Y60445D01*
X191922Y62216D02*
X190742D01*
X190151Y61626D01*
Y59855D01*
X191922D01*
X192513Y60445D01*
X191922Y61036D01*
X190151D01*
X188971Y59855D02*
Y62216D01*
X187200D01*
X186609Y61626D01*
Y59855D01*
X181886D02*
Y62216D01*
X180706Y63397D01*
X179525Y62216D01*
Y59855D01*
Y61626D01*
X181886D01*
X175983Y63397D02*
Y59855D01*
X177754D01*
X178344Y60445D01*
Y61626D01*
X177754Y62216D01*
X175983D01*
X174212D02*
X173031D01*
X172441Y61626D01*
Y59855D01*
X174212D01*
X174802Y60445D01*
X174212Y61036D01*
X172441D01*
X171260Y58674D02*
Y62216D01*
X169489D01*
X168898Y61626D01*
Y60445D01*
X169489Y59855D01*
X171260D01*
X167127Y62806D02*
Y62216D01*
X167718D01*
X166537D01*
X167127D01*
Y60445D01*
X166537Y59855D01*
X162995D02*
X164175D01*
X164766Y60445D01*
Y61626D01*
X164175Y62216D01*
X162995D01*
X162405Y61626D01*
Y61036D01*
X164766D01*
X161224Y62216D02*
Y59855D01*
Y61036D01*
X160633Y61626D01*
X160043Y62216D01*
X159453D01*
X154139Y61626D02*
X151778D01*
X144694Y62806D02*
X145284Y63397D01*
X146465D01*
X147055Y62806D01*
Y62216D01*
X146465Y61626D01*
X145284D01*
X144694Y61036D01*
Y60445D01*
X145284Y59855D01*
X146465D01*
X147055Y60445D01*
X141151Y59855D02*
X143513D01*
X141151Y62216D01*
Y62806D01*
X141742Y63397D01*
X142923D01*
X143513Y62806D01*
X138200Y59855D02*
Y63397D01*
X139971Y61626D01*
X137609D01*
M02*
