G04*
G04 #@! TF.GenerationSoftware,Altium Limited,Altium Designer,24.7.2 (38)*
G04*
G04 Layer_Color=8388736*
%FSLAX25Y25*%
%MOIN*%
G70*
G04*
G04 #@! TF.SameCoordinates,0AE953C0-7C88-47E9-B79E-664DAA7B62C1*
G04*
G04*
G04 #@! TF.FilePolarity,Negative*
G04*
G01*
G75*
G04:AMPARAMS|DCode=38|XSize=31.62mil|YSize=19.81mil|CornerRadius=4.59mil|HoleSize=0mil|Usage=FLASHONLY|Rotation=180.000|XOffset=0mil|YOffset=0mil|HoleType=Round|Shape=RoundedRectangle|*
%AMROUNDEDRECTD38*
21,1,0.03162,0.01063,0,0,180.0*
21,1,0.02244,0.01981,0,0,180.0*
1,1,0.00918,-0.01122,0.00532*
1,1,0.00918,0.01122,0.00532*
1,1,0.00918,0.01122,-0.00532*
1,1,0.00918,-0.01122,-0.00532*
%
%ADD38ROUNDEDRECTD38*%
G04:AMPARAMS|DCode=39|XSize=31.62mil|YSize=19.81mil|CornerRadius=4.59mil|HoleSize=0mil|Usage=FLASHONLY|Rotation=90.000|XOffset=0mil|YOffset=0mil|HoleType=Round|Shape=RoundedRectangle|*
%AMROUNDEDRECTD39*
21,1,0.03162,0.01063,0,0,90.0*
21,1,0.02244,0.01981,0,0,90.0*
1,1,0.00918,0.00532,0.01122*
1,1,0.00918,0.00532,-0.01122*
1,1,0.00918,-0.00532,-0.01122*
1,1,0.00918,-0.00532,0.01122*
%
%ADD39ROUNDEDRECTD39*%
G04:AMPARAMS|DCode=40|XSize=143.83mil|YSize=143.83mil|CornerRadius=7.4mil|HoleSize=0mil|Usage=FLASHONLY|Rotation=90.000|XOffset=0mil|YOffset=0mil|HoleType=Round|Shape=RoundedRectangle|*
%AMROUNDEDRECTD40*
21,1,0.14383,0.12903,0,0,90.0*
21,1,0.12903,0.14383,0,0,90.0*
1,1,0.01479,0.06452,0.06452*
1,1,0.01479,0.06452,-0.06452*
1,1,0.01479,-0.06452,-0.06452*
1,1,0.01479,-0.06452,0.06452*
%
%ADD40ROUNDEDRECTD40*%
G04:AMPARAMS|DCode=41|XSize=43.43mil|YSize=23.75mil|CornerRadius=5.18mil|HoleSize=0mil|Usage=FLASHONLY|Rotation=0.000|XOffset=0mil|YOffset=0mil|HoleType=Round|Shape=RoundedRectangle|*
%AMROUNDEDRECTD41*
21,1,0.04343,0.01339,0,0,0.0*
21,1,0.03307,0.02375,0,0,0.0*
1,1,0.01036,0.01654,-0.00669*
1,1,0.01036,-0.01654,-0.00669*
1,1,0.01036,-0.01654,0.00669*
1,1,0.01036,0.01654,0.00669*
%
%ADD41ROUNDEDRECTD41*%
G04:AMPARAMS|DCode=42|XSize=51.31mil|YSize=47.37mil|CornerRadius=6.95mil|HoleSize=0mil|Usage=FLASHONLY|Rotation=180.000|XOffset=0mil|YOffset=0mil|HoleType=Round|Shape=RoundedRectangle|*
%AMROUNDEDRECTD42*
21,1,0.05131,0.03347,0,0,180.0*
21,1,0.03740,0.04737,0,0,180.0*
1,1,0.01391,-0.01870,0.01673*
1,1,0.01391,0.01870,0.01673*
1,1,0.01391,0.01870,-0.01673*
1,1,0.01391,-0.01870,-0.01673*
%
%ADD42ROUNDEDRECTD42*%
G04:AMPARAMS|DCode=43|XSize=47.37mil|YSize=43.43mil|CornerRadius=5.77mil|HoleSize=0mil|Usage=FLASHONLY|Rotation=90.000|XOffset=0mil|YOffset=0mil|HoleType=Round|Shape=RoundedRectangle|*
%AMROUNDEDRECTD43*
21,1,0.04737,0.03189,0,0,90.0*
21,1,0.03583,0.04343,0,0,90.0*
1,1,0.01154,0.01595,0.01791*
1,1,0.01154,0.01595,-0.01791*
1,1,0.01154,-0.01595,-0.01791*
1,1,0.01154,-0.01595,0.01791*
%
%ADD43ROUNDEDRECTD43*%
G04:AMPARAMS|DCode=44|XSize=72.96mil|YSize=104.46mil|CornerRadius=8.87mil|HoleSize=0mil|Usage=FLASHONLY|Rotation=180.000|XOffset=0mil|YOffset=0mil|HoleType=Round|Shape=RoundedRectangle|*
%AMROUNDEDRECTD44*
21,1,0.07296,0.08671,0,0,180.0*
21,1,0.05522,0.10446,0,0,180.0*
1,1,0.01774,-0.02761,0.04336*
1,1,0.01774,0.02761,0.04336*
1,1,0.01774,0.02761,-0.04336*
1,1,0.01774,-0.02761,-0.04336*
%
%ADD44ROUNDEDRECTD44*%
G04:AMPARAMS|DCode=45|XSize=28.67mil|YSize=19.81mil|CornerRadius=4.89mil|HoleSize=0mil|Usage=FLASHONLY|Rotation=180.000|XOffset=0mil|YOffset=0mil|HoleType=Round|Shape=RoundedRectangle|*
%AMROUNDEDRECTD45*
21,1,0.02867,0.01004,0,0,180.0*
21,1,0.01890,0.01981,0,0,180.0*
1,1,0.00977,-0.00945,0.00502*
1,1,0.00977,0.00945,0.00502*
1,1,0.00977,0.00945,-0.00502*
1,1,0.00977,-0.00945,-0.00502*
%
%ADD45ROUNDEDRECTD45*%
G04:AMPARAMS|DCode=46|XSize=49.34mil|YSize=31.62mil|CornerRadius=5.18mil|HoleSize=0mil|Usage=FLASHONLY|Rotation=0.000|XOffset=0mil|YOffset=0mil|HoleType=Round|Shape=RoundedRectangle|*
%AMROUNDEDRECTD46*
21,1,0.04934,0.02126,0,0,0.0*
21,1,0.03898,0.03162,0,0,0.0*
1,1,0.01036,0.01949,-0.01063*
1,1,0.01036,-0.01949,-0.01063*
1,1,0.01036,-0.01949,0.01063*
1,1,0.01036,0.01949,0.01063*
%
%ADD46ROUNDEDRECTD46*%
G04:AMPARAMS|DCode=47|XSize=51.31mil|YSize=31.62mil|CornerRadius=5.18mil|HoleSize=0mil|Usage=FLASHONLY|Rotation=0.000|XOffset=0mil|YOffset=0mil|HoleType=Round|Shape=RoundedRectangle|*
%AMROUNDEDRECTD47*
21,1,0.05131,0.02126,0,0,0.0*
21,1,0.04095,0.03162,0,0,0.0*
1,1,0.01036,0.02047,-0.01063*
1,1,0.01036,-0.02047,-0.01063*
1,1,0.01036,-0.02047,0.01063*
1,1,0.01036,0.02047,0.01063*
%
%ADD47ROUNDEDRECTD47*%
G04:AMPARAMS|DCode=48|XSize=31.62mil|YSize=74.93mil|CornerRadius=5.18mil|HoleSize=0mil|Usage=FLASHONLY|Rotation=270.000|XOffset=0mil|YOffset=0mil|HoleType=Round|Shape=RoundedRectangle|*
%AMROUNDEDRECTD48*
21,1,0.03162,0.06457,0,0,270.0*
21,1,0.02126,0.07493,0,0,270.0*
1,1,0.01036,-0.03228,-0.01063*
1,1,0.01036,-0.03228,0.01063*
1,1,0.01036,0.03228,0.01063*
1,1,0.01036,0.03228,-0.01063*
%
%ADD48ROUNDEDRECTD48*%
G04:AMPARAMS|DCode=49|XSize=47.37mil|YSize=114.3mil|CornerRadius=5.97mil|HoleSize=0mil|Usage=FLASHONLY|Rotation=270.000|XOffset=0mil|YOffset=0mil|HoleType=Round|Shape=RoundedRectangle|*
%AMROUNDEDRECTD49*
21,1,0.04737,0.10236,0,0,270.0*
21,1,0.03543,0.11430,0,0,270.0*
1,1,0.01194,-0.05118,-0.01772*
1,1,0.01194,-0.05118,0.01772*
1,1,0.01194,0.05118,0.01772*
1,1,0.01194,0.05118,-0.01772*
%
%ADD49ROUNDEDRECTD49*%
G04:AMPARAMS|DCode=50|XSize=47.37mil|YSize=51.31mil|CornerRadius=6.95mil|HoleSize=0mil|Usage=FLASHONLY|Rotation=270.000|XOffset=0mil|YOffset=0mil|HoleType=Round|Shape=RoundedRectangle|*
%AMROUNDEDRECTD50*
21,1,0.04737,0.03740,0,0,270.0*
21,1,0.03347,0.05131,0,0,270.0*
1,1,0.01391,-0.01870,-0.01673*
1,1,0.01391,-0.01870,0.01673*
1,1,0.01391,0.01870,0.01673*
1,1,0.01391,0.01870,-0.01673*
%
%ADD50ROUNDEDRECTD50*%
G04:AMPARAMS|DCode=51|XSize=59.18mil|YSize=67.06mil|CornerRadius=7.84mil|HoleSize=0mil|Usage=FLASHONLY|Rotation=180.000|XOffset=0mil|YOffset=0mil|HoleType=Round|Shape=RoundedRectangle|*
%AMROUNDEDRECTD51*
21,1,0.05918,0.05138,0,0,180.0*
21,1,0.04350,0.06706,0,0,180.0*
1,1,0.01568,-0.02175,0.02569*
1,1,0.01568,0.02175,0.02569*
1,1,0.01568,0.02175,-0.02569*
1,1,0.01568,-0.02175,-0.02569*
%
%ADD51ROUNDEDRECTD51*%
G04:AMPARAMS|DCode=52|XSize=204.85mil|YSize=55.24mil|CornerRadius=7.54mil|HoleSize=0mil|Usage=FLASHONLY|Rotation=0.000|XOffset=0mil|YOffset=0mil|HoleType=Round|Shape=RoundedRectangle|*
%AMROUNDEDRECTD52*
21,1,0.20485,0.04016,0,0,0.0*
21,1,0.18976,0.05524,0,0,0.0*
1,1,0.01509,0.09488,-0.02008*
1,1,0.01509,-0.09488,-0.02008*
1,1,0.01509,-0.09488,0.02008*
1,1,0.01509,0.09488,0.02008*
%
%ADD52ROUNDEDRECTD52*%
G04:AMPARAMS|DCode=53|XSize=86.74mil|YSize=86.74mil|CornerRadius=9.91mil|HoleSize=0mil|Usage=FLASHONLY|Rotation=0.000|XOffset=0mil|YOffset=0mil|HoleType=Round|Shape=RoundedRectangle|*
%AMROUNDEDRECTD53*
21,1,0.08674,0.06693,0,0,0.0*
21,1,0.06693,0.08674,0,0,0.0*
1,1,0.01981,0.03347,-0.03347*
1,1,0.01981,-0.03347,-0.03347*
1,1,0.01981,-0.03347,0.03347*
1,1,0.01981,0.03347,0.03347*
%
%ADD53ROUNDEDRECTD53*%
G04:AMPARAMS|DCode=54|XSize=106.42mil|YSize=55.24mil|CornerRadius=7.54mil|HoleSize=0mil|Usage=FLASHONLY|Rotation=90.000|XOffset=0mil|YOffset=0mil|HoleType=Round|Shape=RoundedRectangle|*
%AMROUNDEDRECTD54*
21,1,0.10642,0.04016,0,0,90.0*
21,1,0.09134,0.05524,0,0,90.0*
1,1,0.01509,0.02008,0.04567*
1,1,0.01509,0.02008,-0.04567*
1,1,0.01509,-0.02008,-0.04567*
1,1,0.01509,-0.02008,0.04567*
%
%ADD54ROUNDEDRECTD54*%
G04:AMPARAMS|DCode=55|XSize=47.37mil|YSize=51.31mil|CornerRadius=6.95mil|HoleSize=0mil|Usage=FLASHONLY|Rotation=0.000|XOffset=0mil|YOffset=0mil|HoleType=Round|Shape=RoundedRectangle|*
%AMROUNDEDRECTD55*
21,1,0.04737,0.03740,0,0,0.0*
21,1,0.03347,0.05131,0,0,0.0*
1,1,0.01391,0.01673,-0.01870*
1,1,0.01391,-0.01673,-0.01870*
1,1,0.01391,-0.01673,0.01870*
1,1,0.01391,0.01673,0.01870*
%
%ADD55ROUNDEDRECTD55*%
G04:AMPARAMS|DCode=56|XSize=23.75mil|YSize=29.65mil|CornerRadius=4.79mil|HoleSize=0mil|Usage=FLASHONLY|Rotation=90.000|XOffset=0mil|YOffset=0mil|HoleType=Round|Shape=RoundedRectangle|*
%AMROUNDEDRECTD56*
21,1,0.02375,0.02008,0,0,90.0*
21,1,0.01417,0.02965,0,0,90.0*
1,1,0.00957,0.01004,0.00709*
1,1,0.00957,0.01004,-0.00709*
1,1,0.00957,-0.01004,-0.00709*
1,1,0.00957,-0.01004,0.00709*
%
%ADD56ROUNDEDRECTD56*%
G04:AMPARAMS|DCode=57|XSize=51.31mil|YSize=47.37mil|CornerRadius=6.95mil|HoleSize=0mil|Usage=FLASHONLY|Rotation=90.000|XOffset=0mil|YOffset=0mil|HoleType=Round|Shape=RoundedRectangle|*
%AMROUNDEDRECTD57*
21,1,0.05131,0.03347,0,0,90.0*
21,1,0.03740,0.04737,0,0,90.0*
1,1,0.01391,0.01673,0.01870*
1,1,0.01391,0.01673,-0.01870*
1,1,0.01391,-0.01673,-0.01870*
1,1,0.01391,-0.01673,0.01870*
%
%ADD57ROUNDEDRECTD57*%
G36*
X163832Y129334D02*
X163883Y129324D01*
X163933Y129307D01*
X163980Y129284D01*
X164024Y129255D01*
X164063Y129220D01*
X164098Y129181D01*
X164124Y129141D01*
X164764D01*
X164816Y129138D01*
X164867Y129127D01*
X164917Y129111D01*
X164964Y129087D01*
X165008Y129058D01*
X165047Y129024D01*
X165082Y128984D01*
X165111Y128941D01*
X165134Y128894D01*
X165151Y128844D01*
X165161Y128793D01*
X165165Y128740D01*
Y127165D01*
X165161Y127113D01*
X165151Y127062D01*
X165134Y127012D01*
X165111Y126965D01*
X165082Y126921D01*
X165047Y126882D01*
X165008Y126847D01*
X164964Y126818D01*
X164917Y126795D01*
X164867Y126778D01*
X164816Y126768D01*
X164764Y126765D01*
X164180Y126765D01*
Y125991D01*
X164764D01*
X164816Y125988D01*
X164867Y125978D01*
X164917Y125961D01*
X164964Y125938D01*
X165008Y125909D01*
X165047Y125874D01*
X165082Y125835D01*
X165111Y125791D01*
X165134Y125744D01*
X165151Y125694D01*
X165161Y125643D01*
X165165Y125591D01*
Y124016D01*
X165161Y123963D01*
X165151Y123912D01*
X165134Y123862D01*
X165111Y123815D01*
X165082Y123772D01*
X165047Y123732D01*
X165008Y123698D01*
X164964Y123669D01*
X164917Y123645D01*
X164867Y123628D01*
X164816Y123618D01*
X164764Y123615D01*
X164124D01*
X164098Y123575D01*
X164063Y123535D01*
X164024Y123501D01*
X163980Y123472D01*
X163933Y123449D01*
X163883Y123432D01*
X163832Y123422D01*
X163779Y123418D01*
X161417D01*
X161365Y123422D01*
X161314Y123432D01*
X161264Y123449D01*
X161217Y123472D01*
X161173Y123501D01*
X161134Y123535D01*
X161099Y123575D01*
X161070Y123618D01*
X161047Y123665D01*
X161030Y123715D01*
X161020Y123767D01*
X161016Y123819D01*
Y128937D01*
X161020Y128989D01*
X161030Y129041D01*
X161047Y129090D01*
X161070Y129137D01*
X161099Y129181D01*
X161134Y129220D01*
X161173Y129255D01*
X161217Y129284D01*
X161264Y129307D01*
X161314Y129324D01*
X161365Y129334D01*
X161417Y129338D01*
X163779D01*
X163832Y129334D01*
D02*
G37*
D38*
X193504Y82874D02*
D03*
Y84842D02*
D03*
Y86811D02*
D03*
Y88779D02*
D03*
X212008Y90748D02*
D03*
Y92716D02*
D03*
Y94685D02*
D03*
Y96653D02*
D03*
X193504Y90748D02*
D03*
Y92716D02*
D03*
Y94685D02*
D03*
Y96653D02*
D03*
X212008Y82874D02*
D03*
Y84842D02*
D03*
Y86811D02*
D03*
Y88779D02*
D03*
D39*
X195866Y80512D02*
D03*
X197835D02*
D03*
X199803D02*
D03*
X201772D02*
D03*
X203740D02*
D03*
X205709D02*
D03*
X207677D02*
D03*
X209646D02*
D03*
Y99016D02*
D03*
X207677D02*
D03*
X205709D02*
D03*
X203740D02*
D03*
X195866D02*
D03*
X201772D02*
D03*
X199803D02*
D03*
X197835D02*
D03*
D40*
X202756Y89764D02*
D03*
D41*
X174016Y94685D02*
D03*
Y92126D02*
D03*
Y89567D02*
D03*
X165354D02*
D03*
Y92126D02*
D03*
Y94685D02*
D03*
D42*
X169882Y100787D02*
D03*
X163189D02*
D03*
X202953Y116929D02*
D03*
X209646D02*
D03*
X194291Y137008D02*
D03*
X187598D02*
D03*
X173819Y137008D02*
D03*
X180512D02*
D03*
X191455Y73421D02*
D03*
X198148D02*
D03*
X187992Y79921D02*
D03*
X181299D02*
D03*
X218504Y103543D02*
D03*
X211811D02*
D03*
X202165Y137008D02*
D03*
X208858D02*
D03*
X172876Y84543D02*
D03*
X166183D02*
D03*
X187598Y116142D02*
D03*
X194291D02*
D03*
X180512Y116142D02*
D03*
X173819D02*
D03*
X169488Y126378D02*
D03*
X176181D02*
D03*
D43*
X212091Y73678D02*
D03*
X207268D02*
D03*
Y67281D02*
D03*
X212091D02*
D03*
D44*
X205118Y126772D02*
D03*
D45*
X199756Y130610D02*
D03*
Y122933D02*
D03*
Y128051D02*
D03*
X210480Y125492D02*
D03*
X210482Y122933D02*
D03*
X210480Y128051D02*
D03*
Y130610D02*
D03*
X199756Y125492D02*
D03*
D46*
X194193Y128740D02*
D03*
Y124803D02*
D03*
X182185D02*
D03*
Y128740D02*
D03*
D47*
X175984Y67520D02*
D03*
X165748Y60039D02*
D03*
Y63779D02*
D03*
Y67520D02*
D03*
X175984Y60039D02*
D03*
D48*
X150394Y84055D02*
D03*
Y79134D02*
D03*
Y74213D02*
D03*
Y69291D02*
D03*
Y127953D02*
D03*
Y123031D02*
D03*
Y118110D02*
D03*
Y113189D02*
D03*
D49*
X137795Y91339D02*
D03*
Y62008D02*
D03*
Y135236D02*
D03*
Y105905D02*
D03*
D50*
X204331Y109646D02*
D03*
X210630D02*
D03*
X190945Y108268D02*
D03*
X197244D02*
D03*
X211259Y60729D02*
D03*
X204960D02*
D03*
D51*
X166339Y74803D02*
D03*
X173819D02*
D03*
D52*
X226378Y117323D02*
D03*
Y79528D02*
D03*
D53*
X230315Y108425D02*
D03*
Y98425D02*
D03*
Y88425D02*
D03*
D54*
X218898Y123228D02*
D03*
Y73622D02*
D03*
D55*
X219685Y92520D02*
D03*
Y86221D02*
D03*
X179528Y100394D02*
D03*
Y106693D02*
D03*
X186221Y94095D02*
D03*
Y87795D02*
D03*
D56*
X159153Y127953D02*
D03*
Y124803D02*
D03*
D57*
X198425Y60039D02*
D03*
Y66732D02*
D03*
X182677Y60039D02*
D03*
Y66732D02*
D03*
X189849Y60081D02*
D03*
Y66774D02*
D03*
X159449Y93504D02*
D03*
Y86811D02*
D03*
X157874Y60433D02*
D03*
Y67126D02*
D03*
X160630Y119291D02*
D03*
X166929D02*
D03*
X160630Y133465D02*
D03*
X166929D02*
D03*
M02*
