G04*
G04 #@! TF.GenerationSoftware,Altium Limited,Altium Designer,24.7.2 (38)*
G04*
G04 Layer_Physical_Order=3*
G04 Layer_Color=14067636*
%FSLAX25Y25*%
%MOIN*%
G70*
G04*
G04 #@! TF.SameCoordinates,0AE953C0-7C88-47E9-B79E-664DAA7B62C1*
G04*
G04*
G04 #@! TF.FilePolarity,Positive*
G04*
G01*
G75*
%ADD68C,0.01968*%
G36*
X212578Y140404D02*
X213310Y140258D01*
X214000Y139972D01*
X214620Y139558D01*
X215148Y139030D01*
X215563Y138409D01*
X215849Y137720D01*
X215994Y136987D01*
X215994Y128150D01*
X216153Y127767D01*
X216535Y127609D01*
X220719D01*
Y119685D01*
X220877Y119302D01*
X221260Y119144D01*
X235679D01*
Y114255D01*
X234252D01*
X233869Y114096D01*
X233711Y113714D01*
Y83137D01*
X233869Y82754D01*
X234252Y82595D01*
X235679D01*
Y77706D01*
X221260D01*
X220877Y77548D01*
X220719Y77165D01*
Y69242D01*
X216535D01*
X216153Y69083D01*
X215994Y68701D01*
Y62800D01*
X215579Y62522D01*
X215355Y62614D01*
X214566D01*
X213837Y62312D01*
X213279Y61754D01*
X212976Y61025D01*
Y60235D01*
X213279Y59506D01*
X213837Y58948D01*
X214566Y58646D01*
X215098D01*
X215369Y58152D01*
X215148Y57820D01*
X214620Y57293D01*
X214000Y56878D01*
X213310Y56592D01*
X212578Y56447D01*
X212205Y56447D01*
X135433Y56447D01*
X135060Y56447D01*
X134328Y56592D01*
X133638Y56878D01*
X133017Y57293D01*
X132490Y57821D01*
X132075Y58441D01*
X131789Y59131D01*
X131643Y59863D01*
Y60236D01*
X131643Y136614D01*
Y136987D01*
X131789Y137720D01*
X132075Y138409D01*
X132490Y139030D01*
X133017Y139558D01*
X133638Y139972D01*
X134328Y140258D01*
X135060Y140404D01*
X135433Y140404D01*
X212205Y140404D01*
X212578Y140404D01*
D02*
G37*
%LPC*%
G36*
X197639Y134268D02*
X196849D01*
X196120Y133966D01*
X195562Y133407D01*
X195260Y132678D01*
Y131889D01*
X195562Y131159D01*
X196120Y130601D01*
X196849Y130299D01*
X197639D01*
X198368Y130601D01*
X198926Y131159D01*
X199228Y131889D01*
Y132678D01*
X198926Y133407D01*
X198368Y133966D01*
X197639Y134268D01*
D02*
G37*
G36*
X213480Y129219D02*
X212691D01*
X211962Y128917D01*
X211403Y128359D01*
X211101Y127630D01*
Y126840D01*
X211403Y126111D01*
X211962Y125553D01*
X212691Y125251D01*
X213480D01*
X214210Y125553D01*
X214768Y126111D01*
X215070Y126840D01*
Y127630D01*
X214768Y128359D01*
X214210Y128917D01*
X213480Y129219D01*
D02*
G37*
G36*
X156103Y131261D02*
X155314D01*
X154584Y130959D01*
X154026Y130401D01*
X153724Y129671D01*
Y128882D01*
X154026Y128153D01*
X154510Y127669D01*
X154098Y127258D01*
X153796Y126528D01*
Y125739D01*
X154098Y125010D01*
X154657Y124451D01*
X155386Y124149D01*
X156175D01*
X156904Y124451D01*
X157463Y125010D01*
X157765Y125739D01*
Y126528D01*
X157463Y127258D01*
X156979Y127741D01*
X157390Y128153D01*
X157692Y128882D01*
Y129671D01*
X157390Y130401D01*
X156832Y130959D01*
X156103Y131261D01*
D02*
G37*
G36*
X197753Y122850D02*
X196964D01*
X196234Y122548D01*
X195676Y121990D01*
X195374Y121261D01*
Y120472D01*
X195676Y119742D01*
X196234Y119184D01*
X196964Y118882D01*
X197753D01*
X198482Y119184D01*
X199040Y119742D01*
X199343Y120472D01*
Y121261D01*
X199040Y121990D01*
X198482Y122548D01*
X197753Y122850D01*
D02*
G37*
G36*
X156174Y122594D02*
X155385D01*
X154656Y122292D01*
X154097Y121734D01*
X153795Y121005D01*
Y120215D01*
X154097Y119486D01*
X154471Y119113D01*
X154603Y118794D01*
X154474Y118462D01*
X154104Y118093D01*
X153802Y117363D01*
Y116574D01*
X154104Y115845D01*
X154662Y115286D01*
X155392Y114984D01*
X156181D01*
X156910Y115286D01*
X157468Y115845D01*
X157771Y116574D01*
Y117363D01*
X157468Y118093D01*
X157095Y118466D01*
X156963Y118785D01*
X157092Y119116D01*
X157462Y119486D01*
X157764Y120215D01*
Y121005D01*
X157462Y121734D01*
X156904Y122292D01*
X156174Y122594D01*
D02*
G37*
G36*
X174410Y114173D02*
X173621D01*
X172892Y113871D01*
X172334Y113313D01*
X172031Y112584D01*
Y111794D01*
X172334Y111065D01*
X172892Y110507D01*
X173621Y110205D01*
X174410D01*
X175140Y110507D01*
X175698Y111065D01*
X176000Y111794D01*
Y112584D01*
X175698Y113313D01*
X175140Y113871D01*
X174410Y114173D01*
D02*
G37*
G36*
X166536Y110646D02*
X165747D01*
X165018Y110344D01*
X164460Y109785D01*
X164157Y109056D01*
Y108267D01*
X164460Y107537D01*
X165018Y106979D01*
X165747Y106677D01*
X166536D01*
X167266Y106979D01*
X167824Y107537D01*
X168126Y108267D01*
Y109056D01*
X167824Y109785D01*
X167266Y110344D01*
X166536Y110646D01*
D02*
G37*
G36*
X224568Y110409D02*
X223779D01*
X223049Y110107D01*
X222491Y109549D01*
X222189Y108820D01*
Y108030D01*
X222491Y107301D01*
X223049Y106743D01*
X223779Y106441D01*
X224568D01*
X225297Y106743D01*
X225855Y107301D01*
X226157Y108030D01*
Y108820D01*
X225855Y109549D01*
X225297Y110107D01*
X224568Y110409D01*
D02*
G37*
G36*
X196864Y104360D02*
X196074D01*
X195345Y104058D01*
X194787Y103500D01*
X194568Y102972D01*
X194027D01*
X193808Y103500D01*
X193250Y104058D01*
X192521Y104360D01*
X191731D01*
X191002Y104058D01*
X190444Y103500D01*
X190142Y102771D01*
Y101981D01*
X190444Y101252D01*
X191002Y100694D01*
X191731Y100392D01*
X192521D01*
X193250Y100694D01*
X193808Y101252D01*
X194027Y101780D01*
X194568D01*
X194787Y101252D01*
X195345Y100694D01*
X196074Y100392D01*
X196864D01*
X197593Y100694D01*
X198151Y101252D01*
X198453Y101981D01*
Y102771D01*
X198151Y103500D01*
X197593Y104058D01*
X196864Y104360D01*
D02*
G37*
G36*
X208269Y105528D02*
X207479D01*
X206750Y105226D01*
X206192Y104667D01*
X205890Y103938D01*
Y103149D01*
X206192Y102419D01*
X206750Y101861D01*
X207479Y101559D01*
X208269D01*
X208998Y101861D01*
X209556Y102419D01*
X209858Y103149D01*
Y103938D01*
X209556Y104667D01*
X208998Y105226D01*
X208269Y105528D01*
D02*
G37*
G36*
X184647Y104740D02*
X183857D01*
X183128Y104438D01*
X182570Y103880D01*
X182268Y103151D01*
Y102361D01*
X182570Y101632D01*
X183128Y101074D01*
X183857Y100772D01*
X184647D01*
X185376Y101074D01*
X185934Y101632D01*
X186236Y102361D01*
Y103151D01*
X185934Y103880D01*
X185376Y104438D01*
X184647Y104740D01*
D02*
G37*
G36*
X144883Y100803D02*
X144093D01*
X143364Y100501D01*
X142806Y99943D01*
X142503Y99214D01*
Y98424D01*
X142806Y97695D01*
X143364Y97137D01*
X144093Y96835D01*
X144883D01*
X145612Y97137D01*
X146170Y97695D01*
X146472Y98424D01*
Y99214D01*
X146170Y99943D01*
X145612Y100501D01*
X144883Y100803D01*
D02*
G37*
G36*
X224410Y100409D02*
X223621D01*
X222892Y100107D01*
X222334Y99549D01*
X222031Y98820D01*
Y98031D01*
X222334Y97301D01*
X222892Y96743D01*
X223621Y96441D01*
X224410D01*
X225140Y96743D01*
X225698Y97301D01*
X226000Y98031D01*
Y98820D01*
X225698Y99549D01*
X225140Y100107D01*
X224410Y100409D01*
D02*
G37*
G36*
X156309Y99199D02*
X155520D01*
X154791Y98897D01*
X154233Y98339D01*
X153930Y97610D01*
Y96820D01*
X154233Y96091D01*
X154791Y95533D01*
X155520Y95231D01*
X156309D01*
X157039Y95533D01*
X157597Y96091D01*
X157899Y96820D01*
Y97610D01*
X157597Y98339D01*
X157039Y98897D01*
X156309Y99199D01*
D02*
G37*
G36*
X177954Y96866D02*
X177164D01*
X176435Y96564D01*
X175877Y96006D01*
X175575Y95277D01*
Y94487D01*
X175877Y93758D01*
X176435Y93200D01*
X177164Y92898D01*
X177954D01*
X178683Y93200D01*
X179241Y93758D01*
X179543Y94487D01*
Y95277D01*
X179241Y96006D01*
X178683Y96564D01*
X177954Y96866D01*
D02*
G37*
G36*
X190565Y91765D02*
X189776D01*
X189046Y91463D01*
X188488Y90905D01*
X188186Y90176D01*
Y89386D01*
X188488Y88657D01*
X189046Y88099D01*
X189776Y87797D01*
X190565D01*
X191294Y88099D01*
X191852Y88657D01*
X192155Y89386D01*
Y90176D01*
X191852Y90905D01*
X191294Y91463D01*
X190565Y91765D01*
D02*
G37*
G36*
X215946Y89780D02*
X215157D01*
X214427Y89477D01*
X213869Y88919D01*
X213567Y88190D01*
Y87401D01*
X213869Y86671D01*
X214427Y86113D01*
X215157Y85811D01*
X215946D01*
X216675Y86113D01*
X217233Y86671D01*
X217535Y87401D01*
Y88190D01*
X217233Y88919D01*
X216675Y89477D01*
X215946Y89780D01*
D02*
G37*
G36*
X155513Y81118D02*
X154723D01*
X153994Y80816D01*
X153436Y80258D01*
X153134Y79528D01*
Y78739D01*
X153436Y78010D01*
X153994Y77452D01*
X154723Y77150D01*
X155513D01*
X156242Y77452D01*
X156800Y78010D01*
X157102Y78739D01*
Y79528D01*
X156800Y80258D01*
X156242Y80816D01*
X155513Y81118D01*
D02*
G37*
G36*
X208296Y79630D02*
X207507D01*
X206778Y79328D01*
X206219Y78770D01*
X205917Y78041D01*
Y77251D01*
X206219Y76522D01*
X206778Y75964D01*
X207507Y75662D01*
X208296D01*
X209026Y75964D01*
X209584Y76522D01*
X209886Y77251D01*
Y78041D01*
X209584Y78770D01*
X209026Y79328D01*
X208296Y79630D01*
D02*
G37*
G36*
X194544Y79204D02*
X193754D01*
X193025Y78902D01*
X192467Y78344D01*
X192165Y77614D01*
Y76825D01*
X192467Y76096D01*
X193025Y75538D01*
X193754Y75235D01*
X194544D01*
X195273Y75538D01*
X195831Y76096D01*
X196133Y76825D01*
Y77614D01*
X195831Y78344D01*
X195273Y78902D01*
X194544Y79204D01*
D02*
G37*
G36*
X186615Y77181D02*
X185826D01*
X185097Y76879D01*
X184538Y76321D01*
X184236Y75591D01*
Y74802D01*
X184538Y74073D01*
X185097Y73515D01*
X185826Y73213D01*
X186615D01*
X187345Y73515D01*
X187903Y74073D01*
X188205Y74802D01*
Y75591D01*
X187903Y76321D01*
X187345Y76879D01*
X186615Y77181D01*
D02*
G37*
G36*
X162206Y76787D02*
X161416D01*
X160687Y76485D01*
X160129Y75927D01*
X159827Y75198D01*
Y74409D01*
X160129Y73679D01*
X160687Y73121D01*
X161416Y72819D01*
X162206D01*
X162935Y73121D01*
X163493Y73679D01*
X163795Y74409D01*
Y75198D01*
X163493Y75927D01*
X162935Y76485D01*
X162206Y76787D01*
D02*
G37*
G36*
X155561Y76168D02*
X154771D01*
X154042Y75865D01*
X153484Y75307D01*
X153182Y74578D01*
Y73789D01*
X153484Y73059D01*
X154042Y72501D01*
X154771Y72199D01*
X155561D01*
X156290Y72501D01*
X156848Y73059D01*
X157150Y73789D01*
Y74578D01*
X156848Y75307D01*
X156290Y75865D01*
X155561Y76168D01*
D02*
G37*
G36*
X162206Y69701D02*
X161416D01*
X160687Y69399D01*
X160129Y68840D01*
X159827Y68111D01*
Y67322D01*
X160129Y66593D01*
X160687Y66034D01*
X161416Y65732D01*
X162206D01*
X162935Y66034D01*
X163493Y66593D01*
X163795Y67322D01*
Y68111D01*
X163493Y68840D01*
X162935Y69399D01*
X162206Y69701D01*
D02*
G37*
G36*
X194489Y69307D02*
X193700D01*
X192971Y69005D01*
X192412Y68447D01*
X192110Y67717D01*
Y66928D01*
X192412Y66199D01*
X192971Y65641D01*
X193700Y65339D01*
X194489D01*
X195219Y65641D01*
X195777Y66199D01*
X196079Y66928D01*
Y67717D01*
X195777Y68447D01*
X195219Y69005D01*
X194489Y69307D01*
D02*
G37*
G36*
X203544Y68913D02*
X202755D01*
X202026Y68611D01*
X201467Y68053D01*
X201165Y67324D01*
Y66534D01*
X201467Y65805D01*
X202026Y65247D01*
X202755Y64945D01*
X203544D01*
X204274Y65247D01*
X204832Y65805D01*
X205134Y66534D01*
Y67324D01*
X204832Y68053D01*
X204274Y68611D01*
X203544Y68913D01*
D02*
G37*
G36*
X176379Y65370D02*
X175590D01*
X174860Y65068D01*
X174302Y64510D01*
X174000Y63780D01*
Y62991D01*
X174302Y62262D01*
X174860Y61704D01*
X175590Y61402D01*
X176379D01*
X177108Y61704D01*
X177666Y62262D01*
X177969Y62991D01*
Y63780D01*
X177666Y64510D01*
X177108Y65068D01*
X176379Y65370D01*
D02*
G37*
G36*
X147564Y65191D02*
X146774D01*
X146045Y64889D01*
X145487Y64331D01*
X145185Y63601D01*
Y62812D01*
X145487Y62083D01*
X146045Y61524D01*
X146774Y61222D01*
X147564D01*
X148293Y61524D01*
X148851Y62083D01*
X149153Y62812D01*
Y63601D01*
X148851Y64331D01*
X148293Y64889D01*
X147564Y65191D01*
D02*
G37*
G36*
X162302Y62221D02*
X161513D01*
X160784Y61918D01*
X160226Y61360D01*
X159924Y60631D01*
Y59842D01*
X160226Y59112D01*
X160784Y58554D01*
X161513Y58252D01*
X162302D01*
X163032Y58554D01*
X163590Y59112D01*
X163892Y59842D01*
Y60631D01*
X163590Y61360D01*
X163032Y61918D01*
X162302Y62221D01*
D02*
G37*
%LPD*%
D68*
X155166Y74183D02*
D03*
X156640Y71440D02*
D03*
X155786Y116969D02*
D03*
X155780Y120610D02*
D03*
X170866Y65354D02*
D03*
X196469Y102376D02*
D03*
X192126D02*
D03*
X144488Y98819D02*
D03*
X214961Y60630D02*
D03*
X181728Y92314D02*
D03*
X177559Y94882D02*
D03*
X207902Y77646D02*
D03*
X214173Y77953D02*
D03*
X213167Y98425D02*
D03*
X153150Y60630D02*
D03*
X194095Y59842D02*
D03*
X163137Y112166D02*
D03*
X161811Y74803D02*
D03*
X155118Y79134D02*
D03*
X156286Y81959D02*
D03*
X155780Y126134D02*
D03*
X155708Y129277D02*
D03*
X218504Y108661D02*
D03*
X194149Y77220D02*
D03*
X186614Y70866D02*
D03*
X181496Y75984D02*
D03*
X147169Y63207D02*
D03*
X147621Y133159D02*
D03*
X136614Y123228D02*
D03*
X180315Y111811D02*
D03*
X174016Y112189D02*
D03*
X185827Y111811D02*
D03*
X166142Y108661D02*
D03*
X184252Y102756D02*
D03*
X190170Y89781D02*
D03*
X155915Y97215D02*
D03*
X161908Y60236D02*
D03*
X161811Y67716D02*
D03*
X173228Y80315D02*
D03*
X197358Y120866D02*
D03*
X136614Y75590D02*
D03*
X184646Y83465D02*
D03*
X169291Y113508D02*
D03*
X159055Y114961D02*
D03*
X155905Y133071D02*
D03*
X187795Y125870D02*
D03*
X205118Y126772D02*
D03*
X197244Y132283D02*
D03*
X170866Y61024D02*
D03*
X194095Y67323D02*
D03*
X203002Y113736D02*
D03*
X181102Y120472D02*
D03*
X159843Y81890D02*
D03*
X169685Y89764D02*
D03*
Y95669D02*
D03*
X182087Y132677D02*
D03*
X213086Y127235D02*
D03*
X207911Y89785D02*
D03*
X136614Y98819D02*
D03*
X178347Y74803D02*
D03*
X186221Y75197D02*
D03*
X136614Y85433D02*
D03*
X203150Y66929D02*
D03*
X175984Y63386D02*
D03*
X197659Y89657D02*
D03*
X170866Y69685D02*
D03*
X215551Y87795D02*
D03*
X202734Y94919D02*
D03*
X205118Y129921D02*
D03*
Y123622D02*
D03*
X177165Y84646D02*
D03*
X202734Y84667D02*
D03*
X202756Y89764D02*
D03*
X207874Y103543D02*
D03*
X224173Y108425D02*
D03*
X224016Y98425D02*
D03*
X223622Y112205D02*
D03*
X136614Y139370D02*
D03*
X155512Y138583D02*
D03*
X136614Y57874D02*
D03*
X150787Y66142D02*
D03*
X136614Y112992D02*
D03*
Y130315D02*
D03*
X214173Y137008D02*
D03*
X187795Y132283D02*
D03*
Y120472D02*
D03*
X136614Y68110D02*
D03*
X224016Y88583D02*
D03*
Y92520D02*
D03*
X166142Y126378D02*
D03*
M02*
