G04*
G04 #@! TF.GenerationSoftware,Altium Limited,Altium Designer,24.7.2 (38)*
G04*
G04 Layer_Physical_Order=4*
G04 Layer_Color=6049555*
%FSLAX25Y25*%
%MOIN*%
G70*
G04*
G04 #@! TF.SameCoordinates,0AE953C0-7C88-47E9-B79E-664DAA7B62C1*
G04*
G04*
G04 #@! TF.FilePolarity,Positive*
G04*
G01*
G75*
G04:AMPARAMS|DCode=32|XSize=196.85mil|YSize=47.24mil|CornerRadius=3.54mil|HoleSize=0mil|Usage=FLASHONLY|Rotation=0.000|XOffset=0mil|YOffset=0mil|HoleType=Round|Shape=RoundedRectangle|*
%AMROUNDEDRECTD32*
21,1,0.19685,0.04016,0,0,0.0*
21,1,0.18976,0.04724,0,0,0.0*
1,1,0.00709,0.09488,-0.02008*
1,1,0.00709,-0.09488,-0.02008*
1,1,0.00709,-0.09488,0.02008*
1,1,0.00709,0.09488,0.02008*
%
%ADD32ROUNDEDRECTD32*%
G04:AMPARAMS|DCode=33|XSize=78.74mil|YSize=78.74mil|CornerRadius=5.91mil|HoleSize=0mil|Usage=FLASHONLY|Rotation=0.000|XOffset=0mil|YOffset=0mil|HoleType=Round|Shape=RoundedRectangle|*
%AMROUNDEDRECTD33*
21,1,0.07874,0.06693,0,0,0.0*
21,1,0.06693,0.07874,0,0,0.0*
1,1,0.01181,0.03347,-0.03347*
1,1,0.01181,-0.03347,-0.03347*
1,1,0.01181,-0.03347,0.03347*
1,1,0.01181,0.03347,0.03347*
%
%ADD33ROUNDEDRECTD33*%
G04:AMPARAMS|DCode=34|XSize=98.43mil|YSize=47.24mil|CornerRadius=3.54mil|HoleSize=0mil|Usage=FLASHONLY|Rotation=90.000|XOffset=0mil|YOffset=0mil|HoleType=Round|Shape=RoundedRectangle|*
%AMROUNDEDRECTD34*
21,1,0.09843,0.04016,0,0,90.0*
21,1,0.09134,0.04724,0,0,90.0*
1,1,0.00709,0.02008,0.04567*
1,1,0.00709,0.02008,-0.04567*
1,1,0.00709,-0.02008,-0.04567*
1,1,0.00709,-0.02008,0.04567*
%
%ADD34ROUNDEDRECTD34*%
%ADD61C,0.01772*%
%ADD62C,0.00618*%
%ADD63C,0.00799*%
%ADD64C,0.02165*%
%ADD65C,0.01000*%
%ADD68C,0.01968*%
G04:AMPARAMS|DCode=69|XSize=26mil|YSize=71mil|CornerRadius=1.3mil|HoleSize=0mil|Usage=FLASHONLY|Rotation=90.000|XOffset=0mil|YOffset=0mil|HoleType=Round|Shape=RoundedRectangle|*
%AMROUNDEDRECTD69*
21,1,0.02600,0.06840,0,0,90.0*
21,1,0.02340,0.07100,0,0,90.0*
1,1,0.00260,0.03420,0.01170*
1,1,0.00260,0.03420,-0.01170*
1,1,0.00260,-0.03420,-0.01170*
1,1,0.00260,-0.03420,0.01170*
%
%ADD69ROUNDEDRECTD69*%
G04:AMPARAMS|DCode=70|XSize=110mil|YSize=39mil|CornerRadius=1.95mil|HoleSize=0mil|Usage=FLASHONLY|Rotation=0.000|XOffset=0mil|YOffset=0mil|HoleType=Round|Shape=RoundedRectangle|*
%AMROUNDEDRECTD70*
21,1,0.11000,0.03510,0,0,0.0*
21,1,0.10610,0.03900,0,0,0.0*
1,1,0.00390,0.05305,-0.01755*
1,1,0.00390,-0.05305,-0.01755*
1,1,0.00390,-0.05305,0.01755*
1,1,0.00390,0.05305,0.01755*
%
%ADD70ROUNDEDRECTD70*%
G36*
X212578Y140404D02*
X213310Y140258D01*
X214000Y139972D01*
X214620Y139558D01*
X215148Y139030D01*
X215563Y138409D01*
X215849Y137720D01*
X215994Y136987D01*
X215994Y128826D01*
X215913Y128772D01*
X215640Y128363D01*
X215579Y128316D01*
X215081Y128207D01*
X215008Y128277D01*
Y130388D01*
X214862Y131124D01*
X214445Y131748D01*
X208885Y137308D01*
X208261Y137725D01*
X207525Y137872D01*
X196579D01*
X195843Y137725D01*
X195219Y137308D01*
X188574Y130663D01*
X185079D01*
X184343Y130517D01*
X183720Y130100D01*
X172656Y119036D01*
X172239Y118413D01*
X172093Y117677D01*
Y112732D01*
X172031Y112584D01*
Y111794D01*
X172334Y111065D01*
X172708Y110691D01*
X172501Y110191D01*
X167419D01*
X167266Y110344D01*
X166536Y110646D01*
X165747D01*
X165018Y110344D01*
X164460Y109785D01*
X164157Y109056D01*
Y108299D01*
X164069Y108222D01*
X163711Y108039D01*
X156836Y114913D01*
X156910Y115286D01*
X157079Y115455D01*
X157138Y115490D01*
X157193Y115539D01*
X157222Y115561D01*
X157246Y115577D01*
X157263Y115588D01*
X157276Y115594D01*
X157277Y115594D01*
X157551D01*
X157551Y115594D01*
X158061Y115696D01*
X158494Y115985D01*
X159219Y116710D01*
X159219Y116710D01*
X159509Y117143D01*
X159610Y117654D01*
X159610Y117654D01*
Y128569D01*
X159610Y128569D01*
X159509Y129080D01*
X159219Y129513D01*
X159219Y129513D01*
X158512Y130220D01*
X158079Y130510D01*
X157568Y130611D01*
X157568Y130611D01*
X157222D01*
X157210Y130619D01*
X157192Y130632D01*
X157168Y130652D01*
X157117Y130701D01*
X157041Y130750D01*
X156832Y130959D01*
X156103Y131261D01*
X155314D01*
X154584Y130959D01*
X154375Y130750D01*
X154299Y130701D01*
X154248Y130652D01*
X154224Y130632D01*
X154206Y130619D01*
X154194Y130611D01*
X150143D01*
X150143Y130611D01*
X149632Y130510D01*
X149199Y130220D01*
X149199Y130220D01*
X143461Y124482D01*
X143171Y124049D01*
X143070Y123538D01*
X143070Y123538D01*
Y122265D01*
X138295D01*
Y119291D01*
Y116318D01*
X141185D01*
X141377Y115856D01*
X138033Y112512D01*
X137743Y112079D01*
X137642Y111568D01*
X137642Y111568D01*
Y93307D01*
X137642Y93307D01*
X137743Y92796D01*
X138033Y92363D01*
X143070Y87326D01*
Y83091D01*
X138295D01*
Y80118D01*
Y77145D01*
X143100D01*
X143567Y77237D01*
X143962Y77502D01*
X144344Y77539D01*
X148644Y73239D01*
X148644Y73239D01*
X149077Y72950D01*
X149588Y72849D01*
X153652D01*
X153664Y72841D01*
X153682Y72828D01*
X153706Y72808D01*
X153757Y72759D01*
X153833Y72710D01*
X154042Y72501D01*
X154771Y72199D01*
X155561D01*
X156290Y72501D01*
X156848Y73059D01*
X157150Y73789D01*
Y74578D01*
X156848Y75307D01*
X156290Y75865D01*
X155561Y76168D01*
X154771D01*
X154122Y75899D01*
X153812Y76023D01*
X153622Y76153D01*
Y77117D01*
X153743Y77226D01*
X154122Y77399D01*
X154723Y77150D01*
X155513D01*
X156242Y77452D01*
X156800Y78010D01*
X157102Y78739D01*
Y79528D01*
X156800Y80258D01*
X156242Y80816D01*
X155513Y81118D01*
X154723D01*
X153994Y80816D01*
X153785Y80607D01*
X153709Y80559D01*
X153658Y80510D01*
X153634Y80489D01*
X153616Y80476D01*
X153604Y80469D01*
X152915D01*
X152910Y80474D01*
Y82283D01*
X152910Y82284D01*
X152808Y82794D01*
X152519Y83227D01*
X152519Y83227D01*
X151731Y84015D01*
X151298Y84304D01*
X150787Y84406D01*
X150787Y84406D01*
X149543D01*
X149543Y84406D01*
X149032Y84304D01*
X148599Y84015D01*
X148599Y84015D01*
X147875Y83290D01*
X147657Y82964D01*
X147157Y83070D01*
Y84766D01*
X147544Y85084D01*
X147564Y85079D01*
X150484D01*
Y87402D01*
X150984D01*
Y87902D01*
X155556D01*
Y88572D01*
X155469Y89012D01*
X155219Y89386D01*
X154911Y89592D01*
X154875Y89862D01*
X154911Y90133D01*
X155219Y90338D01*
X155469Y90712D01*
X155556Y91153D01*
Y93493D01*
X155469Y93934D01*
X155219Y94308D01*
X154911Y94513D01*
X154875Y94784D01*
X154910Y95041D01*
X155320Y95314D01*
X155520Y95231D01*
X156309D01*
X157039Y95533D01*
X157597Y96091D01*
X157899Y96820D01*
Y97610D01*
X157597Y98339D01*
X157039Y98897D01*
X156309Y99199D01*
X155520D01*
X155299Y99108D01*
X155219Y99229D01*
X154911Y99434D01*
X154875Y99705D01*
X154911Y99975D01*
X155219Y100181D01*
X155469Y100555D01*
X155485Y100636D01*
X156091D01*
X159283Y97444D01*
X159779Y97113D01*
X160364Y96996D01*
X176075D01*
X176226Y96496D01*
X176058Y96383D01*
X175597Y95695D01*
X175436Y94882D01*
Y93596D01*
X160310Y78470D01*
X159849Y77781D01*
X159688Y76968D01*
Y67716D01*
X159736Y67473D01*
Y60285D01*
X159835Y59789D01*
X159464Y59289D01*
X150911D01*
X149129Y61070D01*
Y62754D01*
X149153Y62812D01*
Y63601D01*
X148851Y64331D01*
X148293Y64889D01*
X147564Y65191D01*
X146774D01*
X146045Y64889D01*
X145487Y64331D01*
X145185Y63601D01*
Y62812D01*
X145284Y62573D01*
Y60274D01*
X145430Y59538D01*
X145847Y58914D01*
X147853Y56909D01*
X147661Y56447D01*
X135433D01*
X135060Y56447D01*
X134328Y56592D01*
X133638Y56878D01*
X133017Y57293D01*
X132490Y57821D01*
X132075Y58441D01*
X131789Y59131D01*
X131643Y59863D01*
Y76936D01*
X132143Y77214D01*
X132490Y77145D01*
X137295D01*
Y80118D01*
Y83091D01*
X132490D01*
X132143Y83023D01*
X131643Y83300D01*
X131643Y116109D01*
X132143Y116387D01*
X132490Y116318D01*
X137295D01*
Y119291D01*
Y122265D01*
X132490D01*
X132143Y122196D01*
X131643Y122473D01*
Y136987D01*
X131789Y137720D01*
X132075Y138409D01*
X132490Y139030D01*
X133017Y139558D01*
X133638Y139972D01*
X134328Y140258D01*
X135060Y140404D01*
X135433Y140404D01*
X212205Y140404D01*
X212578Y140404D01*
D02*
G37*
G36*
X156486Y129894D02*
X156563Y129829D01*
X156641Y129772D01*
X156721Y129723D01*
X156803Y129681D01*
X156886Y129647D01*
X156970Y129620D01*
X157056Y129601D01*
X157144Y129590D01*
X157233Y129586D01*
Y128968D01*
X157144Y128964D01*
X157056Y128953D01*
X156970Y128934D01*
X156886Y128907D01*
X156803Y128873D01*
X156721Y128831D01*
X156641Y128781D01*
X156563Y128725D01*
X156486Y128660D01*
X156411Y128588D01*
Y129966D01*
X156486Y129894D01*
D02*
G37*
G36*
X155005Y128588D02*
X154930Y128660D01*
X154853Y128725D01*
X154775Y128781D01*
X154695Y128831D01*
X154613Y128873D01*
X154531Y128907D01*
X154446Y128934D01*
X154360Y128953D01*
X154272Y128964D01*
X154183Y128968D01*
Y129586D01*
X154272Y129590D01*
X154360Y129601D01*
X154446Y129620D01*
X154531Y129647D01*
X154613Y129681D01*
X154695Y129723D01*
X154775Y129772D01*
X154853Y129829D01*
X154930Y129894D01*
X155005Y129966D01*
Y128588D01*
D02*
G37*
G36*
X155078Y125445D02*
X155002Y125517D01*
X154926Y125581D01*
X154847Y125638D01*
X154767Y125688D01*
X154686Y125730D01*
X154603Y125764D01*
X154518Y125790D01*
X154432Y125809D01*
X154345Y125821D01*
X154255Y125824D01*
Y126443D01*
X154345Y126446D01*
X154432Y126458D01*
X154518Y126477D01*
X154603Y126503D01*
X154686Y126538D01*
X154767Y126579D01*
X154847Y126629D01*
X154926Y126686D01*
X155002Y126750D01*
X155078Y126822D01*
Y125445D01*
D02*
G37*
G36*
X156397Y125355D02*
X156333Y125279D01*
X156276Y125200D01*
X156226Y125120D01*
X156185Y125039D01*
X156150Y124956D01*
X156124Y124871D01*
X156105Y124785D01*
X156093Y124698D01*
X156090Y124609D01*
X155472D01*
X155468Y124698D01*
X155456Y124785D01*
X155437Y124871D01*
X155411Y124956D01*
X155377Y125039D01*
X155335Y125120D01*
X155285Y125200D01*
X155228Y125279D01*
X155164Y125355D01*
X155092Y125431D01*
X156470D01*
X156397Y125355D01*
D02*
G37*
G36*
X198120Y121500D02*
X198183Y121451D01*
X198251Y121407D01*
X198323Y121370D01*
X198400Y121338D01*
X198481Y121312D01*
X198566Y121292D01*
X198656Y121277D01*
X198750Y121269D01*
X198848Y121266D01*
Y120466D01*
X198750Y120464D01*
X198656Y120455D01*
X198566Y120440D01*
X198481Y120420D01*
X198400Y120394D01*
X198323Y120362D01*
X198251Y120325D01*
X198183Y120281D01*
X198120Y120232D01*
X198061Y120177D01*
Y121555D01*
X198120Y121500D01*
D02*
G37*
G36*
X155180Y119830D02*
X155093Y119893D01*
X154919Y120000D01*
X154832Y120043D01*
X154746Y120080D01*
X154659Y120110D01*
X154572Y120133D01*
X154485Y120150D01*
X154399Y120160D01*
X154312Y120163D01*
X154220Y120782D01*
X154311Y120786D01*
X154399Y120798D01*
X154483Y120819D01*
X154565Y120847D01*
X154643Y120885D01*
X154718Y120930D01*
X154790Y120984D01*
X154859Y121045D01*
X154925Y121116D01*
X154987Y121194D01*
X155180Y119830D01*
D02*
G37*
G36*
X156588Y117555D02*
X156661Y117488D01*
X156737Y117430D01*
X156815Y117379D01*
X156895Y117336D01*
X156976Y117301D01*
X157060Y117273D01*
X157146Y117254D01*
X157234Y117242D01*
X157323Y117238D01*
X157297Y116620D01*
X157209Y116616D01*
X157121Y116605D01*
X157035Y116587D01*
X156950Y116561D01*
X156866Y116528D01*
X156782Y116488D01*
X156700Y116440D01*
X156620Y116384D01*
X156540Y116322D01*
X156461Y116252D01*
X156516Y117629D01*
X156588Y117555D01*
D02*
G37*
G36*
X192172Y128169D02*
Y110236D01*
X192318Y109500D01*
X192375Y109416D01*
X191986Y109097D01*
X191340Y109743D01*
X190844Y110074D01*
X190259Y110191D01*
X175531D01*
X175324Y110691D01*
X175698Y111065D01*
X176000Y111794D01*
Y112584D01*
X175938Y112732D01*
Y116880D01*
X185875Y126817D01*
X189370D01*
X190106Y126964D01*
X190730Y127381D01*
X191710Y128361D01*
X192172Y128169D01*
D02*
G37*
G36*
X166885Y109315D02*
X166933Y109282D01*
X166989Y109254D01*
X167051Y109229D01*
X167121Y109209D01*
X167198Y109192D01*
X167283Y109178D01*
X167375Y109169D01*
X167580Y109161D01*
Y108161D01*
X167474Y108159D01*
X167283Y108144D01*
X167198Y108131D01*
X167121Y108114D01*
X167051Y108093D01*
X166989Y108069D01*
X166933Y108040D01*
X166885Y108008D01*
X166845Y107972D01*
Y109350D01*
X166885Y109315D01*
D02*
G37*
G36*
X224935Y109059D02*
X224998Y109010D01*
X225066Y108967D01*
X225138Y108929D01*
X225215Y108897D01*
X225296Y108871D01*
X225381Y108851D01*
X225471Y108836D01*
X225565Y108828D01*
X225663Y108825D01*
Y108026D01*
X225565Y108023D01*
X225471Y108014D01*
X225381Y108000D01*
X225296Y107979D01*
X225215Y107953D01*
X225138Y107921D01*
X225066Y107884D01*
X224998Y107840D01*
X224935Y107791D01*
X224876Y107736D01*
Y109114D01*
X224935Y109059D01*
D02*
G37*
G36*
X195944Y103686D02*
X196089Y103561D01*
X196158Y103509D01*
X196223Y103465D01*
X196287Y103429D01*
X196347Y103400D01*
X196405Y103379D01*
X196460Y103365D01*
X196513Y103359D01*
X195487Y102439D01*
X195486Y102494D01*
X195478Y102552D01*
X195461Y102612D01*
X195436Y102674D01*
X195403Y102739D01*
X195361Y102806D01*
X195312Y102875D01*
X195255Y102947D01*
X195115Y103098D01*
X195867Y103760D01*
X195944Y103686D01*
D02*
G37*
G36*
X191539Y103673D02*
X191685Y103548D01*
X191754Y103498D01*
X191820Y103455D01*
X191885Y103421D01*
X191946Y103394D01*
X192005Y103375D01*
X192062Y103364D01*
X192116Y103360D01*
X191142Y102386D01*
X191138Y102440D01*
X191127Y102497D01*
X191108Y102556D01*
X191081Y102617D01*
X191047Y102682D01*
X191004Y102748D01*
X190954Y102817D01*
X190895Y102889D01*
X190755Y103040D01*
X191463Y103747D01*
X191539Y103673D01*
D02*
G37*
G36*
X224778Y99059D02*
X224841Y99010D01*
X224909Y98967D01*
X224981Y98929D01*
X225057Y98897D01*
X225138Y98871D01*
X225223Y98851D01*
X225313Y98836D01*
X225407Y98828D01*
X225506Y98825D01*
Y98026D01*
X225407Y98023D01*
X225313Y98014D01*
X225223Y98000D01*
X225138Y97979D01*
X225057Y97953D01*
X224981Y97921D01*
X224909Y97884D01*
X224841Y97840D01*
X224778Y97791D01*
X224719Y97736D01*
Y99114D01*
X224778Y99059D01*
D02*
G37*
G36*
X155202Y96537D02*
X155161Y96573D01*
X155114Y96606D01*
X155059Y96635D01*
X154996Y96660D01*
X154926Y96681D01*
X154849Y96699D01*
X154765Y96712D01*
X154673Y96722D01*
X154468Y96730D01*
X154485Y97730D01*
X154592Y97732D01*
X154782Y97746D01*
X154867Y97759D01*
X154945Y97776D01*
X155015Y97796D01*
X155077Y97820D01*
X155133Y97848D01*
X155181Y97879D01*
X155222Y97914D01*
X155202Y96537D01*
D02*
G37*
G36*
X189583Y91078D02*
X189729Y90953D01*
X189798Y90903D01*
X189865Y90860D01*
X189929Y90826D01*
X189990Y90799D01*
X190050Y90780D01*
X190106Y90769D01*
X190160Y90765D01*
X189186Y89791D01*
X189183Y89845D01*
X189172Y89902D01*
X189152Y89961D01*
X189126Y90022D01*
X189091Y90087D01*
X189048Y90153D01*
X188998Y90222D01*
X188940Y90294D01*
X188800Y90444D01*
X189507Y91152D01*
X189583Y91078D01*
D02*
G37*
G36*
X215954Y89187D02*
X215962Y89093D01*
X215977Y89003D01*
X215997Y88918D01*
X216023Y88837D01*
X216055Y88760D01*
X216093Y88688D01*
X216136Y88620D01*
X216185Y88557D01*
X216240Y88498D01*
X214862D01*
X214917Y88557D01*
X214966Y88620D01*
X215010Y88688D01*
X215047Y88760D01*
X215079Y88837D01*
X215105Y88918D01*
X215125Y89003D01*
X215140Y89093D01*
X215149Y89187D01*
X215152Y89285D01*
X215951D01*
X215954Y89187D01*
D02*
G37*
G36*
X211163Y129592D02*
Y127778D01*
X211101Y127630D01*
Y126840D01*
X211403Y126111D01*
X211962Y125553D01*
X212691Y125251D01*
X213480D01*
X214210Y125553D01*
X214768Y126111D01*
X215009Y126694D01*
X215509Y126594D01*
Y119331D01*
X215509Y119331D01*
Y115315D01*
X215614Y114787D01*
X215913Y114339D01*
X216361Y114039D01*
X216890Y113934D01*
X233059D01*
X233378Y113434D01*
X233359Y113393D01*
X226969D01*
X226348Y113270D01*
X225822Y112918D01*
X225470Y112392D01*
X225347Y111772D01*
Y110628D01*
X224847Y110294D01*
X224568Y110409D01*
X223779D01*
X223049Y110107D01*
X222491Y109549D01*
X222189Y108820D01*
Y108030D01*
X222491Y107301D01*
X223049Y106743D01*
X223779Y106441D01*
X224568D01*
X224847Y106556D01*
X225347Y106222D01*
Y105079D01*
X225470Y104458D01*
X225822Y103932D01*
X226163Y103704D01*
Y103146D01*
X225822Y102918D01*
X225470Y102392D01*
X225347Y101772D01*
Y100554D01*
X224847Y100229D01*
X224410Y100409D01*
X223621D01*
X222892Y100107D01*
X222334Y99549D01*
X222031Y98820D01*
Y98031D01*
X222334Y97301D01*
X222892Y96743D01*
X223621Y96441D01*
X224410D01*
X224847Y96622D01*
X225347Y96297D01*
Y95079D01*
X225470Y94458D01*
X225822Y93932D01*
X226163Y93704D01*
Y93146D01*
X225822Y92918D01*
X225470Y92392D01*
X225347Y91772D01*
Y88925D01*
X230315D01*
Y88425D01*
X230815D01*
Y83457D01*
X233359D01*
X233378Y83416D01*
X233059Y82916D01*
X216890D01*
X216361Y82811D01*
X215913Y82512D01*
X215614Y82064D01*
X215509Y81535D01*
Y77520D01*
X215509Y77520D01*
Y69055D01*
X215614Y68527D01*
X215913Y68079D01*
X215994Y68025D01*
Y62800D01*
X215579Y62522D01*
X215355Y62614D01*
X215139D01*
X209431Y68322D01*
Y76369D01*
X209584Y76522D01*
X209886Y77251D01*
Y78041D01*
X209584Y78770D01*
X209026Y79328D01*
X208296Y79630D01*
X207507D01*
X206778Y79328D01*
X206219Y78770D01*
X205917Y78041D01*
Y77251D01*
X206219Y76522D01*
X206372Y76369D01*
Y67689D01*
X206489Y67104D01*
X206820Y66607D01*
X212976Y60451D01*
Y60235D01*
X213279Y59506D01*
X213837Y58948D01*
X214566Y58646D01*
X215098D01*
X215369Y58152D01*
X215148Y57820D01*
X214620Y57293D01*
X214000Y56878D01*
X213310Y56592D01*
X212578Y56447D01*
X212205Y56447D01*
X176355D01*
X176163Y56909D01*
X177344Y58089D01*
X177761Y58713D01*
X177907Y59449D01*
Y61463D01*
X199606D01*
X200342Y61609D01*
X200966Y62026D01*
X204125Y65185D01*
X204274Y65247D01*
X204832Y65805D01*
X205134Y66534D01*
Y67324D01*
X204832Y68053D01*
X204274Y68611D01*
X203544Y68913D01*
X202755D01*
X202026Y68611D01*
X201467Y68053D01*
X201406Y67905D01*
X198810Y65309D01*
X195594D01*
X195386Y65809D01*
X195777Y66199D01*
X196079Y66928D01*
Y67717D01*
X195777Y68447D01*
X195624Y68600D01*
Y75889D01*
X195831Y76096D01*
X196133Y76825D01*
Y77614D01*
X195831Y78344D01*
X195624Y78551D01*
Y89331D01*
X195508Y89916D01*
X195176Y90412D01*
X194467Y91121D01*
X194388Y91239D01*
X188506Y97121D01*
X188698Y97583D01*
X199112D01*
X199848Y97729D01*
X200472Y98146D01*
X201753Y99428D01*
X202170Y100052D01*
X202316Y100787D01*
Y101620D01*
X207331D01*
X207479Y101559D01*
X208269D01*
X208998Y101861D01*
X209556Y102419D01*
X209858Y103149D01*
Y103938D01*
X209556Y104667D01*
X208998Y105226D01*
X208269Y105528D01*
X207479D01*
X207331Y105466D01*
X201584D01*
X196017Y111033D01*
Y118748D01*
X196517Y119067D01*
X196964Y118882D01*
X197753D01*
X198482Y119184D01*
X198686Y119388D01*
X198757Y119432D01*
X198765Y119439D01*
X201771D01*
X214124Y107086D01*
Y89202D01*
X214117Y89194D01*
X214073Y89123D01*
X213869Y88919D01*
X213567Y88190D01*
Y87401D01*
X213869Y86671D01*
X214427Y86113D01*
X215157Y85811D01*
X215946D01*
X216675Y86113D01*
X217233Y86671D01*
X217535Y87401D01*
Y88190D01*
X217233Y88919D01*
X217029Y89123D01*
X216986Y89194D01*
X216978Y89202D01*
Y107677D01*
X216978Y107677D01*
X216870Y108223D01*
X216560Y108686D01*
X216560Y108686D01*
X203371Y121875D01*
X202908Y122185D01*
X202362Y122293D01*
X202362Y122293D01*
X198765D01*
X198757Y122301D01*
X198686Y122344D01*
X198482Y122548D01*
X197753Y122850D01*
X196964D01*
X196517Y122666D01*
X196017Y122985D01*
Y128337D01*
X198220Y130540D01*
X198368Y130601D01*
X198926Y131159D01*
X199228Y131889D01*
Y132678D01*
X198926Y133407D01*
X198808Y133526D01*
X199015Y134026D01*
X206729D01*
X211163Y129592D01*
D02*
G37*
G36*
X154415Y78445D02*
X154340Y78517D01*
X154263Y78582D01*
X154185Y78639D01*
X154105Y78688D01*
X154024Y78730D01*
X153940Y78764D01*
X153856Y78791D01*
X153770Y78810D01*
X153682Y78821D01*
X153593Y78825D01*
Y79443D01*
X153682Y79447D01*
X153770Y79458D01*
X153856Y79477D01*
X153940Y79504D01*
X154024Y79538D01*
X154105Y79580D01*
X154185Y79629D01*
X154263Y79686D01*
X154340Y79751D01*
X154415Y79823D01*
Y78445D01*
D02*
G37*
G36*
X194597Y78582D02*
X194613Y78391D01*
X194627Y78307D01*
X194645Y78231D01*
X194668Y78162D01*
X194694Y78100D01*
X194725Y78046D01*
X194759Y77999D01*
X194798Y77960D01*
X193422Y77883D01*
X193455Y77925D01*
X193484Y77974D01*
X193510Y78029D01*
X193532Y78092D01*
X193551Y78163D01*
X193567Y78241D01*
X193579Y78325D01*
X193593Y78517D01*
X193595Y78623D01*
X194595Y78688D01*
X194597Y78582D01*
D02*
G37*
G36*
X208555Y76903D02*
X208523Y76855D01*
X208494Y76799D01*
X208470Y76737D01*
X208449Y76667D01*
X208432Y76590D01*
X208419Y76505D01*
X208409Y76413D01*
X208402Y76208D01*
X207402D01*
X207400Y76314D01*
X207385Y76505D01*
X207371Y76590D01*
X207354Y76667D01*
X207334Y76737D01*
X207309Y76799D01*
X207281Y76855D01*
X207248Y76903D01*
X207213Y76943D01*
X208591D01*
X208555Y76903D01*
D02*
G37*
G36*
X194798Y76480D02*
X194759Y76440D01*
X194725Y76394D01*
X194694Y76339D01*
X194668Y76278D01*
X194645Y76209D01*
X194627Y76132D01*
X194613Y76048D01*
X194597Y75858D01*
X194595Y75752D01*
X193595Y75816D01*
X193593Y75923D01*
X193579Y76114D01*
X193567Y76199D01*
X193551Y76276D01*
X193532Y76347D01*
X193510Y76410D01*
X193484Y76466D01*
X193455Y76515D01*
X193422Y76556D01*
X194798Y76480D01*
D02*
G37*
G36*
X154463Y73494D02*
X154388Y73567D01*
X154311Y73631D01*
X154233Y73688D01*
X154153Y73738D01*
X154071Y73779D01*
X153988Y73813D01*
X153904Y73840D01*
X153818Y73859D01*
X153730Y73870D01*
X153641Y73874D01*
Y74492D01*
X153730Y74496D01*
X153818Y74507D01*
X153904Y74527D01*
X153988Y74553D01*
X154071Y74587D01*
X154153Y74629D01*
X154233Y74678D01*
X154311Y74735D01*
X154388Y74800D01*
X154463Y74872D01*
Y73494D01*
D02*
G37*
G36*
X194596Y68655D02*
X194612Y68464D01*
X194625Y68379D01*
X194642Y68302D01*
X194662Y68232D01*
X194687Y68170D01*
X194715Y68114D01*
X194748Y68066D01*
X194783Y68026D01*
X193405D01*
X193441Y68066D01*
X193474Y68114D01*
X193502Y68170D01*
X193526Y68232D01*
X193547Y68302D01*
X193564Y68379D01*
X193578Y68464D01*
X193587Y68556D01*
X193595Y68761D01*
X194595D01*
X194596Y68655D01*
D02*
G37*
G36*
X188186Y89602D02*
Y89386D01*
X188488Y88657D01*
X189046Y88099D01*
X189776Y87797D01*
X190565D01*
X191294Y88099D01*
X191852Y88657D01*
X192330Y88525D01*
X192565Y88326D01*
Y78442D01*
X192467Y78344D01*
X192165Y77614D01*
Y76825D01*
X192467Y76096D01*
X192565Y75997D01*
Y68600D01*
X192412Y68447D01*
X192110Y67717D01*
Y66928D01*
X192412Y66199D01*
X192803Y65809D01*
X192596Y65309D01*
X179705D01*
X179513Y65771D01*
X187196Y73453D01*
X187345Y73515D01*
X187903Y74073D01*
X188205Y74802D01*
Y75591D01*
X187903Y76321D01*
X187345Y76879D01*
X186615Y77181D01*
X185826D01*
X185097Y76879D01*
X184538Y76321D01*
X184477Y76172D01*
X174641Y66336D01*
X174224Y65712D01*
X174077Y64977D01*
Y63968D01*
X174000Y63780D01*
Y62991D01*
X174062Y62843D01*
Y60245D01*
X173105Y59289D01*
X164335D01*
X163942Y59789D01*
X164031Y60236D01*
X163983Y60479D01*
Y67668D01*
X163935Y67911D01*
Y76089D01*
X179061Y91215D01*
X179521Y91904D01*
X179683Y92716D01*
Y94882D01*
X179521Y95695D01*
X179061Y96383D01*
X178892Y96496D01*
X179043Y96996D01*
X180792D01*
X188186Y89602D01*
D02*
G37*
G36*
X214374Y61927D02*
X214519Y61802D01*
X214588Y61752D01*
X214655Y61709D01*
X214719Y61675D01*
X214781Y61648D01*
X214840Y61629D01*
X214897Y61617D01*
X214951Y61614D01*
X213976Y60640D01*
X213973Y60694D01*
X213962Y60751D01*
X213943Y60810D01*
X213916Y60871D01*
X213881Y60935D01*
X213839Y61002D01*
X213788Y61071D01*
X213730Y61143D01*
X213590Y61293D01*
X214297Y62001D01*
X214374Y61927D01*
D02*
G37*
%LPC*%
G36*
X155556Y86902D02*
X151484D01*
Y85079D01*
X154404D01*
X154845Y85167D01*
X155219Y85417D01*
X155469Y85791D01*
X155556Y86232D01*
Y86902D01*
D02*
G37*
G36*
X229815Y87925D02*
X225347D01*
Y85079D01*
X225470Y84458D01*
X225822Y83932D01*
X226348Y83580D01*
X226969Y83457D01*
X229815D01*
Y87925D01*
D02*
G37*
%LPD*%
D32*
X226378Y117323D02*
D03*
Y79528D02*
D03*
D33*
X230315Y108425D02*
D03*
Y98425D02*
D03*
Y88425D02*
D03*
D34*
X218898Y123228D02*
D03*
Y73622D02*
D03*
D61*
X200394Y103937D02*
X200787Y103543D01*
X207874D01*
X194095Y110236D02*
X200394Y103937D01*
Y100787D02*
Y103937D01*
X194095Y110236D02*
Y129134D01*
X199112Y99506D02*
X200394Y100787D01*
X187502Y99506D02*
X199112D01*
X194095Y129134D02*
X197244Y132283D01*
X184252Y102756D02*
X187502Y99506D01*
X144488Y109055D02*
X147027Y111594D01*
X144488Y98819D02*
Y109055D01*
X175984Y63386D02*
X199606D01*
X203150Y66929D01*
X176000Y63402D02*
Y64977D01*
X175984Y63386D02*
X176000Y63402D01*
Y64977D02*
X186204Y75181D01*
X147206Y60274D02*
Y63169D01*
X147169Y63207D02*
X147206Y63169D01*
Y60274D02*
X150114Y57366D01*
X174016Y117677D02*
X185079Y128740D01*
X174016Y112189D02*
Y117677D01*
X154548Y111594D02*
X163386Y102756D01*
X184252D01*
X150114Y57366D02*
X173902D01*
X175984Y59449D01*
Y63386D01*
X147027Y111594D02*
X150570D01*
X150984Y112008D01*
X151398Y111594D02*
X154548D01*
X150984Y112008D02*
X151398Y111594D01*
X189370Y128740D02*
X196579Y135949D01*
X185079Y128740D02*
X189370D01*
X196579Y135949D02*
X207525D01*
X213086Y130388D01*
Y127235D02*
Y130388D01*
D62*
X149588Y74183D02*
X155166D01*
X144404Y79366D02*
X149588Y74183D01*
X149362Y126134D02*
X155780D01*
X145823Y122594D02*
X149362Y126134D01*
X151181Y124016D02*
X155320D01*
X155780Y124477D01*
Y126134D01*
X151181Y120472D02*
X155642D01*
X150394Y121260D02*
Y123228D01*
Y121260D02*
X151181Y120472D01*
X155642D02*
X155780Y120610D01*
X150394Y123228D02*
X151181Y124016D01*
X155786Y116949D02*
X155806Y116929D01*
X157551D01*
X158275Y117654D02*
Y128569D01*
X157568Y129277D02*
X158275Y128569D01*
X150143Y129277D02*
X157568D01*
X151575Y79921D02*
Y82284D01*
X152362Y79134D02*
X155118D01*
X151575Y79921D02*
X152362Y79134D01*
X149543Y83071D02*
X150787D01*
X151575Y82284D01*
X148819Y82347D02*
X149543Y83071D01*
X148819Y79921D02*
Y82347D01*
X146687Y79089D02*
X147987D01*
X148819Y79921D01*
X144404Y123538D02*
X150143Y129277D01*
X145823Y79954D02*
X146687Y79089D01*
X157551Y116929D02*
X158275Y117654D01*
X145823Y116409D02*
Y122594D01*
X138976Y93307D02*
Y111568D01*
Y93307D02*
X144404Y87879D01*
Y79366D02*
Y87879D01*
X138976Y111568D02*
X144404Y116996D01*
X140394Y110981D02*
X145823Y116409D01*
X140394Y94017D02*
X143073Y91339D01*
X140394Y94017D02*
Y110981D01*
X143073Y91339D02*
X145823Y88589D01*
X143073Y91339D02*
Y91339D01*
X145823Y79954D02*
Y88589D01*
X144404Y116996D02*
Y123538D01*
D63*
X215551Y87795D02*
Y107677D01*
X202362Y120866D02*
X215551Y107677D01*
X197358Y120866D02*
X202362D01*
X224016Y98425D02*
X230315D01*
X224173Y108425D02*
X230315D01*
D64*
X177559Y92716D02*
Y94882D01*
X161811Y76968D02*
X177559Y92716D01*
X161811Y67716D02*
Y76968D01*
X161859Y60285D02*
Y67668D01*
X161811Y67716D02*
X161859Y67668D01*
Y60285D02*
X161908Y60236D01*
D65*
X142004Y109644D02*
X146955Y114595D01*
X154991D01*
X164197Y105390D01*
X190259Y108661D02*
X196469Y102451D01*
Y102376D02*
Y102451D01*
X185407Y105390D02*
X185423Y105375D01*
X189127D02*
X192059Y102443D01*
X185423Y105375D02*
X189127D01*
X166142Y108661D02*
X190259D01*
X164197Y105390D02*
X185407D01*
X207902Y67689D02*
X214961Y60630D01*
X207902Y67689D02*
Y77646D01*
X194095Y67323D02*
Y89331D01*
X193307Y90118D02*
X194095Y89331D01*
X193307Y90118D02*
Y90158D01*
X183071Y100394D02*
X193307Y90158D01*
X161024Y100394D02*
X183071D01*
X181426Y98526D02*
X190170Y89781D01*
X155105Y106312D02*
X161024Y100394D01*
X160364Y98526D02*
X181426D01*
X156724Y102165D02*
X160364Y98526D01*
X150984Y102165D02*
X156724D01*
X150999Y97230D02*
X155900D01*
X150984Y97244D02*
X150999Y97230D01*
X155900D02*
X155915Y97215D01*
X142004Y96973D02*
Y109644D01*
X151759Y106312D02*
X155105D01*
X150984Y107087D02*
X151759Y106312D01*
X142004Y96973D02*
X146520Y92456D01*
X150851D01*
X150984Y92323D01*
D68*
X155166Y74183D02*
D03*
X156640Y71440D02*
D03*
X155786Y116969D02*
D03*
X155780Y120610D02*
D03*
X170866Y65354D02*
D03*
X196469Y102376D02*
D03*
X192126D02*
D03*
X144488Y98819D02*
D03*
X214961Y60630D02*
D03*
X181728Y92314D02*
D03*
X177559Y94882D02*
D03*
X207902Y77646D02*
D03*
X214173Y77953D02*
D03*
X213167Y98425D02*
D03*
X153150Y60630D02*
D03*
X194095Y59842D02*
D03*
X163137Y112166D02*
D03*
X161811Y74803D02*
D03*
X155118Y79134D02*
D03*
X156286Y81959D02*
D03*
X155780Y126134D02*
D03*
X155708Y129277D02*
D03*
X218504Y108661D02*
D03*
X194149Y77220D02*
D03*
X186614Y70866D02*
D03*
X181496Y75984D02*
D03*
X147169Y63207D02*
D03*
X147621Y133159D02*
D03*
X136614Y123228D02*
D03*
X180315Y111811D02*
D03*
X174016Y112189D02*
D03*
X185827Y111811D02*
D03*
X166142Y108661D02*
D03*
X184252Y102756D02*
D03*
X190170Y89781D02*
D03*
X155915Y97215D02*
D03*
X161908Y60236D02*
D03*
X161811Y67716D02*
D03*
X173228Y80315D02*
D03*
X197358Y120866D02*
D03*
X136614Y75590D02*
D03*
X184646Y83465D02*
D03*
X169291Y113508D02*
D03*
X159055Y114961D02*
D03*
X155905Y133071D02*
D03*
X187795Y125870D02*
D03*
X205118Y126772D02*
D03*
X197244Y132283D02*
D03*
X170866Y61024D02*
D03*
X194095Y67323D02*
D03*
X203002Y113736D02*
D03*
X181102Y120472D02*
D03*
X159843Y81890D02*
D03*
X169685Y89764D02*
D03*
Y95669D02*
D03*
X182087Y132677D02*
D03*
X213086Y127235D02*
D03*
X207911Y89785D02*
D03*
X136614Y98819D02*
D03*
X178347Y74803D02*
D03*
X186221Y75197D02*
D03*
X136614Y85433D02*
D03*
X203150Y66929D02*
D03*
X175984Y63386D02*
D03*
X197659Y89657D02*
D03*
X170866Y69685D02*
D03*
X215551Y87795D02*
D03*
X202734Y94919D02*
D03*
X205118Y129921D02*
D03*
Y123622D02*
D03*
X177165Y84646D02*
D03*
X202734Y84667D02*
D03*
X202756Y89764D02*
D03*
X207874Y103543D02*
D03*
X224173Y108425D02*
D03*
X224016Y98425D02*
D03*
X223622Y112205D02*
D03*
X136614Y139370D02*
D03*
X155512Y138583D02*
D03*
X136614Y57874D02*
D03*
X150787Y66142D02*
D03*
X136614Y112992D02*
D03*
Y130315D02*
D03*
X214173Y137008D02*
D03*
X187795Y132283D02*
D03*
Y120472D02*
D03*
X136614Y68110D02*
D03*
X224016Y88583D02*
D03*
Y92520D02*
D03*
X166142Y126378D02*
D03*
D69*
X150984Y87402D02*
D03*
Y92323D02*
D03*
Y97244D02*
D03*
Y102165D02*
D03*
Y107087D02*
D03*
Y112008D02*
D03*
D70*
X137795Y80118D02*
D03*
Y119291D02*
D03*
M02*
