G04*
G04 #@! TF.GenerationSoftware,Altium Limited,Altium Designer,24.7.2 (38)*
G04*
G04 Layer_Color=65535*
%FSLAX25Y25*%
%MOIN*%
G70*
G04*
G04 #@! TF.SameCoordinates,0AE953C0-7C88-47E9-B79E-664DAA7B62C1*
G04*
G04*
G04 #@! TF.FilePolarity,Positive*
G04*
G01*
G75*
%ADD10C,0.00787*%
%ADD11C,0.01039*%
%ADD12C,0.01083*%
%ADD13C,0.01575*%
%ADD14C,0.00394*%
%ADD15C,0.00500*%
%ADD16C,0.00600*%
D10*
X195276Y77165D02*
G03*
X195276Y77165I-394J0D01*
G01*
X164173Y96457D02*
G03*
X164173Y96457I-394J0D01*
G01*
X215553Y63799D02*
G03*
X215553Y63799I-197J0D01*
G01*
D11*
X214291Y121260D02*
G03*
X214291Y121260I-512J0D01*
G01*
D12*
X160512Y72047D02*
G03*
X160512Y72047I-276J0D01*
G01*
D13*
X152284Y89961D02*
G03*
X152284Y89961I-315J0D01*
G01*
Y134252D02*
G03*
X152284Y134252I-315J0D01*
G01*
D14*
X211417Y79528D02*
X212992D01*
Y81102D01*
Y98425D02*
Y100000D01*
X211417D02*
X212992D01*
X192520D02*
X194095D01*
X192520Y98425D02*
Y100000D01*
X192323Y81102D02*
X194095Y79331D01*
X165748Y88189D02*
X173622D01*
X165748Y96063D02*
X173622D01*
X204562Y64574D02*
X214798D01*
Y76385D01*
X204562D02*
X214798D01*
X204562Y64574D02*
Y76385D01*
X181890Y121260D02*
X194488D01*
X181890Y132283D02*
X194488D01*
X165551Y57480D02*
X176181D01*
X165551Y70079D02*
X176181D01*
X165551Y122835D02*
Y129921D01*
X157283D02*
X165551D01*
X157283Y122835D02*
Y129921D01*
Y122835D02*
X165551D01*
D15*
X160039Y103740D02*
X173031D01*
X160039Y97835D02*
Y103740D01*
Y97835D02*
X173031D01*
Y103740D01*
X199803Y113976D02*
X212795D01*
Y119882D01*
X199803D02*
X212795D01*
X199803Y113976D02*
Y119882D01*
X184449Y134055D02*
Y139961D01*
X197441D01*
Y134055D02*
Y139961D01*
X184449Y134055D02*
X197441D01*
X183661D02*
Y139961D01*
X170669Y134055D02*
X183661D01*
X170669D02*
Y139961D01*
X183661D01*
X201260Y112795D02*
X213701D01*
X201260Y106496D02*
X213701D01*
Y112795D01*
X201260Y106496D02*
Y112795D01*
X177362Y70866D02*
Y78740D01*
X162795Y70866D02*
X177362D01*
X162795D02*
Y78740D01*
X177362D01*
X188305Y70468D02*
X201298D01*
Y76374D01*
X188305D02*
X201298D01*
X188305Y70468D02*
Y76374D01*
X178150Y76968D02*
Y82874D01*
X191142D01*
Y76968D02*
Y82874D01*
X178150Y76968D02*
X191142D01*
X208661Y106496D02*
X221654D01*
X208661Y100591D02*
Y106496D01*
Y100591D02*
X221654D01*
Y106496D01*
X200315Y105118D02*
Y111417D01*
X187874Y105118D02*
Y111417D01*
X200315D01*
X187874Y105118D02*
X200315D01*
X212008Y134055D02*
Y139961D01*
X199016Y134055D02*
X212008D01*
X199016D02*
Y139961D01*
X212008D01*
X216535Y83150D02*
X222835D01*
X216535Y95591D02*
X222835D01*
Y83150D02*
Y95591D01*
X216535Y83150D02*
Y95591D01*
X163034Y87496D02*
X176026D01*
X163034Y81590D02*
Y87496D01*
Y81590D02*
X176026D01*
Y87496D01*
X201889Y57579D02*
Y63879D01*
X214330Y57579D02*
Y63879D01*
X201889Y57579D02*
X214330D01*
X201889Y63879D02*
X214330D01*
X201378Y56890D02*
Y69882D01*
X195472D02*
X201378D01*
X195472Y56890D02*
Y69882D01*
Y56890D02*
X201378D01*
X179724Y69882D02*
X185630D01*
Y56890D02*
Y69882D01*
X179724Y56890D02*
X185630D01*
X179724D02*
Y69882D01*
X176378Y109764D02*
X182677D01*
X176378Y97323D02*
X182677D01*
X176378D02*
Y109764D01*
X182677Y97323D02*
Y109764D01*
X186897Y69924D02*
X192802D01*
Y56931D02*
Y69924D01*
X186897Y56931D02*
X192802D01*
X186897D02*
Y69924D01*
X156496Y83661D02*
X162402D01*
X156496D02*
Y96653D01*
X162402D01*
Y83661D02*
Y96653D01*
X160827Y57284D02*
Y70276D01*
X154921D02*
X160827D01*
X154921Y57284D02*
Y70276D01*
Y57284D02*
X160827D01*
X183071Y84724D02*
X189370D01*
X183071Y97165D02*
X189370D01*
Y84724D02*
Y97165D01*
X183071Y84724D02*
Y97165D01*
X184449Y113189D02*
X197441D01*
Y119095D01*
X184449D02*
X197441D01*
X184449Y113189D02*
Y119095D01*
X170669D02*
X183661D01*
X170669Y113189D02*
Y119095D01*
Y113189D02*
X183661D01*
Y119095D01*
X157874Y122047D02*
X169685D01*
X157874Y116535D02*
X169685D01*
Y122047D01*
X157874Y116535D02*
Y122047D01*
Y136221D02*
X169685D01*
X157874Y130709D02*
X169685D01*
Y136221D01*
X157874Y130709D02*
Y136221D01*
X166339Y123425D02*
X179331D01*
Y129331D01*
X166339D02*
X179331D01*
X166339Y123425D02*
Y129331D01*
D16*
X149516Y59333D02*
Y66191D01*
X143611Y59333D02*
X149516D01*
X143611Y94014D02*
X149516D01*
Y87156D02*
Y94014D01*
Y103230D02*
Y110088D01*
X143611Y103230D02*
X149516D01*
X143611Y137911D02*
X149516D01*
Y131053D02*
Y137911D01*
M02*
