G04*
G04 #@! TF.GenerationSoftware,Altium Limited,Altium Designer,24.7.2 (38)*
G04*
G04 Layer_Color=255*
%FSLAX25Y25*%
%MOIN*%
G70*
G04*
G04 #@! TF.SameCoordinates,0AE953C0-7C88-47E9-B79E-664DAA7B62C1*
G04*
G04*
G04 #@! TF.FilePolarity,Positive*
G04*
G01*
G75*
G04:AMPARAMS|DCode=19|XSize=23.62mil|YSize=11.81mil|CornerRadius=0.59mil|HoleSize=0mil|Usage=FLASHONLY|Rotation=180.000|XOffset=0mil|YOffset=0mil|HoleType=Round|Shape=RoundedRectangle|*
%AMROUNDEDRECTD19*
21,1,0.02362,0.01063,0,0,180.0*
21,1,0.02244,0.01181,0,0,180.0*
1,1,0.00118,-0.01122,0.00532*
1,1,0.00118,0.01122,0.00532*
1,1,0.00118,0.01122,-0.00532*
1,1,0.00118,-0.01122,-0.00532*
%
%ADD19ROUNDEDRECTD19*%
G04:AMPARAMS|DCode=20|XSize=23.62mil|YSize=11.81mil|CornerRadius=0.59mil|HoleSize=0mil|Usage=FLASHONLY|Rotation=90.000|XOffset=0mil|YOffset=0mil|HoleType=Round|Shape=RoundedRectangle|*
%AMROUNDEDRECTD20*
21,1,0.02362,0.01063,0,0,90.0*
21,1,0.02244,0.01181,0,0,90.0*
1,1,0.00118,0.00532,0.01122*
1,1,0.00118,0.00532,-0.01122*
1,1,0.00118,-0.00532,-0.01122*
1,1,0.00118,-0.00532,0.01122*
%
%ADD20ROUNDEDRECTD20*%
G04:AMPARAMS|DCode=21|XSize=35.43mil|YSize=15.75mil|CornerRadius=1.18mil|HoleSize=0mil|Usage=FLASHONLY|Rotation=0.000|XOffset=0mil|YOffset=0mil|HoleType=Round|Shape=RoundedRectangle|*
%AMROUNDEDRECTD21*
21,1,0.03543,0.01339,0,0,0.0*
21,1,0.03307,0.01575,0,0,0.0*
1,1,0.00236,0.01654,-0.00669*
1,1,0.00236,-0.01654,-0.00669*
1,1,0.00236,-0.01654,0.00669*
1,1,0.00236,0.01654,0.00669*
%
%ADD21ROUNDEDRECTD21*%
G04:AMPARAMS|DCode=22|XSize=43.31mil|YSize=39.37mil|CornerRadius=2.95mil|HoleSize=0mil|Usage=FLASHONLY|Rotation=180.000|XOffset=0mil|YOffset=0mil|HoleType=Round|Shape=RoundedRectangle|*
%AMROUNDEDRECTD22*
21,1,0.04331,0.03347,0,0,180.0*
21,1,0.03740,0.03937,0,0,180.0*
1,1,0.00591,-0.01870,0.01673*
1,1,0.00591,0.01870,0.01673*
1,1,0.00591,0.01870,-0.01673*
1,1,0.00591,-0.01870,-0.01673*
%
%ADD22ROUNDEDRECTD22*%
G04:AMPARAMS|DCode=23|XSize=39.37mil|YSize=35.43mil|CornerRadius=1.77mil|HoleSize=0mil|Usage=FLASHONLY|Rotation=90.000|XOffset=0mil|YOffset=0mil|HoleType=Round|Shape=RoundedRectangle|*
%AMROUNDEDRECTD23*
21,1,0.03937,0.03189,0,0,90.0*
21,1,0.03583,0.03543,0,0,90.0*
1,1,0.00354,0.01595,0.01791*
1,1,0.00354,0.01595,-0.01791*
1,1,0.00354,-0.01595,-0.01791*
1,1,0.00354,-0.01595,0.01791*
%
%ADD23ROUNDEDRECTD23*%
G04:AMPARAMS|DCode=24|XSize=64.96mil|YSize=96.46mil|CornerRadius=4.87mil|HoleSize=0mil|Usage=FLASHONLY|Rotation=180.000|XOffset=0mil|YOffset=0mil|HoleType=Round|Shape=RoundedRectangle|*
%AMROUNDEDRECTD24*
21,1,0.06496,0.08671,0,0,180.0*
21,1,0.05522,0.09646,0,0,180.0*
1,1,0.00974,-0.02761,0.04336*
1,1,0.00974,0.02761,0.04336*
1,1,0.00974,0.02761,-0.04336*
1,1,0.00974,-0.02761,-0.04336*
%
%ADD24ROUNDEDRECTD24*%
G04:AMPARAMS|DCode=25|XSize=20.67mil|YSize=11.81mil|CornerRadius=0.89mil|HoleSize=0mil|Usage=FLASHONLY|Rotation=180.000|XOffset=0mil|YOffset=0mil|HoleType=Round|Shape=RoundedRectangle|*
%AMROUNDEDRECTD25*
21,1,0.02067,0.01004,0,0,180.0*
21,1,0.01890,0.01181,0,0,180.0*
1,1,0.00177,-0.00945,0.00502*
1,1,0.00177,0.00945,0.00502*
1,1,0.00177,0.00945,-0.00502*
1,1,0.00177,-0.00945,-0.00502*
%
%ADD25ROUNDEDRECTD25*%
G04:AMPARAMS|DCode=26|XSize=41.34mil|YSize=23.62mil|CornerRadius=1.18mil|HoleSize=0mil|Usage=FLASHONLY|Rotation=0.000|XOffset=0mil|YOffset=0mil|HoleType=Round|Shape=RoundedRectangle|*
%AMROUNDEDRECTD26*
21,1,0.04134,0.02126,0,0,0.0*
21,1,0.03898,0.02362,0,0,0.0*
1,1,0.00236,0.01949,-0.01063*
1,1,0.00236,-0.01949,-0.01063*
1,1,0.00236,-0.01949,0.01063*
1,1,0.00236,0.01949,0.01063*
%
%ADD26ROUNDEDRECTD26*%
G04:AMPARAMS|DCode=27|XSize=43.31mil|YSize=23.62mil|CornerRadius=1.18mil|HoleSize=0mil|Usage=FLASHONLY|Rotation=0.000|XOffset=0mil|YOffset=0mil|HoleType=Round|Shape=RoundedRectangle|*
%AMROUNDEDRECTD27*
21,1,0.04331,0.02126,0,0,0.0*
21,1,0.04095,0.02362,0,0,0.0*
1,1,0.00236,0.02047,-0.01063*
1,1,0.00236,-0.02047,-0.01063*
1,1,0.00236,-0.02047,0.01063*
1,1,0.00236,0.02047,0.01063*
%
%ADD27ROUNDEDRECTD27*%
G04:AMPARAMS|DCode=28|XSize=23.62mil|YSize=66.93mil|CornerRadius=1.18mil|HoleSize=0mil|Usage=FLASHONLY|Rotation=270.000|XOffset=0mil|YOffset=0mil|HoleType=Round|Shape=RoundedRectangle|*
%AMROUNDEDRECTD28*
21,1,0.02362,0.06457,0,0,270.0*
21,1,0.02126,0.06693,0,0,270.0*
1,1,0.00236,-0.03228,-0.01063*
1,1,0.00236,-0.03228,0.01063*
1,1,0.00236,0.03228,0.01063*
1,1,0.00236,0.03228,-0.01063*
%
%ADD28ROUNDEDRECTD28*%
G04:AMPARAMS|DCode=29|XSize=39.37mil|YSize=106.3mil|CornerRadius=1.97mil|HoleSize=0mil|Usage=FLASHONLY|Rotation=270.000|XOffset=0mil|YOffset=0mil|HoleType=Round|Shape=RoundedRectangle|*
%AMROUNDEDRECTD29*
21,1,0.03937,0.10236,0,0,270.0*
21,1,0.03543,0.10630,0,0,270.0*
1,1,0.00394,-0.05118,-0.01772*
1,1,0.00394,-0.05118,0.01772*
1,1,0.00394,0.05118,0.01772*
1,1,0.00394,0.05118,-0.01772*
%
%ADD29ROUNDEDRECTD29*%
G04:AMPARAMS|DCode=30|XSize=39.37mil|YSize=43.31mil|CornerRadius=2.95mil|HoleSize=0mil|Usage=FLASHONLY|Rotation=270.000|XOffset=0mil|YOffset=0mil|HoleType=Round|Shape=RoundedRectangle|*
%AMROUNDEDRECTD30*
21,1,0.03937,0.03740,0,0,270.0*
21,1,0.03347,0.04331,0,0,270.0*
1,1,0.00591,-0.01870,-0.01673*
1,1,0.00591,-0.01870,0.01673*
1,1,0.00591,0.01870,0.01673*
1,1,0.00591,0.01870,-0.01673*
%
%ADD30ROUNDEDRECTD30*%
G04:AMPARAMS|DCode=31|XSize=51.18mil|YSize=59.06mil|CornerRadius=3.84mil|HoleSize=0mil|Usage=FLASHONLY|Rotation=180.000|XOffset=0mil|YOffset=0mil|HoleType=Round|Shape=RoundedRectangle|*
%AMROUNDEDRECTD31*
21,1,0.05118,0.05138,0,0,180.0*
21,1,0.04350,0.05906,0,0,180.0*
1,1,0.00768,-0.02175,0.02569*
1,1,0.00768,0.02175,0.02569*
1,1,0.00768,0.02175,-0.02569*
1,1,0.00768,-0.02175,-0.02569*
%
%ADD31ROUNDEDRECTD31*%
G04:AMPARAMS|DCode=32|XSize=196.85mil|YSize=47.24mil|CornerRadius=3.54mil|HoleSize=0mil|Usage=FLASHONLY|Rotation=0.000|XOffset=0mil|YOffset=0mil|HoleType=Round|Shape=RoundedRectangle|*
%AMROUNDEDRECTD32*
21,1,0.19685,0.04016,0,0,0.0*
21,1,0.18976,0.04724,0,0,0.0*
1,1,0.00709,0.09488,-0.02008*
1,1,0.00709,-0.09488,-0.02008*
1,1,0.00709,-0.09488,0.02008*
1,1,0.00709,0.09488,0.02008*
%
%ADD32ROUNDEDRECTD32*%
G04:AMPARAMS|DCode=33|XSize=78.74mil|YSize=78.74mil|CornerRadius=5.91mil|HoleSize=0mil|Usage=FLASHONLY|Rotation=0.000|XOffset=0mil|YOffset=0mil|HoleType=Round|Shape=RoundedRectangle|*
%AMROUNDEDRECTD33*
21,1,0.07874,0.06693,0,0,0.0*
21,1,0.06693,0.07874,0,0,0.0*
1,1,0.01181,0.03347,-0.03347*
1,1,0.01181,-0.03347,-0.03347*
1,1,0.01181,-0.03347,0.03347*
1,1,0.01181,0.03347,0.03347*
%
%ADD33ROUNDEDRECTD33*%
G04:AMPARAMS|DCode=34|XSize=98.43mil|YSize=47.24mil|CornerRadius=3.54mil|HoleSize=0mil|Usage=FLASHONLY|Rotation=90.000|XOffset=0mil|YOffset=0mil|HoleType=Round|Shape=RoundedRectangle|*
%AMROUNDEDRECTD34*
21,1,0.09843,0.04016,0,0,90.0*
21,1,0.09134,0.04724,0,0,90.0*
1,1,0.00709,0.02008,0.04567*
1,1,0.00709,0.02008,-0.04567*
1,1,0.00709,-0.02008,-0.04567*
1,1,0.00709,-0.02008,0.04567*
%
%ADD34ROUNDEDRECTD34*%
G04:AMPARAMS|DCode=35|XSize=39.37mil|YSize=43.31mil|CornerRadius=2.95mil|HoleSize=0mil|Usage=FLASHONLY|Rotation=0.000|XOffset=0mil|YOffset=0mil|HoleType=Round|Shape=RoundedRectangle|*
%AMROUNDEDRECTD35*
21,1,0.03937,0.03740,0,0,0.0*
21,1,0.03347,0.04331,0,0,0.0*
1,1,0.00591,0.01673,-0.01870*
1,1,0.00591,-0.01673,-0.01870*
1,1,0.00591,-0.01673,0.01870*
1,1,0.00591,0.01673,0.01870*
%
%ADD35ROUNDEDRECTD35*%
G04:AMPARAMS|DCode=36|XSize=15.75mil|YSize=21.65mil|CornerRadius=0.79mil|HoleSize=0mil|Usage=FLASHONLY|Rotation=90.000|XOffset=0mil|YOffset=0mil|HoleType=Round|Shape=RoundedRectangle|*
%AMROUNDEDRECTD36*
21,1,0.01575,0.02008,0,0,90.0*
21,1,0.01417,0.02165,0,0,90.0*
1,1,0.00158,0.01004,0.00709*
1,1,0.00158,0.01004,-0.00709*
1,1,0.00158,-0.01004,-0.00709*
1,1,0.00158,-0.01004,0.00709*
%
%ADD36ROUNDEDRECTD36*%
G04:AMPARAMS|DCode=37|XSize=43.31mil|YSize=39.37mil|CornerRadius=2.95mil|HoleSize=0mil|Usage=FLASHONLY|Rotation=90.000|XOffset=0mil|YOffset=0mil|HoleType=Round|Shape=RoundedRectangle|*
%AMROUNDEDRECTD37*
21,1,0.04331,0.03347,0,0,90.0*
21,1,0.03740,0.03937,0,0,90.0*
1,1,0.00591,0.01673,0.01870*
1,1,0.00591,0.01673,-0.01870*
1,1,0.00591,-0.01673,-0.01870*
1,1,0.00591,-0.01673,0.01870*
%
%ADD37ROUNDEDRECTD37*%
G04:AMPARAMS|DCode=58|XSize=135.83mil|YSize=135.83mil|CornerRadius=3.4mil|HoleSize=0mil|Usage=FLASHONLY|Rotation=90.000|XOffset=0mil|YOffset=0mil|HoleType=Round|Shape=RoundedRectangle|*
%AMROUNDEDRECTD58*
21,1,0.13583,0.12903,0,0,90.0*
21,1,0.12903,0.13583,0,0,90.0*
1,1,0.00679,0.06452,0.06452*
1,1,0.00679,0.06452,-0.06452*
1,1,0.00679,-0.06452,-0.06452*
1,1,0.00679,-0.06452,0.06452*
%
%ADD58ROUNDEDRECTD58*%
%AMCUSTOMSHAPE59*
4,1,12,0.02165,-0.02362,0.01181,-0.02362,0.01181,-0.02559,-0.01181,-0.02559,-0.01181,0.02559,0.01181,0.02559,0.01181,0.02362,0.02165,0.02362,0.02165,0.00787,0.01181,0.00787,0.01181,-0.00787,0.02165,-0.00787,0.02165,-0.02362,0.0*%
%ADD59CUSTOMSHAPE59*%

D19*
X193504Y82874D02*
D03*
Y84842D02*
D03*
Y86811D02*
D03*
Y88779D02*
D03*
X212008Y90748D02*
D03*
Y92716D02*
D03*
Y94685D02*
D03*
Y96653D02*
D03*
X193504Y90748D02*
D03*
Y92716D02*
D03*
Y94685D02*
D03*
Y96653D02*
D03*
X212008Y82874D02*
D03*
Y84842D02*
D03*
Y86811D02*
D03*
Y88779D02*
D03*
D20*
X195866Y80512D02*
D03*
X197835D02*
D03*
X199803D02*
D03*
X201772D02*
D03*
X203740D02*
D03*
X205709D02*
D03*
X207677D02*
D03*
X209646D02*
D03*
Y99016D02*
D03*
X207677D02*
D03*
X205709D02*
D03*
X203740D02*
D03*
X195866D02*
D03*
X201772D02*
D03*
X199803D02*
D03*
X197835D02*
D03*
D21*
X174016Y94685D02*
D03*
Y92126D02*
D03*
Y89567D02*
D03*
X165354D02*
D03*
Y92126D02*
D03*
Y94685D02*
D03*
D22*
X169882Y100787D02*
D03*
X163189D02*
D03*
X202953Y116929D02*
D03*
X209646D02*
D03*
X194291Y137008D02*
D03*
X187598D02*
D03*
X173819Y137008D02*
D03*
X180512D02*
D03*
X191455Y73421D02*
D03*
X198148D02*
D03*
X187992Y79921D02*
D03*
X181299D02*
D03*
X218504Y103543D02*
D03*
X211811D02*
D03*
X202165Y137008D02*
D03*
X208858D02*
D03*
X172876Y84543D02*
D03*
X166183D02*
D03*
X187598Y116142D02*
D03*
X194291D02*
D03*
X180512Y116142D02*
D03*
X173819D02*
D03*
X169488Y126378D02*
D03*
X176181D02*
D03*
D23*
X212091Y73678D02*
D03*
X207268D02*
D03*
Y67281D02*
D03*
X212091D02*
D03*
D24*
X205118Y126772D02*
D03*
D25*
X199756Y130610D02*
D03*
Y122933D02*
D03*
Y128051D02*
D03*
X210480Y125492D02*
D03*
X210482Y122933D02*
D03*
X210480Y128051D02*
D03*
Y130610D02*
D03*
X199756Y125492D02*
D03*
D26*
X194193Y128740D02*
D03*
Y124803D02*
D03*
X182185D02*
D03*
Y128740D02*
D03*
D27*
X175984Y67520D02*
D03*
X165748Y60039D02*
D03*
Y63779D02*
D03*
Y67520D02*
D03*
X175984Y60039D02*
D03*
D28*
X150394Y84055D02*
D03*
Y79134D02*
D03*
Y74213D02*
D03*
Y69291D02*
D03*
Y127953D02*
D03*
Y123031D02*
D03*
Y118110D02*
D03*
Y113189D02*
D03*
D29*
X137795Y91339D02*
D03*
Y62008D02*
D03*
Y135236D02*
D03*
Y105905D02*
D03*
D30*
X204331Y109646D02*
D03*
X210630D02*
D03*
X190945Y108268D02*
D03*
X197244D02*
D03*
X211259Y60729D02*
D03*
X204960D02*
D03*
D31*
X166339Y74803D02*
D03*
X173819D02*
D03*
D32*
X226378Y117323D02*
D03*
Y79528D02*
D03*
D33*
X230315Y108425D02*
D03*
Y98425D02*
D03*
Y88425D02*
D03*
D34*
X218898Y123228D02*
D03*
Y73622D02*
D03*
D35*
X219685Y92520D02*
D03*
Y86221D02*
D03*
X179528Y100394D02*
D03*
Y106693D02*
D03*
X186221Y94095D02*
D03*
Y87795D02*
D03*
D36*
X159153Y127953D02*
D03*
Y124803D02*
D03*
D37*
X198425Y60039D02*
D03*
Y66732D02*
D03*
X182677Y60039D02*
D03*
Y66732D02*
D03*
X189849Y60081D02*
D03*
Y66774D02*
D03*
X159449Y93504D02*
D03*
Y86811D02*
D03*
X157874Y60433D02*
D03*
Y67126D02*
D03*
X160630Y119291D02*
D03*
X166929D02*
D03*
X160630Y133465D02*
D03*
X166929D02*
D03*
D58*
X202756Y89764D02*
D03*
D59*
X162598Y126378D02*
D03*
M02*
