G04*
G04 #@! TF.GenerationSoftware,Altium Limited,Altium Designer,24.7.2 (38)*
G04*
G04 Layer_Color=32768*
%FSLAX25Y25*%
%MOIN*%
G70*
G04*
G04 #@! TF.SameCoordinates,0AE953C0-7C88-47E9-B79E-664DAA7B62C1*
G04*
G04*
G04 #@! TF.FilePolarity,Positive*
G04*
G01*
G75*
%ADD14C,0.00394*%
%ADD15C,0.00500*%
D14*
X192913Y99606D02*
X212598D01*
Y79921D02*
Y99606D01*
X194095Y79921D02*
X212598D01*
X192913Y81102D02*
Y99606D01*
Y81102D02*
X194095Y79921D01*
X174409Y87894D02*
Y96358D01*
X164961Y87894D02*
Y96358D01*
Y87894D02*
X174409D01*
X164961Y96358D02*
X174409D01*
X214503Y65657D02*
Y75302D01*
X204857Y65657D02*
Y75302D01*
X205118Y120669D02*
X211221D01*
X199016D02*
X205118D01*
X199016D02*
Y132874D01*
X211221D01*
Y120669D02*
Y132874D01*
X184252Y121653D02*
X192126D01*
X184252Y131890D02*
X192126D01*
X168898Y57677D02*
X172835D01*
X168898Y69882D02*
X172835D01*
X174016Y62598D02*
Y64961D01*
X132576Y66437D02*
Y86910D01*
X143797Y93405D02*
X148915D01*
Y87697D02*
Y93405D01*
X143797Y59941D02*
X148915D01*
Y65650D01*
X158465Y129528D02*
X164370D01*
X158465Y123228D02*
X164370D01*
X132576Y110335D02*
Y130807D01*
X143797Y137303D02*
X148915D01*
Y131595D02*
Y137303D01*
X143797Y103839D02*
X148915D01*
Y109547D01*
D15*
X160039Y97835D02*
X173031D01*
X160039D02*
Y103740D01*
X173031D01*
Y97835D02*
Y103740D01*
X199803Y119882D02*
X212795D01*
Y113976D02*
Y119882D01*
X199803Y113976D02*
X212795D01*
X199803D02*
Y119882D01*
X184449Y134055D02*
Y139961D01*
Y134055D02*
X197441D01*
Y139961D01*
X184449D02*
X197441D01*
X183661Y134055D02*
Y139961D01*
X170669D02*
X183661D01*
X170669Y134055D02*
Y139961D01*
Y134055D02*
X183661D01*
X213583Y110922D02*
Y112795D01*
Y106502D02*
Y107975D01*
X201378Y106499D02*
X213580D01*
X213583Y106502D01*
X201378Y106499D02*
Y107974D01*
Y110924D02*
Y112795D01*
X213583D01*
X188305Y76374D02*
X201298D01*
Y70468D02*
Y76374D01*
X188305Y70468D02*
X201298D01*
X188305D02*
Y76374D01*
X178150Y76968D02*
Y82874D01*
Y76968D02*
X191142D01*
Y82874D01*
X178150D02*
X191142D01*
X208661Y100591D02*
X221654D01*
X208661D02*
Y106496D01*
X221654D01*
Y100591D02*
Y106496D01*
X187992Y105118D02*
X200197D01*
Y106990D01*
Y109940D02*
Y111414D01*
X187992Y111411D02*
X187995Y111414D01*
X200197D01*
X187992Y109938D02*
Y111411D01*
Y105118D02*
Y106991D01*
X212008Y134055D02*
Y139961D01*
X199016D02*
X212008D01*
X199016Y134055D02*
Y139961D01*
Y134055D02*
X212008D01*
X216535Y83268D02*
Y95472D01*
Y83268D02*
X218407D01*
X221357D02*
X222832D01*
X222829Y95472D02*
X222832Y95469D01*
Y83268D02*
Y95469D01*
X221355Y95472D02*
X222829D01*
X216535D02*
X218408D01*
X163034Y81590D02*
X176026D01*
X163034D02*
Y87496D01*
X176026D01*
Y81590D02*
Y87496D01*
X202007Y63879D02*
X214212D01*
X202007Y62007D02*
Y63879D01*
Y57582D02*
Y59057D01*
X214209Y57582D02*
X214212Y57585D01*
X202007Y57582D02*
X214209D01*
X214212Y57585D02*
Y59059D01*
Y62006D02*
Y63879D01*
X195472Y56890D02*
Y69882D01*
X201378D01*
Y56890D02*
Y69882D01*
X195472Y56890D02*
X201378D01*
X179724Y69882D02*
X185630D01*
X179724Y56890D02*
Y69882D01*
Y56890D02*
X185630D01*
Y69882D01*
X182677Y97441D02*
Y109646D01*
X180806D02*
X182677D01*
X176381D02*
X177856D01*
X176381Y97444D02*
X176384Y97441D01*
X176381Y97444D02*
Y109646D01*
X176384Y97441D02*
X177857D01*
X180804D02*
X182677D01*
X186897Y69924D02*
X192802D01*
X186897Y56931D02*
Y69924D01*
Y56931D02*
X192802D01*
Y69924D01*
X156496Y83661D02*
X162402D01*
Y96653D01*
X156496D02*
X162402D01*
X156496Y83661D02*
Y96653D01*
X154921Y57284D02*
Y70276D01*
X160827D01*
Y57284D02*
Y70276D01*
X154921Y57284D02*
X160827D01*
X183071Y84842D02*
Y97047D01*
Y84842D02*
X184942D01*
X187892D02*
X189367D01*
X189364Y97047D02*
X189367Y97044D01*
Y84842D02*
Y97044D01*
X187891Y97047D02*
X189364D01*
X183071D02*
X184944D01*
X184449Y119095D02*
X197441D01*
Y113189D02*
Y119095D01*
X184449Y113189D02*
X197441D01*
X184449D02*
Y119095D01*
X170669Y113189D02*
X183661D01*
X170669D02*
Y119095D01*
X183661D01*
Y113189D02*
Y119095D01*
X166339Y129331D02*
X179331D01*
Y123425D02*
Y129331D01*
X166339Y123425D02*
X179331D01*
X166339D02*
Y129331D01*
M02*
