G04*
G04 #@! TF.GenerationSoftware,Altium Limited,Altium Designer,24.7.2 (38)*
G04*
G04 Layer_Color=16711935*
%FSLAX25Y25*%
%MOIN*%
G70*
G04*
G04 #@! TF.SameCoordinates,0AE953C0-7C88-47E9-B79E-664DAA7B62C1*
G04*
G04*
G04 #@! TF.FilePolarity,Positive*
G04*
G01*
G75*
%ADD10C,0.00787*%
%ADD14C,0.00394*%
%ADD65C,0.01000*%
%ADD76C,0.00591*%
D10*
X212829Y69693D02*
X210206Y73629D01*
Y69693D02*
X212829Y73629D01*
X208894D02*
X207582D01*
X208238D01*
Y69693D01*
X208894Y70350D01*
X187403Y124277D02*
Y121653D01*
X189371D01*
Y122965D01*
Y121653D01*
X191339D01*
X187403Y125589D02*
X191339D01*
Y128213D01*
Y129525D02*
Y130837D01*
Y130181D01*
X187403D01*
X188059Y129525D01*
D14*
X212598Y88977D02*
Y90617D01*
X212270Y90945D01*
X211614D01*
X211286Y90617D01*
Y88977D01*
X210630Y89305D02*
X210302Y88977D01*
X209647D01*
X209318Y89305D01*
Y89633D01*
X209647Y89961D01*
X209975D01*
X209647D01*
X209318Y90289D01*
Y90617D01*
X209647Y90945D01*
X210302D01*
X210630Y90617D01*
X166012Y99693D02*
X166504Y99201D01*
X167487D01*
X167979Y99693D01*
Y101661D01*
X167487Y102153D01*
X166504D01*
X166012Y101661D01*
X165028Y99693D02*
X164536Y99201D01*
X163552D01*
X163060Y99693D01*
Y100185D01*
X163552Y100677D01*
X164044D01*
X163552D01*
X163060Y101169D01*
Y101661D01*
X163552Y102153D01*
X164536D01*
X165028Y101661D01*
X205511Y132283D02*
X203871D01*
X203543Y131956D01*
Y131299D01*
X203871Y130972D01*
X205511D01*
X203543Y129332D02*
X205511D01*
X204527Y130316D01*
Y129004D01*
X206823Y118024D02*
X206331Y118516D01*
X205347D01*
X204855Y118024D01*
Y116056D01*
X205347Y115564D01*
X206331D01*
X206823Y116056D01*
X207807Y115564D02*
X208791D01*
X208299D01*
Y118516D01*
X207807Y118024D01*
X210267Y115564D02*
X211251D01*
X210759D01*
Y118516D01*
X210267Y118024D01*
X170079Y58661D02*
X171719D01*
X172047Y58989D01*
Y59645D01*
X171719Y59973D01*
X170079D01*
X172047Y61941D02*
Y60629D01*
X170735Y61941D01*
X170407D01*
X170079Y61613D01*
Y60957D01*
X170407Y60629D01*
X191469Y138102D02*
X190977Y138594D01*
X189993D01*
X189501Y138102D01*
Y136135D01*
X189993Y135643D01*
X190977D01*
X191469Y136135D01*
X192453Y135643D02*
X193437D01*
X192945D01*
Y138594D01*
X192453Y138102D01*
X196388Y135643D02*
Y138594D01*
X194913Y137118D01*
X196880D01*
X176641Y135913D02*
X177134Y135421D01*
X178117D01*
X178609Y135913D01*
Y137881D01*
X178117Y138373D01*
X177134D01*
X176641Y137881D01*
X175657Y138373D02*
X174674D01*
X175166D01*
Y135421D01*
X175657Y135913D01*
X171230Y135421D02*
X172214Y135913D01*
X173198Y136897D01*
Y137881D01*
X172706Y138373D01*
X171722D01*
X171230Y137881D01*
Y137389D01*
X171722Y136897D01*
X173198D01*
X208465Y111811D02*
Y108859D01*
X206989D01*
X206497Y109351D01*
Y110335D01*
X206989Y110827D01*
X208465D01*
X207481D02*
X206497Y111811D01*
X203545Y108859D02*
X205513D01*
Y110335D01*
X204529Y109843D01*
X204037D01*
X203545Y110335D01*
Y111319D01*
X204037Y111811D01*
X205021D01*
X205513Y111319D01*
X195325Y74515D02*
X194833Y75007D01*
X193850D01*
X193358Y74515D01*
Y72548D01*
X193850Y72056D01*
X194833D01*
X195325Y72548D01*
X196309Y74515D02*
X196801Y75007D01*
X197785D01*
X198277Y74515D01*
Y74024D01*
X197785Y73532D01*
X198277Y73040D01*
Y72548D01*
X197785Y72056D01*
X196801D01*
X196309Y72548D01*
Y73040D01*
X196801Y73532D01*
X196309Y74024D01*
Y74515D01*
X196801Y73532D02*
X197785D01*
X185169Y81016D02*
X184678Y81508D01*
X183694D01*
X183202Y81016D01*
Y79048D01*
X183694Y78556D01*
X184678D01*
X185169Y79048D01*
X186153D02*
X186645Y78556D01*
X187629D01*
X188121Y79048D01*
Y81016D01*
X187629Y81508D01*
X186645D01*
X186153Y81016D01*
Y80524D01*
X186645Y80032D01*
X188121D01*
X214634Y102449D02*
X215126Y101957D01*
X216109D01*
X216601Y102449D01*
Y104417D01*
X216109Y104909D01*
X215126D01*
X214634Y104417D01*
X213650Y104909D02*
X212666D01*
X213158D01*
Y101957D01*
X213650Y102449D01*
X211190D02*
X210698Y101957D01*
X209714D01*
X209222Y102449D01*
Y102941D01*
X209714Y103433D01*
X209222Y103925D01*
Y104417D01*
X209714Y104909D01*
X210698D01*
X211190Y104417D01*
Y103925D01*
X210698Y103433D01*
X211190Y102941D01*
Y102449D01*
X210698Y103433D02*
X209714D01*
X220079Y92257D02*
Y91601D01*
Y91929D01*
X221719D01*
X222047Y91601D01*
Y91273D01*
X221719Y90945D01*
X222047Y93897D02*
X220079D01*
X221063Y92913D01*
Y94225D01*
X193110Y106102D02*
Y109054D01*
X194586D01*
X195078Y108562D01*
Y107578D01*
X194586Y107086D01*
X193110D01*
X194094D02*
X195078Y106102D01*
X197538D02*
Y109054D01*
X196062Y107578D01*
X198030D01*
X204988Y135913D02*
X205480Y135421D01*
X206464D01*
X206956Y135913D01*
Y137881D01*
X206464Y138373D01*
X205480D01*
X204988Y137881D01*
X204004Y138373D02*
X203020D01*
X203512D01*
Y135421D01*
X204004Y135913D01*
X199576Y138373D02*
X201544D01*
X199576Y136405D01*
Y135913D01*
X200068Y135421D01*
X201052D01*
X201544Y135913D01*
X217520Y90354D02*
X220472D01*
Y88878D01*
X219980Y88386D01*
X218996D01*
X218504Y88878D01*
Y90354D01*
Y89370D02*
X217520Y88386D01*
X219980Y87402D02*
X220472Y86911D01*
Y85927D01*
X219980Y85435D01*
X219488D01*
X218996Y85927D01*
X218504Y85435D01*
X218012D01*
X217520Y85927D01*
Y86911D01*
X218012Y87402D01*
X218504D01*
X218996Y86911D01*
X219488Y87402D01*
X219980D01*
X218996Y86911D02*
Y85927D01*
X164961Y125591D02*
Y127559D01*
X163977D01*
X163649Y127231D01*
Y125919D01*
X163977Y125591D01*
X164961D01*
X162993Y127559D02*
X162337D01*
X162665D01*
Y125591D01*
X162993Y125919D01*
X169006Y83449D02*
X169498Y82957D01*
X170482D01*
X170974Y83449D01*
Y85417D01*
X170482Y85909D01*
X169498D01*
X169006Y85417D01*
X168022Y82957D02*
X166054D01*
Y83449D01*
X168022Y85417D01*
Y85909D01*
X209094Y62894D02*
Y59943D01*
X207618D01*
X207126Y60435D01*
Y61418D01*
X207618Y61910D01*
X209094D01*
X208110D02*
X207126Y62894D01*
X204174D02*
X206142D01*
X204174Y60927D01*
Y60435D01*
X204666Y59943D01*
X205650D01*
X206142Y60435D01*
X197331Y63910D02*
X196839Y63418D01*
Y62434D01*
X197331Y61942D01*
X199299D01*
X199790Y62434D01*
Y63418D01*
X199299Y63910D01*
X199790Y64894D02*
Y65878D01*
Y65386D01*
X196839D01*
X197331Y64894D01*
X196839Y67353D02*
Y69321D01*
X197331D01*
X199299Y67353D01*
X199790D01*
X183772Y62862D02*
X184264Y63354D01*
Y64338D01*
X183772Y64830D01*
X181804D01*
X181312Y64338D01*
Y63354D01*
X181804Y62862D01*
X184264Y59910D02*
Y61878D01*
X182788D01*
X183280Y60894D01*
Y60402D01*
X182788Y59910D01*
X181804D01*
X181312Y60402D01*
Y61386D01*
X181804Y61878D01*
X181693Y102559D02*
X178741D01*
Y104035D01*
X179233Y104527D01*
X180217D01*
X180709Y104035D01*
Y102559D01*
Y103543D02*
X181693Y104527D01*
Y105511D02*
Y106495D01*
Y106003D01*
X178741D01*
X179233Y105511D01*
X190944Y62904D02*
X191436Y63396D01*
Y64380D01*
X190944Y64872D01*
X188976D01*
X188484Y64380D01*
Y63396D01*
X188976Y62904D01*
X188484Y61920D02*
Y60936D01*
Y61428D01*
X191436D01*
X190944Y61920D01*
Y59460D02*
X191436Y58968D01*
Y57984D01*
X190944Y57492D01*
X188976D01*
X188484Y57984D01*
Y58968D01*
X188976Y59460D01*
X190944D01*
X158354Y90681D02*
X157862Y90189D01*
Y89205D01*
X158354Y88714D01*
X160322D01*
X160814Y89205D01*
Y90189D01*
X160322Y90681D01*
X160814Y91665D02*
Y92649D01*
Y92157D01*
X157862D01*
X158354Y91665D01*
X156779Y64303D02*
X156287Y63811D01*
Y62827D01*
X156779Y62335D01*
X158747D01*
X159239Y62827D01*
Y63811D01*
X158747Y64303D01*
X159239Y66763D02*
X156287D01*
X157763Y65287D01*
Y67255D01*
X184055Y91929D02*
X187007D01*
Y90453D01*
X186515Y89961D01*
X185531D01*
X185039Y90453D01*
Y91929D01*
Y90945D02*
X184055Y89961D01*
X186515Y88977D02*
X187007Y88485D01*
Y87501D01*
X186515Y87009D01*
X186023D01*
X185531Y87501D01*
Y87993D01*
Y87501D01*
X185039Y87009D01*
X184547D01*
X184055Y87501D01*
Y88485D01*
X184547Y88977D01*
X191469Y117236D02*
X190977Y117728D01*
X189993D01*
X189501Y117236D01*
Y115269D01*
X189993Y114777D01*
X190977D01*
X191469Y115269D01*
X192453Y114777D02*
X193437D01*
X192945D01*
Y117728D01*
X192453Y117236D01*
X194913D02*
X195405Y117728D01*
X196388D01*
X196880Y117236D01*
Y116744D01*
X196388Y116252D01*
X195896D01*
X196388D01*
X196880Y115760D01*
Y115269D01*
X196388Y114777D01*
X195405D01*
X194913Y115269D01*
X176641Y115047D02*
X177134Y114555D01*
X178117D01*
X178609Y115047D01*
Y117015D01*
X178117Y117507D01*
X177134D01*
X176641Y117015D01*
X175657Y117507D02*
X174674D01*
X175166D01*
Y114555D01*
X175657Y115047D01*
X171230Y114555D02*
X173198D01*
Y116031D01*
X172214Y115539D01*
X171722D01*
X171230Y116031D01*
Y117015D01*
X171722Y117507D01*
X172706D01*
X173198Y117015D01*
X173359Y127473D02*
X172867Y127964D01*
X171883D01*
X171391Y127473D01*
Y125505D01*
X171883Y125013D01*
X172867D01*
X173359Y125505D01*
X174343Y125013D02*
X175326D01*
X174834D01*
Y127964D01*
X174343Y127473D01*
X176802Y125505D02*
X177294Y125013D01*
X178278D01*
X178770Y125505D01*
Y127473D01*
X178278Y127964D01*
X177294D01*
X176802Y127473D01*
Y126981D01*
X177294Y126489D01*
X178770D01*
D65*
X136003Y77869D02*
X134691D01*
X135347D01*
Y74589D01*
X134691Y73933D01*
X134035D01*
X133379Y74589D01*
X137315Y73933D02*
X138627D01*
X137971D01*
Y77869D01*
X137315Y77213D01*
X168292Y73804D02*
X169079Y73017D01*
X170654D01*
X171441Y73804D01*
Y76953D01*
X170654Y77740D01*
X169079D01*
X168292Y76953D01*
X163569Y73017D02*
X165144Y73804D01*
X166718Y75379D01*
Y76953D01*
X165931Y77740D01*
X164357D01*
X163569Y76953D01*
Y76166D01*
X164357Y75379D01*
X166718D01*
X136003Y121766D02*
X134691D01*
X135347D01*
Y118487D01*
X134691Y117831D01*
X134035D01*
X133379Y118487D01*
X139939Y117831D02*
X137315D01*
X139939Y120455D01*
Y121110D01*
X139283Y121766D01*
X137971D01*
X137315Y121110D01*
D76*
X168702Y88779D02*
X170998D01*
X171457Y89239D01*
Y90157D01*
X170998Y90616D01*
X168702D01*
X171457Y91535D02*
Y92453D01*
Y91994D01*
X168702D01*
X169161Y91535D01*
M02*
