G04*
G04 #@! TF.GenerationSoftware,Altium Limited,Altium Designer,24.7.2 (38)*
G04*
G04 Layer_Color=2752767*
%FSLAX25Y25*%
%MOIN*%
G70*
G04*
G04 #@! TF.SameCoordinates,0AE953C0-7C88-47E9-B79E-664DAA7B62C1*
G04*
G04*
G04 #@! TF.FilePolarity,Positive*
G04*
G01*
G75*
%ADD14C,0.00394*%
%ADD15C,0.00500*%
%ADD77C,0.00315*%
%ADD78C,0.00100*%
%ADD79C,0.00504*%
D14*
X131228Y187298D02*
X352864D01*
X131228Y184439D02*
X352864D01*
X131228Y181580D02*
X352864D01*
Y190157D01*
X131228D02*
X352864D01*
X131228Y181580D02*
Y190157D01*
X326189Y181580D02*
Y190157D01*
X300371Y181580D02*
Y190157D01*
X283700Y181580D02*
Y190157D01*
X246484Y181580D02*
Y190157D01*
X231871Y181580D02*
Y190157D01*
X220230Y181580D02*
Y190157D01*
X197156Y181580D02*
Y190157D01*
X182771Y181580D02*
Y190157D01*
X172731Y181580D02*
Y190157D01*
X152665Y181580D02*
Y190157D01*
X142126Y181580D02*
Y190157D01*
X243975Y167691D02*
X343208D01*
X243975Y170283D02*
X343208D01*
X243975Y139177D02*
Y170283D01*
Y139177D02*
X253028D01*
X243975Y141769D02*
X253028D01*
X243975Y144361D02*
X253028D01*
X243975Y146953D02*
X253028D01*
X243975Y149545D02*
X253028D01*
X243975Y152138D02*
X253028D01*
X243975Y154730D02*
X253028D01*
X243975Y157322D02*
X253028D01*
X243975Y159914D02*
X253028D01*
X243975Y162506D02*
X253028D01*
X243975Y165099D02*
X253028D01*
Y139177D02*
Y170283D01*
Y139177D02*
X273310D01*
X253028Y141769D02*
X273310D01*
X253028Y144361D02*
X273310D01*
X253028Y146953D02*
X273310D01*
X253028Y149545D02*
X273310D01*
X253028Y152138D02*
X273310D01*
X253028Y154730D02*
X273310D01*
X253028Y157322D02*
X273310D01*
X253028Y159914D02*
X273310D01*
X253028Y162506D02*
X273310D01*
X253028Y165099D02*
X273310D01*
Y139177D02*
Y170283D01*
Y139177D02*
X292080D01*
X273310Y141769D02*
X292080D01*
X273310Y144361D02*
X292080D01*
X273310Y146953D02*
X292080D01*
X273310Y149545D02*
X292080D01*
X273310Y152138D02*
X292080D01*
X273310Y154730D02*
X292080D01*
X273310Y157322D02*
X292080D01*
X273310Y159914D02*
X292080D01*
X273310Y162506D02*
X292080D01*
X273310Y165099D02*
X292080D01*
Y139177D02*
Y170283D01*
Y139177D02*
X306315D01*
X292080Y141769D02*
X306315D01*
X292080Y144361D02*
X306315D01*
X292080Y146953D02*
X306315D01*
X292080Y149545D02*
X306315D01*
X292080Y152138D02*
X306315D01*
X292080Y154730D02*
X306315D01*
X292080Y157322D02*
X306315D01*
X292080Y159914D02*
X306315D01*
X292080Y162506D02*
X306315D01*
X292080Y165099D02*
X306315D01*
Y139177D02*
Y170283D01*
Y139177D02*
X318823D01*
X306315Y141769D02*
X318823D01*
X306315Y144361D02*
X318823D01*
X306315Y146953D02*
X318823D01*
X306315Y149545D02*
X318823D01*
X306315Y152138D02*
X318823D01*
X306315Y154730D02*
X318823D01*
X306315Y157322D02*
X318823D01*
X306315Y159914D02*
X318823D01*
X306315Y162506D02*
X318823D01*
X306315Y165099D02*
X318823D01*
Y139177D02*
Y170283D01*
Y139177D02*
X343208D01*
X318823Y141769D02*
X343208D01*
X318823Y144361D02*
X343208D01*
X318823Y146953D02*
X343208D01*
X318823Y149545D02*
X343208D01*
X318823Y152138D02*
X343208D01*
X318823Y154730D02*
X343208D01*
X318823Y157322D02*
X343208D01*
X318823Y159914D02*
X343208D01*
X318823Y162506D02*
X343208D01*
X318823Y165099D02*
X343208D01*
Y139177D02*
Y170283D01*
X243975Y61936D02*
Y62338D01*
Y61936D02*
X244132Y61146D01*
X244441Y60402D01*
X244888Y59732D01*
X245457Y59163D01*
X246127Y58715D01*
X246871Y58407D01*
X247661Y58250D01*
X248063Y58250D01*
X320537Y58250D01*
X320940Y58250D01*
X321729Y58407D01*
X322474Y58715D01*
X323143Y59163D01*
X323713Y59732D01*
X324160Y60402D01*
X324468Y61146D01*
X324625Y61936D01*
X324625Y62338D01*
Y70329D01*
X329085D01*
Y78320D01*
X343208D01*
Y83957D01*
X341350D02*
X343208D01*
X341350D02*
Y112822D01*
X343208D01*
Y118459D01*
X329085D02*
X343208D01*
X329085D02*
Y126450D01*
X324625D02*
X329085D01*
X324625Y134440D02*
X324625Y126450D01*
X324625Y134440D02*
Y134843D01*
X324468Y135633D02*
X324625Y134843D01*
X324160Y136377D02*
X324468Y135633D01*
X323713Y137046D02*
X324160Y136377D01*
X323143Y137616D02*
X323713Y137046D01*
X322474Y138063D02*
X323143Y137616D01*
X321729Y138372D02*
X322474Y138063D01*
X320940Y138529D02*
X321729Y138372D01*
X320537Y138529D02*
X320940Y138529D01*
X248063Y138529D02*
X320537Y138529D01*
X247661Y138529D02*
X248063Y138529D01*
X246871Y138371D02*
X247661Y138529D01*
X246127Y138063D02*
X246871Y138371D01*
X245457Y137616D02*
X246127Y138063D01*
X244888Y137046D02*
X245457Y137616D01*
X244441Y136377D02*
X244888Y137046D01*
X244132Y135633D02*
X244441Y136377D01*
X243975Y134843D02*
X244132Y135633D01*
X243975Y134440D02*
Y134843D01*
Y134440D02*
X243975Y62338D01*
D15*
X163642Y123878D02*
X168642D01*
Y128878D01*
X163642D02*
X168642D01*
X163642Y123878D02*
Y128878D01*
X221516Y90020D02*
X226516D01*
Y95020D01*
X221516D02*
X226516D01*
X221516Y90020D02*
Y95020D01*
Y86083D02*
X226516D01*
Y91083D01*
X221516D02*
X226516D01*
X221516Y86083D02*
Y91083D01*
X134114Y65610D02*
X139114D01*
Y70610D01*
X134114D02*
X139114D01*
X134114Y65610D02*
Y70610D01*
X185295Y117972D02*
X190295D01*
Y122972D01*
X185295D02*
X190295D01*
X185295Y117972D02*
Y122972D01*
Y129783D02*
X190295D01*
Y134783D01*
X185295D02*
X190295D01*
X185295Y129783D02*
Y134783D01*
X211673Y134508D02*
X216673D01*
Y139508D01*
X211673D02*
X216673D01*
X211673Y134508D02*
Y139508D01*
X134114Y127815D02*
X139114D01*
Y132815D01*
X134114D02*
X139114D01*
X134114Y127815D02*
Y132815D01*
Y110492D02*
X139114D01*
Y115492D01*
X134114D02*
X139114D01*
X134114Y110492D02*
Y115492D01*
X148287Y63642D02*
X153287D01*
Y68642D01*
X148287D02*
X153287D01*
X148287Y63642D02*
Y68642D01*
X134114Y55374D02*
X139114D01*
Y60374D01*
X134114D02*
X139114D01*
X134114Y55374D02*
Y60374D01*
X153012Y136083D02*
X158012D01*
Y141083D01*
X153012D02*
X158012D01*
X153012Y136083D02*
Y141083D01*
X134114Y136870D02*
X139114D01*
Y141870D01*
X134114D02*
X139114D01*
X134114Y136870D02*
Y141870D01*
X221122Y109705D02*
X226122D01*
Y114705D01*
X221122D02*
X226122D01*
X221122Y109705D02*
Y114705D01*
X221516Y95925D02*
X226516D01*
Y100925D01*
X221516D02*
X226516D01*
X221516Y95925D02*
Y100925D01*
X221673Y105925D02*
X226673D01*
Y110925D01*
X221673D02*
X226673D01*
X221673Y105925D02*
Y110925D01*
X205374Y101043D02*
X210374D01*
Y106043D01*
X205374D02*
X210374D01*
X205374Y101043D02*
Y106043D01*
X200256Y87264D02*
X205256D01*
Y92264D01*
X200256D02*
X205256D01*
X200256Y87264D02*
Y92264D01*
X200234Y82167D02*
X205234D01*
Y87167D01*
X200234D02*
X205234D01*
X200234Y82167D02*
Y87167D01*
X174665Y82146D02*
X179665D01*
Y87146D01*
X174665D02*
X179665D01*
X174665Y82146D02*
Y87146D01*
X202618Y121122D02*
X207618D01*
Y126122D01*
X202618D02*
X207618D01*
X202618Y121122D02*
Y126122D01*
Y127421D02*
X207618D01*
Y132421D01*
X202618D02*
X207618D01*
X202618Y127421D02*
Y132421D01*
X200234Y92419D02*
X205234D01*
Y97419D01*
X200234D02*
X205234D01*
X200234Y92419D02*
Y97419D01*
X213051Y85295D02*
X218051D01*
Y90295D01*
X213051D02*
X218051D01*
X213051Y85295D02*
Y90295D01*
X168366Y67185D02*
X173366D01*
Y72185D01*
X168366D02*
X173366D01*
X168366Y67185D02*
Y72185D01*
X195159Y87157D02*
X200159D01*
Y92157D01*
X195159D02*
X200159D01*
X195159Y87157D02*
Y92157D01*
X173484Y60886D02*
X178484D01*
Y65886D01*
X173484D02*
X178484D01*
X173484Y60886D02*
Y65886D01*
X200650Y64429D02*
X205650D01*
Y69429D01*
X200650D02*
X205650D01*
X200650Y64429D02*
Y69429D01*
X134114Y82933D02*
X139114D01*
Y87933D01*
X134114D02*
X139114D01*
X134114Y82933D02*
Y87933D01*
X183721Y72697D02*
X188721D01*
Y77697D01*
X183721D02*
X188721D01*
X183721Y72697D02*
Y77697D01*
X175847Y72303D02*
X180847D01*
Y77303D01*
X175847D02*
X180847D01*
X175847Y72303D02*
Y77303D01*
X134114Y96319D02*
X139114D01*
Y101319D01*
X134114D02*
X139114D01*
X134114Y96319D02*
Y101319D01*
X205411Y87285D02*
X210411D01*
Y92285D01*
X205411D02*
X210411D01*
X205411Y87285D02*
Y92285D01*
X210585Y124735D02*
X215585D01*
Y129735D01*
X210585D02*
X215585D01*
X210585Y124735D02*
Y129735D01*
X179587Y130177D02*
X184587D01*
Y135177D01*
X179587D02*
X184587D01*
X179587Y130177D02*
Y135177D01*
X167185Y93169D02*
X172185D01*
Y98169D01*
X167185D02*
X172185D01*
X167185Y93169D02*
Y98169D01*
Y87264D02*
X172185D01*
Y92264D01*
X167185D02*
X172185D01*
X167185Y87264D02*
Y92264D01*
X157343Y79390D02*
X162343D01*
Y84390D01*
X157343D02*
X162343D01*
X157343Y79390D02*
Y84390D01*
X178602Y117972D02*
X183602D01*
Y122972D01*
X178602D02*
X183602D01*
X178602Y117972D02*
Y122972D01*
X200502Y111236D02*
X205502D01*
Y116236D01*
X200502D02*
X205502D01*
X200502Y111236D02*
Y116236D01*
X191595Y64823D02*
X196595D01*
Y69823D01*
X191595D02*
X196595D01*
X191595Y64823D02*
Y69823D01*
X168366Y58524D02*
X173366D01*
Y63524D01*
X168366D02*
X173366D01*
X168366Y58524D02*
Y63524D01*
X194744Y129783D02*
X199744D01*
Y134783D01*
X194744D02*
X199744D01*
X194744Y129783D02*
Y134783D01*
X202618Y124272D02*
X207618D01*
Y129272D01*
X202618D02*
X207618D01*
X202618Y124272D02*
Y129272D01*
X185295Y123370D02*
X190295D01*
Y128370D01*
X185295D02*
X190295D01*
X185295Y123370D02*
Y128370D01*
X153405Y130571D02*
X158405D01*
Y135571D01*
X153405D02*
X158405D01*
X153405Y130571D02*
Y135571D01*
X156555Y112461D02*
X161555D01*
Y117461D01*
X156555D02*
X161555D01*
X156555Y112461D02*
Y117461D01*
X166791Y111008D02*
X171791D01*
Y116008D01*
X166791D02*
X171791D01*
X166791Y111008D02*
Y116008D01*
X182146Y80965D02*
X187146D01*
Y85965D01*
X182146D02*
X187146D01*
X182146Y80965D02*
Y85965D01*
X134114Y73090D02*
X139114D01*
Y78091D01*
X134114D02*
X139114D01*
X134114Y73090D02*
Y78091D01*
X194858Y118366D02*
X199858D01*
Y123366D01*
X194858D02*
X199858D01*
X194858Y118366D02*
Y123366D01*
X170728Y77815D02*
X175728D01*
Y82815D01*
X170728D02*
X175728D01*
X170728Y77815D02*
Y82815D01*
X159311Y65216D02*
X164311D01*
Y70217D01*
X159311D02*
X164311D01*
X159311Y65216D02*
Y70217D01*
X159408Y57736D02*
X164408D01*
Y62736D01*
X159408D02*
X164408D01*
X159408Y57736D02*
Y62736D01*
X153415Y94715D02*
X158415D01*
Y99715D01*
X153415D02*
X158415D01*
X153415Y94715D02*
Y99715D01*
X187670Y87281D02*
X192670D01*
Y92281D01*
X187670D02*
X192670D01*
X187670Y87281D02*
Y92281D01*
X181752Y100256D02*
X186752D01*
Y105256D01*
X181752D02*
X186752D01*
X181752Y100256D02*
Y105256D01*
X163642Y106161D02*
X168642D01*
Y111161D01*
X163642D02*
X168642D01*
X163642Y106161D02*
Y111161D01*
X183327Y109311D02*
X188327D01*
Y114311D01*
X183327D02*
X188327D01*
X183327Y109311D02*
Y114311D01*
X171516Y109689D02*
X176516D01*
Y114689D01*
X171516D02*
X176516D01*
X171516Y109689D02*
Y114689D01*
X177815Y109311D02*
X182815D01*
Y114311D01*
X177815D02*
X182815D01*
X177815Y109311D02*
Y114311D01*
X134114Y120728D02*
X139114D01*
Y125728D01*
X134114D02*
X139114D01*
X134114Y120728D02*
Y125728D01*
X145121Y130659D02*
X150121D01*
Y135659D01*
X145121D02*
X150121D01*
X145121Y130659D02*
Y135659D01*
X144669Y60707D02*
X149669D01*
Y65707D01*
X144669D02*
X149669D01*
X144669Y60707D02*
Y65707D01*
X178996Y73484D02*
X183996D01*
Y78484D01*
X178996D02*
X183996D01*
X178996Y73484D02*
Y78484D01*
X184114Y68366D02*
X189114D01*
Y73366D01*
X184114D02*
X189114D01*
X184114Y68366D02*
Y73366D01*
X191649Y74720D02*
X196649D01*
Y79720D01*
X191649D02*
X196649D01*
X191649Y74720D02*
Y79720D01*
X216004Y106161D02*
X221004D01*
Y111161D01*
X216004D02*
X221004D01*
X216004Y106161D02*
Y111161D01*
X153208Y126777D02*
X158208D01*
Y131777D01*
X153208D02*
X158208D01*
X153208Y126777D02*
Y131777D01*
X153280Y123634D02*
X158281D01*
Y128634D01*
X153280D02*
X158281D01*
X153280Y123634D02*
Y128634D01*
X153786Y79459D02*
X158786D01*
Y84459D01*
X153786D02*
X158786D01*
X153786Y79459D02*
Y84459D01*
X152618Y76634D02*
X157618D01*
Y81634D01*
X152618D02*
X157618D01*
X152618Y76634D02*
Y81634D01*
X159311Y72303D02*
X164311D01*
Y77303D01*
X159311D02*
X164311D01*
X159311Y72303D02*
Y77303D01*
X160637Y109666D02*
X165637D01*
Y114666D01*
X160637D02*
X165637D01*
X160637Y109666D02*
Y114666D01*
X191595Y57342D02*
X196595D01*
Y62343D01*
X191595D02*
X196595D01*
X191595Y57342D02*
Y62343D01*
X150650Y58130D02*
X155650D01*
Y63130D01*
X150650D02*
X155650D01*
X150650Y58130D02*
Y63130D01*
X210667Y95925D02*
X215667D01*
Y100925D01*
X210667D02*
X215667D01*
X210667Y95925D02*
Y100925D01*
X211673Y75453D02*
X216673D01*
Y80453D01*
X211673D02*
X216673D01*
X211673Y75453D02*
Y80453D01*
X205402Y75146D02*
X210402D01*
Y80146D01*
X205402D02*
X210402D01*
X205402Y75146D02*
Y80146D01*
X175059Y92382D02*
X180059D01*
Y97382D01*
X175059D02*
X180059D01*
X175059Y92382D02*
Y97382D01*
X179228Y89815D02*
X184228D01*
Y94814D01*
X179228D02*
X184228D01*
X179228Y89815D02*
Y94814D01*
X212461Y58130D02*
X217461D01*
Y63130D01*
X212461D02*
X217461D01*
X212461Y58130D02*
Y63130D01*
X141988Y96319D02*
X146988D01*
Y101319D01*
X141988D02*
X146988D01*
X141988Y96319D02*
Y101319D01*
X189626Y99876D02*
X194626D01*
Y104876D01*
X189626D02*
X194626D01*
X189626Y99876D02*
Y104876D01*
X193969Y99876D02*
X198969D01*
Y104876D01*
X193969D02*
X198969D01*
X193969Y99876D02*
Y104876D01*
X168366Y62854D02*
X173366D01*
Y67854D01*
X168366D02*
X173366D01*
X168366Y62854D02*
Y67854D01*
X153279Y118110D02*
X158280D01*
Y123110D01*
X153279D02*
X158280D01*
X153279Y118110D02*
Y123110D01*
X153286Y114469D02*
X158286D01*
Y119468D01*
X153286D02*
X158286D01*
X153286Y114469D02*
Y119468D01*
X154140Y68940D02*
X159140D01*
Y73940D01*
X154140D02*
X159140D01*
X154140Y68940D02*
Y73940D01*
X152666Y71683D02*
X157666D01*
Y76683D01*
X152666D02*
X157666D01*
X152666Y71683D02*
Y76683D01*
D77*
X132406Y185297D02*
X133677D01*
Y186568D01*
X132406D02*
X133677D01*
X132406Y185297D02*
Y186568D01*
X327046Y186250D02*
X327237Y186440D01*
X327618D01*
X327808Y186250D01*
Y185487D01*
X327618Y185297D01*
X327237D01*
X327046Y185487D01*
Y186250D01*
X328190Y185297D02*
Y185487D01*
X328380D01*
Y185297D01*
X328190D01*
X329142D02*
X329523D01*
X329333D01*
Y186440D01*
X329142Y186250D01*
X330095D02*
X330286Y186440D01*
X330667D01*
X330857Y186250D01*
Y185487D01*
X330667Y185297D01*
X330286D01*
X330095Y185487D01*
Y186250D01*
X331238D02*
X331429Y186440D01*
X331810D01*
X332000Y186250D01*
Y185487D01*
X331810Y185297D01*
X331429D01*
X331238Y185487D01*
Y186250D01*
X332382Y185297D02*
Y186059D01*
X332572D01*
X332763Y185869D01*
Y185297D01*
Y185869D01*
X332953Y186059D01*
X333144Y185869D01*
Y185297D01*
X333525D02*
Y186059D01*
X333715D01*
X333906Y185869D01*
Y185297D01*
Y185869D01*
X334097Y186059D01*
X334287Y185869D01*
Y185297D01*
X336192D02*
X335811Y185678D01*
Y186059D01*
X336192Y186440D01*
X336764Y186250D02*
X336955Y186440D01*
X337336D01*
X337526Y186250D01*
Y186059D01*
X337336Y185869D01*
X337145D01*
X337336D01*
X337526Y185678D01*
Y185487D01*
X337336Y185297D01*
X336955D01*
X336764Y185487D01*
X337907Y185297D02*
Y185487D01*
X338098D01*
Y185297D01*
X337907D01*
X338860Y185487D02*
X339051Y185297D01*
X339432D01*
X339622Y185487D01*
Y186250D01*
X339432Y186440D01*
X339051D01*
X338860Y186250D01*
Y186059D01*
X339051Y185869D01*
X339622D01*
X340575Y185297D02*
Y186440D01*
X340003Y185869D01*
X340766D01*
X341147Y185297D02*
Y186059D01*
X341337D01*
X341528Y185869D01*
Y185297D01*
Y185869D01*
X341718Y186059D01*
X341909Y185869D01*
Y185297D01*
X342290D02*
X342671D01*
X342481D01*
Y186059D01*
X342290D01*
X343243Y185297D02*
X343624D01*
X343433D01*
Y186440D01*
X343243D01*
X344196Y185297D02*
X344577Y185678D01*
Y186059D01*
X344196Y186440D01*
X301229Y186250D02*
X301419Y186440D01*
X301800D01*
X301991Y186250D01*
Y185487D01*
X301800Y185297D01*
X301419D01*
X301229Y185487D01*
Y186250D01*
X302372Y185297D02*
Y185487D01*
X302562D01*
Y185297D01*
X302372D01*
X303325D02*
X303706D01*
X303515D01*
Y186440D01*
X303325Y186250D01*
X304277D02*
X304468Y186440D01*
X304849D01*
X305040Y186250D01*
Y185487D01*
X304849Y185297D01*
X304468D01*
X304277Y185487D01*
Y186250D01*
X305421D02*
X305611Y186440D01*
X305992D01*
X306183Y186250D01*
Y185487D01*
X305992Y185297D01*
X305611D01*
X305421Y185487D01*
Y186250D01*
X306564Y185297D02*
Y186059D01*
X306754D01*
X306945Y185869D01*
Y185297D01*
Y185869D01*
X307136Y186059D01*
X307326Y185869D01*
Y185297D01*
X307707D02*
Y186059D01*
X307898D01*
X308088Y185869D01*
Y185297D01*
Y185869D01*
X308279Y186059D01*
X308470Y185869D01*
Y185297D01*
X310375D02*
X309994Y185678D01*
Y186059D01*
X310375Y186440D01*
X310946Y186250D02*
X311137Y186440D01*
X311518D01*
X311709Y186250D01*
Y186059D01*
X311518Y185869D01*
X311328D01*
X311518D01*
X311709Y185678D01*
Y185487D01*
X311518Y185297D01*
X311137D01*
X310946Y185487D01*
X312090Y185297D02*
Y185487D01*
X312280D01*
Y185297D01*
X312090D01*
X313043Y185487D02*
X313233Y185297D01*
X313614D01*
X313805Y185487D01*
Y186250D01*
X313614Y186440D01*
X313233D01*
X313043Y186250D01*
Y186059D01*
X313233Y185869D01*
X313805D01*
X314757Y185297D02*
Y186440D01*
X314186Y185869D01*
X314948D01*
X315329Y185297D02*
Y186059D01*
X315520D01*
X315710Y185869D01*
Y185297D01*
Y185869D01*
X315901Y186059D01*
X316091Y185869D01*
Y185297D01*
X316472D02*
X316853D01*
X316663D01*
Y186059D01*
X316472D01*
X317425Y185297D02*
X317806D01*
X317616D01*
Y186440D01*
X317425D01*
X318378Y185297D02*
X318759Y185678D01*
Y186059D01*
X318378Y186440D01*
X247342Y186059D02*
X247723Y185297D01*
X248104Y186059D01*
X249247Y186440D02*
X248485D01*
Y185869D01*
X248866Y186059D01*
X249057D01*
X249247Y185869D01*
Y185487D01*
X249057Y185297D01*
X248676D01*
X248485Y185487D01*
X249628Y186250D02*
X249819Y186440D01*
X250200D01*
X250391Y186250D01*
Y185487D01*
X250200Y185297D01*
X249819D01*
X249628Y185487D01*
Y186250D01*
X250772Y186440D02*
Y185297D01*
Y185869D01*
X250962Y186059D01*
X251343D01*
X251534Y185869D01*
Y185297D01*
X252677D02*
X251915D01*
X252677Y186059D01*
Y186250D01*
X252487Y186440D01*
X252106D01*
X251915Y186250D01*
X253820Y186440D02*
X253058D01*
Y185869D01*
X253439Y186059D01*
X253630D01*
X253820Y185869D01*
Y185487D01*
X253630Y185297D01*
X253249D01*
X253058Y185487D01*
X254202Y185297D02*
Y186059D01*
X254392D01*
X254583Y185869D01*
Y185297D01*
Y185869D01*
X254773Y186059D01*
X254964Y185869D01*
Y185297D01*
X255345Y186250D02*
X255535Y186440D01*
X255917D01*
X256107Y186250D01*
Y185487D01*
X255917Y185297D01*
X255535D01*
X255345Y185487D01*
Y186250D01*
X256488Y185297D02*
Y186059D01*
X256679D01*
X256869Y185869D01*
Y185297D01*
Y185869D01*
X257060Y186059D01*
X257250Y185869D01*
Y185297D01*
X257631Y186059D02*
X258394Y185297D01*
X258013Y185678D01*
X258394Y186059D01*
X257631Y185297D01*
X258775Y186250D02*
X258965Y186440D01*
X259346D01*
X259537Y186250D01*
Y185487D01*
X259346Y185297D01*
X258965D01*
X258775Y185487D01*
Y186250D01*
X260299Y185297D02*
X259918Y185678D01*
Y186059D01*
X260299Y186440D01*
X260871D02*
X261633D01*
X261252D01*
Y185297D01*
X262205D02*
X262586D01*
X262776Y185487D01*
Y185869D01*
X262586Y186059D01*
X262205D01*
X262014Y185869D01*
Y185487D01*
X262205Y185297D01*
X263157D02*
X263538D01*
X263348D01*
Y186440D01*
X263157D01*
X264110Y185297D02*
X264491D01*
X264301D01*
Y186440D01*
X264110Y186250D01*
X265063D02*
X265253Y186440D01*
X265634D01*
X265825Y186250D01*
Y185487D01*
X265634Y185297D01*
X265253D01*
X265063Y185487D01*
Y186250D01*
X266206Y185869D02*
X266968D01*
X267349Y185297D02*
X267730D01*
X267540D01*
Y186440D01*
X267349Y186250D01*
X268302D02*
X268493Y186440D01*
X268874D01*
X269064Y186250D01*
Y185487D01*
X268874Y185297D01*
X268493D01*
X268302Y185487D01*
Y186250D01*
X269445Y185297D02*
X269826Y185678D01*
Y186059D01*
X269445Y186440D01*
X270398Y185106D02*
X271160D01*
X272304Y185297D02*
X271541D01*
X272304Y186059D01*
Y186250D01*
X272113Y186440D01*
X271732D01*
X271541Y186250D01*
X273447Y186440D02*
X273066Y186250D01*
X272685Y185869D01*
Y185487D01*
X272875Y185297D01*
X273256D01*
X273447Y185487D01*
Y185678D01*
X273256Y185869D01*
X272685D01*
X273828Y186440D02*
X274590D01*
Y186250D01*
X273828Y185487D01*
Y185297D01*
X274971Y186250D02*
X275162Y186440D01*
X275543D01*
X275733Y186250D01*
Y185487D01*
X275543Y185297D01*
X275162D01*
X274971Y185487D01*
Y186250D01*
X276115D02*
X276305Y186440D01*
X276686D01*
X276877Y186250D01*
Y185487D01*
X276686Y185297D01*
X276305D01*
X276115Y185487D01*
Y186250D01*
X277258D02*
X277448Y186440D01*
X277829D01*
X278020Y186250D01*
Y186059D01*
X277829Y185869D01*
X277639D01*
X277829D01*
X278020Y185678D01*
Y185487D01*
X277829Y185297D01*
X277448D01*
X277258Y185487D01*
X278973Y185297D02*
Y186440D01*
X278401Y185869D01*
X279163D01*
X279544Y186250D02*
X279735Y186440D01*
X280116D01*
X280307Y186250D01*
Y185487D01*
X280116Y185297D01*
X279735D01*
X279544Y185487D01*
Y186250D01*
X280688Y186440D02*
X281450D01*
Y186250D01*
X280688Y185487D01*
Y185297D01*
X281831D02*
X282212D01*
X282021D01*
Y186440D01*
X281831Y186250D01*
X232729Y185297D02*
Y186440D01*
X233300D01*
X233491Y186250D01*
Y185869D01*
X233300Y185678D01*
X232729D01*
X233110D02*
X233491Y185297D01*
X234062D02*
X234443D01*
X234634Y185487D01*
Y185869D01*
X234443Y186059D01*
X234062D01*
X233872Y185869D01*
Y185487D01*
X234062Y185297D01*
X235015Y186059D02*
Y185487D01*
X235206Y185297D01*
X235777D01*
Y186059D01*
X236158Y185297D02*
Y186059D01*
X236730D01*
X236920Y185869D01*
Y185297D01*
X238064Y186440D02*
Y185297D01*
X237492D01*
X237302Y185487D01*
Y185869D01*
X237492Y186059D01*
X238064D01*
X239017Y185297D02*
X238635D01*
X238445Y185487D01*
Y185869D01*
X238635Y186059D01*
X239017D01*
X239207Y185869D01*
Y185678D01*
X238445D01*
X240350Y186440D02*
Y185297D01*
X239779D01*
X239588Y185487D01*
Y185869D01*
X239779Y186059D01*
X240350D01*
X221088Y186440D02*
Y185678D01*
X221469Y185297D01*
X221850Y185678D01*
Y186440D01*
X222231Y185297D02*
X222612D01*
X222421D01*
Y186059D01*
X222231D01*
X223374D02*
X223755D01*
X223946Y185869D01*
Y185297D01*
X223374D01*
X223184Y185487D01*
X223374Y185678D01*
X223946D01*
X198014Y186440D02*
Y185297D01*
X198776D01*
X199157Y186250D02*
X199348Y186440D01*
X199729D01*
X199919Y186250D01*
Y185487D01*
X199729Y185297D01*
X199348D01*
X199157Y185487D01*
Y186250D01*
X200300Y185297D02*
X200681D01*
X200491D01*
Y186440D01*
X200300Y186250D01*
X201253Y185106D02*
X202015D01*
X203159Y186250D02*
X202968Y186440D01*
X202587D01*
X202396Y186250D01*
Y186059D01*
X202587Y185869D01*
X202968D01*
X203159Y185678D01*
Y185487D01*
X202968Y185297D01*
X202587D01*
X202396Y185487D01*
X203540Y186440D02*
X203921D01*
X203730D01*
Y185297D01*
X203540D01*
X203921D01*
X205255Y186250D02*
X205064Y186440D01*
X204683D01*
X204492Y186250D01*
Y185487D01*
X204683Y185297D01*
X205064D01*
X205255Y185487D01*
Y185869D01*
X204873D01*
X206779D02*
X207541D01*
X209066Y186440D02*
Y185297D01*
X209828D01*
X210209Y186250D02*
X210399Y186440D01*
X210781D01*
X210971Y186250D01*
Y185487D01*
X210781Y185297D01*
X210399D01*
X210209Y185487D01*
Y186250D01*
X211924Y185297D02*
Y186440D01*
X211352Y185869D01*
X212114D01*
X212495Y185106D02*
X213258D01*
X214401Y186250D02*
X214210Y186440D01*
X213829D01*
X213639Y186250D01*
Y186059D01*
X213829Y185869D01*
X214210D01*
X214401Y185678D01*
Y185487D01*
X214210Y185297D01*
X213829D01*
X213639Y185487D01*
X214782Y186440D02*
X215163D01*
X214972D01*
Y185297D01*
X214782D01*
X215163D01*
X216497Y186250D02*
X216306Y186440D01*
X215925D01*
X215735Y186250D01*
Y185487D01*
X215925Y185297D01*
X216306D01*
X216497Y185487D01*
Y185869D01*
X216116D01*
X183629Y185297D02*
Y186440D01*
X184201D01*
X184391Y186250D01*
Y185869D01*
X184201Y185678D01*
X183629D01*
X184010D02*
X184391Y185297D01*
X184963D02*
X185344D01*
X185535Y185487D01*
Y185869D01*
X185344Y186059D01*
X184963D01*
X184772Y185869D01*
Y185487D01*
X184963Y185297D01*
X185916Y186059D02*
Y185487D01*
X186106Y185297D01*
X186678D01*
Y186059D01*
X187059Y185297D02*
Y186059D01*
X187631D01*
X187821Y185869D01*
Y185297D01*
X188964Y186440D02*
Y185297D01*
X188393D01*
X188202Y185487D01*
Y185869D01*
X188393Y186059D01*
X188964D01*
X173589Y185297D02*
Y186440D01*
X174160D01*
X174351Y186250D01*
Y185869D01*
X174160Y185678D01*
X173589D01*
X174732Y186440D02*
X175494D01*
X175113D01*
Y185297D01*
X175875Y186440D02*
Y185297D01*
Y185869D01*
X176637D01*
Y186440D01*
Y185297D01*
X153523Y186250D02*
X153713Y186440D01*
X154094D01*
X154285Y186250D01*
Y185487D01*
X154094Y185297D01*
X153713D01*
X153523Y185487D01*
Y186250D01*
X154666Y185297D02*
Y185487D01*
X154856D01*
Y185297D01*
X154666D01*
X156381D02*
X155619D01*
X156381Y186059D01*
Y186250D01*
X156190Y186440D01*
X155809D01*
X155619Y186250D01*
X157524Y186440D02*
X156762D01*
Y185869D01*
X157143Y186059D01*
X157334D01*
X157524Y185869D01*
Y185487D01*
X157334Y185297D01*
X156952D01*
X156762Y185487D01*
X157905Y186250D02*
X158096Y186440D01*
X158477D01*
X158667Y186250D01*
Y185487D01*
X158477Y185297D01*
X158096D01*
X157905Y185487D01*
Y186250D01*
X159048Y185297D02*
Y186059D01*
X159239D01*
X159430Y185869D01*
Y185297D01*
Y185869D01*
X159620Y186059D01*
X159811Y185869D01*
Y185297D01*
X160192D02*
Y186059D01*
X160382D01*
X160573Y185869D01*
Y185297D01*
Y185869D01*
X160763Y186059D01*
X160954Y185869D01*
Y185297D01*
X162859D02*
X162478Y185678D01*
Y186059D01*
X162859Y186440D01*
X163431Y185487D02*
X163622Y185297D01*
X164003D01*
X164193Y185487D01*
Y186250D01*
X164003Y186440D01*
X163622D01*
X163431Y186250D01*
Y186059D01*
X163622Y185869D01*
X164193D01*
X164574Y185297D02*
Y185487D01*
X164765D01*
Y185297D01*
X164574D01*
X165527Y186250D02*
X165718Y186440D01*
X166099D01*
X166289Y186250D01*
Y186059D01*
X166099Y185869D01*
X166289Y185678D01*
Y185487D01*
X166099Y185297D01*
X165718D01*
X165527Y185487D01*
Y185678D01*
X165718Y185869D01*
X165527Y186059D01*
Y186250D01*
X165718Y185869D02*
X166099D01*
X167242Y185297D02*
Y186440D01*
X166670Y185869D01*
X167432D01*
X167814Y185297D02*
Y186059D01*
X168004D01*
X168195Y185869D01*
Y185297D01*
Y185869D01*
X168385Y186059D01*
X168576Y185869D01*
Y185297D01*
X168957D02*
X169338D01*
X169147D01*
Y186059D01*
X168957D01*
X169910Y185297D02*
X170291D01*
X170100D01*
Y186440D01*
X169910D01*
X170862Y185297D02*
X171243Y185678D01*
Y186059D01*
X170862Y186440D01*
X142984Y182628D02*
X143174Y182438D01*
X143555D01*
X143746Y182628D01*
Y183391D01*
X143555Y183581D01*
X143174D01*
X142984Y183391D01*
Y183200D01*
X143174Y183010D01*
X143746D01*
X144127Y183391D02*
X144317Y183581D01*
X144699D01*
X144889Y183391D01*
Y182628D01*
X144699Y182438D01*
X144317D01*
X144127Y182628D01*
Y183391D01*
X146414Y183581D02*
X147176D01*
X146795D01*
Y182438D01*
X147747D02*
X148128D01*
X148319Y182628D01*
Y183010D01*
X148128Y183200D01*
X147747D01*
X147557Y183010D01*
Y182628D01*
X147747Y182438D01*
X148891Y183391D02*
Y183200D01*
X148700D01*
X149081D01*
X148891D01*
Y182628D01*
X149081Y182438D01*
X149843Y183200D02*
X150224D01*
X150415Y183010D01*
Y182438D01*
X149843D01*
X149653Y182628D01*
X149843Y182819D01*
X150415D01*
X150796Y182438D02*
X151177D01*
X150987D01*
Y183581D01*
X150796D01*
X142984Y185487D02*
X143174Y185297D01*
X143555D01*
X143746Y185487D01*
Y186250D01*
X143555Y186440D01*
X143174D01*
X142984Y186250D01*
Y186059D01*
X143174Y185869D01*
X143746D01*
X144127Y186250D02*
X144317Y186440D01*
X144699D01*
X144889Y186250D01*
Y185487D01*
X144699Y185297D01*
X144317D01*
X144127Y185487D01*
Y186250D01*
X245586Y169634D02*
Y168339D01*
X246450D01*
X247098Y169203D02*
X247530D01*
X247746Y168987D01*
Y168339D01*
X247098D01*
X246882Y168555D01*
X247098Y168771D01*
X247746D01*
X248178Y169203D02*
Y168555D01*
X248394Y168339D01*
X249041D01*
Y168123D01*
X248826Y167907D01*
X248609D01*
X249041Y168339D02*
Y169203D01*
X250121Y168339D02*
X249689D01*
X249473Y168555D01*
Y168987D01*
X249689Y169203D01*
X250121D01*
X250337Y168987D01*
Y168771D01*
X249473D01*
X250769Y169203D02*
Y168339D01*
Y168771D01*
X250985Y168987D01*
X251201Y169203D01*
X251417D01*
X246234Y145009D02*
Y146305D01*
X245586Y145657D01*
X246450D01*
X245586Y151273D02*
X245802Y151489D01*
X246234D01*
X246450Y151273D01*
Y151057D01*
X246234Y150841D01*
X246018D01*
X246234D01*
X246450Y150625D01*
Y150409D01*
X246234Y150193D01*
X245802D01*
X245586Y150409D01*
X246450Y155378D02*
X245586D01*
X246450Y156242D01*
Y156457D01*
X246234Y156674D01*
X245802D01*
X245586Y156457D01*
Y160562D02*
X246018D01*
X245802D01*
Y161858D01*
X245586Y161642D01*
X254639Y168339D02*
Y169634D01*
X255503Y168339D01*
Y169634D01*
X256151Y169203D02*
X256582D01*
X256798Y168987D01*
Y168339D01*
X256151D01*
X255935Y168555D01*
X256151Y168771D01*
X256798D01*
X257230Y168339D02*
Y169203D01*
X257446D01*
X257662Y168987D01*
Y168339D01*
Y168987D01*
X257878Y169203D01*
X258094Y168987D01*
Y168339D01*
X259174D02*
X258742D01*
X258526Y168555D01*
Y168987D01*
X258742Y169203D01*
X259174D01*
X259390Y168987D01*
Y168771D01*
X258526D01*
X254639Y141120D02*
Y139825D01*
X255287D01*
X255503Y140041D01*
Y140257D01*
X255287Y140472D01*
X254639D01*
X255287D01*
X255503Y140688D01*
Y140904D01*
X255287Y141120D01*
X254639D01*
X256151Y139825D02*
X256582D01*
X256798Y140041D01*
Y140472D01*
X256582Y140688D01*
X256151D01*
X255935Y140472D01*
Y140041D01*
X256151Y139825D01*
X257446Y140904D02*
Y140688D01*
X257230D01*
X257662D01*
X257446D01*
Y140041D01*
X257662Y139825D01*
X258526Y140904D02*
Y140688D01*
X258310D01*
X258742D01*
X258526D01*
Y140041D01*
X258742Y139825D01*
X259606D02*
X260038D01*
X260254Y140041D01*
Y140472D01*
X260038Y140688D01*
X259606D01*
X259390Y140472D01*
Y140041D01*
X259606Y139825D01*
X260685D02*
Y140688D01*
X260901D01*
X261117Y140472D01*
Y139825D01*
Y140472D01*
X261333Y140688D01*
X261549Y140472D01*
Y139825D01*
X263925Y141120D02*
X263493D01*
X263277Y140904D01*
Y140041D01*
X263493Y139825D01*
X263925D01*
X264141Y140041D01*
Y140904D01*
X263925Y141120D01*
X264573Y140688D02*
X265004Y139825D01*
X265436Y140688D01*
X266516Y139825D02*
X266084D01*
X265868Y140041D01*
Y140472D01*
X266084Y140688D01*
X266516D01*
X266732Y140472D01*
Y140257D01*
X265868D01*
X267164Y140688D02*
Y139825D01*
Y140257D01*
X267380Y140472D01*
X267596Y140688D01*
X267812D01*
X268460Y139825D02*
X268891D01*
X268675D01*
Y141120D01*
X268460D01*
X269755Y140688D02*
X270187D01*
X270403Y140472D01*
Y139825D01*
X269755D01*
X269539Y140041D01*
X269755Y140257D01*
X270403D01*
X270835Y140688D02*
Y140041D01*
X271051Y139825D01*
X271699D01*
Y139609D01*
X271483Y139393D01*
X271267D01*
X271699Y139825D02*
Y140688D01*
X254639Y143712D02*
Y142417D01*
X255287D01*
X255503Y142633D01*
Y142849D01*
X255287Y143065D01*
X254639D01*
X255287D01*
X255503Y143281D01*
Y143497D01*
X255287Y143712D01*
X254639D01*
X256151Y142417D02*
X256582D01*
X256798Y142633D01*
Y143065D01*
X256582Y143281D01*
X256151D01*
X255935Y143065D01*
Y142633D01*
X256151Y142417D01*
X257446Y143497D02*
Y143281D01*
X257230D01*
X257662D01*
X257446D01*
Y142633D01*
X257662Y142417D01*
X258526Y143497D02*
Y143281D01*
X258310D01*
X258742D01*
X258526D01*
Y142633D01*
X258742Y142417D01*
X259606D02*
X260038D01*
X260254Y142633D01*
Y143065D01*
X260038Y143281D01*
X259606D01*
X259390Y143065D01*
Y142633D01*
X259606Y142417D01*
X260685D02*
Y143281D01*
X260901D01*
X261117Y143065D01*
Y142417D01*
Y143065D01*
X261333Y143281D01*
X261549Y143065D01*
Y142417D01*
X264141Y143497D02*
X263925Y143712D01*
X263493D01*
X263277Y143497D01*
Y143281D01*
X263493Y143065D01*
X263925D01*
X264141Y142849D01*
Y142633D01*
X263925Y142417D01*
X263493D01*
X263277Y142633D01*
X264788Y142417D02*
X265220D01*
X265436Y142633D01*
Y143065D01*
X265220Y143281D01*
X264788D01*
X264573Y143065D01*
Y142633D01*
X264788Y142417D01*
X265868D02*
X266300D01*
X266084D01*
Y143712D01*
X265868D01*
X267812D02*
Y142417D01*
X267164D01*
X266948Y142633D01*
Y143065D01*
X267164Y143281D01*
X267812D01*
X268891Y142417D02*
X268460D01*
X268244Y142633D01*
Y143065D01*
X268460Y143281D01*
X268891D01*
X269107Y143065D01*
Y142849D01*
X268244D01*
X269539Y143281D02*
Y142417D01*
Y142849D01*
X269755Y143065D01*
X269971Y143281D01*
X270187D01*
X254639Y146305D02*
Y145009D01*
X255503D01*
X255935Y146089D02*
X256151Y146305D01*
X256582D01*
X256798Y146089D01*
Y145225D01*
X256582Y145009D01*
X256151D01*
X255935Y145225D01*
Y146089D01*
X257878Y145009D02*
Y146305D01*
X257230Y145657D01*
X258094D01*
X258526Y144793D02*
X259390D01*
X260685Y146089D02*
X260470Y146305D01*
X260038D01*
X259822Y146089D01*
Y145873D01*
X260038Y145657D01*
X260470D01*
X260685Y145441D01*
Y145225D01*
X260470Y145009D01*
X260038D01*
X259822Y145225D01*
X261117Y146305D02*
X261549D01*
X261333D01*
Y145009D01*
X261117D01*
X261549D01*
X263061Y146089D02*
X262845Y146305D01*
X262413D01*
X262197Y146089D01*
Y145225D01*
X262413Y145009D01*
X262845D01*
X263061Y145225D01*
Y145657D01*
X262629D01*
X254639Y148897D02*
Y147601D01*
X255287D01*
X255503Y147817D01*
Y148681D01*
X255287Y148897D01*
X254639D01*
X255935Y147601D02*
X256366D01*
X256151D01*
Y148465D01*
X255935D01*
X257662Y147601D02*
X257230D01*
X257014Y147817D01*
Y148249D01*
X257230Y148465D01*
X257662D01*
X257878Y148249D01*
Y148033D01*
X257014D01*
X258310Y147601D02*
X258742D01*
X258526D01*
Y148897D01*
X258310D01*
X260038Y147601D02*
X259606D01*
X259390Y147817D01*
Y148249D01*
X259606Y148465D01*
X260038D01*
X260254Y148249D01*
Y148033D01*
X259390D01*
X261549Y148465D02*
X260901D01*
X260685Y148249D01*
Y147817D01*
X260901Y147601D01*
X261549D01*
X262197Y148681D02*
Y148465D01*
X261981D01*
X262413D01*
X262197D01*
Y147817D01*
X262413Y147601D01*
X263061Y148465D02*
Y147601D01*
Y148033D01*
X263277Y148249D01*
X263493Y148465D01*
X263709D01*
X264356Y147601D02*
X264788D01*
X264573D01*
Y148465D01*
X264356D01*
X266300D02*
X265652D01*
X265436Y148249D01*
Y147817D01*
X265652Y147601D01*
X266300D01*
X268028Y148681D02*
X268244Y148897D01*
X268675D01*
X268891Y148681D01*
Y148465D01*
X268675Y148249D01*
X268460D01*
X268675D01*
X268891Y148033D01*
Y147817D01*
X268675Y147601D01*
X268244D01*
X268028Y147817D01*
X254639Y151489D02*
Y150193D01*
X255503D01*
X255935Y151273D02*
X256151Y151489D01*
X256582D01*
X256798Y151273D01*
Y150409D01*
X256582Y150193D01*
X256151D01*
X255935Y150409D01*
Y151273D01*
X257230D02*
X257446Y151489D01*
X257878D01*
X258094Y151273D01*
Y151057D01*
X257878Y150841D01*
X257662D01*
X257878D01*
X258094Y150625D01*
Y150409D01*
X257878Y150193D01*
X257446D01*
X257230Y150409D01*
X258526Y149978D02*
X259390D01*
X260685Y151273D02*
X260470Y151489D01*
X260038D01*
X259822Y151273D01*
Y150409D01*
X260038Y150193D01*
X260470D01*
X260685Y150409D01*
Y150841D01*
X260254D01*
X261117Y150193D02*
Y151489D01*
X261981Y150193D01*
Y151489D01*
X262413D02*
Y150193D01*
X263061D01*
X263277Y150409D01*
Y151273D01*
X263061Y151489D01*
X262413D01*
X254639Y154081D02*
Y152786D01*
X255287D01*
X255503Y153002D01*
Y153865D01*
X255287Y154081D01*
X254639D01*
X255935Y152786D02*
X256366D01*
X256151D01*
Y153649D01*
X255935D01*
X257662Y152786D02*
X257230D01*
X257014Y153002D01*
Y153434D01*
X257230Y153649D01*
X257662D01*
X257878Y153434D01*
Y153217D01*
X257014D01*
X258310Y152786D02*
X258742D01*
X258526D01*
Y154081D01*
X258310D01*
X260038Y152786D02*
X259606D01*
X259390Y153002D01*
Y153434D01*
X259606Y153649D01*
X260038D01*
X260254Y153434D01*
Y153217D01*
X259390D01*
X261549Y153649D02*
X260901D01*
X260685Y153434D01*
Y153002D01*
X260901Y152786D01*
X261549D01*
X262197Y153865D02*
Y153649D01*
X261981D01*
X262413D01*
X262197D01*
Y153002D01*
X262413Y152786D01*
X263061Y153649D02*
Y152786D01*
Y153217D01*
X263277Y153434D01*
X263493Y153649D01*
X263709D01*
X264356Y152786D02*
X264788D01*
X264573D01*
Y153649D01*
X264356D01*
X266300D02*
X265652D01*
X265436Y153434D01*
Y153002D01*
X265652Y152786D01*
X266300D01*
X268028D02*
X268460D01*
X268244D01*
Y154081D01*
X268028Y153865D01*
X254639Y156674D02*
Y155378D01*
X255503D01*
X255935Y156457D02*
X256151Y156674D01*
X256582D01*
X256798Y156457D01*
Y155594D01*
X256582Y155378D01*
X256151D01*
X255935Y155594D01*
Y156457D01*
X257230Y155378D02*
X257662D01*
X257446D01*
Y156674D01*
X257230Y156457D01*
X258310Y155162D02*
X259174D01*
X260470Y156457D02*
X260254Y156674D01*
X259822D01*
X259606Y156457D01*
Y155594D01*
X259822Y155378D01*
X260254D01*
X260470Y155594D01*
Y156026D01*
X260038D01*
X260901Y155378D02*
Y156674D01*
X261765Y155378D01*
Y156674D01*
X262197D02*
Y155378D01*
X262845D01*
X263061Y155594D01*
Y156457D01*
X262845Y156674D01*
X262197D01*
X254639Y159266D02*
Y157970D01*
X255287D01*
X255503Y158186D01*
Y159050D01*
X255287Y159266D01*
X254639D01*
X255935Y157970D02*
X256366D01*
X256151D01*
Y158834D01*
X255935D01*
X257662Y157970D02*
X257230D01*
X257014Y158186D01*
Y158618D01*
X257230Y158834D01*
X257662D01*
X257878Y158618D01*
Y158402D01*
X257014D01*
X258310Y157970D02*
X258742D01*
X258526D01*
Y159266D01*
X258310D01*
X260038Y157970D02*
X259606D01*
X259390Y158186D01*
Y158618D01*
X259606Y158834D01*
X260038D01*
X260254Y158618D01*
Y158402D01*
X259390D01*
X261549Y158834D02*
X260901D01*
X260685Y158618D01*
Y158186D01*
X260901Y157970D01*
X261549D01*
X262197Y159050D02*
Y158834D01*
X261981D01*
X262413D01*
X262197D01*
Y158186D01*
X262413Y157970D01*
X263061Y158834D02*
Y157970D01*
Y158402D01*
X263277Y158618D01*
X263493Y158834D01*
X263709D01*
X264356Y157970D02*
X264788D01*
X264573D01*
Y158834D01*
X264356D01*
X266300D02*
X265652D01*
X265436Y158618D01*
Y158186D01*
X265652Y157970D01*
X266300D01*
X268891D02*
X268028D01*
X268891Y158834D01*
Y159050D01*
X268675Y159266D01*
X268244D01*
X268028Y159050D01*
X254639Y161858D02*
Y160562D01*
X255503D01*
X255935Y161642D02*
X256151Y161858D01*
X256582D01*
X256798Y161642D01*
Y160778D01*
X256582Y160562D01*
X256151D01*
X255935Y160778D01*
Y161642D01*
X257230Y160562D02*
X257662D01*
X257446D01*
Y161858D01*
X257230Y161642D01*
X258310Y160346D02*
X259174D01*
X260470Y161642D02*
X260254Y161858D01*
X259822D01*
X259606Y161642D01*
Y161426D01*
X259822Y161210D01*
X260254D01*
X260470Y160994D01*
Y160778D01*
X260254Y160562D01*
X259822D01*
X259606Y160778D01*
X260901Y161858D02*
X261333D01*
X261117D01*
Y160562D01*
X260901D01*
X261333D01*
X262845Y161642D02*
X262629Y161858D01*
X262197D01*
X261981Y161642D01*
Y160778D01*
X262197Y160562D01*
X262629D01*
X262845Y160778D01*
Y161210D01*
X262413D01*
X254639Y164450D02*
X255503D01*
X255071D01*
Y163154D01*
X256151D02*
X256582D01*
X256798Y163370D01*
Y163802D01*
X256582Y164018D01*
X256151D01*
X255935Y163802D01*
Y163370D01*
X256151Y163154D01*
X257230Y162723D02*
Y164018D01*
X257878D01*
X258094Y163802D01*
Y163370D01*
X257878Y163154D01*
X257230D01*
X260685Y164234D02*
X260470Y164450D01*
X260038D01*
X259822Y164234D01*
Y164018D01*
X260038Y163802D01*
X260470D01*
X260685Y163586D01*
Y163370D01*
X260470Y163154D01*
X260038D01*
X259822Y163370D01*
X261333Y163154D02*
X261765D01*
X261981Y163370D01*
Y163802D01*
X261765Y164018D01*
X261333D01*
X261117Y163802D01*
Y163370D01*
X261333Y163154D01*
X262413D02*
X262845D01*
X262629D01*
Y164450D01*
X262413D01*
X264357D02*
Y163154D01*
X263709D01*
X263493Y163370D01*
Y163802D01*
X263709Y164018D01*
X264357D01*
X265436Y163154D02*
X265004D01*
X264788Y163370D01*
Y163802D01*
X265004Y164018D01*
X265436D01*
X265652Y163802D01*
Y163586D01*
X264788D01*
X266084Y164018D02*
Y163154D01*
Y163586D01*
X266300Y163802D01*
X266516Y164018D01*
X266732D01*
X254639Y167042D02*
X255503D01*
X255071D01*
Y165747D01*
X256151D02*
X256582D01*
X256798Y165963D01*
Y166394D01*
X256582Y166610D01*
X256151D01*
X255935Y166394D01*
Y165963D01*
X256151Y165747D01*
X257230Y165315D02*
Y166610D01*
X257878D01*
X258094Y166394D01*
Y165963D01*
X257878Y165747D01*
X257230D01*
X260470Y167042D02*
X260038D01*
X259822Y166826D01*
Y165963D01*
X260038Y165747D01*
X260470D01*
X260685Y165963D01*
Y166826D01*
X260470Y167042D01*
X261117Y166610D02*
X261549Y165747D01*
X261981Y166610D01*
X263061Y165747D02*
X262629D01*
X262413Y165963D01*
Y166394D01*
X262629Y166610D01*
X263061D01*
X263277Y166394D01*
Y166179D01*
X262413D01*
X263709Y166610D02*
Y165747D01*
Y166179D01*
X263925Y166394D01*
X264141Y166610D01*
X264357D01*
X265004Y165747D02*
X265436D01*
X265220D01*
Y167042D01*
X265004D01*
X266300Y166610D02*
X266732D01*
X266948Y166394D01*
Y165747D01*
X266300D01*
X266084Y165963D01*
X266300Y166179D01*
X266948D01*
X267380Y166610D02*
Y165963D01*
X267596Y165747D01*
X268244D01*
Y165531D01*
X268028Y165315D01*
X267812D01*
X268244Y165747D02*
Y166610D01*
X274921Y168339D02*
Y169634D01*
X275353Y169203D01*
X275785Y169634D01*
Y168339D01*
X276432Y169203D02*
X276864D01*
X277080Y168987D01*
Y168339D01*
X276432D01*
X276217Y168555D01*
X276432Y168771D01*
X277080D01*
X277728Y169419D02*
Y169203D01*
X277512D01*
X277944D01*
X277728D01*
Y168555D01*
X277944Y168339D01*
X279240D02*
X278808D01*
X278592Y168555D01*
Y168987D01*
X278808Y169203D01*
X279240D01*
X279456Y168987D01*
Y168771D01*
X278592D01*
X279888Y169203D02*
Y168339D01*
Y168771D01*
X280104Y168987D01*
X280319Y169203D01*
X280536D01*
X281183Y168339D02*
X281615D01*
X281399D01*
Y169203D01*
X281183D01*
X282479D02*
X282911D01*
X283127Y168987D01*
Y168339D01*
X282479D01*
X282263Y168555D01*
X282479Y168771D01*
X283127D01*
X283559Y168339D02*
X283991D01*
X283775D01*
Y169634D01*
X283559D01*
X275785Y143497D02*
X275569Y143712D01*
X275137D01*
X274921Y143497D01*
Y143281D01*
X275137Y143065D01*
X275569D01*
X275785Y142849D01*
Y142633D01*
X275569Y142417D01*
X275137D01*
X274921Y142633D01*
X276432Y142417D02*
X276864D01*
X277080Y142633D01*
Y143065D01*
X276864Y143281D01*
X276432D01*
X276217Y143065D01*
Y142633D01*
X276432Y142417D01*
X277512D02*
X277944D01*
X277728D01*
Y143712D01*
X277512D01*
X279456D02*
Y142417D01*
X278808D01*
X278592Y142633D01*
Y143065D01*
X278808Y143281D01*
X279456D01*
X280536Y142417D02*
X280104D01*
X279888Y142633D01*
Y143065D01*
X280104Y143281D01*
X280536D01*
X280751Y143065D01*
Y142849D01*
X279888D01*
X281183Y143281D02*
Y142417D01*
Y142849D01*
X281399Y143065D01*
X281615Y143281D01*
X281831D01*
X283775Y142417D02*
Y143712D01*
X284422D01*
X284639Y143497D01*
Y143065D01*
X284422Y142849D01*
X283775D01*
X284207D02*
X284639Y142417D01*
X285718D02*
X285286D01*
X285070Y142633D01*
Y143065D01*
X285286Y143281D01*
X285718D01*
X285934Y143065D01*
Y142849D01*
X285070D01*
X286366Y142417D02*
X287014D01*
X287230Y142633D01*
X287014Y142849D01*
X286582D01*
X286366Y143065D01*
X286582Y143281D01*
X287230D01*
X287662Y142417D02*
X288094D01*
X287878D01*
Y143281D01*
X287662D01*
X288741Y142417D02*
X289389D01*
X289605Y142633D01*
X289389Y142849D01*
X288957D01*
X288741Y143065D01*
X288957Y143281D01*
X289605D01*
X290253Y143497D02*
Y143281D01*
X290037D01*
X290469D01*
X290253D01*
Y142633D01*
X290469Y142417D01*
X274921Y147601D02*
Y148897D01*
X275569D01*
X275785Y148681D01*
Y148249D01*
X275569Y148033D01*
X274921D01*
X276217Y147601D02*
Y148897D01*
X276864D01*
X277080Y148681D01*
Y148249D01*
X276864Y148033D01*
X276217D01*
X277512Y148249D02*
X278376D01*
X278808Y148681D02*
X279024Y148897D01*
X279456D01*
X279672Y148681D01*
Y147817D01*
X279456Y147601D01*
X279024D01*
X278808Y147817D01*
Y148681D01*
X280104D02*
X280319Y148897D01*
X280751D01*
X280967Y148681D01*
Y147817D01*
X280751Y147601D01*
X280319D01*
X280104Y147817D01*
Y148681D01*
X282263Y148897D02*
X281831Y148681D01*
X281399Y148249D01*
Y147817D01*
X281615Y147601D01*
X282047D01*
X282263Y147817D01*
Y148033D01*
X282047Y148249D01*
X281399D01*
X275785Y151273D02*
X275569Y151489D01*
X275137D01*
X274921Y151273D01*
Y150409D01*
X275137Y150193D01*
X275569D01*
X275785Y150409D01*
X277080Y151489D02*
X276217D01*
Y150841D01*
X276648D01*
X276217D01*
Y150193D01*
X277512Y150841D02*
X278376D01*
X278808Y151273D02*
X279024Y151489D01*
X279456D01*
X279672Y151273D01*
Y150409D01*
X279456Y150193D01*
X279024D01*
X278808Y150409D01*
Y151273D01*
X280104D02*
X280319Y151489D01*
X280751D01*
X280967Y151273D01*
Y150409D01*
X280751Y150193D01*
X280319D01*
X280104Y150409D01*
Y151273D01*
X282047Y150193D02*
Y151489D01*
X281399Y150841D01*
X282263D01*
X275785Y154081D02*
X274921D01*
Y153434D01*
X275353D01*
X274921D01*
Y152786D01*
X276217D02*
Y154081D01*
X276864D01*
X277080Y153865D01*
Y153434D01*
X276864Y153217D01*
X276217D01*
X276648D02*
X277080Y152786D01*
X277512Y153434D02*
X278376D01*
X279456Y152786D02*
Y154081D01*
X278808Y153434D01*
X279672D01*
X275785Y156457D02*
X275569Y156674D01*
X275137D01*
X274921Y156457D01*
Y155594D01*
X275137Y155378D01*
X275569D01*
X275785Y155594D01*
X277080Y156674D02*
X276217D01*
Y156026D01*
X276648D01*
X276217D01*
Y155378D01*
X277512Y156026D02*
X278376D01*
X278808Y156457D02*
X279024Y156674D01*
X279456D01*
X279672Y156457D01*
Y155594D01*
X279456Y155378D01*
X279024D01*
X278808Y155594D01*
Y156457D01*
X280104D02*
X280319Y156674D01*
X280751D01*
X280967Y156457D01*
Y155594D01*
X280751Y155378D01*
X280319D01*
X280104Y155594D01*
Y156457D01*
X282047Y155378D02*
Y156674D01*
X281399Y156026D01*
X282263D01*
X274921Y157970D02*
Y159266D01*
X275569D01*
X275785Y159050D01*
Y158618D01*
X275569Y158402D01*
X274921D01*
X276217Y157970D02*
Y159266D01*
X276864D01*
X277080Y159050D01*
Y158618D01*
X276864Y158402D01*
X276217D01*
X277512Y158618D02*
X278376D01*
X278808Y159050D02*
X279024Y159266D01*
X279456D01*
X279672Y159050D01*
Y158186D01*
X279456Y157970D01*
X279024D01*
X278808Y158186D01*
Y159050D01*
X280104D02*
X280319Y159266D01*
X280751D01*
X280967Y159050D01*
Y158186D01*
X280751Y157970D01*
X280319D01*
X280104Y158186D01*
Y159050D01*
X282263Y159266D02*
X281831Y159050D01*
X281399Y158618D01*
Y158186D01*
X281615Y157970D01*
X282047D01*
X282263Y158186D01*
Y158402D01*
X282047Y158618D01*
X281399D01*
X275785Y164234D02*
X275569Y164450D01*
X275137D01*
X274921Y164234D01*
Y164018D01*
X275137Y163802D01*
X275569D01*
X275785Y163586D01*
Y163370D01*
X275569Y163154D01*
X275137D01*
X274921Y163370D01*
X276432Y163154D02*
X276864D01*
X277080Y163370D01*
Y163802D01*
X276864Y164018D01*
X276432D01*
X276217Y163802D01*
Y163370D01*
X276432Y163154D01*
X277512D02*
X277944D01*
X277728D01*
Y164450D01*
X277512D01*
X279456D02*
Y163154D01*
X278808D01*
X278592Y163370D01*
Y163802D01*
X278808Y164018D01*
X279456D01*
X280536Y163154D02*
X280104D01*
X279888Y163370D01*
Y163802D01*
X280104Y164018D01*
X280536D01*
X280751Y163802D01*
Y163586D01*
X279888D01*
X281183Y164018D02*
Y163154D01*
Y163586D01*
X281399Y163802D01*
X281615Y164018D01*
X281831D01*
X283775Y163154D02*
Y164450D01*
X284422D01*
X284639Y164234D01*
Y163802D01*
X284422Y163586D01*
X283775D01*
X284207D02*
X284639Y163154D01*
X285718D02*
X285286D01*
X285070Y163370D01*
Y163802D01*
X285286Y164018D01*
X285718D01*
X285934Y163802D01*
Y163586D01*
X285070D01*
X286366Y163154D02*
X287014D01*
X287230Y163370D01*
X287014Y163586D01*
X286582D01*
X286366Y163802D01*
X286582Y164018D01*
X287230D01*
X287662Y163154D02*
X288094D01*
X287878D01*
Y164018D01*
X287662D01*
X288741Y163154D02*
X289389D01*
X289605Y163370D01*
X289389Y163586D01*
X288957D01*
X288741Y163802D01*
X288957Y164018D01*
X289605D01*
X290253Y164234D02*
Y164018D01*
X290037D01*
X290469D01*
X290253D01*
Y163370D01*
X290469Y163154D01*
X293691Y169634D02*
X294555D01*
X294123D01*
Y168339D01*
X294987Y169634D02*
Y168339D01*
Y168987D01*
X295203Y169203D01*
X295635D01*
X295851Y168987D01*
Y168339D01*
X296283D02*
X296714D01*
X296498D01*
Y169203D01*
X296283D01*
X298226D02*
X297578D01*
X297362Y168987D01*
Y168555D01*
X297578Y168339D01*
X298226D01*
X298658D02*
Y169634D01*
Y168771D02*
X299306Y169203D01*
X298658Y168771D02*
X299306Y168339D01*
X299954D02*
Y169203D01*
X300601D01*
X300817Y168987D01*
Y168339D01*
X301897D02*
X301465D01*
X301249Y168555D01*
Y168987D01*
X301465Y169203D01*
X301897D01*
X302113Y168987D01*
Y168771D01*
X301249D01*
X302545Y168339D02*
X303193D01*
X303409Y168555D01*
X303193Y168771D01*
X302761D01*
X302545Y168987D01*
X302761Y169203D01*
X303409D01*
X303841Y168339D02*
X304488D01*
X304704Y168555D01*
X304488Y168771D01*
X304057D01*
X303841Y168987D01*
X304057Y169203D01*
X304704D01*
X293691Y143497D02*
X293907Y143712D01*
X294339D01*
X294555Y143497D01*
Y142633D01*
X294339Y142417D01*
X293907D01*
X293691Y142633D01*
Y143497D01*
X294987Y142417D02*
Y142633D01*
X295203D01*
Y142417D01*
X294987D01*
X296714D02*
Y143712D01*
X296066Y143065D01*
X296930D01*
X297362Y143497D02*
X297578Y143712D01*
X298010D01*
X298226Y143497D01*
Y142633D01*
X298010Y142417D01*
X297578D01*
X297362Y142633D01*
Y143497D01*
X298658Y142417D02*
Y143281D01*
X298874D01*
X299090Y143065D01*
Y142417D01*
Y143065D01*
X299306Y143281D01*
X299522Y143065D01*
Y142417D01*
X299954D02*
X300385D01*
X300169D01*
Y143281D01*
X299954D01*
X301033Y142417D02*
X301465D01*
X301249D01*
Y143712D01*
X301033D01*
X293691Y145009D02*
X294123D01*
X293907D01*
Y146305D01*
X293691Y146089D01*
X294771Y145009D02*
Y145225D01*
X294987D01*
Y145009D01*
X294771D01*
X296498D02*
Y146305D01*
X295851Y145657D01*
X296714D01*
X297146Y146089D02*
X297362Y146305D01*
X297794D01*
X298010Y146089D01*
Y145225D01*
X297794Y145009D01*
X297362D01*
X297146Y145225D01*
Y146089D01*
X298442Y145009D02*
Y145873D01*
X298658D01*
X298874Y145657D01*
Y145009D01*
Y145657D01*
X299090Y145873D01*
X299306Y145657D01*
Y145009D01*
X299738D02*
X300169D01*
X299954D01*
Y145873D01*
X299738D01*
X300817Y145009D02*
X301249D01*
X301033D01*
Y146305D01*
X300817D01*
X293691Y148681D02*
X293907Y148897D01*
X294339D01*
X294555Y148681D01*
Y148465D01*
X294339Y148249D01*
X294123D01*
X294339D01*
X294555Y148033D01*
Y147817D01*
X294339Y147601D01*
X293907D01*
X293691Y147817D01*
X294987Y147601D02*
Y147817D01*
X295203D01*
Y147601D01*
X294987D01*
X296066Y147817D02*
X296283Y147601D01*
X296714D01*
X296930Y147817D01*
Y148681D01*
X296714Y148897D01*
X296283D01*
X296066Y148681D01*
Y148465D01*
X296283Y148249D01*
X296930D01*
X297362Y147601D02*
X297794D01*
X297578D01*
Y148897D01*
X297362Y148681D01*
X298442Y147601D02*
Y148465D01*
X298658D01*
X298874Y148249D01*
Y147601D01*
Y148249D01*
X299090Y148465D01*
X299306Y148249D01*
Y147601D01*
X299738D02*
X300169D01*
X299954D01*
Y148465D01*
X299738D01*
X300817Y147601D02*
X301249D01*
X301033D01*
Y148897D01*
X300817D01*
X293691Y151273D02*
X293907Y151489D01*
X294339D01*
X294555Y151273D01*
Y150409D01*
X294339Y150193D01*
X293907D01*
X293691Y150409D01*
Y151273D01*
X294987Y150193D02*
Y150409D01*
X295203D01*
Y150193D01*
X294987D01*
X296930Y151489D02*
X296498Y151273D01*
X296066Y150841D01*
Y150409D01*
X296283Y150193D01*
X296714D01*
X296930Y150409D01*
Y150625D01*
X296714Y150841D01*
X296066D01*
X297362Y151273D02*
X297578Y151489D01*
X298010D01*
X298226Y151273D01*
Y150409D01*
X298010Y150193D01*
X297578D01*
X297362Y150409D01*
Y151273D01*
X298658Y150193D02*
Y151057D01*
X298874D01*
X299090Y150841D01*
Y150193D01*
Y150841D01*
X299306Y151057D01*
X299522Y150841D01*
Y150193D01*
X299954D02*
X300385D01*
X300169D01*
Y151057D01*
X299954D01*
X301033Y150193D02*
X301465D01*
X301249D01*
Y151489D01*
X301033D01*
X294339Y152786D02*
Y154081D01*
X293691Y153434D01*
X294555D01*
X294987Y153002D02*
X295203Y152786D01*
X295635D01*
X295851Y153002D01*
Y153865D01*
X295635Y154081D01*
X295203D01*
X294987Y153865D01*
Y153649D01*
X295203Y153434D01*
X295851D01*
X296283Y152786D02*
Y153002D01*
X296498D01*
Y152786D01*
X296283D01*
X297362Y153865D02*
X297578Y154081D01*
X298010D01*
X298226Y153865D01*
Y153649D01*
X298010Y153434D01*
X298226Y153217D01*
Y153002D01*
X298010Y152786D01*
X297578D01*
X297362Y153002D01*
Y153217D01*
X297578Y153434D01*
X297362Y153649D01*
Y153865D01*
X297578Y153434D02*
X298010D01*
X298658Y153865D02*
X298874Y154081D01*
X299306D01*
X299522Y153865D01*
Y153002D01*
X299306Y152786D01*
X298874D01*
X298658Y153002D01*
Y153865D01*
X299954Y152786D02*
Y153649D01*
X300169D01*
X300385Y153434D01*
Y152786D01*
Y153434D01*
X300601Y153649D01*
X300817Y153434D01*
Y152786D01*
X301249D02*
X301681D01*
X301465D01*
Y153649D01*
X301249D01*
X302329Y152786D02*
X302761D01*
X302545D01*
Y154081D01*
X302329D01*
X293691Y156457D02*
X293907Y156674D01*
X294339D01*
X294555Y156457D01*
Y155594D01*
X294339Y155378D01*
X293907D01*
X293691Y155594D01*
Y156457D01*
X294987Y155378D02*
Y155594D01*
X295203D01*
Y155378D01*
X294987D01*
X296930Y156674D02*
X296498Y156457D01*
X296066Y156026D01*
Y155594D01*
X296283Y155378D01*
X296714D01*
X296930Y155594D01*
Y155810D01*
X296714Y156026D01*
X296066D01*
X297362Y156457D02*
X297578Y156674D01*
X298010D01*
X298226Y156457D01*
Y155594D01*
X298010Y155378D01*
X297578D01*
X297362Y155594D01*
Y156457D01*
X298658Y155378D02*
Y156242D01*
X298874D01*
X299090Y156026D01*
Y155378D01*
Y156026D01*
X299306Y156242D01*
X299522Y156026D01*
Y155378D01*
X299954D02*
X300385D01*
X300169D01*
Y156242D01*
X299954D01*
X301033Y155378D02*
X301465D01*
X301249D01*
Y156674D01*
X301033D01*
X293691Y159050D02*
X293907Y159266D01*
X294339D01*
X294555Y159050D01*
Y158834D01*
X294339Y158618D01*
X294123D01*
X294339D01*
X294555Y158402D01*
Y158186D01*
X294339Y157970D01*
X293907D01*
X293691Y158186D01*
X294987Y157970D02*
Y158186D01*
X295203D01*
Y157970D01*
X294987D01*
X296066Y158186D02*
X296283Y157970D01*
X296714D01*
X296930Y158186D01*
Y159050D01*
X296714Y159266D01*
X296283D01*
X296066Y159050D01*
Y158834D01*
X296283Y158618D01*
X296930D01*
X297362Y157970D02*
X297794D01*
X297578D01*
Y159266D01*
X297362Y159050D01*
X298442Y157970D02*
Y158834D01*
X298658D01*
X298874Y158618D01*
Y157970D01*
Y158618D01*
X299090Y158834D01*
X299306Y158618D01*
Y157970D01*
X299738D02*
X300169D01*
X299954D01*
Y158834D01*
X299738D01*
X300817Y157970D02*
X301249D01*
X301033D01*
Y159266D01*
X300817D01*
X293691Y160562D02*
X294123D01*
X293907D01*
Y161858D01*
X293691Y161642D01*
X294771Y160562D02*
Y160778D01*
X294987D01*
Y160562D01*
X294771D01*
X296498D02*
Y161858D01*
X295851Y161210D01*
X296714D01*
X297146Y161642D02*
X297362Y161858D01*
X297794D01*
X298010Y161642D01*
Y160778D01*
X297794Y160562D01*
X297362D01*
X297146Y160778D01*
Y161642D01*
X298442Y160562D02*
Y161426D01*
X298658D01*
X298874Y161210D01*
Y160562D01*
Y161210D01*
X299090Y161426D01*
X299306Y161210D01*
Y160562D01*
X299738D02*
X300169D01*
X299954D01*
Y161426D01*
X299738D01*
X300817Y160562D02*
X301249D01*
X301033D01*
Y161858D01*
X300817D01*
X293691Y164234D02*
X293907Y164450D01*
X294339D01*
X294555Y164234D01*
Y163370D01*
X294339Y163154D01*
X293907D01*
X293691Y163370D01*
Y164234D01*
X294987Y163154D02*
Y163370D01*
X295203D01*
Y163154D01*
X294987D01*
X296714D02*
Y164450D01*
X296066Y163802D01*
X296930D01*
X297362Y164234D02*
X297578Y164450D01*
X298010D01*
X298226Y164234D01*
Y163370D01*
X298010Y163154D01*
X297578D01*
X297362Y163370D01*
Y164234D01*
X298658Y163154D02*
Y164018D01*
X298874D01*
X299090Y163802D01*
Y163154D01*
Y163802D01*
X299306Y164018D01*
X299522Y163802D01*
Y163154D01*
X299954D02*
X300385D01*
X300169D01*
Y164018D01*
X299954D01*
X301033Y163154D02*
X301465D01*
X301249D01*
Y164450D01*
X301033D01*
X308790Y169419D02*
X308574Y169634D01*
X308142D01*
X307927Y169419D01*
Y168555D01*
X308142Y168339D01*
X308574D01*
X308790Y168555D01*
X309438Y168339D02*
X309870D01*
X310086Y168555D01*
Y168987D01*
X309870Y169203D01*
X309438D01*
X309222Y168987D01*
Y168555D01*
X309438Y168339D01*
X310518D02*
Y169203D01*
X311166D01*
X311382Y168987D01*
Y168339D01*
X311814D02*
X312461D01*
X312677Y168555D01*
X312461Y168771D01*
X312030D01*
X311814Y168987D01*
X312030Y169203D01*
X312677D01*
X313325Y169419D02*
Y169203D01*
X313109D01*
X313541D01*
X313325D01*
Y168555D01*
X313541Y168339D01*
X314405Y169203D02*
X314837D01*
X315053Y168987D01*
Y168339D01*
X314405D01*
X314189Y168555D01*
X314405Y168771D01*
X315053D01*
X315485Y168339D02*
Y169203D01*
X316132D01*
X316348Y168987D01*
Y168339D01*
X316996Y169419D02*
Y169203D01*
X316780D01*
X317212D01*
X316996D01*
Y168555D01*
X317212Y168339D01*
X307927Y143497D02*
X308142Y143712D01*
X308574D01*
X308790Y143497D01*
Y143281D01*
X308574Y143065D01*
X308358D01*
X308574D01*
X308790Y142849D01*
Y142633D01*
X308574Y142417D01*
X308142D01*
X307927Y142633D01*
X309222Y142417D02*
Y142633D01*
X309438D01*
Y142417D01*
X309222D01*
X311166Y143712D02*
X310302D01*
Y143065D01*
X310734Y143281D01*
X310950D01*
X311166Y143065D01*
Y142633D01*
X310950Y142417D01*
X310518D01*
X310302Y142633D01*
X308574Y147601D02*
Y148897D01*
X307927Y148249D01*
X308790D01*
X309222Y147601D02*
Y147817D01*
X309438D01*
Y147601D01*
X309222D01*
X310302D02*
X310734D01*
X310518D01*
Y148897D01*
X310302Y148681D01*
X308574Y152786D02*
Y154081D01*
X307927Y153434D01*
X308790D01*
X309222Y152786D02*
Y153002D01*
X309438D01*
Y152786D01*
X309222D01*
X310302Y153865D02*
X310518Y154081D01*
X310950D01*
X311166Y153865D01*
Y153649D01*
X310950Y153434D01*
X311166Y153217D01*
Y153002D01*
X310950Y152786D01*
X310518D01*
X310302Y153002D01*
Y153217D01*
X310518Y153434D01*
X310302Y153649D01*
Y153865D01*
X310518Y153434D02*
X310950D01*
X308574Y157970D02*
Y159266D01*
X307927Y158618D01*
X308790D01*
X309222Y157970D02*
Y158186D01*
X309438D01*
Y157970D01*
X309222D01*
X310302D02*
X310734D01*
X310518D01*
Y159266D01*
X310302Y159050D01*
X307927Y164234D02*
X308142Y164450D01*
X308574D01*
X308790Y164234D01*
Y164018D01*
X308574Y163802D01*
X308358D01*
X308574D01*
X308790Y163586D01*
Y163370D01*
X308574Y163154D01*
X308142D01*
X307927Y163370D01*
X309222Y163154D02*
Y163370D01*
X309438D01*
Y163154D01*
X309222D01*
X311166Y164450D02*
X310302D01*
Y163802D01*
X310734Y164018D01*
X310950D01*
X311166Y163802D01*
Y163370D01*
X310950Y163154D01*
X310518D01*
X310302Y163370D01*
X320434Y169634D02*
Y168339D01*
X321082D01*
X321298Y168555D01*
Y168771D01*
X321082Y168987D01*
X320434D01*
X321082D01*
X321298Y169203D01*
Y169419D01*
X321082Y169634D01*
X320434D01*
X321946Y168339D02*
X322378D01*
X322594Y168555D01*
Y168987D01*
X322378Y169203D01*
X321946D01*
X321730Y168987D01*
Y168555D01*
X321946Y168339D01*
X323242Y169203D02*
X323674D01*
X323889Y168987D01*
Y168339D01*
X323242D01*
X323026Y168555D01*
X323242Y168771D01*
X323889D01*
X324321Y169203D02*
Y168339D01*
Y168771D01*
X324537Y168987D01*
X324753Y169203D01*
X324969D01*
X326481Y169634D02*
Y168339D01*
X325833D01*
X325617Y168555D01*
Y168987D01*
X325833Y169203D01*
X326481D01*
X328208Y169634D02*
Y168339D01*
X329072D01*
X329720Y169203D02*
X330152D01*
X330368Y168987D01*
Y168339D01*
X329720D01*
X329504Y168555D01*
X329720Y168771D01*
X330368D01*
X330800Y169203D02*
Y168555D01*
X331016Y168339D01*
X331664D01*
Y168123D01*
X331448Y167907D01*
X331232D01*
X331664Y168339D02*
Y169203D01*
X332743Y168339D02*
X332311D01*
X332096Y168555D01*
Y168987D01*
X332311Y169203D01*
X332743D01*
X332959Y168987D01*
Y168771D01*
X332096D01*
X333391Y169203D02*
Y168339D01*
Y168771D01*
X333607Y168987D01*
X333823Y169203D01*
X334039D01*
X336846Y169419D02*
X336630Y169634D01*
X336198D01*
X335982Y169419D01*
Y169203D01*
X336198Y168987D01*
X336630D01*
X336846Y168771D01*
Y168555D01*
X336630Y168339D01*
X336198D01*
X335982Y168555D01*
X337494Y169419D02*
Y169203D01*
X337278D01*
X337710D01*
X337494D01*
Y168555D01*
X337710Y168339D01*
X338574Y169203D02*
X339006D01*
X339222Y168987D01*
Y168339D01*
X338574D01*
X338358Y168555D01*
X338574Y168771D01*
X339222D01*
X340517Y169203D02*
X339869D01*
X339654Y168987D01*
Y168555D01*
X339869Y168339D01*
X340517D01*
X340949D02*
Y169634D01*
Y168771D02*
X341597Y169203D01*
X340949Y168771D02*
X341597Y168339D01*
D78*
X341912Y139177D02*
X343208Y140473D01*
X340616Y139177D02*
X343208Y141769D01*
X339320Y139177D02*
X341912Y141769D01*
X338024Y139177D02*
X340616Y141769D01*
X336728Y139177D02*
X339320Y141769D01*
X335432Y139177D02*
X338024Y141769D01*
X334136Y139177D02*
X336728Y141769D01*
X332839Y139177D02*
X335432Y141769D01*
X331543Y139177D02*
X334136Y141769D01*
X330247Y139177D02*
X332839Y141769D01*
X328951Y139177D02*
X331543Y141769D01*
X327655Y139177D02*
X330247Y141769D01*
X326359Y139177D02*
X328951Y141769D01*
X325063Y139177D02*
X327655Y141769D01*
X323767Y139177D02*
X326359Y141769D01*
X322471Y139177D02*
X325063Y141769D01*
X321175Y139177D02*
X323767Y141769D01*
X319878Y139177D02*
X322471Y141769D01*
X318823Y139418D02*
X321175Y141769D01*
X318823Y140714D02*
X319878Y141769D01*
X341912D02*
X343208Y143065D01*
X340616Y141769D02*
X343208Y144361D01*
X339320Y141769D02*
X341912Y144361D01*
X338024Y141769D02*
X340616Y144361D01*
X336728Y141769D02*
X339320Y144361D01*
X335432Y141769D02*
X338024Y144361D01*
X334136Y141769D02*
X336728Y144361D01*
X332839Y141769D02*
X335432Y144361D01*
X331543Y141769D02*
X334136Y144361D01*
X330247Y141769D02*
X332839Y144361D01*
X328951Y141769D02*
X331543Y144361D01*
X327655Y141769D02*
X330247Y144361D01*
X326359Y141769D02*
X328951Y144361D01*
X325063Y141769D02*
X327655Y144361D01*
X323767Y141769D02*
X326359Y144361D01*
X322471Y141769D02*
X325063Y144361D01*
X321175Y141769D02*
X323767Y144361D01*
X319878Y141769D02*
X322471Y144361D01*
X318823Y142010D02*
X321175Y144361D01*
X318823Y143306D02*
X319878Y144361D01*
X341912D02*
X343208Y145657D01*
X340616Y144361D02*
X343208Y146953D01*
X339320Y144361D02*
X341912Y146953D01*
X338024Y144361D02*
X340616Y146953D01*
X336728Y144361D02*
X339320Y146953D01*
X335432Y144361D02*
X338024Y146953D01*
X334136Y144361D02*
X336728Y146953D01*
X332839Y144361D02*
X335432Y146953D01*
X331543Y144361D02*
X334136Y146953D01*
X330247Y144361D02*
X332839Y146953D01*
X328951Y144361D02*
X331543Y146953D01*
X327655Y144361D02*
X330247Y146953D01*
X326359Y144361D02*
X328951Y146953D01*
X325063Y144361D02*
X327655Y146953D01*
X323767Y144361D02*
X326359Y146953D01*
X322471Y144361D02*
X325063Y146953D01*
X321175Y144361D02*
X323767Y146953D01*
X319878Y144361D02*
X322471Y146953D01*
X318823Y144602D02*
X321175Y146953D01*
X318823Y145898D02*
X319878Y146953D01*
X341912D02*
X343208Y148249D01*
X340616Y146953D02*
X343208Y149545D01*
X339320Y146953D02*
X341912Y149545D01*
X338024Y146953D02*
X340616Y149545D01*
X336728Y146953D02*
X339320Y149545D01*
X335432Y146953D02*
X338024Y149545D01*
X334136Y146953D02*
X336728Y149545D01*
X332839Y146953D02*
X335432Y149545D01*
X331543Y146953D02*
X334136Y149545D01*
X330247Y146953D02*
X332839Y149545D01*
X328951Y146953D02*
X331543Y149545D01*
X327655Y146953D02*
X330247Y149545D01*
X326359Y146953D02*
X328951Y149545D01*
X325063Y146953D02*
X327655Y149545D01*
X323767Y146953D02*
X326359Y149545D01*
X322471Y146953D02*
X325063Y149545D01*
X321175Y146953D02*
X323767Y149545D01*
X319878Y146953D02*
X322471Y149545D01*
X318823Y147194D02*
X321175Y149545D01*
X318823Y148490D02*
X319878Y149545D01*
X341912D02*
X343208Y150841D01*
X340616Y149545D02*
X343208Y152138D01*
X339320Y149545D02*
X341912Y152138D01*
X338024Y149545D02*
X340616Y152138D01*
X336728Y149545D02*
X339320Y152138D01*
X335432Y149545D02*
X338024Y152138D01*
X334136Y149545D02*
X336728Y152138D01*
X332839Y149545D02*
X335432Y152138D01*
X331543Y149545D02*
X334136Y152138D01*
X330247Y149545D02*
X332839Y152138D01*
X328951Y149545D02*
X331543Y152138D01*
X327655Y149545D02*
X330247Y152138D01*
X326359Y149545D02*
X328951Y152138D01*
X325063Y149545D02*
X327655Y152138D01*
X323767Y149545D02*
X326359Y152138D01*
X322471Y149545D02*
X325063Y152138D01*
X321175Y149545D02*
X323767Y152138D01*
X319878Y149545D02*
X322471Y152138D01*
X318823Y149786D02*
X321175Y152138D01*
X318823Y151083D02*
X319878Y152138D01*
X341912D02*
X343208Y153434D01*
X340616Y152138D02*
X343208Y154730D01*
X339320Y152138D02*
X341912Y154730D01*
X338024Y152138D02*
X340616Y154730D01*
X336728Y152138D02*
X339320Y154730D01*
X335432Y152138D02*
X338024Y154730D01*
X334136Y152138D02*
X336728Y154730D01*
X332839Y152138D02*
X335432Y154730D01*
X331543Y152138D02*
X334136Y154730D01*
X330247Y152138D02*
X332839Y154730D01*
X328951Y152138D02*
X331543Y154730D01*
X327655Y152138D02*
X330247Y154730D01*
X326359Y152138D02*
X328951Y154730D01*
X325063Y152138D02*
X327655Y154730D01*
X323767Y152138D02*
X326359Y154730D01*
X322471Y152138D02*
X325063Y154730D01*
X321175Y152138D02*
X323767Y154730D01*
X319878Y152138D02*
X322471Y154730D01*
X318823Y152379D02*
X321175Y154730D01*
X318823Y153675D02*
X319878Y154730D01*
X341912D02*
X343208Y156026D01*
X340616Y154730D02*
X343208Y157322D01*
X339320Y154730D02*
X341912Y157322D01*
X338024Y154730D02*
X340616Y157322D01*
X336728Y154730D02*
X339320Y157322D01*
X335432Y154730D02*
X338024Y157322D01*
X334136Y154730D02*
X336728Y157322D01*
X332839Y154730D02*
X335432Y157322D01*
X331543Y154730D02*
X334136Y157322D01*
X330247Y154730D02*
X332839Y157322D01*
X328951Y154730D02*
X331543Y157322D01*
X327655Y154730D02*
X330247Y157322D01*
X326359Y154730D02*
X328951Y157322D01*
X325063Y154730D02*
X327655Y157322D01*
X323767Y154730D02*
X326359Y157322D01*
X322471Y154730D02*
X325063Y157322D01*
X321175Y154730D02*
X323767Y157322D01*
X319878Y154730D02*
X322471Y157322D01*
X318823Y154971D02*
X321175Y157322D01*
X318823Y156267D02*
X319878Y157322D01*
X341912D02*
X343208Y158618D01*
X340616Y157322D02*
X343208Y159914D01*
X339320Y157322D02*
X341912Y159914D01*
X338024Y157322D02*
X340616Y159914D01*
X336728Y157322D02*
X339320Y159914D01*
X335432Y157322D02*
X338024Y159914D01*
X334136Y157322D02*
X336728Y159914D01*
X332839Y157322D02*
X335432Y159914D01*
X331543Y157322D02*
X334136Y159914D01*
X330247Y157322D02*
X332839Y159914D01*
X328951Y157322D02*
X331543Y159914D01*
X327655Y157322D02*
X330247Y159914D01*
X326359Y157322D02*
X328951Y159914D01*
X325063Y157322D02*
X327655Y159914D01*
X323767Y157322D02*
X326359Y159914D01*
X322471Y157322D02*
X325063Y159914D01*
X321175Y157322D02*
X323767Y159914D01*
X319878Y157322D02*
X322471Y159914D01*
X318823Y157563D02*
X321175Y159914D01*
X318823Y158859D02*
X319878Y159914D01*
X341912D02*
X343208Y161210D01*
X340616Y159914D02*
X343208Y162506D01*
X339320Y159914D02*
X341912Y162506D01*
X338024Y159914D02*
X340616Y162506D01*
X336728Y159914D02*
X339320Y162506D01*
X335432Y159914D02*
X338024Y162506D01*
X334136Y159914D02*
X336728Y162506D01*
X332839Y159914D02*
X335432Y162506D01*
X331543Y159914D02*
X334136Y162506D01*
X330247Y159914D02*
X332839Y162506D01*
X328951Y159914D02*
X331543Y162506D01*
X327655Y159914D02*
X330247Y162506D01*
X326359Y159914D02*
X328951Y162506D01*
X325063Y159914D02*
X327655Y162506D01*
X323767Y159914D02*
X326359Y162506D01*
X322471Y159914D02*
X325063Y162506D01*
X321175Y159914D02*
X323767Y162506D01*
X319878Y159914D02*
X322471Y162506D01*
X318823Y160155D02*
X321175Y162506D01*
X318823Y161451D02*
X319878Y162506D01*
X341912D02*
X343208Y163803D01*
X340616Y162506D02*
X343208Y165099D01*
X339320Y162506D02*
X341912Y165099D01*
X338024Y162506D02*
X340616Y165099D01*
X336728Y162506D02*
X339320Y165099D01*
X335432Y162506D02*
X338024Y165099D01*
X334136Y162506D02*
X336728Y165099D01*
X332839Y162506D02*
X335432Y165099D01*
X331543Y162506D02*
X334136Y165099D01*
X330247Y162506D02*
X332839Y165099D01*
X328951Y162506D02*
X331543Y165099D01*
X327655Y162506D02*
X330247Y165099D01*
X326359Y162506D02*
X328951Y165099D01*
X325063Y162506D02*
X327655Y165099D01*
X323767Y162506D02*
X326359Y165099D01*
X322471Y162506D02*
X325063Y165099D01*
X321175Y162506D02*
X323767Y165099D01*
X319878Y162506D02*
X322471Y165099D01*
X318823Y162747D02*
X321175Y165099D01*
X318823Y164043D02*
X319878Y165099D01*
X341912D02*
X343208Y166395D01*
X340616Y165099D02*
X343208Y167691D01*
X339320Y165099D02*
X341912Y167691D01*
X338024Y165099D02*
X340616Y167691D01*
X336728Y165099D02*
X339320Y167691D01*
X335432Y165099D02*
X338024Y167691D01*
X334136Y165099D02*
X336728Y167691D01*
X332839Y165099D02*
X335432Y167691D01*
X331543Y165099D02*
X334136Y167691D01*
X330247Y165099D02*
X332839Y167691D01*
X328951Y165099D02*
X331543Y167691D01*
X327655Y165099D02*
X330247Y167691D01*
X326359Y165099D02*
X328951Y167691D01*
X325063Y165099D02*
X327655Y167691D01*
X323767Y165099D02*
X326359Y167691D01*
X322471Y165099D02*
X325063Y167691D01*
X321175Y165099D02*
X323767Y167691D01*
X319878Y165099D02*
X322471Y167691D01*
X318823Y165340D02*
X321175Y167691D01*
X318823Y166636D02*
X319878Y167691D01*
X342464Y78243D02*
X343208Y78988D01*
X341168Y78243D02*
X343208Y80284D01*
X321137Y58213D02*
X324586Y61661D01*
X339872Y78243D02*
X343208Y81580D01*
X319824Y58196D02*
X324625Y62997D01*
X338575Y78243D02*
X343208Y82876D01*
X318528Y58196D02*
X324625Y64293D01*
X337279Y78243D02*
X343069Y84033D01*
X317232Y58196D02*
X324625Y65589D01*
X335983Y78243D02*
X341773Y84033D01*
X327993Y70253D02*
X329085Y71345D01*
X315936Y58196D02*
X324625Y66885D01*
X334687Y78243D02*
X341350Y84906D01*
X326696Y70253D02*
X329085Y72641D01*
X314640Y58196D02*
X324625Y68181D01*
X333391Y78243D02*
X341350Y86202D01*
X325400Y70253D02*
X329085Y73937D01*
X313344Y58196D02*
X324625Y69477D01*
X332095Y78243D02*
X341350Y87498D01*
X312048Y58196D02*
X329085Y75234D01*
X330799Y78243D02*
X341350Y88794D01*
X310752Y58196D02*
X329085Y76530D01*
X329503Y78243D02*
X341350Y90090D01*
X309455Y58196D02*
X329085Y77826D01*
X308159Y58196D02*
X341350Y91386D01*
X306863Y58196D02*
X341350Y92683D01*
X305567Y58196D02*
X341350Y93979D01*
X304271Y58196D02*
X341350Y95275D01*
X302975Y58196D02*
X341350Y96571D01*
X301679Y58196D02*
X341350Y97867D01*
X300383Y58196D02*
X341350Y99163D01*
X299087Y58196D02*
X341350Y100459D01*
X297791Y58196D02*
X341350Y101755D01*
X296495Y58196D02*
X341350Y103051D01*
X295198Y58196D02*
X341350Y104348D01*
X293902Y58196D02*
X341350Y105644D01*
X292606Y58196D02*
X341350Y106940D01*
X291310Y58196D02*
X341350Y108236D01*
X290014Y58196D02*
X341350Y109532D01*
X288718Y58196D02*
X341350Y110828D01*
X341971Y112745D02*
X343208Y113982D01*
X287422Y58196D02*
X341350Y112124D01*
X286126Y58196D02*
X343208Y115278D01*
X284830Y58196D02*
X343208Y116575D01*
X283534Y58196D02*
X343208Y117871D01*
X282237Y58196D02*
X342577Y118535D01*
X280941Y58196D02*
X341281Y118535D01*
X279645Y58196D02*
X339985Y118535D01*
X278349Y58196D02*
X338689Y118535D01*
X277053Y58196D02*
X337392Y118535D01*
X275757Y58196D02*
X336096Y118535D01*
X274461Y58196D02*
X334800Y118535D01*
X273165Y58196D02*
X333504Y118535D01*
X271869Y58196D02*
X332208Y118535D01*
X270572Y58196D02*
X330912Y118535D01*
X269276Y58196D02*
X329616Y118535D01*
X267980Y58196D02*
X329085Y119301D01*
X266684Y58196D02*
X329085Y120597D01*
X265388Y58196D02*
X329085Y121893D01*
X264092Y58196D02*
X329085Y123189D01*
X262796Y58196D02*
X329085Y124485D01*
X261500Y58196D02*
X329085Y125781D01*
X260204Y58196D02*
X328534Y126526D01*
X258908Y58196D02*
X327238Y126526D01*
X257611Y58196D02*
X325942Y126526D01*
X256315Y58196D02*
X324646Y126526D01*
X255019Y58196D02*
X324625Y127802D01*
X253723Y58196D02*
X324625Y129098D01*
X252427Y58196D02*
X324625Y130394D01*
X251131Y58196D02*
X324625Y131690D01*
X249835Y58196D02*
X324625Y132986D01*
X248539Y58196D02*
X324625Y134283D01*
X247293Y58247D02*
X324516Y135469D01*
X246313Y58562D02*
X324173Y136422D01*
X245507Y59053D02*
X323645Y137190D01*
X244858Y59700D02*
X322968Y137810D01*
X244366Y60504D02*
X322140Y138278D01*
X244050Y61484D02*
X321133Y138567D01*
X243975Y62705D02*
X319853Y138583D01*
X243975Y64001D02*
X318557Y138583D01*
X243975Y65297D02*
X317261Y138583D01*
X243975Y66593D02*
X315965Y138583D01*
X243975Y67889D02*
X314668Y138583D01*
X243975Y69186D02*
X313372Y138583D01*
X243975Y70482D02*
X312076Y138583D01*
X243975Y71778D02*
X310780Y138583D01*
X243975Y73074D02*
X309484Y138583D01*
X243975Y74370D02*
X308188Y138583D01*
X243975Y75666D02*
X306892Y138583D01*
X243975Y76962D02*
X305596Y138583D01*
X243975Y78258D02*
X304300Y138583D01*
X243975Y79554D02*
X303004Y138583D01*
X243975Y80850D02*
X301707Y138583D01*
X243975Y82147D02*
X300411Y138583D01*
X243975Y83443D02*
X299115Y138583D01*
X243975Y84739D02*
X297819Y138583D01*
X243975Y86035D02*
X296523Y138583D01*
X243975Y87331D02*
X295227Y138583D01*
X243975Y88627D02*
X293931Y138583D01*
X243975Y89923D02*
X292635Y138583D01*
X243975Y91219D02*
X291339Y138583D01*
X243975Y92515D02*
X290042Y138583D01*
X243975Y93812D02*
X288746Y138583D01*
X243975Y95108D02*
X287450Y138583D01*
X243975Y96404D02*
X286154Y138583D01*
X243975Y97700D02*
X284858Y138583D01*
X243975Y98996D02*
X283562Y138583D01*
X243975Y100292D02*
X282266Y138583D01*
X243975Y101588D02*
X280970Y138583D01*
X243975Y102884D02*
X279674Y138583D01*
X243975Y104180D02*
X278378Y138583D01*
X243975Y105476D02*
X277081Y138583D01*
X243975Y106772D02*
X275785Y138583D01*
X243975Y108069D02*
X274489Y138583D01*
X243975Y109365D02*
X273193Y138583D01*
X243975Y110661D02*
X271897Y138583D01*
X243975Y111957D02*
X270601Y138583D01*
X243975Y113253D02*
X269305Y138583D01*
X243975Y114549D02*
X268009Y138583D01*
X243975Y115845D02*
X266713Y138583D01*
X243975Y117141D02*
X265417Y138583D01*
X243975Y118437D02*
X264121Y138583D01*
X243975Y119734D02*
X262824Y138583D01*
X243975Y121030D02*
X261528Y138583D01*
X243975Y122326D02*
X260232Y138583D01*
X243975Y123622D02*
X258936Y138583D01*
X243975Y124918D02*
X257640Y138583D01*
X243975Y126214D02*
X256344Y138583D01*
X243975Y127510D02*
X255048Y138583D01*
X243975Y128806D02*
X253752Y138583D01*
X243975Y130102D02*
X252456Y138583D01*
X243975Y131398D02*
X251160Y138583D01*
X243975Y132694D02*
X249863Y138583D01*
X243975Y133991D02*
X248567Y138583D01*
X244066Y135378D02*
X247202Y138514D01*
D79*
X327046Y189528D02*
Y188156D01*
Y188842D01*
X327961D01*
Y189528D01*
Y188156D01*
X328647D02*
X329104D01*
X329333Y188385D01*
Y188842D01*
X329104Y189071D01*
X328647D01*
X328418Y188842D01*
Y188385D01*
X328647Y188156D01*
X329790D02*
X330247D01*
X330019D01*
Y189528D01*
X329790D01*
X331619Y188156D02*
X331162D01*
X330933Y188385D01*
Y188842D01*
X331162Y189071D01*
X331619D01*
X331848Y188842D01*
Y188613D01*
X330933D01*
X333677Y189528D02*
X334592D01*
X334135D01*
Y188156D01*
X335278D02*
X335735D01*
X335964Y188385D01*
Y188842D01*
X335735Y189071D01*
X335278D01*
X335049Y188842D01*
Y188385D01*
X335278Y188156D01*
X336421D02*
X336878D01*
X336650D01*
Y189528D01*
X336421D01*
X338250Y188156D02*
X337793D01*
X337564Y188385D01*
Y188842D01*
X337793Y189071D01*
X338250D01*
X338479Y188842D01*
Y188613D01*
X337564D01*
X338936Y189071D02*
Y188156D01*
Y188613D01*
X339165Y188842D01*
X339394Y189071D01*
X339622D01*
X340537D02*
X340994D01*
X341223Y188842D01*
Y188156D01*
X340537D01*
X340308Y188385D01*
X340537Y188613D01*
X341223D01*
X341680Y188156D02*
Y189071D01*
X342366D01*
X342595Y188842D01*
Y188156D01*
X343967Y189071D02*
X343281D01*
X343052Y188842D01*
Y188385D01*
X343281Y188156D01*
X343967D01*
X345110D02*
X344653D01*
X344424Y188385D01*
Y188842D01*
X344653Y189071D01*
X345110D01*
X345339Y188842D01*
Y188613D01*
X344424D01*
X347625Y188156D02*
X347168Y188613D01*
Y189071D01*
X347625Y189528D01*
X348311Y188842D02*
X349226D01*
X349683Y188156D02*
X350141Y188613D01*
Y189071D01*
X349683Y189528D01*
X301229D02*
Y188156D01*
Y188842D01*
X302143D01*
Y189528D01*
Y188156D01*
X302829D02*
X303287D01*
X303515Y188385D01*
Y188842D01*
X303287Y189071D01*
X302829D01*
X302601Y188842D01*
Y188385D01*
X302829Y188156D01*
X303973D02*
X304430D01*
X304201D01*
Y189528D01*
X303973D01*
X305802Y188156D02*
X305345D01*
X305116Y188385D01*
Y188842D01*
X305345Y189071D01*
X305802D01*
X306031Y188842D01*
Y188613D01*
X305116D01*
X307860Y189528D02*
X308774D01*
X308317D01*
Y188156D01*
X309460D02*
X309918D01*
X310146Y188385D01*
Y188842D01*
X309918Y189071D01*
X309460D01*
X309232Y188842D01*
Y188385D01*
X309460Y188156D01*
X310604D02*
X311061D01*
X310832D01*
Y189528D01*
X310604D01*
X312433Y188156D02*
X311976D01*
X311747Y188385D01*
Y188842D01*
X311976Y189071D01*
X312433D01*
X312662Y188842D01*
Y188613D01*
X311747D01*
X313119Y189071D02*
Y188156D01*
Y188613D01*
X313348Y188842D01*
X313576Y189071D01*
X313805D01*
X314719D02*
X315177D01*
X315405Y188842D01*
Y188156D01*
X314719D01*
X314491Y188385D01*
X314719Y188613D01*
X315405D01*
X315863Y188156D02*
Y189071D01*
X316549D01*
X316777Y188842D01*
Y188156D01*
X318149Y189071D02*
X317463D01*
X317235Y188842D01*
Y188385D01*
X317463Y188156D01*
X318149D01*
X319292D02*
X318835D01*
X318607Y188385D01*
Y188842D01*
X318835Y189071D01*
X319292D01*
X319521Y188842D01*
Y188613D01*
X318607D01*
X321808Y188156D02*
X321351Y188613D01*
Y189071D01*
X321808Y189528D01*
X322494Y188842D02*
X323408D01*
X322951Y189299D02*
Y188385D01*
X323866Y188156D02*
X324323Y188613D01*
Y189071D01*
X323866Y189528D01*
X284557D02*
Y188156D01*
X285243D01*
X285472Y188385D01*
Y189299D01*
X285243Y189528D01*
X284557D01*
X286615Y188156D02*
X286158D01*
X285929Y188385D01*
Y188842D01*
X286158Y189071D01*
X286615D01*
X286844Y188842D01*
Y188613D01*
X285929D01*
X287301Y188156D02*
X287987D01*
X288216Y188385D01*
X287987Y188613D01*
X287530D01*
X287301Y188842D01*
X287530Y189071D01*
X288216D01*
X289588D02*
X288902D01*
X288673Y188842D01*
Y188385D01*
X288902Y188156D01*
X289588D01*
X290045Y189071D02*
Y188156D01*
Y188613D01*
X290274Y188842D01*
X290502Y189071D01*
X290731D01*
X291417Y188156D02*
X291874D01*
X291646D01*
Y189071D01*
X291417D01*
X292560Y187699D02*
Y189071D01*
X293246D01*
X293475Y188842D01*
Y188385D01*
X293246Y188156D01*
X292560D01*
X294161Y189299D02*
Y189071D01*
X293932D01*
X294390D01*
X294161D01*
Y188385D01*
X294390Y188156D01*
X295075D02*
X295533D01*
X295304D01*
Y189071D01*
X295075D01*
X296447Y188156D02*
X296905D01*
X297133Y188385D01*
Y188842D01*
X296905Y189071D01*
X296447D01*
X296219Y188842D01*
Y188385D01*
X296447Y188156D01*
X297591D02*
Y189071D01*
X298277D01*
X298505Y188842D01*
Y188156D01*
X247342Y189528D02*
X248257D01*
X247799D01*
Y188156D01*
X249400D02*
X248942D01*
X248714Y188385D01*
Y188842D01*
X248942Y189071D01*
X249400D01*
X249628Y188842D01*
Y188613D01*
X248714D01*
X250086Y188156D02*
Y189071D01*
X250314D01*
X250543Y188842D01*
Y188156D01*
Y188842D01*
X250772Y189071D01*
X251000Y188842D01*
Y188156D01*
X251458Y187699D02*
Y189071D01*
X252144D01*
X252372Y188842D01*
Y188385D01*
X252144Y188156D01*
X251458D01*
X252830D02*
X253287D01*
X253058D01*
Y189528D01*
X252830D01*
X254202Y189071D02*
X254659D01*
X254888Y188842D01*
Y188156D01*
X254202D01*
X253973Y188385D01*
X254202Y188613D01*
X254888D01*
X255574Y189299D02*
Y189071D01*
X255345D01*
X255802D01*
X255574D01*
Y188385D01*
X255802Y188156D01*
X257174D02*
X256717D01*
X256488Y188385D01*
Y188842D01*
X256717Y189071D01*
X257174D01*
X257403Y188842D01*
Y188613D01*
X256488D01*
X232729Y188156D02*
Y189528D01*
X233415D01*
X233643Y189299D01*
Y188842D01*
X233415Y188613D01*
X232729D01*
X234329Y189071D02*
X234786D01*
X235015Y188842D01*
Y188156D01*
X234329D01*
X234100Y188385D01*
X234329Y188613D01*
X235015D01*
X236387Y189528D02*
Y188156D01*
X235701D01*
X235472Y188385D01*
Y188842D01*
X235701Y189071D01*
X236387D01*
X239131Y189299D02*
X238902Y189528D01*
X238445D01*
X238216Y189299D01*
Y189071D01*
X238445Y188842D01*
X238902D01*
X239131Y188613D01*
Y188385D01*
X238902Y188156D01*
X238445D01*
X238216Y188385D01*
X239588Y189528D02*
Y188156D01*
Y188842D01*
X239817Y189071D01*
X240274D01*
X240503Y188842D01*
Y188156D01*
X241189Y189071D02*
X241646D01*
X241875Y188842D01*
Y188156D01*
X241189D01*
X240960Y188385D01*
X241189Y188613D01*
X241875D01*
X242332Y187699D02*
Y189071D01*
X243018D01*
X243247Y188842D01*
Y188385D01*
X243018Y188156D01*
X242332D01*
X244390D02*
X243933D01*
X243704Y188385D01*
Y188842D01*
X243933Y189071D01*
X244390D01*
X244619Y188842D01*
Y188613D01*
X243704D01*
X221088Y189528D02*
Y188613D01*
X221545Y188156D01*
X222002Y188613D01*
Y189528D01*
X222460Y188156D02*
X222917D01*
X222688D01*
Y189071D01*
X222460D01*
X223832D02*
X224289D01*
X224517Y188842D01*
Y188156D01*
X223832D01*
X223603Y188385D01*
X223832Y188613D01*
X224517D01*
X224975Y188156D02*
X225889Y189071D01*
X226347Y188156D02*
Y189528D01*
X227033D01*
X227261Y189299D01*
Y188842D01*
X227033Y188613D01*
X226347D01*
X227947Y189071D02*
X228405D01*
X228633Y188842D01*
Y188156D01*
X227947D01*
X227719Y188385D01*
X227947Y188613D01*
X228633D01*
X230005Y189528D02*
Y188156D01*
X229319D01*
X229091Y188385D01*
Y188842D01*
X229319Y189071D01*
X230005D01*
X198014Y189528D02*
Y188156D01*
X198700D01*
X198928Y188385D01*
Y189299D01*
X198700Y189528D01*
X198014D01*
X199386Y189071D02*
Y188156D01*
Y188613D01*
X199615Y188842D01*
X199843Y189071D01*
X200072D01*
X200758Y188156D02*
X201215D01*
X200986D01*
Y189071D01*
X200758D01*
X201901Y188156D02*
X202358D01*
X202130D01*
Y189528D01*
X201901D01*
X203044Y188156D02*
X203502D01*
X203273D01*
Y189528D01*
X203044D01*
X205559D02*
Y188156D01*
X206474D01*
X207160Y189071D02*
X207617D01*
X207846Y188842D01*
Y188156D01*
X207160D01*
X206931Y188385D01*
X207160Y188613D01*
X207846D01*
X208303Y189071D02*
Y188385D01*
X208532Y188156D01*
X209218D01*
Y187927D01*
X208989Y187699D01*
X208761D01*
X209218Y188156D02*
Y189071D01*
X210361Y188156D02*
X209904D01*
X209675Y188385D01*
Y188842D01*
X209904Y189071D01*
X210361D01*
X210590Y188842D01*
Y188613D01*
X209675D01*
X211047Y189071D02*
Y188156D01*
Y188613D01*
X211276Y188842D01*
X211505Y189071D01*
X211733D01*
X213791Y188156D02*
Y189528D01*
X214477D01*
X214706Y189299D01*
Y188842D01*
X214477Y188613D01*
X213791D01*
X215392Y189071D02*
X215849D01*
X216078Y188842D01*
Y188156D01*
X215392D01*
X215163Y188385D01*
X215392Y188613D01*
X216078D01*
X216535Y188156D02*
X216992D01*
X216764D01*
Y189071D01*
X216535D01*
X217678D02*
Y188156D01*
Y188613D01*
X217907Y188842D01*
X218136Y189071D01*
X218364D01*
X183629Y189528D02*
Y188156D01*
Y188842D01*
X184544D01*
Y189528D01*
Y188156D01*
X185230D02*
X185687D01*
X185916Y188385D01*
Y188842D01*
X185687Y189071D01*
X185230D01*
X185001Y188842D01*
Y188385D01*
X185230Y188156D01*
X186373D02*
X186830D01*
X186602D01*
Y189528D01*
X186373D01*
X188202Y188156D02*
X187745D01*
X187516Y188385D01*
Y188842D01*
X187745Y189071D01*
X188202D01*
X188431Y188842D01*
Y188613D01*
X187516D01*
X190260Y189528D02*
X191175D01*
X190717D01*
Y188156D01*
X191632Y189071D02*
Y188385D01*
X191861Y188156D01*
X192547D01*
Y187927D01*
X192318Y187699D01*
X192089D01*
X192547Y188156D02*
Y189071D01*
X193004Y187699D02*
Y189071D01*
X193690D01*
X193919Y188842D01*
Y188385D01*
X193690Y188156D01*
X193004D01*
X195062D02*
X194605D01*
X194376Y188385D01*
Y188842D01*
X194605Y189071D01*
X195062D01*
X195291Y188842D01*
Y188613D01*
X194376D01*
X173589Y188156D02*
Y189528D01*
X174275D01*
X174503Y189299D01*
Y188842D01*
X174275Y188613D01*
X173589D01*
X174961Y188156D02*
X175418D01*
X175189D01*
Y189528D01*
X174961D01*
X176333Y189071D02*
X176790D01*
X177019Y188842D01*
Y188156D01*
X176333D01*
X176104Y188385D01*
X176333Y188613D01*
X177019D01*
X177705Y189299D02*
Y189071D01*
X177476D01*
X177933D01*
X177705D01*
Y188385D01*
X177933Y188156D01*
X179305D02*
X178848D01*
X178619Y188385D01*
Y188842D01*
X178848Y189071D01*
X179305D01*
X179534Y188842D01*
Y188613D01*
X178619D01*
X180906Y189528D02*
Y188156D01*
X180220D01*
X179991Y188385D01*
Y188842D01*
X180220Y189071D01*
X180906D01*
X153523Y189528D02*
Y188156D01*
Y188842D01*
X154437D01*
Y189528D01*
Y188156D01*
X155123D02*
X155580D01*
X155809Y188385D01*
Y188842D01*
X155580Y189071D01*
X155123D01*
X154894Y188842D01*
Y188385D01*
X155123Y188156D01*
X156266D02*
X156724D01*
X156495D01*
Y189528D01*
X156266D01*
X158096Y188156D02*
X157638D01*
X157410Y188385D01*
Y188842D01*
X157638Y189071D01*
X158096D01*
X158324Y188842D01*
Y188613D01*
X157410D01*
X161068Y189299D02*
X160840Y189528D01*
X160382D01*
X160154Y189299D01*
Y189071D01*
X160382Y188842D01*
X160840D01*
X161068Y188613D01*
Y188385D01*
X160840Y188156D01*
X160382D01*
X160154Y188385D01*
X161526Y188156D02*
X161983D01*
X161754D01*
Y189071D01*
X161526D01*
X162669D02*
X163584D01*
X162669Y188156D01*
X163584D01*
X164727D02*
X164269D01*
X164041Y188385D01*
Y188842D01*
X164269Y189071D01*
X164727D01*
X164955Y188842D01*
Y188613D01*
X164041D01*
X143898Y189299D02*
X143670Y189528D01*
X143212D01*
X142984Y189299D01*
Y188385D01*
X143212Y188156D01*
X143670D01*
X143898Y188385D01*
X144584Y188156D02*
X145042D01*
X145270Y188385D01*
Y188842D01*
X145042Y189071D01*
X144584D01*
X144356Y188842D01*
Y188385D01*
X144584Y188156D01*
X145728Y189071D02*
Y188385D01*
X145956Y188156D01*
X146642D01*
Y189071D01*
X147099Y188156D02*
Y189071D01*
X147785D01*
X148014Y188842D01*
Y188156D01*
X148700Y189299D02*
Y189071D01*
X148471D01*
X148929D01*
X148700D01*
Y188385D01*
X148929Y188156D01*
X133858Y189299D02*
X133629Y189528D01*
X133172D01*
X132943Y189299D01*
Y189071D01*
X133172Y188842D01*
X133629D01*
X133858Y188613D01*
Y188385D01*
X133629Y188156D01*
X133172D01*
X132943Y188385D01*
X134315Y189071D02*
Y188385D01*
X134544Y188156D01*
X135230D01*
Y187927D01*
X135001Y187699D01*
X134773D01*
X135230Y188156D02*
Y189071D01*
X135687Y188156D02*
Y189071D01*
X135916D01*
X136145Y188842D01*
Y188156D01*
Y188842D01*
X136373Y189071D01*
X136602Y188842D01*
Y188156D01*
X137059Y189528D02*
Y188156D01*
X137745D01*
X137974Y188385D01*
Y188613D01*
Y188842D01*
X137745Y189071D01*
X137059D01*
X138660Y188156D02*
X139117D01*
X139346Y188385D01*
Y188842D01*
X139117Y189071D01*
X138660D01*
X138431Y188842D01*
Y188385D01*
X138660Y188156D01*
X139803D02*
X140260D01*
X140032D01*
Y189528D01*
X139803D01*
M02*
