G04*
G04 #@! TF.GenerationSoftware,Altium Limited,Altium Designer,24.7.2 (38)*
G04*
G04 Layer_Color=128*
%FSLAX25Y25*%
%MOIN*%
G70*
G04*
G04 #@! TF.SameCoordinates,0AE953C0-7C88-47E9-B79E-664DAA7B62C1*
G04*
G04*
G04 #@! TF.FilePolarity,Positive*
G04*
G01*
G75*
%ADD15C,0.00500*%
D15*
X154674Y74183D02*
X155658D01*
X155166Y73691D02*
Y74675D01*
X156148Y71440D02*
X157132D01*
X156640Y70948D02*
Y71932D01*
X155294Y116969D02*
X156278D01*
X155786Y116476D02*
Y117461D01*
X155287Y120610D02*
X156272D01*
X155780Y120118D02*
Y121102D01*
X170374Y65354D02*
X171358D01*
X170866Y64862D02*
Y65847D01*
X195977Y102376D02*
X196961D01*
X196469Y101884D02*
Y102868D01*
X191634Y102376D02*
X192618D01*
X192126Y101884D02*
Y102868D01*
X143996Y98819D02*
X144980D01*
X144488Y98327D02*
Y99311D01*
X214469Y60630D02*
X215453D01*
X214961Y60138D02*
Y61122D01*
X181236Y92314D02*
X182220D01*
X181728Y91822D02*
Y92807D01*
X177067Y94882D02*
X178051D01*
X177559Y94390D02*
Y95374D01*
X207410Y77646D02*
X208394D01*
X207902Y77154D02*
Y78138D01*
X213681Y77953D02*
X214665D01*
X214173Y77461D02*
Y78445D01*
X212675Y98425D02*
X213659D01*
X213167Y97933D02*
Y98917D01*
X152657Y60630D02*
X153642D01*
X153150Y60138D02*
Y61122D01*
X193602Y59842D02*
X194587D01*
X194095Y59350D02*
Y60335D01*
X162645Y112166D02*
X163629D01*
X163137Y111674D02*
Y112658D01*
X161319Y74803D02*
X162303D01*
X161811Y74311D02*
Y75295D01*
X154626Y79134D02*
X155610D01*
X155118Y78642D02*
Y79626D01*
X155794Y81959D02*
X156778D01*
X156286Y81467D02*
Y82451D01*
X155288Y126134D02*
X156273D01*
X155780Y125642D02*
Y126626D01*
X155216Y129277D02*
X156200D01*
X155708Y128785D02*
Y129769D01*
X218012Y108661D02*
X218996D01*
X218504Y108169D02*
Y109153D01*
X193657Y77220D02*
X194641D01*
X194149Y76728D02*
Y77712D01*
X186122Y70866D02*
X187106D01*
X186614Y70374D02*
Y71358D01*
X181004Y75984D02*
X181988D01*
X181496Y75492D02*
Y76476D01*
X146677Y63207D02*
X147661D01*
X147169Y62714D02*
Y63699D01*
X147129Y133159D02*
X148113D01*
X147621Y132667D02*
Y133651D01*
X136122Y123228D02*
X137106D01*
X136614Y122736D02*
Y123721D01*
X179823Y111811D02*
X180807D01*
X180315Y111319D02*
Y112303D01*
X173524Y112189D02*
X174508D01*
X174016Y111697D02*
Y112681D01*
X185335Y111811D02*
X186319D01*
X185827Y111319D02*
Y112303D01*
X165650Y108661D02*
X166634D01*
X166142Y108169D02*
Y109153D01*
X183760Y102756D02*
X184744D01*
X184252Y102264D02*
Y103248D01*
X189678Y89781D02*
X190662D01*
X190170Y89289D02*
Y90273D01*
X155422Y97215D02*
X156407D01*
X155915Y96723D02*
Y97707D01*
X161416Y60236D02*
X162400D01*
X161908Y59744D02*
Y60728D01*
X161319Y67716D02*
X162303D01*
X161811Y67224D02*
Y68209D01*
X172736Y80315D02*
X173721D01*
X173228Y79823D02*
Y80807D01*
X196866Y120866D02*
X197850D01*
X197358Y120374D02*
Y121358D01*
X136122Y75590D02*
X137106D01*
X136614Y75098D02*
Y76083D01*
X184153Y83465D02*
X185138D01*
X184646Y82973D02*
Y83957D01*
X168799Y113508D02*
X169783D01*
X169291Y113016D02*
Y114000D01*
X158563Y114961D02*
X159547D01*
X159055Y114469D02*
Y115453D01*
X155413Y133071D02*
X156398D01*
X155905Y132579D02*
Y133563D01*
X187303Y125870D02*
X188287D01*
X187795Y125378D02*
Y126362D01*
X204626Y126772D02*
X205610D01*
X205118Y126279D02*
Y127264D01*
X196752Y132283D02*
X197736D01*
X197244Y131791D02*
Y132776D01*
X170374Y61024D02*
X171358D01*
X170866Y60532D02*
Y61516D01*
X193602Y67323D02*
X194587D01*
X194095Y66831D02*
Y67815D01*
X202510Y113736D02*
X203495D01*
X203002Y113244D02*
Y114228D01*
X180610Y120472D02*
X181595D01*
X181102Y119980D02*
Y120965D01*
X159350Y81890D02*
X160335D01*
X159843Y81398D02*
Y82382D01*
X169193Y89764D02*
X170177D01*
X169685Y89272D02*
Y90256D01*
X169193Y95669D02*
X170177D01*
X169685Y95177D02*
Y96161D01*
X181595Y132677D02*
X182579D01*
X182087Y132185D02*
Y133169D01*
X212593Y127235D02*
X213578D01*
X213086Y126743D02*
Y127727D01*
X207419Y89785D02*
X208403D01*
X207911Y89293D02*
Y90277D01*
X136122Y98819D02*
X137106D01*
X136614Y98327D02*
Y99311D01*
X177854Y74803D02*
X178839D01*
X178347Y74311D02*
Y75295D01*
X185728Y75197D02*
X186713D01*
X186221Y74705D02*
Y75689D01*
X136122Y85433D02*
X137106D01*
X136614Y84941D02*
Y85925D01*
X202658Y66929D02*
X203642D01*
X203150Y66437D02*
Y67421D01*
X175492Y63386D02*
X176476D01*
X175984Y62894D02*
Y63878D01*
X197167Y89657D02*
X198152D01*
X197659Y89165D02*
Y90149D01*
X170374Y69685D02*
X171358D01*
X170866Y69193D02*
Y70177D01*
X215059Y87795D02*
X216043D01*
X215551Y87303D02*
Y88287D01*
X202242Y94919D02*
X203226D01*
X202734Y94427D02*
Y95411D01*
X204626Y129921D02*
X205610D01*
X205118Y129429D02*
Y130413D01*
X204626Y123622D02*
X205610D01*
X205118Y123130D02*
Y124114D01*
X176673Y84646D02*
X177657D01*
X177165Y84153D02*
Y85138D01*
X202242Y84667D02*
X203226D01*
X202734Y84175D02*
Y85159D01*
X202264Y89764D02*
X203248D01*
X202756Y89272D02*
Y90256D01*
X207382Y103543D02*
X208366D01*
X207874Y103051D02*
Y104035D01*
X223681Y108425D02*
X224665D01*
X224173Y107933D02*
Y108917D01*
X223524Y98425D02*
X224508D01*
X224016Y97933D02*
Y98917D01*
X223130Y112205D02*
X224114D01*
X223622Y111713D02*
Y112697D01*
X136122Y139370D02*
X137106D01*
X136614Y138878D02*
Y139862D01*
X155020Y138583D02*
X156004D01*
X155512Y138091D02*
Y139075D01*
X136122Y57874D02*
X137106D01*
X136614Y57382D02*
Y58366D01*
X150295Y66142D02*
X151279D01*
X150787Y65650D02*
Y66634D01*
X136122Y112992D02*
X137106D01*
X136614Y112500D02*
Y113484D01*
X136122Y130315D02*
X137106D01*
X136614Y129823D02*
Y130807D01*
X213681Y137008D02*
X214665D01*
X214173Y136516D02*
Y137500D01*
X187303Y132283D02*
X188287D01*
X187795Y131791D02*
Y132776D01*
X187303Y120472D02*
X188287D01*
X187795Y119980D02*
Y120965D01*
X136122Y68110D02*
X137106D01*
X136614Y67618D02*
Y68602D01*
X223524Y88583D02*
X224508D01*
X224016Y88091D02*
Y89075D01*
X223524Y92520D02*
X224508D01*
X224016Y92028D02*
Y93012D01*
X165650Y126378D02*
X166634D01*
X166142Y125886D02*
Y126870D01*
M02*
