M48
;Layer_Color=9474304
;FILE_FORMAT=4:4
METRIC,LZ
;TYPE=PLATED
T01F00S00C0.2500
T04F00S00C2.7000
T05F00S00C3.4000
%
T01
X00216Y00216
X00231Y00231
X002475Y00224
X00264Y00231
X00271Y002475
X00264Y00264
X002475Y00271
X00231Y00264
X00224Y002475
X00207Y0027
Y00316
Y00348
Y0038
X00226Y00364
X00268Y00393
X00302883Y0038499
X00311899Y00383298
X00301181Y00321811
X00301206Y00310729
X00353Y00315
X00355Y0033
X00364Y00344
X00366Y00357
X0038Y00372
X00395Y00355
Y003375
X00351Y00284
X00347Y0024
X00315
X003Y00207
X00268
X00332
X00364
X00383Y0024
X00236Y00296
X00409Y00304
Y00272
X00419Y0024
X00451
X00483
X00468Y00207
X005
X00532
X00536Y00231
X005525Y00224
X00569Y00231
X00576Y002475
X00569Y00264
X005525Y00271
X00536Y00264
X00529Y002475
X00528Y00289
X00593Y00281
Y00313
Y00345
Y00377
X00571Y00369
X00538Y00366
Y00379
X00571Y00328
X00584Y00216
X00436Y00207
X004
X004525Y00275
X004375Y003925
X00429Y00412
X00413
X00402
X00455Y00423
X00455Y004325
X00455Y00442
X00432Y0046
Y0048
Y005
X00402Y00516
Y00563
X0043
X00455Y00561
X00474Y00568
X00485Y00566
X00493
X00489Y00574
X00505Y00568
X005Y00593
X00468
X00436
X004
X00532
X00536Y00569
X00529Y005525
X00536Y00536
X005525Y00529
X00569Y00536
X00576Y005525
X00569Y00569
X005525Y00576
X00584Y00584
X00593Y00513
X00589Y00481
Y00449
X005725Y004625
X00557Y00464
Y00456
X00548
Y00464
X005525Y004825
X00554Y00432
X00593Y00413
X00514Y00506
X00388Y00499
Y00486
X00381Y00482
X00373Y00481
X00312
X00311Y0049
X00291Y00471
X0026Y00495
X00264Y00536
X00271Y005525
X00264Y00569
X002475Y00576
X00231Y00569
X00224Y005525
X00231Y00536
X002475Y00529
X00207Y00534
Y00506
Y00484
Y00452
Y00416
X002255Y00397
X00226Y00435
X0032485Y00398903
X00301Y00533
X00316Y00566
X00348
X00364Y00593
X00332
X003
X00268
X00216Y00584
T04
X00278Y00364
Y00436
T05
X002475Y002475
X005525
Y005525
X002475
M30
