G04*
G04 #@! TF.GenerationSoftware,Altium Limited,Altium Designer,24.5.2 (23)*
G04*
G04 Layer_Color=32896*
%FSLAX44Y44*%
%MOMM*%
G71*
G04*
G04 #@! TF.SameCoordinates,77DF0842-A661-4F59-BA2F-9A799A7BDEE5*
G04*
G04*
G04 #@! TF.FilePolarity,Positive*
G04*
G01*
G75*
%ADD10C,0.2540*%
G36*
X447994Y560754D02*
X448277D01*
Y560187D01*
X448560D01*
Y559338D01*
X448844D01*
Y558772D01*
X449127D01*
Y557922D01*
X449410D01*
Y557072D01*
X449693D01*
Y556506D01*
X449977D01*
Y555656D01*
X450260D01*
Y554807D01*
X450543D01*
Y554240D01*
X450826D01*
Y553391D01*
X451109D01*
Y552541D01*
X451393D01*
Y551975D01*
X451676D01*
Y551125D01*
X451959D01*
Y550559D01*
X452242D01*
Y549709D01*
X452525D01*
Y548859D01*
X452809D01*
Y548293D01*
X453092D01*
Y547443D01*
X453375D01*
Y546594D01*
X453658D01*
Y546027D01*
X453941D01*
Y545178D01*
X454225D01*
Y544328D01*
X454508D01*
Y543762D01*
X454791D01*
Y542912D01*
X455074D01*
Y542346D01*
X455357D01*
Y541496D01*
X455641D01*
Y540647D01*
X455924D01*
Y540080D01*
X456207D01*
Y539230D01*
X456490D01*
Y538381D01*
X456773D01*
Y537814D01*
X457057D01*
Y536965D01*
X457340D01*
Y536398D01*
X457623D01*
Y536682D01*
X457906D01*
Y537531D01*
X458189D01*
Y538098D01*
X458473D01*
Y538947D01*
X458756D01*
Y539514D01*
X459039D01*
Y540363D01*
X459322D01*
Y541213D01*
X459605D01*
Y541779D01*
X459889D01*
Y542629D01*
X460172D01*
Y543195D01*
X460455D01*
Y544045D01*
X460738D01*
Y544611D01*
X461021D01*
Y545461D01*
X461305D01*
Y546311D01*
X461588D01*
Y546877D01*
X461871D01*
Y547727D01*
X462154D01*
Y548293D01*
X462438D01*
Y549143D01*
X462721D01*
Y549709D01*
X463004D01*
Y550559D01*
X463287D01*
Y551408D01*
X463570D01*
Y551975D01*
X463853D01*
Y552824D01*
X464137D01*
Y553391D01*
X464420D01*
Y554240D01*
X464703D01*
Y554807D01*
X464986D01*
Y555656D01*
X465270D01*
Y556506D01*
X465553D01*
Y557072D01*
X465836D01*
Y557922D01*
X466119D01*
Y558488D01*
X466402D01*
Y559338D01*
X466685D01*
Y559621D01*
X472350D01*
Y558772D01*
X472066D01*
Y558205D01*
X471783D01*
Y557355D01*
X471500D01*
Y556789D01*
X471217D01*
Y555939D01*
X470934D01*
Y555373D01*
X470650D01*
Y554807D01*
Y554524D01*
X470367D01*
Y553957D01*
X470084D01*
Y553107D01*
X469801D01*
Y552541D01*
X469518D01*
Y551691D01*
X469234D01*
Y551125D01*
X468951D01*
Y550275D01*
X468668D01*
Y549709D01*
X468385D01*
Y548859D01*
X468102D01*
Y548293D01*
X467818D01*
Y547443D01*
X467535D01*
Y546877D01*
X467252D01*
Y546027D01*
X466969D01*
Y545461D01*
X466685D01*
Y544611D01*
X466402D01*
Y544045D01*
X466119D01*
Y543195D01*
X465836D01*
Y542629D01*
X465553D01*
Y541779D01*
X465270D01*
Y541213D01*
X464986D01*
Y540363D01*
X464703D01*
Y539514D01*
X464420D01*
Y538947D01*
X464137D01*
Y538098D01*
X463853D01*
Y537531D01*
X463570D01*
Y536682D01*
X463287D01*
Y536115D01*
X463004D01*
Y535266D01*
X462721D01*
Y534699D01*
X462438D01*
Y533850D01*
X462154D01*
Y533283D01*
X461871D01*
Y532434D01*
X461588D01*
Y531867D01*
X461305D01*
Y531018D01*
X461021D01*
Y530451D01*
X460738D01*
Y529602D01*
X460455D01*
Y529035D01*
X460172D01*
Y528186D01*
X459889D01*
Y527619D01*
X459605D01*
Y526769D01*
X459322D01*
Y526203D01*
X459039D01*
Y525354D01*
X458756D01*
Y524787D01*
X458473D01*
Y523937D01*
X458189D01*
Y523371D01*
X457906D01*
Y522522D01*
X457623D01*
Y522238D01*
X457340D01*
Y522805D01*
X457057D01*
Y523654D01*
X456773D01*
Y524221D01*
X456490D01*
Y525070D01*
X456207D01*
Y525920D01*
X455924D01*
Y526486D01*
X455641D01*
Y527336D01*
X455357D01*
Y527902D01*
X455074D01*
Y528752D01*
X454791D01*
Y529602D01*
X454508D01*
Y530168D01*
X454225D01*
Y531018D01*
X453941D01*
Y531867D01*
X453658D01*
Y532434D01*
X453375D01*
Y533283D01*
X453092D01*
Y534133D01*
X452809D01*
Y534699D01*
X452525D01*
Y535549D01*
X452242D01*
Y536398D01*
X451959D01*
Y536965D01*
X451676D01*
Y537814D01*
X451393D01*
Y538381D01*
X451109D01*
Y539230D01*
X450826D01*
Y540080D01*
X450543D01*
Y540647D01*
X450260D01*
Y541496D01*
X449977D01*
Y542346D01*
X449693D01*
Y542912D01*
X449410D01*
Y543762D01*
X449127D01*
Y544611D01*
X448844D01*
Y545178D01*
X448560D01*
Y546027D01*
X448277D01*
Y546594D01*
X447994D01*
Y546027D01*
X447711D01*
Y545461D01*
X447428D01*
Y544611D01*
X447145D01*
Y543762D01*
X446861D01*
Y542912D01*
X446578D01*
Y542346D01*
X446295D01*
Y541496D01*
X446012D01*
Y540647D01*
X445728D01*
Y539797D01*
X445445D01*
Y539230D01*
X445162D01*
Y538381D01*
X444879D01*
Y537531D01*
X444596D01*
Y536682D01*
X444313D01*
Y536115D01*
X444029D01*
Y535266D01*
X443746D01*
Y534416D01*
X443463D01*
Y533566D01*
X443180D01*
Y533000D01*
X442896D01*
Y532150D01*
X442613D01*
Y531301D01*
X442330D01*
Y530451D01*
X442047D01*
Y529885D01*
X441764D01*
Y529035D01*
X441480D01*
Y528186D01*
X441197D01*
Y527336D01*
X440914D01*
Y526769D01*
X440631D01*
Y525920D01*
X440348D01*
Y525070D01*
X440064D01*
Y524221D01*
X439781D01*
Y523654D01*
X439498D01*
Y522805D01*
X439215D01*
Y522238D01*
X438932D01*
Y522805D01*
X438648D01*
Y523371D01*
X438365D01*
Y523937D01*
X438082D01*
Y524787D01*
X437799D01*
Y525354D01*
X437516D01*
Y526203D01*
X437232D01*
Y526769D01*
X436949D01*
Y527336D01*
X436666D01*
Y528186D01*
X436383D01*
Y528752D01*
X436100D01*
Y529318D01*
X435816D01*
Y530168D01*
X435533D01*
Y530734D01*
X435250D01*
Y531584D01*
X434967D01*
Y532150D01*
X434684D01*
Y532717D01*
X434400D01*
Y533566D01*
X434117D01*
Y534133D01*
X433834D01*
Y534699D01*
X433551D01*
Y535549D01*
X433268D01*
Y536115D01*
X432984D01*
Y536965D01*
X432701D01*
Y537531D01*
X432418D01*
Y538098D01*
X432135D01*
Y538947D01*
X431852D01*
Y539514D01*
X431568D01*
Y540363D01*
X431285D01*
Y540930D01*
X431002D01*
Y541496D01*
X430719D01*
Y542346D01*
X430435D01*
Y542912D01*
X430152D01*
Y543479D01*
X429869D01*
Y544328D01*
X429586D01*
Y544894D01*
X429303D01*
Y545744D01*
X429020D01*
Y546311D01*
X428736D01*
Y546877D01*
X428453D01*
Y547727D01*
X428170D01*
Y548293D01*
X427887D01*
Y548859D01*
X427603D01*
Y549709D01*
X427320D01*
Y550275D01*
X427037D01*
Y551125D01*
X426754D01*
Y551691D01*
X426471D01*
Y552258D01*
X426188D01*
Y553107D01*
X425904D01*
Y553674D01*
X425621D01*
Y554240D01*
X425338D01*
Y555090D01*
X425055D01*
Y555656D01*
X424771D01*
Y556506D01*
X424488D01*
Y557072D01*
X424205D01*
Y557639D01*
X423922D01*
Y558488D01*
X423639D01*
Y559055D01*
X423355D01*
Y559621D01*
X429020D01*
Y559338D01*
X429303D01*
Y558772D01*
X429586D01*
Y558205D01*
X429869D01*
Y557639D01*
X430152D01*
Y556789D01*
X430435D01*
Y556223D01*
X430719D01*
Y555373D01*
X431002D01*
Y554807D01*
X431285D01*
Y553957D01*
X431568D01*
Y553391D01*
X431852D01*
Y552824D01*
X432135D01*
Y551975D01*
X432418D01*
Y551408D01*
X432701D01*
Y550559D01*
X432984D01*
Y549992D01*
X433268D01*
Y549426D01*
X433551D01*
Y548576D01*
X433834D01*
Y548010D01*
X434117D01*
Y547160D01*
X434400D01*
Y546594D01*
X434684D01*
Y545744D01*
X434967D01*
Y545178D01*
X435250D01*
Y544611D01*
X435533D01*
Y543762D01*
X435816D01*
Y543195D01*
X436100D01*
Y542346D01*
X436383D01*
Y541779D01*
X436666D01*
Y541213D01*
X436949D01*
Y540363D01*
X437232D01*
Y539797D01*
X437516D01*
Y538947D01*
X437799D01*
Y538381D01*
X438082D01*
Y537531D01*
X438365D01*
Y536965D01*
X438648D01*
Y536398D01*
X438932D01*
Y536682D01*
X439215D01*
Y537531D01*
X439498D01*
Y538381D01*
X439781D01*
Y538947D01*
X440064D01*
Y539797D01*
X440348D01*
Y540647D01*
X440631D01*
Y541496D01*
X440914D01*
Y542062D01*
X441197D01*
Y542912D01*
X441480D01*
Y543762D01*
X441764D01*
Y544611D01*
X442047D01*
Y545178D01*
X442330D01*
Y546027D01*
X442613D01*
Y546877D01*
X442896D01*
Y547727D01*
X443180D01*
Y548293D01*
X443463D01*
Y549143D01*
X443746D01*
Y549992D01*
X444029D01*
Y550842D01*
X444313D01*
Y551408D01*
X444596D01*
Y552258D01*
X444879D01*
Y553107D01*
X445162D01*
Y553957D01*
X445445D01*
Y554524D01*
X445728D01*
Y555373D01*
X446012D01*
Y556223D01*
X446295D01*
Y557072D01*
X446578D01*
Y557922D01*
X446861D01*
Y558488D01*
X447145D01*
Y559338D01*
X447428D01*
Y560187D01*
X447711D01*
Y561037D01*
X447994D01*
Y560754D01*
D02*
G37*
G36*
X346041Y559904D02*
X347740D01*
Y559621D01*
X348873D01*
Y559338D01*
X350006D01*
Y559055D01*
X350572D01*
Y558772D01*
X351422D01*
Y558488D01*
X351988D01*
Y558205D01*
X352555D01*
Y557922D01*
X353121D01*
Y557639D01*
X353404D01*
Y557355D01*
X353971D01*
Y557072D01*
X354254D01*
Y556789D01*
X354820D01*
Y556506D01*
X355103D01*
Y556223D01*
X355387D01*
Y555939D01*
X355670D01*
Y555656D01*
X355953D01*
Y555373D01*
X356520D01*
Y555090D01*
X356803D01*
Y554807D01*
X357086D01*
Y554524D01*
X357369D01*
Y553957D01*
X357652D01*
Y553674D01*
X357935D01*
Y553391D01*
X358219D01*
Y553107D01*
X358502D01*
Y552824D01*
X358785D01*
Y552258D01*
X359068D01*
Y551975D01*
X359352D01*
Y551408D01*
X359635D01*
Y551125D01*
X359918D01*
Y550559D01*
X360201D01*
Y549992D01*
X360484D01*
Y549426D01*
X360768D01*
Y548859D01*
X361051D01*
Y548010D01*
X361334D01*
Y547160D01*
X361617D01*
Y546027D01*
X361900D01*
Y544328D01*
X362184D01*
Y539514D01*
X361900D01*
Y537814D01*
X361617D01*
Y536682D01*
X361334D01*
Y535832D01*
X361051D01*
Y534982D01*
X360768D01*
Y534416D01*
X360484D01*
Y533850D01*
X360201D01*
Y533283D01*
X359918D01*
Y532717D01*
X359635D01*
Y532150D01*
X359352D01*
Y531867D01*
X359068D01*
Y531301D01*
X358785D01*
Y531018D01*
X358502D01*
Y530734D01*
X358219D01*
Y530168D01*
X357935D01*
Y529885D01*
X357652D01*
Y529602D01*
X357369D01*
Y529318D01*
X357086D01*
Y529035D01*
X356803D01*
Y528752D01*
X356520D01*
Y528469D01*
X356236D01*
Y528186D01*
X355953D01*
Y527902D01*
X355670D01*
Y527619D01*
X355387D01*
Y527336D01*
X354820D01*
Y527053D01*
X354537D01*
Y526769D01*
X354254D01*
Y526486D01*
X353688D01*
Y526203D01*
X353121D01*
Y525920D01*
X352838D01*
Y525637D01*
X352271D01*
Y525354D01*
X351705D01*
Y525070D01*
X350855D01*
Y524787D01*
X350289D01*
Y524504D01*
X349439D01*
Y524221D01*
X348307D01*
Y523937D01*
X346607D01*
Y523654D01*
X341793D01*
Y523937D01*
X340377D01*
Y524221D01*
X339244D01*
Y524504D01*
X338395D01*
Y524787D01*
X337545D01*
Y525070D01*
X336978D01*
Y525354D01*
X336412D01*
Y525637D01*
X335846D01*
Y525920D01*
X335563D01*
Y526203D01*
X334996D01*
Y526486D01*
X334713D01*
Y526769D01*
X334146D01*
Y527053D01*
X333863D01*
Y527336D01*
X333580D01*
Y527619D01*
X333297D01*
Y527902D01*
X333014D01*
Y528186D01*
X332730D01*
Y528469D01*
X332447D01*
Y528752D01*
X332164D01*
Y529035D01*
X331881D01*
Y529318D01*
X331598D01*
Y529602D01*
X331314D01*
Y529885D01*
X331031D01*
Y530168D01*
X330748D01*
Y530734D01*
X330465D01*
Y531018D01*
X330182D01*
Y531584D01*
X329898D01*
Y532150D01*
X329615D01*
Y532717D01*
X329332D01*
Y533283D01*
X329049D01*
Y533850D01*
X328766D01*
Y534982D01*
X328482D01*
Y535832D01*
X328199D01*
Y537531D01*
X327916D01*
Y542629D01*
X342359D01*
Y537531D01*
X333580D01*
Y537248D01*
X333863D01*
Y535832D01*
X334146D01*
Y534982D01*
X334430D01*
Y534416D01*
X334713D01*
Y533850D01*
X334996D01*
Y533566D01*
X335279D01*
Y533000D01*
X335563D01*
Y532717D01*
X335846D01*
Y532434D01*
X336129D01*
Y532150D01*
X336412D01*
Y531867D01*
X336695D01*
Y531584D01*
X336978D01*
Y531301D01*
X337262D01*
Y531018D01*
X337545D01*
Y530734D01*
X338111D01*
Y530451D01*
X338395D01*
Y530168D01*
X338961D01*
Y529885D01*
X339527D01*
Y529602D01*
X340094D01*
Y529318D01*
X340943D01*
Y529035D01*
X342076D01*
Y528752D01*
X346041D01*
Y529035D01*
X347457D01*
Y529318D01*
X348307D01*
Y529602D01*
X348873D01*
Y529885D01*
X349439D01*
Y530168D01*
X350006D01*
Y530451D01*
X350289D01*
Y530734D01*
X350855D01*
Y531018D01*
X351139D01*
Y531301D01*
X351705D01*
Y531584D01*
X351988D01*
Y531867D01*
X352271D01*
Y532150D01*
X352555D01*
Y532434D01*
X352838D01*
Y532717D01*
X353121D01*
Y533000D01*
X353404D01*
Y533283D01*
X353688D01*
Y533566D01*
X353971D01*
Y533850D01*
X354254D01*
Y534133D01*
X354537D01*
Y534699D01*
X354820D01*
Y534982D01*
X355103D01*
Y535549D01*
X355387D01*
Y536115D01*
X355670D01*
Y536682D01*
X355953D01*
Y537531D01*
X356236D01*
Y538381D01*
X356520D01*
Y540080D01*
X356803D01*
Y543479D01*
X356520D01*
Y545178D01*
X356236D01*
Y546311D01*
X355953D01*
Y547160D01*
X355670D01*
Y547727D01*
X355387D01*
Y548293D01*
X355103D01*
Y548859D01*
X354820D01*
Y549143D01*
X354537D01*
Y549709D01*
X354254D01*
Y549992D01*
X353971D01*
Y550275D01*
X353688D01*
Y550559D01*
X353404D01*
Y550842D01*
X353121D01*
Y551125D01*
X352838D01*
Y551408D01*
X352555D01*
Y551691D01*
X352271D01*
Y551975D01*
X351988D01*
Y552258D01*
X351705D01*
Y552541D01*
X351422D01*
Y552824D01*
X350855D01*
Y553107D01*
X350572D01*
Y553391D01*
X350006D01*
Y553674D01*
X349439D01*
Y553957D01*
X348873D01*
Y554240D01*
X348023D01*
Y554524D01*
X347174D01*
Y554807D01*
X345475D01*
Y555090D01*
X342076D01*
Y554807D01*
X340660D01*
Y554524D01*
X339527D01*
Y554240D01*
X338961D01*
Y553957D01*
X338395D01*
Y553674D01*
X337828D01*
Y553391D01*
X337262D01*
Y553107D01*
X336978D01*
Y552824D01*
X336412D01*
Y552541D01*
X336129D01*
Y552258D01*
X335846D01*
Y551975D01*
X335563D01*
Y551691D01*
X335279D01*
Y551408D01*
X334996D01*
Y551125D01*
X334713D01*
Y550842D01*
X334430D01*
Y550559D01*
X334146D01*
Y550275D01*
X333863D01*
Y549992D01*
X333580D01*
Y549709D01*
X333297D01*
Y549426D01*
X333014D01*
Y549709D01*
X332730D01*
Y549992D01*
X332447D01*
Y550275D01*
X332164D01*
Y550559D01*
X331598D01*
Y550842D01*
X331314D01*
Y551125D01*
X331031D01*
Y551408D01*
X330748D01*
Y551691D01*
X330465D01*
Y551975D01*
X330182D01*
Y552258D01*
X329898D01*
Y552541D01*
X329615D01*
Y552824D01*
X329332D01*
Y553107D01*
X329615D01*
Y553391D01*
X329898D01*
Y553674D01*
X330182D01*
Y553957D01*
X330465D01*
Y554240D01*
X330748D01*
Y554524D01*
X331031D01*
Y554807D01*
X331314D01*
Y555090D01*
X331598D01*
Y555373D01*
X331881D01*
Y555656D01*
X332164D01*
Y555939D01*
X332447D01*
Y556223D01*
X332730D01*
Y556506D01*
X333297D01*
Y556789D01*
X333580D01*
Y557072D01*
X333863D01*
Y557355D01*
X334430D01*
Y557639D01*
X334713D01*
Y557922D01*
X335279D01*
Y558205D01*
X335846D01*
Y558488D01*
X336412D01*
Y558772D01*
X336978D01*
Y559055D01*
X337828D01*
Y559338D01*
X338678D01*
Y559621D01*
X339810D01*
Y559904D01*
X341510D01*
Y560187D01*
X346041D01*
Y559904D01*
D02*
G37*
G36*
X387389Y559338D02*
X387672D01*
Y524504D01*
X387389D01*
Y524221D01*
X382291D01*
Y538664D01*
X381158D01*
Y538098D01*
X380875D01*
Y537814D01*
X380592D01*
Y537248D01*
X380309D01*
Y536965D01*
X380025D01*
Y536398D01*
X379742D01*
Y536115D01*
X379459D01*
Y535832D01*
X379176D01*
Y535266D01*
X378893D01*
Y534982D01*
X378609D01*
Y534416D01*
X378326D01*
Y534133D01*
X378043D01*
Y533566D01*
X377760D01*
Y533283D01*
X377477D01*
Y533000D01*
X377193D01*
Y532434D01*
X376910D01*
Y532150D01*
X376627D01*
Y531584D01*
X376344D01*
Y531301D01*
X376060D01*
Y530734D01*
X375777D01*
Y530451D01*
X375494D01*
Y530168D01*
X375211D01*
Y529602D01*
X374928D01*
Y529318D01*
X374645D01*
Y528752D01*
X374361D01*
Y528469D01*
X374078D01*
Y527902D01*
X373795D01*
Y527619D01*
X373512D01*
Y527336D01*
X373228D01*
Y526769D01*
X372945D01*
Y526486D01*
X372662D01*
Y525920D01*
X372379D01*
Y525637D01*
X372096D01*
Y525070D01*
X371813D01*
Y524787D01*
X371529D01*
Y524504D01*
X371246D01*
Y524221D01*
X365016D01*
Y524787D01*
X365299D01*
Y525354D01*
X365582D01*
Y525637D01*
X365865D01*
Y525920D01*
X366148D01*
Y526486D01*
X366432D01*
Y526769D01*
X366715D01*
Y527336D01*
X366998D01*
Y527619D01*
X367281D01*
Y527902D01*
X367564D01*
Y528469D01*
X367848D01*
Y528752D01*
X368131D01*
Y529318D01*
X368414D01*
Y529602D01*
X368697D01*
Y529885D01*
X368980D01*
Y530451D01*
X369264D01*
Y530734D01*
X369547D01*
Y531018D01*
X369830D01*
Y531584D01*
X370113D01*
Y531867D01*
X370396D01*
Y532434D01*
X370680D01*
Y532717D01*
X370963D01*
Y533000D01*
X371246D01*
Y533566D01*
X371529D01*
Y533850D01*
X371813D01*
Y534133D01*
X372096D01*
Y534699D01*
X372379D01*
Y534982D01*
X372662D01*
Y535549D01*
X372945D01*
Y535832D01*
X373228D01*
Y536115D01*
X373512D01*
Y536682D01*
X373795D01*
Y536965D01*
X374078D01*
Y537248D01*
X374361D01*
Y537814D01*
X374645D01*
Y538098D01*
X374928D01*
Y538664D01*
X375211D01*
Y538947D01*
X375494D01*
Y539230D01*
X375211D01*
Y539514D01*
X374361D01*
Y539797D01*
X373512D01*
Y540080D01*
X372945D01*
Y540363D01*
X372379D01*
Y540647D01*
X372096D01*
Y540930D01*
X371813D01*
Y541213D01*
X371246D01*
Y541496D01*
X370963D01*
Y541779D01*
X370680D01*
Y542062D01*
X370396D01*
Y542346D01*
X370113D01*
Y542912D01*
X369830D01*
Y543195D01*
X369547D01*
Y543479D01*
X369264D01*
Y544045D01*
X368980D01*
Y544611D01*
X368697D01*
Y545178D01*
X368414D01*
Y546027D01*
X368131D01*
Y547443D01*
X367848D01*
Y549709D01*
Y549992D01*
Y550842D01*
X368131D01*
Y552258D01*
X368414D01*
Y553107D01*
X368697D01*
Y553674D01*
X368980D01*
Y554240D01*
X369264D01*
Y554807D01*
X369547D01*
Y555090D01*
X369830D01*
Y555373D01*
X370113D01*
Y555939D01*
X370396D01*
Y556223D01*
X370680D01*
Y556506D01*
X370963D01*
Y556789D01*
X371529D01*
Y557072D01*
X371813D01*
Y557355D01*
X372096D01*
Y557639D01*
X372662D01*
Y557922D01*
X373228D01*
Y558205D01*
X373795D01*
Y558488D01*
X374645D01*
Y558772D01*
X375777D01*
Y559055D01*
X377193D01*
Y559338D01*
X380309D01*
Y559621D01*
X387389D01*
Y559338D01*
D02*
G37*
G36*
X408912Y561320D02*
X409195D01*
Y560754D01*
X409478D01*
Y560187D01*
X409762D01*
Y559338D01*
X410045D01*
Y558772D01*
X410328D01*
Y558205D01*
X410611D01*
Y557639D01*
X410895D01*
Y557072D01*
X411178D01*
Y556506D01*
X411461D01*
Y555939D01*
X411744D01*
Y555373D01*
X412027D01*
Y554807D01*
X412310D01*
Y554240D01*
X412594D01*
Y553674D01*
X412877D01*
Y553107D01*
X413160D01*
Y552541D01*
X413443D01*
Y551975D01*
X413727D01*
Y551408D01*
X414010D01*
Y550842D01*
X414293D01*
Y550275D01*
X414576D01*
Y549709D01*
X414859D01*
Y549143D01*
X415143D01*
Y548576D01*
X415426D01*
Y548010D01*
X415709D01*
Y547443D01*
X415992D01*
Y546877D01*
X416275D01*
Y546311D01*
X416559D01*
Y545744D01*
X416842D01*
Y545178D01*
X417125D01*
Y544611D01*
X417408D01*
Y544045D01*
X417691D01*
Y543479D01*
X417975D01*
Y542912D01*
X418258D01*
Y542346D01*
X418541D01*
Y541779D01*
X418824D01*
Y541213D01*
X419107D01*
Y540647D01*
X419391D01*
Y540080D01*
X419674D01*
Y539514D01*
X419957D01*
Y538947D01*
X420240D01*
Y538381D01*
X420523D01*
Y537531D01*
X420807D01*
Y536965D01*
X421090D01*
Y536398D01*
X421373D01*
Y535832D01*
X421656D01*
Y535266D01*
X421939D01*
Y534699D01*
X422223D01*
Y534133D01*
X422506D01*
Y533566D01*
X422789D01*
Y533000D01*
X423072D01*
Y532434D01*
X423355D01*
Y531867D01*
X423639D01*
Y531301D01*
X423922D01*
Y530734D01*
X424205D01*
Y530168D01*
X424488D01*
Y529602D01*
X424771D01*
Y529035D01*
X425055D01*
Y528469D01*
X425338D01*
Y527902D01*
X425621D01*
Y527336D01*
X425904D01*
Y526769D01*
X426188D01*
Y526203D01*
X426471D01*
Y525637D01*
X426754D01*
Y525070D01*
X427037D01*
Y524504D01*
X427320D01*
Y523937D01*
X427603D01*
Y523371D01*
X427320D01*
Y523654D01*
X426188D01*
Y523937D01*
X425055D01*
Y524221D01*
X423922D01*
Y524504D01*
X423639D01*
Y524787D01*
X423355D01*
Y525070D01*
X423072D01*
Y525637D01*
X422789D01*
Y525920D01*
X422506D01*
Y526203D01*
X422223D01*
Y526486D01*
X421939D01*
Y527053D01*
X421656D01*
Y527336D01*
X421373D01*
Y527619D01*
X421090D01*
Y527902D01*
X420807D01*
Y528186D01*
X420523D01*
Y528469D01*
X420240D01*
Y528752D01*
X419957D01*
Y529035D01*
X419674D01*
Y529318D01*
X419391D01*
Y529602D01*
X419107D01*
Y531301D01*
X418824D01*
Y529885D01*
X418541D01*
Y530168D01*
X418258D01*
Y530451D01*
X417691D01*
Y530734D01*
X417408D01*
Y531018D01*
X416842D01*
Y531301D01*
X416275D01*
Y531584D01*
X415992D01*
Y532717D01*
X415709D01*
Y533850D01*
X415426D01*
Y535266D01*
X415143D01*
Y536398D01*
X414859D01*
Y537814D01*
X414576D01*
Y538947D01*
X414293D01*
Y540080D01*
X414010D01*
Y540930D01*
X413727D01*
Y541779D01*
X413443D01*
Y542346D01*
X413160D01*
Y542912D01*
X412877D01*
Y543762D01*
X412594D01*
Y544328D01*
X412310D01*
Y544894D01*
X412027D01*
Y545744D01*
X411744D01*
Y546311D01*
X411461D01*
Y546877D01*
X411178D01*
Y547727D01*
X410895D01*
Y548293D01*
X410611D01*
Y548859D01*
X410328D01*
Y548010D01*
X410611D01*
Y547160D01*
X410895D01*
Y546311D01*
X411178D01*
Y545461D01*
X411461D01*
Y544611D01*
X411744D01*
Y543762D01*
X412027D01*
Y542912D01*
X412310D01*
Y541779D01*
X412027D01*
Y541496D01*
X411744D01*
Y541213D01*
X411461D01*
Y540930D01*
X411178D01*
Y540647D01*
X410895D01*
Y540080D01*
X410611D01*
Y539514D01*
X410895D01*
Y539230D01*
X411178D01*
Y538664D01*
X411461D01*
Y538381D01*
X411744D01*
Y537814D01*
X412027D01*
Y537531D01*
X412310D01*
Y537248D01*
X411744D01*
Y537531D01*
X410328D01*
Y537248D01*
X410045D01*
Y536682D01*
X409762D01*
Y535832D01*
X409478D01*
Y534982D01*
X409195D01*
Y533850D01*
X408912D01*
Y533283D01*
X408629D01*
Y534133D01*
X408346D01*
Y535266D01*
X408063D01*
Y536115D01*
X407779D01*
Y536965D01*
X407496D01*
Y537248D01*
X407213D01*
Y537531D01*
X406930D01*
Y537814D01*
X406646D01*
Y537531D01*
X405797D01*
Y537248D01*
X405230D01*
Y537531D01*
X405514D01*
Y537814D01*
X405797D01*
Y538098D01*
X406080D01*
Y538664D01*
X406363D01*
Y538947D01*
X406646D01*
Y539514D01*
X406930D01*
Y539797D01*
X407213D01*
Y540080D01*
X406930D01*
Y540363D01*
X406646D01*
Y540647D01*
X406363D01*
Y540930D01*
X406080D01*
Y541213D01*
X405797D01*
Y541779D01*
X405514D01*
Y542062D01*
X405230D01*
Y542346D01*
X405514D01*
Y543479D01*
X405797D01*
Y544328D01*
X406080D01*
Y545178D01*
X406363D01*
Y546027D01*
X406646D01*
Y546877D01*
X406930D01*
Y547727D01*
X407213D01*
Y548576D01*
X407496D01*
Y549426D01*
X407213D01*
Y548859D01*
X406930D01*
Y548010D01*
X406646D01*
Y547443D01*
X406363D01*
Y546877D01*
X406080D01*
Y546027D01*
X405797D01*
Y545461D01*
X405514D01*
Y544894D01*
X405230D01*
Y544045D01*
X404947D01*
Y543479D01*
X404664D01*
Y542912D01*
X404381D01*
Y542062D01*
X404098D01*
Y541496D01*
X403814D01*
Y540647D01*
X403531D01*
Y539797D01*
X403248D01*
Y538381D01*
X402965D01*
Y537248D01*
X402682D01*
Y535832D01*
X402398D01*
Y534699D01*
X402115D01*
Y533283D01*
X401832D01*
Y532150D01*
X401549D01*
Y531584D01*
X401266D01*
Y531301D01*
X400699D01*
Y531018D01*
X400133D01*
Y530734D01*
X399850D01*
Y530451D01*
X399283D01*
Y530168D01*
X399000D01*
Y529885D01*
X398717D01*
Y530734D01*
X398434D01*
Y529318D01*
X398150D01*
Y529035D01*
X397584D01*
Y528752D01*
X397301D01*
Y528469D01*
X397018D01*
Y528186D01*
X396734D01*
Y527902D01*
X396451D01*
Y527619D01*
X396168D01*
Y527336D01*
X395885D01*
Y526769D01*
X395602D01*
Y526486D01*
X395318D01*
Y526203D01*
X395035D01*
Y525920D01*
X394752D01*
Y525354D01*
X394469D01*
Y525070D01*
X394185D01*
Y524504D01*
X393619D01*
Y524221D01*
X392486D01*
Y523937D01*
X391353D01*
Y523654D01*
X390504D01*
Y523371D01*
X389938D01*
Y523654D01*
X390221D01*
Y524221D01*
X390504D01*
Y524787D01*
X390787D01*
Y525354D01*
X391070D01*
Y525920D01*
X391353D01*
Y526486D01*
X391637D01*
Y527053D01*
X391920D01*
Y527619D01*
X392203D01*
Y528186D01*
X392486D01*
Y528752D01*
X392770D01*
Y529318D01*
X393053D01*
Y530168D01*
X393336D01*
Y530734D01*
X393619D01*
Y531301D01*
X393902D01*
Y531867D01*
X394185D01*
Y532434D01*
X394469D01*
Y533000D01*
X394752D01*
Y533566D01*
X395035D01*
Y534133D01*
X395318D01*
Y534699D01*
X395602D01*
Y535266D01*
X395885D01*
Y535832D01*
X396168D01*
Y536398D01*
X396451D01*
Y536965D01*
X396734D01*
Y537531D01*
X397018D01*
Y538098D01*
X397301D01*
Y538664D01*
X397584D01*
Y539230D01*
X397867D01*
Y539797D01*
X398150D01*
Y540363D01*
X398434D01*
Y540930D01*
X398717D01*
Y541496D01*
X399000D01*
Y542062D01*
X399283D01*
Y542629D01*
X399566D01*
Y543195D01*
X399850D01*
Y543762D01*
X400133D01*
Y544328D01*
X400416D01*
Y544894D01*
X400699D01*
Y545461D01*
X400982D01*
Y546027D01*
X401266D01*
Y546594D01*
X401549D01*
Y547160D01*
X401832D01*
Y547727D01*
X402115D01*
Y548293D01*
X402398D01*
Y548859D01*
X402682D01*
Y549709D01*
X402965D01*
Y550275D01*
X403248D01*
Y550842D01*
X403531D01*
Y551408D01*
X403814D01*
Y551975D01*
X404098D01*
Y552541D01*
X404381D01*
Y553107D01*
X404664D01*
Y553674D01*
X404947D01*
Y554240D01*
X405230D01*
Y554807D01*
X405514D01*
Y555373D01*
X405797D01*
Y555939D01*
X406080D01*
Y556506D01*
X406363D01*
Y557072D01*
X406646D01*
Y557639D01*
X406930D01*
Y558205D01*
X407213D01*
Y558772D01*
X407496D01*
Y559338D01*
X407779D01*
Y559904D01*
X408063D01*
Y560471D01*
X408346D01*
Y560754D01*
Y561037D01*
X408629D01*
Y561604D01*
X408912D01*
Y561320D01*
D02*
G37*
G36*
X433595Y506472D02*
X431533D01*
Y506767D01*
X433595D01*
Y506472D01*
D02*
G37*
G36*
X431533Y506178D02*
X431239D01*
Y506472D01*
X431533D01*
Y506178D01*
D02*
G37*
G36*
X435656D02*
X435950D01*
Y505883D01*
X435361D01*
Y506178D01*
X434772D01*
Y506472D01*
X435656D01*
Y506178D01*
D02*
G37*
G36*
X436833Y505589D02*
X437128D01*
Y505294D01*
X436539D01*
Y505883D01*
X436833D01*
Y505589D01*
D02*
G37*
G36*
X431239Y505883D02*
X430650D01*
Y505589D01*
X430356D01*
Y505294D01*
X429767D01*
Y505589D01*
X430061D01*
Y505883D01*
X430356D01*
Y506178D01*
X431239D01*
Y505883D01*
D02*
G37*
G36*
X429767Y505000D02*
X429472D01*
Y504706D01*
X429178D01*
Y505294D01*
X429767D01*
Y505000D01*
D02*
G37*
G36*
X437717Y504706D02*
X438011D01*
Y504411D01*
X437717D01*
Y504706D01*
X437128D01*
Y505000D01*
X437717D01*
Y504706D01*
D02*
G37*
G36*
X429178Y504411D02*
X428883D01*
Y504117D01*
X428589D01*
Y504706D01*
X429178D01*
Y504411D01*
D02*
G37*
G36*
X428000Y502939D02*
X427706D01*
Y503528D01*
X428000D01*
Y502939D01*
D02*
G37*
G36*
X427706Y502644D02*
X427411D01*
Y502939D01*
X427706D01*
Y502644D01*
D02*
G37*
G36*
X439189D02*
X439483D01*
Y502350D01*
X438894D01*
Y502644D01*
Y502939D01*
X439189D01*
Y502644D01*
D02*
G37*
G36*
X427411Y502350D02*
Y502056D01*
X427117D01*
Y501761D01*
X426822D01*
Y502350D01*
X427117D01*
Y502644D01*
X427411D01*
Y502350D01*
D02*
G37*
G36*
X426528Y500878D02*
Y500583D01*
X426233D01*
Y501172D01*
X426528D01*
Y500878D01*
D02*
G37*
G36*
X439778Y501467D02*
X440072D01*
Y501172D01*
Y500583D01*
X440367D01*
Y500289D01*
Y499994D01*
X440661D01*
Y499111D01*
X440956D01*
Y498228D01*
X440661D01*
Y498817D01*
X440367D01*
Y499111D01*
Y499406D01*
Y499994D01*
X440072D01*
Y500583D01*
X439778D01*
Y501172D01*
X439483D01*
Y502056D01*
X439778D01*
Y501467D01*
D02*
G37*
G36*
X425644Y498522D02*
X425350D01*
Y497933D01*
X425056D01*
Y497639D01*
Y497344D01*
X424761D01*
Y496461D01*
X424467D01*
Y496167D01*
X424172D01*
Y496755D01*
X424467D01*
Y497639D01*
X424761D01*
Y498228D01*
X425056D01*
Y498817D01*
X425350D01*
Y499406D01*
X425644D01*
Y498522D01*
D02*
G37*
G36*
X441544Y496461D02*
X441839D01*
Y495872D01*
X442133D01*
Y495283D01*
X441544D01*
Y495872D01*
Y496167D01*
X441250D01*
Y497344D01*
X440956D01*
Y497639D01*
X441544D01*
Y496461D01*
D02*
G37*
G36*
X423878Y494400D02*
Y494105D01*
X423583D01*
Y492928D01*
X423289D01*
Y494400D01*
X423583D01*
Y494694D01*
X423878D01*
Y494400D01*
D02*
G37*
G36*
X423289Y492044D02*
X422994D01*
Y492339D01*
Y492633D01*
X423289D01*
Y492044D01*
D02*
G37*
G36*
X442428Y494105D02*
Y493811D01*
X442722D01*
Y492928D01*
X443017D01*
Y492044D01*
Y491750D01*
X443311D01*
Y490867D01*
X443017D01*
Y491456D01*
X442722D01*
Y492928D01*
X442428D01*
Y493517D01*
X442133D01*
Y494400D01*
X442428D01*
Y494105D01*
D02*
G37*
G36*
X438306Y490867D02*
X438011D01*
Y491456D01*
X438306D01*
Y490867D01*
D02*
G37*
G36*
X443606Y490278D02*
X443311D01*
Y490572D01*
X443606D01*
Y490278D01*
D02*
G37*
G36*
X443900Y489100D02*
X443606D01*
Y489689D01*
X443900D01*
Y489100D01*
D02*
G37*
G36*
X422700Y490278D02*
X422406D01*
Y489100D01*
X422111D01*
Y489394D01*
Y490572D01*
X422700D01*
Y490278D01*
D02*
G37*
G36*
X421817Y487333D02*
Y486744D01*
X421522D01*
Y487628D01*
X421817D01*
Y487333D01*
D02*
G37*
G36*
X444194Y487628D02*
X444489D01*
Y487039D01*
Y486744D01*
X444783D01*
Y485272D01*
X445078D01*
Y484978D01*
Y484683D01*
Y484094D01*
X444783D01*
Y485272D01*
X444489D01*
Y486156D01*
X444194D01*
Y487333D01*
X443900D01*
Y488511D01*
X444194D01*
Y487628D01*
D02*
G37*
G36*
X445372Y482917D02*
X445667D01*
Y482328D01*
X445961D01*
Y482033D01*
X445372D01*
Y482622D01*
X445078D01*
Y482917D01*
Y483506D01*
X445372D01*
Y482917D01*
D02*
G37*
G36*
X421228Y484683D02*
Y484389D01*
X420933D01*
Y482033D01*
X420639D01*
Y481444D01*
X420344D01*
Y482328D01*
X420639D01*
Y484683D01*
X420933D01*
Y484978D01*
X421228D01*
Y484683D01*
D02*
G37*
G36*
X428000Y481150D02*
X427706D01*
Y480856D01*
X427411D01*
Y481739D01*
X428000D01*
Y481150D01*
D02*
G37*
G36*
X446256D02*
X445961D01*
Y480856D01*
X446256D01*
Y479678D01*
X445961D01*
Y480856D01*
X445667D01*
Y481444D01*
X446256D01*
Y481150D01*
D02*
G37*
G36*
X446550Y478794D02*
X446256D01*
Y479089D01*
Y479383D01*
X446550D01*
Y478794D01*
D02*
G37*
G36*
X446844Y477322D02*
X447139D01*
Y476439D01*
X446844D01*
Y476733D01*
Y477028D01*
X446550D01*
Y477911D01*
X446844D01*
Y477322D01*
D02*
G37*
G36*
X447433Y474967D02*
X447728D01*
Y474672D01*
Y474083D01*
X447139D01*
Y474967D01*
X446844D01*
Y475850D01*
X447433D01*
Y474967D01*
D02*
G37*
G36*
X420344Y479972D02*
X420050D01*
Y479678D01*
Y478500D01*
X419756D01*
Y477617D01*
X419461D01*
Y476144D01*
X419167D01*
Y474672D01*
X418872D01*
Y474083D01*
X418578D01*
Y475261D01*
X418872D01*
Y476733D01*
X419167D01*
Y477911D01*
X419461D01*
Y479383D01*
X419756D01*
Y480856D01*
X420050D01*
Y481444D01*
X420344D01*
Y479972D01*
D02*
G37*
G36*
X418578Y473200D02*
Y472906D01*
X418283D01*
Y474083D01*
X418578D01*
Y473200D01*
D02*
G37*
G36*
X448022Y471728D02*
X447728D01*
Y472022D01*
Y473200D01*
X448022D01*
Y471728D01*
D02*
G37*
G36*
X418578D02*
Y471433D01*
Y470844D01*
X418283D01*
Y470550D01*
X417989D01*
Y471728D01*
X418283D01*
Y472611D01*
X418578D01*
Y471728D01*
D02*
G37*
G36*
X448317Y469961D02*
X448611D01*
Y468489D01*
X448906D01*
Y468194D01*
Y467900D01*
Y467017D01*
X448611D01*
Y468194D01*
X448317D01*
Y469372D01*
X448022D01*
Y471139D01*
X448317D01*
Y469961D01*
D02*
G37*
G36*
X449200Y465839D02*
Y465544D01*
Y465250D01*
X449495D01*
Y464661D01*
X448906D01*
Y466428D01*
X449200D01*
Y465839D01*
D02*
G37*
G36*
X429767Y471433D02*
X430061D01*
Y471139D01*
X430356D01*
Y470844D01*
Y470550D01*
Y470256D01*
X430061D01*
Y469078D01*
X430356D01*
Y468194D01*
X430061D01*
Y467900D01*
X429472D01*
Y467606D01*
X428883D01*
Y467311D01*
X428589D01*
Y467017D01*
X428000D01*
Y466722D01*
X427411D01*
Y466428D01*
X427117D01*
Y466133D01*
X426528D01*
Y465839D01*
X425939D01*
Y465544D01*
X425350D01*
Y465250D01*
X424761D01*
Y464956D01*
X424172D01*
Y464661D01*
X423583D01*
Y464956D01*
X423289D01*
Y466428D01*
X422700D01*
Y466722D01*
X422406D01*
Y467900D01*
X422700D01*
Y468194D01*
X422994D01*
Y468489D01*
X423289D01*
Y468783D01*
X423583D01*
Y469078D01*
X423878D01*
Y469372D01*
X424467D01*
Y469667D01*
X425056D01*
Y469961D01*
X425644D01*
Y470256D01*
X426233D01*
Y470550D01*
X427117D01*
Y470844D01*
X427706D01*
Y471139D01*
X428294D01*
Y471433D01*
X429178D01*
Y471728D01*
X429767D01*
Y471433D01*
D02*
G37*
G36*
X417989Y469667D02*
X418283D01*
Y469372D01*
X417989D01*
Y468489D01*
X417695D01*
Y467900D01*
X417400D01*
Y466722D01*
X417106D01*
Y464956D01*
X416811D01*
Y464661D01*
X417106D01*
Y463483D01*
X416811D01*
Y463189D01*
X416517D01*
Y465839D01*
X416811D01*
Y466428D01*
Y466722D01*
Y467311D01*
X417106D01*
Y468194D01*
X417400D01*
Y469961D01*
X417695D01*
Y470256D01*
X417989D01*
Y469667D01*
D02*
G37*
G36*
X438894Y469372D02*
X439483D01*
Y469078D01*
X440072D01*
Y468783D01*
X440367D01*
Y468489D01*
X440956D01*
Y468194D01*
X441544D01*
Y467900D01*
X441839D01*
Y467606D01*
X442428D01*
Y467017D01*
X443017D01*
Y466722D01*
X443311D01*
Y466428D01*
X443606D01*
Y466133D01*
X443900D01*
Y465839D01*
X444194D01*
Y465544D01*
X444489D01*
Y464367D01*
X443606D01*
Y462894D01*
X443311D01*
Y462600D01*
X442133D01*
Y462894D01*
X441544D01*
Y463189D01*
X440661D01*
Y463483D01*
X440367D01*
Y463778D01*
X439778D01*
Y464072D01*
X439189D01*
Y464367D01*
X438894D01*
Y464661D01*
X438306D01*
Y464956D01*
X438011D01*
Y465250D01*
X437717D01*
Y465544D01*
X437128D01*
Y465839D01*
X436539D01*
Y466428D01*
X436245D01*
Y466722D01*
X435950D01*
Y467311D01*
X436245D01*
Y467900D01*
X436539D01*
Y468194D01*
X436833D01*
Y468489D01*
X437128D01*
Y468783D01*
X436833D01*
Y469078D01*
X437128D01*
Y469667D01*
X438894D01*
Y469372D01*
D02*
G37*
G36*
X449495Y463483D02*
X449789D01*
Y463189D01*
Y462306D01*
X449495D01*
Y462894D01*
X449200D01*
Y464367D01*
X449495D01*
Y463483D01*
D02*
G37*
G36*
X416517Y462894D02*
Y461422D01*
X416222D01*
Y460833D01*
X415928D01*
Y462894D01*
X416222D01*
Y463189D01*
X416517D01*
Y462894D01*
D02*
G37*
G36*
X450083Y461128D02*
Y460833D01*
Y460244D01*
X450378D01*
Y459950D01*
X449789D01*
Y461717D01*
X450083D01*
Y461128D01*
D02*
G37*
G36*
X415633Y459950D02*
X415928D01*
Y459655D01*
X415339D01*
Y460244D01*
X415633D01*
Y459950D01*
D02*
G37*
G36*
X450378Y459067D02*
Y458772D01*
Y458478D01*
X450083D01*
Y459361D01*
X450378D01*
Y459067D01*
D02*
G37*
G36*
X415633Y458478D02*
X415339D01*
Y458772D01*
X415633D01*
Y458478D01*
D02*
G37*
G36*
X450967Y457594D02*
X450672D01*
Y457889D01*
X450967D01*
Y457594D01*
D02*
G37*
G36*
X415339D02*
X415045D01*
Y458183D01*
Y458478D01*
X415339D01*
Y457594D01*
D02*
G37*
G36*
X450967Y457006D02*
Y456711D01*
Y456417D01*
X450672D01*
Y457300D01*
X450967D01*
Y457006D01*
D02*
G37*
G36*
X415045Y456711D02*
Y456417D01*
Y455828D01*
X414750D01*
Y457300D01*
X415045D01*
Y456711D01*
D02*
G37*
G36*
X414750Y454650D02*
X414456D01*
Y454944D01*
Y455828D01*
X414750D01*
Y454650D01*
D02*
G37*
G36*
X414456Y453767D02*
X414161D01*
Y454061D01*
Y454650D01*
X414456D01*
Y453767D01*
D02*
G37*
G36*
X414161Y453178D02*
Y452883D01*
X413867D01*
Y453767D01*
X414161D01*
Y453178D01*
D02*
G37*
G36*
X342611Y450233D02*
X341139D01*
Y450528D01*
X342611D01*
Y450233D01*
D02*
G37*
G36*
X371761Y449644D02*
X370583D01*
Y449939D01*
X371761D01*
Y449644D01*
D02*
G37*
G36*
X346733Y450528D02*
X347028D01*
Y450233D01*
X347617D01*
Y450528D01*
X348500D01*
Y449939D01*
X347617D01*
Y449644D01*
X346733D01*
Y450233D01*
X345261D01*
Y450528D01*
X343200D01*
Y450822D01*
X346733D01*
Y450528D01*
D02*
G37*
G36*
X357922Y449644D02*
X357333D01*
Y449350D01*
X356744D01*
Y449644D01*
X357039D01*
Y449939D01*
X357922D01*
Y449644D01*
D02*
G37*
G36*
X340550D02*
X339961D01*
Y449350D01*
X339078D01*
Y449644D01*
X339667D01*
Y449939D01*
X340550D01*
Y449644D01*
D02*
G37*
G36*
X385895Y449055D02*
X385600D01*
Y449350D01*
X385895D01*
Y449055D01*
D02*
G37*
G36*
X376767Y449939D02*
X378533D01*
Y449644D01*
X378828D01*
Y449350D01*
X378533D01*
Y449055D01*
X377944D01*
Y449350D01*
X376767D01*
Y449644D01*
X376178D01*
Y449939D01*
X375294D01*
Y450233D01*
X374117D01*
Y449939D01*
X373233D01*
Y450528D01*
X376767D01*
Y449939D01*
D02*
G37*
G36*
X370583Y449350D02*
X369406D01*
Y449055D01*
X368228D01*
Y449350D01*
X369111D01*
Y449644D01*
X370583D01*
Y449350D01*
D02*
G37*
G36*
X352033Y449055D02*
X353800D01*
Y448761D01*
X350856D01*
Y449055D01*
X349972D01*
Y449350D01*
X350856D01*
Y449055D01*
X351739D01*
Y449350D01*
X352033D01*
Y449055D01*
D02*
G37*
G36*
X349678Y449644D02*
X349383D01*
Y449055D01*
X349089D01*
Y449644D01*
X348795D01*
Y449939D01*
X349678D01*
Y449644D01*
D02*
G37*
G36*
X338489Y449055D02*
X337606D01*
Y449350D01*
X338489D01*
Y449055D01*
D02*
G37*
G36*
X392372Y450233D02*
X392961D01*
Y449939D01*
X394728D01*
Y449644D01*
X396200D01*
Y449350D01*
X395022D01*
Y449055D01*
X395611D01*
Y448761D01*
X394139D01*
Y449644D01*
X393550D01*
Y449350D01*
X392961D01*
Y449644D01*
X392078D01*
Y449939D01*
X388250D01*
Y449644D01*
X387367D01*
Y449350D01*
X386778D01*
Y449644D01*
X387072D01*
Y449939D01*
X387956D01*
Y450233D01*
X388839D01*
Y450528D01*
X392372D01*
Y450233D01*
D02*
G37*
G36*
X385306Y448761D02*
X384717D01*
Y449055D01*
X385306D01*
Y448761D01*
D02*
G37*
G36*
X367933Y449055D02*
X367345D01*
Y448761D01*
X366461D01*
Y449055D01*
X366756D01*
Y449350D01*
X367933D01*
Y449055D01*
D02*
G37*
G36*
X361161Y450528D02*
X363517D01*
Y450233D01*
X364106D01*
Y449939D01*
X364989D01*
Y449644D01*
X365283D01*
Y449350D01*
X365872D01*
Y448761D01*
X365578D01*
Y449055D01*
X364694D01*
Y449350D01*
X363811D01*
Y449644D01*
X363517D01*
Y449939D01*
Y450233D01*
X362928D01*
Y449939D01*
X362044D01*
Y450233D01*
X361161D01*
Y450528D01*
X360572D01*
Y450233D01*
X358806D01*
Y449939D01*
X358511D01*
Y450528D01*
X358806D01*
Y450822D01*
X361161D01*
Y450528D01*
D02*
G37*
G36*
X356156Y449055D02*
X355567D01*
Y448761D01*
X354094D01*
Y449055D01*
X355272D01*
Y449350D01*
X356156D01*
Y449055D01*
D02*
G37*
G36*
X337606Y448761D02*
X336722D01*
Y449055D01*
X337606D01*
Y448761D01*
D02*
G37*
G36*
X330539Y450233D02*
X328772D01*
Y449939D01*
X328478D01*
Y449644D01*
X328183D01*
Y449350D01*
X327594D01*
Y448761D01*
X327300D01*
Y449644D01*
X327594D01*
Y449939D01*
X327889D01*
Y450233D01*
X328183D01*
Y450528D01*
X328772D01*
Y450822D01*
X330539D01*
Y450233D01*
D02*
G37*
G36*
X331717Y449939D02*
X332306D01*
Y449644D01*
X332895D01*
Y449350D01*
X333483D01*
Y449055D01*
X334661D01*
Y448761D01*
X335839D01*
Y448467D01*
X334072D01*
Y448761D01*
X333483D01*
Y449055D01*
X332600D01*
Y449350D01*
X332011D01*
Y449644D01*
X331422D01*
Y449939D01*
X330833D01*
Y450233D01*
X331717D01*
Y449939D01*
D02*
G37*
G36*
X451261Y455533D02*
X451556D01*
Y454650D01*
Y454356D01*
Y453767D01*
X451850D01*
Y452000D01*
X452145D01*
Y451706D01*
X452439D01*
Y450233D01*
X452733D01*
Y449055D01*
X453028D01*
Y448467D01*
X453322D01*
Y448172D01*
X452733D01*
Y448467D01*
Y449055D01*
X452439D01*
Y449644D01*
X452145D01*
Y451706D01*
X451850D01*
Y452000D01*
X451556D01*
Y452883D01*
Y453178D01*
Y453767D01*
X451261D01*
Y455239D01*
X450967D01*
Y455828D01*
X451261D01*
Y455533D01*
D02*
G37*
G36*
X380300Y449055D02*
X380889D01*
Y448761D01*
X383833D01*
Y448467D01*
X383539D01*
Y448172D01*
X380889D01*
Y448761D01*
X380006D01*
Y448467D01*
X379711D01*
Y448761D01*
X379417D01*
Y449350D01*
X380300D01*
Y449055D01*
D02*
G37*
G36*
X413867Y449644D02*
X413572D01*
Y449350D01*
Y449055D01*
Y448761D01*
X413278D01*
Y446994D01*
X412983D01*
Y448172D01*
X412689D01*
Y448761D01*
X412983D01*
Y449939D01*
X413278D01*
Y450233D01*
X413572D01*
Y452294D01*
X413867D01*
Y449644D01*
D02*
G37*
G36*
X453322Y446994D02*
X453617D01*
Y446111D01*
X453322D01*
Y446700D01*
X453028D01*
Y446994D01*
Y447289D01*
Y447878D01*
X453322D01*
Y446994D01*
D02*
G37*
G36*
X412689Y446111D02*
X412394D01*
Y445817D01*
X412689D01*
Y445522D01*
Y445228D01*
X412100D01*
Y446700D01*
X412394D01*
Y446994D01*
X412689D01*
Y446111D01*
D02*
G37*
G36*
X411806Y443756D02*
Y443461D01*
X411511D01*
Y444933D01*
X411806D01*
Y443756D01*
D02*
G37*
G36*
X403561Y449644D02*
X404445D01*
Y449350D01*
X404739D01*
Y449055D01*
X405033D01*
Y448761D01*
X405328D01*
Y448172D01*
X405622D01*
Y447878D01*
X405917D01*
Y446994D01*
X406211D01*
Y444933D01*
Y444639D01*
X406506D01*
Y442578D01*
X406211D01*
Y441105D01*
X405033D01*
Y441400D01*
X405328D01*
Y441989D01*
X405622D01*
Y441694D01*
X405917D01*
Y445817D01*
X405622D01*
Y446111D01*
X405917D01*
Y446994D01*
X405622D01*
Y447289D01*
X405328D01*
Y447878D01*
X405033D01*
Y448172D01*
X404739D01*
Y448761D01*
X404445D01*
Y449055D01*
X404150D01*
Y449350D01*
X403267D01*
Y449644D01*
X400322D01*
Y449350D01*
X399439D01*
Y449055D01*
X398261D01*
Y448761D01*
X396494D01*
Y448467D01*
X396200D01*
Y448761D01*
X395906D01*
Y449055D01*
X396494D01*
Y449350D01*
X398261D01*
Y449644D01*
X398850D01*
Y449350D01*
X399145D01*
Y449644D01*
X399439D01*
Y449939D01*
X403561D01*
Y449644D01*
D02*
G37*
G36*
X453911Y445228D02*
Y444933D01*
Y444639D01*
X454206D01*
Y444050D01*
X454500D01*
Y443167D01*
X454795D01*
Y441105D01*
X454500D01*
Y442283D01*
X454206D01*
Y442578D01*
Y442872D01*
Y443461D01*
X453911D01*
Y444639D01*
X453617D01*
Y445817D01*
X453911D01*
Y445228D01*
D02*
G37*
G36*
X411511Y441694D02*
Y441400D01*
Y441105D01*
X411217D01*
Y443461D01*
X411511D01*
Y441694D01*
D02*
G37*
G36*
X327300Y447583D02*
X327006D01*
Y446406D01*
X327300D01*
Y445817D01*
X327594D01*
Y444344D01*
X327889D01*
Y442872D01*
X328183D01*
Y441694D01*
X328478D01*
Y441105D01*
X328183D01*
Y441400D01*
X327889D01*
Y442578D01*
X327594D01*
Y443461D01*
X327300D01*
Y445817D01*
X326711D01*
Y448172D01*
X327006D01*
Y448761D01*
X327300D01*
Y447583D01*
D02*
G37*
G36*
X411217Y440811D02*
X410922D01*
Y441105D01*
X411217D01*
Y440811D01*
D02*
G37*
G36*
X410922Y439928D02*
X410628D01*
Y439339D01*
X410333D01*
Y440517D01*
X410628D01*
Y440811D01*
X410922D01*
Y439928D01*
D02*
G37*
G36*
X455383D02*
X455678D01*
Y439339D01*
Y439044D01*
X455383D01*
Y439339D01*
X455089D01*
Y440222D01*
X455383D01*
Y439928D01*
D02*
G37*
G36*
X410333Y439044D02*
Y438750D01*
X410628D01*
Y438161D01*
X410333D01*
Y438456D01*
Y438750D01*
X410039D01*
Y439339D01*
X410333D01*
Y439044D01*
D02*
G37*
G36*
X328478Y440517D02*
Y440222D01*
Y438161D01*
X328183D01*
Y440811D01*
X328478D01*
Y440517D01*
D02*
G37*
G36*
X409744Y436394D02*
X409156D01*
Y436983D01*
X409450D01*
Y437572D01*
X409744D01*
Y436394D01*
D02*
G37*
G36*
X427117Y460244D02*
X428000D01*
Y459950D01*
X428294D01*
Y459655D01*
X429178D01*
Y459361D01*
X429472D01*
Y459067D01*
X430061D01*
Y458478D01*
X430356D01*
Y458183D01*
X430650D01*
Y457889D01*
X430945D01*
Y457594D01*
X431239D01*
Y457300D01*
X431533D01*
Y457006D01*
X431828D01*
Y456417D01*
X432122D01*
Y455828D01*
X432417D01*
Y455239D01*
X432711D01*
Y454650D01*
X433006D01*
Y453767D01*
X433300D01*
Y453472D01*
X433595D01*
Y453767D01*
X433889D01*
Y454650D01*
X434183D01*
Y455239D01*
X434478D01*
Y455828D01*
X434772D01*
Y456417D01*
X435067D01*
Y456711D01*
X435361D01*
Y457300D01*
X435656D01*
Y457594D01*
X435950D01*
Y457889D01*
X436245D01*
Y458183D01*
X436539D01*
Y458772D01*
X437128D01*
Y459067D01*
X437422D01*
Y459361D01*
X437717D01*
Y459655D01*
X438600D01*
Y459950D01*
X439778D01*
Y460244D01*
X442133D01*
Y459950D01*
X443017D01*
Y459655D01*
X444194D01*
Y459361D01*
X444783D01*
Y459067D01*
X445078D01*
Y458772D01*
X445667D01*
Y458478D01*
X445961D01*
Y458183D01*
X446550D01*
Y457889D01*
X446844D01*
Y457594D01*
X447139D01*
Y457006D01*
X447433D01*
Y456711D01*
X447728D01*
Y456417D01*
X448022D01*
Y456122D01*
X448317D01*
Y455533D01*
X448611D01*
Y455239D01*
X448906D01*
Y454650D01*
X449200D01*
Y454061D01*
X449495D01*
Y453472D01*
X449789D01*
Y452883D01*
X450083D01*
Y452589D01*
Y451706D01*
X450378D01*
Y451117D01*
X450672D01*
Y449644D01*
X450967D01*
Y443461D01*
X450672D01*
Y442283D01*
X450378D01*
Y441105D01*
X450083D01*
Y440517D01*
X449789D01*
Y439928D01*
X449495D01*
Y439339D01*
X449200D01*
Y438750D01*
X448906D01*
Y438456D01*
X448611D01*
Y438161D01*
X448317D01*
Y437867D01*
X448022D01*
Y437572D01*
X447728D01*
Y437278D01*
X447433D01*
Y436983D01*
X447139D01*
Y436689D01*
X446844D01*
Y436394D01*
X446550D01*
Y436100D01*
X445961D01*
Y435806D01*
X445372D01*
Y435511D01*
X444783D01*
Y435217D01*
X443606D01*
Y434922D01*
X440661D01*
Y435217D01*
X440072D01*
Y435511D01*
X439483D01*
Y435806D01*
X438894D01*
Y436100D01*
X438306D01*
Y436394D01*
X438011D01*
Y436689D01*
X437717D01*
Y436983D01*
X437422D01*
Y437278D01*
X437128D01*
Y437572D01*
X436539D01*
Y438161D01*
X436245D01*
Y438456D01*
X435950D01*
Y438750D01*
X435656D01*
Y439339D01*
X435361D01*
Y439633D01*
X435067D01*
Y440222D01*
X434772D01*
Y440517D01*
X434478D01*
Y441105D01*
X434183D01*
Y441989D01*
X433889D01*
Y442578D01*
X433595D01*
Y443167D01*
X433300D01*
Y442578D01*
X433006D01*
Y441989D01*
X432711D01*
Y441400D01*
X432417D01*
Y440811D01*
X432122D01*
Y440222D01*
X431828D01*
Y439633D01*
X431533D01*
Y439339D01*
X431239D01*
Y438750D01*
X430945D01*
Y438456D01*
X430650D01*
Y438161D01*
X430356D01*
Y437867D01*
X430061D01*
Y437572D01*
X429767D01*
Y437278D01*
X429472D01*
Y436983D01*
X428883D01*
Y436689D01*
X428589D01*
Y436394D01*
X428294D01*
Y436100D01*
X427706D01*
Y435806D01*
X426822D01*
Y435511D01*
X425350D01*
Y435217D01*
X423878D01*
Y435511D01*
X422406D01*
Y435806D01*
X421522D01*
Y436100D01*
X420933D01*
Y436394D01*
X420639D01*
Y436689D01*
X420344D01*
Y436983D01*
X420050D01*
Y437278D01*
X419461D01*
Y437867D01*
X419167D01*
Y438161D01*
X418872D01*
Y438456D01*
X418578D01*
Y438750D01*
X418283D01*
Y439339D01*
X417989D01*
Y439633D01*
X417695D01*
Y440222D01*
X417400D01*
Y440811D01*
X417106D01*
Y441694D01*
X416811D01*
Y442283D01*
X416517D01*
Y443461D01*
X416222D01*
Y444639D01*
X415928D01*
Y446994D01*
X415633D01*
Y447878D01*
X415928D01*
Y450822D01*
X416222D01*
Y452000D01*
X416517D01*
Y452883D01*
X416811D01*
Y453767D01*
X417106D01*
Y454650D01*
X417400D01*
Y455239D01*
X417695D01*
Y455533D01*
X417989D01*
Y456122D01*
X418283D01*
Y456417D01*
X418578D01*
Y457006D01*
X418872D01*
Y457300D01*
X419167D01*
Y457594D01*
X419461D01*
Y458183D01*
X419756D01*
Y458478D01*
X420344D01*
Y458772D01*
X420639D01*
Y459067D01*
X420933D01*
Y459361D01*
X421522D01*
Y459655D01*
X422111D01*
Y459950D01*
X422700D01*
Y460244D01*
X423583D01*
Y460539D01*
X427117D01*
Y460244D01*
D02*
G37*
G36*
X409156Y435806D02*
Y435511D01*
Y434922D01*
X408272D01*
Y435217D01*
X408567D01*
Y435511D01*
X408861D01*
Y436100D01*
X409156D01*
Y435806D01*
D02*
G37*
G36*
X405622Y440517D02*
X405917D01*
Y440222D01*
Y439928D01*
X405328D01*
Y439339D01*
X405033D01*
Y438161D01*
X404739D01*
Y437572D01*
X404445D01*
Y436689D01*
X404150D01*
Y434922D01*
X403856D01*
Y437278D01*
X404150D01*
Y438456D01*
X404445D01*
Y439339D01*
X404739D01*
Y439928D01*
X405033D01*
Y440517D01*
X405328D01*
Y440811D01*
X405622D01*
Y440517D01*
D02*
G37*
G36*
X353800Y439044D02*
X354094D01*
Y436394D01*
X354978D01*
Y436100D01*
X357628D01*
Y435806D01*
X358511D01*
Y435511D01*
X359394D01*
Y435806D01*
X359689D01*
Y436394D01*
X359983D01*
Y437278D01*
X360278D01*
Y437867D01*
X360572D01*
Y438161D01*
X361750D01*
Y437278D01*
X361456D01*
Y436394D01*
X361161D01*
Y435511D01*
X360867D01*
Y434628D01*
X361161D01*
Y434333D01*
X361750D01*
Y434039D01*
X362339D01*
Y433744D01*
X362633D01*
Y433450D01*
X362928D01*
Y433156D01*
X363222D01*
Y432861D01*
X363517D01*
Y432567D01*
X363811D01*
Y432272D01*
X364106D01*
Y431978D01*
X364400D01*
Y431683D01*
X364694D01*
Y431389D01*
X364989D01*
Y430800D01*
X365283D01*
Y430505D01*
X365578D01*
Y430211D01*
X365872D01*
Y429622D01*
X366167D01*
Y429033D01*
X366461D01*
Y428444D01*
X366756D01*
Y427856D01*
X367050D01*
Y428150D01*
X367345D01*
Y428444D01*
X367639D01*
Y429033D01*
X367933D01*
Y429622D01*
X368228D01*
Y429917D01*
X368522D01*
Y430505D01*
X368817D01*
Y430800D01*
X369111D01*
Y431094D01*
X369406D01*
Y431389D01*
X369700D01*
Y431683D01*
X369995D01*
Y431978D01*
X370289D01*
Y432272D01*
X370583D01*
Y432567D01*
X370878D01*
Y432861D01*
X371172D01*
Y433156D01*
X371761D01*
Y433450D01*
X372056D01*
Y434333D01*
X371761D01*
Y434628D01*
X371467D01*
Y435217D01*
X371172D01*
Y435806D01*
X370878D01*
Y436983D01*
X371172D01*
Y437278D01*
X371761D01*
Y436983D01*
X372056D01*
Y436689D01*
X372350D01*
Y436100D01*
X372644D01*
Y435806D01*
X372939D01*
Y434922D01*
X373233D01*
Y434628D01*
X373528D01*
Y434333D01*
X373822D01*
Y434628D01*
X374706D01*
Y434922D01*
X375589D01*
Y435217D01*
X377061D01*
Y435511D01*
X377650D01*
Y435806D01*
X377944D01*
Y436394D01*
X377650D01*
Y438456D01*
X379122D01*
Y436394D01*
Y436100D01*
Y435806D01*
X379417D01*
Y435511D01*
X381183D01*
Y435217D01*
X382361D01*
Y434922D01*
X383244D01*
Y434628D01*
X383833D01*
Y434922D01*
X384128D01*
Y435511D01*
X384422D01*
Y435806D01*
X384717D01*
Y436689D01*
X385306D01*
Y436983D01*
X385600D01*
Y436689D01*
X385895D01*
Y435511D01*
X385600D01*
Y434628D01*
X385306D01*
Y434039D01*
X385600D01*
Y433744D01*
X385895D01*
Y433450D01*
X386189D01*
Y433156D01*
X386483D01*
Y432861D01*
X387072D01*
Y432567D01*
X387367D01*
Y432272D01*
X387661D01*
Y431978D01*
X387956D01*
Y431683D01*
X388250D01*
Y431389D01*
X388545D01*
Y431094D01*
X388839D01*
Y430800D01*
X389133D01*
Y430505D01*
X389428D01*
Y429917D01*
X389722D01*
Y429622D01*
X390017D01*
Y429328D01*
X390311D01*
Y428739D01*
X390606D01*
Y428150D01*
X390900D01*
Y427561D01*
X391194D01*
Y426383D01*
X391489D01*
Y425206D01*
X391783D01*
Y420494D01*
X391489D01*
Y418728D01*
X391194D01*
Y417844D01*
X390900D01*
Y416961D01*
X390606D01*
Y416372D01*
X390311D01*
Y416078D01*
X390017D01*
Y415489D01*
X389722D01*
Y414900D01*
X389428D01*
Y414605D01*
X389133D01*
Y414311D01*
X388839D01*
Y414017D01*
X388545D01*
Y413428D01*
X388250D01*
Y413133D01*
X387956D01*
Y412839D01*
X387367D01*
Y412544D01*
X387072D01*
Y412250D01*
X386778D01*
Y411955D01*
X386483D01*
Y411661D01*
X385895D01*
Y411367D01*
X385600D01*
Y411072D01*
X385011D01*
Y410778D01*
X384422D01*
Y410483D01*
X383833D01*
Y410189D01*
X382950D01*
Y409894D01*
X381772D01*
Y409600D01*
X380006D01*
Y409306D01*
X378239D01*
Y409600D01*
X376178D01*
Y409894D01*
X375000D01*
Y410189D01*
X374117D01*
Y410483D01*
X373528D01*
Y410778D01*
X372939D01*
Y411072D01*
X372350D01*
Y411367D01*
X372056D01*
Y411661D01*
X371467D01*
Y411955D01*
X371172D01*
Y412250D01*
X370878D01*
Y412544D01*
X370583D01*
Y412839D01*
X370289D01*
Y412544D01*
X369995D01*
Y411955D01*
X369700D01*
Y411367D01*
X369406D01*
Y411072D01*
X369111D01*
Y410778D01*
X368522D01*
Y410483D01*
X368228D01*
Y411072D01*
X368522D01*
Y411955D01*
X368817D01*
Y412839D01*
X369111D01*
Y416078D01*
X368817D01*
Y416667D01*
X368522D01*
Y417256D01*
X368228D01*
Y417550D01*
X367933D01*
Y417844D01*
X367639D01*
Y418139D01*
X367050D01*
Y418433D01*
X364989D01*
Y418139D01*
X364694D01*
Y417844D01*
X364400D01*
Y417550D01*
X364106D01*
Y417256D01*
X363811D01*
Y416961D01*
X363517D01*
Y416078D01*
X363222D01*
Y415194D01*
X362928D01*
Y412839D01*
X363222D01*
Y411661D01*
X363517D01*
Y410778D01*
X363811D01*
Y410483D01*
X364106D01*
Y409894D01*
X364400D01*
Y409600D01*
X363517D01*
Y409894D01*
X363222D01*
Y410483D01*
X362928D01*
Y410778D01*
X362633D01*
Y411072D01*
X362339D01*
Y411661D01*
X362044D01*
Y412250D01*
X361456D01*
Y411955D01*
X360867D01*
Y411661D01*
X360572D01*
Y411367D01*
X359983D01*
Y411072D01*
X359394D01*
Y410778D01*
X358217D01*
Y410483D01*
X357333D01*
Y410189D01*
X352328D01*
Y410483D01*
X350856D01*
Y410778D01*
X349972D01*
Y411072D01*
X349383D01*
Y411367D01*
X348795D01*
Y411661D01*
X348206D01*
Y411955D01*
X347617D01*
Y412250D01*
X347322D01*
Y412544D01*
X347028D01*
Y412839D01*
X346733D01*
Y413133D01*
X346144D01*
Y413428D01*
X345850D01*
Y413722D01*
X345556D01*
Y414017D01*
X345261D01*
Y414605D01*
X344967D01*
Y414900D01*
X344672D01*
Y415194D01*
X344378D01*
Y415489D01*
X344083D01*
Y416078D01*
X343789D01*
Y416372D01*
X343494D01*
Y416961D01*
X343200D01*
Y417550D01*
X342906D01*
Y418139D01*
X342611D01*
Y419022D01*
X342317D01*
Y419906D01*
X342022D01*
Y421672D01*
X341728D01*
Y424617D01*
X342022D01*
Y426383D01*
X342317D01*
Y427561D01*
X342611D01*
Y428150D01*
X342906D01*
Y429033D01*
X343200D01*
Y429622D01*
X343494D01*
Y430211D01*
X343789D01*
Y430505D01*
X344083D01*
Y431094D01*
X344378D01*
Y431389D01*
X344672D01*
Y431683D01*
X344967D01*
Y432272D01*
X345261D01*
Y432567D01*
X345556D01*
Y432861D01*
X346144D01*
Y433156D01*
X346439D01*
Y433450D01*
X346733D01*
Y433744D01*
X347028D01*
Y434922D01*
X346733D01*
Y435511D01*
X346439D01*
Y436689D01*
X346733D01*
Y436983D01*
X347028D01*
Y436689D01*
X347322D01*
Y436394D01*
X347617D01*
Y435806D01*
X347911D01*
Y435217D01*
X348206D01*
Y434922D01*
X349089D01*
Y435217D01*
X349678D01*
Y435511D01*
X350561D01*
Y435806D01*
X351739D01*
Y436100D01*
X352622D01*
Y436394D01*
X352917D01*
Y439339D01*
X353800D01*
Y439044D01*
D02*
G37*
G36*
X328183Y436983D02*
X327889D01*
Y436689D01*
Y435806D01*
X327594D01*
Y434628D01*
X327300D01*
Y436983D01*
X327594D01*
Y437572D01*
X327889D01*
Y438161D01*
X328183D01*
Y436983D01*
D02*
G37*
G36*
X456267Y437278D02*
X456561D01*
Y436689D01*
X456856D01*
Y436100D01*
X457150D01*
Y434922D01*
X457444D01*
Y434628D01*
X457739D01*
Y434039D01*
X457444D01*
Y434333D01*
X457150D01*
Y434628D01*
X456856D01*
Y434922D01*
Y435217D01*
X456561D01*
Y436394D01*
X456267D01*
Y437278D01*
X455972D01*
Y438161D01*
X456267D01*
Y437278D01*
D02*
G37*
G36*
X408272Y433744D02*
X407978D01*
Y433156D01*
X407389D01*
Y433450D01*
X407683D01*
Y434039D01*
X407978D01*
Y434333D01*
X408272D01*
Y433744D01*
D02*
G37*
G36*
X404445Y433156D02*
X404150D01*
Y433450D01*
Y434039D01*
X404445D01*
Y433156D01*
D02*
G37*
G36*
X407094Y431978D02*
Y431683D01*
X406506D01*
Y432272D01*
X406800D01*
Y432567D01*
X407094D01*
Y431978D01*
D02*
G37*
G36*
X405033Y431683D02*
X404739D01*
Y431978D01*
Y432272D01*
X405033D01*
Y431683D01*
D02*
G37*
G36*
X416811Y436394D02*
X416517D01*
Y436100D01*
X416222D01*
Y435806D01*
X415633D01*
Y435511D01*
X415339D01*
Y435217D01*
X415045D01*
Y434039D01*
X415339D01*
Y433450D01*
X415633D01*
Y433156D01*
X415928D01*
Y432861D01*
X416222D01*
Y432567D01*
X416517D01*
Y432272D01*
X416811D01*
Y431978D01*
X417106D01*
Y431683D01*
X417400D01*
Y431389D01*
X417695D01*
Y431094D01*
X417989D01*
Y430800D01*
X418283D01*
Y430505D01*
X418872D01*
Y430211D01*
X419461D01*
Y429917D01*
X419756D01*
Y429622D01*
X420344D01*
Y429328D01*
X420933D01*
Y429033D01*
X421522D01*
Y428739D01*
X422406D01*
Y428444D01*
X423289D01*
Y428150D01*
X423878D01*
Y427856D01*
X425350D01*
Y427561D01*
X426528D01*
Y427267D01*
X428294D01*
Y426972D01*
X431828D01*
Y426678D01*
X433889D01*
Y426972D01*
X434183D01*
Y426678D01*
X434478D01*
Y426972D01*
X437422D01*
Y427267D01*
X439189D01*
Y427561D01*
X440367D01*
Y427856D01*
X441839D01*
Y428150D01*
X442722D01*
Y428444D01*
X443606D01*
Y428739D01*
X444489D01*
Y429033D01*
X445078D01*
Y429328D01*
X445667D01*
Y429622D01*
X446256D01*
Y429917D01*
X446844D01*
Y430211D01*
X447433D01*
Y430505D01*
X447728D01*
Y430800D01*
X448317D01*
Y431094D01*
X448611D01*
Y431389D01*
X448906D01*
Y431683D01*
X449495D01*
Y431978D01*
X449789D01*
Y432272D01*
X450083D01*
Y432567D01*
X450672D01*
Y433450D01*
X450378D01*
Y433744D01*
X450083D01*
Y434039D01*
X449495D01*
Y434333D01*
X449200D01*
Y434628D01*
X449495D01*
Y434922D01*
X450083D01*
Y434628D01*
X450672D01*
Y434333D01*
X451261D01*
Y434039D01*
X451850D01*
Y433450D01*
X452145D01*
Y433156D01*
X452439D01*
Y432272D01*
X452733D01*
Y430800D01*
X452145D01*
Y431094D01*
X451850D01*
Y431683D01*
X451556D01*
Y431978D01*
X450967D01*
Y431683D01*
X450672D01*
Y431389D01*
X450378D01*
Y431094D01*
X450083D01*
Y430800D01*
X449495D01*
Y430505D01*
X449200D01*
Y430211D01*
X448906D01*
Y429917D01*
X448317D01*
Y429622D01*
X448022D01*
Y429328D01*
X447433D01*
Y429033D01*
X446844D01*
Y428739D01*
X446550D01*
Y428444D01*
X445961D01*
Y428150D01*
X445372D01*
Y427856D01*
X444489D01*
Y427561D01*
X443900D01*
Y427267D01*
X443017D01*
Y426972D01*
X442133D01*
Y426678D01*
X441250D01*
Y426383D01*
X440072D01*
Y426089D01*
X438600D01*
Y425794D01*
X435361D01*
Y425500D01*
X430650D01*
Y425794D01*
X427706D01*
Y426089D01*
X426233D01*
Y426383D01*
X425056D01*
Y426678D01*
X423878D01*
Y426972D01*
X422994D01*
Y427267D01*
X422406D01*
Y427561D01*
X421522D01*
Y427856D01*
X420933D01*
Y428150D01*
X420344D01*
Y428444D01*
X419756D01*
Y428739D01*
X419167D01*
Y429033D01*
X418872D01*
Y429328D01*
X418283D01*
Y429622D01*
X417989D01*
Y429917D01*
X417400D01*
Y430211D01*
X417106D01*
Y430505D01*
X416811D01*
Y430800D01*
X416517D01*
Y431094D01*
X416222D01*
Y431389D01*
X415928D01*
Y431683D01*
X415633D01*
Y431978D01*
X415339D01*
Y432272D01*
X415045D01*
Y432567D01*
X414750D01*
Y432861D01*
X414456D01*
Y433450D01*
X413572D01*
Y432861D01*
X412689D01*
Y433450D01*
X412983D01*
Y434039D01*
X413278D01*
Y434333D01*
X413572D01*
Y434628D01*
X413867D01*
Y435217D01*
X414161D01*
Y435511D01*
X414456D01*
Y435806D01*
X414750D01*
Y436100D01*
X415045D01*
Y436394D01*
X415633D01*
Y436689D01*
X416811D01*
Y436394D01*
D02*
G37*
G36*
X406211Y430800D02*
X405917D01*
Y431094D01*
X406211D01*
Y430800D01*
D02*
G37*
G36*
X327889Y433450D02*
X328183D01*
Y432567D01*
X328478D01*
Y431683D01*
X328772D01*
Y430800D01*
X328183D01*
Y431978D01*
X327889D01*
Y433156D01*
X327594D01*
Y434039D01*
X327889D01*
Y433450D01*
D02*
G37*
G36*
X405033Y431094D02*
X405328D01*
Y428150D01*
X404445D01*
Y428739D01*
X404739D01*
Y431389D01*
X405033D01*
Y431094D01*
D02*
G37*
G36*
X329067Y428150D02*
X328772D01*
Y427856D01*
X328478D01*
Y430211D01*
X329067D01*
Y428150D01*
D02*
G37*
G36*
X405328Y427561D02*
X405033D01*
Y427856D01*
X405328D01*
Y427561D01*
D02*
G37*
G36*
X404739Y426972D02*
X404445D01*
Y426089D01*
X404150D01*
Y427267D01*
X404445D01*
Y427856D01*
X404739D01*
Y426972D01*
D02*
G37*
G36*
Y425500D02*
Y425206D01*
X404445D01*
Y424911D01*
X403561D01*
Y425794D01*
X404739D01*
Y425500D01*
D02*
G37*
G36*
X403561Y424028D02*
X403856D01*
Y423439D01*
Y423144D01*
X403561D01*
Y423733D01*
X403267D01*
Y424911D01*
X403561D01*
Y424028D01*
D02*
G37*
G36*
X469517Y423144D02*
X470106D01*
Y422850D01*
X469517D01*
Y423144D01*
X468928D01*
Y423439D01*
X469517D01*
Y423144D01*
D02*
G37*
G36*
X462450Y434628D02*
X463333D01*
Y434333D01*
X463922D01*
Y434039D01*
X464806D01*
Y433744D01*
X465100D01*
Y433450D01*
X465394D01*
Y433156D01*
X465689D01*
Y432861D01*
X465983D01*
Y432567D01*
X466278D01*
Y432272D01*
X466572D01*
Y431683D01*
X466867D01*
Y431389D01*
X467161D01*
Y430800D01*
X467456D01*
Y430211D01*
X467750D01*
Y429622D01*
X468045D01*
Y424028D01*
X468339D01*
Y423733D01*
X467456D01*
Y423144D01*
X467161D01*
Y422850D01*
X466867D01*
Y422556D01*
X466572D01*
Y422261D01*
X466278D01*
Y421672D01*
X465689D01*
Y421378D01*
X464806D01*
Y421083D01*
X463333D01*
Y421378D01*
X462450D01*
Y421672D01*
X460978D01*
Y421967D01*
X460389D01*
Y422261D01*
X460094D01*
Y422556D01*
X459800D01*
Y423144D01*
X459506D01*
Y423439D01*
X458917D01*
Y423733D01*
X458033D01*
Y424028D01*
X457739D01*
Y424617D01*
X457444D01*
Y426383D01*
X457739D01*
Y426972D01*
X458033D01*
Y427267D01*
X458328D01*
Y428150D01*
X456267D01*
Y428444D01*
X455972D01*
Y428739D01*
X455383D01*
Y429622D01*
X455089D01*
Y430505D01*
X455383D01*
Y431389D01*
X455678D01*
Y431683D01*
X456267D01*
Y431978D01*
X456561D01*
Y432272D01*
X457444D01*
Y432567D01*
X458033D01*
Y432861D01*
X459506D01*
Y433156D01*
X459800D01*
Y433450D01*
X460389D01*
Y432861D01*
X460094D01*
Y432272D01*
X459800D01*
Y431978D01*
X459211D01*
Y431683D01*
X458622D01*
Y431389D01*
X457150D01*
Y431094D01*
X456561D01*
Y430505D01*
X456267D01*
Y429917D01*
X456561D01*
Y429622D01*
X456856D01*
Y429328D01*
X458917D01*
Y429622D01*
X459506D01*
Y429917D01*
X459800D01*
Y430211D01*
X460094D01*
Y430505D01*
X460389D01*
Y430800D01*
X460683D01*
Y431094D01*
X460978D01*
Y430800D01*
X461272D01*
Y429917D01*
X460978D01*
Y429328D01*
X460683D01*
Y429033D01*
X460389D01*
Y428444D01*
X460094D01*
Y428150D01*
X459800D01*
Y427856D01*
X459506D01*
Y427267D01*
X459211D01*
Y426972D01*
X458917D01*
Y426678D01*
X458622D01*
Y424911D01*
X460094D01*
Y425206D01*
X460683D01*
Y425500D01*
X460978D01*
Y425794D01*
X461272D01*
Y426089D01*
X461567D01*
Y426383D01*
X461861D01*
Y426678D01*
X462156D01*
Y427267D01*
X462450D01*
Y427856D01*
X462744D01*
Y428150D01*
X463039D01*
Y428739D01*
X463333D01*
Y429033D01*
X463922D01*
Y427856D01*
X463628D01*
Y427267D01*
X463333D01*
Y426972D01*
X463039D01*
Y426383D01*
X462744D01*
Y425794D01*
X462450D01*
Y425500D01*
X462156D01*
Y425206D01*
X461861D01*
Y424911D01*
X461567D01*
Y424617D01*
X461272D01*
Y424322D01*
X460978D01*
Y424028D01*
X460683D01*
Y423439D01*
X460978D01*
Y423144D01*
X461272D01*
Y422850D01*
X462450D01*
Y423144D01*
X463039D01*
Y423439D01*
X463333D01*
Y423733D01*
X463628D01*
Y424322D01*
X463922D01*
Y424911D01*
X464217D01*
Y425500D01*
X464511D01*
Y426089D01*
X464806D01*
Y426972D01*
X465689D01*
Y425794D01*
X465394D01*
Y425206D01*
X465100D01*
Y424617D01*
X464806D01*
Y424028D01*
X464511D01*
Y423733D01*
X464217D01*
Y423439D01*
X463922D01*
Y422850D01*
X463628D01*
Y422261D01*
X465100D01*
Y422556D01*
X465689D01*
Y422850D01*
X465983D01*
Y423439D01*
X466278D01*
Y423733D01*
X466572D01*
Y424617D01*
X466867D01*
Y425794D01*
X467161D01*
Y428444D01*
X466867D01*
Y429622D01*
X466572D01*
Y429917D01*
Y430211D01*
X466278D01*
Y430800D01*
X465983D01*
Y431389D01*
X465689D01*
Y431683D01*
X465394D01*
Y431978D01*
X465100D01*
Y432272D01*
X464806D01*
Y432567D01*
X464511D01*
Y432861D01*
X463922D01*
Y433156D01*
X463628D01*
Y433450D01*
X463039D01*
Y433744D01*
X461861D01*
Y434039D01*
X460683D01*
Y433744D01*
X458917D01*
Y433450D01*
X458622D01*
Y433156D01*
X458328D01*
Y434039D01*
X458033D01*
Y434333D01*
X458328D01*
Y434628D01*
X459211D01*
Y434922D01*
X462450D01*
Y434628D01*
D02*
G37*
G36*
X470989Y422261D02*
X471283D01*
Y421967D01*
X470989D01*
Y422261D01*
X470400D01*
Y422556D01*
X470989D01*
Y422261D01*
D02*
G37*
G36*
X328478Y423439D02*
X328183D01*
Y422556D01*
X327889D01*
Y422261D01*
X328183D01*
Y421967D01*
X327300D01*
Y422556D01*
X327594D01*
Y423439D01*
X327889D01*
Y424322D01*
X328183D01*
Y424617D01*
Y424911D01*
X327889D01*
Y425500D01*
X328183D01*
Y426678D01*
X328478D01*
Y423439D01*
D02*
G37*
G36*
X326122Y420789D02*
X325828D01*
Y421083D01*
X326122D01*
Y420789D01*
D02*
G37*
G36*
X471872Y421672D02*
X472461D01*
Y421378D01*
X472756D01*
Y421083D01*
X473344D01*
Y420789D01*
X473639D01*
Y420494D01*
X474228D01*
Y420200D01*
X474522D01*
Y419906D01*
X474228D01*
Y420200D01*
X473639D01*
Y420494D01*
X473050D01*
Y420789D01*
X472461D01*
Y421083D01*
X472167D01*
Y421378D01*
X471872D01*
Y421672D01*
X471578D01*
Y421967D01*
X471872D01*
Y421672D01*
D02*
G37*
G36*
X325533Y419906D02*
X325239D01*
Y419611D01*
X324944D01*
Y420200D01*
X325533D01*
Y419906D01*
D02*
G37*
G36*
X324944Y419022D02*
X324650D01*
Y419317D01*
X324944D01*
Y419022D01*
D02*
G37*
G36*
X475406Y419317D02*
X475994D01*
Y419022D01*
X475700D01*
Y418728D01*
X475406D01*
Y419022D01*
X475111D01*
Y419611D01*
X475406D01*
Y419317D01*
D02*
G37*
G36*
X324650Y418728D02*
X324356D01*
Y419022D01*
X324650D01*
Y418728D01*
D02*
G37*
G36*
X328478Y420789D02*
X328772D01*
Y420200D01*
X329067D01*
Y419317D01*
X329361D01*
Y418433D01*
X329067D01*
Y418728D01*
X328772D01*
Y419906D01*
X328478D01*
Y420494D01*
X328183D01*
Y420789D01*
X327889D01*
Y421083D01*
X328183D01*
Y421378D01*
X328478D01*
Y420789D01*
D02*
G37*
G36*
X477172Y418139D02*
X477467D01*
Y417844D01*
X478056D01*
Y417550D01*
X477467D01*
Y417844D01*
X477172D01*
Y418139D01*
X476583D01*
Y418433D01*
X477172D01*
Y418139D01*
D02*
G37*
G36*
X403267Y423144D02*
X402972D01*
Y419906D01*
X403267D01*
Y417550D01*
X402972D01*
Y417844D01*
Y418139D01*
Y418433D01*
X402678D01*
Y421378D01*
X402383D01*
Y423439D01*
X402678D01*
Y423733D01*
X403267D01*
Y423144D01*
D02*
G37*
G36*
X323767Y417256D02*
X323472D01*
Y417550D01*
X323767D01*
Y417256D01*
D02*
G37*
G36*
X478350Y416961D02*
X478644D01*
Y416667D01*
X478056D01*
Y417256D01*
X478350D01*
Y416961D01*
D02*
G37*
G36*
X331717Y416078D02*
X332011D01*
Y415783D01*
X331717D01*
Y416078D01*
X331422D01*
Y416372D01*
X331717D01*
Y416078D01*
D02*
G37*
G36*
X395022Y415489D02*
X394139D01*
Y415783D01*
X394728D01*
Y416078D01*
X395022D01*
Y415489D01*
D02*
G37*
G36*
X341433Y415783D02*
Y415489D01*
X340844D01*
Y416078D01*
X341433D01*
Y415783D01*
D02*
G37*
G36*
X479233Y416372D02*
X479528D01*
Y416078D01*
X479822D01*
Y415783D01*
X480117D01*
Y415489D01*
X480411D01*
Y415194D01*
X479822D01*
Y415489D01*
X479528D01*
Y415783D01*
X479233D01*
Y416078D01*
X478939D01*
Y416667D01*
X479233D01*
Y416372D01*
D02*
G37*
G36*
X440367Y416078D02*
X440661D01*
Y414900D01*
X440367D01*
Y415489D01*
X440072D01*
Y416372D01*
X440367D01*
Y416078D01*
D02*
G37*
G36*
X403856Y417844D02*
Y417550D01*
Y414900D01*
X403561D01*
Y418728D01*
X403856D01*
Y417844D01*
D02*
G37*
G36*
X332895Y415194D02*
X333189D01*
Y414900D01*
X332895D01*
Y415194D01*
X332600D01*
Y415489D01*
X332895D01*
Y415194D01*
D02*
G37*
G36*
X322883Y414900D02*
X322589D01*
Y415194D01*
Y415489D01*
X322883D01*
Y414900D01*
D02*
G37*
G36*
X481000Y414605D02*
Y414311D01*
X480411D01*
Y414900D01*
X481000D01*
Y414605D01*
D02*
G37*
G36*
X339372Y414311D02*
X339667D01*
Y414017D01*
X338783D01*
Y414311D01*
X339078D01*
Y414605D01*
X339372D01*
Y414311D01*
D02*
G37*
G36*
X403267Y416078D02*
X402972D01*
Y415489D01*
X403267D01*
Y414900D01*
X402972D01*
Y414311D01*
X403267D01*
Y414605D01*
X403561D01*
Y413722D01*
X402972D01*
Y414311D01*
X402678D01*
Y414017D01*
Y413722D01*
X402383D01*
Y413133D01*
X402972D01*
Y412544D01*
X402678D01*
Y412250D01*
X402383D01*
Y412544D01*
X401794D01*
Y413133D01*
X402089D01*
Y412839D01*
X402383D01*
Y413133D01*
X402089D01*
Y414311D01*
X402383D01*
Y415489D01*
X402678D01*
Y416667D01*
X403267D01*
Y416078D01*
D02*
G37*
G36*
X481589Y414017D02*
X481883D01*
Y413722D01*
X481589D01*
Y413428D01*
X481295D01*
Y414017D01*
Y414311D01*
Y414605D01*
X481589D01*
Y414017D01*
D02*
G37*
G36*
X392667Y413428D02*
X392078D01*
Y414017D01*
X392667D01*
Y413428D01*
D02*
G37*
G36*
X334072Y414311D02*
X334367D01*
Y414017D01*
X334661D01*
Y413722D01*
X334956D01*
Y413133D01*
X334661D01*
Y413428D01*
X334367D01*
Y413722D01*
X334072D01*
Y414017D01*
X333778D01*
Y414311D01*
X333483D01*
Y414605D01*
X334072D01*
Y414311D01*
D02*
G37*
G36*
X396200Y413133D02*
X395611D01*
Y412839D01*
X395317D01*
Y413428D01*
X396200D01*
Y413133D01*
D02*
G37*
G36*
X341728D02*
Y412839D01*
X341433D01*
Y413428D01*
X341728D01*
Y413133D01*
D02*
G37*
G36*
X335544Y412839D02*
X335250D01*
Y413133D01*
X335544D01*
Y412839D01*
D02*
G37*
G36*
X483356Y411955D02*
X483061D01*
Y412250D01*
X483356D01*
Y411955D01*
D02*
G37*
G36*
X336133Y411661D02*
X335839D01*
Y411955D01*
X336133D01*
Y411661D01*
D02*
G37*
G36*
X402089Y410778D02*
X401794D01*
Y410483D01*
Y410189D01*
Y409894D01*
X401500D01*
Y410189D01*
X401206D01*
Y408128D01*
X401500D01*
Y406656D01*
X401206D01*
Y406361D01*
X400911D01*
Y406950D01*
X401206D01*
Y407833D01*
X400911D01*
Y407539D01*
X400617D01*
Y410189D01*
X400911D01*
Y410778D01*
X401206D01*
Y410483D01*
X401500D01*
Y411367D01*
X401206D01*
Y411955D01*
X402089D01*
Y410778D01*
D02*
G37*
G36*
X336722Y410483D02*
X336428D01*
Y410778D01*
X336722D01*
Y410483D01*
D02*
G37*
G36*
X322295Y412250D02*
Y410483D01*
X322000D01*
Y412544D01*
X322295D01*
Y412250D01*
D02*
G37*
G36*
X483944Y411661D02*
X484533D01*
Y411367D01*
X484828D01*
Y410189D01*
X484533D01*
Y410778D01*
X484239D01*
Y411072D01*
X483944D01*
Y411661D01*
X483650D01*
Y412250D01*
X483944D01*
Y411661D01*
D02*
G37*
G36*
X485711Y409600D02*
Y409306D01*
X485417D01*
Y409600D01*
X485122D01*
Y410189D01*
X485711D01*
Y409600D01*
D02*
G37*
G36*
X322589Y409306D02*
X322295D01*
Y409894D01*
X322589D01*
Y409306D01*
D02*
G37*
G36*
X337017Y408422D02*
Y408128D01*
X336722D01*
Y409894D01*
X337017D01*
Y408422D01*
D02*
G37*
G36*
X486889D02*
X487183D01*
Y408128D01*
X487478D01*
Y407833D01*
Y407539D01*
X487772D01*
Y406950D01*
X487478D01*
Y407244D01*
X487183D01*
Y407539D01*
X486889D01*
Y407833D01*
X486595D01*
Y408717D01*
X486889D01*
Y408422D01*
D02*
G37*
G36*
X488950Y405772D02*
X488361D01*
Y406067D01*
X488950D01*
Y405772D01*
D02*
G37*
G36*
X422700D02*
X422111D01*
Y406067D01*
X422700D01*
Y405772D01*
D02*
G37*
G36*
X401794Y405478D02*
Y405183D01*
Y404889D01*
X401500D01*
Y406361D01*
X401794D01*
Y405478D01*
D02*
G37*
G36*
X422700Y404594D02*
X422406D01*
Y404889D01*
X422111D01*
Y405183D01*
X422700D01*
Y404594D01*
D02*
G37*
G36*
X336428Y404889D02*
X336133D01*
Y404594D01*
X335839D01*
Y404889D01*
Y405183D01*
Y405478D01*
X336133D01*
Y406361D01*
X336428D01*
Y404889D01*
D02*
G37*
G36*
X489539Y404594D02*
X489244D01*
Y404300D01*
X488950D01*
Y404889D01*
X489539D01*
Y404594D01*
D02*
G37*
G36*
X335544Y404300D02*
Y404006D01*
X334956D01*
Y404300D01*
X335250D01*
Y404594D01*
X335544D01*
Y404300D01*
D02*
G37*
G36*
X322883Y407539D02*
X323178D01*
Y406950D01*
X323472D01*
Y406067D01*
X323767D01*
Y405478D01*
X324061D01*
Y405183D01*
X324650D01*
Y404889D01*
Y404594D01*
Y404300D01*
X325239D01*
Y404006D01*
X325533D01*
Y403711D01*
X324944D01*
Y404006D01*
X324650D01*
Y404300D01*
X324356D01*
Y404594D01*
X324061D01*
Y405183D01*
X323472D01*
Y406067D01*
X323178D01*
Y406656D01*
X322883D01*
Y407244D01*
X322589D01*
Y408128D01*
X322883D01*
Y407539D01*
D02*
G37*
G36*
X402089Y403417D02*
X401794D01*
Y404300D01*
X402089D01*
Y403417D01*
D02*
G37*
G36*
X334956D02*
X334661D01*
Y403122D01*
X334367D01*
Y402828D01*
X333778D01*
Y403417D01*
X334367D01*
Y403711D01*
X334661D01*
Y404006D01*
X334956D01*
Y403417D01*
D02*
G37*
G36*
X333778Y402533D02*
X333189D01*
Y402828D01*
X333778D01*
Y402533D01*
D02*
G37*
G36*
X332895Y402239D02*
X332306D01*
Y402533D01*
X332895D01*
Y402239D01*
D02*
G37*
G36*
X326122Y403122D02*
X326417D01*
Y402828D01*
X327300D01*
Y402533D01*
X327594D01*
Y402239D01*
X326711D01*
Y402533D01*
X326417D01*
Y402828D01*
X325828D01*
Y403122D01*
X325533D01*
Y403417D01*
X326122D01*
Y403122D01*
D02*
G37*
G36*
X328772Y401944D02*
X331422D01*
Y401650D01*
X328183D01*
Y401944D01*
X327889D01*
Y402239D01*
X328772D01*
Y401944D01*
D02*
G37*
G36*
X333189Y401061D02*
X332306D01*
Y401650D01*
X332600D01*
Y401356D01*
X332895D01*
Y401944D01*
X333189D01*
Y401061D01*
D02*
G37*
G36*
X467161D02*
X467456D01*
Y400472D01*
X467161D01*
Y400767D01*
X466867D01*
Y401061D01*
Y401650D01*
X467161D01*
Y401061D01*
D02*
G37*
G36*
X402089Y400767D02*
X401794D01*
Y400472D01*
X401206D01*
Y401061D01*
X401500D01*
Y401650D01*
X401794D01*
Y402533D01*
X402089D01*
Y400767D01*
D02*
G37*
G36*
X332895Y399589D02*
X332600D01*
Y399883D01*
Y400178D01*
X332895D01*
Y399589D01*
D02*
G37*
G36*
X468045Y398706D02*
X467750D01*
Y399294D01*
X468045D01*
Y398706D01*
D02*
G37*
G36*
X401206Y399589D02*
X401500D01*
Y398411D01*
X401206D01*
Y397822D01*
X400911D01*
Y398706D01*
X401206D01*
Y399000D01*
X400617D01*
Y399883D01*
X400911D01*
Y400472D01*
X401206D01*
Y399589D01*
D02*
G37*
G36*
X490128Y403122D02*
X490422D01*
Y402828D01*
X491011D01*
Y402239D01*
X491306D01*
Y401650D01*
X491600D01*
Y401356D01*
X491894D01*
Y400767D01*
X492189D01*
Y399589D01*
X492483D01*
Y399294D01*
X493072D01*
Y399000D01*
X493367D01*
Y397822D01*
X493661D01*
Y397528D01*
X493956D01*
Y397233D01*
X493367D01*
Y397822D01*
X493072D01*
Y398411D01*
X492483D01*
Y399294D01*
X492189D01*
Y399589D01*
X491894D01*
Y400178D01*
X491600D01*
Y401061D01*
X491011D01*
Y401944D01*
X490717D01*
Y402239D01*
X490422D01*
Y402533D01*
X490128D01*
Y402828D01*
Y403122D01*
X489833D01*
Y403417D01*
X489539D01*
Y403711D01*
X489833D01*
Y404006D01*
X490128D01*
Y403122D01*
D02*
G37*
G36*
X453617Y396939D02*
X453322D01*
Y397822D01*
Y398117D01*
X453617D01*
Y396939D01*
D02*
G37*
G36*
X400617Y398706D02*
Y398411D01*
X400322D01*
Y397233D01*
X400617D01*
Y396350D01*
X400322D01*
Y397233D01*
X399733D01*
Y397528D01*
X400028D01*
Y398706D01*
X400322D01*
Y399000D01*
X400617D01*
Y398706D01*
D02*
G37*
G36*
X468633Y397528D02*
X468928D01*
Y396644D01*
X469222D01*
Y396350D01*
X469517D01*
Y395467D01*
X469222D01*
Y395761D01*
X468928D01*
Y396350D01*
X468633D01*
Y397233D01*
X468339D01*
Y397822D01*
X468633D01*
Y397528D01*
D02*
G37*
G36*
X470400Y394878D02*
X469811D01*
Y394583D01*
X469517D01*
Y395172D01*
X469811D01*
Y395467D01*
X470400D01*
Y394878D01*
D02*
G37*
G36*
X399733Y396350D02*
X400322D01*
Y396055D01*
X400028D01*
Y394583D01*
X399733D01*
Y395467D01*
X399439D01*
Y396644D01*
Y396939D01*
Y397233D01*
X399733D01*
Y396350D01*
D02*
G37*
G36*
X494544D02*
Y395467D01*
X494839D01*
Y395172D01*
X495133D01*
Y394878D01*
Y394583D01*
Y394289D01*
X495428D01*
Y393994D01*
X494839D01*
Y394583D01*
X494544D01*
Y395467D01*
X493956D01*
Y396644D01*
X494544D01*
Y396350D01*
D02*
G37*
G36*
X471283Y393994D02*
X470400D01*
Y394289D01*
X471283D01*
Y393994D01*
D02*
G37*
G36*
X495722Y393111D02*
X495428D01*
Y393405D01*
Y393700D01*
X495722D01*
Y393111D01*
D02*
G37*
G36*
X469811Y393994D02*
X470400D01*
Y393700D01*
Y393405D01*
X470106D01*
Y393111D01*
X469811D01*
Y393994D01*
X469517D01*
Y394289D01*
X469811D01*
Y393994D01*
D02*
G37*
G36*
X332895Y396644D02*
X332600D01*
Y396350D01*
X332895D01*
Y395467D01*
X332600D01*
Y394583D01*
X332895D01*
Y393700D01*
X333189D01*
Y393111D01*
X333483D01*
Y392817D01*
X332895D01*
Y392228D01*
X332600D01*
Y393111D01*
X332895D01*
Y393405D01*
X332600D01*
Y393700D01*
X332306D01*
Y398411D01*
X332600D01*
Y398706D01*
X332306D01*
Y399000D01*
X332600D01*
Y399294D01*
X332895D01*
Y396644D01*
D02*
G37*
G36*
X496311Y391933D02*
Y391639D01*
Y391050D01*
X496017D01*
Y391639D01*
X495722D01*
Y392228D01*
X496311D01*
Y391933D01*
D02*
G37*
G36*
X471872Y393405D02*
Y393111D01*
X472167D01*
Y392522D01*
X472461D01*
Y392228D01*
X472756D01*
Y391639D01*
X473050D01*
Y391050D01*
X472756D01*
Y391344D01*
X472461D01*
Y392228D01*
X471872D01*
Y392817D01*
X471578D01*
Y393700D01*
X471872D01*
Y393405D01*
D02*
G37*
G36*
X400617Y391050D02*
X400028D01*
Y391639D01*
X400322D01*
Y392228D01*
X400617D01*
Y391050D01*
D02*
G37*
G36*
X470400Y391639D02*
X470695D01*
Y391050D01*
X470989D01*
Y390461D01*
X470400D01*
Y391639D01*
X470106D01*
Y391933D01*
X470400D01*
Y391639D01*
D02*
G37*
G36*
X400911Y390167D02*
Y389872D01*
X400617D01*
Y390461D01*
X400911D01*
Y390167D01*
D02*
G37*
G36*
X333778Y391639D02*
X334072D01*
Y389872D01*
X333483D01*
Y391050D01*
X333189D01*
Y390756D01*
X332895D01*
Y391344D01*
X332600D01*
Y391639D01*
X332895D01*
Y391933D01*
X333778D01*
Y391639D01*
D02*
G37*
G36*
X400028Y389283D02*
X399733D01*
Y390461D01*
X400028D01*
Y389283D01*
D02*
G37*
G36*
X473639Y390756D02*
X473933D01*
Y390167D01*
X474228D01*
Y389578D01*
X474522D01*
Y389283D01*
X474817D01*
Y388989D01*
X474228D01*
Y389283D01*
X473933D01*
Y389872D01*
X473639D01*
Y390461D01*
X473344D01*
Y391050D01*
X473639D01*
Y390756D01*
D02*
G37*
G36*
X400911Y388694D02*
X400322D01*
Y388989D01*
X400617D01*
Y389283D01*
X400911D01*
Y388694D01*
D02*
G37*
G36*
X471283Y388400D02*
X471578D01*
Y387811D01*
X471283D01*
Y388106D01*
X470989D01*
Y388989D01*
X470695D01*
Y389283D01*
X470989D01*
Y389578D01*
X471283D01*
Y388400D01*
D02*
G37*
G36*
X475406Y388106D02*
X475700D01*
Y387811D01*
X475994D01*
Y387517D01*
X475406D01*
Y387811D01*
X475111D01*
Y388106D01*
X474817D01*
Y388400D01*
X475406D01*
Y388106D01*
D02*
G37*
G36*
X399733Y388989D02*
X400028D01*
Y387222D01*
X399439D01*
Y389283D01*
X399733D01*
Y388989D01*
D02*
G37*
G36*
X342611Y411072D02*
X343494D01*
Y410778D01*
X344378D01*
Y410483D01*
X344967D01*
Y410189D01*
X345556D01*
Y409894D01*
X346144D01*
Y409600D01*
X346439D01*
Y409306D01*
X347028D01*
Y409011D01*
X347617D01*
Y408717D01*
X348206D01*
Y408422D01*
X348795D01*
Y408128D01*
X349089D01*
Y407833D01*
X349678D01*
Y407539D01*
X349972D01*
Y407244D01*
X350561D01*
Y406950D01*
X351150D01*
Y406656D01*
X351739D01*
Y406361D01*
X352622D01*
Y406067D01*
X353211D01*
Y405772D01*
X353800D01*
Y405478D01*
X354389D01*
Y405183D01*
X355272D01*
Y404889D01*
X356156D01*
Y404594D01*
X357333D01*
Y404300D01*
X358217D01*
Y404006D01*
X359394D01*
Y403711D01*
X360572D01*
Y403417D01*
X362928D01*
Y403122D01*
X368522D01*
Y403417D01*
X370878D01*
Y403711D01*
X372350D01*
Y404006D01*
X373528D01*
Y404300D01*
X374706D01*
Y404594D01*
X376178D01*
Y404889D01*
X377061D01*
Y405183D01*
X377650D01*
Y405478D01*
X378533D01*
Y405772D01*
X379417D01*
Y406067D01*
X380006D01*
Y406361D01*
X380594D01*
Y406656D01*
X381478D01*
Y406950D01*
X382361D01*
Y407244D01*
X383244D01*
Y407539D01*
X384128D01*
Y407833D01*
X384422D01*
Y408128D01*
X385306D01*
Y408422D01*
X385895D01*
Y408717D01*
X386778D01*
Y409011D01*
X387661D01*
Y409306D01*
X388250D01*
Y409600D01*
X389133D01*
Y409894D01*
X392372D01*
Y409600D01*
X392961D01*
Y409306D01*
X393550D01*
Y409011D01*
X393844D01*
Y408717D01*
X394139D01*
Y408422D01*
X394433D01*
Y407833D01*
X394728D01*
Y404594D01*
X394433D01*
Y403417D01*
X394139D01*
Y402828D01*
X393844D01*
Y401944D01*
X393550D01*
Y401356D01*
X393256D01*
Y400767D01*
X392961D01*
Y400472D01*
X392667D01*
Y399883D01*
X392372D01*
Y399589D01*
X392078D01*
Y399294D01*
X391783D01*
Y398706D01*
X391489D01*
Y398411D01*
X391194D01*
Y398117D01*
X390900D01*
Y397822D01*
X390606D01*
Y397233D01*
X390311D01*
Y396939D01*
X390017D01*
Y396644D01*
X389722D01*
Y396350D01*
X389428D01*
Y396055D01*
X388839D01*
Y395761D01*
X388545D01*
Y395467D01*
X388250D01*
Y395172D01*
X387956D01*
Y394878D01*
X387661D01*
Y394583D01*
X387367D01*
Y394289D01*
X387072D01*
Y393994D01*
X386483D01*
Y393700D01*
X386189D01*
Y393405D01*
X385600D01*
Y393111D01*
X385306D01*
Y392817D01*
X384717D01*
Y392522D01*
X384422D01*
Y392228D01*
X383833D01*
Y391933D01*
X383244D01*
Y391639D01*
X382656D01*
Y391344D01*
X382361D01*
Y391050D01*
X381772D01*
Y390756D01*
X381183D01*
Y390461D01*
X380300D01*
Y390167D01*
X379711D01*
Y389872D01*
X378828D01*
Y389578D01*
X377944D01*
Y389283D01*
X377061D01*
Y388989D01*
X376472D01*
Y388694D01*
X375294D01*
Y388400D01*
X374411D01*
Y388106D01*
X373233D01*
Y387811D01*
X371467D01*
Y387517D01*
X369111D01*
Y387222D01*
X362633D01*
Y387517D01*
X360278D01*
Y387811D01*
X358806D01*
Y388106D01*
X357922D01*
Y388400D01*
X357039D01*
Y388694D01*
X356156D01*
Y388989D01*
X355567D01*
Y389283D01*
X354683D01*
Y389578D01*
X354094D01*
Y389872D01*
X353211D01*
Y390167D01*
X352622D01*
Y390461D01*
X352033D01*
Y390756D01*
X351739D01*
Y391050D01*
X351150D01*
Y391344D01*
X350856D01*
Y391639D01*
X349972D01*
Y391933D01*
X349678D01*
Y392228D01*
X349089D01*
Y392522D01*
X348795D01*
Y392817D01*
X348206D01*
Y393111D01*
X347911D01*
Y393405D01*
X347617D01*
Y393700D01*
X347322D01*
Y393994D01*
X346733D01*
Y394289D01*
X346439D01*
Y394583D01*
X346144D01*
Y394878D01*
X345556D01*
Y395172D01*
X345261D01*
Y395467D01*
X344967D01*
Y395761D01*
X344672D01*
Y396055D01*
X344378D01*
Y396350D01*
X344083D01*
Y396644D01*
X343789D01*
Y396939D01*
X343200D01*
Y397528D01*
X342906D01*
Y397822D01*
X342611D01*
Y398117D01*
X342317D01*
Y398411D01*
X342022D01*
Y398706D01*
X341728D01*
Y399000D01*
X341433D01*
Y399589D01*
X341139D01*
Y399883D01*
X340844D01*
Y400472D01*
X340550D01*
Y401061D01*
X340256D01*
Y401356D01*
X339961D01*
Y401944D01*
X339667D01*
Y402239D01*
X339372D01*
Y402828D01*
X339078D01*
Y403417D01*
X338783D01*
Y404300D01*
X338489D01*
Y405183D01*
X338194D01*
Y406656D01*
X337900D01*
Y408717D01*
X338194D01*
Y409600D01*
X338489D01*
Y410189D01*
X338783D01*
Y410483D01*
X339078D01*
Y410778D01*
X339372D01*
Y411072D01*
X340256D01*
Y411367D01*
X342611D01*
Y411072D01*
D02*
G37*
G36*
X496900Y390461D02*
X497195D01*
Y388694D01*
X497489D01*
Y386633D01*
X497195D01*
Y386928D01*
X496900D01*
Y389872D01*
X496606D01*
Y390756D01*
X496900D01*
Y390461D01*
D02*
G37*
G36*
X400028Y386633D02*
X399733D01*
Y386928D01*
X400028D01*
Y386633D01*
D02*
G37*
G36*
X334661Y388400D02*
X334956D01*
Y387222D01*
X335250D01*
Y386633D01*
X334956D01*
Y386339D01*
X334661D01*
Y386928D01*
X334367D01*
Y387222D01*
X334661D01*
Y388106D01*
X334072D01*
Y387811D01*
X333778D01*
Y387517D01*
X333483D01*
Y386928D01*
X333189D01*
Y386339D01*
X332895D01*
Y385750D01*
X332600D01*
Y384867D01*
X332306D01*
Y383983D01*
X332011D01*
Y383100D01*
X331717D01*
Y381628D01*
X331422D01*
Y378683D01*
X331128D01*
Y377505D01*
X331422D01*
Y377211D01*
X336722D01*
Y379272D01*
X337900D01*
Y378978D01*
X338194D01*
Y378389D01*
X337900D01*
Y376328D01*
X338194D01*
Y373383D01*
X351739D01*
Y373089D01*
X363811D01*
Y373383D01*
X364106D01*
Y373678D01*
X364400D01*
Y375150D01*
X364106D01*
Y375444D01*
X363811D01*
Y376033D01*
X363517D01*
Y376622D01*
X363222D01*
Y377505D01*
X362928D01*
Y377800D01*
X362633D01*
Y377505D01*
X362339D01*
Y377211D01*
X362044D01*
Y376622D01*
X361750D01*
Y376328D01*
X361456D01*
Y376033D01*
X361161D01*
Y375739D01*
X360867D01*
Y375150D01*
X360572D01*
Y374855D01*
X360278D01*
Y374561D01*
X359983D01*
Y374267D01*
X359689D01*
Y373972D01*
X358806D01*
Y374267D01*
X358217D01*
Y374561D01*
X357922D01*
Y374855D01*
X357628D01*
Y375150D01*
X357039D01*
Y375444D01*
X356450D01*
Y375739D01*
X356156D01*
Y376033D01*
X355567D01*
Y376328D01*
X355272D01*
Y376622D01*
X354978D01*
Y376917D01*
X354389D01*
Y377211D01*
X353800D01*
Y377505D01*
X353506D01*
Y377800D01*
X352917D01*
Y378094D01*
X352622D01*
Y378389D01*
X352033D01*
Y378683D01*
X351739D01*
Y378978D01*
X351445D01*
Y379272D01*
X351150D01*
Y379567D01*
X351445D01*
Y379861D01*
X352033D01*
Y379567D01*
X352622D01*
Y379272D01*
X352917D01*
Y378978D01*
X353506D01*
Y378683D01*
X353800D01*
Y378389D01*
X354094D01*
Y378094D01*
X354683D01*
Y377800D01*
X354978D01*
Y377505D01*
X355567D01*
Y377211D01*
X355861D01*
Y376917D01*
X356450D01*
Y376622D01*
X356744D01*
Y376328D01*
X357333D01*
Y376033D01*
X357628D01*
Y375739D01*
X357922D01*
Y375444D01*
X358217D01*
Y375150D01*
X359100D01*
Y374855D01*
X359394D01*
Y375150D01*
X359689D01*
Y375444D01*
X359983D01*
Y375739D01*
X360278D01*
Y376328D01*
X360572D01*
Y376622D01*
X360867D01*
Y376917D01*
X361161D01*
Y377505D01*
X361456D01*
Y377800D01*
X361750D01*
Y378389D01*
X362044D01*
Y378978D01*
X364989D01*
Y379272D01*
X367050D01*
Y379861D01*
X366756D01*
Y380156D01*
X369700D01*
Y379861D01*
X369995D01*
Y379272D01*
X369406D01*
Y379567D01*
X368522D01*
Y379272D01*
X368817D01*
Y378978D01*
X369700D01*
Y378094D01*
X369995D01*
Y377505D01*
X370289D01*
Y377211D01*
X370583D01*
Y376917D01*
X370878D01*
Y376622D01*
X371172D01*
Y376033D01*
X371467D01*
Y375739D01*
X371761D01*
Y375444D01*
X372056D01*
Y375150D01*
X372350D01*
Y374855D01*
X372644D01*
Y374561D01*
X372939D01*
Y374855D01*
X373528D01*
Y375150D01*
X374117D01*
Y375444D01*
X374706D01*
Y375739D01*
X375000D01*
Y376033D01*
X375294D01*
Y376328D01*
X375883D01*
Y376622D01*
X376178D01*
Y376917D01*
X376767D01*
Y377211D01*
X377061D01*
Y377505D01*
X377650D01*
Y377800D01*
X377944D01*
Y378094D01*
X378239D01*
Y378389D01*
X378828D01*
Y378683D01*
X379122D01*
Y378978D01*
X379417D01*
Y379567D01*
X379711D01*
Y379861D01*
X380300D01*
Y379567D01*
X380594D01*
Y378978D01*
X380300D01*
Y378683D01*
X380006D01*
Y378389D01*
X379711D01*
Y378094D01*
X379417D01*
Y377800D01*
X378828D01*
Y377505D01*
X378239D01*
Y377211D01*
X377944D01*
Y376917D01*
X377356D01*
Y376622D01*
X377061D01*
Y376328D01*
X376767D01*
Y376033D01*
X376178D01*
Y375739D01*
X375883D01*
Y375444D01*
X375294D01*
Y375150D01*
X375000D01*
Y374855D01*
X374706D01*
Y374561D01*
X374117D01*
Y374267D01*
X373822D01*
Y373972D01*
X373233D01*
Y373678D01*
X372350D01*
Y373972D01*
X371761D01*
Y374561D01*
X371467D01*
Y374855D01*
X371172D01*
Y375150D01*
X370878D01*
Y375444D01*
X370583D01*
Y375739D01*
X370289D01*
Y376328D01*
X369995D01*
Y376622D01*
X369700D01*
Y376917D01*
X369406D01*
Y377211D01*
X369111D01*
Y377505D01*
X368817D01*
Y376917D01*
X368522D01*
Y375739D01*
X368228D01*
Y375150D01*
X367933D01*
Y373678D01*
X368228D01*
Y373383D01*
X369111D01*
Y373089D01*
X388545D01*
Y372794D01*
X395611D01*
Y373089D01*
X395906D01*
Y378978D01*
X396200D01*
Y379272D01*
X396789D01*
Y379861D01*
X397378D01*
Y379567D01*
X397083D01*
Y378978D01*
X397378D01*
Y378094D01*
X397672D01*
Y377800D01*
X398261D01*
Y377505D01*
X398850D01*
Y377211D01*
X399439D01*
Y376917D01*
X400028D01*
Y376622D01*
X400617D01*
Y376328D01*
X401206D01*
Y376033D01*
X401794D01*
Y375739D01*
X402383D01*
Y375444D01*
X402972D01*
Y375150D01*
X403856D01*
Y374855D01*
X404445D01*
Y374561D01*
X405033D01*
Y374267D01*
X405917D01*
Y373972D01*
X406506D01*
Y373678D01*
X407094D01*
Y373383D01*
X408272D01*
Y373089D01*
X408861D01*
Y372794D01*
X409744D01*
Y372500D01*
X410628D01*
Y372206D01*
X411217D01*
Y371911D01*
X412394D01*
Y371617D01*
X412983D01*
Y371322D01*
X414161D01*
Y371028D01*
X415633D01*
Y370733D01*
X417106D01*
Y370439D01*
X418872D01*
Y370144D01*
X420933D01*
Y369850D01*
X422994D01*
Y369556D01*
X426233D01*
Y369261D01*
X436539D01*
Y369556D01*
X440367D01*
Y369850D01*
X443017D01*
Y370144D01*
X445078D01*
Y370439D01*
X447139D01*
Y370733D01*
X448906D01*
Y371028D01*
X450967D01*
Y371322D01*
X452439D01*
Y371617D01*
X453911D01*
Y371911D01*
X455089D01*
Y372206D01*
X456267D01*
Y372500D01*
X457739D01*
Y372794D01*
X458622D01*
Y373089D01*
X459800D01*
Y373383D01*
X460978D01*
Y373678D01*
X461861D01*
Y373972D01*
X463039D01*
Y374267D01*
X463628D01*
Y374561D01*
X464511D01*
Y374855D01*
X465394D01*
Y375150D01*
X466572D01*
Y375444D01*
X467161D01*
Y375739D01*
X468045D01*
Y376033D01*
X468928D01*
Y376328D01*
X469811D01*
Y376622D01*
X470400D01*
Y376917D01*
X470989D01*
Y378683D01*
X470106D01*
Y378389D01*
X469517D01*
Y378094D01*
X468633D01*
Y377800D01*
X468045D01*
Y377505D01*
X466867D01*
Y377211D01*
X465983D01*
Y376917D01*
X465394D01*
Y376622D01*
X464511D01*
Y376328D01*
X463628D01*
Y376033D01*
X462450D01*
Y375739D01*
X461861D01*
Y375444D01*
X460978D01*
Y375150D01*
X459800D01*
Y374855D01*
X458622D01*
Y374561D01*
X457739D01*
Y374267D01*
X456561D01*
Y373972D01*
X455678D01*
Y373678D01*
X454500D01*
Y373383D01*
X453028D01*
Y373089D01*
X451850D01*
Y372794D01*
X450083D01*
Y372500D01*
X448611D01*
Y372206D01*
X447139D01*
Y371911D01*
X445078D01*
Y371617D01*
X443606D01*
Y371322D01*
X441250D01*
Y371028D01*
X438011D01*
Y370733D01*
X424172D01*
Y371028D01*
X421817D01*
Y371322D01*
X419461D01*
Y371617D01*
X418283D01*
Y371911D01*
X416811D01*
Y372206D01*
X415633D01*
Y372500D01*
X414456D01*
Y372794D01*
X412983D01*
Y373089D01*
X412100D01*
Y373383D01*
X411217D01*
Y373678D01*
X410039D01*
Y373972D01*
X409450D01*
Y374267D01*
X408567D01*
Y374561D01*
X407978D01*
Y374855D01*
X406800D01*
Y375150D01*
X406211D01*
Y375444D01*
X405328D01*
Y375739D01*
X404739D01*
Y376033D01*
X404150D01*
Y376328D01*
X403561D01*
Y376622D01*
X402678D01*
Y376917D01*
X402089D01*
Y377211D01*
X401500D01*
Y377505D01*
X400617D01*
Y377800D01*
X400322D01*
Y378094D01*
X399733D01*
Y378389D01*
X399145D01*
Y378683D01*
X398556D01*
Y378978D01*
X398261D01*
Y379272D01*
X397967D01*
Y379567D01*
X398261D01*
Y379861D01*
X397378D01*
Y380156D01*
X398261D01*
Y379861D01*
X399145D01*
Y379567D01*
X399439D01*
Y379272D01*
X400028D01*
Y378978D01*
X400617D01*
Y378683D01*
X401206D01*
Y378389D01*
X402089D01*
Y378094D01*
X402678D01*
Y377800D01*
X403267D01*
Y377505D01*
X404150D01*
Y377211D01*
X404739D01*
Y376917D01*
X405328D01*
Y376622D01*
X406211D01*
Y376328D01*
X407094D01*
Y376033D01*
X407683D01*
Y375739D01*
X408567D01*
Y375444D01*
X409450D01*
Y375150D01*
X410628D01*
Y374855D01*
X411511D01*
Y374561D01*
X412394D01*
Y374267D01*
X413278D01*
Y373972D01*
X414456D01*
Y373678D01*
X415339D01*
Y373383D01*
X417106D01*
Y373089D01*
X418872D01*
Y372794D01*
X420639D01*
Y372500D01*
X422700D01*
Y372206D01*
X426233D01*
Y371911D01*
X433595D01*
Y372206D01*
X437422D01*
Y372500D01*
X440661D01*
Y372794D01*
X443017D01*
Y373089D01*
X445372D01*
Y373383D01*
X447433D01*
Y373678D01*
X449200D01*
Y373972D01*
X450672D01*
Y374267D01*
X451850D01*
Y374561D01*
X453028D01*
Y374855D01*
X454500D01*
Y375150D01*
X455972D01*
Y375444D01*
X457150D01*
Y375739D01*
X458328D01*
Y376033D01*
X459211D01*
Y376328D01*
X460094D01*
Y376622D01*
X461272D01*
Y376917D01*
X461861D01*
Y377211D01*
X463039D01*
Y377505D01*
X464217D01*
Y377800D01*
X465100D01*
Y378094D01*
X465983D01*
Y378389D01*
X466867D01*
Y378683D01*
X467456D01*
Y378978D01*
X468339D01*
Y379272D01*
X469222D01*
Y379567D01*
X470106D01*
Y379861D01*
X470695D01*
Y380156D01*
X470989D01*
Y380450D01*
X471578D01*
Y380744D01*
X472167D01*
Y380156D01*
X472461D01*
Y379272D01*
X472756D01*
Y377505D01*
X473050D01*
Y375150D01*
X473344D01*
Y372500D01*
X473639D01*
Y369556D01*
X473344D01*
Y367494D01*
X473050D01*
Y365728D01*
X472756D01*
Y364550D01*
X472461D01*
Y363372D01*
X472167D01*
Y361900D01*
X471872D01*
Y360722D01*
X471578D01*
Y360133D01*
X471283D01*
Y358955D01*
X470989D01*
Y358072D01*
X470695D01*
Y356600D01*
X470400D01*
Y354833D01*
X470106D01*
Y352183D01*
X469811D01*
Y346000D01*
X469517D01*
Y344528D01*
X469222D01*
Y344233D01*
X468928D01*
Y343939D01*
X468339D01*
Y343644D01*
X467750D01*
Y343350D01*
X466572D01*
Y343055D01*
X465689D01*
Y342761D01*
X465394D01*
Y342467D01*
X464806D01*
Y341878D01*
X462156D01*
Y341583D01*
X460978D01*
Y341289D01*
X457739D01*
Y340994D01*
X450672D01*
Y341289D01*
X447433D01*
Y341583D01*
X446256D01*
Y341878D01*
X445078D01*
Y342172D01*
X443900D01*
Y342467D01*
X442722D01*
Y340700D01*
X443017D01*
Y338050D01*
X442722D01*
Y339228D01*
X442428D01*
Y342467D01*
X442133D01*
Y343055D01*
X441839D01*
Y343350D01*
X440661D01*
Y343644D01*
X440367D01*
Y343939D01*
X439778D01*
Y344233D01*
X439483D01*
Y344528D01*
X439189D01*
Y344822D01*
X438894D01*
Y346294D01*
X438600D01*
Y348061D01*
X438306D01*
Y348650D01*
X435361D01*
Y348355D01*
X431239D01*
Y348650D01*
X428294D01*
Y348944D01*
X426233D01*
Y346883D01*
X425939D01*
Y345706D01*
X425644D01*
Y345411D01*
X425350D01*
Y345117D01*
X425056D01*
Y344822D01*
X424761D01*
Y344528D01*
X424172D01*
Y344233D01*
X423583D01*
Y343939D01*
X423289D01*
Y343644D01*
X422994D01*
Y343350D01*
X422700D01*
Y342467D01*
X422406D01*
Y343350D01*
X420933D01*
Y343055D01*
X419756D01*
Y342761D01*
X418283D01*
Y342467D01*
X416222D01*
Y342172D01*
X412394D01*
Y342467D01*
X409744D01*
Y342761D01*
X407978D01*
Y343055D01*
X406211D01*
Y343350D01*
X404445D01*
Y343644D01*
X403267D01*
Y343939D01*
X402383D01*
Y344233D01*
X401500D01*
Y344528D01*
X400028D01*
Y344822D01*
X399733D01*
Y345117D01*
X399439D01*
Y345411D01*
X398850D01*
Y345706D01*
X397967D01*
Y346000D01*
X397672D01*
Y346294D01*
X397083D01*
Y346589D01*
X396494D01*
Y346883D01*
X396200D01*
Y347178D01*
X395906D01*
Y347767D01*
X395611D01*
Y348355D01*
X395317D01*
Y349533D01*
X395022D01*
Y350417D01*
X394728D01*
Y351594D01*
X394433D01*
Y353950D01*
X394139D01*
Y356600D01*
X393844D01*
Y359839D01*
X388545D01*
Y359544D01*
X388250D01*
Y358955D01*
X388545D01*
Y358072D01*
X388839D01*
Y356306D01*
X388545D01*
Y356011D01*
X387956D01*
Y355717D01*
X387367D01*
Y355422D01*
X386483D01*
Y355128D01*
X385306D01*
Y354833D01*
X384128D01*
Y354244D01*
X383833D01*
Y352478D01*
X383539D01*
Y349239D01*
X383244D01*
Y338050D01*
X383539D01*
Y337461D01*
X383833D01*
Y337167D01*
X384422D01*
Y336872D01*
X384717D01*
Y336578D01*
X385011D01*
Y335989D01*
X385306D01*
Y335694D01*
X385600D01*
Y335400D01*
X385895D01*
Y335694D01*
X386483D01*
Y335989D01*
X387956D01*
Y336283D01*
X388545D01*
Y335989D01*
X389428D01*
Y335694D01*
X390017D01*
Y335400D01*
X390606D01*
Y335106D01*
X390900D01*
Y334811D01*
X391194D01*
Y334517D01*
X391489D01*
Y334222D01*
X391783D01*
Y333633D01*
X392078D01*
Y332750D01*
X392372D01*
Y329511D01*
X392078D01*
Y328628D01*
X391783D01*
Y328039D01*
X391489D01*
Y327744D01*
X391194D01*
Y327450D01*
X390900D01*
Y327156D01*
X390606D01*
Y326861D01*
X390311D01*
Y326567D01*
X389722D01*
Y326272D01*
X389428D01*
Y325978D01*
X388250D01*
Y325683D01*
X385306D01*
Y325978D01*
X384717D01*
Y326272D01*
X384128D01*
Y326567D01*
X383539D01*
Y326861D01*
X383244D01*
Y327156D01*
X382950D01*
Y327744D01*
X382656D01*
Y328039D01*
X381478D01*
Y327744D01*
X381183D01*
Y328039D01*
X379711D01*
Y328333D01*
X378533D01*
Y328628D01*
X377061D01*
Y328922D01*
X376472D01*
Y329217D01*
X376178D01*
Y330100D01*
X376472D01*
Y332455D01*
X376178D01*
Y333339D01*
X375883D01*
Y335106D01*
X376178D01*
Y335989D01*
X376472D01*
Y336578D01*
X376767D01*
Y336872D01*
X377061D01*
Y337167D01*
X377356D01*
Y337461D01*
X377650D01*
Y337756D01*
X377944D01*
Y338050D01*
X378533D01*
Y338344D01*
X378828D01*
Y342172D01*
X379122D01*
Y351594D01*
X378828D01*
Y354833D01*
X378239D01*
Y355128D01*
X376767D01*
Y355422D01*
X376178D01*
Y355717D01*
X375294D01*
Y356011D01*
X375000D01*
Y356306D01*
X374706D01*
Y358955D01*
X375000D01*
Y359544D01*
X374706D01*
Y359839D01*
X365283D01*
Y360133D01*
X360278D01*
Y359839D01*
X359983D01*
Y359250D01*
X360278D01*
Y357778D01*
X360572D01*
Y356894D01*
X360278D01*
Y356306D01*
X359983D01*
Y356011D01*
X359394D01*
Y355717D01*
X358511D01*
Y355422D01*
X357628D01*
Y355128D01*
X356744D01*
Y354833D01*
X356450D01*
Y338050D01*
X356744D01*
Y337461D01*
X357333D01*
Y337167D01*
X357628D01*
Y336872D01*
X357922D01*
Y336283D01*
X358217D01*
Y335400D01*
X358511D01*
Y333633D01*
X358217D01*
Y331572D01*
X358511D01*
Y330689D01*
X358806D01*
Y330394D01*
X358511D01*
Y330100D01*
X358217D01*
Y329805D01*
X357628D01*
Y329511D01*
X357039D01*
Y329217D01*
X356450D01*
Y328922D01*
X355567D01*
Y328628D01*
X353211D01*
Y328922D01*
X351739D01*
Y328333D01*
X351445D01*
Y328039D01*
X351150D01*
Y327450D01*
X350561D01*
Y327156D01*
X350267D01*
Y326861D01*
X349972D01*
Y326567D01*
X349383D01*
Y326272D01*
X348500D01*
Y325978D01*
X346144D01*
Y326272D01*
X345261D01*
Y326567D01*
X344672D01*
Y326861D01*
X344378D01*
Y327156D01*
X344083D01*
Y327450D01*
X343789D01*
Y327744D01*
X343494D01*
Y328333D01*
X343200D01*
Y328922D01*
X342906D01*
Y329805D01*
X342611D01*
Y331278D01*
X342317D01*
Y332750D01*
X342611D01*
Y333928D01*
X342906D01*
Y334811D01*
X343200D01*
Y335400D01*
X343494D01*
Y335694D01*
X343789D01*
Y335989D01*
X344083D01*
Y336283D01*
X344378D01*
Y336578D01*
X345261D01*
Y336872D01*
X347911D01*
Y336578D01*
X348500D01*
Y336283D01*
X348795D01*
Y335989D01*
X349089D01*
Y335694D01*
X349383D01*
Y335400D01*
X349972D01*
Y335989D01*
X350267D01*
Y336578D01*
X350561D01*
Y336872D01*
X350856D01*
Y337167D01*
X351150D01*
Y337461D01*
X351445D01*
Y338933D01*
X351739D01*
Y354833D01*
X351150D01*
Y355128D01*
X349383D01*
Y355422D01*
X348206D01*
Y355717D01*
X347617D01*
Y356011D01*
X347028D01*
Y356306D01*
X346439D01*
Y356600D01*
X346144D01*
Y359250D01*
X346439D01*
Y360133D01*
X340256D01*
Y359544D01*
X340550D01*
Y358367D01*
X340256D01*
Y357778D01*
X339961D01*
Y356894D01*
X339667D01*
Y356306D01*
X339372D01*
Y353361D01*
X339667D01*
Y352478D01*
X339961D01*
Y351594D01*
X340256D01*
Y350711D01*
X340550D01*
Y350417D01*
X340256D01*
Y349239D01*
X339961D01*
Y348650D01*
X339667D01*
Y348355D01*
X339078D01*
Y348061D01*
X338489D01*
Y347767D01*
X337900D01*
Y347472D01*
X336428D01*
Y347767D01*
X333483D01*
Y348061D01*
X333189D01*
Y348355D01*
X332895D01*
Y348650D01*
X332600D01*
Y348944D01*
X332306D01*
Y349533D01*
X332011D01*
Y350122D01*
X331717D01*
Y351006D01*
X331422D01*
Y352183D01*
X331128D01*
Y355128D01*
X330833D01*
Y356600D01*
X331128D01*
Y358072D01*
X331422D01*
Y358661D01*
X331717D01*
Y359250D01*
X332011D01*
Y360133D01*
X332306D01*
Y360722D01*
X332600D01*
Y361017D01*
X332895D01*
Y361606D01*
X333189D01*
Y362194D01*
X333483D01*
Y362489D01*
X333778D01*
Y363078D01*
X334072D01*
Y365728D01*
X333778D01*
Y370439D01*
X333483D01*
Y375444D01*
X333189D01*
Y375739D01*
X330833D01*
Y376033D01*
X330244D01*
Y381333D01*
X330539D01*
Y382805D01*
X330833D01*
Y383689D01*
X331128D01*
Y384572D01*
X331422D01*
Y385456D01*
X331717D01*
Y386044D01*
X332011D01*
Y386633D01*
X332306D01*
Y387222D01*
X332600D01*
Y387811D01*
X332895D01*
Y388106D01*
X333189D01*
Y388400D01*
X333483D01*
Y388694D01*
X333778D01*
Y388989D01*
X334072D01*
Y389283D01*
X334661D01*
Y388400D01*
D02*
G37*
G36*
X476289Y386633D02*
X476583D01*
Y386044D01*
X476289D01*
Y386339D01*
X475994D01*
Y386633D01*
Y386928D01*
X476289D01*
Y386633D01*
D02*
G37*
G36*
X498078Y386928D02*
Y386633D01*
Y385750D01*
X497783D01*
Y387222D01*
X498078D01*
Y386928D01*
D02*
G37*
G36*
X477467Y385750D02*
X477761D01*
Y385456D01*
X477467D01*
Y385161D01*
X476878D01*
Y386044D01*
X477467D01*
Y385750D01*
D02*
G37*
G36*
X478350Y384572D02*
X477467D01*
Y384867D01*
X478350D01*
Y384572D01*
D02*
G37*
G36*
Y383983D02*
X478644D01*
Y383394D01*
X478056D01*
Y384278D01*
X478350D01*
Y383983D01*
D02*
G37*
G36*
X498372Y384867D02*
X498667D01*
Y384572D01*
X498372D01*
Y384278D01*
X498667D01*
Y382805D01*
X498961D01*
Y382511D01*
Y382217D01*
X498667D01*
Y382805D01*
X498372D01*
Y383689D01*
X498078D01*
Y383983D01*
Y384278D01*
Y385456D01*
X498372D01*
Y384867D01*
D02*
G37*
G36*
X489244Y382217D02*
X488950D01*
Y382511D01*
Y382805D01*
X489244D01*
Y382217D01*
D02*
G37*
G36*
X479528Y382805D02*
X479822D01*
Y382217D01*
X480117D01*
Y381922D01*
X479822D01*
Y381628D01*
X479528D01*
Y382217D01*
X479233D01*
Y382511D01*
X478939D01*
Y382805D01*
X478644D01*
Y383100D01*
X479528D01*
Y382805D01*
D02*
G37*
G36*
X471578Y386928D02*
X471872D01*
Y382217D01*
Y381922D01*
Y381333D01*
X471578D01*
Y386928D01*
X471283D01*
Y387222D01*
X471578D01*
Y386928D01*
D02*
G37*
G36*
X400617Y381922D02*
X400322D01*
Y381628D01*
X400028D01*
Y381333D01*
X399733D01*
Y381039D01*
X399439D01*
Y381628D01*
X399733D01*
Y382217D01*
X400028D01*
Y382511D01*
X400322D01*
Y383100D01*
Y383394D01*
Y384572D01*
X400617D01*
Y381922D01*
D02*
G37*
G36*
X498667D02*
X498961D01*
Y380744D01*
X498667D01*
Y381333D01*
X498372D01*
Y382217D01*
X498667D01*
Y381922D01*
D02*
G37*
G36*
X399439Y380744D02*
X399145D01*
Y381039D01*
X399439D01*
Y380744D01*
D02*
G37*
G36*
X480706Y380450D02*
X480411D01*
Y380744D01*
X480117D01*
Y381039D01*
X480706D01*
Y380450D01*
D02*
G37*
G36*
X399145D02*
X398850D01*
Y380744D01*
X399145D01*
Y380450D01*
D02*
G37*
G36*
X481883Y379861D02*
X481589D01*
Y380156D01*
X481883D01*
Y379861D01*
D02*
G37*
G36*
X382656D02*
X382361D01*
Y380156D01*
X382656D01*
Y379861D01*
D02*
G37*
G36*
X342906D02*
X342022D01*
Y380156D01*
X342317D01*
Y380450D01*
X342906D01*
Y379861D01*
D02*
G37*
G36*
X339961D02*
X339667D01*
Y380156D01*
X339961D01*
Y379861D01*
D02*
G37*
G36*
X481589Y379567D02*
X481000D01*
Y379861D01*
X481589D01*
Y379567D01*
D02*
G37*
G36*
X396200D02*
X395611D01*
Y379861D01*
X396200D01*
Y379567D01*
D02*
G37*
G36*
X395022Y380156D02*
X394139D01*
Y379567D01*
X392667D01*
Y379861D01*
X392078D01*
Y380156D01*
X392372D01*
Y380450D01*
X395022D01*
Y380156D01*
D02*
G37*
G36*
X391783Y379861D02*
X389722D01*
Y379567D01*
X389428D01*
Y379861D01*
X389133D01*
Y380156D01*
X391783D01*
Y379861D01*
D02*
G37*
G36*
X380889Y380156D02*
X381478D01*
Y379861D01*
X381183D01*
Y379567D01*
X380889D01*
Y379861D01*
X380594D01*
Y380156D01*
X379417D01*
Y380450D01*
X380889D01*
Y380156D01*
D02*
G37*
G36*
X379122Y379861D02*
X377650D01*
Y379567D01*
X377061D01*
Y379861D01*
X377356D01*
Y380156D01*
X379122D01*
Y379861D01*
D02*
G37*
G36*
X366461Y379567D02*
X366167D01*
Y379861D01*
X366461D01*
Y379567D01*
D02*
G37*
G36*
X364989D02*
X364106D01*
Y379861D01*
X364989D01*
Y379567D01*
D02*
G37*
G36*
X363517D02*
X362928D01*
Y379861D01*
X363517D01*
Y379567D01*
D02*
G37*
G36*
X344083D02*
X343494D01*
Y379861D01*
X344083D01*
Y379567D01*
D02*
G37*
G36*
X334661Y386044D02*
X334956D01*
Y384572D01*
X334661D01*
Y382217D01*
X334956D01*
Y381039D01*
X335839D01*
Y380744D01*
X336133D01*
Y380156D01*
X337017D01*
Y379567D01*
X336133D01*
Y380156D01*
X335250D01*
Y380450D01*
X334956D01*
Y381039D01*
X334661D01*
Y381628D01*
X334367D01*
Y383394D01*
Y383689D01*
Y386339D01*
X334661D01*
Y386044D01*
D02*
G37*
G36*
X389133Y379567D02*
X388839D01*
Y379272D01*
X387956D01*
Y378978D01*
X386778D01*
Y378683D01*
X385306D01*
Y378978D01*
X383539D01*
Y379272D01*
X381772D01*
Y379567D01*
X383833D01*
Y379272D01*
X386778D01*
Y379567D01*
X388545D01*
Y379861D01*
X389133D01*
Y379567D01*
D02*
G37*
G36*
X377061Y379272D02*
X375883D01*
Y379567D01*
X377061D01*
Y379272D01*
D02*
G37*
G36*
X344967Y380450D02*
X346144D01*
Y380156D01*
X348206D01*
Y379861D01*
X349678D01*
Y380156D01*
X349972D01*
Y380450D01*
X350856D01*
Y380156D01*
X350561D01*
Y379861D01*
X349972D01*
Y379272D01*
X347617D01*
Y379567D01*
X346439D01*
Y379861D01*
X344967D01*
Y380156D01*
X344672D01*
Y379861D01*
X344083D01*
Y380450D01*
X344672D01*
Y380744D01*
X344967D01*
Y380450D01*
D02*
G37*
G36*
X341139Y379567D02*
X342317D01*
Y379272D01*
X340844D01*
Y379567D01*
X340550D01*
Y380156D01*
X341139D01*
Y379567D01*
D02*
G37*
G36*
X375294Y378978D02*
X374411D01*
Y379272D01*
X374706D01*
Y379567D01*
X375294D01*
Y378978D01*
D02*
G37*
G36*
X356450Y380450D02*
X357039D01*
Y380156D01*
X357922D01*
Y379567D01*
X358511D01*
Y379861D01*
X359100D01*
Y379567D01*
X359983D01*
Y379272D01*
X360278D01*
Y378978D01*
X358806D01*
Y379272D01*
X357922D01*
Y379567D01*
X357039D01*
Y379861D01*
X356156D01*
Y380156D01*
X354978D01*
Y380450D01*
X352917D01*
Y380156D01*
X351445D01*
Y380450D01*
X352033D01*
Y380744D01*
X356450D01*
Y380450D01*
D02*
G37*
G36*
X339078Y379272D02*
X339372D01*
Y378978D01*
X338489D01*
Y379272D01*
X338783D01*
Y379567D01*
X339078D01*
Y379272D01*
D02*
G37*
G36*
X373233D02*
X374117D01*
Y378683D01*
X372939D01*
Y378978D01*
X370583D01*
Y379567D01*
X373233D01*
Y379272D01*
D02*
G37*
G36*
X370583Y378683D02*
X370289D01*
Y378978D01*
X370583D01*
Y378683D01*
D02*
G37*
G36*
X361161Y379567D02*
X361750D01*
Y379272D01*
Y378978D01*
X361456D01*
Y378683D01*
X360572D01*
Y378978D01*
X360867D01*
Y379861D01*
X361161D01*
Y379567D01*
D02*
G37*
G36*
X481883Y378978D02*
X482178D01*
Y378389D01*
X481883D01*
Y378683D01*
X481589D01*
Y379272D01*
X481883D01*
Y378978D01*
D02*
G37*
G36*
X430061Y380156D02*
X430356D01*
Y379861D01*
X430945D01*
Y379567D01*
X431828D01*
Y379272D01*
X432122D01*
Y379567D01*
X432711D01*
Y379861D01*
X433595D01*
Y378978D01*
X433300D01*
Y378683D01*
X432711D01*
Y378389D01*
X432122D01*
Y378094D01*
X430945D01*
Y378389D01*
X430356D01*
Y378683D01*
X429767D01*
Y379272D01*
X429472D01*
Y379567D01*
X429178D01*
Y380450D01*
X430061D01*
Y380156D01*
D02*
G37*
G36*
X498961Y376622D02*
X498667D01*
Y377505D01*
X498372D01*
Y378094D01*
X498667D01*
Y378978D01*
X498372D01*
Y379861D01*
X498961D01*
Y376622D01*
D02*
G37*
G36*
X483650D02*
X483356D01*
Y377211D01*
X483061D01*
Y377505D01*
X483650D01*
Y376622D01*
D02*
G37*
G36*
X484239Y376328D02*
X484533D01*
Y375739D01*
X484239D01*
Y376033D01*
X483944D01*
Y376622D01*
X484239D01*
Y376328D01*
D02*
G37*
G36*
X428294Y378389D02*
X428589D01*
Y378094D01*
X428883D01*
Y377800D01*
X429178D01*
Y377505D01*
X429472D01*
Y377211D01*
X430061D01*
Y376917D01*
X430356D01*
Y376622D01*
X432711D01*
Y376917D01*
X433006D01*
Y377211D01*
X433595D01*
Y377505D01*
X434183D01*
Y377800D01*
X434478D01*
Y377505D01*
X434772D01*
Y376622D01*
X434478D01*
Y376328D01*
X434183D01*
Y376033D01*
X433889D01*
Y375739D01*
X433595D01*
Y375444D01*
X433006D01*
Y375150D01*
X432417D01*
Y374855D01*
X430356D01*
Y375150D01*
X429472D01*
Y375444D01*
X429178D01*
Y375739D01*
X428883D01*
Y376033D01*
X428589D01*
Y376328D01*
X428294D01*
Y376622D01*
X428000D01*
Y377211D01*
X427706D01*
Y378683D01*
X428294D01*
Y378389D01*
D02*
G37*
G36*
X498667Y374561D02*
X498372D01*
Y374267D01*
X498078D01*
Y374855D01*
X498372D01*
Y376622D01*
X498667D01*
Y374561D01*
D02*
G37*
G36*
X485711Y374855D02*
X486006D01*
Y374561D01*
X486300D01*
Y374267D01*
X486595D01*
Y373972D01*
X486889D01*
Y373678D01*
X487183D01*
Y373383D01*
X486595D01*
Y373678D01*
X486300D01*
Y373972D01*
X486006D01*
Y374267D01*
X485711D01*
Y374561D01*
X485417D01*
Y374855D01*
X485122D01*
Y375150D01*
X485711D01*
Y374855D01*
D02*
G37*
G36*
X498078Y373089D02*
X497783D01*
Y373972D01*
X498078D01*
Y373089D01*
D02*
G37*
G36*
X497783Y372206D02*
X497489D01*
Y371911D01*
X497195D01*
Y372794D01*
X497489D01*
Y373089D01*
X497783D01*
Y372206D01*
D02*
G37*
G36*
X488067Y372500D02*
X488361D01*
Y372206D01*
X488656D01*
Y371617D01*
X488361D01*
Y371911D01*
X488067D01*
Y372206D01*
X487772D01*
Y372500D01*
X487478D01*
Y372794D01*
X488067D01*
Y372500D01*
D02*
G37*
G36*
X497195Y371322D02*
X496900D01*
Y371028D01*
X496606D01*
Y371617D01*
X496900D01*
Y371911D01*
X497195D01*
Y371322D01*
D02*
G37*
G36*
X496311Y370439D02*
X496017D01*
Y370144D01*
X495722D01*
Y370733D01*
X496017D01*
Y371028D01*
X496311D01*
Y370439D01*
D02*
G37*
G36*
X489833Y371028D02*
X490128D01*
Y370733D01*
X491011D01*
Y370439D01*
X491600D01*
Y370144D01*
X491894D01*
Y369850D01*
X494839D01*
Y370144D01*
X495428D01*
Y369556D01*
X494544D01*
Y369261D01*
X493956D01*
Y369556D01*
X493661D01*
Y369261D01*
X492778D01*
Y369556D01*
X491600D01*
Y369850D01*
X491306D01*
Y370144D01*
X490717D01*
Y370439D01*
X489833D01*
Y371028D01*
X489244D01*
Y371322D01*
X489833D01*
Y371028D01*
D02*
G37*
G36*
X400322Y343939D02*
X400617D01*
Y343350D01*
X400322D01*
Y343644D01*
X400028D01*
Y344233D01*
X400322D01*
Y343939D01*
D02*
G37*
G36*
X422406Y341583D02*
Y341289D01*
X422111D01*
Y340994D01*
X421817D01*
Y341583D01*
X422111D01*
Y341878D01*
X422406D01*
Y341583D01*
D02*
G37*
G36*
X464217Y340406D02*
X463922D01*
Y340700D01*
Y340994D01*
X464217D01*
Y340406D01*
D02*
G37*
G36*
Y339817D02*
X463628D01*
Y340111D01*
X464217D01*
Y339817D01*
D02*
G37*
G36*
X422111D02*
X421817D01*
Y340406D01*
X422111D01*
Y339817D01*
D02*
G37*
G36*
X421817Y338933D02*
X421522D01*
Y339817D01*
X421817D01*
Y338933D01*
D02*
G37*
G36*
X421522Y338050D02*
X421228D01*
Y338344D01*
X421522D01*
Y338050D01*
D02*
G37*
G36*
X463333Y338344D02*
Y338050D01*
Y337461D01*
X463039D01*
Y338639D01*
X463333D01*
Y338344D01*
D02*
G37*
G36*
X421228Y337756D02*
Y337461D01*
X420933D01*
Y338050D01*
X421228D01*
Y337756D01*
D02*
G37*
G36*
X463039Y337167D02*
X462744D01*
Y337461D01*
X463039D01*
Y337167D01*
D02*
G37*
G36*
X443606D02*
X443017D01*
Y337461D01*
X443606D01*
Y337167D01*
D02*
G37*
G36*
X401206Y340700D02*
X401500D01*
Y339817D01*
X402089D01*
Y338933D01*
X402383D01*
Y338344D01*
X402678D01*
Y337756D01*
X402972D01*
Y336872D01*
X402678D01*
Y337461D01*
X402383D01*
Y338050D01*
X402089D01*
Y338639D01*
X401794D01*
Y339522D01*
X401500D01*
Y339817D01*
X401206D01*
Y340700D01*
X400911D01*
Y341289D01*
Y341583D01*
Y341878D01*
X400617D01*
Y342172D01*
X401206D01*
Y340700D01*
D02*
G37*
G36*
X462744Y335989D02*
X462450D01*
Y336283D01*
Y336578D01*
Y337167D01*
X462744D01*
Y335989D01*
D02*
G37*
G36*
X462450Y335694D02*
Y335400D01*
Y335106D01*
X462156D01*
Y335989D01*
X462450D01*
Y335694D01*
D02*
G37*
G36*
X420639Y335400D02*
Y335106D01*
X420344D01*
Y335989D01*
X420639D01*
Y335400D01*
D02*
G37*
G36*
X455972Y334811D02*
X455383D01*
Y335400D01*
X455972D01*
Y334811D01*
D02*
G37*
G36*
X443606Y335989D02*
Y335694D01*
X443900D01*
Y335106D01*
X444194D01*
Y334811D01*
X443900D01*
Y335106D01*
X443606D01*
Y335694D01*
X443311D01*
Y336283D01*
X443606D01*
Y335989D01*
D02*
G37*
G36*
X403561Y335694D02*
X403856D01*
Y335106D01*
X404150D01*
Y334811D01*
X403856D01*
Y335106D01*
X403561D01*
Y335694D01*
X403267D01*
Y336283D01*
X403561D01*
Y335694D01*
D02*
G37*
G36*
X420344Y334517D02*
X420050D01*
Y334811D01*
Y335106D01*
X420344D01*
Y334517D01*
D02*
G37*
G36*
X461861Y333928D02*
X461567D01*
Y334517D01*
X461861D01*
Y333928D01*
D02*
G37*
G36*
X455383Y334222D02*
X455089D01*
Y333928D01*
X454795D01*
Y334517D01*
X455383D01*
Y334222D01*
D02*
G37*
G36*
X420050D02*
Y333928D01*
Y333633D01*
X419756D01*
Y334517D01*
X420050D01*
Y334222D01*
D02*
G37*
G36*
X461272Y332750D02*
X460978D01*
Y333044D01*
X461272D01*
Y332750D01*
D02*
G37*
G36*
X419461D02*
X419167D01*
Y333044D01*
X419461D01*
Y332750D01*
D02*
G37*
G36*
X460978Y332455D02*
X460683D01*
Y332750D01*
X460978D01*
Y332455D01*
D02*
G37*
G36*
X419167D02*
Y332161D01*
X418872D01*
Y332750D01*
X419167D01*
Y332455D01*
D02*
G37*
G36*
X404739Y333633D02*
X405033D01*
Y333339D01*
X405328D01*
Y333044D01*
X405622D01*
Y332750D01*
X405917D01*
Y332161D01*
X406211D01*
Y331572D01*
X405917D01*
Y331867D01*
X405622D01*
Y332455D01*
X405328D01*
Y332750D01*
X405033D01*
Y333339D01*
X404739D01*
Y333633D01*
X404445D01*
Y334222D01*
X404739D01*
Y333633D01*
D02*
G37*
G36*
X460389Y331278D02*
X460094D01*
Y330983D01*
X459800D01*
Y331278D01*
Y331572D01*
X460094D01*
Y331867D01*
X460389D01*
Y331278D01*
D02*
G37*
G36*
X444489Y333339D02*
X444783D01*
Y332750D01*
X445078D01*
Y331867D01*
X445372D01*
Y331572D01*
X445667D01*
Y331278D01*
Y330983D01*
X445372D01*
Y331278D01*
X445078D01*
Y331867D01*
X444783D01*
Y332161D01*
X444489D01*
Y332455D01*
Y332750D01*
X444194D01*
Y333633D01*
X443900D01*
Y334222D01*
X444489D01*
Y333339D01*
D02*
G37*
G36*
X418872Y331572D02*
X418578D01*
Y330983D01*
X417989D01*
Y331278D01*
X418283D01*
Y331867D01*
X418578D01*
Y332161D01*
X418872D01*
Y331572D01*
D02*
G37*
G36*
X446256Y330394D02*
X445961D01*
Y330689D01*
X446256D01*
Y330394D01*
D02*
G37*
G36*
X417989D02*
X417400D01*
Y330689D01*
X417695D01*
Y330983D01*
X417989D01*
Y330394D01*
D02*
G37*
G36*
X445961Y330100D02*
X445667D01*
Y330394D01*
X445961D01*
Y330100D01*
D02*
G37*
G36*
X417106Y329511D02*
X416517D01*
Y329805D01*
X416811D01*
Y330100D01*
X417106D01*
Y329511D01*
D02*
G37*
G36*
X459506Y330100D02*
X459211D01*
Y329805D01*
X458917D01*
Y329511D01*
X458622D01*
Y329217D01*
X458328D01*
Y329511D01*
Y329805D01*
X458622D01*
Y330100D01*
X458917D01*
Y330394D01*
X459211D01*
Y330689D01*
X459506D01*
Y330100D01*
D02*
G37*
G36*
X416517Y329217D02*
X415928D01*
Y329511D01*
X416517D01*
Y329217D01*
D02*
G37*
G36*
X406800Y330983D02*
X407094D01*
Y330689D01*
X407389D01*
Y330394D01*
X407683D01*
Y330100D01*
X408272D01*
Y329805D01*
X408567D01*
Y329511D01*
X408861D01*
Y329217D01*
X409450D01*
Y328922D01*
X409744D01*
Y328628D01*
X409156D01*
Y328922D01*
X408861D01*
Y329217D01*
X408272D01*
Y329511D01*
X407978D01*
Y329805D01*
X407683D01*
Y330100D01*
X407389D01*
Y330394D01*
X406800D01*
Y330983D01*
X406506D01*
Y331278D01*
X406800D01*
Y330983D01*
D02*
G37*
G36*
X446844Y328922D02*
X447433D01*
Y328628D01*
X447728D01*
Y328333D01*
X447139D01*
Y328628D01*
X446844D01*
Y328922D01*
X446550D01*
Y329217D01*
X446256D01*
Y329805D01*
X446844D01*
Y328922D01*
D02*
G37*
G36*
X458328D02*
X458033D01*
Y328628D01*
X457739D01*
Y328039D01*
X456267D01*
Y328333D01*
X457444D01*
Y328922D01*
X457739D01*
Y329217D01*
X458328D01*
Y328922D01*
D02*
G37*
G36*
X410333Y328333D02*
X410922D01*
Y328039D01*
X410333D01*
Y328333D01*
X410039D01*
Y328628D01*
X410333D01*
Y328333D01*
D02*
G37*
G36*
X415928Y328628D02*
X415339D01*
Y328333D01*
X414750D01*
Y328039D01*
X414161D01*
Y327744D01*
X411511D01*
Y328039D01*
X413867D01*
Y328333D01*
X414161D01*
Y328628D01*
X415045D01*
Y328922D01*
X415928D01*
Y328628D01*
D02*
G37*
G36*
X456267Y327450D02*
X455972D01*
Y327744D01*
X456267D01*
Y327450D01*
D02*
G37*
G36*
X455678Y327156D02*
X455383D01*
Y326861D01*
X454795D01*
Y327450D01*
X455383D01*
Y327744D01*
X455678D01*
Y327156D01*
D02*
G37*
G36*
X448906Y327450D02*
X449495D01*
Y326861D01*
X449200D01*
Y327156D01*
X448317D01*
Y327450D01*
X448022D01*
Y328039D01*
X448906D01*
Y327450D01*
D02*
G37*
G36*
X452145Y326861D02*
X452733D01*
Y326567D01*
X454206D01*
Y326272D01*
X450378D01*
Y326861D01*
X450672D01*
Y326567D01*
X451556D01*
Y326861D01*
X451850D01*
Y327156D01*
X452145D01*
Y326861D01*
D02*
G37*
%LPC*%
G36*
X382291Y554524D02*
X380025D01*
Y554240D01*
X377477D01*
Y553957D01*
X376344D01*
Y553674D01*
X375777D01*
Y553391D01*
X375211D01*
Y553107D01*
X374928D01*
Y552824D01*
X374361D01*
Y552258D01*
X374078D01*
Y551975D01*
X373795D01*
Y551408D01*
X373512D01*
Y550842D01*
X373228D01*
Y547160D01*
X373512D01*
Y546594D01*
X373795D01*
Y546027D01*
X374078D01*
Y545461D01*
X374361D01*
Y545178D01*
X374645D01*
Y544894D01*
X375211D01*
Y544611D01*
X375494D01*
Y544328D01*
X376060D01*
Y544045D01*
X376627D01*
Y543762D01*
X377760D01*
Y543479D01*
X382291D01*
Y554524D01*
D02*
G37*
G36*
X409762Y550842D02*
X409478D01*
Y550559D01*
X409762D01*
Y550842D01*
D02*
G37*
G36*
X408063D02*
X407779D01*
Y550275D01*
X408063D01*
Y550842D01*
D02*
G37*
G36*
X407779Y550275D02*
X407496D01*
Y549426D01*
X407779D01*
Y550275D01*
D02*
G37*
G36*
X410045D02*
X409762D01*
Y549709D01*
X410045D01*
Y548859D01*
X410328D01*
Y549709D01*
X410045D01*
Y550275D01*
D02*
G37*
G36*
X399283Y533283D02*
X399000D01*
Y533000D01*
X399283D01*
Y533283D01*
D02*
G37*
G36*
X418824Y532717D02*
X418541D01*
Y531301D01*
X418824D01*
Y532717D01*
D02*
G37*
G36*
X399000Y532434D02*
X398717D01*
Y530734D01*
X399000D01*
Y532434D01*
D02*
G37*
G36*
X426528Y459655D02*
X424467D01*
Y459361D01*
X422994D01*
Y459067D01*
X422700D01*
Y458772D01*
X422111D01*
Y458478D01*
X421522D01*
Y458183D01*
X421228D01*
Y457889D01*
X420933D01*
Y457594D01*
X420639D01*
Y457300D01*
X420344D01*
Y457006D01*
X420050D01*
Y456711D01*
X419756D01*
Y456417D01*
X419461D01*
Y455828D01*
X419167D01*
Y455239D01*
X418872D01*
Y454944D01*
X418578D01*
Y454356D01*
X418283D01*
Y453472D01*
X417989D01*
Y452883D01*
X417695D01*
Y452000D01*
X417400D01*
Y450528D01*
X417106D01*
Y444344D01*
X417400D01*
Y442872D01*
X417695D01*
Y442283D01*
X417989D01*
Y441400D01*
X418283D01*
Y440811D01*
X418578D01*
Y440517D01*
X418872D01*
Y439928D01*
X419167D01*
Y439633D01*
X419461D01*
Y439044D01*
X419756D01*
Y438750D01*
X420050D01*
Y438456D01*
X420344D01*
Y438161D01*
X420639D01*
Y437867D01*
X420933D01*
Y437572D01*
X421228D01*
Y437278D01*
X421817D01*
Y436983D01*
X422111D01*
Y436689D01*
X422994D01*
Y436394D01*
X426233D01*
Y436689D01*
X426822D01*
Y436983D01*
X427706D01*
Y437278D01*
X428000D01*
Y437572D01*
X428294D01*
Y437867D01*
X428589D01*
Y438161D01*
X429178D01*
Y438456D01*
X429472D01*
Y438750D01*
X429767D01*
Y439339D01*
X430061D01*
Y439633D01*
X430356D01*
Y439928D01*
X430650D01*
Y440517D01*
X430945D01*
Y441105D01*
X431239D01*
Y441400D01*
X431533D01*
Y441989D01*
X431828D01*
Y442872D01*
X432122D01*
Y443756D01*
X432417D01*
Y445228D01*
X432711D01*
Y451411D01*
X432417D01*
Y452883D01*
X432122D01*
Y453472D01*
X431828D01*
Y454650D01*
X431533D01*
Y455239D01*
X431239D01*
Y455828D01*
X430945D01*
Y456122D01*
X430650D01*
Y456711D01*
X430356D01*
Y457006D01*
X430061D01*
Y457300D01*
X429767D01*
Y457594D01*
X429472D01*
Y457889D01*
X429178D01*
Y458183D01*
X428883D01*
Y458478D01*
X428294D01*
Y458772D01*
X428000D01*
Y459067D01*
X427411D01*
Y459361D01*
X426528D01*
Y459655D01*
D02*
G37*
G36*
X442428Y459067D02*
X439778D01*
Y458772D01*
X438894D01*
Y458478D01*
X438306D01*
Y458183D01*
X437717D01*
Y457889D01*
X437422D01*
Y457594D01*
X437128D01*
Y457300D01*
X436833D01*
Y457006D01*
X436539D01*
Y456711D01*
X436245D01*
Y456122D01*
X435950D01*
Y455828D01*
X435656D01*
Y455239D01*
X435361D01*
Y454650D01*
X435067D01*
Y454061D01*
X434772D01*
Y453178D01*
X434478D01*
Y452589D01*
X434183D01*
Y450528D01*
X433889D01*
Y446700D01*
X434183D01*
Y444050D01*
X434478D01*
Y443461D01*
X434772D01*
Y442283D01*
X435067D01*
Y441694D01*
X435361D01*
Y441105D01*
X435656D01*
Y440517D01*
X435950D01*
Y440222D01*
X436245D01*
Y439633D01*
X436539D01*
Y439044D01*
X436833D01*
Y438750D01*
X437128D01*
Y438456D01*
X437422D01*
Y438161D01*
X437717D01*
Y437867D01*
X438306D01*
Y437572D01*
X438600D01*
Y437278D01*
X438894D01*
Y436983D01*
X439189D01*
Y436689D01*
X439778D01*
Y436394D01*
X440661D01*
Y436100D01*
X444194D01*
Y436394D01*
X444783D01*
Y436689D01*
X445372D01*
Y436983D01*
X445961D01*
Y437278D01*
X446550D01*
Y437572D01*
X446844D01*
Y438161D01*
X447139D01*
Y438456D01*
X447433D01*
Y438750D01*
X447728D01*
Y439044D01*
X448022D01*
Y439633D01*
X448317D01*
Y440222D01*
X448611D01*
Y440811D01*
X448906D01*
Y441694D01*
X449200D01*
Y442872D01*
X449495D01*
Y444344D01*
X449789D01*
Y448467D01*
X449495D01*
Y449939D01*
X449200D01*
Y451411D01*
X448906D01*
Y452589D01*
X448611D01*
Y453178D01*
X448317D01*
Y454061D01*
X448022D01*
Y454356D01*
X447728D01*
Y454944D01*
X447433D01*
Y455533D01*
X447139D01*
Y455828D01*
X446844D01*
Y456122D01*
X446550D01*
Y456711D01*
X446256D01*
Y457006D01*
X445961D01*
Y457300D01*
X445372D01*
Y457594D01*
X445078D01*
Y457889D01*
X444489D01*
Y458183D01*
X443900D01*
Y458478D01*
X443311D01*
Y458772D01*
X442428D01*
Y459067D01*
D02*
G37*
%LPD*%
G36*
X428883Y449939D02*
X429472D01*
Y449644D01*
X429767D01*
Y449055D01*
X430061D01*
Y448761D01*
X430356D01*
Y448172D01*
X430650D01*
Y446111D01*
Y445817D01*
Y445228D01*
X430356D01*
Y444933D01*
X430061D01*
Y444344D01*
X429767D01*
Y444050D01*
X429472D01*
Y443756D01*
X428883D01*
Y443461D01*
X427411D01*
Y443756D01*
X426822D01*
Y444050D01*
X426528D01*
Y444344D01*
X426233D01*
Y444933D01*
X425939D01*
Y445817D01*
X425644D01*
Y447583D01*
X425939D01*
Y448467D01*
X426233D01*
Y449055D01*
X426528D01*
Y449350D01*
X426822D01*
Y449644D01*
X427117D01*
Y449939D01*
X427706D01*
Y450233D01*
X428883D01*
Y449939D01*
D02*
G37*
G36*
X438894Y449644D02*
X439189D01*
Y449350D01*
X439483D01*
Y449055D01*
X440072D01*
Y448467D01*
X440367D01*
Y447583D01*
X440661D01*
Y444933D01*
X440367D01*
Y444050D01*
X440072D01*
Y443756D01*
X439778D01*
Y443461D01*
X439189D01*
Y443167D01*
X437128D01*
Y443461D01*
X436539D01*
Y444050D01*
X436245D01*
Y444639D01*
X435950D01*
Y445522D01*
X435656D01*
Y446994D01*
X435950D01*
Y448172D01*
X436245D01*
Y448761D01*
X436539D01*
Y449350D01*
X436833D01*
Y449644D01*
X437422D01*
Y449939D01*
X438894D01*
Y449644D01*
D02*
G37*
%LPC*%
G36*
X357039Y435217D02*
X352622D01*
Y434922D01*
X351150D01*
Y434628D01*
X350561D01*
Y434333D01*
X349678D01*
Y434039D01*
X348795D01*
Y433744D01*
X348500D01*
Y433450D01*
X347911D01*
Y433156D01*
X347617D01*
Y432861D01*
X347028D01*
Y432567D01*
X346733D01*
Y432272D01*
X346439D01*
Y431978D01*
X346144D01*
Y431683D01*
X345556D01*
Y431094D01*
X345261D01*
Y430800D01*
X344967D01*
Y430211D01*
X344672D01*
Y429917D01*
X344378D01*
Y429328D01*
X344083D01*
Y428739D01*
X343789D01*
Y428444D01*
Y428150D01*
X343494D01*
Y427561D01*
X343200D01*
Y426383D01*
X342906D01*
Y423733D01*
X342611D01*
Y422850D01*
X342906D01*
Y420200D01*
X343200D01*
Y419022D01*
X343494D01*
Y418433D01*
X343789D01*
Y417550D01*
X344083D01*
Y417256D01*
X344378D01*
Y416961D01*
X344672D01*
Y416372D01*
X344967D01*
Y415783D01*
X345261D01*
Y415489D01*
X345556D01*
Y415194D01*
X345850D01*
Y414900D01*
X346144D01*
Y414605D01*
X346439D01*
Y414311D01*
X346733D01*
Y414017D01*
X347028D01*
Y413722D01*
X347322D01*
Y413428D01*
X347617D01*
Y413133D01*
X348206D01*
Y412839D01*
X348795D01*
Y412544D01*
X349383D01*
Y412250D01*
X349972D01*
Y411955D01*
X350561D01*
Y411661D01*
X351445D01*
Y411367D01*
X352622D01*
Y411072D01*
X357039D01*
Y411367D01*
X358217D01*
Y411661D01*
X358806D01*
Y411955D01*
X359689D01*
Y412250D01*
X360278D01*
Y412544D01*
X360572D01*
Y412839D01*
X361161D01*
Y413133D01*
X361750D01*
Y415489D01*
X362044D01*
Y416667D01*
X362339D01*
Y417550D01*
X362633D01*
Y417844D01*
X362928D01*
Y418139D01*
X363222D01*
Y418433D01*
X363517D01*
Y419022D01*
X364106D01*
Y419317D01*
X364694D01*
Y419611D01*
X366167D01*
Y419906D01*
X366461D01*
Y420494D01*
X366167D01*
Y424911D01*
X366461D01*
Y426972D01*
X366167D01*
Y427561D01*
X365872D01*
Y428444D01*
X365578D01*
Y428739D01*
X365283D01*
Y429328D01*
X364989D01*
Y429622D01*
X364694D01*
Y430211D01*
X364400D01*
Y430505D01*
X364106D01*
Y431094D01*
X363811D01*
Y431389D01*
X363517D01*
Y431683D01*
X363222D01*
Y431978D01*
X362928D01*
Y432272D01*
X362339D01*
Y432567D01*
X362044D01*
Y432861D01*
X361750D01*
Y433156D01*
X361161D01*
Y433450D01*
X360867D01*
Y433744D01*
X360278D01*
Y434039D01*
X359689D01*
Y434333D01*
X358806D01*
Y434628D01*
X357922D01*
Y434922D01*
X357039D01*
Y435217D01*
D02*
G37*
G36*
X380006Y434628D02*
X377356D01*
Y434333D01*
X375294D01*
Y434039D01*
X374411D01*
Y433744D01*
X373822D01*
Y433450D01*
X373528D01*
Y433156D01*
X372939D01*
Y432861D01*
X372350D01*
Y432567D01*
X372056D01*
Y432272D01*
X371467D01*
Y431978D01*
X371172D01*
Y431683D01*
X370878D01*
Y431389D01*
X370583D01*
Y431094D01*
X370289D01*
Y430800D01*
X369995D01*
Y430505D01*
X369700D01*
Y430211D01*
X369406D01*
Y429917D01*
X369111D01*
Y429328D01*
X368817D01*
Y429033D01*
X368522D01*
Y428444D01*
X368228D01*
Y427856D01*
X367933D01*
Y427267D01*
X367639D01*
Y426383D01*
X367345D01*
Y425206D01*
X367050D01*
Y423144D01*
X366756D01*
Y422261D01*
X367050D01*
Y419906D01*
X367345D01*
Y419611D01*
X367639D01*
Y419317D01*
X368228D01*
Y419022D01*
X368522D01*
Y418728D01*
X368817D01*
Y418433D01*
X369111D01*
Y418139D01*
X369406D01*
Y417550D01*
X369700D01*
Y417256D01*
X369995D01*
Y416667D01*
X370289D01*
Y415194D01*
X370583D01*
Y413722D01*
X370878D01*
Y413428D01*
X371172D01*
Y413133D01*
X371467D01*
Y412839D01*
X372056D01*
Y412544D01*
X372350D01*
Y412250D01*
X372644D01*
Y411955D01*
X373233D01*
Y411661D01*
X373822D01*
Y411367D01*
X374706D01*
Y411072D01*
X375294D01*
Y410778D01*
X376767D01*
Y410483D01*
X378533D01*
Y410189D01*
X379417D01*
Y410483D01*
X381478D01*
Y410778D01*
X382656D01*
Y411072D01*
X383539D01*
Y411367D01*
X384128D01*
Y411661D01*
X384717D01*
Y411955D01*
X385306D01*
Y412250D01*
X385600D01*
Y412544D01*
X385895D01*
Y412839D01*
X386483D01*
Y413133D01*
X386778D01*
Y413428D01*
X387072D01*
Y413722D01*
X387367D01*
Y414017D01*
X387661D01*
Y414311D01*
X387956D01*
Y414605D01*
X388250D01*
Y415194D01*
X388545D01*
Y415489D01*
X388839D01*
Y415783D01*
X389133D01*
Y416372D01*
X389428D01*
Y416961D01*
X389722D01*
Y417550D01*
X390017D01*
Y418433D01*
X390311D01*
Y419317D01*
X390606D01*
Y420494D01*
X390900D01*
Y424617D01*
X390606D01*
Y425794D01*
X390311D01*
Y426678D01*
X390017D01*
Y427267D01*
X389722D01*
Y428150D01*
X389428D01*
Y428739D01*
X389133D01*
Y429328D01*
X388839D01*
Y429622D01*
X388545D01*
Y429917D01*
X388250D01*
Y430505D01*
X387956D01*
Y430800D01*
X387661D01*
Y431094D01*
X387367D01*
Y431389D01*
X387072D01*
Y431683D01*
X386778D01*
Y431978D01*
X386189D01*
Y432272D01*
X385895D01*
Y432567D01*
X385600D01*
Y432861D01*
X385011D01*
Y433156D01*
X384422D01*
Y433450D01*
X383833D01*
Y433744D01*
X383244D01*
Y434039D01*
X382361D01*
Y434333D01*
X380006D01*
Y434628D01*
D02*
G37*
%LPD*%
G36*
X359100Y426383D02*
X359983D01*
Y426089D01*
X360572D01*
Y425794D01*
X360867D01*
Y425500D01*
X361161D01*
Y425206D01*
X361456D01*
Y424617D01*
X361750D01*
Y424322D01*
X362044D01*
Y423144D01*
X362339D01*
Y421083D01*
X362044D01*
Y420200D01*
X361750D01*
Y419906D01*
X361456D01*
Y419317D01*
X360867D01*
Y419022D01*
X360572D01*
Y418728D01*
X360278D01*
Y418433D01*
X359689D01*
Y418139D01*
X358806D01*
Y417844D01*
X357333D01*
Y418139D01*
X356450D01*
Y418433D01*
X355861D01*
Y418728D01*
X355272D01*
Y419022D01*
X354978D01*
Y419317D01*
X354683D01*
Y419906D01*
X354389D01*
Y420200D01*
X354094D01*
Y421083D01*
X353800D01*
Y423439D01*
X354094D01*
Y424322D01*
X354389D01*
Y424911D01*
X354683D01*
Y425206D01*
X354978D01*
Y425500D01*
X355272D01*
Y425794D01*
X355567D01*
Y426089D01*
X356156D01*
Y426383D01*
X357039D01*
Y426678D01*
X359100D01*
Y426383D01*
D02*
G37*
%LPC*%
G36*
X358806Y425794D02*
X357039D01*
Y425500D01*
X356450D01*
Y425206D01*
X355861D01*
Y424911D01*
X355567D01*
Y424617D01*
X355272D01*
Y424028D01*
X354978D01*
Y423439D01*
X354683D01*
Y421378D01*
X354978D01*
Y420494D01*
X355272D01*
Y420200D01*
X355567D01*
Y419906D01*
X355861D01*
Y419611D01*
X356156D01*
Y419317D01*
X356450D01*
Y419022D01*
X357333D01*
Y418728D01*
X358217D01*
Y419022D01*
X359394D01*
Y419317D01*
X359689D01*
Y419611D01*
X360278D01*
Y419906D01*
X360572D01*
Y420200D01*
X360867D01*
Y420789D01*
X361161D01*
Y421378D01*
X361456D01*
Y423439D01*
X361161D01*
Y424028D01*
X360867D01*
Y424322D01*
X360572D01*
Y424617D01*
X360278D01*
Y424911D01*
X359983D01*
Y425206D01*
X359689D01*
Y425500D01*
X358806D01*
Y425794D01*
D02*
G37*
%LPD*%
G36*
X359100Y424617D02*
X359394D01*
Y424322D01*
X359983D01*
Y423733D01*
X360278D01*
Y423144D01*
X360572D01*
Y421672D01*
X360278D01*
Y421083D01*
X359983D01*
Y420789D01*
X359689D01*
Y420494D01*
X359394D01*
Y420200D01*
X358806D01*
Y419906D01*
X357333D01*
Y420200D01*
X356450D01*
Y420494D01*
X356156D01*
Y420789D01*
X355861D01*
Y421672D01*
X355567D01*
Y423439D01*
X355861D01*
Y424028D01*
X356156D01*
Y424322D01*
X356450D01*
Y424617D01*
X357039D01*
Y424911D01*
X359100D01*
Y424617D01*
D02*
G37*
G36*
X375883Y426089D02*
X376767D01*
Y425794D01*
X377356D01*
Y425500D01*
X377650D01*
Y425206D01*
X378239D01*
Y424617D01*
X378533D01*
Y424322D01*
X378828D01*
Y423733D01*
X379122D01*
Y423439D01*
Y423144D01*
Y420494D01*
X378828D01*
Y419906D01*
X378533D01*
Y419317D01*
X378239D01*
Y419022D01*
X377944D01*
Y418728D01*
X377356D01*
Y418433D01*
X377061D01*
Y418139D01*
X376472D01*
Y417844D01*
X373528D01*
Y418139D01*
X372939D01*
Y418433D01*
X372644D01*
Y418728D01*
X372056D01*
Y419022D01*
X371761D01*
Y419317D01*
X371467D01*
Y419906D01*
X371172D01*
Y420494D01*
X370878D01*
Y421378D01*
X370583D01*
Y423144D01*
X370878D01*
Y424028D01*
X371172D01*
Y424617D01*
X371467D01*
Y424911D01*
X371761D01*
Y425206D01*
X372056D01*
Y425500D01*
X372350D01*
Y425794D01*
X372939D01*
Y426089D01*
X373528D01*
Y426383D01*
X375883D01*
Y426089D01*
D02*
G37*
%LPC*%
G36*
Y425500D02*
X373822D01*
Y425206D01*
X372939D01*
Y424911D01*
X372644D01*
Y424617D01*
X372350D01*
Y424028D01*
X372056D01*
Y423733D01*
X371761D01*
Y422850D01*
X371467D01*
Y421378D01*
X371761D01*
Y420789D01*
X372056D01*
Y420200D01*
X372350D01*
Y419906D01*
X372644D01*
Y419611D01*
X372939D01*
Y419317D01*
X373233D01*
Y419022D01*
X373822D01*
Y418728D01*
X376178D01*
Y419022D01*
X376767D01*
Y419317D01*
X377061D01*
Y419611D01*
X377650D01*
Y420200D01*
X377944D01*
Y420789D01*
X378239D01*
Y423439D01*
X377944D01*
Y423733D01*
X377650D01*
Y424322D01*
X377356D01*
Y424617D01*
X376767D01*
Y424911D01*
X376472D01*
Y425206D01*
X375883D01*
Y425500D01*
D02*
G37*
%LPD*%
G36*
X376178Y424322D02*
X376472D01*
Y424028D01*
X376767D01*
Y423733D01*
X377061D01*
Y423144D01*
X377356D01*
Y421378D01*
X377061D01*
Y420789D01*
X376767D01*
Y420200D01*
X376178D01*
Y419906D01*
X375883D01*
Y419611D01*
X373822D01*
Y419906D01*
X373528D01*
Y420200D01*
X373233D01*
Y420494D01*
X372939D01*
Y420789D01*
X372644D01*
Y421967D01*
X372350D01*
Y422556D01*
X372644D01*
Y423439D01*
X372939D01*
Y424028D01*
X373233D01*
Y424322D01*
X373822D01*
Y424617D01*
X376178D01*
Y424322D01*
D02*
G37*
%LPC*%
G36*
X361161Y402533D02*
X358806D01*
Y401650D01*
X358511D01*
Y399294D01*
X358217D01*
Y397822D01*
X358511D01*
Y397528D01*
X359983D01*
Y397233D01*
X364106D01*
Y397528D01*
X364400D01*
Y401944D01*
X364106D01*
Y402239D01*
X361161D01*
Y402533D01*
D02*
G37*
G36*
X374706Y403122D02*
X372939D01*
Y402828D01*
X371467D01*
Y402533D01*
X369111D01*
Y402239D01*
X368522D01*
Y401650D01*
Y401356D01*
Y398706D01*
X368817D01*
Y397233D01*
X369406D01*
Y396939D01*
X369700D01*
Y397233D01*
X372350D01*
Y397528D01*
X373822D01*
Y397822D01*
X374706D01*
Y398117D01*
X375000D01*
Y398411D01*
X375294D01*
Y399000D01*
X375000D01*
Y401061D01*
X374706D01*
Y403122D01*
D02*
G37*
G36*
X373528Y393405D02*
X370583D01*
Y393111D01*
X369700D01*
Y392817D01*
X368817D01*
Y392522D01*
X368228D01*
Y392228D01*
X367345D01*
Y391933D01*
X367050D01*
Y392228D01*
X366167D01*
Y392522D01*
X365578D01*
Y392817D01*
X364400D01*
Y393111D01*
X360572D01*
Y392817D01*
X359689D01*
Y392522D01*
X358806D01*
Y392228D01*
X358511D01*
Y391933D01*
X358217D01*
Y391639D01*
X357628D01*
Y391344D01*
X357333D01*
Y391050D01*
X357039D01*
Y390756D01*
X356744D01*
Y390461D01*
X356450D01*
Y390167D01*
X356744D01*
Y389872D01*
X357922D01*
Y389578D01*
X359100D01*
Y389283D01*
X360278D01*
Y388989D01*
X362044D01*
Y388694D01*
X369995D01*
Y388989D01*
X372056D01*
Y389283D01*
X373528D01*
Y389578D01*
X374706D01*
Y389872D01*
X375883D01*
Y390167D01*
X376767D01*
Y390461D01*
X377061D01*
Y391050D01*
X376767D01*
Y391344D01*
X376472D01*
Y391933D01*
X375883D01*
Y392228D01*
X375294D01*
Y392522D01*
X375000D01*
Y392817D01*
X374411D01*
Y393111D01*
X373528D01*
Y393405D01*
D02*
G37*
G36*
X368228Y379861D02*
X367639D01*
Y379272D01*
X368228D01*
Y379861D01*
D02*
G37*
G36*
X374117Y372206D02*
X373528D01*
Y371911D01*
X372350D01*
Y372206D01*
X371467D01*
Y371911D01*
X370289D01*
Y371617D01*
X371761D01*
Y371322D01*
X369700D01*
Y371617D01*
X369995D01*
Y371911D01*
X369700D01*
Y372206D01*
X369111D01*
Y371617D01*
X369406D01*
Y371322D01*
X369700D01*
Y370733D01*
X372939D01*
Y370439D01*
X377356D01*
Y369850D01*
X377650D01*
Y367200D01*
X377356D01*
Y366611D01*
X370583D01*
Y366317D01*
X370289D01*
Y365728D01*
X369995D01*
Y365433D01*
X369700D01*
Y365139D01*
X369406D01*
Y364844D01*
X369111D01*
Y364550D01*
X368817D01*
Y364255D01*
X368228D01*
Y363961D01*
X367933D01*
Y363667D01*
X367639D01*
Y363372D01*
X367345D01*
Y363078D01*
X366756D01*
Y362783D01*
X365872D01*
Y363078D01*
X365283D01*
Y363667D01*
X364694D01*
Y364255D01*
X364400D01*
Y364550D01*
X363811D01*
Y364844D01*
X363517D01*
Y365433D01*
X362928D01*
Y365728D01*
X362633D01*
Y366022D01*
X362339D01*
Y366317D01*
X362044D01*
Y366611D01*
X357628D01*
Y366906D01*
X357333D01*
Y366611D01*
X356744D01*
Y366906D01*
X356450D01*
Y367494D01*
X356156D01*
Y370439D01*
X356450D01*
Y370733D01*
X356744D01*
Y371028D01*
X360867D01*
Y371322D01*
X361161D01*
Y371028D01*
X362633D01*
Y371322D01*
X362928D01*
Y371911D01*
X357628D01*
Y372206D01*
X357333D01*
Y371911D01*
X356744D01*
Y372206D01*
X356450D01*
Y371911D01*
X354094D01*
Y372206D01*
X338489D01*
Y365139D01*
X338783D01*
Y362489D01*
X343200D01*
Y362194D01*
X358806D01*
Y361900D01*
X393844D01*
Y362194D01*
X394139D01*
Y361900D01*
X395317D01*
Y362783D01*
X395611D01*
Y371617D01*
X389428D01*
Y371911D01*
X374117D01*
Y372206D01*
D02*
G37*
G36*
X386483Y359544D02*
X385011D01*
Y359250D01*
X377650D01*
Y359544D01*
X377356D01*
Y359250D01*
X376472D01*
Y358955D01*
X376178D01*
Y356894D01*
X376767D01*
Y356600D01*
X378533D01*
Y356306D01*
X380300D01*
Y356011D01*
X380889D01*
Y356306D01*
X381183D01*
Y356011D01*
X381478D01*
Y356306D01*
X382067D01*
Y356011D01*
X382361D01*
Y356306D01*
X384422D01*
Y356600D01*
X386483D01*
Y356894D01*
X387072D01*
Y357189D01*
Y357483D01*
Y358661D01*
X386778D01*
Y358955D01*
X387072D01*
Y359250D01*
X386483D01*
Y359544D01*
D02*
G37*
G36*
X355861Y359839D02*
X347617D01*
Y357483D01*
X347911D01*
Y357189D01*
X348795D01*
Y356894D01*
X350267D01*
Y356600D01*
X357039D01*
Y356894D01*
X357922D01*
Y357189D01*
X358217D01*
Y357483D01*
X358806D01*
Y357778D01*
X359100D01*
Y358072D01*
X358806D01*
Y358661D01*
X358511D01*
Y358367D01*
X358217D01*
Y358661D01*
X358511D01*
Y359544D01*
X355861D01*
Y359839D01*
D02*
G37*
G36*
X336722Y375739D02*
X335250D01*
Y375444D01*
X334661D01*
Y371322D01*
X334956D01*
Y367494D01*
X334661D01*
Y362194D01*
X334367D01*
Y361606D01*
X334072D01*
Y361311D01*
X333778D01*
Y360722D01*
X333483D01*
Y360428D01*
X333189D01*
Y359839D01*
X332895D01*
Y359250D01*
X333189D01*
Y359544D01*
X333483D01*
Y359839D01*
X333778D01*
Y360133D01*
X334072D01*
Y360428D01*
X334367D01*
Y359250D01*
X334072D01*
Y358661D01*
X333778D01*
Y358367D01*
X333483D01*
Y357778D01*
X333189D01*
Y356306D01*
X333483D01*
Y356011D01*
X334661D01*
Y356306D01*
X334956D01*
Y356600D01*
X335250D01*
Y357189D01*
X335544D01*
Y357778D01*
X335839D01*
Y358955D01*
X336133D01*
Y359250D01*
X336722D01*
Y358661D01*
Y358367D01*
Y357189D01*
X336428D01*
Y356600D01*
X336133D01*
Y356011D01*
X335839D01*
Y355717D01*
X335544D01*
Y355422D01*
X335250D01*
Y353656D01*
X335544D01*
Y353067D01*
X335839D01*
Y352183D01*
X336133D01*
Y351594D01*
X336428D01*
Y350711D01*
X336722D01*
Y348355D01*
X337606D01*
Y348650D01*
X337900D01*
Y350122D01*
X337606D01*
Y351006D01*
X337311D01*
Y351594D01*
X337017D01*
Y352183D01*
X336722D01*
Y354539D01*
X337311D01*
Y353656D01*
X337606D01*
Y352478D01*
X337900D01*
Y351889D01*
X338194D01*
Y351594D01*
X338489D01*
Y350711D01*
X338783D01*
Y349828D01*
X339372D01*
Y351594D01*
X339078D01*
Y352183D01*
X338783D01*
Y353067D01*
X338489D01*
Y354244D01*
X338194D01*
Y356011D01*
X338489D01*
Y356894D01*
X338783D01*
Y357483D01*
X339078D01*
Y358367D01*
X339372D01*
Y359250D01*
X339078D01*
Y360133D01*
X338489D01*
Y360428D01*
X337606D01*
Y360722D01*
X337311D01*
Y361311D01*
X337017D01*
Y375150D01*
X336722D01*
Y375739D01*
D02*
G37*
G36*
X355272Y354539D02*
X353211D01*
Y354244D01*
X352917D01*
Y351006D01*
Y350711D01*
Y349239D01*
X353211D01*
Y348944D01*
X353506D01*
Y348650D01*
X354683D01*
Y348944D01*
X354978D01*
Y352478D01*
X355272D01*
Y354539D01*
D02*
G37*
G36*
X332306Y356306D02*
X332011D01*
Y353067D01*
Y352772D01*
X332306D01*
Y351594D01*
X332600D01*
Y350417D01*
X332895D01*
Y349828D01*
X333189D01*
Y349239D01*
X333778D01*
Y348944D01*
X334072D01*
Y348650D01*
X335544D01*
Y351006D01*
X335250D01*
Y351594D01*
X334956D01*
Y352772D01*
X334661D01*
Y353950D01*
X334367D01*
Y354833D01*
X333483D01*
Y355128D01*
X332895D01*
Y355422D01*
X332600D01*
Y355717D01*
X332306D01*
Y356306D01*
D02*
G37*
G36*
X382950Y354539D02*
X380006D01*
Y348061D01*
X380594D01*
Y347767D01*
X381772D01*
Y348061D01*
X382067D01*
Y348355D01*
X382361D01*
Y351006D01*
X382656D01*
Y351889D01*
Y352183D01*
Y353656D01*
X382950D01*
Y354539D01*
D02*
G37*
G36*
X354978Y347767D02*
X353211D01*
Y347472D01*
X352917D01*
Y346883D01*
X353211D01*
Y345411D01*
X352917D01*
Y344528D01*
X353211D01*
Y343939D01*
X354978D01*
Y344528D01*
Y344822D01*
Y347767D01*
D02*
G37*
G36*
X397967Y376917D02*
X397378D01*
Y360722D01*
X397083D01*
Y360133D01*
X396789D01*
Y359839D01*
X395611D01*
Y358955D01*
X395906D01*
Y357778D01*
X395611D01*
Y356894D01*
X395906D01*
Y352183D01*
X396200D01*
Y350122D01*
X396494D01*
Y349239D01*
X396789D01*
Y348355D01*
X397083D01*
Y348061D01*
X397378D01*
Y347767D01*
X397672D01*
Y347472D01*
X398261D01*
Y347178D01*
X398850D01*
Y346883D01*
X399733D01*
Y346589D01*
X400322D01*
Y346294D01*
X401206D01*
Y346000D01*
X402383D01*
Y345706D01*
X403856D01*
Y345411D01*
X404739D01*
Y345706D01*
X405328D01*
Y345117D01*
X405917D01*
Y344822D01*
X407389D01*
Y344528D01*
X409450D01*
Y344233D01*
X414456D01*
Y343939D01*
X415928D01*
Y344233D01*
X419167D01*
Y344528D01*
X420639D01*
Y344822D01*
X422111D01*
Y345117D01*
X422994D01*
Y345411D01*
X423878D01*
Y345706D01*
X424467D01*
Y346589D01*
X424761D01*
Y349533D01*
X423878D01*
Y349828D01*
X423289D01*
Y350122D01*
X422994D01*
Y350417D01*
X422406D01*
Y350711D01*
X422111D01*
Y351006D01*
X421817D01*
Y351594D01*
X422700D01*
Y351300D01*
X423583D01*
Y351006D01*
X424761D01*
Y350711D01*
X426233D01*
Y350417D01*
X428000D01*
Y350122D01*
X430356D01*
Y349828D01*
X437717D01*
Y350122D01*
X440072D01*
Y350417D01*
X442722D01*
Y349828D01*
X442428D01*
Y349533D01*
X441839D01*
Y349239D01*
X440661D01*
Y348944D01*
X440072D01*
Y347178D01*
X440367D01*
Y345117D01*
X440661D01*
Y344528D01*
X441839D01*
Y344233D01*
X443017D01*
Y343939D01*
X444194D01*
Y343644D01*
X445961D01*
Y343350D01*
X448906D01*
Y343055D01*
X459211D01*
Y343350D01*
X460683D01*
Y343644D01*
X460978D01*
Y343939D01*
X461272D01*
Y343644D01*
X463039D01*
Y343939D01*
X464806D01*
Y344233D01*
X465689D01*
Y344528D01*
X466867D01*
Y344822D01*
X467750D01*
Y345117D01*
X468339D01*
Y345411D01*
X468633D01*
Y346000D01*
X468339D01*
Y350417D01*
X468045D01*
Y352183D01*
X468339D01*
Y353950D01*
X468633D01*
Y355422D01*
X468928D01*
Y357778D01*
X469222D01*
Y358072D01*
X469517D01*
Y358661D01*
X469811D01*
Y359839D01*
X470106D01*
Y360722D01*
X470400D01*
Y361900D01*
X470695D01*
Y362783D01*
X470989D01*
Y364844D01*
X471283D01*
Y365433D01*
X471578D01*
Y366022D01*
X471872D01*
Y367494D01*
X472167D01*
Y373089D01*
X471872D01*
Y374561D01*
X471578D01*
Y375739D01*
X470400D01*
Y375444D01*
X469811D01*
Y375150D01*
X468633D01*
Y374855D01*
X467750D01*
Y374561D01*
X467161D01*
Y374267D01*
X465983D01*
Y373972D01*
X465394D01*
Y373678D01*
X464217D01*
Y373383D01*
X463333D01*
Y373089D01*
X462156D01*
Y372794D01*
X460683D01*
Y372500D01*
X459800D01*
Y372206D01*
X458622D01*
Y371911D01*
X457444D01*
Y371617D01*
X456561D01*
Y371322D01*
X455089D01*
Y371028D01*
X453911D01*
Y370733D01*
X452439D01*
Y370439D01*
X450672D01*
Y370144D01*
X449789D01*
Y369850D01*
X449200D01*
Y369556D01*
X446844D01*
Y369261D01*
X445372D01*
Y368967D01*
X442722D01*
Y368672D01*
X439483D01*
Y368378D01*
X434478D01*
Y368083D01*
X428000D01*
Y368378D01*
X422994D01*
Y368672D01*
X420344D01*
Y368967D01*
X418872D01*
Y369261D01*
X418283D01*
Y369556D01*
X416517D01*
Y369850D01*
X415339D01*
Y370144D01*
X414456D01*
Y370439D01*
X413278D01*
Y370733D01*
X411806D01*
Y371028D01*
X411217D01*
Y371322D01*
X410333D01*
Y371617D01*
X409450D01*
Y371911D01*
X408567D01*
Y372206D01*
X407683D01*
Y372500D01*
X407094D01*
Y372794D01*
X406211D01*
Y373089D01*
X405328D01*
Y373383D01*
X404739D01*
Y373678D01*
X404150D01*
Y373972D01*
X403561D01*
Y374267D01*
X402678D01*
Y374561D01*
X402089D01*
Y374855D01*
X401500D01*
Y375150D01*
X400617D01*
Y375444D01*
X400322D01*
Y375739D01*
X399733D01*
Y376033D01*
X399145D01*
Y376328D01*
X398556D01*
Y376622D01*
X397967D01*
Y376917D01*
D02*
G37*
G36*
X354978Y343644D02*
X354389D01*
Y343350D01*
X353800D01*
Y343644D01*
X353506D01*
Y343350D01*
X353211D01*
Y343055D01*
X352917D01*
Y337461D01*
Y337167D01*
Y336578D01*
X353211D01*
Y336283D01*
X354389D01*
Y336578D01*
X354683D01*
Y336872D01*
X354978D01*
Y343644D01*
D02*
G37*
G36*
X382361Y347178D02*
X380006D01*
Y345411D01*
X380300D01*
Y344822D01*
X380006D01*
Y343055D01*
X380300D01*
Y342761D01*
X382067D01*
Y343350D01*
X382361D01*
Y344822D01*
X382067D01*
Y345411D01*
X382361D01*
Y347178D01*
D02*
G37*
G36*
X382067Y342467D02*
X380006D01*
Y339228D01*
X379711D01*
Y336578D01*
X380006D01*
Y336283D01*
X380300D01*
Y335989D01*
X381772D01*
Y336283D01*
X382361D01*
Y342172D01*
X382067D01*
Y342467D01*
D02*
G37*
G36*
X347028Y334222D02*
X346144D01*
Y333928D01*
X345850D01*
Y333044D01*
X346144D01*
Y332750D01*
X346733D01*
Y332455D01*
X347911D01*
Y333339D01*
X347617D01*
Y333633D01*
X347322D01*
Y333928D01*
X347028D01*
Y334222D01*
D02*
G37*
G36*
X388545Y333044D02*
X386483D01*
Y331867D01*
X387072D01*
Y331572D01*
X387661D01*
Y331867D01*
X388545D01*
Y333044D01*
D02*
G37*
G36*
X353506Y330394D02*
X352622D01*
Y329805D01*
X353506D01*
Y330394D01*
D02*
G37*
G36*
X382067Y329217D02*
X381478D01*
Y328922D01*
X382067D01*
Y329217D01*
D02*
G37*
%LPD*%
G36*
X374411Y371322D02*
X374117D01*
Y371617D01*
X374411D01*
Y371322D01*
D02*
G37*
G36*
X373233D02*
X372644D01*
Y371617D01*
X373233D01*
Y371322D01*
D02*
G37*
G36*
X361456D02*
X361161D01*
Y371617D01*
X361456D01*
Y371322D01*
D02*
G37*
G36*
X358217D02*
X357922D01*
Y371617D01*
X358217D01*
Y371322D01*
D02*
G37*
G36*
X393256Y370733D02*
X392667D01*
Y371028D01*
X393256D01*
Y370733D01*
D02*
G37*
G36*
X381772D02*
X381183D01*
Y371028D01*
X381772D01*
Y370733D01*
D02*
G37*
G36*
X339372D02*
X340256D01*
Y370439D01*
X339078D01*
Y371028D01*
X339372D01*
Y370733D01*
D02*
G37*
G36*
X382656Y370144D02*
X382361D01*
Y370439D01*
X382656D01*
Y370144D01*
D02*
G37*
G36*
X395022Y369850D02*
X394728D01*
Y370439D01*
X395022D01*
Y369850D01*
D02*
G37*
G36*
X392961Y370144D02*
Y369850D01*
X392667D01*
Y370439D01*
X392961D01*
Y370144D01*
D02*
G37*
G36*
X393550Y368967D02*
X393256D01*
Y369261D01*
X393550D01*
Y368967D01*
D02*
G37*
G36*
X393256Y368672D02*
X392961D01*
Y368967D01*
X393256D01*
Y368672D01*
D02*
G37*
G36*
X394728Y368378D02*
Y368083D01*
X394433D01*
Y368672D01*
X394728D01*
Y368378D01*
D02*
G37*
G36*
X339372Y367789D02*
Y367494D01*
X339078D01*
Y368083D01*
X339372D01*
Y367789D01*
D02*
G37*
G36*
X347028Y371028D02*
X351150D01*
Y370733D01*
X351445D01*
Y367494D01*
X351150D01*
Y367200D01*
X350561D01*
Y366906D01*
X347911D01*
Y367200D01*
X341433D01*
Y367494D01*
X340844D01*
Y370439D01*
X341139D01*
Y370733D01*
X341433D01*
Y371028D01*
X344672D01*
Y371322D01*
X347028D01*
Y371028D01*
D02*
G37*
G36*
X340256Y367200D02*
X340550D01*
Y366906D01*
X339961D01*
Y367494D01*
X340256D01*
Y367200D01*
D02*
G37*
G36*
X394139Y366611D02*
X393844D01*
Y366906D01*
X394139D01*
Y366611D01*
D02*
G37*
G36*
X390017Y370439D02*
X392078D01*
Y369850D01*
X392372D01*
Y366906D01*
X392078D01*
Y366611D01*
X390017D01*
Y366317D01*
X389722D01*
Y366611D01*
X389428D01*
Y366317D01*
X385600D01*
Y366611D01*
X384422D01*
Y366317D01*
X384128D01*
Y366611D01*
X382950D01*
Y370144D01*
X383244D01*
Y370439D01*
X385306D01*
Y370733D01*
X390017D01*
Y370439D01*
D02*
G37*
G36*
X351739Y366317D02*
X351445D01*
Y366611D01*
X351739D01*
Y366317D01*
D02*
G37*
G36*
X341728D02*
X341433D01*
Y366611D01*
X341728D01*
Y366317D01*
D02*
G37*
G36*
X392961Y365728D02*
X392667D01*
Y366022D01*
X392961D01*
Y365728D01*
D02*
G37*
G36*
X382656D02*
X382361D01*
Y366022D01*
Y366317D01*
X382656D01*
Y365728D01*
D02*
G37*
G36*
X350561D02*
X349972D01*
Y366022D01*
X350561D01*
Y365728D01*
D02*
G37*
G36*
X340844D02*
X340256D01*
Y366022D01*
X340844D01*
Y365728D01*
D02*
G37*
G36*
X361456Y365433D02*
X361161D01*
Y365728D01*
X361456D01*
Y365433D01*
D02*
G37*
G36*
X339961D02*
Y365139D01*
X339667D01*
Y365728D01*
X339961D01*
Y365433D01*
D02*
G37*
G36*
X363517Y364255D02*
X363811D01*
Y363961D01*
X363222D01*
Y364255D01*
X362928D01*
Y364550D01*
X363517D01*
Y364255D01*
D02*
G37*
G36*
X395022Y363372D02*
X394728D01*
Y363667D01*
Y363961D01*
X395022D01*
Y363372D01*
D02*
G37*
G36*
X369700D02*
X368817D01*
Y363667D01*
X369700D01*
Y363372D01*
D02*
G37*
G36*
X362928D02*
X362633D01*
Y363667D01*
X362928D01*
Y363372D01*
D02*
G37*
G36*
X392078Y363078D02*
X391783D01*
Y363372D01*
X392078D01*
Y363078D01*
D02*
G37*
G36*
X368817D02*
X368228D01*
Y363372D01*
X368817D01*
Y363078D01*
D02*
G37*
G36*
X364400Y363372D02*
Y363078D01*
X364106D01*
Y363372D01*
X363811D01*
Y363667D01*
X364400D01*
Y363372D01*
D02*
G37*
G36*
X344672Y363078D02*
X344378D01*
Y363372D01*
X344672D01*
Y363078D01*
D02*
G37*
G36*
X358806Y362783D02*
X358511D01*
Y363078D01*
X358806D01*
Y362783D01*
D02*
G37*
G36*
X388250Y362489D02*
X387956D01*
Y362783D01*
X388250D01*
Y362489D01*
D02*
G37*
G36*
X359983D02*
X359394D01*
Y362783D01*
X359983D01*
Y362489D01*
D02*
G37*
G36*
X368228D02*
X367639D01*
Y362194D01*
X367345D01*
Y362783D01*
X368228D01*
Y362489D01*
D02*
G37*
G36*
X365283Y362194D02*
X364989D01*
Y362489D01*
X365283D01*
Y362194D01*
D02*
G37*
G36*
X385600Y358367D02*
X385011D01*
Y358661D01*
X385600D01*
Y358367D01*
D02*
G37*
G36*
X380006D02*
X379711D01*
Y358661D01*
X380006D01*
Y358367D01*
D02*
G37*
G36*
X381772Y358072D02*
X380300D01*
Y358367D01*
X381772D01*
Y358072D01*
D02*
G37*
G36*
X377650Y358661D02*
X378828D01*
Y358367D01*
X378533D01*
Y358072D01*
X378239D01*
Y358367D01*
X377650D01*
Y358072D01*
X377356D01*
Y358367D01*
X377061D01*
Y358955D01*
X377650D01*
Y358661D01*
D02*
G37*
G36*
X386483Y357778D02*
X386189D01*
Y357189D01*
X385600D01*
Y357778D01*
X385011D01*
Y358072D01*
X386483D01*
Y357778D01*
D02*
G37*
G36*
X378828Y357189D02*
X377650D01*
Y357483D01*
X378828D01*
Y357189D01*
D02*
G37*
G36*
X382950Y356894D02*
X382361D01*
Y357189D01*
X382950D01*
Y356894D01*
D02*
G37*
G36*
X381478Y356600D02*
X380006D01*
Y356894D01*
X381478D01*
Y356600D01*
D02*
G37*
G36*
X357922Y358661D02*
X357333D01*
Y358955D01*
X357922D01*
Y358661D01*
D02*
G37*
G36*
X348795D02*
X348500D01*
Y358955D01*
X348795D01*
Y358661D01*
D02*
G37*
G36*
X351739Y358367D02*
X351150D01*
Y358661D01*
X351739D01*
Y358367D01*
D02*
G37*
G36*
X349383Y358661D02*
Y358367D01*
X349089D01*
Y359250D01*
X349383D01*
Y358661D01*
D02*
G37*
G36*
X358217Y357778D02*
X357039D01*
Y358072D01*
X358217D01*
Y357778D01*
D02*
G37*
G36*
X354389D02*
X354094D01*
Y358072D01*
X354389D01*
Y357778D01*
D02*
G37*
G36*
X352622D02*
X349383D01*
Y358072D01*
X352622D01*
Y357778D01*
D02*
G37*
G36*
X419461Y368083D02*
X418872D01*
Y368378D01*
X419461D01*
Y368083D01*
D02*
G37*
G36*
X449200Y367789D02*
X448906D01*
Y368378D01*
X449200D01*
Y367789D01*
D02*
G37*
G36*
X419167Y366317D02*
X418872D01*
Y366611D01*
Y366906D01*
X419167D01*
Y366317D01*
D02*
G37*
G36*
X418872Y365433D02*
X418578D01*
Y365728D01*
Y366022D01*
X418872D01*
Y365433D01*
D02*
G37*
G36*
X470695Y364844D02*
X470106D01*
Y365139D01*
X470695D01*
Y364844D01*
D02*
G37*
G36*
X468928Y364255D02*
X468633D01*
Y364550D01*
X468928D01*
Y364255D01*
D02*
G37*
G36*
X429472Y362194D02*
X429178D01*
Y362489D01*
X429472D01*
Y362194D01*
D02*
G37*
G36*
X468045Y362489D02*
Y362194D01*
Y361900D01*
X467750D01*
Y362783D01*
X468045D01*
Y362489D01*
D02*
G37*
G36*
X445961Y361900D02*
X445667D01*
Y362194D01*
X445961D01*
Y361900D01*
D02*
G37*
G36*
X425056Y361606D02*
X424761D01*
Y361900D01*
X425056D01*
Y361606D01*
D02*
G37*
G36*
X438894Y361017D02*
X438600D01*
Y361311D01*
X438894D01*
Y361017D01*
D02*
G37*
G36*
X424172D02*
X423583D01*
Y361311D01*
X423878D01*
Y361606D01*
X424172D01*
Y361017D01*
D02*
G37*
G36*
X420344D02*
X420050D01*
Y361311D01*
X420344D01*
Y361017D01*
D02*
G37*
G36*
X422700Y360428D02*
X422406D01*
Y360722D01*
X422700D01*
Y360428D01*
D02*
G37*
G36*
X468045Y360133D02*
Y359839D01*
X467750D01*
Y361017D01*
X468045D01*
Y360133D01*
D02*
G37*
G36*
X429472Y359544D02*
X429178D01*
Y359839D01*
X429472D01*
Y359544D01*
D02*
G37*
G36*
X428589Y358661D02*
X428294D01*
Y358955D01*
X428589D01*
Y358661D01*
D02*
G37*
G36*
X441250Y358367D02*
X440956D01*
Y358661D01*
X441250D01*
Y358367D01*
D02*
G37*
G36*
X468633Y357778D02*
X468339D01*
Y358072D01*
Y358661D01*
X468045D01*
Y358955D01*
X468633D01*
Y357778D01*
D02*
G37*
G36*
X402383D02*
X401794D01*
Y358072D01*
X402383D01*
Y357778D01*
D02*
G37*
G36*
X396789Y357483D02*
X396494D01*
Y358072D01*
X396789D01*
Y357483D01*
D02*
G37*
G36*
X441544D02*
X441839D01*
Y357189D01*
X441250D01*
Y357483D01*
Y357778D01*
Y358072D01*
X441544D01*
Y357483D01*
D02*
G37*
G36*
X403856D02*
X404150D01*
Y357189D01*
X404445D01*
Y356894D01*
X404150D01*
Y357189D01*
X403561D01*
Y357778D01*
X403856D01*
Y357483D01*
D02*
G37*
G36*
X400911Y356894D02*
X400617D01*
Y357189D01*
X400911D01*
Y356894D01*
D02*
G37*
G36*
X397378Y356600D02*
X397083D01*
Y356894D01*
X396789D01*
Y357189D01*
X397378D01*
Y356600D01*
D02*
G37*
G36*
X441544Y355717D02*
X441250D01*
Y356011D01*
Y356306D01*
X441544D01*
Y355717D01*
D02*
G37*
G36*
X441250Y355422D02*
X440956D01*
Y355717D01*
X441250D01*
Y355422D01*
D02*
G37*
G36*
X405033Y356306D02*
X405328D01*
Y355717D01*
X405622D01*
Y355128D01*
X405328D01*
Y355422D01*
X405033D01*
Y355717D01*
Y356011D01*
Y356306D01*
X404739D01*
Y356600D01*
X405033D01*
Y356306D01*
D02*
G37*
G36*
X400028Y355422D02*
X399733D01*
Y355128D01*
X398556D01*
Y355422D01*
X399145D01*
Y355717D01*
X400028D01*
Y355422D01*
D02*
G37*
G36*
X428000Y357189D02*
Y356306D01*
X428294D01*
Y355717D01*
X428589D01*
Y355422D01*
X428883D01*
Y355128D01*
X429472D01*
Y354833D01*
X428883D01*
Y355128D01*
X428589D01*
Y355422D01*
X428294D01*
Y355717D01*
X428000D01*
Y356306D01*
X427706D01*
Y357483D01*
X428000D01*
Y357189D01*
D02*
G37*
G36*
X438011Y353656D02*
X437717D01*
Y353950D01*
X438011D01*
Y353656D01*
D02*
G37*
G36*
X406506D02*
X406211D01*
Y353950D01*
X406506D01*
Y353656D01*
D02*
G37*
G36*
X464217Y353361D02*
X463628D01*
Y353656D01*
X464217D01*
Y353361D01*
D02*
G37*
G36*
X465689Y353067D02*
X465100D01*
Y353361D01*
X465689D01*
Y353067D01*
D02*
G37*
G36*
X462744Y353361D02*
X463333D01*
Y353067D01*
X462450D01*
Y352772D01*
X462156D01*
Y353361D01*
X462450D01*
Y353656D01*
X462744D01*
Y353361D01*
D02*
G37*
G36*
X461861Y352478D02*
X461567D01*
Y352772D01*
X461861D01*
Y352478D01*
D02*
G37*
G36*
X461567Y352183D02*
X461272D01*
Y352478D01*
X461567D01*
Y352183D01*
D02*
G37*
G36*
X406800D02*
X406506D01*
Y352478D01*
Y353067D01*
X406800D01*
Y352183D01*
D02*
G37*
G36*
X467161Y352478D02*
X467750D01*
Y351889D01*
X467456D01*
Y352183D01*
X466867D01*
Y352478D01*
X466572D01*
Y352772D01*
X467161D01*
Y352478D01*
D02*
G37*
G36*
X460978Y351594D02*
X460683D01*
Y351889D01*
X460978D01*
Y351594D01*
D02*
G37*
G36*
X460389Y350417D02*
X460094D01*
Y351006D01*
X460389D01*
Y350417D01*
D02*
G37*
G36*
X460094Y349239D02*
X459800D01*
Y349533D01*
X460094D01*
Y349239D01*
D02*
G37*
G36*
X406800Y348355D02*
X406506D01*
Y347767D01*
X406211D01*
Y348650D01*
X406506D01*
Y349828D01*
Y350122D01*
X406800D01*
Y348355D01*
D02*
G37*
G36*
X406211Y347472D02*
X405917D01*
Y347767D01*
X406211D01*
Y347472D01*
D02*
G37*
G36*
X405917Y346883D02*
Y346589D01*
Y346294D01*
X405033D01*
Y346589D01*
X405328D01*
Y346883D01*
X405622D01*
Y347178D01*
X405917D01*
Y346883D01*
D02*
G37*
G36*
X460094Y346000D02*
X460389D01*
Y345706D01*
X459800D01*
Y346294D01*
Y346589D01*
Y348650D01*
X460094D01*
Y346000D01*
D02*
G37*
G36*
X460683Y344528D02*
X460978D01*
Y344233D01*
X460683D01*
Y344528D01*
X460389D01*
Y344822D01*
Y345117D01*
X460683D01*
Y344528D01*
D02*
G37*
%LPC*%
G36*
X393844Y380156D02*
X392667D01*
Y379861D01*
X393844D01*
Y380156D01*
D02*
G37*
%LPD*%
D10*
X570996Y491236D02*
X579460D01*
Y484888D01*
X575228Y487004D01*
X573112D01*
X570996Y484888D01*
Y480656D01*
X573112Y478540D01*
X577344D01*
X579460Y480656D01*
X566764Y491236D02*
Y482772D01*
X562532Y478540D01*
X558300Y482772D01*
Y491236D01*
X535024D02*
X539256D01*
X541372Y489120D01*
Y480656D01*
X539256Y478540D01*
X535024D01*
X532908Y480656D01*
Y489120D01*
X535024Y491236D01*
X528676D02*
Y480656D01*
X526561Y478540D01*
X522328D01*
X520213Y480656D01*
Y491236D01*
X515981D02*
X507517D01*
X511749D01*
Y478540D01*
X543960Y291540D02*
X539728D01*
X541844D01*
Y304236D01*
X543960Y302120D01*
X524916Y291540D02*
X533380D01*
X524916Y300004D01*
Y302120D01*
X527032Y304236D01*
X531264D01*
X533380Y302120D01*
X520684Y304236D02*
Y295772D01*
X516452Y291540D01*
X512220Y295772D01*
Y304236D01*
X495292Y297888D02*
X486828D01*
X482597Y291540D02*
X476249Y297888D01*
X482597Y304236D01*
X450857D02*
X459321D01*
Y297888D01*
X455089Y300004D01*
X452973D01*
X450857Y297888D01*
Y293656D01*
X452973Y291540D01*
X457205D01*
X459321Y293656D01*
X446625Y304236D02*
Y295772D01*
X442393Y291540D01*
X438161Y295772D01*
Y304236D01*
X421233Y291540D02*
Y304236D01*
X414885D01*
X412769Y302120D01*
Y297888D01*
X414885Y295772D01*
X421233D01*
X408537Y300004D02*
Y291540D01*
Y295772D01*
X406421Y297888D01*
X404305Y300004D01*
X402189D01*
X393725Y291540D02*
X389493D01*
X387377Y293656D01*
Y297888D01*
X389493Y300004D01*
X393725D01*
X395841Y297888D01*
Y293656D01*
X393725Y291540D01*
X381030Y302120D02*
Y300004D01*
X383145D01*
X378913D01*
X381030D01*
Y293656D01*
X378913Y291540D01*
X366218D02*
X370450D01*
X372565Y293656D01*
Y297888D01*
X370450Y300004D01*
X366218D01*
X364102Y297888D01*
Y295772D01*
X372565D01*
X351406Y300004D02*
X357754D01*
X359870Y297888D01*
Y293656D01*
X357754Y291540D01*
X351406D01*
X345058Y302120D02*
Y300004D01*
X347174D01*
X342942D01*
X345058D01*
Y293656D01*
X342942Y291540D01*
X330246D02*
X334478D01*
X336594Y293656D01*
Y297888D01*
X334478Y300004D01*
X330246D01*
X328130Y297888D01*
Y295772D01*
X336594D01*
X315434Y304236D02*
Y291540D01*
X321782D01*
X323898Y293656D01*
Y297888D01*
X321782Y300004D01*
X315434D01*
X298506Y304236D02*
Y291540D01*
X292158D01*
X290042Y293656D01*
Y295772D01*
X292158Y297888D01*
X298506D01*
X292158D01*
X290042Y300004D01*
Y302120D01*
X292158Y304236D01*
X298506D01*
X285810Y300004D02*
Y293656D01*
X283694Y291540D01*
X277346D01*
Y300004D01*
X264650D02*
X270998D01*
X273114Y297888D01*
Y293656D01*
X270998Y291540D01*
X264650D01*
X260418D02*
Y304236D01*
Y295772D02*
X254071Y300004D01*
X260418Y295772D02*
X254071Y291540D01*
X249460Y364540D02*
X241796D01*
X249460Y437372D02*
X241796D01*
X245628Y441204D02*
Y433540D01*
X505960Y250272D02*
Y262968D01*
X501728Y258736D01*
X497496Y262968D01*
Y250272D01*
X486916D02*
X491148D01*
X493264Y252388D01*
Y256620D01*
X491148Y258736D01*
X486916D01*
X484800Y256620D01*
Y254504D01*
X493264D01*
X476336Y246040D02*
X474220D01*
X472104Y248156D01*
Y258736D01*
X478452D01*
X480568Y256620D01*
Y252388D01*
X478452Y250272D01*
X472104D01*
X467872Y262968D02*
Y250272D01*
Y256620D01*
X465756Y258736D01*
X461524D01*
X459408Y256620D01*
Y250272D01*
X453060Y258736D02*
X448829D01*
X446712Y256620D01*
Y250272D01*
X453060D01*
X455177Y252388D01*
X453060Y254504D01*
X446712D01*
X442481Y250272D02*
Y258736D01*
X436133D01*
X434017Y256620D01*
Y250272D01*
X417089Y262968D02*
Y250272D01*
X410741D01*
X408625Y252388D01*
Y260852D01*
X410741Y262968D01*
X417089D01*
X402277Y258736D02*
X398045D01*
X395929Y256620D01*
Y250272D01*
X402277D01*
X404393Y252388D01*
X402277Y254504D01*
X395929D01*
X391697Y250272D02*
Y258736D01*
X385349D01*
X383233Y256620D01*
Y250272D01*
X374769Y246040D02*
X372653D01*
X370537Y248156D01*
Y258736D01*
X376885D01*
X379001Y256620D01*
Y252388D01*
X376885Y250272D01*
X370537D01*
X353609Y256620D02*
X345145D01*
X319754Y260852D02*
X321870Y262968D01*
X326102D01*
X328218Y260852D01*
Y258736D01*
X326102Y256620D01*
X321870D01*
X319754Y254504D01*
Y252388D01*
X321870Y250272D01*
X326102D01*
X328218Y252388D01*
X307058Y250272D02*
X315522D01*
X307058Y258736D01*
Y260852D01*
X309174Y262968D01*
X313406D01*
X315522Y260852D01*
X296478Y250272D02*
Y262968D01*
X302826Y256620D01*
X294362D01*
X282460Y487540D02*
X279128D01*
X280794D01*
Y497537D01*
X282460Y495871D01*
X267465Y487540D02*
X274129D01*
X267465Y494204D01*
Y495871D01*
X269131Y497537D01*
X272463D01*
X274129Y495871D01*
X264133Y497537D02*
Y490872D01*
X260800Y487540D01*
X257468Y490872D01*
Y497537D01*
X244139D02*
X240807D01*
X242473D01*
Y487540D01*
X244139D01*
X240807D01*
X235808D02*
Y497537D01*
X229144Y487540D01*
Y497537D01*
M02*
