G04*
G04 #@! TF.GenerationSoftware,Altium Limited,Altium Designer,24.5.2 (23)*
G04*
G04 Layer_Color=65535*
%FSLAX44Y44*%
%MOMM*%
G71*
G04*
G04 #@! TF.SameCoordinates,77DF0842-A661-4F59-BA2F-9A799A7BDEE5*
G04*
G04*
G04 #@! TF.FilePolarity,Positive*
G04*
G01*
G75*
%ADD10C,0.2540*%
%ADD11C,0.3500*%
%ADD12C,0.5080*%
%ADD13C,0.3000*%
%ADD14C,0.1500*%
%ADD15C,0.1524*%
%ADD16C,0.1270*%
%ADD17C,0.2000*%
%ADD18C,0.1000*%
D10*
X324000Y490000D02*
G03*
X324000Y490000I-1000J0D01*
G01*
X365300Y469700D02*
G03*
X365300Y469700I-1000J0D01*
G01*
X477449Y417500D02*
G03*
X477449Y417500I-450J0D01*
G01*
X392118Y310500D02*
G03*
X392118Y310500I-1118J0D01*
G01*
X381000Y540000D02*
Y558000D01*
Y486000D02*
Y504000D01*
X319000Y486000D02*
X381000D01*
Y504000D02*
Y540000D01*
X319000Y558000D02*
X381000D01*
X319000Y486000D02*
Y558000D01*
X306300Y401700D02*
Y419700D01*
Y455700D02*
Y473700D01*
X368300D01*
X306300Y419700D02*
Y455700D01*
Y401700D02*
X368300D01*
Y473700D01*
X222540Y489040D02*
X225872D01*
X224206D01*
Y499037D01*
X222540Y497371D01*
X237535Y489040D02*
X230871D01*
X237535Y495704D01*
Y497371D01*
X235869Y499037D01*
X232537D01*
X230871Y497371D01*
X240867Y499037D02*
Y492372D01*
X244200Y489040D01*
X247532Y492372D01*
Y499037D01*
X260861D02*
X264193D01*
X262527D01*
Y489040D01*
X260861D01*
X264193D01*
X269192D02*
Y499037D01*
X275856Y489040D01*
Y499037D01*
D11*
X522360Y514616D02*
G03*
X522360Y514616I-1000J0D01*
G01*
D12*
X543770Y296250D02*
G03*
X543770Y296250I-1270J0D01*
G01*
D13*
X586500Y552500D02*
G03*
X586500Y552500I-34000J0D01*
G01*
Y247500D02*
G03*
X586500Y247500I-34000J0D01*
G01*
X281500D02*
G03*
X281500Y247500I-34000J0D01*
G01*
Y552500D02*
G03*
X281500Y552500I-34000J0D01*
G01*
D14*
X597000Y423000D02*
Y424000D01*
Y496000D01*
Y422000D02*
Y423000D01*
Y496000D02*
Y499000D01*
X543000Y410500D02*
X561000D01*
X543000Y509500D02*
X561000D01*
X341000Y365500D02*
X375000D01*
X341000Y309500D02*
X375000D01*
D15*
X596979Y306030D02*
Y388970D01*
X550521Y386379D02*
Y403491D01*
X565954D01*
X550521Y291509D02*
X565954D01*
X550521D02*
Y308621D01*
D16*
X305000Y304000D02*
Y334000D01*
X319000Y304000D02*
Y334000D01*
X305000D02*
X319000D01*
X305000Y304000D02*
X319000D01*
X438500Y472500D02*
X471500D01*
Y487500D01*
X438500D02*
X471500D01*
X438500Y472500D02*
Y487500D01*
X393000Y451500D02*
X426000D01*
X393000Y436500D02*
Y451500D01*
Y436500D02*
X426000D01*
Y451500D01*
X395000Y432000D02*
X425000D01*
X395000Y418000D02*
X425000D01*
Y432000D01*
X395000Y418000D02*
Y432000D01*
X469500Y526700D02*
Y558300D01*
X485500Y526700D02*
Y558300D01*
X469500D02*
X485500D01*
X469500Y526700D02*
X485500D01*
X304000Y380800D02*
X320000D01*
X304000Y349200D02*
X320000D01*
X304000D02*
Y380800D01*
X320000Y349200D02*
Y380800D01*
X401000Y350000D02*
X434000D01*
Y365000D01*
X401000D02*
X434000D01*
X401000Y350000D02*
Y365000D01*
X394200Y457000D02*
Y473000D01*
X425800Y457000D02*
Y473000D01*
X394200Y457000D02*
X425800D01*
X394200Y473000D02*
X425800D01*
X333500Y387500D02*
X366500D01*
X333500Y372500D02*
Y387500D01*
Y372500D02*
X366500D01*
Y387500D01*
X447500Y559000D02*
X462500D01*
Y526000D02*
Y559000D01*
X447500Y526000D02*
X462500D01*
X447500D02*
Y559000D01*
X438500Y492500D02*
Y507500D01*
X471500D01*
Y492500D02*
Y507500D01*
X438500Y492500D02*
X471500D01*
X425800Y478500D02*
Y494500D01*
X394200Y478500D02*
Y494500D01*
X425800D01*
X394200Y478500D02*
X425800D01*
X506500Y466000D02*
Y499000D01*
Y466000D02*
X521500D01*
Y499000D01*
X506500D02*
X521500D01*
X415000Y373500D02*
Y406500D01*
Y373500D02*
X430000D01*
Y406500D01*
X415000D02*
X430000D01*
X401000Y310000D02*
X434000D01*
Y325000D01*
X401000D02*
X434000D01*
X401000Y310000D02*
Y325000D01*
X420000Y524000D02*
Y561000D01*
Y524000D02*
X440000D01*
Y561000D01*
X420000D02*
X440000D01*
X535500Y296000D02*
Y329000D01*
X520500D02*
X535500D01*
X520500Y296000D02*
Y329000D01*
Y296000D02*
X535500D01*
X392500Y524000D02*
Y561000D01*
Y524000D02*
X412500D01*
Y561000D01*
X392500D02*
X412500D01*
X440000Y412000D02*
X470000D01*
X440000Y398000D02*
X470000D01*
Y412000D01*
X440000Y398000D02*
Y412000D01*
X438500Y452500D02*
Y467500D01*
X471500D01*
Y452500D02*
Y467500D01*
X438500Y452500D02*
X471500D01*
X401000Y330000D02*
X434000D01*
Y345000D01*
X401000D02*
X434000D01*
X401000Y330000D02*
Y345000D01*
X306000Y265200D02*
X322000D01*
X306000Y296800D02*
X322000D01*
Y265200D02*
Y296800D01*
X306000Y265200D02*
Y296800D01*
X395000Y373500D02*
Y406500D01*
Y373500D02*
X410000D01*
Y406500D01*
X395000D02*
X410000D01*
X326700Y280500D02*
X358300D01*
X326700Y264500D02*
X358300D01*
Y280500D01*
X326700Y264500D02*
Y280500D01*
X371200Y287000D02*
X402800D01*
X371200Y303000D02*
X402800D01*
X371200Y287000D02*
Y303000D01*
X402800Y287000D02*
Y303000D01*
X371200Y280000D02*
X402800D01*
X371200Y264000D02*
X402800D01*
Y280000D01*
X371200Y264000D02*
Y280000D01*
X359000Y287500D02*
Y302500D01*
X326000Y287500D02*
X359000D01*
X326000D02*
Y302500D01*
X359000D01*
X485454Y250567D02*
X499454D01*
X484880Y252568D02*
Y282568D01*
Y252568D02*
X500120D01*
X484880Y282568D02*
X500120D01*
Y252568D02*
Y282568D01*
X459500Y251700D02*
X475500D01*
X459500Y283300D02*
X475500D01*
Y251700D02*
Y283300D01*
X459500Y251700D02*
Y283300D01*
X492000Y526700D02*
X508000D01*
X492000Y558300D02*
X508000D01*
Y526700D02*
Y558300D01*
X492000Y526700D02*
Y558300D01*
D17*
X443250Y323210D02*
Y391790D01*
X506750Y323210D02*
Y391790D01*
X443250D02*
X506750D01*
X443250Y323210D02*
X506750D01*
X203000Y322000D02*
X220000D01*
X203000Y478000D02*
X220000D01*
X300000D01*
X220000Y322000D02*
X300000D01*
Y478000D01*
D18*
X439750Y417250D02*
X470250D01*
X439750Y447750D02*
X470250D01*
M02*
