G04*
G04 #@! TF.GenerationSoftware,Altium Limited,Altium Designer,24.5.2 (23)*
G04*
G04 Layer_Physical_Order=1*
G04 Layer_Color=255*
%FSLAX44Y44*%
%MOMM*%
G71*
G04*
G04 #@! TF.SameCoordinates,77DF0842-A661-4F59-BA2F-9A799A7BDEE5*
G04*
G04*
G04 #@! TF.FilePolarity,Positive*
G04*
G01*
G75*
%ADD10C,0.2540*%
%ADD11C,0.3500*%
G04:AMPARAMS|DCode=19|XSize=3.81mm|YSize=3.91mm|CornerRadius=0.1905mm|HoleSize=0mm|Usage=FLASHONLY|Rotation=90.000|XOffset=0mm|YOffset=0mm|HoleType=Round|Shape=RoundedRectangle|*
%AMROUNDEDRECTD19*
21,1,3.8100,3.5290,0,0,90.0*
21,1,3.4290,3.9100,0,0,90.0*
1,1,0.3810,1.7645,1.7145*
1,1,0.3810,1.7645,-1.7145*
1,1,0.3810,-1.7645,-1.7145*
1,1,0.3810,-1.7645,1.7145*
%
%ADD19ROUNDEDRECTD19*%
G04:AMPARAMS|DCode=20|XSize=1.27mm|YSize=0.61mm|CornerRadius=0.0305mm|HoleSize=0mm|Usage=FLASHONLY|Rotation=90.000|XOffset=0mm|YOffset=0mm|HoleType=Round|Shape=RoundedRectangle|*
%AMROUNDEDRECTD20*
21,1,1.2700,0.5490,0,0,90.0*
21,1,1.2090,0.6100,0,0,90.0*
1,1,0.0610,0.2745,0.6045*
1,1,0.0610,0.2745,-0.6045*
1,1,0.0610,-0.2745,-0.6045*
1,1,0.0610,-0.2745,0.6045*
%
%ADD20ROUNDEDRECTD20*%
G04:AMPARAMS|DCode=21|XSize=1.02mm|YSize=0.61mm|CornerRadius=0.0305mm|HoleSize=0mm|Usage=FLASHONLY|Rotation=90.000|XOffset=0mm|YOffset=0mm|HoleType=Round|Shape=RoundedRectangle|*
%AMROUNDEDRECTD21*
21,1,1.0200,0.5490,0,0,90.0*
21,1,0.9590,0.6100,0,0,90.0*
1,1,0.0610,0.2745,0.4795*
1,1,0.0610,0.2745,-0.4795*
1,1,0.0610,-0.2745,-0.4795*
1,1,0.0610,-0.2745,0.4795*
%
%ADD21ROUNDEDRECTD21*%
G04:AMPARAMS|DCode=22|XSize=0.7mm|YSize=1.2mm|CornerRadius=0.035mm|HoleSize=0mm|Usage=FLASHONLY|Rotation=90.000|XOffset=0mm|YOffset=0mm|HoleType=Round|Shape=RoundedRectangle|*
%AMROUNDEDRECTD22*
21,1,0.7000,1.1300,0,0,90.0*
21,1,0.6300,1.2000,0,0,90.0*
1,1,0.0700,0.5650,0.3150*
1,1,0.0700,0.5650,-0.3150*
1,1,0.0700,-0.5650,-0.3150*
1,1,0.0700,-0.5650,0.3150*
%
%ADD22ROUNDEDRECTD22*%
G04:AMPARAMS|DCode=23|XSize=0.76mm|YSize=1.2mm|CornerRadius=0.038mm|HoleSize=0mm|Usage=FLASHONLY|Rotation=90.000|XOffset=0mm|YOffset=0mm|HoleType=Round|Shape=RoundedRectangle|*
%AMROUNDEDRECTD23*
21,1,0.7600,1.1240,0,0,90.0*
21,1,0.6840,1.2000,0,0,90.0*
1,1,0.0760,0.5620,0.3420*
1,1,0.0760,0.5620,-0.3420*
1,1,0.0760,-0.5620,-0.3420*
1,1,0.0760,-0.5620,0.3420*
%
%ADD23ROUNDEDRECTD23*%
G04:AMPARAMS|DCode=24|XSize=0.8mm|YSize=1.2mm|CornerRadius=0.04mm|HoleSize=0mm|Usage=FLASHONLY|Rotation=90.000|XOffset=0mm|YOffset=0mm|HoleType=Round|Shape=RoundedRectangle|*
%AMROUNDEDRECTD24*
21,1,0.8000,1.1200,0,0,90.0*
21,1,0.7200,1.2000,0,0,90.0*
1,1,0.0800,0.5600,0.3600*
1,1,0.0800,0.5600,-0.3600*
1,1,0.0800,-0.5600,-0.3600*
1,1,0.0800,-0.5600,0.3600*
%
%ADD24ROUNDEDRECTD24*%
G04:AMPARAMS|DCode=25|XSize=0.6mm|YSize=1.7mm|CornerRadius=0.03mm|HoleSize=0mm|Usage=FLASHONLY|Rotation=90.000|XOffset=0mm|YOffset=0mm|HoleType=Round|Shape=RoundedRectangle|*
%AMROUNDEDRECTD25*
21,1,0.6000,1.6400,0,0,90.0*
21,1,0.5400,1.7000,0,0,90.0*
1,1,0.0600,0.8200,0.2700*
1,1,0.0600,0.8200,-0.2700*
1,1,0.0600,-0.8200,-0.2700*
1,1,0.0600,-0.8200,0.2700*
%
%ADD25ROUNDEDRECTD25*%
G04:AMPARAMS|DCode=26|XSize=2.7mm|YSize=1mm|CornerRadius=0.05mm|HoleSize=0mm|Usage=FLASHONLY|Rotation=180.000|XOffset=0mm|YOffset=0mm|HoleType=Round|Shape=RoundedRectangle|*
%AMROUNDEDRECTD26*
21,1,2.7000,0.9000,0,0,180.0*
21,1,2.6000,1.0000,0,0,180.0*
1,1,0.1000,-1.3000,0.4500*
1,1,0.1000,1.3000,0.4500*
1,1,0.1000,1.3000,-0.4500*
1,1,0.1000,-1.3000,-0.4500*
%
%ADD26ROUNDEDRECTD26*%
G04:AMPARAMS|DCode=27|XSize=1.1mm|YSize=1mm|CornerRadius=0.075mm|HoleSize=0mm|Usage=FLASHONLY|Rotation=0.000|XOffset=0mm|YOffset=0mm|HoleType=Round|Shape=RoundedRectangle|*
%AMROUNDEDRECTD27*
21,1,1.1000,0.8500,0,0,0.0*
21,1,0.9500,1.0000,0,0,0.0*
1,1,0.1500,0.4750,-0.4250*
1,1,0.1500,-0.4750,-0.4250*
1,1,0.1500,-0.4750,0.4250*
1,1,0.1500,0.4750,0.4250*
%
%ADD27ROUNDEDRECTD27*%
G04:AMPARAMS|DCode=28|XSize=1.6mm|YSize=5.7mm|CornerRadius=0.12mm|HoleSize=0mm|Usage=FLASHONLY|Rotation=270.000|XOffset=0mm|YOffset=0mm|HoleType=Round|Shape=RoundedRectangle|*
%AMROUNDEDRECTD28*
21,1,1.6000,5.4600,0,0,270.0*
21,1,1.3600,5.7000,0,0,270.0*
1,1,0.2400,-2.7300,-0.6800*
1,1,0.2400,-2.7300,0.6800*
1,1,0.2400,2.7300,0.6800*
1,1,0.2400,2.7300,-0.6800*
%
%ADD28ROUNDEDRECTD28*%
G04:AMPARAMS|DCode=29|XSize=1.1mm|YSize=1mm|CornerRadius=0.075mm|HoleSize=0mm|Usage=FLASHONLY|Rotation=270.000|XOffset=0mm|YOffset=0mm|HoleType=Round|Shape=RoundedRectangle|*
%AMROUNDEDRECTD29*
21,1,1.1000,0.8500,0,0,270.0*
21,1,0.9500,1.0000,0,0,270.0*
1,1,0.1500,-0.4250,-0.4750*
1,1,0.1500,-0.4250,0.4750*
1,1,0.1500,0.4250,0.4750*
1,1,0.1500,0.4250,-0.4750*
%
%ADD29ROUNDEDRECTD29*%
G04:AMPARAMS|DCode=30|XSize=1mm|YSize=1.1mm|CornerRadius=0.075mm|HoleSize=0mm|Usage=FLASHONLY|Rotation=0.000|XOffset=0mm|YOffset=0mm|HoleType=Round|Shape=RoundedRectangle|*
%AMROUNDEDRECTD30*
21,1,1.0000,0.9500,0,0,0.0*
21,1,0.8500,1.1000,0,0,0.0*
1,1,0.1500,0.4250,-0.4750*
1,1,0.1500,-0.4250,-0.4750*
1,1,0.1500,-0.4250,0.4750*
1,1,0.1500,0.4250,0.4750*
%
%ADD30ROUNDEDRECTD30*%
G04:AMPARAMS|DCode=31|XSize=1mm|YSize=1.1mm|CornerRadius=0.075mm|HoleSize=0mm|Usage=FLASHONLY|Rotation=270.000|XOffset=0mm|YOffset=0mm|HoleType=Round|Shape=RoundedRectangle|*
%AMROUNDEDRECTD31*
21,1,1.0000,0.9500,0,0,270.0*
21,1,0.8500,1.1000,0,0,270.0*
1,1,0.1500,-0.4750,-0.4250*
1,1,0.1500,-0.4750,0.4250*
1,1,0.1500,0.4750,0.4250*
1,1,0.1500,0.4750,-0.4250*
%
%ADD31ROUNDEDRECTD31*%
G04:AMPARAMS|DCode=32|XSize=1.3mm|YSize=1.5mm|CornerRadius=0.0975mm|HoleSize=0mm|Usage=FLASHONLY|Rotation=270.000|XOffset=0mm|YOffset=0mm|HoleType=Round|Shape=RoundedRectangle|*
%AMROUNDEDRECTD32*
21,1,1.3000,1.3050,0,0,270.0*
21,1,1.1050,1.5000,0,0,270.0*
1,1,0.1950,-0.6525,-0.5525*
1,1,0.1950,-0.6525,0.5525*
1,1,0.1950,0.6525,0.5525*
1,1,0.1950,0.6525,-0.5525*
%
%ADD32ROUNDEDRECTD32*%
G04:AMPARAMS|DCode=33|XSize=1.1mm|YSize=1mm|CornerRadius=0.1mm|HoleSize=0mm|Usage=FLASHONLY|Rotation=270.000|XOffset=0mm|YOffset=0mm|HoleType=Round|Shape=RoundedRectangle|*
%AMROUNDEDRECTD33*
21,1,1.1000,0.8000,0,0,270.0*
21,1,0.9000,1.0000,0,0,270.0*
1,1,0.2000,-0.4000,-0.4500*
1,1,0.2000,-0.4000,0.4500*
1,1,0.2000,0.4000,0.4500*
1,1,0.2000,0.4000,-0.4500*
%
%ADD33ROUNDEDRECTD33*%
G04:AMPARAMS|DCode=34|XSize=1.1mm|YSize=0.6mm|CornerRadius=0.03mm|HoleSize=0mm|Usage=FLASHONLY|Rotation=180.000|XOffset=0mm|YOffset=0mm|HoleType=Round|Shape=RoundedRectangle|*
%AMROUNDEDRECTD34*
21,1,1.1000,0.5400,0,0,180.0*
21,1,1.0400,0.6000,0,0,180.0*
1,1,0.0600,-0.5200,0.2700*
1,1,0.0600,0.5200,0.2700*
1,1,0.0600,0.5200,-0.2700*
1,1,0.0600,-0.5200,-0.2700*
%
%ADD34ROUNDEDRECTD34*%
G04:AMPARAMS|DCode=35|XSize=1.45mm|YSize=0.3mm|CornerRadius=0.015mm|HoleSize=0mm|Usage=FLASHONLY|Rotation=180.000|XOffset=0mm|YOffset=0mm|HoleType=Round|Shape=RoundedRectangle|*
%AMROUNDEDRECTD35*
21,1,1.4500,0.2700,0,0,180.0*
21,1,1.4200,0.3000,0,0,180.0*
1,1,0.0300,-0.7100,0.1350*
1,1,0.0300,0.7100,0.1350*
1,1,0.0300,0.7100,-0.1350*
1,1,0.0300,-0.7100,-0.1350*
%
%ADD35ROUNDEDRECTD35*%
G04:AMPARAMS|DCode=36|XSize=1.1mm|YSize=1mm|CornerRadius=0.1mm|HoleSize=0mm|Usage=FLASHONLY|Rotation=0.000|XOffset=0mm|YOffset=0mm|HoleType=Round|Shape=RoundedRectangle|*
%AMROUNDEDRECTD36*
21,1,1.1000,0.8000,0,0,0.0*
21,1,0.9000,1.0000,0,0,0.0*
1,1,0.2000,0.4500,-0.4000*
1,1,0.2000,-0.4500,-0.4000*
1,1,0.2000,-0.4500,0.4000*
1,1,0.2000,0.4500,0.4000*
%
%ADD36ROUNDEDRECTD36*%
%ADD59C,0.4000*%
%ADD60C,0.5000*%
G04:AMPARAMS|DCode=61|XSize=1.7mm|YSize=1.1mm|CornerRadius=0.55mm|HoleSize=0mm|Usage=FLASHONLY|Rotation=180.000|XOffset=0mm|YOffset=0mm|HoleType=Round|Shape=RoundedRectangle|*
%AMROUNDEDRECTD61*
21,1,1.7000,0.0000,0,0,180.0*
21,1,0.6000,1.1000,0,0,180.0*
1,1,1.1000,-0.3000,0.0000*
1,1,1.1000,0.3000,0.0000*
1,1,1.1000,0.3000,0.0000*
1,1,1.1000,-0.3000,0.0000*
%
%ADD61ROUNDEDRECTD61*%
G04:AMPARAMS|DCode=62|XSize=1.5mm|YSize=3mm|CornerRadius=0.375mm|HoleSize=0mm|Usage=FLASHONLY|Rotation=90.000|XOffset=0mm|YOffset=0mm|HoleType=Round|Shape=RoundedRectangle|*
%AMROUNDEDRECTD62*
21,1,1.5000,2.2500,0,0,90.0*
21,1,0.7500,3.0000,0,0,90.0*
1,1,0.7500,1.1250,0.3750*
1,1,0.7500,1.1250,-0.3750*
1,1,0.7500,-1.1250,-0.3750*
1,1,0.7500,-1.1250,0.3750*
%
%ADD62ROUNDEDRECTD62*%
%ADD63C,3.7000*%
%ADD64C,6.0000*%
%ADD65C,0.5000*%
G36*
X579631Y598279D02*
X582630Y597475D01*
X585498Y596287D01*
X588186Y594735D01*
X590649Y592845D01*
X592845Y590650D01*
X594735Y588187D01*
X596287Y585498D01*
X597475Y582630D01*
X598279Y579631D01*
X598684Y576552D01*
Y575000D01*
Y405860D01*
X596171Y404576D01*
X595000Y404809D01*
X584500D01*
Y397250D01*
Y389691D01*
X595000D01*
X596171Y389924D01*
X598684Y388640D01*
Y306360D01*
X596171Y305076D01*
X595000Y305309D01*
X584500D01*
Y297750D01*
Y290191D01*
X595000D01*
X596171Y290424D01*
X598684Y289140D01*
Y234142D01*
Y231991D01*
X598122Y227724D01*
X597009Y223568D01*
X595362Y219592D01*
X593211Y215866D01*
X590591Y212452D01*
X587548Y209409D01*
X584134Y206789D01*
X580408Y204638D01*
X576432Y202991D01*
X572276Y201877D01*
X568009Y201316D01*
X231991D01*
X227724Y201877D01*
X223568Y202991D01*
X219592Y204638D01*
X215866Y206789D01*
X212452Y209409D01*
X209409Y212452D01*
X206789Y215866D01*
X204638Y219592D01*
X202991Y223568D01*
X201877Y227724D01*
X201316Y231991D01*
Y234142D01*
Y322372D01*
X203856Y323730D01*
X204494Y323303D01*
X206750Y322855D01*
X229250D01*
X231506Y323303D01*
X233493Y324510D01*
X235152Y322918D01*
X291982Y266087D01*
X292655Y265638D01*
X293447Y265481D01*
X293448Y265481D01*
X309412D01*
X309750Y265413D01*
X318250D01*
X318588Y265481D01*
X329412D01*
X329750Y265413D01*
X337461D01*
X340000Y265412D01*
Y265412D01*
X345000D01*
Y265412D01*
X345147Y265533D01*
X345750Y265413D01*
X355250D01*
X356335Y265629D01*
X357256Y266244D01*
X357426Y266500D01*
X371739D01*
X372244Y265744D01*
X373164Y265129D01*
X374250Y264914D01*
X383750D01*
X384354Y265034D01*
X384500Y264914D01*
Y264914D01*
X389500D01*
Y287298D01*
X390250Y287913D01*
X399750D01*
X400835Y288129D01*
X401756Y288744D01*
X402371Y289664D01*
X402587Y290750D01*
Y299250D01*
X402371Y300336D01*
X401756Y301256D01*
X400835Y301871D01*
X399750Y302087D01*
X398491D01*
Y319674D01*
X398234Y320962D01*
X397505Y322054D01*
X392178Y327381D01*
X391086Y328110D01*
X389798Y328367D01*
X389557D01*
X389325Y328650D01*
Y331350D01*
X389155Y332201D01*
X388956Y332500D01*
X389155Y332799D01*
X389325Y333650D01*
Y336350D01*
X389155Y337201D01*
X388673Y337923D01*
X387951Y338405D01*
X387100Y338575D01*
X372900D01*
X372049Y338405D01*
X371327Y337923D01*
X370845Y337201D01*
X370675Y336350D01*
Y333650D01*
X370845Y332799D01*
X371044Y332500D01*
X370845Y332201D01*
X370675Y331350D01*
Y328650D01*
X370443Y328367D01*
X370000D01*
X368712Y328110D01*
X367619Y327381D01*
X365619Y325381D01*
X364890Y324288D01*
X364633Y323000D01*
Y317000D01*
X364890Y315712D01*
X365314Y315076D01*
X362619Y312381D01*
X361890Y311288D01*
X361633Y310000D01*
Y280628D01*
X360027Y279022D01*
X357256Y278756D01*
X356335Y279371D01*
X355250Y279587D01*
X345750D01*
X345000Y280202D01*
Y300588D01*
X345000D01*
X344245Y302410D01*
X350768Y308933D01*
X351217Y309605D01*
X351375Y310398D01*
X351375Y310398D01*
Y312375D01*
X351335Y312575D01*
Y312779D01*
X351257Y312968D01*
X351217Y313168D01*
X351104Y313337D01*
X351026Y313526D01*
X350683Y314040D01*
X350492Y315000D01*
X350683Y315960D01*
X351026Y316474D01*
X351104Y316663D01*
X351217Y316832D01*
X351257Y317032D01*
X351335Y317221D01*
Y317425D01*
X351375Y317625D01*
Y331500D01*
X351217Y332293D01*
X350768Y332965D01*
X350096Y333414D01*
X349303Y333572D01*
X345539D01*
X344774Y334322D01*
X344736Y334428D01*
X344673Y337077D01*
X345155Y337799D01*
X345325Y338650D01*
Y341350D01*
X345155Y342201D01*
X344956Y342500D01*
X345155Y342799D01*
X345325Y343650D01*
Y346350D01*
X345155Y347201D01*
X344956Y347500D01*
X345155Y347799D01*
X345260Y348323D01*
X345312Y348495D01*
X345306Y348555D01*
X345325Y348650D01*
Y351350D01*
X345306Y351445D01*
X345312Y351505D01*
X345620Y351890D01*
X346712Y352619D01*
X360881Y366788D01*
X361610Y367880D01*
X361867Y369168D01*
Y372914D01*
X363250D01*
X364336Y373129D01*
X365256Y373744D01*
X365871Y374664D01*
X366087Y375750D01*
Y383388D01*
X367482Y385309D01*
X368297Y385928D01*
X370250D01*
X370295Y385937D01*
X370340Y385930D01*
X370626Y386000D01*
X379458Y386000D01*
X381826Y385586D01*
X390855Y370914D01*
X391020Y370737D01*
X391155Y370535D01*
X391293Y370443D01*
X391405Y370322D01*
X391626Y370220D01*
X391827Y370086D01*
X391989Y370054D01*
X392140Y369985D01*
X392382Y369976D01*
X392620Y369928D01*
X410142D01*
X415253Y364817D01*
X414500Y363000D01*
X414500D01*
Y310035D01*
X420035D01*
X430535Y299535D01*
X430535Y299535D01*
X431207Y299086D01*
X432000Y298928D01*
X432000Y298928D01*
X476142Y298928D01*
X484933Y290138D01*
Y279620D01*
X484909Y279500D01*
Y271500D01*
X483032Y270000D01*
X475679D01*
X475064Y270750D01*
Y273000D01*
X459936D01*
Y270750D01*
X460189Y269482D01*
X460907Y268407D01*
X460765Y265538D01*
X460629Y265336D01*
X460414Y264250D01*
Y254750D01*
X460629Y253664D01*
X461244Y252744D01*
X462164Y252129D01*
X463250Y251914D01*
X471750D01*
X472836Y252129D01*
X473756Y252744D01*
X474371Y253664D01*
X474586Y254750D01*
Y255644D01*
X484909D01*
Y255500D01*
X485144Y254317D01*
X485814Y253314D01*
X486817Y252644D01*
X488000Y252409D01*
X497000D01*
X498183Y252644D01*
X499186Y253314D01*
X499856Y254317D01*
X500091Y255500D01*
Y263500D01*
X499856Y264683D01*
X499186Y265686D01*
X498738Y265985D01*
X498785Y268196D01*
X498791Y268242D01*
X498931Y268678D01*
X499465Y269035D01*
X499914Y269707D01*
X500072Y270500D01*
Y271401D01*
X500091Y271500D01*
Y279500D01*
X500072Y279599D01*
Y290142D01*
X518229Y308299D01*
X520250Y309500D01*
Y309500D01*
X520250Y309500D01*
X535500D01*
Y311178D01*
X541770D01*
X541800Y311172D01*
X558200D01*
X558230Y311178D01*
X558500D01*
X559293Y311336D01*
X559965Y311785D01*
X560414Y312457D01*
X560572Y313250D01*
Y313521D01*
X560578Y313550D01*
Y318950D01*
X560572Y318979D01*
Y326021D01*
X560578Y326050D01*
Y331450D01*
X560572Y331479D01*
Y331750D01*
X560414Y332543D01*
X559965Y333215D01*
X559293Y333664D01*
X559266Y333795D01*
X559110Y336353D01*
X559881Y336869D01*
X560397Y337640D01*
X560578Y338550D01*
Y343950D01*
X560397Y344860D01*
X559881Y345631D01*
X559110Y346147D01*
X558816Y346205D01*
Y348795D01*
X559110Y348853D01*
X559881Y349369D01*
X560397Y350140D01*
X560578Y351050D01*
Y356450D01*
X560397Y357360D01*
X559881Y358131D01*
X559110Y358647D01*
X558200Y358828D01*
X541800D01*
X540890Y358647D01*
X540119Y358131D01*
X539603Y357360D01*
X539422Y356450D01*
Y351050D01*
X539603Y350140D01*
X540119Y349369D01*
X540890Y348853D01*
X541184Y348795D01*
Y346205D01*
X540890Y346147D01*
X540119Y345631D01*
X539603Y344860D01*
X539422Y343950D01*
Y340100D01*
X536882Y339048D01*
X526072Y349858D01*
Y407358D01*
X528612Y408914D01*
X530000Y408731D01*
X530500D01*
Y416800D01*
Y424869D01*
X530000D01*
X528612Y424686D01*
X526072Y426242D01*
Y436955D01*
X527380Y438921D01*
X538620D01*
X538657Y438928D01*
X539000D01*
X539793Y439086D01*
X540465Y439535D01*
X540914Y440207D01*
X541072Y441000D01*
Y441343D01*
X541079Y441380D01*
Y448220D01*
X541072Y448257D01*
Y448600D01*
X540914Y449393D01*
X540639Y449805D01*
X541104Y451008D01*
X541886Y452163D01*
X545428D01*
X545433Y452158D01*
X547099Y451468D01*
X548901D01*
X550567Y452158D01*
X551842Y453433D01*
X552532Y455098D01*
Y456902D01*
X551842Y458567D01*
X550694Y460000D01*
X551842Y461433D01*
X552532Y463098D01*
Y464902D01*
X551842Y466567D01*
X550567Y467842D01*
X548901Y468532D01*
X547099D01*
X546581Y468318D01*
X546334Y468367D01*
X542739D01*
X542189Y468921D01*
X541053Y470907D01*
X541072Y471000D01*
Y471743D01*
X541079Y471780D01*
Y478620D01*
X541072Y478657D01*
Y479500D01*
X540914Y480293D01*
X540465Y480965D01*
X539793Y481414D01*
X539000Y481572D01*
X521500D01*
Y485500D01*
X506250D01*
Y485500D01*
X505301Y485107D01*
X503072Y486809D01*
Y520169D01*
X506743Y525880D01*
X506811Y526053D01*
X506914Y526207D01*
X506958Y526425D01*
X507039Y526632D01*
X507036Y526818D01*
X507072Y527000D01*
Y529676D01*
X507086Y529750D01*
Y539250D01*
X507500Y540000D01*
X507500D01*
Y545000D01*
X507500D01*
X507047Y545552D01*
X507086Y545750D01*
Y555250D01*
X506871Y556335D01*
X506256Y557256D01*
X505336Y557871D01*
X504250Y558087D01*
X503367D01*
Y559000D01*
X503110Y560288D01*
X502381Y561381D01*
X497532Y566229D01*
Y566902D01*
X496842Y568567D01*
X495567Y569842D01*
X493901Y570532D01*
X492099D01*
X490433Y569842D01*
X489000Y568694D01*
X487567Y569842D01*
X485901Y570532D01*
X484099D01*
X482433Y569842D01*
X481158Y568567D01*
X480468Y566902D01*
Y566229D01*
X475119Y560881D01*
X474390Y559788D01*
X474133Y558500D01*
Y558087D01*
X473250D01*
X472164Y557871D01*
X471244Y557256D01*
X470629Y556335D01*
X470414Y555250D01*
Y547765D01*
X469805Y545688D01*
X467971Y545500D01*
X395000D01*
Y545500D01*
X392819Y544597D01*
X380951Y556465D01*
X380951Y556465D01*
X380279Y556914D01*
X379486Y557072D01*
X379486Y557072D01*
X372579D01*
X371795Y557228D01*
X366305D01*
X365521Y557072D01*
X359879D01*
X359095Y557228D01*
X353605D01*
X352821Y557072D01*
X347179D01*
X346395Y557228D01*
X340905D01*
X340121Y557072D01*
X334479D01*
X333695Y557228D01*
X328205D01*
X327293Y557046D01*
X326520Y556530D01*
X326004Y555757D01*
X325822Y554845D01*
Y545255D01*
X325928Y544722D01*
Y510000D01*
X326000Y509639D01*
Y502564D01*
X325986Y502543D01*
X325828Y501750D01*
Y501475D01*
X325822Y501445D01*
Y489355D01*
X325828Y489325D01*
Y486000D01*
X315000D01*
Y486000D01*
X312566Y485621D01*
X312000D01*
X311554Y485532D01*
X311098D01*
X310678Y485358D01*
X310232Y485269D01*
X309853Y485016D01*
X309433Y484842D01*
X309111Y484520D01*
X308733Y484267D01*
X308480Y483889D01*
X308158Y483567D01*
X307984Y483147D01*
X307731Y482768D01*
X307642Y482322D01*
X307468Y481902D01*
Y481446D01*
X307379Y481000D01*
X307468Y480554D01*
Y480098D01*
X307642Y479678D01*
X307731Y479232D01*
X307984Y478853D01*
X308158Y478433D01*
X308480Y478111D01*
X308733Y477733D01*
X309111Y477480D01*
X309433Y477158D01*
X309853Y476984D01*
X310232Y476731D01*
X310318Y476714D01*
X313504Y473527D01*
Y471557D01*
X313304Y471257D01*
X313122Y470345D01*
Y458255D01*
X312872Y457950D01*
X307500D01*
Y457793D01*
X305087Y457000D01*
X300511Y463211D01*
X300398Y463314D01*
X300314Y463441D01*
X300102Y463584D01*
X299914Y463756D01*
X299770Y463807D01*
X299643Y463893D01*
X299393Y463943D01*
X299153Y464030D01*
X299001Y464023D01*
X298851Y464054D01*
X261092Y464203D01*
X260729Y464132D01*
X260362Y464073D01*
X260333Y464055D01*
X260298Y464049D01*
X259989Y463844D01*
X259674Y463649D01*
X233590Y439429D01*
X233568Y439397D01*
X233535Y439376D01*
X233331Y439071D01*
X233117Y438774D01*
X233108Y438736D01*
X233086Y438703D01*
X233015Y438344D01*
X232930Y437987D01*
X232936Y437949D01*
X232928Y437911D01*
Y343569D01*
X230388Y341919D01*
X229250Y342145D01*
X206750D01*
X204494Y341697D01*
X203856Y341270D01*
X201316Y342628D01*
Y457372D01*
X203856Y458730D01*
X204494Y458303D01*
X206750Y457855D01*
X229250D01*
X231506Y458303D01*
X233419Y459581D01*
X234697Y461494D01*
X235145Y463750D01*
Y471250D01*
X234697Y473506D01*
X233419Y475419D01*
X231506Y476697D01*
X229250Y477145D01*
X206750D01*
X204494Y476697D01*
X203856Y476270D01*
X201316Y477628D01*
Y570607D01*
Y573060D01*
X202166Y577892D01*
X203842Y582502D01*
X206292Y586752D01*
X209441Y590514D01*
X213195Y593672D01*
X217440Y596131D01*
X222047Y597817D01*
X224461Y598248D01*
X224787Y598375D01*
X225127Y598462D01*
X225589Y598684D01*
X576552D01*
X579631Y598279D01*
D02*
G37*
G36*
X394986Y539500D02*
X468124D01*
X470414Y536643D01*
Y529750D01*
X470629Y528665D01*
X471244Y527744D01*
X472164Y527129D01*
X473250Y526913D01*
X478211D01*
X488000Y514699D01*
Y446486D01*
X481000Y439000D01*
X462914D01*
X458000Y448000D01*
Y454689D01*
Y510000D01*
X328000D01*
Y555000D01*
X379486D01*
X394986Y539500D01*
D02*
G37*
G36*
X452000Y454916D02*
X455928Y454767D01*
Y448000D01*
X455950Y447890D01*
X455940Y447779D01*
X456028Y447497D01*
X456086Y447207D01*
X456148Y447114D01*
X456181Y447007D01*
X461096Y438007D01*
X461386Y437319D01*
X461086Y436293D01*
X460928Y435500D01*
Y435229D01*
X460922Y435200D01*
Y429800D01*
X460928Y429771D01*
Y429500D01*
X461086Y428707D01*
X461535Y428035D01*
X462207Y427586D01*
X463000Y427428D01*
X463270D01*
X463300Y427422D01*
X472698D01*
X473928Y426192D01*
Y426091D01*
X473968Y425891D01*
Y425686D01*
X474006Y425496D01*
Y420504D01*
X473968Y420313D01*
Y420109D01*
X473928Y419909D01*
Y419858D01*
X466661Y412591D01*
X459000D01*
X458105Y412413D01*
X458000Y412500D01*
Y412500D01*
X451460D01*
X451111Y412569D01*
Y413000D01*
X450798Y414573D01*
X449907Y415907D01*
X448275Y417539D01*
X448381Y418619D01*
X448897Y419390D01*
X449078Y420300D01*
Y425700D01*
X448897Y426610D01*
X448381Y427381D01*
Y428119D01*
X448897Y428890D01*
X449078Y429800D01*
Y435200D01*
X448897Y436110D01*
X448507Y437250D01*
X448897Y438390D01*
X449078Y439300D01*
Y444700D01*
X448897Y445610D01*
X448381Y446381D01*
X447610Y446897D01*
X446700Y447078D01*
X436300D01*
X435390Y446897D01*
X434619Y446381D01*
X434103Y445610D01*
X434055Y445367D01*
X425587D01*
Y448250D01*
X425370Y449335D01*
X424756Y450256D01*
X423835Y450871D01*
X422750Y451087D01*
X421367D01*
Y457914D01*
X422750D01*
X423835Y458129D01*
X424756Y458744D01*
X425371Y459664D01*
X425587Y460750D01*
Y469250D01*
X425371Y470336D01*
X424756Y471256D01*
X423835Y471871D01*
X422750Y472086D01*
X421367D01*
Y479413D01*
X422750D01*
X423835Y479630D01*
X424756Y480244D01*
X425371Y481165D01*
X425587Y482250D01*
Y490750D01*
X425371Y491836D01*
X424756Y492756D01*
X423835Y493371D01*
X422750Y493587D01*
X413250D01*
X413122Y493561D01*
X412500Y494072D01*
Y494072D01*
X407500D01*
Y494072D01*
X407346Y493945D01*
X406750Y494064D01*
X404500D01*
Y486500D01*
Y478936D01*
X406750D01*
X407500Y478321D01*
Y474442D01*
X406750Y472086D01*
X397250D01*
X397176Y472072D01*
X390500D01*
X390162Y472005D01*
X390129Y472000D01*
X372687D01*
X372687Y472000D01*
Y472000D01*
X371165Y474003D01*
X371077Y474142D01*
X371563Y475248D01*
X372451Y476342D01*
X372614Y476456D01*
X373000Y476379D01*
X373447Y476468D01*
X373901D01*
X374322Y476642D01*
X374768Y476731D01*
X375147Y476984D01*
X375567Y477158D01*
X375889Y477480D01*
X376267Y477733D01*
X376520Y478111D01*
X376842Y478433D01*
X377016Y478853D01*
X377269Y479232D01*
X377358Y479678D01*
X377532Y480098D01*
Y480554D01*
X377621Y481000D01*
X377532Y481446D01*
Y481902D01*
X377358Y482322D01*
X377269Y482768D01*
X377016Y483147D01*
X376842Y483567D01*
X376520Y483889D01*
X376267Y484267D01*
X373671Y486864D01*
Y487956D01*
X373996Y488443D01*
X374178Y489355D01*
Y501445D01*
X374000Y502339D01*
Y507928D01*
X452000D01*
Y454916D01*
D02*
G37*
G36*
X488000Y430000D02*
Y394368D01*
X503500Y378868D01*
Y373000D01*
X458000D01*
Y389000D01*
Y408704D01*
X459796Y410500D01*
X467500Y410500D01*
X476000Y419000D01*
Y419909D01*
X476078Y420300D01*
Y425700D01*
X476000Y426091D01*
Y427050D01*
X473550Y429500D01*
X463000Y429500D01*
Y435500D01*
X482500D01*
X488000Y430000D01*
D02*
G37*
G36*
X411263Y418964D02*
X411744Y418244D01*
X412664Y417629D01*
X413750Y417413D01*
X422250D01*
X422854Y417534D01*
X423000Y417413D01*
Y417413D01*
X436000D01*
X438095Y416339D01*
X438593Y415593D01*
X439994Y414193D01*
X440814Y411686D01*
X440144Y410683D01*
X439908Y409500D01*
Y400500D01*
X440144Y399317D01*
X440814Y398314D01*
X441817Y397644D01*
X443000Y397409D01*
X444405D01*
Y389000D01*
X444405D01*
X444597Y388766D01*
X444405Y387800D01*
Y380211D01*
X441865Y378941D01*
X430250Y387652D01*
Y393000D01*
X397712D01*
X395924Y394804D01*
X396039Y408233D01*
X396575Y408536D01*
X398586Y409005D01*
X399433Y408158D01*
X401099Y407468D01*
X402901D01*
X404567Y408158D01*
X405842Y409433D01*
X406532Y411099D01*
Y412901D01*
X405842Y414567D01*
X405536Y414874D01*
X405775Y417413D01*
X406250D01*
X407336Y417629D01*
X408256Y418244D01*
X408799Y419058D01*
X411263Y418964D01*
D02*
G37*
G36*
X328205Y402472D02*
X329950D01*
X331002Y399932D01*
X317998Y386928D01*
X317105Y386507D01*
X314879Y386727D01*
X314466Y387141D01*
X312801Y387830D01*
X310998D01*
X309332Y387141D01*
X308057Y385866D01*
X307367Y384200D01*
Y382397D01*
X306665Y380371D01*
X305744Y379756D01*
X305129Y378835D01*
X304914Y377750D01*
Y368250D01*
X305000Y367815D01*
Y362185D01*
X304914Y361750D01*
Y352250D01*
X305129Y351165D01*
X305744Y350244D01*
X306665Y349630D01*
X307750Y349413D01*
X314825D01*
X318400Y345839D01*
X318258Y344960D01*
X317399Y343247D01*
X316712Y343110D01*
X315619Y342381D01*
X309619Y336381D01*
X308890Y335288D01*
X308650Y334086D01*
X307250D01*
X306164Y333871D01*
X305244Y333256D01*
X304629Y332336D01*
X304592Y332146D01*
X298881D01*
X298852Y332293D01*
X298402Y332965D01*
X297730Y333414D01*
X296937Y333572D01*
X279358Y333572D01*
X271627Y341302D01*
X271708Y341799D01*
X274000Y343400D01*
Y364000D01*
Y384106D01*
X272020Y383712D01*
X268290Y382167D01*
X264932Y379923D01*
X262077Y377068D01*
X261612Y376372D01*
X259072Y377143D01*
Y389142D01*
X272461Y402531D01*
X315211D01*
X315505Y402472D01*
X320995D01*
X321289Y402531D01*
X327911D01*
X328205Y402472D01*
D02*
G37*
G36*
X359400Y488600D02*
X377000Y461000D01*
Y395364D01*
X370250Y388000D01*
X370250D01*
Y388000D01*
X347000Y388000D01*
Y375000D01*
X336000D01*
X327000Y366000D01*
Y362434D01*
X326845Y362201D01*
X326675Y361350D01*
Y358650D01*
X326845Y357799D01*
X327000Y357566D01*
Y357434D01*
X326845Y357201D01*
X326675Y356350D01*
Y353650D01*
X326845Y352799D01*
X327000Y352566D01*
Y351496D01*
X328543D01*
X328900Y351425D01*
X343100D01*
X343250Y351302D01*
Y348698D01*
X343100Y348575D01*
X328900D01*
X328524Y348500D01*
X325261D01*
X319086Y354675D01*
Y361750D01*
X319000Y362185D01*
Y367815D01*
X319086Y368250D01*
Y377750D01*
X319000Y378185D01*
Y385000D01*
X334000Y400000D01*
X362000D01*
Y457950D01*
X327900D01*
Y501750D01*
X359400D01*
Y488600D01*
D02*
G37*
G36*
X505000Y527000D02*
X501000Y520778D01*
Y485000D01*
X506250Y479750D01*
Y479500D01*
X506500D01*
X506500Y479500D01*
X539000D01*
Y471000D01*
X524000D01*
Y448600D01*
X539000D01*
Y441000D01*
X524000D01*
Y421353D01*
X523421Y420598D01*
X522662Y418766D01*
X522403Y416800D01*
X522662Y414834D01*
X523421Y413002D01*
X524000Y412247D01*
Y349000D01*
X541250Y331750D01*
X558500D01*
Y313250D01*
X535500D01*
Y315500D01*
X520250D01*
Y313250D01*
X498000Y291000D01*
Y270500D01*
X487004D01*
Y290996D01*
X477000Y301000D01*
X432000Y301000D01*
X420500Y312500D01*
Y362500D01*
Y363000D01*
X420000D01*
X411000Y372000D01*
X392620D01*
X380000Y392507D01*
Y460667D01*
X390500Y470000D01*
X407500D01*
Y451750D01*
X406500D01*
Y439000D01*
X394233D01*
X393784Y387000D01*
X427667D01*
X442000Y376250D01*
Y346000D01*
X446000Y342000D01*
Y342000D01*
X504500D01*
Y371224D01*
X504965Y371535D01*
X505414Y372207D01*
X505572Y373000D01*
Y374082D01*
X505595Y374200D01*
Y387800D01*
X505345Y389061D01*
X504630Y390130D01*
X503561Y390844D01*
X502300Y391095D01*
X501442D01*
X490072Y401818D01*
Y430000D01*
X490000Y430361D01*
Y446125D01*
X490072Y446486D01*
Y514699D01*
X490015Y514986D01*
X489989Y515277D01*
X489936Y515379D01*
X489914Y515491D01*
X489752Y515735D01*
X489617Y515994D01*
X479828Y528209D01*
X479740Y528283D01*
X479676Y528378D01*
X479433Y528541D01*
X479209Y528729D01*
X479099Y528764D01*
X479004Y528828D01*
X478717Y528885D01*
X478438Y528973D01*
X478324Y528963D01*
X478211Y528985D01*
X473454D01*
X472973Y529081D01*
X472738Y529238D01*
X472581Y529473D01*
X472500Y529880D01*
Y540000D01*
X505000D01*
Y527000D01*
D02*
G37*
G36*
X298843Y461982D02*
X307500Y450233D01*
Y449767D01*
X359399D01*
Y404603D01*
X271602D01*
X257000Y390000D01*
Y353000D01*
X278500Y331500D01*
X296937Y331500D01*
Y323618D01*
X296912Y323579D01*
X296560Y321811D01*
X296912Y320043D01*
X296937Y320004D01*
Y312497D01*
X296586Y310729D01*
X296937Y308960D01*
X297939Y307461D01*
X299438Y306460D01*
X301206Y306108D01*
X304541D01*
X304629Y305665D01*
X304775Y305447D01*
X305000Y303000D01*
X305000Y302085D01*
Y297000D01*
X305521D01*
X306590Y295561D01*
X307055Y294460D01*
X306914Y293750D01*
Y284250D01*
X307000Y283815D01*
Y278000D01*
X321000D01*
Y283815D01*
X321087Y284250D01*
Y289171D01*
X322084Y289370D01*
X323176Y290099D01*
X326537Y293460D01*
X327267Y294552D01*
X327523Y295841D01*
Y319505D01*
X328900Y321425D01*
X343100D01*
X343951Y321595D01*
X344673Y322077D01*
X345155Y322799D01*
X345325Y323650D01*
Y326350D01*
X345155Y327201D01*
X344673Y327923D01*
X343951Y328405D01*
X343100Y328575D01*
X331185D01*
X328912Y331109D01*
X328912Y331115D01*
X328941Y331500D01*
X349303Y331500D01*
Y317625D01*
X348731Y316768D01*
X348379Y315000D01*
X348731Y313232D01*
X349303Y312375D01*
Y310398D01*
X340000Y301095D01*
Y267552D01*
X293447D01*
X235000Y326000D01*
Y328020D01*
X235145Y328750D01*
Y336250D01*
X235000Y336980D01*
Y437911D01*
X261084Y462131D01*
X298843Y461982D01*
D02*
G37*
%LPC*%
G36*
X555021Y584532D02*
X549979D01*
X544999Y583743D01*
X540204Y582185D01*
X535712Y579896D01*
X531633Y576933D01*
X528067Y573368D01*
X525104Y569288D01*
X522815Y564796D01*
X521257Y560001D01*
X520468Y555021D01*
Y549979D01*
X521257Y544999D01*
X522815Y540204D01*
X525104Y535712D01*
X528067Y531633D01*
X531633Y528067D01*
X535712Y525104D01*
X540204Y522815D01*
X544999Y521257D01*
X549979Y520468D01*
X555021D01*
X560001Y521257D01*
X564796Y522815D01*
X569288Y525104D01*
X573368Y528067D01*
X576933Y531633D01*
X579896Y535712D01*
X582185Y540204D01*
X583743Y544999D01*
X584532Y549979D01*
Y555021D01*
X583743Y560001D01*
X582185Y564796D01*
X579896Y569288D01*
X576933Y573368D01*
X573368Y576933D01*
X569288Y579896D01*
X564796Y582185D01*
X560001Y583743D01*
X555021Y584532D01*
D02*
G37*
G36*
X250021D02*
X244979D01*
X239999Y583743D01*
X235204Y582185D01*
X230712Y579896D01*
X226632Y576933D01*
X223067Y573368D01*
X220104Y569288D01*
X217815Y564796D01*
X216257Y560001D01*
X215468Y555021D01*
Y549979D01*
X216257Y544999D01*
X217815Y540204D01*
X220104Y535712D01*
X223067Y531633D01*
X226632Y528067D01*
X230712Y525104D01*
X235204Y522815D01*
X239999Y521257D01*
X244979Y520468D01*
X250021D01*
X255001Y521257D01*
X259796Y522815D01*
X264288Y525104D01*
X268367Y528067D01*
X271933Y531633D01*
X274896Y535712D01*
X277185Y540204D01*
X278743Y544999D01*
X279532Y549979D01*
Y555021D01*
X278743Y560001D01*
X277185Y564796D01*
X274896Y569288D01*
X271933Y573368D01*
X268367Y576933D01*
X264288Y579896D01*
X259796Y582185D01*
X255001Y583743D01*
X250021Y584532D01*
D02*
G37*
G36*
X574000Y511269D02*
X573500D01*
Y505700D01*
X581624D01*
X580988Y507234D01*
X579706Y508906D01*
X578035Y510188D01*
X576088Y510994D01*
X574000Y511269D01*
D02*
G37*
G36*
X536000D02*
X535500D01*
Y505700D01*
X543624D01*
X542988Y507234D01*
X541706Y508906D01*
X540034Y510188D01*
X538088Y510994D01*
X536000Y511269D01*
D02*
G37*
G36*
X530500D02*
X530000D01*
X527912Y510994D01*
X525965Y510188D01*
X524294Y508906D01*
X523012Y507234D01*
X522377Y505700D01*
X530500D01*
Y511269D01*
D02*
G37*
G36*
X568500D02*
X568000D01*
X565912Y510994D01*
X563965Y510188D01*
X562294Y508906D01*
X561012Y507234D01*
X560377Y505700D01*
X568500D01*
Y511269D01*
D02*
G37*
G36*
X581624Y500700D02*
X573500D01*
Y495131D01*
X574000D01*
X576088Y495406D01*
X578035Y496212D01*
X579706Y497494D01*
X580988Y499165D01*
X581624Y500700D01*
D02*
G37*
G36*
X568500D02*
X560376D01*
X561012Y499165D01*
X562294Y497494D01*
X563965Y496212D01*
X565912Y495406D01*
X568000Y495131D01*
X568500D01*
Y500700D01*
D02*
G37*
G36*
X543624D02*
X535500D01*
Y495131D01*
X536000D01*
X538088Y495406D01*
X540034Y496212D01*
X541706Y497494D01*
X542988Y499165D01*
X543624Y500700D01*
D02*
G37*
G36*
X530500D02*
X522376D01*
X523012Y499165D01*
X524294Y497494D01*
X525965Y496212D01*
X527912Y495406D01*
X530000Y495131D01*
X530500D01*
Y500700D01*
D02*
G37*
G36*
X574000Y424869D02*
X573500D01*
Y419300D01*
X581624D01*
X580988Y420835D01*
X579706Y422506D01*
X578035Y423788D01*
X576088Y424594D01*
X574000Y424869D01*
D02*
G37*
G36*
X536000D02*
X535500D01*
Y419300D01*
X543624D01*
X542988Y420835D01*
X541706Y422506D01*
X540034Y423788D01*
X538088Y424594D01*
X536000Y424869D01*
D02*
G37*
G36*
X568500D02*
X568000D01*
X565912Y424594D01*
X563965Y423788D01*
X562294Y422506D01*
X561012Y420835D01*
X560376Y419300D01*
X568500D01*
Y424869D01*
D02*
G37*
G36*
X581624Y414300D02*
X573500D01*
Y408731D01*
X574000D01*
X576088Y409006D01*
X578035Y409812D01*
X579706Y411094D01*
X580988Y412766D01*
X581624Y414300D01*
D02*
G37*
G36*
X568500D02*
X560376D01*
X561012Y412766D01*
X562294Y411094D01*
X563965Y409812D01*
X565912Y409006D01*
X568000Y408731D01*
X568500D01*
Y414300D01*
D02*
G37*
G36*
X543624D02*
X535500D01*
Y408731D01*
X536000D01*
X538088Y409006D01*
X540034Y409812D01*
X541706Y411094D01*
X542988Y412766D01*
X543624Y414300D01*
D02*
G37*
G36*
X579500Y404809D02*
X569000D01*
X567830Y404576D01*
X566837Y403913D01*
X566174Y402920D01*
X565941Y401750D01*
Y399750D01*
X579500D01*
Y404809D01*
D02*
G37*
G36*
Y394750D02*
X565941D01*
Y392750D01*
X566174Y391580D01*
X566837Y390587D01*
X567830Y389924D01*
X569000Y389691D01*
X579500D01*
Y394750D01*
D02*
G37*
G36*
Y305309D02*
X569000D01*
X567830Y305076D01*
X566837Y304413D01*
X566174Y303421D01*
X565941Y302250D01*
Y300250D01*
X579500D01*
Y305309D01*
D02*
G37*
G36*
Y295250D02*
X565941D01*
Y293250D01*
X566174Y292080D01*
X566837Y291087D01*
X567830Y290424D01*
X569000Y290191D01*
X579500D01*
Y295250D01*
D02*
G37*
G36*
X471750Y283564D02*
X470000D01*
Y278000D01*
X475064D01*
Y280250D01*
X474811Y281518D01*
X474093Y282593D01*
X473018Y283311D01*
X471750Y283564D01*
D02*
G37*
G36*
X465000D02*
X463250D01*
X461982Y283311D01*
X460907Y282593D01*
X460189Y281518D01*
X459936Y280250D01*
Y278000D01*
X465000D01*
Y283564D01*
D02*
G37*
G36*
X555021Y279532D02*
X549979D01*
X544999Y278743D01*
X540204Y277185D01*
X535712Y274896D01*
X531633Y271933D01*
X528067Y268367D01*
X525104Y264288D01*
X522815Y259796D01*
X521257Y255001D01*
X520468Y250021D01*
Y244979D01*
X521257Y239999D01*
X522815Y235204D01*
X525104Y230712D01*
X528067Y226632D01*
X531633Y223067D01*
X535712Y220104D01*
X540204Y217815D01*
X544999Y216257D01*
X549979Y215468D01*
X555021D01*
X560001Y216257D01*
X564796Y217815D01*
X569288Y220104D01*
X573368Y223067D01*
X576933Y226632D01*
X579896Y230712D01*
X582185Y235204D01*
X583743Y239999D01*
X584532Y244979D01*
Y250021D01*
X583743Y255001D01*
X582185Y259796D01*
X579896Y264288D01*
X576933Y268367D01*
X573368Y271933D01*
X569288Y274896D01*
X564796Y277185D01*
X560001Y278743D01*
X555021Y279532D01*
D02*
G37*
G36*
X250021D02*
X244979D01*
X239999Y278743D01*
X235204Y277185D01*
X230712Y274896D01*
X226632Y271933D01*
X223067Y268367D01*
X220104Y264288D01*
X217815Y259796D01*
X216257Y255001D01*
X215468Y250021D01*
Y244979D01*
X216257Y239999D01*
X217815Y235204D01*
X220104Y230712D01*
X223067Y226632D01*
X226632Y223067D01*
X230712Y220104D01*
X235204Y217815D01*
X239999Y216257D01*
X244979Y215468D01*
X250021D01*
X255001Y216257D01*
X259796Y217815D01*
X264288Y220104D01*
X268367Y223067D01*
X271933Y226632D01*
X274896Y230712D01*
X277185Y235204D01*
X278743Y239999D01*
X279532Y244979D01*
Y250021D01*
X278743Y255001D01*
X277185Y259796D01*
X274896Y264288D01*
X271933Y268367D01*
X268367Y271933D01*
X264288Y274896D01*
X259796Y277185D01*
X255001Y278743D01*
X250021Y279532D01*
D02*
G37*
G36*
X399500Y494064D02*
X397250D01*
X395982Y493811D01*
X394907Y493093D01*
X394189Y492018D01*
X393936Y490750D01*
Y489000D01*
X399500D01*
Y494064D01*
D02*
G37*
G36*
Y484000D02*
X393936D01*
Y482250D01*
X394189Y480982D01*
X394907Y479907D01*
X395982Y479189D01*
X397250Y478936D01*
X399500D01*
Y484000D01*
D02*
G37*
G36*
X282000Y384106D02*
Y368000D01*
X298106D01*
X297712Y369980D01*
X296167Y373710D01*
X293923Y377068D01*
X291068Y379923D01*
X287710Y382167D01*
X283980Y383712D01*
X282000Y384106D01*
D02*
G37*
G36*
X298106Y360000D02*
X282000D01*
Y343894D01*
X283980Y344288D01*
X287710Y345833D01*
X291068Y348077D01*
X293923Y350932D01*
X296167Y354290D01*
X297712Y358020D01*
X298106Y360000D01*
D02*
G37*
G36*
X282000Y456205D02*
Y440000D01*
X298205D01*
X298203Y440019D01*
X297031Y443883D01*
X295128Y447444D01*
X292566Y450566D01*
X289444Y453128D01*
X285883Y455031D01*
X282019Y456203D01*
X282000Y456205D01*
D02*
G37*
G36*
X274000D02*
X273981Y456203D01*
X270117Y455031D01*
X266556Y453128D01*
X263434Y450566D01*
X260872Y447444D01*
X258969Y443883D01*
X257797Y440019D01*
X257795Y440000D01*
X274000D01*
Y456205D01*
D02*
G37*
G36*
X298205Y432000D02*
X282000D01*
Y415795D01*
X282019Y415797D01*
X285883Y416969D01*
X289444Y418872D01*
X292566Y421434D01*
X295128Y424556D01*
X297031Y428117D01*
X298203Y431981D01*
X298205Y432000D01*
D02*
G37*
G36*
X274000D02*
X257795D01*
X257797Y431981D01*
X258969Y428117D01*
X260872Y424556D01*
X263434Y421434D01*
X266556Y418872D01*
X270117Y416969D01*
X273981Y415797D01*
X274000Y415795D01*
Y432000D01*
D02*
G37*
%LPD*%
D10*
X420000Y442000D02*
X441500D01*
X418000Y444000D02*
X420000Y442000D01*
X311000Y310000D02*
X312000Y311000D01*
X318000Y340000D02*
X336000D01*
X312000Y334000D02*
X318000Y340000D01*
X312000Y327000D02*
Y334000D01*
X350500Y272500D02*
X358267D01*
X365000Y279233D02*
Y310000D01*
X358267Y272500D02*
X365000Y279233D01*
Y310000D02*
X370000Y315000D01*
X380000D01*
X368000Y317000D02*
X370000Y315000D01*
X335802Y324802D02*
X336000Y325000D01*
X324156Y321488D02*
X327470Y324802D01*
X335802D01*
X324156Y295841D02*
Y321488D01*
X317480Y292480D02*
X320795D01*
X324156Y295841D01*
X314000Y289000D02*
X317480Y292480D01*
X324000Y345000D02*
X336000D01*
X312000Y357000D02*
X324000Y345000D01*
X500000Y550500D02*
Y559000D01*
X493000Y566000D02*
X500000Y559000D01*
X477500Y550500D02*
Y558500D01*
X485000Y566000D01*
X547334Y464000D02*
X548000D01*
X535000Y465000D02*
X546334D01*
X547334Y464000D01*
X535529Y455529D02*
X547529D01*
X548000Y456000D01*
X535000Y455000D02*
X535529Y455529D01*
X395000Y295000D02*
X395124Y295124D01*
Y319674D01*
X390552Y308552D02*
Y317780D01*
X383466Y305919D02*
X387919D01*
X390552Y308552D01*
X388332Y320000D02*
X390552Y317780D01*
X379000Y301453D02*
X383466Y305919D01*
X389798Y325000D02*
X395124Y319674D01*
X380000Y325000D02*
X389798D01*
X370000D02*
X380000D01*
X380163Y320000D02*
X388332D01*
X344332Y355000D02*
X358500Y369168D01*
X336000Y355000D02*
X344332D01*
X358500Y369168D02*
Y380000D01*
X418000Y465000D02*
Y486500D01*
Y444500D02*
Y465000D01*
Y444500D02*
X419000Y443500D01*
X368000Y317000D02*
Y323000D01*
X379000Y288911D02*
Y295000D01*
X379000Y272000D02*
Y288911D01*
X379000Y288911D02*
X379000Y288911D01*
X379000Y295000D02*
Y301453D01*
X368000Y323000D02*
X370000Y325000D01*
X402000Y412000D02*
Y425000D01*
X418000D02*
X425000D01*
X432500Y432500D01*
X441500D01*
D11*
X467500Y259500D02*
X492500D01*
D19*
X350000Y529000D02*
D03*
X337300Y430700D02*
D03*
D20*
X330950Y495400D02*
D03*
X343650D02*
D03*
X356350D02*
D03*
X369050D02*
D03*
X356350Y464300D02*
D03*
X343650D02*
D03*
X330950D02*
D03*
X318250D02*
D03*
D21*
X330950Y550050D02*
D03*
X343650D02*
D03*
X356350D02*
D03*
X369050D02*
D03*
X356350Y409650D02*
D03*
X343650D02*
D03*
X330950D02*
D03*
X318250D02*
D03*
D22*
X533000Y455000D02*
D03*
Y465000D02*
D03*
D23*
Y444800D02*
D03*
Y475200D02*
D03*
D24*
Y432500D02*
D03*
Y487500D02*
D03*
D25*
X550000Y378750D02*
D03*
Y366250D02*
D03*
Y353750D02*
D03*
Y341250D02*
D03*
Y328750D02*
D03*
Y316250D02*
D03*
D26*
X582000Y297750D02*
D03*
Y397250D02*
D03*
D27*
X312000Y311000D02*
D03*
Y327000D02*
D03*
X446500Y480000D02*
D03*
X463500D02*
D03*
X418000Y444000D02*
D03*
X401000D02*
D03*
X409000Y357500D02*
D03*
X426000D02*
D03*
X358500Y380000D02*
D03*
X341500D02*
D03*
X463500Y500000D02*
D03*
X446500D02*
D03*
X409000Y317500D02*
D03*
X426000D02*
D03*
X463500Y460000D02*
D03*
X446500D02*
D03*
X409000Y337500D02*
D03*
X426000D02*
D03*
X334000Y295000D02*
D03*
X351000D02*
D03*
D28*
X475000Y334000D02*
D03*
Y381000D02*
D03*
D29*
X402000Y425000D02*
D03*
X418000D02*
D03*
X455000Y534000D02*
D03*
Y551000D02*
D03*
X514000Y491000D02*
D03*
Y474000D02*
D03*
X422500Y398500D02*
D03*
Y381500D02*
D03*
X528000Y304000D02*
D03*
Y321000D02*
D03*
X402500Y398500D02*
D03*
Y381500D02*
D03*
D30*
X477500Y534500D02*
D03*
Y550500D02*
D03*
X312000Y357000D02*
D03*
Y373000D02*
D03*
X314000Y289000D02*
D03*
Y273000D02*
D03*
X467500Y275500D02*
D03*
Y259500D02*
D03*
X500000Y550500D02*
D03*
Y534500D02*
D03*
D31*
X418000Y465000D02*
D03*
X402000D02*
D03*
Y486500D02*
D03*
X418000D02*
D03*
X334500Y272500D02*
D03*
X350500D02*
D03*
X395000Y295000D02*
D03*
X379000D02*
D03*
X379000Y272000D02*
D03*
X395000D02*
D03*
D32*
X430000Y552000D02*
D03*
Y533000D02*
D03*
X402500Y552000D02*
D03*
Y533000D02*
D03*
D33*
X447000Y405000D02*
D03*
X463000D02*
D03*
D34*
X468500Y423000D02*
D03*
Y432500D02*
D03*
Y442000D02*
D03*
X441500Y423000D02*
D03*
Y432500D02*
D03*
Y442000D02*
D03*
D35*
X380000Y315000D02*
D03*
Y320000D02*
D03*
X336000Y340000D02*
D03*
Y350000D02*
D03*
Y315000D02*
D03*
Y320000D02*
D03*
Y330000D02*
D03*
Y325000D02*
D03*
Y360000D02*
D03*
Y355000D02*
D03*
Y345000D02*
D03*
X380000Y345000D02*
D03*
Y350000D02*
D03*
Y355000D02*
D03*
Y340000D02*
D03*
Y360000D02*
D03*
Y330000D02*
D03*
Y325000D02*
D03*
Y335000D02*
D03*
D36*
X492500Y275500D02*
D03*
Y259500D02*
D03*
D59*
X311899Y383298D02*
X311950Y383248D01*
Y373050D02*
Y383248D01*
Y373050D02*
X312000Y373000D01*
X441500Y418500D02*
Y423000D01*
Y418500D02*
X447000Y413000D01*
Y405000D02*
Y413000D01*
D60*
X301206Y310729D02*
X311004D01*
X369050Y484950D02*
X373000Y481000D01*
X369050Y484950D02*
Y495400D01*
X312000Y481000D02*
X312567D01*
X318125Y475442D01*
Y464425D02*
Y475442D01*
Y464425D02*
X318250Y464300D01*
D61*
X533000Y416800D02*
D03*
X571000D02*
D03*
X533000Y503200D02*
D03*
X571000D02*
D03*
D62*
X218000Y467500D02*
D03*
Y332500D02*
D03*
D63*
X278000Y436000D02*
D03*
Y364000D02*
D03*
D64*
X552500Y552500D02*
D03*
Y247500D02*
D03*
X247500D02*
D03*
Y552500D02*
D03*
D65*
X311899Y383298D02*
D03*
X301181Y321811D02*
D03*
X301206Y310729D02*
D03*
X529000Y552500D02*
D03*
X552500Y529000D02*
D03*
X576000Y552500D02*
D03*
X552500Y576000D02*
D03*
X536000Y569000D02*
D03*
X536000Y536000D02*
D03*
X569000Y536000D02*
D03*
X569000Y569000D02*
D03*
X529000Y247500D02*
D03*
X552500Y224000D02*
D03*
X576000Y247500D02*
D03*
X552500Y271000D02*
D03*
X536000Y264000D02*
D03*
X536000Y231000D02*
D03*
X569000Y231000D02*
D03*
X569000Y264000D02*
D03*
X224000Y247500D02*
D03*
X247500Y224000D02*
D03*
X271000Y247500D02*
D03*
X247500Y271000D02*
D03*
X231000Y264000D02*
D03*
X231000Y231000D02*
D03*
X264000Y231000D02*
D03*
X264000Y264000D02*
D03*
Y569000D02*
D03*
X264000Y536000D02*
D03*
X231000Y536000D02*
D03*
X231000Y569000D02*
D03*
X247500Y576000D02*
D03*
X271000Y552500D02*
D03*
X247500Y529000D02*
D03*
X224000Y552500D02*
D03*
X373000Y481000D02*
D03*
X402000Y516000D02*
D03*
X557000Y456000D02*
D03*
Y464000D02*
D03*
X505000Y568000D02*
D03*
X474000D02*
D03*
X489000Y574000D02*
D03*
X381000Y482000D02*
D03*
X291000Y471000D02*
D03*
X324850Y398903D02*
D03*
X538000Y366000D02*
D03*
Y379000D02*
D03*
X413000Y412000D02*
D03*
X312000Y481000D02*
D03*
X493000Y566000D02*
D03*
X485000D02*
D03*
X548000Y464000D02*
D03*
Y456000D02*
D03*
X351000Y284000D02*
D03*
X455000Y432500D02*
D03*
X514000Y506000D02*
D03*
X366000Y357000D02*
D03*
X388000Y486000D02*
D03*
X311000Y490000D02*
D03*
X260000Y495000D02*
D03*
X301000Y533000D02*
D03*
X236000Y296000D02*
D03*
X383000Y240000D02*
D03*
X347000D02*
D03*
X315000D02*
D03*
X419000D02*
D03*
X451000D02*
D03*
X483000D02*
D03*
X316000Y566000D02*
D03*
X348000D02*
D03*
X409000Y304000D02*
D03*
X528000Y289000D02*
D03*
X437500Y392500D02*
D03*
X409000Y272000D02*
D03*
X380000Y372000D02*
D03*
X395000Y337500D02*
D03*
Y355000D02*
D03*
X452500Y275000D02*
D03*
X571000Y328000D02*
D03*
Y369000D02*
D03*
X572500Y462500D02*
D03*
X554000Y432000D02*
D03*
X552500Y482500D02*
D03*
X455000Y561000D02*
D03*
X430000Y563000D02*
D03*
X402000D02*
D03*
X225500Y397000D02*
D03*
X432000Y500000D02*
D03*
X388000Y499000D02*
D03*
X432000Y460000D02*
D03*
X455000Y442000D02*
D03*
Y423000D02*
D03*
X302883Y384990D02*
D03*
X268000Y393000D02*
D03*
X364000Y344000D02*
D03*
X355000Y330000D02*
D03*
X353000Y315000D02*
D03*
X429000Y412000D02*
D03*
X432000Y480000D02*
D03*
X226000Y435000D02*
D03*
Y364000D02*
D03*
X207000Y416000D02*
D03*
Y380000D02*
D03*
Y348000D02*
D03*
Y316000D02*
D03*
Y270000D02*
D03*
Y452000D02*
D03*
Y484000D02*
D03*
Y506000D02*
D03*
Y534000D02*
D03*
X593000Y413000D02*
D03*
Y377000D02*
D03*
Y345000D02*
D03*
Y313000D02*
D03*
Y281000D02*
D03*
X589000Y449000D02*
D03*
Y481000D02*
D03*
X593000Y513000D02*
D03*
X584000Y216000D02*
D03*
X532000Y207000D02*
D03*
X216000Y216000D02*
D03*
X500000Y207000D02*
D03*
X468000D02*
D03*
X436000D02*
D03*
X268000D02*
D03*
X300000D02*
D03*
X332000D02*
D03*
X364000D02*
D03*
X400000D02*
D03*
X400000Y593000D02*
D03*
X436000D02*
D03*
X468000D02*
D03*
X500000D02*
D03*
X532000D02*
D03*
X364000D02*
D03*
X332000D02*
D03*
X300000D02*
D03*
X584000Y584000D02*
D03*
X268000Y593000D02*
D03*
X216000Y584000D02*
D03*
X402000Y412000D02*
D03*
M02*
