G04*
G04 #@! TF.GenerationSoftware,Altium Limited,Altium Designer,24.5.2 (23)*
G04*
G04 Layer_Physical_Order=4*
G04 Layer_Color=16711680*
%FSLAX44Y44*%
%MOMM*%
G71*
G04*
G04 #@! TF.SameCoordinates,77DF0842-A661-4F59-BA2F-9A799A7BDEE5*
G04*
G04*
G04 #@! TF.FilePolarity,Positive*
G04*
G01*
G75*
G04:AMPARAMS|DCode=61|XSize=1.7mm|YSize=1.1mm|CornerRadius=0.55mm|HoleSize=0mm|Usage=FLASHONLY|Rotation=180.000|XOffset=0mm|YOffset=0mm|HoleType=Round|Shape=RoundedRectangle|*
%AMROUNDEDRECTD61*
21,1,1.7000,0.0000,0,0,180.0*
21,1,0.6000,1.1000,0,0,180.0*
1,1,1.1000,-0.3000,0.0000*
1,1,1.1000,0.3000,0.0000*
1,1,1.1000,0.3000,0.0000*
1,1,1.1000,-0.3000,0.0000*
%
%ADD61ROUNDEDRECTD61*%
G04:AMPARAMS|DCode=62|XSize=1.5mm|YSize=3mm|CornerRadius=0.375mm|HoleSize=0mm|Usage=FLASHONLY|Rotation=90.000|XOffset=0mm|YOffset=0mm|HoleType=Round|Shape=RoundedRectangle|*
%AMROUNDEDRECTD62*
21,1,1.5000,2.2500,0,0,90.0*
21,1,0.7500,3.0000,0,0,90.0*
1,1,0.7500,1.1250,0.3750*
1,1,0.7500,1.1250,-0.3750*
1,1,0.7500,-1.1250,-0.3750*
1,1,0.7500,-1.1250,0.3750*
%
%ADD62ROUNDEDRECTD62*%
%ADD63C,3.7000*%
%ADD64C,6.0000*%
%ADD65C,0.5000*%
G36*
X579631Y598279D02*
X582630Y597475D01*
X585498Y596287D01*
X588186Y594735D01*
X590649Y592845D01*
X592845Y590650D01*
X594735Y588187D01*
X596287Y585498D01*
X597475Y582630D01*
X598279Y579631D01*
X598684Y576552D01*
Y575000D01*
Y234142D01*
Y231991D01*
X598122Y227724D01*
X597009Y223568D01*
X595362Y219592D01*
X593211Y215866D01*
X590591Y212452D01*
X587548Y209409D01*
X584134Y206789D01*
X580408Y204638D01*
X576432Y202991D01*
X572276Y201877D01*
X568009Y201316D01*
X231991D01*
X227724Y201877D01*
X223568Y202991D01*
X219592Y204638D01*
X215866Y206789D01*
X212452Y209409D01*
X209409Y212452D01*
X206789Y215866D01*
X204638Y219592D01*
X202991Y223568D01*
X201877Y227724D01*
X201316Y231991D01*
Y234142D01*
Y322372D01*
X203856Y323730D01*
X204494Y323303D01*
X206750Y322855D01*
X229250D01*
X231506Y323303D01*
X233419Y324581D01*
X234697Y326494D01*
X235145Y328750D01*
Y336250D01*
X234697Y338506D01*
X233419Y340419D01*
X231506Y341697D01*
X229250Y342145D01*
X206750D01*
X204494Y341697D01*
X203856Y341270D01*
X201316Y342628D01*
Y457372D01*
X203856Y458730D01*
X204494Y458303D01*
X206750Y457855D01*
X229250D01*
X231506Y458303D01*
X233419Y459581D01*
X234697Y461494D01*
X235145Y463750D01*
Y471250D01*
X234697Y473506D01*
X233419Y475419D01*
X231506Y476697D01*
X229250Y477145D01*
X206750D01*
X204494Y476697D01*
X203856Y476270D01*
X201316Y477628D01*
Y570607D01*
Y573060D01*
X202166Y577892D01*
X203842Y582502D01*
X206292Y586752D01*
X209441Y590514D01*
X213195Y593672D01*
X217440Y596131D01*
X222047Y597817D01*
X224461Y598248D01*
X224787Y598375D01*
X225127Y598462D01*
X225589Y598684D01*
X576552D01*
X579631Y598279D01*
D02*
G37*
%LPC*%
G36*
X493901Y570532D02*
X492099D01*
X490433Y569842D01*
X489000Y568694D01*
X487567Y569842D01*
X485901Y570532D01*
X484099D01*
X482433Y569842D01*
X481158Y568567D01*
X480468Y566902D01*
Y565098D01*
X481158Y563433D01*
X482433Y562158D01*
X484099Y561468D01*
X485901D01*
X487567Y562158D01*
X489000Y563306D01*
X490433Y562158D01*
X492099Y561468D01*
X493901D01*
X495567Y562158D01*
X496842Y563433D01*
X497532Y565098D01*
Y566902D01*
X496842Y568567D01*
X495567Y569842D01*
X493901Y570532D01*
D02*
G37*
G36*
X555021Y584532D02*
X549979D01*
X544999Y583743D01*
X540204Y582185D01*
X535712Y579896D01*
X531633Y576933D01*
X528067Y573368D01*
X525104Y569288D01*
X522815Y564796D01*
X521257Y560001D01*
X520468Y555021D01*
Y549979D01*
X521257Y544999D01*
X522815Y540204D01*
X525104Y535712D01*
X528067Y531633D01*
X531633Y528067D01*
X535712Y525104D01*
X540204Y522815D01*
X544999Y521257D01*
X549979Y520468D01*
X555021D01*
X560001Y521257D01*
X564796Y522815D01*
X569288Y525104D01*
X573368Y528067D01*
X576933Y531633D01*
X579896Y535712D01*
X582185Y540204D01*
X583743Y544999D01*
X584532Y549979D01*
Y555021D01*
X583743Y560001D01*
X582185Y564796D01*
X579896Y569288D01*
X576933Y573368D01*
X573368Y576933D01*
X569288Y579896D01*
X564796Y582185D01*
X560001Y583743D01*
X555021Y584532D01*
D02*
G37*
G36*
X250021D02*
X244979D01*
X239999Y583743D01*
X235204Y582185D01*
X230712Y579896D01*
X226632Y576933D01*
X223067Y573368D01*
X220104Y569288D01*
X217815Y564796D01*
X216257Y560001D01*
X215468Y555021D01*
Y549979D01*
X216257Y544999D01*
X217815Y540204D01*
X220104Y535712D01*
X223067Y531633D01*
X226632Y528067D01*
X230712Y525104D01*
X235204Y522815D01*
X239999Y521257D01*
X244979Y520468D01*
X250021D01*
X255001Y521257D01*
X259796Y522815D01*
X264288Y525104D01*
X268367Y528067D01*
X271933Y531633D01*
X274896Y535712D01*
X277185Y540204D01*
X278743Y544999D01*
X279532Y549979D01*
Y555021D01*
X278743Y560001D01*
X277185Y564796D01*
X274896Y569288D01*
X271933Y573368D01*
X268367Y576933D01*
X264288Y579896D01*
X259796Y582185D01*
X255001Y583743D01*
X250021Y584532D01*
D02*
G37*
G36*
X402901Y520532D02*
X401099D01*
X399433Y519842D01*
X398158Y518567D01*
X397468Y516902D01*
Y515098D01*
X398158Y513433D01*
X399433Y512158D01*
X401099Y511468D01*
X402901D01*
X404567Y512158D01*
X405842Y513433D01*
X406532Y515098D01*
Y516902D01*
X405842Y518567D01*
X404567Y519842D01*
X402901Y520532D01*
D02*
G37*
G36*
X574000Y511269D02*
X573500D01*
Y505700D01*
X581624D01*
X580988Y507234D01*
X579706Y508906D01*
X578035Y510188D01*
X576088Y510994D01*
X574000Y511269D01*
D02*
G37*
G36*
X536000D02*
X535500D01*
Y505700D01*
X543624D01*
X542988Y507234D01*
X541706Y508906D01*
X540034Y510188D01*
X538088Y510994D01*
X536000Y511269D01*
D02*
G37*
G36*
X530500D02*
X530000D01*
X527912Y510994D01*
X525965Y510188D01*
X524294Y508906D01*
X523012Y507234D01*
X522377Y505700D01*
X530500D01*
Y511269D01*
D02*
G37*
G36*
X568500D02*
X568000D01*
X565912Y510994D01*
X563965Y510188D01*
X562294Y508906D01*
X561012Y507234D01*
X560377Y505700D01*
X568500D01*
Y511269D01*
D02*
G37*
G36*
X581624Y500700D02*
X573500D01*
Y495131D01*
X574000D01*
X576088Y495406D01*
X578035Y496212D01*
X579706Y497494D01*
X580988Y499165D01*
X581624Y500700D01*
D02*
G37*
G36*
X568500D02*
X560376D01*
X561012Y499165D01*
X562294Y497494D01*
X563965Y496212D01*
X565912Y495406D01*
X568000Y495131D01*
X568500D01*
Y500700D01*
D02*
G37*
G36*
X543624D02*
X535500D01*
Y495131D01*
X536000D01*
X538088Y495406D01*
X540034Y496212D01*
X541706Y497494D01*
X542988Y499165D01*
X543624Y500700D01*
D02*
G37*
G36*
X530500D02*
X522376D01*
X523012Y499165D01*
X524294Y497494D01*
X525965Y496212D01*
X527912Y495406D01*
X530000Y495131D01*
X530500D01*
Y500700D01*
D02*
G37*
G36*
X373901Y485532D02*
X372099D01*
X370433Y484842D01*
X369158Y483567D01*
X368468Y481902D01*
Y480098D01*
X369158Y478433D01*
X370433Y477158D01*
X372099Y476468D01*
X373901D01*
X375567Y477158D01*
X376842Y478433D01*
X377532Y480098D01*
Y481902D01*
X376842Y483567D01*
X375567Y484842D01*
X373901Y485532D01*
D02*
G37*
G36*
X312901D02*
X311098D01*
X309433Y484842D01*
X308158Y483567D01*
X307468Y481902D01*
Y480098D01*
X308158Y478433D01*
X309433Y477158D01*
X311098Y476468D01*
X312901D01*
X314567Y477158D01*
X315842Y478433D01*
X316532Y480098D01*
Y481902D01*
X315842Y483567D01*
X314567Y484842D01*
X312901Y485532D01*
D02*
G37*
G36*
X548901Y468532D02*
X547099D01*
X545433Y467842D01*
X544158Y466567D01*
X543468Y464902D01*
Y463098D01*
X544158Y461433D01*
X545306Y460000D01*
X544158Y458567D01*
X543468Y456902D01*
Y455098D01*
X544158Y453433D01*
X545433Y452158D01*
X547099Y451468D01*
X548901D01*
X550567Y452158D01*
X551842Y453433D01*
X552532Y455098D01*
Y456902D01*
X551842Y458567D01*
X550694Y460000D01*
X551842Y461433D01*
X552532Y463098D01*
Y464902D01*
X551842Y466567D01*
X550567Y467842D01*
X548901Y468532D01*
D02*
G37*
G36*
X574000Y424869D02*
X573500D01*
Y419300D01*
X581624D01*
X580988Y420835D01*
X579706Y422506D01*
X578035Y423788D01*
X576088Y424594D01*
X574000Y424869D01*
D02*
G37*
G36*
X536000D02*
X535500D01*
Y419300D01*
X543624D01*
X542988Y420835D01*
X541706Y422506D01*
X540034Y423788D01*
X538088Y424594D01*
X536000Y424869D01*
D02*
G37*
G36*
X530500D02*
X530000D01*
X527912Y424594D01*
X525965Y423788D01*
X524294Y422506D01*
X523012Y420835D01*
X522376Y419300D01*
X530500D01*
Y424869D01*
D02*
G37*
G36*
X568500D02*
X568000D01*
X565912Y424594D01*
X563965Y423788D01*
X562294Y422506D01*
X561012Y420835D01*
X560376Y419300D01*
X568500D01*
Y424869D01*
D02*
G37*
G36*
X280022Y456532D02*
X275978D01*
X272011Y455743D01*
X268274Y454195D01*
X264912Y451948D01*
X262052Y449088D01*
X259805Y445726D01*
X258257Y441989D01*
X257468Y438022D01*
Y433978D01*
X258257Y430011D01*
X259805Y426274D01*
X262052Y422912D01*
X264912Y420052D01*
X268274Y417805D01*
X272011Y416257D01*
X275978Y415468D01*
X280022D01*
X283989Y416257D01*
X287726Y417805D01*
X291088Y420052D01*
X293948Y422912D01*
X296195Y426274D01*
X297743Y430011D01*
X298532Y433978D01*
Y438022D01*
X297743Y441989D01*
X296195Y445726D01*
X293948Y449088D01*
X291088Y451948D01*
X287726Y454195D01*
X283989Y455743D01*
X280022Y456532D01*
D02*
G37*
G36*
X581624Y414300D02*
X573500D01*
Y408731D01*
X574000D01*
X576088Y409006D01*
X578035Y409812D01*
X579706Y411094D01*
X580988Y412766D01*
X581624Y414300D01*
D02*
G37*
G36*
X568500D02*
X560376D01*
X561012Y412766D01*
X562294Y411094D01*
X563965Y409812D01*
X565912Y409006D01*
X568000Y408731D01*
X568500D01*
Y414300D01*
D02*
G37*
G36*
X543624D02*
X535500D01*
Y408731D01*
X536000D01*
X538088Y409006D01*
X540034Y409812D01*
X541706Y411094D01*
X542988Y412766D01*
X543624Y414300D01*
D02*
G37*
G36*
X530500D02*
X522376D01*
X523012Y412766D01*
X524294Y411094D01*
X525965Y409812D01*
X527912Y409006D01*
X530000Y408731D01*
X530500D01*
Y414300D01*
D02*
G37*
G36*
X402901Y416532D02*
X401099D01*
X399433Y415842D01*
X398158Y414567D01*
X397468Y412901D01*
Y411099D01*
X398158Y409433D01*
X399433Y408158D01*
X401099Y407468D01*
X402901D01*
X404567Y408158D01*
X405842Y409433D01*
X406532Y411099D01*
Y412901D01*
X405842Y414567D01*
X404567Y415842D01*
X402901Y416532D01*
D02*
G37*
G36*
X312801Y387830D02*
X310998D01*
X309332Y387141D01*
X308057Y385866D01*
X307367Y384200D01*
Y382397D01*
X308057Y380731D01*
X309332Y379456D01*
X310998Y378766D01*
X312801D01*
X314466Y379456D01*
X315741Y380731D01*
X316431Y382397D01*
Y384200D01*
X315741Y385866D01*
X314466Y387141D01*
X312801Y387830D01*
D02*
G37*
G36*
X282000Y384106D02*
Y368000D01*
X298106D01*
X297712Y369980D01*
X296167Y373710D01*
X293923Y377068D01*
X291068Y379923D01*
X287710Y382167D01*
X283980Y383712D01*
X282000Y384106D01*
D02*
G37*
G36*
X274000D02*
X272020Y383712D01*
X268290Y382167D01*
X264932Y379923D01*
X262077Y377068D01*
X259833Y373710D01*
X258288Y369980D01*
X257894Y368000D01*
X274000D01*
Y384106D01*
D02*
G37*
G36*
X298106Y360000D02*
X282000D01*
Y343894D01*
X283980Y344288D01*
X287710Y345833D01*
X291068Y348077D01*
X293923Y350932D01*
X296167Y354290D01*
X297712Y358020D01*
X298106Y360000D01*
D02*
G37*
G36*
X274000D02*
X257894D01*
X258288Y358020D01*
X259833Y354290D01*
X262077Y350932D01*
X264932Y348077D01*
X268290Y345833D01*
X272020Y344288D01*
X274000Y343894D01*
Y360000D01*
D02*
G37*
G36*
X302108Y315261D02*
X300305D01*
X298639Y314571D01*
X297364Y313296D01*
X296674Y311630D01*
Y309827D01*
X297364Y308161D01*
X298639Y306887D01*
X300305Y306197D01*
X302108D01*
X303774Y306887D01*
X305049Y308161D01*
X305739Y309827D01*
Y311630D01*
X305049Y313296D01*
X303774Y314571D01*
X302108Y315261D01*
D02*
G37*
G36*
X555021Y279532D02*
X549979D01*
X544999Y278743D01*
X540204Y277185D01*
X535712Y274896D01*
X531633Y271933D01*
X528067Y268367D01*
X525104Y264288D01*
X522815Y259796D01*
X521257Y255001D01*
X520468Y250021D01*
Y244979D01*
X521257Y239999D01*
X522815Y235204D01*
X525104Y230712D01*
X528067Y226632D01*
X531633Y223067D01*
X535712Y220104D01*
X540204Y217815D01*
X544999Y216257D01*
X549979Y215468D01*
X555021D01*
X560001Y216257D01*
X564796Y217815D01*
X569288Y220104D01*
X573368Y223067D01*
X576933Y226632D01*
X579896Y230712D01*
X582185Y235204D01*
X583743Y239999D01*
X584532Y244979D01*
Y250021D01*
X583743Y255001D01*
X582185Y259796D01*
X579896Y264288D01*
X576933Y268367D01*
X573368Y271933D01*
X569288Y274896D01*
X564796Y277185D01*
X560001Y278743D01*
X555021Y279532D01*
D02*
G37*
G36*
X250021D02*
X244979D01*
X239999Y278743D01*
X235204Y277185D01*
X230712Y274896D01*
X226632Y271933D01*
X223067Y268367D01*
X220104Y264288D01*
X217815Y259796D01*
X216257Y255001D01*
X215468Y250021D01*
Y244979D01*
X216257Y239999D01*
X217815Y235204D01*
X220104Y230712D01*
X223067Y226632D01*
X226632Y223067D01*
X230712Y220104D01*
X235204Y217815D01*
X239999Y216257D01*
X244979Y215468D01*
X250021D01*
X255001Y216257D01*
X259796Y217815D01*
X264288Y220104D01*
X268367Y223067D01*
X271933Y226632D01*
X274896Y230712D01*
X277185Y235204D01*
X278743Y239999D01*
X279532Y244979D01*
Y250021D01*
X278743Y255001D01*
X277185Y259796D01*
X274896Y264288D01*
X271933Y268367D01*
X268367Y271933D01*
X264288Y274896D01*
X259796Y277185D01*
X255001Y278743D01*
X250021Y279532D01*
D02*
G37*
%LPD*%
D61*
X533000Y416800D02*
D03*
X571000D02*
D03*
X533000Y503200D02*
D03*
X571000D02*
D03*
D62*
X218000Y467500D02*
D03*
Y332500D02*
D03*
D63*
X278000Y436000D02*
D03*
Y364000D02*
D03*
D64*
X552500Y552500D02*
D03*
Y247500D02*
D03*
X247500D02*
D03*
Y552500D02*
D03*
D65*
X311899Y383298D02*
D03*
X301181Y321811D02*
D03*
X301206Y310729D02*
D03*
X529000Y552500D02*
D03*
X552500Y529000D02*
D03*
X576000Y552500D02*
D03*
X552500Y576000D02*
D03*
X536000Y569000D02*
D03*
X536000Y536000D02*
D03*
X569000Y536000D02*
D03*
X569000Y569000D02*
D03*
X529000Y247500D02*
D03*
X552500Y224000D02*
D03*
X576000Y247500D02*
D03*
X552500Y271000D02*
D03*
X536000Y264000D02*
D03*
X536000Y231000D02*
D03*
X569000Y231000D02*
D03*
X569000Y264000D02*
D03*
X224000Y247500D02*
D03*
X247500Y224000D02*
D03*
X271000Y247500D02*
D03*
X247500Y271000D02*
D03*
X231000Y264000D02*
D03*
X231000Y231000D02*
D03*
X264000Y231000D02*
D03*
X264000Y264000D02*
D03*
Y569000D02*
D03*
X264000Y536000D02*
D03*
X231000Y536000D02*
D03*
X231000Y569000D02*
D03*
X247500Y576000D02*
D03*
X271000Y552500D02*
D03*
X247500Y529000D02*
D03*
X224000Y552500D02*
D03*
X373000Y481000D02*
D03*
X402000Y516000D02*
D03*
X557000Y456000D02*
D03*
Y464000D02*
D03*
X505000Y568000D02*
D03*
X474000D02*
D03*
X489000Y574000D02*
D03*
X381000Y482000D02*
D03*
X291000Y471000D02*
D03*
X324850Y398903D02*
D03*
X538000Y366000D02*
D03*
Y379000D02*
D03*
X413000Y412000D02*
D03*
X312000Y481000D02*
D03*
X493000Y566000D02*
D03*
X485000D02*
D03*
X548000Y464000D02*
D03*
Y456000D02*
D03*
X351000Y284000D02*
D03*
X455000Y432500D02*
D03*
X514000Y506000D02*
D03*
X366000Y357000D02*
D03*
X388000Y486000D02*
D03*
X311000Y490000D02*
D03*
X260000Y495000D02*
D03*
X301000Y533000D02*
D03*
X236000Y296000D02*
D03*
X383000Y240000D02*
D03*
X347000D02*
D03*
X315000D02*
D03*
X419000D02*
D03*
X451000D02*
D03*
X483000D02*
D03*
X316000Y566000D02*
D03*
X348000D02*
D03*
X409000Y304000D02*
D03*
X528000Y289000D02*
D03*
X437500Y392500D02*
D03*
X409000Y272000D02*
D03*
X380000Y372000D02*
D03*
X395000Y337500D02*
D03*
Y355000D02*
D03*
X452500Y275000D02*
D03*
X571000Y328000D02*
D03*
Y369000D02*
D03*
X572500Y462500D02*
D03*
X554000Y432000D02*
D03*
X552500Y482500D02*
D03*
X455000Y561000D02*
D03*
X430000Y563000D02*
D03*
X402000D02*
D03*
X225500Y397000D02*
D03*
X432000Y500000D02*
D03*
X388000Y499000D02*
D03*
X432000Y460000D02*
D03*
X455000Y442000D02*
D03*
Y423000D02*
D03*
X302883Y384990D02*
D03*
X268000Y393000D02*
D03*
X364000Y344000D02*
D03*
X355000Y330000D02*
D03*
X353000Y315000D02*
D03*
X429000Y412000D02*
D03*
X432000Y480000D02*
D03*
X226000Y435000D02*
D03*
Y364000D02*
D03*
X207000Y416000D02*
D03*
Y380000D02*
D03*
Y348000D02*
D03*
Y316000D02*
D03*
Y270000D02*
D03*
Y452000D02*
D03*
Y484000D02*
D03*
Y506000D02*
D03*
Y534000D02*
D03*
X593000Y413000D02*
D03*
Y377000D02*
D03*
Y345000D02*
D03*
Y313000D02*
D03*
Y281000D02*
D03*
X589000Y449000D02*
D03*
Y481000D02*
D03*
X593000Y513000D02*
D03*
X584000Y216000D02*
D03*
X532000Y207000D02*
D03*
X216000Y216000D02*
D03*
X500000Y207000D02*
D03*
X468000D02*
D03*
X436000D02*
D03*
X268000D02*
D03*
X300000D02*
D03*
X332000D02*
D03*
X364000D02*
D03*
X400000D02*
D03*
X400000Y593000D02*
D03*
X436000D02*
D03*
X468000D02*
D03*
X500000D02*
D03*
X532000D02*
D03*
X364000D02*
D03*
X332000D02*
D03*
X300000D02*
D03*
X584000Y584000D02*
D03*
X268000Y593000D02*
D03*
X216000Y584000D02*
D03*
X402000Y412000D02*
D03*
M02*
