M48
;Layer_Color=9474304
;FILE_FORMAT=2:4
INCH,LZ
;TYPE=PLATED
T1F00S00C0.0118
T2F00S00C0.0394
T3F00S00C0.0522
T4F00S00C0.0945
%
T01
X022598Y006348
X025433Y004931
X02685
X028268
Y003514
Y012018
X028622Y012618
X02685Y012018
X025433
X024016
X022598Y013435
X02189Y013032
X025492Y013415
X021181Y012018
Y0106
Y009183
Y006348
X019764
X018346
Y007766
Y0106
Y012018
X019764
X018997Y013213
X016929Y012018
X015512Y013435
X014962Y013306
X014696Y013486
X01437Y013467
X012677Y013435
X01126
X009843
X008425
X007008
X007018Y011968
X007008Y0106
X008031Y011535
X00878Y008622
X009055Y008741
X009724Y008425
Y008139
X01126Y009183
Y0106
X012677
X012579Y007244
X012539Y006614
X014803Y007913
X009843Y004931
X010482Y004232
X010728Y002175
X010098Y002146
X009764Y002187
X010246Y00126
X012677Y000679
X008407Y00253
X006978
X007008Y003514
X007726Y003907
X008199Y003898
X007421Y00437
X008425Y004931
Y006348
X006496Y00752
X006526Y00815
X005591Y009183
Y0106
X004173Y007766
X002756
Y009183
Y012018
X001339
Y013435
Y007766
X001447Y006998
X001339Y006348
Y004931
X001447Y003415
X002756Y002096
X004173
Y003514
Y004931
X005354Y004567
Y003937
X005591Y000679
X004173
X002756
Y014852
X001978Y014734
X001348Y014715
X001713Y016289
X00189Y018307
X001339Y019104
X002756
X004173
X004882Y019094
X005295Y019282
X005266Y018258
Y017618
X005276Y016831
X004173Y01627
X004134Y019803
X004911Y020502
X005512Y020965
X005591Y023356
X003179Y022766
X00189Y02189
X001339Y020522
X002756
X006261Y020374
X005915Y019291
X007146Y01938
X007256Y019087
X007106Y019774
X007126Y021457
X007099Y021801
X005915Y022077
X00687Y023356
X007657Y024183
X008553Y023671
X008898Y023642
X009203Y023691
X009413Y024356
X010157Y023937
X011526Y02377
X011614Y024055
X01126Y024774
X013071Y024075
X013386Y023858
X013622Y023622
X014675Y022736
X015512Y021939
X016319Y022096
X017215Y022933
X016535Y024026
X016929Y024774
X016063Y02502
X015591Y025039
X01563Y026033
X016929Y026191
X018346
Y027608
Y029026
X019764
X020157Y029016
X016929Y029026
Y027608
X015512
X012677
X01126
X008425
Y029026
X007766Y022628
X008425Y021939
X009843
X01126
X012677
Y020522
Y019104
Y017687
Y01627
Y014852
X01126
Y01627
Y017687
Y019104
Y020522
X009843
Y019104
Y017687
Y01627
Y014852
X008425
Y01627
Y017687
X007431Y017313
X007175Y016998
X007146Y015935
X008425Y019104
Y020522
X015512
Y019104
Y017687
Y01627
Y014852
X016378Y014951
Y015295
Y01562
X018248Y015541
X018278Y016171
Y014783
X019154Y0144
X019764Y014852
X021181
X020669Y013819
X02063Y015866
X019764Y017687
Y019104
X018248Y019075
X018218Y018484
X018248Y017854
Y019705
X018888Y020256
X018907Y02122
X018346Y021939
X017874Y021634
X018346Y024774
X014065Y013504
X022598Y014852
X024016
X025433
X025502Y015768
X025817Y017146
X025433Y017687
X024016
X024016Y019488
X023524
Y01998
Y020472
Y020965
Y021457
X023031
Y020965
Y020472
Y01998
Y019488
X024016Y01998
Y020472
Y020965
X024508
Y021457
X024016
X024508Y020472
Y01998
Y019488
X022598Y021939
Y023356
Y024774
Y026191
X023819Y026102
X025433Y026191
X025778Y026299
X025187Y027205
X025492Y02813
X024862Y028494
X023406
X022598Y029026
Y027608
X02815Y027362
Y026772
X02874
Y026181
X02815
X029331Y026181
Y026772
Y027362
X029331Y027953
X02874
Y027362
X02815Y027953
X025787Y022677
X028268Y017687
X028888Y017648
X028789Y017077
X028268Y014852
X02685
X028888Y013947
X022598Y01627
X02185Y016654
X022598Y030443
Y03186
X024016
X020157Y030118
X018346Y030443
X008425
Y03186
X002756
T02
X021614Y0011
Y0021
Y0031
X023164
Y0021
Y0011
X024714
Y0021
Y0031
X026264
Y0021
Y0011
X020064
Y0021
Y0031
X018514
Y0021
Y0011
X016964
Y0021
Y0031
X015414
Y0021
Y0011
X013864
Y0021
Y0031
X01075Y001254
X00975
X00875
X00775
X00675
X013285Y009665
X014285
X015285
X016285
X017285
X00452Y010472
X00352
X00252
X00152
Y025079
X00252
X00352
X00452
Y026614
X00352
X00252
X00152
X021378Y026583
Y027583
Y028583
Y025583
Y024583
X02138Y023585
Y022583
Y021584
X021378Y029583
Y030583
X021646Y032047
X020646
X019646
X018646
X017646
X016646
X014803Y032276
Y031276
Y030276
Y029276
X013268
Y030276
Y031276
Y032276
X011732
Y031276
Y030276
Y029276
X010197
Y030276
Y031276
Y032276
X007205Y032087
X006205
X00652Y029882
X00552
X00452
X00352
X00252
X00152
X004205Y032087
X005205
T03
X024213Y030945
X026181
T04
X028504Y001417
X001417
X028504Y032047
X001417
M30
