M48
;Layer_Color=9474304
;FILE_FORMAT=2:4
INCH,LZ
;TYPE=PLATED
T1F00S00C0.0118
%
T01
X022963Y006998
X022972Y007785
Y008691
Y009498
Y010295
X014921Y011506
X013809Y011388
X012726Y011506
X011634Y011516
X005787Y012569
X005915Y009488
X005413Y006929
X004134Y006378
X005423Y005049
X004931Y012579
X002638Y012638
X002648Y013386
X004331Y016024
X005266Y015335
Y017126
X003937Y017805
X006132Y015059
X008271Y02372
X008406Y024764
X006535Y025522
M30
