M48
;Layer_Color=9474304
;FILE_FORMAT=2:4
INCH,LZ
;TYPE=PLATED
T1F00S00C0.0118
%
T01
X022638Y011811
X015561Y011496
X014676Y012303
X013346Y011506
X012254Y011496
X011112Y011516
X009281Y011476
X006614Y013159
X005896Y008878
X006226Y006761
X003465Y009409
X002559
X002598Y014055
X001496Y022982
X003568Y023908
X005512Y024813
Y027451
X006535Y024134
X008407Y025364
X019528Y02686
X018248Y014134
X022638Y017913
M30
