G04*
G04 #@! TF.GenerationSoftware,Altium Limited,Altium Designer,24.7.2 (38)*
G04*
G04 Layer_Physical_Order=3*
G04 Layer_Color=14067636*
%FSLAX25Y25*%
%MOIN*%
G70*
G04*
G04 #@! TF.SameCoordinates,AB7849DE-EAC8-4354-A705-FC1E97C67EB3*
G04*
G04*
G04 #@! TF.FilePolarity,Positive*
G04*
G01*
G75*
%ADD10C,0.01968*%
%ADD15C,0.01000*%
%ADD21C,0.00500*%
%ADD87C,0.23622*%
%ADD88C,0.10630*%
%ADD89C,0.07874*%
%ADD106C,0.02756*%
%ADD107C,0.01968*%
%ADD108C,0.06000*%
%ADD109C,0.03937*%
G36*
X318108Y337780D02*
X318217Y336953D01*
X317754Y336829D01*
X316498Y336104D01*
X315471Y335077D01*
X314746Y333820D01*
X314370Y332419D01*
Y330967D01*
X314746Y329565D01*
X315471Y328309D01*
X316498Y327282D01*
X317754Y326557D01*
X319156Y326181D01*
X320607D01*
X322009Y326557D01*
X323266Y327282D01*
X324292Y328309D01*
X325018Y329565D01*
X325394Y330967D01*
Y332419D01*
X325018Y333820D01*
X324292Y335077D01*
X323266Y336104D01*
X322009Y336829D01*
X321547Y336953D01*
X321655Y337780D01*
X361416Y337780D01*
X361524Y336953D01*
X361062Y336829D01*
X359805Y336104D01*
X358778Y335077D01*
X358053Y333820D01*
X357677Y332419D01*
Y330967D01*
X358053Y329565D01*
X358778Y328309D01*
X359805Y327282D01*
X361062Y326557D01*
X362463Y326181D01*
X363915D01*
X365317Y326557D01*
X366573Y327282D01*
X367600Y328309D01*
X368325Y329565D01*
X368701Y330967D01*
Y332419D01*
X368325Y333820D01*
X367600Y335077D01*
X366573Y336104D01*
X365317Y336829D01*
X364854Y336953D01*
X364962Y337780D01*
X390102D01*
X390930D01*
X392573Y337564D01*
X394173Y337135D01*
X395704Y336501D01*
X397139Y335672D01*
X398453Y334664D01*
X399624Y333492D01*
X400633Y332178D01*
X401461Y330743D01*
X402096Y329212D01*
X402524Y327612D01*
X402740Y325969D01*
X402740Y325141D01*
X402740Y198481D01*
Y197653D01*
X402524Y196010D01*
X402096Y194410D01*
X401461Y192879D01*
X400633Y191444D01*
X399624Y190130D01*
X398453Y188958D01*
X397138Y187950D01*
X395704Y187121D01*
X394173Y186487D01*
X392573Y186058D01*
X390930Y185842D01*
X390102Y185842D01*
X143363Y185842D01*
X142535D01*
X140892Y186058D01*
X139292Y186487D01*
X137761Y187121D01*
X136326Y187950D01*
X135012Y188958D01*
X133840Y190130D01*
X132832Y191444D01*
X132003Y192879D01*
X131369Y194410D01*
X130940Y196010D01*
X130724Y197653D01*
X130724Y198481D01*
X130724Y324803D01*
X130724Y325141D01*
Y325969D01*
X130940Y327612D01*
X131369Y329212D01*
X132003Y330743D01*
X132832Y332178D01*
X133840Y333492D01*
X135012Y334664D01*
X136326Y335672D01*
X137761Y336501D01*
X139292Y337135D01*
X140892Y337564D01*
X142535Y337780D01*
X143363Y337780D01*
X318108Y337780D01*
D02*
G37*
%LPC*%
G36*
X196809Y326575D02*
X196104D01*
X195453Y326305D01*
X194955Y325807D01*
X194685Y325155D01*
Y324752D01*
X194311Y324468D01*
X193504Y324892D01*
Y325155D01*
X193234Y325807D01*
X192736Y326305D01*
X192085Y326575D01*
X191380D01*
X190729Y326305D01*
X190230Y325807D01*
X189961Y325155D01*
Y324527D01*
X188738Y323305D01*
X188116Y323800D01*
X188149Y323880D01*
X188386Y324451D01*
Y325155D01*
X188116Y325807D01*
X187618Y326305D01*
X186967Y326575D01*
X186262D01*
X185611Y326305D01*
X185112Y325807D01*
X184843Y325155D01*
Y324876D01*
X184827Y324805D01*
X184827Y324770D01*
X184518Y324478D01*
X184453Y324430D01*
X184232Y324484D01*
X184193Y324499D01*
X183661Y324975D01*
Y325155D01*
X183392Y325807D01*
X182893Y326305D01*
X182242Y326575D01*
X181537D01*
X180886Y326305D01*
X180388Y325807D01*
X180118Y325155D01*
Y324876D01*
X180103Y324805D01*
X180101Y324707D01*
X180097Y324638D01*
X180089Y324581D01*
X180081Y324535D01*
X180071Y324501D01*
X180063Y324477D01*
X180058Y324468D01*
X173465Y317874D01*
X173235Y317531D01*
X173155Y317126D01*
Y270824D01*
X173151Y270814D01*
X173140Y270791D01*
X173123Y270760D01*
X173097Y270721D01*
X173061Y270676D01*
X173016Y270624D01*
X172948Y270554D01*
X172908Y270492D01*
X172711Y270295D01*
X172441Y269644D01*
Y268939D01*
X172711Y268288D01*
X173209Y267789D01*
X173860Y267520D01*
X174253D01*
X174452Y267217D01*
X174576Y266697D01*
X168801Y260923D01*
X168410Y260337D01*
X168272Y259646D01*
X167446Y259641D01*
X167394Y259900D01*
X166916Y260616D01*
X166199Y261095D01*
X165354Y261263D01*
X164509Y261095D01*
X163793Y260616D01*
X158380Y255203D01*
X157901Y254487D01*
X157733Y253642D01*
Y245895D01*
X151195Y239356D01*
X150716Y238640D01*
X150548Y237795D01*
Y227953D01*
Y224803D01*
X150716Y223958D01*
X151195Y223242D01*
X169699Y204738D01*
X170415Y204259D01*
X171260Y204091D01*
X172105Y204259D01*
X172821Y204738D01*
X173300Y205454D01*
X173468Y206299D01*
X173300Y207144D01*
X172821Y207860D01*
X154964Y225718D01*
Y227953D01*
Y236881D01*
X161502Y243419D01*
X161981Y244135D01*
X162149Y244980D01*
Y252727D01*
X166916Y257494D01*
X167394Y258210D01*
X167446Y258470D01*
X168272Y258388D01*
Y232056D01*
X168239Y231890D01*
Y218931D01*
X168377Y218239D01*
X168768Y217653D01*
X175494Y210927D01*
X176080Y210536D01*
X176772Y210398D01*
X191378D01*
X213683Y188093D01*
X213831Y187994D01*
X213957Y187868D01*
X214121Y187800D01*
X214269Y187701D01*
X214444Y187666D01*
X214608Y187598D01*
X214786D01*
X214961Y187564D01*
X215135Y187598D01*
X215313D01*
X215477Y187666D01*
X215652Y187701D01*
X215800Y187800D01*
X215964Y187868D01*
X216090Y187994D01*
X216238Y188093D01*
X216337Y188241D01*
X216463Y188366D01*
X216531Y188531D01*
X216630Y188679D01*
X216664Y188853D01*
X216732Y189018D01*
Y189196D01*
X216767Y189370D01*
X216732Y189545D01*
Y189723D01*
X216664Y189887D01*
X216630Y190061D01*
X216531Y190209D01*
X216463Y190374D01*
X216337Y190499D01*
X216238Y190647D01*
X216238Y190647D01*
X193403Y213482D01*
X193255Y213581D01*
X193130Y213707D01*
X192965Y213775D01*
X192817Y213874D01*
X192643Y213908D01*
X192478Y213976D01*
X192300D01*
X192126Y214011D01*
X177520D01*
X171852Y219679D01*
Y222225D01*
X172616Y222542D01*
X178150Y217007D01*
X178494Y216778D01*
X178898Y216697D01*
X203621D01*
X204020Y216100D01*
Y215396D01*
X204289Y214744D01*
X204788Y214246D01*
X205439Y213976D01*
X206144D01*
X206280Y214033D01*
X206913Y213400D01*
X206890Y213345D01*
Y212640D01*
X207159Y211989D01*
X207658Y211490D01*
X208309Y211221D01*
X209014D01*
X209665Y211490D01*
X209862Y211688D01*
X209924Y211727D01*
X209994Y211796D01*
X210046Y211841D01*
X210091Y211876D01*
X210130Y211902D01*
X210161Y211920D01*
X210184Y211931D01*
X210194Y211934D01*
X223268D01*
X223673Y212015D01*
X224016Y212244D01*
X225961Y214189D01*
X226787Y213846D01*
Y213410D01*
X227060Y212393D01*
X227587Y211481D01*
X228331Y210736D01*
X229243Y210210D01*
X230261Y209937D01*
X230287D01*
Y213937D01*
X230787D01*
Y214437D01*
X234787D01*
Y214464D01*
X234515Y215481D01*
X234163Y216090D01*
X234561Y216917D01*
X237014D01*
X237412Y216090D01*
X237060Y215481D01*
X236787Y214464D01*
Y214437D01*
X240787D01*
X244787D01*
Y214464D01*
X244515Y215481D01*
X244295Y215862D01*
X244772Y216688D01*
X246802D01*
X247280Y215862D01*
X247060Y215481D01*
X246787Y214464D01*
Y214437D01*
X250787D01*
X254787D01*
Y214464D01*
X254515Y215481D01*
X254163Y216090D01*
X254561Y216917D01*
X257014D01*
X257412Y216090D01*
X257060Y215481D01*
X256787Y214464D01*
Y214437D01*
X260787D01*
X264787D01*
Y214464D01*
X264515Y215481D01*
X264163Y216090D01*
X264561Y216917D01*
X279204D01*
X279207Y216910D01*
X279705Y216411D01*
X280356Y216142D01*
X281061D01*
X281712Y216411D01*
X282211Y216910D01*
X282480Y217561D01*
Y218266D01*
X282211Y218917D01*
X281712Y219415D01*
X281061Y219685D01*
X280356D01*
X279705Y219415D01*
X279322Y219032D01*
X256907D01*
X256590Y219796D01*
X279338Y242543D01*
X319863D01*
X347739Y214668D01*
X348324Y214276D01*
X349016Y214139D01*
X376181D01*
X376356Y214173D01*
X376534D01*
X376698Y214241D01*
X376872Y214276D01*
X377020Y214375D01*
X377185Y214443D01*
X377310Y214569D01*
X377458Y214668D01*
X377557Y214815D01*
X377683Y214941D01*
X377751Y215106D01*
X377850Y215254D01*
X377885Y215428D01*
X377953Y215593D01*
Y215770D01*
X377988Y215945D01*
X377953Y216119D01*
Y216297D01*
X377885Y216462D01*
X377850Y216636D01*
X377751Y216784D01*
X377683Y216948D01*
X377557Y217074D01*
X377458Y217222D01*
X377310Y217321D01*
X377185Y217447D01*
X377020Y217515D01*
X376872Y217614D01*
X376698Y217649D01*
X376534Y217717D01*
X376356D01*
X376181Y217751D01*
X349764D01*
X321888Y245627D01*
X321302Y246019D01*
X320611Y246156D01*
X315249D01*
X314907Y246983D01*
X331827Y263903D01*
X359885D01*
X359895Y263899D01*
X359918Y263889D01*
X359949Y263871D01*
X359987Y263845D01*
X360033Y263809D01*
X360085Y263764D01*
X360155Y263696D01*
X360216Y263656D01*
X360414Y263459D01*
X361065Y263189D01*
X361770D01*
X362421Y263459D01*
X362919Y263957D01*
X363189Y264608D01*
Y265313D01*
X362919Y265964D01*
X362421Y266463D01*
X361770Y266732D01*
X361065D01*
X360414Y266463D01*
X360216Y266265D01*
X360155Y266225D01*
X360085Y266157D01*
X360033Y266112D01*
X359987Y266077D01*
X359949Y266051D01*
X359918Y266033D01*
X359895Y266022D01*
X359885Y266018D01*
X331389D01*
X330984Y265938D01*
X330641Y265709D01*
X313037Y248105D01*
X276575D01*
X276170Y248024D01*
X275827Y247795D01*
X262514Y234483D01*
X261688Y234825D01*
Y248425D01*
X261607Y248830D01*
X261378Y249173D01*
X259508Y251042D01*
X259504Y251052D01*
X259496Y251076D01*
X259486Y251110D01*
X259477Y251156D01*
X259470Y251213D01*
X259466Y251281D01*
X259464Y251380D01*
X259449Y251451D01*
Y251730D01*
X259179Y252381D01*
X258681Y252880D01*
X258030Y253150D01*
X257325D01*
X256674Y252880D01*
X256341Y252548D01*
X256213Y252676D01*
X255562Y252946D01*
X254857D01*
X254206Y252676D01*
X254038Y252509D01*
X253740Y252807D01*
X253089Y253076D01*
X252384D01*
X251733Y252807D01*
X251450Y252524D01*
X251100Y252875D01*
X250449Y253145D01*
X249744D01*
X249237Y252935D01*
X249140Y253169D01*
X248942Y253366D01*
X248903Y253428D01*
X248834Y253498D01*
X248789Y253550D01*
X248754Y253595D01*
X248728Y253634D01*
X248710Y253665D01*
X248699Y253688D01*
X248695Y253698D01*
Y254235D01*
X248615Y254639D01*
X248502Y254808D01*
X248694Y255372D01*
X248902Y255635D01*
X279331D01*
X279735Y255716D01*
X280079Y255945D01*
X280236Y256102D01*
X280864D01*
X281515Y256372D01*
X282014Y256871D01*
X282283Y257522D01*
Y258226D01*
X282014Y258878D01*
X281515Y259376D01*
X280864Y259646D01*
X280159D01*
X279508Y259376D01*
X279010Y258878D01*
X278740Y258226D01*
Y257751D01*
X211024D01*
X210827Y257912D01*
Y261679D01*
X215098D01*
X215503Y261759D01*
X215846Y261988D01*
X224060Y270202D01*
X276772D01*
X277176Y270283D01*
X277520Y270512D01*
X290989Y283982D01*
X303277D01*
X303721Y283537D01*
X304372Y283268D01*
X305077D01*
X305728Y283537D01*
X306226Y284036D01*
X306496Y284687D01*
Y285392D01*
X306226Y286043D01*
X305728Y286541D01*
X305077Y286811D01*
X304372D01*
X303721Y286541D01*
X303277Y286097D01*
X290551D01*
X290146Y286017D01*
X289803Y285787D01*
X276333Y272318D01*
X223622D01*
X223217Y272237D01*
X222874Y272008D01*
X214660Y263794D01*
X209980D01*
X209576Y263713D01*
X209232Y263484D01*
X208543Y262795D01*
X208465D01*
Y262716D01*
X200748Y255000D01*
X200703Y254933D01*
X200002Y255090D01*
X199866Y255169D01*
X199796Y255523D01*
X199567Y255866D01*
X199469Y255964D01*
X199465Y255973D01*
X199456Y255997D01*
X199447Y256031D01*
X199438Y256077D01*
X199431Y256134D01*
X199426Y256203D01*
X199425Y256301D01*
X199409Y256372D01*
Y256652D01*
X199140Y257303D01*
X198641Y257801D01*
X197990Y258071D01*
X197285D01*
X196634Y257801D01*
X196143Y257310D01*
X195651Y257801D01*
X195000Y258071D01*
X194295D01*
X193644Y257801D01*
X193387Y257544D01*
X193130Y257801D01*
X192478Y258071D01*
X191774D01*
X191122Y257801D01*
X190624Y257303D01*
X190354Y256652D01*
Y256372D01*
X190339Y256301D01*
X190338Y256203D01*
X190333Y256134D01*
X190326Y256077D01*
X190317Y256031D01*
X190307Y255997D01*
X190299Y255973D01*
X190295Y255964D01*
X187835Y253504D01*
X187606Y253161D01*
X187525Y252756D01*
Y243409D01*
X187606Y243004D01*
X187835Y242661D01*
X203083Y227412D01*
X202767Y226648D01*
X201029D01*
X183538Y244139D01*
Y254091D01*
X183458Y254496D01*
X183268Y254780D01*
Y255470D01*
X183095Y255887D01*
X183646Y256554D01*
X183785Y256496D01*
X184490D01*
X185141Y256766D01*
X185376Y257000D01*
X185611Y256766D01*
X186262Y256496D01*
X186967D01*
X187618Y256766D01*
X188116Y257264D01*
X188386Y257915D01*
Y258620D01*
X188116Y259271D01*
X187919Y259469D01*
X187879Y259530D01*
X187810Y259601D01*
X187765Y259652D01*
X187730Y259698D01*
X187704Y259736D01*
X187686Y259767D01*
X187675Y259790D01*
X187672Y259800D01*
Y271696D01*
X187675Y271706D01*
X187686Y271729D01*
X187704Y271760D01*
X187730Y271798D01*
X187765Y271844D01*
X187810Y271896D01*
X187879Y271966D01*
X187919Y272027D01*
X188116Y272225D01*
X188386Y272876D01*
Y273581D01*
X188116Y274232D01*
X187618Y274730D01*
X186967Y275000D01*
X186262D01*
X185611Y274730D01*
X185112Y274232D01*
X184843Y273581D01*
Y272876D01*
X185112Y272225D01*
X185310Y272027D01*
X185349Y271966D01*
X185328Y271356D01*
X185325Y271333D01*
X185175Y271235D01*
X184615Y270896D01*
X184211Y271063D01*
X183506D01*
X182855Y270793D01*
X182356Y270295D01*
X182232Y269996D01*
X181406Y270161D01*
Y270731D01*
X181402Y270749D01*
Y308253D01*
X196181Y323031D01*
X196809D01*
X197460Y323301D01*
X197959Y323800D01*
X198228Y324451D01*
Y325155D01*
X197959Y325807D01*
X197460Y326305D01*
X196809Y326575D01*
D02*
G37*
G36*
X245579Y327510D02*
X244859Y327415D01*
X244189Y327137D01*
X243613Y326695D01*
X243171Y326120D01*
X242894Y325449D01*
X242799Y324730D01*
X242894Y324010D01*
X243171Y323340D01*
X243613Y322764D01*
X244136Y322241D01*
X244712Y321799D01*
X245382Y321522D01*
X246102Y321427D01*
X290876D01*
X291596Y321522D01*
X292266Y321799D01*
X292842Y322241D01*
X293284Y322817D01*
X293561Y323487D01*
X293656Y324206D01*
X293561Y324926D01*
X293284Y325596D01*
X292842Y326172D01*
X292266Y326614D01*
X291596Y326891D01*
X290876Y326986D01*
X247165D01*
X246968Y327137D01*
X246298Y327415D01*
X245579Y327510D01*
D02*
G37*
G36*
X286573Y314370D02*
X285868D01*
X285217Y314100D01*
X284773Y313656D01*
X281764D01*
X281359Y313576D01*
X281016Y313346D01*
X279554Y311884D01*
X277981D01*
X277537Y312329D01*
X276886Y312598D01*
X276181D01*
X275530Y312329D01*
X275032Y311830D01*
X274762Y311179D01*
Y310474D01*
X275032Y309823D01*
X275530Y309325D01*
X276181Y309055D01*
X276886D01*
X277537Y309325D01*
X277981Y309769D01*
X279992D01*
X280397Y309850D01*
X280740Y310079D01*
X282202Y311541D01*
X284773D01*
X285217Y311097D01*
X285868Y310827D01*
X286573D01*
X287224Y311097D01*
X287722Y311595D01*
X287992Y312246D01*
Y312951D01*
X287722Y313602D01*
X287224Y314100D01*
X286573Y314370D01*
D02*
G37*
G36*
X387864Y335236D02*
X385757D01*
X383677Y334907D01*
X381673Y334256D01*
X379795Y333299D01*
X378091Y332061D01*
X376601Y330571D01*
X375362Y328866D01*
X374406Y326989D01*
X373755Y324985D01*
X373425Y322904D01*
Y320797D01*
X373755Y318716D01*
X374406Y316712D01*
X375362Y314835D01*
X376601Y313130D01*
X378091Y311640D01*
X379795Y310402D01*
X381673Y309445D01*
X383677Y308794D01*
X385757Y308465D01*
X387864D01*
X389946Y308794D01*
X391949Y309445D01*
X393827Y310402D01*
X395531Y311640D01*
X397021Y313130D01*
X398260Y314835D01*
X399216Y316712D01*
X399867Y318716D01*
X400197Y320797D01*
Y322904D01*
X399867Y324985D01*
X399216Y326989D01*
X398260Y328866D01*
X397021Y330571D01*
X395531Y332061D01*
X393827Y333299D01*
X391949Y334256D01*
X389946Y334907D01*
X387864Y335236D01*
D02*
G37*
G36*
X147707D02*
X145600D01*
X143519Y334907D01*
X141515Y334256D01*
X139638Y333299D01*
X137933Y332061D01*
X136443Y330571D01*
X135205Y328866D01*
X134248Y326989D01*
X133597Y324985D01*
X133268Y322904D01*
Y320797D01*
X133597Y318716D01*
X134248Y316712D01*
X135205Y314835D01*
X136443Y313130D01*
X137933Y311640D01*
X139638Y310402D01*
X141515Y309445D01*
X143519Y308794D01*
X145600Y308465D01*
X147707D01*
X149788Y308794D01*
X151792Y309445D01*
X153669Y310402D01*
X155374Y311640D01*
X156864Y313130D01*
X158102Y314835D01*
X159059Y316712D01*
X159710Y318716D01*
X160039Y320797D01*
Y322904D01*
X159710Y324985D01*
X159059Y326989D01*
X158102Y328866D01*
X156864Y330571D01*
X155374Y332061D01*
X153669Y333299D01*
X151792Y334256D01*
X149788Y334907D01*
X147707Y335236D01*
D02*
G37*
G36*
X235982Y314567D02*
X235278D01*
X234626Y314297D01*
X234128Y313799D01*
X233858Y313148D01*
Y312443D01*
X234128Y311792D01*
X234572Y311348D01*
Y310503D01*
X234128Y310059D01*
X233858Y309407D01*
Y308703D01*
X234128Y308052D01*
X234626Y307553D01*
X235278Y307283D01*
X235982D01*
X236633Y307553D01*
X237132Y308052D01*
X237402Y308703D01*
Y309407D01*
X237132Y310059D01*
X236688Y310503D01*
Y311348D01*
X237132Y311792D01*
X237402Y312443D01*
Y313148D01*
X237132Y313799D01*
X236633Y314297D01*
X235982Y314567D01*
D02*
G37*
G36*
X352378Y298563D02*
Y293323D01*
X357618D01*
X357450Y294165D01*
X356974Y295314D01*
X356283Y296348D01*
X355403Y297228D01*
X354369Y297919D01*
X353220Y298395D01*
X352378Y298563D01*
D02*
G37*
G36*
X350378D02*
X349536Y298395D01*
X348387Y297919D01*
X347352Y297228D01*
X346473Y296348D01*
X345782Y295314D01*
X345306Y294165D01*
X345138Y293323D01*
X350378D01*
Y298563D01*
D02*
G37*
G36*
X357618Y291323D02*
X352378D01*
Y286083D01*
X353220Y286251D01*
X354369Y286727D01*
X355403Y287418D01*
X356283Y288297D01*
X356974Y289332D01*
X357450Y290481D01*
X357618Y291323D01*
D02*
G37*
G36*
X350378D02*
X345138D01*
X345306Y290481D01*
X345782Y289332D01*
X346473Y288297D01*
X347352Y287418D01*
X348387Y286727D01*
X349536Y286251D01*
X350378Y286083D01*
Y291323D01*
D02*
G37*
G36*
X332371Y299213D02*
X331014D01*
X329683Y298948D01*
X328429Y298429D01*
X327301Y297674D01*
X326341Y296715D01*
X325587Y295586D01*
X325068Y294333D01*
X324803Y293001D01*
Y291644D01*
X325068Y290313D01*
X325587Y289059D01*
X326341Y287931D01*
X327301Y286971D01*
X328429Y286217D01*
X329683Y285698D01*
X331014Y285433D01*
X332371D01*
X333703Y285698D01*
X334956Y286217D01*
X336085Y286971D01*
X337045Y287931D01*
X337799Y289059D01*
X338318Y290313D01*
X338583Y291644D01*
Y293001D01*
X338318Y294333D01*
X337799Y295586D01*
X337045Y296715D01*
X336085Y297674D01*
X334956Y298429D01*
X333703Y298948D01*
X332371Y299213D01*
D02*
G37*
G36*
X201575Y316147D02*
X201400Y316112D01*
X201222D01*
X201058Y316044D01*
X200884Y316009D01*
X200736Y315911D01*
X200571Y315843D01*
X200446Y315717D01*
X200297Y315618D01*
X200199Y315470D01*
X200073Y315344D01*
X200005Y315180D01*
X199906Y315032D01*
X199871Y314857D01*
X199803Y314693D01*
Y314515D01*
X199768Y314341D01*
Y314134D01*
X192620Y306986D01*
X192229Y306400D01*
X192091Y305709D01*
Y278346D01*
X192126Y278172D01*
Y277994D01*
X192194Y277830D01*
X192229Y277655D01*
X192328Y277507D01*
X192396Y277343D01*
X192522Y277217D01*
X192620Y277069D01*
X192768Y276970D01*
X192894Y276845D01*
X193058Y276777D01*
X193206Y276678D01*
X193381Y276643D01*
X193545Y276575D01*
X193723D01*
X193898Y276540D01*
X194072Y276575D01*
X194250D01*
X194414Y276643D01*
X194589Y276678D01*
X194737Y276777D01*
X194901Y276845D01*
X195027Y276970D01*
X195175Y277069D01*
X195274Y277217D01*
X195400Y277343D01*
X195468Y277507D01*
X195566Y277655D01*
X195601Y277830D01*
X195669Y277994D01*
Y278172D01*
X195704Y278346D01*
Y304960D01*
X202852Y312108D01*
X203244Y312695D01*
X203381Y313386D01*
Y314341D01*
X203346Y314515D01*
Y314693D01*
X203278Y314857D01*
X203244Y315032D01*
X203145Y315180D01*
X203077Y315344D01*
X202951Y315470D01*
X202852Y315618D01*
X202704Y315717D01*
X202578Y315843D01*
X202414Y315911D01*
X202266Y316009D01*
X202092Y316044D01*
X201927Y316112D01*
X201749D01*
X201575Y316147D01*
D02*
G37*
G36*
X294882Y275822D02*
X294707Y275787D01*
X294530D01*
X294365Y275719D01*
X294191Y275685D01*
X294043Y275586D01*
X293878Y275518D01*
X293753Y275392D01*
X293605Y275293D01*
X286260Y267948D01*
X233071D01*
X232896Y267913D01*
X232718D01*
X232554Y267845D01*
X232380Y267811D01*
X232232Y267712D01*
X232067Y267644D01*
X231942Y267518D01*
X231794Y267419D01*
X231695Y267271D01*
X231569Y267145D01*
X231501Y266981D01*
X231402Y266833D01*
X231367Y266658D01*
X231299Y266494D01*
Y266316D01*
X231264Y266142D01*
X231299Y265967D01*
Y265789D01*
X231367Y265625D01*
X231402Y265451D01*
X231501Y265302D01*
X231569Y265138D01*
X231695Y265012D01*
X231794Y264864D01*
X231942Y264766D01*
X232067Y264640D01*
X232232Y264572D01*
X232380Y264473D01*
X232554Y264438D01*
X232718Y264370D01*
X232896D01*
X233071Y264335D01*
X287008D01*
X287699Y264473D01*
X288285Y264864D01*
X296159Y272739D01*
X296258Y272886D01*
X296384Y273012D01*
X296452Y273177D01*
X296551Y273324D01*
X296585Y273499D01*
X296654Y273663D01*
Y273841D01*
X296688Y274016D01*
X296654Y274190D01*
Y274368D01*
X296585Y274533D01*
X296551Y274707D01*
X296452Y274855D01*
X296384Y275019D01*
X296258Y275145D01*
X296159Y275293D01*
X296011Y275392D01*
X295885Y275518D01*
X295721Y275586D01*
X295573Y275685D01*
X295399Y275719D01*
X295234Y275787D01*
X295056D01*
X294882Y275822D01*
D02*
G37*
G36*
X376140Y232087D02*
X375435D01*
X374784Y231817D01*
X374594Y231628D01*
X366654D01*
X366152Y231528D01*
X365726Y231243D01*
X356399Y221917D01*
X355015D01*
X354826Y222106D01*
X354175Y222376D01*
X353470D01*
X352819Y222106D01*
X352321Y221607D01*
X352051Y220956D01*
Y220252D01*
X352321Y219600D01*
X352819Y219102D01*
X353470Y218832D01*
X354175D01*
X354826Y219102D01*
X355015Y219291D01*
X356943D01*
X357446Y219391D01*
X357871Y219676D01*
X367198Y229002D01*
X374594D01*
X374784Y228813D01*
X375435Y228543D01*
X376140D01*
X376791Y228813D01*
X377289Y229311D01*
X377559Y229963D01*
Y230667D01*
X377289Y231318D01*
X376791Y231817D01*
X376140Y232087D01*
D02*
G37*
G36*
X264787Y213437D02*
X261287D01*
Y209937D01*
X261314D01*
X262331Y210210D01*
X263244Y210736D01*
X263988Y211481D01*
X264515Y212393D01*
X264787Y213410D01*
Y213437D01*
D02*
G37*
G36*
X260287D02*
X256787D01*
Y213410D01*
X257060Y212393D01*
X257587Y211481D01*
X258331Y210736D01*
X259243Y210210D01*
X260261Y209937D01*
X260287D01*
Y213437D01*
D02*
G37*
G36*
X254787D02*
X251287D01*
Y209937D01*
X251314D01*
X252331Y210210D01*
X253243Y210736D01*
X253988Y211481D01*
X254515Y212393D01*
X254787Y213410D01*
Y213437D01*
D02*
G37*
G36*
X250287D02*
X246787D01*
Y213410D01*
X247060Y212393D01*
X247587Y211481D01*
X248331Y210736D01*
X249243Y210210D01*
X250261Y209937D01*
X250287D01*
Y213437D01*
D02*
G37*
G36*
X244787D02*
X241287D01*
Y209937D01*
X241314D01*
X242331Y210210D01*
X243244Y210736D01*
X243988Y211481D01*
X244515Y212393D01*
X244787Y213410D01*
Y213437D01*
D02*
G37*
G36*
X240287D02*
X236787D01*
Y213410D01*
X237060Y212393D01*
X237587Y211481D01*
X238331Y210736D01*
X239244Y210210D01*
X240261Y209937D01*
X240287D01*
Y213437D01*
D02*
G37*
G36*
X234787D02*
X231287D01*
Y209937D01*
X231314D01*
X232331Y210210D01*
X233243Y210736D01*
X233988Y211481D01*
X234515Y212393D01*
X234787Y213410D01*
Y213437D01*
D02*
G37*
G36*
X340751Y215240D02*
X340046D01*
X339395Y214970D01*
X338896Y214472D01*
X338627Y213821D01*
Y213116D01*
X338896Y212465D01*
X339395Y211967D01*
X339515Y211917D01*
Y205645D01*
X339246Y205376D01*
X338976Y204724D01*
Y204020D01*
X339246Y203368D01*
X339744Y202870D01*
X340396Y202600D01*
X341100D01*
X341752Y202870D01*
X342250Y203368D01*
X342520Y204020D01*
Y204724D01*
X342250Y205376D01*
X341752Y205874D01*
X341631Y205924D01*
Y212195D01*
X341900Y212465D01*
X342170Y213116D01*
Y213821D01*
X341900Y214472D01*
X341402Y214970D01*
X340751Y215240D01*
D02*
G37*
G36*
X261390Y208512D02*
X260185D01*
X259022Y208200D01*
X257978Y207598D01*
X257127Y206746D01*
X256524Y205703D01*
X256213Y204539D01*
Y203335D01*
X256524Y202171D01*
X257127Y201128D01*
X257978Y200276D01*
X259022Y199674D01*
X260185Y199362D01*
X261390D01*
X262553Y199674D01*
X263596Y200276D01*
X264448Y201128D01*
X265050Y202171D01*
X265362Y203335D01*
Y204539D01*
X265050Y205703D01*
X264448Y206746D01*
X263596Y207598D01*
X262553Y208200D01*
X261390Y208512D01*
D02*
G37*
G36*
X251390D02*
X250185D01*
X249022Y208200D01*
X247978Y207598D01*
X247127Y206746D01*
X246524Y205703D01*
X246213Y204539D01*
Y203335D01*
X246524Y202171D01*
X247127Y201128D01*
X247978Y200276D01*
X249022Y199674D01*
X250185Y199362D01*
X251390D01*
X252553Y199674D01*
X253596Y200276D01*
X254448Y201128D01*
X255050Y202171D01*
X255362Y203335D01*
Y204539D01*
X255050Y205703D01*
X254448Y206746D01*
X253596Y207598D01*
X252553Y208200D01*
X251390Y208512D01*
D02*
G37*
G36*
X241390D02*
X240185D01*
X239022Y208200D01*
X237978Y207598D01*
X237127Y206746D01*
X236524Y205703D01*
X236213Y204539D01*
Y203335D01*
X236524Y202171D01*
X237127Y201128D01*
X237978Y200276D01*
X239022Y199674D01*
X240185Y199362D01*
X241390D01*
X242553Y199674D01*
X243596Y200276D01*
X244448Y201128D01*
X245050Y202171D01*
X245362Y203335D01*
Y204539D01*
X245050Y205703D01*
X244448Y206746D01*
X243596Y207598D01*
X242553Y208200D01*
X241390Y208512D01*
D02*
G37*
G36*
X231390D02*
X230185D01*
X229022Y208200D01*
X227978Y207598D01*
X227127Y206746D01*
X226524Y205703D01*
X226213Y204539D01*
Y203335D01*
X226524Y202171D01*
X227127Y201128D01*
X227978Y200276D01*
X229022Y199674D01*
X230185Y199362D01*
X231390D01*
X232553Y199674D01*
X233596Y200276D01*
X234448Y201128D01*
X235050Y202171D01*
X235362Y203335D01*
Y204539D01*
X235050Y205703D01*
X234448Y206746D01*
X233596Y207598D01*
X232553Y208200D01*
X231390Y208512D01*
D02*
G37*
G36*
X261390Y198512D02*
X260185D01*
X259022Y198200D01*
X257978Y197598D01*
X257127Y196746D01*
X256524Y195703D01*
X256213Y194539D01*
Y193335D01*
X256524Y192171D01*
X257127Y191128D01*
X257978Y190276D01*
X259022Y189674D01*
X260185Y189362D01*
X261390D01*
X262553Y189674D01*
X263596Y190276D01*
X264448Y191128D01*
X265050Y192171D01*
X265362Y193335D01*
Y194539D01*
X265050Y195703D01*
X264448Y196746D01*
X263596Y197598D01*
X262553Y198200D01*
X261390Y198512D01*
D02*
G37*
G36*
X251390D02*
X250185D01*
X249022Y198200D01*
X247978Y197598D01*
X247127Y196746D01*
X246524Y195703D01*
X246213Y194539D01*
Y193335D01*
X246524Y192171D01*
X247127Y191128D01*
X247978Y190276D01*
X249022Y189674D01*
X250185Y189362D01*
X251390D01*
X252553Y189674D01*
X253596Y190276D01*
X254448Y191128D01*
X255050Y192171D01*
X255362Y193335D01*
Y194539D01*
X255050Y195703D01*
X254448Y196746D01*
X253596Y197598D01*
X252553Y198200D01*
X251390Y198512D01*
D02*
G37*
G36*
X241390D02*
X240185D01*
X239022Y198200D01*
X237978Y197598D01*
X237127Y196746D01*
X236524Y195703D01*
X236213Y194539D01*
Y193335D01*
X236524Y192171D01*
X237127Y191128D01*
X237978Y190276D01*
X239022Y189674D01*
X240185Y189362D01*
X241390D01*
X242553Y189674D01*
X243596Y190276D01*
X244448Y191128D01*
X245050Y192171D01*
X245362Y193335D01*
Y194539D01*
X245050Y195703D01*
X244448Y196746D01*
X243596Y197598D01*
X242553Y198200D01*
X241390Y198512D01*
D02*
G37*
G36*
X231390D02*
X230185D01*
X229022Y198200D01*
X227978Y197598D01*
X227127Y196746D01*
X226524Y195703D01*
X226213Y194539D01*
Y193335D01*
X226524Y192171D01*
X227127Y191128D01*
X227978Y190276D01*
X229022Y189674D01*
X230185Y189362D01*
X231390D01*
X232553Y189674D01*
X233596Y190276D01*
X234448Y191128D01*
X235050Y192171D01*
X235362Y193335D01*
Y194539D01*
X235050Y195703D01*
X234448Y196746D01*
X233596Y197598D01*
X232553Y198200D01*
X231390Y198512D01*
D02*
G37*
G36*
X387864Y215158D02*
X385757D01*
X383677Y214828D01*
X381673Y214177D01*
X379795Y213220D01*
X378091Y211982D01*
X376601Y210492D01*
X375362Y208787D01*
X374406Y206910D01*
X373755Y204906D01*
X373425Y202825D01*
Y200718D01*
X373755Y198637D01*
X374406Y196633D01*
X375362Y194756D01*
X376601Y193051D01*
X378091Y191561D01*
X379795Y190323D01*
X381673Y189366D01*
X383677Y188715D01*
X385757Y188386D01*
X387864D01*
X389946Y188715D01*
X391949Y189366D01*
X393827Y190323D01*
X395531Y191561D01*
X397021Y193051D01*
X398260Y194756D01*
X399216Y196633D01*
X399867Y198637D01*
X400197Y200718D01*
Y202825D01*
X399867Y204906D01*
X399216Y206910D01*
X398260Y208787D01*
X397021Y210492D01*
X395531Y211982D01*
X393827Y213220D01*
X391949Y214177D01*
X389946Y214828D01*
X387864Y215158D01*
D02*
G37*
G36*
X147707D02*
X145600D01*
X143519Y214828D01*
X141515Y214177D01*
X139638Y213220D01*
X137933Y211982D01*
X136443Y210492D01*
X135205Y208787D01*
X134248Y206910D01*
X133597Y204906D01*
X133268Y202825D01*
Y200718D01*
X133597Y198637D01*
X134248Y196633D01*
X135205Y194756D01*
X136443Y193051D01*
X137933Y191561D01*
X139638Y190323D01*
X141515Y189366D01*
X143519Y188715D01*
X145600Y188386D01*
X147707D01*
X149788Y188715D01*
X151792Y189366D01*
X153669Y190323D01*
X155374Y191561D01*
X156864Y193051D01*
X158102Y194756D01*
X159059Y196633D01*
X159710Y198637D01*
X160039Y200718D01*
Y202825D01*
X159710Y204906D01*
X159059Y206910D01*
X158102Y208787D01*
X156864Y210492D01*
X155374Y211982D01*
X153669Y213220D01*
X151792Y214177D01*
X149788Y214828D01*
X147707Y215158D01*
D02*
G37*
%LPD*%
G36*
X186604Y323819D02*
X186485Y323817D01*
X186372Y323810D01*
X186265Y323796D01*
X186165Y323777D01*
X186071Y323751D01*
X185984Y323720D01*
X185903Y323683D01*
X185829Y323640D01*
X185761Y323591D01*
X185700Y323536D01*
X185347Y323889D01*
X185402Y323950D01*
X185451Y324018D01*
X185494Y324092D01*
X185531Y324173D01*
X185562Y324260D01*
X185588Y324354D01*
X185607Y324454D01*
X185621Y324560D01*
X185628Y324674D01*
X185630Y324793D01*
X186604Y323819D01*
D02*
G37*
G36*
X181880D02*
X181760Y323817D01*
X181647Y323810D01*
X181540Y323796D01*
X181440Y323777D01*
X181347Y323751D01*
X181259Y323720D01*
X181179Y323683D01*
X181105Y323640D01*
X181037Y323591D01*
X180976Y323536D01*
X180622Y323889D01*
X180677Y323950D01*
X180726Y324018D01*
X180769Y324092D01*
X180807Y324173D01*
X180838Y324260D01*
X180863Y324354D01*
X180883Y324454D01*
X180896Y324560D01*
X180904Y324674D01*
X180906Y324793D01*
X181880Y323819D01*
D02*
G37*
G36*
X176632Y274689D02*
X176646Y274606D01*
X176667Y274523D01*
X176698Y274440D01*
X176738Y274356D01*
X176786Y274272D01*
X176843Y274187D01*
X176909Y274102D01*
X176983Y274017D01*
X177067Y273931D01*
X175689D01*
X175772Y274017D01*
X175847Y274102D01*
X175913Y274187D01*
X175970Y274272D01*
X176018Y274356D01*
X176058Y274440D01*
X176088Y274523D01*
X176110Y274606D01*
X176124Y274689D01*
X176128Y274771D01*
X176628D01*
X176632Y274689D01*
D02*
G37*
G36*
X187220Y272440D02*
X187145Y272354D01*
X187079Y272269D01*
X187022Y272185D01*
X186974Y272100D01*
X186934Y272017D01*
X186904Y271933D01*
X186882Y271850D01*
X186869Y271768D01*
X186864Y271686D01*
X186364D01*
X186360Y271768D01*
X186347Y271850D01*
X186325Y271933D01*
X186294Y272017D01*
X186254Y272100D01*
X186206Y272185D01*
X186149Y272269D01*
X186083Y272354D01*
X186009Y272440D01*
X185925Y272526D01*
X187303D01*
X187220Y272440D01*
D02*
G37*
G36*
X174467Y270752D02*
X174480Y270669D01*
X174502Y270586D01*
X174533Y270503D01*
X174572Y270419D01*
X174621Y270335D01*
X174678Y270251D01*
X174743Y270165D01*
X174818Y270080D01*
X174902Y269994D01*
X173524D01*
X173607Y270080D01*
X173682Y270165D01*
X173748Y270251D01*
X173805Y270335D01*
X173853Y270419D01*
X173892Y270503D01*
X173923Y270586D01*
X173945Y270669D01*
X173958Y270752D01*
X173963Y270834D01*
X174463D01*
X174467Y270752D01*
D02*
G37*
G36*
X184566Y268592D02*
X184440Y268397D01*
X184389Y268304D01*
X184346Y268213D01*
X184311Y268125D01*
X184283Y268039D01*
X184264Y267956D01*
X184252Y267875D01*
X184248Y267797D01*
X183748Y267723D01*
X183743Y267808D01*
X183729Y267891D01*
X183705Y267973D01*
X183672Y268053D01*
X183630Y268131D01*
X183578Y268208D01*
X183517Y268283D01*
X183446Y268356D01*
X183366Y268428D01*
X183276Y268498D01*
X184640Y268693D01*
X184566Y268592D01*
D02*
G37*
G36*
X360714Y264272D02*
X360629Y264355D01*
X360543Y264430D01*
X360458Y264495D01*
X360373Y264553D01*
X360289Y264601D01*
X360206Y264640D01*
X360122Y264671D01*
X360039Y264693D01*
X359957Y264706D01*
X359875Y264711D01*
Y265211D01*
X359957Y265215D01*
X360039Y265228D01*
X360122Y265250D01*
X360206Y265281D01*
X360289Y265320D01*
X360373Y265369D01*
X360458Y265426D01*
X360543Y265492D01*
X360629Y265566D01*
X360714Y265650D01*
Y264272D01*
D02*
G37*
G36*
X186869Y259728D02*
X186882Y259646D01*
X186904Y259563D01*
X186934Y259479D01*
X186974Y259396D01*
X187022Y259312D01*
X187079Y259227D01*
X187145Y259142D01*
X187220Y259056D01*
X187303Y258971D01*
X185925D01*
X186009Y259056D01*
X186083Y259142D01*
X186149Y259227D01*
X186206Y259312D01*
X186254Y259396D01*
X186294Y259479D01*
X186325Y259563D01*
X186347Y259646D01*
X186360Y259728D01*
X186364Y259810D01*
X186864D01*
X186869Y259728D01*
D02*
G37*
G36*
X184253Y259751D02*
X184267Y259668D01*
X184291Y259587D01*
X184324Y259507D01*
X184366Y259428D01*
X184418Y259351D01*
X184479Y259277D01*
X184550Y259203D01*
X184630Y259131D01*
X184720Y259061D01*
X183356Y258866D01*
X183431Y258967D01*
X183556Y259162D01*
X183607Y259255D01*
X183650Y259346D01*
X183685Y259434D01*
X183713Y259520D01*
X183732Y259603D01*
X183744Y259684D01*
X183748Y259762D01*
X184248Y259836D01*
X184253Y259751D01*
D02*
G37*
G36*
X198624Y256170D02*
X198631Y256056D01*
X198645Y255950D01*
X198664Y255850D01*
X198690Y255756D01*
X198721Y255669D01*
X198758Y255588D01*
X198801Y255514D01*
X198850Y255446D01*
X198905Y255385D01*
X198552Y255032D01*
X198491Y255087D01*
X198423Y255136D01*
X198349Y255179D01*
X198268Y255216D01*
X198181Y255247D01*
X198087Y255273D01*
X197987Y255292D01*
X197880Y255306D01*
X197767Y255313D01*
X197648Y255315D01*
X198622Y256289D01*
X198624Y256170D01*
D02*
G37*
G36*
X192116Y255315D02*
X191997Y255313D01*
X191883Y255306D01*
X191777Y255292D01*
X191676Y255273D01*
X191583Y255247D01*
X191496Y255216D01*
X191415Y255179D01*
X191341Y255136D01*
X191273Y255087D01*
X191212Y255032D01*
X190858Y255385D01*
X190913Y255446D01*
X190962Y255514D01*
X191006Y255588D01*
X191043Y255669D01*
X191074Y255756D01*
X191099Y255850D01*
X191119Y255950D01*
X191132Y256056D01*
X191140Y256170D01*
X191142Y256289D01*
X192116Y255315D01*
D02*
G37*
G36*
X195253Y255510D02*
X195178Y255425D01*
X195113Y255340D01*
X195056Y255255D01*
X195007Y255171D01*
X194968Y255087D01*
X194937Y255004D01*
X194915Y254921D01*
X194902Y254839D01*
X194898Y254757D01*
X194398D01*
X194393Y254839D01*
X194380Y254921D01*
X194358Y255004D01*
X194327Y255087D01*
X194288Y255171D01*
X194239Y255255D01*
X194183Y255340D01*
X194117Y255425D01*
X194042Y255510D01*
X193959Y255596D01*
X195336D01*
X195253Y255510D01*
D02*
G37*
G36*
X182432Y254797D02*
X182427Y254738D01*
X182430Y254679D01*
X182440Y254621D01*
X182457Y254562D01*
X182482Y254503D01*
X182515Y254444D01*
X182555Y254385D01*
X182602Y254327D01*
X182657Y254268D01*
X182304Y253914D01*
X182243Y253971D01*
X182182Y254021D01*
X182121Y254064D01*
X182061Y254099D01*
X182000Y254127D01*
X181940Y254147D01*
X181880Y254160D01*
X181819Y254166D01*
X181759Y254164D01*
X181699Y254155D01*
X182445Y254856D01*
X182432Y254797D01*
D02*
G37*
G36*
X216749Y254522D02*
X216832Y254446D01*
X216915Y254379D01*
X216998Y254321D01*
X217080Y254272D01*
X217163Y254232D01*
X217246Y254201D01*
X217329Y254178D01*
X217411Y254165D01*
X217494Y254160D01*
X217480Y253660D01*
X217399Y253656D01*
X217316Y253643D01*
X217233Y253622D01*
X217149Y253592D01*
X217065Y253553D01*
X216979Y253505D01*
X216893Y253449D01*
X216806Y253385D01*
X216718Y253311D01*
X216629Y253229D01*
X216666Y254607D01*
X216749Y254522D01*
D02*
G37*
G36*
X228725Y253214D02*
X228642Y253299D01*
X228559Y253375D01*
X228477Y253442D01*
X228394Y253500D01*
X228311Y253549D01*
X228228Y253589D01*
X228146Y253620D01*
X228063Y253643D01*
X227980Y253656D01*
X227897Y253660D01*
X227911Y254160D01*
X227993Y254165D01*
X228075Y254178D01*
X228158Y254199D01*
X228242Y254229D01*
X228327Y254268D01*
X228412Y254316D01*
X228498Y254372D01*
X228586Y254436D01*
X228674Y254510D01*
X228762Y254592D01*
X228725Y253214D01*
D02*
G37*
G36*
X247892Y253626D02*
X247905Y253543D01*
X247927Y253460D01*
X247958Y253377D01*
X247997Y253293D01*
X248046Y253209D01*
X248103Y253124D01*
X248169Y253040D01*
X248243Y252954D01*
X248327Y252868D01*
X246949D01*
X247032Y252954D01*
X247107Y253040D01*
X247173Y253124D01*
X247230Y253209D01*
X247278Y253293D01*
X247318Y253377D01*
X247348Y253460D01*
X247370Y253543D01*
X247383Y253626D01*
X247388Y253708D01*
X247888D01*
X247892Y253626D01*
D02*
G37*
G36*
X238667Y251476D02*
X238581Y251560D01*
X238496Y251634D01*
X238411Y251700D01*
X238326Y251757D01*
X238242Y251806D01*
X238158Y251845D01*
X238075Y251876D01*
X237992Y251898D01*
X237910Y251911D01*
X237828Y251915D01*
Y252415D01*
X237910Y252420D01*
X237992Y252433D01*
X238075Y252455D01*
X238158Y252486D01*
X238242Y252525D01*
X238326Y252573D01*
X238411Y252630D01*
X238496Y252696D01*
X238581Y252771D01*
X238667Y252854D01*
Y251476D01*
D02*
G37*
G36*
X245487Y251377D02*
X245413Y251291D01*
X245347Y251206D01*
X245290Y251122D01*
X245242Y251037D01*
X245202Y250954D01*
X245171Y250870D01*
X245149Y250787D01*
X245136Y250705D01*
X245132Y250623D01*
X244632D01*
X244627Y250705D01*
X244614Y250787D01*
X244592Y250870D01*
X244562Y250954D01*
X244522Y251037D01*
X244474Y251122D01*
X244417Y251206D01*
X244351Y251291D01*
X244276Y251377D01*
X244193Y251462D01*
X245571D01*
X245487Y251377D01*
D02*
G37*
G36*
X242732D02*
X242657Y251291D01*
X242591Y251206D01*
X242534Y251122D01*
X242486Y251037D01*
X242446Y250954D01*
X242415Y250870D01*
X242393Y250787D01*
X242380Y250705D01*
X242376Y250623D01*
X241876D01*
X241872Y250705D01*
X241858Y250787D01*
X241837Y250870D01*
X241806Y250954D01*
X241766Y251037D01*
X241718Y251122D01*
X241661Y251206D01*
X241595Y251291D01*
X241520Y251377D01*
X241437Y251462D01*
X242815D01*
X242732Y251377D01*
D02*
G37*
G36*
X258663Y251248D02*
X258671Y251135D01*
X258684Y251029D01*
X258704Y250928D01*
X258729Y250835D01*
X258760Y250748D01*
X258798Y250667D01*
X258841Y250593D01*
X258890Y250525D01*
X258945Y250464D01*
X258591Y250110D01*
X258530Y250165D01*
X258462Y250214D01*
X258388Y250257D01*
X258308Y250295D01*
X258220Y250326D01*
X258127Y250351D01*
X258027Y250371D01*
X257920Y250384D01*
X257807Y250392D01*
X257687Y250394D01*
X258661Y251368D01*
X258663Y251248D01*
D02*
G37*
G36*
X250715Y250595D02*
X250577Y250421D01*
X250520Y250336D01*
X250473Y250251D01*
X250434Y250166D01*
X250403Y250082D01*
X250381Y249999D01*
X250368Y249917D01*
X250364Y249835D01*
X249864Y249826D01*
X249860Y249908D01*
X249846Y249991D01*
X249824Y250074D01*
X249793Y250157D01*
X249753Y250240D01*
X249704Y250323D01*
X249647Y250407D01*
X249580Y250490D01*
X249504Y250574D01*
X249420Y250658D01*
X250798Y250683D01*
X250715Y250595D01*
D02*
G37*
G36*
X253357Y250528D02*
X253218Y250354D01*
X253162Y250268D01*
X253114Y250183D01*
X253075Y250098D01*
X253045Y250014D01*
X253023Y249932D01*
X253010Y249849D01*
X253006Y249768D01*
X252506Y249757D01*
X252502Y249840D01*
X252488Y249922D01*
X252466Y250005D01*
X252435Y250088D01*
X252395Y250171D01*
X252346Y250254D01*
X252288Y250338D01*
X252221Y250421D01*
X252146Y250504D01*
X252061Y250588D01*
X253439Y250616D01*
X253357Y250528D01*
D02*
G37*
G36*
X255825Y250394D02*
X255686Y250221D01*
X255630Y250136D01*
X255582Y250051D01*
X255543Y249967D01*
X255512Y249883D01*
X255490Y249800D01*
X255477Y249717D01*
X255473Y249636D01*
X254973Y249628D01*
X254969Y249711D01*
X254955Y249793D01*
X254933Y249876D01*
X254902Y249959D01*
X254862Y250043D01*
X254814Y250126D01*
X254756Y250210D01*
X254690Y250293D01*
X254614Y250378D01*
X254530Y250462D01*
X255908Y250481D01*
X255825Y250394D01*
D02*
G37*
G36*
X226182Y250212D02*
X226268Y250137D01*
X226353Y250071D01*
X226437Y250014D01*
X226522Y249966D01*
X226605Y249926D01*
X226689Y249896D01*
X226772Y249874D01*
X226854Y249861D01*
X226936Y249856D01*
Y249356D01*
X226854Y249352D01*
X226772Y249339D01*
X226689Y249317D01*
X226605Y249286D01*
X226522Y249247D01*
X226437Y249198D01*
X226353Y249141D01*
X226268Y249075D01*
X226182Y249001D01*
X226097Y248917D01*
Y250295D01*
X226182Y250212D01*
D02*
G37*
G36*
X224691Y248917D02*
X224605Y249001D01*
X224519Y249075D01*
X224434Y249141D01*
X224350Y249198D01*
X224266Y249247D01*
X224182Y249286D01*
X224099Y249317D01*
X224016Y249339D01*
X223933Y249352D01*
X223851Y249356D01*
Y249856D01*
X223933Y249861D01*
X224016Y249874D01*
X224099Y249896D01*
X224182Y249926D01*
X224266Y249966D01*
X224350Y250014D01*
X224434Y250071D01*
X224519Y250137D01*
X224605Y250212D01*
X224691Y250295D01*
Y248917D01*
D02*
G37*
G36*
X233094Y250625D02*
X233078Y250602D01*
X232997Y250197D01*
Y234493D01*
X230074Y231570D01*
X226138D01*
X226129Y231573D01*
X226106Y231584D01*
X226075Y231602D01*
X226036Y231628D01*
X225991Y231663D01*
X225939Y231708D01*
X225869Y231777D01*
X225807Y231816D01*
X225610Y232014D01*
X224959Y232283D01*
X224254D01*
X223603Y232014D01*
X223405Y231816D01*
X223344Y231777D01*
X223273Y231708D01*
X223222Y231663D01*
X223176Y231628D01*
X223138Y231602D01*
X223107Y231584D01*
X223084Y231573D01*
X223074Y231570D01*
X211068D01*
X209522Y233115D01*
Y239019D01*
X209526Y239029D01*
X209537Y239052D01*
X209554Y239083D01*
X209580Y239121D01*
X209616Y239167D01*
X209661Y239218D01*
X209729Y239289D01*
X209769Y239350D01*
X209966Y239548D01*
X210236Y240199D01*
Y240904D01*
X209966Y241555D01*
X209468Y242053D01*
X209520Y242926D01*
X209665Y242986D01*
X210163Y243485D01*
X210433Y244136D01*
Y244415D01*
X210448Y244486D01*
X210450Y244585D01*
X210454Y244653D01*
X210462Y244710D01*
X210471Y244756D01*
X210480Y244790D01*
X210488Y244814D01*
X210493Y244824D01*
X214218Y248549D01*
X223862D01*
X223871Y248545D01*
X223894Y248534D01*
X223925Y248517D01*
X223964Y248490D01*
X224009Y248455D01*
X224061Y248410D01*
X224131Y248341D01*
X224193Y248302D01*
X224390Y248104D01*
X225041Y247835D01*
X225746D01*
X226397Y248104D01*
X226595Y248302D01*
X226656Y248341D01*
X226727Y248410D01*
X226778Y248455D01*
X226824Y248490D01*
X226862Y248517D01*
X226893Y248534D01*
X226916Y248545D01*
X226926Y248549D01*
X229410D01*
X229814Y248629D01*
X230158Y248858D01*
X232452Y251152D01*
X233094Y250625D01*
D02*
G37*
G36*
X178320Y263297D02*
X178440Y263022D01*
Y261461D01*
X177992Y261013D01*
X177763Y260670D01*
X177682Y260265D01*
Y251841D01*
X177238Y251397D01*
X176969Y250746D01*
Y250041D01*
X177238Y249390D01*
X177530Y249098D01*
X177164Y248302D01*
X174016D01*
X173611Y248222D01*
X173268Y247992D01*
X172649Y247373D01*
X171885Y247690D01*
Y258897D01*
X176733Y263745D01*
X177756D01*
X178320Y263297D01*
D02*
G37*
G36*
X207298Y246455D02*
X207224Y246370D01*
X207158Y246285D01*
X207101Y246200D01*
X207053Y246116D01*
X207013Y246032D01*
X206982Y245949D01*
X206961Y245866D01*
X206947Y245784D01*
X206943Y245702D01*
X206443D01*
X206438Y245784D01*
X206425Y245866D01*
X206403Y245949D01*
X206373Y246032D01*
X206333Y246116D01*
X206285Y246200D01*
X206228Y246285D01*
X206162Y246370D01*
X206087Y246455D01*
X206004Y246541D01*
X207382D01*
X207298Y246455D01*
D02*
G37*
G36*
X209929Y245402D02*
X209874Y245341D01*
X209825Y245273D01*
X209782Y245199D01*
X209745Y245119D01*
X209713Y245031D01*
X209688Y244938D01*
X209668Y244838D01*
X209655Y244731D01*
X209647Y244618D01*
X209646Y244498D01*
X208671Y245472D01*
X208791Y245474D01*
X208904Y245482D01*
X209011Y245495D01*
X209111Y245515D01*
X209205Y245540D01*
X209292Y245571D01*
X209372Y245609D01*
X209447Y245652D01*
X209514Y245701D01*
X209575Y245756D01*
X209929Y245402D01*
D02*
G37*
G36*
X193570Y254189D02*
X193590Y254161D01*
Y240978D01*
X192826Y240661D01*
X189640Y243847D01*
Y252318D01*
X191790Y254468D01*
X191800Y254472D01*
X191824Y254481D01*
X191858Y254490D01*
X191904Y254499D01*
X191961Y254506D01*
X192029Y254511D01*
X192128Y254512D01*
X192199Y254528D01*
X192478D01*
X192763Y254645D01*
X193570Y254189D01*
D02*
G37*
G36*
X209070Y239762D02*
X208996Y239677D01*
X208930Y239592D01*
X208873Y239507D01*
X208824Y239423D01*
X208785Y239339D01*
X208754Y239256D01*
X208732Y239173D01*
X208719Y239091D01*
X208715Y239009D01*
X208215D01*
X208210Y239091D01*
X208197Y239173D01*
X208175Y239256D01*
X208144Y239339D01*
X208105Y239423D01*
X208056Y239507D01*
X207999Y239592D01*
X207934Y239677D01*
X207859Y239762D01*
X207776Y239848D01*
X209154D01*
X209070Y239762D01*
D02*
G37*
G36*
X196634Y254797D02*
X197285Y254528D01*
X197564D01*
X197636Y254512D01*
X197734Y254511D01*
X197761Y254509D01*
Y238083D01*
X196997Y237766D01*
X195705Y239058D01*
Y254252D01*
X195985Y254540D01*
X196162Y254682D01*
X196413Y254845D01*
X196634Y254797D01*
D02*
G37*
G36*
X206947Y232760D02*
X206961Y232677D01*
X206982Y232594D01*
X207013Y232511D01*
X207053Y232427D01*
X207101Y232343D01*
X207158Y232258D01*
X207224Y232173D01*
X207298Y232088D01*
X207382Y232002D01*
X206004D01*
X206087Y232088D01*
X206162Y232173D01*
X206228Y232258D01*
X206285Y232343D01*
X206333Y232427D01*
X206373Y232511D01*
X206403Y232594D01*
X206425Y232677D01*
X206438Y232760D01*
X206443Y232842D01*
X206943D01*
X206947Y232760D01*
D02*
G37*
G36*
X184148Y232332D02*
X184151Y232257D01*
X184162Y232178D01*
X184180Y232095D01*
X184205Y232009D01*
X184238Y231918D01*
X184277Y231824D01*
X184378Y231624D01*
X184439Y231518D01*
X184507Y231408D01*
X183163Y231715D01*
X183256Y231775D01*
X183338Y231839D01*
X183411Y231906D01*
X183474Y231975D01*
X183527Y232047D01*
X183570Y232122D01*
X183604Y232200D01*
X183628Y232281D01*
X183643Y232364D01*
X183648Y232450D01*
X184148Y232332D01*
D02*
G37*
G36*
X186978Y232132D02*
X186991Y232049D01*
X187013Y231966D01*
X187043Y231883D01*
X187083Y231799D01*
X187131Y231715D01*
X187188Y231630D01*
X187254Y231545D01*
X187329Y231460D01*
X187412Y231374D01*
X186034D01*
X186118Y231460D01*
X186192Y231545D01*
X186258Y231630D01*
X186315Y231715D01*
X186363Y231799D01*
X186403Y231883D01*
X186434Y231966D01*
X186456Y232049D01*
X186469Y232132D01*
X186473Y232214D01*
X186973D01*
X186978Y232132D01*
D02*
G37*
G36*
X257210Y245231D02*
Y234100D01*
X254442Y231332D01*
X254113Y231494D01*
X253760Y231819D01*
X253814Y232087D01*
Y247489D01*
X253991Y247617D01*
X254640Y247801D01*
X257210Y245231D01*
D02*
G37*
G36*
X225395Y231117D02*
X225481Y231043D01*
X225566Y230977D01*
X225650Y230920D01*
X225734Y230872D01*
X225818Y230832D01*
X225901Y230801D01*
X225984Y230779D01*
X226067Y230766D01*
X226149Y230762D01*
Y230262D01*
X226067Y230257D01*
X225984Y230244D01*
X225901Y230222D01*
X225818Y230192D01*
X225734Y230152D01*
X225650Y230104D01*
X225566Y230047D01*
X225481Y229981D01*
X225395Y229906D01*
X225309Y229823D01*
Y231201D01*
X225395Y231117D01*
D02*
G37*
G36*
X223903Y229823D02*
X223818Y229906D01*
X223732Y229981D01*
X223647Y230047D01*
X223563Y230104D01*
X223478Y230152D01*
X223395Y230192D01*
X223311Y230222D01*
X223228Y230244D01*
X223146Y230257D01*
X223064Y230262D01*
Y230762D01*
X223146Y230766D01*
X223228Y230779D01*
X223311Y230801D01*
X223395Y230832D01*
X223478Y230872D01*
X223563Y230920D01*
X223647Y230977D01*
X223732Y231043D01*
X223818Y231117D01*
X223903Y231201D01*
Y229823D01*
D02*
G37*
G36*
X247285Y250394D02*
X247990D01*
X248497Y250604D01*
X248594Y250370D01*
X248811Y250153D01*
X248854Y250088D01*
X248923Y250020D01*
X248968Y249971D01*
X249002Y249927D01*
X249027Y249891D01*
X249044Y249862D01*
X249054Y249841D01*
X249057Y249835D01*
Y233623D01*
X244837Y229404D01*
X241035D01*
X240719Y230168D01*
X242677Y232126D01*
X242906Y232469D01*
X242987Y232874D01*
Y244301D01*
X245630Y246944D01*
X245859Y247287D01*
X245940Y247692D01*
Y250189D01*
X246254Y250404D01*
X246766Y250609D01*
X247285Y250394D01*
D02*
G37*
G36*
X237848Y251104D02*
X237871Y251093D01*
X237901Y251076D01*
X237940Y251049D01*
X237986Y251014D01*
X238037Y250969D01*
X238108Y250901D01*
X238169Y250861D01*
X238367Y250663D01*
X239018Y250394D01*
X239722D01*
X240536Y249836D01*
X240569Y249742D01*
X237047Y246220D01*
X236818Y245877D01*
X236738Y245472D01*
Y231344D01*
X234601Y229207D01*
X231872D01*
X231530Y230034D01*
X234803Y233307D01*
X235032Y233650D01*
X235113Y234055D01*
Y249759D01*
X236462Y251108D01*
X237838D01*
X237848Y251104D01*
D02*
G37*
G36*
X190763Y229526D02*
X190688Y229441D01*
X190623Y229356D01*
X190566Y229271D01*
X190517Y229187D01*
X190478Y229103D01*
X190447Y229020D01*
X190425Y228937D01*
X190412Y228854D01*
X190408Y228772D01*
X189908D01*
X189903Y228854D01*
X189890Y228937D01*
X189868Y229020D01*
X189837Y229103D01*
X189798Y229187D01*
X189750Y229271D01*
X189692Y229356D01*
X189627Y229441D01*
X189552Y229526D01*
X189469Y229612D01*
X190847D01*
X190763Y229526D01*
D02*
G37*
G36*
X221824Y229075D02*
X221887Y229027D01*
X221957Y228981D01*
X222036Y228937D01*
X222122Y228895D01*
X222319Y228816D01*
X222430Y228780D01*
X222674Y228712D01*
X221490Y228008D01*
X221514Y228115D01*
X221529Y228217D01*
X221535Y228314D01*
X221532Y228407D01*
X221520Y228495D01*
X221499Y228578D01*
X221468Y228656D01*
X221429Y228730D01*
X221380Y228800D01*
X221322Y228864D01*
X221769Y229124D01*
X221824Y229075D01*
D02*
G37*
G36*
X180212Y236862D02*
Y226987D01*
X179448Y226671D01*
X176255Y229864D01*
Y234995D01*
X178495Y237236D01*
X179123D01*
X179385Y237344D01*
X180212Y236862D01*
D02*
G37*
G36*
X216503Y226997D02*
X216507Y226914D01*
X216517Y226830D01*
X216533Y226745D01*
X216557Y226658D01*
X216587Y226569D01*
X216623Y226479D01*
X216666Y226387D01*
X216773Y226199D01*
X216836Y226103D01*
X215552Y226410D01*
X215638Y226461D01*
X215715Y226515D01*
X215782Y226573D01*
X215841Y226634D01*
X215891Y226698D01*
X215931Y226766D01*
X215963Y226837D01*
X215985Y226911D01*
X215999Y226988D01*
X216003Y227069D01*
X216503Y226997D01*
D02*
G37*
G36*
X219029Y227000D02*
X219097Y226951D01*
X219171Y226908D01*
X219251Y226871D01*
X219339Y226839D01*
X219432Y226814D01*
X219532Y226795D01*
X219639Y226781D01*
X219752Y226773D01*
X219872Y226772D01*
X218898Y225797D01*
X218896Y225917D01*
X218888Y226030D01*
X218875Y226137D01*
X218855Y226237D01*
X218830Y226331D01*
X218799Y226418D01*
X218761Y226498D01*
X218718Y226573D01*
X218669Y226640D01*
X218614Y226701D01*
X218968Y227055D01*
X219029Y227000D01*
D02*
G37*
G36*
X212683Y224902D02*
X212597Y224985D01*
X212512Y225060D01*
X212427Y225126D01*
X212342Y225183D01*
X212258Y225231D01*
X212174Y225270D01*
X212091Y225301D01*
X212008Y225323D01*
X211925Y225336D01*
X211843Y225341D01*
Y225840D01*
X211925Y225845D01*
X212008Y225858D01*
X212091Y225880D01*
X212174Y225911D01*
X212258Y225950D01*
X212342Y225999D01*
X212427Y226056D01*
X212512Y226121D01*
X212597Y226196D01*
X212683Y226279D01*
Y224902D01*
D02*
G37*
G36*
X184187Y223260D02*
X184254Y223211D01*
X184328Y223168D01*
X184409Y223130D01*
X184496Y223099D01*
X184590Y223074D01*
X184690Y223054D01*
X184797Y223041D01*
X184910Y223033D01*
X185029Y223031D01*
X184055Y222057D01*
X184053Y222177D01*
X184046Y222290D01*
X184032Y222397D01*
X184013Y222497D01*
X183987Y222590D01*
X183956Y222678D01*
X183919Y222758D01*
X183876Y222832D01*
X183827Y222900D01*
X183772Y222961D01*
X184125Y223315D01*
X184187Y223260D01*
D02*
G37*
G36*
X185828Y222653D02*
X185914Y222578D01*
X185999Y222512D01*
X186083Y222455D01*
X186167Y222407D01*
X186251Y222368D01*
X186334Y222337D01*
X186417Y222315D01*
X186500Y222302D01*
X186582Y222297D01*
Y221797D01*
X186500Y221793D01*
X186417Y221780D01*
X186334Y221758D01*
X186251Y221727D01*
X186167Y221688D01*
X186083Y221639D01*
X185999Y221582D01*
X185914Y221516D01*
X185828Y221442D01*
X185742Y221358D01*
Y222736D01*
X185828Y222653D01*
D02*
G37*
G36*
X206580Y216354D02*
X206665Y216279D01*
X206750Y216213D01*
X206835Y216156D01*
X206919Y216108D01*
X207003Y216068D01*
X207086Y216038D01*
X207169Y216016D01*
X207252Y216002D01*
X207334Y215998D01*
Y215498D01*
X207252Y215494D01*
X207169Y215480D01*
X207086Y215458D01*
X207003Y215428D01*
X206919Y215388D01*
X206835Y215340D01*
X206750Y215283D01*
X206665Y215217D01*
X206580Y215142D01*
X206494Y215059D01*
Y216437D01*
X206580Y216354D01*
D02*
G37*
G36*
X209450Y213598D02*
X209536Y213523D01*
X209621Y213457D01*
X209705Y213400D01*
X209789Y213352D01*
X209873Y213312D01*
X209956Y213282D01*
X210039Y213260D01*
X210122Y213246D01*
X210204Y213242D01*
Y212742D01*
X210122Y212738D01*
X210039Y212725D01*
X209956Y212703D01*
X209873Y212672D01*
X209789Y212632D01*
X209705Y212584D01*
X209621Y212527D01*
X209536Y212461D01*
X209450Y212387D01*
X209364Y212303D01*
Y213681D01*
X209450Y213598D01*
D02*
G37*
D10*
X201575Y313386D02*
Y314341D01*
X193898Y305709D02*
X201575Y313386D01*
X170079Y259646D02*
X175984Y265551D01*
X177756D01*
X249606Y219882D02*
X254122D01*
X278590Y244350D02*
X320611D01*
X254122Y219882D02*
X278590Y244350D01*
X247244Y219882D02*
X249606D01*
X170079Y231923D02*
Y259646D01*
X170046Y231890D02*
X170079Y231923D01*
X192126Y212205D02*
X214961Y189370D01*
X214961D01*
X176772Y212205D02*
X192126D01*
X170046Y218931D02*
Y231890D01*
Y218931D02*
X176772Y212205D01*
X320611Y244350D02*
X349016Y215945D01*
X193898Y278346D02*
Y305709D01*
X349016Y215945D02*
X376181D01*
X242520Y219882D02*
X244882D01*
X247244D01*
X233071Y266142D02*
X287008D01*
X294882Y274016D01*
D15*
X366654Y230315D02*
X375787D01*
X356943Y220604D02*
X366654Y230315D01*
X353822Y220604D02*
X356943D01*
D21*
X290551Y285039D02*
X304724D01*
X276772Y271260D02*
X290551Y285039D01*
X223622Y271260D02*
X276772D01*
X279992Y310827D02*
X281764Y312598D01*
X276534Y310827D02*
X279992D01*
X235630Y309055D02*
Y312795D01*
X281764Y312598D02*
X286221D01*
X180348Y260671D02*
Y270731D01*
X178740Y260265D02*
X179498Y261023D01*
X179495Y270383D02*
Y312565D01*
Y270383D02*
X179498Y270379D01*
X180344Y270735D02*
Y308691D01*
Y270735D02*
X180348Y270731D01*
X179754Y252640D02*
X181135Y251258D01*
X180344Y308691D02*
X196457Y324803D01*
X178740Y250394D02*
Y260265D01*
X179754Y252640D02*
Y260077D01*
X180348Y260671D01*
X179498Y261023D02*
Y270379D01*
X179495Y312565D02*
X191732Y324803D01*
X276575Y247047D02*
X313475D01*
X251772Y222244D02*
X276575Y247047D01*
X242418Y222244D02*
X251772D01*
X260630Y234348D02*
Y248425D01*
X241732Y223622D02*
X249904D01*
X260630Y234348D01*
X249803Y225197D02*
X258268Y233661D01*
Y245669D01*
X241339Y225197D02*
X249803D01*
X313475Y247047D02*
X331389Y264961D01*
X340573Y204547D02*
Y213294D01*
X340398Y213469D02*
X340573Y213294D01*
Y204547D02*
X340748Y204372D01*
X181496Y255075D02*
Y255118D01*
Y255075D02*
X182480Y254091D01*
X201496Y238679D02*
X201789Y238386D01*
X201496Y254252D02*
X209980Y262736D01*
X201496Y238679D02*
Y254252D01*
X201789Y238386D02*
X204134D01*
X279331Y256693D02*
X280512Y257874D01*
X204331Y250000D02*
X211024Y256693D01*
X279331D01*
X215971Y253910D02*
X229420D01*
X215945Y253937D02*
X215971Y253910D01*
X229420D02*
X229446Y253884D01*
X178291Y241484D02*
X178736Y241929D01*
X173622Y236979D02*
X178127Y241484D01*
X173622Y228543D02*
Y236979D01*
X178736Y241929D02*
X179134D01*
X178127Y241484D02*
X178291D01*
X172638Y226772D02*
Y242717D01*
X174690Y244768D02*
X178904D01*
X172638Y242717D02*
X174690Y244768D01*
X175197Y235433D02*
X178771Y239007D01*
X175197Y229426D02*
Y235433D01*
Y229426D02*
X184318Y220305D01*
X173622Y228543D02*
X182710Y219455D01*
X171788Y224866D02*
X178898Y217755D01*
X171788Y245016D02*
X174016Y247245D01*
X171788Y224866D02*
Y245016D01*
X172638Y226772D02*
X180804Y218605D01*
X174016Y247245D02*
X178904D01*
X181135Y242944D02*
Y251258D01*
Y242944D02*
X181270Y242810D01*
X280648Y217974D02*
X280709Y217913D01*
X249115Y217974D02*
X280648D01*
X240158Y222047D02*
X241732Y223622D01*
X240450Y220276D02*
X242418Y222244D01*
X248887Y217746D02*
X249115Y217974D01*
X241963D02*
X242192Y217746D01*
X248887D01*
X228250Y217974D02*
X241963D01*
X223268Y212992D02*
X228250Y217974D01*
X228937Y220276D02*
X240450D01*
X208661Y212992D02*
X223268D01*
X204331Y244882D02*
Y250000D01*
X181270Y225817D02*
X185039Y222047D01*
X181270Y225817D02*
Y242810D01*
X216024Y225546D02*
X216253Y225776D01*
Y227069D01*
X257677Y251378D02*
X260630Y248425D01*
X255209Y251174D02*
X255223Y251161D01*
Y248714D02*
Y251161D01*
X252756Y232087D02*
Y251285D01*
X252736Y251305D02*
X252756Y251285D01*
X255223Y248714D02*
X258268Y245669D01*
X250096Y251373D02*
X250114Y251355D01*
Y233185D02*
Y251355D01*
X245276Y228346D02*
X250114Y233185D01*
X235900Y226845D02*
X241929Y232874D01*
Y244739D02*
X244882Y247692D01*
X241929Y232874D02*
Y244739D01*
X244882Y247692D02*
Y252165D01*
X242126Y249803D02*
Y252165D01*
X237795Y230906D02*
Y245472D01*
X242126Y249803D01*
X180804Y218605D02*
X222739D01*
X182710Y219455D02*
X221817D01*
X178898Y217755D02*
X223857D01*
X240551Y226772D02*
X247441D01*
X252756Y232087D01*
X239764Y228346D02*
X245276D01*
X190236Y233071D02*
X201789Y221519D01*
X220365D02*
X225691Y226845D01*
X201789Y221519D02*
X220365D01*
X234055Y250197D02*
X236024Y252165D01*
X230512Y230512D02*
X234055Y234055D01*
X235039Y228150D02*
X237795Y230906D01*
X234055Y234055D02*
Y250197D01*
X204629Y227362D02*
X215961D01*
X188583Y243409D02*
Y252756D01*
Y243409D02*
X204629Y227362D01*
X194648Y238620D02*
X204921Y228346D01*
X194648Y238620D02*
Y256299D01*
X204921Y228346D02*
X217323D01*
X219882Y225787D01*
X174213Y269291D02*
Y317126D01*
X181890Y324803D01*
X234331Y254528D02*
X247345D01*
X229410Y249606D02*
X234331Y254528D01*
X213779Y249606D02*
X225394D01*
X229410D01*
X208661Y244488D02*
X213779Y249606D01*
X206693Y231299D02*
Y247244D01*
X208465Y232677D02*
Y240551D01*
X210630Y230512D02*
X224606D01*
X208465Y232677D02*
X210630Y230512D01*
X198819Y235827D02*
Y255118D01*
Y235827D02*
X205315Y229331D01*
X221210D01*
X215961Y227362D02*
X216253Y227069D01*
X222441Y227756D02*
Y228099D01*
X221210Y229331D02*
X222441Y228099D01*
X209980Y262736D02*
X215098D01*
X197638Y256299D02*
X198819Y255118D01*
X224606Y230512D02*
X230512D01*
X200591Y225590D02*
X213386D01*
X215098Y262736D02*
X223622Y271260D01*
X247638Y252165D02*
Y254235D01*
X247345Y254528D02*
X247638Y254235D01*
X236024Y252165D02*
X239370D01*
X182480Y243701D02*
X200591Y225590D01*
X182480Y243701D02*
Y254091D01*
X201728Y223031D02*
X220675D01*
X225691Y226845D02*
X235900D01*
X225794Y228150D02*
X235039D01*
X220675Y223031D02*
X225794Y228150D01*
X237205Y225787D02*
X239764Y228346D01*
X238386Y224606D02*
X240551Y226772D01*
X239567Y223425D02*
X241339Y225197D01*
X184318Y220305D02*
X220896D01*
X221817Y219455D02*
X226969Y224606D01*
X220896Y220305D02*
X226378Y225787D01*
X227559Y223425D02*
X239567D01*
X226378Y225787D02*
X237205D01*
X222739Y218605D02*
X227559Y223425D01*
X226969Y224606D02*
X238386D01*
X224409Y215748D02*
X228937Y220276D01*
X205791Y215748D02*
X224409D01*
X228150Y222047D02*
X240158D01*
X223857Y217755D02*
X228150Y222047D01*
X190839Y233921D02*
X201728Y223031D01*
X183898Y232929D02*
X184890Y233921D01*
X183679Y230876D02*
X183898Y231095D01*
Y232929D01*
X184890Y233921D02*
X190839D01*
X178904Y244768D02*
X178904Y244768D01*
X187402Y233071D02*
X190236D01*
X190157Y224803D02*
Y230315D01*
X186723Y232393D02*
X187402Y233071D01*
Y222047D02*
X190157Y224803D01*
X185039Y222047D02*
X187402D01*
X176378Y314567D02*
X186614Y324803D01*
X176378Y273228D02*
Y314567D01*
X186723Y230671D02*
Y232393D01*
X188583Y252756D02*
X192126Y256299D01*
X331389Y264961D02*
X361417D01*
X186614Y258268D02*
Y273228D01*
X183858Y269291D02*
X183998Y269152D01*
Y258407D02*
Y269152D01*
Y258407D02*
X184138Y258268D01*
D87*
X146654Y321850D02*
D03*
X386811Y201772D02*
D03*
Y321850D02*
D03*
X146654Y201772D02*
D03*
D88*
X331693Y292323D02*
D03*
X351378D02*
D03*
D89*
X363189Y331693D02*
D03*
X319882D02*
D03*
D106*
X159941Y244980D02*
Y253642D01*
X165354Y259055D01*
X152756Y237795D02*
X159941Y244980D01*
X152756Y227953D02*
Y237795D01*
Y224803D02*
X171260Y206299D01*
X152756Y224803D02*
Y227953D01*
D107*
X332874Y225984D02*
D03*
X343110Y274410D02*
D03*
X328543Y278150D02*
D03*
X294685Y276772D02*
D03*
X286221Y272441D02*
D03*
X235630Y306299D02*
D03*
X232874Y312992D02*
D03*
X274803Y313189D02*
D03*
X276534Y310827D02*
D03*
X235630Y309055D02*
D03*
Y312795D02*
D03*
X201575Y314341D02*
D03*
X216929Y314961D02*
D03*
X265748Y306225D02*
D03*
X251969D02*
D03*
X354712Y283441D02*
D03*
X212193Y305488D02*
D03*
X152953Y287205D02*
D03*
X146445Y287181D02*
D03*
X338177Y194071D02*
D03*
X269279Y279307D02*
D03*
X291523Y249386D02*
D03*
X177756Y265551D02*
D03*
X191130Y278520D02*
D03*
X196653Y278543D02*
D03*
X203216Y215902D02*
D03*
X208465Y210433D02*
D03*
X279906Y220499D02*
D03*
X368701Y205118D02*
D03*
X283252Y257901D02*
D03*
X311795Y261247D02*
D03*
X303921Y267350D02*
D03*
X359433Y251995D02*
D03*
X262992Y237992D02*
D03*
X268307Y244291D02*
D03*
X340748Y204372D02*
D03*
X181496Y255118D02*
D03*
X213386Y259842D02*
D03*
X231890Y254921D02*
D03*
X215945Y253937D02*
D03*
X214961Y189370D02*
D03*
X211417Y188779D02*
D03*
X176181Y242520D02*
D03*
X163386Y242717D02*
D03*
X178771Y239007D02*
D03*
X170046Y231890D02*
D03*
X179104Y228987D02*
D03*
Y234252D02*
D03*
X176181Y249410D02*
D03*
X286417Y309842D02*
D03*
X232874Y263189D02*
D03*
Y269094D02*
D03*
X276378Y233268D02*
D03*
X296850Y217323D02*
D03*
X296654Y225197D02*
D03*
X284449Y208465D02*
D03*
X325787Y194685D02*
D03*
X312008D02*
D03*
X298228D02*
D03*
X284449D02*
D03*
X332677Y201772D02*
D03*
X318898D02*
D03*
X305118D02*
D03*
X291339D02*
D03*
X277559D02*
D03*
X296063Y253937D02*
D03*
X327362Y256890D02*
D03*
X320669D02*
D03*
X313976D02*
D03*
X307283D02*
D03*
X300590D02*
D03*
X278590Y244350D02*
D03*
X245579Y324730D02*
D03*
X286221Y312598D02*
D03*
X294882Y310827D02*
D03*
X296260Y321850D02*
D03*
X290876Y324206D02*
D03*
X253459Y316675D02*
D03*
X261024Y327953D02*
D03*
X271654Y318898D02*
D03*
X261024Y318110D02*
D03*
X353822Y220604D02*
D03*
X163344Y261274D02*
D03*
X193898Y278346D02*
D03*
X189370Y291339D02*
D03*
X280709Y217913D02*
D03*
X332895Y228564D02*
D03*
X333465Y223311D02*
D03*
X267717Y225984D02*
D03*
X375787Y230315D02*
D03*
X374803Y223622D02*
D03*
X358661Y218898D02*
D03*
X353740Y224213D02*
D03*
X247244Y219882D02*
D03*
X244882D02*
D03*
X249606D02*
D03*
X242520D02*
D03*
X332677Y236614D02*
D03*
Y243701D02*
D03*
X280512Y257874D02*
D03*
X340398Y213469D02*
D03*
X269488Y211221D02*
D03*
X245864Y215303D02*
D03*
X248209Y209328D02*
D03*
X263189Y209252D02*
D03*
X233465Y209055D02*
D03*
X243500Y209364D02*
D03*
X222441Y210827D02*
D03*
X223622Y204331D02*
D03*
X226969Y251969D02*
D03*
X204528Y233268D02*
D03*
X216024Y225546D02*
D03*
X182087Y271457D02*
D03*
X186811Y276378D02*
D03*
X156141Y246082D02*
D03*
X142873Y246471D02*
D03*
X262598Y252559D02*
D03*
X252953Y253937D02*
D03*
X250000D02*
D03*
X256299Y253740D02*
D03*
X257677Y251378D02*
D03*
X255209Y251174D02*
D03*
X252736Y251305D02*
D03*
X250096Y251373D02*
D03*
X259449Y253543D02*
D03*
X179134Y241929D02*
D03*
X236041Y235631D02*
D03*
X276969Y278346D02*
D03*
X200197Y229331D02*
D03*
X188976Y305709D02*
D03*
X183858Y298622D02*
D03*
X182087Y279528D02*
D03*
X204724Y282087D02*
D03*
X376181Y215945D02*
D03*
X230512Y235433D02*
D03*
X224803Y242126D02*
D03*
X225197Y233268D02*
D03*
X182480Y288976D02*
D03*
X174213Y269291D02*
D03*
X206693Y231299D02*
D03*
X208661Y244488D02*
D03*
X204331Y244882D02*
D03*
X206693Y247244D02*
D03*
X204134Y238386D02*
D03*
X208465Y240551D02*
D03*
X229446Y253884D02*
D03*
X196876Y243352D02*
D03*
X224606Y230512D02*
D03*
X213386Y225590D02*
D03*
X222441Y227756D02*
D03*
X220866Y271063D02*
D03*
X225394Y249606D02*
D03*
X149606Y287402D02*
D03*
X191374Y237805D02*
D03*
X219882Y225787D02*
D03*
X256093Y235631D02*
D03*
X246067Y235631D02*
D03*
X178904Y247245D02*
D03*
Y244768D02*
D03*
X190157Y230315D02*
D03*
X239370Y252165D02*
D03*
X247638D02*
D03*
X342469Y296478D02*
D03*
X189185Y326877D02*
D03*
X198425Y326772D02*
D03*
X193701D02*
D03*
X184646D02*
D03*
X196457Y324803D02*
D03*
X191732D02*
D03*
X186614D02*
D03*
X178740Y250394D02*
D03*
X181890Y324803D02*
D03*
X386811Y211024D02*
D03*
X377559Y201772D02*
D03*
X386811Y192520D02*
D03*
X396063Y201772D02*
D03*
X393110Y208268D02*
D03*
X380118D02*
D03*
Y195276D02*
D03*
X393110D02*
D03*
X386811Y331102D02*
D03*
X377559Y321850D02*
D03*
X386811Y312598D02*
D03*
X396063Y321850D02*
D03*
X393110Y328346D02*
D03*
X380118D02*
D03*
Y315354D02*
D03*
X393110D02*
D03*
X146654Y211024D02*
D03*
X137402Y201772D02*
D03*
X146654Y192520D02*
D03*
X155905Y201772D02*
D03*
X152953Y208268D02*
D03*
X139961D02*
D03*
Y195276D02*
D03*
X152953D02*
D03*
Y315354D02*
D03*
X139961D02*
D03*
Y328346D02*
D03*
X152953D02*
D03*
X155905Y321850D02*
D03*
X146654Y312598D02*
D03*
X137402Y321850D02*
D03*
X146654Y331102D02*
D03*
X191329Y248854D02*
D03*
X194648Y256299D02*
D03*
X192126Y256299D02*
D03*
X353346Y212598D02*
D03*
X320866Y262795D02*
D03*
X159449Y238189D02*
D03*
X201240Y287402D02*
D03*
X245821Y198764D02*
D03*
X269685Y190945D02*
D03*
Y204724D02*
D03*
X329724Y259842D02*
D03*
X196592Y259384D02*
D03*
X193273Y259428D02*
D03*
X189961Y268701D02*
D03*
X200591Y270276D02*
D03*
X172244Y272638D02*
D03*
Y286417D02*
D03*
X164173Y286221D02*
D03*
X164370Y293307D02*
D03*
X165354Y304134D02*
D03*
X171260Y301181D02*
D03*
X159251Y298307D02*
D03*
X367126Y192913D02*
D03*
X396654Y333661D02*
D03*
X379921Y335630D02*
D03*
X370079D02*
D03*
X356299D02*
D03*
X342520D02*
D03*
X328740D02*
D03*
X308071D02*
D03*
X305118Y328740D02*
D03*
X272933Y299843D02*
D03*
X279528Y307087D02*
D03*
X232283Y298099D02*
D03*
X226378Y304134D02*
D03*
X193898Y200787D02*
D03*
X164370Y204724D02*
D03*
Y193898D02*
D03*
X209646Y316929D02*
D03*
X216136Y321865D02*
D03*
X163386Y325787D02*
D03*
X161417Y313976D02*
D03*
X139764Y299213D02*
D03*
X146653Y306102D02*
D03*
X263779Y187992D02*
D03*
X277559D02*
D03*
X291339D02*
D03*
X305118D02*
D03*
X318898D02*
D03*
X332677D02*
D03*
X346457D02*
D03*
X360236D02*
D03*
X374016D02*
D03*
X396654Y189961D02*
D03*
X312008Y279528D02*
D03*
X318898Y287402D02*
D03*
X312008Y293307D02*
D03*
X318898Y301181D02*
D03*
X312008Y307087D02*
D03*
Y322835D02*
D03*
X305118Y314961D02*
D03*
X283465Y329724D02*
D03*
X276575Y335630D02*
D03*
X290354D02*
D03*
X179921Y326772D02*
D03*
X238189Y329724D02*
D03*
X246063Y335630D02*
D03*
X229978Y335676D02*
D03*
X216136Y335645D02*
D03*
X202756Y335630D02*
D03*
X188976D02*
D03*
X175197D02*
D03*
X159449D02*
D03*
X134843Y331693D02*
D03*
X132874Y306102D02*
D03*
Y292323D02*
D03*
Y278543D02*
D03*
X205675Y187994D02*
D03*
X195866Y187992D02*
D03*
X156496D02*
D03*
X135827Y190945D02*
D03*
X132874Y250984D02*
D03*
Y223425D02*
D03*
Y237205D02*
D03*
Y209646D02*
D03*
X153543Y216535D02*
D03*
X160287Y211301D02*
D03*
X168110Y215354D02*
D03*
X173601Y210826D02*
D03*
X155118Y270079D02*
D03*
X144095D02*
D03*
X141905Y232844D02*
D03*
X159635Y222847D02*
D03*
X143307Y223622D02*
D03*
X155905Y227953D02*
D03*
X149606D02*
D03*
X381890Y216535D02*
D03*
X244882Y252165D02*
D03*
X271654Y253937D02*
D03*
X271575Y268807D02*
D03*
X265748Y261811D02*
D03*
X374016Y236221D02*
D03*
Y263779D02*
D03*
Y248031D02*
D03*
Y330709D02*
D03*
X370079Y322835D02*
D03*
X371972Y289266D02*
D03*
X362205Y287402D02*
D03*
X377953Y295276D02*
D03*
X374016Y307087D02*
D03*
X366142Y299213D02*
D03*
X342520Y307087D02*
D03*
X350394Y303150D02*
D03*
X358268Y322835D02*
D03*
X350394Y314961D02*
D03*
X366142D02*
D03*
X358268Y307087D02*
D03*
X334646Y330709D02*
D03*
X350394D02*
D03*
X342520Y322835D02*
D03*
X326772D02*
D03*
X318898Y314961D02*
D03*
X334646D02*
D03*
X326772Y307087D02*
D03*
X389764D02*
D03*
X397638Y311024D02*
D03*
Y303150D02*
D03*
X381890D02*
D03*
X397638Y212598D02*
D03*
X389764Y216535D02*
D03*
X397638Y224410D02*
D03*
X381890D02*
D03*
X389764Y279528D02*
D03*
X397638Y287402D02*
D03*
X381890D02*
D03*
Y271654D02*
D03*
X397638D02*
D03*
X389764Y295276D02*
D03*
Y232283D02*
D03*
Y263779D02*
D03*
X381890Y255906D02*
D03*
X397638D02*
D03*
Y240158D02*
D03*
X381890D02*
D03*
X389764Y248031D02*
D03*
X261024Y335039D02*
D03*
X176772Y252559D02*
D03*
X209449Y274410D02*
D03*
X234252Y279134D02*
D03*
X225590Y278346D02*
D03*
X216535Y279134D02*
D03*
X261811Y275590D02*
D03*
X241732D02*
D03*
X331890Y251772D02*
D03*
X348031Y191732D02*
D03*
X360630Y201181D02*
D03*
X364370Y237795D02*
D03*
Y246850D02*
D03*
X367717Y255118D02*
D03*
X362205Y261024D02*
D03*
X377165Y281102D02*
D03*
X369291D02*
D03*
X315354Y270866D02*
D03*
X311811D02*
D03*
X308268D02*
D03*
X294094Y267323D02*
D03*
X292520Y290158D02*
D03*
X292597Y297708D02*
D03*
X261417Y283465D02*
D03*
X252362D02*
D03*
X243307D02*
D03*
X261024Y291339D02*
D03*
X251969D02*
D03*
X243307D02*
D03*
X227165Y319291D02*
D03*
X172441D02*
D03*
X208268Y287402D02*
D03*
X204724D02*
D03*
X225629Y263482D02*
D03*
X182283Y196850D02*
D03*
X177953D02*
D03*
X171260Y187992D02*
D03*
X182087D02*
D03*
X188583Y207087D02*
D03*
X181496D02*
D03*
X174409Y219685D02*
D03*
X135039Y264567D02*
D03*
X164173Y272441D02*
D03*
Y264961D02*
D03*
X135039Y272047D02*
D03*
X134252Y243307D02*
D03*
X146063Y228346D02*
D03*
X152756Y246063D02*
D03*
X149606Y245965D02*
D03*
X146457Y246063D02*
D03*
X153543Y263386D02*
D03*
X149606D02*
D03*
X145669D02*
D03*
X165354Y259055D02*
D03*
X186614Y273228D02*
D03*
X176378D02*
D03*
X183858Y269291D02*
D03*
X186614Y258268D02*
D03*
X184138D02*
D03*
X183679Y230876D02*
D03*
X186723Y230671D02*
D03*
X185827Y243307D02*
D03*
X361417Y264961D02*
D03*
X208661Y212992D02*
D03*
X205791Y215748D02*
D03*
X197638Y256299D02*
D03*
X185039Y222047D02*
D03*
X294882Y274016D02*
D03*
X304724Y285039D02*
D03*
X233071Y266142D02*
D03*
X192126Y212205D02*
D03*
X242126Y252165D02*
D03*
X171260Y206299D02*
D03*
X152756Y227953D02*
D03*
D108*
X260787Y193937D02*
D03*
X250787D02*
D03*
X240787D02*
D03*
X230787D02*
D03*
X260787Y203937D02*
D03*
X250787D02*
D03*
X240787D02*
D03*
X260787Y213937D02*
D03*
X250787D02*
D03*
X240787D02*
D03*
X230787Y203937D02*
D03*
Y213937D02*
D03*
D109*
X246102Y324206D02*
X290876D01*
X245579Y324730D02*
X246102Y324206D01*
M02*
