G04*
G04 #@! TF.GenerationSoftware,Altium Limited,Altium Designer,24.7.2 (38)*
G04*
G04 Layer_Color=32768*
%FSLAX25Y25*%
%MOIN*%
G70*
G04*
G04 #@! TF.SameCoordinates,AB7849DE-EAC8-4354-A705-FC1E97C67EB3*
G04*
G04*
G04 #@! TF.FilePolarity,Positive*
G04*
G01*
G75*
%ADD13C,0.00787*%
%ADD15C,0.01000*%
%ADD16C,0.00394*%
%ADD20C,0.01181*%
%ADD21C,0.00500*%
%ADD23C,0.00197*%
D13*
X313976Y285236D02*
X369094D01*
Y344291D01*
X313976Y285236D02*
Y344291D01*
X369094D01*
X167198Y315074D02*
X211095D01*
X167198D02*
Y337122D01*
X211095D01*
Y315074D02*
Y337122D01*
D15*
X298228Y208071D02*
X329724D01*
X298228D02*
Y239567D01*
X329724D01*
Y208071D02*
Y239567D01*
X305008Y262669D02*
X318508D01*
Y278669D01*
X305008D02*
X318508D01*
X305008Y262669D02*
Y278669D01*
D16*
X265394Y229331D02*
Y241929D01*
X226732Y229331D02*
Y241929D01*
X273228Y336811D02*
X293701D01*
X300197Y320472D02*
Y325590D01*
X294488Y320472D02*
X300197D01*
X266732D02*
Y325590D01*
Y320472D02*
X272441D01*
X227953Y336811D02*
X248425D01*
X254921Y320472D02*
Y325590D01*
X249213Y320472D02*
X254921D01*
X221457D02*
Y325590D01*
Y320472D02*
X227165D01*
X181509Y253172D02*
X201194D01*
Y233487D02*
Y253172D01*
X182690Y233487D02*
X201194D01*
X181509Y234668D02*
Y253172D01*
Y234668D02*
X182690Y233487D01*
X197146Y191142D02*
X202264D01*
Y202559D01*
X197146D02*
X202264D01*
X197146Y191142D02*
Y202559D01*
X202621Y217591D02*
Y227237D01*
X192975Y217591D02*
Y227237D01*
X143504Y239862D02*
X155709D01*
Y252067D01*
X143504D02*
X155709D01*
X143504Y245965D02*
Y252067D01*
Y239862D02*
Y245965D01*
X152756Y289469D02*
Y295374D01*
X146457Y289469D02*
Y295374D01*
X154724Y259744D02*
Y267618D01*
X144488Y259744D02*
Y267618D01*
X264764Y281102D02*
Y294094D01*
X239173Y281102D02*
Y294094D01*
X203543Y284449D02*
X205906D01*
X210827Y285630D02*
Y289567D01*
X198622Y285630D02*
Y289567D01*
D20*
X398622Y201772D02*
G03*
X398622Y201772I-11811J0D01*
G01*
Y321850D02*
G03*
X398622Y321850I-11811J0D01*
G01*
X158465Y201772D02*
G03*
X158465Y201772I-11811J0D01*
G01*
Y321850D02*
G03*
X158465Y321850I-11811J0D01*
G01*
D21*
X310142Y242507D02*
Y255500D01*
X304237Y242507D02*
X310142D01*
X304237D02*
Y255500D01*
X310142D01*
X333734Y206299D02*
Y212205D01*
Y206299D02*
X346727D01*
Y212205D01*
X333734D02*
X346727D01*
X142520Y240354D02*
Y252559D01*
X140648D02*
X142520D01*
X136223D02*
X137698D01*
X136223Y240357D02*
X136226Y240354D01*
X136223Y240357D02*
Y252559D01*
X136226Y240354D02*
X137700D01*
X140647D02*
X142520D01*
X185446Y208290D02*
X191351D01*
Y221282D01*
X185446D02*
X191351D01*
X185446Y208290D02*
Y221282D01*
X192106Y190921D02*
Y203126D01*
X190235D02*
X192106D01*
X185810D02*
X187285D01*
X185810Y190924D02*
X185813Y190921D01*
X185810Y190924D02*
Y203126D01*
X185813Y190921D02*
X187286D01*
X190233D02*
X192106D01*
X365945Y266535D02*
Y278740D01*
Y266535D02*
X367816D01*
X370766D02*
X372241D01*
X372238Y278740D02*
X372241Y278737D01*
Y266535D02*
Y278737D01*
X370765Y278740D02*
X372238D01*
X365945D02*
X367818D01*
X207382Y190748D02*
Y202953D01*
Y190748D02*
X209253D01*
X212203D02*
X213678D01*
X213675Y202953D02*
X213678Y202950D01*
Y190748D02*
Y202950D01*
X212202Y202953D02*
X213675D01*
X207382D02*
X209255D01*
X168287Y190528D02*
Y203520D01*
X174193D01*
Y190528D02*
Y203520D01*
X168287Y190528D02*
X174193D01*
X202559Y249410D02*
Y262402D01*
X208465D01*
Y249410D02*
Y262402D01*
X202559Y249410D02*
X208465D01*
X205328Y213110D02*
Y214983D01*
Y208690D02*
Y210163D01*
X193123Y208687D02*
X205325D01*
X205328Y208690D01*
X193123Y208687D02*
Y210162D01*
Y213111D02*
Y214983D01*
X205328D01*
X178556Y208290D02*
Y221282D01*
X184462D01*
Y208290D02*
Y221282D01*
X178556Y208290D02*
X184462D01*
X178950Y228566D02*
X191942D01*
Y222660D02*
Y228566D01*
X178950Y222660D02*
X191942D01*
X178950D02*
Y228566D01*
X171666Y222070D02*
Y235062D01*
X177572D01*
Y222070D02*
Y235062D01*
X171666Y222070D02*
X177572D01*
X168701Y248031D02*
X170574D01*
X173521D02*
X174994D01*
X174997Y235827D02*
Y248028D01*
X174994Y248031D02*
X174997Y248028D01*
X173522Y235827D02*
X174997D01*
X168701D02*
X170572D01*
X168701D02*
Y248031D01*
X329528Y271457D02*
X341732D01*
Y273328D01*
Y276278D02*
Y277753D01*
X329528Y277750D02*
X329531Y277753D01*
X341732D01*
X329528Y276277D02*
Y277750D01*
Y271457D02*
Y273330D01*
Y263583D02*
Y265456D01*
Y268403D02*
Y269876D01*
X329531Y269879D02*
X341732D01*
X329528Y269876D02*
X329531Y269879D01*
X341732Y268404D02*
Y269879D01*
Y263583D02*
Y265454D01*
X329528Y263583D02*
X341732D01*
X326772Y264173D02*
Y277165D01*
X320866Y264173D02*
X326772D01*
X320866D02*
Y277165D01*
X326772D01*
X281652Y251091D02*
X294644D01*
X281652D02*
Y256996D01*
X294644D01*
Y251091D02*
Y256996D01*
X282087Y264764D02*
X294291D01*
X282087Y262892D02*
Y264764D01*
Y258468D02*
Y259942D01*
X294288Y258468D02*
X294291Y258471D01*
X282087Y258468D02*
X294288D01*
X294291Y258471D02*
Y259944D01*
Y262891D02*
Y264764D01*
X296260Y264173D02*
Y277165D01*
X302165D01*
Y264173D02*
Y277165D01*
X296260Y264173D02*
X302165D01*
X345669Y279724D02*
X355118D01*
X345669Y261614D02*
X355118D01*
Y279724D01*
X345669Y261614D02*
Y279724D01*
X295276Y226473D02*
Y228346D01*
Y222053D02*
Y223527D01*
X283071Y222050D02*
X295273D01*
X295276Y222053D01*
X283071Y222050D02*
Y223525D01*
Y226475D02*
Y228346D01*
X295276D01*
X282833Y214280D02*
X295825D01*
X282833D02*
Y220185D01*
X295825D01*
Y214280D02*
Y220185D01*
X283071Y230118D02*
X295276D01*
Y231990D01*
Y234940D02*
Y236414D01*
X283071Y236411D02*
X283074Y236414D01*
X295276D01*
X283071Y234938D02*
Y236411D01*
Y230118D02*
Y231991D01*
X297539Y255492D02*
X303445D01*
X297539Y242500D02*
Y255492D01*
Y242500D02*
X303445D01*
Y255492D01*
X374016Y279134D02*
X379921D01*
X374016Y266142D02*
Y279134D01*
Y266142D02*
X379921D01*
Y279134D01*
X317703Y255577D02*
X323608D01*
X317703Y242585D02*
Y255577D01*
Y242585D02*
X323608D01*
Y255577D01*
X324436Y255538D02*
X330341D01*
X324436Y242546D02*
Y255538D01*
Y242546D02*
X330341D01*
Y255538D01*
X362497Y266535D02*
X364370D01*
X358077D02*
X359550D01*
X358074Y266538D02*
Y278740D01*
Y266538D02*
X358077Y266535D01*
X358074Y278740D02*
X359549D01*
X362498D02*
X364370D01*
Y266535D02*
Y278740D01*
X263779Y256496D02*
Y268701D01*
X261908D02*
X263779D01*
X257483D02*
X258958D01*
X257483Y256499D02*
X257486Y256496D01*
X257483Y256499D02*
Y268701D01*
X257486Y256496D02*
X258960D01*
X261907D02*
X263779D01*
X256693D02*
Y268701D01*
X254821D02*
X256693D01*
X250397D02*
X251872D01*
X250397Y256499D02*
X250400Y256496D01*
X250397Y256499D02*
Y268701D01*
X250400Y256496D02*
X251873D01*
X254820D02*
X256693D01*
X249606D02*
Y268701D01*
X247735D02*
X249606D01*
X243310D02*
X244785D01*
X243310Y256499D02*
X243313Y256496D01*
X243310Y256499D02*
Y268701D01*
X243313Y256496D02*
X244786D01*
X247733D02*
X249606D01*
X242520D02*
Y268701D01*
X240648D02*
X242520D01*
X236223D02*
X237698D01*
X236223Y256499D02*
X236226Y256496D01*
X236223Y256499D02*
Y268701D01*
X236226Y256496D02*
X237700D01*
X240647D02*
X242520D01*
X294685Y292933D02*
X307677D01*
Y287027D02*
Y292933D01*
X294685Y287027D02*
X307677D01*
X294685D02*
Y292933D01*
X210630Y232087D02*
X223622D01*
X210630D02*
Y237992D01*
X223622D01*
Y232087D02*
Y237992D01*
X222939Y256102D02*
X235144D01*
Y257974D01*
Y260924D02*
Y262399D01*
X222939Y262396D02*
X222942Y262399D01*
X235144D01*
X222939Y260922D02*
Y262396D01*
Y256102D02*
Y257975D01*
X158268Y236417D02*
X160141D01*
X163088D02*
X164561D01*
X164564Y224213D02*
Y236414D01*
X164561Y236417D02*
X164564Y236414D01*
X163089Y224213D02*
X164564D01*
X158268D02*
X160139D01*
X158268D02*
Y236417D01*
X134646D02*
X136519D01*
X139466D02*
X140939D01*
X140942Y224213D02*
Y236414D01*
X140939Y236417D02*
X140942Y236414D01*
X139467Y224213D02*
X140942D01*
X134646D02*
X136517D01*
X134646D02*
Y236417D01*
X143110Y230217D02*
Y236122D01*
Y230217D02*
X156102D01*
Y236122D01*
X143110D02*
X156102D01*
X152559Y273425D02*
Y286417D01*
X146653Y273425D02*
X152559D01*
X146653D02*
Y286417D01*
X152559D01*
X136811Y269094D02*
X142717D01*
Y282087D01*
X136811D02*
X142717D01*
X136811Y269094D02*
Y282087D01*
X156496Y267913D02*
X162402D01*
X156496Y254921D02*
Y267913D01*
Y254921D02*
X162402D01*
Y267913D01*
X136811D02*
X142717D01*
X136811Y254921D02*
Y267913D01*
Y254921D02*
X142717D01*
Y267913D01*
X156496Y269094D02*
X162402D01*
Y282087D01*
X156496D02*
X162402D01*
X156496Y269094D02*
Y282087D01*
Y239567D02*
X162402D01*
Y252559D01*
X156496D02*
X162402D01*
X156496Y239567D02*
Y252559D01*
X333661Y239567D02*
X346654D01*
Y233661D02*
Y239567D01*
X333661Y233661D02*
X346654D01*
X333661D02*
Y239567D01*
X361024Y212402D02*
X373228D01*
Y214273D01*
Y217223D02*
Y218698D01*
X361024Y218695D02*
X361027Y218698D01*
X373228D01*
X361024Y217221D02*
Y218695D01*
Y212402D02*
Y214275D01*
X295079Y294704D02*
X307283D01*
Y296576D01*
Y299526D02*
Y301001D01*
X295079Y300998D02*
X295082Y301001D01*
X307283D01*
X295079Y299524D02*
Y300998D01*
Y294704D02*
Y296577D01*
X211024Y245276D02*
X223228D01*
X211024Y243404D02*
Y245276D01*
Y238979D02*
Y240454D01*
X223225Y238979D02*
X223228Y238982D01*
X211024Y238979D02*
X223225D01*
X223228Y238982D02*
Y240456D01*
Y243403D02*
Y245276D01*
X347244Y200984D02*
X359449D01*
X347244Y199113D02*
Y200984D01*
Y194688D02*
Y196163D01*
X359446Y194688D02*
X359449Y194691D01*
X347244Y194688D02*
X359446D01*
X359449Y194691D02*
Y196164D01*
Y199111D02*
Y200984D01*
X197047Y280709D02*
Y293701D01*
X191142Y280709D02*
X197047D01*
X191142D02*
Y293701D01*
X197047D01*
X213583Y281102D02*
Y294094D01*
X219488D01*
Y281102D02*
Y294094D01*
X213583Y281102D02*
X219488D01*
X231299D02*
Y294094D01*
X237205D01*
Y281102D02*
Y294094D01*
X231299Y281102D02*
X237205D01*
X266268Y281274D02*
Y294266D01*
X272174D01*
Y281274D02*
Y294266D01*
X266268Y281274D02*
X272174D01*
X343796Y191142D02*
X345669D01*
X339376D02*
X340849D01*
X339373Y191145D02*
Y203346D01*
Y191145D02*
X339376Y191142D01*
X339373Y203346D02*
X340848D01*
X343798D02*
X345669D01*
Y191142D02*
Y203346D01*
X211024Y246260D02*
Y248133D01*
Y251080D02*
Y252553D01*
X211027Y252556D02*
X223228D01*
X211024Y252553D02*
X211027Y252556D01*
X223228Y251081D02*
Y252556D01*
Y246260D02*
Y248131D01*
X211024Y246260D02*
X223228D01*
X307283Y306735D02*
Y308608D01*
Y302315D02*
Y303788D01*
X295079Y302312D02*
X307280D01*
X307283Y302315D01*
X295079Y302312D02*
Y303787D01*
Y306737D02*
Y308608D01*
X307283D01*
X361024Y226575D02*
X373228D01*
X361024Y224703D02*
Y226575D01*
Y220279D02*
Y221754D01*
X373225Y220279D02*
X373228Y220282D01*
X361024Y220279D02*
X373225D01*
X373228Y220282D02*
Y221755D01*
Y224702D02*
Y226575D01*
X333661Y246654D02*
X346654D01*
Y240748D02*
Y246654D01*
X333661Y240748D02*
X346654D01*
X333661D02*
Y246654D01*
X316895Y242527D02*
Y255519D01*
X310989Y242527D02*
X316895D01*
X310989D02*
Y255519D01*
X316895D01*
D23*
X286221Y287598D02*
X290748D01*
X281693D02*
Y295866D01*
Y287598D02*
X286221D01*
X281693Y295866D02*
X286221D01*
X290748Y287598D02*
Y295866D01*
X286221D02*
X290748D01*
M02*
