G04*
G04 #@! TF.GenerationSoftware,Altium Limited,Altium Designer,24.7.2 (38)*
G04*
G04 Layer_Physical_Order=1*
G04 Layer_Color=12429013*
%FSLAX25Y25*%
%MOIN*%
G70*
G04*
G04 #@! TF.SameCoordinates,AB7849DE-EAC8-4354-A705-FC1E97C67EB3*
G04*
G04*
G04 #@! TF.FilePolarity,Positive*
G04*
G01*
G75*
%ADD10C,0.01968*%
%ADD11C,0.01575*%
%ADD12C,0.00984*%
%ADD15C,0.01000*%
%ADD20C,0.01181*%
%ADD21C,0.00500*%
G04:AMPARAMS|DCode=35|XSize=39.37mil|YSize=106.3mil|CornerRadius=2.95mil|HoleSize=0mil|Usage=FLASHONLY|Rotation=180.000|XOffset=0mil|YOffset=0mil|HoleType=Round|Shape=RoundedRectangle|*
%AMROUNDEDRECTD35*
21,1,0.03937,0.10039,0,0,180.0*
21,1,0.03347,0.10630,0,0,180.0*
1,1,0.00591,-0.01673,0.05020*
1,1,0.00591,0.01673,0.05020*
1,1,0.00591,0.01673,-0.05020*
1,1,0.00591,-0.01673,-0.05020*
%
%ADD35ROUNDEDRECTD35*%
G04:AMPARAMS|DCode=36|XSize=23.62mil|YSize=66.93mil|CornerRadius=1.77mil|HoleSize=0mil|Usage=FLASHONLY|Rotation=180.000|XOffset=0mil|YOffset=0mil|HoleType=Round|Shape=RoundedRectangle|*
%AMROUNDEDRECTD36*
21,1,0.02362,0.06339,0,0,180.0*
21,1,0.02008,0.06693,0,0,180.0*
1,1,0.00354,-0.01004,0.03169*
1,1,0.00354,0.01004,0.03169*
1,1,0.00354,0.01004,-0.03169*
1,1,0.00354,-0.01004,-0.03169*
%
%ADD36ROUNDEDRECTD36*%
G04:AMPARAMS|DCode=56|XSize=51.18mil|YSize=59.06mil|CornerRadius=3.84mil|HoleSize=0mil|Usage=FLASHONLY|Rotation=180.000|XOffset=0mil|YOffset=0mil|HoleType=Round|Shape=RoundedRectangle|*
%AMROUNDEDRECTD56*
21,1,0.05118,0.05138,0,0,180.0*
21,1,0.04350,0.05906,0,0,180.0*
1,1,0.00768,-0.02175,0.02569*
1,1,0.00768,0.02175,0.02569*
1,1,0.00768,0.02175,-0.02569*
1,1,0.00768,-0.02175,-0.02569*
%
%ADD56ROUNDEDRECTD56*%
G04:AMPARAMS|DCode=57|XSize=43.31mil|YSize=39.37mil|CornerRadius=2.95mil|HoleSize=0mil|Usage=FLASHONLY|Rotation=270.000|XOffset=0mil|YOffset=0mil|HoleType=Round|Shape=RoundedRectangle|*
%AMROUNDEDRECTD57*
21,1,0.04331,0.03347,0,0,270.0*
21,1,0.03740,0.03937,0,0,270.0*
1,1,0.00591,-0.01673,-0.01870*
1,1,0.00591,-0.01673,0.01870*
1,1,0.00591,0.01673,0.01870*
1,1,0.00591,0.01673,-0.01870*
%
%ADD57ROUNDEDRECTD57*%
G04:AMPARAMS|DCode=59|XSize=295.28mil|YSize=98.43mil|CornerRadius=4.92mil|HoleSize=0mil|Usage=FLASHONLY|Rotation=180.000|XOffset=0mil|YOffset=0mil|HoleType=Round|Shape=RoundedRectangle|*
%AMROUNDEDRECTD59*
21,1,0.29528,0.08858,0,0,180.0*
21,1,0.28543,0.09843,0,0,180.0*
1,1,0.00984,-0.14272,0.04429*
1,1,0.00984,0.14272,0.04429*
1,1,0.00984,0.14272,-0.04429*
1,1,0.00984,-0.14272,-0.04429*
%
%ADD59ROUNDEDRECTD59*%
G04:AMPARAMS|DCode=60|XSize=43.31mil|YSize=39.37mil|CornerRadius=2.95mil|HoleSize=0mil|Usage=FLASHONLY|Rotation=0.000|XOffset=0mil|YOffset=0mil|HoleType=Round|Shape=RoundedRectangle|*
%AMROUNDEDRECTD60*
21,1,0.04331,0.03347,0,0,0.0*
21,1,0.03740,0.03937,0,0,0.0*
1,1,0.00591,0.01870,-0.01673*
1,1,0.00591,-0.01870,-0.01673*
1,1,0.00591,-0.01870,0.01673*
1,1,0.00591,0.01870,0.01673*
%
%ADD60ROUNDEDRECTD60*%
G04:AMPARAMS|DCode=61|XSize=51.18mil|YSize=59.06mil|CornerRadius=3.84mil|HoleSize=0mil|Usage=FLASHONLY|Rotation=90.000|XOffset=0mil|YOffset=0mil|HoleType=Round|Shape=RoundedRectangle|*
%AMROUNDEDRECTD61*
21,1,0.05118,0.05138,0,0,90.0*
21,1,0.04350,0.05906,0,0,90.0*
1,1,0.00768,0.02569,0.02175*
1,1,0.00768,0.02569,-0.02175*
1,1,0.00768,-0.02569,-0.02175*
1,1,0.00768,-0.02569,0.02175*
%
%ADD61ROUNDEDRECTD61*%
G04:AMPARAMS|DCode=62|XSize=23.62mil|YSize=66.93mil|CornerRadius=1.18mil|HoleSize=0mil|Usage=FLASHONLY|Rotation=180.000|XOffset=0mil|YOffset=0mil|HoleType=Round|Shape=RoundedRectangle|*
%AMROUNDEDRECTD62*
21,1,0.02362,0.06457,0,0,180.0*
21,1,0.02126,0.06693,0,0,180.0*
1,1,0.00236,-0.01063,0.03228*
1,1,0.00236,0.01063,0.03228*
1,1,0.00236,0.01063,-0.03228*
1,1,0.00236,-0.01063,-0.03228*
%
%ADD62ROUNDEDRECTD62*%
G04:AMPARAMS|DCode=63|XSize=39.37mil|YSize=106.3mil|CornerRadius=1.97mil|HoleSize=0mil|Usage=FLASHONLY|Rotation=180.000|XOffset=0mil|YOffset=0mil|HoleType=Round|Shape=RoundedRectangle|*
%AMROUNDEDRECTD63*
21,1,0.03937,0.10236,0,0,180.0*
21,1,0.03543,0.10630,0,0,180.0*
1,1,0.00394,-0.01772,0.05118*
1,1,0.00394,0.01772,0.05118*
1,1,0.00394,0.01772,-0.05118*
1,1,0.00394,-0.01772,-0.05118*
%
%ADD63ROUNDEDRECTD63*%
G04:AMPARAMS|DCode=66|XSize=39.37mil|YSize=43.31mil|CornerRadius=2.95mil|HoleSize=0mil|Usage=FLASHONLY|Rotation=180.000|XOffset=0mil|YOffset=0mil|HoleType=Round|Shape=RoundedRectangle|*
%AMROUNDEDRECTD66*
21,1,0.03937,0.03740,0,0,180.0*
21,1,0.03347,0.04331,0,0,180.0*
1,1,0.00591,-0.01673,0.01870*
1,1,0.00591,0.01673,0.01870*
1,1,0.00591,0.01673,-0.01870*
1,1,0.00591,-0.01673,-0.01870*
%
%ADD66ROUNDEDRECTD66*%
G04:AMPARAMS|DCode=67|XSize=23.62mil|YSize=11.81mil|CornerRadius=0.59mil|HoleSize=0mil|Usage=FLASHONLY|Rotation=180.000|XOffset=0mil|YOffset=0mil|HoleType=Round|Shape=RoundedRectangle|*
%AMROUNDEDRECTD67*
21,1,0.02362,0.01063,0,0,180.0*
21,1,0.02244,0.01181,0,0,180.0*
1,1,0.00118,-0.01122,0.00532*
1,1,0.00118,0.01122,0.00532*
1,1,0.00118,0.01122,-0.00532*
1,1,0.00118,-0.01122,-0.00532*
%
%ADD67ROUNDEDRECTD67*%
G04:AMPARAMS|DCode=68|XSize=23.62mil|YSize=11.81mil|CornerRadius=0.59mil|HoleSize=0mil|Usage=FLASHONLY|Rotation=90.000|XOffset=0mil|YOffset=0mil|HoleType=Round|Shape=RoundedRectangle|*
%AMROUNDEDRECTD68*
21,1,0.02362,0.01063,0,0,90.0*
21,1,0.02244,0.01181,0,0,90.0*
1,1,0.00118,0.00532,0.01122*
1,1,0.00118,0.00532,-0.01122*
1,1,0.00118,-0.00532,-0.01122*
1,1,0.00118,-0.00532,0.01122*
%
%ADD68ROUNDEDRECTD68*%
G04:AMPARAMS|DCode=69|XSize=135.83mil|YSize=135.83mil|CornerRadius=3.4mil|HoleSize=0mil|Usage=FLASHONLY|Rotation=90.000|XOffset=0mil|YOffset=0mil|HoleType=Round|Shape=RoundedRectangle|*
%AMROUNDEDRECTD69*
21,1,0.13583,0.12903,0,0,90.0*
21,1,0.12903,0.13583,0,0,90.0*
1,1,0.00679,0.06452,0.06452*
1,1,0.00679,0.06452,-0.06452*
1,1,0.00679,-0.06452,-0.06452*
1,1,0.00679,-0.06452,0.06452*
%
%ADD69ROUNDEDRECTD69*%
G04:AMPARAMS|DCode=70|XSize=22.05mil|YSize=37.4mil|CornerRadius=1.1mil|HoleSize=0mil|Usage=FLASHONLY|Rotation=90.000|XOffset=0mil|YOffset=0mil|HoleType=Round|Shape=RoundedRectangle|*
%AMROUNDEDRECTD70*
21,1,0.02205,0.03520,0,0,90.0*
21,1,0.01984,0.03740,0,0,90.0*
1,1,0.00221,0.01760,0.00992*
1,1,0.00221,0.01760,-0.00992*
1,1,0.00221,-0.01760,-0.00992*
1,1,0.00221,-0.01760,0.00992*
%
%ADD70ROUNDEDRECTD70*%
G04:AMPARAMS|DCode=71|XSize=27.56mil|YSize=27.56mil|CornerRadius=2.07mil|HoleSize=0mil|Usage=FLASHONLY|Rotation=270.000|XOffset=0mil|YOffset=0mil|HoleType=Round|Shape=RoundedRectangle|*
%AMROUNDEDRECTD71*
21,1,0.02756,0.02343,0,0,270.0*
21,1,0.02343,0.02756,0,0,270.0*
1,1,0.00413,-0.01171,-0.01171*
1,1,0.00413,-0.01171,0.01171*
1,1,0.00413,0.01171,0.01171*
1,1,0.00413,0.01171,-0.01171*
%
%ADD71ROUNDEDRECTD71*%
G04:AMPARAMS|DCode=72|XSize=39.37mil|YSize=35.43mil|CornerRadius=1.77mil|HoleSize=0mil|Usage=FLASHONLY|Rotation=90.000|XOffset=0mil|YOffset=0mil|HoleType=Round|Shape=RoundedRectangle|*
%AMROUNDEDRECTD72*
21,1,0.03937,0.03189,0,0,90.0*
21,1,0.03583,0.03543,0,0,90.0*
1,1,0.00354,0.01595,0.01791*
1,1,0.00354,0.01595,-0.01791*
1,1,0.00354,-0.01595,-0.01791*
1,1,0.00354,-0.01595,0.01791*
%
%ADD72ROUNDEDRECTD72*%
G04:AMPARAMS|DCode=73|XSize=39.37mil|YSize=43.31mil|CornerRadius=2.95mil|HoleSize=0mil|Usage=FLASHONLY|Rotation=270.000|XOffset=0mil|YOffset=0mil|HoleType=Round|Shape=RoundedRectangle|*
%AMROUNDEDRECTD73*
21,1,0.03937,0.03740,0,0,270.0*
21,1,0.03347,0.04331,0,0,270.0*
1,1,0.00591,-0.01870,-0.01673*
1,1,0.00591,-0.01870,0.01673*
1,1,0.00591,0.01870,0.01673*
1,1,0.00591,0.01870,-0.01673*
%
%ADD73ROUNDEDRECTD73*%
G04:AMPARAMS|DCode=74|XSize=21.65mil|YSize=43.31mil|CornerRadius=1.62mil|HoleSize=0mil|Usage=FLASHONLY|Rotation=180.000|XOffset=0mil|YOffset=0mil|HoleType=Round|Shape=RoundedRectangle|*
%AMROUNDEDRECTD74*
21,1,0.02165,0.04006,0,0,180.0*
21,1,0.01841,0.04331,0,0,180.0*
1,1,0.00325,-0.00920,0.02003*
1,1,0.00325,0.00920,0.02003*
1,1,0.00325,0.00920,-0.02003*
1,1,0.00325,-0.00920,-0.02003*
%
%ADD74ROUNDEDRECTD74*%
G04:AMPARAMS|DCode=76|XSize=78.74mil|YSize=51.18mil|CornerRadius=5.12mil|HoleSize=0mil|Usage=FLASHONLY|Rotation=0.000|XOffset=0mil|YOffset=0mil|HoleType=Round|Shape=RoundedRectangle|*
%AMROUNDEDRECTD76*
21,1,0.07874,0.04095,0,0,0.0*
21,1,0.06850,0.05118,0,0,0.0*
1,1,0.01024,0.03425,-0.02047*
1,1,0.01024,-0.03425,-0.02047*
1,1,0.01024,-0.03425,0.02047*
1,1,0.01024,0.03425,0.02047*
%
%ADD76ROUNDEDRECTD76*%
G04:AMPARAMS|DCode=77|XSize=20.67mil|YSize=11.81mil|CornerRadius=0.89mil|HoleSize=0mil|Usage=FLASHONLY|Rotation=90.000|XOffset=0mil|YOffset=0mil|HoleType=Round|Shape=RoundedRectangle|*
%AMROUNDEDRECTD77*
21,1,0.02067,0.01004,0,0,90.0*
21,1,0.01890,0.01181,0,0,90.0*
1,1,0.00177,0.00502,0.00945*
1,1,0.00177,0.00502,-0.00945*
1,1,0.00177,-0.00502,-0.00945*
1,1,0.00177,-0.00502,0.00945*
%
%ADD77ROUNDEDRECTD77*%
G04:AMPARAMS|DCode=78|XSize=64.96mil|YSize=96.46mil|CornerRadius=4.87mil|HoleSize=0mil|Usage=FLASHONLY|Rotation=90.000|XOffset=0mil|YOffset=0mil|HoleType=Round|Shape=RoundedRectangle|*
%AMROUNDEDRECTD78*
21,1,0.06496,0.08671,0,0,90.0*
21,1,0.05522,0.09646,0,0,90.0*
1,1,0.00974,0.04336,0.02761*
1,1,0.00974,0.04336,-0.02761*
1,1,0.00974,-0.04336,-0.02761*
1,1,0.00974,-0.04336,0.02761*
%
%ADD78ROUNDEDRECTD78*%
G04:AMPARAMS|DCode=79|XSize=15.75mil|YSize=21.65mil|CornerRadius=0.79mil|HoleSize=0mil|Usage=FLASHONLY|Rotation=0.000|XOffset=0mil|YOffset=0mil|HoleType=Round|Shape=RoundedRectangle|*
%AMROUNDEDRECTD79*
21,1,0.01575,0.02008,0,0,0.0*
21,1,0.01417,0.02165,0,0,0.0*
1,1,0.00158,0.00709,-0.01004*
1,1,0.00158,-0.00709,-0.01004*
1,1,0.00158,-0.00709,0.01004*
1,1,0.00158,0.00709,0.01004*
%
%ADD79ROUNDEDRECTD79*%
G04:AMPARAMS|DCode=80|XSize=41.34mil|YSize=23.62mil|CornerRadius=1.18mil|HoleSize=0mil|Usage=FLASHONLY|Rotation=270.000|XOffset=0mil|YOffset=0mil|HoleType=Round|Shape=RoundedRectangle|*
%AMROUNDEDRECTD80*
21,1,0.04134,0.02126,0,0,270.0*
21,1,0.03898,0.02362,0,0,270.0*
1,1,0.00236,-0.01063,-0.01949*
1,1,0.00236,-0.01063,0.01949*
1,1,0.00236,0.01063,0.01949*
1,1,0.00236,0.01063,-0.01949*
%
%ADD80ROUNDEDRECTD80*%
G04:AMPARAMS|DCode=84|XSize=43.31mil|YSize=23.62mil|CornerRadius=1.18mil|HoleSize=0mil|Usage=FLASHONLY|Rotation=270.000|XOffset=0mil|YOffset=0mil|HoleType=Round|Shape=RoundedRectangle|*
%AMROUNDEDRECTD84*
21,1,0.04331,0.02126,0,0,270.0*
21,1,0.04095,0.02362,0,0,270.0*
1,1,0.00236,-0.01063,-0.02047*
1,1,0.00236,-0.01063,0.02047*
1,1,0.00236,0.01063,0.02047*
1,1,0.00236,0.01063,-0.02047*
%
%ADD84ROUNDEDRECTD84*%
%ADD85R,0.01772X0.00984*%
%ADD86R,0.00984X0.01772*%
%ADD87C,0.23622*%
%ADD88C,0.10630*%
%ADD89C,0.07874*%
%ADD90R,0.06500X0.06500*%
%ADD91C,0.06500*%
G04:AMPARAMS|DCode=92|XSize=59.06mil|YSize=17.72mil|CornerRadius=0.89mil|HoleSize=0mil|Usage=FLASHONLY|Rotation=270.000|XOffset=0mil|YOffset=0mil|HoleType=Round|Shape=RoundedRectangle|*
%AMROUNDEDRECTD92*
21,1,0.05906,0.01595,0,0,270.0*
21,1,0.05728,0.01772,0,0,270.0*
1,1,0.00177,-0.00797,-0.02864*
1,1,0.00177,-0.00797,0.02864*
1,1,0.00177,0.00797,0.02864*
1,1,0.00177,0.00797,-0.02864*
%
%ADD92ROUNDEDRECTD92*%
G04:AMPARAMS|DCode=93|XSize=115.75mil|YSize=221.26mil|CornerRadius=5.79mil|HoleSize=0mil|Usage=FLASHONLY|Rotation=270.000|XOffset=0mil|YOffset=0mil|HoleType=Round|Shape=RoundedRectangle|*
%AMROUNDEDRECTD93*
21,1,0.11575,0.20969,0,0,270.0*
21,1,0.10417,0.22126,0,0,270.0*
1,1,0.01158,-0.10484,-0.05209*
1,1,0.01158,-0.10484,0.05209*
1,1,0.01158,0.10484,0.05209*
1,1,0.01158,0.10484,-0.05209*
%
%ADD93ROUNDEDRECTD93*%
%AMCUSTOMSHAPE94*
4,1,12,-0.02362,-0.02165,-0.02362,-0.01181,-0.02559,-0.01181,-0.02559,0.01181,0.02559,0.01181,0.02559,-0.01181,0.02362,-0.01181,0.02362,-0.02165,0.00787,-0.02165,0.00787,-0.01181,-0.00787,-0.01181,-0.00787,-0.02165,-0.02362,-0.02165,0.0*%
%ADD94CUSTOMSHAPE94*%

G04:AMPARAMS|DCode=95|XSize=37.4mil|YSize=74.8mil|CornerRadius=1.87mil|HoleSize=0mil|Usage=FLASHONLY|Rotation=0.000|XOffset=0mil|YOffset=0mil|HoleType=Round|Shape=RoundedRectangle|*
%AMROUNDEDRECTD95*
21,1,0.03740,0.07106,0,0,0.0*
21,1,0.03366,0.07480,0,0,0.0*
1,1,0.00374,0.01683,-0.03553*
1,1,0.00374,-0.01683,-0.03553*
1,1,0.00374,-0.01683,0.03553*
1,1,0.00374,0.01683,0.03553*
%
%ADD95ROUNDEDRECTD95*%
G04:AMPARAMS|DCode=96|XSize=74.8mil|YSize=127.95mil|CornerRadius=3.74mil|HoleSize=0mil|Usage=FLASHONLY|Rotation=270.000|XOffset=0mil|YOffset=0mil|HoleType=Round|Shape=RoundedRectangle|*
%AMROUNDEDRECTD96*
21,1,0.07480,0.12047,0,0,270.0*
21,1,0.06732,0.12795,0,0,270.0*
1,1,0.00748,-0.06024,-0.03366*
1,1,0.00748,-0.06024,0.03366*
1,1,0.00748,0.06024,0.03366*
1,1,0.00748,0.06024,-0.03366*
%
%ADD96ROUNDEDRECTD96*%
%AMCUSTOMSHAPE97*
4,1,8,-0.02953,0.00787,-0.01968,0.00787,-0.01968,0.03150,0.02362,0.03150,0.02362,-0.03150,-0.01968,-0.03150,-0.01968,-0.00787,-0.02953,-0.00787,-0.02953,0.00787,0.0*%
%ADD97CUSTOMSHAPE97*%

G04:AMPARAMS|DCode=98|XSize=15.75mil|YSize=19.68mil|CornerRadius=0.79mil|HoleSize=0mil|Usage=FLASHONLY|Rotation=90.000|XOffset=0mil|YOffset=0mil|HoleType=Round|Shape=RoundedRectangle|*
%AMROUNDEDRECTD98*
21,1,0.01575,0.01811,0,0,90.0*
21,1,0.01417,0.01968,0,0,90.0*
1,1,0.00158,0.00906,0.00709*
1,1,0.00158,0.00906,-0.00709*
1,1,0.00158,-0.00906,-0.00709*
1,1,0.00158,-0.00906,0.00709*
%
%ADD98ROUNDEDRECTD98*%
%AMCUSTOMSHAPE99*
4,1,6,0.02618,0.06142,0.02618,-0.05138,0.02097,-0.05659,0.01614,-0.06142,-0.02618,-0.06142,-0.02618,0.06142,0.02618,0.06142,0.0*%
%ADD99CUSTOMSHAPE99*%

%AMCUSTOMSHAPE100*
4,1,4,0.01870,0.06142,-0.01870,0.06142,-0.01870,-0.06142,0.01870,-0.06142,0.01870,0.06142,0.0*%
%ADD100CUSTOMSHAPE100*%

%ADD101C,0.03150*%
%ADD102C,0.02362*%
%ADD103C,0.01339*%
%ADD104C,0.01260*%
%ADD105C,0.04331*%
%ADD106C,0.02756*%
%ADD107C,0.01968*%
G36*
X166941Y337780D02*
X167048Y337430D01*
X166953Y337367D01*
X166667Y336938D01*
X166566Y336433D01*
Y331913D01*
X169560D01*
X172554D01*
Y336433D01*
X172453Y336938D01*
X172167Y337367D01*
X172072Y337430D01*
X172178Y337780D01*
X206115Y337780D01*
X206221Y337430D01*
X206126Y337367D01*
X205840Y336938D01*
X205739Y336433D01*
Y331913D01*
X208733D01*
X211727D01*
Y336433D01*
X211627Y336938D01*
X211340Y337367D01*
X211245Y337430D01*
X211352Y337780D01*
X220617D01*
X220794Y337430D01*
X220625Y337177D01*
X220532Y336710D01*
Y332092D01*
X223524D01*
X226516D01*
Y336710D01*
X226423Y337177D01*
X226254Y337430D01*
X226430Y337780D01*
X249948D01*
X250124Y337430D01*
X249955Y337177D01*
X249862Y336710D01*
Y332092D01*
X252854D01*
X255846D01*
Y336710D01*
X255753Y337177D01*
X255584Y337430D01*
X255761Y337780D01*
X265893D01*
X266069Y337430D01*
X265900Y337177D01*
X265807Y336710D01*
Y332092D01*
X268799D01*
X271791D01*
Y336710D01*
X271698Y337177D01*
X271529Y337430D01*
X271706Y337780D01*
X295223D01*
X295400Y337430D01*
X295231Y337177D01*
X295138Y336710D01*
Y332092D01*
X298130D01*
X301122D01*
Y336710D01*
X301029Y337177D01*
X300860Y337430D01*
X301036Y337780D01*
X390102Y337780D01*
X390930D01*
X392573Y337564D01*
X394173Y337135D01*
X395704Y336501D01*
X397139Y335672D01*
X398453Y334664D01*
X399624Y333492D01*
X400633Y332178D01*
X401461Y330743D01*
X402096Y329212D01*
X402524Y327612D01*
X402740Y325969D01*
X402740Y325141D01*
X402740Y198481D01*
Y197653D01*
X402524Y196010D01*
X402096Y194410D01*
X401461Y192879D01*
X400633Y191444D01*
X399624Y190130D01*
X398453Y188958D01*
X397138Y187950D01*
X395704Y187121D01*
X394173Y186487D01*
X392573Y186058D01*
X390930Y185842D01*
X390102Y185842D01*
X143363Y185842D01*
X142535D01*
X140892Y186058D01*
X139292Y186487D01*
X137761Y187121D01*
X136326Y187950D01*
X135012Y188958D01*
X133840Y190130D01*
X132832Y191444D01*
X132003Y192879D01*
X131369Y194410D01*
X130940Y196010D01*
X130724Y197653D01*
X130724Y198481D01*
X130724Y324803D01*
X130724Y325141D01*
Y325969D01*
X130940Y327612D01*
X131369Y329212D01*
X132003Y330743D01*
X132832Y332178D01*
X133840Y333492D01*
X135012Y334664D01*
X136326Y335672D01*
X137761Y336501D01*
X139292Y337135D01*
X140892Y337564D01*
X142535Y337780D01*
X143363Y337780D01*
X166941D01*
D02*
G37*
%LPC*%
G36*
X363915Y337205D02*
X362463D01*
X361062Y336829D01*
X359805Y336104D01*
X358778Y335077D01*
X358053Y333820D01*
X357677Y332419D01*
Y330967D01*
X358053Y329565D01*
X358778Y328309D01*
X359805Y327282D01*
X361062Y326557D01*
X362463Y326181D01*
X363915D01*
X365317Y326557D01*
X366573Y327282D01*
X367600Y328309D01*
X368325Y329565D01*
X368701Y330967D01*
Y332419D01*
X368325Y333820D01*
X367600Y335077D01*
X366573Y336104D01*
X365317Y336829D01*
X363915Y337205D01*
D02*
G37*
G36*
X320607D02*
X319156D01*
X317754Y336829D01*
X316498Y336104D01*
X315471Y335077D01*
X314746Y333820D01*
X314370Y332419D01*
Y330967D01*
X314746Y329565D01*
X315471Y328309D01*
X316498Y327282D01*
X317754Y326557D01*
X319156Y326181D01*
X320607D01*
X322009Y326557D01*
X323266Y327282D01*
X324292Y328309D01*
X325018Y329565D01*
X325394Y330967D01*
Y332419D01*
X325018Y333820D01*
X324292Y335077D01*
X323266Y336104D01*
X322009Y336829D01*
X320607Y337205D01*
D02*
G37*
G36*
X301122Y331092D02*
X298630D01*
Y325253D01*
X299902D01*
X300369Y325346D01*
X300764Y325611D01*
X301029Y326007D01*
X301122Y326474D01*
Y331092D01*
D02*
G37*
G36*
X297630D02*
X295138D01*
Y326474D01*
X295231Y326007D01*
X295495Y325611D01*
X295891Y325346D01*
X296358Y325253D01*
X297630D01*
Y331092D01*
D02*
G37*
G36*
X271791D02*
X269299D01*
Y325253D01*
X270571D01*
X271038Y325346D01*
X271434Y325611D01*
X271698Y326007D01*
X271791Y326474D01*
Y331092D01*
D02*
G37*
G36*
X268299D02*
X265807D01*
Y326474D01*
X265900Y326007D01*
X266165Y325611D01*
X266561Y325346D01*
X267028Y325253D01*
X268299D01*
Y331092D01*
D02*
G37*
G36*
X255846D02*
X253354D01*
Y325253D01*
X254626D01*
X255093Y325346D01*
X255489Y325611D01*
X255753Y326007D01*
X255846Y326474D01*
Y331092D01*
D02*
G37*
G36*
X252354D02*
X249862D01*
Y326474D01*
X249955Y326007D01*
X250220Y325611D01*
X250616Y325346D01*
X251083Y325253D01*
X252354D01*
Y331092D01*
D02*
G37*
G36*
X226516D02*
X224024D01*
Y325253D01*
X225295D01*
X225762Y325346D01*
X226158Y325611D01*
X226423Y326007D01*
X226516Y326474D01*
Y331092D01*
D02*
G37*
G36*
X223024D02*
X220532D01*
Y326474D01*
X220625Y326007D01*
X220889Y325611D01*
X221285Y325346D01*
X221752Y325253D01*
X223024D01*
Y331092D01*
D02*
G37*
G36*
X211727Y330913D02*
X209233D01*
Y325073D01*
X210406D01*
X210912Y325173D01*
X211340Y325460D01*
X211627Y325888D01*
X211727Y326393D01*
Y330913D01*
D02*
G37*
G36*
X208233D02*
X205739D01*
Y326393D01*
X205840Y325888D01*
X206126Y325460D01*
X206555Y325173D01*
X207060Y325073D01*
X208233D01*
Y330913D01*
D02*
G37*
G36*
X172554D02*
X170060D01*
Y325073D01*
X171233D01*
X171739Y325173D01*
X172167Y325460D01*
X172453Y325888D01*
X172554Y326393D01*
Y330913D01*
D02*
G37*
G36*
X169060D02*
X166566D01*
Y326393D01*
X166667Y325888D01*
X166953Y325460D01*
X167381Y325173D01*
X167887Y325073D01*
X169060D01*
Y330913D01*
D02*
G37*
G36*
X277146Y323362D02*
X276583D01*
Y319493D01*
X278286D01*
Y322222D01*
X278199Y322658D01*
X277952Y323028D01*
X277582Y323275D01*
X277146Y323362D01*
D02*
G37*
G36*
X231870D02*
X231307D01*
Y319493D01*
X233010D01*
Y322222D01*
X232923Y322658D01*
X232676Y323028D01*
X232306Y323275D01*
X231870Y323362D01*
D02*
G37*
G36*
X230307D02*
X229744D01*
X229308Y323275D01*
X228938Y323028D01*
X228691Y322658D01*
X228604Y322222D01*
Y319493D01*
X230307D01*
Y323362D01*
D02*
G37*
G36*
X275583D02*
X275020D01*
X274583Y323275D01*
X274214Y323028D01*
X273966Y322658D01*
X273880Y322222D01*
Y319493D01*
X275583D01*
Y323362D01*
D02*
G37*
G36*
X177847Y323184D02*
X177343D01*
Y319315D01*
X179048D01*
Y321984D01*
X178956Y322443D01*
X178696Y322833D01*
X178307Y323093D01*
X177847Y323184D01*
D02*
G37*
G36*
X176343D02*
X175839D01*
X175380Y323093D01*
X174991Y322833D01*
X174731Y322443D01*
X174639Y321984D01*
Y319315D01*
X176343D01*
Y323184D01*
D02*
G37*
G36*
X245579Y326737D02*
X244810Y326584D01*
X244159Y326149D01*
X244152Y326142D01*
X243717Y325490D01*
X243564Y324722D01*
Y318993D01*
X243585Y318889D01*
Y315765D01*
X243655Y315412D01*
X243855Y315112D01*
X244155Y314912D01*
X244508Y314842D01*
X246634D01*
X246987Y314912D01*
X247287Y315112D01*
X247487Y315412D01*
X247557Y315765D01*
Y318889D01*
X247578Y318993D01*
Y324692D01*
X247586Y324730D01*
X247433Y325498D01*
X246998Y326149D01*
X246347Y326584D01*
X245579Y326737D01*
D02*
G37*
G36*
X196809Y326575D02*
X196104D01*
X195453Y326305D01*
X194955Y325807D01*
X194685Y325155D01*
Y324451D01*
X194955Y323800D01*
X195152Y323602D01*
X195192Y323541D01*
X195260Y323470D01*
X195306Y323419D01*
X195341Y323373D01*
X195367Y323335D01*
X195385Y323304D01*
X195395Y323281D01*
X195399Y323271D01*
Y322942D01*
X195148Y322892D01*
X194829Y322679D01*
X194616Y322360D01*
X194541Y321984D01*
Y315645D01*
X194616Y315269D01*
X194829Y314950D01*
X195148Y314737D01*
X195525Y314662D01*
X197532D01*
X197909Y314737D01*
X198228Y314950D01*
X198441Y315269D01*
X198516Y315645D01*
Y321984D01*
X198441Y322360D01*
X198228Y322679D01*
X197909Y322892D01*
X197613Y322951D01*
X197574Y323088D01*
X197529Y323278D01*
X197529Y323304D01*
X197547Y323335D01*
X197573Y323373D01*
X197608Y323419D01*
X197653Y323470D01*
X197722Y323541D01*
X197761Y323602D01*
X197959Y323800D01*
X198228Y324451D01*
Y325155D01*
X197959Y325807D01*
X197460Y326305D01*
X196809Y326575D01*
D02*
G37*
G36*
X192085D02*
X191380D01*
X190729Y326305D01*
X190230Y325807D01*
X189961Y325155D01*
Y324451D01*
X190230Y323800D01*
X190428Y323602D01*
X190468Y323541D01*
X190536Y323470D01*
X190581Y323419D01*
X190616Y323373D01*
X190642Y323335D01*
X190660Y323304D01*
X190647Y323224D01*
X190531Y322953D01*
X190227Y322892D01*
X189908Y322679D01*
X189695Y322360D01*
X189620Y321984D01*
Y315645D01*
X189695Y315269D01*
X189908Y314950D01*
X190227Y314737D01*
X190603Y314662D01*
X192611D01*
X192987Y314737D01*
X193307Y314950D01*
X193520Y315269D01*
X193595Y315645D01*
Y321984D01*
X193520Y322360D01*
X193307Y322679D01*
X192987Y322892D01*
X192790Y322932D01*
Y323271D01*
X192794Y323281D01*
X192804Y323304D01*
X192822Y323335D01*
X192848Y323373D01*
X192883Y323419D01*
X192928Y323470D01*
X192997Y323541D01*
X193037Y323602D01*
X193234Y323800D01*
X193504Y324451D01*
Y325155D01*
X193234Y325807D01*
X192736Y326305D01*
X192085Y326575D01*
D02*
G37*
G36*
X186967D02*
X186262D01*
X185611Y326305D01*
X185112Y325807D01*
X184843Y325155D01*
Y324451D01*
X185112Y323800D01*
X185310Y323602D01*
X185349Y323541D01*
X185418Y323470D01*
X185463Y323419D01*
X185498Y323373D01*
X185524Y323335D01*
X185542Y323304D01*
X185553Y323281D01*
X185556Y323271D01*
Y322942D01*
X185306Y322892D01*
X184986Y322679D01*
X184773Y322360D01*
X184698Y321984D01*
Y315645D01*
X184773Y315269D01*
X184986Y314950D01*
X185306Y314737D01*
X185682Y314662D01*
X187690D01*
X188066Y314737D01*
X188385Y314950D01*
X188598Y315269D01*
X188673Y315645D01*
Y321984D01*
X188598Y322360D01*
X188385Y322679D01*
X188066Y322892D01*
X187771Y322951D01*
X187731Y323088D01*
X187687Y323278D01*
X187686Y323304D01*
X187704Y323335D01*
X187730Y323373D01*
X187765Y323419D01*
X187810Y323470D01*
X187879Y323541D01*
X187919Y323602D01*
X188116Y323800D01*
X188386Y324451D01*
Y325155D01*
X188116Y325807D01*
X187618Y326305D01*
X186967Y326575D01*
D02*
G37*
G36*
X182242D02*
X181537D01*
X180886Y326305D01*
X180388Y325807D01*
X180118Y325155D01*
Y324451D01*
X180388Y323800D01*
X180585Y323602D01*
X180625Y323541D01*
X180694Y323470D01*
X180739Y323419D01*
X180774Y323373D01*
X180800Y323335D01*
X180818Y323304D01*
X180804Y323224D01*
X180688Y322953D01*
X180384Y322892D01*
X180065Y322679D01*
X179852Y322360D01*
X179777Y321984D01*
Y315645D01*
X179852Y315269D01*
X180065Y314950D01*
X180384Y314737D01*
X180761Y314662D01*
X182769D01*
X183145Y314737D01*
X183464Y314950D01*
X183677Y315269D01*
X183752Y315645D01*
Y321984D01*
X183677Y322360D01*
X183464Y322679D01*
X183145Y322892D01*
X182948Y322932D01*
Y323271D01*
X182951Y323281D01*
X182962Y323304D01*
X182980Y323335D01*
X183006Y323373D01*
X183041Y323419D01*
X183086Y323470D01*
X183154Y323541D01*
X183194Y323602D01*
X183392Y323800D01*
X183661Y324451D01*
Y325155D01*
X183392Y325807D01*
X182893Y326305D01*
X182242Y326575D01*
D02*
G37*
G36*
X278286Y318493D02*
X276583D01*
Y314625D01*
X277146D01*
X277582Y314712D01*
X277952Y314959D01*
X278199Y315329D01*
X278286Y315765D01*
Y318493D01*
D02*
G37*
G36*
X275583D02*
X273880D01*
Y315765D01*
X273966Y315329D01*
X274214Y314959D01*
X274583Y314712D01*
X275020Y314625D01*
X275583D01*
Y318493D01*
D02*
G37*
G36*
X233010D02*
X231307D01*
Y314625D01*
X231870D01*
X232306Y314712D01*
X232676Y314959D01*
X232923Y315329D01*
X233010Y315765D01*
Y318493D01*
D02*
G37*
G36*
X230307D02*
X228604D01*
Y315765D01*
X228691Y315329D01*
X228938Y314959D01*
X229308Y314712D01*
X229744Y314625D01*
X230307D01*
Y318493D01*
D02*
G37*
G36*
X179048Y318315D02*
X177343D01*
Y314445D01*
X177847D01*
X178307Y314536D01*
X178696Y314797D01*
X178956Y315186D01*
X179048Y315645D01*
Y318315D01*
D02*
G37*
G36*
X176343D02*
X174639D01*
Y315645D01*
X174731Y315186D01*
X174991Y314797D01*
X175380Y314536D01*
X175839Y314445D01*
X176343D01*
Y318315D01*
D02*
G37*
G36*
X202454Y322967D02*
X200446D01*
X200069Y322892D01*
X199750Y322679D01*
X199537Y322360D01*
X199462Y321984D01*
Y315645D01*
X199537Y315269D01*
X199750Y314950D01*
X199875Y314867D01*
X199803Y314693D01*
Y313988D01*
X200073Y313337D01*
X200571Y312839D01*
X201222Y312569D01*
X201927D01*
X202578Y312839D01*
X203077Y313337D01*
X203346Y313988D01*
Y314693D01*
X203205Y315034D01*
X203362Y315269D01*
X203437Y315645D01*
Y321984D01*
X203362Y322360D01*
X203149Y322679D01*
X202830Y322892D01*
X202454Y322967D01*
D02*
G37*
G36*
X282067Y323145D02*
X279941D01*
X279588Y323075D01*
X279288Y322874D01*
X279088Y322575D01*
X279018Y322222D01*
Y315765D01*
X279088Y315412D01*
X279288Y315112D01*
X279588Y314912D01*
X279941Y314842D01*
X279946D01*
Y312151D01*
X278628Y310833D01*
X278305Y310967D01*
Y311179D01*
X278035Y311830D01*
X277537Y312329D01*
X276886Y312598D01*
X276181D01*
X275530Y312329D01*
X275283Y312081D01*
X241806D01*
Y314860D01*
X242066Y314912D01*
X242365Y315112D01*
X242566Y315412D01*
X242636Y315765D01*
Y322222D01*
X242566Y322575D01*
X242365Y322874D01*
X242066Y323075D01*
X241713Y323145D01*
X239587D01*
X239233Y323075D01*
X238934Y322874D01*
X238734Y322575D01*
X238663Y322222D01*
Y315765D01*
X238734Y315412D01*
X238934Y315112D01*
X239233Y314912D01*
X239587Y314842D01*
X239690D01*
Y312081D01*
X237567D01*
X237372Y312372D01*
X237402Y312443D01*
Y313148D01*
X237132Y313799D01*
X236688Y314243D01*
Y314842D01*
X236791D01*
X237145Y314912D01*
X237444Y315112D01*
X237644Y315412D01*
X237715Y315765D01*
Y322222D01*
X237644Y322575D01*
X237444Y322874D01*
X237145Y323075D01*
X236791Y323145D01*
X234665D01*
X234312Y323075D01*
X234013Y322874D01*
X233812Y322575D01*
X233742Y322222D01*
Y315765D01*
X233812Y315412D01*
X234013Y315112D01*
X234312Y314912D01*
X234572Y314860D01*
Y314243D01*
X234128Y313799D01*
X233858Y313148D01*
Y312443D01*
X233888Y312372D01*
X233693Y312081D01*
X164075D01*
X163670Y312001D01*
X163327Y311771D01*
X148127Y296572D01*
X147323D01*
X146985Y296505D01*
X146698Y296313D01*
X146507Y296027D01*
X146440Y295689D01*
Y294961D01*
X146089Y294891D01*
X145746Y294662D01*
X145427Y294343D01*
X145047Y294458D01*
X145016Y294615D01*
X144777Y294973D01*
X144419Y295213D01*
X143996Y295297D01*
X140256D01*
X139833Y295213D01*
X139475Y294973D01*
X139236Y294615D01*
X139152Y294193D01*
Y291238D01*
X137441Y289528D01*
X137212Y289184D01*
X137131Y288779D01*
Y281320D01*
X137071Y281229D01*
X136987Y280807D01*
Y277067D01*
X137071Y276644D01*
X137310Y276286D01*
X137668Y276047D01*
X137789Y276023D01*
Y275375D01*
X137585Y275334D01*
X137157Y275048D01*
X136870Y274620D01*
X136770Y274114D01*
Y272744D01*
X139764D01*
X142758D01*
Y273498D01*
X143081Y273632D01*
X145652Y271061D01*
Y267736D01*
X145722Y267383D01*
X145922Y267083D01*
X146221Y266883D01*
X146575Y266813D01*
X148701D01*
X149054Y266883D01*
X149354Y267083D01*
X149396Y267146D01*
X149817D01*
X149859Y267083D01*
X150159Y266883D01*
X150512Y266813D01*
X152638D01*
X152991Y266883D01*
X153291Y267083D01*
X153491Y267383D01*
X153561Y267736D01*
Y271061D01*
X156132Y273632D01*
X156455Y273498D01*
Y272744D01*
X159449D01*
X162443D01*
Y274114D01*
X162342Y274620D01*
X162056Y275048D01*
X161627Y275334D01*
X161373Y275385D01*
Y276013D01*
X161545Y276047D01*
X161903Y276286D01*
X162142Y276644D01*
X162226Y277067D01*
Y280807D01*
X162142Y281229D01*
X162072Y281334D01*
Y288789D01*
X161992Y289193D01*
X161762Y289537D01*
X160061Y291238D01*
Y294193D01*
X159976Y294615D01*
X159737Y294973D01*
X159379Y295213D01*
X158957Y295297D01*
X155217D01*
X154794Y295213D01*
X154436Y294973D01*
X154197Y294615D01*
X154165Y294458D01*
X153786Y294343D01*
X153466Y294662D01*
X153123Y294891D01*
X152773Y294961D01*
Y295689D01*
X152706Y296027D01*
X152680Y296066D01*
X164808Y308194D01*
X234069D01*
X234128Y308052D01*
X234626Y307553D01*
X235278Y307283D01*
X235982D01*
X236633Y307553D01*
X237078Y307997D01*
X278346D01*
X278751Y308078D01*
X279094Y308307D01*
X281752Y310965D01*
X281981Y311308D01*
X282062Y311713D01*
Y314842D01*
X282067D01*
X282420Y314912D01*
X282720Y315112D01*
X282920Y315412D01*
X282990Y315765D01*
Y322222D01*
X282920Y322575D01*
X282720Y322874D01*
X282420Y323075D01*
X282067Y323145D01*
D02*
G37*
G36*
X286988D02*
X284862D01*
X284509Y323075D01*
X284209Y322874D01*
X284009Y322575D01*
X283939Y322222D01*
Y315765D01*
X284009Y315412D01*
X284209Y315112D01*
X284509Y314912D01*
X284862Y314842D01*
X285163D01*
Y314046D01*
X284718Y313602D01*
X284449Y312951D01*
Y312246D01*
X284718Y311595D01*
X285217Y311097D01*
X285868Y310827D01*
X286573D01*
X287224Y311097D01*
X287722Y311595D01*
X287992Y312246D01*
Y312951D01*
X287722Y313602D01*
X287278Y314046D01*
Y314899D01*
X287341Y314912D01*
X287641Y315112D01*
X287841Y315412D01*
X287911Y315765D01*
Y322222D01*
X287841Y322575D01*
X287641Y322874D01*
X287341Y323075D01*
X286988Y323145D01*
D02*
G37*
G36*
X387864Y335236D02*
X385757D01*
X383677Y334907D01*
X381673Y334256D01*
X379795Y333299D01*
X378091Y332061D01*
X376601Y330571D01*
X375362Y328866D01*
X374406Y326989D01*
X373755Y324985D01*
X373425Y322904D01*
Y320797D01*
X373755Y318716D01*
X374406Y316712D01*
X375362Y314835D01*
X376601Y313130D01*
X378091Y311640D01*
X379795Y310402D01*
X381673Y309445D01*
X383677Y308794D01*
X385757Y308465D01*
X387864D01*
X389946Y308794D01*
X391949Y309445D01*
X393827Y310402D01*
X395531Y311640D01*
X397021Y313130D01*
X398260Y314835D01*
X399216Y316712D01*
X399867Y318716D01*
X400197Y320797D01*
Y322904D01*
X399867Y324985D01*
X399216Y326989D01*
X398260Y328866D01*
X397021Y330571D01*
X395531Y332061D01*
X393827Y333299D01*
X391949Y334256D01*
X389946Y334907D01*
X387864Y335236D01*
D02*
G37*
G36*
X147707D02*
X145600D01*
X143519Y334907D01*
X141515Y334256D01*
X139638Y333299D01*
X137933Y332061D01*
X136443Y330571D01*
X135205Y328866D01*
X134248Y326989D01*
X133597Y324985D01*
X133268Y322904D01*
Y320797D01*
X133597Y318716D01*
X134248Y316712D01*
X135205Y314835D01*
X136443Y313130D01*
X137933Y311640D01*
X139638Y310402D01*
X141515Y309445D01*
X143519Y308794D01*
X145600Y308465D01*
X147707D01*
X149788Y308794D01*
X151792Y309445D01*
X153669Y310402D01*
X155374Y311640D01*
X156864Y313130D01*
X158102Y314835D01*
X159059Y316712D01*
X159710Y318716D01*
X160039Y320797D01*
Y322904D01*
X159710Y324985D01*
X159059Y326989D01*
X158102Y328866D01*
X156864Y330571D01*
X155374Y332061D01*
X153669Y333299D01*
X151792Y334256D01*
X149788Y334907D01*
X147707Y335236D01*
D02*
G37*
G36*
X253652Y304370D02*
X252468D01*
Y300106D01*
X254862D01*
Y303159D01*
X254770Y303623D01*
X254507Y304015D01*
X254115Y304278D01*
X253652Y304370D01*
D02*
G37*
G36*
X251468D02*
X250285D01*
X249822Y304278D01*
X249430Y304015D01*
X249167Y303623D01*
X249075Y303159D01*
Y300106D01*
X251468D01*
Y304370D01*
D02*
G37*
G36*
X297532Y300848D02*
X296161D01*
X295656Y300747D01*
X295228Y300461D01*
X294941Y300033D01*
X294841Y299527D01*
Y298354D01*
X297532D01*
Y300848D01*
D02*
G37*
G36*
Y297354D02*
X294841D01*
Y296181D01*
X294941Y295675D01*
X295228Y295247D01*
X295656Y294961D01*
X296161Y294860D01*
X297532D01*
Y297354D01*
D02*
G37*
G36*
X254862Y299106D02*
X252468D01*
Y294843D01*
X253652D01*
X254115Y294935D01*
X254507Y295197D01*
X254770Y295590D01*
X254862Y296053D01*
Y299106D01*
D02*
G37*
G36*
X251468D02*
X249075D01*
Y296053D01*
X249167Y295590D01*
X249430Y295197D01*
X249822Y294935D01*
X250285Y294843D01*
X251468D01*
Y299106D01*
D02*
G37*
G36*
X290876Y326214D02*
X290108Y326061D01*
X289457Y325626D01*
X289427Y325596D01*
X288992Y324945D01*
X288839Y324177D01*
Y318993D01*
X288842Y318982D01*
X288839Y318971D01*
Y316293D01*
X288818Y316183D01*
Y307356D01*
X288602Y307313D01*
X287951Y306878D01*
X287516Y306227D01*
X287363Y305459D01*
X287516Y304691D01*
X287564Y304619D01*
Y295818D01*
X287402Y295685D01*
X283071D01*
X282764Y295624D01*
X282503Y295450D01*
X282329Y295189D01*
X282268Y294882D01*
Y294317D01*
X280213D01*
X280185Y294358D01*
X279798Y294617D01*
X279341Y294708D01*
X274203D01*
X273746Y294617D01*
X273358Y294358D01*
X273182Y294095D01*
X270593D01*
X264550Y300137D01*
X263934Y300611D01*
X263700Y300707D01*
Y303159D01*
X263625Y303540D01*
X263409Y303862D01*
X263087Y304077D01*
X262707Y304153D01*
X259341D01*
X258960Y304077D01*
X258638Y303862D01*
X258423Y303540D01*
X258347Y303159D01*
Y298080D01*
X258341Y298031D01*
X258347Y297983D01*
Y296053D01*
X258423Y295673D01*
X258638Y295351D01*
X258960Y295135D01*
X259341Y295060D01*
X261205D01*
X266444Y289820D01*
Y289247D01*
X266528Y288824D01*
X266767Y288466D01*
X266969Y288331D01*
Y287465D01*
X266614Y287228D01*
X266328Y286799D01*
X266227Y286294D01*
Y284924D01*
X269221D01*
X272215D01*
Y286294D01*
X272114Y286799D01*
X271828Y287228D01*
X271400Y287514D01*
X271290Y287536D01*
Y288139D01*
X273628D01*
X273746Y288060D01*
X274203Y287969D01*
X274450D01*
Y287444D01*
X274203D01*
X273663Y287337D01*
X273205Y287031D01*
X272899Y286573D01*
X272792Y286034D01*
Y284358D01*
X276772D01*
X280751D01*
Y286034D01*
X280644Y286573D01*
X280338Y287031D01*
X279880Y287337D01*
X279341Y287444D01*
X278771D01*
Y287969D01*
X279341D01*
X279798Y288060D01*
X280185Y288319D01*
X280213Y288360D01*
X282312D01*
X282329Y288275D01*
X282503Y288015D01*
X282764Y287841D01*
X283071Y287780D01*
X287402D01*
X287557Y287652D01*
Y284861D01*
X274478Y271782D01*
X273956Y271000D01*
X273773Y270079D01*
Y246758D01*
X273956Y245837D01*
X274478Y245055D01*
X279295Y240238D01*
X280076Y239716D01*
X280998Y239533D01*
X292249D01*
Y236045D01*
X290453D01*
X290030Y235961D01*
X289672Y235721D01*
X289433Y235363D01*
X289349Y234941D01*
Y231594D01*
X289433Y231172D01*
X289672Y230814D01*
X290030Y230575D01*
X290453Y230491D01*
X294193D01*
X294615Y230575D01*
X294973Y230814D01*
X295213Y231172D01*
X295297Y231594D01*
Y234941D01*
X295213Y235363D01*
X294973Y235721D01*
X294615Y235961D01*
X294365Y236011D01*
Y239533D01*
X298379D01*
Y238779D01*
X298400Y238673D01*
Y231004D01*
X298410Y230956D01*
Y230512D01*
X298414Y230489D01*
X298400Y230472D01*
X298400D01*
X298400Y217086D01*
X298410D01*
Y216682D01*
X298400Y216634D01*
Y207776D01*
X298410Y207727D01*
Y207283D01*
X298471Y206976D01*
X298645Y206716D01*
X298905Y206542D01*
X299213Y206481D01*
X299656D01*
X299705Y206471D01*
X328248D01*
X328296Y206481D01*
X334986D01*
X335014Y206475D01*
X338754D01*
X338783Y206481D01*
X338826D01*
X339123Y206540D01*
X339134Y206541D01*
X339220Y206519D01*
X339250Y206504D01*
X339473Y206336D01*
Y205602D01*
X339246Y205376D01*
X338976Y204724D01*
Y204020D01*
X339246Y203368D01*
X339473Y203142D01*
Y203063D01*
X339551D01*
X339744Y202870D01*
X339775Y202858D01*
X339827Y202686D01*
X339743Y202264D01*
Y198524D01*
X339827Y198101D01*
X340066Y197743D01*
X340364Y197544D01*
Y197189D01*
X340341Y197185D01*
X339913Y196898D01*
X339626Y196470D01*
X339526Y195965D01*
Y194595D01*
X342520D01*
X345514D01*
Y195965D01*
X345602Y196073D01*
X347240D01*
X347307Y195739D01*
X347546Y195381D01*
X347904Y195142D01*
X348327Y195057D01*
X352067D01*
X352489Y195142D01*
X352848Y195381D01*
X353047Y195679D01*
X353646D01*
X353845Y195381D01*
X354204Y195142D01*
X354626Y195057D01*
X358366D01*
X358789Y195142D01*
X359147Y195381D01*
X359386Y195739D01*
X359470Y196161D01*
Y196522D01*
X362598D01*
X363101Y196622D01*
X363527Y196906D01*
X365889Y199269D01*
X366173Y199695D01*
X366273Y200197D01*
Y207874D01*
X366173Y208376D01*
X365889Y208802D01*
X362267Y212424D01*
X362412Y212774D01*
X365846D01*
X366269Y212858D01*
X366627Y213097D01*
X366826Y213396D01*
X367426D01*
X367625Y213097D01*
X367983Y212858D01*
X368406Y212774D01*
X372146D01*
X372568Y212858D01*
X372926Y213097D01*
X373165Y213456D01*
X373250Y213878D01*
Y214139D01*
X376181D01*
X376356Y214173D01*
X376534D01*
X376698Y214241D01*
X376872Y214276D01*
X377020Y214375D01*
X377185Y214443D01*
X377310Y214569D01*
X377458Y214668D01*
X377557Y214815D01*
X377683Y214941D01*
X377751Y215106D01*
X377850Y215254D01*
X377885Y215428D01*
X377953Y215593D01*
Y215770D01*
X377988Y215945D01*
X377953Y216119D01*
Y216297D01*
X377885Y216462D01*
X377850Y216636D01*
X377751Y216784D01*
X377683Y216948D01*
X377557Y217074D01*
X377458Y217222D01*
X377310Y217321D01*
X377185Y217447D01*
X377020Y217515D01*
X376872Y217614D01*
X376698Y217649D01*
X376534Y217717D01*
X376356D01*
X376181Y217751D01*
X373096D01*
X372926Y218005D01*
X372568Y218244D01*
X372146Y218328D01*
X368852D01*
Y220431D01*
X369776D01*
Y223425D01*
Y226419D01*
X369721D01*
Y227341D01*
X371949D01*
X372371Y227425D01*
X372729Y227664D01*
X372969Y228022D01*
X373053Y228445D01*
Y229002D01*
X374594D01*
X374784Y228813D01*
X375435Y228543D01*
X376140D01*
X376791Y228813D01*
X377289Y229311D01*
X377559Y229963D01*
Y230667D01*
X377289Y231318D01*
X376791Y231817D01*
X376140Y232087D01*
X375435D01*
X374784Y231817D01*
X374594Y231628D01*
X373053D01*
Y232185D01*
X372969Y232608D01*
X372729Y232966D01*
X372371Y233205D01*
X371949Y233289D01*
X368602D01*
X368180Y233205D01*
X367822Y232966D01*
X367583Y232608D01*
X367557Y232480D01*
X366695D01*
X366670Y232608D01*
X366430Y232966D01*
X366072Y233205D01*
X365650Y233289D01*
X362303D01*
X361881Y233205D01*
X361523Y232966D01*
X361283Y232608D01*
X361199Y232185D01*
Y230408D01*
X351309D01*
X351164Y230758D01*
X354182Y233776D01*
X354516Y233815D01*
Y233815D01*
X357251D01*
Y233815D01*
X357256Y233819D01*
X357274Y233815D01*
X358949D01*
Y237795D01*
Y241775D01*
X357274D01*
X357251Y241793D01*
Y242655D01*
X357274Y242674D01*
X358949D01*
Y246654D01*
Y250633D01*
X357274D01*
X356734Y250526D01*
X356477Y250354D01*
X355330D01*
Y267043D01*
X355330Y267043D01*
X355269Y267351D01*
X355095Y267611D01*
X355095Y267611D01*
X354624Y268082D01*
X354624Y268082D01*
X354364Y268256D01*
X354057Y268317D01*
X353896D01*
X353819Y268333D01*
X353621D01*
X353346Y268514D01*
Y272835D01*
X353631Y272992D01*
X354331D01*
X354638Y273053D01*
X354898Y273227D01*
X355072Y273488D01*
X355134Y273795D01*
Y274280D01*
X355144Y274331D01*
Y274936D01*
X358443D01*
Y273917D01*
X358527Y273495D01*
X358767Y273137D01*
X359125Y272898D01*
X359213Y272880D01*
Y272396D01*
X359125Y272378D01*
X358767Y272139D01*
X358527Y271781D01*
X358443Y271358D01*
Y267618D01*
X358527Y267196D01*
X358767Y266838D01*
X359125Y266598D01*
X359547Y266514D01*
X359947D01*
X360051Y266367D01*
X360115Y266164D01*
X360113Y266162D01*
X359915Y265964D01*
X359646Y265313D01*
Y264608D01*
X359915Y263957D01*
X360414Y263459D01*
X361065Y263189D01*
X361770D01*
X362421Y263459D01*
X362919Y263957D01*
X363189Y264608D01*
Y265313D01*
X362919Y265964D01*
X362722Y266162D01*
X362720Y266164D01*
X362783Y266367D01*
X362887Y266514D01*
X362894D01*
X363316Y266598D01*
X363674Y266838D01*
X363913Y267196D01*
X363998Y267618D01*
Y268332D01*
X366317D01*
Y267618D01*
X366401Y267196D01*
X366641Y266838D01*
X366999Y266598D01*
X367421Y266514D01*
X370768D01*
X371190Y266598D01*
X371548Y266838D01*
X371788Y267196D01*
X371872Y267618D01*
Y268332D01*
X374191D01*
Y267421D01*
X374275Y266999D01*
X374515Y266641D01*
X374873Y266401D01*
X375295Y266317D01*
X378642D01*
X379064Y266401D01*
X379422Y266641D01*
X379662Y266999D01*
X379746Y267421D01*
Y271161D01*
X379662Y271584D01*
X379422Y271942D01*
X379134Y272135D01*
Y272891D01*
X379147Y272894D01*
X379576Y273180D01*
X379862Y273609D01*
X379962Y274114D01*
Y275484D01*
X376969D01*
X373975D01*
Y274114D01*
X374075Y273609D01*
X374361Y273180D01*
X374790Y272894D01*
X374813Y272889D01*
Y272141D01*
X374515Y271942D01*
X374275Y271584D01*
X374191Y271161D01*
Y270447D01*
X371872D01*
Y271358D01*
X371788Y271781D01*
X371548Y272139D01*
X371260Y272332D01*
Y272695D01*
X371273Y272697D01*
X371702Y272984D01*
X371988Y273412D01*
X372088Y273917D01*
Y275287D01*
X366101D01*
Y273917D01*
X366201Y273412D01*
X366487Y272984D01*
X366916Y272697D01*
X366939Y272693D01*
Y272338D01*
X366641Y272139D01*
X366401Y271781D01*
X366317Y271358D01*
Y270447D01*
X363998D01*
Y271358D01*
X363913Y271781D01*
X363674Y272139D01*
X363533Y272233D01*
Y273043D01*
X363674Y273137D01*
X363913Y273495D01*
X363998Y273917D01*
Y277658D01*
X363913Y278080D01*
X363674Y278438D01*
X363316Y278677D01*
X362894Y278761D01*
X359547D01*
X359125Y278677D01*
X358767Y278438D01*
X358527Y278080D01*
X358443Y277658D01*
Y277052D01*
X355144D01*
Y278425D01*
X355134Y278476D01*
Y278937D01*
X355072Y279244D01*
X354898Y279505D01*
X354898Y279505D01*
X347515Y286888D01*
X347738Y287160D01*
X348387Y286727D01*
X349536Y286251D01*
X350378Y286083D01*
Y291323D01*
X345138D01*
X345306Y290481D01*
X345782Y289332D01*
X346215Y288683D01*
X345943Y288460D01*
X334623Y299780D01*
X334362Y299954D01*
X334055Y300015D01*
X328937D01*
X328630Y299954D01*
X328369Y299780D01*
X328369Y299780D01*
X324236Y295646D01*
X324236Y295646D01*
X324061Y295386D01*
X324000Y295079D01*
Y284252D01*
X324000Y284252D01*
X324061Y283945D01*
X324236Y283684D01*
X324236Y283684D01*
X327779Y280141D01*
X328039Y279967D01*
X328346Y279906D01*
X339431D01*
X345989Y273348D01*
X345844Y272998D01*
X342441D01*
X341754Y273686D01*
Y276279D01*
X341670Y276702D01*
X341430Y277060D01*
X341072Y277299D01*
X340650Y277383D01*
X336910D01*
X336487Y277299D01*
X336129Y277060D01*
X335936Y276772D01*
X335324D01*
X335131Y277060D01*
X334773Y277299D01*
X334350Y277383D01*
X330610D01*
X330188Y277299D01*
X329830Y277060D01*
X329590Y276702D01*
X329506Y276279D01*
Y275722D01*
X326596D01*
Y275886D01*
X326512Y276308D01*
X326273Y276666D01*
X325915Y276906D01*
X325492Y276990D01*
X322146D01*
X321723Y276906D01*
X321365Y276666D01*
X321126Y276308D01*
X321042Y275886D01*
Y275509D01*
X317460D01*
Y277841D01*
X317386Y278212D01*
X317176Y278526D01*
X316862Y278736D01*
X316491Y278810D01*
X314651D01*
X314280Y278736D01*
X313966Y278526D01*
X313756Y278212D01*
X313682Y277841D01*
Y273836D01*
X313756Y273465D01*
X313966Y273151D01*
X314280Y272941D01*
X314651Y272867D01*
X316491D01*
X316574Y272884D01*
X321042D01*
Y272146D01*
X321126Y271723D01*
X321365Y271365D01*
X321663Y271166D01*
Y270173D01*
X321365Y269973D01*
X321126Y269615D01*
X321042Y269193D01*
Y268577D01*
X316154D01*
X316139Y268574D01*
X314651D01*
X314280Y268500D01*
X313966Y268290D01*
X313691D01*
X313589Y268443D01*
X313205Y268700D01*
X312751Y268791D01*
X312331D01*
Y265602D01*
Y262414D01*
X312751D01*
X313205Y262505D01*
X313589Y262761D01*
X313691Y262915D01*
X313966D01*
X314280Y262705D01*
X314651Y262631D01*
X316491D01*
X316862Y262705D01*
X317176Y262915D01*
X317386Y263229D01*
X317460Y263599D01*
Y265951D01*
X321042D01*
Y265453D01*
X321126Y265030D01*
X321365Y264672D01*
X321723Y264433D01*
X322146Y264349D01*
X325492D01*
X325915Y264433D01*
X326273Y264672D01*
X326512Y265030D01*
X326596Y265453D01*
Y265616D01*
X329506D01*
Y265059D01*
X329590Y264637D01*
X329830Y264279D01*
X330188Y264039D01*
X330610Y263955D01*
X334350D01*
X334773Y264039D01*
X335131Y264279D01*
X335330Y264577D01*
X335930D01*
X336129Y264279D01*
X336487Y264039D01*
X336910Y263955D01*
X340650D01*
X341072Y264039D01*
X341430Y264279D01*
X341670Y264637D01*
X341754Y265059D01*
Y267850D01*
X342374Y268471D01*
X346164D01*
X346270Y268121D01*
X346212Y268082D01*
X346161Y268031D01*
X346032Y267945D01*
X345946Y267816D01*
X340771Y262641D01*
X340597Y262380D01*
X340536Y262073D01*
Y255734D01*
X338681D01*
X338593Y255751D01*
X336917D01*
Y251772D01*
Y247792D01*
X338593D01*
X338615Y247774D01*
Y246695D01*
X337311D01*
Y243701D01*
Y240707D01*
X338615D01*
Y239608D01*
X337311D01*
Y236614D01*
Y233534D01*
X337343Y233524D01*
Y232541D01*
X337331Y232481D01*
X337332Y232478D01*
X337331Y232474D01*
X337343Y231770D01*
Y230587D01*
X336858D01*
Y229095D01*
X336358D01*
Y228595D01*
X334472D01*
Y227626D01*
X336358D01*
Y226626D01*
X334472D01*
Y225658D01*
X336358D01*
Y224658D01*
X334472D01*
Y223690D01*
X336358D01*
Y222690D01*
X334472D01*
Y221828D01*
X330564Y217919D01*
X329553D01*
Y230472D01*
X329553D01*
X329543Y230755D01*
Y230956D01*
X329553Y231004D01*
Y239862D01*
X329543Y239911D01*
Y240022D01*
X329925Y240404D01*
X329925Y240404D01*
X330099Y240664D01*
X330160Y240971D01*
Y243797D01*
X330166Y243826D01*
Y247566D01*
X330160Y247595D01*
Y247606D01*
X330099Y247914D01*
X330096Y247918D01*
X330083Y247979D01*
Y249716D01*
X330282Y250013D01*
X330382Y250519D01*
Y251889D01*
X327389D01*
X324395D01*
Y250594D01*
X324120Y250344D01*
X323917Y250359D01*
X323649Y250558D01*
Y251928D01*
X320655D01*
X317661D01*
Y250558D01*
X317663Y250550D01*
X317444Y250283D01*
X317196D01*
X316936Y250560D01*
Y251869D01*
X313942D01*
X310948D01*
Y250499D01*
X310953Y250475D01*
X310738Y250214D01*
X310397D01*
X310182Y250475D01*
X310183Y250480D01*
Y251850D01*
X307189D01*
X304195D01*
Y250480D01*
X303957Y250232D01*
X303737D01*
X303486Y250511D01*
Y251843D01*
X300492D01*
X297498D01*
Y250473D01*
X297599Y249967D01*
X297606Y249957D01*
Y247815D01*
X297606Y247815D01*
X297715Y247520D01*
Y244350D01*
X281996D01*
X278590Y247756D01*
Y256971D01*
X278940Y257040D01*
X279010Y256871D01*
X279454Y256426D01*
Y255118D01*
X279535Y254713D01*
X279764Y254370D01*
X280748Y253386D01*
X281091Y253157D01*
X281496Y253076D01*
X281827D01*
Y252370D01*
X281911Y251948D01*
X282151Y251589D01*
X282509Y251350D01*
X282931Y251266D01*
X286671D01*
X287094Y251350D01*
X287452Y251589D01*
X287691Y251948D01*
X287775Y252370D01*
Y255716D01*
X287691Y256139D01*
X287452Y256497D01*
X287094Y256736D01*
X286671Y256820D01*
X282931D01*
X282509Y256736D01*
X282151Y256497D01*
X282085Y256399D01*
X281707Y256463D01*
X281686Y256543D01*
X282014Y256871D01*
X282283Y257522D01*
Y258226D01*
X282014Y258878D01*
X281766Y259125D01*
Y259650D01*
X282116Y259685D01*
X282149Y259519D01*
X282389Y259160D01*
X282747Y258921D01*
X283169Y258837D01*
X286909D01*
X287332Y258921D01*
X287690Y259160D01*
X287929Y259519D01*
X288013Y259941D01*
Y263287D01*
X287929Y263710D01*
X287690Y264068D01*
X287332Y264307D01*
X286909Y264391D01*
X283169D01*
X282747Y264307D01*
X282389Y264068D01*
X282149Y263710D01*
X282065Y263287D01*
Y262672D01*
X281693D01*
X281288Y262591D01*
X280945Y262362D01*
X279961Y261378D01*
X279731Y261035D01*
X279651Y260630D01*
Y259435D01*
X279508Y259376D01*
X279010Y258878D01*
X278940Y258708D01*
X278590Y258777D01*
Y269081D01*
X291067Y281558D01*
X291589Y282340D01*
X291772Y283261D01*
X291589Y284183D01*
X291170Y284810D01*
Y288914D01*
X291159Y288970D01*
Y289882D01*
X291091Y290220D01*
X290900Y290506D01*
X290614Y290698D01*
X290276Y290765D01*
X288465D01*
X288204Y290979D01*
Y292486D01*
X288465Y292700D01*
X289206D01*
X289370Y292667D01*
X289534Y292700D01*
X290276D01*
X290614Y292767D01*
X290900Y292958D01*
X291091Y293245D01*
X291159Y293583D01*
Y294384D01*
X291176Y294473D01*
Y303452D01*
X295124D01*
X295142Y303363D01*
X295381Y303005D01*
X295739Y302766D01*
X296161Y302682D01*
X299902D01*
X300324Y302766D01*
X300682Y303005D01*
X300816Y303205D01*
X301547D01*
X301680Y303005D01*
X302038Y302766D01*
X302461Y302682D01*
X303371D01*
Y300631D01*
X302461D01*
X302038Y300547D01*
X301680Y300308D01*
X301487Y300019D01*
X301124D01*
X301122Y300033D01*
X300835Y300461D01*
X300407Y300747D01*
X299902Y300848D01*
X298532D01*
Y297854D01*
Y294860D01*
X299902D01*
X300407Y294961D01*
X300835Y295247D01*
X301122Y295675D01*
X301126Y295698D01*
X301481D01*
X301680Y295400D01*
X302038Y295161D01*
X302461Y295077D01*
X303371D01*
Y292757D01*
X302658D01*
X302235Y292673D01*
X301877Y292434D01*
X301638Y292076D01*
X301632Y292047D01*
X300947D01*
X300925Y292159D01*
X300639Y292587D01*
X300210Y292873D01*
X299705Y292974D01*
X298335D01*
Y289980D01*
Y286986D01*
X299705D01*
X300210Y287087D01*
X300639Y287373D01*
X300874Y287726D01*
X301743D01*
X301877Y287526D01*
X302235Y287287D01*
X302658Y287203D01*
X303667D01*
Y286572D01*
X303663Y286562D01*
X303652Y286539D01*
X303635Y286508D01*
X303608Y286469D01*
X303573Y286424D01*
X303528Y286372D01*
X303460Y286302D01*
X303420Y286240D01*
X303222Y286043D01*
X302953Y285392D01*
Y284687D01*
X303222Y284036D01*
X303721Y283537D01*
X304372Y283268D01*
X305077D01*
X305728Y283537D01*
X306226Y284036D01*
X306496Y284687D01*
Y285392D01*
X306226Y286043D01*
X306029Y286240D01*
X305989Y286302D01*
X305921Y286372D01*
X305876Y286424D01*
X305840Y286469D01*
X305814Y286508D01*
X305797Y286539D01*
X305786Y286562D01*
X305782Y286572D01*
Y287203D01*
X306398D01*
X306820Y287287D01*
X307178Y287526D01*
X307417Y287884D01*
X307502Y288307D01*
Y291653D01*
X307417Y292076D01*
X307178Y292434D01*
X306820Y292673D01*
X306398Y292757D01*
X305487D01*
Y295077D01*
X306201D01*
X306623Y295161D01*
X306981Y295400D01*
X307221Y295758D01*
X307305Y296181D01*
Y299527D01*
X307221Y299950D01*
X306981Y300308D01*
X306623Y300547D01*
X306201Y300631D01*
X305487D01*
Y302682D01*
X306201D01*
X306623Y302766D01*
X306981Y303005D01*
X307221Y303363D01*
X307305Y303785D01*
Y307132D01*
X307221Y307554D01*
X306981Y307912D01*
X306623Y308152D01*
X306201Y308236D01*
X302461D01*
X302038Y308152D01*
X301680Y307912D01*
X301441Y307554D01*
X301435Y307526D01*
X300927D01*
X300921Y307554D01*
X300682Y307912D01*
X300324Y308152D01*
X299902Y308236D01*
X296161D01*
X295739Y308152D01*
X295381Y307912D01*
X295142Y307554D01*
X295124Y307466D01*
X292832D01*
Y315760D01*
X292833Y315765D01*
Y316101D01*
X292853Y316205D01*
Y318971D01*
X292851Y318982D01*
X292853Y318993D01*
Y324056D01*
X292883Y324206D01*
X292731Y324975D01*
X292296Y325626D01*
X291645Y326061D01*
X290876Y326214D01*
D02*
G37*
G36*
X222047Y304570D02*
X178347D01*
X177502Y304402D01*
X176785Y303923D01*
X166943Y294081D01*
X166464Y293365D01*
X166296Y292520D01*
Y263119D01*
X163793Y260616D01*
X163315Y259900D01*
X163147Y259055D01*
X163315Y258210D01*
X163793Y257494D01*
X164509Y257015D01*
X165354Y256847D01*
X165841Y256944D01*
X166239Y256670D01*
X166251Y256601D01*
X161883Y252233D01*
X161644D01*
X161545Y252299D01*
X161122Y252383D01*
X159202D01*
X158981Y252604D01*
X158395Y252996D01*
X157704Y253133D01*
X154106D01*
X153947Y253165D01*
X152943D01*
X152601Y253097D01*
X152311Y252903D01*
X151983Y252948D01*
X151944Y252983D01*
Y254805D01*
X152638D01*
X152991Y254875D01*
X153291Y255076D01*
X153491Y255375D01*
X153561Y255728D01*
Y256856D01*
X156672D01*
Y256201D01*
X156756Y255778D01*
X156995Y255420D01*
X157353Y255181D01*
X157776Y255097D01*
X161122D01*
X161545Y255181D01*
X161903Y255420D01*
X162142Y255778D01*
X162226Y256201D01*
Y259941D01*
X162142Y260363D01*
X161903Y260721D01*
X161614Y260914D01*
Y261671D01*
X161627Y261674D01*
X162056Y261960D01*
X162342Y262388D01*
X162443Y262894D01*
Y264264D01*
X159449D01*
X156455D01*
Y262894D01*
X156555Y262388D01*
X156842Y261960D01*
X157270Y261674D01*
X157293Y261669D01*
Y260921D01*
X156995Y260721D01*
X156756Y260363D01*
X156672Y259941D01*
Y258971D01*
X153561D01*
Y259626D01*
X153491Y259979D01*
X153291Y260279D01*
X152991Y260479D01*
X152638Y260549D01*
X150512D01*
X150159Y260479D01*
X149859Y260279D01*
X149817Y260216D01*
X149396D01*
X149354Y260279D01*
X149054Y260479D01*
X148701Y260549D01*
X146575D01*
X146221Y260479D01*
X145922Y260279D01*
X145722Y259979D01*
X145652Y259626D01*
Y258971D01*
X142541D01*
Y259941D01*
X142457Y260363D01*
X142218Y260721D01*
X141929Y260914D01*
Y261671D01*
X141942Y261674D01*
X142371Y261960D01*
X142657Y262388D01*
X142758Y262894D01*
Y264264D01*
X139764D01*
X136770D01*
Y262894D01*
X136870Y262388D01*
X137157Y261960D01*
X137585Y261674D01*
X137608Y261669D01*
Y260921D01*
X137310Y260721D01*
X137071Y260363D01*
X136987Y259941D01*
Y256201D01*
X137071Y255778D01*
X137310Y255420D01*
X137668Y255181D01*
X138091Y255097D01*
X141437D01*
X141859Y255181D01*
X142218Y255420D01*
X142457Y255778D01*
X142541Y256201D01*
Y256856D01*
X145652D01*
Y255728D01*
X145722Y255375D01*
X145922Y255076D01*
X146221Y254875D01*
X146575Y254805D01*
X147269D01*
Y252983D01*
X147230Y252948D01*
X146901Y252903D01*
X146611Y253097D01*
X146270Y253165D01*
X145266D01*
X144924Y253097D01*
X144634Y252903D01*
X144441Y252613D01*
X144395Y252384D01*
X141633D01*
X141466Y252496D01*
X141043Y252580D01*
X137697D01*
X137274Y252496D01*
X136916Y252257D01*
X136677Y251899D01*
X136593Y251476D01*
Y247736D01*
X136677Y247314D01*
X136916Y246956D01*
X137215Y246756D01*
Y246402D01*
X137191Y246397D01*
X136763Y246111D01*
X136477Y245683D01*
X136376Y245177D01*
Y243807D01*
X139370D01*
X142364D01*
Y245177D01*
X142263Y245683D01*
X141977Y246111D01*
X141549Y246397D01*
X141535Y246400D01*
Y246763D01*
X141824Y246956D01*
X142063Y247314D01*
X142147Y247736D01*
Y250269D01*
X144274D01*
X144380Y249919D01*
X144199Y249798D01*
X143870Y249306D01*
X143754Y248725D01*
Y246465D01*
X149606D01*
X155458D01*
Y248725D01*
X155370Y249170D01*
X155588Y249520D01*
X156672D01*
Y247539D01*
X156756Y247117D01*
X156995Y246759D01*
X157293Y246560D01*
Y245811D01*
X157270Y245807D01*
X156842Y245520D01*
X156555Y245092D01*
X156455Y244587D01*
Y243216D01*
X159449D01*
X162443D01*
Y244587D01*
X162342Y245092D01*
X162056Y245520D01*
X161627Y245807D01*
X161614Y245809D01*
Y246566D01*
X161903Y246759D01*
X162142Y247117D01*
X162226Y247539D01*
Y248620D01*
X162631D01*
X163323Y248758D01*
X163845Y249107D01*
X164050Y249007D01*
X164155Y248902D01*
X164100Y248622D01*
Y236355D01*
X163750Y236196D01*
X163513Y236354D01*
X163091Y236438D01*
X159744D01*
X159322Y236354D01*
X159004Y236142D01*
X158958D01*
X154840Y240260D01*
Y241547D01*
X154772Y241889D01*
X154735Y241945D01*
X155014Y242131D01*
X155343Y242623D01*
X155458Y243204D01*
Y245465D01*
X149606D01*
X143754D01*
Y243204D01*
X143870Y242623D01*
X144199Y242131D01*
X144479Y241944D01*
X144441Y241887D01*
X144373Y241545D01*
Y240258D01*
X140237Y236123D01*
X139891Y236354D01*
X139469Y236438D01*
X136122D01*
X135700Y236354D01*
X135342Y236115D01*
X135102Y235757D01*
X135018Y235335D01*
Y231594D01*
X135102Y231172D01*
X135342Y230814D01*
X135640Y230615D01*
Y230015D01*
X135342Y229816D01*
X135102Y229458D01*
X135018Y229035D01*
Y225295D01*
X135102Y224873D01*
X135342Y224515D01*
X135700Y224275D01*
X136122Y224191D01*
X136738D01*
Y224016D01*
X136818Y223611D01*
X137047Y223268D01*
X140591Y219724D01*
X140934Y219495D01*
X141339Y219415D01*
X163386D01*
X163791Y219495D01*
X164134Y219724D01*
X167283Y222874D01*
X167513Y223217D01*
X167593Y223622D01*
Y248184D01*
X180163Y260753D01*
X185389D01*
X185926Y260215D01*
X185858Y259872D01*
X185611Y259770D01*
X185376Y259535D01*
X185141Y259770D01*
X184490Y260039D01*
X183785D01*
X183134Y259770D01*
X182636Y259271D01*
X182366Y258620D01*
Y257915D01*
X182636Y257264D01*
X183134Y256766D01*
X183190Y256743D01*
X183199Y256735D01*
X183224Y256709D01*
X183236Y256696D01*
X183223Y256595D01*
X183182Y256373D01*
X182866Y256254D01*
X182500Y256620D01*
X181849Y256890D01*
X181144D01*
X180492Y256620D01*
X179994Y256122D01*
X179724Y255470D01*
Y254766D01*
X179994Y254115D01*
X180192Y253917D01*
X180231Y253856D01*
X180300Y253785D01*
X180345Y253734D01*
X180380Y253688D01*
X180406Y253649D01*
X180424Y253619D01*
X180435Y253596D01*
X180438Y253586D01*
Y251696D01*
X180090Y251552D01*
X180081Y251559D01*
X179744Y251896D01*
X179093Y252165D01*
X178388D01*
X177737Y251896D01*
X177238Y251397D01*
X176969Y250746D01*
Y250041D01*
X177238Y249390D01*
X177737Y248892D01*
X177687Y248533D01*
X177402Y248248D01*
X177132Y247597D01*
Y246892D01*
X177402Y246241D01*
X177637Y246006D01*
X177402Y245772D01*
X177132Y245121D01*
Y244416D01*
X177402Y243765D01*
X177900Y243266D01*
X177911Y243212D01*
X177632Y242933D01*
X177362Y242282D01*
Y241577D01*
X177632Y240926D01*
X177814Y240743D01*
X177768Y240509D01*
X177269Y240011D01*
X176999Y239360D01*
Y238655D01*
X177029Y238583D01*
X176835Y238292D01*
X174818D01*
X174627Y238482D01*
Y240650D01*
X174543Y241072D01*
X174304Y241430D01*
X174009Y241628D01*
X174013Y241902D01*
X174040Y241996D01*
X174458Y242275D01*
X174744Y242703D01*
X174844Y243209D01*
Y244579D01*
X168857D01*
Y243209D01*
X168957Y242703D01*
X169243Y242275D01*
X169661Y241996D01*
X169688Y241902D01*
X169692Y241628D01*
X169397Y241430D01*
X169157Y241072D01*
X169073Y240650D01*
Y236910D01*
X169157Y236487D01*
X169397Y236129D01*
X169755Y235890D01*
X170177Y235806D01*
X173524D01*
X173946Y235890D01*
X174304Y236129D01*
X174341Y236184D01*
X174380Y236176D01*
X179462D01*
X179548Y236194D01*
X179897Y235908D01*
X179980Y235495D01*
X180214Y235145D01*
X180564Y234911D01*
X180806Y234862D01*
X180927Y234489D01*
X179755Y233317D01*
X177396D01*
Y233782D01*
X177312Y234205D01*
X177073Y234563D01*
X176715Y234802D01*
X176292Y234886D01*
X172946D01*
X172523Y234802D01*
X172165Y234563D01*
X171926Y234205D01*
X171842Y233782D01*
Y233696D01*
X170046D01*
X169871Y233661D01*
X169693D01*
X169529Y233593D01*
X169354Y233559D01*
X169207Y233460D01*
X169042Y233392D01*
X168916Y233266D01*
X168768Y233167D01*
X168669Y233019D01*
X168544Y232893D01*
X168476Y232729D01*
X168377Y232581D01*
X168342Y232406D01*
X168274Y232242D01*
Y232064D01*
X168239Y231890D01*
X168274Y231715D01*
Y231537D01*
X168342Y231373D01*
X168377Y231199D01*
X168476Y231051D01*
X168544Y230886D01*
X168669Y230760D01*
X168768Y230612D01*
X168916Y230514D01*
X169042Y230388D01*
X169207Y230320D01*
X169354Y230221D01*
X169529Y230186D01*
X169693Y230118D01*
X169871D01*
X170046Y230083D01*
X171842D01*
Y230042D01*
X171926Y229620D01*
X172165Y229261D01*
X172464Y229062D01*
Y228314D01*
X172440Y228309D01*
X172012Y228023D01*
X171726Y227595D01*
X171625Y227089D01*
Y225719D01*
X174619D01*
X177613D01*
Y227089D01*
X177512Y227595D01*
X177226Y228023D01*
X176798Y228309D01*
X176784Y228312D01*
Y229069D01*
X177073Y229261D01*
X177312Y229620D01*
X177396Y230042D01*
Y230507D01*
X180337D01*
X180875Y230614D01*
X181331Y230919D01*
X181557Y231145D01*
X181907Y231000D01*
Y230524D01*
X182177Y229872D01*
X182675Y229374D01*
X183326Y229104D01*
X184031D01*
X184682Y229374D01*
X185017Y229708D01*
X185221Y229668D01*
X185720Y229169D01*
X186371Y228900D01*
X187076D01*
X187727Y229169D01*
X188157Y229600D01*
X188447Y229590D01*
X188556Y229552D01*
X188655Y229311D01*
X189154Y228813D01*
X189330Y228740D01*
X189260Y228390D01*
X186922D01*
X186500Y228306D01*
X186142Y228067D01*
X185949Y227778D01*
X185192D01*
X185190Y227792D01*
X184903Y228220D01*
X184475Y228506D01*
X183969Y228607D01*
X182599D01*
Y225613D01*
Y222619D01*
X183121D01*
X183268Y222400D01*
Y221881D01*
X183264Y221844D01*
X183268Y221807D01*
Y221695D01*
X183274Y221680D01*
X183273Y221658D01*
X183270Y221627D01*
X183265Y221607D01*
X183265Y221606D01*
X182766Y221107D01*
X179836D01*
X179413Y221023D01*
X179055Y220783D01*
X178816Y220425D01*
X178732Y220003D01*
Y216263D01*
X178816Y215840D01*
X179055Y215482D01*
X179353Y215283D01*
Y214534D01*
X179330Y214530D01*
X178902Y214244D01*
X178615Y213815D01*
X178515Y213310D01*
Y211940D01*
X181509D01*
X184503D01*
Y211981D01*
X185405D01*
Y211940D01*
X188399D01*
Y211440D01*
X188899D01*
Y208249D01*
X190072D01*
X190577Y208349D01*
X191006Y208636D01*
X191292Y209064D01*
X191393Y209570D01*
Y210276D01*
X191683Y210470D01*
X191774Y210433D01*
X192478D01*
X192811Y210571D01*
X193102Y210376D01*
Y210160D01*
X193186Y209738D01*
X193425Y209380D01*
X193783Y209140D01*
X194206Y209056D01*
X197946D01*
X198368Y209140D01*
X198726Y209380D01*
X198926Y209678D01*
X199525D01*
X199724Y209380D01*
X200082Y209140D01*
X200505Y209056D01*
X204245D01*
X204667Y209140D01*
X205026Y209380D01*
X205265Y209738D01*
X205349Y210160D01*
Y213507D01*
X205320Y213653D01*
X205337Y213700D01*
X205612Y213976D01*
X206144D01*
X206795Y214246D01*
X207066Y214517D01*
X207095Y214526D01*
X207169Y214524D01*
X207437Y214393D01*
X207433Y214291D01*
X207397Y214254D01*
X207357Y214193D01*
X207159Y213996D01*
X206890Y213345D01*
Y212640D01*
X207159Y211989D01*
X207658Y211490D01*
X208309Y211221D01*
X209014D01*
X209183Y211291D01*
X209474Y211096D01*
Y202974D01*
X208858D01*
X208436Y202890D01*
X208078Y202651D01*
X207838Y202292D01*
X207754Y201870D01*
Y201648D01*
X206205D01*
X206149Y201933D01*
X205950Y202230D01*
X205653Y202428D01*
X205303Y202498D01*
X201783D01*
X201433Y202428D01*
X201136Y202230D01*
X200938Y201933D01*
X200868Y201583D01*
Y199598D01*
X200938Y199248D01*
X201136Y198951D01*
X201433Y198753D01*
X201783Y198683D01*
X205303D01*
X205653Y198753D01*
X205950Y198951D01*
X206149Y199248D01*
X206205Y199533D01*
X207754D01*
Y198130D01*
X207838Y197707D01*
X208078Y197349D01*
X208436Y197110D01*
X208474Y197102D01*
Y196598D01*
X208436Y196591D01*
X208078Y196351D01*
X207838Y195993D01*
X207754Y195571D01*
Y194917D01*
X205700D01*
X205653Y194948D01*
X205303Y195018D01*
X201783D01*
X201433Y194948D01*
X201136Y194749D01*
X200938Y194453D01*
X200868Y194102D01*
Y192118D01*
X200938Y191768D01*
X201136Y191471D01*
X201433Y191273D01*
X201783Y191203D01*
X205303D01*
X205653Y191273D01*
X205700Y191304D01*
X207908D01*
X208078Y191050D01*
X208436Y190811D01*
X208858Y190727D01*
X210754D01*
X211862Y189619D01*
X212448Y189228D01*
X212574Y189203D01*
X213683Y188093D01*
X213831Y187994D01*
X213957Y187868D01*
X214121Y187800D01*
X214269Y187701D01*
X214444Y187666D01*
X214608Y187598D01*
X214786D01*
X214961Y187564D01*
X215135Y187598D01*
X215313D01*
X215477Y187666D01*
X215652Y187701D01*
X215800Y187800D01*
X215964Y187868D01*
X216090Y187994D01*
X216238Y188093D01*
X216337Y188241D01*
X216463Y188366D01*
X216531Y188531D01*
X216630Y188679D01*
X216664Y188853D01*
X216732Y189018D01*
Y189196D01*
X216767Y189370D01*
X216732Y189545D01*
Y189723D01*
X216664Y189887D01*
X216630Y190061D01*
X216531Y190209D01*
X216463Y190374D01*
X216337Y190499D01*
X216238Y190647D01*
X214711Y192174D01*
X214125Y192565D01*
X214000Y192590D01*
X213309Y193281D01*
Y194975D01*
X213632Y195108D01*
X221299Y187441D01*
X221642Y187212D01*
X222047Y187131D01*
X259646D01*
X260051Y187212D01*
X260394Y187441D01*
X261535Y188583D01*
X261765Y188926D01*
X261802Y189112D01*
X265612D01*
Y198762D01*
X255963D01*
Y189247D01*
X253013D01*
X252919Y189597D01*
X253750Y190076D01*
X254648Y190974D01*
X255283Y192075D01*
X255612Y193302D01*
Y194572D01*
X255283Y195799D01*
X254648Y196899D01*
X253750Y197798D01*
X252650Y198433D01*
X251423Y198762D01*
X250152D01*
X248925Y198433D01*
X247825Y197798D01*
X246927Y196899D01*
X246291Y195799D01*
X245963Y194572D01*
Y193302D01*
X246291Y192075D01*
X246708Y191353D01*
X246020Y190666D01*
X244777D01*
X244672Y191016D01*
X245283Y192075D01*
X245612Y193302D01*
Y194572D01*
X245283Y195799D01*
X244648Y196899D01*
X243750Y197798D01*
X242650Y198433D01*
X241423Y198762D01*
X240152D01*
X238925Y198433D01*
X238204Y198017D01*
X236711Y199510D01*
X236367Y199739D01*
X235963Y199820D01*
X233975D01*
X233843Y200169D01*
X234648Y200974D01*
X235283Y202075D01*
X235612Y203302D01*
Y203958D01*
X235962Y204145D01*
X235963Y204144D01*
Y203302D01*
X236291Y202075D01*
X236927Y200974D01*
X237825Y200076D01*
X238925Y199441D01*
X240152Y199112D01*
X241423D01*
X242650Y199441D01*
X243750Y200076D01*
X244648Y200974D01*
X245283Y202075D01*
X245612Y203302D01*
Y204572D01*
X245283Y205799D01*
X244648Y206899D01*
X243750Y207798D01*
X242650Y208433D01*
X241423Y208762D01*
X240152D01*
X238925Y208433D01*
X237825Y207798D01*
X237782Y207755D01*
X237432Y207900D01*
Y210824D01*
X237756Y210958D01*
X238178Y210536D01*
X239147Y209977D01*
X240228Y209687D01*
X240287D01*
Y213937D01*
X240787D01*
Y214437D01*
X245037D01*
Y214496D01*
X244748Y215577D01*
X244406Y216170D01*
X244608Y216520D01*
X246967Y216520D01*
X247169Y216170D01*
X246827Y215577D01*
X246537Y214496D01*
Y214437D01*
X250787D01*
Y213937D01*
X251287D01*
Y209687D01*
X251347D01*
X252428Y209977D01*
X253397Y210536D01*
X253950Y211089D01*
X254300Y210944D01*
Y207752D01*
X254048Y207500D01*
X253750Y207798D01*
X252650Y208433D01*
X251423Y208762D01*
X250152D01*
X248925Y208433D01*
X247825Y207798D01*
X246927Y206899D01*
X246291Y205799D01*
X245963Y204572D01*
Y203302D01*
X246291Y202075D01*
X246927Y200974D01*
X247825Y200076D01*
X248925Y199441D01*
X250152Y199112D01*
X251423D01*
X252650Y199441D01*
X253750Y200076D01*
X254648Y200974D01*
X255283Y202075D01*
X255612Y203302D01*
Y204144D01*
X255613Y204145D01*
X255963Y203958D01*
Y203302D01*
X256291Y202075D01*
X256927Y200974D01*
X257825Y200076D01*
X258925Y199441D01*
X260152Y199112D01*
X261423D01*
X262650Y199441D01*
X263750Y200076D01*
X264648Y200974D01*
X265283Y202075D01*
X265612Y203302D01*
Y204572D01*
X265506Y204968D01*
X267059Y206520D01*
X267059Y206520D01*
X267407Y207041D01*
X267529Y207656D01*
X267529Y207656D01*
Y217145D01*
X267407Y217760D01*
X267059Y218281D01*
X267059Y218281D01*
X264321Y221018D01*
X264387Y221348D01*
Y227077D01*
X264319Y227419D01*
X264126Y227708D01*
X263836Y227902D01*
X263494Y227970D01*
X261900D01*
X261558Y227902D01*
X261417Y227808D01*
X261277Y227902D01*
X260935Y227970D01*
X259341D01*
X258999Y227902D01*
X258858Y227808D01*
X258718Y227902D01*
X258376Y227970D01*
X256782D01*
X256440Y227902D01*
X256299Y227808D01*
X256159Y227902D01*
X255817Y227970D01*
X254222D01*
X253881Y227902D01*
X253740Y227808D01*
X253600Y227902D01*
X253258Y227970D01*
X251663D01*
X251322Y227902D01*
X251181Y227808D01*
X251041Y227902D01*
X250699Y227970D01*
X249104D01*
X248763Y227902D01*
X248622Y227808D01*
X248482Y227902D01*
X248140Y227970D01*
X246545D01*
X246203Y227902D01*
X246063Y227808D01*
X245922Y227902D01*
X245581Y227970D01*
X243986D01*
X243644Y227902D01*
X243504Y227808D01*
X243363Y227902D01*
X243022Y227970D01*
X241427D01*
X241085Y227902D01*
X240945Y227808D01*
X240804Y227902D01*
X240463Y227970D01*
X238868D01*
X238526Y227902D01*
X238386Y227808D01*
X238245Y227902D01*
X237904Y227970D01*
X236309D01*
X235967Y227902D01*
X235827Y227808D01*
X235686Y227902D01*
X235345Y227970D01*
X233750D01*
X233408Y227902D01*
X233268Y227808D01*
X233127Y227902D01*
X232785Y227970D01*
X231191D01*
X230849Y227902D01*
X230709Y227808D01*
X230568Y227902D01*
X230226Y227970D01*
X228632D01*
X228303Y227904D01*
X228286Y227903D01*
X227953Y227953D01*
Y227953D01*
X227953Y227953D01*
X224213D01*
Y228108D01*
X224078Y228434D01*
X224147Y228554D01*
X224330Y228740D01*
X224959D01*
X225610Y229010D01*
X226108Y229508D01*
X226378Y230159D01*
Y230864D01*
X226108Y231515D01*
X225610Y232014D01*
X224959Y232283D01*
X224254D01*
X223603Y232014D01*
X223104Y231515D01*
X222835Y230864D01*
Y230159D01*
X222970Y229833D01*
X222901Y229714D01*
X222717Y229528D01*
X222089D01*
X221437Y229258D01*
X221240Y229060D01*
X221179Y229021D01*
X221108Y228952D01*
X221056Y228907D01*
X221011Y228872D01*
X220972Y228846D01*
X220941Y228828D01*
X220918Y228817D01*
X220909Y228814D01*
X219387D01*
X218982Y228733D01*
X218639Y228504D01*
X217195Y227060D01*
X217032Y227044D01*
X217028Y227048D01*
X216377Y227318D01*
X215672D01*
X215021Y227048D01*
X214727Y226755D01*
X214389Y227093D01*
X213738Y227362D01*
X213033D01*
X212382Y227093D01*
X211939Y226649D01*
X211678Y226708D01*
X211589Y226757D01*
Y227161D01*
X211509Y227565D01*
X211279Y227909D01*
X208418Y230770D01*
X208418Y230772D01*
X208419Y230802D01*
X208424Y230843D01*
X208426Y230854D01*
X208465Y230947D01*
Y231652D01*
X208195Y232303D01*
X207697Y232801D01*
X207045Y233071D01*
X206341D01*
X205689Y232801D01*
X205191Y232303D01*
X204998Y231836D01*
X204598Y231740D01*
X202707Y233632D01*
X202852Y233982D01*
X210806D01*
Y233366D01*
X210890Y232944D01*
X211129Y232586D01*
X211487Y232346D01*
X211910Y232262D01*
X215650D01*
X216002Y232332D01*
X216339Y232365D01*
Y232365D01*
X216345Y232371D01*
X216689Y232371D01*
X217759D01*
X218097Y232146D01*
X218602Y232046D01*
X219972D01*
Y235039D01*
Y238033D01*
X218602D01*
X218578Y238028D01*
X218307Y238250D01*
Y239051D01*
X218406Y239132D01*
X219776D01*
Y242126D01*
Y245120D01*
X218406D01*
X218385Y245116D01*
X218114Y245338D01*
Y246414D01*
X218385Y246636D01*
X218406Y246632D01*
X222146D01*
X222568Y246716D01*
X222926Y246956D01*
X223165Y247314D01*
X223250Y247736D01*
Y251083D01*
X223165Y251505D01*
X222926Y251863D01*
X222568Y252102D01*
X222146Y252187D01*
X222082D01*
Y264214D01*
X232950D01*
X233559Y264335D01*
X236593D01*
Y263878D01*
X236677Y263456D01*
X236916Y263097D01*
X237205Y262905D01*
Y262292D01*
X236916Y262100D01*
X236677Y261741D01*
X236593Y261319D01*
Y257579D01*
X236677Y257156D01*
X236916Y256798D01*
X237274Y256559D01*
X237697Y256475D01*
X238312D01*
Y253698D01*
X238309Y253688D01*
X238298Y253665D01*
X238280Y253634D01*
X238254Y253595D01*
X238219Y253550D01*
X238174Y253498D01*
X238105Y253428D01*
X238066Y253366D01*
X237901Y253202D01*
X237748Y253222D01*
X237551Y253309D01*
Y254950D01*
X237471Y255355D01*
X237241Y255698D01*
X235165Y257774D01*
Y260925D01*
X235081Y261348D01*
X234842Y261706D01*
X234484Y261945D01*
X234061Y262029D01*
X230321D01*
X229899Y261945D01*
X229541Y261706D01*
X229343Y261410D01*
X229068Y261415D01*
X228975Y261441D01*
X228696Y261859D01*
X228268Y262145D01*
X227762Y262246D01*
X226392D01*
Y259252D01*
Y256258D01*
X227762D01*
X228268Y256359D01*
X228696Y256645D01*
X228975Y257063D01*
X229068Y257089D01*
X229343Y257094D01*
X229541Y256798D01*
X229899Y256559D01*
X230321Y256475D01*
X233472D01*
X235436Y254512D01*
Y251096D01*
X235345Y251021D01*
X235047D01*
Y247047D01*
Y243073D01*
X235345D01*
X235769Y243158D01*
X236046Y243342D01*
X236309Y243290D01*
X237904D01*
X238245Y243358D01*
X238386Y243452D01*
X238526Y243358D01*
X238868Y243290D01*
X240463D01*
X240804Y243358D01*
X240945Y243452D01*
X241085Y243358D01*
X241427Y243290D01*
X243022D01*
X243363Y243358D01*
X243504Y243452D01*
X243644Y243358D01*
X243986Y243290D01*
X245581D01*
X245922Y243358D01*
X246063Y243452D01*
X246203Y243358D01*
X246545Y243290D01*
X248140D01*
X248482Y243358D01*
X248622Y243452D01*
X248763Y243358D01*
X249104Y243290D01*
X250699D01*
X251041Y243358D01*
X251181Y243452D01*
X251322Y243358D01*
X251663Y243290D01*
X253258D01*
X253600Y243358D01*
X253740Y243452D01*
X253881Y243358D01*
X254222Y243290D01*
X255817D01*
X256159Y243358D01*
X256299Y243452D01*
X256440Y243358D01*
X256782Y243290D01*
X258376D01*
X258718Y243358D01*
X258858Y243452D01*
X258999Y243358D01*
X259341Y243290D01*
X260935D01*
X261198Y243342D01*
X261475Y243158D01*
X261900Y243073D01*
X262197D01*
Y247047D01*
Y251021D01*
X261900D01*
X261475Y250937D01*
X261198Y250752D01*
X260935Y250805D01*
X259596D01*
X259449Y251026D01*
Y251730D01*
X259179Y252381D01*
X258681Y252880D01*
X258030Y253150D01*
X257325D01*
X256674Y252880D01*
X256341Y252548D01*
X256213Y252676D01*
X255562Y252946D01*
X254857D01*
X254206Y252676D01*
X254038Y252509D01*
X253740Y252807D01*
X253089Y253076D01*
X252384D01*
X251733Y252807D01*
X251450Y252524D01*
X251100Y252875D01*
X250449Y253145D01*
X249744D01*
X249237Y252935D01*
X249140Y253169D01*
X248978Y253331D01*
X248949Y253380D01*
X248881Y253455D01*
X248835Y253512D01*
X248798Y253562D01*
X248770Y253605D01*
X248751Y253640D01*
X248739Y253667D01*
X248733Y253684D01*
Y253930D01*
X249168Y254365D01*
X249439Y254419D01*
X249782Y254648D01*
X249785Y254651D01*
X259031D01*
X259435Y254731D01*
X259778Y254961D01*
X261293Y256475D01*
X262303D01*
X262726Y256559D01*
X263084Y256798D01*
X263323Y257156D01*
X263407Y257579D01*
Y261319D01*
X263338Y261663D01*
Y263533D01*
X263407Y263878D01*
Y267618D01*
X263323Y268040D01*
X263084Y268399D01*
X262726Y268638D01*
X262303Y268722D01*
X258957D01*
X258534Y268638D01*
X258176Y268399D01*
X257937Y268040D01*
X257853Y267618D01*
Y267554D01*
X256320D01*
Y267618D01*
X256236Y268040D01*
X255997Y268399D01*
X255639Y268638D01*
X255217Y268722D01*
X251870D01*
X251448Y268638D01*
X251090Y268399D01*
X250850Y268040D01*
X250766Y267618D01*
Y267554D01*
X249234D01*
Y267618D01*
X249150Y268040D01*
X248910Y268399D01*
X248552Y268638D01*
X248130Y268722D01*
X244783D01*
X244361Y268638D01*
X244003Y268399D01*
X243764Y268040D01*
X243680Y267618D01*
Y267554D01*
X242147D01*
Y267618D01*
X242063Y268040D01*
X241824Y268399D01*
X241466Y268638D01*
X241043Y268722D01*
X237697D01*
X237274Y268638D01*
X236916Y268399D01*
X236677Y268040D01*
X236659Y267948D01*
X233071D01*
X232896Y267913D01*
X232718D01*
X232554Y267845D01*
X232463Y267827D01*
X195704D01*
Y278346D01*
Y280884D01*
X195768D01*
X196190Y280968D01*
X196548Y281208D01*
X196707Y281445D01*
X198998D01*
Y280433D01*
X199068Y280080D01*
X199268Y279780D01*
X199568Y279580D01*
X199921Y279510D01*
X202047D01*
X202400Y279580D01*
X202700Y279780D01*
X202900Y280080D01*
X202971Y280433D01*
Y284528D01*
X202900Y284881D01*
X202700Y285180D01*
X202400Y285381D01*
X202047Y285451D01*
X199921D01*
X199568Y285381D01*
X199268Y285180D01*
X199187Y285058D01*
X196872D01*
Y285728D01*
X196788Y286151D01*
X196548Y286509D01*
X196190Y286748D01*
X195768Y286832D01*
X192421D01*
X191999Y286748D01*
X191641Y286509D01*
X191401Y286151D01*
X191317Y285728D01*
Y281988D01*
X191401Y281566D01*
X191641Y281208D01*
X191999Y280968D01*
X192091Y280950D01*
Y278346D01*
Y267827D01*
X185357D01*
X185223Y268150D01*
X185360Y268288D01*
X185630Y268939D01*
Y269644D01*
X185360Y270295D01*
X184862Y270793D01*
X184211Y271063D01*
X183506D01*
X182855Y270793D01*
X182657Y270596D01*
X182596Y270556D01*
X182525Y270487D01*
X182474Y270443D01*
X182428Y270407D01*
X182390Y270381D01*
X182359Y270363D01*
X182336Y270353D01*
X182326Y270349D01*
X175745D01*
X175735Y270353D01*
X175712Y270363D01*
X175681Y270381D01*
X175643Y270407D01*
X175597Y270443D01*
X175546Y270487D01*
X175475Y270556D01*
X175414Y270596D01*
X175216Y270793D01*
X174565Y271063D01*
X173860D01*
X173209Y270793D01*
X172711Y270295D01*
X172441Y269644D01*
Y268939D01*
X172711Y268288D01*
X173209Y267789D01*
X173860Y267520D01*
X174565D01*
X175216Y267789D01*
X175414Y267987D01*
X175475Y268027D01*
X175546Y268095D01*
X175597Y268140D01*
X175643Y268175D01*
X175681Y268201D01*
X175712Y268219D01*
X175735Y268230D01*
X175745Y268234D01*
X182092D01*
X182179Y268177D01*
X182184Y268155D01*
X181978Y267827D01*
X178226D01*
X177534Y267690D01*
X176948Y267298D01*
X170958Y261308D01*
X170889Y261320D01*
X170615Y261718D01*
X170712Y262205D01*
Y291605D01*
X179261Y300154D01*
X221133D01*
X222595Y298692D01*
Y294662D01*
X222368Y294617D01*
X221980Y294358D01*
X221722Y293971D01*
X221637Y293546D01*
X219022D01*
X218989Y293596D01*
X218631Y293835D01*
X218209Y293919D01*
X214862D01*
X214648Y293876D01*
X210472D01*
Y295860D01*
X210319Y296628D01*
X209884Y297280D01*
X208500Y298663D01*
X207849Y299098D01*
X207081Y299251D01*
X202368D01*
X201600Y299098D01*
X200949Y298663D01*
X199565Y297280D01*
X199130Y296628D01*
X198977Y295860D01*
Y292717D01*
X198998Y292612D01*
Y290669D01*
X199068Y290316D01*
X199268Y290016D01*
X199568Y289816D01*
X199921Y289746D01*
X202047D01*
X202400Y289816D01*
X202700Y290016D01*
X202825Y289909D01*
X202855Y289863D01*
X203225Y289616D01*
X203661Y289529D01*
X204224D01*
Y292717D01*
X205224D01*
Y289529D01*
X205787D01*
X206224Y289616D01*
X206593Y289863D01*
X206624Y289909D01*
X206749Y290016D01*
X207048Y289816D01*
X207402Y289746D01*
X209528D01*
X209881Y289816D01*
X209949Y289862D01*
X213758D01*
Y289075D01*
X213842Y288652D01*
X214082Y288294D01*
X214380Y288095D01*
Y287347D01*
X214357Y287342D01*
X213928Y287056D01*
X213642Y286627D01*
X213542Y286122D01*
Y284752D01*
X216535D01*
X219529D01*
Y286122D01*
X219429Y286627D01*
X219143Y287056D01*
X218714Y287342D01*
X218701Y287345D01*
Y288102D01*
X218989Y288294D01*
X219229Y288652D01*
X219313Y289075D01*
Y289131D01*
X221637D01*
X221722Y288706D01*
X221980Y288319D01*
X222368Y288060D01*
X222441Y288046D01*
Y287368D01*
X222285Y287337D01*
X221827Y287031D01*
X221521Y286573D01*
X221414Y286034D01*
Y284358D01*
X225394D01*
X229374D01*
Y286034D01*
X229266Y286573D01*
X228960Y287031D01*
X228502Y287337D01*
X228346Y287368D01*
Y288046D01*
X228420Y288060D01*
X228807Y288319D01*
X229066Y288706D01*
X229150Y289131D01*
X231475D01*
Y289075D01*
X231559Y288652D01*
X231798Y288294D01*
X232097Y288095D01*
Y287347D01*
X232073Y287342D01*
X231645Y287056D01*
X231359Y286627D01*
X231258Y286122D01*
Y284752D01*
X234252D01*
X237246D01*
Y286122D01*
X237145Y286627D01*
X236859Y287056D01*
X236431Y287342D01*
X236417Y287345D01*
Y288102D01*
X236706Y288294D01*
X236945Y288652D01*
X237029Y289075D01*
Y290772D01*
X237181Y290924D01*
X237701Y291271D01*
X241466Y295036D01*
X242421D01*
X242538Y295060D01*
X244597D01*
X244977Y295135D01*
X245299Y295351D01*
X245514Y295673D01*
X245590Y296053D01*
Y303159D01*
X245514Y303540D01*
X245299Y303862D01*
X244977Y304077D01*
X244597Y304153D01*
X241230D01*
X240850Y304077D01*
X240528Y303862D01*
X240312Y303540D01*
X240237Y303159D01*
Y299389D01*
X239706Y299284D01*
X238990Y298805D01*
X234925Y294740D01*
X234406Y294393D01*
X233931Y293919D01*
X232579D01*
X232156Y293835D01*
X231798Y293596D01*
X231765Y293546D01*
X229150D01*
X229066Y293971D01*
X228807Y294358D01*
X228420Y294617D01*
X227963Y294708D01*
X227011D01*
Y299606D01*
X226843Y300451D01*
X226364Y301167D01*
X223608Y303923D01*
X222892Y304402D01*
X222047Y304570D01*
D02*
G37*
G36*
X352378Y298563D02*
Y293323D01*
X357618D01*
X357450Y294165D01*
X356974Y295314D01*
X356283Y296348D01*
X355403Y297228D01*
X354369Y297919D01*
X353220Y298395D01*
X352378Y298563D01*
D02*
G37*
G36*
X350378D02*
X349536Y298395D01*
X348387Y297919D01*
X347352Y297228D01*
X346473Y296348D01*
X345782Y295314D01*
X345306Y294165D01*
X345138Y293323D01*
X350378D01*
Y298563D01*
D02*
G37*
G36*
X195768Y293742D02*
X194595D01*
Y291051D01*
X197088D01*
Y292421D01*
X196988Y292927D01*
X196702Y293355D01*
X196273Y293641D01*
X195768Y293742D01*
D02*
G37*
G36*
X193595D02*
X192421D01*
X191916Y293641D01*
X191487Y293355D01*
X191201Y292927D01*
X191101Y292421D01*
Y291051D01*
X193595D01*
Y293742D01*
D02*
G37*
G36*
X297335Y292974D02*
X295965D01*
X295459Y292873D01*
X295031Y292587D01*
X294744Y292159D01*
X294644Y291653D01*
Y290480D01*
X297335D01*
Y292974D01*
D02*
G37*
G36*
X197088Y290051D02*
X194595D01*
Y287360D01*
X195768D01*
X196273Y287461D01*
X196702Y287747D01*
X196988Y288176D01*
X197088Y288681D01*
Y290051D01*
D02*
G37*
G36*
X193595D02*
X191101D01*
Y288681D01*
X191201Y288176D01*
X191487Y287747D01*
X191916Y287461D01*
X192421Y287360D01*
X193595D01*
Y290051D01*
D02*
G37*
G36*
X297335Y289480D02*
X294644D01*
Y288307D01*
X294744Y287801D01*
X295031Y287373D01*
X295459Y287087D01*
X295965Y286986D01*
X297335D01*
Y289480D01*
D02*
G37*
G36*
X357618Y291323D02*
X352378D01*
Y286083D01*
X353220Y286251D01*
X354369Y286727D01*
X355403Y287418D01*
X356283Y288297D01*
X356974Y289332D01*
X357450Y290481D01*
X357618Y291323D01*
D02*
G37*
G36*
X272215Y283924D02*
X269721D01*
Y281233D01*
X270894D01*
X271400Y281334D01*
X271828Y281620D01*
X272114Y282048D01*
X272215Y282554D01*
Y283924D01*
D02*
G37*
G36*
X268721D02*
X266227D01*
Y282554D01*
X266328Y282048D01*
X266614Y281620D01*
X267042Y281334D01*
X267548Y281233D01*
X268721D01*
Y283924D01*
D02*
G37*
G36*
X237246Y283752D02*
X234752D01*
Y281061D01*
X235925D01*
X236431Y281162D01*
X236859Y281448D01*
X237145Y281876D01*
X237246Y282382D01*
Y283752D01*
D02*
G37*
G36*
X233752D02*
X231258D01*
Y282382D01*
X231359Y281876D01*
X231645Y281448D01*
X232073Y281162D01*
X232579Y281061D01*
X233752D01*
Y283752D01*
D02*
G37*
G36*
X219529D02*
X217035D01*
Y281061D01*
X218209D01*
X218714Y281162D01*
X219143Y281448D01*
X219429Y281876D01*
X219529Y282382D01*
Y283752D01*
D02*
G37*
G36*
X216035D02*
X213542D01*
Y282382D01*
X213642Y281876D01*
X213928Y281448D01*
X214357Y281162D01*
X214862Y281061D01*
X216035D01*
Y283752D01*
D02*
G37*
G36*
X280751Y283358D02*
X277272D01*
Y280272D01*
X279341D01*
X279880Y280380D01*
X280338Y280685D01*
X280644Y281143D01*
X280751Y281683D01*
Y283358D01*
D02*
G37*
G36*
X276272D02*
X272792D01*
Y281683D01*
X272899Y281143D01*
X273205Y280685D01*
X273663Y280380D01*
X274203Y280272D01*
X276272D01*
Y283358D01*
D02*
G37*
G36*
X229374Y283358D02*
X225894D01*
Y280272D01*
X227963D01*
X228502Y280380D01*
X228960Y280685D01*
X229266Y281143D01*
X229374Y281683D01*
Y283358D01*
D02*
G37*
G36*
X224894D02*
X221414D01*
Y281683D01*
X221521Y281143D01*
X221827Y280685D01*
X222285Y280380D01*
X222825Y280272D01*
X224894D01*
Y283358D01*
D02*
G37*
G36*
X209528Y285451D02*
X207402D01*
X207048Y285381D01*
X206749Y285180D01*
X206549Y284881D01*
X206478Y284528D01*
Y280433D01*
X206549Y280080D01*
X206749Y279780D01*
X207048Y279580D01*
X207402Y279510D01*
X209528D01*
X209881Y279580D01*
X210180Y279780D01*
X210381Y280080D01*
X210451Y280433D01*
Y284528D01*
X210381Y284881D01*
X210180Y285180D01*
X209881Y285381D01*
X209528Y285451D01*
D02*
G37*
G36*
X309011Y278810D02*
X307170D01*
X306800Y278736D01*
X306486Y278526D01*
X306276Y278212D01*
X306202Y277841D01*
Y276486D01*
X301787D01*
X301666Y276666D01*
X301308Y276906D01*
X300886Y276990D01*
X297539D01*
X297117Y276906D01*
X296759Y276666D01*
X296519Y276308D01*
X296435Y275886D01*
Y275822D01*
X294882D01*
X294707Y275787D01*
X294530D01*
X294365Y275719D01*
X294191Y275685D01*
X294043Y275586D01*
X293878Y275518D01*
X293753Y275392D01*
X293605Y275293D01*
X293506Y275145D01*
X293380Y275019D01*
X293312Y274855D01*
X293213Y274707D01*
X293178Y274533D01*
X293110Y274368D01*
Y274190D01*
X293075Y274016D01*
X293110Y273841D01*
Y273663D01*
X293178Y273499D01*
X293213Y273324D01*
X293312Y273177D01*
X293380Y273012D01*
X293506Y272886D01*
X293605Y272739D01*
X293753Y272640D01*
X293878Y272514D01*
X294043Y272446D01*
X294191Y272347D01*
X294365Y272312D01*
X294530Y272244D01*
X294707D01*
X294882Y272209D01*
X296435D01*
Y272146D01*
X296519Y271723D01*
X296759Y271365D01*
X297057Y271166D01*
Y270418D01*
X297034Y270413D01*
X296605Y270127D01*
X296319Y269698D01*
X296219Y269193D01*
Y267823D01*
X299213D01*
X302206D01*
Y269193D01*
X302106Y269698D01*
X301820Y270127D01*
X301391Y270413D01*
X301378Y270416D01*
Y271172D01*
X301666Y271365D01*
X301906Y271723D01*
X301990Y272146D01*
Y272873D01*
X307141D01*
X307170Y272867D01*
X309011D01*
X309381Y272941D01*
X309696Y273151D01*
X309906Y273465D01*
X309979Y273836D01*
Y277841D01*
X309906Y278212D01*
X309696Y278526D01*
X309381Y278736D01*
X309011Y278810D01*
D02*
G37*
G36*
X378642Y279175D02*
X377468D01*
Y276484D01*
X379962D01*
Y277854D01*
X379862Y278360D01*
X379576Y278788D01*
X379147Y279074D01*
X378642Y279175D01*
D02*
G37*
G36*
X376468D02*
X375295D01*
X374790Y279074D01*
X374361Y278788D01*
X374075Y278360D01*
X373975Y277854D01*
Y276484D01*
X376468D01*
Y279175D01*
D02*
G37*
G36*
X370768Y278978D02*
X369595D01*
Y276287D01*
X372088D01*
Y277658D01*
X371988Y278163D01*
X371702Y278591D01*
X371273Y278878D01*
X370768Y278978D01*
D02*
G37*
G36*
X368595D02*
X367421D01*
X366916Y278878D01*
X366487Y278591D01*
X366201Y278163D01*
X366101Y277658D01*
Y276287D01*
X368595D01*
Y278978D01*
D02*
G37*
G36*
X257992Y280358D02*
X252468D01*
Y276091D01*
X259393D01*
Y278957D01*
X259286Y279493D01*
X258983Y279947D01*
X258528Y280251D01*
X257992Y280358D01*
D02*
G37*
G36*
X251468D02*
X245945D01*
X245409Y280251D01*
X244954Y279947D01*
X244651Y279493D01*
X244544Y278957D01*
Y276091D01*
X251468D01*
Y280358D01*
D02*
G37*
G36*
X186967Y275000D02*
X186262D01*
X185611Y274730D01*
X185413Y274533D01*
X185352Y274493D01*
X185281Y274425D01*
X185230Y274379D01*
X185184Y274344D01*
X185145Y274318D01*
X185115Y274301D01*
X185092Y274290D01*
X185082Y274286D01*
X177910D01*
X177900Y274290D01*
X177877Y274301D01*
X177847Y274318D01*
X177808Y274344D01*
X177762Y274379D01*
X177711Y274425D01*
X177640Y274493D01*
X177579Y274533D01*
X177382Y274730D01*
X176730Y275000D01*
X176025D01*
X175374Y274730D01*
X174876Y274232D01*
X174606Y273581D01*
Y272876D01*
X174876Y272225D01*
X175374Y271726D01*
X176025Y271457D01*
X176730D01*
X177382Y271726D01*
X177579Y271924D01*
X177640Y271964D01*
X177711Y272032D01*
X177762Y272077D01*
X177808Y272112D01*
X177847Y272139D01*
X177877Y272156D01*
X177900Y272167D01*
X177910Y272171D01*
X185082D01*
X185092Y272167D01*
X185115Y272156D01*
X185145Y272139D01*
X185184Y272112D01*
X185230Y272077D01*
X185281Y272032D01*
X185352Y271964D01*
X185413Y271924D01*
X185611Y271726D01*
X186262Y271457D01*
X186967D01*
X187618Y271726D01*
X188116Y272225D01*
X188386Y272876D01*
Y273581D01*
X188116Y274232D01*
X187618Y274730D01*
X186967Y275000D01*
D02*
G37*
G36*
X259393Y275091D02*
X252468D01*
Y270824D01*
X257992D01*
X258528Y270930D01*
X258983Y271234D01*
X259286Y271688D01*
X259393Y272224D01*
Y275091D01*
D02*
G37*
G36*
X251468D02*
X244544D01*
Y272224D01*
X244651Y271688D01*
X244954Y271234D01*
X245409Y270930D01*
X245945Y270824D01*
X251468D01*
Y275091D01*
D02*
G37*
G36*
X162443Y271744D02*
X159949D01*
Y269053D01*
X161122D01*
X161627Y269154D01*
X162056Y269440D01*
X162342Y269869D01*
X162443Y270374D01*
Y271744D01*
D02*
G37*
G36*
X158949D02*
X156455D01*
Y270374D01*
X156555Y269869D01*
X156842Y269440D01*
X157270Y269154D01*
X157776Y269053D01*
X158949D01*
Y271744D01*
D02*
G37*
G36*
X142758D02*
X140264D01*
Y269053D01*
X141437D01*
X141942Y269154D01*
X142371Y269440D01*
X142657Y269869D01*
X142758Y270374D01*
Y271744D01*
D02*
G37*
G36*
X139264D02*
X136770D01*
Y270374D01*
X136870Y269869D01*
X137157Y269440D01*
X137585Y269154D01*
X138091Y269053D01*
X139264D01*
Y271744D01*
D02*
G37*
G36*
X311331Y268791D02*
X310910D01*
X310457Y268700D01*
X310072Y268443D01*
X309970Y268290D01*
X309696D01*
X309381Y268500D01*
X309011Y268574D01*
X307170D01*
X306800Y268500D01*
X306486Y268290D01*
X306276Y267976D01*
X306202Y267605D01*
Y263599D01*
X306266Y263277D01*
X306187Y263063D01*
X306114Y262927D01*
X294313D01*
Y263287D01*
X294229Y263710D01*
X293989Y264068D01*
X293631Y264307D01*
X293209Y264391D01*
X289469D01*
X289046Y264307D01*
X288688Y264068D01*
X288449Y263710D01*
X288365Y263287D01*
Y259941D01*
X288449Y259519D01*
X288688Y259160D01*
X289046Y258921D01*
X289469Y258837D01*
X293209D01*
X293631Y258921D01*
X293989Y259160D01*
X294229Y259519D01*
X294313Y259941D01*
Y260301D01*
X307480D01*
X307983Y260402D01*
X308408Y260686D01*
X308999Y261277D01*
X309284Y261702D01*
X309384Y262205D01*
Y262706D01*
X309696Y262915D01*
X309970D01*
X310072Y262761D01*
X310457Y262505D01*
X310910Y262414D01*
X311331D01*
Y265602D01*
Y268791D01*
D02*
G37*
G36*
X161122Y267954D02*
X159949D01*
Y265264D01*
X162443D01*
Y266634D01*
X162342Y267139D01*
X162056Y267568D01*
X161627Y267854D01*
X161122Y267954D01*
D02*
G37*
G36*
X141437D02*
X140264D01*
Y265264D01*
X142758D01*
Y266634D01*
X142657Y267139D01*
X142371Y267568D01*
X141942Y267854D01*
X141437Y267954D01*
D02*
G37*
G36*
X158949D02*
X157776D01*
X157270Y267854D01*
X156842Y267568D01*
X156555Y267139D01*
X156455Y266634D01*
Y265264D01*
X158949D01*
Y267954D01*
D02*
G37*
G36*
X139264D02*
X138091D01*
X137585Y267854D01*
X137157Y267568D01*
X136870Y267139D01*
X136770Y266634D01*
Y265264D01*
X139264D01*
Y267954D01*
D02*
G37*
G36*
X302206Y266823D02*
X299713D01*
Y264132D01*
X300886D01*
X301391Y264233D01*
X301820Y264519D01*
X302106Y264947D01*
X302206Y265453D01*
Y266823D01*
D02*
G37*
G36*
X298713D02*
X296219D01*
Y265453D01*
X296319Y264947D01*
X296605Y264519D01*
X297034Y264233D01*
X297539Y264132D01*
X298713D01*
Y266823D01*
D02*
G37*
G36*
X225392Y262246D02*
X224022D01*
X223517Y262145D01*
X223088Y261859D01*
X222802Y261431D01*
X222701Y260925D01*
Y259752D01*
X225392D01*
Y262246D01*
D02*
G37*
G36*
Y258752D02*
X222701D01*
Y257579D01*
X222802Y257073D01*
X223088Y256645D01*
X223517Y256359D01*
X224022Y256258D01*
X225392D01*
Y258752D01*
D02*
G37*
G36*
X293364Y257037D02*
X291994D01*
Y254543D01*
X294685D01*
Y255716D01*
X294584Y256222D01*
X294298Y256650D01*
X293870Y256937D01*
X293364Y257037D01*
D02*
G37*
G36*
X290994D02*
X289624D01*
X289119Y256937D01*
X288690Y256650D01*
X288404Y256222D01*
X288304Y255716D01*
Y254543D01*
X290994D01*
Y257037D01*
D02*
G37*
G36*
X322329Y255618D02*
X321156D01*
Y252928D01*
X323649D01*
Y254298D01*
X323549Y254803D01*
X323263Y255232D01*
X322834Y255518D01*
X322329Y255618D01*
D02*
G37*
G36*
X320156D02*
X318982D01*
X318477Y255518D01*
X318048Y255232D01*
X317762Y254803D01*
X317661Y254298D01*
Y252928D01*
X320156D01*
Y255618D01*
D02*
G37*
G36*
X329062Y255579D02*
X327888D01*
Y252889D01*
X330382D01*
Y254259D01*
X330282Y254764D01*
X329996Y255193D01*
X329567Y255479D01*
X329062Y255579D01*
D02*
G37*
G36*
X326888D02*
X325715D01*
X325210Y255479D01*
X324781Y255193D01*
X324495Y254764D01*
X324395Y254259D01*
Y252889D01*
X326888D01*
Y255579D01*
D02*
G37*
G36*
X315615Y255560D02*
X314442D01*
Y252869D01*
X316936D01*
Y254239D01*
X316835Y254745D01*
X316549Y255173D01*
X316120Y255459D01*
X315615Y255560D01*
D02*
G37*
G36*
X313442D02*
X312269D01*
X311763Y255459D01*
X311335Y255173D01*
X311048Y254745D01*
X310948Y254239D01*
Y252869D01*
X313442D01*
Y255560D01*
D02*
G37*
G36*
X308862Y255541D02*
X307689D01*
Y252850D01*
X310183D01*
Y254220D01*
X310083Y254725D01*
X309796Y255154D01*
X309368Y255440D01*
X308862Y255541D01*
D02*
G37*
G36*
X306689D02*
X305516D01*
X305011Y255440D01*
X304582Y255154D01*
X304296Y254725D01*
X304195Y254220D01*
Y252850D01*
X306689D01*
Y255541D01*
D02*
G37*
G36*
X302166Y255533D02*
X300992D01*
Y252843D01*
X303486D01*
Y254213D01*
X303386Y254718D01*
X303099Y255147D01*
X302671Y255433D01*
X302166Y255533D01*
D02*
G37*
G36*
X299992D02*
X298819D01*
X298314Y255433D01*
X297885Y255147D01*
X297599Y254718D01*
X297498Y254213D01*
Y252843D01*
X299992D01*
Y255533D01*
D02*
G37*
G36*
X335917Y255751D02*
X334242D01*
X333702Y255644D01*
X333244Y255338D01*
X332939Y254880D01*
X332831Y254341D01*
Y252272D01*
X335917D01*
Y255751D01*
D02*
G37*
G36*
X294685Y253543D02*
X291994D01*
Y251049D01*
X293364D01*
X293870Y251150D01*
X294298Y251436D01*
X294584Y251865D01*
X294685Y252370D01*
Y253543D01*
D02*
G37*
G36*
X290994D02*
X288304D01*
Y252370D01*
X288404Y251865D01*
X288690Y251436D01*
X289119Y251150D01*
X289624Y251049D01*
X290994D01*
Y253543D01*
D02*
G37*
G36*
X234047Y251021D02*
X233750D01*
X233325Y250937D01*
X233268Y250898D01*
X233210Y250937D01*
X232785Y251021D01*
X232488D01*
Y247047D01*
Y243073D01*
X232785D01*
X233210Y243158D01*
X233268Y243196D01*
X233325Y243158D01*
X233750Y243073D01*
X234047D01*
Y247047D01*
Y251021D01*
D02*
G37*
G36*
X225746Y251378D02*
X225041D01*
X224390Y251108D01*
X223892Y250610D01*
X223622Y249959D01*
Y249254D01*
X223892Y248603D01*
X224390Y248104D01*
X225041Y247835D01*
X225746D01*
X226397Y248104D01*
X226896Y248603D01*
X227165Y249254D01*
Y249959D01*
X226896Y250610D01*
X226397Y251108D01*
X225746Y251378D01*
D02*
G37*
G36*
X335917Y251272D02*
X332831D01*
Y249203D01*
X332939Y248663D01*
X333244Y248205D01*
X333702Y247899D01*
X334242Y247792D01*
X335917D01*
Y251272D01*
D02*
G37*
G36*
X263494Y251021D02*
X263197D01*
Y247547D01*
X264604D01*
Y249911D01*
X264520Y250336D01*
X264279Y250696D01*
X263919Y250937D01*
X263494Y251021D01*
D02*
G37*
G36*
X361624Y250633D02*
X359949D01*
Y247153D01*
X363035D01*
Y249222D01*
X362928Y249762D01*
X362622Y250220D01*
X362164Y250526D01*
X361624Y250633D01*
D02*
G37*
G36*
X173524Y248270D02*
X172350D01*
Y245579D01*
X174844D01*
Y246949D01*
X174744Y247454D01*
X174458Y247883D01*
X174029Y248169D01*
X173524Y248270D01*
D02*
G37*
G36*
X171350D02*
X170177D01*
X169672Y248169D01*
X169243Y247883D01*
X168957Y247454D01*
X168857Y246949D01*
Y245579D01*
X171350D01*
Y248270D01*
D02*
G37*
G36*
X336311Y246695D02*
X334941D01*
X334436Y246594D01*
X334007Y246308D01*
X333721Y245879D01*
X333620Y245374D01*
Y244201D01*
X336311D01*
Y246695D01*
D02*
G37*
G36*
X264604Y246547D02*
X263197D01*
Y243073D01*
X263494D01*
X263919Y243158D01*
X264279Y243398D01*
X264520Y243758D01*
X264604Y244183D01*
Y246547D01*
D02*
G37*
G36*
X229799Y255656D02*
X229094D01*
X228443Y255386D01*
X227944Y254888D01*
X227675Y254236D01*
Y253532D01*
X227944Y252881D01*
X228142Y252683D01*
X228182Y252622D01*
X228250Y252551D01*
X228295Y252500D01*
X228330Y252454D01*
X228357Y252415D01*
X228374Y252385D01*
X228385Y252362D01*
X228389Y252352D01*
Y250756D01*
X228290Y250737D01*
X228000Y250543D01*
X227807Y250253D01*
X227739Y249911D01*
Y244183D01*
X227807Y243841D01*
X228000Y243551D01*
X228290Y243358D01*
X228632Y243290D01*
X230226D01*
X230490Y243342D01*
X230766Y243158D01*
X231191Y243073D01*
X231488D01*
Y247047D01*
Y251021D01*
X231191D01*
X230854Y250954D01*
X230504Y251151D01*
Y252352D01*
X230508Y252362D01*
X230519Y252385D01*
X230536Y252415D01*
X230562Y252454D01*
X230598Y252500D01*
X230643Y252551D01*
X230711Y252622D01*
X230751Y252683D01*
X230948Y252881D01*
X231218Y253532D01*
Y254236D01*
X230948Y254888D01*
X230450Y255386D01*
X229799Y255656D01*
D02*
G37*
G36*
X363035Y246153D02*
X359949D01*
Y242674D01*
X361624D01*
X362164Y242781D01*
X362622Y243087D01*
X362928Y243545D01*
X363035Y244085D01*
Y246153D01*
D02*
G37*
G36*
X222146Y245120D02*
X220776D01*
Y242626D01*
X223466D01*
Y243799D01*
X223366Y244305D01*
X223079Y244733D01*
X222651Y245019D01*
X222146Y245120D01*
D02*
G37*
G36*
X336311Y243201D02*
X333620D01*
Y242028D01*
X333721Y241522D01*
X334007Y241094D01*
X334436Y240808D01*
X334941Y240707D01*
X336311D01*
Y243201D01*
D02*
G37*
G36*
X142364Y242807D02*
X139870D01*
Y240116D01*
X141043D01*
X141549Y240217D01*
X141977Y240503D01*
X142263Y240932D01*
X142364Y241437D01*
Y242807D01*
D02*
G37*
G36*
X138870D02*
X136376D01*
Y241437D01*
X136477Y240932D01*
X136763Y240503D01*
X137191Y240217D01*
X137697Y240116D01*
X138870D01*
Y242807D01*
D02*
G37*
G36*
X162443Y242216D02*
X159949D01*
Y239526D01*
X161122D01*
X161627Y239626D01*
X162056Y239913D01*
X162342Y240341D01*
X162443Y240846D01*
Y242216D01*
D02*
G37*
G36*
X158949D02*
X156455D01*
Y240846D01*
X156555Y240341D01*
X156842Y239913D01*
X157270Y239626D01*
X157776Y239526D01*
X158949D01*
Y242216D01*
D02*
G37*
G36*
X223466Y241626D02*
X220776D01*
Y239132D01*
X222146D01*
X222651Y239233D01*
X223079Y239519D01*
X223366Y239947D01*
X223466Y240453D01*
Y241626D01*
D02*
G37*
G36*
X361624Y241775D02*
X359949D01*
Y238295D01*
X363035D01*
Y240364D01*
X362928Y240904D01*
X362622Y241362D01*
X362164Y241668D01*
X361624Y241775D01*
D02*
G37*
G36*
X336311Y239608D02*
X334941D01*
X334436Y239508D01*
X334007Y239221D01*
X333721Y238793D01*
X333620Y238287D01*
Y237114D01*
X336311D01*
Y239608D01*
D02*
G37*
G36*
X256547Y242448D02*
X246563D01*
Y236130D01*
X258157D01*
Y240839D01*
X258034Y241455D01*
X257685Y241977D01*
X257163Y242326D01*
X256547Y242448D01*
D02*
G37*
G36*
X245563D02*
X235579D01*
X234963Y242326D01*
X234440Y241977D01*
X234092Y241455D01*
X233969Y240839D01*
Y236130D01*
X245563D01*
Y242448D01*
D02*
G37*
G36*
X222342Y238033D02*
X220972D01*
Y235539D01*
X223663D01*
Y236713D01*
X223563Y237218D01*
X223276Y237646D01*
X222848Y237933D01*
X222342Y238033D01*
D02*
G37*
G36*
X363035Y237295D02*
X359949D01*
Y233815D01*
X361624D01*
X362164Y233923D01*
X362622Y234229D01*
X362928Y234686D01*
X363035Y235226D01*
Y237295D01*
D02*
G37*
G36*
X336311Y236114D02*
X333620D01*
Y234941D01*
X333721Y234436D01*
X334007Y234007D01*
X334436Y233721D01*
X334941Y233620D01*
X336311D01*
Y236114D01*
D02*
G37*
G36*
X223663Y234539D02*
X220972D01*
Y232046D01*
X222342D01*
X222848Y232146D01*
X223276Y232432D01*
X223563Y232861D01*
X223663Y233366D01*
Y234539D01*
D02*
G37*
G36*
X335858Y230587D02*
X334472D01*
Y229595D01*
X335858D01*
Y230587D01*
D02*
G37*
G36*
X258157Y235130D02*
X246563D01*
Y228812D01*
X256547D01*
X257163Y228934D01*
X257685Y229283D01*
X258034Y229805D01*
X258157Y230421D01*
Y235130D01*
D02*
G37*
G36*
X245563D02*
X233969D01*
Y230421D01*
X234092Y229805D01*
X234440Y229283D01*
X234963Y228934D01*
X235579Y228812D01*
X245563D01*
Y235130D01*
D02*
G37*
G36*
X181599Y228607D02*
X180229D01*
X179724Y228506D01*
X179296Y228220D01*
X179009Y227792D01*
X178909Y227286D01*
Y226113D01*
X181599D01*
Y228607D01*
D02*
G37*
G36*
X294193Y228191D02*
X292823D01*
Y225697D01*
X295514D01*
Y226870D01*
X295413Y227376D01*
X295127Y227804D01*
X294698Y228090D01*
X294193Y228191D01*
D02*
G37*
G36*
X372146Y226419D02*
X370776D01*
Y223925D01*
X373466D01*
Y225098D01*
X373366Y225604D01*
X373079Y226032D01*
X372651Y226319D01*
X372146Y226419D01*
D02*
G37*
G36*
X181599Y225113D02*
X178909D01*
Y223940D01*
X179009Y223434D01*
X179296Y223006D01*
X179724Y222720D01*
X180229Y222619D01*
X181599D01*
Y225113D01*
D02*
G37*
G36*
X295514Y224697D02*
X292823D01*
Y222203D01*
X294193D01*
X294698Y222304D01*
X295127Y222590D01*
X295413Y223018D01*
X295514Y223524D01*
Y224697D01*
D02*
G37*
G36*
X287894Y236045D02*
X284154D01*
X283731Y235961D01*
X283373Y235721D01*
X283134Y235363D01*
X283050Y234941D01*
Y231594D01*
X283134Y231172D01*
X283373Y230814D01*
X283731Y230575D01*
X284154Y230491D01*
X284945D01*
Y227974D01*
X284154D01*
X283731Y227890D01*
X283373Y227651D01*
X283134Y227292D01*
X283050Y226870D01*
Y223524D01*
X283134Y223101D01*
X283373Y222743D01*
X283731Y222504D01*
X284154Y222420D01*
X284945D01*
Y220009D01*
X284112D01*
X283690Y219925D01*
X283332Y219686D01*
X283093Y219328D01*
X283022Y218971D01*
X282156D01*
X281712Y219415D01*
X281061Y219685D01*
X280356D01*
X279705Y219415D01*
X279207Y218917D01*
X278937Y218266D01*
Y217561D01*
X279207Y216910D01*
X279705Y216411D01*
X280356Y216142D01*
X281061D01*
X281712Y216411D01*
X282156Y216856D01*
X283009D01*
Y215559D01*
X283093Y215137D01*
X283332Y214778D01*
X283690Y214539D01*
X284112Y214455D01*
X287853D01*
X288275Y214539D01*
X288633Y214778D01*
X288872Y215137D01*
X288956Y215559D01*
Y218905D01*
X288872Y219328D01*
X288633Y219686D01*
X288275Y219925D01*
X287853Y220009D01*
X287061D01*
Y222420D01*
X287894D01*
X288316Y222504D01*
X288674Y222743D01*
X288872Y223039D01*
X289146Y223034D01*
X289240Y223007D01*
X289519Y222590D01*
X289947Y222304D01*
X290453Y222203D01*
X291823D01*
Y225197D01*
Y228191D01*
X290453D01*
X289947Y228090D01*
X289519Y227804D01*
X289240Y227386D01*
X289146Y227359D01*
X288872Y227355D01*
X288674Y227651D01*
X288316Y227890D01*
X287894Y227974D01*
X287061D01*
Y230491D01*
X287894D01*
X288316Y230575D01*
X288674Y230814D01*
X288914Y231172D01*
X288998Y231594D01*
Y234941D01*
X288914Y235363D01*
X288674Y235721D01*
X288316Y235961D01*
X287894Y236045D01*
D02*
G37*
G36*
X177613Y224719D02*
X175119D01*
Y222028D01*
X176292D01*
X176798Y222129D01*
X177226Y222415D01*
X177512Y222844D01*
X177613Y223349D01*
Y224719D01*
D02*
G37*
G36*
X174119D02*
X171625D01*
Y223349D01*
X171726Y222844D01*
X172012Y222415D01*
X172440Y222129D01*
X172946Y222028D01*
X174119D01*
Y224719D01*
D02*
G37*
G36*
X373466Y222925D02*
X370776D01*
Y220431D01*
X372146D01*
X372651Y220532D01*
X373079Y220818D01*
X373366Y221247D01*
X373466Y221752D01*
Y222925D01*
D02*
G37*
G36*
X294546Y220226D02*
X293175D01*
Y217732D01*
X295866D01*
Y218905D01*
X295766Y219411D01*
X295479Y219839D01*
X295051Y220126D01*
X294546Y220226D01*
D02*
G37*
G36*
X292175D02*
X290805D01*
X290300Y220126D01*
X289872Y219839D01*
X289585Y219411D01*
X289485Y218905D01*
Y217732D01*
X292175D01*
Y220226D01*
D02*
G37*
G36*
X295866Y216732D02*
X293175D01*
Y214238D01*
X294546D01*
X295051Y214339D01*
X295479Y214625D01*
X295766Y215054D01*
X295866Y215559D01*
Y216732D01*
D02*
G37*
G36*
X292175D02*
X289485D01*
Y215559D01*
X289585Y215054D01*
X289872Y214625D01*
X290300Y214339D01*
X290805Y214238D01*
X292175D01*
Y216732D01*
D02*
G37*
G36*
X250287Y213437D02*
X246537D01*
Y213377D01*
X246827Y212297D01*
X247387Y211327D01*
X248178Y210536D01*
X249147Y209977D01*
X250228Y209687D01*
X250287D01*
Y213437D01*
D02*
G37*
G36*
X245037D02*
X241287D01*
Y209687D01*
X241347D01*
X242428Y209977D01*
X243397Y210536D01*
X244188Y211327D01*
X244748Y212297D01*
X245037Y213377D01*
Y213437D01*
D02*
G37*
G36*
X187899Y210940D02*
X185405D01*
Y209570D01*
X185505Y209064D01*
X185792Y208636D01*
X186220Y208349D01*
X186725Y208249D01*
X187899D01*
Y210940D01*
D02*
G37*
G36*
X184503D02*
X182009D01*
Y208249D01*
X183182D01*
X183687Y208349D01*
X184116Y208636D01*
X184402Y209064D01*
X184503Y209570D01*
Y210940D01*
D02*
G37*
G36*
X181009D02*
X178515D01*
Y209570D01*
X178615Y209064D01*
X178902Y208636D01*
X179330Y208349D01*
X179836Y208249D01*
X181009D01*
Y210940D01*
D02*
G37*
G36*
X181764Y195823D02*
X181093D01*
X180622Y195729D01*
X180223Y195463D01*
X180120Y195309D01*
X179821D01*
X179492Y195529D01*
X179104Y195606D01*
X176762D01*
X176374Y195529D01*
X176045Y195309D01*
X175825Y194981D01*
X175748Y194593D01*
Y192250D01*
X175825Y191862D01*
X176045Y191533D01*
X176374Y191314D01*
X176762Y191236D01*
X179104D01*
X179492Y191314D01*
X179821Y191533D01*
X180120D01*
X180223Y191380D01*
X180622Y191113D01*
X181093Y191020D01*
X181764D01*
Y193421D01*
Y195823D01*
D02*
G37*
G36*
X171260Y208507D02*
X170415Y208339D01*
X169699Y207860D01*
X169220Y207144D01*
X169052Y206299D01*
Y203198D01*
X168786Y203021D01*
X168547Y202663D01*
X168463Y202240D01*
Y198500D01*
X168547Y198078D01*
X168786Y197720D01*
X169085Y197520D01*
Y196772D01*
X169062Y196767D01*
X168633Y196481D01*
X168347Y196053D01*
X168246Y195547D01*
Y194177D01*
X171240D01*
X174234D01*
Y195547D01*
X174134Y196053D01*
X173847Y196481D01*
X173419Y196767D01*
X173406Y196770D01*
Y197527D01*
X173694Y197720D01*
X173933Y198078D01*
X174001Y198418D01*
X177933D01*
X178048Y198441D01*
X179104D01*
X179492Y198518D01*
X179821Y198738D01*
X179888Y198838D01*
X180309D01*
X180376Y198738D01*
X180705Y198518D01*
X181093Y198441D01*
X182953D01*
X186180Y195214D01*
Y192004D01*
X186264Y191582D01*
X186503Y191224D01*
X186861Y190984D01*
X187284Y190900D01*
X190630D01*
X191052Y190984D01*
X191411Y191224D01*
X191650Y191582D01*
X191734Y192004D01*
Y195155D01*
X192371Y195793D01*
X193204D01*
X193261Y195508D01*
X193459Y195211D01*
X193756Y195013D01*
X194106Y194943D01*
X197626D01*
X197976Y195013D01*
X198273Y195211D01*
X198471Y195508D01*
X198541Y195858D01*
Y197843D01*
X198471Y198193D01*
X198273Y198490D01*
X197976Y198688D01*
X197626Y198758D01*
X194106D01*
X193756Y198688D01*
X193459Y198490D01*
X193261Y198193D01*
X193204Y197908D01*
X192012D01*
X191826Y198063D01*
X191718Y198222D01*
X191734Y198303D01*
Y202043D01*
X191650Y202466D01*
X191411Y202824D01*
X191052Y203063D01*
X190630Y203147D01*
X190410D01*
X190406Y203168D01*
X189927Y203884D01*
X188081Y205731D01*
X187364Y206209D01*
X186519Y206377D01*
X179780D01*
X178935Y206209D01*
X178219Y205731D01*
X176372Y203884D01*
X175893Y203168D01*
X175827Y202834D01*
X173819D01*
X173694Y203021D01*
X173468Y203172D01*
Y206299D01*
X173300Y207144D01*
X172821Y207860D01*
X172105Y208339D01*
X171260Y208507D01*
D02*
G37*
G36*
X183435Y195823D02*
X182764D01*
Y193921D01*
X184665D01*
Y194593D01*
X184572Y195063D01*
X184305Y195463D01*
X183906Y195729D01*
X183435Y195823D01*
D02*
G37*
G36*
X184665Y192921D02*
X182764D01*
Y191020D01*
X183435D01*
X183906Y191113D01*
X184305Y191380D01*
X184572Y191779D01*
X184665Y192250D01*
Y192921D01*
D02*
G37*
G36*
X345514Y193595D02*
X343020D01*
Y190904D01*
X344193D01*
X344698Y191004D01*
X345127Y191291D01*
X345413Y191719D01*
X345514Y192224D01*
Y193595D01*
D02*
G37*
G36*
X342020D02*
X339526D01*
Y192224D01*
X339626Y191719D01*
X339913Y191291D01*
X340341Y191004D01*
X340846Y190904D01*
X342020D01*
Y193595D01*
D02*
G37*
G36*
X174234Y193177D02*
X171740D01*
Y190487D01*
X172913D01*
X173419Y190587D01*
X173847Y190873D01*
X174134Y191302D01*
X174234Y191807D01*
Y193177D01*
D02*
G37*
G36*
X170740D02*
X168246D01*
Y191807D01*
X168347Y191302D01*
X168633Y190873D01*
X169062Y190587D01*
X169567Y190487D01*
X170740D01*
Y193177D01*
D02*
G37*
G36*
X387864Y215158D02*
X385757D01*
X383677Y214828D01*
X381673Y214177D01*
X379795Y213220D01*
X378091Y211982D01*
X376601Y210492D01*
X375362Y208787D01*
X374406Y206910D01*
X373755Y204906D01*
X373425Y202825D01*
Y200718D01*
X373755Y198637D01*
X374406Y196633D01*
X375362Y194756D01*
X376601Y193051D01*
X378091Y191561D01*
X379795Y190323D01*
X381673Y189366D01*
X383677Y188715D01*
X385757Y188386D01*
X387864D01*
X389946Y188715D01*
X391949Y189366D01*
X393827Y190323D01*
X395531Y191561D01*
X397021Y193051D01*
X398260Y194756D01*
X399216Y196633D01*
X399867Y198637D01*
X400197Y200718D01*
Y202825D01*
X399867Y204906D01*
X399216Y206910D01*
X398260Y208787D01*
X397021Y210492D01*
X395531Y211982D01*
X393827Y213220D01*
X391949Y214177D01*
X389946Y214828D01*
X387864Y215158D01*
D02*
G37*
G36*
X147707D02*
X145600D01*
X143519Y214828D01*
X141515Y214177D01*
X139638Y213220D01*
X137933Y211982D01*
X136443Y210492D01*
X135205Y208787D01*
X134248Y206910D01*
X133597Y204906D01*
X133268Y202825D01*
Y200718D01*
X133597Y198637D01*
X134248Y196633D01*
X135205Y194756D01*
X136443Y193051D01*
X137933Y191561D01*
X139638Y190323D01*
X141515Y189366D01*
X143519Y188715D01*
X145600Y188386D01*
X147707D01*
X149788Y188715D01*
X151792Y189366D01*
X153669Y190323D01*
X155374Y191561D01*
X156864Y193051D01*
X158102Y194756D01*
X159059Y196633D01*
X159710Y198637D01*
X160039Y200718D01*
Y202825D01*
X159710Y204906D01*
X159059Y206910D01*
X158102Y208787D01*
X156864Y210492D01*
X155374Y211982D01*
X153669Y213220D01*
X151792Y214177D01*
X149788Y214828D01*
X147707Y215158D01*
D02*
G37*
%LPD*%
G36*
X197062Y324014D02*
X196988Y323929D01*
X196922Y323844D01*
X196865Y323759D01*
X196816Y323675D01*
X196777Y323591D01*
X196746Y323508D01*
X196724Y323425D01*
X196711Y323343D01*
X196707Y323261D01*
X196207D01*
X196202Y323343D01*
X196189Y323425D01*
X196167Y323508D01*
X196136Y323591D01*
X196097Y323675D01*
X196049Y323759D01*
X195992Y323844D01*
X195926Y323929D01*
X195851Y324014D01*
X195768Y324100D01*
X197146D01*
X197062Y324014D01*
D02*
G37*
G36*
X192338D02*
X192263Y323929D01*
X192197Y323844D01*
X192140Y323759D01*
X192092Y323675D01*
X192052Y323591D01*
X192022Y323508D01*
X192000Y323425D01*
X191987Y323343D01*
X191982Y323261D01*
X191482D01*
X191478Y323343D01*
X191465Y323425D01*
X191443Y323508D01*
X191412Y323591D01*
X191373Y323675D01*
X191324Y323759D01*
X191267Y323844D01*
X191201Y323929D01*
X191127Y324014D01*
X191043Y324100D01*
X192421D01*
X192338Y324014D01*
D02*
G37*
G36*
X187220D02*
X187145Y323929D01*
X187079Y323844D01*
X187022Y323759D01*
X186974Y323675D01*
X186934Y323591D01*
X186904Y323508D01*
X186882Y323425D01*
X186869Y323343D01*
X186864Y323261D01*
X186364D01*
X186360Y323343D01*
X186347Y323425D01*
X186325Y323508D01*
X186294Y323591D01*
X186254Y323675D01*
X186206Y323759D01*
X186149Y323844D01*
X186083Y323929D01*
X186009Y324014D01*
X185925Y324100D01*
X187303D01*
X187220Y324014D01*
D02*
G37*
G36*
X182495D02*
X182421Y323929D01*
X182355Y323844D01*
X182298Y323759D01*
X182249Y323675D01*
X182210Y323591D01*
X182179Y323508D01*
X182157Y323425D01*
X182144Y323343D01*
X182140Y323261D01*
X181640D01*
X181635Y323343D01*
X181622Y323425D01*
X181600Y323508D01*
X181570Y323591D01*
X181530Y323675D01*
X181482Y323759D01*
X181425Y323844D01*
X181359Y323929D01*
X181284Y324014D01*
X181201Y324100D01*
X182579D01*
X182495Y324014D01*
D02*
G37*
G36*
X146028Y291471D02*
Y290059D01*
X146105Y289669D01*
X146224Y289490D01*
Y289075D01*
X146302Y288685D01*
X146523Y288354D01*
X146854Y288133D01*
X147244Y288055D01*
X148819D01*
X149209Y288133D01*
X149540Y288354D01*
X149673Y288354D01*
X150004Y288133D01*
X150394Y288055D01*
X151969D01*
X152359Y288133D01*
X152690Y288354D01*
X152910Y288685D01*
X152988Y289075D01*
Y289490D01*
X153107Y289669D01*
X153185Y290059D01*
Y291471D01*
X153535Y291658D01*
X153708Y291543D01*
X154113Y291462D01*
Y290846D01*
X154197Y290424D01*
X154436Y290066D01*
X154794Y289827D01*
X154931Y289799D01*
Y288941D01*
X154794Y288914D01*
X154436Y288674D01*
X154197Y288316D01*
X154113Y287894D01*
Y284547D01*
X154197Y284125D01*
X154409Y283807D01*
Y283070D01*
X152950Y281611D01*
X152600Y281756D01*
Y282768D01*
X149606D01*
X146612D01*
Y281756D01*
X146262Y281611D01*
X144804Y283070D01*
Y283807D01*
X145016Y284125D01*
X145100Y284547D01*
Y287894D01*
X145016Y288316D01*
X144777Y288674D01*
X144419Y288914D01*
X144291Y288939D01*
Y289801D01*
X144419Y289827D01*
X144777Y290066D01*
X145016Y290424D01*
X145100Y290846D01*
Y291462D01*
X145504Y291543D01*
X145678Y291658D01*
X146028Y291471D01*
D02*
G37*
%LPC*%
G36*
X151279Y286458D02*
X150106D01*
Y283768D01*
X152600D01*
Y285138D01*
X152500Y285643D01*
X152213Y286072D01*
X151785Y286358D01*
X151279Y286458D01*
D02*
G37*
G36*
X149106D02*
X147933D01*
X147428Y286358D01*
X146999Y286072D01*
X146713Y285643D01*
X146612Y285138D01*
Y283768D01*
X149106D01*
Y286458D01*
D02*
G37*
%LPD*%
G36*
X304979Y286500D02*
X304992Y286417D01*
X305014Y286334D01*
X305045Y286251D01*
X305084Y286167D01*
X305132Y286083D01*
X305189Y285999D01*
X305255Y285913D01*
X305330Y285828D01*
X305413Y285742D01*
X304035D01*
X304119Y285828D01*
X304193Y285913D01*
X304259Y285999D01*
X304316Y286083D01*
X304365Y286167D01*
X304404Y286251D01*
X304435Y286334D01*
X304457Y286417D01*
X304470Y286500D01*
X304474Y286582D01*
X304974D01*
X304979Y286500D01*
D02*
G37*
G36*
X354331Y278937D02*
Y273795D01*
X346678D01*
X339764Y280709D01*
X328346D01*
X324803Y284252D01*
Y295079D01*
X328937Y299213D01*
X334055D01*
X354331Y278937D01*
D02*
G37*
G36*
X361672Y266421D02*
X361685Y266339D01*
X361707Y266256D01*
X361738Y266172D01*
X361777Y266089D01*
X361825Y266004D01*
X361882Y265920D01*
X361948Y265835D01*
X362023Y265749D01*
X362106Y265664D01*
X360728D01*
X360812Y265749D01*
X360886Y265835D01*
X360952Y265920D01*
X361009Y266004D01*
X361058Y266089D01*
X361097Y266172D01*
X361128Y266256D01*
X361150Y266339D01*
X361163Y266421D01*
X361167Y266503D01*
X361667D01*
X361672Y266421D01*
D02*
G37*
G36*
X321995Y247861D02*
X321995Y247861D01*
X329102Y247861D01*
X329357Y247606D01*
X329357Y240971D01*
X328740Y240354D01*
Y230755D01*
X328492Y230508D01*
X327393Y230512D01*
X299213D01*
Y240354D01*
X298524Y241043D01*
Y247563D01*
X298776Y247815D01*
X305694Y247815D01*
X305694Y247815D01*
X305713Y247861D01*
X308539D01*
X308547Y247842D01*
X308547Y247842D01*
X316635Y247842D01*
Y247861D01*
X321995D01*
X321995Y247861D01*
D02*
G37*
G36*
X354057Y267514D02*
X354528Y267043D01*
Y250354D01*
X354516D01*
Y235245D01*
X350266Y230995D01*
X348740D01*
X343563Y231043D01*
X341884Y232723D01*
X341870Y232791D01*
Y233524D01*
X341339D01*
Y262073D01*
X346780Y267514D01*
X354057Y267514D01*
D02*
G37*
G36*
X361002Y224346D02*
Y221752D01*
X361086Y221329D01*
X361326Y220971D01*
X361684Y220732D01*
X362106Y220648D01*
X362664D01*
Y218328D01*
X362106D01*
X361684Y218244D01*
X361326Y218005D01*
X361087Y217647D01*
X361018Y217304D01*
X360668Y217338D01*
Y217398D01*
X356974D01*
X356693Y217454D01*
X353351D01*
Y217493D01*
X352640D01*
X352353Y217793D01*
X352362Y217973D01*
X352362D01*
Y219101D01*
X352686Y219235D01*
X352819Y219102D01*
X353470Y218832D01*
X354175D01*
X354826Y219102D01*
X355324Y219600D01*
X355594Y220252D01*
Y220956D01*
X355324Y221607D01*
X354826Y222106D01*
X354175Y222376D01*
X353529D01*
X353453Y222426D01*
X352951Y222526D01*
X352575D01*
Y222690D01*
X350689D01*
Y223690D01*
X352575D01*
Y224658D01*
X350689D01*
Y225658D01*
X352575D01*
Y225814D01*
X359535D01*
X361002Y224346D01*
D02*
G37*
G36*
X341083Y232713D02*
Y231012D01*
X341973D01*
X342047Y230693D01*
Y218801D01*
X339113D01*
X339073Y218760D01*
Y215880D01*
X339073Y214674D01*
X338730Y214160D01*
X338592Y213469D01*
X338730Y212777D01*
X339073Y212263D01*
X339073Y207531D01*
X338826Y207283D01*
X299213D01*
Y217086D01*
X329553D01*
Y217117D01*
X330896D01*
X335493Y221713D01*
X337213D01*
X337219Y221719D01*
X338307D01*
X338134Y232487D01*
X338379Y232737D01*
X341059D01*
X341083Y232713D01*
D02*
G37*
G36*
X348925Y215123D02*
X349917D01*
Y215131D01*
X351164D01*
X351466Y214929D01*
X351969Y214829D01*
X356149D01*
X359956Y211023D01*
X359811Y210673D01*
X358571D01*
Y207193D01*
X361657D01*
Y208826D01*
X362007Y208971D01*
X363648Y207330D01*
Y200741D01*
X362055Y199147D01*
X359470D01*
Y199508D01*
X359386Y199930D01*
X359147Y200288D01*
X358789Y200528D01*
X358366Y200612D01*
X354626D01*
X354204Y200528D01*
X353845Y200288D01*
X353653Y200000D01*
X353040D01*
X352848Y200288D01*
X352489Y200528D01*
X352067Y200612D01*
X351554D01*
Y202930D01*
X352766D01*
X353223Y203021D01*
X353610Y203280D01*
X353869Y203667D01*
X353960Y204124D01*
Y204575D01*
X354485D01*
Y204124D01*
X354592Y203584D01*
X354898Y203126D01*
X355356Y202820D01*
X355896Y202713D01*
X357571D01*
Y206693D01*
Y210673D01*
X355896D01*
X355356Y210565D01*
X354898Y210260D01*
X354592Y209802D01*
X354485Y209262D01*
Y208896D01*
X353960D01*
Y209262D01*
X353869Y209719D01*
X353610Y210106D01*
X353223Y210365D01*
X352766Y210456D01*
X350786D01*
Y210797D01*
X350676Y211350D01*
X350363Y211819D01*
X347383Y214799D01*
X347517Y215123D01*
X347925D01*
Y217008D01*
X348925D01*
Y215123D01*
D02*
G37*
%LPC*%
G36*
X361657Y206193D02*
X358571D01*
Y202713D01*
X360246D01*
X360786Y202820D01*
X361244Y203126D01*
X361550Y203584D01*
X361657Y204124D01*
Y206193D01*
D02*
G37*
%LPD*%
G36*
X183155Y268602D02*
X183070Y268686D01*
X182984Y268760D01*
X182899Y268826D01*
X182815Y268883D01*
X182730Y268932D01*
X182647Y268971D01*
X182563Y269002D01*
X182480Y269024D01*
X182398Y269037D01*
X182316Y269041D01*
Y269541D01*
X182398Y269546D01*
X182480Y269559D01*
X182563Y269581D01*
X182647Y269612D01*
X182730Y269651D01*
X182815Y269699D01*
X182899Y269756D01*
X182984Y269822D01*
X183070Y269897D01*
X183155Y269980D01*
Y268602D01*
D02*
G37*
G36*
X175001Y269897D02*
X175087Y269822D01*
X175172Y269756D01*
X175256Y269699D01*
X175340Y269651D01*
X175424Y269612D01*
X175508Y269581D01*
X175591Y269559D01*
X175673Y269546D01*
X175755Y269541D01*
Y269041D01*
X175673Y269037D01*
X175591Y269024D01*
X175508Y269002D01*
X175424Y268971D01*
X175340Y268932D01*
X175256Y268883D01*
X175172Y268826D01*
X175087Y268760D01*
X175001Y268686D01*
X174916Y268602D01*
Y269980D01*
X175001Y269897D01*
D02*
G37*
G36*
X199072Y259534D02*
Y257828D01*
X198748Y257694D01*
X198641Y257801D01*
X197990Y258071D01*
X197285D01*
X196634Y257801D01*
X196143Y257310D01*
X195651Y257801D01*
X195000Y258071D01*
X194295D01*
X193644Y257801D01*
X193387Y257544D01*
X193130Y257801D01*
X192478Y258071D01*
X191774D01*
X191716Y258047D01*
X191425Y258241D01*
Y259239D01*
X191344Y259644D01*
X191115Y259987D01*
X187362Y263740D01*
X187176Y263864D01*
X187282Y264214D01*
X199072D01*
Y259534D01*
D02*
G37*
G36*
X187234Y257504D02*
X187147Y257428D01*
X187068Y257351D01*
X186999Y257274D01*
X186939Y257196D01*
X186888Y257116D01*
X186846Y257036D01*
X186814Y256955D01*
X186791Y256873D01*
X186777Y256790D01*
X186772Y256706D01*
X186272Y256754D01*
X186268Y256834D01*
X186256Y256915D01*
X186235Y256998D01*
X186207Y257084D01*
X186170Y257171D01*
X186125Y257259D01*
X186071Y257350D01*
X186010Y257442D01*
X185863Y257632D01*
X187234Y257504D01*
D02*
G37*
G36*
X184860Y257584D02*
X184738Y257386D01*
X184688Y257291D01*
X184645Y257199D01*
X184611Y257110D01*
X184584Y257024D01*
X184565Y256941D01*
X184554Y256860D01*
X184550Y256783D01*
X184050Y256697D01*
X184045Y256782D01*
X184031Y256866D01*
X184007Y256947D01*
X183974Y257026D01*
X183931Y257104D01*
X183878Y257179D01*
X183817Y257253D01*
X183745Y257324D01*
X183664Y257394D01*
X183574Y257461D01*
X184933Y257688D01*
X184860Y257584D01*
D02*
G37*
G36*
X197628Y255315D02*
X197508Y255313D01*
X197395Y255306D01*
X197288Y255292D01*
X197188Y255273D01*
X197095Y255247D01*
X197007Y255216D01*
X196927Y255179D01*
X196853Y255136D01*
X196785Y255087D01*
X196724Y255032D01*
X196370Y255385D01*
X196425Y255446D01*
X196474Y255514D01*
X196517Y255588D01*
X196555Y255669D01*
X196586Y255756D01*
X196611Y255850D01*
X196631Y255950D01*
X196644Y256056D01*
X196652Y256170D01*
X196654Y256289D01*
X197628Y255315D01*
D02*
G37*
G36*
X195308Y255570D02*
X195223Y255488D01*
X195147Y255407D01*
X195079Y255325D01*
X195021Y255243D01*
X194971Y255161D01*
X194931Y255078D01*
X194899Y254996D01*
X194877Y254913D01*
X194863Y254830D01*
X194859Y254747D01*
X194359Y254768D01*
X194355Y254849D01*
X194342Y254931D01*
X194320Y255014D01*
X194291Y255098D01*
X194252Y255183D01*
X194205Y255269D01*
X194149Y255357D01*
X194085Y255445D01*
X194013Y255534D01*
X193931Y255624D01*
X195308Y255570D01*
D02*
G37*
G36*
X192819Y255586D02*
X192691Y255395D01*
X192639Y255303D01*
X192595Y255212D01*
X192559Y255125D01*
X192531Y255039D01*
X192511Y254956D01*
X192499Y254875D01*
X192495Y254796D01*
X191995Y254733D01*
X191991Y254818D01*
X191976Y254901D01*
X191953Y254983D01*
X191920Y255063D01*
X191878Y255142D01*
X191827Y255220D01*
X191766Y255297D01*
X191696Y255372D01*
X191616Y255446D01*
X191527Y255518D01*
X192895Y255685D01*
X192819Y255586D01*
D02*
G37*
G36*
X182102Y254329D02*
X182027Y254244D01*
X181961Y254159D01*
X181904Y254074D01*
X181856Y253990D01*
X181816Y253906D01*
X181786Y253823D01*
X181764Y253740D01*
X181751Y253658D01*
X181746Y253576D01*
X181246D01*
X181242Y253658D01*
X181228Y253740D01*
X181207Y253823D01*
X181176Y253906D01*
X181136Y253990D01*
X181088Y254074D01*
X181031Y254159D01*
X180965Y254244D01*
X180891Y254329D01*
X180807Y254415D01*
X182185D01*
X182102Y254329D01*
D02*
G37*
G36*
X215242Y253248D02*
X215156Y253331D01*
X215071Y253406D01*
X214986Y253472D01*
X214901Y253529D01*
X214817Y253577D01*
X214733Y253617D01*
X214650Y253647D01*
X214567Y253670D01*
X214484Y253683D01*
X214402Y253687D01*
Y254187D01*
X214484Y254191D01*
X214567Y254205D01*
X214650Y254226D01*
X214733Y254257D01*
X214817Y254297D01*
X214901Y254345D01*
X214986Y254402D01*
X215071Y254468D01*
X215156Y254543D01*
X215242Y254626D01*
Y253248D01*
D02*
G37*
G36*
X245136Y253626D02*
X245149Y253543D01*
X245171Y253460D01*
X245202Y253377D01*
X245242Y253293D01*
X245290Y253209D01*
X245347Y253124D01*
X245413Y253040D01*
X245487Y252954D01*
X245571Y252868D01*
X244193D01*
X244276Y252954D01*
X244351Y253040D01*
X244417Y253124D01*
X244474Y253209D01*
X244522Y253293D01*
X244562Y253377D01*
X244592Y253460D01*
X244614Y253543D01*
X244627Y253626D01*
X244632Y253708D01*
X245132D01*
X245136Y253626D01*
D02*
G37*
G36*
X242380D02*
X242393Y253543D01*
X242415Y253460D01*
X242446Y253377D01*
X242486Y253293D01*
X242534Y253209D01*
X242591Y253124D01*
X242657Y253040D01*
X242732Y252954D01*
X242815Y252868D01*
X241437D01*
X241520Y252954D01*
X241595Y253040D01*
X241661Y253124D01*
X241718Y253209D01*
X241766Y253293D01*
X241806Y253377D01*
X241837Y253460D01*
X241858Y253543D01*
X241872Y253626D01*
X241876Y253708D01*
X242376D01*
X242380Y253626D01*
D02*
G37*
G36*
X239625D02*
X239638Y253543D01*
X239660Y253460D01*
X239690Y253377D01*
X239730Y253293D01*
X239778Y253209D01*
X239835Y253124D01*
X239901Y253040D01*
X239976Y252954D01*
X240059Y252868D01*
X238681D01*
X238765Y252954D01*
X238839Y253040D01*
X238905Y253124D01*
X238962Y253209D01*
X239010Y253293D01*
X239050Y253377D01*
X239081Y253460D01*
X239103Y253543D01*
X239116Y253626D01*
X239120Y253708D01*
X239620D01*
X239625Y253626D01*
D02*
G37*
G36*
X247925Y253697D02*
X247929Y253616D01*
X247942Y253534D01*
X247964Y253451D01*
X247994Y253367D01*
X248032Y253282D01*
X248079Y253196D01*
X248135Y253109D01*
X248199Y253021D01*
X248272Y252932D01*
X248353Y252842D01*
X246976Y252894D01*
X247061Y252976D01*
X247138Y253057D01*
X247205Y253139D01*
X247263Y253221D01*
X247313Y253304D01*
X247353Y253386D01*
X247385Y253468D01*
X247407Y253551D01*
X247421Y253634D01*
X247425Y253717D01*
X247925Y253697D01*
D02*
G37*
G36*
X218469Y252187D02*
X218406D01*
X217983Y252102D01*
X217625Y251863D01*
X217411Y251543D01*
X216841D01*
X216627Y251863D01*
X216572Y251900D01*
X216611Y252295D01*
X216948Y252435D01*
X217447Y252933D01*
X217717Y253585D01*
Y254289D01*
X217447Y254941D01*
X216948Y255439D01*
X216297Y255709D01*
X215593D01*
X214941Y255439D01*
X214744Y255241D01*
X214683Y255202D01*
X214612Y255133D01*
X214560Y255088D01*
X214515Y255053D01*
X214476Y255027D01*
X214445Y255009D01*
X214422Y254998D01*
X214413Y254995D01*
X212318D01*
X211913Y254914D01*
X211570Y254685D01*
X208829Y251944D01*
X208552Y252059D01*
X205512D01*
Y253059D01*
X208506D01*
Y254429D01*
X208405Y254935D01*
X208119Y255363D01*
X208071Y255395D01*
Y256759D01*
X208205Y256960D01*
X208289Y257382D01*
Y261122D01*
X208205Y261544D01*
X207966Y261903D01*
X207608Y262142D01*
X207185Y262226D01*
X203839D01*
X203416Y262142D01*
X203058Y261903D01*
X203034Y261867D01*
X202684Y261974D01*
Y264214D01*
X218469D01*
Y252187D01*
D02*
G37*
G36*
X239976Y251377D02*
X239901Y251291D01*
X239835Y251206D01*
X239778Y251122D01*
X239730Y251037D01*
X239690Y250954D01*
X239660Y250870D01*
X239638Y250787D01*
X239625Y250705D01*
X239620Y250623D01*
X239120D01*
X239116Y250705D01*
X239103Y250787D01*
X239081Y250870D01*
X239050Y250954D01*
X239010Y251037D01*
X238962Y251122D01*
X238905Y251206D01*
X238839Y251291D01*
X238765Y251377D01*
X238681Y251462D01*
X240059D01*
X239976Y251377D01*
D02*
G37*
G36*
X248243Y251376D02*
X248169Y251290D01*
X248103Y251203D01*
X248046Y251116D01*
X247997Y251029D01*
X247958Y250942D01*
X247927Y250854D01*
X247905Y250767D01*
X247892Y250679D01*
X247888Y250590D01*
X247388D01*
X247383Y250679D01*
X247370Y250767D01*
X247348Y250854D01*
X247318Y250942D01*
X247278Y251029D01*
X247230Y251116D01*
X247173Y251203D01*
X247107Y251290D01*
X247032Y251376D01*
X246949Y251462D01*
X248327D01*
X248243Y251376D01*
D02*
G37*
G36*
X245487D02*
X245413Y251290D01*
X245347Y251203D01*
X245290Y251116D01*
X245242Y251029D01*
X245202Y250942D01*
X245171Y250854D01*
X245149Y250767D01*
X245136Y250679D01*
X245132Y250590D01*
X244632D01*
X244627Y250679D01*
X244614Y250767D01*
X244592Y250854D01*
X244562Y250942D01*
X244522Y251029D01*
X244474Y251116D01*
X244417Y251203D01*
X244351Y251290D01*
X244276Y251376D01*
X244193Y251462D01*
X245571D01*
X245487Y251376D01*
D02*
G37*
G36*
X242732D02*
X242657Y251290D01*
X242591Y251203D01*
X242534Y251116D01*
X242486Y251029D01*
X242446Y250942D01*
X242415Y250854D01*
X242393Y250767D01*
X242380Y250679D01*
X242376Y250590D01*
X241876D01*
X241872Y250679D01*
X241858Y250767D01*
X241837Y250854D01*
X241806Y250942D01*
X241766Y251029D01*
X241718Y251116D01*
X241661Y251203D01*
X241595Y251290D01*
X241520Y251376D01*
X241437Y251462D01*
X242815D01*
X242732Y251376D01*
D02*
G37*
G36*
X250702Y250584D02*
X250627Y250499D01*
X250561Y250414D01*
X250504Y250329D01*
X250456Y250245D01*
X250416Y250161D01*
X250386Y250078D01*
X250364Y249995D01*
X250351Y249913D01*
X250346Y249831D01*
X249846D01*
X249842Y249913D01*
X249829Y249995D01*
X249807Y250078D01*
X249776Y250161D01*
X249736Y250245D01*
X249688Y250329D01*
X249631Y250414D01*
X249565Y250499D01*
X249491Y250584D01*
X249407Y250670D01*
X250785D01*
X250702Y250584D01*
D02*
G37*
G36*
X258307Y250608D02*
X258169Y250432D01*
X258113Y250345D01*
X258066Y250260D01*
X258027Y250175D01*
X257997Y250091D01*
X257976Y250008D01*
X257963Y249926D01*
X257959Y249844D01*
X257459Y249828D01*
X257454Y249910D01*
X257441Y249993D01*
X257418Y250076D01*
X257387Y250159D01*
X257347Y250241D01*
X257297Y250324D01*
X257239Y250406D01*
X257172Y250489D01*
X257096Y250571D01*
X257011Y250653D01*
X258388Y250697D01*
X258307Y250608D01*
D02*
G37*
G36*
X253342Y250516D02*
X253267Y250431D01*
X253201Y250346D01*
X253144Y250261D01*
X253096Y250177D01*
X253056Y250093D01*
X253026Y250010D01*
X253004Y249927D01*
X252991Y249844D01*
X252986Y249762D01*
X252486D01*
X252482Y249844D01*
X252469Y249927D01*
X252447Y250010D01*
X252416Y250093D01*
X252377Y250177D01*
X252328Y250261D01*
X252271Y250346D01*
X252205Y250431D01*
X252131Y250516D01*
X252047Y250602D01*
X253425D01*
X253342Y250516D01*
D02*
G37*
G36*
X255815Y250386D02*
X255740Y250300D01*
X255674Y250215D01*
X255617Y250131D01*
X255569Y250046D01*
X255529Y249963D01*
X255499Y249879D01*
X255477Y249797D01*
X255464Y249714D01*
X255459Y249632D01*
X254959D01*
X254955Y249714D01*
X254942Y249797D01*
X254920Y249879D01*
X254889Y249963D01*
X254849Y250046D01*
X254801Y250131D01*
X254744Y250215D01*
X254678Y250300D01*
X254604Y250386D01*
X254520Y250472D01*
X255898D01*
X255815Y250386D01*
D02*
G37*
G36*
X179724Y250251D02*
X179730Y250138D01*
X179743Y250032D01*
X179761Y249932D01*
X179786Y249839D01*
X179817Y249752D01*
X179853Y249671D01*
X179896Y249597D01*
X179945Y249529D01*
X180000Y249468D01*
X179642Y249119D01*
X179581Y249174D01*
X179513Y249223D01*
X179439Y249266D01*
X179359Y249304D01*
X179271Y249336D01*
X179178Y249362D01*
X179077Y249382D01*
X178970Y249397D01*
X178857Y249406D01*
X178736Y249410D01*
X179724Y250370D01*
X179724Y250251D01*
D02*
G37*
G36*
X205990Y246555D02*
X205904Y246638D01*
X205819Y246713D01*
X205734Y246779D01*
X205649Y246836D01*
X205565Y246884D01*
X205481Y246924D01*
X205398Y246955D01*
X205315Y246976D01*
X205233Y246990D01*
X205150Y246994D01*
Y247494D01*
X205233Y247498D01*
X205315Y247512D01*
X205398Y247534D01*
X205481Y247564D01*
X205565Y247604D01*
X205649Y247652D01*
X205734Y247709D01*
X205819Y247775D01*
X205904Y247850D01*
X205990Y247933D01*
Y246555D01*
D02*
G37*
G36*
X179890Y247193D02*
X179900Y247167D01*
X179915Y247137D01*
X179937Y247102D01*
X179966Y247063D01*
X180042Y246971D01*
X180144Y246861D01*
X180205Y246800D01*
X179851Y246446D01*
X179817Y246479D01*
X179785Y246506D01*
X179754Y246528D01*
X179725Y246545D01*
X179698Y246557D01*
X179673Y246564D01*
X179649Y246565D01*
X179627Y246561D01*
X179607Y246552D01*
X179589Y246538D01*
X179888Y247214D01*
X179890Y247193D01*
D02*
G37*
G36*
X203854Y244021D02*
X203737Y244084D01*
X203417Y244232D01*
X203320Y244268D01*
X203142Y244321D01*
X203060Y244338D01*
X202983Y244348D01*
X202911Y244351D01*
X202756Y244851D01*
X202843Y244856D01*
X202927Y244870D01*
X203007Y244895D01*
X203083Y244929D01*
X203155Y244974D01*
X203223Y245027D01*
X203288Y245091D01*
X203349Y245165D01*
X203407Y245248D01*
X203460Y245341D01*
X203854Y244021D01*
D02*
G37*
G36*
X179807Y245184D02*
X179870Y245101D01*
X179936Y245029D01*
X180004Y244966D01*
X180076Y244912D01*
X180151Y244869D01*
X180228Y244835D01*
X180309Y244810D01*
X180392Y244796D01*
X180479Y244791D01*
X180355Y244291D01*
X180281Y244287D01*
X180202Y244277D01*
X180120Y244259D01*
X180033Y244234D01*
X179942Y244202D01*
X179848Y244163D01*
X179646Y244063D01*
X179540Y244003D01*
X179429Y243935D01*
X179747Y245276D01*
X179807Y245184D01*
D02*
G37*
G36*
X208652Y243504D02*
X208532Y243502D01*
X208419Y243495D01*
X208312Y243481D01*
X208212Y243462D01*
X208118Y243436D01*
X208031Y243405D01*
X207950Y243368D01*
X207876Y243325D01*
X207809Y243276D01*
X207748Y243221D01*
X207394Y243574D01*
X207449Y243635D01*
X207498Y243703D01*
X207541Y243777D01*
X207578Y243858D01*
X207610Y243945D01*
X207635Y244039D01*
X207654Y244139D01*
X207668Y244246D01*
X207676Y244359D01*
X207677Y244478D01*
X208652Y243504D01*
D02*
G37*
G36*
X179784Y242682D02*
X179990Y242565D01*
X180088Y242518D01*
X180272Y242445D01*
X180358Y242420D01*
X180441Y242402D01*
X180520Y242391D01*
X180596Y242387D01*
X180708Y241887D01*
X180622Y241882D01*
X180538Y241868D01*
X180458Y241844D01*
X180379Y241810D01*
X180304Y241767D01*
X180231Y241713D01*
X180161Y241651D01*
X180094Y241578D01*
X180029Y241496D01*
X179966Y241404D01*
X179675Y242751D01*
X179784Y242682D01*
D02*
G37*
G36*
X207889Y239753D02*
X207785Y239825D01*
X207585Y239947D01*
X207490Y239997D01*
X207398Y240039D01*
X207309Y240073D01*
X207223Y240100D01*
X207140Y240119D01*
X207060Y240130D01*
X206983Y240134D01*
X206893Y240634D01*
X206979Y240639D01*
X207062Y240653D01*
X207143Y240677D01*
X207223Y240710D01*
X207300Y240753D01*
X207375Y240806D01*
X207448Y240867D01*
X207519Y240939D01*
X207588Y241020D01*
X207655Y241111D01*
X207889Y239753D01*
D02*
G37*
G36*
X148827Y238548D02*
X148829D01*
X149253Y238632D01*
X149614Y238873D01*
X149659Y238940D01*
X149752Y239026D01*
X150042Y238832D01*
X150118Y238817D01*
X150170Y238555D01*
Y235425D01*
X150063Y235265D01*
X149979Y234842D01*
Y231496D01*
X150063Y231074D01*
X150302Y230715D01*
X150660Y230476D01*
X151083Y230392D01*
X151351D01*
Y229053D01*
X151254Y228956D01*
X150984Y228305D01*
Y227600D01*
X151254Y226949D01*
X151752Y226451D01*
X152403Y226181D01*
X153108D01*
X153760Y226451D01*
X154258Y226949D01*
X154528Y227600D01*
Y228305D01*
X154258Y228956D01*
X154164Y229050D01*
X154161Y229092D01*
Y230392D01*
X154747D01*
Y230337D01*
X158737D01*
X159032Y229987D01*
X159007Y229845D01*
X158964Y229816D01*
X158724Y229458D01*
X158640Y229035D01*
Y225295D01*
X158724Y224873D01*
X158964Y224515D01*
X159322Y224275D01*
X159744Y224191D01*
X163091D01*
X163513Y224275D01*
X163871Y224515D01*
X164110Y224873D01*
X164194Y225295D01*
Y226112D01*
X164578Y226188D01*
X164921Y226417D01*
X165154Y226651D01*
X165478Y226517D01*
Y224060D01*
X162948Y221530D01*
X141777D01*
X139439Y223868D01*
X139587Y224215D01*
X139891Y224275D01*
X140249Y224515D01*
X140488Y224873D01*
X140572Y225295D01*
Y229035D01*
X140488Y229458D01*
X140249Y229816D01*
X139961Y230009D01*
Y230621D01*
X140249Y230814D01*
X140488Y231172D01*
X140572Y231594D01*
Y233928D01*
X140596D01*
X141001Y234009D01*
X141344Y234238D01*
X145869Y238762D01*
X146270D01*
X146611Y238830D01*
X146901Y239024D01*
X146996Y238938D01*
X147040Y238873D01*
X147400Y238632D01*
X147825Y238548D01*
X147827D01*
Y240602D01*
X148827D01*
Y238548D01*
D02*
G37*
G36*
X203423Y237705D02*
X203339Y237789D01*
X203254Y237864D01*
X203170Y237930D01*
X203086Y237988D01*
X203003Y238036D01*
X202919Y238076D01*
X202836Y238107D01*
X202753Y238129D01*
X202671Y238143D01*
X202589Y238147D01*
X202594Y238647D01*
X202676Y238651D01*
X202759Y238665D01*
X202841Y238686D01*
X202925Y238717D01*
X203009Y238756D01*
X203094Y238804D01*
X203179Y238861D01*
X203265Y238926D01*
X203352Y239000D01*
X203439Y239083D01*
X203423Y237705D01*
D02*
G37*
G36*
X185058Y231504D02*
X185009Y231451D01*
X184962Y231390D01*
X184916Y231320D01*
X184871Y231242D01*
X184827Y231157D01*
X184743Y230960D01*
X184702Y230850D01*
X184625Y230604D01*
X183969Y231816D01*
X184073Y231788D01*
X184173Y231770D01*
X184268Y231761D01*
X184359Y231762D01*
X184445Y231772D01*
X184528Y231792D01*
X184606Y231822D01*
X184679Y231861D01*
X184749Y231909D01*
X184814Y231967D01*
X185058Y231504D01*
D02*
G37*
G36*
X190512Y231824D02*
X190516Y231744D01*
X190529Y231663D01*
X190549Y231580D01*
X190577Y231495D01*
X190614Y231407D01*
X190658Y231318D01*
X190711Y231227D01*
X190772Y231133D01*
X190917Y230941D01*
X189547Y231087D01*
X189636Y231161D01*
X189715Y231237D01*
X189784Y231313D01*
X189845Y231390D01*
X189896Y231469D01*
X189938Y231549D01*
X189970Y231629D01*
X189994Y231712D01*
X190008Y231795D01*
X190012Y231879D01*
X190512Y231824D01*
D02*
G37*
G36*
X187991Y231585D02*
X187936Y231524D01*
X187887Y231456D01*
X187844Y231382D01*
X187806Y231302D01*
X187775Y231214D01*
X187750Y231121D01*
X187730Y231021D01*
X187717Y230914D01*
X187709Y230801D01*
X187707Y230681D01*
X186733Y231656D01*
X186853Y231657D01*
X186966Y231665D01*
X187073Y231678D01*
X187173Y231698D01*
X187266Y231723D01*
X187354Y231754D01*
X187434Y231792D01*
X187508Y231835D01*
X187576Y231884D01*
X187637Y231939D01*
X187991Y231585D01*
D02*
G37*
G36*
X207631Y230969D02*
X207618Y230865D01*
X207614Y230767D01*
X207619Y230673D01*
X207633Y230584D01*
X207655Y230500D01*
X207687Y230421D01*
X207727Y230346D01*
X207775Y230277D01*
X207833Y230213D01*
X207398Y229940D01*
X207343Y229991D01*
X207279Y230039D01*
X207208Y230085D01*
X207129Y230128D01*
X207042Y230169D01*
X206947Y230207D01*
X206734Y230277D01*
X206616Y230308D01*
X206490Y230336D01*
X207652Y231078D01*
X207631Y230969D01*
D02*
G37*
G36*
X153347Y229220D02*
X153371Y228873D01*
X153382Y228810D01*
X153395Y228757D01*
X153409Y228713D01*
X153426Y228680D01*
X153445Y228656D01*
X152067D01*
X152086Y228680D01*
X152102Y228713D01*
X152117Y228757D01*
X152130Y228810D01*
X152141Y228873D01*
X152156Y229027D01*
X152164Y229220D01*
X152165Y229331D01*
X153347D01*
X153347Y229220D01*
D02*
G37*
G36*
X200802Y228542D02*
X200728Y228456D01*
X200662Y228372D01*
X200605Y228287D01*
X200557Y228203D01*
X200517Y228119D01*
X200486Y228036D01*
X200464Y227953D01*
X200451Y227870D01*
X200447Y227788D01*
X199947D01*
X199943Y227870D01*
X199929Y227953D01*
X199907Y228036D01*
X199877Y228119D01*
X199837Y228203D01*
X199789Y228287D01*
X199732Y228372D01*
X199666Y228456D01*
X199591Y228542D01*
X199508Y228628D01*
X200886D01*
X200802Y228542D01*
D02*
G37*
G36*
X221738Y227067D02*
X221652Y227150D01*
X221567Y227225D01*
X221482Y227291D01*
X221397Y227348D01*
X221313Y227396D01*
X221229Y227436D01*
X221146Y227466D01*
X221063Y227488D01*
X220981Y227502D01*
X220898Y227506D01*
Y228006D01*
X220981Y228010D01*
X221063Y228024D01*
X221146Y228045D01*
X221229Y228076D01*
X221313Y228116D01*
X221397Y228164D01*
X221482Y228221D01*
X221567Y228287D01*
X221652Y228362D01*
X221738Y228445D01*
Y227067D01*
D02*
G37*
G36*
X223632Y225984D02*
Y225591D01*
X227739D01*
Y221348D01*
X227807Y221007D01*
X227823Y220982D01*
Y220900D01*
X224633Y217709D01*
X224285Y217188D01*
X224163Y216574D01*
X224163Y216574D01*
Y207303D01*
X224163Y207302D01*
X224285Y206688D01*
X224633Y206167D01*
X226019Y204781D01*
X225963Y204572D01*
Y203302D01*
X226291Y202075D01*
X226927Y200974D01*
X227732Y200169D01*
X227600Y199820D01*
X226086D01*
X220743Y205163D01*
Y224198D01*
X220749Y224205D01*
X220772Y224227D01*
X220802Y224251D01*
X220885Y224286D01*
X221384Y224784D01*
X221654Y225435D01*
Y225786D01*
X222004Y226020D01*
X222089Y225984D01*
X222793D01*
X223282Y226187D01*
X223632Y225984D01*
D02*
G37*
G36*
X220416Y224961D02*
X220325Y224897D01*
X220243Y224831D01*
X220171Y224763D01*
X220108Y224692D01*
X220055Y224619D01*
X220012Y224543D01*
X219978Y224464D01*
X219954Y224383D01*
X219940Y224300D01*
X219935Y224214D01*
X219435Y224320D01*
X219431Y224396D01*
X219420Y224475D01*
X219402Y224558D01*
X219376Y224644D01*
X219343Y224734D01*
X219302Y224828D01*
X219199Y225025D01*
X219136Y225129D01*
X219066Y225237D01*
X220416Y224961D01*
D02*
G37*
G36*
X216630Y224758D02*
X216555Y224672D01*
X216489Y224587D01*
X216432Y224503D01*
X216384Y224418D01*
X216344Y224335D01*
X216314Y224251D01*
X216292Y224168D01*
X216279Y224086D01*
X216274Y224004D01*
X215774D01*
X215770Y224086D01*
X215757Y224168D01*
X215735Y224251D01*
X215704Y224335D01*
X215665Y224418D01*
X215616Y224503D01*
X215559Y224587D01*
X215493Y224672D01*
X215419Y224758D01*
X215335Y224844D01*
X216713D01*
X216630Y224758D01*
D02*
G37*
G36*
X204734Y225857D02*
Y217280D01*
X204730Y217270D01*
X204719Y217248D01*
X204701Y217217D01*
X204675Y217178D01*
X204640Y217132D01*
X204595Y217081D01*
X204527Y217010D01*
X204487Y216949D01*
X204289Y216752D01*
X204020Y216100D01*
Y215396D01*
X204200Y214961D01*
X203966Y214611D01*
X201267D01*
Y216441D01*
X201804D01*
X202180Y216515D01*
X202500Y216729D01*
X202713Y217048D01*
X202788Y217424D01*
Y221007D01*
X202713Y221383D01*
X202500Y221702D01*
X202180Y221915D01*
X201804Y221990D01*
X198615D01*
X198239Y221915D01*
X197920Y221702D01*
X197868D01*
X197552Y222001D01*
Y222712D01*
X197902Y222882D01*
X198156Y222713D01*
X198615Y222621D01*
X199710D01*
Y225613D01*
X200210D01*
Y226113D01*
X203004D01*
Y227092D01*
X203354Y227237D01*
X204734Y225857D01*
D02*
G37*
G36*
X185145Y221069D02*
X185021Y221053D01*
X184795Y221009D01*
X184694Y220981D01*
X184599Y220949D01*
X184511Y220912D01*
X184431Y220872D01*
X184358Y220827D01*
X184292Y220778D01*
X184234Y220725D01*
X183837Y221036D01*
X183893Y221099D01*
X183942Y221167D01*
X183984Y221242D01*
X184018Y221322D01*
X184044Y221408D01*
X184063Y221499D01*
X184074Y221597D01*
X184078Y221700D01*
X184074Y221808D01*
X184063Y221922D01*
X185145Y221069D01*
D02*
G37*
G36*
X250770Y221348D02*
X250787Y221262D01*
Y218762D01*
X250152D01*
X248925Y218433D01*
X247825Y217798D01*
X247350Y217323D01*
X244225Y217323D01*
X243750Y217798D01*
X242650Y218433D01*
X241423Y218762D01*
X241338Y218846D01*
X241339Y221262D01*
X241356Y221348D01*
Y221352D01*
X250770D01*
Y221348D01*
D02*
G37*
G36*
X206046Y217209D02*
X206059Y217126D01*
X206081Y217043D01*
X206112Y216960D01*
X206151Y216876D01*
X206199Y216792D01*
X206256Y216707D01*
X206322Y216622D01*
X206397Y216537D01*
X206480Y216451D01*
X205102D01*
X205186Y216537D01*
X205260Y216622D01*
X205326Y216707D01*
X205383Y216792D01*
X205432Y216876D01*
X205471Y216960D01*
X205502Y217043D01*
X205524Y217126D01*
X205537Y217209D01*
X205541Y217290D01*
X206041D01*
X206046Y217209D01*
D02*
G37*
G36*
X208916Y214453D02*
X208929Y214370D01*
X208951Y214287D01*
X208982Y214204D01*
X209021Y214120D01*
X209069Y214036D01*
X209126Y213951D01*
X209192Y213866D01*
X209267Y213781D01*
X209350Y213695D01*
X207972D01*
X208056Y213781D01*
X208131Y213866D01*
X208196Y213951D01*
X208253Y214036D01*
X208302Y214120D01*
X208341Y214204D01*
X208372Y214287D01*
X208394Y214370D01*
X208407Y214453D01*
X208411Y214535D01*
X208911D01*
X208916Y214453D01*
D02*
G37*
%LPC*%
G36*
X148130Y236163D02*
X146760D01*
Y233669D01*
X149451D01*
Y234842D01*
X149350Y235348D01*
X149064Y235776D01*
X148635Y236063D01*
X148130Y236163D01*
D02*
G37*
G36*
X145760D02*
X144390D01*
X143884Y236063D01*
X143456Y235776D01*
X143170Y235348D01*
X143069Y234842D01*
Y233669D01*
X145760D01*
Y236163D01*
D02*
G37*
G36*
X149451Y232669D02*
X146760D01*
Y230175D01*
X148130D01*
X148635Y230276D01*
X149064Y230562D01*
X149350Y230991D01*
X149451Y231496D01*
Y232669D01*
D02*
G37*
G36*
X145760D02*
X143069D01*
Y231496D01*
X143170Y230991D01*
X143456Y230562D01*
X143884Y230276D01*
X144390Y230175D01*
X145760D01*
Y232669D01*
D02*
G37*
G36*
X203004Y225113D02*
X200710D01*
Y222621D01*
X201804D01*
X202263Y222713D01*
X202653Y222973D01*
X202913Y223362D01*
X203004Y223822D01*
Y225113D01*
D02*
G37*
%LPD*%
G36*
X185911Y272539D02*
X185825Y272623D01*
X185740Y272697D01*
X185655Y272763D01*
X185570Y272820D01*
X185486Y272869D01*
X185403Y272908D01*
X185319Y272939D01*
X185236Y272961D01*
X185154Y272974D01*
X185072Y272978D01*
Y273478D01*
X185154Y273483D01*
X185236Y273496D01*
X185319Y273518D01*
X185403Y273549D01*
X185486Y273588D01*
X185570Y273636D01*
X185655Y273693D01*
X185740Y273759D01*
X185825Y273834D01*
X185911Y273917D01*
Y272539D01*
D02*
G37*
G36*
X177167Y273834D02*
X177252Y273759D01*
X177337Y273693D01*
X177422Y273636D01*
X177506Y273588D01*
X177590Y273549D01*
X177673Y273518D01*
X177756Y273496D01*
X177838Y273483D01*
X177920Y273478D01*
Y272978D01*
X177838Y272974D01*
X177756Y272961D01*
X177673Y272939D01*
X177590Y272908D01*
X177506Y272869D01*
X177422Y272820D01*
X177337Y272763D01*
X177252Y272697D01*
X177167Y272623D01*
X177081Y272539D01*
Y273917D01*
X177167Y273834D01*
D02*
G37*
G36*
X230052Y253095D02*
X229977Y253010D01*
X229911Y252925D01*
X229854Y252840D01*
X229806Y252756D01*
X229767Y252672D01*
X229736Y252589D01*
X229714Y252506D01*
X229701Y252424D01*
X229696Y252342D01*
X229196D01*
X229192Y252424D01*
X229179Y252506D01*
X229157Y252589D01*
X229126Y252672D01*
X229087Y252756D01*
X229038Y252840D01*
X228981Y252925D01*
X228916Y253010D01*
X228841Y253095D01*
X228758Y253181D01*
X230135D01*
X230052Y253095D01*
D02*
G37*
D10*
X177756Y265551D02*
X178226Y266021D01*
X159449Y249410D02*
Y249442D01*
X160433Y250427D01*
X162631D01*
X177756Y265551D01*
X178226Y266021D02*
X193898D01*
X210531Y193504D02*
Y193701D01*
X213139Y190897D02*
X213434D01*
X214961Y189370D01*
X210531Y193504D02*
X213139Y190897D01*
X170046Y231890D02*
X174597D01*
X200787Y283252D02*
X200984Y283055D01*
X194701Y283252D02*
X200787D01*
X194095Y283858D02*
X194701Y283252D01*
X200984Y282480D02*
Y283055D01*
X193898Y278346D02*
Y282480D01*
Y266021D02*
Y278346D01*
Y266021D02*
X200878D01*
X308090Y274778D02*
Y275839D01*
X299213Y274016D02*
X299876Y274679D01*
X307992D02*
X308090Y274778D01*
X299876Y274679D02*
X307992D01*
X370472Y215551D02*
X370866Y215945D01*
X376181D01*
X200878Y259534D02*
Y266021D01*
X220276D01*
X232950D01*
X220276Y249410D02*
Y266021D01*
X289364Y283261D02*
Y288914D01*
X289370Y294473D02*
Y305459D01*
X157704Y251327D02*
X159449Y249582D01*
Y249410D02*
Y249582D01*
X294882Y274016D02*
X299213D01*
X200878Y254458D02*
Y259534D01*
X205624D01*
X253543Y265748D02*
X260630D01*
X246457D02*
X253543D01*
X239370D02*
X246457D01*
X233071Y266142D02*
X237655D01*
X153859Y251327D02*
X157704D01*
X232950Y266021D02*
X233071Y266141D01*
X205624Y259534D02*
X205906Y259252D01*
X209941Y193110D02*
X210531Y193701D01*
X203543Y193110D02*
X209941D01*
D11*
X235827Y206929D02*
X239882Y202874D01*
X255906Y220276D02*
X257579D01*
X255020D02*
X255906D01*
X255020D02*
Y224410D01*
X250787Y201969D02*
X255906Y207087D01*
X257579Y220276D02*
Y223031D01*
X255906Y207087D02*
Y220276D01*
X235827Y220079D02*
X237106D01*
X234547D02*
X235827D01*
X234547D02*
Y224213D01*
X237106Y220079D02*
Y222835D01*
X235827Y206929D02*
Y220079D01*
X192040Y227717D02*
Y227769D01*
X191118Y226794D02*
X192040Y227717D01*
X189973Y226794D02*
X191118D01*
X188792Y225613D02*
X189973Y226794D01*
X192126Y218999D02*
Y222476D01*
Y212205D02*
Y218999D01*
X192342Y219215D01*
X195387D01*
X199001Y252582D02*
X200878Y254458D01*
X198500Y252582D02*
X199001D01*
X225768Y207302D02*
Y216574D01*
X229429Y220235D02*
Y222835D01*
X225768Y216574D02*
X229429Y220235D01*
X225768Y207302D02*
X227632Y205439D01*
X227662D02*
X229164Y203937D01*
X230787D01*
X227632Y205439D02*
X227662D01*
X260138Y220665D02*
Y222835D01*
Y220665D02*
X260431Y220372D01*
X265923Y207656D02*
Y217145D01*
X260431Y220372D02*
X262697D01*
X265923Y217145D01*
X260787Y202520D02*
X265923Y207656D01*
X262697Y220372D02*
Y222835D01*
X229429Y220235D02*
X231695D01*
X231988Y220528D01*
Y222835D01*
X192097Y216029D02*
X192118Y216050D01*
X190330Y216029D02*
X192097D01*
X188399Y217960D02*
X190330Y216029D01*
X188989Y225613D02*
X192126Y222476D01*
X260787Y201969D02*
Y202520D01*
X188399Y217960D02*
Y218133D01*
X194877Y218509D02*
X196076Y217310D01*
Y211833D02*
Y217310D01*
D12*
X342520Y214552D02*
Y217008D01*
D15*
X364961Y200197D02*
Y207874D01*
X356496Y197835D02*
X362598D01*
X364961Y200197D01*
X356693Y216142D02*
X364961Y207874D01*
X351969Y216142D02*
X356693D01*
X350697Y221213D02*
X352951D01*
X353560Y220604D01*
X353822D01*
X350689Y221221D02*
X350697Y221213D01*
X338976Y266732D02*
X340445Y268201D01*
Y268398D02*
X341831Y269783D01*
X349311D01*
X338779Y266732D02*
X338976D01*
X349311Y269783D02*
X350394Y268701D01*
X340445Y268201D02*
Y268398D01*
X350394Y264961D02*
Y268701D01*
X370276Y230315D02*
X375787D01*
X346746Y221221D02*
X350689D01*
Y217421D02*
X351969Y216142D01*
X350689Y227127D02*
X360078D01*
X363779Y223425D01*
X346122Y224902D02*
X346746Y221221D01*
X362756Y229095D02*
X363976Y230315D01*
X350689Y229095D02*
X362756D01*
X308071Y262205D02*
Y265583D01*
X308090Y265602D01*
X307480Y261614D02*
X308071Y262205D01*
X291339Y261614D02*
X307480D01*
X350241Y206344D02*
X350590Y206693D01*
X344485Y215653D02*
Y216243D01*
Y217005D01*
X315571Y265602D02*
Y266681D01*
X316154Y267264D01*
X323760D01*
X316154Y274196D02*
X323638D01*
X315571Y274779D02*
Y275839D01*
X323638Y274196D02*
X323819Y274016D01*
X315571Y274779D02*
X316154Y274196D01*
X203738Y250219D02*
X205906Y252387D01*
Y252559D01*
X200603Y250219D02*
X203738D01*
X346457Y217008D02*
Y220770D01*
X346723Y221037D01*
X350689Y217421D02*
Y219252D01*
X350241Y197879D02*
Y206344D01*
X350197Y197835D02*
X350241Y197879D01*
X363976Y215551D02*
Y223425D01*
Y215551D02*
X363976Y215551D01*
X363779Y223425D02*
X363976D01*
X324213Y266929D02*
X332283D01*
X332480Y266732D01*
X323819Y267323D02*
X324213Y266929D01*
X323819Y274016D02*
X324213Y274410D01*
X332283D02*
X332480Y274606D01*
X324213Y274410D02*
X332283D01*
X331693Y292323D02*
X332017Y291999D01*
X338976Y274606D02*
X341898Y271685D01*
X349441D01*
X350394Y272638D01*
X338779Y274606D02*
X338976D01*
X350394Y276378D02*
X350394Y276378D01*
X350394Y272638D02*
Y276378D01*
D20*
X342520Y214552D02*
X343629Y213443D01*
X344485Y215653D02*
X345394Y214745D01*
X349413Y207871D02*
X350590Y206693D01*
X174619Y231912D02*
X180337D01*
X182503Y234078D01*
X184462D01*
X174597Y231890D02*
X174619Y231912D01*
X151476Y239050D02*
X151575Y238952D01*
X150886Y240160D02*
X151476Y239569D01*
X151575Y234547D02*
Y238952D01*
X152953Y233169D02*
X152953D01*
X150886Y240160D02*
Y240602D01*
X151476Y239050D02*
Y239569D01*
X151575Y234547D02*
X152953Y233169D01*
X192040Y227769D02*
X192237Y227965D01*
Y228048D01*
X192336Y228147D01*
Y234078D01*
X224803Y291929D02*
X225394Y291339D01*
X171260Y200390D02*
X171496Y200626D01*
X152756Y227953D02*
Y232972D01*
X152953Y233169D01*
D21*
X222047Y188189D02*
X259646D01*
X213537Y196699D02*
X222047Y188189D01*
X213537Y196699D02*
Y225439D01*
X179724Y261811D02*
X185827D01*
X166535Y223622D02*
Y248622D01*
X179724Y261811D01*
X165157Y248622D02*
X179528Y262992D01*
X186614D01*
X165157Y228150D02*
Y248622D01*
X185827Y261811D02*
X188739Y258899D01*
X186614Y262992D02*
X190367Y259239D01*
Y252582D02*
Y259239D01*
X276337Y311024D02*
X276534Y310827D01*
X240748Y311024D02*
X276337D01*
X240748Y311024D02*
Y318895D01*
X240748Y311024D02*
X240748Y311024D01*
X164075Y311024D02*
X240748D01*
X148031Y294980D02*
X164075Y311024D01*
X235630Y309055D02*
X278346D01*
X281004Y311713D02*
Y319387D01*
X278346Y309055D02*
X281004Y311713D01*
X164370Y309252D02*
X235433D01*
X235630Y309055D01*
X151343Y296225D02*
X164370Y309252D01*
X151181Y294685D02*
X151343Y294847D01*
X151181Y294451D02*
Y294685D01*
X151343Y294847D02*
Y296225D01*
X235630Y312795D02*
Y318895D01*
X235728Y318993D01*
X148031Y294451D02*
Y294685D01*
Y294980D01*
X201575Y314341D02*
Y319083D01*
X249034Y255396D02*
X249347Y255709D01*
X247675Y254368D02*
X248703Y255396D01*
X248682Y256246D02*
X249916Y257480D01*
X248703Y255396D02*
X249034D01*
X249347Y255709D02*
X259031D01*
X246404Y256246D02*
X248682D01*
X341974Y200939D02*
Y203146D01*
X340748Y204372D02*
X341974Y203146D01*
Y200939D02*
X342520Y200394D01*
X181496Y250560D02*
Y255118D01*
X212318Y253937D02*
X215945D01*
X163386Y220472D02*
X166535Y223622D01*
X164173Y227165D02*
X165157Y228150D01*
X179462Y237234D02*
X180295Y238068D01*
X178771Y239007D02*
X179166D01*
X174380Y237234D02*
X179462D01*
X180295Y238068D02*
X181759D01*
X179166Y239007D02*
X180195Y240036D01*
X181759D01*
X179385Y234533D02*
X180193D01*
X181201Y235541D01*
X179104Y234252D02*
X179385Y234533D01*
X172835Y238779D02*
X174380Y237234D01*
X181759Y238068D02*
X182099Y238408D01*
X281496Y254134D02*
X284711D01*
X284801Y254043D01*
X280512Y255118D02*
Y257874D01*
Y255118D02*
X281496Y254134D01*
X280709Y258071D02*
Y260630D01*
X280512Y257874D02*
X280709Y258071D01*
Y260630D02*
X281693Y261614D01*
X285039D01*
X240650Y318993D02*
X240748Y318895D01*
X285925Y318993D02*
X286221Y318698D01*
Y312598D02*
Y318698D01*
X285301Y217913D02*
X285982Y217232D01*
X280709Y217913D02*
X285301D01*
X286003Y217253D02*
Y225197D01*
Y233247D01*
X286024Y233268D01*
X293307Y235039D02*
Y241565D01*
X293683Y241941D01*
X340398Y213469D02*
X340475Y213545D01*
Y216932D01*
X340551Y217008D01*
X350778Y275994D02*
X361014D01*
X350394Y276378D02*
X350778Y275994D01*
X361014D02*
X361221Y275787D01*
X225156Y189608D02*
X246458D01*
X248828Y191977D02*
X250779D01*
X246458Y189608D02*
X248828Y191977D01*
X250779D02*
X250787Y191969D01*
X235963Y198762D02*
X240787Y193937D01*
X225648Y198762D02*
X235963D01*
X216024Y198740D02*
Y225546D01*
Y198740D02*
X225156Y189608D01*
X259031Y255709D02*
X260630Y257308D01*
X244882Y254724D02*
X246404Y256246D01*
X249916Y257480D02*
X253543D01*
X252736Y248590D02*
X252750Y248576D01*
X255209Y245905D02*
X255223Y245891D01*
X255209Y245905D02*
Y251174D01*
X252736Y248590D02*
Y251305D01*
X252565Y248391D02*
X252750Y248576D01*
X252565Y248391D02*
X252756Y248200D01*
X250096Y247580D02*
Y251373D01*
Y247580D02*
X250114Y247562D01*
X236493Y247660D02*
X237106Y247047D01*
X236493Y247660D02*
Y254950D01*
X234079Y257365D02*
X236493Y254950D01*
X247675Y252203D02*
Y254368D01*
X244882Y252165D02*
Y254724D01*
X244742Y257561D02*
X246457Y259277D01*
X242126Y255118D02*
X244569Y257561D01*
X242126Y252165D02*
Y255118D01*
X246457Y259277D02*
Y259449D01*
X244569Y257561D02*
X244742D01*
X179342Y242137D02*
X181891D01*
X179134Y241929D02*
X179342Y242137D01*
X181759Y240036D02*
X182099Y240377D01*
X181891Y242137D02*
X182099Y242345D01*
X181201Y235541D02*
Y236099D01*
X181541Y236440D02*
X182099D01*
X181201Y236099D02*
X181541Y236440D01*
X200197Y225626D02*
Y229331D01*
Y225626D02*
X200210Y225613D01*
X197255Y231859D02*
X200228D01*
X205791Y226295D01*
Y215748D02*
Y226295D01*
X219685Y204724D02*
X225648Y198762D01*
X219685Y204724D02*
Y225590D01*
X213976Y242126D02*
Y249410D01*
X213976Y242126D02*
X213976Y242126D01*
X213878Y235138D02*
Y242028D01*
X213779Y235039D02*
X213878Y235138D01*
Y242028D02*
X213976Y242126D01*
X201194Y236440D02*
X202594Y235039D01*
X200603Y236440D02*
X201194D01*
X202594Y235039D02*
X213779D01*
X206693Y230999D02*
X210531Y227161D01*
Y200000D02*
Y227161D01*
X260787Y189331D02*
Y193937D01*
X259646Y188189D02*
X260787Y189331D01*
X174213Y269291D02*
X183858D01*
X206693Y230999D02*
Y231299D01*
X206519Y242345D02*
X208661Y244488D01*
X200603Y242345D02*
X206519D01*
X200603Y240377D02*
X200610Y240384D01*
X208297D01*
X208465Y240551D01*
X204050Y244601D02*
X204331Y244882D01*
X200603Y244314D02*
X200890Y244601D01*
X204050D01*
X200615Y246271D02*
X202570D01*
X203543Y247244D01*
X206693D01*
X200603Y246282D02*
X200615Y246271D01*
X204648Y248986D02*
X207367D01*
X203913Y248251D02*
X204648Y248986D01*
X207367D02*
X212318Y253937D01*
X200603Y248251D02*
X203913D01*
X200615Y238397D02*
X204123D01*
X204134Y238386D01*
X200603Y238408D02*
X200615Y238397D01*
X200765Y234078D02*
X208661Y226181D01*
Y212992D02*
Y226181D01*
X198241Y234078D02*
X200765D01*
X229429Y247615D02*
X229446Y247632D01*
Y253884D01*
X232364Y259252D02*
X234079Y257537D01*
X232191Y259252D02*
X232364D01*
X234079Y257365D02*
Y257537D01*
X213386Y225590D02*
X213537Y225439D01*
X217943Y226312D02*
X219387Y227756D01*
X222441D01*
X143746Y282632D02*
X149606Y276772D01*
X155466Y282632D01*
X239370Y252165D02*
Y257480D01*
Y245965D02*
Y252165D01*
X219685Y225590D02*
X219882Y225787D01*
X217943Y201742D02*
Y226312D01*
Y201742D02*
X225748Y193937D01*
X203543Y200591D02*
X210138D01*
X210531Y200197D01*
X196563Y232551D02*
X197255Y231859D01*
X196563Y232551D02*
Y233787D01*
X196273Y234078D02*
X196563Y233787D01*
X179131Y244541D02*
X181872D01*
X181872Y244541D01*
X180028Y246623D02*
X181759D01*
X179406Y247245D02*
X180028Y246623D01*
X178904Y247245D02*
X179406D01*
X178904Y244768D02*
X179131Y244541D01*
X190262Y230420D02*
Y233973D01*
X190157Y230315D02*
X190262Y230420D01*
Y233973D02*
X190367Y234078D01*
X247638Y251181D02*
X248130Y251673D01*
X239370Y245965D02*
X239665Y245669D01*
X247638Y246875D02*
Y251181D01*
Y246875D02*
X247978Y246535D01*
X247638Y252165D02*
X247675Y252203D01*
X196457Y319280D02*
Y324803D01*
X191732Y319333D02*
Y324803D01*
X191607Y319208D02*
X191732Y319333D01*
X186614Y319280D02*
Y324803D01*
Y319280D02*
X186686Y319208D01*
X178740Y250374D02*
Y250394D01*
Y250374D02*
X180523Y248591D01*
X196457Y319280D02*
X196528Y319208D01*
X181890Y319333D02*
Y324803D01*
X181765Y319208D02*
X181890Y319333D01*
X225748Y193937D02*
X230787D01*
X192245Y252672D02*
X192336Y252582D01*
X192245Y252672D02*
Y256180D01*
X192126Y256299D02*
X192245Y256180D01*
X194609Y256261D02*
X194648Y256299D01*
X194304Y252582D02*
X194609Y252886D01*
Y256261D01*
X150886Y256988D02*
X151575Y257677D01*
X150886Y251327D02*
Y256988D01*
X147638Y257677D02*
X148327Y256988D01*
Y251327D02*
Y256988D01*
X244882Y245768D02*
Y251181D01*
X245374Y251673D01*
X244783Y245669D02*
X244882Y245768D01*
X242126Y251181D02*
X242618Y251673D01*
X159449Y278937D02*
X161014Y280503D01*
X157758Y277246D02*
X159449Y278937D01*
X139415Y234986D02*
X140596D01*
X145768Y240158D01*
X137795Y233366D02*
X139415Y234986D01*
X176378Y273228D02*
X186614D01*
X188739Y253805D02*
Y258899D01*
X188399Y252582D02*
X188739Y252922D01*
Y253805D01*
X188739Y253805D01*
X186522Y258176D02*
X186614Y258268D01*
X184138D02*
X184300Y258106D01*
X186430Y252582D02*
X186522Y252674D01*
Y258176D01*
X184300Y252743D02*
Y258106D01*
Y252743D02*
X184462Y252582D01*
X183679Y230876D02*
X184076D01*
X185059Y231859D01*
X185447D01*
X186723Y230671D02*
X188399Y232347D01*
X181496Y250560D02*
X181837Y250219D01*
X182099D01*
X185447Y231859D02*
X186090Y232501D01*
X188399Y232347D02*
Y234078D01*
X361319Y269390D02*
X376870D01*
X361319D02*
X361417Y269291D01*
X361221Y269488D02*
X361319Y269390D01*
X361417Y264961D02*
Y269291D01*
X196273Y254934D02*
X197638Y256299D01*
X196273Y252582D02*
Y254934D01*
X257709Y245799D02*
Y251181D01*
X257579Y245669D02*
X257709Y245799D01*
X251825Y247269D02*
X252756Y248200D01*
X185039Y221885D02*
Y222047D01*
X181509Y218354D02*
X185039Y221885D01*
X304429Y290078D02*
Y305360D01*
X304724Y285039D02*
Y289783D01*
X304528Y289980D02*
X304724Y289783D01*
X181509Y218133D02*
Y218354D01*
X186090Y233737D02*
X186430Y234078D01*
X186090Y232501D02*
Y233737D01*
X200210Y213826D02*
X202203Y211833D01*
X200210Y213826D02*
Y219215D01*
X202203Y211833D02*
X202375D01*
X260630Y257308D02*
Y257480D01*
X242126Y245768D02*
Y251181D01*
Y245768D02*
X242224Y245669D01*
X180523Y248591D02*
X181759D01*
X181872Y244541D02*
X182099Y244314D01*
X181759Y248591D02*
X182099Y248251D01*
X181759Y246623D02*
X182099Y246282D01*
X194304Y226696D02*
X195387Y225613D01*
X194304Y226696D02*
Y234078D01*
X304331Y305459D02*
X304429Y305360D01*
Y290078D02*
X304528Y289980D01*
X188957Y194046D02*
X190672Y195762D01*
X190844D02*
X191933Y196850D01*
X188957Y193874D02*
Y194046D01*
X190672Y195762D02*
X190844D01*
X191933Y196850D02*
X195866D01*
X187128Y195762D02*
X187242D01*
X188957Y193874D02*
Y194046D01*
X182264Y200626D02*
X187128Y195762D01*
X187242D02*
X188957Y194046D01*
X161417Y227165D02*
X164173D01*
X141339Y220472D02*
X163386D01*
X137795Y224016D02*
Y227165D01*
Y224016D02*
X141339Y220472D01*
X161014Y280503D02*
Y288789D01*
X157283Y292520D02*
X161014Y288789D01*
X138189Y280526D02*
Y288779D01*
Y280526D02*
X139764Y278951D01*
Y278937D02*
X141454Y277246D01*
X138189Y288779D02*
X141929Y292520D01*
X157087D02*
X157283D01*
X151718Y293914D02*
X152718D01*
X154113Y292520D02*
X157087D01*
X152718Y293914D02*
X154113Y292520D01*
X151181Y294451D02*
X151718Y293914D01*
X145100Y292520D02*
X146494Y293914D01*
X147494D02*
X148031Y294451D01*
X142126Y292520D02*
X145100D01*
X146494Y293914D02*
X147494D01*
X141929Y292520D02*
X142126D01*
X155466Y282632D02*
Y284600D01*
X157087Y286221D01*
X143746Y282632D02*
Y284600D01*
X142126Y286221D02*
X143746Y284600D01*
X151575Y270571D02*
X157758Y276754D01*
X151575Y269685D02*
Y270571D01*
X157758Y276754D02*
Y277246D01*
X141454Y276754D02*
X147638Y270571D01*
Y269685D02*
Y270571D01*
X141454Y276754D02*
Y277246D01*
X159291Y257913D02*
X159449Y258071D01*
X151575Y257677D02*
X151811Y257913D01*
X159291D01*
X139921D02*
X147402D01*
X147638Y257677D01*
X139764Y258071D02*
X139921Y257913D01*
X141085Y251327D02*
X145768D01*
X139370Y249612D02*
X141085Y251327D01*
X139370Y249606D02*
Y249612D01*
X158520Y235085D02*
X159797D01*
X153445Y240160D02*
Y240602D01*
X159797Y235085D02*
X161417Y233465D01*
X153445Y240160D02*
X158520Y235085D01*
X145768Y240158D02*
Y240600D01*
X376870Y269390D02*
X376969Y269291D01*
D35*
X208733Y331413D02*
D03*
X169560D02*
D03*
D36*
X201450Y318815D02*
D03*
X196528D02*
D03*
X191607D02*
D03*
X186686D02*
D03*
X181765D02*
D03*
X176843D02*
D03*
D56*
X359449Y237795D02*
D03*
X351969D02*
D03*
X350590Y206693D02*
D03*
X358071D02*
D03*
X343898Y251772D02*
D03*
X336417D02*
D03*
X351969Y246654D02*
D03*
X359449D02*
D03*
D57*
X307189Y252350D02*
D03*
Y245657D02*
D03*
X188399Y218133D02*
D03*
Y211440D02*
D03*
X171240Y193677D02*
D03*
Y200370D02*
D03*
X205512Y252559D02*
D03*
Y259252D02*
D03*
X181509Y211440D02*
D03*
Y218133D02*
D03*
X174619Y225219D02*
D03*
Y231912D02*
D03*
X323819Y274016D02*
D03*
Y267323D02*
D03*
X299213D02*
D03*
Y274016D02*
D03*
X300492Y245650D02*
D03*
Y252343D02*
D03*
X376969Y269291D02*
D03*
Y275984D02*
D03*
X320655Y245735D02*
D03*
Y252428D02*
D03*
X327389Y245696D02*
D03*
Y252389D02*
D03*
X149606Y283268D02*
D03*
Y276575D02*
D03*
X139764Y278937D02*
D03*
Y272244D02*
D03*
X159449Y258071D02*
D03*
Y264764D02*
D03*
X139764Y258071D02*
D03*
Y264764D02*
D03*
X159449Y278937D02*
D03*
Y272244D02*
D03*
Y249410D02*
D03*
Y242717D02*
D03*
X370276Y230315D02*
D03*
X363976D02*
D03*
X194095Y290551D02*
D03*
Y283858D02*
D03*
X216535Y284252D02*
D03*
Y290945D02*
D03*
X234252Y284252D02*
D03*
Y290945D02*
D03*
X269221Y284424D02*
D03*
Y291117D02*
D03*
X313942Y252369D02*
D03*
Y245676D02*
D03*
D59*
X313976Y212205D02*
D03*
Y235433D02*
D03*
D60*
X343577Y209252D02*
D03*
X336884D02*
D03*
X182099Y225613D02*
D03*
X188792D02*
D03*
X291494Y254043D02*
D03*
X284801D02*
D03*
X292675Y217232D02*
D03*
X285982D02*
D03*
X297835Y289980D02*
D03*
X304528D02*
D03*
X220472Y235039D02*
D03*
X213779D02*
D03*
X152953Y233169D02*
D03*
X146260D02*
D03*
X157087Y286221D02*
D03*
Y292520D02*
D03*
X142126Y286221D02*
D03*
Y292520D02*
D03*
X336811Y236614D02*
D03*
X343504D02*
D03*
X336811Y243701D02*
D03*
X343504D02*
D03*
D61*
X276772Y291339D02*
D03*
Y283858D02*
D03*
X225394Y291339D02*
D03*
Y283858D02*
D03*
D62*
X290846Y318993D02*
D03*
X285925D02*
D03*
X281004D02*
D03*
X276083D02*
D03*
X245571D02*
D03*
X240650D02*
D03*
X235728D02*
D03*
X230807D02*
D03*
D63*
X298130Y331592D02*
D03*
X268799D02*
D03*
X252854D02*
D03*
X223524D02*
D03*
D66*
X139370Y243307D02*
D03*
Y249606D02*
D03*
X188957Y193874D02*
D03*
Y200173D02*
D03*
X369094Y275787D02*
D03*
Y269488D02*
D03*
X210531Y200000D02*
D03*
Y193701D02*
D03*
X171850Y238779D02*
D03*
Y245079D02*
D03*
X361221Y275787D02*
D03*
Y269488D02*
D03*
X260630Y259449D02*
D03*
Y265748D02*
D03*
X253543Y259449D02*
D03*
Y265748D02*
D03*
X246457Y259449D02*
D03*
Y265748D02*
D03*
X239370Y259449D02*
D03*
Y265748D02*
D03*
X161417Y227165D02*
D03*
Y233465D02*
D03*
X137795Y227165D02*
D03*
Y233465D02*
D03*
X342520Y200394D02*
D03*
Y194095D02*
D03*
D67*
X182099Y236440D02*
D03*
Y238408D02*
D03*
Y240377D02*
D03*
Y242345D02*
D03*
X200603Y244314D02*
D03*
Y246282D02*
D03*
Y248251D02*
D03*
Y250219D02*
D03*
X182099Y244314D02*
D03*
Y246282D02*
D03*
Y248251D02*
D03*
Y250219D02*
D03*
X200603Y236440D02*
D03*
Y238408D02*
D03*
Y240377D02*
D03*
Y242345D02*
D03*
D68*
X184462Y234078D02*
D03*
X186430D02*
D03*
X188399D02*
D03*
X190367D02*
D03*
X192336D02*
D03*
X194304D02*
D03*
X196273D02*
D03*
X198241D02*
D03*
Y252582D02*
D03*
X196273D02*
D03*
X194304D02*
D03*
X192336D02*
D03*
X184462D02*
D03*
X190367D02*
D03*
X188399D02*
D03*
X186430D02*
D03*
D69*
X191351Y243330D02*
D03*
D70*
X195866Y196850D02*
D03*
X203543Y200591D02*
D03*
Y193110D02*
D03*
D71*
X182264Y200626D02*
D03*
Y193421D02*
D03*
X177933Y200626D02*
D03*
Y193421D02*
D03*
D72*
X200210Y225613D02*
D03*
X195387D02*
D03*
X200210Y219215D02*
D03*
X195387D02*
D03*
D73*
X196076Y211833D02*
D03*
X202375D02*
D03*
X332480Y274606D02*
D03*
X338779D02*
D03*
Y266732D02*
D03*
X332480D02*
D03*
X291339Y261614D02*
D03*
X285039D02*
D03*
X286024Y225197D02*
D03*
X292323D02*
D03*
X286024Y233268D02*
D03*
X292323D02*
D03*
X225892Y259252D02*
D03*
X232191D02*
D03*
X363976Y215551D02*
D03*
X370276D02*
D03*
X298031Y297854D02*
D03*
X304331D02*
D03*
X220276Y242126D02*
D03*
X213976D02*
D03*
X356496Y197835D02*
D03*
X350197D02*
D03*
X220276Y249410D02*
D03*
X213976D02*
D03*
X298031Y305459D02*
D03*
X304331D02*
D03*
X370276Y223425D02*
D03*
X363976D02*
D03*
D74*
X308090Y265602D02*
D03*
X311831D02*
D03*
X315571D02*
D03*
X308090Y275839D02*
D03*
X315571D02*
D03*
D76*
X350394Y264961D02*
D03*
Y276378D02*
D03*
D77*
X148327Y251327D02*
D03*
X153445Y240602D02*
D03*
X150886D02*
D03*
X145768Y240600D02*
D03*
X148327Y240602D02*
D03*
X150886Y251327D02*
D03*
X145768D02*
D03*
X153445D02*
D03*
D78*
X149606Y245965D02*
D03*
D79*
X151181Y294685D02*
D03*
X148031D02*
D03*
D80*
X151575Y269685D02*
D03*
X147638D02*
D03*
Y257677D02*
D03*
X151575D02*
D03*
D84*
X200984Y282480D02*
D03*
X208465Y292717D02*
D03*
X204724D02*
D03*
X200984D02*
D03*
X208465Y282480D02*
D03*
D85*
X350689Y219252D02*
D03*
Y225158D02*
D03*
Y223189D02*
D03*
Y221221D02*
D03*
X336358Y219252D02*
D03*
Y221221D02*
D03*
Y223189D02*
D03*
Y225158D02*
D03*
Y227127D02*
D03*
X350689Y227127D02*
D03*
X336358Y229095D02*
D03*
X350689Y229095D02*
D03*
D86*
X348425Y217008D02*
D03*
X346457D02*
D03*
X344488D02*
D03*
X342520D02*
D03*
X340551D02*
D03*
X338583D02*
D03*
X338622Y231851D02*
D03*
X340591D02*
D03*
X344488Y231851D02*
D03*
X346457D02*
D03*
X348425D02*
D03*
D87*
X146654Y321850D02*
D03*
X386811Y201772D02*
D03*
Y321850D02*
D03*
X146654Y201772D02*
D03*
D88*
X331693Y292323D02*
D03*
X351378D02*
D03*
D89*
X363189Y331693D02*
D03*
X319882D02*
D03*
D90*
X260787Y193937D02*
D03*
D91*
X250787D02*
D03*
X240787D02*
D03*
X230787D02*
D03*
X260787Y203937D02*
D03*
X250787D02*
D03*
X240787D02*
D03*
X260787Y213937D02*
D03*
X250787D02*
D03*
X240787D02*
D03*
X230787Y203937D02*
D03*
Y213937D02*
D03*
D92*
X229429Y224213D02*
D03*
X231988D02*
D03*
X234547D02*
D03*
X237106D02*
D03*
X239665D02*
D03*
X242224D02*
D03*
X244783D02*
D03*
X247342D02*
D03*
X249902D02*
D03*
X252461D02*
D03*
X255020D02*
D03*
X257579D02*
D03*
X260138D02*
D03*
X262697D02*
D03*
X229429Y247047D02*
D03*
X231988D02*
D03*
X234547D02*
D03*
X237106D02*
D03*
X239665D02*
D03*
X242224D02*
D03*
X244783D02*
D03*
X247342D02*
D03*
X249902D02*
D03*
X252461D02*
D03*
X255020D02*
D03*
X257579D02*
D03*
X260138D02*
D03*
X262697D02*
D03*
D93*
X246063Y235630D02*
D03*
D94*
X149606Y291240D02*
D03*
D95*
X261024Y299606D02*
D03*
X251969D02*
D03*
X242913D02*
D03*
D96*
X251969Y275590D02*
D03*
D97*
X285039Y291732D02*
D03*
D98*
X289370Y289173D02*
D03*
Y294291D02*
D03*
D99*
X346122Y224902D02*
D03*
D100*
X340177Y224902D02*
D03*
D101*
X276181Y246758D02*
X280998Y241941D01*
X293683D01*
X276181Y246758D02*
Y270079D01*
X293683Y241941D02*
X304515D01*
X300492Y245453D02*
X303336Y242609D01*
X303848D02*
X304515Y241941D01*
X300492Y245453D02*
Y245650D01*
X303336Y242609D02*
X303848D01*
X276181Y270079D02*
X289364Y283261D01*
X300787Y238779D02*
Y240096D01*
Y238779D02*
X304134Y235433D01*
X313976D01*
D102*
X245571Y318993D02*
Y324722D01*
X245579Y324730D01*
X290825Y305459D02*
X297835D01*
X290825Y316183D02*
X290846Y316205D01*
Y318993D02*
Y324177D01*
X290825Y305459D02*
Y316183D01*
X290846Y316205D02*
Y318971D01*
X289370Y305459D02*
X290825D01*
X290846Y324177D02*
X290876Y324206D01*
X200984Y295860D02*
X202368Y297244D01*
X200984Y292717D02*
Y295860D01*
X207081Y297244D02*
X208465Y295860D01*
Y291869D02*
Y295860D01*
X202368Y297244D02*
X207081D01*
X208465Y291869D02*
X215748D01*
X216535Y290945D02*
Y291082D01*
X215748Y291869D02*
X216535Y291082D01*
D103*
X343629Y209574D02*
Y213443D01*
X343504Y209449D02*
X343629Y209574D01*
D104*
X349341Y207943D02*
X349413Y207871D01*
X345394Y214745D02*
X349341Y210797D01*
Y207943D02*
Y210797D01*
D105*
X269221Y291117D02*
X276550D01*
X262444Y298031D02*
X269221Y291255D01*
X261319Y298031D02*
X262444D01*
X276772Y291339D02*
X284646D01*
D106*
X168504Y292520D02*
X178347Y302362D01*
X222047D01*
X224803Y299606D01*
Y291929D02*
Y299606D01*
X177933Y200626D02*
Y202323D01*
X179780Y204169D02*
X186519D01*
X188366Y200764D02*
Y202323D01*
X186519Y204169D02*
X188366Y202323D01*
X177933D02*
X179780Y204169D01*
X188366Y200764D02*
X188957Y200173D01*
X165354Y259055D02*
X168504Y262205D01*
Y292520D01*
X216929Y291339D02*
X225394D01*
X216535Y290945D02*
X216929Y291339D01*
X233858D02*
X234252Y290945D01*
X225394Y291339D02*
X233858D01*
X234252Y290945D02*
Y291117D01*
X242913Y297736D02*
Y299606D01*
X240551Y297244D02*
X242421D01*
X236139Y292832D02*
X240551Y297244D01*
X242421D02*
X242913Y297736D01*
X234252Y291117D02*
X235967Y292832D01*
X236139D01*
X171260Y200390D02*
Y206299D01*
X171496Y200626D02*
X177933D01*
X149606Y283268D02*
Y287402D01*
Y283268D02*
X149606Y283268D01*
X149606Y287402D02*
X149606Y287402D01*
Y290059D01*
D107*
X332874Y225984D02*
D03*
X343110Y274410D02*
D03*
X328543Y278150D02*
D03*
X294685Y276772D02*
D03*
X286221Y272441D02*
D03*
X235630Y306299D02*
D03*
X232874Y312992D02*
D03*
X274803Y313189D02*
D03*
X276534Y310827D02*
D03*
X235630Y309055D02*
D03*
Y312795D02*
D03*
X201575Y314341D02*
D03*
X216929Y314961D02*
D03*
X265748Y306225D02*
D03*
X251969D02*
D03*
X354712Y283441D02*
D03*
X212193Y305488D02*
D03*
X152953Y287205D02*
D03*
X146445Y287181D02*
D03*
X338177Y194071D02*
D03*
X269279Y279307D02*
D03*
X291523Y249386D02*
D03*
X177756Y265551D02*
D03*
X191130Y278520D02*
D03*
X196653Y278543D02*
D03*
X203216Y215902D02*
D03*
X208465Y210433D02*
D03*
X279906Y220499D02*
D03*
X368701Y205118D02*
D03*
X283252Y257901D02*
D03*
X311795Y261247D02*
D03*
X303921Y267350D02*
D03*
X359433Y251995D02*
D03*
X262992Y237992D02*
D03*
X268307Y244291D02*
D03*
X340748Y204372D02*
D03*
X181496Y255118D02*
D03*
X213386Y259842D02*
D03*
X231890Y254921D02*
D03*
X215945Y253937D02*
D03*
X214961Y189370D02*
D03*
X211417Y188779D02*
D03*
X176181Y242520D02*
D03*
X163386Y242717D02*
D03*
X178771Y239007D02*
D03*
X170046Y231890D02*
D03*
X179104Y228987D02*
D03*
Y234252D02*
D03*
X176181Y249410D02*
D03*
X286417Y309842D02*
D03*
X232874Y263189D02*
D03*
Y269094D02*
D03*
X276378Y233268D02*
D03*
X296850Y217323D02*
D03*
X296654Y225197D02*
D03*
X284449Y208465D02*
D03*
X325787Y194685D02*
D03*
X312008D02*
D03*
X298228D02*
D03*
X284449D02*
D03*
X332677Y201772D02*
D03*
X318898D02*
D03*
X305118D02*
D03*
X291339D02*
D03*
X277559D02*
D03*
X296063Y253937D02*
D03*
X327362Y256890D02*
D03*
X320669D02*
D03*
X313976D02*
D03*
X307283D02*
D03*
X300590D02*
D03*
X278590Y244350D02*
D03*
X245579Y324730D02*
D03*
X286221Y312598D02*
D03*
X294882Y310827D02*
D03*
X296260Y321850D02*
D03*
X290876Y324206D02*
D03*
X253459Y316675D02*
D03*
X261024Y327953D02*
D03*
X271654Y318898D02*
D03*
X261024Y318110D02*
D03*
X353822Y220604D02*
D03*
X163344Y261274D02*
D03*
X193898Y278346D02*
D03*
X189370Y291339D02*
D03*
X280709Y217913D02*
D03*
X332895Y228564D02*
D03*
X333465Y223311D02*
D03*
X267717Y225984D02*
D03*
X375787Y230315D02*
D03*
X374803Y223622D02*
D03*
X358661Y218898D02*
D03*
X353740Y224213D02*
D03*
X247244Y219882D02*
D03*
X244882D02*
D03*
X249606D02*
D03*
X242520D02*
D03*
X332677Y236614D02*
D03*
Y243701D02*
D03*
X280512Y257874D02*
D03*
X340398Y213469D02*
D03*
X269488Y211221D02*
D03*
X245864Y215303D02*
D03*
X248209Y209328D02*
D03*
X263189Y209252D02*
D03*
X233465Y209055D02*
D03*
X243500Y209364D02*
D03*
X222441Y210827D02*
D03*
X223622Y204331D02*
D03*
X226969Y251969D02*
D03*
X204528Y233268D02*
D03*
X216024Y225546D02*
D03*
X182087Y271457D02*
D03*
X186811Y276378D02*
D03*
X156141Y246082D02*
D03*
X142873Y246471D02*
D03*
X262598Y252559D02*
D03*
X252953Y253937D02*
D03*
X250000D02*
D03*
X256299Y253740D02*
D03*
X257677Y251378D02*
D03*
X255209Y251174D02*
D03*
X252736Y251305D02*
D03*
X250096Y251373D02*
D03*
X259449Y253543D02*
D03*
X179134Y241929D02*
D03*
X236041Y235631D02*
D03*
X276969Y278346D02*
D03*
X200197Y229331D02*
D03*
X188976Y305709D02*
D03*
X183858Y298622D02*
D03*
X182087Y279528D02*
D03*
X204724Y282087D02*
D03*
X376181Y215945D02*
D03*
X230512Y235433D02*
D03*
X224803Y242126D02*
D03*
X225197Y233268D02*
D03*
X182480Y288976D02*
D03*
X174213Y269291D02*
D03*
X206693Y231299D02*
D03*
X208661Y244488D02*
D03*
X204331Y244882D02*
D03*
X206693Y247244D02*
D03*
X204134Y238386D02*
D03*
X208465Y240551D02*
D03*
X229446Y253884D02*
D03*
X196876Y243352D02*
D03*
X224606Y230512D02*
D03*
X213386Y225590D02*
D03*
X222441Y227756D02*
D03*
X220866Y271063D02*
D03*
X225394Y249606D02*
D03*
X149606Y287402D02*
D03*
X191374Y237805D02*
D03*
X219882Y225787D02*
D03*
X256093Y235631D02*
D03*
X246067Y235631D02*
D03*
X178904Y247245D02*
D03*
Y244768D02*
D03*
X190157Y230315D02*
D03*
X239370Y252165D02*
D03*
X247638D02*
D03*
X342469Y296478D02*
D03*
X189185Y326877D02*
D03*
X198425Y326772D02*
D03*
X193701D02*
D03*
X184646D02*
D03*
X196457Y324803D02*
D03*
X191732D02*
D03*
X186614D02*
D03*
X178740Y250394D02*
D03*
X181890Y324803D02*
D03*
X386811Y211024D02*
D03*
X377559Y201772D02*
D03*
X386811Y192520D02*
D03*
X396063Y201772D02*
D03*
X393110Y208268D02*
D03*
X380118D02*
D03*
Y195276D02*
D03*
X393110D02*
D03*
X386811Y331102D02*
D03*
X377559Y321850D02*
D03*
X386811Y312598D02*
D03*
X396063Y321850D02*
D03*
X393110Y328346D02*
D03*
X380118D02*
D03*
Y315354D02*
D03*
X393110D02*
D03*
X146654Y211024D02*
D03*
X137402Y201772D02*
D03*
X146654Y192520D02*
D03*
X155905Y201772D02*
D03*
X152953Y208268D02*
D03*
X139961D02*
D03*
Y195276D02*
D03*
X152953D02*
D03*
Y315354D02*
D03*
X139961D02*
D03*
Y328346D02*
D03*
X152953D02*
D03*
X155905Y321850D02*
D03*
X146654Y312598D02*
D03*
X137402Y321850D02*
D03*
X146654Y331102D02*
D03*
X191329Y248854D02*
D03*
X194648Y256299D02*
D03*
X192126Y256299D02*
D03*
X353346Y212598D02*
D03*
X320866Y262795D02*
D03*
X159449Y238189D02*
D03*
X201240Y287402D02*
D03*
X245821Y198764D02*
D03*
X269685Y190945D02*
D03*
Y204724D02*
D03*
X329724Y259842D02*
D03*
X196592Y259384D02*
D03*
X193273Y259428D02*
D03*
X189961Y268701D02*
D03*
X200591Y270276D02*
D03*
X172244Y272638D02*
D03*
Y286417D02*
D03*
X164173Y286221D02*
D03*
X164370Y293307D02*
D03*
X165354Y304134D02*
D03*
X171260Y301181D02*
D03*
X159251Y298307D02*
D03*
X367126Y192913D02*
D03*
X396654Y333661D02*
D03*
X379921Y335630D02*
D03*
X370079D02*
D03*
X356299D02*
D03*
X342520D02*
D03*
X328740D02*
D03*
X308071D02*
D03*
X305118Y328740D02*
D03*
X272933Y299843D02*
D03*
X279528Y307087D02*
D03*
X232283Y298099D02*
D03*
X226378Y304134D02*
D03*
X193898Y200787D02*
D03*
X164370Y204724D02*
D03*
Y193898D02*
D03*
X209646Y316929D02*
D03*
X216136Y321865D02*
D03*
X163386Y325787D02*
D03*
X161417Y313976D02*
D03*
X139764Y299213D02*
D03*
X146653Y306102D02*
D03*
X263779Y187992D02*
D03*
X277559D02*
D03*
X291339D02*
D03*
X305118D02*
D03*
X318898D02*
D03*
X332677D02*
D03*
X346457D02*
D03*
X360236D02*
D03*
X374016D02*
D03*
X396654Y189961D02*
D03*
X312008Y279528D02*
D03*
X318898Y287402D02*
D03*
X312008Y293307D02*
D03*
X318898Y301181D02*
D03*
X312008Y307087D02*
D03*
Y322835D02*
D03*
X305118Y314961D02*
D03*
X283465Y329724D02*
D03*
X276575Y335630D02*
D03*
X290354D02*
D03*
X179921Y326772D02*
D03*
X238189Y329724D02*
D03*
X246063Y335630D02*
D03*
X229978Y335676D02*
D03*
X216136Y335645D02*
D03*
X202756Y335630D02*
D03*
X188976D02*
D03*
X175197D02*
D03*
X159449D02*
D03*
X134843Y331693D02*
D03*
X132874Y306102D02*
D03*
Y292323D02*
D03*
Y278543D02*
D03*
X205675Y187994D02*
D03*
X195866Y187992D02*
D03*
X156496D02*
D03*
X135827Y190945D02*
D03*
X132874Y250984D02*
D03*
Y223425D02*
D03*
Y237205D02*
D03*
Y209646D02*
D03*
X153543Y216535D02*
D03*
X160287Y211301D02*
D03*
X168110Y215354D02*
D03*
X173601Y210826D02*
D03*
X155118Y270079D02*
D03*
X144095D02*
D03*
X141905Y232844D02*
D03*
X159635Y222847D02*
D03*
X143307Y223622D02*
D03*
X155905Y227953D02*
D03*
X149606D02*
D03*
X381890Y216535D02*
D03*
X244882Y252165D02*
D03*
X271654Y253937D02*
D03*
X271575Y268807D02*
D03*
X265748Y261811D02*
D03*
X374016Y236221D02*
D03*
Y263779D02*
D03*
Y248031D02*
D03*
Y330709D02*
D03*
X370079Y322835D02*
D03*
X371972Y289266D02*
D03*
X362205Y287402D02*
D03*
X377953Y295276D02*
D03*
X374016Y307087D02*
D03*
X366142Y299213D02*
D03*
X342520Y307087D02*
D03*
X350394Y303150D02*
D03*
X358268Y322835D02*
D03*
X350394Y314961D02*
D03*
X366142D02*
D03*
X358268Y307087D02*
D03*
X334646Y330709D02*
D03*
X350394D02*
D03*
X342520Y322835D02*
D03*
X326772D02*
D03*
X318898Y314961D02*
D03*
X334646D02*
D03*
X326772Y307087D02*
D03*
X389764D02*
D03*
X397638Y311024D02*
D03*
Y303150D02*
D03*
X381890D02*
D03*
X397638Y212598D02*
D03*
X389764Y216535D02*
D03*
X397638Y224410D02*
D03*
X381890D02*
D03*
X389764Y279528D02*
D03*
X397638Y287402D02*
D03*
X381890D02*
D03*
Y271654D02*
D03*
X397638D02*
D03*
X389764Y295276D02*
D03*
Y232283D02*
D03*
Y263779D02*
D03*
X381890Y255906D02*
D03*
X397638D02*
D03*
Y240158D02*
D03*
X381890D02*
D03*
X389764Y248031D02*
D03*
X261024Y335039D02*
D03*
X176772Y252559D02*
D03*
X209449Y274410D02*
D03*
X234252Y279134D02*
D03*
X225590Y278346D02*
D03*
X216535Y279134D02*
D03*
X261811Y275590D02*
D03*
X241732D02*
D03*
X331890Y251772D02*
D03*
X348031Y191732D02*
D03*
X360630Y201181D02*
D03*
X364370Y237795D02*
D03*
Y246850D02*
D03*
X367717Y255118D02*
D03*
X362205Y261024D02*
D03*
X377165Y281102D02*
D03*
X369291D02*
D03*
X315354Y270866D02*
D03*
X311811D02*
D03*
X308268D02*
D03*
X294094Y267323D02*
D03*
X292520Y290158D02*
D03*
X292597Y297708D02*
D03*
X261417Y283465D02*
D03*
X252362D02*
D03*
X243307D02*
D03*
X261024Y291339D02*
D03*
X251969D02*
D03*
X243307D02*
D03*
X227165Y319291D02*
D03*
X172441D02*
D03*
X208268Y287402D02*
D03*
X204724D02*
D03*
X225629Y263482D02*
D03*
X182283Y196850D02*
D03*
X177953D02*
D03*
X171260Y187992D02*
D03*
X182087D02*
D03*
X188583Y207087D02*
D03*
X181496D02*
D03*
X174409Y219685D02*
D03*
X135039Y264567D02*
D03*
X164173Y272441D02*
D03*
Y264961D02*
D03*
X135039Y272047D02*
D03*
X134252Y243307D02*
D03*
X146063Y228346D02*
D03*
X152756Y246063D02*
D03*
X149606Y245965D02*
D03*
X146457Y246063D02*
D03*
X153543Y263386D02*
D03*
X149606D02*
D03*
X145669D02*
D03*
X165354Y259055D02*
D03*
X186614Y273228D02*
D03*
X176378D02*
D03*
X183858Y269291D02*
D03*
X186614Y258268D02*
D03*
X184138D02*
D03*
X183679Y230876D02*
D03*
X186723Y230671D02*
D03*
X185827Y243307D02*
D03*
X361417Y264961D02*
D03*
X208661Y212992D02*
D03*
X205791Y215748D02*
D03*
X197638Y256299D02*
D03*
X185039Y222047D02*
D03*
X294882Y274016D02*
D03*
X304724Y285039D02*
D03*
X233071Y266142D02*
D03*
X192126Y212205D02*
D03*
X242126Y252165D02*
D03*
X171260Y206299D02*
D03*
X152756Y227953D02*
D03*
M02*
