G04*
G04 #@! TF.GenerationSoftware,Altium Limited,Altium Designer,24.7.2 (38)*
G04*
G04 Layer_Color=8421504*
%FSLAX25Y25*%
%MOIN*%
G70*
G04*
G04 #@! TF.SameCoordinates,AB7849DE-EAC8-4354-A705-FC1E97C67EB3*
G04*
G04*
G04 #@! TF.FilePolarity,Positive*
G04*
G01*
G75*
%ADD25R,0.05118X0.05118*%
%ADD26R,0.09875X0.04724*%
G04:AMPARAMS|DCode=27|XSize=38.83mil|YSize=46.7mil|CornerRadius=0mil|HoleSize=0mil|Usage=FLASHONLY|Rotation=180.000|XOffset=0mil|YOffset=0mil|HoleType=Round|Shape=RoundedRectangle|*
%AMROUNDEDRECTD27*
21,1,0.03883,0.04670,0,0,180.0*
21,1,0.03883,0.04670,0,0,180.0*
1,1,0.00000,-0.01941,0.02335*
1,1,0.00000,0.01941,0.02335*
1,1,0.00000,0.01941,-0.02335*
1,1,0.00000,-0.01941,-0.02335*
%
%ADD27ROUNDEDRECTD27*%
G04:AMPARAMS|DCode=28|XSize=34.01mil|YSize=30.08mil|CornerRadius=0mil|HoleSize=0mil|Usage=FLASHONLY|Rotation=270.000|XOffset=0mil|YOffset=0mil|HoleType=Round|Shape=RoundedRectangle|*
%AMROUNDEDRECTD28*
21,1,0.03401,0.03008,0,0,270.0*
21,1,0.03401,0.03008,0,0,270.0*
1,1,0.00000,-0.01504,-0.01701*
1,1,0.00000,-0.01504,0.01701*
1,1,0.00000,0.01504,0.01701*
1,1,0.00000,0.01504,-0.01701*
%
%ADD28ROUNDEDRECTD28*%
G04:AMPARAMS|DCode=29|XSize=53.15mil|YSize=11.81mil|CornerRadius=0mil|HoleSize=0mil|Usage=FLASHONLY|Rotation=270.000|XOffset=0mil|YOffset=0mil|HoleType=Round|Shape=RoundedRectangle|*
%AMROUNDEDRECTD29*
21,1,0.05315,0.01181,0,0,270.0*
21,1,0.05315,0.01181,0,0,270.0*
1,1,0.00000,-0.00591,-0.02657*
1,1,0.00000,-0.00591,0.02657*
1,1,0.00000,0.00591,0.02657*
1,1,0.00000,0.00591,-0.02657*
%
%ADD29ROUNDEDRECTD29*%
G04:AMPARAMS|DCode=30|XSize=263.11mil|YSize=66.26mil|CornerRadius=0mil|HoleSize=0mil|Usage=FLASHONLY|Rotation=180.000|XOffset=0mil|YOffset=0mil|HoleType=Round|Shape=RoundedRectangle|*
%AMROUNDEDRECTD30*
21,1,0.26311,0.06626,0,0,180.0*
21,1,0.26311,0.06626,0,0,180.0*
1,1,0.00000,-0.13156,0.03313*
1,1,0.00000,0.13156,0.03313*
1,1,0.00000,0.13156,-0.03313*
1,1,0.00000,-0.13156,-0.03313*
%
%ADD30ROUNDEDRECTD30*%
G04:AMPARAMS|DCode=31|XSize=34.01mil|YSize=30.08mil|CornerRadius=0mil|HoleSize=0mil|Usage=FLASHONLY|Rotation=0.000|XOffset=0mil|YOffset=0mil|HoleType=Round|Shape=RoundedRectangle|*
%AMROUNDEDRECTD31*
21,1,0.03401,0.03008,0,0,0.0*
21,1,0.03401,0.03008,0,0,0.0*
1,1,0.00000,0.01701,-0.01504*
1,1,0.00000,-0.01701,-0.01504*
1,1,0.00000,-0.01701,0.01504*
1,1,0.00000,0.01701,0.01504*
%
%ADD31ROUNDEDRECTD31*%
G04:AMPARAMS|DCode=32|XSize=38.83mil|YSize=46.7mil|CornerRadius=0mil|HoleSize=0mil|Usage=FLASHONLY|Rotation=90.000|XOffset=0mil|YOffset=0mil|HoleType=Round|Shape=RoundedRectangle|*
%AMROUNDEDRECTD32*
21,1,0.03883,0.04670,0,0,90.0*
21,1,0.03883,0.04670,0,0,90.0*
1,1,0.00000,0.02335,0.01941*
1,1,0.00000,0.02335,-0.01941*
1,1,0.00000,-0.02335,-0.01941*
1,1,0.00000,-0.02335,0.01941*
%
%ADD32ROUNDEDRECTD32*%
G04:AMPARAMS|DCode=33|XSize=15.99mil|YSize=59.3mil|CornerRadius=0mil|HoleSize=0mil|Usage=FLASHONLY|Rotation=180.000|XOffset=0mil|YOffset=0mil|HoleType=Round|Shape=RoundedRectangle|*
%AMROUNDEDRECTD33*
21,1,0.01599,0.05930,0,0,180.0*
21,1,0.01599,0.05930,0,0,180.0*
1,1,0.00000,-0.00800,0.02965*
1,1,0.00000,0.00800,0.02965*
1,1,0.00000,0.00800,-0.02965*
1,1,0.00000,-0.00800,-0.02965*
%
%ADD33ROUNDEDRECTD33*%
G04:AMPARAMS|DCode=34|XSize=26.79mil|YSize=93.72mil|CornerRadius=0mil|HoleSize=0mil|Usage=FLASHONLY|Rotation=180.000|XOffset=0mil|YOffset=0mil|HoleType=Round|Shape=RoundedRectangle|*
%AMROUNDEDRECTD34*
21,1,0.02679,0.09372,0,0,180.0*
21,1,0.02679,0.09372,0,0,180.0*
1,1,0.00000,-0.01339,0.04686*
1,1,0.00000,0.01339,0.04686*
1,1,0.00000,0.01339,-0.04686*
1,1,0.00000,-0.01339,-0.04686*
%
%ADD34ROUNDEDRECTD34*%
G04:AMPARAMS|DCode=35|XSize=39.37mil|YSize=106.3mil|CornerRadius=2.95mil|HoleSize=0mil|Usage=FLASHONLY|Rotation=180.000|XOffset=0mil|YOffset=0mil|HoleType=Round|Shape=RoundedRectangle|*
%AMROUNDEDRECTD35*
21,1,0.03937,0.10039,0,0,180.0*
21,1,0.03347,0.10630,0,0,180.0*
1,1,0.00591,-0.01673,0.05020*
1,1,0.00591,0.01673,0.05020*
1,1,0.00591,0.01673,-0.05020*
1,1,0.00591,-0.01673,-0.05020*
%
%ADD35ROUNDEDRECTD35*%
G04:AMPARAMS|DCode=36|XSize=23.62mil|YSize=66.93mil|CornerRadius=1.77mil|HoleSize=0mil|Usage=FLASHONLY|Rotation=180.000|XOffset=0mil|YOffset=0mil|HoleType=Round|Shape=RoundedRectangle|*
%AMROUNDEDRECTD36*
21,1,0.02362,0.06339,0,0,180.0*
21,1,0.02008,0.06693,0,0,180.0*
1,1,0.00354,-0.01004,0.03169*
1,1,0.00354,0.01004,0.03169*
1,1,0.00354,0.01004,-0.03169*
1,1,0.00354,-0.01004,-0.03169*
%
%ADD36ROUNDEDRECTD36*%
G04:AMPARAMS|DCode=37|XSize=30.08mil|YSize=34.01mil|CornerRadius=0mil|HoleSize=0mil|Usage=FLASHONLY|Rotation=180.000|XOffset=0mil|YOffset=0mil|HoleType=Round|Shape=RoundedRectangle|*
%AMROUNDEDRECTD37*
21,1,0.03008,0.03401,0,0,180.0*
21,1,0.03008,0.03401,0,0,180.0*
1,1,0.00000,-0.01504,0.01701*
1,1,0.00000,0.01504,0.01701*
1,1,0.00000,0.01504,-0.01701*
1,1,0.00000,-0.01504,-0.01701*
%
%ADD37ROUNDEDRECTD37*%
G04:AMPARAMS|DCode=38|XSize=20.13mil|YSize=8.32mil|CornerRadius=0mil|HoleSize=0mil|Usage=FLASHONLY|Rotation=180.000|XOffset=0mil|YOffset=0mil|HoleType=Round|Shape=RoundedRectangle|*
%AMROUNDEDRECTD38*
21,1,0.02013,0.00832,0,0,180.0*
21,1,0.02013,0.00832,0,0,180.0*
1,1,0.00000,-0.01006,0.00416*
1,1,0.00000,0.01006,0.00416*
1,1,0.00000,0.01006,-0.00416*
1,1,0.00000,-0.01006,-0.00416*
%
%ADD38ROUNDEDRECTD38*%
G04:AMPARAMS|DCode=39|XSize=20.13mil|YSize=8.32mil|CornerRadius=0mil|HoleSize=0mil|Usage=FLASHONLY|Rotation=90.000|XOffset=0mil|YOffset=0mil|HoleType=Round|Shape=RoundedRectangle|*
%AMROUNDEDRECTD39*
21,1,0.02013,0.00832,0,0,90.0*
21,1,0.02013,0.00832,0,0,90.0*
1,1,0.00000,0.00416,0.01006*
1,1,0.00000,0.00416,-0.01006*
1,1,0.00000,-0.00416,-0.01006*
1,1,0.00000,-0.00416,0.01006*
%
%ADD39ROUNDEDRECTD39*%
G04:AMPARAMS|DCode=40|XSize=15.85mil|YSize=31.21mil|CornerRadius=0mil|HoleSize=0mil|Usage=FLASHONLY|Rotation=90.000|XOffset=0mil|YOffset=0mil|HoleType=Round|Shape=RoundedRectangle|*
%AMROUNDEDRECTD40*
21,1,0.01585,0.03121,0,0,90.0*
21,1,0.01585,0.03121,0,0,90.0*
1,1,0.00000,0.01560,0.00793*
1,1,0.00000,0.01560,-0.00793*
1,1,0.00000,-0.01560,-0.00793*
1,1,0.00000,-0.01560,0.00793*
%
%ADD40ROUNDEDRECTD40*%
G04:AMPARAMS|DCode=41|XSize=21.35mil|YSize=21.35mil|CornerRadius=0mil|HoleSize=0mil|Usage=FLASHONLY|Rotation=270.000|XOffset=0mil|YOffset=0mil|HoleType=Round|Shape=RoundedRectangle|*
%AMROUNDEDRECTD41*
21,1,0.02135,0.02135,0,0,270.0*
21,1,0.02135,0.02135,0,0,270.0*
1,1,0.00000,-0.01067,-0.01067*
1,1,0.00000,-0.01067,0.01067*
1,1,0.00000,0.01067,0.01067*
1,1,0.00000,0.01067,-0.01067*
%
%ADD41ROUNDEDRECTD41*%
G04:AMPARAMS|DCode=42|XSize=30.97mil|YSize=27.03mil|CornerRadius=0mil|HoleSize=0mil|Usage=FLASHONLY|Rotation=90.000|XOffset=0mil|YOffset=0mil|HoleType=Round|Shape=RoundedRectangle|*
%AMROUNDEDRECTD42*
21,1,0.03097,0.02703,0,0,90.0*
21,1,0.03097,0.02703,0,0,90.0*
1,1,0.00000,0.01351,0.01548*
1,1,0.00000,0.01351,-0.01548*
1,1,0.00000,-0.01351,-0.01548*
1,1,0.00000,-0.01351,0.01548*
%
%ADD42ROUNDEDRECTD42*%
G04:AMPARAMS|DCode=43|XSize=30.08mil|YSize=34.01mil|CornerRadius=0mil|HoleSize=0mil|Usage=FLASHONLY|Rotation=270.000|XOffset=0mil|YOffset=0mil|HoleType=Round|Shape=RoundedRectangle|*
%AMROUNDEDRECTD43*
21,1,0.03008,0.03401,0,0,270.0*
21,1,0.03008,0.03401,0,0,270.0*
1,1,0.00000,-0.01701,-0.01504*
1,1,0.00000,-0.01701,0.01504*
1,1,0.00000,0.01701,0.01504*
1,1,0.00000,0.01701,-0.01504*
%
%ADD43ROUNDEDRECTD43*%
G04:AMPARAMS|DCode=44|XSize=15.24mil|YSize=36.9mil|CornerRadius=0mil|HoleSize=0mil|Usage=FLASHONLY|Rotation=180.000|XOffset=0mil|YOffset=0mil|HoleType=Round|Shape=RoundedRectangle|*
%AMROUNDEDRECTD44*
21,1,0.01524,0.03690,0,0,180.0*
21,1,0.01524,0.03690,0,0,180.0*
1,1,0.00000,-0.00762,0.01845*
1,1,0.00000,0.00762,0.01845*
1,1,0.00000,0.00762,-0.01845*
1,1,0.00000,-0.00762,-0.01845*
%
%ADD44ROUNDEDRECTD44*%
G04:AMPARAMS|DCode=45|XSize=64.83mil|YSize=37.27mil|CornerRadius=0mil|HoleSize=0mil|Usage=FLASHONLY|Rotation=0.000|XOffset=0mil|YOffset=0mil|HoleType=Round|Shape=RoundedRectangle|*
%AMROUNDEDRECTD45*
21,1,0.06483,0.03727,0,0,0.0*
21,1,0.06483,0.03727,0,0,0.0*
1,1,0.00000,0.03242,-0.01864*
1,1,0.00000,-0.03242,-0.01864*
1,1,0.00000,-0.03242,0.01864*
1,1,0.00000,0.03242,0.01864*
%
%ADD45ROUNDEDRECTD45*%
G04:AMPARAMS|DCode=46|XSize=17.31mil|YSize=8.46mil|CornerRadius=0mil|HoleSize=0mil|Usage=FLASHONLY|Rotation=90.000|XOffset=0mil|YOffset=0mil|HoleType=Round|Shape=RoundedRectangle|*
%AMROUNDEDRECTD46*
21,1,0.01731,0.00846,0,0,90.0*
21,1,0.01731,0.00846,0,0,90.0*
1,1,0.00000,0.00423,0.00866*
1,1,0.00000,0.00423,-0.00866*
1,1,0.00000,-0.00423,-0.00866*
1,1,0.00000,-0.00423,0.00866*
%
%ADD46ROUNDEDRECTD46*%
G04:AMPARAMS|DCode=47|XSize=47.55mil|YSize=79.04mil|CornerRadius=0mil|HoleSize=0mil|Usage=FLASHONLY|Rotation=90.000|XOffset=0mil|YOffset=0mil|HoleType=Round|Shape=RoundedRectangle|*
%AMROUNDEDRECTD47*
21,1,0.04755,0.07904,0,0,90.0*
21,1,0.04755,0.07904,0,0,90.0*
1,1,0.00000,0.03952,0.02377*
1,1,0.00000,0.03952,-0.02377*
1,1,0.00000,-0.03952,-0.02377*
1,1,0.00000,-0.03952,0.02377*
%
%ADD47ROUNDEDRECTD47*%
G04:AMPARAMS|DCode=48|XSize=11.65mil|YSize=17.56mil|CornerRadius=0mil|HoleSize=0mil|Usage=FLASHONLY|Rotation=0.000|XOffset=0mil|YOffset=0mil|HoleType=Round|Shape=RoundedRectangle|*
%AMROUNDEDRECTD48*
21,1,0.01165,0.01756,0,0,0.0*
21,1,0.01165,0.01756,0,0,0.0*
1,1,0.00000,0.00583,-0.00878*
1,1,0.00000,-0.00583,-0.00878*
1,1,0.00000,-0.00583,0.00878*
1,1,0.00000,0.00583,0.00878*
%
%ADD48ROUNDEDRECTD48*%
G04:AMPARAMS|DCode=49|XSize=34.63mil|YSize=16.92mil|CornerRadius=0mil|HoleSize=0mil|Usage=FLASHONLY|Rotation=270.000|XOffset=0mil|YOffset=0mil|HoleType=Round|Shape=RoundedRectangle|*
%AMROUNDEDRECTD49*
21,1,0.03463,0.01692,0,0,270.0*
21,1,0.03463,0.01692,0,0,270.0*
1,1,0.00000,-0.00846,-0.01732*
1,1,0.00000,-0.00846,0.01732*
1,1,0.00000,0.00846,0.01732*
1,1,0.00000,0.00846,-0.01732*
%
%ADD49ROUNDEDRECTD49*%
G04:AMPARAMS|DCode=50|XSize=26.33mil|YSize=63.74mil|CornerRadius=0mil|HoleSize=0mil|Usage=FLASHONLY|Rotation=0.000|XOffset=0mil|YOffset=0mil|HoleType=Round|Shape=RoundedRectangle|*
%AMROUNDEDRECTD50*
21,1,0.02633,0.06374,0,0,0.0*
21,1,0.02633,0.06374,0,0,0.0*
1,1,0.00000,0.01317,-0.03187*
1,1,0.00000,-0.01317,-0.03187*
1,1,0.00000,-0.01317,0.03187*
1,1,0.00000,0.01317,0.03187*
%
%ADD50ROUNDEDRECTD50*%
G04:AMPARAMS|DCode=51|XSize=53.72mil|YSize=106.87mil|CornerRadius=0mil|HoleSize=0mil|Usage=FLASHONLY|Rotation=270.000|XOffset=0mil|YOffset=0mil|HoleType=Round|Shape=RoundedRectangle|*
%AMROUNDEDRECTD51*
21,1,0.05372,0.10687,0,0,270.0*
21,1,0.05372,0.10687,0,0,270.0*
1,1,0.00000,-0.05344,-0.02686*
1,1,0.00000,-0.05344,0.02686*
1,1,0.00000,0.05344,0.02686*
1,1,0.00000,0.05344,-0.02686*
%
%ADD51ROUNDEDRECTD51*%
G04:AMPARAMS|DCode=52|XSize=11.81mil|YSize=15.75mil|CornerRadius=0mil|HoleSize=0mil|Usage=FLASHONLY|Rotation=90.000|XOffset=0mil|YOffset=0mil|HoleType=Round|Shape=RoundedRectangle|*
%AMROUNDEDRECTD52*
21,1,0.01181,0.01575,0,0,90.0*
21,1,0.01181,0.01575,0,0,90.0*
1,1,0.00000,0.00787,0.00591*
1,1,0.00000,0.00787,-0.00591*
1,1,0.00000,-0.00787,-0.00591*
1,1,0.00000,-0.00787,0.00591*
%
%ADD52ROUNDEDRECTD52*%
G04:AMPARAMS|DCode=53|XSize=36.5mil|YSize=16.81mil|CornerRadius=0mil|HoleSize=0mil|Usage=FLASHONLY|Rotation=270.000|XOffset=0mil|YOffset=0mil|HoleType=Round|Shape=RoundedRectangle|*
%AMROUNDEDRECTD53*
21,1,0.03650,0.01681,0,0,270.0*
21,1,0.03650,0.01681,0,0,270.0*
1,1,0.00000,-0.00841,-0.01825*
1,1,0.00000,-0.00841,0.01825*
1,1,0.00000,0.00841,0.01825*
1,1,0.00000,0.00841,-0.01825*
%
%ADD53ROUNDEDRECTD53*%
%ADD54R,0.01490X0.00702*%
%ADD55R,0.00702X0.01490*%
G36*
X151669Y290454D02*
X151659Y290447D01*
X151618Y290410D01*
X151580Y290369D01*
X151548Y290323D01*
X151521Y290274D01*
X151500Y290223D01*
X151485Y290170D01*
X151475Y290115D01*
X151472Y290059D01*
Y289571D01*
X150890D01*
Y290059D01*
X150887Y290115D01*
X150878Y290170D01*
X150862Y290223D01*
X150841Y290274D01*
X150814Y290323D01*
X150782Y290369D01*
X150745Y290410D01*
X150703Y290447D01*
X150658Y290479D01*
X150609Y290506D01*
X150558Y290528D01*
X150504Y290543D01*
X150449Y290552D01*
X150394Y290556D01*
X148819D01*
X148763Y290552D01*
X148708Y290543D01*
X148655Y290528D01*
X148603Y290506D01*
X148555Y290479D01*
X148509Y290447D01*
X148468Y290410D01*
X148431Y290369D01*
X148399Y290323D01*
X148372Y290274D01*
X148350Y290223D01*
X148335Y290170D01*
X148326Y290115D01*
X148322Y290059D01*
Y289571D01*
X147740D01*
Y290059D01*
X147737Y290115D01*
X147728Y290170D01*
X147713Y290223D01*
X147691Y290274D01*
X147664Y290323D01*
X147632Y290369D01*
X147595Y290410D01*
X147554Y290447D01*
X147544Y290454D01*
Y291925D01*
X151669D01*
Y290454D01*
D02*
G37*
G36*
X286718Y289266D02*
X283754D01*
Y290945D01*
X283751Y291012D01*
X283741Y291078D01*
X283725Y291143D01*
X283702Y291207D01*
X283674Y291267D01*
X283639Y291325D01*
X283599Y291379D01*
X283554Y291428D01*
X283505Y291473D01*
X283451Y291513D01*
X283393Y291548D01*
X283332Y291577D01*
X283269Y291599D01*
X283204Y291615D01*
X283138Y291625D01*
X283071Y291629D01*
X282770D01*
Y291836D01*
X283071D01*
X283138Y291839D01*
X283204Y291849D01*
X283269Y291865D01*
X283332Y291888D01*
X283393Y291917D01*
X283451Y291951D01*
X283505Y291991D01*
X283554Y292036D01*
X283599Y292086D01*
X283639Y292140D01*
X283674Y292197D01*
X283702Y292258D01*
X283725Y292321D01*
X283741Y292386D01*
X283751Y292453D01*
X283754Y292520D01*
Y294198D01*
X286718D01*
Y289266D01*
D02*
G37*
G36*
X347723Y220185D02*
X347499Y219962D01*
X347315Y219777D01*
X344521D01*
Y230027D01*
X347723D01*
Y220185D01*
D02*
G37*
G36*
X341184Y219623D02*
X339170D01*
Y230181D01*
X341184D01*
Y219623D01*
D02*
G37*
D25*
X194698Y239983D02*
D03*
Y246676D02*
D03*
X188005D02*
D03*
Y239983D02*
D03*
D26*
X251462Y238368D02*
D03*
Y232893D02*
D03*
X240667D02*
D03*
Y238368D02*
D03*
D27*
X359449Y237795D02*
D03*
X351969D02*
D03*
X350590Y206693D02*
D03*
X358071D02*
D03*
X343898Y251772D02*
D03*
X336417D02*
D03*
X351969Y246654D02*
D03*
X359449D02*
D03*
D28*
X307189Y252350D02*
D03*
Y245657D02*
D03*
X188399Y218133D02*
D03*
Y211440D02*
D03*
X171240Y193677D02*
D03*
Y200370D02*
D03*
X205512Y252559D02*
D03*
Y259252D02*
D03*
X181509Y211440D02*
D03*
Y218133D02*
D03*
X174619Y225219D02*
D03*
Y231912D02*
D03*
X323819Y274016D02*
D03*
Y267323D02*
D03*
X299213D02*
D03*
Y274016D02*
D03*
X300492Y245650D02*
D03*
Y252343D02*
D03*
X376969Y269291D02*
D03*
Y275984D02*
D03*
X320655Y245735D02*
D03*
Y252428D02*
D03*
X327389Y245696D02*
D03*
Y252389D02*
D03*
X149606Y283268D02*
D03*
Y276575D02*
D03*
X139764Y278937D02*
D03*
Y272244D02*
D03*
X159449Y258071D02*
D03*
Y264764D02*
D03*
X139764Y258071D02*
D03*
Y264764D02*
D03*
X159449Y278937D02*
D03*
Y272244D02*
D03*
Y249410D02*
D03*
Y242717D02*
D03*
X370276Y230315D02*
D03*
X363976D02*
D03*
X194095Y290551D02*
D03*
Y283858D02*
D03*
X216535Y284252D02*
D03*
Y290945D02*
D03*
X234252Y284252D02*
D03*
Y290945D02*
D03*
X269221Y284424D02*
D03*
Y291117D02*
D03*
X313942Y252369D02*
D03*
Y245676D02*
D03*
D29*
X229429Y224213D02*
D03*
X231988D02*
D03*
X234547D02*
D03*
X237106D02*
D03*
X239665D02*
D03*
X242224D02*
D03*
X244783D02*
D03*
X247342D02*
D03*
X249902D02*
D03*
X252461D02*
D03*
X255020D02*
D03*
X257579D02*
D03*
X260138D02*
D03*
X262697D02*
D03*
X229429Y247047D02*
D03*
X231988D02*
D03*
X234547D02*
D03*
X237106D02*
D03*
X239665D02*
D03*
X242224D02*
D03*
X244783D02*
D03*
X247342D02*
D03*
X249902D02*
D03*
X252461D02*
D03*
X255020D02*
D03*
X257579D02*
D03*
X260138D02*
D03*
X262697D02*
D03*
D30*
X313976Y212205D02*
D03*
Y235433D02*
D03*
D31*
X343577Y209252D02*
D03*
X336884D02*
D03*
X182099Y225613D02*
D03*
X188792D02*
D03*
X291494Y254043D02*
D03*
X284801D02*
D03*
X292675Y217232D02*
D03*
X285982D02*
D03*
X297835Y289980D02*
D03*
X304528D02*
D03*
X220472Y235039D02*
D03*
X213779D02*
D03*
X152953Y233169D02*
D03*
X146260D02*
D03*
X157087Y286221D02*
D03*
Y292520D02*
D03*
X142126Y286221D02*
D03*
Y292520D02*
D03*
X336811Y236614D02*
D03*
X343504D02*
D03*
X336811Y243701D02*
D03*
X343504D02*
D03*
D32*
X276772Y291339D02*
D03*
Y283858D02*
D03*
X225394Y291339D02*
D03*
Y283858D02*
D03*
D33*
X290846Y318993D02*
D03*
X285925D02*
D03*
X281004D02*
D03*
X276083D02*
D03*
X245571D02*
D03*
X240650D02*
D03*
X235728D02*
D03*
X230807D02*
D03*
D34*
X298130Y331592D02*
D03*
X268799D02*
D03*
X252854D02*
D03*
X223524D02*
D03*
D35*
X208733Y331413D02*
D03*
X169560D02*
D03*
D36*
X201450Y318815D02*
D03*
X196528D02*
D03*
X191607D02*
D03*
X186686D02*
D03*
X181765D02*
D03*
X176843D02*
D03*
D37*
X139370Y243307D02*
D03*
Y249606D02*
D03*
X188957Y193874D02*
D03*
Y200173D02*
D03*
X369094Y275787D02*
D03*
Y269488D02*
D03*
X210531Y200000D02*
D03*
Y193701D02*
D03*
X171850Y238779D02*
D03*
Y245079D02*
D03*
X361221Y275787D02*
D03*
Y269488D02*
D03*
X260630Y259449D02*
D03*
Y265748D02*
D03*
X253543Y259449D02*
D03*
Y265748D02*
D03*
X246457Y259449D02*
D03*
Y265748D02*
D03*
X239370Y259449D02*
D03*
Y265748D02*
D03*
X161417Y227165D02*
D03*
Y233465D02*
D03*
X137795Y227165D02*
D03*
Y233465D02*
D03*
X342520Y200394D02*
D03*
Y194095D02*
D03*
D38*
X182099Y236440D02*
D03*
Y238408D02*
D03*
Y240377D02*
D03*
Y242345D02*
D03*
X200603Y244314D02*
D03*
Y246282D02*
D03*
Y248251D02*
D03*
Y250219D02*
D03*
X182099Y244314D02*
D03*
Y246282D02*
D03*
Y248251D02*
D03*
Y250219D02*
D03*
X200603Y236440D02*
D03*
Y238408D02*
D03*
Y240377D02*
D03*
Y242345D02*
D03*
D39*
X184462Y234078D02*
D03*
X186430D02*
D03*
X188399D02*
D03*
X190367D02*
D03*
X192336D02*
D03*
X194304D02*
D03*
X196273D02*
D03*
X198241D02*
D03*
Y252582D02*
D03*
X196273D02*
D03*
X194304D02*
D03*
X192336D02*
D03*
X184462D02*
D03*
X190367D02*
D03*
X188399D02*
D03*
X186430D02*
D03*
D40*
X195866Y196850D02*
D03*
X203543Y200591D02*
D03*
Y193110D02*
D03*
D41*
X182264Y200626D02*
D03*
Y193421D02*
D03*
X177933Y200626D02*
D03*
Y193421D02*
D03*
D42*
X200210Y225613D02*
D03*
X195387D02*
D03*
X200210Y219215D02*
D03*
X195387D02*
D03*
D43*
X196076Y211833D02*
D03*
X202375D02*
D03*
X332480Y274606D02*
D03*
X338779D02*
D03*
Y266732D02*
D03*
X332480D02*
D03*
X291339Y261614D02*
D03*
X285039D02*
D03*
X286024Y225197D02*
D03*
X292323D02*
D03*
X286024Y233268D02*
D03*
X292323D02*
D03*
X225892Y259252D02*
D03*
X232191D02*
D03*
X363976Y215551D02*
D03*
X370276D02*
D03*
X298031Y297854D02*
D03*
X304331D02*
D03*
X220276Y242126D02*
D03*
X213976D02*
D03*
X356496Y197835D02*
D03*
X350197D02*
D03*
X220276Y249410D02*
D03*
X213976D02*
D03*
X298031Y305459D02*
D03*
X304331D02*
D03*
X370276Y223425D02*
D03*
X363976D02*
D03*
D44*
X308090Y265602D02*
D03*
X311831D02*
D03*
X315571D02*
D03*
X308090Y275839D02*
D03*
X315571D02*
D03*
D45*
X350394Y264961D02*
D03*
Y276378D02*
D03*
D46*
X148327Y251327D02*
D03*
X153445Y240602D02*
D03*
X150886D02*
D03*
X145768Y240600D02*
D03*
X148327Y240602D02*
D03*
X150886Y251327D02*
D03*
X145768D02*
D03*
X153445D02*
D03*
D47*
X149606Y245965D02*
D03*
D48*
X151181Y294685D02*
D03*
X148031D02*
D03*
D49*
X151575Y269685D02*
D03*
X147638D02*
D03*
Y257677D02*
D03*
X151575D02*
D03*
D50*
X261024Y299606D02*
D03*
X251969D02*
D03*
X242913D02*
D03*
D51*
X251969Y275590D02*
D03*
D52*
X289370Y289173D02*
D03*
Y294291D02*
D03*
D53*
X200984Y282480D02*
D03*
X208465Y292717D02*
D03*
X204724D02*
D03*
X200984D02*
D03*
X208465Y282480D02*
D03*
D54*
X350689Y219252D02*
D03*
Y225158D02*
D03*
Y223189D02*
D03*
Y221221D02*
D03*
X336358Y219252D02*
D03*
Y221221D02*
D03*
Y223189D02*
D03*
Y225158D02*
D03*
Y227127D02*
D03*
X350689Y227127D02*
D03*
X336358Y229095D02*
D03*
X350689Y229095D02*
D03*
D55*
X348425Y217008D02*
D03*
X346457D02*
D03*
X344488D02*
D03*
X342520D02*
D03*
X340551D02*
D03*
X338583D02*
D03*
X338622Y231851D02*
D03*
X340591D02*
D03*
X344488Y231851D02*
D03*
X346457D02*
D03*
X348425D02*
D03*
M02*
