G04*
G04 #@! TF.GenerationSoftware,Altium Limited,Altium Designer,24.7.2 (38)*
G04*
G04 Layer_Color=128*
%FSLAX25Y25*%
%MOIN*%
G70*
G04*
G04 #@! TF.SameCoordinates,AB7849DE-EAC8-4354-A705-FC1E97C67EB3*
G04*
G04*
G04 #@! TF.FilePolarity,Positive*
G04*
G01*
G75*
%ADD21C,0.00500*%
D21*
X139961Y321850D02*
X153347D01*
X146654Y315158D02*
Y328543D01*
X328346Y292323D02*
X335039D01*
X331693Y288976D02*
Y295669D01*
X361221Y331693D02*
X365158D01*
X363189Y329724D02*
Y333661D01*
X348031Y292323D02*
X354724D01*
X351378Y288976D02*
Y295669D01*
X317913Y331693D02*
X321850D01*
X319882Y329724D02*
Y333661D01*
X258537Y193937D02*
X263037D01*
X260787Y191687D02*
Y196187D01*
X248537Y193937D02*
X253037D01*
X250787Y191687D02*
Y196187D01*
X238537Y193937D02*
X243037D01*
X240787Y191687D02*
Y196187D01*
X228537Y193937D02*
X233037D01*
X230787Y191687D02*
Y196187D01*
X258537Y203937D02*
X263037D01*
X260787Y201687D02*
Y206187D01*
X248537Y203937D02*
X253037D01*
X250787Y201687D02*
Y206187D01*
X238537Y203937D02*
X243037D01*
X240787Y201687D02*
Y206187D01*
X258537Y213937D02*
X263037D01*
X260787Y211687D02*
Y216187D01*
X248537Y213937D02*
X253037D01*
X250787Y211687D02*
Y216187D01*
X238537Y213937D02*
X243037D01*
X240787Y211687D02*
Y216187D01*
X228537Y203937D02*
X233037D01*
X230787Y201687D02*
Y206187D01*
X228537Y213937D02*
X233037D01*
X230787Y211687D02*
Y216187D01*
X380118Y201772D02*
X393504D01*
X386811Y195079D02*
Y208465D01*
X380118Y321850D02*
X393504D01*
X386811Y315158D02*
Y328543D01*
X139961Y201772D02*
X153347D01*
X146654Y195079D02*
Y208465D01*
X332382Y225984D02*
X333366D01*
X332874Y225492D02*
Y226476D01*
X342618Y274410D02*
X343602D01*
X343110Y273917D02*
Y274902D01*
X328051Y278150D02*
X329035D01*
X328543Y277658D02*
Y278642D01*
X294193Y276772D02*
X295177D01*
X294685Y276279D02*
Y277264D01*
X285728Y272441D02*
X286713D01*
X286221Y271949D02*
Y272933D01*
X235138Y306299D02*
X236122D01*
X235630Y305807D02*
Y306791D01*
X232382Y312992D02*
X233366D01*
X232874Y312500D02*
Y313484D01*
X274311Y313189D02*
X275295D01*
X274803Y312697D02*
Y313681D01*
X276041Y310827D02*
X277026D01*
X276534Y310335D02*
Y311319D01*
X235138Y309055D02*
X236122D01*
X235630Y308563D02*
Y309547D01*
X235138Y312795D02*
X236122D01*
X235630Y312303D02*
Y313287D01*
X201083Y314341D02*
X202067D01*
X201575Y313848D02*
Y314833D01*
X216437Y314961D02*
X217421D01*
X216929Y314469D02*
Y315453D01*
X265256Y306225D02*
X266240D01*
X265748Y305733D02*
Y306717D01*
X251476Y306225D02*
X252461D01*
X251969Y305733D02*
Y306717D01*
X354220Y283441D02*
X355204D01*
X354712Y282949D02*
Y283933D01*
X211701Y305488D02*
X212685D01*
X212193Y304996D02*
Y305980D01*
X152461Y287205D02*
X153445D01*
X152953Y286713D02*
Y287697D01*
X145952Y287181D02*
X146937D01*
X146445Y286689D02*
Y287673D01*
X337685Y194071D02*
X338669D01*
X338177Y193579D02*
Y194563D01*
X268787Y279307D02*
X269771D01*
X269279Y278815D02*
Y279799D01*
X291031Y249386D02*
X292016D01*
X291523Y248894D02*
Y249878D01*
X177264Y265551D02*
X178248D01*
X177756Y265059D02*
Y266043D01*
X190638Y278520D02*
X191622D01*
X191130Y278027D02*
Y279012D01*
X196161Y278543D02*
X197146D01*
X196653Y278051D02*
Y279035D01*
X202724Y215902D02*
X203708D01*
X203216Y215410D02*
Y216394D01*
X207972Y210433D02*
X208957D01*
X208465Y209941D02*
Y210925D01*
X279414Y220499D02*
X280398D01*
X279906Y220007D02*
Y220991D01*
X368209Y205118D02*
X369193D01*
X368701Y204626D02*
Y205610D01*
X282760Y257901D02*
X283744D01*
X283252Y257409D02*
Y258393D01*
X311303Y261247D02*
X312287D01*
X311795Y260755D02*
Y261740D01*
X303429Y267350D02*
X304414D01*
X303921Y266858D02*
Y267842D01*
X358941Y251995D02*
X359925D01*
X359433Y251503D02*
Y252488D01*
X262500Y237992D02*
X263484D01*
X262992Y237500D02*
Y238484D01*
X267815Y244291D02*
X268799D01*
X268307Y243799D02*
Y244783D01*
X340256Y204372D02*
X341240D01*
X340748Y203880D02*
Y204864D01*
X181004Y255118D02*
X181988D01*
X181496Y254626D02*
Y255610D01*
X212894Y259842D02*
X213878D01*
X213386Y259350D02*
Y260335D01*
X231398Y254921D02*
X232382D01*
X231890Y254429D02*
Y255413D01*
X215453Y253937D02*
X216437D01*
X215945Y253445D02*
Y254429D01*
X214469Y189370D02*
X215453D01*
X214961Y188878D02*
Y189862D01*
X210925Y188779D02*
X211909D01*
X211417Y188287D02*
Y189272D01*
X175689Y242520D02*
X176673D01*
X176181Y242028D02*
Y243012D01*
X162894Y242717D02*
X163878D01*
X163386Y242224D02*
Y243209D01*
X178279Y239007D02*
X179263D01*
X178771Y238515D02*
Y239499D01*
X169553Y231890D02*
X170538D01*
X170046Y231398D02*
Y232382D01*
X178612Y228987D02*
X179596D01*
X179104Y228495D02*
Y229479D01*
X178612Y234252D02*
X179596D01*
X179104Y233760D02*
Y234744D01*
X175689Y249410D02*
X176673D01*
X176181Y248917D02*
Y249902D01*
X285925Y309842D02*
X286909D01*
X286417Y309350D02*
Y310335D01*
X232382Y263189D02*
X233366D01*
X232874Y262697D02*
Y263681D01*
X232382Y269094D02*
X233366D01*
X232874Y268602D02*
Y269587D01*
X275886Y233268D02*
X276870D01*
X276378Y232776D02*
Y233760D01*
X296358Y217323D02*
X297342D01*
X296850Y216831D02*
Y217815D01*
X296161Y225197D02*
X297146D01*
X296654Y224705D02*
Y225689D01*
X283957Y208465D02*
X284941D01*
X284449Y207972D02*
Y208957D01*
X325295Y194685D02*
X326279D01*
X325787Y194193D02*
Y195177D01*
X311516Y194685D02*
X312500D01*
X312008Y194193D02*
Y195177D01*
X297736Y194685D02*
X298721D01*
X298228Y194193D02*
Y195177D01*
X283957Y194685D02*
X284941D01*
X284449Y194193D02*
Y195177D01*
X332185Y201772D02*
X333169D01*
X332677Y201279D02*
Y202264D01*
X318406Y201772D02*
X319390D01*
X318898Y201279D02*
Y202264D01*
X304626Y201772D02*
X305610D01*
X305118Y201279D02*
Y202264D01*
X290846Y201772D02*
X291831D01*
X291339Y201279D02*
Y202264D01*
X277067Y201772D02*
X278051D01*
X277559Y201279D02*
Y202264D01*
X295571Y253937D02*
X296555D01*
X296063Y253445D02*
Y254429D01*
X326870Y256890D02*
X327854D01*
X327362Y256398D02*
Y257382D01*
X320177Y256890D02*
X321161D01*
X320669Y256398D02*
Y257382D01*
X313484Y256890D02*
X314469D01*
X313976Y256398D02*
Y257382D01*
X306791Y256890D02*
X307776D01*
X307283Y256398D02*
Y257382D01*
X300098Y256890D02*
X301083D01*
X300590Y256398D02*
Y257382D01*
X278098Y244350D02*
X279082D01*
X278590Y243858D02*
Y244842D01*
X245086Y324730D02*
X246071D01*
X245579Y324238D02*
Y325222D01*
X285728Y312598D02*
X286713D01*
X286221Y312106D02*
Y313090D01*
X294390Y310827D02*
X295374D01*
X294882Y310335D02*
Y311319D01*
X295768Y321850D02*
X296752D01*
X296260Y321358D02*
Y322342D01*
X290384Y324206D02*
X291369D01*
X290876Y323714D02*
Y324699D01*
X252966Y316675D02*
X253951D01*
X253459Y316183D02*
Y317167D01*
X260531Y327953D02*
X261516D01*
X261024Y327461D02*
Y328445D01*
X271161Y318898D02*
X272146D01*
X271654Y318406D02*
Y319390D01*
X260531Y318110D02*
X261516D01*
X261024Y317618D02*
Y318602D01*
X353330Y220604D02*
X354314D01*
X353822Y220112D02*
Y221096D01*
X162852Y261274D02*
X163837D01*
X163344Y260782D02*
Y261766D01*
X193405Y278346D02*
X194390D01*
X193898Y277854D02*
Y278839D01*
X188878Y291339D02*
X189862D01*
X189370Y290846D02*
Y291831D01*
X280217Y217913D02*
X281201D01*
X280709Y217421D02*
Y218406D01*
X332402Y228564D02*
X333387D01*
X332895Y228072D02*
Y229056D01*
X332972Y223311D02*
X333957D01*
X333465Y222819D02*
Y223803D01*
X267224Y225984D02*
X268209D01*
X267717Y225492D02*
Y226476D01*
X375295Y230315D02*
X376279D01*
X375787Y229823D02*
Y230807D01*
X374311Y223622D02*
X375295D01*
X374803Y223130D02*
Y224114D01*
X358169Y218898D02*
X359154D01*
X358661Y218406D02*
Y219390D01*
X353248Y224213D02*
X354232D01*
X353740Y223721D02*
Y224705D01*
X246752Y219882D02*
X247736D01*
X247244Y219390D02*
Y220374D01*
X244390Y219882D02*
X245374D01*
X244882Y219390D02*
Y220374D01*
X249114Y219882D02*
X250098D01*
X249606Y219390D02*
Y220374D01*
X242028Y219882D02*
X243012D01*
X242520Y219390D02*
Y220374D01*
X332185Y236614D02*
X333169D01*
X332677Y236122D02*
Y237106D01*
X332185Y243701D02*
X333169D01*
X332677Y243209D02*
Y244193D01*
X280020Y257874D02*
X281004D01*
X280512Y257382D02*
Y258366D01*
X339906Y213469D02*
X340891D01*
X340398Y212976D02*
Y213961D01*
X268996Y211221D02*
X269980D01*
X269488Y210728D02*
Y211713D01*
X245372Y215303D02*
X246356D01*
X245864Y214811D02*
Y215795D01*
X247717Y209328D02*
X248702D01*
X248209Y208836D02*
Y209820D01*
X262697Y209252D02*
X263681D01*
X263189Y208760D02*
Y209744D01*
X232972Y209055D02*
X233957D01*
X233465Y208563D02*
Y209547D01*
X243008Y209364D02*
X243993D01*
X243500Y208872D02*
Y209856D01*
X221949Y210827D02*
X222933D01*
X222441Y210335D02*
Y211319D01*
X223130Y204331D02*
X224114D01*
X223622Y203839D02*
Y204823D01*
X226476Y251969D02*
X227461D01*
X226969Y251476D02*
Y252461D01*
X204035Y233268D02*
X205020D01*
X204528Y232776D02*
Y233760D01*
X215532Y225546D02*
X216516D01*
X216024Y225054D02*
Y226039D01*
X181595Y271457D02*
X182579D01*
X182087Y270965D02*
Y271949D01*
X186319Y276378D02*
X187303D01*
X186811Y275886D02*
Y276870D01*
X155649Y246082D02*
X156633D01*
X156141Y245590D02*
Y246574D01*
X142380Y246471D02*
X143365D01*
X142873Y245979D02*
Y246963D01*
X262106Y252559D02*
X263090D01*
X262598Y252067D02*
Y253051D01*
X252461Y253937D02*
X253445D01*
X252953Y253445D02*
Y254429D01*
X249508Y253937D02*
X250492D01*
X250000Y253445D02*
Y254429D01*
X255807Y253740D02*
X256791D01*
X256299Y253248D02*
Y254232D01*
X257185Y251378D02*
X258169D01*
X257677Y250886D02*
Y251870D01*
X254717Y251174D02*
X255701D01*
X255209Y250682D02*
Y251667D01*
X252244Y251305D02*
X253228D01*
X252736Y250813D02*
Y251797D01*
X249604Y251373D02*
X250588D01*
X250096Y250881D02*
Y251865D01*
X258957Y253543D02*
X259941D01*
X259449Y253051D02*
Y254035D01*
X178642Y241929D02*
X179626D01*
X179134Y241437D02*
Y242421D01*
X235548Y235631D02*
X236533D01*
X236041Y235139D02*
Y236123D01*
X276476Y278346D02*
X277461D01*
X276969Y277854D02*
Y278839D01*
X199705Y229331D02*
X200689D01*
X200197Y228839D02*
Y229823D01*
X188484Y305709D02*
X189469D01*
X188976Y305217D02*
Y306201D01*
X183366Y298622D02*
X184350D01*
X183858Y298130D02*
Y299114D01*
X181595Y279528D02*
X182579D01*
X182087Y279035D02*
Y280020D01*
X204232Y282087D02*
X205217D01*
X204724Y281594D02*
Y282579D01*
X375689Y215945D02*
X376673D01*
X376181Y215453D02*
Y216437D01*
X230020Y235433D02*
X231004D01*
X230512Y234941D02*
Y235925D01*
X224311Y242126D02*
X225295D01*
X224803Y241634D02*
Y242618D01*
X224705Y233268D02*
X225689D01*
X225197Y232776D02*
Y233760D01*
X181988Y288976D02*
X182972D01*
X182480Y288484D02*
Y289469D01*
X173721Y269291D02*
X174705D01*
X174213Y268799D02*
Y269783D01*
X206201Y231299D02*
X207185D01*
X206693Y230807D02*
Y231791D01*
X208169Y244488D02*
X209154D01*
X208661Y243996D02*
Y244980D01*
X203839Y244882D02*
X204823D01*
X204331Y244390D02*
Y245374D01*
X206201Y247244D02*
X207185D01*
X206693Y246752D02*
Y247736D01*
X203642Y238386D02*
X204626D01*
X204134Y237894D02*
Y238878D01*
X207972Y240551D02*
X208957D01*
X208465Y240059D02*
Y241043D01*
X228954Y253884D02*
X229939D01*
X229446Y253392D02*
Y254376D01*
X196384Y243352D02*
X197368D01*
X196876Y242860D02*
Y243844D01*
X224114Y230512D02*
X225098D01*
X224606Y230020D02*
Y231004D01*
X212894Y225590D02*
X213878D01*
X213386Y225098D02*
Y226083D01*
X221949Y227756D02*
X222933D01*
X222441Y227264D02*
Y228248D01*
X220374Y271063D02*
X221358D01*
X220866Y270571D02*
Y271555D01*
X224902Y249606D02*
X225886D01*
X225394Y249114D02*
Y250098D01*
X149114Y287402D02*
X150098D01*
X149606Y286910D02*
Y287894D01*
X190882Y237805D02*
X191866D01*
X191374Y237313D02*
Y238297D01*
X219390Y225787D02*
X220374D01*
X219882Y225295D02*
Y226279D01*
X255600Y235631D02*
X256585D01*
X256093Y235139D02*
Y236123D01*
X245574Y235631D02*
X246559D01*
X246067Y235139D02*
Y236123D01*
X178412Y247245D02*
X179396D01*
X178904Y246752D02*
Y247737D01*
X178412Y244768D02*
X179396D01*
X178904Y244276D02*
Y245260D01*
X189665Y230315D02*
X190650D01*
X190157Y229823D02*
Y230807D01*
X238878Y252165D02*
X239862D01*
X239370Y251673D02*
Y252658D01*
X247146Y252165D02*
X248130D01*
X247638Y251673D02*
Y252658D01*
X341976Y296478D02*
X342961D01*
X342469Y295986D02*
Y296970D01*
X188693Y326877D02*
X189677D01*
X189185Y326385D02*
Y327369D01*
X197933Y326772D02*
X198917D01*
X198425Y326279D02*
Y327264D01*
X193209Y326772D02*
X194193D01*
X193701Y326279D02*
Y327264D01*
X184153Y326772D02*
X185138D01*
X184646Y326279D02*
Y327264D01*
X195965Y324803D02*
X196949D01*
X196457Y324311D02*
Y325295D01*
X191240Y324803D02*
X192224D01*
X191732Y324311D02*
Y325295D01*
X186122Y324803D02*
X187106D01*
X186614Y324311D02*
Y325295D01*
X178248Y250394D02*
X179232D01*
X178740Y249902D02*
Y250886D01*
X181398Y324803D02*
X182382D01*
X181890Y324311D02*
Y325295D01*
X386319Y211024D02*
X387303D01*
X386811Y210531D02*
Y211516D01*
X377067Y201772D02*
X378051D01*
X377559Y201279D02*
Y202264D01*
X386319Y192520D02*
X387303D01*
X386811Y192028D02*
Y193012D01*
X395571Y201772D02*
X396555D01*
X396063Y201279D02*
Y202264D01*
X392618Y208268D02*
X393602D01*
X393110Y207776D02*
Y208760D01*
X379626Y208268D02*
X380610D01*
X380118Y207776D02*
Y208760D01*
X379626Y195276D02*
X380610D01*
X380118Y194783D02*
Y195768D01*
X392618Y195276D02*
X393602D01*
X393110Y194783D02*
Y195768D01*
X386319Y331102D02*
X387303D01*
X386811Y330610D02*
Y331594D01*
X377067Y321850D02*
X378051D01*
X377559Y321358D02*
Y322342D01*
X386319Y312598D02*
X387303D01*
X386811Y312106D02*
Y313090D01*
X395571Y321850D02*
X396555D01*
X396063Y321358D02*
Y322342D01*
X392618Y328346D02*
X393602D01*
X393110Y327854D02*
Y328839D01*
X379626Y328346D02*
X380610D01*
X380118Y327854D02*
Y328839D01*
X379626Y315354D02*
X380610D01*
X380118Y314862D02*
Y315846D01*
X392618Y315354D02*
X393602D01*
X393110Y314862D02*
Y315846D01*
X146161Y211024D02*
X147146D01*
X146654Y210531D02*
Y211516D01*
X136909Y201772D02*
X137894D01*
X137402Y201279D02*
Y202264D01*
X146161Y192520D02*
X147146D01*
X146654Y192028D02*
Y193012D01*
X155413Y201772D02*
X156398D01*
X155905Y201279D02*
Y202264D01*
X152461Y208268D02*
X153445D01*
X152953Y207776D02*
Y208760D01*
X139469Y208268D02*
X140453D01*
X139961Y207776D02*
Y208760D01*
X139469Y195276D02*
X140453D01*
X139961Y194783D02*
Y195768D01*
X152461Y195276D02*
X153445D01*
X152953Y194783D02*
Y195768D01*
X152461Y315354D02*
X153445D01*
X152953Y314862D02*
Y315846D01*
X139469Y315354D02*
X140453D01*
X139961Y314862D02*
Y315846D01*
X139469Y328346D02*
X140453D01*
X139961Y327854D02*
Y328839D01*
X152461Y328346D02*
X153445D01*
X152953Y327854D02*
Y328839D01*
X155413Y321850D02*
X156398D01*
X155905Y321358D02*
Y322342D01*
X146161Y312598D02*
X147146D01*
X146654Y312106D02*
Y313090D01*
X136909Y321850D02*
X137894D01*
X137402Y321358D02*
Y322342D01*
X146161Y331102D02*
X147146D01*
X146654Y330610D02*
Y331594D01*
X190837Y248854D02*
X191821D01*
X191329Y248362D02*
Y249346D01*
X194155Y256299D02*
X195140D01*
X194648Y255807D02*
Y256791D01*
X191634Y256299D02*
X192618D01*
X192126Y255807D02*
Y256791D01*
X352854Y212598D02*
X353839D01*
X353346Y212106D02*
Y213090D01*
X320374Y262795D02*
X321358D01*
X320866Y262303D02*
Y263287D01*
X158957Y238189D02*
X159941D01*
X159449Y237697D02*
Y238681D01*
X200748Y287402D02*
X201732D01*
X201240Y286910D02*
Y287894D01*
X245329Y198764D02*
X246313D01*
X245821Y198272D02*
Y199256D01*
X269193Y190945D02*
X270177D01*
X269685Y190453D02*
Y191437D01*
X269193Y204724D02*
X270177D01*
X269685Y204232D02*
Y205217D01*
X329232Y259842D02*
X330217D01*
X329724Y259350D02*
Y260335D01*
X196100Y259384D02*
X197084D01*
X196592Y258892D02*
Y259876D01*
X192781Y259428D02*
X193765D01*
X193273Y258936D02*
Y259920D01*
X189469Y268701D02*
X190453D01*
X189961Y268209D02*
Y269193D01*
X200098Y270276D02*
X201083D01*
X200591Y269783D02*
Y270768D01*
X171752Y272638D02*
X172736D01*
X172244Y272146D02*
Y273130D01*
X171752Y286417D02*
X172736D01*
X172244Y285925D02*
Y286910D01*
X163681Y286221D02*
X164665D01*
X164173Y285728D02*
Y286713D01*
X163878Y293307D02*
X164862D01*
X164370Y292815D02*
Y293799D01*
X164862Y304134D02*
X165847D01*
X165354Y303642D02*
Y304626D01*
X170768Y301181D02*
X171752D01*
X171260Y300689D02*
Y301673D01*
X158759Y298307D02*
X159743D01*
X159251Y297815D02*
Y298799D01*
X366634Y192913D02*
X367618D01*
X367126Y192421D02*
Y193405D01*
X396161Y333661D02*
X397146D01*
X396654Y333169D02*
Y334154D01*
X379429Y335630D02*
X380413D01*
X379921Y335138D02*
Y336122D01*
X369587Y335630D02*
X370571D01*
X370079Y335138D02*
Y336122D01*
X355807Y335630D02*
X356791D01*
X356299Y335138D02*
Y336122D01*
X342028Y335630D02*
X343012D01*
X342520Y335138D02*
Y336122D01*
X328248Y335630D02*
X329232D01*
X328740Y335138D02*
Y336122D01*
X307579Y335630D02*
X308563D01*
X308071Y335138D02*
Y336122D01*
X304626Y328740D02*
X305610D01*
X305118Y328248D02*
Y329232D01*
X272441Y299843D02*
X273425D01*
X272933Y299351D02*
Y300336D01*
X279035Y307087D02*
X280020D01*
X279528Y306594D02*
Y307579D01*
X231791Y298099D02*
X232776D01*
X232283Y297607D02*
Y298591D01*
X225886Y304134D02*
X226870D01*
X226378Y303642D02*
Y304626D01*
X193405Y200787D02*
X194390D01*
X193898Y200295D02*
Y201279D01*
X163878Y204724D02*
X164862D01*
X164370Y204232D02*
Y205217D01*
X163878Y193898D02*
X164862D01*
X164370Y193405D02*
Y194390D01*
X209154Y316929D02*
X210138D01*
X209646Y316437D02*
Y317421D01*
X215644Y321865D02*
X216629D01*
X216136Y321373D02*
Y322357D01*
X162894Y325787D02*
X163878D01*
X163386Y325295D02*
Y326279D01*
X160925Y313976D02*
X161909D01*
X161417Y313484D02*
Y314469D01*
X139272Y299213D02*
X140256D01*
X139764Y298721D02*
Y299705D01*
X146161Y306102D02*
X147146D01*
X146653Y305610D02*
Y306594D01*
X263287Y187992D02*
X264272D01*
X263779Y187500D02*
Y188484D01*
X277067Y187992D02*
X278051D01*
X277559Y187500D02*
Y188484D01*
X290846Y187992D02*
X291831D01*
X291339Y187500D02*
Y188484D01*
X304626Y187992D02*
X305610D01*
X305118Y187500D02*
Y188484D01*
X318406Y187992D02*
X319390D01*
X318898Y187500D02*
Y188484D01*
X332185Y187992D02*
X333169D01*
X332677Y187500D02*
Y188484D01*
X345965Y187992D02*
X346949D01*
X346457Y187500D02*
Y188484D01*
X359744Y187992D02*
X360728D01*
X360236Y187500D02*
Y188484D01*
X373524Y187992D02*
X374508D01*
X374016Y187500D02*
Y188484D01*
X396161Y189961D02*
X397146D01*
X396654Y189469D02*
Y190453D01*
X311516Y279528D02*
X312500D01*
X312008Y279035D02*
Y280020D01*
X318406Y287402D02*
X319390D01*
X318898Y286910D02*
Y287894D01*
X311516Y293307D02*
X312500D01*
X312008Y292815D02*
Y293799D01*
X318406Y301181D02*
X319390D01*
X318898Y300689D02*
Y301673D01*
X311516Y307087D02*
X312500D01*
X312008Y306594D02*
Y307579D01*
X311516Y322835D02*
X312500D01*
X312008Y322342D02*
Y323327D01*
X304626Y314961D02*
X305610D01*
X305118Y314469D02*
Y315453D01*
X282972Y329724D02*
X283957D01*
X283465Y329232D02*
Y330217D01*
X276083Y335630D02*
X277067D01*
X276575Y335138D02*
Y336122D01*
X289862Y335630D02*
X290846D01*
X290354Y335138D02*
Y336122D01*
X179429Y326772D02*
X180413D01*
X179921Y326279D02*
Y327264D01*
X237697Y329724D02*
X238681D01*
X238189Y329232D02*
Y330217D01*
X245571Y335630D02*
X246555D01*
X246063Y335138D02*
Y336122D01*
X229486Y335676D02*
X230470D01*
X229978Y335184D02*
Y336168D01*
X215644Y335645D02*
X216629D01*
X216136Y335153D02*
Y336137D01*
X202264Y335630D02*
X203248D01*
X202756Y335138D02*
Y336122D01*
X188484Y335630D02*
X189469D01*
X188976Y335138D02*
Y336122D01*
X174705Y335630D02*
X175689D01*
X175197Y335138D02*
Y336122D01*
X158957Y335630D02*
X159941D01*
X159449Y335138D02*
Y336122D01*
X134350Y331693D02*
X135335D01*
X134843Y331201D02*
Y332185D01*
X132382Y306102D02*
X133366D01*
X132874Y305610D02*
Y306594D01*
X132382Y292323D02*
X133366D01*
X132874Y291831D02*
Y292815D01*
X132382Y278543D02*
X133366D01*
X132874Y278051D02*
Y279035D01*
X205183Y187994D02*
X206167D01*
X205675Y187502D02*
Y188486D01*
X195374Y187992D02*
X196358D01*
X195866Y187500D02*
Y188484D01*
X156004Y187992D02*
X156988D01*
X156496Y187500D02*
Y188484D01*
X135335Y190945D02*
X136319D01*
X135827Y190453D02*
Y191437D01*
X132382Y250984D02*
X133366D01*
X132874Y250492D02*
Y251476D01*
X132382Y223425D02*
X133366D01*
X132874Y222933D02*
Y223917D01*
X132382Y237205D02*
X133366D01*
X132874Y236713D02*
Y237697D01*
X132382Y209646D02*
X133366D01*
X132874Y209154D02*
Y210138D01*
X153051Y216535D02*
X154035D01*
X153543Y216043D02*
Y217028D01*
X159795Y211301D02*
X160779D01*
X160287Y210809D02*
Y211793D01*
X167618Y215354D02*
X168602D01*
X168110Y214862D02*
Y215846D01*
X173108Y210826D02*
X174093D01*
X173601Y210334D02*
Y211318D01*
X154626Y270079D02*
X155610D01*
X155118Y269587D02*
Y270571D01*
X143602Y270079D02*
X144587D01*
X144095Y269587D02*
Y270571D01*
X141413Y232844D02*
X142398D01*
X141905Y232352D02*
Y233336D01*
X159143Y222847D02*
X160128D01*
X159635Y222355D02*
Y223340D01*
X142815Y223622D02*
X143799D01*
X143307Y223130D02*
Y224114D01*
X155413Y227953D02*
X156398D01*
X155905Y227461D02*
Y228445D01*
X149114Y227953D02*
X150098D01*
X149606Y227461D02*
Y228445D01*
X381398Y216535D02*
X382382D01*
X381890Y216043D02*
Y217028D01*
X244390Y252165D02*
X245374D01*
X244882Y251673D02*
Y252658D01*
X271161Y253937D02*
X272146D01*
X271654Y253445D02*
Y254429D01*
X271083Y268807D02*
X272067D01*
X271575Y268315D02*
Y269300D01*
X265256Y261811D02*
X266240D01*
X265748Y261319D02*
Y262303D01*
X373524Y236221D02*
X374508D01*
X374016Y235728D02*
Y236713D01*
X373524Y263779D02*
X374508D01*
X374016Y263287D02*
Y264272D01*
X373524Y248031D02*
X374508D01*
X374016Y247539D02*
Y248524D01*
X373524Y330709D02*
X374508D01*
X374016Y330217D02*
Y331201D01*
X369587Y322835D02*
X370571D01*
X370079Y322342D02*
Y323327D01*
X371479Y289266D02*
X372464D01*
X371972Y288774D02*
Y289758D01*
X361713Y287402D02*
X362697D01*
X362205Y286910D02*
Y287894D01*
X377461Y295276D02*
X378445D01*
X377953Y294783D02*
Y295768D01*
X373524Y307087D02*
X374508D01*
X374016Y306594D02*
Y307579D01*
X365650Y299213D02*
X366634D01*
X366142Y298721D02*
Y299705D01*
X342028Y307087D02*
X343012D01*
X342520Y306594D02*
Y307579D01*
X349902Y303150D02*
X350886D01*
X350394Y302658D02*
Y303642D01*
X357776Y322835D02*
X358760D01*
X358268Y322342D02*
Y323327D01*
X349902Y314961D02*
X350886D01*
X350394Y314469D02*
Y315453D01*
X365650Y314961D02*
X366634D01*
X366142Y314469D02*
Y315453D01*
X357776Y307087D02*
X358760D01*
X358268Y306594D02*
Y307579D01*
X334154Y330709D02*
X335138D01*
X334646Y330217D02*
Y331201D01*
X349902Y330709D02*
X350886D01*
X350394Y330217D02*
Y331201D01*
X342028Y322835D02*
X343012D01*
X342520Y322342D02*
Y323327D01*
X326279Y322835D02*
X327264D01*
X326772Y322342D02*
Y323327D01*
X318406Y314961D02*
X319390D01*
X318898Y314469D02*
Y315453D01*
X334154Y314961D02*
X335138D01*
X334646Y314469D02*
Y315453D01*
X326279Y307087D02*
X327264D01*
X326772Y306594D02*
Y307579D01*
X389272Y307087D02*
X390256D01*
X389764Y306594D02*
Y307579D01*
X397146Y311024D02*
X398130D01*
X397638Y310531D02*
Y311516D01*
X397146Y303150D02*
X398130D01*
X397638Y302658D02*
Y303642D01*
X381398Y303150D02*
X382382D01*
X381890Y302658D02*
Y303642D01*
X397146Y212598D02*
X398130D01*
X397638Y212106D02*
Y213090D01*
X389272Y216535D02*
X390256D01*
X389764Y216043D02*
Y217028D01*
X397146Y224410D02*
X398130D01*
X397638Y223917D02*
Y224902D01*
X381398Y224410D02*
X382382D01*
X381890Y223917D02*
Y224902D01*
X389272Y279528D02*
X390256D01*
X389764Y279035D02*
Y280020D01*
X397146Y287402D02*
X398130D01*
X397638Y286910D02*
Y287894D01*
X381398Y287402D02*
X382382D01*
X381890Y286910D02*
Y287894D01*
X381398Y271654D02*
X382382D01*
X381890Y271161D02*
Y272146D01*
X397146Y271654D02*
X398130D01*
X397638Y271161D02*
Y272146D01*
X389272Y295276D02*
X390256D01*
X389764Y294783D02*
Y295768D01*
X389272Y232283D02*
X390256D01*
X389764Y231791D02*
Y232776D01*
X389272Y263779D02*
X390256D01*
X389764Y263287D02*
Y264272D01*
X381398Y255906D02*
X382382D01*
X381890Y255413D02*
Y256398D01*
X397146Y255906D02*
X398130D01*
X397638Y255413D02*
Y256398D01*
X397146Y240158D02*
X398130D01*
X397638Y239665D02*
Y240650D01*
X381398Y240158D02*
X382382D01*
X381890Y239665D02*
Y240650D01*
X389272Y248031D02*
X390256D01*
X389764Y247539D02*
Y248524D01*
X260531Y335039D02*
X261516D01*
X261024Y334547D02*
Y335531D01*
X176279Y252559D02*
X177264D01*
X176772Y252067D02*
Y253051D01*
X208957Y274410D02*
X209941D01*
X209449Y273917D02*
Y274902D01*
X233760Y279134D02*
X234744D01*
X234252Y278642D02*
Y279626D01*
X225098Y278346D02*
X226083D01*
X225590Y277854D02*
Y278839D01*
X216043Y279134D02*
X217028D01*
X216535Y278642D02*
Y279626D01*
X261319Y275590D02*
X262303D01*
X261811Y275098D02*
Y276083D01*
X241240Y275590D02*
X242224D01*
X241732Y275098D02*
Y276083D01*
X331398Y251772D02*
X332382D01*
X331890Y251279D02*
Y252264D01*
X347539Y191732D02*
X348524D01*
X348031Y191240D02*
Y192224D01*
X360138Y201181D02*
X361122D01*
X360630Y200689D02*
Y201673D01*
X363878Y237795D02*
X364862D01*
X364370Y237303D02*
Y238287D01*
X363878Y246850D02*
X364862D01*
X364370Y246358D02*
Y247342D01*
X367224Y255118D02*
X368209D01*
X367717Y254626D02*
Y255610D01*
X361713Y261024D02*
X362697D01*
X362205Y260531D02*
Y261516D01*
X376673Y281102D02*
X377658D01*
X377165Y280610D02*
Y281594D01*
X368799Y281102D02*
X369783D01*
X369291Y280610D02*
Y281594D01*
X314862Y270866D02*
X315846D01*
X315354Y270374D02*
Y271358D01*
X311319Y270866D02*
X312303D01*
X311811Y270374D02*
Y271358D01*
X307776Y270866D02*
X308760D01*
X308268Y270374D02*
Y271358D01*
X293602Y267323D02*
X294587D01*
X294094Y266831D02*
Y267815D01*
X292028Y290158D02*
X293012D01*
X292520Y289665D02*
Y290650D01*
X292105Y297708D02*
X293089D01*
X292597Y297215D02*
Y298200D01*
X260925Y283465D02*
X261909D01*
X261417Y282972D02*
Y283957D01*
X251870Y283465D02*
X252854D01*
X252362Y282972D02*
Y283957D01*
X242815Y283465D02*
X243799D01*
X243307Y282972D02*
Y283957D01*
X260531Y291339D02*
X261516D01*
X261024Y290846D02*
Y291831D01*
X251476Y291339D02*
X252461D01*
X251969Y290846D02*
Y291831D01*
X242815Y291339D02*
X243799D01*
X243307Y290846D02*
Y291831D01*
X226673Y319291D02*
X227658D01*
X227165Y318799D02*
Y319783D01*
X171949Y319291D02*
X172933D01*
X172441Y318799D02*
Y319783D01*
X207776Y287402D02*
X208760D01*
X208268Y286910D02*
Y287894D01*
X204232Y287402D02*
X205217D01*
X204724Y286910D02*
Y287894D01*
X225137Y263482D02*
X226121D01*
X225629Y262990D02*
Y263974D01*
X181791Y196850D02*
X182776D01*
X182283Y196358D02*
Y197343D01*
X177461Y196850D02*
X178445D01*
X177953Y196358D02*
Y197343D01*
X170768Y187992D02*
X171752D01*
X171260Y187500D02*
Y188484D01*
X181595Y187992D02*
X182579D01*
X182087Y187500D02*
Y188484D01*
X188091Y207087D02*
X189075D01*
X188583Y206594D02*
Y207579D01*
X181004Y207087D02*
X181988D01*
X181496Y206594D02*
Y207579D01*
X173917Y219685D02*
X174902D01*
X174409Y219193D02*
Y220177D01*
X134547Y264567D02*
X135531D01*
X135039Y264075D02*
Y265059D01*
X163681Y272441D02*
X164665D01*
X164173Y271949D02*
Y272933D01*
X163681Y264961D02*
X164665D01*
X164173Y264469D02*
Y265453D01*
X134547Y272047D02*
X135531D01*
X135039Y271555D02*
Y272539D01*
X133760Y243307D02*
X134744D01*
X134252Y242815D02*
Y243799D01*
X145571Y228346D02*
X146555D01*
X146063Y227854D02*
Y228839D01*
X152264Y246063D02*
X153248D01*
X152756Y245571D02*
Y246555D01*
X149114Y245965D02*
X150098D01*
X149606Y245472D02*
Y246457D01*
X145965Y246063D02*
X146949D01*
X146457Y245571D02*
Y246555D01*
X153051Y263386D02*
X154035D01*
X153543Y262894D02*
Y263878D01*
X149114Y263386D02*
X150098D01*
X149606Y262894D02*
Y263878D01*
X145177Y263386D02*
X146161D01*
X145669Y262894D02*
Y263878D01*
X164862Y259055D02*
X165847D01*
X165354Y258563D02*
Y259547D01*
X186122Y273228D02*
X187106D01*
X186614Y272736D02*
Y273721D01*
X175886Y273228D02*
X176870D01*
X176378Y272736D02*
Y273721D01*
X183366Y269291D02*
X184350D01*
X183858Y268799D02*
Y269783D01*
X186122Y258268D02*
X187106D01*
X186614Y257776D02*
Y258760D01*
X183646Y258268D02*
X184630D01*
X184138Y257776D02*
Y258760D01*
X183187Y230876D02*
X184171D01*
X183679Y230384D02*
Y231368D01*
X186231Y230671D02*
X187215D01*
X186723Y230179D02*
Y231163D01*
X185335Y243307D02*
X186319D01*
X185827Y242815D02*
Y243799D01*
X360925Y264961D02*
X361909D01*
X361417Y264469D02*
Y265453D01*
X208169Y212992D02*
X209154D01*
X208661Y212500D02*
Y213484D01*
X205299Y215748D02*
X206283D01*
X205791Y215256D02*
Y216240D01*
X197146Y256299D02*
X198130D01*
X197638Y255807D02*
Y256791D01*
X184547Y222047D02*
X185531D01*
X185039Y221555D02*
Y222539D01*
X294390Y274016D02*
X295374D01*
X294882Y273524D02*
Y274508D01*
X304232Y285039D02*
X305217D01*
X304724Y284547D02*
Y285531D01*
X232579Y266142D02*
X233563D01*
X233071Y265650D02*
Y266634D01*
X191634Y212205D02*
X192618D01*
X192126Y211713D02*
Y212697D01*
X241634Y252165D02*
X242618D01*
X242126Y251673D02*
Y252658D01*
X170768Y206299D02*
X171752D01*
X171260Y205807D02*
Y206791D01*
X152264Y227953D02*
X153248D01*
X152756Y227461D02*
Y228445D01*
M02*
