G04*
G04 #@! TF.GenerationSoftware,Altium Limited,Altium Designer,24.7.2 (38)*
G04*
G04 Layer_Color=65535*
%FSLAX25Y25*%
%MOIN*%
G70*
G04*
G04 #@! TF.SameCoordinates,AB7849DE-EAC8-4354-A705-FC1E97C67EB3*
G04*
G04*
G04 #@! TF.FilePolarity,Positive*
G04*
G01*
G75*
%ADD10C,0.01968*%
%ADD11C,0.01575*%
%ADD12C,0.00984*%
%ADD13C,0.00787*%
%ADD14C,0.00984*%
%ADD15C,0.01000*%
%ADD16C,0.00394*%
%ADD17C,0.01039*%
%ADD18C,0.01772*%
%ADD19C,0.00866*%
%ADD20C,0.01181*%
%ADD21C,0.00500*%
%ADD22C,0.00600*%
%ADD23C,0.00197*%
%ADD24C,0.00709*%
G36*
X395193Y235778D02*
X395081D01*
Y235890D01*
X394970D01*
Y236001D01*
X394858D01*
Y236113D01*
X394746D01*
Y236224D01*
X394635D01*
Y236336D01*
X394524D01*
Y236447D01*
X394412D01*
Y236559D01*
X394301D01*
Y236670D01*
X394189D01*
Y236893D01*
X394078D01*
Y237005D01*
X393966D01*
Y237116D01*
X393855D01*
Y237228D01*
X393743D01*
Y237339D01*
X393855D01*
Y237451D01*
X393966D01*
Y237562D01*
X394078D01*
Y237674D01*
X394189D01*
Y237785D01*
X394301D01*
Y237897D01*
X394412D01*
Y238008D01*
X394524D01*
Y238120D01*
X394635D01*
Y238231D01*
X394746D01*
Y238343D01*
X394858D01*
Y238454D01*
X394970D01*
Y238566D01*
X395081D01*
Y238789D01*
X395193D01*
Y238900D01*
X395304D01*
Y239123D01*
X395415D01*
Y239346D01*
X395527D01*
Y239569D01*
X395638D01*
Y239792D01*
X395750D01*
Y240238D01*
X395862D01*
Y240796D01*
X395973D01*
Y242134D01*
X395862D01*
Y242803D01*
X395750D01*
Y243137D01*
X395638D01*
Y243472D01*
X395527D01*
Y243695D01*
X395415D01*
Y243918D01*
X395304D01*
Y244141D01*
X395193D01*
Y244252D01*
X395081D01*
Y244475D01*
X394970D01*
Y244587D01*
X394858D01*
Y244698D01*
X394746D01*
Y244810D01*
X394635D01*
Y244921D01*
X394524D01*
Y245033D01*
X394412D01*
Y245144D01*
X394301D01*
Y245256D01*
X394189D01*
Y245367D01*
X394078D01*
Y245479D01*
X393966D01*
Y245590D01*
X393855D01*
Y245702D01*
X393632D01*
Y245813D01*
X393520D01*
Y245925D01*
X393297D01*
Y246036D01*
X393074D01*
Y246148D01*
X392851D01*
Y246259D01*
X392517D01*
Y246371D01*
X392071D01*
Y246482D01*
X391402D01*
Y246594D01*
X390064D01*
Y246482D01*
X389395D01*
Y246371D01*
X389060D01*
Y246259D01*
X388726D01*
Y246148D01*
X388503D01*
Y246036D01*
X388280D01*
Y245925D01*
X388057D01*
Y245813D01*
X387945D01*
Y245702D01*
X387722D01*
Y245590D01*
X387611D01*
Y245479D01*
X387499D01*
Y245367D01*
X387388D01*
Y245256D01*
X387276D01*
Y245144D01*
X387165D01*
Y245033D01*
X387053D01*
Y244921D01*
X386942D01*
Y244810D01*
X386830D01*
Y244698D01*
X386719D01*
Y244587D01*
X386607D01*
Y244364D01*
X386496D01*
Y244252D01*
X386384D01*
Y244029D01*
X386273D01*
Y243918D01*
X386161D01*
Y243695D01*
X386050D01*
Y243472D01*
X385938D01*
Y243249D01*
X385827D01*
Y242914D01*
X385715D01*
Y242357D01*
X385604D01*
Y240796D01*
X385715D01*
Y240350D01*
X385827D01*
Y240015D01*
X385938D01*
Y239792D01*
X386050D01*
Y239569D01*
X386161D01*
Y239346D01*
X386273D01*
Y239235D01*
X386384D01*
Y239012D01*
X386496D01*
Y238900D01*
X386607D01*
Y238789D01*
X386719D01*
Y238677D01*
X386830D01*
Y238566D01*
X386942D01*
Y238454D01*
X387053D01*
Y238343D01*
X387165D01*
Y238231D01*
X387276D01*
Y238120D01*
X387499D01*
Y238008D01*
X387611D01*
Y237897D01*
X387834D01*
Y237785D01*
X388057D01*
Y237674D01*
X388391D01*
Y237562D01*
X388949D01*
Y237451D01*
X389060D01*
Y240907D01*
X391067D01*
Y235221D01*
X389060D01*
Y235332D01*
X388391D01*
Y235444D01*
X388057D01*
Y235555D01*
X387611D01*
Y235667D01*
X387388D01*
Y235778D01*
X387165D01*
Y235890D01*
X386942D01*
Y236001D01*
X386719D01*
Y236113D01*
X386496D01*
Y236224D01*
X386384D01*
Y236336D01*
X386161D01*
Y236447D01*
X386050D01*
Y236559D01*
X385938D01*
Y236670D01*
X385827D01*
Y236782D01*
X385715D01*
Y236893D01*
X385604D01*
Y237005D01*
X385492D01*
Y237116D01*
X385381D01*
Y237228D01*
X385269D01*
Y237339D01*
X385158D01*
Y237451D01*
X385046D01*
Y237562D01*
X384935D01*
Y237674D01*
X384823D01*
Y237897D01*
X384712D01*
Y238008D01*
X384600D01*
Y238231D01*
X384489D01*
Y238343D01*
X384377D01*
Y238566D01*
X384266D01*
Y238789D01*
X384154D01*
Y239012D01*
X384043D01*
Y239346D01*
X383931D01*
Y239681D01*
X383820D01*
Y240127D01*
X383708D01*
Y240684D01*
X383597D01*
Y242580D01*
X383708D01*
Y243249D01*
X383820D01*
Y243695D01*
X383931D01*
Y244029D01*
X384043D01*
Y244252D01*
X384154D01*
Y244587D01*
X384266D01*
Y244810D01*
X384377D01*
Y245033D01*
X384489D01*
Y245144D01*
X384600D01*
Y245367D01*
X384712D01*
Y245590D01*
X384823D01*
Y245702D01*
X384935D01*
Y245813D01*
X385046D01*
Y246036D01*
X385158D01*
Y246148D01*
X385269D01*
Y246259D01*
X385381D01*
Y246371D01*
X385492D01*
Y246482D01*
X385604D01*
Y246594D01*
X385715D01*
Y246705D01*
X385827D01*
Y246817D01*
X385938D01*
Y246928D01*
X386050D01*
Y247040D01*
X386161D01*
Y247151D01*
X386384D01*
Y247263D01*
X386496D01*
Y247374D01*
X386607D01*
Y247485D01*
X386830D01*
Y247597D01*
X386942D01*
Y247709D01*
X387165D01*
Y247820D01*
X387388D01*
Y247932D01*
X387611D01*
Y248043D01*
X387834D01*
Y248154D01*
X388057D01*
Y248266D01*
X388391D01*
Y248377D01*
X388726D01*
Y248489D01*
X389172D01*
Y248601D01*
X389841D01*
Y248712D01*
X391736D01*
Y248601D01*
X392405D01*
Y248489D01*
X392851D01*
Y248377D01*
X393186D01*
Y248266D01*
X393520D01*
Y248154D01*
X393743D01*
Y248043D01*
X393966D01*
Y247932D01*
X394189D01*
Y247820D01*
X394412D01*
Y247709D01*
X394524D01*
Y247597D01*
X394746D01*
Y247485D01*
X394858D01*
Y247374D01*
X395081D01*
Y247263D01*
X395193D01*
Y247151D01*
X395304D01*
Y247040D01*
X395415D01*
Y246928D01*
X395527D01*
Y246817D01*
X395750D01*
Y246705D01*
X395862D01*
Y246594D01*
X395973D01*
Y246482D01*
X396084D01*
Y246259D01*
X396196D01*
Y246148D01*
X396307D01*
Y246036D01*
X396419D01*
Y245925D01*
X396531D01*
Y245813D01*
X396642D01*
Y245590D01*
X396754D01*
Y245479D01*
X396865D01*
Y245256D01*
X396976D01*
Y245144D01*
X397088D01*
Y244921D01*
X397200D01*
Y244698D01*
X397311D01*
Y244475D01*
X397423D01*
Y244141D01*
X397534D01*
Y243918D01*
X397645D01*
Y243472D01*
X397757D01*
Y243026D01*
X397868D01*
Y242357D01*
X397980D01*
Y240573D01*
X397868D01*
Y239904D01*
X397757D01*
Y239458D01*
X397645D01*
Y239123D01*
X397534D01*
Y238789D01*
X397423D01*
Y238566D01*
X397311D01*
Y238343D01*
X397200D01*
Y238120D01*
X397088D01*
Y237897D01*
X396976D01*
Y237785D01*
X396865D01*
Y237562D01*
X396754D01*
Y237451D01*
X396642D01*
Y237339D01*
X396531D01*
Y237116D01*
X396419D01*
Y237005D01*
X396307D01*
Y236893D01*
X396196D01*
Y236782D01*
X396084D01*
Y236670D01*
X395973D01*
Y236559D01*
X395862D01*
Y236447D01*
X395750D01*
Y236336D01*
X395638D01*
Y236224D01*
X395527D01*
Y236113D01*
X395415D01*
Y236001D01*
X395304D01*
Y235890D01*
X395193D01*
Y235778D01*
D02*
G37*
G36*
X397645Y255848D02*
Y254621D01*
X397534D01*
Y254064D01*
X397423D01*
Y253618D01*
X397311D01*
Y253283D01*
X397200D01*
Y253060D01*
X397088D01*
Y252837D01*
X396976D01*
Y252614D01*
X396865D01*
Y252503D01*
X396754D01*
Y252391D01*
X396642D01*
Y252168D01*
X396531D01*
Y252057D01*
X396419D01*
Y251945D01*
X396307D01*
Y251834D01*
X396084D01*
Y251722D01*
X395973D01*
Y251611D01*
X395862D01*
Y251499D01*
X395638D01*
Y251388D01*
X395415D01*
Y251276D01*
X395193D01*
Y251165D01*
X394858D01*
Y251053D01*
X394301D01*
Y250942D01*
X393966D01*
X393855D01*
X392963D01*
Y251053D01*
X392405D01*
Y251165D01*
X392071D01*
Y251276D01*
X391848D01*
Y251388D01*
X391625D01*
Y251499D01*
X391402D01*
Y251611D01*
X391290D01*
Y251722D01*
X391179D01*
Y251834D01*
X390956D01*
Y251945D01*
X390844D01*
Y252057D01*
X390733D01*
Y252168D01*
X390621D01*
Y252280D01*
X390510D01*
Y252503D01*
X390398D01*
Y252614D01*
X390287D01*
Y252726D01*
X390175D01*
Y252949D01*
X390064D01*
Y253172D01*
X389952D01*
Y253506D01*
X389841D01*
Y253841D01*
X389729D01*
Y253952D01*
X389618D01*
Y253841D01*
X389506D01*
Y253729D01*
X389283D01*
Y253618D01*
X389172D01*
Y253506D01*
X388949D01*
Y253395D01*
X388837D01*
Y253283D01*
X388726D01*
Y253172D01*
X388503D01*
Y253060D01*
X388391D01*
Y252949D01*
X388280D01*
Y252837D01*
X388057D01*
Y252726D01*
X387945D01*
Y252614D01*
X387722D01*
Y252503D01*
X387611D01*
Y252391D01*
X387499D01*
Y252280D01*
X387276D01*
Y252168D01*
X387165D01*
Y252057D01*
X387053D01*
Y251945D01*
X386830D01*
Y251834D01*
X386719D01*
Y251722D01*
X386496D01*
Y251611D01*
X386384D01*
Y251499D01*
X386273D01*
Y251388D01*
X386050D01*
Y251276D01*
X385938D01*
Y251165D01*
X385827D01*
Y251053D01*
X385604D01*
Y250942D01*
X385492D01*
Y250831D01*
X385269D01*
Y250719D01*
X385158D01*
Y250607D01*
X385046D01*
Y250496D01*
X384823D01*
Y250384D01*
X384712D01*
Y250273D01*
X384489D01*
Y250162D01*
X384377D01*
Y250050D01*
X384266D01*
Y249939D01*
X384043D01*
Y249827D01*
X383820D01*
Y252280D01*
X383931D01*
Y252391D01*
X384043D01*
Y252503D01*
X384154D01*
Y252614D01*
X384377D01*
Y252726D01*
X384489D01*
Y252837D01*
X384712D01*
Y252949D01*
X384823D01*
Y253060D01*
X385046D01*
Y253172D01*
X385158D01*
Y253283D01*
X385269D01*
Y253395D01*
X385492D01*
Y253506D01*
X385604D01*
Y253618D01*
X385827D01*
Y253729D01*
X385938D01*
Y253841D01*
X386161D01*
Y253952D01*
X386273D01*
Y254064D01*
X386384D01*
Y254175D01*
X386607D01*
Y254287D01*
X386719D01*
Y254398D01*
X386942D01*
Y254510D01*
X387053D01*
Y254621D01*
X387276D01*
Y254733D01*
X387388D01*
Y254844D01*
X387499D01*
Y254956D01*
X387722D01*
Y255067D01*
X387834D01*
Y255179D01*
X388057D01*
Y255290D01*
X388168D01*
Y255402D01*
X388391D01*
Y255513D01*
X388503D01*
Y255625D01*
X388614D01*
Y255736D01*
X388837D01*
Y255848D01*
X388949D01*
Y255959D01*
X389172D01*
Y256071D01*
X389283D01*
Y256182D01*
X389506D01*
Y256628D01*
X383820D01*
Y258635D01*
X383931D01*
Y258747D01*
X397645D01*
Y258635D01*
X397757D01*
Y255848D01*
X397645D01*
D02*
G37*
G36*
X397757Y289855D02*
X397645D01*
Y289743D01*
X397311D01*
Y289632D01*
X397088D01*
Y289520D01*
X396754D01*
Y289408D01*
X396531D01*
Y289297D01*
X396196D01*
Y289186D01*
X395862D01*
Y289074D01*
X395638D01*
Y288963D01*
X395304D01*
Y288851D01*
X395081D01*
Y288739D01*
X394746D01*
Y288628D01*
X394524D01*
Y288516D01*
X394189D01*
Y288405D01*
X393855D01*
Y288294D01*
X393632D01*
Y288182D01*
X393297D01*
Y288071D01*
X393074D01*
Y287959D01*
X392740D01*
Y287848D01*
X392517D01*
Y287736D01*
X392182D01*
Y287625D01*
X391848D01*
Y287513D01*
X391625D01*
Y287402D01*
X391290D01*
Y287290D01*
X391067D01*
Y287179D01*
X390733D01*
Y287067D01*
X390510D01*
Y286956D01*
X390175D01*
Y286844D01*
X389841D01*
Y286733D01*
X389618D01*
Y286621D01*
X389283D01*
Y286510D01*
X389060D01*
Y286398D01*
X388726D01*
Y286287D01*
X388614D01*
Y286175D01*
X388837D01*
Y286064D01*
X389172D01*
Y285952D01*
X389395D01*
Y285841D01*
X389729D01*
Y285729D01*
X390064D01*
Y285618D01*
X390287D01*
Y285506D01*
X390621D01*
Y285395D01*
X390956D01*
Y285283D01*
X391179D01*
Y285172D01*
X391513D01*
Y285060D01*
X391736D01*
Y284949D01*
X392071D01*
Y284837D01*
X392405D01*
Y284726D01*
X392628D01*
Y284614D01*
X392963D01*
Y284503D01*
X393297D01*
Y284391D01*
X393520D01*
Y284280D01*
X393855D01*
Y284168D01*
X394189D01*
Y284057D01*
X394412D01*
Y283945D01*
X394746D01*
Y283834D01*
X394970D01*
Y283722D01*
X395304D01*
Y283611D01*
X395638D01*
Y283499D01*
X395862D01*
Y283388D01*
X396196D01*
Y283276D01*
X396531D01*
Y283165D01*
X396754D01*
Y283053D01*
X397088D01*
Y282942D01*
X397423D01*
Y282830D01*
X397645D01*
Y282719D01*
X397980D01*
Y282607D01*
X398203D01*
Y282496D01*
X398314D01*
Y282384D01*
X397980D01*
Y282273D01*
X397645D01*
Y282161D01*
X397311D01*
Y282050D01*
X397088D01*
Y281938D01*
X396754D01*
Y281827D01*
X396419D01*
Y281715D01*
X396084D01*
Y281604D01*
X395750D01*
Y281492D01*
X395527D01*
Y281381D01*
X395193D01*
Y281269D01*
X394858D01*
Y281158D01*
X394524D01*
Y281046D01*
X394301D01*
Y280935D01*
X393966D01*
Y280823D01*
X393632D01*
Y280712D01*
X393297D01*
Y280600D01*
X393074D01*
Y280489D01*
X392740D01*
Y280377D01*
X392405D01*
Y280266D01*
X392071D01*
Y280154D01*
X391848D01*
Y280043D01*
X391513D01*
Y279931D01*
X391179D01*
Y279820D01*
X390844D01*
Y279708D01*
X390621D01*
Y279597D01*
X390287D01*
Y279485D01*
X389952D01*
Y279374D01*
X389618D01*
Y279262D01*
X389395D01*
Y279151D01*
X389060D01*
Y279039D01*
X388726D01*
Y278928D01*
X388614D01*
Y278816D01*
X388837D01*
Y278705D01*
X389060D01*
Y278593D01*
X389395D01*
Y278482D01*
X389618D01*
Y278370D01*
X389952D01*
Y278259D01*
X390175D01*
Y278147D01*
X390510D01*
Y278036D01*
X390733D01*
Y277924D01*
X390956D01*
Y277813D01*
X391290D01*
Y277701D01*
X391513D01*
Y277590D01*
X391848D01*
Y277478D01*
X392071D01*
Y277367D01*
X392294D01*
Y277255D01*
X392628D01*
Y277144D01*
X392851D01*
Y277032D01*
X393186D01*
Y276921D01*
X393409D01*
Y276809D01*
X393743D01*
Y276698D01*
X393966D01*
Y276586D01*
X394189D01*
Y276475D01*
X394524D01*
Y276363D01*
X394746D01*
Y276252D01*
X395081D01*
Y276140D01*
X395304D01*
Y276029D01*
X395527D01*
Y275917D01*
X395862D01*
Y275806D01*
X396084D01*
Y275694D01*
X396419D01*
Y275583D01*
X396642D01*
Y275471D01*
X396976D01*
Y275360D01*
X397200D01*
Y275248D01*
X397423D01*
Y275137D01*
X397645D01*
Y275025D01*
X397757D01*
Y272795D01*
X397534D01*
Y272907D01*
X397311D01*
Y273018D01*
X396976D01*
Y273130D01*
X396754D01*
Y273241D01*
X396531D01*
Y273353D01*
X396196D01*
Y273464D01*
X395973D01*
Y273576D01*
X395638D01*
Y273687D01*
X395415D01*
Y273799D01*
X395193D01*
Y273910D01*
X394858D01*
Y274022D01*
X394635D01*
Y274133D01*
X394412D01*
Y274245D01*
X394078D01*
Y274356D01*
X393855D01*
Y274468D01*
X393520D01*
Y274579D01*
X393297D01*
Y274691D01*
X393074D01*
Y274802D01*
X392740D01*
Y274914D01*
X392517D01*
Y275025D01*
X392294D01*
Y275137D01*
X391959D01*
Y275248D01*
X391736D01*
Y275360D01*
X391402D01*
Y275471D01*
X391179D01*
Y275583D01*
X390956D01*
Y275694D01*
X390621D01*
Y275806D01*
X390398D01*
Y275917D01*
X390175D01*
Y276029D01*
X389841D01*
Y276140D01*
X389618D01*
Y276252D01*
X389283D01*
Y276363D01*
X389060D01*
Y276475D01*
X388837D01*
Y276586D01*
X388503D01*
Y276698D01*
X388280D01*
Y276809D01*
X387945D01*
Y276921D01*
X387722D01*
Y277032D01*
X387499D01*
Y277144D01*
X387165D01*
Y277255D01*
X386942D01*
Y277367D01*
X386719D01*
Y277478D01*
X386384D01*
Y277590D01*
X386161D01*
Y277701D01*
X385827D01*
Y277813D01*
X385604D01*
Y277924D01*
X385381D01*
Y278036D01*
X385046D01*
Y278147D01*
X384823D01*
Y278259D01*
X384600D01*
Y278370D01*
X384266D01*
Y278482D01*
X384043D01*
Y278593D01*
X383708D01*
Y278705D01*
X383485D01*
Y278816D01*
X383262D01*
Y278928D01*
X383039D01*
Y279039D01*
X383262D01*
Y279151D01*
X383597D01*
Y279262D01*
X383820D01*
Y279374D01*
X384154D01*
Y279485D01*
X384489D01*
Y279597D01*
X384823D01*
Y279708D01*
X385046D01*
Y279820D01*
X385381D01*
Y279931D01*
X385715D01*
Y280043D01*
X386050D01*
Y280154D01*
X386273D01*
Y280266D01*
X386607D01*
Y280377D01*
X386942D01*
Y280489D01*
X387276D01*
Y280600D01*
X387499D01*
Y280712D01*
X387834D01*
Y280823D01*
X388168D01*
Y280935D01*
X388503D01*
Y281046D01*
X388726D01*
Y281158D01*
X389060D01*
Y281269D01*
X389395D01*
Y281381D01*
X389729D01*
Y281492D01*
X389952D01*
Y281604D01*
X390287D01*
Y281715D01*
X390621D01*
Y281827D01*
X390956D01*
Y281938D01*
X391179D01*
Y282050D01*
X391513D01*
Y282161D01*
X391848D01*
Y282273D01*
X392182D01*
Y282384D01*
X392405D01*
Y282496D01*
X392628D01*
Y282607D01*
X392405D01*
Y282719D01*
X392071D01*
Y282830D01*
X391848D01*
Y282942D01*
X391513D01*
Y283053D01*
X391179D01*
Y283165D01*
X390956D01*
Y283276D01*
X390621D01*
Y283388D01*
X390287D01*
Y283499D01*
X390064D01*
Y283611D01*
X389729D01*
Y283722D01*
X389395D01*
Y283834D01*
X389172D01*
Y283945D01*
X388837D01*
Y284057D01*
X388614D01*
Y284168D01*
X388280D01*
Y284280D01*
X387945D01*
Y284391D01*
X387722D01*
Y284503D01*
X387388D01*
Y284614D01*
X387053D01*
Y284726D01*
X386830D01*
Y284837D01*
X386496D01*
Y284949D01*
X386161D01*
Y285060D01*
X385938D01*
Y285172D01*
X385604D01*
Y285283D01*
X385269D01*
Y285395D01*
X385046D01*
Y285506D01*
X384712D01*
Y285618D01*
X384489D01*
Y285729D01*
X384154D01*
Y285841D01*
X383820D01*
Y285952D01*
X383597D01*
Y286064D01*
X383262D01*
Y286175D01*
X383039D01*
Y286287D01*
X383151D01*
Y286398D01*
X383485D01*
Y286510D01*
X383708D01*
Y286621D01*
X384043D01*
Y286733D01*
X384266D01*
Y286844D01*
X384600D01*
Y286956D01*
X384823D01*
Y287067D01*
X385158D01*
Y287179D01*
X385381D01*
Y287290D01*
X385715D01*
Y287402D01*
X385938D01*
Y287513D01*
X386273D01*
Y287625D01*
X386496D01*
Y287736D01*
X386830D01*
Y287848D01*
X387053D01*
Y287959D01*
X387388D01*
Y288071D01*
X387611D01*
Y288182D01*
X387945D01*
Y288294D01*
X388168D01*
Y288405D01*
X388503D01*
Y288516D01*
X388726D01*
Y288628D01*
X389060D01*
Y288739D01*
X389283D01*
Y288851D01*
X389618D01*
Y288963D01*
X389841D01*
Y289074D01*
X390175D01*
Y289186D01*
X390510D01*
Y289297D01*
X390733D01*
Y289408D01*
X391067D01*
Y289520D01*
X391290D01*
Y289632D01*
X391625D01*
Y289743D01*
X391848D01*
Y289855D01*
X392182D01*
Y289966D01*
X392405D01*
Y290077D01*
X392740D01*
Y290189D01*
X392963D01*
Y290300D01*
X393297D01*
Y290412D01*
X393520D01*
Y290524D01*
X393855D01*
Y290635D01*
X394078D01*
Y290746D01*
X394412D01*
Y290858D01*
X394635D01*
Y290969D01*
X394970D01*
Y291081D01*
X395193D01*
Y291193D01*
X395527D01*
Y291304D01*
X395750D01*
Y291416D01*
X396084D01*
Y291527D01*
X396307D01*
Y291638D01*
X396642D01*
Y291750D01*
X396865D01*
Y291862D01*
X397200D01*
Y291973D01*
X397423D01*
Y292085D01*
X397757D01*
Y289855D01*
D02*
G37*
G36*
X383708Y274356D02*
X383931D01*
Y274245D01*
X384154D01*
Y274133D01*
X384377D01*
Y274022D01*
X384600D01*
Y273910D01*
X384823D01*
Y273799D01*
X385046D01*
Y273687D01*
X385269D01*
Y273576D01*
X385492D01*
Y273464D01*
X385715D01*
Y273353D01*
X385938D01*
Y273241D01*
X386161D01*
Y273130D01*
X386384D01*
Y273018D01*
X386607D01*
Y272907D01*
X386830D01*
Y272795D01*
X387053D01*
Y272684D01*
X387276D01*
Y272572D01*
X387499D01*
Y272461D01*
X387722D01*
Y272349D01*
X387945D01*
Y272238D01*
X388168D01*
Y272126D01*
X388391D01*
Y272015D01*
X388614D01*
Y271903D01*
X388837D01*
Y271792D01*
X389060D01*
Y271680D01*
X389395D01*
Y271569D01*
X389618D01*
Y271458D01*
X389841D01*
Y271346D01*
X390064D01*
Y271234D01*
X390287D01*
Y271123D01*
X390510D01*
Y271011D01*
X390733D01*
Y270900D01*
X390956D01*
Y270789D01*
X391179D01*
Y270677D01*
X391402D01*
Y270566D01*
X391625D01*
Y270454D01*
X391848D01*
Y270342D01*
X392071D01*
Y270231D01*
X392294D01*
Y270120D01*
X392517D01*
Y270008D01*
X392740D01*
Y269897D01*
X392963D01*
Y269785D01*
X393186D01*
Y269673D01*
X393409D01*
Y269562D01*
X393632D01*
Y269450D01*
X393855D01*
Y269339D01*
X394078D01*
Y269228D01*
X394301D01*
Y269116D01*
X394524D01*
Y269005D01*
X394746D01*
Y268893D01*
X394970D01*
Y268781D01*
X395193D01*
Y268670D01*
X395415D01*
Y268559D01*
X395638D01*
Y268447D01*
X395862D01*
Y268336D01*
X396084D01*
Y268224D01*
X396307D01*
Y268112D01*
X396531D01*
Y268001D01*
X396754D01*
Y267889D01*
X396976D01*
Y267778D01*
X397200D01*
Y267667D01*
X397423D01*
Y267555D01*
X397645D01*
Y267444D01*
X397980D01*
Y267332D01*
X398203D01*
Y267221D01*
X398426D01*
Y267109D01*
X398537D01*
Y266998D01*
X398314D01*
Y266886D01*
X398092D01*
Y266775D01*
X397868D01*
Y266663D01*
X397645D01*
Y266552D01*
X397423D01*
Y266440D01*
X397200D01*
Y266329D01*
X396976D01*
Y266217D01*
X396754D01*
Y266106D01*
X396531D01*
Y265994D01*
X396307D01*
Y265883D01*
X396084D01*
Y265771D01*
X395862D01*
Y265660D01*
X395638D01*
Y265548D01*
X395415D01*
Y265437D01*
X395193D01*
Y265325D01*
X394970D01*
Y265214D01*
X394746D01*
Y265102D01*
X394524D01*
Y264991D01*
X394301D01*
Y264879D01*
X394078D01*
Y264768D01*
X393855D01*
Y264656D01*
X393520D01*
Y264545D01*
X393297D01*
Y264433D01*
X393074D01*
Y264322D01*
X392851D01*
Y264210D01*
X392628D01*
Y264099D01*
X392405D01*
Y263987D01*
X392182D01*
Y263876D01*
X391959D01*
Y263764D01*
X391736D01*
Y263653D01*
X391513D01*
Y263541D01*
X391290D01*
Y263430D01*
X391067D01*
Y263318D01*
X390844D01*
Y263207D01*
X390621D01*
Y263095D01*
X390398D01*
Y262984D01*
X390175D01*
Y262872D01*
X389952D01*
Y262761D01*
X389729D01*
Y262649D01*
X389506D01*
Y262538D01*
X389283D01*
Y262426D01*
X389060D01*
Y262315D01*
X388837D01*
Y262203D01*
X388614D01*
Y262092D01*
X388391D01*
Y261980D01*
X388168D01*
Y261869D01*
X387945D01*
Y261757D01*
X387722D01*
Y261646D01*
X387499D01*
Y261534D01*
X387276D01*
Y261423D01*
X387053D01*
Y261311D01*
X386830D01*
Y261200D01*
X386607D01*
Y261088D01*
X386384D01*
Y260977D01*
X386161D01*
Y260865D01*
X385827D01*
Y260754D01*
X385604D01*
Y260642D01*
X385381D01*
Y260531D01*
X385158D01*
Y260419D01*
X384935D01*
Y260308D01*
X384712D01*
Y260196D01*
X384489D01*
Y260085D01*
X384266D01*
Y259973D01*
X384043D01*
Y259862D01*
X383820D01*
Y259750D01*
X383597D01*
Y259639D01*
X383485D01*
Y259862D01*
X383597D01*
Y260196D01*
X383708D01*
Y260642D01*
X383820D01*
Y261088D01*
X383931D01*
Y261311D01*
X384154D01*
Y261423D01*
X384266D01*
Y261534D01*
X384489D01*
Y261646D01*
X384600D01*
Y261757D01*
X384712D01*
Y261869D01*
X384823D01*
Y261980D01*
X385046D01*
Y262092D01*
X385158D01*
Y262203D01*
X385269D01*
Y262315D01*
X385381D01*
Y262426D01*
X385492D01*
Y262538D01*
X385604D01*
Y262649D01*
X385715D01*
Y262872D01*
X385827D01*
Y262984D01*
X386384D01*
Y263095D01*
X386050D01*
Y263207D01*
X386161D01*
Y263318D01*
X386273D01*
Y263541D01*
X386384D01*
Y263653D01*
X386496D01*
Y263876D01*
X386607D01*
Y264099D01*
X386719D01*
Y264210D01*
X386942D01*
Y264322D01*
X387388D01*
Y264433D01*
X387945D01*
Y264545D01*
X388391D01*
Y264656D01*
X388949D01*
Y264768D01*
X389395D01*
Y264879D01*
X389952D01*
Y264991D01*
X390287D01*
Y265102D01*
X390621D01*
Y265214D01*
X390844D01*
Y265325D01*
X391179D01*
Y265437D01*
X391402D01*
Y265548D01*
X391625D01*
Y265660D01*
X391959D01*
Y265771D01*
X392182D01*
Y265883D01*
X392405D01*
Y265994D01*
X392740D01*
Y266106D01*
X392963D01*
Y266217D01*
X393186D01*
Y266329D01*
X393520D01*
Y266440D01*
X393743D01*
Y266552D01*
X393409D01*
Y266440D01*
X393074D01*
Y266329D01*
X392740D01*
Y266217D01*
X392405D01*
Y266106D01*
X392071D01*
Y265994D01*
X391736D01*
Y265883D01*
X391402D01*
Y265771D01*
X390956D01*
Y265660D01*
X390844D01*
Y265771D01*
X390733D01*
Y265883D01*
X390510D01*
Y265994D01*
X390398D01*
Y266106D01*
X390287D01*
Y266217D01*
X390175D01*
Y266329D01*
X390064D01*
Y266440D01*
X389952D01*
Y266329D01*
X389841D01*
Y266217D01*
X389618D01*
Y266106D01*
X389506D01*
Y265994D01*
X389283D01*
Y265883D01*
X389172D01*
Y265771D01*
X389060D01*
Y265660D01*
X388949D01*
Y265883D01*
X389060D01*
Y266217D01*
X389172D01*
Y266329D01*
X389060D01*
Y266440D01*
X388949D01*
Y266552D01*
X388837D01*
Y266663D01*
X388503D01*
Y266775D01*
X388168D01*
Y266886D01*
X387722D01*
Y266998D01*
X387388D01*
Y267109D01*
X387611D01*
Y267221D01*
X388057D01*
Y267332D01*
X388391D01*
Y267444D01*
X388726D01*
Y267555D01*
X388949D01*
Y267667D01*
X389060D01*
Y268224D01*
X388949D01*
Y268447D01*
X389060D01*
Y268336D01*
X389172D01*
Y268224D01*
X389395D01*
Y268112D01*
X389506D01*
Y268001D01*
X389729D01*
Y267889D01*
X389841D01*
Y267778D01*
X390064D01*
Y267889D01*
X390287D01*
Y268001D01*
X390398D01*
Y268112D01*
X390510D01*
Y268224D01*
X390621D01*
Y268336D01*
X390733D01*
Y268447D01*
X391179D01*
Y268336D01*
X391513D01*
Y268224D01*
X391848D01*
Y268112D01*
X392182D01*
Y268001D01*
X392517D01*
Y267889D01*
X392851D01*
Y267778D01*
X393186D01*
Y267667D01*
X393520D01*
Y267778D01*
X393297D01*
Y267889D01*
X393074D01*
Y268001D01*
X392740D01*
Y268112D01*
X392517D01*
Y268224D01*
X392294D01*
Y268336D01*
X391959D01*
Y268447D01*
X391736D01*
Y268559D01*
X391513D01*
Y268670D01*
X391179D01*
Y268781D01*
X390956D01*
Y268893D01*
X390733D01*
Y269005D01*
X390398D01*
Y269116D01*
X390064D01*
Y269228D01*
X389618D01*
Y269339D01*
X389172D01*
Y269450D01*
X388614D01*
Y269562D01*
X388168D01*
Y269673D01*
X387611D01*
Y269785D01*
X387165D01*
Y269897D01*
X386719D01*
Y270008D01*
X386607D01*
Y270231D01*
X386496D01*
Y270454D01*
X386384D01*
Y270566D01*
X386273D01*
Y270789D01*
X386161D01*
Y270900D01*
X386050D01*
Y271011D01*
X386607D01*
Y271123D01*
X385938D01*
Y271234D01*
X385827D01*
Y271346D01*
X385715D01*
Y271458D01*
X385604D01*
Y271569D01*
X385492D01*
Y271680D01*
X385381D01*
Y271792D01*
X385269D01*
Y271903D01*
X385158D01*
Y272015D01*
X385046D01*
Y272126D01*
X384935D01*
Y272238D01*
X384712D01*
Y272349D01*
X384600D01*
Y272461D01*
X384489D01*
Y272572D01*
X384377D01*
Y272684D01*
X384154D01*
Y272795D01*
X384043D01*
Y272907D01*
X383931D01*
Y273018D01*
X383820D01*
Y273464D01*
X383708D01*
Y273910D01*
X383597D01*
Y274356D01*
X383485D01*
Y274468D01*
X383708D01*
Y274356D01*
D02*
G37*
%LPC*%
G36*
X395750Y255736D02*
Y256628D01*
X391402D01*
Y254844D01*
X391513D01*
Y254398D01*
X391625D01*
Y254175D01*
X391736D01*
Y253952D01*
X391848D01*
Y253841D01*
X391959D01*
Y253618D01*
X392071D01*
Y253506D01*
X392182D01*
Y253395D01*
X392405D01*
Y253283D01*
X392628D01*
Y253172D01*
X392851D01*
Y253060D01*
X394301D01*
Y253172D01*
X394524D01*
Y253283D01*
X394746D01*
Y253395D01*
X394858D01*
Y253506D01*
X395081D01*
Y253729D01*
X395193D01*
Y253841D01*
X395304D01*
Y254064D01*
X395415D01*
Y254287D01*
X395527D01*
Y254733D01*
X395638D01*
Y255736D01*
X395750D01*
D02*
G37*
G36*
X387165Y271011D02*
X386607D01*
Y270900D01*
X387165D01*
Y271011D01*
D02*
G37*
G36*
X393855Y267667D02*
X393520D01*
Y267555D01*
X393855D01*
Y267444D01*
X394078D01*
Y267555D01*
X393855D01*
Y267667D01*
D02*
G37*
G36*
X394301Y267444D02*
X394189D01*
Y267332D01*
X394301D01*
Y267444D01*
D02*
G37*
G36*
Y266775D02*
X394078D01*
Y266663D01*
X394301D01*
Y266775D01*
D02*
G37*
G36*
X394078Y266663D02*
X393743D01*
Y266552D01*
X394078D01*
Y266663D01*
D02*
G37*
G36*
X387388Y263318D02*
X387276D01*
Y263207D01*
X387388D01*
Y263318D01*
D02*
G37*
G36*
X387053Y263207D02*
X386384D01*
Y263095D01*
X387053D01*
Y263207D01*
D02*
G37*
%LPD*%
D10*
X266142Y252165D02*
G03*
X266142Y252165I-394J0D01*
G01*
D11*
X314764Y202559D02*
G03*
X314764Y202559I-787J0D01*
G01*
X305709Y319685D02*
G03*
X305709Y319685I-787J0D01*
G01*
X260433D02*
G03*
X260433Y319685I-787J0D01*
G01*
D12*
X201942Y313204D02*
G03*
X201942Y313204I-492J0D01*
G01*
D13*
X183871Y230731D02*
G03*
X183871Y230731I-394J0D01*
G01*
X178077Y190128D02*
G03*
X178077Y190128I-394J0D01*
G01*
X313976Y285236D02*
X369094Y285236D01*
X313976Y285236D02*
Y315158D01*
X369094Y285236D02*
Y315158D01*
Y337340D01*
X313976Y315158D02*
Y337340D01*
X167001Y314878D02*
Y321275D01*
X211292Y314878D02*
Y321275D01*
X167001Y314878D02*
X173398D01*
X204894D02*
X211292D01*
X173398Y337318D02*
X204894D01*
X305335Y265602D02*
Y275839D01*
X318327Y265602D02*
Y275839D01*
X349803Y216083D02*
X351575D01*
Y217914D01*
Y230945D02*
Y232717D01*
X349744D02*
X351575D01*
X335433D02*
X337205D01*
X335433Y230886D02*
Y232717D01*
X335394Y216123D02*
Y217894D01*
Y216123D02*
X337224D01*
D14*
X203346Y190551D02*
G03*
X203346Y190551I-98J0D01*
G01*
D15*
X204885Y216115D02*
G03*
X204885Y216115I-394J0D01*
G01*
X297441Y206102D02*
X330512D01*
Y206102D02*
Y241535D01*
X297441Y241535D02*
X330512D01*
X297441Y206102D02*
Y241535D01*
X361236Y292339D02*
X365235D01*
X317929Y292369D02*
X321928D01*
X319929Y294369D02*
Y290370D01*
X272715Y195959D02*
X271716Y196959D01*
X269716D01*
X268717Y195959D01*
Y194959D01*
X269716Y193960D01*
X271716D01*
X272715Y192960D01*
Y191960D01*
X271716Y190961D01*
X269716D01*
X268717Y191960D01*
Y213598D02*
X272715D01*
X268717Y203787D02*
X272715D01*
X270716Y205786D02*
Y201787D01*
D16*
X305532Y264421D02*
G03*
X305532Y264421I-197J0D01*
G01*
X226575Y226772D02*
Y244488D01*
X265551Y226772D02*
Y244488D01*
X200013Y233093D02*
X201588D01*
Y234668D01*
Y251991D02*
Y253566D01*
X200013D02*
X201588D01*
X181115D02*
X182690D01*
X181115Y251991D02*
Y253566D01*
X180918Y234668D02*
X182690Y232896D01*
X197146Y203150D02*
X202264D01*
X197146Y190551D02*
X202264D01*
X176098Y191524D02*
Y197024D01*
Y191524D02*
X180098D01*
X184098Y197024D02*
Y202524D01*
X180098D02*
X184098D01*
Y191524D02*
Y197024D01*
X180098Y191524D02*
X184098D01*
X176098Y197024D02*
Y202524D01*
X180098D01*
X192680Y216509D02*
X202916D01*
Y228320D01*
X192680D02*
X202916D01*
X192680Y216509D02*
Y228320D01*
X146063Y288287D02*
X153150D01*
Y296555D01*
X146063D02*
X153150D01*
X146063Y288287D02*
Y296555D01*
X155118Y257382D02*
Y269980D01*
X144095Y257382D02*
Y269980D01*
X265158Y280315D02*
Y294882D01*
X238779Y280315D02*
Y294882D01*
X198425Y283661D02*
Y291535D01*
X211024Y283661D02*
Y291535D01*
D17*
X143720Y238287D02*
G03*
X143720Y238287I-512J0D01*
G01*
D18*
X268307Y303346D02*
G03*
X268307Y303346I-591J0D01*
G01*
D19*
X208898Y297441D02*
G03*
X208898Y297441I-433J0D01*
G01*
D20*
X400197Y201772D02*
G03*
X400197Y201772I-13386J0D01*
G01*
Y321850D02*
G03*
X400197Y321850I-13386J0D01*
G01*
X160039Y201772D02*
G03*
X160039Y201772I-13386J0D01*
G01*
Y321850D02*
G03*
X160039Y321850I-13386J0D01*
G01*
D21*
X348425Y241732D02*
X362992D01*
X348425Y233858D02*
Y241732D01*
Y233858D02*
X362992D01*
Y241732D01*
X304237Y242507D02*
Y255500D01*
Y242507D02*
X310142D01*
Y255500D01*
X304237D02*
X310142D01*
X333734Y206299D02*
Y212205D01*
X346727D01*
Y206299D02*
Y212205D01*
X333734Y206299D02*
X346727D01*
X272835Y280315D02*
X280709D01*
X272835D02*
Y294882D01*
X280709D01*
Y280315D02*
Y294882D01*
X136221Y252677D02*
X142520D01*
X136221Y240236D02*
X142520D01*
X136221D02*
Y252677D01*
X142520Y240236D02*
Y252677D01*
X185446Y208290D02*
X191351D01*
X185446D02*
Y221282D01*
X191351D01*
Y208290D02*
Y221282D01*
X185807Y203244D02*
X192106D01*
X185807Y190803D02*
X192106D01*
X185807D02*
Y203244D01*
X192106Y190803D02*
Y203244D01*
X365945Y266417D02*
X372244D01*
X365945Y278858D02*
X372244D01*
Y266417D02*
Y278858D01*
X365945Y266417D02*
Y278858D01*
X207382Y190630D02*
X213681D01*
X207382Y203071D02*
X213681D01*
Y190630D02*
Y203071D01*
X207382Y190630D02*
Y203071D01*
X174193Y190528D02*
Y203520D01*
X168287D02*
X174193D01*
X168287Y190528D02*
Y203520D01*
Y190528D02*
X174193D01*
X208465Y249410D02*
Y262402D01*
X202559D02*
X208465D01*
X202559Y249410D02*
Y262402D01*
Y249410D02*
X208465D01*
X193005Y214983D02*
X205446D01*
X193005Y208684D02*
X205446D01*
Y214983D01*
X193005Y208684D02*
Y214983D01*
X184462Y208290D02*
Y221282D01*
X178556D02*
X184462D01*
X178556Y208290D02*
Y221282D01*
Y208290D02*
X184462D01*
X178950Y222660D02*
X191942D01*
Y228566D01*
X178950D02*
X191942D01*
X178950Y222660D02*
Y228566D01*
X177572Y222070D02*
Y235062D01*
X171666D02*
X177572D01*
X171666Y222070D02*
Y235062D01*
Y222070D02*
X177572D01*
X168701Y235709D02*
Y248150D01*
X175000Y235709D02*
Y248150D01*
X168701D02*
X175000D01*
X168701Y235709D02*
X175000D01*
X341850Y271457D02*
Y277756D01*
X329410Y271457D02*
Y277756D01*
X341850D01*
X329410Y271457D02*
X341850D01*
X329410Y263583D02*
X341850D01*
X329410Y269882D02*
X341850D01*
X329410Y263583D02*
Y269882D01*
X341850Y263583D02*
Y269882D01*
X320866Y264173D02*
Y277165D01*
Y264173D02*
X326772D01*
Y277165D01*
X320866D02*
X326772D01*
X281652Y256996D02*
X294644D01*
X281652Y251091D02*
Y256996D01*
Y251091D02*
X294644D01*
Y256996D01*
X281968Y258465D02*
Y264764D01*
X294409Y258465D02*
Y264764D01*
X281968Y258465D02*
X294409D01*
X281968Y264764D02*
X294409D01*
X302165Y264173D02*
Y277165D01*
X296260D02*
X302165D01*
X296260Y264173D02*
Y277165D01*
Y264173D02*
X302165D01*
X355118Y261614D02*
Y279724D01*
X345669D02*
X355118D01*
X345669Y261614D02*
Y279724D01*
Y261614D02*
X355118D01*
X282953Y228346D02*
X295394D01*
X282953Y222047D02*
X295394D01*
Y228346D01*
X282953Y222047D02*
Y228346D01*
X282833Y220185D02*
X295825D01*
X282833Y214280D02*
Y220185D01*
Y214280D02*
X295825D01*
Y220185D01*
X295394Y230118D02*
Y236417D01*
X282953Y230118D02*
Y236417D01*
X295394D01*
X282953Y230118D02*
X295394D01*
X297539Y255492D02*
X303445D01*
Y242500D02*
Y255492D01*
X297539Y242500D02*
X303445D01*
X297539D02*
Y255492D01*
X374016Y279134D02*
X379921D01*
Y266142D02*
Y279134D01*
X374016Y266142D02*
X379921D01*
X374016D02*
Y279134D01*
X317703Y255577D02*
X323608D01*
Y242585D02*
Y255577D01*
X317703Y242585D02*
X323608D01*
X317703D02*
Y255577D01*
X324436Y255538D02*
X330341D01*
Y242546D02*
Y255538D01*
X324436Y242546D02*
X330341D01*
X324436D02*
Y255538D01*
X364370Y266417D02*
Y278858D01*
X358071Y266417D02*
Y278858D01*
Y266417D02*
X364370D01*
X358071Y278858D02*
X364370D01*
X257480Y268819D02*
X263779D01*
X257480Y256378D02*
X263779D01*
X257480D02*
Y268819D01*
X263779Y256378D02*
Y268819D01*
X250394D02*
X256693D01*
X250394Y256378D02*
X256693D01*
X250394D02*
Y268819D01*
X256693Y256378D02*
Y268819D01*
X243307D02*
X249606D01*
X243307Y256378D02*
X249606D01*
X243307D02*
Y268819D01*
X249606Y256378D02*
Y268819D01*
X236221D02*
X242520D01*
X236221Y256378D02*
X242520D01*
X236221D02*
Y268819D01*
X242520Y256378D02*
Y268819D01*
X294685Y287027D02*
X307677D01*
Y292933D01*
X294685D02*
X307677D01*
X294685Y287027D02*
Y292933D01*
X210630Y237992D02*
X223622D01*
X210630Y232087D02*
Y237992D01*
Y232087D02*
X223622D01*
Y237992D01*
X235262Y256102D02*
Y262402D01*
X222821Y256102D02*
Y262402D01*
X235262D01*
X222821Y256102D02*
X235262D01*
X158268Y224095D02*
Y236535D01*
X164567Y224095D02*
Y236535D01*
X158268D02*
X164567D01*
X158268Y224095D02*
X164567D01*
X134646D02*
Y236535D01*
X140945Y224095D02*
Y236535D01*
X134646D02*
X140945D01*
X134646Y224095D02*
X140945D01*
X143110Y230217D02*
Y236122D01*
X156102D01*
Y230217D02*
Y236122D01*
X143110Y230217D02*
X156102D01*
X154331Y295276D02*
X159843D01*
X154331Y283465D02*
X159843D01*
X154331D02*
Y295276D01*
X159843Y283465D02*
Y295276D01*
X139370D02*
X144882D01*
X139370Y283465D02*
X144882D01*
X139370D02*
Y295276D01*
X144882Y283465D02*
Y295276D01*
X146653Y273425D02*
Y286417D01*
Y273425D02*
X152559D01*
Y286417D01*
X146653D02*
X152559D01*
X136811Y269094D02*
X142717D01*
X136811D02*
Y282087D01*
X142717D01*
Y269094D02*
Y282087D01*
X156496Y267913D02*
X162402D01*
Y254921D02*
Y267913D01*
X156496Y254921D02*
X162402D01*
X156496D02*
Y267913D01*
X136811D02*
X142717D01*
Y254921D02*
Y267913D01*
X136811Y254921D02*
X142717D01*
X136811D02*
Y267913D01*
X156496Y269094D02*
X162402D01*
X156496D02*
Y282087D01*
X162402D01*
Y269094D02*
Y282087D01*
X156496Y239567D02*
X162402D01*
X156496D02*
Y252559D01*
X162402D01*
Y239567D02*
Y252559D01*
X333661Y233661D02*
X346654D01*
Y239567D01*
X333661D02*
X346654D01*
X333661Y233661D02*
Y239567D01*
X361221Y227559D02*
X373031D01*
X361221Y233071D02*
X373031D01*
X361221Y227559D02*
Y233071D01*
X373031Y227559D02*
Y233071D01*
X373346Y212402D02*
Y218701D01*
X360906Y212402D02*
Y218701D01*
X373346D01*
X360906Y212402D02*
X373346D01*
X307402Y294704D02*
Y301004D01*
X294961Y294704D02*
Y301004D01*
X307402D01*
X294961Y294704D02*
X307402D01*
X210906Y238976D02*
Y245276D01*
X223346Y238976D02*
Y245276D01*
X210906Y238976D02*
X223346D01*
X210906Y245276D02*
X223346D01*
X347126Y194685D02*
Y200984D01*
X359567Y194685D02*
Y200984D01*
X347126Y194685D02*
X359567D01*
X347126Y200984D02*
X359567D01*
X191142Y280709D02*
Y293701D01*
Y280709D02*
X197047D01*
Y293701D01*
X191142D02*
X197047D01*
X219488Y281102D02*
Y294094D01*
X213583D02*
X219488D01*
X213583Y281102D02*
Y294094D01*
Y281102D02*
X219488D01*
X237205D02*
Y294094D01*
X231299D02*
X237205D01*
X231299Y281102D02*
Y294094D01*
Y281102D02*
X237205D01*
X272174Y281274D02*
Y294266D01*
X266268D02*
X272174D01*
X266268Y281274D02*
Y294266D01*
Y281274D02*
X272174D01*
X221457Y280315D02*
X229331D01*
X221457D02*
Y294882D01*
X229331D01*
Y280315D02*
Y294882D01*
X345669Y191024D02*
Y203465D01*
X339370Y191024D02*
Y203465D01*
Y191024D02*
X345669D01*
X339370Y203465D02*
X345669D01*
X210906Y246260D02*
X223346D01*
X210906Y252559D02*
X223346D01*
X210906Y246260D02*
Y252559D01*
X223346Y246260D02*
Y252559D01*
X294961Y308608D02*
X307402D01*
X294961Y302309D02*
X307402D01*
Y308608D01*
X294961Y302309D02*
Y308608D01*
X360906Y220276D02*
Y226575D01*
X373346Y220276D02*
Y226575D01*
X360906Y220276D02*
X373346D01*
X360906Y226575D02*
X373346D01*
X361614Y202756D02*
Y210630D01*
X347047Y202756D02*
X361614D01*
X347047D02*
Y210630D01*
X361614D01*
X332874Y247835D02*
Y255709D01*
X347441D01*
Y247835D02*
Y255709D01*
X332874Y247835D02*
X347441D01*
X362992Y242717D02*
Y250590D01*
X348425Y242717D02*
X362992D01*
X348425D02*
Y250590D01*
X362992D01*
X333661Y240748D02*
X346654D01*
Y246654D01*
X333661D02*
X346654D01*
X333661Y240748D02*
Y246654D01*
X310989Y242527D02*
Y255519D01*
Y242527D02*
X316895D01*
Y255519D01*
X310989D02*
X316895D01*
D22*
X266124Y319871D02*
X272982D01*
X272059Y337412D02*
X294870D01*
X266124Y319871D02*
Y325776D01*
X300805Y319871D02*
Y325776D01*
X293947Y319871D02*
X300805D01*
X220848D02*
X227707D01*
X226784Y337412D02*
X249594D01*
X220848Y319871D02*
Y325776D01*
X255529Y319871D02*
Y325776D01*
X248671Y319871D02*
X255529D01*
X224787Y188937D02*
Y218937D01*
X266787Y188937D02*
Y218937D01*
X224787D02*
X266787D01*
X224787Y188937D02*
X266787D01*
D23*
X281496Y296063D02*
X290945D01*
X281496Y287402D02*
Y296063D01*
Y287402D02*
X290945D01*
Y296063D01*
D24*
X261221Y330774D02*
Y329725D01*
Y330250D01*
X263845D01*
X264370Y329725D01*
Y329200D01*
X263845Y328675D01*
X261221Y333923D02*
Y331824D01*
X262795D01*
X262270Y332874D01*
Y333398D01*
X262795Y333923D01*
X263845D01*
X264370Y333398D01*
Y332349D01*
X263845Y331824D01*
X161811Y330774D02*
Y329725D01*
Y330250D01*
X164435D01*
X164960Y329725D01*
Y329200D01*
X164435Y328675D01*
X164960Y333398D02*
X161811D01*
X163386Y331824D01*
Y333923D01*
X215945Y330774D02*
Y329725D01*
Y330250D01*
X218569D01*
X219094Y329725D01*
Y329200D01*
X218569Y328675D01*
X216470Y331824D02*
X215945Y332349D01*
Y333398D01*
X216470Y333923D01*
X216995D01*
X217520Y333398D01*
Y332874D01*
Y333398D01*
X218044Y333923D01*
X218569D01*
X219094Y333398D01*
Y332349D01*
X218569Y331824D01*
X308465Y330184D02*
Y329134D01*
Y329659D01*
X311089D01*
X311614Y329134D01*
Y328610D01*
X311089Y328085D01*
X311614Y333332D02*
Y331233D01*
X309515Y333332D01*
X308990D01*
X308465Y332808D01*
Y331758D01*
X308990Y331233D01*
M02*
