M48
;Layer_Color=9474304
;FILE_FORMAT=2:4
INCH,TZ
;TYPE=PLATED
T01F00S00C0.0098
T02F00S00C0.0394
T03F00S00C0.0450
T04F00S00C0.0669
T05F00S00C0.1339
%
T01
X31890Y18799
X32579Y19468
X33818Y19407
X33268Y18799
Y20177
X34075Y20437
X34040Y21347
X35335Y21260
X35382Y22060
X35374Y22421
X35866Y21890
X36063Y20118
X36870Y20512
X37756Y20177
X38012Y19528
X38681Y19252
X39311Y19528
X39665Y18996
X39606Y20177
X39311Y20827
X39764Y21260
X38976Y21654
X38189
X37618Y21594
X37480Y22362
X37579Y23031
X37402Y23622
X36437Y23780
Y24685
X35943Y25200
X36772Y25512
X36220Y26102
X36142Y26496
X37402Y26378
Y24803
X38189Y25591
X38976Y24803
Y26378
Y27953
X37717Y28110
X36929
X37197Y28927
X36220Y28740
X35471Y28344
X34311Y27441
X32854Y27815
X31890Y28740
Y30118
X32677Y30709
X34252Y30709
X34247Y29648
X35039Y30315
X35827Y30709
X36614Y29921
X37402Y30709
X38189Y30315
X37795Y29528
X38189Y28740
X39764
Y27165
X38189
X38976Y29528
Y30709
X39764Y30315
Y31102
Y25591
Y24016
Y22441
X38976Y23228
X38189Y22441
X38189Y24016
X38012Y20827
X38681Y21102
X37402Y18799
X36713Y19291
X36024Y18799
X34646
X34803Y19173
X31890Y20177
X33346Y22331
X33287Y22598
X33289Y22856
X33268Y23661
Y24370
X33189Y25177
X32736Y25689
X32972Y25984
X32087Y26280
X32067Y25689
X31398
X31535Y27087
X31181
X30827
X30392Y26735
X29409Y26732
X29488Y27402
X29469Y27677
X28622Y27244
X27697Y27835
X26928Y27931
X26181Y27559
X26142Y28346
X26102Y29134
X25197
X25236Y28346
X24331
Y29134
X24173Y27559
X23425Y27913
X22559Y27835
X21654Y27913
X20945Y27441
X20472Y28209
Y28740
X20124
X20827
X19665Y27854
X19390Y27835
X19113Y27852
X18681Y27638
X18661Y27323
X18209Y27146
X18386Y26929
X18996Y26870
X20059Y27028
X19659Y25938
X19327Y25943
X19213Y25630
X19465Y25630
X19764Y25630
X18661Y25827
X18414
X18150Y25512
X17677Y25256
X17618Y24941
X17874Y25039
X17890Y24724
Y24477
X17913Y24193
X17877Y23901
X17910Y23425
Y22899
X18368Y23088
X18672Y23067
X19016Y23031
X19137Y23780
X19688Y24335
X20433Y24488
X20669Y24724
X20866Y24449
X20846Y24055
X20413Y23839
X20453Y23327
X20669Y23130
X20020Y22933
X20322Y21590
X20579Y21575
X20866Y21299
X20846Y21043
X22244Y21083
X22362Y20433
X23346Y20906
X24350Y20936
X24821Y20933
X24586Y21530
X24488Y21988
X24724
X24961
X24252
X24607Y23563
X23604Y23563
X23051Y23543
X22520Y23327
X22461Y23051
X22244Y22776
X21988Y22579
X21602Y22555
X21339Y22559
X22480Y24213
X22539Y24961
X22697Y25197
X22945Y25388
X23189Y25492
X23287Y26319
X23307Y26614
X23287Y26909
X22563Y26348
X22087Y27106
X21339Y25984
X21594Y25394
X23937Y25217
X24213
X24488
X24764
X25010Y25137
X25000Y25394
X25295
X25274Y25130
X25521Y25117
X25768Y25138
X25630Y25374
X25945Y25354
X26260Y25256
X27165Y25394
X28051Y25787
X28325Y25790
X29606Y25394
X30059Y25689
X30728
X31180Y26125
X31201Y27953
X30472Y28504
X31201Y29331
Y30709
X29488Y31083
X28642Y30984
X27953Y30709
X27653Y31083
X27293Y29984
X26575Y30623
X25197
X23563Y30630
Y30906
X22638Y30413
X23228Y29810
X21219Y30549
X18898Y30571
X18386Y29862
X18248Y28898
X18937Y29134
X18209Y27953
X17638Y27323
X17224Y27264
X17421Y26929
X17776Y26555
X16417Y26496
X16334Y26127
X16535Y25906
X16417Y27244
Y28622
X16437Y29331
X15925Y29831
X16535Y30413
X17126Y30118
X17224Y28642
X17618Y24252
X18583Y24331
X19133Y24885
X18504Y22205
X17441Y21969
X17360Y21083
X17126Y20630
X16437Y20472
X16029Y21130
X16811Y21535
X15964Y22285
X15945Y23819
X16339Y24272
X17005Y23189
X18150Y20709
X18858
X19213Y21220
X19390Y20079
X19587Y18799
X20567Y18799
X21142Y18878
X21496Y18937
X18209Y18799
X18228Y19685
X17795
X17126Y18799
X16437Y19390
X15650Y18799
X24582Y19876
X26319Y20925
X26949Y21122
X26969Y20472
X27756Y20177
X28445Y20846
X28071Y21791
X27991Y22050
X27638Y23327
X27859Y24435
X26831Y24429
X26299Y23799
X25609Y23563
X26772Y22598
X29665Y22520
X29685Y21732
X29134Y20177
X30512
Y18799
X29823Y19468
X29134Y18799
X28445Y19468
X27756Y18799
X26969Y19094
X26378Y18799
X31201Y19468
X29152Y24939
X26575Y26181
X27158Y26881
X29252Y29016
X29260Y29771
X15295Y28720
X14961Y28740
X14644Y28718
X13976Y29921
X13287Y29232
Y30610
X14665
X14409Y27008
X14567Y26339
X14961
X15354
X15512Y27008
X13504Y27205
Y26457
X13287Y25098
X13425Y24331
X13287Y23720
X14191Y23284
X14606Y22835
X14961Y22795
X15276
X15591
X15354Y21654
X15295Y20827
X14665Y21102
X13996Y20827
X13287Y20965
X13740Y20177
X13996Y19528
X13583Y19094
X14665Y19252
X15295Y19528
X15591Y20177
X14331Y22362
X13287Y22343
X14287Y24647
X14646Y24606
X14961Y24596
X15276Y24606
X15614Y24608
X13287Y27854
X13996Y31535
X13740Y32185
X13996Y32835
X13484Y33169
X14665Y33110
X15295Y32835
X15591Y32185
X15295Y31535
X14665Y31260
X16142Y31398
X16339Y32579
X15945Y33563
X17520
X17992Y32677
X18189Y32480
X18465Y32677
X18661Y32480
X18919Y32688
X19370Y32677
X19173Y32480
X19646
X19843Y32677
X20276Y33563
X21614Y33564
Y32187
X21693Y31496
X20965Y31693
X20157Y31434
X22717Y31929
X23287Y31299
X23563Y31280
X23819Y32972
X24558Y32473
X24606Y33563
X26102Y33504
Y32795
Y31811
X25346Y31667
X27165Y31890
X27480Y31319
X28622Y31260
X29088Y32421
X29626Y32185
X30512Y31496
Y32874
X30807Y33563
X31201Y32283
X29035Y33563
X28346Y32972
X27657Y33563
X22998Y33568
X18898Y33563
X17244Y31929
X31890Y31496
X33465
X32677Y32283
X32874Y33563
X33465Y33071
X34252Y33563
X35039Y33071
X35630Y33563
X37008
X37402Y33071
X38012Y32835
X37992Y33563
X38681Y33110
X39311Y32835
X39665Y33366
X39606Y32185
X39311Y31535
X38681Y31260
X38012Y31535
X37756Y32185
X37008Y32283
X35827
X36614Y31496
X35039
X34252Y32283
T02
X31988Y33169
X36319
T03
X23079Y19394
X24079
X25079
X26079
Y20394
X25079
X24079
Y21394
X25079
X26079
X23079
Y20394
T04
X33169Y29232
X35138
T05
X38681Y20177
X14665
Y32185
X38681
M30
