G04*
G04 #@! TF.GenerationSoftware,Altium Limited,Altium Designer,24.7.2 (38)*
G04*
G04 Layer_Color=2752767*
%FSLAX25Y25*%
%MOIN*%
G70*
G04*
G04 #@! TF.SameCoordinates,AB7849DE-EAC8-4354-A705-FC1E97C67EB3*
G04*
G04*
G04 #@! TF.FilePolarity,Positive*
G04*
G01*
G75*
%ADD21C,0.00500*%
%ADD24C,0.00709*%
%ADD111C,0.01500*%
%ADD112C,0.01134*%
D21*
X322382Y331693D02*
G03*
X322382Y331693I-2500J0D01*
G01*
X365689D02*
G03*
X365689Y331693I-2500J0D01*
G01*
X150256Y225453D02*
X152756Y226703D01*
X155256Y225453D01*
X154006Y227953D02*
X155256Y225453D01*
X154006Y227953D02*
X155256Y230453D01*
X152756Y229203D02*
X155256Y230453D01*
X150256D02*
X152756Y229203D01*
X150256Y230453D02*
X151506Y227953D01*
X150256Y225453D02*
X151506Y227953D01*
X168760Y203799D02*
X171260Y205049D01*
X173760Y203799D01*
X172510Y206299D02*
X173760Y203799D01*
X172510Y206299D02*
X173760Y208799D01*
X171260Y207549D02*
X173760Y208799D01*
X168760D02*
X171260Y207549D01*
X168760Y208799D02*
X170010Y206299D01*
X168760Y203799D02*
X170010Y206299D01*
X239626Y249665D02*
X242126Y250915D01*
X244626Y249665D01*
X243376Y252165D02*
X244626Y249665D01*
X243376Y252165D02*
X244626Y254665D01*
X242126Y253415D02*
X244626Y254665D01*
X239626D02*
X242126Y253415D01*
X239626Y254665D02*
X240876Y252165D01*
X239626Y249665D02*
X240876Y252165D01*
X189626Y209705D02*
X192126Y210955D01*
X194626Y209705D01*
X193376Y212205D02*
X194626Y209705D01*
X193376Y212205D02*
X194626Y214705D01*
X192126Y213455D02*
X194626Y214705D01*
X189626D02*
X192126Y213455D01*
X189626Y214705D02*
X190876Y212205D01*
X189626Y209705D02*
X190876Y212205D01*
X230571Y263642D02*
X233071Y264892D01*
X235571Y263642D01*
X234321Y266142D02*
X235571Y263642D01*
X234321Y266142D02*
X235571Y268642D01*
X233071Y267392D02*
X235571Y268642D01*
X230571D02*
X233071Y267392D01*
X230571Y268642D02*
X231821Y266142D01*
X230571Y263642D02*
X231821Y266142D01*
X302224Y282539D02*
X304724Y283789D01*
X307224Y282539D01*
X305974Y285039D02*
X307224Y282539D01*
X305974Y285039D02*
X307224Y287539D01*
X304724Y286289D02*
X307224Y287539D01*
X302224D02*
X304724Y286289D01*
X302224Y287539D02*
X303474Y285039D01*
X302224Y282539D02*
X303474Y285039D01*
X292382Y271516D02*
X294882Y272766D01*
X297382Y271516D01*
X296132Y274016D02*
X297382Y271516D01*
X296132Y274016D02*
X297382Y276516D01*
X294882Y275266D02*
X297382Y276516D01*
X292382D02*
X294882Y275266D01*
X292382Y276516D02*
X293632Y274016D01*
X292382Y271516D02*
X293632Y274016D01*
X182539Y219547D02*
X185039Y220797D01*
X187539Y219547D01*
X186289Y222047D02*
X187539Y219547D01*
X186289Y222047D02*
X187539Y224547D01*
X185039Y223297D02*
X187539Y224547D01*
X182539D02*
X185039Y223297D01*
X182539Y224547D02*
X183789Y222047D01*
X182539Y219547D02*
X183789Y222047D01*
X195138Y253799D02*
X197638Y255049D01*
X200138Y253799D01*
X198888Y256299D02*
X200138Y253799D01*
X198888Y256299D02*
X200138Y258799D01*
X197638Y257549D02*
X200138Y258799D01*
X195138D02*
X197638Y257549D01*
X195138Y258799D02*
X196388Y256299D01*
X195138Y253799D02*
X196388Y256299D01*
X203291Y213248D02*
X205791Y214498D01*
X208291Y213248D01*
X207041Y215748D02*
X208291Y213248D01*
X207041Y215748D02*
X208291Y218248D01*
X205791Y216998D02*
X208291Y218248D01*
X203291D02*
X205791Y216998D01*
X203291Y218248D02*
X204541Y215748D01*
X203291Y213248D02*
X204541Y215748D01*
X206161Y210492D02*
X208661Y211742D01*
X211161Y210492D01*
X209911Y212992D02*
X211161Y210492D01*
X209911Y212992D02*
X211161Y215492D01*
X208661Y214242D02*
X211161Y215492D01*
X206161D02*
X208661Y214242D01*
X206161Y215492D02*
X207411Y212992D01*
X206161Y210492D02*
X207411Y212992D01*
X358917Y262461D02*
X361417Y263711D01*
X363917Y262461D01*
X362667Y264961D02*
X363917Y262461D01*
X362667Y264961D02*
X363917Y267461D01*
X361417Y266211D02*
X363917Y267461D01*
X358917D02*
X361417Y266211D01*
X358917Y267461D02*
X360167Y264961D01*
X358917Y262461D02*
X360167Y264961D01*
X183327Y240807D02*
X185827Y242057D01*
X188327Y240807D01*
X187077Y243307D02*
X188327Y240807D01*
X187077Y243307D02*
X188327Y245807D01*
X185827Y244557D02*
X188327Y245807D01*
X183327D02*
X185827Y244557D01*
X183327Y245807D02*
X184577Y243307D01*
X183327Y240807D02*
X184577Y243307D01*
X184223Y228171D02*
X186723Y229421D01*
X189223Y228171D01*
X187973Y230671D02*
X189223Y228171D01*
X187973Y230671D02*
X189223Y233171D01*
X186723Y231921D02*
X189223Y233171D01*
X184223D02*
X186723Y231921D01*
X184223Y233171D02*
X185473Y230671D01*
X184223Y228171D02*
X185473Y230671D01*
X181179Y228376D02*
X183679Y229626D01*
X186179Y228376D01*
X184929Y230876D02*
X186179Y228376D01*
X184929Y230876D02*
X186179Y233376D01*
X183679Y232126D02*
X186179Y233376D01*
X181179D02*
X183679Y232126D01*
X181179Y233376D02*
X182429Y230876D01*
X181179Y228376D02*
X182429Y230876D01*
X181638Y255768D02*
X184138Y257018D01*
X186638Y255768D01*
X185388Y258268D02*
X186638Y255768D01*
X185388Y258268D02*
X186638Y260768D01*
X184138Y259518D02*
X186638Y260768D01*
X181638D02*
X184138Y259518D01*
X181638Y260768D02*
X182888Y258268D01*
X181638Y255768D02*
X182888Y258268D01*
X184114Y255768D02*
X186614Y257018D01*
X189114Y255768D01*
X187864Y258268D02*
X189114Y255768D01*
X187864Y258268D02*
X189114Y260768D01*
X186614Y259518D02*
X189114Y260768D01*
X184114D02*
X186614Y259518D01*
X184114Y260768D02*
X185364Y258268D01*
X184114Y255768D02*
X185364Y258268D01*
X181358Y266791D02*
X183858Y268041D01*
X186358Y266791D01*
X185108Y269291D02*
X186358Y266791D01*
X185108Y269291D02*
X186358Y271791D01*
X183858Y270541D02*
X186358Y271791D01*
X181358D02*
X183858Y270541D01*
X181358Y271791D02*
X182608Y269291D01*
X181358Y266791D02*
X182608Y269291D01*
X173878Y270728D02*
X176378Y271978D01*
X178878Y270728D01*
X177628Y273228D02*
X178878Y270728D01*
X177628Y273228D02*
X178878Y275728D01*
X176378Y274478D02*
X178878Y275728D01*
X173878D02*
X176378Y274478D01*
X173878Y275728D02*
X175128Y273228D01*
X173878Y270728D02*
X175128Y273228D01*
X184114Y270728D02*
X186614Y271978D01*
X189114Y270728D01*
X187864Y273228D02*
X189114Y270728D01*
X187864Y273228D02*
X189114Y275728D01*
X186614Y274478D02*
X189114Y275728D01*
X184114D02*
X186614Y274478D01*
X184114Y275728D02*
X185364Y273228D01*
X184114Y270728D02*
X185364Y273228D01*
X162854Y256555D02*
X165354Y257805D01*
X167854Y256555D01*
X166604Y259055D02*
X167854Y256555D01*
X166604Y259055D02*
X167854Y261555D01*
X165354Y260305D02*
X167854Y261555D01*
X162854D02*
X165354Y260305D01*
X162854Y261555D02*
X164104Y259055D01*
X162854Y256555D02*
X164104Y259055D01*
X143169Y260886D02*
X145669Y262136D01*
X148169Y260886D01*
X146919Y263386D02*
X148169Y260886D01*
X146919Y263386D02*
X148169Y265886D01*
X145669Y264636D02*
X148169Y265886D01*
X143169D02*
X145669Y264636D01*
X143169Y265886D02*
X144419Y263386D01*
X143169Y260886D02*
X144419Y263386D01*
X147106Y260886D02*
X149606Y262136D01*
X152106Y260886D01*
X150856Y263386D02*
X152106Y260886D01*
X150856Y263386D02*
X152106Y265886D01*
X149606Y264636D02*
X152106Y265886D01*
X147106D02*
X149606Y264636D01*
X147106Y265886D02*
X148356Y263386D01*
X147106Y260886D02*
X148356Y263386D01*
X151043Y260886D02*
X153543Y262136D01*
X156043Y260886D01*
X154793Y263386D02*
X156043Y260886D01*
X154793Y263386D02*
X156043Y265886D01*
X153543Y264636D02*
X156043Y265886D01*
X151043D02*
X153543Y264636D01*
X151043Y265886D02*
X152293Y263386D01*
X151043Y260886D02*
X152293Y263386D01*
X143957Y243563D02*
X146457Y244813D01*
X148957Y243563D01*
X147707Y246063D02*
X148957Y243563D01*
X147707Y246063D02*
X148957Y248563D01*
X146457Y247313D02*
X148957Y248563D01*
X143957D02*
X146457Y247313D01*
X143957Y248563D02*
X145207Y246063D01*
X143957Y243563D02*
X145207Y246063D01*
X147106Y243465D02*
X149606Y244715D01*
X152106Y243465D01*
X150856Y245965D02*
X152106Y243465D01*
X150856Y245965D02*
X152106Y248465D01*
X149606Y247215D02*
X152106Y248465D01*
X147106D02*
X149606Y247215D01*
X147106Y248465D02*
X148356Y245965D01*
X147106Y243465D02*
X148356Y245965D01*
X150256Y243563D02*
X152756Y244813D01*
X155256Y243563D01*
X154006Y246063D02*
X155256Y243563D01*
X154006Y246063D02*
X155256Y248563D01*
X152756Y247313D02*
X155256Y248563D01*
X150256D02*
X152756Y247313D01*
X150256Y248563D02*
X151506Y246063D01*
X150256Y243563D02*
X151506Y246063D01*
X143563Y225847D02*
X146063Y227097D01*
X148563Y225847D01*
X147313Y228346D02*
X148563Y225847D01*
X147313Y228346D02*
X148563Y230847D01*
X146063Y229596D02*
X148563Y230847D01*
X143563D02*
X146063Y229596D01*
X143563Y230847D02*
X144813Y228346D01*
X143563Y225847D02*
X144813Y228346D01*
X131752Y240807D02*
X134252Y242057D01*
X136752Y240807D01*
X135502Y243307D02*
X136752Y240807D01*
X135502Y243307D02*
X136752Y245807D01*
X134252Y244557D02*
X136752Y245807D01*
X131752D02*
X134252Y244557D01*
X131752Y245807D02*
X133002Y243307D01*
X131752Y240807D02*
X133002Y243307D01*
X132539Y269547D02*
X135039Y270797D01*
X137539Y269547D01*
X136289Y272047D02*
X137539Y269547D01*
X136289Y272047D02*
X137539Y274547D01*
X135039Y273297D02*
X137539Y274547D01*
X132539D02*
X135039Y273297D01*
X132539Y274547D02*
X133789Y272047D01*
X132539Y269547D02*
X133789Y272047D01*
X161673Y262461D02*
X164173Y263711D01*
X166673Y262461D01*
X165423Y264961D02*
X166673Y262461D01*
X165423Y264961D02*
X166673Y267461D01*
X164173Y266211D02*
X166673Y267461D01*
X161673D02*
X164173Y266211D01*
X161673Y267461D02*
X162923Y264961D01*
X161673Y262461D02*
X162923Y264961D01*
X161673Y269941D02*
X164173Y271191D01*
X166673Y269941D01*
X165423Y272441D02*
X166673Y269941D01*
X165423Y272441D02*
X166673Y274941D01*
X164173Y273691D02*
X166673Y274941D01*
X161673D02*
X164173Y273691D01*
X161673Y274941D02*
X162923Y272441D01*
X161673Y269941D02*
X162923Y272441D01*
X132539Y262067D02*
X135039Y263317D01*
X137539Y262067D01*
X136289Y264567D02*
X137539Y262067D01*
X136289Y264567D02*
X137539Y267067D01*
X135039Y265817D02*
X137539Y267067D01*
X132539D02*
X135039Y265817D01*
X132539Y267067D02*
X133789Y264567D01*
X132539Y262067D02*
X133789Y264567D01*
X171909Y217185D02*
X174409Y218435D01*
X176909Y217185D01*
X175659Y219685D02*
X176909Y217185D01*
X175659Y219685D02*
X176909Y222185D01*
X174409Y220935D02*
X176909Y222185D01*
X171909D02*
X174409Y220935D01*
X171909Y222185D02*
X173159Y219685D01*
X171909Y217185D02*
X173159Y219685D01*
X178996Y204587D02*
X181496Y205837D01*
X183996Y204587D01*
X182746Y207087D02*
X183996Y204587D01*
X182746Y207087D02*
X183996Y209587D01*
X181496Y208337D02*
X183996Y209587D01*
X178996D02*
X181496Y208337D01*
X178996Y209587D02*
X180246Y207087D01*
X178996Y204587D02*
X180246Y207087D01*
X186083Y204587D02*
X188583Y205837D01*
X191083Y204587D01*
X189833Y207087D02*
X191083Y204587D01*
X189833Y207087D02*
X191083Y209587D01*
X188583Y208337D02*
X191083Y209587D01*
X186083D02*
X188583Y208337D01*
X186083Y209587D02*
X187333Y207087D01*
X186083Y204587D02*
X187333Y207087D01*
X179587Y185492D02*
X182087Y186742D01*
X184587Y185492D01*
X183337Y187992D02*
X184587Y185492D01*
X183337Y187992D02*
X184587Y190492D01*
X182087Y189242D02*
X184587Y190492D01*
X179587D02*
X182087Y189242D01*
X179587Y190492D02*
X180837Y187992D01*
X179587Y185492D02*
X180837Y187992D01*
X168760Y185492D02*
X171260Y186742D01*
X173760Y185492D01*
X172510Y187992D02*
X173760Y185492D01*
X172510Y187992D02*
X173760Y190492D01*
X171260Y189242D02*
X173760Y190492D01*
X168760D02*
X171260Y189242D01*
X168760Y190492D02*
X170010Y187992D01*
X168760Y185492D02*
X170010Y187992D01*
X175453Y194350D02*
X177953Y195600D01*
X180453Y194350D01*
X179203Y196850D02*
X180453Y194350D01*
X179203Y196850D02*
X180453Y199350D01*
X177953Y198100D02*
X180453Y199350D01*
X175453D02*
X177953Y198100D01*
X175453Y199350D02*
X176703Y196850D01*
X175453Y194350D02*
X176703Y196850D01*
X179783Y194350D02*
X182283Y195600D01*
X184783Y194350D01*
X183534Y196850D02*
X184783Y194350D01*
X183534Y196850D02*
X184783Y199350D01*
X182283Y198100D02*
X184783Y199350D01*
X179783D02*
X182283Y198100D01*
X179783Y199350D02*
X181034Y196850D01*
X179783Y194350D02*
X181034Y196850D01*
X223129Y260982D02*
X225629Y262232D01*
X228129Y260982D01*
X226879Y263482D02*
X228129Y260982D01*
X226879Y263482D02*
X228129Y265982D01*
X225629Y264732D02*
X228129Y265982D01*
X223129D02*
X225629Y264732D01*
X223129Y265982D02*
X224379Y263482D01*
X223129Y260982D02*
X224379Y263482D01*
X202224Y284902D02*
X204724Y286152D01*
X207224Y284902D01*
X205974Y287402D02*
X207224Y284902D01*
X205974Y287402D02*
X207224Y289902D01*
X204724Y288652D02*
X207224Y289902D01*
X202224D02*
X204724Y288652D01*
X202224Y289902D02*
X203474Y287402D01*
X202224Y284902D02*
X203474Y287402D01*
X205768Y284902D02*
X208268Y286152D01*
X210768Y284902D01*
X209518Y287402D02*
X210768Y284902D01*
X209518Y287402D02*
X210768Y289902D01*
X208268Y288652D02*
X210768Y289902D01*
X205768D02*
X208268Y288652D01*
X205768Y289902D02*
X207018Y287402D01*
X205768Y284902D02*
X207018Y287402D01*
X169941Y316791D02*
X172441Y318041D01*
X174941Y316791D01*
X173691Y319291D02*
X174941Y316791D01*
X173691Y319291D02*
X174941Y321791D01*
X172441Y320541D02*
X174941Y321791D01*
X169941D02*
X172441Y320541D01*
X169941Y321791D02*
X171191Y319291D01*
X169941Y316791D02*
X171191Y319291D01*
X224665Y316791D02*
X227165Y318041D01*
X229665Y316791D01*
X228415Y319291D02*
X229665Y316791D01*
X228415Y319291D02*
X229665Y321791D01*
X227165Y320541D02*
X229665Y321791D01*
X224665D02*
X227165Y320541D01*
X224665Y321791D02*
X225915Y319291D01*
X224665Y316791D02*
X225915Y319291D01*
X240807Y288839D02*
X243307Y290089D01*
X245807Y288839D01*
X244557Y291339D02*
X245807Y288839D01*
X244557Y291339D02*
X245807Y293839D01*
X243307Y292589D02*
X245807Y293839D01*
X240807D02*
X243307Y292589D01*
X240807Y293839D02*
X242057Y291339D01*
X240807Y288839D02*
X242057Y291339D01*
X249468Y288839D02*
X251969Y290089D01*
X254468Y288839D01*
X253219Y291339D02*
X254468Y288839D01*
X253219Y291339D02*
X254468Y293839D01*
X251969Y292589D02*
X254468Y293839D01*
X249468D02*
X251969Y292589D01*
X249468Y293839D02*
X250718Y291339D01*
X249468Y288839D02*
X250718Y291339D01*
X258524Y288839D02*
X261024Y290089D01*
X263524Y288839D01*
X262274Y291339D02*
X263524Y288839D01*
X262274Y291339D02*
X263524Y293839D01*
X261024Y292589D02*
X263524Y293839D01*
X258524D02*
X261024Y292589D01*
X258524Y293839D02*
X259774Y291339D01*
X258524Y288839D02*
X259774Y291339D01*
X240807Y280965D02*
X243307Y282215D01*
X245807Y280965D01*
X244557Y283465D02*
X245807Y280965D01*
X244557Y283465D02*
X245807Y285965D01*
X243307Y284715D02*
X245807Y285965D01*
X240807D02*
X243307Y284715D01*
X240807Y285965D02*
X242057Y283465D01*
X240807Y280965D02*
X242057Y283465D01*
X249862Y280965D02*
X252362Y282215D01*
X254862Y280965D01*
X253612Y283465D02*
X254862Y280965D01*
X253612Y283465D02*
X254862Y285965D01*
X252362Y284715D02*
X254862Y285965D01*
X249862D02*
X252362Y284715D01*
X249862Y285965D02*
X251112Y283465D01*
X249862Y280965D02*
X251112Y283465D01*
X258917Y280965D02*
X261417Y282215D01*
X263917Y280965D01*
X262667Y283465D02*
X263917Y280965D01*
X262667Y283465D02*
X263917Y285965D01*
X261417Y284715D02*
X263917Y285965D01*
X258917D02*
X261417Y284715D01*
X258917Y285965D02*
X260167Y283465D01*
X258917Y280965D02*
X260167Y283465D01*
X290097Y295208D02*
X292597Y296458D01*
X295097Y295208D01*
X293847Y297708D02*
X295097Y295208D01*
X293847Y297708D02*
X295097Y300207D01*
X292597Y298957D02*
X295097Y300207D01*
X290097D02*
X292597Y298957D01*
X290097Y300207D02*
X291347Y297708D01*
X290097Y295208D02*
X291347Y297708D01*
X290020Y287657D02*
X292520Y288908D01*
X295020Y287657D01*
X293770Y290158D02*
X295020Y287657D01*
X293770Y290158D02*
X295020Y292657D01*
X292520Y291407D02*
X295020Y292657D01*
X290020D02*
X292520Y291407D01*
X290020Y292657D02*
X291270Y290158D01*
X290020Y287657D02*
X291270Y290158D01*
X291595Y264823D02*
X294094Y266073D01*
X296595Y264823D01*
X295344Y267323D02*
X296595Y264823D01*
X295344Y267323D02*
X296595Y269823D01*
X294094Y268573D02*
X296595Y269823D01*
X291595D02*
X294094Y268573D01*
X291595Y269823D02*
X292845Y267323D01*
X291595Y264823D02*
X292845Y267323D01*
X305768Y268366D02*
X308268Y269616D01*
X310768Y268366D01*
X309518Y270866D02*
X310768Y268366D01*
X309518Y270866D02*
X310768Y273366D01*
X308268Y272116D02*
X310768Y273366D01*
X305768D02*
X308268Y272116D01*
X305768Y273366D02*
X307018Y270866D01*
X305768Y268366D02*
X307018Y270866D01*
X309311Y268366D02*
X311811Y269616D01*
X314311Y268366D01*
X313061Y270866D02*
X314311Y268366D01*
X313061Y270866D02*
X314311Y273366D01*
X311811Y272116D02*
X314311Y273366D01*
X309311D02*
X311811Y272116D01*
X309311Y273366D02*
X310561Y270866D01*
X309311Y268366D02*
X310561Y270866D01*
X312854Y268366D02*
X315354Y269616D01*
X317854Y268366D01*
X316604Y270866D02*
X317854Y268366D01*
X316604Y270866D02*
X317854Y273366D01*
X315354Y272116D02*
X317854Y273366D01*
X312854D02*
X315354Y272116D01*
X312854Y273366D02*
X314104Y270866D01*
X312854Y268366D02*
X314104Y270866D01*
X366791Y278602D02*
X369291Y279852D01*
X371791Y278602D01*
X370541Y281102D02*
X371791Y278602D01*
X370541Y281102D02*
X371791Y283602D01*
X369291Y282352D02*
X371791Y283602D01*
X366791D02*
X369291Y282352D01*
X366791Y283602D02*
X368041Y281102D01*
X366791Y278602D02*
X368041Y281102D01*
X374665Y278602D02*
X377165Y279852D01*
X379665Y278602D01*
X378415Y281102D02*
X379665Y278602D01*
X378415Y281102D02*
X379665Y283602D01*
X377165Y282352D02*
X379665Y283602D01*
X374665D02*
X377165Y282352D01*
X374665Y283602D02*
X375915Y281102D01*
X374665Y278602D02*
X375915Y281102D01*
X359705Y258524D02*
X362205Y259774D01*
X364705Y258524D01*
X363455Y261024D02*
X364705Y258524D01*
X363455Y261024D02*
X364705Y263524D01*
X362205Y262274D02*
X364705Y263524D01*
X359705D02*
X362205Y262274D01*
X359705Y263524D02*
X360955Y261024D01*
X359705Y258524D02*
X360955Y261024D01*
X365216Y252618D02*
X367717Y253868D01*
X370216Y252618D01*
X368967Y255118D02*
X370216Y252618D01*
X368967Y255118D02*
X370216Y257618D01*
X367717Y256368D02*
X370216Y257618D01*
X365216D02*
X367717Y256368D01*
X365216Y257618D02*
X366466Y255118D01*
X365216Y252618D02*
X366466Y255118D01*
X361870Y244350D02*
X364370Y245600D01*
X366870Y244350D01*
X365620Y246850D02*
X366870Y244350D01*
X365620Y246850D02*
X366870Y249350D01*
X364370Y248100D02*
X366870Y249350D01*
X361870D02*
X364370Y248100D01*
X361870Y249350D02*
X363120Y246850D01*
X361870Y244350D02*
X363120Y246850D01*
X361870Y235295D02*
X364370Y236545D01*
X366870Y235295D01*
X365620Y237795D02*
X366870Y235295D01*
X365620Y237795D02*
X366870Y240295D01*
X364370Y239045D02*
X366870Y240295D01*
X361870D02*
X364370Y239045D01*
X361870Y240295D02*
X363120Y237795D01*
X361870Y235295D02*
X363120Y237795D01*
X358130Y198681D02*
X360630Y199931D01*
X363130Y198681D01*
X361880Y201181D02*
X363130Y198681D01*
X361880Y201181D02*
X363130Y203681D01*
X360630Y202431D02*
X363130Y203681D01*
X358130D02*
X360630Y202431D01*
X358130Y203681D02*
X359380Y201181D01*
X358130Y198681D02*
X359380Y201181D01*
X345532Y189232D02*
X348031Y190482D01*
X350532Y189232D01*
X349282Y191732D02*
X350532Y189232D01*
X349282Y191732D02*
X350532Y194232D01*
X348031Y192982D02*
X350532Y194232D01*
X345532D02*
X348031Y192982D01*
X345532Y194232D02*
X346781Y191732D01*
X345532Y189232D02*
X346781Y191732D01*
X329390Y249272D02*
X331890Y250522D01*
X334390Y249272D01*
X333140Y251772D02*
X334390Y249272D01*
X333140Y251772D02*
X334390Y254272D01*
X331890Y253022D02*
X334390Y254272D01*
X329390D02*
X331890Y253022D01*
X329390Y254272D02*
X330640Y251772D01*
X329390Y249272D02*
X330640Y251772D01*
X239232Y273091D02*
X241732Y274341D01*
X244232Y273091D01*
X242982Y275590D02*
X244232Y273091D01*
X242982Y275590D02*
X244232Y278091D01*
X241732Y276840D02*
X244232Y278091D01*
X239232D02*
X241732Y276840D01*
X239232Y278091D02*
X240482Y275590D01*
X239232Y273091D02*
X240482Y275590D01*
X259311Y273091D02*
X261811Y274341D01*
X264311Y273091D01*
X263061Y275590D02*
X264311Y273091D01*
X263061Y275590D02*
X264311Y278091D01*
X261811Y276840D02*
X264311Y278091D01*
X259311D02*
X261811Y276840D01*
X259311Y278091D02*
X260561Y275590D01*
X259311Y273091D02*
X260561Y275590D01*
X214035Y276634D02*
X216535Y277884D01*
X219035Y276634D01*
X217785Y279134D02*
X219035Y276634D01*
X217785Y279134D02*
X219035Y281634D01*
X216535Y280384D02*
X219035Y281634D01*
X214035D02*
X216535Y280384D01*
X214035Y281634D02*
X215285Y279134D01*
X214035Y276634D02*
X215285Y279134D01*
X223091Y275847D02*
X225590Y277097D01*
X228091Y275847D01*
X226840Y278346D02*
X228091Y275847D01*
X226840Y278346D02*
X228091Y280847D01*
X225590Y279596D02*
X228091Y280847D01*
X223091D02*
X225590Y279596D01*
X223091Y280847D02*
X224341Y278346D01*
X223091Y275847D02*
X224341Y278346D01*
X231752Y276634D02*
X234252Y277884D01*
X236752Y276634D01*
X235502Y279134D02*
X236752Y276634D01*
X235502Y279134D02*
X236752Y281634D01*
X234252Y280384D02*
X236752Y281634D01*
X231752D02*
X234252Y280384D01*
X231752Y281634D02*
X233002Y279134D01*
X231752Y276634D02*
X233002Y279134D01*
X206949Y271909D02*
X209449Y273160D01*
X211949Y271909D01*
X210699Y274410D02*
X211949Y271909D01*
X210699Y274410D02*
X211949Y276909D01*
X209449Y275659D02*
X211949Y276909D01*
X206949D02*
X209449Y275659D01*
X206949Y276909D02*
X208199Y274410D01*
X206949Y271909D02*
X208199Y274410D01*
X174272Y250059D02*
X176772Y251309D01*
X179272Y250059D01*
X178022Y252559D02*
X179272Y250059D01*
X178022Y252559D02*
X179272Y255059D01*
X176772Y253809D02*
X179272Y255059D01*
X174272D02*
X176772Y253809D01*
X174272Y255059D02*
X175522Y252559D01*
X174272Y250059D02*
X175522Y252559D01*
X258524Y332539D02*
X261024Y333789D01*
X263524Y332539D01*
X262274Y335039D02*
X263524Y332539D01*
X262274Y335039D02*
X263524Y337539D01*
X261024Y336289D02*
X263524Y337539D01*
X258524D02*
X261024Y336289D01*
X258524Y337539D02*
X259774Y335039D01*
X258524Y332539D02*
X259774Y335039D01*
X387264Y245532D02*
X389764Y246781D01*
X392264Y245532D01*
X391014Y248031D02*
X392264Y245532D01*
X391014Y248031D02*
X392264Y250532D01*
X389764Y249282D02*
X392264Y250532D01*
X387264D02*
X389764Y249282D01*
X387264Y250532D02*
X388514Y248031D01*
X387264Y245532D02*
X388514Y248031D01*
X379390Y237657D02*
X381890Y238908D01*
X384390Y237657D01*
X383140Y240158D02*
X384390Y237657D01*
X383140Y240158D02*
X384390Y242657D01*
X381890Y241407D02*
X384390Y242657D01*
X379390D02*
X381890Y241407D01*
X379390Y242657D02*
X380640Y240158D01*
X379390Y237657D02*
X380640Y240158D01*
X395138Y237657D02*
X397638Y238908D01*
X400138Y237657D01*
X398888Y240158D02*
X400138Y237657D01*
X398888Y240158D02*
X400138Y242657D01*
X397638Y241407D02*
X400138Y242657D01*
X395138D02*
X397638Y241407D01*
X395138Y242657D02*
X396388Y240158D01*
X395138Y237657D02*
X396388Y240158D01*
X395138Y253405D02*
X397638Y254656D01*
X400138Y253405D01*
X398888Y255906D02*
X400138Y253405D01*
X398888Y255906D02*
X400138Y258405D01*
X397638Y257155D02*
X400138Y258405D01*
X395138D02*
X397638Y257155D01*
X395138Y258405D02*
X396388Y255906D01*
X395138Y253405D02*
X396388Y255906D01*
X379390Y253405D02*
X381890Y254656D01*
X384390Y253405D01*
X383140Y255906D02*
X384390Y253405D01*
X383140Y255906D02*
X384390Y258405D01*
X381890Y257155D02*
X384390Y258405D01*
X379390D02*
X381890Y257155D01*
X379390Y258405D02*
X380640Y255906D01*
X379390Y253405D02*
X380640Y255906D01*
X387264Y261280D02*
X389764Y262529D01*
X392264Y261280D01*
X391014Y263779D02*
X392264Y261280D01*
X391014Y263779D02*
X392264Y266280D01*
X389764Y265030D02*
X392264Y266280D01*
X387264D02*
X389764Y265030D01*
X387264Y266280D02*
X388514Y263779D01*
X387264Y261280D02*
X388514Y263779D01*
X387264Y229784D02*
X389764Y231033D01*
X392264Y229784D01*
X391014Y232283D02*
X392264Y229784D01*
X391014Y232283D02*
X392264Y234784D01*
X389764Y233534D02*
X392264Y234784D01*
X387264D02*
X389764Y233534D01*
X387264Y234784D02*
X388514Y232283D01*
X387264Y229784D02*
X388514Y232283D01*
X387264Y292776D02*
X389764Y294026D01*
X392264Y292776D01*
X391014Y295276D02*
X392264Y292776D01*
X391014Y295276D02*
X392264Y297776D01*
X389764Y296526D02*
X392264Y297776D01*
X387264D02*
X389764Y296526D01*
X387264Y297776D02*
X388514Y295276D01*
X387264Y292776D02*
X388514Y295276D01*
X395138Y269153D02*
X397638Y270404D01*
X400138Y269153D01*
X398888Y271654D02*
X400138Y269153D01*
X398888Y271654D02*
X400138Y274153D01*
X397638Y272903D02*
X400138Y274153D01*
X395138D02*
X397638Y272903D01*
X395138Y274153D02*
X396388Y271654D01*
X395138Y269153D02*
X396388Y271654D01*
X379390Y269153D02*
X381890Y270404D01*
X384390Y269153D01*
X383140Y271654D02*
X384390Y269153D01*
X383140Y271654D02*
X384390Y274153D01*
X381890Y272903D02*
X384390Y274153D01*
X379390D02*
X381890Y272903D01*
X379390Y274153D02*
X380640Y271654D01*
X379390Y269153D02*
X380640Y271654D01*
X379390Y284902D02*
X381890Y286152D01*
X384390Y284902D01*
X383140Y287402D02*
X384390Y284902D01*
X383140Y287402D02*
X384390Y289902D01*
X381890Y288652D02*
X384390Y289902D01*
X379390D02*
X381890Y288652D01*
X379390Y289902D02*
X380640Y287402D01*
X379390Y284902D02*
X380640Y287402D01*
X395138Y284902D02*
X397638Y286152D01*
X400138Y284902D01*
X398888Y287402D02*
X400138Y284902D01*
X398888Y287402D02*
X400138Y289902D01*
X397638Y288652D02*
X400138Y289902D01*
X395138D02*
X397638Y288652D01*
X395138Y289902D02*
X396388Y287402D01*
X395138Y284902D02*
X396388Y287402D01*
X387264Y277028D02*
X389764Y278278D01*
X392264Y277028D01*
X391014Y279528D02*
X392264Y277028D01*
X391014Y279528D02*
X392264Y282028D01*
X389764Y280778D02*
X392264Y282028D01*
X387264D02*
X389764Y280778D01*
X387264Y282028D02*
X388514Y279528D01*
X387264Y277028D02*
X388514Y279528D01*
X379390Y221909D02*
X381890Y223160D01*
X384390Y221909D01*
X383140Y224410D02*
X384390Y221909D01*
X383140Y224410D02*
X384390Y226909D01*
X381890Y225659D02*
X384390Y226909D01*
X379390D02*
X381890Y225659D01*
X379390Y226909D02*
X380640Y224410D01*
X379390Y221909D02*
X380640Y224410D01*
X395138Y221909D02*
X397638Y223160D01*
X400138Y221909D01*
X398888Y224410D02*
X400138Y221909D01*
X398888Y224410D02*
X400138Y226909D01*
X397638Y225659D02*
X400138Y226909D01*
X395138D02*
X397638Y225659D01*
X395138Y226909D02*
X396388Y224410D01*
X395138Y221909D02*
X396388Y224410D01*
X387264Y214035D02*
X389764Y215285D01*
X392264Y214035D01*
X391014Y216535D02*
X392264Y214035D01*
X391014Y216535D02*
X392264Y219035D01*
X389764Y217785D02*
X392264Y219035D01*
X387264D02*
X389764Y217785D01*
X387264Y219035D02*
X388514Y216535D01*
X387264Y214035D02*
X388514Y216535D01*
X395138Y210098D02*
X397638Y211348D01*
X400138Y210098D01*
X398888Y212598D02*
X400138Y210098D01*
X398888Y212598D02*
X400138Y215098D01*
X397638Y213848D02*
X400138Y215098D01*
X395138D02*
X397638Y213848D01*
X395138Y215098D02*
X396388Y212598D01*
X395138Y210098D02*
X396388Y212598D01*
X379390Y300650D02*
X381890Y301900D01*
X384390Y300650D01*
X383140Y303150D02*
X384390Y300650D01*
X383140Y303150D02*
X384390Y305650D01*
X381890Y304400D02*
X384390Y305650D01*
X379390D02*
X381890Y304400D01*
X379390Y305650D02*
X380640Y303150D01*
X379390Y300650D02*
X380640Y303150D01*
X395138Y300650D02*
X397638Y301900D01*
X400138Y300650D01*
X398888Y303150D02*
X400138Y300650D01*
X398888Y303150D02*
X400138Y305650D01*
X397638Y304400D02*
X400138Y305650D01*
X395138D02*
X397638Y304400D01*
X395138Y305650D02*
X396388Y303150D01*
X395138Y300650D02*
X396388Y303150D01*
X395138Y308524D02*
X397638Y309774D01*
X400138Y308524D01*
X398888Y311024D02*
X400138Y308524D01*
X398888Y311024D02*
X400138Y313524D01*
X397638Y312274D02*
X400138Y313524D01*
X395138D02*
X397638Y312274D01*
X395138Y313524D02*
X396388Y311024D01*
X395138Y308524D02*
X396388Y311024D01*
X387264Y304587D02*
X389764Y305837D01*
X392264Y304587D01*
X391014Y307087D02*
X392264Y304587D01*
X391014Y307087D02*
X392264Y309587D01*
X389764Y308337D02*
X392264Y309587D01*
X387264D02*
X389764Y308337D01*
X387264Y309587D02*
X388514Y307087D01*
X387264Y304587D02*
X388514Y307087D01*
X324272Y304587D02*
X326772Y305837D01*
X329272Y304587D01*
X328022Y307087D02*
X329272Y304587D01*
X328022Y307087D02*
X329272Y309587D01*
X326772Y308337D02*
X329272Y309587D01*
X324272D02*
X326772Y308337D01*
X324272Y309587D02*
X325522Y307087D01*
X324272Y304587D02*
X325522Y307087D01*
X332146Y312461D02*
X334646Y313711D01*
X337146Y312461D01*
X335896Y314961D02*
X337146Y312461D01*
X335896Y314961D02*
X337146Y317461D01*
X334646Y316211D02*
X337146Y317461D01*
X332146D02*
X334646Y316211D01*
X332146Y317461D02*
X333396Y314961D01*
X332146Y312461D02*
X333396Y314961D01*
X316398Y312461D02*
X318898Y313711D01*
X321398Y312461D01*
X320148Y314961D02*
X321398Y312461D01*
X320148Y314961D02*
X321398Y317461D01*
X318898Y316211D02*
X321398Y317461D01*
X316398D02*
X318898Y316211D01*
X316398Y317461D02*
X317648Y314961D01*
X316398Y312461D02*
X317648Y314961D01*
X324272Y320335D02*
X326772Y321585D01*
X329272Y320335D01*
X328022Y322835D02*
X329272Y320335D01*
X328022Y322835D02*
X329272Y325335D01*
X326772Y324085D02*
X329272Y325335D01*
X324272D02*
X326772Y324085D01*
X324272Y325335D02*
X325522Y322835D01*
X324272Y320335D02*
X325522Y322835D01*
X340020Y320335D02*
X342520Y321585D01*
X345020Y320335D01*
X343770Y322835D02*
X345020Y320335D01*
X343770Y322835D02*
X345020Y325335D01*
X342520Y324085D02*
X345020Y325335D01*
X340020D02*
X342520Y324085D01*
X340020Y325335D02*
X341270Y322835D01*
X340020Y320335D02*
X341270Y322835D01*
X347894Y328209D02*
X350394Y329459D01*
X352894Y328209D01*
X351644Y330709D02*
X352894Y328209D01*
X351644Y330709D02*
X352894Y333209D01*
X350394Y331959D02*
X352894Y333209D01*
X347894D02*
X350394Y331959D01*
X347894Y333209D02*
X349144Y330709D01*
X347894Y328209D02*
X349144Y330709D01*
X332146Y328209D02*
X334646Y329459D01*
X337146Y328209D01*
X335896Y330709D02*
X337146Y328209D01*
X335896Y330709D02*
X337146Y333209D01*
X334646Y331959D02*
X337146Y333209D01*
X332146D02*
X334646Y331959D01*
X332146Y333209D02*
X333396Y330709D01*
X332146Y328209D02*
X333396Y330709D01*
X355768Y304587D02*
X358268Y305837D01*
X360768Y304587D01*
X359518Y307087D02*
X360768Y304587D01*
X359518Y307087D02*
X360768Y309587D01*
X358268Y308337D02*
X360768Y309587D01*
X355768D02*
X358268Y308337D01*
X355768Y309587D02*
X357018Y307087D01*
X355768Y304587D02*
X357018Y307087D01*
X363642Y312461D02*
X366142Y313711D01*
X368642Y312461D01*
X367392Y314961D02*
X368642Y312461D01*
X367392Y314961D02*
X368642Y317461D01*
X366142Y316211D02*
X368642Y317461D01*
X363642D02*
X366142Y316211D01*
X363642Y317461D02*
X364892Y314961D01*
X363642Y312461D02*
X364892Y314961D01*
X347894Y312461D02*
X350394Y313711D01*
X352894Y312461D01*
X351644Y314961D02*
X352894Y312461D01*
X351644Y314961D02*
X352894Y317461D01*
X350394Y316211D02*
X352894Y317461D01*
X347894D02*
X350394Y316211D01*
X347894Y317461D02*
X349144Y314961D01*
X347894Y312461D02*
X349144Y314961D01*
X355768Y320335D02*
X358268Y321585D01*
X360768Y320335D01*
X359518Y322835D02*
X360768Y320335D01*
X359518Y322835D02*
X360768Y325335D01*
X358268Y324085D02*
X360768Y325335D01*
X355768D02*
X358268Y324085D01*
X355768Y325335D02*
X357018Y322835D01*
X355768Y320335D02*
X357018Y322835D01*
X347894Y300650D02*
X350394Y301900D01*
X352894Y300650D01*
X351644Y303150D02*
X352894Y300650D01*
X351644Y303150D02*
X352894Y305650D01*
X350394Y304400D02*
X352894Y305650D01*
X347894D02*
X350394Y304400D01*
X347894Y305650D02*
X349144Y303150D01*
X347894Y300650D02*
X349144Y303150D01*
X340020Y304587D02*
X342520Y305837D01*
X345020Y304587D01*
X343770Y307087D02*
X345020Y304587D01*
X343770Y307087D02*
X345020Y309587D01*
X342520Y308337D02*
X345020Y309587D01*
X340020D02*
X342520Y308337D01*
X340020Y309587D02*
X341270Y307087D01*
X340020Y304587D02*
X341270Y307087D01*
X363642Y296713D02*
X366142Y297963D01*
X368642Y296713D01*
X367392Y299213D02*
X368642Y296713D01*
X367392Y299213D02*
X368642Y301713D01*
X366142Y300463D02*
X368642Y301713D01*
X363642D02*
X366142Y300463D01*
X363642Y301713D02*
X364892Y299213D01*
X363642Y296713D02*
X364892Y299213D01*
X371516Y304587D02*
X374016Y305837D01*
X376516Y304587D01*
X375266Y307087D02*
X376516Y304587D01*
X375266Y307087D02*
X376516Y309587D01*
X374016Y308337D02*
X376516Y309587D01*
X371516D02*
X374016Y308337D01*
X371516Y309587D02*
X372766Y307087D01*
X371516Y304587D02*
X372766Y307087D01*
X375453Y292776D02*
X377953Y294026D01*
X380453Y292776D01*
X379203Y295276D02*
X380453Y292776D01*
X379203Y295276D02*
X380453Y297776D01*
X377953Y296526D02*
X380453Y297776D01*
X375453D02*
X377953Y296526D01*
X375453Y297776D02*
X376703Y295276D01*
X375453Y292776D02*
X376703Y295276D01*
X359705Y284902D02*
X362205Y286152D01*
X364705Y284902D01*
X363455Y287402D02*
X364705Y284902D01*
X363455Y287402D02*
X364705Y289902D01*
X362205Y288652D02*
X364705Y289902D01*
X359705D02*
X362205Y288652D01*
X359705Y289902D02*
X360955Y287402D01*
X359705Y284902D02*
X360955Y287402D01*
X369472Y286766D02*
X371972Y288016D01*
X374471Y286766D01*
X373221Y289266D02*
X374471Y286766D01*
X373221Y289266D02*
X374471Y291766D01*
X371972Y290516D02*
X374471Y291766D01*
X369472D02*
X371972Y290516D01*
X369472Y291766D02*
X370722Y289266D01*
X369472Y286766D02*
X370722Y289266D01*
X367579Y320335D02*
X370079Y321585D01*
X372579Y320335D01*
X371329Y322835D02*
X372579Y320335D01*
X371329Y322835D02*
X372579Y325335D01*
X370079Y324085D02*
X372579Y325335D01*
X367579D02*
X370079Y324085D01*
X367579Y325335D02*
X368829Y322835D01*
X367579Y320335D02*
X368829Y322835D01*
X371516Y328209D02*
X374016Y329459D01*
X376516Y328209D01*
X375266Y330709D02*
X376516Y328209D01*
X375266Y330709D02*
X376516Y333209D01*
X374016Y331959D02*
X376516Y333209D01*
X371516D02*
X374016Y331959D01*
X371516Y333209D02*
X372766Y330709D01*
X371516Y328209D02*
X372766Y330709D01*
X371516Y245532D02*
X374016Y246781D01*
X376516Y245532D01*
X375266Y248031D02*
X376516Y245532D01*
X375266Y248031D02*
X376516Y250532D01*
X374016Y249282D02*
X376516Y250532D01*
X371516D02*
X374016Y249282D01*
X371516Y250532D02*
X372766Y248031D01*
X371516Y245532D02*
X372766Y248031D01*
X371516Y261280D02*
X374016Y262529D01*
X376516Y261280D01*
X375266Y263779D02*
X376516Y261280D01*
X375266Y263779D02*
X376516Y266280D01*
X374016Y265030D02*
X376516Y266280D01*
X371516D02*
X374016Y265030D01*
X371516Y266280D02*
X372766Y263779D01*
X371516Y261280D02*
X372766Y263779D01*
X371516Y233720D02*
X374016Y234970D01*
X376516Y233720D01*
X375266Y236221D02*
X376516Y233720D01*
X375266Y236221D02*
X376516Y238720D01*
X374016Y237471D02*
X376516Y238720D01*
X371516D02*
X374016Y237471D01*
X371516Y238720D02*
X372766Y236221D01*
X371516Y233720D02*
X372766Y236221D01*
X263248Y259311D02*
X265748Y260561D01*
X268248Y259311D01*
X266998Y261811D02*
X268248Y259311D01*
X266998Y261811D02*
X268248Y264311D01*
X265748Y263061D02*
X268248Y264311D01*
X263248D02*
X265748Y263061D01*
X263248Y264311D02*
X264498Y261811D01*
X263248Y259311D02*
X264498Y261811D01*
X269075Y266307D02*
X271575Y267557D01*
X274075Y266307D01*
X272825Y268807D02*
X274075Y266307D01*
X272825Y268807D02*
X274075Y271307D01*
X271575Y270057D02*
X274075Y271307D01*
X269075D02*
X271575Y270057D01*
X269075Y271307D02*
X270325Y268807D01*
X269075Y266307D02*
X270325Y268807D01*
X269153Y251437D02*
X271654Y252687D01*
X274153Y251437D01*
X272903Y253937D02*
X274153Y251437D01*
X272903Y253937D02*
X274153Y256437D01*
X271654Y255187D02*
X274153Y256437D01*
X269153D02*
X271654Y255187D01*
X269153Y256437D02*
X270404Y253937D01*
X269153Y251437D02*
X270404Y253937D01*
X242382Y249665D02*
X244882Y250915D01*
X247382Y249665D01*
X246132Y252165D02*
X247382Y249665D01*
X246132Y252165D02*
X247382Y254665D01*
X244882Y253415D02*
X247382Y254665D01*
X242382D02*
X244882Y253415D01*
X242382Y254665D02*
X243632Y252165D01*
X242382Y249665D02*
X243632Y252165D01*
X379390Y214035D02*
X381890Y215285D01*
X384390Y214035D01*
X383140Y216535D02*
X384390Y214035D01*
X383140Y216535D02*
X384390Y219035D01*
X381890Y217785D02*
X384390Y219035D01*
X379390D02*
X381890Y217785D01*
X379390Y219035D02*
X380640Y216535D01*
X379390Y214035D02*
X380640Y216535D01*
X147106Y225453D02*
X149606Y226703D01*
X152106Y225453D01*
X150856Y227953D02*
X152106Y225453D01*
X150856Y227953D02*
X152106Y230453D01*
X149606Y229203D02*
X152106Y230453D01*
X147106D02*
X149606Y229203D01*
X147106Y230453D02*
X148356Y227953D01*
X147106Y225453D02*
X148356Y227953D01*
X153405Y225453D02*
X155905Y226703D01*
X158405Y225453D01*
X157156Y227953D02*
X158405Y225453D01*
X157156Y227953D02*
X158405Y230453D01*
X155905Y229203D02*
X158405Y230453D01*
X153405D02*
X155905Y229203D01*
X153405Y230453D02*
X154656Y227953D01*
X153405Y225453D02*
X154656Y227953D01*
X140807Y221122D02*
X143307Y222372D01*
X145807Y221122D01*
X144557Y223622D02*
X145807Y221122D01*
X144557Y223622D02*
X145807Y226122D01*
X143307Y224872D02*
X145807Y226122D01*
X140807D02*
X143307Y224872D01*
X140807Y226122D02*
X142057Y223622D01*
X140807Y221122D02*
X142057Y223622D01*
X157135Y220347D02*
X159635Y221597D01*
X162136Y220347D01*
X160886Y222847D02*
X162136Y220347D01*
X160886Y222847D02*
X162136Y225347D01*
X159635Y224097D02*
X162136Y225347D01*
X157135D02*
X159635Y224097D01*
X157135Y225347D02*
X158386Y222847D01*
X157135Y220347D02*
X158386Y222847D01*
X139406Y230344D02*
X141905Y231594D01*
X144405Y230344D01*
X143156Y232844D02*
X144405Y230344D01*
X143156Y232844D02*
X144405Y235344D01*
X141905Y234094D02*
X144405Y235344D01*
X139406D02*
X141905Y234094D01*
X139406Y235344D02*
X140656Y232844D01*
X139406Y230344D02*
X140656Y232844D01*
X141595Y267579D02*
X144095Y268829D01*
X146595Y267579D01*
X145344Y270079D02*
X146595Y267579D01*
X145344Y270079D02*
X146595Y272579D01*
X144095Y271329D02*
X146595Y272579D01*
X141595D02*
X144095Y271329D01*
X141595Y272579D02*
X142844Y270079D01*
X141595Y267579D02*
X142844Y270079D01*
X152618Y267579D02*
X155118Y268829D01*
X157618Y267579D01*
X156368Y270079D02*
X157618Y267579D01*
X156368Y270079D02*
X157618Y272579D01*
X155118Y271329D02*
X157618Y272579D01*
X152618D02*
X155118Y271329D01*
X152618Y272579D02*
X153868Y270079D01*
X152618Y267579D02*
X153868Y270079D01*
X171101Y208326D02*
X173601Y209576D01*
X176101Y208326D01*
X174851Y210826D02*
X176101Y208326D01*
X174851Y210826D02*
X176101Y213326D01*
X173601Y212076D02*
X176101Y213326D01*
X171101D02*
X173601Y212076D01*
X171101Y213326D02*
X172351Y210826D01*
X171101Y208326D02*
X172351Y210826D01*
X165610Y212854D02*
X168110Y214104D01*
X170610Y212854D01*
X169360Y215354D02*
X170610Y212854D01*
X169360Y215354D02*
X170610Y217854D01*
X168110Y216604D02*
X170610Y217854D01*
X165610D02*
X168110Y216604D01*
X165610Y217854D02*
X166860Y215354D01*
X165610Y212854D02*
X166860Y215354D01*
X157787Y208801D02*
X160287Y210051D01*
X162787Y208801D01*
X161537Y211301D02*
X162787Y208801D01*
X161537Y211301D02*
X162787Y213801D01*
X160287Y212551D02*
X162787Y213801D01*
X157787D02*
X160287Y212551D01*
X157787Y213801D02*
X159037Y211301D01*
X157787Y208801D02*
X159037Y211301D01*
X151043Y214035D02*
X153543Y215285D01*
X156043Y214035D01*
X154793Y216535D02*
X156043Y214035D01*
X154793Y216535D02*
X156043Y219035D01*
X153543Y217785D02*
X156043Y219035D01*
X151043D02*
X153543Y217785D01*
X151043Y219035D02*
X152293Y216535D01*
X151043Y214035D02*
X152293Y216535D01*
X130374Y207146D02*
X132874Y208396D01*
X135374Y207146D01*
X134124Y209646D02*
X135374Y207146D01*
X134124Y209646D02*
X135374Y212146D01*
X132874Y210896D02*
X135374Y212146D01*
X130374D02*
X132874Y210896D01*
X130374Y212146D02*
X131624Y209646D01*
X130374Y207146D02*
X131624Y209646D01*
X130374Y234705D02*
X132874Y235955D01*
X135374Y234705D01*
X134124Y237205D02*
X135374Y234705D01*
X134124Y237205D02*
X135374Y239705D01*
X132874Y238455D02*
X135374Y239705D01*
X130374D02*
X132874Y238455D01*
X130374Y239705D02*
X131624Y237205D01*
X130374Y234705D02*
X131624Y237205D01*
X130374Y220925D02*
X132874Y222175D01*
X135374Y220925D01*
X134124Y223425D02*
X135374Y220925D01*
X134124Y223425D02*
X135374Y225925D01*
X132874Y224675D02*
X135374Y225925D01*
X130374D02*
X132874Y224675D01*
X130374Y225925D02*
X131624Y223425D01*
X130374Y220925D02*
X131624Y223425D01*
X130374Y248484D02*
X132874Y249734D01*
X135374Y248484D01*
X134124Y250984D02*
X135374Y248484D01*
X134124Y250984D02*
X135374Y253484D01*
X132874Y252234D02*
X135374Y253484D01*
X130374D02*
X132874Y252234D01*
X130374Y253484D02*
X131624Y250984D01*
X130374Y248484D02*
X131624Y250984D01*
X133327Y188445D02*
X135827Y189695D01*
X138327Y188445D01*
X137077Y190945D02*
X138327Y188445D01*
X137077Y190945D02*
X138327Y193445D01*
X135827Y192195D02*
X138327Y193445D01*
X133327D02*
X135827Y192195D01*
X133327Y193445D02*
X134577Y190945D01*
X133327Y188445D02*
X134577Y190945D01*
X153996Y185492D02*
X156496Y186742D01*
X158996Y185492D01*
X157746Y187992D02*
X158996Y185492D01*
X157746Y187992D02*
X158996Y190492D01*
X156496Y189242D02*
X158996Y190492D01*
X153996D02*
X156496Y189242D01*
X153996Y190492D02*
X155246Y187992D01*
X153996Y185492D02*
X155246Y187992D01*
X193366Y185492D02*
X195866Y186742D01*
X198366Y185492D01*
X197116Y187992D02*
X198366Y185492D01*
X197116Y187992D02*
X198366Y190492D01*
X195866Y189242D02*
X198366Y190492D01*
X193366D02*
X195866Y189242D01*
X193366Y190492D02*
X194616Y187992D01*
X193366Y185492D02*
X194616Y187992D01*
X203175Y185494D02*
X205675Y186744D01*
X208175Y185494D01*
X206925Y187994D02*
X208175Y185494D01*
X206925Y187994D02*
X208175Y190494D01*
X205675Y189244D02*
X208175Y190494D01*
X203175D02*
X205675Y189244D01*
X203175Y190494D02*
X204425Y187994D01*
X203175Y185494D02*
X204425Y187994D01*
X130374Y276043D02*
X132874Y277293D01*
X135374Y276043D01*
X134124Y278543D02*
X135374Y276043D01*
X134124Y278543D02*
X135374Y281043D01*
X132874Y279793D02*
X135374Y281043D01*
X130374D02*
X132874Y279793D01*
X130374Y281043D02*
X131624Y278543D01*
X130374Y276043D02*
X131624Y278543D01*
X130374Y289823D02*
X132874Y291073D01*
X135374Y289823D01*
X134124Y292323D02*
X135374Y289823D01*
X134124Y292323D02*
X135374Y294823D01*
X132874Y293573D02*
X135374Y294823D01*
X130374D02*
X132874Y293573D01*
X130374Y294823D02*
X131624Y292323D01*
X130374Y289823D02*
X131624Y292323D01*
X130374Y303602D02*
X132874Y304852D01*
X135374Y303602D01*
X134124Y306102D02*
X135374Y303602D01*
X134124Y306102D02*
X135374Y308602D01*
X132874Y307352D02*
X135374Y308602D01*
X130374D02*
X132874Y307352D01*
X130374Y308602D02*
X131624Y306102D01*
X130374Y303602D02*
X131624Y306102D01*
X132343Y329193D02*
X134843Y330443D01*
X137343Y329193D01*
X136092Y331693D02*
X137343Y329193D01*
X136092Y331693D02*
X137343Y334193D01*
X134843Y332943D02*
X137343Y334193D01*
X132343D02*
X134843Y332943D01*
X132343Y334193D02*
X133592Y331693D01*
X132343Y329193D02*
X133592Y331693D01*
X156949Y333130D02*
X159449Y334380D01*
X161949Y333130D01*
X160699Y335630D02*
X161949Y333130D01*
X160699Y335630D02*
X161949Y338130D01*
X159449Y336880D02*
X161949Y338130D01*
X156949D02*
X159449Y336880D01*
X156949Y338130D02*
X158199Y335630D01*
X156949Y333130D02*
X158199Y335630D01*
X172697Y333130D02*
X175197Y334380D01*
X177697Y333130D01*
X176447Y335630D02*
X177697Y333130D01*
X176447Y335630D02*
X177697Y338130D01*
X175197Y336880D02*
X177697Y338130D01*
X172697D02*
X175197Y336880D01*
X172697Y338130D02*
X173947Y335630D01*
X172697Y333130D02*
X173947Y335630D01*
X186476Y333130D02*
X188976Y334380D01*
X191476Y333130D01*
X190226Y335630D02*
X191476Y333130D01*
X190226Y335630D02*
X191476Y338130D01*
X188976Y336880D02*
X191476Y338130D01*
X186476D02*
X188976Y336880D01*
X186476Y338130D02*
X187726Y335630D01*
X186476Y333130D02*
X187726Y335630D01*
X200256Y333130D02*
X202756Y334380D01*
X205256Y333130D01*
X204006Y335630D02*
X205256Y333130D01*
X204006Y335630D02*
X205256Y338130D01*
X202756Y336880D02*
X205256Y338130D01*
X200256D02*
X202756Y336880D01*
X200256Y338130D02*
X201506Y335630D01*
X200256Y333130D02*
X201506Y335630D01*
X213636Y333145D02*
X216136Y334395D01*
X218636Y333145D01*
X217386Y335645D02*
X218636Y333145D01*
X217386Y335645D02*
X218636Y338145D01*
X216136Y336895D02*
X218636Y338145D01*
X213636D02*
X216136Y336895D01*
X213636Y338145D02*
X214886Y335645D01*
X213636Y333145D02*
X214886Y335645D01*
X227478Y333176D02*
X229978Y334426D01*
X232478Y333176D01*
X231228Y335676D02*
X232478Y333176D01*
X231228Y335676D02*
X232478Y338176D01*
X229978Y336926D02*
X232478Y338176D01*
X227478D02*
X229978Y336926D01*
X227478Y338176D02*
X228728Y335676D01*
X227478Y333176D02*
X228728Y335676D01*
X243563Y333130D02*
X246063Y334380D01*
X248563Y333130D01*
X247313Y335630D02*
X248563Y333130D01*
X247313Y335630D02*
X248563Y338130D01*
X246063Y336880D02*
X248563Y338130D01*
X243563D02*
X246063Y336880D01*
X243563Y338130D02*
X244813Y335630D01*
X243563Y333130D02*
X244813Y335630D01*
X235689Y327224D02*
X238189Y328474D01*
X240689Y327224D01*
X239439Y329724D02*
X240689Y327224D01*
X239439Y329724D02*
X240689Y332224D01*
X238189Y330974D02*
X240689Y332224D01*
X235689D02*
X238189Y330974D01*
X235689Y332224D02*
X236939Y329724D01*
X235689Y327224D02*
X236939Y329724D01*
X177421Y324272D02*
X179921Y325522D01*
X182421Y324272D01*
X181171Y326772D02*
X182421Y324272D01*
X181171Y326772D02*
X182421Y329272D01*
X179921Y328022D02*
X182421Y329272D01*
X177421D02*
X179921Y328022D01*
X177421Y329272D02*
X178671Y326772D01*
X177421Y324272D02*
X178671Y326772D01*
X287854Y333130D02*
X290354Y334380D01*
X292854Y333130D01*
X291604Y335630D02*
X292854Y333130D01*
X291604Y335630D02*
X292854Y338130D01*
X290354Y336880D02*
X292854Y338130D01*
X287854D02*
X290354Y336880D01*
X287854Y338130D02*
X289104Y335630D01*
X287854Y333130D02*
X289104Y335630D01*
X274075Y333130D02*
X276575Y334380D01*
X279075Y333130D01*
X277825Y335630D02*
X279075Y333130D01*
X277825Y335630D02*
X279075Y338130D01*
X276575Y336880D02*
X279075Y338130D01*
X274075D02*
X276575Y336880D01*
X274075Y338130D02*
X275325Y335630D01*
X274075Y333130D02*
X275325Y335630D01*
X280965Y327224D02*
X283465Y328474D01*
X285965Y327224D01*
X284715Y329724D02*
X285965Y327224D01*
X284715Y329724D02*
X285965Y332224D01*
X283465Y330974D02*
X285965Y332224D01*
X280965D02*
X283465Y330974D01*
X280965Y332224D02*
X282215Y329724D01*
X280965Y327224D02*
X282215Y329724D01*
X302618Y312461D02*
X305118Y313711D01*
X307618Y312461D01*
X306368Y314961D02*
X307618Y312461D01*
X306368Y314961D02*
X307618Y317461D01*
X305118Y316211D02*
X307618Y317461D01*
X302618D02*
X305118Y316211D01*
X302618Y317461D02*
X303868Y314961D01*
X302618Y312461D02*
X303868Y314961D01*
X309508Y320335D02*
X312008Y321585D01*
X314508Y320335D01*
X313258Y322835D02*
X314508Y320335D01*
X313258Y322835D02*
X314508Y325335D01*
X312008Y324085D02*
X314508Y325335D01*
X309508D02*
X312008Y324085D01*
X309508Y325335D02*
X310758Y322835D01*
X309508Y320335D02*
X310758Y322835D01*
X309508Y304587D02*
X312008Y305837D01*
X314508Y304587D01*
X313258Y307087D02*
X314508Y304587D01*
X313258Y307087D02*
X314508Y309587D01*
X312008Y308337D02*
X314508Y309587D01*
X309508D02*
X312008Y308337D01*
X309508Y309587D02*
X310758Y307087D01*
X309508Y304587D02*
X310758Y307087D01*
X316398Y298681D02*
X318898Y299931D01*
X321398Y298681D01*
X320148Y301181D02*
X321398Y298681D01*
X320148Y301181D02*
X321398Y303681D01*
X318898Y302431D02*
X321398Y303681D01*
X316398D02*
X318898Y302431D01*
X316398Y303681D02*
X317648Y301181D01*
X316398Y298681D02*
X317648Y301181D01*
X309508Y290807D02*
X312008Y292057D01*
X314508Y290807D01*
X313258Y293307D02*
X314508Y290807D01*
X313258Y293307D02*
X314508Y295807D01*
X312008Y294557D02*
X314508Y295807D01*
X309508D02*
X312008Y294557D01*
X309508Y295807D02*
X310758Y293307D01*
X309508Y290807D02*
X310758Y293307D01*
X316398Y284902D02*
X318898Y286152D01*
X321398Y284902D01*
X320148Y287402D02*
X321398Y284902D01*
X320148Y287402D02*
X321398Y289902D01*
X318898Y288652D02*
X321398Y289902D01*
X316398D02*
X318898Y288652D01*
X316398Y289902D02*
X317648Y287402D01*
X316398Y284902D02*
X317648Y287402D01*
X309508Y277028D02*
X312008Y278278D01*
X314508Y277028D01*
X313258Y279528D02*
X314508Y277028D01*
X313258Y279528D02*
X314508Y282028D01*
X312008Y280778D02*
X314508Y282028D01*
X309508D02*
X312008Y280778D01*
X309508Y282028D02*
X310758Y279528D01*
X309508Y277028D02*
X310758Y279528D01*
X394153Y187461D02*
X396654Y188711D01*
X399153Y187461D01*
X397903Y189961D02*
X399153Y187461D01*
X397903Y189961D02*
X399153Y192461D01*
X396654Y191211D02*
X399153Y192461D01*
X394153D02*
X396654Y191211D01*
X394153Y192461D02*
X395404Y189961D01*
X394153Y187461D02*
X395404Y189961D01*
X371516Y185492D02*
X374016Y186742D01*
X376516Y185492D01*
X375266Y187992D02*
X376516Y185492D01*
X375266Y187992D02*
X376516Y190492D01*
X374016Y189242D02*
X376516Y190492D01*
X371516D02*
X374016Y189242D01*
X371516Y190492D02*
X372766Y187992D01*
X371516Y185492D02*
X372766Y187992D01*
X357736Y185492D02*
X360236Y186742D01*
X362736Y185492D01*
X361486Y187992D02*
X362736Y185492D01*
X361486Y187992D02*
X362736Y190492D01*
X360236Y189242D02*
X362736Y190492D01*
X357736D02*
X360236Y189242D01*
X357736Y190492D02*
X358986Y187992D01*
X357736Y185492D02*
X358986Y187992D01*
X343957Y185492D02*
X346457Y186742D01*
X348957Y185492D01*
X347707Y187992D02*
X348957Y185492D01*
X347707Y187992D02*
X348957Y190492D01*
X346457Y189242D02*
X348957Y190492D01*
X343957D02*
X346457Y189242D01*
X343957Y190492D02*
X345207Y187992D01*
X343957Y185492D02*
X345207Y187992D01*
X330177Y185492D02*
X332677Y186742D01*
X335177Y185492D01*
X333927Y187992D02*
X335177Y185492D01*
X333927Y187992D02*
X335177Y190492D01*
X332677Y189242D02*
X335177Y190492D01*
X330177D02*
X332677Y189242D01*
X330177Y190492D02*
X331427Y187992D01*
X330177Y185492D02*
X331427Y187992D01*
X316398Y185492D02*
X318898Y186742D01*
X321398Y185492D01*
X320148Y187992D02*
X321398Y185492D01*
X320148Y187992D02*
X321398Y190492D01*
X318898Y189242D02*
X321398Y190492D01*
X316398D02*
X318898Y189242D01*
X316398Y190492D02*
X317648Y187992D01*
X316398Y185492D02*
X317648Y187992D01*
X302618Y185492D02*
X305118Y186742D01*
X307618Y185492D01*
X306368Y187992D02*
X307618Y185492D01*
X306368Y187992D02*
X307618Y190492D01*
X305118Y189242D02*
X307618Y190492D01*
X302618D02*
X305118Y189242D01*
X302618Y190492D02*
X303868Y187992D01*
X302618Y185492D02*
X303868Y187992D01*
X288839Y185492D02*
X291339Y186742D01*
X293839Y185492D01*
X292589Y187992D02*
X293839Y185492D01*
X292589Y187992D02*
X293839Y190492D01*
X291339Y189242D02*
X293839Y190492D01*
X288839D02*
X291339Y189242D01*
X288839Y190492D02*
X290089Y187992D01*
X288839Y185492D02*
X290089Y187992D01*
X275059Y185492D02*
X277559Y186742D01*
X280059Y185492D01*
X278809Y187992D02*
X280059Y185492D01*
X278809Y187992D02*
X280059Y190492D01*
X277559Y189242D02*
X280059Y190492D01*
X275059D02*
X277559Y189242D01*
X275059Y190492D02*
X276309Y187992D01*
X275059Y185492D02*
X276309Y187992D01*
X261280Y185492D02*
X263779Y186742D01*
X266280Y185492D01*
X265030Y187992D02*
X266280Y185492D01*
X265030Y187992D02*
X266280Y190492D01*
X263779Y189242D02*
X266280Y190492D01*
X261280D02*
X263779Y189242D01*
X261280Y190492D02*
X262529Y187992D01*
X261280Y185492D02*
X262529Y187992D01*
X144153Y303602D02*
X146653Y304852D01*
X149153Y303602D01*
X147904Y306102D02*
X149153Y303602D01*
X147904Y306102D02*
X149153Y308602D01*
X146653Y307352D02*
X149153Y308602D01*
X144153D02*
X146653Y307352D01*
X144153Y308602D02*
X145404Y306102D01*
X144153Y303602D02*
X145404Y306102D01*
X137264Y296713D02*
X139764Y297963D01*
X142264Y296713D01*
X141014Y299213D02*
X142264Y296713D01*
X141014Y299213D02*
X142264Y301713D01*
X139764Y300463D02*
X142264Y301713D01*
X137264D02*
X139764Y300463D01*
X137264Y301713D02*
X138514Y299213D01*
X137264Y296713D02*
X138514Y299213D01*
X158917Y311476D02*
X161417Y312726D01*
X163917Y311476D01*
X162667Y313976D02*
X163917Y311476D01*
X162667Y313976D02*
X163917Y316476D01*
X161417Y315226D02*
X163917Y316476D01*
X158917D02*
X161417Y315226D01*
X158917Y316476D02*
X160167Y313976D01*
X158917Y311476D02*
X160167Y313976D01*
X160886Y323287D02*
X163386Y324537D01*
X165886Y323287D01*
X164636Y325787D02*
X165886Y323287D01*
X164636Y325787D02*
X165886Y328287D01*
X163386Y327037D02*
X165886Y328287D01*
X160886D02*
X163386Y327037D01*
X160886Y328287D02*
X162136Y325787D01*
X160886Y323287D02*
X162136Y325787D01*
X213636Y319365D02*
X216136Y320615D01*
X218636Y319365D01*
X217386Y321865D02*
X218636Y319365D01*
X217386Y321865D02*
X218636Y324365D01*
X216136Y323115D02*
X218636Y324365D01*
X213636D02*
X216136Y323115D01*
X213636Y324365D02*
X214886Y321865D01*
X213636Y319365D02*
X214886Y321865D01*
X207146Y314429D02*
X209646Y315679D01*
X212146Y314429D01*
X210896Y316929D02*
X212146Y314429D01*
X210896Y316929D02*
X212146Y319429D01*
X209646Y318179D02*
X212146Y319429D01*
X207146D02*
X209646Y318179D01*
X207146Y319429D02*
X208396Y316929D01*
X207146Y314429D02*
X208396Y316929D01*
X161870Y191398D02*
X164370Y192648D01*
X166870Y191398D01*
X165620Y193898D02*
X166870Y191398D01*
X165620Y193898D02*
X166870Y196398D01*
X164370Y195148D02*
X166870Y196398D01*
X161870D02*
X164370Y195148D01*
X161870Y196398D02*
X163120Y193898D01*
X161870Y191398D02*
X163120Y193898D01*
X161870Y202224D02*
X164370Y203474D01*
X166870Y202224D01*
X165620Y204724D02*
X166870Y202224D01*
X165620Y204724D02*
X166870Y207224D01*
X164370Y205974D02*
X166870Y207224D01*
X161870D02*
X164370Y205974D01*
X161870Y207224D02*
X163120Y204724D01*
X161870Y202224D02*
X163120Y204724D01*
X191398Y198287D02*
X193898Y199537D01*
X196398Y198287D01*
X195148Y200787D02*
X196398Y198287D01*
X195148Y200787D02*
X196398Y203287D01*
X193898Y202037D02*
X196398Y203287D01*
X191398D02*
X193898Y202037D01*
X191398Y203287D02*
X192648Y200787D01*
X191398Y198287D02*
X192648Y200787D01*
X223878Y301634D02*
X226378Y302884D01*
X228878Y301634D01*
X227628Y304134D02*
X228878Y301634D01*
X227628Y304134D02*
X228878Y306634D01*
X226378Y305384D02*
X228878Y306634D01*
X223878D02*
X226378Y305384D01*
X223878Y306634D02*
X225128Y304134D01*
X223878Y301634D02*
X225128Y304134D01*
X229783Y295599D02*
X232283Y296849D01*
X234783Y295599D01*
X233533Y298099D02*
X234783Y295599D01*
X233533Y298099D02*
X234783Y300599D01*
X232283Y299349D02*
X234783Y300599D01*
X229783D02*
X232283Y299349D01*
X229783Y300599D02*
X231033Y298099D01*
X229783Y295599D02*
X231033Y298099D01*
X277028Y304587D02*
X279528Y305837D01*
X282028Y304587D01*
X280778Y307087D02*
X282028Y304587D01*
X280778Y307087D02*
X282028Y309587D01*
X279528Y308337D02*
X282028Y309587D01*
X277028D02*
X279528Y308337D01*
X277028Y309587D02*
X278278Y307087D01*
X277028Y304587D02*
X278278Y307087D01*
X270433Y297343D02*
X272933Y298593D01*
X275433Y297343D01*
X274183Y299843D02*
X275433Y297343D01*
X274183Y299843D02*
X275433Y302343D01*
X272933Y301093D02*
X275433Y302343D01*
X270433D02*
X272933Y301093D01*
X270433Y302343D02*
X271683Y299843D01*
X270433Y297343D02*
X271683Y299843D01*
X302618Y326240D02*
X305118Y327490D01*
X307618Y326240D01*
X306368Y328740D02*
X307618Y326240D01*
X306368Y328740D02*
X307618Y331240D01*
X305118Y329990D02*
X307618Y331240D01*
X302618D02*
X305118Y329990D01*
X302618Y331240D02*
X303868Y328740D01*
X302618Y326240D02*
X303868Y328740D01*
X305571Y333130D02*
X308071Y334380D01*
X310571Y333130D01*
X309321Y335630D02*
X310571Y333130D01*
X309321Y335630D02*
X310571Y338130D01*
X308071Y336880D02*
X310571Y338130D01*
X305571D02*
X308071Y336880D01*
X305571Y338130D02*
X306821Y335630D01*
X305571Y333130D02*
X306821Y335630D01*
X326240Y333130D02*
X328740Y334380D01*
X331240Y333130D01*
X329990Y335630D02*
X331240Y333130D01*
X329990Y335630D02*
X331240Y338130D01*
X328740Y336880D02*
X331240Y338130D01*
X326240D02*
X328740Y336880D01*
X326240Y338130D02*
X327490Y335630D01*
X326240Y333130D02*
X327490Y335630D01*
X340020Y333130D02*
X342520Y334380D01*
X345020Y333130D01*
X343770Y335630D02*
X345020Y333130D01*
X343770Y335630D02*
X345020Y338130D01*
X342520Y336880D02*
X345020Y338130D01*
X340020D02*
X342520Y336880D01*
X340020Y338130D02*
X341270Y335630D01*
X340020Y333130D02*
X341270Y335630D01*
X353799Y333130D02*
X356299Y334380D01*
X358799Y333130D01*
X357549Y335630D02*
X358799Y333130D01*
X357549Y335630D02*
X358799Y338130D01*
X356299Y336880D02*
X358799Y338130D01*
X353799D02*
X356299Y336880D01*
X353799Y338130D02*
X355049Y335630D01*
X353799Y333130D02*
X355049Y335630D01*
X367579Y333130D02*
X370079Y334380D01*
X372579Y333130D01*
X371329Y335630D02*
X372579Y333130D01*
X371329Y335630D02*
X372579Y338130D01*
X370079Y336880D02*
X372579Y338130D01*
X367579D02*
X370079Y336880D01*
X367579Y338130D02*
X368829Y335630D01*
X367579Y333130D02*
X368829Y335630D01*
X377421Y333130D02*
X379921Y334380D01*
X382421Y333130D01*
X381171Y335630D02*
X382421Y333130D01*
X381171Y335630D02*
X382421Y338130D01*
X379921Y336880D02*
X382421Y338130D01*
X377421D02*
X379921Y336880D01*
X377421Y338130D02*
X378671Y335630D01*
X377421Y333130D02*
X378671Y335630D01*
X394153Y331161D02*
X396654Y332411D01*
X399153Y331161D01*
X397903Y333661D02*
X399153Y331161D01*
X397903Y333661D02*
X399153Y336161D01*
X396654Y334911D02*
X399153Y336161D01*
X394153D02*
X396654Y334911D01*
X394153Y336161D02*
X395404Y333661D01*
X394153Y331161D02*
X395404Y333661D01*
X364626Y190413D02*
X367126Y191663D01*
X369626Y190413D01*
X368376Y192913D02*
X369626Y190413D01*
X368376Y192913D02*
X369626Y195413D01*
X367126Y194163D02*
X369626Y195413D01*
X364626D02*
X367126Y194163D01*
X364626Y195413D02*
X365876Y192913D01*
X364626Y190413D02*
X365876Y192913D01*
X156751Y295807D02*
X159251Y297057D01*
X161751Y295807D01*
X160501Y298307D02*
X161751Y295807D01*
X160501Y298307D02*
X161751Y300807D01*
X159251Y299557D02*
X161751Y300807D01*
X156751D02*
X159251Y299557D01*
X156751Y300807D02*
X158001Y298307D01*
X156751Y295807D02*
X158001Y298307D01*
X168760Y298681D02*
X171260Y299931D01*
X173760Y298681D01*
X172510Y301181D02*
X173760Y298681D01*
X172510Y301181D02*
X173760Y303681D01*
X171260Y302431D02*
X173760Y303681D01*
X168760D02*
X171260Y302431D01*
X168760Y303681D02*
X170010Y301181D01*
X168760Y298681D02*
X170010Y301181D01*
X162854Y301634D02*
X165354Y302884D01*
X167854Y301634D01*
X166604Y304134D02*
X167854Y301634D01*
X166604Y304134D02*
X167854Y306634D01*
X165354Y305384D02*
X167854Y306634D01*
X162854D02*
X165354Y305384D01*
X162854Y306634D02*
X164104Y304134D01*
X162854Y301634D02*
X164104Y304134D01*
X161870Y290807D02*
X164370Y292057D01*
X166870Y290807D01*
X165620Y293307D02*
X166870Y290807D01*
X165620Y293307D02*
X166870Y295807D01*
X164370Y294557D02*
X166870Y295807D01*
X161870D02*
X164370Y294557D01*
X161870Y295807D02*
X163120Y293307D01*
X161870Y290807D02*
X163120Y293307D01*
X161673Y283720D02*
X164173Y284970D01*
X166673Y283720D01*
X165423Y286221D02*
X166673Y283720D01*
X165423Y286221D02*
X166673Y288720D01*
X164173Y287471D02*
X166673Y288720D01*
X161673D02*
X164173Y287471D01*
X161673Y288720D02*
X162923Y286221D01*
X161673Y283720D02*
X162923Y286221D01*
X169744Y283917D02*
X172244Y285167D01*
X174744Y283917D01*
X173494Y286417D02*
X174744Y283917D01*
X173494Y286417D02*
X174744Y288917D01*
X172244Y287667D02*
X174744Y288917D01*
X169744D02*
X172244Y287667D01*
X169744Y288917D02*
X170994Y286417D01*
X169744Y283917D02*
X170994Y286417D01*
X169744Y270138D02*
X172244Y271388D01*
X174744Y270138D01*
X173494Y272638D02*
X174744Y270138D01*
X173494Y272638D02*
X174744Y275138D01*
X172244Y273888D02*
X174744Y275138D01*
X169744D02*
X172244Y273888D01*
X169744Y275138D02*
X170994Y272638D01*
X169744Y270138D02*
X170994Y272638D01*
X198091Y267776D02*
X200591Y269026D01*
X203091Y267776D01*
X201841Y270276D02*
X203091Y267776D01*
X201841Y270276D02*
X203091Y272776D01*
X200591Y271526D02*
X203091Y272776D01*
X198091D02*
X200591Y271526D01*
X198091Y272776D02*
X199341Y270276D01*
X198091Y267776D02*
X199341Y270276D01*
X187461Y266201D02*
X189961Y267451D01*
X192461Y266201D01*
X191211Y268701D02*
X192461Y266201D01*
X191211Y268701D02*
X192461Y271201D01*
X189961Y269951D02*
X192461Y271201D01*
X187461D02*
X189961Y269951D01*
X187461Y271201D02*
X188711Y268701D01*
X187461Y266201D02*
X188711Y268701D01*
X190773Y256928D02*
X193273Y258178D01*
X195773Y256928D01*
X194523Y259428D02*
X195773Y256928D01*
X194523Y259428D02*
X195773Y261928D01*
X193273Y260678D02*
X195773Y261928D01*
X190773D02*
X193273Y260678D01*
X190773Y261928D02*
X192023Y259428D01*
X190773Y256928D02*
X192023Y259428D01*
X194092Y256884D02*
X196592Y258134D01*
X199092Y256884D01*
X197842Y259384D02*
X199092Y256884D01*
X197842Y259384D02*
X199092Y261884D01*
X196592Y260634D02*
X199092Y261884D01*
X194092D02*
X196592Y260634D01*
X194092Y261884D02*
X195342Y259384D01*
X194092Y256884D02*
X195342Y259384D01*
X327224Y257343D02*
X329724Y258593D01*
X332224Y257343D01*
X330974Y259842D02*
X332224Y257343D01*
X330974Y259842D02*
X332224Y262343D01*
X329724Y261092D02*
X332224Y262343D01*
X327224D02*
X329724Y261092D01*
X327224Y262343D02*
X328474Y259842D01*
X327224Y257343D02*
X328474Y259842D01*
X267185Y202224D02*
X269685Y203474D01*
X272185Y202224D01*
X270935Y204724D02*
X272185Y202224D01*
X270935Y204724D02*
X272185Y207224D01*
X269685Y205974D02*
X272185Y207224D01*
X267185D02*
X269685Y205974D01*
X267185Y207224D02*
X268435Y204724D01*
X267185Y202224D02*
X268435Y204724D01*
X267185Y188445D02*
X269685Y189695D01*
X272185Y188445D01*
X270935Y190945D02*
X272185Y188445D01*
X270935Y190945D02*
X272185Y193445D01*
X269685Y192195D02*
X272185Y193445D01*
X267185D02*
X269685Y192195D01*
X267185Y193445D02*
X268435Y190945D01*
X267185Y188445D02*
X268435Y190945D01*
X243321Y196264D02*
X245821Y197514D01*
X248321Y196264D01*
X247071Y198764D02*
X248321Y196264D01*
X247071Y198764D02*
X248321Y201264D01*
X245821Y200014D02*
X248321Y201264D01*
X243321D02*
X245821Y200014D01*
X243321Y201264D02*
X244571Y198764D01*
X243321Y196264D02*
X244571Y198764D01*
X198740Y284902D02*
X201240Y286152D01*
X203740Y284902D01*
X202490Y287402D02*
X203740Y284902D01*
X202490Y287402D02*
X203740Y289902D01*
X201240Y288652D02*
X203740Y289902D01*
X198740D02*
X201240Y288652D01*
X198740Y289902D02*
X199990Y287402D01*
X198740Y284902D02*
X199990Y287402D01*
X156949Y235689D02*
X159449Y236939D01*
X161949Y235689D01*
X160699Y238189D02*
X161949Y235689D01*
X160699Y238189D02*
X161949Y240689D01*
X159449Y239439D02*
X161949Y240689D01*
X156949D02*
X159449Y239439D01*
X156949Y240689D02*
X158199Y238189D01*
X156949Y235689D02*
X158199Y238189D01*
X318366Y260295D02*
X320866Y261545D01*
X323366Y260295D01*
X322116Y262795D02*
X323366Y260295D01*
X322116Y262795D02*
X323366Y265295D01*
X320866Y264045D02*
X323366Y265295D01*
X318366D02*
X320866Y264045D01*
X318366Y265295D02*
X319616Y262795D01*
X318366Y260295D02*
X319616Y262795D01*
X350847Y210098D02*
X353346Y211348D01*
X355847Y210098D01*
X354596Y212598D02*
X355847Y210098D01*
X354596Y212598D02*
X355847Y215098D01*
X353346Y213848D02*
X355847Y215098D01*
X350847D02*
X353346Y213848D01*
X350847Y215098D02*
X352097Y212598D01*
X350847Y210098D02*
X352097Y212598D01*
X189626Y253799D02*
X192126Y255049D01*
X194626Y253799D01*
X193376Y256299D02*
X194626Y253799D01*
X193376Y256299D02*
X194626Y258799D01*
X192126Y257549D02*
X194626Y258799D01*
X189626D02*
X192126Y257549D01*
X189626Y258799D02*
X190876Y256299D01*
X189626Y253799D02*
X190876Y256299D01*
X192148Y253799D02*
X194648Y255049D01*
X197148Y253799D01*
X195898Y256299D02*
X197148Y253799D01*
X195898Y256299D02*
X197148Y258799D01*
X194648Y257549D02*
X197148Y258799D01*
X192148D02*
X194648Y257549D01*
X192148Y258799D02*
X193398Y256299D01*
X192148Y253799D02*
X193398Y256299D01*
X188829Y246354D02*
X191329Y247604D01*
X193829Y246354D01*
X192579Y248854D02*
X193829Y246354D01*
X192579Y248854D02*
X193829Y251354D01*
X191329Y250104D02*
X193829Y251354D01*
X188829D02*
X191329Y250104D01*
X188829Y251354D02*
X190079Y248854D01*
X188829Y246354D02*
X190079Y248854D01*
X144154Y328602D02*
X146654Y329852D01*
X149154Y328602D01*
X147904Y331102D02*
X149154Y328602D01*
X147904Y331102D02*
X149154Y333602D01*
X146654Y332352D02*
X149154Y333602D01*
X144154D02*
X146654Y332352D01*
X144154Y333602D02*
X145404Y331102D01*
X144154Y328602D02*
X145404Y331102D01*
X134902Y319350D02*
X137402Y320600D01*
X139902Y319350D01*
X138652Y321850D02*
X139902Y319350D01*
X138652Y321850D02*
X139902Y324350D01*
X137402Y323100D02*
X139902Y324350D01*
X134902D02*
X137402Y323100D01*
X134902Y324350D02*
X136152Y321850D01*
X134902Y319350D02*
X136152Y321850D01*
X144154Y310098D02*
X146654Y311348D01*
X149154Y310098D01*
X147904Y312598D02*
X149154Y310098D01*
X147904Y312598D02*
X149154Y315098D01*
X146654Y313848D02*
X149154Y315098D01*
X144154D02*
X146654Y313848D01*
X144154Y315098D02*
X145404Y312598D01*
X144154Y310098D02*
X145404Y312598D01*
X153405Y319350D02*
X155905Y320600D01*
X158405Y319350D01*
X157156Y321850D02*
X158405Y319350D01*
X157156Y321850D02*
X158405Y324350D01*
X155905Y323100D02*
X158405Y324350D01*
X153405D02*
X155905Y323100D01*
X153405Y324350D02*
X154656Y321850D01*
X153405Y319350D02*
X154656Y321850D01*
X150453Y325847D02*
X152953Y327097D01*
X155453Y325847D01*
X154203Y328346D02*
X155453Y325847D01*
X154203Y328346D02*
X155453Y330847D01*
X152953Y329596D02*
X155453Y330847D01*
X150453D02*
X152953Y329596D01*
X150453Y330847D02*
X151703Y328346D01*
X150453Y325847D02*
X151703Y328346D01*
X137461Y325847D02*
X139961Y327097D01*
X142461Y325847D01*
X141211Y328346D02*
X142461Y325847D01*
X141211Y328346D02*
X142461Y330847D01*
X139961Y329596D02*
X142461Y330847D01*
X137461D02*
X139961Y329596D01*
X137461Y330847D02*
X138711Y328346D01*
X137461Y325847D02*
X138711Y328346D01*
X137461Y312854D02*
X139961Y314104D01*
X142461Y312854D01*
X141211Y315354D02*
X142461Y312854D01*
X141211Y315354D02*
X142461Y317854D01*
X139961Y316604D02*
X142461Y317854D01*
X137461D02*
X139961Y316604D01*
X137461Y317854D02*
X138711Y315354D01*
X137461Y312854D02*
X138711Y315354D01*
X150453Y312854D02*
X152953Y314104D01*
X155453Y312854D01*
X154203Y315354D02*
X155453Y312854D01*
X154203Y315354D02*
X155453Y317854D01*
X152953Y316604D02*
X155453Y317854D01*
X150453D02*
X152953Y316604D01*
X150453Y317854D02*
X151703Y315354D01*
X150453Y312854D02*
X151703Y315354D01*
X150453Y192776D02*
X152953Y194026D01*
X155453Y192776D01*
X154203Y195276D02*
X155453Y192776D01*
X154203Y195276D02*
X155453Y197776D01*
X152953Y196526D02*
X155453Y197776D01*
X150453D02*
X152953Y196526D01*
X150453Y197776D02*
X151703Y195276D01*
X150453Y192776D02*
X151703Y195276D01*
X137461Y192776D02*
X139961Y194026D01*
X142461Y192776D01*
X141211Y195276D02*
X142461Y192776D01*
X141211Y195276D02*
X142461Y197776D01*
X139961Y196526D02*
X142461Y197776D01*
X137461D02*
X139961Y196526D01*
X137461Y197776D02*
X138711Y195276D01*
X137461Y192776D02*
X138711Y195276D01*
X137461Y205768D02*
X139961Y207018D01*
X142461Y205768D01*
X141211Y208268D02*
X142461Y205768D01*
X141211Y208268D02*
X142461Y210768D01*
X139961Y209518D02*
X142461Y210768D01*
X137461D02*
X139961Y209518D01*
X137461Y210768D02*
X138711Y208268D01*
X137461Y205768D02*
X138711Y208268D01*
X150453Y205768D02*
X152953Y207018D01*
X155453Y205768D01*
X154203Y208268D02*
X155453Y205768D01*
X154203Y208268D02*
X155453Y210768D01*
X152953Y209518D02*
X155453Y210768D01*
X150453D02*
X152953Y209518D01*
X150453Y210768D02*
X151703Y208268D01*
X150453Y205768D02*
X151703Y208268D01*
X153405Y199272D02*
X155905Y200522D01*
X158405Y199272D01*
X157156Y201772D02*
X158405Y199272D01*
X157156Y201772D02*
X158405Y204272D01*
X155905Y203022D02*
X158405Y204272D01*
X153405D02*
X155905Y203022D01*
X153405Y204272D02*
X154656Y201772D01*
X153405Y199272D02*
X154656Y201772D01*
X144154Y190020D02*
X146654Y191270D01*
X149154Y190020D01*
X147904Y192520D02*
X149154Y190020D01*
X147904Y192520D02*
X149154Y195020D01*
X146654Y193770D02*
X149154Y195020D01*
X144154D02*
X146654Y193770D01*
X144154Y195020D02*
X145404Y192520D01*
X144154Y190020D02*
X145404Y192520D01*
X134902Y199272D02*
X137402Y200522D01*
X139902Y199272D01*
X138652Y201772D02*
X139902Y199272D01*
X138652Y201772D02*
X139902Y204272D01*
X137402Y203022D02*
X139902Y204272D01*
X134902D02*
X137402Y203022D01*
X134902Y204272D02*
X136152Y201772D01*
X134902Y199272D02*
X136152Y201772D01*
X144154Y208524D02*
X146654Y209774D01*
X149154Y208524D01*
X147904Y211024D02*
X149154Y208524D01*
X147904Y211024D02*
X149154Y213524D01*
X146654Y212274D02*
X149154Y213524D01*
X144154D02*
X146654Y212274D01*
X144154Y213524D02*
X145404Y211024D01*
X144154Y208524D02*
X145404Y211024D01*
X390610Y312854D02*
X393110Y314104D01*
X395610Y312854D01*
X394360Y315354D02*
X395610Y312854D01*
X394360Y315354D02*
X395610Y317854D01*
X393110Y316604D02*
X395610Y317854D01*
X390610D02*
X393110Y316604D01*
X390610Y317854D02*
X391860Y315354D01*
X390610Y312854D02*
X391860Y315354D01*
X377618Y312854D02*
X380118Y314104D01*
X382618Y312854D01*
X381368Y315354D02*
X382618Y312854D01*
X381368Y315354D02*
X382618Y317854D01*
X380118Y316604D02*
X382618Y317854D01*
X377618D02*
X380118Y316604D01*
X377618Y317854D02*
X378868Y315354D01*
X377618Y312854D02*
X378868Y315354D01*
X377618Y325847D02*
X380118Y327097D01*
X382618Y325847D01*
X381368Y328346D02*
X382618Y325847D01*
X381368Y328346D02*
X382618Y330847D01*
X380118Y329596D02*
X382618Y330847D01*
X377618D02*
X380118Y329596D01*
X377618Y330847D02*
X378868Y328346D01*
X377618Y325847D02*
X378868Y328346D01*
X390610Y325847D02*
X393110Y327097D01*
X395610Y325847D01*
X394360Y328346D02*
X395610Y325847D01*
X394360Y328346D02*
X395610Y330847D01*
X393110Y329596D02*
X395610Y330847D01*
X390610D02*
X393110Y329596D01*
X390610Y330847D02*
X391860Y328346D01*
X390610Y325847D02*
X391860Y328346D01*
X393563Y319350D02*
X396063Y320600D01*
X398563Y319350D01*
X397313Y321850D02*
X398563Y319350D01*
X397313Y321850D02*
X398563Y324350D01*
X396063Y323100D02*
X398563Y324350D01*
X393563D02*
X396063Y323100D01*
X393563Y324350D02*
X394813Y321850D01*
X393563Y319350D02*
X394813Y321850D01*
X384311Y310098D02*
X386811Y311348D01*
X389311Y310098D01*
X388061Y312598D02*
X389311Y310098D01*
X388061Y312598D02*
X389311Y315098D01*
X386811Y313848D02*
X389311Y315098D01*
X384311D02*
X386811Y313848D01*
X384311Y315098D02*
X385561Y312598D01*
X384311Y310098D02*
X385561Y312598D01*
X375059Y319350D02*
X377559Y320600D01*
X380059Y319350D01*
X378809Y321850D02*
X380059Y319350D01*
X378809Y321850D02*
X380059Y324350D01*
X377559Y323100D02*
X380059Y324350D01*
X375059D02*
X377559Y323100D01*
X375059Y324350D02*
X376309Y321850D01*
X375059Y319350D02*
X376309Y321850D01*
X384311Y328602D02*
X386811Y329852D01*
X389311Y328602D01*
X388061Y331102D02*
X389311Y328602D01*
X388061Y331102D02*
X389311Y333602D01*
X386811Y332352D02*
X389311Y333602D01*
X384311D02*
X386811Y332352D01*
X384311Y333602D02*
X385561Y331102D01*
X384311Y328602D02*
X385561Y331102D01*
X390610Y192776D02*
X393110Y194026D01*
X395610Y192776D01*
X394360Y195276D02*
X395610Y192776D01*
X394360Y195276D02*
X395610Y197776D01*
X393110Y196526D02*
X395610Y197776D01*
X390610D02*
X393110Y196526D01*
X390610Y197776D02*
X391860Y195276D01*
X390610Y192776D02*
X391860Y195276D01*
X377618Y192776D02*
X380118Y194026D01*
X382618Y192776D01*
X381368Y195276D02*
X382618Y192776D01*
X381368Y195276D02*
X382618Y197776D01*
X380118Y196526D02*
X382618Y197776D01*
X377618D02*
X380118Y196526D01*
X377618Y197776D02*
X378868Y195276D01*
X377618Y192776D02*
X378868Y195276D01*
X377618Y205768D02*
X380118Y207018D01*
X382618Y205768D01*
X381368Y208268D02*
X382618Y205768D01*
X381368Y208268D02*
X382618Y210768D01*
X380118Y209518D02*
X382618Y210768D01*
X377618D02*
X380118Y209518D01*
X377618Y210768D02*
X378868Y208268D01*
X377618Y205768D02*
X378868Y208268D01*
X390610Y205768D02*
X393110Y207018D01*
X395610Y205768D01*
X394360Y208268D02*
X395610Y205768D01*
X394360Y208268D02*
X395610Y210768D01*
X393110Y209518D02*
X395610Y210768D01*
X390610D02*
X393110Y209518D01*
X390610Y210768D02*
X391860Y208268D01*
X390610Y205768D02*
X391860Y208268D01*
X393563Y199272D02*
X396063Y200522D01*
X398563Y199272D01*
X397313Y201772D02*
X398563Y199272D01*
X397313Y201772D02*
X398563Y204272D01*
X396063Y203022D02*
X398563Y204272D01*
X393563D02*
X396063Y203022D01*
X393563Y204272D02*
X394813Y201772D01*
X393563Y199272D02*
X394813Y201772D01*
X384311Y190020D02*
X386811Y191270D01*
X389311Y190020D01*
X388061Y192520D02*
X389311Y190020D01*
X388061Y192520D02*
X389311Y195020D01*
X386811Y193770D02*
X389311Y195020D01*
X384311D02*
X386811Y193770D01*
X384311Y195020D02*
X385561Y192520D01*
X384311Y190020D02*
X385561Y192520D01*
X375059Y199272D02*
X377559Y200522D01*
X380059Y199272D01*
X378809Y201772D02*
X380059Y199272D01*
X378809Y201772D02*
X380059Y204272D01*
X377559Y203022D02*
X380059Y204272D01*
X375059D02*
X377559Y203022D01*
X375059Y204272D02*
X376309Y201772D01*
X375059Y199272D02*
X376309Y201772D01*
X384311Y208524D02*
X386811Y209774D01*
X389311Y208524D01*
X388061Y211024D02*
X389311Y208524D01*
X388061Y211024D02*
X389311Y213524D01*
X386811Y212274D02*
X389311Y213524D01*
X384311D02*
X386811Y212274D01*
X384311Y213524D02*
X385561Y211024D01*
X384311Y208524D02*
X385561Y211024D01*
X179390Y322303D02*
X181890Y323553D01*
X184390Y322303D01*
X183140Y324803D02*
X184390Y322303D01*
X183140Y324803D02*
X184390Y327303D01*
X181890Y326053D02*
X184390Y327303D01*
X179390D02*
X181890Y326053D01*
X179390Y327303D02*
X180640Y324803D01*
X179390Y322303D02*
X180640Y324803D01*
X176240Y247894D02*
X178740Y249144D01*
X181240Y247894D01*
X179990Y250394D02*
X181240Y247894D01*
X179990Y250394D02*
X181240Y252894D01*
X178740Y251644D02*
X181240Y252894D01*
X176240D02*
X178740Y251644D01*
X176240Y252894D02*
X177490Y250394D01*
X176240Y247894D02*
X177490Y250394D01*
X184114Y322303D02*
X186614Y323553D01*
X189114Y322303D01*
X187864Y324803D02*
X189114Y322303D01*
X187864Y324803D02*
X189114Y327303D01*
X186614Y326053D02*
X189114Y327303D01*
X184114D02*
X186614Y326053D01*
X184114Y327303D02*
X185364Y324803D01*
X184114Y322303D02*
X185364Y324803D01*
X189232Y322303D02*
X191732Y323553D01*
X194232Y322303D01*
X192982Y324803D02*
X194232Y322303D01*
X192982Y324803D02*
X194232Y327303D01*
X191732Y326053D02*
X194232Y327303D01*
X189232D02*
X191732Y326053D01*
X189232Y327303D02*
X190482Y324803D01*
X189232Y322303D02*
X190482Y324803D01*
X193957Y322303D02*
X196457Y323553D01*
X198957Y322303D01*
X197707Y324803D02*
X198957Y322303D01*
X197707Y324803D02*
X198957Y327303D01*
X196457Y326053D02*
X198957Y327303D01*
X193957D02*
X196457Y326053D01*
X193957Y327303D02*
X195207Y324803D01*
X193957Y322303D02*
X195207Y324803D01*
X182146Y324272D02*
X184646Y325522D01*
X187146Y324272D01*
X185896Y326772D02*
X187146Y324272D01*
X185896Y326772D02*
X187146Y329272D01*
X184646Y328022D02*
X187146Y329272D01*
X182146D02*
X184646Y328022D01*
X182146Y329272D02*
X183396Y326772D01*
X182146Y324272D02*
X183396Y326772D01*
X191201Y324272D02*
X193701Y325522D01*
X196201Y324272D01*
X194951Y326772D02*
X196201Y324272D01*
X194951Y326772D02*
X196201Y329272D01*
X193701Y328022D02*
X196201Y329272D01*
X191201D02*
X193701Y328022D01*
X191201Y329272D02*
X192451Y326772D01*
X191201Y324272D02*
X192451Y326772D01*
X195925Y324272D02*
X198425Y325522D01*
X200925Y324272D01*
X199675Y326772D02*
X200925Y324272D01*
X199675Y326772D02*
X200925Y329272D01*
X198425Y328022D02*
X200925Y329272D01*
X195925D02*
X198425Y328022D01*
X195925Y329272D02*
X197175Y326772D01*
X195925Y324272D02*
X197175Y326772D01*
X186685Y324377D02*
X189185Y325627D01*
X191685Y324377D01*
X190435Y326877D02*
X191685Y324377D01*
X190435Y326877D02*
X191685Y329377D01*
X189185Y328127D02*
X191685Y329377D01*
X186685D02*
X189185Y328127D01*
X186685Y329377D02*
X187935Y326877D01*
X186685Y324377D02*
X187935Y326877D01*
X339969Y293978D02*
X342469Y295228D01*
X344969Y293978D01*
X343719Y296478D02*
X344969Y293978D01*
X343719Y296478D02*
X344969Y298978D01*
X342469Y297728D02*
X344969Y298978D01*
X339969D02*
X342469Y297728D01*
X339969Y298978D02*
X341219Y296478D01*
X339969Y293978D02*
X341219Y296478D01*
X245138Y249665D02*
X247638Y250915D01*
X250138Y249665D01*
X248888Y252165D02*
X250138Y249665D01*
X248888Y252165D02*
X250138Y254665D01*
X247638Y253415D02*
X250138Y254665D01*
X245138D02*
X247638Y253415D01*
X245138Y254665D02*
X246388Y252165D01*
X245138Y249665D02*
X246388Y252165D01*
X236870Y249665D02*
X239370Y250915D01*
X241870Y249665D01*
X240620Y252165D02*
X241870Y249665D01*
X240620Y252165D02*
X241870Y254665D01*
X239370Y253415D02*
X241870Y254665D01*
X236870D02*
X239370Y253415D01*
X236870Y254665D02*
X238120Y252165D01*
X236870Y249665D02*
X238120Y252165D01*
X187657Y227815D02*
X190157Y229065D01*
X192657Y227815D01*
X191408Y230315D02*
X192657Y227815D01*
X191408Y230315D02*
X192657Y232815D01*
X190157Y231565D02*
X192657Y232815D01*
X187657D02*
X190157Y231565D01*
X187657Y232815D02*
X188908Y230315D01*
X187657Y227815D02*
X188908Y230315D01*
X176404Y242268D02*
X178904Y243518D01*
X181404Y242268D01*
X180154Y244768D02*
X181404Y242268D01*
X180154Y244768D02*
X181404Y247268D01*
X178904Y246018D02*
X181404Y247268D01*
X176404D02*
X178904Y246018D01*
X176404Y247268D02*
X177654Y244768D01*
X176404Y242268D02*
X177654Y244768D01*
X176404Y244744D02*
X178904Y245994D01*
X181404Y244744D01*
X180154Y247245D02*
X181404Y244744D01*
X180154Y247245D02*
X181404Y249745D01*
X178904Y248495D02*
X181404Y249745D01*
X176404D02*
X178904Y248495D01*
X176404Y249745D02*
X177654Y247245D01*
X176404Y244744D02*
X177654Y247245D01*
X243567Y233131D02*
X246067Y234381D01*
X248567Y233131D01*
X247317Y235631D02*
X248567Y233131D01*
X247317Y235631D02*
X248567Y238131D01*
X246067Y236881D02*
X248567Y238131D01*
X243567D02*
X246067Y236881D01*
X243567Y238131D02*
X244817Y235631D01*
X243567Y233131D02*
X244817Y235631D01*
X253593Y233131D02*
X256093Y234381D01*
X258593Y233131D01*
X257343Y235631D02*
X258593Y233131D01*
X257343Y235631D02*
X258593Y238131D01*
X256093Y236881D02*
X258593Y238131D01*
X253593D02*
X256093Y236881D01*
X253593Y238131D02*
X254843Y235631D01*
X253593Y233131D02*
X254843Y235631D01*
X217382Y223287D02*
X219882Y224537D01*
X222382Y223287D01*
X221132Y225787D02*
X222382Y223287D01*
X221132Y225787D02*
X222382Y228287D01*
X219882Y227037D02*
X222382Y228287D01*
X217382D02*
X219882Y227037D01*
X217382Y228287D02*
X218632Y225787D01*
X217382Y223287D02*
X218632Y225787D01*
X188874Y235305D02*
X191374Y236555D01*
X193874Y235305D01*
X192624Y237805D02*
X193874Y235305D01*
X192624Y237805D02*
X193874Y240305D01*
X191374Y239055D02*
X193874Y240305D01*
X188874D02*
X191374Y239055D01*
X188874Y240305D02*
X190124Y237805D01*
X188874Y235305D02*
X190124Y237805D01*
X147106Y284902D02*
X149606Y286152D01*
X152106Y284902D01*
X150856Y287402D02*
X152106Y284902D01*
X150856Y287402D02*
X152106Y289902D01*
X149606Y288652D02*
X152106Y289902D01*
X147106D02*
X149606Y288652D01*
X147106Y289902D02*
X148356Y287402D01*
X147106Y284902D02*
X148356Y287402D01*
X222894Y247106D02*
X225394Y248356D01*
X227894Y247106D01*
X226644Y249606D02*
X227894Y247106D01*
X226644Y249606D02*
X227894Y252106D01*
X225394Y250856D02*
X227894Y252106D01*
X222894D02*
X225394Y250856D01*
X222894Y252106D02*
X224144Y249606D01*
X222894Y247106D02*
X224144Y249606D01*
X218366Y268563D02*
X220866Y269813D01*
X223366Y268563D01*
X222116Y271063D02*
X223366Y268563D01*
X222116Y271063D02*
X223366Y273563D01*
X220866Y272313D02*
X223366Y273563D01*
X218366D02*
X220866Y272313D01*
X218366Y273563D02*
X219616Y271063D01*
X218366Y268563D02*
X219616Y271063D01*
X219941Y225256D02*
X222441Y226506D01*
X224941Y225256D01*
X223691Y227756D02*
X224941Y225256D01*
X223691Y227756D02*
X224941Y230256D01*
X222441Y229006D02*
X224941Y230256D01*
X219941D02*
X222441Y229006D01*
X219941Y230256D02*
X221191Y227756D01*
X219941Y225256D02*
X221191Y227756D01*
X210886Y223091D02*
X213386Y224341D01*
X215886Y223091D01*
X214636Y225590D02*
X215886Y223091D01*
X214636Y225590D02*
X215886Y228091D01*
X213386Y226840D02*
X215886Y228091D01*
X210886D02*
X213386Y226840D01*
X210886Y228091D02*
X212136Y225590D01*
X210886Y223091D02*
X212136Y225590D01*
X222106Y228012D02*
X224606Y229262D01*
X227106Y228012D01*
X225856Y230512D02*
X227106Y228012D01*
X225856Y230512D02*
X227106Y233012D01*
X224606Y231762D02*
X227106Y233012D01*
X222106D02*
X224606Y231762D01*
X222106Y233012D02*
X223356Y230512D01*
X222106Y228012D02*
X223356Y230512D01*
X194376Y240852D02*
X196876Y242102D01*
X199376Y240852D01*
X198126Y243352D02*
X199376Y240852D01*
X198126Y243352D02*
X199376Y245852D01*
X196876Y244602D02*
X199376Y245852D01*
X194376D02*
X196876Y244602D01*
X194376Y245852D02*
X195626Y243352D01*
X194376Y240852D02*
X195626Y243352D01*
X226946Y251384D02*
X229446Y252634D01*
X231946Y251384D01*
X230696Y253884D02*
X231946Y251384D01*
X230696Y253884D02*
X231946Y256384D01*
X229446Y255134D02*
X231946Y256384D01*
X226946D02*
X229446Y255134D01*
X226946Y256384D02*
X228196Y253884D01*
X226946Y251384D02*
X228196Y253884D01*
X205965Y238051D02*
X208465Y239301D01*
X210965Y238051D01*
X209715Y240551D02*
X210965Y238051D01*
X209715Y240551D02*
X210965Y243051D01*
X208465Y241801D02*
X210965Y243051D01*
X205965D02*
X208465Y241801D01*
X205965Y243051D02*
X207215Y240551D01*
X205965Y238051D02*
X207215Y240551D01*
X201634Y235886D02*
X204134Y237136D01*
X206634Y235886D01*
X205384Y238386D02*
X206634Y235886D01*
X205384Y238386D02*
X206634Y240886D01*
X204134Y239636D02*
X206634Y240886D01*
X201634D02*
X204134Y239636D01*
X201634Y240886D02*
X202884Y238386D01*
X201634Y235886D02*
X202884Y238386D01*
X204193Y244744D02*
X206693Y245994D01*
X209193Y244744D01*
X207943Y247244D02*
X209193Y244744D01*
X207943Y247244D02*
X209193Y249744D01*
X206693Y248494D02*
X209193Y249744D01*
X204193D02*
X206693Y248494D01*
X204193Y249744D02*
X205443Y247244D01*
X204193Y244744D02*
X205443Y247244D01*
X201831Y242382D02*
X204331Y243632D01*
X206831Y242382D01*
X205581Y244882D02*
X206831Y242382D01*
X205581Y244882D02*
X206831Y247382D01*
X204331Y246132D02*
X206831Y247382D01*
X201831D02*
X204331Y246132D01*
X201831Y247382D02*
X203081Y244882D01*
X201831Y242382D02*
X203081Y244882D01*
X206161Y241988D02*
X208661Y243238D01*
X211161Y241988D01*
X209911Y244488D02*
X211161Y241988D01*
X209911Y244488D02*
X211161Y246988D01*
X208661Y245738D02*
X211161Y246988D01*
X206161D02*
X208661Y245738D01*
X206161Y246988D02*
X207411Y244488D01*
X206161Y241988D02*
X207411Y244488D01*
X204193Y228799D02*
X206693Y230049D01*
X209193Y228799D01*
X207943Y231299D02*
X209193Y228799D01*
X207943Y231299D02*
X209193Y233799D01*
X206693Y232549D02*
X209193Y233799D01*
X204193D02*
X206693Y232549D01*
X204193Y233799D02*
X205443Y231299D01*
X204193Y228799D02*
X205443Y231299D01*
X171713Y266791D02*
X174213Y268041D01*
X176713Y266791D01*
X175463Y269291D02*
X176713Y266791D01*
X175463Y269291D02*
X176713Y271791D01*
X174213Y270541D02*
X176713Y271791D01*
X171713D02*
X174213Y270541D01*
X171713Y271791D02*
X172963Y269291D01*
X171713Y266791D02*
X172963Y269291D01*
X179980Y286476D02*
X182480Y287726D01*
X184980Y286476D01*
X183730Y288976D02*
X184980Y286476D01*
X183730Y288976D02*
X184980Y291476D01*
X182480Y290226D02*
X184980Y291476D01*
X179980D02*
X182480Y290226D01*
X179980Y291476D02*
X181230Y288976D01*
X179980Y286476D02*
X181230Y288976D01*
X222697Y230768D02*
X225197Y232018D01*
X227697Y230768D01*
X226447Y233268D02*
X227697Y230768D01*
X226447Y233268D02*
X227697Y235768D01*
X225197Y234518D02*
X227697Y235768D01*
X222697D02*
X225197Y234518D01*
X222697Y235768D02*
X223947Y233268D01*
X222697Y230768D02*
X223947Y233268D01*
X222303Y239626D02*
X224803Y240876D01*
X227303Y239626D01*
X226053Y242126D02*
X227303Y239626D01*
X226053Y242126D02*
X227303Y244626D01*
X224803Y243376D02*
X227303Y244626D01*
X222303D02*
X224803Y243376D01*
X222303Y244626D02*
X223553Y242126D01*
X222303Y239626D02*
X223553Y242126D01*
X228012Y232933D02*
X230512Y234183D01*
X233012Y232933D01*
X231762Y235433D02*
X233012Y232933D01*
X231762Y235433D02*
X233012Y237933D01*
X230512Y236683D02*
X233012Y237933D01*
X228012D02*
X230512Y236683D01*
X228012Y237933D02*
X229262Y235433D01*
X228012Y232933D02*
X229262Y235433D01*
X373681Y213445D02*
X376181Y214695D01*
X378681Y213445D01*
X377431Y215945D02*
X378681Y213445D01*
X377431Y215945D02*
X378681Y218445D01*
X376181Y217195D02*
X378681Y218445D01*
X373681D02*
X376181Y217195D01*
X373681Y218445D02*
X374931Y215945D01*
X373681Y213445D02*
X374931Y215945D01*
X202224Y279587D02*
X204724Y280837D01*
X207224Y279587D01*
X205974Y282087D02*
X207224Y279587D01*
X205974Y282087D02*
X207224Y284587D01*
X204724Y283337D02*
X207224Y284587D01*
X202224D02*
X204724Y283337D01*
X202224Y284587D02*
X203474Y282087D01*
X202224Y279587D02*
X203474Y282087D01*
X179587Y277028D02*
X182087Y278278D01*
X184587Y277028D01*
X183337Y279528D02*
X184587Y277028D01*
X183337Y279528D02*
X184587Y282028D01*
X182087Y280778D02*
X184587Y282028D01*
X179587D02*
X182087Y280778D01*
X179587Y282028D02*
X180837Y279528D01*
X179587Y277028D02*
X180837Y279528D01*
X181358Y296122D02*
X183858Y297372D01*
X186358Y296122D01*
X185108Y298622D02*
X186358Y296122D01*
X185108Y298622D02*
X186358Y301122D01*
X183858Y299872D02*
X186358Y301122D01*
X181358D02*
X183858Y299872D01*
X181358Y301122D02*
X182608Y298622D01*
X181358Y296122D02*
X182608Y298622D01*
X186476Y303209D02*
X188976Y304459D01*
X191476Y303209D01*
X190226Y305709D02*
X191476Y303209D01*
X190226Y305709D02*
X191476Y308209D01*
X188976Y306959D02*
X191476Y308209D01*
X186476D02*
X188976Y306959D01*
X186476Y308209D02*
X187726Y305709D01*
X186476Y303209D02*
X187726Y305709D01*
X197697Y226831D02*
X200197Y228081D01*
X202697Y226831D01*
X201447Y229331D02*
X202697Y226831D01*
X201447Y229331D02*
X202697Y231831D01*
X200197Y230581D02*
X202697Y231831D01*
X197697D02*
X200197Y230581D01*
X197697Y231831D02*
X198947Y229331D01*
X197697Y226831D02*
X198947Y229331D01*
X274468Y275847D02*
X276969Y277097D01*
X279468Y275847D01*
X278219Y278346D02*
X279468Y275847D01*
X278219Y278346D02*
X279468Y280847D01*
X276969Y279596D02*
X279468Y280847D01*
X274468D02*
X276969Y279596D01*
X274468Y280847D02*
X275718Y278346D01*
X274468Y275847D02*
X275718Y278346D01*
X233541Y233131D02*
X236041Y234381D01*
X238541Y233131D01*
X237291Y235631D02*
X238541Y233131D01*
X237291Y235631D02*
X238541Y238131D01*
X236041Y236881D02*
X238541Y238131D01*
X233541D02*
X236041Y236881D01*
X233541Y238131D02*
X234791Y235631D01*
X233541Y233131D02*
X234791Y235631D01*
X176634Y239429D02*
X179134Y240679D01*
X181634Y239429D01*
X180384Y241929D02*
X181634Y239429D01*
X180384Y241929D02*
X181634Y244429D01*
X179134Y243179D02*
X181634Y244429D01*
X176634D02*
X179134Y243179D01*
X176634Y244429D02*
X177884Y241929D01*
X176634Y239429D02*
X177884Y241929D01*
X256949Y251043D02*
X259449Y252293D01*
X261949Y251043D01*
X260699Y253543D02*
X261949Y251043D01*
X260699Y253543D02*
X261949Y256043D01*
X259449Y254793D02*
X261949Y256043D01*
X256949D02*
X259449Y254793D01*
X256949Y256043D02*
X258199Y253543D01*
X256949Y251043D02*
X258199Y253543D01*
X247596Y248873D02*
X250096Y250123D01*
X252596Y248873D01*
X251346Y251373D02*
X252596Y248873D01*
X251346Y251373D02*
X252596Y253873D01*
X250096Y252623D02*
X252596Y253873D01*
X247596D02*
X250096Y252623D01*
X247596Y253873D02*
X248846Y251373D01*
X247596Y248873D02*
X248846Y251373D01*
X250236Y248805D02*
X252736Y250055D01*
X255236Y248805D01*
X253986Y251305D02*
X255236Y248805D01*
X253986Y251305D02*
X255236Y253805D01*
X252736Y252555D02*
X255236Y253805D01*
X250236D02*
X252736Y252555D01*
X250236Y253805D02*
X251486Y251305D01*
X250236Y248805D02*
X251486Y251305D01*
X252709Y248675D02*
X255209Y249924D01*
X257709Y248675D01*
X256459Y251174D02*
X257709Y248675D01*
X256459Y251174D02*
X257709Y253675D01*
X255209Y252425D02*
X257709Y253675D01*
X252709D02*
X255209Y252425D01*
X252709Y253675D02*
X253959Y251174D01*
X252709Y248675D02*
X253959Y251174D01*
X255177Y248878D02*
X257677Y250128D01*
X260177Y248878D01*
X258927Y251378D02*
X260177Y248878D01*
X258927Y251378D02*
X260177Y253878D01*
X257677Y252628D02*
X260177Y253878D01*
X255177D02*
X257677Y252628D01*
X255177Y253878D02*
X256427Y251378D01*
X255177Y248878D02*
X256427Y251378D01*
X253799Y251240D02*
X256299Y252490D01*
X258799Y251240D01*
X257549Y253740D02*
X258799Y251240D01*
X257549Y253740D02*
X258799Y256240D01*
X256299Y254990D02*
X258799Y256240D01*
X253799D02*
X256299Y254990D01*
X253799Y256240D02*
X255049Y253740D01*
X253799Y251240D02*
X255049Y253740D01*
X247500Y251437D02*
X250000Y252687D01*
X252500Y251437D01*
X251250Y253937D02*
X252500Y251437D01*
X251250Y253937D02*
X252500Y256437D01*
X250000Y255187D02*
X252500Y256437D01*
X247500D02*
X250000Y255187D01*
X247500Y256437D02*
X248750Y253937D01*
X247500Y251437D02*
X248750Y253937D01*
X250453Y251437D02*
X252953Y252687D01*
X255453Y251437D01*
X254203Y253937D02*
X255453Y251437D01*
X254203Y253937D02*
X255453Y256437D01*
X252953Y255187D02*
X255453Y256437D01*
X250453D02*
X252953Y255187D01*
X250453Y256437D02*
X251703Y253937D01*
X250453Y251437D02*
X251703Y253937D01*
X260098Y250059D02*
X262598Y251309D01*
X265098Y250059D01*
X263848Y252559D02*
X265098Y250059D01*
X263848Y252559D02*
X265098Y255059D01*
X262598Y253809D02*
X265098Y255059D01*
X260098D02*
X262598Y253809D01*
X260098Y255059D02*
X261348Y252559D01*
X260098Y250059D02*
X261348Y252559D01*
X140373Y243971D02*
X142873Y245221D01*
X145372Y243971D01*
X144123Y246471D02*
X145372Y243971D01*
X144123Y246471D02*
X145372Y248971D01*
X142873Y247721D02*
X145372Y248971D01*
X140373D02*
X142873Y247721D01*
X140373Y248971D02*
X141622Y246471D01*
X140373Y243971D02*
X141622Y246471D01*
X153641Y243582D02*
X156141Y244832D01*
X158641Y243582D01*
X157391Y246082D02*
X158641Y243582D01*
X157391Y246082D02*
X158641Y248582D01*
X156141Y247332D02*
X158641Y248582D01*
X153641D02*
X156141Y247332D01*
X153641Y248582D02*
X154891Y246082D01*
X153641Y243582D02*
X154891Y246082D01*
X184311Y273878D02*
X186811Y275128D01*
X189311Y273878D01*
X188061Y276378D02*
X189311Y273878D01*
X188061Y276378D02*
X189311Y278878D01*
X186811Y277628D02*
X189311Y278878D01*
X184311D02*
X186811Y277628D01*
X184311Y278878D02*
X185561Y276378D01*
X184311Y273878D02*
X185561Y276378D01*
X179587Y268957D02*
X182087Y270207D01*
X184587Y268957D01*
X183337Y271457D02*
X184587Y268957D01*
X183337Y271457D02*
X184587Y273957D01*
X182087Y272707D02*
X184587Y273957D01*
X179587D02*
X182087Y272707D01*
X179587Y273957D02*
X180837Y271457D01*
X179587Y268957D02*
X180837Y271457D01*
X213524Y223046D02*
X216024Y224296D01*
X218524Y223046D01*
X217274Y225546D02*
X218524Y223046D01*
X217274Y225546D02*
X218524Y228046D01*
X216024Y226796D02*
X218524Y228046D01*
X213524D02*
X216024Y226796D01*
X213524Y228046D02*
X214774Y225546D01*
X213524Y223046D02*
X214774Y225546D01*
X202028Y230768D02*
X204528Y232018D01*
X207028Y230768D01*
X205778Y233268D02*
X207028Y230768D01*
X205778Y233268D02*
X207028Y235768D01*
X204528Y234518D02*
X207028Y235768D01*
X202028D02*
X204528Y234518D01*
X202028Y235768D02*
X203278Y233268D01*
X202028Y230768D02*
X203278Y233268D01*
X224468Y249468D02*
X226969Y250718D01*
X229468Y249468D01*
X228219Y251969D02*
X229468Y249468D01*
X228219Y251969D02*
X229468Y254468D01*
X226969Y253219D02*
X229468Y254468D01*
X224468D02*
X226969Y253219D01*
X224468Y254468D02*
X225718Y251969D01*
X224468Y249468D02*
X225718Y251969D01*
X221122Y201831D02*
X223622Y203081D01*
X226122Y201831D01*
X224872Y204331D02*
X226122Y201831D01*
X224872Y204331D02*
X226122Y206831D01*
X223622Y205581D02*
X226122Y206831D01*
X221122D02*
X223622Y205581D01*
X221122Y206831D02*
X222372Y204331D01*
X221122Y201831D02*
X222372Y204331D01*
X219941Y208327D02*
X222441Y209577D01*
X224941Y208327D01*
X223691Y210827D02*
X224941Y208327D01*
X223691Y210827D02*
X224941Y213327D01*
X222441Y212077D02*
X224941Y213327D01*
X219941D02*
X222441Y212077D01*
X219941Y213327D02*
X221191Y210827D01*
X219941Y208327D02*
X221191Y210827D01*
X241001Y206864D02*
X243500Y208114D01*
X246001Y206864D01*
X244750Y209364D02*
X246001Y206864D01*
X244750Y209364D02*
X246001Y211864D01*
X243500Y210614D02*
X246001Y211864D01*
X241001D02*
X243500Y210614D01*
X241001Y211864D02*
X242250Y209364D01*
X241001Y206864D02*
X242250Y209364D01*
X230965Y206555D02*
X233465Y207805D01*
X235965Y206555D01*
X234715Y209055D02*
X235965Y206555D01*
X234715Y209055D02*
X235965Y211555D01*
X233465Y210305D02*
X235965Y211555D01*
X230965D02*
X233465Y210305D01*
X230965Y211555D02*
X232215Y209055D01*
X230965Y206555D02*
X232215Y209055D01*
X260689Y206752D02*
X263189Y208002D01*
X265689Y206752D01*
X264439Y209252D02*
X265689Y206752D01*
X264439Y209252D02*
X265689Y211752D01*
X263189Y210502D02*
X265689Y211752D01*
X260689D02*
X263189Y210502D01*
X260689Y211752D02*
X261939Y209252D01*
X260689Y206752D02*
X261939Y209252D01*
X245709Y206828D02*
X248209Y208078D01*
X250709Y206828D01*
X249459Y209328D02*
X250709Y206828D01*
X249459Y209328D02*
X250709Y211828D01*
X248209Y210578D02*
X250709Y211828D01*
X245709D02*
X248209Y210578D01*
X245709Y211828D02*
X246959Y209328D01*
X245709Y206828D02*
X246959Y209328D01*
X243364Y212803D02*
X245864Y214053D01*
X248364Y212803D01*
X247114Y215303D02*
X248364Y212803D01*
X247114Y215303D02*
X248364Y217803D01*
X245864Y216553D02*
X248364Y217803D01*
X243364D02*
X245864Y216553D01*
X243364Y217803D02*
X244614Y215303D01*
X243364Y212803D02*
X244614Y215303D01*
X266988Y208720D02*
X269488Y209970D01*
X271988Y208720D01*
X270738Y211221D02*
X271988Y208720D01*
X270738Y211221D02*
X271988Y213720D01*
X269488Y212471D02*
X271988Y213720D01*
X266988D02*
X269488Y212471D01*
X266988Y213720D02*
X268238Y211221D01*
X266988Y208720D02*
X268238Y211221D01*
X337898Y210968D02*
X340398Y212218D01*
X342898Y210968D01*
X341648Y213469D02*
X342898Y210968D01*
X341648Y213469D02*
X342898Y215968D01*
X340398Y214719D02*
X342898Y215968D01*
X337898D02*
X340398Y214719D01*
X337898Y215968D02*
X339148Y213469D01*
X337898Y210968D02*
X339148Y213469D01*
X278012Y255374D02*
X280512Y256624D01*
X283012Y255374D01*
X281762Y257874D02*
X283012Y255374D01*
X281762Y257874D02*
X283012Y260374D01*
X280512Y259124D02*
X283012Y260374D01*
X278012D02*
X280512Y259124D01*
X278012Y260374D02*
X279262Y257874D01*
X278012Y255374D02*
X279262Y257874D01*
X330177Y241201D02*
X332677Y242451D01*
X335177Y241201D01*
X333927Y243701D02*
X335177Y241201D01*
X333927Y243701D02*
X335177Y246201D01*
X332677Y244951D02*
X335177Y246201D01*
X330177D02*
X332677Y244951D01*
X330177Y246201D02*
X331427Y243701D01*
X330177Y241201D02*
X331427Y243701D01*
X330177Y234114D02*
X332677Y235364D01*
X335177Y234114D01*
X333927Y236614D02*
X335177Y234114D01*
X333927Y236614D02*
X335177Y239114D01*
X332677Y237864D02*
X335177Y239114D01*
X330177D02*
X332677Y237864D01*
X330177Y239114D02*
X331427Y236614D01*
X330177Y234114D02*
X331427Y236614D01*
X240020Y217382D02*
X242520Y218632D01*
X245020Y217382D01*
X243770Y219882D02*
X245020Y217382D01*
X243770Y219882D02*
X245020Y222382D01*
X242520Y221132D02*
X245020Y222382D01*
X240020D02*
X242520Y221132D01*
X240020Y222382D02*
X241270Y219882D01*
X240020Y217382D02*
X241270Y219882D01*
X247106Y217382D02*
X249606Y218632D01*
X252106Y217382D01*
X250856Y219882D02*
X252106Y217382D01*
X250856Y219882D02*
X252106Y222382D01*
X249606Y221132D02*
X252106Y222382D01*
X247106D02*
X249606Y221132D01*
X247106Y222382D02*
X248356Y219882D01*
X247106Y217382D02*
X248356Y219882D01*
X242382Y217382D02*
X244882Y218632D01*
X247382Y217382D01*
X246132Y219882D02*
X247382Y217382D01*
X246132Y219882D02*
X247382Y222382D01*
X244882Y221132D02*
X247382Y222382D01*
X242382D02*
X244882Y221132D01*
X242382Y222382D02*
X243632Y219882D01*
X242382Y217382D02*
X243632Y219882D01*
X244744Y217382D02*
X247244Y218632D01*
X249744Y217382D01*
X248494Y219882D02*
X249744Y217382D01*
X248494Y219882D02*
X249744Y222382D01*
X247244Y221132D02*
X249744Y222382D01*
X244744D02*
X247244Y221132D01*
X244744Y222382D02*
X245994Y219882D01*
X244744Y217382D02*
X245994Y219882D01*
X351240Y221713D02*
X353740Y222963D01*
X356240Y221713D01*
X354990Y224213D02*
X356240Y221713D01*
X354990Y224213D02*
X356240Y226713D01*
X353740Y225463D02*
X356240Y226713D01*
X351240D02*
X353740Y225463D01*
X351240Y226713D02*
X352490Y224213D01*
X351240Y221713D02*
X352490Y224213D01*
X356161Y216398D02*
X358661Y217648D01*
X361161Y216398D01*
X359911Y218898D02*
X361161Y216398D01*
X359911Y218898D02*
X361161Y221398D01*
X358661Y220148D02*
X361161Y221398D01*
X356161D02*
X358661Y220148D01*
X356161Y221398D02*
X357411Y218898D01*
X356161Y216398D02*
X357411Y218898D01*
X372303Y221122D02*
X374803Y222372D01*
X377303Y221122D01*
X376053Y223622D02*
X377303Y221122D01*
X376053Y223622D02*
X377303Y226122D01*
X374803Y224872D02*
X377303Y226122D01*
X372303D02*
X374803Y224872D01*
X372303Y226122D02*
X373553Y223622D01*
X372303Y221122D02*
X373553Y223622D01*
X373287Y227815D02*
X375787Y229065D01*
X378287Y227815D01*
X377037Y230315D02*
X378287Y227815D01*
X377037Y230315D02*
X378287Y232815D01*
X375787Y231565D02*
X378287Y232815D01*
X373287D02*
X375787Y231565D01*
X373287Y232815D02*
X374537Y230315D01*
X373287Y227815D02*
X374537Y230315D01*
X265216Y223484D02*
X267717Y224734D01*
X270216Y223484D01*
X268967Y225984D02*
X270216Y223484D01*
X268967Y225984D02*
X270216Y228484D01*
X267717Y227234D02*
X270216Y228484D01*
X265216D02*
X267717Y227234D01*
X265216Y228484D02*
X266466Y225984D01*
X265216Y223484D02*
X266466Y225984D01*
X330965Y220811D02*
X333465Y222061D01*
X335965Y220811D01*
X334715Y223311D02*
X335965Y220811D01*
X334715Y223311D02*
X335965Y225811D01*
X333465Y224561D02*
X335965Y225811D01*
X330965D02*
X333465Y224561D01*
X330965Y225811D02*
X332215Y223311D01*
X330965Y220811D02*
X332215Y223311D01*
X330395Y226064D02*
X332895Y227314D01*
X335395Y226064D01*
X334145Y228564D02*
X335395Y226064D01*
X334145Y228564D02*
X335395Y231064D01*
X332895Y229814D02*
X335395Y231064D01*
X330395D02*
X332895Y229814D01*
X330395Y231064D02*
X331645Y228564D01*
X330395Y226064D02*
X331645Y228564D01*
X278209Y215413D02*
X280709Y216663D01*
X283209Y215413D01*
X281959Y217913D02*
X283209Y215413D01*
X281959Y217913D02*
X283209Y220413D01*
X280709Y219163D02*
X283209Y220413D01*
X278209D02*
X280709Y219163D01*
X278209Y220413D02*
X279459Y217913D01*
X278209Y215413D02*
X279459Y217913D01*
X186870Y288839D02*
X189370Y290089D01*
X191870Y288839D01*
X190620Y291339D02*
X191870Y288839D01*
X190620Y291339D02*
X191870Y293839D01*
X189370Y292589D02*
X191870Y293839D01*
X186870D02*
X189370Y292589D01*
X186870Y293839D02*
X188120Y291339D01*
X186870Y288839D02*
X188120Y291339D01*
X191398Y275847D02*
X193898Y277097D01*
X196398Y275847D01*
X195148Y278346D02*
X196398Y275847D01*
X195148Y278346D02*
X196398Y280847D01*
X193898Y279596D02*
X196398Y280847D01*
X191398D02*
X193898Y279596D01*
X191398Y280847D02*
X192648Y278346D01*
X191398Y275847D02*
X192648Y278346D01*
X160844Y258774D02*
X163344Y260024D01*
X165844Y258774D01*
X164594Y261274D02*
X165844Y258774D01*
X164594Y261274D02*
X165844Y263774D01*
X163344Y262524D02*
X165844Y263774D01*
X160844D02*
X163344Y262524D01*
X160844Y263774D02*
X162094Y261274D01*
X160844Y258774D02*
X162094Y261274D01*
X351322Y218104D02*
X353822Y219354D01*
X356322Y218104D01*
X355072Y220604D02*
X356322Y218104D01*
X355072Y220604D02*
X356322Y223104D01*
X353822Y221854D02*
X356322Y223104D01*
X351322D02*
X353822Y221854D01*
X351322Y223104D02*
X352572Y220604D01*
X351322Y218104D02*
X352572Y220604D01*
X258524Y315610D02*
X261024Y316860D01*
X263524Y315610D01*
X262274Y318110D02*
X263524Y315610D01*
X262274Y318110D02*
X263524Y320610D01*
X261024Y319360D02*
X263524Y320610D01*
X258524D02*
X261024Y319360D01*
X258524Y320610D02*
X259774Y318110D01*
X258524Y315610D02*
X259774Y318110D01*
X269153Y316398D02*
X271654Y317648D01*
X274153Y316398D01*
X272903Y318898D02*
X274153Y316398D01*
X272903Y318898D02*
X274153Y321398D01*
X271654Y320148D02*
X274153Y321398D01*
X269153D02*
X271654Y320148D01*
X269153Y321398D02*
X270404Y318898D01*
X269153Y316398D02*
X270404Y318898D01*
X258524Y325453D02*
X261024Y326703D01*
X263524Y325453D01*
X262274Y327953D02*
X263524Y325453D01*
X262274Y327953D02*
X263524Y330453D01*
X261024Y329203D02*
X263524Y330453D01*
X258524D02*
X261024Y329203D01*
X258524Y330453D02*
X259774Y327953D01*
X258524Y325453D02*
X259774Y327953D01*
X250959Y314175D02*
X253459Y315425D01*
X255959Y314175D01*
X254709Y316675D02*
X255959Y314175D01*
X254709Y316675D02*
X255959Y319175D01*
X253459Y317925D02*
X255959Y319175D01*
X250959D02*
X253459Y317925D01*
X250959Y319175D02*
X252209Y316675D01*
X250959Y314175D02*
X252209Y316675D01*
X288376Y321707D02*
X290876Y322956D01*
X293376Y321707D01*
X292126Y324206D02*
X293376Y321707D01*
X292126Y324206D02*
X293376Y326707D01*
X290876Y325457D02*
X293376Y326707D01*
X288376D02*
X290876Y325457D01*
X288376Y326707D02*
X289626Y324206D01*
X288376Y321707D02*
X289626Y324206D01*
X293760Y319350D02*
X296260Y320600D01*
X298760Y319350D01*
X297510Y321850D02*
X298760Y319350D01*
X297510Y321850D02*
X298760Y324350D01*
X296260Y323100D02*
X298760Y324350D01*
X293760D02*
X296260Y323100D01*
X293760Y324350D02*
X295010Y321850D01*
X293760Y319350D02*
X295010Y321850D01*
X292382Y308327D02*
X294882Y309577D01*
X297382Y308327D01*
X296132Y310827D02*
X297382Y308327D01*
X296132Y310827D02*
X297382Y313327D01*
X294882Y312077D02*
X297382Y313327D01*
X292382D02*
X294882Y312077D01*
X292382Y313327D02*
X293632Y310827D01*
X292382Y308327D02*
X293632Y310827D01*
X283720Y310098D02*
X286221Y311348D01*
X288720Y310098D01*
X287471Y312598D02*
X288720Y310098D01*
X287471Y312598D02*
X288720Y315098D01*
X286221Y313848D02*
X288720Y315098D01*
X283720D02*
X286221Y313848D01*
X283720Y315098D02*
X284970Y312598D01*
X283720Y310098D02*
X284970Y312598D01*
X243078Y322230D02*
X245579Y323480D01*
X248078Y322230D01*
X246829Y324730D02*
X248078Y322230D01*
X246829Y324730D02*
X248078Y327230D01*
X245579Y325980D02*
X248078Y327230D01*
X243078D02*
X245579Y325980D01*
X243078Y327230D02*
X244328Y324730D01*
X243078Y322230D02*
X244328Y324730D01*
X276090Y241850D02*
X278590Y243100D01*
X281090Y241850D01*
X279840Y244350D02*
X281090Y241850D01*
X279840Y244350D02*
X281090Y246850D01*
X278590Y245600D02*
X281090Y246850D01*
X276090D02*
X278590Y245600D01*
X276090Y246850D02*
X277340Y244350D01*
X276090Y241850D02*
X277340Y244350D01*
X298091Y254390D02*
X300590Y255640D01*
X303091Y254390D01*
X301840Y256890D02*
X303091Y254390D01*
X301840Y256890D02*
X303091Y259390D01*
X300590Y258140D02*
X303091Y259390D01*
X298091D02*
X300590Y258140D01*
X298091Y259390D02*
X299341Y256890D01*
X298091Y254390D02*
X299341Y256890D01*
X304784Y254390D02*
X307283Y255640D01*
X309784Y254390D01*
X308534Y256890D02*
X309784Y254390D01*
X308534Y256890D02*
X309784Y259390D01*
X307283Y258140D02*
X309784Y259390D01*
X304784D02*
X307283Y258140D01*
X304784Y259390D02*
X306033Y256890D01*
X304784Y254390D02*
X306033Y256890D01*
X311476Y254390D02*
X313976Y255640D01*
X316476Y254390D01*
X315226Y256890D02*
X316476Y254390D01*
X315226Y256890D02*
X316476Y259390D01*
X313976Y258140D02*
X316476Y259390D01*
X311476D02*
X313976Y258140D01*
X311476Y259390D02*
X312726Y256890D01*
X311476Y254390D02*
X312726Y256890D01*
X318169Y254390D02*
X320669Y255640D01*
X323169Y254390D01*
X321919Y256890D02*
X323169Y254390D01*
X321919Y256890D02*
X323169Y259390D01*
X320669Y258140D02*
X323169Y259390D01*
X318169D02*
X320669Y258140D01*
X318169Y259390D02*
X319419Y256890D01*
X318169Y254390D02*
X319419Y256890D01*
X324862Y254390D02*
X327362Y255640D01*
X329862Y254390D01*
X328612Y256890D02*
X329862Y254390D01*
X328612Y256890D02*
X329862Y259390D01*
X327362Y258140D02*
X329862Y259390D01*
X324862D02*
X327362Y258140D01*
X324862Y259390D02*
X326112Y256890D01*
X324862Y254390D02*
X326112Y256890D01*
X293563Y251437D02*
X296063Y252687D01*
X298563Y251437D01*
X297313Y253937D02*
X298563Y251437D01*
X297313Y253937D02*
X298563Y256437D01*
X296063Y255187D02*
X298563Y256437D01*
X293563D02*
X296063Y255187D01*
X293563Y256437D02*
X294813Y253937D01*
X293563Y251437D02*
X294813Y253937D01*
X275059Y199272D02*
X277559Y200522D01*
X280059Y199272D01*
X278809Y201772D02*
X280059Y199272D01*
X278809Y201772D02*
X280059Y204272D01*
X277559Y203022D02*
X280059Y204272D01*
X275059D02*
X277559Y203022D01*
X275059Y204272D02*
X276309Y201772D01*
X275059Y199272D02*
X276309Y201772D01*
X288839Y199272D02*
X291339Y200522D01*
X293839Y199272D01*
X292589Y201772D02*
X293839Y199272D01*
X292589Y201772D02*
X293839Y204272D01*
X291339Y203022D02*
X293839Y204272D01*
X288839D02*
X291339Y203022D01*
X288839Y204272D02*
X290089Y201772D01*
X288839Y199272D02*
X290089Y201772D01*
X302618Y199272D02*
X305118Y200522D01*
X307618Y199272D01*
X306368Y201772D02*
X307618Y199272D01*
X306368Y201772D02*
X307618Y204272D01*
X305118Y203022D02*
X307618Y204272D01*
X302618D02*
X305118Y203022D01*
X302618Y204272D02*
X303868Y201772D01*
X302618Y199272D02*
X303868Y201772D01*
X316398Y199272D02*
X318898Y200522D01*
X321398Y199272D01*
X320148Y201772D02*
X321398Y199272D01*
X320148Y201772D02*
X321398Y204272D01*
X318898Y203022D02*
X321398Y204272D01*
X316398D02*
X318898Y203022D01*
X316398Y204272D02*
X317648Y201772D01*
X316398Y199272D02*
X317648Y201772D01*
X330177Y199272D02*
X332677Y200522D01*
X335177Y199272D01*
X333927Y201772D02*
X335177Y199272D01*
X333927Y201772D02*
X335177Y204272D01*
X332677Y203022D02*
X335177Y204272D01*
X330177D02*
X332677Y203022D01*
X330177Y204272D02*
X331427Y201772D01*
X330177Y199272D02*
X331427Y201772D01*
X281949Y192185D02*
X284449Y193435D01*
X286949Y192185D01*
X285699Y194685D02*
X286949Y192185D01*
X285699Y194685D02*
X286949Y197185D01*
X284449Y195935D02*
X286949Y197185D01*
X281949D02*
X284449Y195935D01*
X281949Y197185D02*
X283199Y194685D01*
X281949Y192185D02*
X283199Y194685D01*
X295728Y192185D02*
X298228Y193435D01*
X300728Y192185D01*
X299478Y194685D02*
X300728Y192185D01*
X299478Y194685D02*
X300728Y197185D01*
X298228Y195935D02*
X300728Y197185D01*
X295728D02*
X298228Y195935D01*
X295728Y197185D02*
X296978Y194685D01*
X295728Y192185D02*
X296978Y194685D01*
X309508Y192185D02*
X312008Y193435D01*
X314508Y192185D01*
X313258Y194685D02*
X314508Y192185D01*
X313258Y194685D02*
X314508Y197185D01*
X312008Y195935D02*
X314508Y197185D01*
X309508D02*
X312008Y195935D01*
X309508Y197185D02*
X310758Y194685D01*
X309508Y192185D02*
X310758Y194685D01*
X323287Y192185D02*
X325787Y193435D01*
X328287Y192185D01*
X327037Y194685D02*
X328287Y192185D01*
X327037Y194685D02*
X328287Y197185D01*
X325787Y195935D02*
X328287Y197185D01*
X323287D02*
X325787Y195935D01*
X323287Y197185D02*
X324537Y194685D01*
X323287Y192185D02*
X324537Y194685D01*
X281949Y205965D02*
X284449Y207215D01*
X286949Y205965D01*
X285699Y208465D02*
X286949Y205965D01*
X285699Y208465D02*
X286949Y210965D01*
X284449Y209715D02*
X286949Y210965D01*
X281949D02*
X284449Y209715D01*
X281949Y210965D02*
X283199Y208465D01*
X281949Y205965D02*
X283199Y208465D01*
X294153Y222697D02*
X296654Y223947D01*
X299153Y222697D01*
X297903Y225197D02*
X299153Y222697D01*
X297903Y225197D02*
X299153Y227697D01*
X296654Y226447D02*
X299153Y227697D01*
X294153D02*
X296654Y226447D01*
X294153Y227697D02*
X295404Y225197D01*
X294153Y222697D02*
X295404Y225197D01*
X294350Y214823D02*
X296850Y216073D01*
X299350Y214823D01*
X298100Y217323D02*
X299350Y214823D01*
X298100Y217323D02*
X299350Y219823D01*
X296850Y218573D02*
X299350Y219823D01*
X294350D02*
X296850Y218573D01*
X294350Y219823D02*
X295600Y217323D01*
X294350Y214823D02*
X295600Y217323D01*
X273878Y230768D02*
X276378Y232018D01*
X278878Y230768D01*
X277628Y233268D02*
X278878Y230768D01*
X277628Y233268D02*
X278878Y235768D01*
X276378Y234518D02*
X278878Y235768D01*
X273878D02*
X276378Y234518D01*
X273878Y235768D02*
X275128Y233268D01*
X273878Y230768D02*
X275128Y233268D01*
X230374Y266595D02*
X232874Y267845D01*
X235374Y266595D01*
X234124Y269094D02*
X235374Y266595D01*
X234124Y269094D02*
X235374Y271595D01*
X232874Y270344D02*
X235374Y271595D01*
X230374D02*
X232874Y270344D01*
X230374Y271595D02*
X231624Y269094D01*
X230374Y266595D02*
X231624Y269094D01*
X230374Y260689D02*
X232874Y261939D01*
X235374Y260689D01*
X234124Y263189D02*
X235374Y260689D01*
X234124Y263189D02*
X235374Y265689D01*
X232874Y264439D02*
X235374Y265689D01*
X230374D02*
X232874Y264439D01*
X230374Y265689D02*
X231624Y263189D01*
X230374Y260689D02*
X231624Y263189D01*
X283917Y307343D02*
X286417Y308593D01*
X288917Y307343D01*
X287667Y309842D02*
X288917Y307343D01*
X287667Y309842D02*
X288917Y312343D01*
X286417Y311092D02*
X288917Y312343D01*
X283917D02*
X286417Y311092D01*
X283917Y312343D02*
X285167Y309842D01*
X283917Y307343D02*
X285167Y309842D01*
X173681Y246909D02*
X176181Y248160D01*
X178681Y246909D01*
X177431Y249410D02*
X178681Y246909D01*
X177431Y249410D02*
X178681Y251909D01*
X176181Y250659D02*
X178681Y251909D01*
X173681D02*
X176181Y250659D01*
X173681Y251909D02*
X174931Y249410D01*
X173681Y246909D02*
X174931Y249410D01*
X176604Y231752D02*
X179104Y233002D01*
X181604Y231752D01*
X180354Y234252D02*
X181604Y231752D01*
X180354Y234252D02*
X181604Y236752D01*
X179104Y235502D02*
X181604Y236752D01*
X176604D02*
X179104Y235502D01*
X176604Y236752D02*
X177854Y234252D01*
X176604Y231752D02*
X177854Y234252D01*
X176604Y226487D02*
X179104Y227737D01*
X181604Y226487D01*
X180354Y228987D02*
X181604Y226487D01*
X180354Y228987D02*
X181604Y231487D01*
X179104Y230237D02*
X181604Y231487D01*
X176604D02*
X179104Y230237D01*
X176604Y231487D02*
X177854Y228987D01*
X176604Y226487D02*
X177854Y228987D01*
X167546Y229390D02*
X170046Y230640D01*
X172546Y229390D01*
X171296Y231890D02*
X172546Y229390D01*
X171296Y231890D02*
X172546Y234390D01*
X170046Y233140D02*
X172546Y234390D01*
X167546D02*
X170046Y233140D01*
X167546Y234390D02*
X168796Y231890D01*
X167546Y229390D02*
X168796Y231890D01*
X176271Y236507D02*
X178771Y237757D01*
X181271Y236507D01*
X180021Y239007D02*
X181271Y236507D01*
X180021Y239007D02*
X181271Y241507D01*
X178771Y240257D02*
X181271Y241507D01*
X176271D02*
X178771Y240257D01*
X176271Y241507D02*
X177521Y239007D01*
X176271Y236507D02*
X177521Y239007D01*
X160886Y240216D02*
X163386Y241466D01*
X165886Y240216D01*
X164636Y242717D02*
X165886Y240216D01*
X164636Y242717D02*
X165886Y245216D01*
X163386Y243967D02*
X165886Y245216D01*
X160886D02*
X163386Y243967D01*
X160886Y245216D02*
X162136Y242717D01*
X160886Y240216D02*
X162136Y242717D01*
X173681Y240020D02*
X176181Y241270D01*
X178681Y240020D01*
X177431Y242520D02*
X178681Y240020D01*
X177431Y242520D02*
X178681Y245020D01*
X176181Y243770D02*
X178681Y245020D01*
X173681D02*
X176181Y243770D01*
X173681Y245020D02*
X174931Y242520D01*
X173681Y240020D02*
X174931Y242520D01*
X208917Y186279D02*
X211417Y187530D01*
X213917Y186279D01*
X212667Y188779D02*
X213917Y186279D01*
X212667Y188779D02*
X213917Y191279D01*
X211417Y190030D02*
X213917Y191279D01*
X208917D02*
X211417Y190030D01*
X208917Y191279D02*
X210167Y188779D01*
X208917Y186279D02*
X210167Y188779D01*
X212461Y186870D02*
X214961Y188120D01*
X217461Y186870D01*
X216211Y189370D02*
X217461Y186870D01*
X216211Y189370D02*
X217461Y191870D01*
X214961Y190620D02*
X217461Y191870D01*
X212461D02*
X214961Y190620D01*
X212461Y191870D02*
X213711Y189370D01*
X212461Y186870D02*
X213711Y189370D01*
X213445Y251437D02*
X215945Y252687D01*
X218445Y251437D01*
X217195Y253937D02*
X218445Y251437D01*
X217195Y253937D02*
X218445Y256437D01*
X215945Y255187D02*
X218445Y256437D01*
X213445D02*
X215945Y255187D01*
X213445Y256437D02*
X214695Y253937D01*
X213445Y251437D02*
X214695Y253937D01*
X229390Y252421D02*
X231890Y253671D01*
X234390Y252421D01*
X233140Y254921D02*
X234390Y252421D01*
X233140Y254921D02*
X234390Y257421D01*
X231890Y256171D02*
X234390Y257421D01*
X229390D02*
X231890Y256171D01*
X229390Y257421D02*
X230640Y254921D01*
X229390Y252421D02*
X230640Y254921D01*
X210886Y257343D02*
X213386Y258593D01*
X215886Y257343D01*
X214636Y259842D02*
X215886Y257343D01*
X214636Y259842D02*
X215886Y262343D01*
X213386Y261092D02*
X215886Y262343D01*
X210886D02*
X213386Y261092D01*
X210886Y262343D02*
X212136Y259842D01*
X210886Y257343D02*
X212136Y259842D01*
X178996Y252618D02*
X181496Y253868D01*
X183996Y252618D01*
X182746Y255118D02*
X183996Y252618D01*
X182746Y255118D02*
X183996Y257618D01*
X181496Y256368D02*
X183996Y257618D01*
X178996D02*
X181496Y256368D01*
X178996Y257618D02*
X180246Y255118D01*
X178996Y252618D02*
X180246Y255118D01*
X338248Y201872D02*
X340748Y203122D01*
X343248Y201872D01*
X341998Y204372D02*
X343248Y201872D01*
X341998Y204372D02*
X343248Y206872D01*
X340748Y205622D02*
X343248Y206872D01*
X338248D02*
X340748Y205622D01*
X338248Y206872D02*
X339498Y204372D01*
X338248Y201872D02*
X339498Y204372D01*
X265807Y241791D02*
X268307Y243041D01*
X270807Y241791D01*
X269557Y244291D02*
X270807Y241791D01*
X269557Y244291D02*
X270807Y246791D01*
X268307Y245541D02*
X270807Y246791D01*
X265807D02*
X268307Y245541D01*
X265807Y246791D02*
X267057Y244291D01*
X265807Y241791D02*
X267057Y244291D01*
X260492Y235492D02*
X262992Y236742D01*
X265492Y235492D01*
X264242Y237992D02*
X265492Y235492D01*
X264242Y237992D02*
X265492Y240492D01*
X262992Y239242D02*
X265492Y240492D01*
X260492D02*
X262992Y239242D01*
X260492Y240492D02*
X261742Y237992D01*
X260492Y235492D02*
X261742Y237992D01*
X356933Y249496D02*
X359433Y250746D01*
X361933Y249496D01*
X360683Y251995D02*
X361933Y249496D01*
X360683Y251995D02*
X361933Y254496D01*
X359433Y253245D02*
X361933Y254496D01*
X356933D02*
X359433Y253245D01*
X356933Y254496D02*
X358183Y251995D01*
X356933Y249496D02*
X358183Y251995D01*
X301421Y264850D02*
X303921Y266100D01*
X306421Y264850D01*
X305171Y267350D02*
X306421Y264850D01*
X305171Y267350D02*
X306421Y269850D01*
X303921Y268600D02*
X306421Y269850D01*
X301421D02*
X303921Y268600D01*
X301421Y269850D02*
X302671Y267350D01*
X301421Y264850D02*
X302671Y267350D01*
X309295Y258747D02*
X311795Y259997D01*
X314295Y258747D01*
X313045Y261247D02*
X314295Y258747D01*
X313045Y261247D02*
X314295Y263747D01*
X311795Y262497D02*
X314295Y263747D01*
X309295D02*
X311795Y262497D01*
X309295Y263747D02*
X310545Y261247D01*
X309295Y258747D02*
X310545Y261247D01*
X280752Y255401D02*
X283252Y256651D01*
X285752Y255401D01*
X284502Y257901D02*
X285752Y255401D01*
X284502Y257901D02*
X285752Y260401D01*
X283252Y259151D02*
X285752Y260401D01*
X280752D02*
X283252Y259151D01*
X280752Y260401D02*
X282002Y257901D01*
X280752Y255401D02*
X282002Y257901D01*
X366201Y202618D02*
X368701Y203868D01*
X371201Y202618D01*
X369951Y205118D02*
X371201Y202618D01*
X369951Y205118D02*
X371201Y207618D01*
X368701Y206368D02*
X371201Y207618D01*
X366201D02*
X368701Y206368D01*
X366201Y207618D02*
X367451Y205118D01*
X366201Y202618D02*
X367451Y205118D01*
X277406Y217999D02*
X279906Y219249D01*
X282406Y217999D01*
X281156Y220499D02*
X282406Y217999D01*
X281156Y220499D02*
X282406Y222999D01*
X279906Y221749D02*
X282406Y222999D01*
X277406D02*
X279906Y221749D01*
X277406Y222999D02*
X278656Y220499D01*
X277406Y217999D02*
X278656Y220499D01*
X205965Y207933D02*
X208465Y209183D01*
X210965Y207933D01*
X209715Y210433D02*
X210965Y207933D01*
X209715Y210433D02*
X210965Y212933D01*
X208465Y211683D02*
X210965Y212933D01*
X205965D02*
X208465Y211683D01*
X205965Y212933D02*
X207215Y210433D01*
X205965Y207933D02*
X207215Y210433D01*
X200716Y213402D02*
X203216Y214652D01*
X205716Y213402D01*
X204466Y215902D02*
X205716Y213402D01*
X204466Y215902D02*
X205716Y218402D01*
X203216Y217152D02*
X205716Y218402D01*
X200716D02*
X203216Y217152D01*
X200716Y218402D02*
X201966Y215902D01*
X200716Y213402D02*
X201966Y215902D01*
X194153Y276043D02*
X196653Y277293D01*
X199153Y276043D01*
X197904Y278543D02*
X199153Y276043D01*
X197904Y278543D02*
X199153Y281043D01*
X196653Y279793D02*
X199153Y281043D01*
X194153D02*
X196653Y279793D01*
X194153Y281043D02*
X195404Y278543D01*
X194153Y276043D02*
X195404Y278543D01*
X188630Y276020D02*
X191130Y277270D01*
X193630Y276020D01*
X192380Y278520D02*
X193630Y276020D01*
X192380Y278520D02*
X193630Y281020D01*
X191130Y279770D02*
X193630Y281020D01*
X188630D02*
X191130Y279770D01*
X188630Y281020D02*
X189880Y278520D01*
X188630Y276020D02*
X189880Y278520D01*
X175256Y263051D02*
X177756Y264301D01*
X180256Y263051D01*
X179006Y265551D02*
X180256Y263051D01*
X179006Y265551D02*
X180256Y268051D01*
X177756Y266801D02*
X180256Y268051D01*
X175256D02*
X177756Y266801D01*
X175256Y268051D02*
X176506Y265551D01*
X175256Y263051D02*
X176506Y265551D01*
X289023Y246886D02*
X291523Y248136D01*
X294023Y246886D01*
X292773Y249386D02*
X294023Y246886D01*
X292773Y249386D02*
X294023Y251886D01*
X291523Y250636D02*
X294023Y251886D01*
X289023D02*
X291523Y250636D01*
X289023Y251886D02*
X290273Y249386D01*
X289023Y246886D02*
X290273Y249386D01*
X266779Y276807D02*
X269279Y278057D01*
X271779Y276807D01*
X270529Y279307D02*
X271779Y276807D01*
X270529Y279307D02*
X271779Y281807D01*
X269279Y280557D02*
X271779Y281807D01*
X266779D02*
X269279Y280557D01*
X266779Y281807D02*
X268029Y279307D01*
X266779Y276807D02*
X268029Y279307D01*
X335677Y191571D02*
X338177Y192821D01*
X340677Y191571D01*
X339427Y194071D02*
X340677Y191571D01*
X339427Y194071D02*
X340677Y196571D01*
X338177Y195321D02*
X340677Y196571D01*
X335677D02*
X338177Y195321D01*
X335677Y196571D02*
X336927Y194071D01*
X335677Y191571D02*
X336927Y194071D01*
X143945Y284681D02*
X146445Y285931D01*
X148945Y284681D01*
X147695Y287181D02*
X148945Y284681D01*
X147695Y287181D02*
X148945Y289681D01*
X146445Y288431D02*
X148945Y289681D01*
X143945D02*
X146445Y288431D01*
X143945Y289681D02*
X145195Y287181D01*
X143945Y284681D02*
X145195Y287181D01*
X150453Y284705D02*
X152953Y285955D01*
X155453Y284705D01*
X154203Y287205D02*
X155453Y284705D01*
X154203Y287205D02*
X155453Y289705D01*
X152953Y288455D02*
X155453Y289705D01*
X150453D02*
X152953Y288455D01*
X150453Y289705D02*
X151703Y287205D01*
X150453Y284705D02*
X151703Y287205D01*
X209693Y302988D02*
X212193Y304238D01*
X214693Y302988D01*
X213443Y305488D02*
X214693Y302988D01*
X213443Y305488D02*
X214693Y307988D01*
X212193Y306738D02*
X214693Y307988D01*
X209693D02*
X212193Y306738D01*
X209693Y307988D02*
X210943Y305488D01*
X209693Y302988D02*
X210943Y305488D01*
X352212Y280941D02*
X354712Y282191D01*
X357212Y280941D01*
X355962Y283441D02*
X357212Y280941D01*
X355962Y283441D02*
X357212Y285941D01*
X354712Y284691D02*
X357212Y285941D01*
X352212D02*
X354712Y284691D01*
X352212Y285941D02*
X353462Y283441D01*
X352212Y280941D02*
X353462Y283441D01*
X249468Y303725D02*
X251969Y304975D01*
X254468Y303725D01*
X253219Y306225D02*
X254468Y303725D01*
X253219Y306225D02*
X254468Y308725D01*
X251969Y307475D02*
X254468Y308725D01*
X249468D02*
X251969Y307475D01*
X249468Y308725D02*
X250718Y306225D01*
X249468Y303725D02*
X250718Y306225D01*
X263248Y303725D02*
X265748Y304975D01*
X268248Y303725D01*
X266998Y306225D02*
X268248Y303725D01*
X266998Y306225D02*
X268248Y308725D01*
X265748Y307475D02*
X268248Y308725D01*
X263248D02*
X265748Y307475D01*
X263248Y308725D02*
X264498Y306225D01*
X263248Y303725D02*
X264498Y306225D01*
X214429Y312461D02*
X216929Y313711D01*
X219429Y312461D01*
X218179Y314961D02*
X219429Y312461D01*
X218179Y314961D02*
X219429Y317461D01*
X216929Y316211D02*
X219429Y317461D01*
X214429D02*
X216929Y316211D01*
X214429Y317461D02*
X215679Y314961D01*
X214429Y312461D02*
X215679Y314961D01*
X199075Y311841D02*
X201575Y313091D01*
X204075Y311841D01*
X202825Y314341D02*
X204075Y311841D01*
X202825Y314341D02*
X204075Y316841D01*
X201575Y315591D02*
X204075Y316841D01*
X199075D02*
X201575Y315591D01*
X199075Y316841D02*
X200325Y314341D01*
X199075Y311841D02*
X200325Y314341D01*
X233130Y310295D02*
X235630Y311545D01*
X238130Y310295D01*
X236880Y312795D02*
X238130Y310295D01*
X236880Y312795D02*
X238130Y315295D01*
X235630Y314045D02*
X238130Y315295D01*
X233130D02*
X235630Y314045D01*
X233130Y315295D02*
X234380Y312795D01*
X233130Y310295D02*
X234380Y312795D01*
X233130Y306555D02*
X235630Y307805D01*
X238130Y306555D01*
X236880Y309055D02*
X238130Y306555D01*
X236880Y309055D02*
X238130Y311555D01*
X235630Y310305D02*
X238130Y311555D01*
X233130D02*
X235630Y310305D01*
X233130Y311555D02*
X234380Y309055D01*
X233130Y306555D02*
X234380Y309055D01*
X274033Y308327D02*
X276534Y309577D01*
X279033Y308327D01*
X277783Y310827D02*
X279033Y308327D01*
X277783Y310827D02*
X279033Y313327D01*
X276534Y312077D02*
X279033Y313327D01*
X274033D02*
X276534Y312077D01*
X274033Y313327D02*
X275284Y310827D01*
X274033Y308327D02*
X275284Y310827D01*
X272303Y310689D02*
X274803Y311939D01*
X277303Y310689D01*
X276053Y313189D02*
X277303Y310689D01*
X276053Y313189D02*
X277303Y315689D01*
X274803Y314439D02*
X277303Y315689D01*
X272303D02*
X274803Y314439D01*
X272303Y315689D02*
X273553Y313189D01*
X272303Y310689D02*
X273553Y313189D01*
X230374Y310492D02*
X232874Y311742D01*
X235374Y310492D01*
X234124Y312992D02*
X235374Y310492D01*
X234124Y312992D02*
X235374Y315492D01*
X232874Y314242D02*
X235374Y315492D01*
X230374D02*
X232874Y314242D01*
X230374Y315492D02*
X231624Y312992D01*
X230374Y310492D02*
X231624Y312992D01*
X233130Y303799D02*
X235630Y305049D01*
X238130Y303799D01*
X236880Y306299D02*
X238130Y303799D01*
X236880Y306299D02*
X238130Y308799D01*
X235630Y307549D02*
X238130Y308799D01*
X233130D02*
X235630Y307549D01*
X233130Y308799D02*
X234380Y306299D01*
X233130Y303799D02*
X234380Y306299D01*
X283720Y269941D02*
X286221Y271191D01*
X288720Y269941D01*
X287471Y272441D02*
X288720Y269941D01*
X287471Y272441D02*
X288720Y274941D01*
X286221Y273691D02*
X288720Y274941D01*
X283720D02*
X286221Y273691D01*
X283720Y274941D02*
X284970Y272441D01*
X283720Y269941D02*
X284970Y272441D01*
X292185Y274272D02*
X294685Y275522D01*
X297185Y274272D01*
X295935Y276772D02*
X297185Y274272D01*
X295935Y276772D02*
X297185Y279272D01*
X294685Y278022D02*
X297185Y279272D01*
X292185D02*
X294685Y278022D01*
X292185Y279272D02*
X293435Y276772D01*
X292185Y274272D02*
X293435Y276772D01*
X326043Y275650D02*
X328543Y276900D01*
X331043Y275650D01*
X329793Y278150D02*
X331043Y275650D01*
X329793Y278150D02*
X331043Y280650D01*
X328543Y279400D02*
X331043Y280650D01*
X326043D02*
X328543Y279400D01*
X326043Y280650D02*
X327293Y278150D01*
X326043Y275650D02*
X327293Y278150D01*
X340610Y271909D02*
X343110Y273160D01*
X345610Y271909D01*
X344360Y274410D02*
X345610Y271909D01*
X344360Y274410D02*
X345610Y276909D01*
X343110Y275659D02*
X345610Y276909D01*
X340610D02*
X343110Y275659D01*
X340610Y276909D02*
X341860Y274410D01*
X340610Y271909D02*
X341860Y274410D01*
X330374Y223484D02*
X332874Y224734D01*
X335374Y223484D01*
X334124Y225984D02*
X335374Y223484D01*
X334124Y225984D02*
X335374Y228484D01*
X332874Y227234D02*
X335374Y228484D01*
X330374D02*
X332874Y227234D01*
X330374Y228484D02*
X331624Y225984D01*
X330374Y223484D02*
X331624Y225984D01*
X145404Y200522D02*
X146654Y199272D01*
X144154Y200522D02*
X145404D01*
X144154D02*
X145404Y201772D01*
X144154Y203022D02*
X145404Y201772D01*
X144154Y203022D02*
X145404D01*
X146654Y204272D01*
X147904Y203022D01*
X149154D01*
X147904Y201772D02*
X149154Y203022D01*
X147904Y201772D02*
X149154Y200522D01*
X147904D02*
X149154D01*
X146654Y199272D02*
X147904Y200522D01*
X385561Y320600D02*
X386811Y319350D01*
X384311Y320600D02*
X385561D01*
X384311D02*
X385561Y321850D01*
X384311Y323100D02*
X385561Y321850D01*
X384311Y323100D02*
X385561D01*
X386811Y324350D01*
X388061Y323100D01*
X389311D01*
X388061Y321850D02*
X389311Y323100D01*
X388061Y321850D02*
X389311Y320600D01*
X388061D02*
X389311D01*
X386811Y319350D02*
X388061Y320600D01*
X385561Y200522D02*
X386811Y199272D01*
X384311Y200522D02*
X385561D01*
X384311D02*
X385561Y201772D01*
X384311Y203022D02*
X385561Y201772D01*
X384311Y203022D02*
X385561D01*
X386811Y204272D01*
X388061Y203022D01*
X389311D01*
X388061Y201772D02*
X389311Y203022D01*
X388061Y201772D02*
X389311Y200522D01*
X388061D02*
X389311D01*
X386811Y199272D02*
X388061Y200522D01*
X228287Y211437D02*
X233287D01*
Y216437D01*
X228287D02*
X233287D01*
X228287Y211437D02*
Y216437D01*
Y201437D02*
X233287D01*
Y206437D01*
X228287D02*
X233287D01*
X228287Y201437D02*
Y206437D01*
X238287Y211437D02*
X243287D01*
Y216437D01*
X238287D02*
X243287D01*
X238287Y211437D02*
Y216437D01*
X248287Y211437D02*
X253287D01*
Y216437D01*
X248287D02*
X253287D01*
X248287Y211437D02*
Y216437D01*
X258287Y211437D02*
X263287D01*
Y216437D01*
X258287D02*
X263287D01*
X258287Y211437D02*
Y216437D01*
X238287Y201437D02*
X243287D01*
Y206437D01*
X238287D02*
X243287D01*
X238287Y201437D02*
Y206437D01*
X248287Y201437D02*
X253287D01*
Y206437D01*
X248287D02*
X253287D01*
X248287Y201437D02*
Y206437D01*
X258287Y201437D02*
X263287D01*
Y206437D01*
X258287D02*
X263287D01*
X258287Y201437D02*
Y206437D01*
X228287Y191437D02*
X233287D01*
Y196437D01*
X228287D02*
X233287D01*
X228287Y191437D02*
Y196437D01*
X238287Y191437D02*
X243287D01*
Y196437D01*
X238287D02*
X243287D01*
X238287Y191437D02*
Y196437D01*
X248287Y191437D02*
X253287D01*
Y196437D01*
X248287D02*
X253287D01*
X248287Y191437D02*
Y196437D01*
X258287Y191437D02*
X263287D01*
Y196437D01*
X258287D02*
X263287D01*
X258287Y191437D02*
Y196437D01*
X351378Y289823D02*
X353878Y294823D01*
X348878D02*
X353878D01*
X348878D02*
X351378Y289823D01*
X331693D02*
X334193Y294823D01*
X329193D02*
X334193D01*
X329193D02*
X331693Y289823D01*
X145404Y320600D02*
X146654Y319350D01*
X144154Y320600D02*
X145404D01*
X144154D02*
X145404Y321850D01*
X144154Y323100D02*
X145404Y321850D01*
X144154Y323100D02*
X145404D01*
X146654Y324350D01*
X147904Y323100D01*
X149154D01*
X147904Y321850D02*
X149154Y323100D01*
X147904Y321850D02*
X149154Y320600D01*
X147904D02*
X149154D01*
X146654Y319350D02*
X147904Y320600D01*
D24*
X446088Y388134D02*
G03*
X446088Y388134I-1312J0D01*
G01*
X444775Y380917D02*
X446088Y383541D01*
X443463D02*
X446088D01*
X443463D02*
X444775Y380917D01*
X444119Y375667D02*
X444775Y375011D01*
X443463Y375667D02*
X444119D01*
X443463D02*
X444119Y376323D01*
X443463Y376979D02*
X444119Y376323D01*
X443463Y376979D02*
X444119D01*
X444775Y377636D01*
X445431Y376979D01*
X446088D01*
X445431Y376323D02*
X446088Y376979D01*
X445431Y376323D02*
X446088Y375667D01*
X445431D02*
X446088D01*
X444775Y375011D02*
X445431Y375667D01*
X443463Y369106D02*
X446088D01*
Y371730D01*
X443463D02*
X446088D01*
X443463Y369106D02*
Y371730D01*
Y363200D02*
X444775Y363856D01*
X446088Y363200D01*
X445431Y364512D02*
X446088Y363200D01*
X445431Y364512D02*
X446088Y365825D01*
X444775Y365168D02*
X446088Y365825D01*
X443463D02*
X444775Y365168D01*
X443463Y365825D02*
X444119Y364512D01*
X443463Y363200D02*
X444119Y364512D01*
X811887Y365168D02*
X812280Y365561D01*
X813068D01*
X813461Y365168D01*
Y363594D01*
X813068Y363200D01*
X812280D01*
X811887Y363594D01*
Y365168D01*
X814248Y363200D02*
Y363594D01*
X814642D01*
Y363200D01*
X814248D01*
X816216D02*
X817003D01*
X816610D01*
Y365561D01*
X816216Y365168D01*
X818184D02*
X818577Y365561D01*
X819365D01*
X819758Y365168D01*
Y363594D01*
X819365Y363200D01*
X818577D01*
X818184Y363594D01*
Y365168D01*
X820545D02*
X820939Y365561D01*
X821726D01*
X822120Y365168D01*
Y363594D01*
X821726Y363200D01*
X820939D01*
X820545Y363594D01*
Y365168D01*
X822907Y363200D02*
Y364774D01*
X823300D01*
X823694Y364381D01*
Y363200D01*
Y364381D01*
X824088Y364774D01*
X824481Y364381D01*
Y363200D01*
X825268D02*
Y364774D01*
X825662D01*
X826055Y364381D01*
Y363200D01*
Y364381D01*
X826449Y364774D01*
X826842Y364381D01*
Y363200D01*
X830778D02*
X829991Y363987D01*
Y364774D01*
X830778Y365561D01*
X831959Y365168D02*
X832353Y365561D01*
X833140D01*
X833533Y365168D01*
Y364774D01*
X833140Y364381D01*
X832746D01*
X833140D01*
X833533Y363987D01*
Y363594D01*
X833140Y363200D01*
X832353D01*
X831959Y363594D01*
X834320Y363200D02*
Y363594D01*
X834714D01*
Y363200D01*
X834320D01*
X836288Y363594D02*
X836682Y363200D01*
X837469D01*
X837863Y363594D01*
Y365168D01*
X837469Y365561D01*
X836682D01*
X836288Y365168D01*
Y364774D01*
X836682Y364381D01*
X837863D01*
X839830Y363200D02*
Y365561D01*
X838650Y364381D01*
X840224D01*
X841011Y363200D02*
Y364774D01*
X841405D01*
X841798Y364381D01*
Y363200D01*
Y364381D01*
X842192Y364774D01*
X842585Y364381D01*
Y363200D01*
X843373D02*
X844160D01*
X843766D01*
Y364774D01*
X843373D01*
X845341Y363200D02*
X846128D01*
X845734D01*
Y365561D01*
X845341D01*
X847308Y363200D02*
X848096Y363987D01*
Y364774D01*
X847308Y365561D01*
X758375Y365168D02*
X758768Y365561D01*
X759555D01*
X759949Y365168D01*
Y363594D01*
X759555Y363200D01*
X758768D01*
X758375Y363594D01*
Y365168D01*
X760736Y363200D02*
Y363594D01*
X761130D01*
Y363200D01*
X760736D01*
X762704D02*
X763491D01*
X763098D01*
Y365561D01*
X762704Y365168D01*
X764672D02*
X765065Y365561D01*
X765853D01*
X766246Y365168D01*
Y363594D01*
X765853Y363200D01*
X765065D01*
X764672Y363594D01*
Y365168D01*
X767033D02*
X767427Y365561D01*
X768214D01*
X768608Y365168D01*
Y363594D01*
X768214Y363200D01*
X767427D01*
X767033Y363594D01*
Y365168D01*
X769395Y363200D02*
Y364774D01*
X769788D01*
X770182Y364381D01*
Y363200D01*
Y364381D01*
X770576Y364774D01*
X770969Y364381D01*
Y363200D01*
X771756D02*
Y364774D01*
X772150D01*
X772543Y364381D01*
Y363200D01*
Y364381D01*
X772937Y364774D01*
X773331Y364381D01*
Y363200D01*
X777266D02*
X776479Y363987D01*
Y364774D01*
X777266Y365561D01*
X778447Y365168D02*
X778841Y365561D01*
X779628D01*
X780021Y365168D01*
Y364774D01*
X779628Y364381D01*
X779234D01*
X779628D01*
X780021Y363987D01*
Y363594D01*
X779628Y363200D01*
X778841D01*
X778447Y363594D01*
X780808Y363200D02*
Y363594D01*
X781202D01*
Y363200D01*
X780808D01*
X782776Y363594D02*
X783170Y363200D01*
X783957D01*
X784351Y363594D01*
Y365168D01*
X783957Y365561D01*
X783170D01*
X782776Y365168D01*
Y364774D01*
X783170Y364381D01*
X784351D01*
X786318Y363200D02*
Y365561D01*
X785138Y364381D01*
X786712D01*
X787499Y363200D02*
Y364774D01*
X787893D01*
X788286Y364381D01*
Y363200D01*
Y364381D01*
X788680Y364774D01*
X789074Y364381D01*
Y363200D01*
X789861D02*
X790648D01*
X790254D01*
Y364774D01*
X789861D01*
X791828Y363200D02*
X792616D01*
X792222D01*
Y365561D01*
X791828D01*
X793796Y363200D02*
X794584Y363987D01*
Y364774D01*
X793796Y365561D01*
X690456Y388396D02*
X689276D01*
X688882Y388003D01*
Y387215D01*
X689276Y386822D01*
X690456D01*
X692818D02*
X691244D01*
X692818Y388396D01*
Y388790D01*
X692424Y389183D01*
X691637D01*
X691244Y388790D01*
X693605D02*
X693999Y389183D01*
X694786D01*
X695179Y388790D01*
Y387215D01*
X694786Y386822D01*
X693999D01*
X693605Y387215D01*
Y388790D01*
X695966D02*
X696360Y389183D01*
X697147D01*
X697541Y388790D01*
Y387215D01*
X697147Y386822D01*
X696360D01*
X695966Y387215D01*
Y388790D01*
X698328Y389183D02*
Y386822D01*
Y388003D01*
X698722Y388396D01*
X699509D01*
X699902Y388003D01*
Y386822D01*
X700689D02*
X701476D01*
X701083D01*
Y389183D01*
X700689Y388790D01*
X702657D02*
X703051Y389183D01*
X703838D01*
X704232Y388790D01*
Y387215D01*
X703838Y386822D01*
X703051D01*
X702657Y387215D01*
Y388790D01*
X705019D02*
X705412Y389183D01*
X706199D01*
X706593Y388790D01*
Y387215D01*
X706199Y386822D01*
X705412D01*
X705019Y387215D01*
Y388790D01*
X707380Y386822D02*
Y388396D01*
X707774D01*
X708167Y388003D01*
Y386822D01*
Y388003D01*
X708561Y388396D01*
X708954Y388003D01*
Y386822D01*
X709741Y388790D02*
X710135Y389183D01*
X710922D01*
X711316Y388790D01*
Y387215D01*
X710922Y386822D01*
X710135D01*
X709741Y387215D01*
Y388790D01*
X712103Y386822D02*
Y388396D01*
X712497D01*
X712890Y388003D01*
Y386822D01*
Y388003D01*
X713284Y388396D01*
X713677Y388003D01*
Y386822D01*
X714464Y388396D02*
X716039Y386822D01*
X715251Y387609D01*
X716039Y388396D01*
X714464Y386822D01*
X716826Y388790D02*
X717219Y389183D01*
X718007D01*
X718400Y388790D01*
Y387215D01*
X718007Y386822D01*
X717219D01*
X716826Y387215D01*
Y388790D01*
X689669Y380917D02*
X688882Y381704D01*
Y382491D01*
X689669Y383278D01*
X690850Y380917D02*
Y383278D01*
X691637Y382491D01*
X692424Y383278D01*
Y380917D01*
X693211D02*
X693999D01*
X693605D01*
Y382491D01*
X693211D01*
X695179D02*
X696754Y380917D01*
X695966Y381704D01*
X696754Y382491D01*
X695179Y380917D01*
X698722D02*
X697934D01*
X697541Y381310D01*
Y382097D01*
X697934Y382491D01*
X698722D01*
X699115Y382097D01*
Y381704D01*
X697541D01*
X701476Y383278D02*
Y380917D01*
X700296D01*
X699902Y381310D01*
Y382097D01*
X700296Y382491D01*
X701476D01*
X702264Y380917D02*
X703051Y381704D01*
Y382491D01*
X702264Y383278D01*
X690456Y376585D02*
X689276D01*
X688882Y376192D01*
Y375405D01*
X689276Y375011D01*
X690456D01*
X692818Y377372D02*
X692031Y376979D01*
X691244Y376192D01*
Y375405D01*
X691637Y375011D01*
X692424D01*
X692818Y375405D01*
Y375798D01*
X692424Y376192D01*
X691244D01*
X693605Y376979D02*
X693999Y377372D01*
X694786D01*
X695179Y376979D01*
Y375405D01*
X694786Y375011D01*
X693999D01*
X693605Y375405D01*
Y376979D01*
X695966D02*
X696360Y377372D01*
X697147D01*
X697541Y376979D01*
Y375405D01*
X697147Y375011D01*
X696360D01*
X695966Y375405D01*
Y376979D01*
X698328Y377372D02*
Y375011D01*
Y376192D01*
X698722Y376585D01*
X699509D01*
X699902Y376192D01*
Y375011D01*
X700689Y376979D02*
X701083Y377372D01*
X701870D01*
X702264Y376979D01*
Y376585D01*
X701870Y376192D01*
X701476D01*
X701870D01*
X702264Y375798D01*
Y375405D01*
X701870Y375011D01*
X701083D01*
X700689Y375405D01*
X704232Y375011D02*
Y377372D01*
X703051Y376192D01*
X704625D01*
X705412Y376979D02*
X705806Y377372D01*
X706593D01*
X706987Y376979D01*
Y375405D01*
X706593Y375011D01*
X705806D01*
X705412Y375405D01*
Y376979D01*
X707774Y375011D02*
Y376585D01*
X708167D01*
X708561Y376192D01*
Y375011D01*
Y376192D01*
X708954Y376585D01*
X709348Y376192D01*
Y375011D01*
X710135Y376979D02*
X710529Y377372D01*
X711316D01*
X711709Y376979D01*
Y375405D01*
X711316Y375011D01*
X710529D01*
X710135Y375405D01*
Y376979D01*
X712497Y375011D02*
Y376585D01*
X712890D01*
X713284Y376192D01*
Y375011D01*
Y376192D01*
X713677Y376585D01*
X714071Y376192D01*
Y375011D01*
X714858Y376585D02*
X716432Y375011D01*
X715645Y375798D01*
X716432Y376585D01*
X714858Y375011D01*
X717219Y376979D02*
X717613Y377372D01*
X718400D01*
X718794Y376979D01*
Y375405D01*
X718400Y375011D01*
X717613D01*
X717219Y375405D01*
Y376979D01*
X689669Y369106D02*
X688882Y369893D01*
Y370680D01*
X689669Y371467D01*
X690850Y369106D02*
Y371467D01*
X691637Y370680D01*
X692424Y371467D01*
Y369106D01*
X693211D02*
X693999D01*
X693605D01*
Y370680D01*
X693211D01*
X695179D02*
X696754Y369106D01*
X695966Y369893D01*
X696754Y370680D01*
X695179Y369106D01*
X698722D02*
X697934D01*
X697541Y369499D01*
Y370286D01*
X697934Y370680D01*
X698722D01*
X699115Y370286D01*
Y369893D01*
X697541D01*
X701476Y371467D02*
Y369106D01*
X700296D01*
X699902Y369499D01*
Y370286D01*
X700296Y370680D01*
X701476D01*
X702264Y369106D02*
X703051Y369893D01*
Y370680D01*
X702264Y371467D01*
X689669Y363200D02*
X688882Y363987D01*
Y364774D01*
X689669Y365561D01*
X690850Y363200D02*
Y365561D01*
X691637Y364774D01*
X692424Y365561D01*
Y363200D01*
X693211D02*
X693999D01*
X693605D01*
Y364774D01*
X693211D01*
X695179D02*
X696754Y363200D01*
X695966Y363987D01*
X696754Y364774D01*
X695179Y363200D01*
X698722D02*
X697934D01*
X697541Y363594D01*
Y364381D01*
X697934Y364774D01*
X698722D01*
X699115Y364381D01*
Y363987D01*
X697541D01*
X701476Y365561D02*
Y363200D01*
X700296D01*
X699902Y363594D01*
Y364381D01*
X700296Y364774D01*
X701476D01*
X702264Y363200D02*
X703051Y363987D01*
Y364774D01*
X702264Y365561D01*
X658512Y386822D02*
Y389183D01*
X659693D01*
X660086Y388790D01*
Y388003D01*
X659693Y387609D01*
X658512D01*
X659299D02*
X660086Y386822D01*
X661267D02*
X662054D01*
X662448Y387215D01*
Y388003D01*
X662054Y388396D01*
X661267D01*
X660874Y388003D01*
Y387215D01*
X661267Y386822D01*
X663235Y388396D02*
Y387215D01*
X663629Y386822D01*
X664809D01*
Y388396D01*
X665597Y386822D02*
Y388396D01*
X666777D01*
X667171Y388003D01*
Y386822D01*
X669532Y389183D02*
Y386822D01*
X668352D01*
X667958Y387215D01*
Y388003D01*
X668352Y388396D01*
X669532D01*
X671500Y386822D02*
X670713D01*
X670319Y387215D01*
Y388003D01*
X670713Y388396D01*
X671500D01*
X671894Y388003D01*
Y387609D01*
X670319D01*
X674255Y389183D02*
Y386822D01*
X673074D01*
X672681Y387215D01*
Y388003D01*
X673074Y388396D01*
X674255D01*
X658512Y380917D02*
Y383278D01*
X659693D01*
X660086Y382884D01*
Y382097D01*
X659693Y381704D01*
X658512D01*
X659299D02*
X660086Y380917D01*
X661267D02*
X662054D01*
X662448Y381310D01*
Y382097D01*
X662054Y382491D01*
X661267D01*
X660874Y382097D01*
Y381310D01*
X661267Y380917D01*
X663235Y382491D02*
Y381310D01*
X663629Y380917D01*
X664809D01*
Y382491D01*
X665597Y380917D02*
Y382491D01*
X666777D01*
X667171Y382097D01*
Y380917D01*
X669532Y383278D02*
Y380917D01*
X668352D01*
X667958Y381310D01*
Y382097D01*
X668352Y382491D01*
X669532D01*
X671500Y380917D02*
X670713D01*
X670319Y381310D01*
Y382097D01*
X670713Y382491D01*
X671500D01*
X671894Y382097D01*
Y381704D01*
X670319D01*
X674255Y383278D02*
Y380917D01*
X673074D01*
X672681Y381310D01*
Y382097D01*
X673074Y382491D01*
X674255D01*
X658512Y375011D02*
Y377372D01*
X659693D01*
X660086Y376979D01*
Y376192D01*
X659693Y375798D01*
X658512D01*
X659299D02*
X660086Y375011D01*
X661267D02*
X662054D01*
X662448Y375405D01*
Y376192D01*
X662054Y376585D01*
X661267D01*
X660874Y376192D01*
Y375405D01*
X661267Y375011D01*
X663235Y376585D02*
Y375405D01*
X663629Y375011D01*
X664809D01*
Y376585D01*
X665597Y375011D02*
Y376585D01*
X666777D01*
X667171Y376192D01*
Y375011D01*
X669532Y377372D02*
Y375011D01*
X668352D01*
X667958Y375405D01*
Y376192D01*
X668352Y376585D01*
X669532D01*
X671500Y375011D02*
X670713D01*
X670319Y375405D01*
Y376192D01*
X670713Y376585D01*
X671500D01*
X671894Y376192D01*
Y375798D01*
X670319D01*
X674255Y377372D02*
Y375011D01*
X673074D01*
X672681Y375405D01*
Y376192D01*
X673074Y376585D01*
X674255D01*
X658512Y369106D02*
Y371467D01*
X659693D01*
X660086Y371073D01*
Y370286D01*
X659693Y369893D01*
X658512D01*
X659299D02*
X660086Y369106D01*
X661267D02*
X662054D01*
X662448Y369499D01*
Y370286D01*
X662054Y370680D01*
X661267D01*
X660874Y370286D01*
Y369499D01*
X661267Y369106D01*
X663235Y370680D02*
Y369499D01*
X663629Y369106D01*
X664809D01*
Y370680D01*
X665597Y369106D02*
Y370680D01*
X666777D01*
X667171Y370286D01*
Y369106D01*
X669532Y371467D02*
Y369106D01*
X668352D01*
X667958Y369499D01*
Y370286D01*
X668352Y370680D01*
X669532D01*
X671500Y369106D02*
X670713D01*
X670319Y369499D01*
Y370286D01*
X670713Y370680D01*
X671500D01*
X671894Y370286D01*
Y369893D01*
X670319D01*
X674255Y371467D02*
Y369106D01*
X673074D01*
X672681Y369499D01*
Y370286D01*
X673074Y370680D01*
X674255D01*
X658512Y363200D02*
Y365561D01*
X659693D01*
X660086Y365168D01*
Y364381D01*
X659693Y363987D01*
X658512D01*
X659299D02*
X660086Y363200D01*
X661267D02*
X662054D01*
X662448Y363594D01*
Y364381D01*
X662054Y364774D01*
X661267D01*
X660874Y364381D01*
Y363594D01*
X661267Y363200D01*
X663235Y364774D02*
Y363594D01*
X663629Y363200D01*
X664809D01*
Y364774D01*
X665597Y363200D02*
Y364774D01*
X666777D01*
X667171Y364381D01*
Y363200D01*
X669532Y365561D02*
Y363200D01*
X668352D01*
X667958Y363594D01*
Y364381D01*
X668352Y364774D01*
X669532D01*
X671500Y363200D02*
X670713D01*
X670319Y363594D01*
Y364381D01*
X670713Y364774D01*
X671500D01*
X671894Y364381D01*
Y363987D01*
X670319D01*
X674255Y365561D02*
Y363200D01*
X673074D01*
X672681Y363594D01*
Y364381D01*
X673074Y364774D01*
X674255D01*
X634282Y386822D02*
Y389183D01*
X635463D01*
X635856Y388790D01*
Y388003D01*
X635463Y387609D01*
X634282D01*
X637037Y388396D02*
X637824D01*
X638218Y388003D01*
Y386822D01*
X637037D01*
X636644Y387215D01*
X637037Y387609D01*
X638218D01*
X640579Y389183D02*
Y386822D01*
X639398D01*
X639005Y387215D01*
Y388003D01*
X639398Y388396D01*
X640579D01*
X634282Y380917D02*
Y383278D01*
X635463D01*
X635856Y382884D01*
Y382097D01*
X635463Y381704D01*
X634282D01*
X637037Y382491D02*
X637824D01*
X638218Y382097D01*
Y380917D01*
X637037D01*
X636644Y381310D01*
X637037Y381704D01*
X638218D01*
X640579Y383278D02*
Y380917D01*
X639398D01*
X639005Y381310D01*
Y382097D01*
X639398Y382491D01*
X640579D01*
X634282Y375011D02*
Y377372D01*
X635463D01*
X635856Y376979D01*
Y376192D01*
X635463Y375798D01*
X634282D01*
X637037Y376585D02*
X637824D01*
X638218Y376192D01*
Y375011D01*
X637037D01*
X636644Y375405D01*
X637037Y375798D01*
X638218D01*
X640579Y377372D02*
Y375011D01*
X639398D01*
X639005Y375405D01*
Y376192D01*
X639398Y376585D01*
X640579D01*
X634282Y369106D02*
Y371467D01*
X635463D01*
X635856Y371073D01*
Y370286D01*
X635463Y369893D01*
X634282D01*
X637037Y370680D02*
X637824D01*
X638218Y370286D01*
Y369106D01*
X637037D01*
X636644Y369499D01*
X637037Y369893D01*
X638218D01*
X640579Y371467D02*
Y369106D01*
X639398D01*
X639005Y369499D01*
Y370286D01*
X639398Y370680D01*
X640579D01*
X634282Y365561D02*
Y363987D01*
X635069Y363200D01*
X635856Y363987D01*
Y365561D01*
X636644Y363200D02*
X637431D01*
X637037D01*
Y364774D01*
X636644D01*
X639005D02*
X639792D01*
X640186Y364381D01*
Y363200D01*
X639005D01*
X638611Y363594D01*
X639005Y363987D01*
X640186D01*
X586438Y389183D02*
Y386822D01*
X588012D01*
X588799Y388790D02*
X589193Y389183D01*
X589980D01*
X590373Y388790D01*
Y387215D01*
X589980Y386822D01*
X589193D01*
X588799Y387215D01*
Y388790D01*
X591160Y386822D02*
X591948D01*
X591554D01*
Y389183D01*
X591160Y388790D01*
X593128Y386428D02*
X594703D01*
X597064Y388790D02*
X596670Y389183D01*
X595883D01*
X595490Y388790D01*
Y388396D01*
X595883Y388003D01*
X596670D01*
X597064Y387609D01*
Y387215D01*
X596670Y386822D01*
X595883D01*
X595490Y387215D01*
X597851Y389183D02*
X598638D01*
X598245D01*
Y386822D01*
X597851D01*
X598638D01*
X601393Y388790D02*
X601000Y389183D01*
X600213D01*
X599819Y388790D01*
Y387215D01*
X600213Y386822D01*
X601000D01*
X601393Y387215D01*
Y388003D01*
X600606D01*
X604542D02*
X606116D01*
X609265Y389183D02*
Y386822D01*
X610839D01*
X611626Y388790D02*
X612020Y389183D01*
X612807D01*
X613201Y388790D01*
Y387215D01*
X612807Y386822D01*
X612020D01*
X611626Y387215D01*
Y388790D01*
X615168Y386822D02*
Y389183D01*
X613988Y388003D01*
X615562D01*
X616349Y386428D02*
X617923D01*
X620285Y388790D02*
X619891Y389183D01*
X619104D01*
X618711Y388790D01*
Y387215D01*
X619104Y386822D01*
X619891D01*
X620285Y387215D01*
Y388003D01*
X619498D01*
X621072Y386822D02*
Y389183D01*
X622646Y386822D01*
Y389183D01*
X623433D02*
Y386822D01*
X624614D01*
X625008Y387215D01*
Y388790D01*
X624614Y389183D01*
X623433D01*
X586438Y383278D02*
Y380917D01*
X588012D01*
X588799Y382884D02*
X589193Y383278D01*
X589980D01*
X590373Y382884D01*
Y381310D01*
X589980Y380917D01*
X589193D01*
X588799Y381310D01*
Y382884D01*
X591160Y380917D02*
X591948D01*
X591554D01*
Y383278D01*
X591160Y382884D01*
X593128Y380523D02*
X594703D01*
X597064Y382884D02*
X596670Y383278D01*
X595883D01*
X595490Y382884D01*
Y382491D01*
X595883Y382097D01*
X596670D01*
X597064Y381704D01*
Y381310D01*
X596670Y380917D01*
X595883D01*
X595490Y381310D01*
X597851Y383278D02*
X598638D01*
X598245D01*
Y380917D01*
X597851D01*
X598638D01*
X601393Y382884D02*
X601000Y383278D01*
X600213D01*
X599819Y382884D01*
Y381310D01*
X600213Y380917D01*
X601000D01*
X601393Y381310D01*
Y382097D01*
X600606D01*
X604542D02*
X606116D01*
X609265Y383278D02*
Y380917D01*
X610839D01*
X611626Y382884D02*
X612020Y383278D01*
X612807D01*
X613201Y382884D01*
Y381310D01*
X612807Y380917D01*
X612020D01*
X611626Y381310D01*
Y382884D01*
X615168Y380917D02*
Y383278D01*
X613988Y382097D01*
X615562D01*
X616349Y380523D02*
X617923D01*
X620285Y382884D02*
X619891Y383278D01*
X619104D01*
X618711Y382884D01*
Y381310D01*
X619104Y380917D01*
X619891D01*
X620285Y381310D01*
Y382097D01*
X619498D01*
X621072Y380917D02*
Y383278D01*
X622646Y380917D01*
Y383278D01*
X623433D02*
Y380917D01*
X624614D01*
X625008Y381310D01*
Y382884D01*
X624614Y383278D01*
X623433D01*
X586438Y377372D02*
Y375011D01*
X588012D01*
X588799Y376979D02*
X589193Y377372D01*
X589980D01*
X590373Y376979D01*
Y375405D01*
X589980Y375011D01*
X589193D01*
X588799Y375405D01*
Y376979D01*
X591160Y375011D02*
X591948D01*
X591554D01*
Y377372D01*
X591160Y376979D01*
X593128Y374617D02*
X594703D01*
X597064Y376979D02*
X596670Y377372D01*
X595883D01*
X595490Y376979D01*
Y376585D01*
X595883Y376192D01*
X596670D01*
X597064Y375798D01*
Y375405D01*
X596670Y375011D01*
X595883D01*
X595490Y375405D01*
X597851Y377372D02*
X598638D01*
X598245D01*
Y375011D01*
X597851D01*
X598638D01*
X601393Y376979D02*
X601000Y377372D01*
X600213D01*
X599819Y376979D01*
Y375405D01*
X600213Y375011D01*
X601000D01*
X601393Y375405D01*
Y376192D01*
X600606D01*
X604542D02*
X606116D01*
X609265Y377372D02*
Y375011D01*
X610839D01*
X611626Y376979D02*
X612020Y377372D01*
X612807D01*
X613201Y376979D01*
Y375405D01*
X612807Y375011D01*
X612020D01*
X611626Y375405D01*
Y376979D01*
X615168Y375011D02*
Y377372D01*
X613988Y376192D01*
X615562D01*
X616349Y374617D02*
X617923D01*
X620285Y376979D02*
X619891Y377372D01*
X619104D01*
X618711Y376979D01*
Y375405D01*
X619104Y375011D01*
X619891D01*
X620285Y375405D01*
Y376192D01*
X619498D01*
X621072Y375011D02*
Y377372D01*
X622646Y375011D01*
Y377372D01*
X623433D02*
Y375011D01*
X624614D01*
X625008Y375405D01*
Y376979D01*
X624614Y377372D01*
X623433D01*
X586438Y371467D02*
Y369106D01*
X588012D01*
X588799Y371073D02*
X589193Y371467D01*
X589980D01*
X590373Y371073D01*
Y369499D01*
X589980Y369106D01*
X589193D01*
X588799Y369499D01*
Y371073D01*
X591160Y369106D02*
X591948D01*
X591554D01*
Y371467D01*
X591160Y371073D01*
X593128Y368712D02*
X594703D01*
X597064Y371073D02*
X596670Y371467D01*
X595883D01*
X595490Y371073D01*
Y370680D01*
X595883Y370286D01*
X596670D01*
X597064Y369893D01*
Y369499D01*
X596670Y369106D01*
X595883D01*
X595490Y369499D01*
X597851Y371467D02*
X598638D01*
X598245D01*
Y369106D01*
X597851D01*
X598638D01*
X601393Y371073D02*
X601000Y371467D01*
X600213D01*
X599819Y371073D01*
Y369499D01*
X600213Y369106D01*
X601000D01*
X601393Y369499D01*
Y370286D01*
X600606D01*
X604542D02*
X606116D01*
X609265Y371467D02*
Y369106D01*
X610839D01*
X611626Y371073D02*
X612020Y371467D01*
X612807D01*
X613201Y371073D01*
Y369499D01*
X612807Y369106D01*
X612020D01*
X611626Y369499D01*
Y371073D01*
X615168Y369106D02*
Y371467D01*
X613988Y370286D01*
X615562D01*
X616349Y368712D02*
X617923D01*
X620285Y371073D02*
X619891Y371467D01*
X619104D01*
X618711Y371073D01*
Y369499D01*
X619104Y369106D01*
X619891D01*
X620285Y369499D01*
Y370286D01*
X619498D01*
X621072Y369106D02*
Y371467D01*
X622646Y369106D01*
Y371467D01*
X623433D02*
Y369106D01*
X624614D01*
X625008Y369499D01*
Y371073D01*
X624614Y371467D01*
X623433D01*
X586438Y365561D02*
Y363200D01*
X588012D01*
X588799Y365168D02*
X589193Y365561D01*
X589980D01*
X590373Y365168D01*
Y363594D01*
X589980Y363200D01*
X589193D01*
X588799Y363594D01*
Y365168D01*
X591160Y363200D02*
X591948D01*
X591554D01*
Y365561D01*
X591160Y365168D01*
X593128Y362806D02*
X594703D01*
X597064Y365168D02*
X596670Y365561D01*
X595883D01*
X595490Y365168D01*
Y364774D01*
X595883Y364381D01*
X596670D01*
X597064Y363987D01*
Y363594D01*
X596670Y363200D01*
X595883D01*
X595490Y363594D01*
X597851Y365561D02*
X598638D01*
X598245D01*
Y363200D01*
X597851D01*
X598638D01*
X601393Y365168D02*
X601000Y365561D01*
X600213D01*
X599819Y365168D01*
Y363594D01*
X600213Y363200D01*
X601000D01*
X601393Y363594D01*
Y364381D01*
X600606D01*
X604542D02*
X606116D01*
X609265Y365561D02*
Y363200D01*
X610839D01*
X611626Y365168D02*
X612020Y365561D01*
X612807D01*
X613201Y365168D01*
Y363594D01*
X612807Y363200D01*
X612020D01*
X611626Y363594D01*
Y365168D01*
X615168Y363200D02*
Y365561D01*
X613988Y364381D01*
X615562D01*
X616349Y362806D02*
X617923D01*
X620285Y365168D02*
X619891Y365561D01*
X619104D01*
X618711Y365168D01*
Y363594D01*
X619104Y363200D01*
X619891D01*
X620285Y363594D01*
Y364381D01*
X619498D01*
X621072Y363200D02*
Y365561D01*
X622646Y363200D01*
Y365561D01*
X623433D02*
Y363200D01*
X624614D01*
X625008Y363594D01*
Y365168D01*
X624614Y365561D01*
X623433D01*
X556540Y386822D02*
Y389183D01*
X557721D01*
X558114Y388790D01*
Y388003D01*
X557721Y387609D01*
X556540D01*
X557327D02*
X558114Y386822D01*
X559295D02*
X560082D01*
X560476Y387215D01*
Y388003D01*
X560082Y388396D01*
X559295D01*
X558901Y388003D01*
Y387215D01*
X559295Y386822D01*
X561263Y388396D02*
Y387215D01*
X561656Y386822D01*
X562837D01*
Y388396D01*
X563624Y386822D02*
Y388396D01*
X564805D01*
X565199Y388003D01*
Y386822D01*
X567560Y389183D02*
Y386822D01*
X566379D01*
X565986Y387215D01*
Y388003D01*
X566379Y388396D01*
X567560D01*
X556540Y380917D02*
Y383278D01*
X557721D01*
X558114Y382884D01*
Y382097D01*
X557721Y381704D01*
X556540D01*
X557327D02*
X558114Y380917D01*
X559295D02*
X560082D01*
X560476Y381310D01*
Y382097D01*
X560082Y382491D01*
X559295D01*
X558901Y382097D01*
Y381310D01*
X559295Y380917D01*
X561263Y382491D02*
Y381310D01*
X561656Y380917D01*
X562837D01*
Y382491D01*
X563624Y380917D02*
Y382491D01*
X564805D01*
X565199Y382097D01*
Y380917D01*
X567560Y383278D02*
Y380917D01*
X566379D01*
X565986Y381310D01*
Y382097D01*
X566379Y382491D01*
X567560D01*
X556540Y375011D02*
Y377372D01*
X557721D01*
X558114Y376979D01*
Y376192D01*
X557721Y375798D01*
X556540D01*
X557327D02*
X558114Y375011D01*
X559295D02*
X560082D01*
X560476Y375405D01*
Y376192D01*
X560082Y376585D01*
X559295D01*
X558901Y376192D01*
Y375405D01*
X559295Y375011D01*
X561263Y376585D02*
Y375405D01*
X561656Y375011D01*
X562837D01*
Y376585D01*
X563624Y375011D02*
Y376585D01*
X564805D01*
X565199Y376192D01*
Y375011D01*
X567560Y377372D02*
Y375011D01*
X566379D01*
X565986Y375405D01*
Y376192D01*
X566379Y376585D01*
X567560D01*
X556540Y369106D02*
Y371467D01*
X557721D01*
X558114Y371073D01*
Y370286D01*
X557721Y369893D01*
X556540D01*
X557327D02*
X558114Y369106D01*
X559295D02*
X560082D01*
X560476Y369499D01*
Y370286D01*
X560082Y370680D01*
X559295D01*
X558901Y370286D01*
Y369499D01*
X559295Y369106D01*
X561263Y370680D02*
Y369499D01*
X561656Y369106D01*
X562837D01*
Y370680D01*
X563624Y369106D02*
Y370680D01*
X564805D01*
X565199Y370286D01*
Y369106D01*
X567560Y371467D02*
Y369106D01*
X566379D01*
X565986Y369499D01*
Y370286D01*
X566379Y370680D01*
X567560D01*
X556540Y363200D02*
Y365561D01*
X557721D01*
X558114Y365168D01*
Y364381D01*
X557721Y363987D01*
X556540D01*
X557327D02*
X558114Y363200D01*
X559295D02*
X560082D01*
X560476Y363594D01*
Y364381D01*
X560082Y364774D01*
X559295D01*
X558901Y364381D01*
Y363594D01*
X559295Y363200D01*
X561263Y364774D02*
Y363594D01*
X561656Y363200D01*
X562837D01*
Y364774D01*
X563624Y363200D02*
Y364774D01*
X564805D01*
X565199Y364381D01*
Y363200D01*
X567560Y365561D02*
Y363200D01*
X566379D01*
X565986Y363594D01*
Y364381D01*
X566379Y364774D01*
X567560D01*
X535616Y386822D02*
Y389183D01*
X536797D01*
X537190Y388790D01*
Y388003D01*
X536797Y387609D01*
X535616D01*
X537977Y389183D02*
X539551D01*
X538764D01*
Y386822D01*
X540339Y389183D02*
Y386822D01*
Y388003D01*
X541913D01*
Y389183D01*
Y386822D01*
X535616Y380917D02*
Y383278D01*
X536797D01*
X537190Y382884D01*
Y382097D01*
X536797Y381704D01*
X535616D01*
X537977Y383278D02*
X539551D01*
X538764D01*
Y380917D01*
X540339Y383278D02*
Y380917D01*
Y382097D01*
X541913D01*
Y383278D01*
Y380917D01*
X535616Y375011D02*
Y377372D01*
X536797D01*
X537190Y376979D01*
Y376192D01*
X536797Y375798D01*
X535616D01*
X537977Y377372D02*
X539551D01*
X538764D01*
Y375011D01*
X540339Y377372D02*
Y375011D01*
Y376192D01*
X541913D01*
Y377372D01*
Y375011D01*
X535616Y369106D02*
Y371467D01*
X536797D01*
X537190Y371073D01*
Y370286D01*
X536797Y369893D01*
X535616D01*
X537977Y371467D02*
X539551D01*
X538764D01*
Y369106D01*
X540339Y371467D02*
Y369106D01*
Y370286D01*
X541913D01*
Y371467D01*
Y369106D01*
X535616Y363200D02*
Y365561D01*
X536797D01*
X537190Y365168D01*
Y364381D01*
X536797Y363987D01*
X535616D01*
X537977Y365561D02*
X539551D01*
X538764D01*
Y363200D01*
X540339Y365561D02*
Y363200D01*
Y364381D01*
X541913D01*
Y365561D01*
Y363200D01*
X489724Y386822D02*
X490511D01*
X490117D01*
Y389183D01*
X489724Y388790D01*
X491691Y386822D02*
Y387215D01*
X492085D01*
Y386822D01*
X491691D01*
X493659Y388790D02*
X494053Y389183D01*
X494840D01*
X495234Y388790D01*
Y387215D01*
X494840Y386822D01*
X494053D01*
X493659Y387215D01*
Y388790D01*
X496021D02*
X496414Y389183D01*
X497201D01*
X497595Y388790D01*
Y387215D01*
X497201Y386822D01*
X496414D01*
X496021Y387215D01*
Y388790D01*
X498382D02*
X498776Y389183D01*
X499563D01*
X499957Y388790D01*
Y387215D01*
X499563Y386822D01*
X498776D01*
X498382Y387215D01*
Y388790D01*
X500744Y386822D02*
Y388396D01*
X501137D01*
X501531Y388003D01*
Y386822D01*
Y388003D01*
X501924Y388396D01*
X502318Y388003D01*
Y386822D01*
X503105D02*
Y388396D01*
X503499D01*
X503892Y388003D01*
Y386822D01*
Y388003D01*
X504286Y388396D01*
X504679Y388003D01*
Y386822D01*
X508615D02*
X507828Y387609D01*
Y388396D01*
X508615Y389183D01*
X509796Y388790D02*
X510189Y389183D01*
X510977D01*
X511370Y388790D01*
Y388396D01*
X510977Y388003D01*
X510583D01*
X510977D01*
X511370Y387609D01*
Y387215D01*
X510977Y386822D01*
X510189D01*
X509796Y387215D01*
X512157D02*
X512551Y386822D01*
X513338D01*
X513731Y387215D01*
Y388790D01*
X513338Y389183D01*
X512551D01*
X512157Y388790D01*
Y388396D01*
X512551Y388003D01*
X513731D01*
X514519Y386822D02*
Y387215D01*
X514912D01*
Y386822D01*
X514519D01*
X516487Y388790D02*
X516880Y389183D01*
X517667D01*
X518061Y388790D01*
Y388396D01*
X517667Y388003D01*
X517274D01*
X517667D01*
X518061Y387609D01*
Y387215D01*
X517667Y386822D01*
X516880D01*
X516487Y387215D01*
X518848Y389183D02*
X520422D01*
Y388790D01*
X518848Y387215D01*
Y386822D01*
X521209D02*
Y388396D01*
X521603D01*
X521997Y388003D01*
Y386822D01*
Y388003D01*
X522390Y388396D01*
X522784Y388003D01*
Y386822D01*
X523571D02*
X524358D01*
X523964D01*
Y388396D01*
X523571D01*
X525539Y386822D02*
X526326D01*
X525932D01*
Y389183D01*
X525539D01*
X527507Y386822D02*
X528294Y387609D01*
Y388396D01*
X527507Y389183D01*
X489724Y380917D02*
X490511D01*
X490117D01*
Y383278D01*
X489724Y382884D01*
X491691Y380917D02*
Y381310D01*
X492085D01*
Y380917D01*
X491691D01*
X493659Y383278D02*
X495234D01*
Y382884D01*
X493659Y381310D01*
Y380917D01*
X496021Y382884D02*
X496414Y383278D01*
X497201D01*
X497595Y382884D01*
Y381310D01*
X497201Y380917D01*
X496414D01*
X496021Y381310D01*
Y382884D01*
X498382D02*
X498776Y383278D01*
X499563D01*
X499957Y382884D01*
Y381310D01*
X499563Y380917D01*
X498776D01*
X498382Y381310D01*
Y382884D01*
X500744Y380917D02*
Y382491D01*
X501137D01*
X501531Y382097D01*
Y380917D01*
Y382097D01*
X501924Y382491D01*
X502318Y382097D01*
Y380917D01*
X503105D02*
Y382491D01*
X503499D01*
X503892Y382097D01*
Y380917D01*
Y382097D01*
X504286Y382491D01*
X504679Y382097D01*
Y380917D01*
X508615D02*
X507828Y381704D01*
Y382491D01*
X508615Y383278D01*
X511370D02*
X510583Y382884D01*
X509796Y382097D01*
Y381310D01*
X510189Y380917D01*
X510977D01*
X511370Y381310D01*
Y381704D01*
X510977Y382097D01*
X509796D01*
X513731Y383278D02*
X512944Y382884D01*
X512157Y382097D01*
Y381310D01*
X512551Y380917D01*
X513338D01*
X513731Y381310D01*
Y381704D01*
X513338Y382097D01*
X512157D01*
X514519Y380917D02*
Y381310D01*
X514912D01*
Y380917D01*
X514519D01*
X516487Y381310D02*
X516880Y380917D01*
X517667D01*
X518061Y381310D01*
Y382884D01*
X517667Y383278D01*
X516880D01*
X516487Y382884D01*
Y382491D01*
X516880Y382097D01*
X518061D01*
X518848Y382884D02*
X519242Y383278D01*
X520029D01*
X520422Y382884D01*
Y382491D01*
X520029Y382097D01*
X519635D01*
X520029D01*
X520422Y381704D01*
Y381310D01*
X520029Y380917D01*
X519242D01*
X518848Y381310D01*
X521209Y380917D02*
Y382491D01*
X521603D01*
X521997Y382097D01*
Y380917D01*
Y382097D01*
X522390Y382491D01*
X522784Y382097D01*
Y380917D01*
X523571D02*
X524358D01*
X523964D01*
Y382491D01*
X523571D01*
X525539Y380917D02*
X526326D01*
X525932D01*
Y383278D01*
X525539D01*
X527507Y380917D02*
X528294Y381704D01*
Y382491D01*
X527507Y383278D01*
X489724Y376979D02*
X490117Y377372D01*
X490904D01*
X491298Y376979D01*
Y376585D01*
X490904Y376192D01*
X490511D01*
X490904D01*
X491298Y375798D01*
Y375405D01*
X490904Y375011D01*
X490117D01*
X489724Y375405D01*
X492085Y375011D02*
Y375405D01*
X492479D01*
Y375011D01*
X492085D01*
X495234D02*
Y377372D01*
X494053Y376192D01*
X495627D01*
X496414Y376979D02*
X496808Y377372D01*
X497595D01*
X497989Y376979D01*
Y375405D01*
X497595Y375011D01*
X496808D01*
X496414Y375405D01*
Y376979D01*
X498776D02*
X499169Y377372D01*
X499957D01*
X500350Y376979D01*
Y375405D01*
X499957Y375011D01*
X499169D01*
X498776Y375405D01*
Y376979D01*
X501137Y375011D02*
Y376585D01*
X501531D01*
X501924Y376192D01*
Y375011D01*
Y376192D01*
X502318Y376585D01*
X502711Y376192D01*
Y375011D01*
X503499D02*
Y376585D01*
X503892D01*
X504286Y376192D01*
Y375011D01*
Y376192D01*
X504679Y376585D01*
X505073Y376192D01*
Y375011D01*
X509009D02*
X508221Y375798D01*
Y376585D01*
X509009Y377372D01*
X510189Y375011D02*
X510977D01*
X510583D01*
Y377372D01*
X510189Y376979D01*
X512157D02*
X512551Y377372D01*
X513338D01*
X513731Y376979D01*
Y376585D01*
X513338Y376192D01*
X512944D01*
X513338D01*
X513731Y375798D01*
Y375405D01*
X513338Y375011D01*
X512551D01*
X512157Y375405D01*
X514519Y376979D02*
X514912Y377372D01*
X515699D01*
X516093Y376979D01*
Y376585D01*
X515699Y376192D01*
X515306D01*
X515699D01*
X516093Y375798D01*
Y375405D01*
X515699Y375011D01*
X514912D01*
X514519Y375405D01*
X516880Y375011D02*
Y375405D01*
X517274D01*
Y375011D01*
X516880D01*
X518848Y376979D02*
X519242Y377372D01*
X520029D01*
X520422Y376979D01*
Y376585D01*
X520029Y376192D01*
X520422Y375798D01*
Y375405D01*
X520029Y375011D01*
X519242D01*
X518848Y375405D01*
Y375798D01*
X519242Y376192D01*
X518848Y376585D01*
Y376979D01*
X519242Y376192D02*
X520029D01*
X522784Y377372D02*
X521997Y376979D01*
X521209Y376192D01*
Y375405D01*
X521603Y375011D01*
X522390D01*
X522784Y375405D01*
Y375798D01*
X522390Y376192D01*
X521209D01*
X523571Y375011D02*
Y376585D01*
X523964D01*
X524358Y376192D01*
Y375011D01*
Y376192D01*
X524752Y376585D01*
X525145Y376192D01*
Y375011D01*
X525932D02*
X526719D01*
X526326D01*
Y376585D01*
X525932D01*
X527900Y375011D02*
X528687D01*
X528294D01*
Y377372D01*
X527900D01*
X529868Y375011D02*
X530655Y375798D01*
Y376585D01*
X529868Y377372D01*
X489724Y369106D02*
X490511D01*
X490117D01*
Y371467D01*
X489724Y371073D01*
X491691Y369106D02*
Y369499D01*
X492085D01*
Y369106D01*
X491691D01*
X493659D02*
X494446D01*
X494053D01*
Y371467D01*
X493659Y371073D01*
X496808Y369106D02*
Y371467D01*
X495627Y370286D01*
X497201D01*
X497989Y371073D02*
X498382Y371467D01*
X499169D01*
X499563Y371073D01*
Y370680D01*
X499169Y370286D01*
X498776D01*
X499169D01*
X499563Y369893D01*
Y369499D01*
X499169Y369106D01*
X498382D01*
X497989Y369499D01*
X500350Y369106D02*
Y370680D01*
X500744D01*
X501137Y370286D01*
Y369106D01*
Y370286D01*
X501531Y370680D01*
X501924Y370286D01*
Y369106D01*
X502711D02*
Y370680D01*
X503105D01*
X503499Y370286D01*
Y369106D01*
Y370286D01*
X503892Y370680D01*
X504286Y370286D01*
Y369106D01*
X508221D02*
X507434Y369893D01*
Y370680D01*
X508221Y371467D01*
X510583Y369106D02*
Y371467D01*
X509402Y370286D01*
X510977D01*
X513338Y371467D02*
X511764D01*
Y370286D01*
X512551Y370680D01*
X512944D01*
X513338Y370286D01*
Y369499D01*
X512944Y369106D01*
X512157D01*
X511764Y369499D01*
X514125Y369106D02*
Y369499D01*
X514519D01*
Y369106D01*
X514125D01*
X516093Y371073D02*
X516487Y371467D01*
X517274D01*
X517667Y371073D01*
Y369499D01*
X517274Y369106D01*
X516487D01*
X516093Y369499D01*
Y371073D01*
X518454D02*
X518848Y371467D01*
X519635D01*
X520029Y371073D01*
Y369499D01*
X519635Y369106D01*
X518848D01*
X518454Y369499D01*
Y371073D01*
X520816Y369106D02*
Y370680D01*
X521209D01*
X521603Y370286D01*
Y369106D01*
Y370286D01*
X521996Y370680D01*
X522390Y370286D01*
Y369106D01*
X523177D02*
X523964D01*
X523571D01*
Y370680D01*
X523177D01*
X525145Y369106D02*
X525932D01*
X525539D01*
Y371467D01*
X525145D01*
X527113Y369106D02*
X527900Y369893D01*
Y370680D01*
X527113Y371467D01*
X489724Y365168D02*
X490117Y365561D01*
X490904D01*
X491298Y365168D01*
Y363594D01*
X490904Y363200D01*
X490117D01*
X489724Y363594D01*
Y365168D01*
X492085Y363200D02*
Y363594D01*
X492479D01*
Y363200D01*
X492085D01*
X495627D02*
X494053D01*
X495627Y364774D01*
Y365168D01*
X495234Y365561D01*
X494446D01*
X494053Y365168D01*
X497989Y365561D02*
X496414D01*
Y364381D01*
X497201Y364774D01*
X497595D01*
X497989Y364381D01*
Y363594D01*
X497595Y363200D01*
X496808D01*
X496414Y363594D01*
X498776Y365168D02*
X499169Y365561D01*
X499957D01*
X500350Y365168D01*
Y363594D01*
X499957Y363200D01*
X499169D01*
X498776Y363594D01*
Y365168D01*
X501137Y363200D02*
Y364774D01*
X501531D01*
X501924Y364381D01*
Y363200D01*
Y364381D01*
X502318Y364774D01*
X502711Y364381D01*
Y363200D01*
X503499D02*
Y364774D01*
X503892D01*
X504286Y364381D01*
Y363200D01*
Y364381D01*
X504679Y364774D01*
X505073Y364381D01*
Y363200D01*
X509009D02*
X508221Y363987D01*
Y364774D01*
X509009Y365561D01*
X510189Y363594D02*
X510583Y363200D01*
X511370D01*
X511764Y363594D01*
Y365168D01*
X511370Y365561D01*
X510583D01*
X510189Y365168D01*
Y364774D01*
X510583Y364381D01*
X511764D01*
X512551Y363200D02*
Y363594D01*
X512944D01*
Y363200D01*
X512551D01*
X514519Y365168D02*
X514912Y365561D01*
X515699D01*
X516093Y365168D01*
Y364774D01*
X515699Y364381D01*
X516093Y363987D01*
Y363594D01*
X515699Y363200D01*
X514912D01*
X514519Y363594D01*
Y363987D01*
X514912Y364381D01*
X514519Y364774D01*
Y365168D01*
X514912Y364381D02*
X515699D01*
X518061Y363200D02*
Y365561D01*
X516880Y364381D01*
X518454D01*
X519242Y363200D02*
Y364774D01*
X519635D01*
X520029Y364381D01*
Y363200D01*
Y364381D01*
X520422Y364774D01*
X520816Y364381D01*
Y363200D01*
X521603D02*
X522390D01*
X521997D01*
Y364774D01*
X521603D01*
X523571Y363200D02*
X524358D01*
X523964D01*
Y365561D01*
X523571D01*
X525539Y363200D02*
X526326Y363987D01*
Y364774D01*
X525539Y365561D01*
X466659Y357295D02*
Y359656D01*
X465478Y358475D01*
X467052D01*
X469020Y357295D02*
Y359656D01*
X467839Y358475D01*
X469414D01*
X470201Y359262D02*
X470594Y359656D01*
X471382D01*
X471775Y359262D01*
Y358869D01*
X471382Y358475D01*
X470988D01*
X471382D01*
X471775Y358082D01*
Y357688D01*
X471382Y357295D01*
X470594D01*
X470201Y357688D01*
X474924Y359656D02*
X476498D01*
X475711D01*
Y357295D01*
X477679D02*
X478466D01*
X478859Y357688D01*
Y358475D01*
X478466Y358869D01*
X477679D01*
X477285Y358475D01*
Y357688D01*
X477679Y357295D01*
X480040Y359262D02*
Y358869D01*
X479646D01*
X480434D01*
X480040D01*
Y357688D01*
X480434Y357295D01*
X482008Y358869D02*
X482795D01*
X483189Y358475D01*
Y357295D01*
X482008D01*
X481614Y357688D01*
X482008Y358082D01*
X483189D01*
X483976Y357295D02*
X484763D01*
X484369D01*
Y359656D01*
X483976D01*
X467052Y386822D02*
X465478D01*
X467052Y388396D01*
Y388790D01*
X466659Y389183D01*
X465871D01*
X465478Y388790D01*
X467052Y380917D02*
X465478D01*
X467052Y382491D01*
Y382884D01*
X466659Y383278D01*
X465871D01*
X465478Y382884D01*
X466659Y375011D02*
Y377372D01*
X465478Y376192D01*
X467052D01*
X465478Y369106D02*
X466265D01*
X465871D01*
Y371467D01*
X465478Y371073D01*
X469020Y369106D02*
X467446D01*
X469020Y370680D01*
Y371073D01*
X468626Y371467D01*
X467839D01*
X467446Y371073D01*
X466659Y363200D02*
Y365561D01*
X465478Y364381D01*
X467052D01*
X469414Y363200D02*
X467839D01*
X469414Y364774D01*
Y365168D01*
X469020Y365561D01*
X468233D01*
X467839Y365168D01*
X470201D02*
X470594Y365561D01*
X471382D01*
X471775Y365168D01*
Y364774D01*
X471382Y364381D01*
X470988D01*
X471382D01*
X471775Y363987D01*
Y363594D01*
X471382Y363200D01*
X470594D01*
X470201Y363594D01*
D111*
X441010Y390956D02*
X865399D01*
X441010Y361428D02*
X865399D01*
X441010Y355523D02*
X865399D01*
Y396861D01*
X441010D02*
X865399D01*
X441010Y355523D02*
Y396861D01*
X810115Y355523D02*
Y396861D01*
X756603Y355523D02*
Y396861D01*
X721983Y355523D02*
Y396861D01*
X687111Y355523D02*
Y396861D01*
X656741Y355523D02*
Y396861D01*
X632510Y355523D02*
Y396861D01*
X584666Y355523D02*
Y396861D01*
X554768Y355523D02*
Y396861D01*
X533844Y355523D02*
Y396861D01*
X487952Y355523D02*
Y396861D01*
X463706Y355523D02*
Y396861D01*
D112*
X811887Y395561D02*
Y392727D01*
Y394144D01*
X813776D01*
Y395561D01*
Y392727D01*
X815193D02*
X816137D01*
X816610Y393200D01*
Y394144D01*
X816137Y394617D01*
X815193D01*
X814721Y394144D01*
Y393200D01*
X815193Y392727D01*
X817554D02*
X818499D01*
X818027D01*
Y395561D01*
X817554D01*
X821332Y392727D02*
X820388D01*
X819916Y393200D01*
Y394144D01*
X820388Y394617D01*
X821332D01*
X821805Y394144D01*
Y393672D01*
X819916D01*
X825583Y395561D02*
X827472D01*
X826528D01*
Y392727D01*
X828889D02*
X829834D01*
X830306Y393200D01*
Y394144D01*
X829834Y394617D01*
X828889D01*
X828417Y394144D01*
Y393200D01*
X828889Y392727D01*
X831250D02*
X832195D01*
X831723D01*
Y395561D01*
X831250D01*
X835029Y392727D02*
X834084D01*
X833612Y393200D01*
Y394144D01*
X834084Y394617D01*
X835029D01*
X835501Y394144D01*
Y393672D01*
X833612D01*
X836446Y394617D02*
Y392727D01*
Y393672D01*
X836918Y394144D01*
X837390Y394617D01*
X837862D01*
X839752D02*
X840696D01*
X841168Y394144D01*
Y392727D01*
X839752D01*
X839279Y393200D01*
X839752Y393672D01*
X841168D01*
X842113Y392727D02*
Y394617D01*
X843530D01*
X844002Y394144D01*
Y392727D01*
X846836Y394617D02*
X845419D01*
X844947Y394144D01*
Y393200D01*
X845419Y392727D01*
X846836D01*
X849197D02*
X848253D01*
X847781Y393200D01*
Y394144D01*
X848253Y394617D01*
X849197D01*
X849670Y394144D01*
Y393672D01*
X847781D01*
X854393Y392727D02*
X853448Y393672D01*
Y394617D01*
X854393Y395561D01*
X855809Y394144D02*
X857699D01*
X858643Y392727D02*
X859588Y393672D01*
Y394617D01*
X858643Y395561D01*
X758375D02*
Y392727D01*
Y394144D01*
X760264D01*
Y395561D01*
Y392727D01*
X761681D02*
X762625D01*
X763098Y393200D01*
Y394144D01*
X762625Y394617D01*
X761681D01*
X761208Y394144D01*
Y393200D01*
X761681Y392727D01*
X764042D02*
X764987D01*
X764514D01*
Y395561D01*
X764042D01*
X767821Y392727D02*
X766876D01*
X766404Y393200D01*
Y394144D01*
X766876Y394617D01*
X767821D01*
X768293Y394144D01*
Y393672D01*
X766404D01*
X772071Y395561D02*
X773960D01*
X773016D01*
Y392727D01*
X775377D02*
X776322D01*
X776794Y393200D01*
Y394144D01*
X776322Y394617D01*
X775377D01*
X774905Y394144D01*
Y393200D01*
X775377Y392727D01*
X777739D02*
X778683D01*
X778211D01*
Y395561D01*
X777739D01*
X781517Y392727D02*
X780572D01*
X780100Y393200D01*
Y394144D01*
X780572Y394617D01*
X781517D01*
X781989Y394144D01*
Y393672D01*
X780100D01*
X782934Y394617D02*
Y392727D01*
Y393672D01*
X783406Y394144D01*
X783878Y394617D01*
X784351D01*
X786240D02*
X787184D01*
X787657Y394144D01*
Y392727D01*
X786240D01*
X785768Y393200D01*
X786240Y393672D01*
X787657D01*
X788601Y392727D02*
Y394617D01*
X790018D01*
X790490Y394144D01*
Y392727D01*
X793324Y394617D02*
X791907D01*
X791435Y394144D01*
Y393200D01*
X791907Y392727D01*
X793324D01*
X795685D02*
X794741D01*
X794269Y393200D01*
Y394144D01*
X794741Y394617D01*
X795685D01*
X796158Y394144D01*
Y393672D01*
X794269D01*
X800881Y392727D02*
X799936Y393672D01*
Y394617D01*
X800881Y395561D01*
X802297Y394144D02*
X804187D01*
X803242Y395089D02*
Y393200D01*
X805131Y392727D02*
X806076Y393672D01*
Y394617D01*
X805131Y395561D01*
X723754D02*
Y392727D01*
X725171D01*
X725643Y393200D01*
Y395089D01*
X725171Y395561D01*
X723754D01*
X728005Y392727D02*
X727060D01*
X726588Y393200D01*
Y394144D01*
X727060Y394617D01*
X728005D01*
X728477Y394144D01*
Y393672D01*
X726588D01*
X729422Y392727D02*
X730839D01*
X731311Y393200D01*
X730839Y393672D01*
X729894D01*
X729422Y394144D01*
X729894Y394617D01*
X731311D01*
X734145D02*
X732728D01*
X732256Y394144D01*
Y393200D01*
X732728Y392727D01*
X734145D01*
X735089Y394617D02*
Y392727D01*
Y393672D01*
X735562Y394144D01*
X736034Y394617D01*
X736506D01*
X737923Y392727D02*
X738868D01*
X738395D01*
Y394617D01*
X737923D01*
X740284Y391783D02*
Y394617D01*
X741701D01*
X742173Y394144D01*
Y393200D01*
X741701Y392727D01*
X740284D01*
X743590Y395089D02*
Y394617D01*
X743118D01*
X744063D01*
X743590D01*
Y393200D01*
X744063Y392727D01*
X745479D02*
X746424D01*
X745952D01*
Y394617D01*
X745479D01*
X748313Y392727D02*
X749258D01*
X749730Y393200D01*
Y394144D01*
X749258Y394617D01*
X748313D01*
X747841Y394144D01*
Y393200D01*
X748313Y392727D01*
X750675D02*
Y394617D01*
X752092D01*
X752564Y394144D01*
Y392727D01*
X688882Y395561D02*
X690771D01*
X689827D01*
Y392727D01*
X693133D02*
X692188D01*
X691716Y393200D01*
Y394144D01*
X692188Y394617D01*
X693133D01*
X693605Y394144D01*
Y393672D01*
X691716D01*
X694550Y392727D02*
Y394617D01*
X695022D01*
X695494Y394144D01*
Y392727D01*
Y394144D01*
X695966Y394617D01*
X696439Y394144D01*
Y392727D01*
X697383Y391783D02*
Y394617D01*
X698800D01*
X699272Y394144D01*
Y393200D01*
X698800Y392727D01*
X697383D01*
X700217D02*
X701162D01*
X700689D01*
Y395561D01*
X700217D01*
X703051Y394617D02*
X703995D01*
X704468Y394144D01*
Y392727D01*
X703051D01*
X702578Y393200D01*
X703051Y393672D01*
X704468D01*
X705885Y395089D02*
Y394617D01*
X705412D01*
X706357D01*
X705885D01*
Y393200D01*
X706357Y392727D01*
X709191D02*
X708246D01*
X707774Y393200D01*
Y394144D01*
X708246Y394617D01*
X709191D01*
X709663Y394144D01*
Y393672D01*
X707774D01*
X658512Y392727D02*
Y395561D01*
X659929D01*
X660401Y395089D01*
Y394144D01*
X659929Y393672D01*
X658512D01*
X661818Y394617D02*
X662763D01*
X663235Y394144D01*
Y392727D01*
X661818D01*
X661346Y393200D01*
X661818Y393672D01*
X663235D01*
X666069Y395561D02*
Y392727D01*
X664652D01*
X664180Y393200D01*
Y394144D01*
X664652Y394617D01*
X666069D01*
X671736Y395089D02*
X671264Y395561D01*
X670319D01*
X669847Y395089D01*
Y394617D01*
X670319Y394144D01*
X671264D01*
X671736Y393672D01*
Y393200D01*
X671264Y392727D01*
X670319D01*
X669847Y393200D01*
X672681Y395561D02*
Y392727D01*
Y394144D01*
X673153Y394617D01*
X674098D01*
X674570Y394144D01*
Y392727D01*
X675987Y394617D02*
X676931D01*
X677404Y394144D01*
Y392727D01*
X675987D01*
X675515Y393200D01*
X675987Y393672D01*
X677404D01*
X678348Y391783D02*
Y394617D01*
X679765D01*
X680237Y394144D01*
Y393200D01*
X679765Y392727D01*
X678348D01*
X682599D02*
X681654D01*
X681182Y393200D01*
Y394144D01*
X681654Y394617D01*
X682599D01*
X683071Y394144D01*
Y393672D01*
X681182D01*
X634282Y395561D02*
Y393672D01*
X635227Y392727D01*
X636171Y393672D01*
Y395561D01*
X637116Y392727D02*
X638060D01*
X637588D01*
Y394617D01*
X637116D01*
X639950D02*
X640894D01*
X641366Y394144D01*
Y392727D01*
X639950D01*
X639477Y393200D01*
X639950Y393672D01*
X641366D01*
X642311Y392727D02*
X644200Y394617D01*
X645145Y392727D02*
Y395561D01*
X646561D01*
X647034Y395089D01*
Y394144D01*
X646561Y393672D01*
X645145D01*
X648451Y394617D02*
X649395D01*
X649867Y394144D01*
Y392727D01*
X648451D01*
X647978Y393200D01*
X648451Y393672D01*
X649867D01*
X652701Y395561D02*
Y392727D01*
X651284D01*
X650812Y393200D01*
Y394144D01*
X651284Y394617D01*
X652701D01*
X586438Y395561D02*
Y392727D01*
X587854D01*
X588327Y393200D01*
Y395089D01*
X587854Y395561D01*
X586438D01*
X589271Y394617D02*
Y392727D01*
Y393672D01*
X589744Y394144D01*
X590216Y394617D01*
X590688D01*
X592105Y392727D02*
X593050D01*
X592577D01*
Y394617D01*
X592105D01*
X594466Y392727D02*
X595411D01*
X594939D01*
Y395561D01*
X594466D01*
X596828Y392727D02*
X597772D01*
X597300D01*
Y395561D01*
X596828D01*
X602023D02*
Y392727D01*
X603912D01*
X605329Y394617D02*
X606274D01*
X606746Y394144D01*
Y392727D01*
X605329D01*
X604857Y393200D01*
X605329Y393672D01*
X606746D01*
X607690Y394617D02*
Y393200D01*
X608163Y392727D01*
X609580D01*
Y392255D01*
X609107Y391783D01*
X608635D01*
X609580Y392727D02*
Y394617D01*
X611941Y392727D02*
X610996D01*
X610524Y393200D01*
Y394144D01*
X610996Y394617D01*
X611941D01*
X612413Y394144D01*
Y393672D01*
X610524D01*
X613358Y394617D02*
Y392727D01*
Y393672D01*
X613830Y394144D01*
X614302Y394617D01*
X614775D01*
X619025Y392727D02*
Y395561D01*
X620442D01*
X620915Y395089D01*
Y394144D01*
X620442Y393672D01*
X619025D01*
X622331Y394617D02*
X623276D01*
X623748Y394144D01*
Y392727D01*
X622331D01*
X621859Y393200D01*
X622331Y393672D01*
X623748D01*
X624693Y392727D02*
X625637D01*
X625165D01*
Y394617D01*
X624693D01*
X627054D02*
Y392727D01*
Y393672D01*
X627527Y394144D01*
X627999Y394617D01*
X628471D01*
X556540Y395561D02*
Y392727D01*
Y394144D01*
X558429D01*
Y395561D01*
Y392727D01*
X559846D02*
X560790D01*
X561263Y393200D01*
Y394144D01*
X560790Y394617D01*
X559846D01*
X559374Y394144D01*
Y393200D01*
X559846Y392727D01*
X562207D02*
X563152D01*
X562680D01*
Y395561D01*
X562207D01*
X565986Y392727D02*
X565041D01*
X564569Y393200D01*
Y394144D01*
X565041Y394617D01*
X565986D01*
X566458Y394144D01*
Y393672D01*
X564569D01*
X570236Y395561D02*
X572125D01*
X571181D01*
Y392727D01*
X573070Y394617D02*
Y393200D01*
X573542Y392727D01*
X574959D01*
Y392255D01*
X574487Y391783D01*
X574015D01*
X574959Y392727D02*
Y394617D01*
X575904Y391783D02*
Y394617D01*
X577321D01*
X577793Y394144D01*
Y393200D01*
X577321Y392727D01*
X575904D01*
X580154D02*
X579210D01*
X578737Y393200D01*
Y394144D01*
X579210Y394617D01*
X580154D01*
X580627Y394144D01*
Y393672D01*
X578737D01*
X535616Y392727D02*
Y395561D01*
X537033D01*
X537505Y395089D01*
Y394144D01*
X537033Y393672D01*
X535616D01*
X538449Y392727D02*
X539394D01*
X538922D01*
Y395561D01*
X538449D01*
X541283Y394617D02*
X542228D01*
X542700Y394144D01*
Y392727D01*
X541283D01*
X540811Y393200D01*
X541283Y393672D01*
X542700D01*
X544117Y395089D02*
Y394617D01*
X543645D01*
X544589D01*
X544117D01*
Y393200D01*
X544589Y392727D01*
X547423D02*
X546478D01*
X546006Y393200D01*
Y394144D01*
X546478Y394617D01*
X547423D01*
X547895Y394144D01*
Y393672D01*
X546006D01*
X550729Y395561D02*
Y392727D01*
X549312D01*
X548840Y393200D01*
Y394144D01*
X549312Y394617D01*
X550729D01*
X489724Y395561D02*
Y392727D01*
Y394144D01*
X491613D01*
Y395561D01*
Y392727D01*
X493030D02*
X493974D01*
X494446Y393200D01*
Y394144D01*
X493974Y394617D01*
X493030D01*
X492557Y394144D01*
Y393200D01*
X493030Y392727D01*
X495391D02*
X496336D01*
X495863D01*
Y395561D01*
X495391D01*
X499169Y392727D02*
X498225D01*
X497752Y393200D01*
Y394144D01*
X498225Y394617D01*
X499169D01*
X499642Y394144D01*
Y393672D01*
X497752D01*
X505309Y395089D02*
X504837Y395561D01*
X503892D01*
X503420Y395089D01*
Y394617D01*
X503892Y394144D01*
X504837D01*
X505309Y393672D01*
Y393200D01*
X504837Y392727D01*
X503892D01*
X503420Y393200D01*
X506254Y392727D02*
X507198D01*
X506726D01*
Y394617D01*
X506254D01*
X508615D02*
X510504D01*
X508615Y392727D01*
X510504D01*
X512866D02*
X511921D01*
X511449Y393200D01*
Y394144D01*
X511921Y394617D01*
X512866D01*
X513338Y394144D01*
Y393672D01*
X511449D01*
X467367Y395089D02*
X466895Y395561D01*
X465950D01*
X465478Y395089D01*
Y393200D01*
X465950Y392727D01*
X466895D01*
X467367Y393200D01*
X468784Y392727D02*
X469728D01*
X470201Y393200D01*
Y394144D01*
X469728Y394617D01*
X468784D01*
X468312Y394144D01*
Y393200D01*
X468784Y392727D01*
X471145Y394617D02*
Y393200D01*
X471618Y392727D01*
X473034D01*
Y394617D01*
X473979Y392727D02*
Y394617D01*
X475396D01*
X475868Y394144D01*
Y392727D01*
X477285Y395089D02*
Y394617D01*
X476813D01*
X477757D01*
X477285D01*
Y393200D01*
X477757Y392727D01*
X446443Y395089D02*
X445971Y395561D01*
X445026D01*
X444554Y395089D01*
Y394617D01*
X445026Y394144D01*
X445971D01*
X446443Y393672D01*
Y393200D01*
X445971Y392727D01*
X445026D01*
X444554Y393200D01*
X447387Y394617D02*
Y393200D01*
X447860Y392727D01*
X449277D01*
Y392255D01*
X448804Y391783D01*
X448332D01*
X449277Y392727D02*
Y394617D01*
X450221Y392727D02*
Y394617D01*
X450693D01*
X451166Y394144D01*
Y392727D01*
Y394144D01*
X451638Y394617D01*
X452110Y394144D01*
Y392727D01*
X453055Y395561D02*
Y392727D01*
X454472D01*
X454944Y393200D01*
Y393672D01*
Y394144D01*
X454472Y394617D01*
X453055D01*
X456361Y392727D02*
X457305D01*
X457778Y393200D01*
Y394144D01*
X457305Y394617D01*
X456361D01*
X455889Y394144D01*
Y393200D01*
X456361Y392727D01*
X458722D02*
X459667D01*
X459195D01*
Y395561D01*
X458722D01*
M02*
