G04*
G04 #@! TF.GenerationSoftware,Altium Limited,Altium Designer,24.7.2 (38)*
G04*
G04 Layer_Color=32768*
%FSLAX25Y25*%
%MOIN*%
G70*
G04*
G04 #@! TF.SameCoordinates,AB7849DE-EAC8-4354-A705-FC1E97C67EB3*
G04*
G04*
G04 #@! TF.FilePolarity,Positive*
G04*
G01*
G75*
%ADD13C,0.00787*%
%ADD15C,0.01000*%
%ADD16C,0.00394*%
%ADD20C,0.01181*%
%ADD21C,0.00500*%
%ADD22C,0.00600*%
%ADD23C,0.00197*%
D13*
X313976Y285236D02*
Y344291D01*
X369094Y285236D02*
Y344291D01*
X313976Y285236D02*
X369094D01*
X313976Y344291D02*
X369094D01*
X341535Y292323D02*
Y294685D01*
X339173Y292323D02*
X341535D01*
Y289961D02*
Y292323D01*
X343898D01*
X167198Y315074D02*
Y337122D01*
X211095D01*
Y315074D02*
Y337122D01*
X167198Y315074D02*
X211095D01*
X386811Y201772D02*
Y204921D01*
X383661Y201772D02*
X386811D01*
Y198622D02*
Y201772D01*
X389961D01*
X386811Y321850D02*
Y325000D01*
X383661Y321850D02*
X386811D01*
Y318701D02*
Y321850D01*
X389961D01*
X146654Y201772D02*
Y204921D01*
X143504Y201772D02*
X146654D01*
Y198622D02*
Y201772D01*
X149803D01*
X146654Y321850D02*
Y325000D01*
X143504Y321850D02*
X146654D01*
Y318701D02*
Y321850D01*
X149803D01*
D15*
X298228Y208071D02*
X329724D01*
X298228D02*
Y239567D01*
X329724D01*
Y208071D02*
Y239567D01*
D16*
X265394Y229331D02*
Y241929D01*
X226732Y229331D02*
Y241929D01*
X189146Y325803D02*
Y329740D01*
X187178Y327771D02*
X191115D01*
X181509Y253172D02*
X201194D01*
Y233487D02*
Y253172D01*
X182690Y233487D02*
X201194D01*
X181509Y234668D02*
Y253172D01*
Y234668D02*
X182690Y233487D01*
X197146Y202559D02*
X202264D01*
X197146Y191142D02*
X202264D01*
Y202559D01*
X197146Y191142D02*
Y202559D01*
X176098Y191524D02*
Y197024D01*
Y191524D02*
X180098D01*
X184098Y197024D02*
Y202524D01*
X180098D02*
X184098D01*
Y191524D02*
Y197024D01*
X180098Y191524D02*
X184098D01*
X176098Y197024D02*
Y202524D01*
X180098D01*
X202621Y217591D02*
Y227237D01*
X192975Y217591D02*
Y227237D01*
X143504Y239862D02*
X155709D01*
X143504D02*
Y245965D01*
Y252067D02*
X155709D01*
X143504Y245965D02*
Y252067D01*
X155709Y239862D02*
Y252067D01*
X152756Y289469D02*
Y295374D01*
X146457Y289469D02*
Y295374D01*
X154724Y259744D02*
Y267618D01*
X144488Y259744D02*
Y267618D01*
X264764Y281102D02*
Y294094D01*
X239173Y281102D02*
Y294094D01*
X203543Y284449D02*
X205906D01*
X210827Y285630D02*
Y289567D01*
X198622Y285630D02*
Y289567D01*
D20*
X398622Y201772D02*
G03*
X398622Y201772I-11811J0D01*
G01*
Y321850D02*
G03*
X398622Y321850I-11811J0D01*
G01*
X158465Y201772D02*
G03*
X158465Y201772I-11811J0D01*
G01*
Y321850D02*
G03*
X158465Y321850I-11811J0D01*
G01*
D21*
X345669Y279724D02*
X355118D01*
X345669Y261614D02*
X355118D01*
Y279724D01*
X345669Y261614D02*
Y279724D01*
D22*
X266287Y189437D02*
Y218437D01*
X225287Y189437D02*
X266287D01*
X225287Y218437D02*
X266287D01*
X225287Y189437D02*
Y218437D01*
D23*
X286221Y287598D02*
X290748D01*
X281693D02*
Y295866D01*
Y287598D02*
X286221D01*
X281693Y295866D02*
X286221D01*
X290748Y287598D02*
Y295866D01*
X286221D02*
X290748D01*
M02*
