G04*
G04 #@! TF.GenerationSoftware,Altium Limited,Altium Designer,24.7.2 (38)*
G04*
G04 Layer_Physical_Order=2*
G04 Layer_Color=15254943*
%FSLAX25Y25*%
%MOIN*%
G70*
G04*
G04 #@! TF.SameCoordinates,AB7849DE-EAC8-4354-A705-FC1E97C67EB3*
G04*
G04*
G04 #@! TF.FilePolarity,Positive*
G04*
G01*
G75*
%ADD87C,0.23622*%
%ADD88C,0.10630*%
%ADD89C,0.07874*%
%ADD107C,0.01968*%
%ADD108C,0.06000*%
G36*
X390102Y337780D02*
X390930D01*
X392573Y337564D01*
X394173Y337135D01*
X395704Y336501D01*
X397139Y335672D01*
X398453Y334664D01*
X399624Y333492D01*
X400633Y332178D01*
X401461Y330743D01*
X402096Y329212D01*
X402524Y327612D01*
X402740Y325969D01*
X402740Y325141D01*
X402740Y198481D01*
Y197653D01*
X402524Y196010D01*
X402096Y194410D01*
X401461Y192879D01*
X400633Y191444D01*
X399624Y190130D01*
X398453Y188958D01*
X397138Y187950D01*
X395704Y187121D01*
X394173Y186487D01*
X392573Y186058D01*
X390930Y185842D01*
X390102Y185842D01*
X143363Y185842D01*
X142535D01*
X140892Y186058D01*
X139292Y186487D01*
X137761Y187121D01*
X136326Y187950D01*
X135012Y188958D01*
X133840Y190130D01*
X132832Y191444D01*
X132003Y192879D01*
X131369Y194410D01*
X130940Y196010D01*
X130724Y197653D01*
X130724Y198481D01*
X130724Y324803D01*
X130724Y325141D01*
Y325969D01*
X130940Y327612D01*
X131369Y329212D01*
X132003Y330743D01*
X132832Y332178D01*
X133840Y333492D01*
X135012Y334664D01*
X136326Y335672D01*
X137761Y336501D01*
X139292Y337135D01*
X140892Y337564D01*
X142535Y337780D01*
X143363Y337780D01*
X390102Y337780D01*
D02*
G37*
%LPC*%
G36*
X363915Y337205D02*
X362463D01*
X361062Y336829D01*
X359805Y336104D01*
X358778Y335077D01*
X358053Y333820D01*
X357677Y332419D01*
Y330967D01*
X358053Y329565D01*
X358778Y328309D01*
X359805Y327282D01*
X361062Y326557D01*
X362463Y326181D01*
X363915D01*
X365317Y326557D01*
X366573Y327282D01*
X367600Y328309D01*
X368325Y329565D01*
X368701Y330967D01*
Y332419D01*
X368325Y333820D01*
X367600Y335077D01*
X366573Y336104D01*
X365317Y336829D01*
X363915Y337205D01*
D02*
G37*
G36*
X320607D02*
X319156D01*
X317754Y336829D01*
X316498Y336104D01*
X315471Y335077D01*
X314746Y333820D01*
X314370Y332419D01*
Y330967D01*
X314746Y329565D01*
X315471Y328309D01*
X316498Y327282D01*
X317754Y326557D01*
X319156Y326181D01*
X320607D01*
X322009Y326557D01*
X323266Y327282D01*
X324292Y328309D01*
X325018Y329565D01*
X325394Y330967D01*
Y332419D01*
X325018Y333820D01*
X324292Y335077D01*
X323266Y336104D01*
X322009Y336829D01*
X320607Y337205D01*
D02*
G37*
G36*
X196809Y326575D02*
X196104D01*
X195453Y326305D01*
X194955Y325807D01*
X194685Y325155D01*
Y324451D01*
X194955Y323800D01*
X195453Y323301D01*
X196104Y323031D01*
X196809D01*
X197460Y323301D01*
X197959Y323800D01*
X198228Y324451D01*
Y325155D01*
X197959Y325807D01*
X197460Y326305D01*
X196809Y326575D01*
D02*
G37*
G36*
X192085D02*
X191380D01*
X190729Y326305D01*
X190230Y325807D01*
X189961Y325155D01*
Y324451D01*
X190230Y323800D01*
X190729Y323301D01*
X191380Y323031D01*
X192085D01*
X192736Y323301D01*
X193234Y323800D01*
X193504Y324451D01*
Y325155D01*
X193234Y325807D01*
X192736Y326305D01*
X192085Y326575D01*
D02*
G37*
G36*
X186967D02*
X186262D01*
X185611Y326305D01*
X185112Y325807D01*
X184843Y325155D01*
Y324451D01*
X185112Y323800D01*
X185611Y323301D01*
X186262Y323031D01*
X186967D01*
X187618Y323301D01*
X188116Y323800D01*
X188386Y324451D01*
Y325155D01*
X188116Y325807D01*
X187618Y326305D01*
X186967Y326575D01*
D02*
G37*
G36*
X182242D02*
X181537D01*
X180886Y326305D01*
X180388Y325807D01*
X180118Y325155D01*
Y324451D01*
X180388Y323800D01*
X180886Y323301D01*
X181537Y323031D01*
X182242D01*
X182893Y323301D01*
X183392Y323800D01*
X183661Y324451D01*
Y325155D01*
X183392Y325807D01*
X182893Y326305D01*
X182242Y326575D01*
D02*
G37*
G36*
X245931Y326502D02*
X245226D01*
X244575Y326232D01*
X244077Y325733D01*
X243807Y325082D01*
Y324377D01*
X244077Y323726D01*
X244575Y323228D01*
X245226Y322958D01*
X245931D01*
X246582Y323228D01*
X247080Y323726D01*
X247350Y324377D01*
Y325082D01*
X247080Y325733D01*
X246582Y326232D01*
X245931Y326502D01*
D02*
G37*
G36*
X291229Y325978D02*
X290524D01*
X289873Y325708D01*
X289374Y325210D01*
X289105Y324559D01*
Y323854D01*
X289374Y323203D01*
X289873Y322705D01*
X290524Y322435D01*
X291229D01*
X291880Y322705D01*
X292378Y323203D01*
X292648Y323854D01*
Y324559D01*
X292378Y325210D01*
X291880Y325708D01*
X291229Y325978D01*
D02*
G37*
G36*
X201927Y316112D02*
X201222D01*
X200571Y315843D01*
X200073Y315344D01*
X199803Y314693D01*
Y313988D01*
X200073Y313337D01*
X200571Y312839D01*
X201222Y312569D01*
X201927D01*
X202578Y312839D01*
X203077Y313337D01*
X203346Y313988D01*
Y314693D01*
X203077Y315344D01*
X202578Y315843D01*
X201927Y316112D01*
D02*
G37*
G36*
X286573Y314370D02*
X285868D01*
X285217Y314100D01*
X284718Y313602D01*
X284449Y312951D01*
Y312246D01*
X284718Y311595D01*
X285217Y311097D01*
X285868Y310827D01*
X286573D01*
X287224Y311097D01*
X287722Y311595D01*
X287992Y312246D01*
Y312951D01*
X287722Y313602D01*
X287224Y314100D01*
X286573Y314370D01*
D02*
G37*
G36*
X276886Y312598D02*
X276181D01*
X275530Y312329D01*
X275032Y311830D01*
X274762Y311179D01*
Y310474D01*
X275032Y309823D01*
X275530Y309325D01*
X276181Y309055D01*
X276886D01*
X277537Y309325D01*
X278035Y309823D01*
X278305Y310474D01*
Y311179D01*
X278035Y311830D01*
X277537Y312329D01*
X276886Y312598D01*
D02*
G37*
G36*
X387864Y335236D02*
X385757D01*
X383677Y334907D01*
X381673Y334256D01*
X379795Y333299D01*
X378091Y332061D01*
X376601Y330571D01*
X375362Y328866D01*
X374406Y326989D01*
X373755Y324985D01*
X373425Y322904D01*
Y320797D01*
X373755Y318716D01*
X374406Y316712D01*
X375362Y314835D01*
X376601Y313130D01*
X378091Y311640D01*
X379795Y310402D01*
X381673Y309445D01*
X383677Y308794D01*
X385757Y308465D01*
X387864D01*
X389946Y308794D01*
X391949Y309445D01*
X393827Y310402D01*
X395531Y311640D01*
X397021Y313130D01*
X398260Y314835D01*
X399216Y316712D01*
X399867Y318716D01*
X400197Y320797D01*
Y322904D01*
X399867Y324985D01*
X399216Y326989D01*
X398260Y328866D01*
X397021Y330571D01*
X395531Y332061D01*
X393827Y333299D01*
X391949Y334256D01*
X389946Y334907D01*
X387864Y335236D01*
D02*
G37*
G36*
X147707D02*
X145600D01*
X143519Y334907D01*
X141515Y334256D01*
X139638Y333299D01*
X137933Y332061D01*
X136443Y330571D01*
X135205Y328866D01*
X134248Y326989D01*
X133597Y324985D01*
X133268Y322904D01*
Y320797D01*
X133597Y318716D01*
X134248Y316712D01*
X135205Y314835D01*
X136443Y313130D01*
X137933Y311640D01*
X139638Y310402D01*
X141515Y309445D01*
X143519Y308794D01*
X145600Y308465D01*
X147707D01*
X149788Y308794D01*
X151792Y309445D01*
X153669Y310402D01*
X155374Y311640D01*
X156864Y313130D01*
X158102Y314835D01*
X159059Y316712D01*
X159710Y318716D01*
X160039Y320797D01*
Y322904D01*
X159710Y324985D01*
X159059Y326989D01*
X158102Y328866D01*
X156864Y330571D01*
X155374Y332061D01*
X153669Y333299D01*
X151792Y334256D01*
X149788Y334907D01*
X147707Y335236D01*
D02*
G37*
G36*
X235982Y314567D02*
X235278D01*
X234626Y314297D01*
X234128Y313799D01*
X233858Y313148D01*
Y312443D01*
X234128Y311792D01*
X234626Y311293D01*
X235058Y311115D01*
Y310736D01*
X234626Y310557D01*
X234128Y310059D01*
X233858Y309407D01*
Y308703D01*
X234128Y308052D01*
X234626Y307553D01*
X235278Y307283D01*
X235982D01*
X236633Y307553D01*
X237132Y308052D01*
X237402Y308703D01*
Y309407D01*
X237132Y310059D01*
X236633Y310557D01*
X236202Y310736D01*
Y311115D01*
X236633Y311293D01*
X237132Y311792D01*
X237402Y312443D01*
Y313148D01*
X237132Y313799D01*
X236633Y314297D01*
X235982Y314567D01*
D02*
G37*
G36*
X352378Y298563D02*
Y293323D01*
X357618D01*
X357450Y294165D01*
X356974Y295314D01*
X356283Y296348D01*
X355403Y297228D01*
X354369Y297919D01*
X353220Y298395D01*
X352378Y298563D01*
D02*
G37*
G36*
X350378D02*
X349536Y298395D01*
X348387Y297919D01*
X347352Y297228D01*
X346473Y296348D01*
X345782Y295314D01*
X345306Y294165D01*
X345138Y293323D01*
X350378D01*
Y298563D01*
D02*
G37*
G36*
X357618Y291323D02*
X352378D01*
Y286083D01*
X353220Y286251D01*
X354369Y286727D01*
X355403Y287418D01*
X356283Y288297D01*
X356974Y289332D01*
X357450Y290481D01*
X357618Y291323D01*
D02*
G37*
G36*
X350378D02*
X345138D01*
X345306Y290481D01*
X345782Y289332D01*
X346473Y288297D01*
X347352Y287418D01*
X348387Y286727D01*
X349536Y286251D01*
X350378Y286083D01*
Y291323D01*
D02*
G37*
G36*
X332371Y299213D02*
X331014D01*
X329683Y298948D01*
X328429Y298429D01*
X327301Y297674D01*
X326341Y296715D01*
X325587Y295586D01*
X325068Y294333D01*
X324803Y293001D01*
Y291644D01*
X325068Y290313D01*
X325587Y289059D01*
X326341Y287931D01*
X327301Y286971D01*
X328429Y286217D01*
X329683Y285698D01*
X331014Y285433D01*
X332371D01*
X333703Y285698D01*
X334956Y286217D01*
X336085Y286971D01*
X337045Y287931D01*
X337799Y289059D01*
X338318Y290313D01*
X338583Y291644D01*
Y293001D01*
X338318Y294333D01*
X337799Y295586D01*
X337045Y296715D01*
X336085Y297674D01*
X334956Y298429D01*
X333703Y298948D01*
X332371Y299213D01*
D02*
G37*
G36*
X305077Y286811D02*
X304372D01*
X303721Y286541D01*
X303222Y286043D01*
X302953Y285392D01*
Y284687D01*
X303222Y284036D01*
X303721Y283537D01*
X304372Y283268D01*
X305077D01*
X305728Y283537D01*
X306226Y284036D01*
X306496Y284687D01*
Y285392D01*
X306226Y286043D01*
X305728Y286541D01*
X305077Y286811D01*
D02*
G37*
G36*
X194250Y280118D02*
X193545D01*
X192894Y279848D01*
X192396Y279350D01*
X192126Y278699D01*
Y277994D01*
X192396Y277343D01*
X192894Y276845D01*
X193545Y276575D01*
X194250D01*
X194901Y276845D01*
X195400Y277343D01*
X195669Y277994D01*
Y278699D01*
X195400Y279350D01*
X194901Y279848D01*
X194250Y280118D01*
D02*
G37*
G36*
X295234Y275787D02*
X294530D01*
X293878Y275518D01*
X293380Y275019D01*
X293110Y274368D01*
Y273663D01*
X293380Y273012D01*
X293878Y272514D01*
X294530Y272244D01*
X295234D01*
X295885Y272514D01*
X296384Y273012D01*
X296654Y273663D01*
Y274368D01*
X296384Y275019D01*
X295885Y275518D01*
X295234Y275787D01*
D02*
G37*
G36*
X186967Y275000D02*
X186262D01*
X185611Y274730D01*
X185112Y274232D01*
X184843Y273581D01*
Y272876D01*
X185112Y272225D01*
X185611Y271726D01*
X186262Y271457D01*
X186967D01*
X187618Y271726D01*
X188116Y272225D01*
X188386Y272876D01*
Y273581D01*
X188116Y274232D01*
X187618Y274730D01*
X186967Y275000D01*
D02*
G37*
G36*
X176730D02*
X176025D01*
X175374Y274730D01*
X174876Y274232D01*
X174606Y273581D01*
Y272876D01*
X174876Y272225D01*
X175374Y271726D01*
X176025Y271457D01*
X176730D01*
X177382Y271726D01*
X177880Y272225D01*
X178150Y272876D01*
Y273581D01*
X177880Y274232D01*
X177382Y274730D01*
X176730Y275000D01*
D02*
G37*
G36*
X184211Y271063D02*
X183506D01*
X182855Y270793D01*
X182356Y270295D01*
X182087Y269644D01*
Y268939D01*
X182356Y268288D01*
X182855Y267789D01*
X183506Y267520D01*
X184211D01*
X184862Y267789D01*
X185360Y268288D01*
X185630Y268939D01*
Y269644D01*
X185360Y270295D01*
X184862Y270793D01*
X184211Y271063D01*
D02*
G37*
G36*
X174565D02*
X173860D01*
X173209Y270793D01*
X172711Y270295D01*
X172441Y269644D01*
Y268939D01*
X172711Y268288D01*
X173209Y267789D01*
X173860Y267520D01*
X174565D01*
X175216Y267789D01*
X175715Y268288D01*
X175984Y268939D01*
Y269644D01*
X175715Y270295D01*
X175216Y270793D01*
X174565Y271063D01*
D02*
G37*
G36*
X233423Y267913D02*
X232718D01*
X232067Y267644D01*
X231569Y267145D01*
X231299Y266494D01*
Y265789D01*
X231569Y265138D01*
X232067Y264640D01*
X232718Y264370D01*
X233423D01*
X234074Y264640D01*
X234573Y265138D01*
X234842Y265789D01*
Y266494D01*
X234573Y267145D01*
X234074Y267644D01*
X233423Y267913D01*
D02*
G37*
G36*
X178108Y267323D02*
X177403D01*
X176752Y267053D01*
X176254Y266555D01*
X175984Y265904D01*
Y265199D01*
X176254Y264548D01*
X176752Y264049D01*
X177403Y263779D01*
X178108D01*
X178760Y264049D01*
X179258Y264548D01*
X179528Y265199D01*
Y265904D01*
X179258Y266555D01*
X178760Y267053D01*
X178108Y267323D01*
D02*
G37*
G36*
X361770Y266732D02*
X361065D01*
X360414Y266463D01*
X359915Y265964D01*
X359646Y265313D01*
Y264608D01*
X359915Y263957D01*
X360414Y263459D01*
X361065Y263189D01*
X361770D01*
X362421Y263459D01*
X362919Y263957D01*
X363189Y264608D01*
Y265313D01*
X362919Y265964D01*
X362421Y266463D01*
X361770Y266732D01*
D02*
G37*
G36*
X186967Y260039D02*
X186262D01*
X185611Y259770D01*
X185376Y259535D01*
X185141Y259770D01*
X184490Y260039D01*
X183785D01*
X183134Y259770D01*
X182636Y259271D01*
X182366Y258620D01*
Y257915D01*
X182636Y257264D01*
X183134Y256766D01*
X183785Y256496D01*
X184490D01*
X185141Y256766D01*
X185376Y257000D01*
X185611Y256766D01*
X186262Y256496D01*
X186967D01*
X187618Y256766D01*
X188116Y257264D01*
X188386Y257915D01*
Y258620D01*
X188116Y259271D01*
X187618Y259770D01*
X186967Y260039D01*
D02*
G37*
G36*
X197990Y258071D02*
X197285D01*
X196634Y257801D01*
X196143Y257310D01*
X195651Y257801D01*
X195000Y258071D01*
X194295D01*
X193644Y257801D01*
X193387Y257544D01*
X193130Y257801D01*
X192478Y258071D01*
X191774D01*
X191122Y257801D01*
X190624Y257303D01*
X190354Y256652D01*
Y255947D01*
X190624Y255296D01*
X191122Y254797D01*
X191774Y254528D01*
X192478D01*
X193130Y254797D01*
X193387Y255054D01*
X193644Y254797D01*
X194295Y254528D01*
X195000D01*
X195651Y254797D01*
X196143Y255289D01*
X196634Y254797D01*
X197285Y254528D01*
X197990D01*
X198641Y254797D01*
X199140Y255296D01*
X199409Y255947D01*
Y256652D01*
X199140Y257303D01*
X198641Y257801D01*
X197990Y258071D01*
D02*
G37*
G36*
X165707Y260827D02*
X165002D01*
X164351Y260557D01*
X163852Y260059D01*
X163583Y259407D01*
Y258703D01*
X163852Y258052D01*
X164351Y257553D01*
X165002Y257283D01*
X165707D01*
X166358Y257553D01*
X166856Y258052D01*
X167126Y258703D01*
Y259407D01*
X166856Y260059D01*
X166358Y260557D01*
X165707Y260827D01*
D02*
G37*
G36*
X280864Y259646D02*
X280159D01*
X279508Y259376D01*
X279010Y258878D01*
X278740Y258226D01*
Y257522D01*
X279010Y256871D01*
X279508Y256372D01*
X280159Y256102D01*
X280864D01*
X281515Y256372D01*
X282014Y256871D01*
X282283Y257522D01*
Y258226D01*
X282014Y258878D01*
X281515Y259376D01*
X280864Y259646D01*
D02*
G37*
G36*
X181849Y256890D02*
X181144D01*
X180492Y256620D01*
X179994Y256122D01*
X179724Y255470D01*
Y254766D01*
X179994Y254115D01*
X180492Y253616D01*
X181144Y253346D01*
X181849D01*
X182500Y253616D01*
X182998Y254115D01*
X183268Y254766D01*
Y255470D01*
X182998Y256122D01*
X182500Y256620D01*
X181849Y256890D01*
D02*
G37*
G36*
X247990Y253937D02*
X247285D01*
X246634Y253667D01*
X246260Y253293D01*
X245885Y253667D01*
X245234Y253937D01*
X244530D01*
X243878Y253667D01*
X243504Y253293D01*
X243129Y253667D01*
X242478Y253937D01*
X241774D01*
X241122Y253667D01*
X240748Y253293D01*
X240374Y253667D01*
X239722Y253937D01*
X239018D01*
X238367Y253667D01*
X237868Y253169D01*
X237598Y252518D01*
Y251813D01*
X237868Y251162D01*
X238367Y250663D01*
X239018Y250394D01*
X239722D01*
X240374Y250663D01*
X240748Y251038D01*
X241122Y250663D01*
X241774Y250394D01*
X242478D01*
X243129Y250663D01*
X243504Y251038D01*
X243878Y250663D01*
X244530Y250394D01*
X245234D01*
X245885Y250663D01*
X246260Y251038D01*
X246634Y250663D01*
X247285Y250394D01*
X247990D01*
X248497Y250604D01*
X248594Y250370D01*
X249093Y249871D01*
X249744Y249601D01*
X250449D01*
X251100Y249871D01*
X251382Y250153D01*
X251733Y249803D01*
X252384Y249533D01*
X253089D01*
X253740Y249803D01*
X253908Y249971D01*
X254206Y249673D01*
X254857Y249403D01*
X255562D01*
X256213Y249673D01*
X256545Y250005D01*
X256674Y249876D01*
X257325Y249606D01*
X258030D01*
X258681Y249876D01*
X259179Y250374D01*
X259449Y251026D01*
Y251730D01*
X259179Y252381D01*
X258681Y252880D01*
X258030Y253150D01*
X257325D01*
X256674Y252880D01*
X256341Y252548D01*
X256213Y252676D01*
X255562Y252946D01*
X254857D01*
X254206Y252676D01*
X254038Y252509D01*
X253740Y252807D01*
X253089Y253076D01*
X252384D01*
X251733Y252807D01*
X251450Y252524D01*
X251100Y252875D01*
X250449Y253145D01*
X249744D01*
X249237Y252935D01*
X249140Y253169D01*
X248641Y253667D01*
X247990Y253937D01*
D02*
G37*
G36*
X216297Y255709D02*
X215593D01*
X214941Y255439D01*
X214443Y254941D01*
X214173Y254289D01*
Y253585D01*
X214443Y252933D01*
X214941Y252435D01*
X215593Y252165D01*
X216297D01*
X216948Y252435D01*
X217447Y252933D01*
X217717Y253585D01*
Y254289D01*
X217447Y254941D01*
X216948Y255439D01*
X216297Y255709D01*
D02*
G37*
G36*
X229799Y255656D02*
X229094D01*
X228443Y255386D01*
X227944Y254888D01*
X227675Y254236D01*
Y253532D01*
X227944Y252881D01*
X228443Y252382D01*
X229094Y252112D01*
X229799D01*
X230450Y252382D01*
X230948Y252881D01*
X231218Y253532D01*
Y254236D01*
X230948Y254888D01*
X230450Y255386D01*
X229799Y255656D01*
D02*
G37*
G36*
X225746Y251378D02*
X225041D01*
X224390Y251108D01*
X223892Y250610D01*
X223622Y249959D01*
Y249254D01*
X223892Y248603D01*
X224390Y248104D01*
X225041Y247835D01*
X225746D01*
X226397Y248104D01*
X226896Y248603D01*
X227165Y249254D01*
Y249959D01*
X226896Y250610D01*
X226397Y251108D01*
X225746Y251378D01*
D02*
G37*
G36*
X207045Y249016D02*
X206341D01*
X205689Y248746D01*
X205191Y248248D01*
X204921Y247597D01*
Y246934D01*
X204792Y246782D01*
X204641Y246654D01*
X203978D01*
X203327Y246384D01*
X202829Y245885D01*
X202559Y245234D01*
Y244530D01*
X202829Y243878D01*
X203327Y243380D01*
X203978Y243110D01*
X204683D01*
X205334Y243380D01*
X205833Y243878D01*
X206102Y244530D01*
Y245192D01*
X206231Y245344D01*
X206383Y245472D01*
X206773D01*
X207007Y245122D01*
X206890Y244841D01*
Y244136D01*
X207159Y243485D01*
X207658Y242986D01*
X208309Y242717D01*
X209014D01*
X209665Y242986D01*
X210163Y243485D01*
X210433Y244136D01*
Y244841D01*
X210163Y245492D01*
X209665Y245990D01*
X209014Y246260D01*
X208582D01*
X208348Y246610D01*
X208465Y246892D01*
Y247597D01*
X208195Y248248D01*
X207697Y248746D01*
X207045Y249016D01*
D02*
G37*
G36*
X278942Y246122D02*
X278237D01*
X277586Y245852D01*
X277088Y245353D01*
X276818Y244702D01*
Y243997D01*
X277088Y243346D01*
X277586Y242848D01*
X278237Y242578D01*
X278942D01*
X279593Y242848D01*
X280092Y243346D01*
X280361Y243997D01*
Y244702D01*
X280092Y245353D01*
X279593Y245852D01*
X278942Y246122D01*
D02*
G37*
G36*
X208817Y242323D02*
X208112D01*
X207461Y242053D01*
X206963Y241555D01*
X206693Y240904D01*
Y240199D01*
X206963Y239548D01*
X207461Y239049D01*
X208112Y238779D01*
X208817D01*
X209468Y239049D01*
X209966Y239548D01*
X210236Y240199D01*
Y240904D01*
X209966Y241555D01*
X209468Y242053D01*
X208817Y242323D01*
D02*
G37*
G36*
X179093Y252165D02*
X178388D01*
X177737Y251896D01*
X177238Y251397D01*
X176969Y250746D01*
Y250041D01*
X177238Y249390D01*
X177737Y248892D01*
X177687Y248533D01*
X177402Y248248D01*
X177132Y247597D01*
Y246892D01*
X177402Y246241D01*
X177637Y246006D01*
X177402Y245772D01*
X177132Y245121D01*
Y244416D01*
X177402Y243765D01*
X177900Y243266D01*
X177911Y243212D01*
X177632Y242933D01*
X177362Y242282D01*
Y241577D01*
X177632Y240926D01*
X177814Y240743D01*
X177768Y240509D01*
X177269Y240011D01*
X176999Y239360D01*
Y238655D01*
X177269Y238004D01*
X177768Y237505D01*
X178419Y237236D01*
X179123D01*
X179775Y237505D01*
X180273Y238004D01*
X180543Y238655D01*
Y239360D01*
X180273Y240011D01*
X180091Y240193D01*
X180137Y240427D01*
X180636Y240926D01*
X180905Y241577D01*
Y242282D01*
X180636Y242933D01*
X180137Y243431D01*
X180127Y243485D01*
X180406Y243765D01*
X180676Y244416D01*
Y245121D01*
X180406Y245772D01*
X180171Y246006D01*
X180406Y246241D01*
X180676Y246892D01*
Y247597D01*
X180406Y248248D01*
X179908Y248746D01*
X179957Y249105D01*
X180242Y249390D01*
X180512Y250041D01*
Y250746D01*
X180242Y251397D01*
X179744Y251896D01*
X179093Y252165D01*
D02*
G37*
G36*
X204486Y240158D02*
X203782D01*
X203130Y239888D01*
X202632Y239389D01*
X202362Y238738D01*
Y238033D01*
X202632Y237382D01*
X203130Y236884D01*
X203782Y236614D01*
X204486D01*
X205137Y236884D01*
X205636Y237382D01*
X205906Y238033D01*
Y238738D01*
X205636Y239389D01*
X205137Y239888D01*
X204486Y240158D01*
D02*
G37*
G36*
X170398Y233661D02*
X169693D01*
X169042Y233392D01*
X168544Y232893D01*
X168274Y232242D01*
Y231537D01*
X168544Y230886D01*
X169042Y230388D01*
X169693Y230118D01*
X170398D01*
X171049Y230388D01*
X171548Y230886D01*
X171817Y231537D01*
Y232242D01*
X171548Y232893D01*
X171049Y233392D01*
X170398Y233661D01*
D02*
G37*
G36*
X207045Y233071D02*
X206341D01*
X205689Y232801D01*
X205191Y232303D01*
X204921Y231652D01*
Y230947D01*
X205191Y230296D01*
X205689Y229797D01*
X206341Y229528D01*
X207045D01*
X207697Y229797D01*
X208195Y230296D01*
X208465Y230947D01*
Y231652D01*
X208195Y232303D01*
X207697Y232801D01*
X207045Y233071D01*
D02*
G37*
G36*
X376140Y232087D02*
X375435D01*
X374784Y231817D01*
X374286Y231318D01*
X374016Y230667D01*
Y229963D01*
X374286Y229311D01*
X374784Y228813D01*
X375435Y228543D01*
X376140D01*
X376791Y228813D01*
X377289Y229311D01*
X377559Y229963D01*
Y230667D01*
X377289Y231318D01*
X376791Y231817D01*
X376140Y232087D01*
D02*
G37*
G36*
X184031Y232648D02*
X183326D01*
X182675Y232378D01*
X182177Y231880D01*
X181907Y231228D01*
Y230524D01*
X182177Y229872D01*
X182675Y229374D01*
X183326Y229104D01*
X184031D01*
X184682Y229374D01*
X185017Y229708D01*
X185221Y229668D01*
X185720Y229169D01*
X186371Y228900D01*
X187076D01*
X187727Y229169D01*
X188157Y229600D01*
X188447Y229590D01*
X188556Y229552D01*
X188655Y229311D01*
X189154Y228813D01*
X189805Y228543D01*
X190510D01*
X191161Y228813D01*
X191659Y229311D01*
X191929Y229963D01*
Y230667D01*
X191659Y231318D01*
X191161Y231817D01*
X190510Y232087D01*
X189805D01*
X189154Y231817D01*
X188724Y231386D01*
X188433Y231396D01*
X188325Y231434D01*
X188225Y231675D01*
X187727Y232173D01*
X187076Y232443D01*
X186371D01*
X185720Y232173D01*
X185385Y231839D01*
X185181Y231880D01*
X184682Y232378D01*
X184031Y232648D01*
D02*
G37*
G36*
X224959Y232283D02*
X224254D01*
X223603Y232014D01*
X223104Y231515D01*
X222835Y230864D01*
Y230159D01*
X222970Y229833D01*
X222901Y229714D01*
X222717Y229528D01*
X222089D01*
X221437Y229258D01*
X220939Y228760D01*
X220669Y228108D01*
Y227758D01*
X220319Y227524D01*
X220234Y227559D01*
X219530D01*
X218878Y227289D01*
X218380Y226791D01*
X218110Y226140D01*
Y226055D01*
X217760Y225985D01*
X217526Y226550D01*
X217028Y227048D01*
X216377Y227318D01*
X215672D01*
X215021Y227048D01*
X214727Y226755D01*
X214389Y227093D01*
X213738Y227362D01*
X213033D01*
X212382Y227093D01*
X211884Y226594D01*
X211614Y225943D01*
Y225238D01*
X211884Y224587D01*
X212382Y224089D01*
X213033Y223819D01*
X213738D01*
X214389Y224089D01*
X214683Y224382D01*
X215021Y224044D01*
X215672Y223775D01*
X216377D01*
X217028Y224044D01*
X217526Y224543D01*
X217796Y225194D01*
Y225279D01*
X218146Y225349D01*
X218380Y224784D01*
X218878Y224286D01*
X219530Y224016D01*
X220234D01*
X220885Y224286D01*
X221384Y224784D01*
X221654Y225435D01*
Y225786D01*
X222004Y226020D01*
X222089Y225984D01*
X222793D01*
X223445Y226254D01*
X223943Y226752D01*
X224213Y227403D01*
Y228108D01*
X224078Y228434D01*
X224147Y228554D01*
X224330Y228740D01*
X224959D01*
X225610Y229010D01*
X226108Y229508D01*
X226378Y230159D01*
Y230864D01*
X226108Y231515D01*
X225610Y232014D01*
X224959Y232283D01*
D02*
G37*
G36*
X153108Y229724D02*
X152403D01*
X151752Y229455D01*
X151254Y228956D01*
X150984Y228305D01*
Y227600D01*
X151254Y226949D01*
X151752Y226451D01*
X152403Y226181D01*
X153108D01*
X153760Y226451D01*
X154258Y226949D01*
X154528Y227600D01*
Y228305D01*
X154258Y228956D01*
X153760Y229455D01*
X153108Y229724D01*
D02*
G37*
G36*
X249959Y221654D02*
X249254D01*
X248603Y221384D01*
X248425Y221206D01*
X248248Y221384D01*
X247597Y221654D01*
X246892D01*
X246240Y221384D01*
X246063Y221206D01*
X245885Y221384D01*
X245234Y221654D01*
X244530D01*
X243878Y221384D01*
X243701Y221206D01*
X243523Y221384D01*
X242872Y221654D01*
X242167D01*
X241516Y221384D01*
X241018Y220885D01*
X240748Y220234D01*
Y219530D01*
X241018Y218878D01*
X241516Y218380D01*
X242167Y218110D01*
X242872D01*
X243523Y218380D01*
X243701Y218558D01*
X243878Y218380D01*
X244530Y218110D01*
X245234D01*
X245885Y218380D01*
X246063Y218558D01*
X246240Y218380D01*
X246892Y218110D01*
X247597D01*
X248248Y218380D01*
X248425Y218558D01*
X248603Y218380D01*
X249254Y218110D01*
X249555D01*
X249601Y217760D01*
X249243Y217664D01*
X248331Y217138D01*
X247587Y216393D01*
X247060Y215481D01*
X246787Y214464D01*
Y214437D01*
X250787D01*
X254787D01*
Y214464D01*
X254515Y215481D01*
X253988Y216393D01*
X253243Y217138D01*
X252331Y217664D01*
X251314Y217937D01*
X250455D01*
X250385Y218287D01*
X250610Y218380D01*
X251108Y218878D01*
X251378Y219530D01*
Y220234D01*
X251108Y220885D01*
X250610Y221384D01*
X249959Y221654D01*
D02*
G37*
G36*
X185392Y223819D02*
X184687D01*
X184036Y223549D01*
X183537Y223051D01*
X183268Y222400D01*
Y221695D01*
X183537Y221044D01*
X184036Y220545D01*
X184687Y220276D01*
X185392D01*
X186043Y220545D01*
X186541Y221044D01*
X186811Y221695D01*
Y222400D01*
X186541Y223051D01*
X186043Y223549D01*
X185392Y223819D01*
D02*
G37*
G36*
X354175Y222376D02*
X353470D01*
X352819Y222106D01*
X352321Y221607D01*
X352051Y220956D01*
Y220252D01*
X352321Y219600D01*
X352819Y219102D01*
X353470Y218832D01*
X354175D01*
X354826Y219102D01*
X355324Y219600D01*
X355594Y220252D01*
Y220956D01*
X355324Y221607D01*
X354826Y222106D01*
X354175Y222376D01*
D02*
G37*
G36*
X281061Y219685D02*
X280356D01*
X279705Y219415D01*
X279207Y218917D01*
X278937Y218266D01*
Y217561D01*
X279207Y216910D01*
X279705Y216411D01*
X280356Y216142D01*
X281061D01*
X281712Y216411D01*
X282211Y216910D01*
X282480Y217561D01*
Y218266D01*
X282211Y218917D01*
X281712Y219415D01*
X281061Y219685D01*
D02*
G37*
G36*
X261314Y217937D02*
X261287D01*
Y214437D01*
X264787D01*
Y214464D01*
X264515Y215481D01*
X263988Y216393D01*
X263244Y217138D01*
X262331Y217664D01*
X261314Y217937D01*
D02*
G37*
G36*
X241314D02*
X241287D01*
Y214437D01*
X244787D01*
Y214464D01*
X244515Y215481D01*
X243988Y216393D01*
X243244Y217138D01*
X242331Y217664D01*
X241314Y217937D01*
D02*
G37*
G36*
X231314D02*
X231287D01*
Y214437D01*
X234787D01*
Y214464D01*
X234515Y215481D01*
X233988Y216393D01*
X233243Y217138D01*
X232331Y217664D01*
X231314Y217937D01*
D02*
G37*
G36*
X230287D02*
X230261D01*
X229243Y217664D01*
X228331Y217138D01*
X227587Y216393D01*
X227060Y215481D01*
X226787Y214464D01*
Y214437D01*
X230287D01*
Y217937D01*
D02*
G37*
G36*
X260287D02*
X260261D01*
X259243Y217664D01*
X258331Y217138D01*
X257587Y216393D01*
X257060Y215481D01*
X256787Y214464D01*
Y214437D01*
X260287D01*
Y217937D01*
D02*
G37*
G36*
X240287D02*
X240261D01*
X239244Y217664D01*
X238331Y217138D01*
X237587Y216393D01*
X237060Y215481D01*
X236787Y214464D01*
Y214437D01*
X240287D01*
Y217937D01*
D02*
G37*
G36*
X376534Y217717D02*
X375829D01*
X375178Y217447D01*
X374679Y216948D01*
X374410Y216297D01*
Y215593D01*
X374679Y214941D01*
X375178Y214443D01*
X375829Y214173D01*
X376534D01*
X377185Y214443D01*
X377683Y214941D01*
X377953Y215593D01*
Y216297D01*
X377683Y216948D01*
X377185Y217447D01*
X376534Y217717D01*
D02*
G37*
G36*
X206144Y217520D02*
X205439D01*
X204788Y217250D01*
X204289Y216752D01*
X204020Y216100D01*
Y215396D01*
X204289Y214744D01*
X204788Y214246D01*
X205439Y213976D01*
X206144D01*
X206795Y214246D01*
X207293Y214744D01*
X207563Y215396D01*
Y216100D01*
X207293Y216752D01*
X206795Y217250D01*
X206144Y217520D01*
D02*
G37*
G36*
X340751Y215240D02*
X340046D01*
X339395Y214970D01*
X338896Y214472D01*
X338627Y213821D01*
Y213116D01*
X338896Y212465D01*
X339395Y211967D01*
X340046Y211697D01*
X340751D01*
X341402Y211967D01*
X341900Y212465D01*
X342170Y213116D01*
Y213821D01*
X341900Y214472D01*
X341402Y214970D01*
X340751Y215240D01*
D02*
G37*
G36*
X209014Y214764D02*
X208309D01*
X207658Y214494D01*
X207159Y213996D01*
X206890Y213345D01*
Y212640D01*
X207159Y211989D01*
X207658Y211490D01*
X208309Y211221D01*
X209014D01*
X209665Y211490D01*
X210163Y211989D01*
X210433Y212640D01*
Y213345D01*
X210163Y213996D01*
X209665Y214494D01*
X209014Y214764D01*
D02*
G37*
G36*
X192478Y213976D02*
X191774D01*
X191122Y213707D01*
X190624Y213208D01*
X190354Y212557D01*
Y211852D01*
X190624Y211201D01*
X191122Y210703D01*
X191774Y210433D01*
X192478D01*
X193130Y210703D01*
X193628Y211201D01*
X193898Y211852D01*
Y212557D01*
X193628Y213208D01*
X193130Y213707D01*
X192478Y213976D01*
D02*
G37*
G36*
X264787Y213437D02*
X261287D01*
Y209937D01*
X261314D01*
X262331Y210210D01*
X263244Y210736D01*
X263988Y211481D01*
X264515Y212393D01*
X264787Y213410D01*
Y213437D01*
D02*
G37*
G36*
X260287D02*
X256787D01*
Y213410D01*
X257060Y212393D01*
X257587Y211481D01*
X258331Y210736D01*
X259243Y210210D01*
X260261Y209937D01*
X260287D01*
Y213437D01*
D02*
G37*
G36*
X254787D02*
X251287D01*
Y209937D01*
X251314D01*
X252331Y210210D01*
X253243Y210736D01*
X253988Y211481D01*
X254515Y212393D01*
X254787Y213410D01*
Y213437D01*
D02*
G37*
G36*
X250287D02*
X246787D01*
Y213410D01*
X247060Y212393D01*
X247587Y211481D01*
X248331Y210736D01*
X249243Y210210D01*
X250261Y209937D01*
X250287D01*
Y213437D01*
D02*
G37*
G36*
X244787D02*
X241287D01*
Y209937D01*
X241314D01*
X242331Y210210D01*
X243244Y210736D01*
X243988Y211481D01*
X244515Y212393D01*
X244787Y213410D01*
Y213437D01*
D02*
G37*
G36*
X240287D02*
X236787D01*
Y213410D01*
X237060Y212393D01*
X237587Y211481D01*
X238331Y210736D01*
X239244Y210210D01*
X240261Y209937D01*
X240287D01*
Y213437D01*
D02*
G37*
G36*
X234787D02*
X231287D01*
Y209937D01*
X231314D01*
X232331Y210210D01*
X233243Y210736D01*
X233988Y211481D01*
X234515Y212393D01*
X234787Y213410D01*
Y213437D01*
D02*
G37*
G36*
X230287D02*
X226787D01*
Y213410D01*
X227060Y212393D01*
X227587Y211481D01*
X228331Y210736D01*
X229243Y210210D01*
X230261Y209937D01*
X230287D01*
Y213437D01*
D02*
G37*
G36*
X171612Y208071D02*
X170907D01*
X170256Y207801D01*
X169758Y207303D01*
X169488Y206652D01*
Y205947D01*
X169758Y205296D01*
X170256Y204797D01*
X170907Y204528D01*
X171612D01*
X172263Y204797D01*
X172762Y205296D01*
X173031Y205947D01*
Y206652D01*
X172762Y207303D01*
X172263Y207801D01*
X171612Y208071D01*
D02*
G37*
G36*
X341100Y206144D02*
X340396D01*
X339744Y205874D01*
X339246Y205376D01*
X338976Y204724D01*
Y204020D01*
X339246Y203368D01*
X339744Y202870D01*
X340396Y202600D01*
X341100D01*
X341752Y202870D01*
X342250Y203368D01*
X342520Y204020D01*
Y204724D01*
X342250Y205376D01*
X341752Y205874D01*
X341100Y206144D01*
D02*
G37*
G36*
X261390Y208512D02*
X260185D01*
X259022Y208200D01*
X257978Y207598D01*
X257127Y206746D01*
X256524Y205703D01*
X256213Y204539D01*
Y203335D01*
X256524Y202171D01*
X257127Y201128D01*
X257978Y200276D01*
X259022Y199674D01*
X260185Y199362D01*
X261390D01*
X262553Y199674D01*
X263596Y200276D01*
X264448Y201128D01*
X265050Y202171D01*
X265362Y203335D01*
Y204539D01*
X265050Y205703D01*
X264448Y206746D01*
X263596Y207598D01*
X262553Y208200D01*
X261390Y208512D01*
D02*
G37*
G36*
X251390D02*
X250185D01*
X249022Y208200D01*
X247978Y207598D01*
X247127Y206746D01*
X246524Y205703D01*
X246213Y204539D01*
Y203335D01*
X246524Y202171D01*
X247127Y201128D01*
X247978Y200276D01*
X249022Y199674D01*
X250185Y199362D01*
X251390D01*
X252553Y199674D01*
X253596Y200276D01*
X254448Y201128D01*
X255050Y202171D01*
X255362Y203335D01*
Y204539D01*
X255050Y205703D01*
X254448Y206746D01*
X253596Y207598D01*
X252553Y208200D01*
X251390Y208512D01*
D02*
G37*
G36*
X241390D02*
X240185D01*
X239022Y208200D01*
X237978Y207598D01*
X237127Y206746D01*
X236524Y205703D01*
X236213Y204539D01*
Y203335D01*
X236524Y202171D01*
X237127Y201128D01*
X237978Y200276D01*
X239022Y199674D01*
X240185Y199362D01*
X241390D01*
X242553Y199674D01*
X243596Y200276D01*
X244448Y201128D01*
X245050Y202171D01*
X245362Y203335D01*
Y204539D01*
X245050Y205703D01*
X244448Y206746D01*
X243596Y207598D01*
X242553Y208200D01*
X241390Y208512D01*
D02*
G37*
G36*
X231390D02*
X230185D01*
X229022Y208200D01*
X227978Y207598D01*
X227127Y206746D01*
X226524Y205703D01*
X226213Y204539D01*
Y203335D01*
X226524Y202171D01*
X227127Y201128D01*
X227978Y200276D01*
X229022Y199674D01*
X230185Y199362D01*
X231390D01*
X232553Y199674D01*
X233596Y200276D01*
X234448Y201128D01*
X235050Y202171D01*
X235362Y203335D01*
Y204539D01*
X235050Y205703D01*
X234448Y206746D01*
X233596Y207598D01*
X232553Y208200D01*
X231390Y208512D01*
D02*
G37*
G36*
X261390Y198512D02*
X260185D01*
X259022Y198200D01*
X257978Y197598D01*
X257127Y196746D01*
X256524Y195703D01*
X256213Y194539D01*
Y193335D01*
X256524Y192171D01*
X257127Y191128D01*
X257978Y190276D01*
X259022Y189674D01*
X260185Y189362D01*
X261390D01*
X262553Y189674D01*
X263596Y190276D01*
X264448Y191128D01*
X265050Y192171D01*
X265362Y193335D01*
Y194539D01*
X265050Y195703D01*
X264448Y196746D01*
X263596Y197598D01*
X262553Y198200D01*
X261390Y198512D01*
D02*
G37*
G36*
X251390D02*
X250185D01*
X249022Y198200D01*
X247978Y197598D01*
X247127Y196746D01*
X246524Y195703D01*
X246213Y194539D01*
Y193335D01*
X246524Y192171D01*
X247127Y191128D01*
X247978Y190276D01*
X249022Y189674D01*
X250185Y189362D01*
X251390D01*
X252553Y189674D01*
X253596Y190276D01*
X254448Y191128D01*
X255050Y192171D01*
X255362Y193335D01*
Y194539D01*
X255050Y195703D01*
X254448Y196746D01*
X253596Y197598D01*
X252553Y198200D01*
X251390Y198512D01*
D02*
G37*
G36*
X241390D02*
X240185D01*
X239022Y198200D01*
X237978Y197598D01*
X237127Y196746D01*
X236524Y195703D01*
X236213Y194539D01*
Y193335D01*
X236524Y192171D01*
X237127Y191128D01*
X237978Y190276D01*
X239022Y189674D01*
X240185Y189362D01*
X241390D01*
X242553Y189674D01*
X243596Y190276D01*
X244448Y191128D01*
X245050Y192171D01*
X245362Y193335D01*
Y194539D01*
X245050Y195703D01*
X244448Y196746D01*
X243596Y197598D01*
X242553Y198200D01*
X241390Y198512D01*
D02*
G37*
G36*
X231390D02*
X230185D01*
X229022Y198200D01*
X227978Y197598D01*
X227127Y196746D01*
X226524Y195703D01*
X226213Y194539D01*
Y193335D01*
X226524Y192171D01*
X227127Y191128D01*
X227978Y190276D01*
X229022Y189674D01*
X230185Y189362D01*
X231390D01*
X232553Y189674D01*
X233596Y190276D01*
X234448Y191128D01*
X235050Y192171D01*
X235362Y193335D01*
Y194539D01*
X235050Y195703D01*
X234448Y196746D01*
X233596Y197598D01*
X232553Y198200D01*
X231390Y198512D01*
D02*
G37*
G36*
X387864Y215158D02*
X385757D01*
X383677Y214828D01*
X381673Y214177D01*
X379795Y213220D01*
X378091Y211982D01*
X376601Y210492D01*
X375362Y208787D01*
X374406Y206910D01*
X373755Y204906D01*
X373425Y202825D01*
Y200718D01*
X373755Y198637D01*
X374406Y196633D01*
X375362Y194756D01*
X376601Y193051D01*
X378091Y191561D01*
X379795Y190323D01*
X381673Y189366D01*
X383677Y188715D01*
X385757Y188386D01*
X387864D01*
X389946Y188715D01*
X391949Y189366D01*
X393827Y190323D01*
X395531Y191561D01*
X397021Y193051D01*
X398260Y194756D01*
X399216Y196633D01*
X399867Y198637D01*
X400197Y200718D01*
Y202825D01*
X399867Y204906D01*
X399216Y206910D01*
X398260Y208787D01*
X397021Y210492D01*
X395531Y211982D01*
X393827Y213220D01*
X391949Y214177D01*
X389946Y214828D01*
X387864Y215158D01*
D02*
G37*
G36*
X147707D02*
X145600D01*
X143519Y214828D01*
X141515Y214177D01*
X139638Y213220D01*
X137933Y211982D01*
X136443Y210492D01*
X135205Y208787D01*
X134248Y206910D01*
X133597Y204906D01*
X133268Y202825D01*
Y200718D01*
X133597Y198637D01*
X134248Y196633D01*
X135205Y194756D01*
X136443Y193051D01*
X137933Y191561D01*
X139638Y190323D01*
X141515Y189366D01*
X143519Y188715D01*
X145600Y188386D01*
X147707D01*
X149788Y188715D01*
X151792Y189366D01*
X153669Y190323D01*
X155374Y191561D01*
X156864Y193051D01*
X158102Y194756D01*
X159059Y196633D01*
X159710Y198637D01*
X160039Y200718D01*
Y202825D01*
X159710Y204906D01*
X159059Y206910D01*
X158102Y208787D01*
X156864Y210492D01*
X155374Y211982D01*
X153669Y213220D01*
X151792Y214177D01*
X149788Y214828D01*
X147707Y215158D01*
D02*
G37*
G36*
X215313Y191142D02*
X214608D01*
X213957Y190872D01*
X213459Y190374D01*
X213189Y189723D01*
Y189018D01*
X213459Y188366D01*
X213957Y187868D01*
X214608Y187598D01*
X215313D01*
X215964Y187868D01*
X216463Y188366D01*
X216732Y189018D01*
Y189723D01*
X216463Y190374D01*
X215964Y190872D01*
X215313Y191142D01*
D02*
G37*
%LPD*%
D87*
X146654Y321850D02*
D03*
X386811Y201772D02*
D03*
Y321850D02*
D03*
X146654Y201772D02*
D03*
D88*
X331693Y292323D02*
D03*
X351378D02*
D03*
D89*
X363189Y331693D02*
D03*
X319882D02*
D03*
D107*
X332874Y225984D02*
D03*
X343110Y274410D02*
D03*
X328543Y278150D02*
D03*
X294685Y276772D02*
D03*
X286221Y272441D02*
D03*
X235630Y306299D02*
D03*
X232874Y312992D02*
D03*
X274803Y313189D02*
D03*
X276534Y310827D02*
D03*
X235630Y309055D02*
D03*
Y312795D02*
D03*
X201575Y314341D02*
D03*
X216929Y314961D02*
D03*
X265748Y306225D02*
D03*
X251969D02*
D03*
X354712Y283441D02*
D03*
X212193Y305488D02*
D03*
X152953Y287205D02*
D03*
X146445Y287181D02*
D03*
X338177Y194071D02*
D03*
X269279Y279307D02*
D03*
X291523Y249386D02*
D03*
X177756Y265551D02*
D03*
X191130Y278520D02*
D03*
X196653Y278543D02*
D03*
X203216Y215902D02*
D03*
X208465Y210433D02*
D03*
X279906Y220499D02*
D03*
X368701Y205118D02*
D03*
X283252Y257901D02*
D03*
X311795Y261247D02*
D03*
X303921Y267350D02*
D03*
X359433Y251995D02*
D03*
X262992Y237992D02*
D03*
X268307Y244291D02*
D03*
X340748Y204372D02*
D03*
X181496Y255118D02*
D03*
X213386Y259842D02*
D03*
X231890Y254921D02*
D03*
X215945Y253937D02*
D03*
X214961Y189370D02*
D03*
X211417Y188779D02*
D03*
X176181Y242520D02*
D03*
X163386Y242717D02*
D03*
X178771Y239007D02*
D03*
X170046Y231890D02*
D03*
X179104Y228987D02*
D03*
Y234252D02*
D03*
X176181Y249410D02*
D03*
X286417Y309842D02*
D03*
X232874Y263189D02*
D03*
Y269094D02*
D03*
X276378Y233268D02*
D03*
X296850Y217323D02*
D03*
X296654Y225197D02*
D03*
X284449Y208465D02*
D03*
X325787Y194685D02*
D03*
X312008D02*
D03*
X298228D02*
D03*
X284449D02*
D03*
X332677Y201772D02*
D03*
X318898D02*
D03*
X305118D02*
D03*
X291339D02*
D03*
X277559D02*
D03*
X296063Y253937D02*
D03*
X327362Y256890D02*
D03*
X320669D02*
D03*
X313976D02*
D03*
X307283D02*
D03*
X300590D02*
D03*
X278590Y244350D02*
D03*
X245579Y324730D02*
D03*
X286221Y312598D02*
D03*
X294882Y310827D02*
D03*
X296260Y321850D02*
D03*
X290876Y324206D02*
D03*
X253459Y316675D02*
D03*
X261024Y327953D02*
D03*
X271654Y318898D02*
D03*
X261024Y318110D02*
D03*
X353822Y220604D02*
D03*
X163344Y261274D02*
D03*
X193898Y278346D02*
D03*
X189370Y291339D02*
D03*
X280709Y217913D02*
D03*
X332895Y228564D02*
D03*
X333465Y223311D02*
D03*
X267717Y225984D02*
D03*
X375787Y230315D02*
D03*
X374803Y223622D02*
D03*
X358661Y218898D02*
D03*
X353740Y224213D02*
D03*
X247244Y219882D02*
D03*
X244882D02*
D03*
X249606D02*
D03*
X242520D02*
D03*
X332677Y236614D02*
D03*
Y243701D02*
D03*
X280512Y257874D02*
D03*
X340398Y213469D02*
D03*
X269488Y211221D02*
D03*
X245864Y215303D02*
D03*
X248209Y209328D02*
D03*
X263189Y209252D02*
D03*
X233465Y209055D02*
D03*
X243500Y209364D02*
D03*
X222441Y210827D02*
D03*
X223622Y204331D02*
D03*
X226969Y251969D02*
D03*
X204528Y233268D02*
D03*
X216024Y225546D02*
D03*
X182087Y271457D02*
D03*
X186811Y276378D02*
D03*
X156141Y246082D02*
D03*
X142873Y246471D02*
D03*
X262598Y252559D02*
D03*
X252953Y253937D02*
D03*
X250000D02*
D03*
X256299Y253740D02*
D03*
X257677Y251378D02*
D03*
X255209Y251174D02*
D03*
X252736Y251305D02*
D03*
X250096Y251373D02*
D03*
X259449Y253543D02*
D03*
X179134Y241929D02*
D03*
X236041Y235631D02*
D03*
X276969Y278346D02*
D03*
X200197Y229331D02*
D03*
X188976Y305709D02*
D03*
X183858Y298622D02*
D03*
X182087Y279528D02*
D03*
X204724Y282087D02*
D03*
X376181Y215945D02*
D03*
X230512Y235433D02*
D03*
X224803Y242126D02*
D03*
X225197Y233268D02*
D03*
X182480Y288976D02*
D03*
X174213Y269291D02*
D03*
X206693Y231299D02*
D03*
X208661Y244488D02*
D03*
X204331Y244882D02*
D03*
X206693Y247244D02*
D03*
X204134Y238386D02*
D03*
X208465Y240551D02*
D03*
X229446Y253884D02*
D03*
X196876Y243352D02*
D03*
X224606Y230512D02*
D03*
X213386Y225590D02*
D03*
X222441Y227756D02*
D03*
X220866Y271063D02*
D03*
X225394Y249606D02*
D03*
X149606Y287402D02*
D03*
X191374Y237805D02*
D03*
X219882Y225787D02*
D03*
X256093Y235631D02*
D03*
X246067Y235631D02*
D03*
X178904Y247245D02*
D03*
Y244768D02*
D03*
X190157Y230315D02*
D03*
X239370Y252165D02*
D03*
X247638D02*
D03*
X342469Y296478D02*
D03*
X189185Y326877D02*
D03*
X198425Y326772D02*
D03*
X193701D02*
D03*
X184646D02*
D03*
X196457Y324803D02*
D03*
X191732D02*
D03*
X186614D02*
D03*
X178740Y250394D02*
D03*
X181890Y324803D02*
D03*
X386811Y211024D02*
D03*
X377559Y201772D02*
D03*
X386811Y192520D02*
D03*
X396063Y201772D02*
D03*
X393110Y208268D02*
D03*
X380118D02*
D03*
Y195276D02*
D03*
X393110D02*
D03*
X386811Y331102D02*
D03*
X377559Y321850D02*
D03*
X386811Y312598D02*
D03*
X396063Y321850D02*
D03*
X393110Y328346D02*
D03*
X380118D02*
D03*
Y315354D02*
D03*
X393110D02*
D03*
X146654Y211024D02*
D03*
X137402Y201772D02*
D03*
X146654Y192520D02*
D03*
X155905Y201772D02*
D03*
X152953Y208268D02*
D03*
X139961D02*
D03*
Y195276D02*
D03*
X152953D02*
D03*
Y315354D02*
D03*
X139961D02*
D03*
Y328346D02*
D03*
X152953D02*
D03*
X155905Y321850D02*
D03*
X146654Y312598D02*
D03*
X137402Y321850D02*
D03*
X146654Y331102D02*
D03*
X191329Y248854D02*
D03*
X194648Y256299D02*
D03*
X192126Y256299D02*
D03*
X353346Y212598D02*
D03*
X320866Y262795D02*
D03*
X159449Y238189D02*
D03*
X201240Y287402D02*
D03*
X245821Y198764D02*
D03*
X269685Y190945D02*
D03*
Y204724D02*
D03*
X329724Y259842D02*
D03*
X196592Y259384D02*
D03*
X193273Y259428D02*
D03*
X189961Y268701D02*
D03*
X200591Y270276D02*
D03*
X172244Y272638D02*
D03*
Y286417D02*
D03*
X164173Y286221D02*
D03*
X164370Y293307D02*
D03*
X165354Y304134D02*
D03*
X171260Y301181D02*
D03*
X159251Y298307D02*
D03*
X367126Y192913D02*
D03*
X396654Y333661D02*
D03*
X379921Y335630D02*
D03*
X370079D02*
D03*
X356299D02*
D03*
X342520D02*
D03*
X328740D02*
D03*
X308071D02*
D03*
X305118Y328740D02*
D03*
X272933Y299843D02*
D03*
X279528Y307087D02*
D03*
X232283Y298099D02*
D03*
X226378Y304134D02*
D03*
X193898Y200787D02*
D03*
X164370Y204724D02*
D03*
Y193898D02*
D03*
X209646Y316929D02*
D03*
X216136Y321865D02*
D03*
X163386Y325787D02*
D03*
X161417Y313976D02*
D03*
X139764Y299213D02*
D03*
X146653Y306102D02*
D03*
X263779Y187992D02*
D03*
X277559D02*
D03*
X291339D02*
D03*
X305118D02*
D03*
X318898D02*
D03*
X332677D02*
D03*
X346457D02*
D03*
X360236D02*
D03*
X374016D02*
D03*
X396654Y189961D02*
D03*
X312008Y279528D02*
D03*
X318898Y287402D02*
D03*
X312008Y293307D02*
D03*
X318898Y301181D02*
D03*
X312008Y307087D02*
D03*
Y322835D02*
D03*
X305118Y314961D02*
D03*
X283465Y329724D02*
D03*
X276575Y335630D02*
D03*
X290354D02*
D03*
X179921Y326772D02*
D03*
X238189Y329724D02*
D03*
X246063Y335630D02*
D03*
X229978Y335676D02*
D03*
X216136Y335645D02*
D03*
X202756Y335630D02*
D03*
X188976D02*
D03*
X175197D02*
D03*
X159449D02*
D03*
X134843Y331693D02*
D03*
X132874Y306102D02*
D03*
Y292323D02*
D03*
Y278543D02*
D03*
X205675Y187994D02*
D03*
X195866Y187992D02*
D03*
X156496D02*
D03*
X135827Y190945D02*
D03*
X132874Y250984D02*
D03*
Y223425D02*
D03*
Y237205D02*
D03*
Y209646D02*
D03*
X153543Y216535D02*
D03*
X160287Y211301D02*
D03*
X168110Y215354D02*
D03*
X173601Y210826D02*
D03*
X155118Y270079D02*
D03*
X144095D02*
D03*
X141905Y232844D02*
D03*
X159635Y222847D02*
D03*
X143307Y223622D02*
D03*
X155905Y227953D02*
D03*
X149606D02*
D03*
X381890Y216535D02*
D03*
X244882Y252165D02*
D03*
X271654Y253937D02*
D03*
X271575Y268807D02*
D03*
X265748Y261811D02*
D03*
X374016Y236221D02*
D03*
Y263779D02*
D03*
Y248031D02*
D03*
Y330709D02*
D03*
X370079Y322835D02*
D03*
X371972Y289266D02*
D03*
X362205Y287402D02*
D03*
X377953Y295276D02*
D03*
X374016Y307087D02*
D03*
X366142Y299213D02*
D03*
X342520Y307087D02*
D03*
X350394Y303150D02*
D03*
X358268Y322835D02*
D03*
X350394Y314961D02*
D03*
X366142D02*
D03*
X358268Y307087D02*
D03*
X334646Y330709D02*
D03*
X350394D02*
D03*
X342520Y322835D02*
D03*
X326772D02*
D03*
X318898Y314961D02*
D03*
X334646D02*
D03*
X326772Y307087D02*
D03*
X389764D02*
D03*
X397638Y311024D02*
D03*
Y303150D02*
D03*
X381890D02*
D03*
X397638Y212598D02*
D03*
X389764Y216535D02*
D03*
X397638Y224410D02*
D03*
X381890D02*
D03*
X389764Y279528D02*
D03*
X397638Y287402D02*
D03*
X381890D02*
D03*
Y271654D02*
D03*
X397638D02*
D03*
X389764Y295276D02*
D03*
Y232283D02*
D03*
Y263779D02*
D03*
X381890Y255906D02*
D03*
X397638D02*
D03*
Y240158D02*
D03*
X381890D02*
D03*
X389764Y248031D02*
D03*
X261024Y335039D02*
D03*
X176772Y252559D02*
D03*
X209449Y274410D02*
D03*
X234252Y279134D02*
D03*
X225590Y278346D02*
D03*
X216535Y279134D02*
D03*
X261811Y275590D02*
D03*
X241732D02*
D03*
X331890Y251772D02*
D03*
X348031Y191732D02*
D03*
X360630Y201181D02*
D03*
X364370Y237795D02*
D03*
Y246850D02*
D03*
X367717Y255118D02*
D03*
X362205Y261024D02*
D03*
X377165Y281102D02*
D03*
X369291D02*
D03*
X315354Y270866D02*
D03*
X311811D02*
D03*
X308268D02*
D03*
X294094Y267323D02*
D03*
X292520Y290158D02*
D03*
X292597Y297708D02*
D03*
X261417Y283465D02*
D03*
X252362D02*
D03*
X243307D02*
D03*
X261024Y291339D02*
D03*
X251969D02*
D03*
X243307D02*
D03*
X227165Y319291D02*
D03*
X172441D02*
D03*
X208268Y287402D02*
D03*
X204724D02*
D03*
X225629Y263482D02*
D03*
X182283Y196850D02*
D03*
X177953D02*
D03*
X171260Y187992D02*
D03*
X182087D02*
D03*
X188583Y207087D02*
D03*
X181496D02*
D03*
X174409Y219685D02*
D03*
X135039Y264567D02*
D03*
X164173Y272441D02*
D03*
Y264961D02*
D03*
X135039Y272047D02*
D03*
X134252Y243307D02*
D03*
X146063Y228346D02*
D03*
X152756Y246063D02*
D03*
X149606Y245965D02*
D03*
X146457Y246063D02*
D03*
X153543Y263386D02*
D03*
X149606D02*
D03*
X145669D02*
D03*
X165354Y259055D02*
D03*
X186614Y273228D02*
D03*
X176378D02*
D03*
X183858Y269291D02*
D03*
X186614Y258268D02*
D03*
X184138D02*
D03*
X183679Y230876D02*
D03*
X186723Y230671D02*
D03*
X185827Y243307D02*
D03*
X361417Y264961D02*
D03*
X208661Y212992D02*
D03*
X205791Y215748D02*
D03*
X197638Y256299D02*
D03*
X185039Y222047D02*
D03*
X294882Y274016D02*
D03*
X304724Y285039D02*
D03*
X233071Y266142D02*
D03*
X192126Y212205D02*
D03*
X242126Y252165D02*
D03*
X171260Y206299D02*
D03*
X152756Y227953D02*
D03*
D108*
X260787Y193937D02*
D03*
X250787D02*
D03*
X240787D02*
D03*
X230787D02*
D03*
X260787Y203937D02*
D03*
X250787D02*
D03*
X240787D02*
D03*
X260787Y213937D02*
D03*
X250787D02*
D03*
X240787D02*
D03*
X230787Y203937D02*
D03*
Y213937D02*
D03*
M02*
