M48
;Layer_Color=9474304
;FILE_FORMAT=2:4
INCH,TZ
;TYPE=PLATED
T1F00S00C0.0118
T2F00S00C0.0394
T3F00S00C0.0522
T4F00S00C0.0945
%
T01
X1575Y3346
X4134
X6693
X9252
X9370Y8228
X8602Y9222
X7785Y8730
X10827Y8622
X5413Y5906
X3425Y6732
X1791Y6722
X1575Y8465
X1781Y13209
Y15148
X984Y15226
Y16220
X2614Y15227
X4134Y13583
X6693
X7972Y16142
X10531
X10532Y17215
Y13376
Y12382
X5413Y11024
Y16142
X4134Y18701
X6693
X1575
T02
X2604Y5724
Y6724
Y7724
Y8724
Y9724
Y10724
X8604
Y9724
Y8724
Y7724
Y6724
Y5724
Y11724
X8602Y12723
Y13724
Y14723
Y15723
Y16723
Y17723
Y18723
Y19723
X10532Y18717
Y17717
Y16717
Y14878
Y13878
Y12878
X2602Y12723
X2604Y11724
X2602Y13724
Y14723
Y15723
Y16723
Y17723
Y18723
Y19723
X984Y16724
Y15724
Y14724
Y13724
T03
X4604Y2122
X6572
T04
X787Y787
X11024
Y20866
X787
M30
