G04*
G04 #@! TF.GenerationSoftware,Altium Limited,Altium Designer,21.6.4 (81)*
G04*
G04 Layer_Color=16711935*
%FSLAX25Y25*%
%MOIN*%
G70*
G04*
G04 #@! TF.SameCoordinates,4A2346EC-D30A-4EC8-B750-871CECD4BB15*
G04*
G04*
G04 #@! TF.FilePolarity,Positive*
G04*
G01*
G75*
%ADD29C,0.00394*%
D29*
X110236Y0D02*
X111264Y67D01*
X112274Y268D01*
X113250Y599D01*
X114173Y1055D01*
X115030Y1627D01*
X115804Y2306D01*
X116483Y3081D01*
X117055Y3937D01*
X117511Y4861D01*
X117842Y5836D01*
X118043Y6846D01*
X118110Y7874D01*
Y208661D02*
X118043Y209689D01*
X117842Y210699D01*
X117511Y211675D01*
X117055Y212598D01*
X116483Y213455D01*
X115804Y214229D01*
X115030Y214908D01*
X114173Y215480D01*
X113250Y215936D01*
X112274Y216267D01*
X111264Y216468D01*
X110236Y216535D01*
X7874D02*
X6846Y216468D01*
X5836Y216267D01*
X4861Y215936D01*
X3937Y215480D01*
X3081Y214908D01*
X2306Y214229D01*
X1627Y213455D01*
X1055Y212598D01*
X599Y211675D01*
X268Y210699D01*
X67Y209689D01*
X0Y208661D01*
Y7874D02*
X67Y6846D01*
X268Y5836D01*
X599Y4861D01*
X1055Y3937D01*
X1627Y3081D01*
X2306Y2306D01*
X3081Y1627D01*
X3937Y1055D01*
X4861Y599D01*
X5836Y268D01*
X6846Y67D01*
X7874Y0D01*
X110236D01*
X118110Y7874D02*
X118110Y208661D01*
X7874Y216535D02*
X110236D01*
X0Y208661D02*
X0Y7874D01*
M02*
