G04*
G04 #@! TF.GenerationSoftware,Altium Limited,Altium Designer,21.6.4 (81)*
G04*
G04 Layer_Color=32896*
%FSLAX25Y25*%
%MOIN*%
G70*
G04*
G04 #@! TF.SameCoordinates,4A2346EC-D30A-4EC8-B750-871CECD4BB15*
G04*
G04*
G04 #@! TF.FilePolarity,Positive*
G04*
G01*
G75*
%ADD13C,0.00591*%
%ADD28C,0.00800*%
D13*
X67783Y12663D02*
X68308Y13188D01*
X69357D01*
X69882Y12663D01*
Y10564D01*
X69357Y10039D01*
X68308D01*
X67783Y10564D01*
Y11614D01*
X68832D01*
X66733Y10039D02*
Y13188D01*
X64634Y10039D01*
Y13188D01*
X63585D02*
Y10039D01*
X62010D01*
X61486Y10564D01*
Y12663D01*
X62010Y13188D01*
X63585D01*
X46523D02*
X48622D01*
Y11614D01*
X47572Y12138D01*
X47048D01*
X46523Y11614D01*
Y10564D01*
X47048Y10039D01*
X48097D01*
X48622Y10564D01*
X45474Y13188D02*
Y11089D01*
X44424Y10039D01*
X43374Y11089D01*
Y13188D01*
D28*
X10314Y176452D02*
X12979D01*
Y174453D01*
X11647Y175119D01*
X10980D01*
X10314Y174453D01*
Y173120D01*
X10980Y172453D01*
X12313D01*
X12979Y173120D01*
X8981Y176452D02*
Y173786D01*
X7648Y172453D01*
X6315Y173786D01*
Y176452D01*
M02*
