G04*
G04 #@! TF.GenerationSoftware,Altium Limited,Altium Designer,21.6.4 (81)*
G04*
G04 Layer_Physical_Order=1*
G04 Layer_Color=255*
%FSLAX25Y25*%
%MOIN*%
G70*
G04*
G04 #@! TF.SameCoordinates,4A2346EC-D30A-4EC8-B750-871CECD4BB15*
G04*
G04*
G04 #@! TF.FilePolarity,Positive*
G04*
G01*
G75*
%ADD10C,0.02000*%
G04:AMPARAMS|DCode=15|XSize=43.31mil|YSize=39.37mil|CornerRadius=2.95mil|HoleSize=0mil|Usage=FLASHONLY|Rotation=0.000|XOffset=0mil|YOffset=0mil|HoleType=Round|Shape=RoundedRectangle|*
%AMROUNDEDRECTD15*
21,1,0.04331,0.03347,0,0,0.0*
21,1,0.03740,0.03937,0,0,0.0*
1,1,0.00591,0.01870,-0.01673*
1,1,0.00591,-0.01870,-0.01673*
1,1,0.00591,-0.01870,0.01673*
1,1,0.00591,0.01870,0.01673*
%
%ADD15ROUNDEDRECTD15*%
%ADD21C,0.01500*%
%ADD22C,0.02756*%
%ADD23R,0.11874X0.05937*%
%ADD24O,0.11874X0.05937*%
%ADD25C,0.09055*%
%ADD26C,0.02362*%
G36*
X111575Y215390D02*
X112862Y214999D01*
X114048Y214366D01*
X115087Y213512D01*
X115940Y212473D01*
X116574Y211287D01*
X116965Y210000D01*
X117096Y208670D01*
X117094Y208661D01*
X117094Y94903D01*
X116594Y94751D01*
X116439Y94983D01*
X116077Y95225D01*
X115777Y95284D01*
X115762Y95309D01*
X115715Y95428D01*
X115668Y95608D01*
X115629Y95846D01*
X115615Y96015D01*
Y119488D01*
Y175231D01*
X115475Y175933D01*
X115077Y176529D01*
X113613Y177993D01*
X113017Y178391D01*
X112315Y178531D01*
X111797D01*
X111575Y179066D01*
X110971Y179853D01*
X110184Y180457D01*
X109267Y180837D01*
X108283Y180966D01*
X102347D01*
X101363Y180837D01*
X100446Y180457D01*
X99659Y179853D01*
X99055Y179066D01*
X98675Y178149D01*
X98545Y177165D01*
X98675Y176182D01*
X99055Y175265D01*
X99659Y174478D01*
X100446Y173874D01*
X101363Y173494D01*
X102347Y173364D01*
X108283D01*
X109267Y173494D01*
X110184Y173874D01*
X110971Y174478D01*
X111082Y174622D01*
X111604Y174661D01*
X111944Y174337D01*
Y169406D01*
X111444Y169237D01*
X110971Y169853D01*
X110184Y170457D01*
X109267Y170837D01*
X108283Y170966D01*
X105715D01*
Y167165D01*
Y163364D01*
X108283D01*
X109267Y163494D01*
X110184Y163874D01*
X110971Y164478D01*
X111444Y165094D01*
X111944Y164924D01*
Y152548D01*
X98578D01*
Y150360D01*
X98489Y150336D01*
X98332Y150310D01*
X98224Y150301D01*
X97997D01*
X97053Y151245D01*
Y175787D01*
X96933Y176392D01*
X96590Y176905D01*
X95151Y178344D01*
X94639Y178686D01*
X94034Y178806D01*
X92934D01*
X92780Y178818D01*
X92565Y178847D01*
X92403Y178883D01*
X92379Y178891D01*
X92281Y179127D01*
X91677Y179914D01*
X90890Y180518D01*
X89973Y180898D01*
X88990Y181027D01*
X83053D01*
X82069Y180898D01*
X81152Y180518D01*
X80365Y179914D01*
X79761Y179127D01*
X79381Y178210D01*
X79252Y177226D01*
X79381Y176242D01*
X79761Y175326D01*
X80365Y174538D01*
X81152Y173934D01*
X82069Y173555D01*
X83053Y173425D01*
X88990D01*
X89973Y173555D01*
X90890Y173934D01*
X91677Y174538D01*
X92281Y175326D01*
X92379Y175562D01*
X92403Y175570D01*
X92552Y175602D01*
X92976Y175646D01*
X93379D01*
X93892Y175133D01*
Y150591D01*
X94012Y149986D01*
X94355Y149473D01*
X96225Y147603D01*
X96738Y147260D01*
X97342Y147140D01*
X98224D01*
X98332Y147131D01*
X98489Y147105D01*
X98578Y147081D01*
Y145011D01*
X111944D01*
Y141021D01*
X111444Y140851D01*
X110971Y141467D01*
X110184Y142071D01*
X109267Y142451D01*
X108283Y142580D01*
X102347D01*
X101363Y142451D01*
X100446Y142071D01*
X99659Y141467D01*
X99055Y140680D01*
X98706Y139837D01*
X98606Y139817D01*
X98010Y139420D01*
X96030Y137439D01*
X95632Y136844D01*
X95493Y136142D01*
Y126951D01*
X95518Y126826D01*
X95493Y126701D01*
Y112099D01*
X95482Y112004D01*
X95448Y111825D01*
X95402Y111666D01*
X95346Y111527D01*
X95281Y111404D01*
X95207Y111295D01*
X95123Y111196D01*
X95025Y111105D01*
X94878Y110995D01*
X94871Y110988D01*
X94781Y110927D01*
X94677Y110772D01*
X94665Y110759D01*
X94662Y110749D01*
X94539Y110565D01*
X94454Y110138D01*
Y106791D01*
X94539Y106364D01*
X94781Y106002D01*
X95144Y105760D01*
X95571Y105675D01*
X99311D01*
X99738Y105760D01*
X100101Y106002D01*
X100343Y106364D01*
X100428Y106791D01*
Y110138D01*
X100343Y110565D01*
X100101Y110927D01*
X99738Y111170D01*
X99322Y111252D01*
X99309Y111273D01*
X99263Y111387D01*
X99216Y111563D01*
X99178Y111797D01*
X99163Y111965D01*
Y114123D01*
X99625Y114315D01*
X101019Y112921D01*
Y96020D01*
X101005Y95851D01*
X100966Y95617D01*
X100919Y95440D01*
X100873Y95326D01*
X100860Y95305D01*
X100459Y95225D01*
X100096Y94983D01*
X99854Y94620D01*
X99769Y94193D01*
X99276Y94210D01*
Y98670D01*
X99291Y98839D01*
X99329Y99077D01*
X99376Y99257D01*
X99423Y99376D01*
X99438Y99401D01*
X99738Y99460D01*
X100101Y99703D01*
X100343Y100065D01*
X100428Y100492D01*
Y103839D01*
X100343Y104266D01*
X100101Y104628D01*
X99738Y104870D01*
X99311Y104955D01*
X95571D01*
X95144Y104870D01*
X94781Y104628D01*
X94539Y104266D01*
X94454Y103839D01*
Y100492D01*
X94539Y100065D01*
X94781Y99703D01*
X95144Y99460D01*
X95444Y99401D01*
X95458Y99376D01*
X95505Y99257D01*
X95553Y99077D01*
X95591Y98839D01*
X95606Y98670D01*
Y86784D01*
X92982Y84161D01*
X92928Y84150D01*
X92882Y84119D01*
X91861D01*
X91743Y84619D01*
X92300Y85344D01*
X92679Y86260D01*
X92756Y86844D01*
X86039D01*
X79322D01*
X79399Y86260D01*
X79779Y85344D01*
X80335Y84619D01*
X80217Y84119D01*
X62177D01*
X57754Y88542D01*
X57159Y88940D01*
X56457Y89079D01*
X33181D01*
X32932Y89096D01*
X32595Y89139D01*
X32326Y89194D01*
X32242Y89220D01*
X31696Y89932D01*
X30908Y90536D01*
X29992Y90916D01*
X29008Y91045D01*
X23071D01*
X23025Y91039D01*
X22841Y91142D01*
X22596Y91308D01*
X22065Y91751D01*
X19650Y94166D01*
Y94690D01*
X20150Y94860D01*
X20383Y94556D01*
X21170Y93952D01*
X22087Y93573D01*
X23071Y93443D01*
X29008D01*
X29992Y93573D01*
X30908Y93952D01*
X31696Y94556D01*
X32300Y95344D01*
X32679Y96260D01*
X32809Y97244D01*
X32679Y98228D01*
X32300Y99145D01*
X31696Y99932D01*
X30908Y100536D01*
X29992Y100916D01*
X29008Y101045D01*
X23071D01*
X22087Y100916D01*
X21170Y100536D01*
X20383Y99932D01*
X20150Y99628D01*
X19650Y99798D01*
Y104690D01*
X20150Y104860D01*
X20383Y104556D01*
X21170Y103952D01*
X22087Y103573D01*
X23071Y103443D01*
X29008D01*
X29992Y103573D01*
X30908Y103952D01*
X31696Y104556D01*
X32300Y105344D01*
X32679Y106260D01*
X32809Y107244D01*
X32679Y108228D01*
X32300Y109145D01*
X31696Y109932D01*
X30908Y110536D01*
X29992Y110916D01*
X29008Y111045D01*
X23071D01*
X22087Y110916D01*
X21170Y110536D01*
X20383Y109932D01*
X20150Y109628D01*
X19650Y109798D01*
Y114690D01*
X20150Y114860D01*
X20383Y114556D01*
X21170Y113952D01*
X22087Y113573D01*
X23071Y113443D01*
X29008D01*
X29992Y113573D01*
X30908Y113952D01*
X31696Y114556D01*
X32300Y115344D01*
X32679Y116260D01*
X32809Y117244D01*
X32679Y118228D01*
X32300Y119145D01*
X31696Y119932D01*
X30908Y120536D01*
X29992Y120916D01*
X29008Y121045D01*
X23071D01*
X22087Y120916D01*
X21170Y120536D01*
X20383Y119932D01*
X20150Y119628D01*
X19650Y119798D01*
Y124647D01*
X20150Y124817D01*
X20365Y124538D01*
X21152Y123933D01*
X22069Y123554D01*
X23053Y123424D01*
X28990D01*
X29973Y123554D01*
X30890Y123933D01*
X31677Y124538D01*
X32281Y125325D01*
X32661Y126241D01*
X32791Y127225D01*
X32661Y128209D01*
X32281Y129126D01*
X31677Y129913D01*
X30890Y130517D01*
X29973Y130897D01*
X28990Y131026D01*
X23053D01*
X22069Y130897D01*
X21152Y130517D01*
X20365Y129913D01*
X20150Y129633D01*
X19650Y129803D01*
Y131267D01*
X19681Y131314D01*
X19835Y132087D01*
X19681Y132860D01*
X19243Y133515D01*
X18588Y133953D01*
X17815Y134107D01*
X17042Y133953D01*
X16387Y133515D01*
X15949Y132860D01*
X15795Y132087D01*
X15949Y131314D01*
X15980Y131267D01*
Y93405D01*
X16119Y92703D01*
X16517Y92108D01*
X19160Y89465D01*
X19317Y89284D01*
X19510Y89032D01*
X19642Y88827D01*
X19645Y88821D01*
X19399Y88228D01*
X19270Y87244D01*
X19399Y86260D01*
X19779Y85344D01*
X20383Y84556D01*
X21170Y83952D01*
X22087Y83573D01*
X23071Y83443D01*
X29008D01*
X29992Y83573D01*
X30908Y83952D01*
X31696Y84556D01*
X32242Y85268D01*
X32326Y85294D01*
X32583Y85347D01*
X33235Y85409D01*
X55696D01*
X60120Y80986D01*
X60715Y80588D01*
X61417Y80448D01*
X80278D01*
X80439Y79975D01*
X80383Y79932D01*
X79779Y79145D01*
X79399Y78228D01*
X79270Y77244D01*
X79399Y76260D01*
X79779Y75344D01*
X80383Y74556D01*
X81170Y73952D01*
X82087Y73573D01*
X83071Y73443D01*
X89008D01*
X89992Y73573D01*
X90908Y73952D01*
X91696Y74556D01*
X92300Y75344D01*
X92679Y76260D01*
X92809Y77244D01*
X92679Y78228D01*
X92300Y79145D01*
X91696Y79932D01*
X91640Y79975D01*
X91800Y80448D01*
X92882D01*
X92928Y80417D01*
X93701Y80264D01*
X94474Y80417D01*
X95129Y80855D01*
X95567Y81511D01*
X95578Y81565D01*
X98739Y84726D01*
X99137Y85321D01*
X99276Y86024D01*
X99769Y86006D01*
Y84547D01*
X99854Y84120D01*
X100096Y83758D01*
X100459Y83516D01*
X100759Y83456D01*
X100773Y83431D01*
X100821Y83312D01*
X100868Y83132D01*
X100906Y82894D01*
X100921Y82725D01*
Y45717D01*
X100892Y45460D01*
X100834Y45153D01*
X100752Y44858D01*
X100648Y44574D01*
X100521Y44299D01*
X100370Y44033D01*
X100194Y43775D01*
X100033Y43573D01*
X98649Y42190D01*
X54134D01*
X53431Y42050D01*
X52836Y41652D01*
X44738Y33554D01*
X44340Y32958D01*
X44200Y32256D01*
Y28079D01*
X44153Y27816D01*
X44068Y27524D01*
X43944Y27214D01*
X43779Y26888D01*
X43571Y26545D01*
X43326Y26197D01*
X42674Y25424D01*
X42409Y25153D01*
X42236Y25020D01*
X41382Y23907D01*
X40845Y22611D01*
X40662Y21220D01*
X40845Y19830D01*
X41382Y18534D01*
X42236Y17421D01*
X43349Y16567D01*
X44645Y16030D01*
X46035Y15847D01*
X47426Y16030D01*
X48722Y16567D01*
X49835Y17421D01*
X50689Y18534D01*
X51226Y19830D01*
X51409Y21220D01*
X51226Y22611D01*
X50689Y23907D01*
X49835Y25020D01*
X49662Y25153D01*
X49389Y25432D01*
X49048Y25816D01*
X48751Y26187D01*
X48499Y26545D01*
X48292Y26888D01*
X48127Y27214D01*
X48003Y27524D01*
X47918Y27816D01*
X47871Y28079D01*
Y31496D01*
X54894Y38519D01*
X99410D01*
X100112Y38659D01*
X100707Y39057D01*
X104054Y42403D01*
X104054Y42403D01*
X115077Y53427D01*
X115475Y54022D01*
X115615Y54724D01*
Y82725D01*
X115629Y82894D01*
X115668Y83132D01*
X115715Y83312D01*
X115762Y83431D01*
X115777Y83456D01*
X116077Y83516D01*
X116439Y83758D01*
X116594Y83989D01*
X117094Y83837D01*
Y7874D01*
X117096Y7865D01*
X116965Y6536D01*
X116574Y5249D01*
X115940Y4063D01*
X115087Y3023D01*
X114048Y2170D01*
X112862Y1536D01*
X111575Y1146D01*
X110245Y1015D01*
X110236Y1016D01*
X7874D01*
X7865Y1015D01*
X6536Y1146D01*
X5249Y1536D01*
X4063Y2170D01*
X3023Y3023D01*
X2170Y4063D01*
X1536Y5249D01*
X1146Y6536D01*
X1015Y7865D01*
X1016Y7874D01*
X1016Y208163D01*
X1016Y208170D01*
X1016Y208661D01*
X1061Y209143D01*
X1146Y210000D01*
X1536Y211287D01*
X2170Y212473D01*
X3023Y213512D01*
X4063Y214366D01*
X5249Y214999D01*
X6536Y215390D01*
X7865Y215521D01*
X7874Y215519D01*
X110236D01*
X110245Y215521D01*
X111575Y215390D01*
D02*
G37*
G36*
X91548Y178579D02*
X91602Y178453D01*
X91694Y178341D01*
X91821Y178244D01*
X91985Y178162D01*
X92186Y178095D01*
X92422Y178043D01*
X92696Y178006D01*
X93006Y177984D01*
X93352Y177976D01*
Y176476D01*
X93006Y176469D01*
X92422Y176409D01*
X92186Y176357D01*
X91985Y176290D01*
X91821Y176208D01*
X91694Y176111D01*
X91602Y176000D01*
X91548Y175873D01*
X91530Y175732D01*
Y178720D01*
X91548Y178579D01*
D02*
G37*
G36*
X111176Y177779D02*
X111208Y177762D01*
X111264Y177746D01*
X111343Y177733D01*
X111446Y177722D01*
X111896Y177700D01*
X112315Y177696D01*
Y175696D01*
X112027Y175695D01*
X110801Y175613D01*
X110782Y175594D01*
X111168Y177799D01*
X111176Y177779D01*
D02*
G37*
G36*
X99402Y147221D02*
X99387Y147363D01*
X99341Y147491D01*
X99266Y147603D01*
X99160Y147701D01*
X99024Y147783D01*
X98858Y147851D01*
X98661Y147903D01*
X98434Y147941D01*
X98177Y147963D01*
X97890Y147970D01*
Y149470D01*
X98177Y149478D01*
X98434Y149501D01*
X98661Y149538D01*
X98858Y149591D01*
X99024Y149658D01*
X99160Y149741D01*
X99266Y149838D01*
X99341Y149951D01*
X99387Y150078D01*
X99402Y150221D01*
Y147221D01*
D02*
G37*
G36*
X111944Y136539D02*
Y131020D01*
X111444Y130851D01*
X110971Y131467D01*
X110184Y132071D01*
X109267Y132451D01*
X108283Y132580D01*
X105715D01*
Y128779D01*
Y124978D01*
X108283D01*
X109267Y125108D01*
X110184Y125488D01*
X110971Y126092D01*
X111444Y126708D01*
X111944Y126539D01*
Y121504D01*
X111916Y121247D01*
X111857Y120940D01*
X111776Y120645D01*
X111672Y120361D01*
X111545Y120087D01*
X111393Y119821D01*
X111218Y119562D01*
X111056Y119360D01*
X106970Y115274D01*
X106572Y114679D01*
X106432Y113976D01*
Y111960D01*
X106418Y111791D01*
X106379Y111553D01*
X106332Y111373D01*
X106285Y111254D01*
X106271Y111229D01*
X105970Y111170D01*
X105608Y110927D01*
X105366Y110565D01*
X105281Y110138D01*
Y106791D01*
X105366Y106364D01*
X105608Y106002D01*
X105970Y105760D01*
X106398Y105675D01*
X110138D01*
X110565Y105760D01*
X110927Y106002D01*
X111170Y106364D01*
X111255Y106791D01*
Y110138D01*
X111170Y110565D01*
X110927Y110927D01*
X110565Y111170D01*
X110265Y111229D01*
X110250Y111254D01*
X110203Y111373D01*
X110156Y111553D01*
X110117Y111791D01*
X110103Y111960D01*
Y113216D01*
X111482Y114595D01*
X111944Y114404D01*
Y96015D01*
X111930Y95846D01*
X111891Y95608D01*
X111844Y95428D01*
X111797Y95309D01*
X111782Y95284D01*
X111482Y95225D01*
X111120Y94983D01*
X110878Y94620D01*
X110793Y94193D01*
Y90847D01*
X110878Y90419D01*
X111120Y90057D01*
X111482Y89815D01*
X111909Y89730D01*
X115650D01*
X116077Y89815D01*
X116439Y90057D01*
X116594Y90288D01*
X117094Y90136D01*
Y88604D01*
X116594Y88452D01*
X116439Y88683D01*
X116077Y88925D01*
X115650Y89010D01*
X111909D01*
X111482Y88925D01*
X111120Y88683D01*
X110878Y88321D01*
X110793Y87894D01*
Y84547D01*
X110878Y84120D01*
X111120Y83758D01*
X111482Y83516D01*
X111782Y83456D01*
X111797Y83431D01*
X111844Y83312D01*
X111891Y83132D01*
X111930Y82894D01*
X111944Y82725D01*
Y55485D01*
X105053Y48593D01*
X104591Y48785D01*
Y82725D01*
X104606Y82894D01*
X104644Y83132D01*
X104691Y83312D01*
X104738Y83431D01*
X104753Y83456D01*
X105053Y83516D01*
X105416Y83758D01*
X105658Y84120D01*
X105743Y84547D01*
Y87894D01*
X105658Y88321D01*
X105416Y88683D01*
X105053Y88925D01*
X104626Y89010D01*
X100886D01*
X100459Y88925D01*
X100096Y88683D01*
X99854Y88321D01*
X99769Y87894D01*
X99276Y87911D01*
Y90829D01*
X99769Y90847D01*
X99854Y90419D01*
X100096Y90057D01*
X100459Y89815D01*
X100886Y89730D01*
X104626D01*
X105053Y89815D01*
X105416Y90057D01*
X105658Y90419D01*
X105743Y90847D01*
Y94193D01*
X105658Y94620D01*
X105534Y94805D01*
X105531Y94815D01*
X105519Y94828D01*
X105416Y94983D01*
X105325Y95043D01*
X105318Y95051D01*
X105167Y95163D01*
X105067Y95257D01*
X104980Y95357D01*
X104904Y95468D01*
X104838Y95591D01*
X104781Y95730D01*
X104735Y95887D01*
X104700Y96064D01*
X104690Y96160D01*
Y113681D01*
X104550Y114383D01*
X104152Y114979D01*
X99163Y119968D01*
Y125916D01*
X99641Y126086D01*
X99663Y126088D01*
X100446Y125488D01*
X101363Y125108D01*
X102347Y124978D01*
X104915D01*
Y128779D01*
Y132580D01*
X102347D01*
X101363Y132451D01*
X100446Y132071D01*
X99663Y131471D01*
X99472Y131494D01*
X99163Y131599D01*
Y135381D01*
X99780Y135998D01*
X100446Y135488D01*
X101363Y135108D01*
X102347Y134978D01*
X108283D01*
X109267Y135108D01*
X110184Y135488D01*
X110971Y136092D01*
X111444Y136708D01*
X111944Y136539D01*
D02*
G37*
G36*
X114779Y119488D02*
X112779Y115074D01*
X112765Y115440D01*
X112723Y115737D01*
X112652Y115967D01*
X112553Y116128D01*
X112426Y116220D01*
X112270Y116245D01*
X112087Y116201D01*
X111874Y116089D01*
X111634Y115908D01*
X111365Y115660D01*
Y118488D01*
X111634Y118777D01*
X111874Y119077D01*
X112087Y119389D01*
X112270Y119713D01*
X112426Y120049D01*
X112553Y120396D01*
X112652Y120755D01*
X112723Y121126D01*
X112765Y121508D01*
X112779Y121902D01*
X114779Y119488D01*
D02*
G37*
G36*
X109278Y112038D02*
X109307Y111690D01*
X109357Y111384D01*
X109427Y111118D01*
X109516Y110893D01*
X109625Y110709D01*
X109754Y110566D01*
X109903Y110464D01*
X110072Y110402D01*
X110261Y110382D01*
X106274D01*
X106463Y110402D01*
X106632Y110464D01*
X106781Y110566D01*
X106910Y110709D01*
X107019Y110893D01*
X107109Y111118D01*
X107178Y111384D01*
X107228Y111690D01*
X107258Y112038D01*
X107268Y112427D01*
X109268D01*
X109278Y112038D01*
D02*
G37*
G36*
X98338Y112041D02*
X98368Y111696D01*
X98418Y111391D01*
X98488Y111128D01*
X98577Y110907D01*
X98687Y110725D01*
X98817Y110585D01*
X98966Y110486D01*
X99136Y110429D01*
X99326Y110412D01*
X95367Y110342D01*
X95549Y110478D01*
X95713Y110631D01*
X95857Y110799D01*
X95982Y110984D01*
X96088Y111184D01*
X96174Y111401D01*
X96241Y111633D01*
X96289Y111882D01*
X96318Y112146D01*
X96328Y112427D01*
X98328D01*
X98338Y112041D01*
D02*
G37*
G36*
X99246Y100228D02*
X99077Y100166D01*
X98928Y100064D01*
X98799Y99921D01*
X98689Y99737D01*
X98600Y99512D01*
X98530Y99246D01*
X98481Y98940D01*
X98451Y98592D01*
X98441Y98203D01*
X96441D01*
X96431Y98592D01*
X96401Y98940D01*
X96351Y99246D01*
X96282Y99512D01*
X96193Y99737D01*
X96083Y99921D01*
X95954Y100064D01*
X95805Y100166D01*
X95636Y100228D01*
X95448Y100248D01*
X99434D01*
X99246Y100228D01*
D02*
G37*
G36*
X114789Y96093D02*
X114819Y95746D01*
X114869Y95439D01*
X114938Y95173D01*
X115028Y94948D01*
X115137Y94764D01*
X115266Y94621D01*
X115415Y94519D01*
X115584Y94457D01*
X115773Y94437D01*
X111786D01*
X111975Y94457D01*
X112144Y94519D01*
X112293Y94621D01*
X112422Y94764D01*
X112531Y94948D01*
X112621Y95173D01*
X112690Y95439D01*
X112740Y95746D01*
X112770Y96093D01*
X112779Y96482D01*
X114779D01*
X114789Y96093D01*
D02*
G37*
G36*
X103864Y96203D02*
X103893Y95940D01*
X103942Y95692D01*
X104010Y95461D01*
X104098Y95244D01*
X104206Y95044D01*
X104332Y94859D01*
X104479Y94689D01*
X104645Y94535D01*
X104830Y94397D01*
X100857Y94464D01*
X101046Y94481D01*
X101216Y94539D01*
X101365Y94638D01*
X101495Y94779D01*
X101605Y94960D01*
X101695Y95182D01*
X101765Y95446D01*
X101814Y95750D01*
X101844Y96095D01*
X101854Y96482D01*
X103854D01*
X103864Y96203D01*
D02*
G37*
G36*
X21432Y91217D02*
X22105Y90656D01*
X22411Y90448D01*
X22698Y90287D01*
X22965Y90175D01*
X23212Y90110D01*
X23439Y90093D01*
X23647Y90124D01*
X23834Y90203D01*
X20264Y88136D01*
X20415Y88252D01*
X20512Y88394D01*
X20554Y88563D01*
X20542Y88758D01*
X20475Y88980D01*
X20354Y89227D01*
X20179Y89501D01*
X19949Y89801D01*
X19665Y90127D01*
X19327Y90480D01*
X21066Y91569D01*
X21432Y91217D01*
D02*
G37*
G36*
X31208Y89048D02*
X31286Y88879D01*
X31417Y88730D01*
X31600Y88601D01*
X31835Y88492D01*
X32122Y88403D01*
X32462Y88333D01*
X32854Y88284D01*
X33298Y88254D01*
X33794Y88244D01*
Y86244D01*
X33298Y86234D01*
X32462Y86155D01*
X32122Y86085D01*
X31835Y85996D01*
X31600Y85887D01*
X31417Y85758D01*
X31286Y85609D01*
X31208Y85440D01*
X31182Y85252D01*
Y89236D01*
X31208Y89048D01*
D02*
G37*
G36*
X115584Y84283D02*
X115415Y84222D01*
X115266Y84119D01*
X115137Y83976D01*
X115028Y83792D01*
X114938Y83567D01*
X114869Y83301D01*
X114819Y82995D01*
X114789Y82647D01*
X114779Y82258D01*
X112779D01*
X112770Y82647D01*
X112740Y82995D01*
X112690Y83301D01*
X112621Y83567D01*
X112531Y83792D01*
X112422Y83976D01*
X112293Y84119D01*
X112144Y84222D01*
X111975Y84283D01*
X111786Y84303D01*
X115773D01*
X115584Y84283D01*
D02*
G37*
G36*
X104560D02*
X104392Y84222D01*
X104243Y84119D01*
X104113Y83976D01*
X104004Y83792D01*
X103915Y83567D01*
X103845Y83301D01*
X103796Y82995D01*
X103766Y82647D01*
X103756Y82258D01*
X101756D01*
X101746Y82647D01*
X101716Y82995D01*
X101666Y83301D01*
X101597Y83567D01*
X101508Y83792D01*
X101398Y83976D01*
X101269Y84119D01*
X101120Y84222D01*
X100951Y84283D01*
X100763Y84303D01*
X104749D01*
X104560Y84283D01*
D02*
G37*
G36*
X103770Y47749D02*
X103813Y47452D01*
X103883Y47222D01*
X103982Y47061D01*
X104110Y46969D01*
X104265Y46944D01*
X104449Y46988D01*
X104661Y47100D01*
X104901Y47280D01*
X105170Y47529D01*
X104877Y44408D01*
X103463Y42994D01*
X100342Y42701D01*
X100610Y42990D01*
X100851Y43290D01*
X101063Y43602D01*
X101247Y43926D01*
X101402Y44262D01*
X101530Y44609D01*
X101629Y44968D01*
X101699Y45338D01*
X101742Y45721D01*
X101756Y46115D01*
X103756Y48115D01*
X103770Y47749D01*
D02*
G37*
G36*
X47057Y27995D02*
X47122Y27630D01*
X47231Y27257D01*
X47383Y26878D01*
X47578Y26492D01*
X47816Y26098D01*
X48098Y25698D01*
X48424Y25290D01*
X48793Y24875D01*
X49205Y24454D01*
X42866D01*
X43278Y24875D01*
X43973Y25698D01*
X44254Y26098D01*
X44493Y26492D01*
X44688Y26878D01*
X44840Y27257D01*
X44949Y27630D01*
X45014Y27995D01*
X45035Y28353D01*
X47035D01*
X47057Y27995D01*
D02*
G37*
%LPC*%
G36*
X110236Y214419D02*
X108746Y214223D01*
X107357Y213648D01*
X106165Y212733D01*
X105250Y211540D01*
X104674Y210152D01*
X104478Y208661D01*
X104674Y207171D01*
X105250Y205783D01*
X106165Y204590D01*
X107357Y203675D01*
X108746Y203100D01*
X110236Y202904D01*
X111726Y203100D01*
X113115Y203675D01*
X114308Y204590D01*
X115223Y205783D01*
X115798Y207171D01*
X115994Y208661D01*
X115798Y210152D01*
X115223Y211540D01*
X114308Y212733D01*
X113115Y213648D01*
X111726Y214223D01*
X110236Y214419D01*
D02*
G37*
G36*
X7874D02*
X6384Y214223D01*
X4995Y213648D01*
X3803Y212733D01*
X2888Y211540D01*
X2312Y210152D01*
X2116Y208661D01*
X2312Y207171D01*
X2888Y205783D01*
X3803Y204590D01*
X4995Y203675D01*
X6384Y203100D01*
X7874Y202904D01*
X9364Y203100D01*
X10753Y203675D01*
X11946Y204590D01*
X12860Y205783D01*
X13436Y207171D01*
X13632Y208661D01*
X13436Y210152D01*
X12860Y211540D01*
X11946Y212733D01*
X10753Y213648D01*
X9364Y214223D01*
X7874Y214419D01*
D02*
G37*
G36*
X88990Y201027D02*
X83053D01*
X82069Y200898D01*
X81152Y200518D01*
X80365Y199914D01*
X79761Y199127D01*
X79381Y198210D01*
X79252Y197226D01*
X79381Y196242D01*
X79761Y195326D01*
X80365Y194538D01*
X81152Y193934D01*
X82069Y193555D01*
X83053Y193425D01*
X88990D01*
X89973Y193555D01*
X90890Y193934D01*
X91677Y194538D01*
X92281Y195326D01*
X92661Y196242D01*
X92791Y197226D01*
X92661Y198210D01*
X92281Y199127D01*
X91677Y199914D01*
X90890Y200518D01*
X89973Y200898D01*
X88990Y201027D01*
D02*
G37*
G36*
X28990D02*
X23053D01*
X22069Y200898D01*
X21152Y200518D01*
X20365Y199914D01*
X19761Y199127D01*
X19381Y198210D01*
X19252Y197226D01*
X19381Y196242D01*
X19761Y195326D01*
X20365Y194538D01*
X21152Y193934D01*
X22069Y193555D01*
X23053Y193425D01*
X28990D01*
X29973Y193555D01*
X30890Y193934D01*
X31677Y194538D01*
X32281Y195326D01*
X32661Y196242D01*
X32791Y197226D01*
X32661Y198210D01*
X32281Y199127D01*
X31677Y199914D01*
X30890Y200518D01*
X29973Y200898D01*
X28990Y201027D01*
D02*
G37*
G36*
Y191027D02*
X23053D01*
X22069Y190898D01*
X21152Y190518D01*
X20365Y189914D01*
X19761Y189127D01*
X19381Y188210D01*
X19252Y187226D01*
X19381Y186242D01*
X19761Y185326D01*
X20365Y184538D01*
X21152Y183934D01*
X22069Y183555D01*
X23053Y183425D01*
X28990D01*
X29973Y183555D01*
X30890Y183934D01*
X31677Y184538D01*
X32281Y185326D01*
X32661Y186242D01*
X32791Y187226D01*
X32661Y188210D01*
X32281Y189127D01*
X31677Y189914D01*
X30890Y190518D01*
X29973Y190898D01*
X28990Y191027D01*
D02*
G37*
G36*
X88990D02*
X83053D01*
X82069Y190898D01*
X81152Y190518D01*
X80365Y189914D01*
X79761Y189127D01*
X79381Y188210D01*
X79252Y187226D01*
X79381Y186242D01*
X79761Y185326D01*
X80365Y184538D01*
X81152Y183934D01*
X82069Y183555D01*
X83053Y183425D01*
X88990D01*
X89973Y183555D01*
X90890Y183934D01*
X91677Y184538D01*
X92281Y185326D01*
X92353Y185499D01*
X92382Y185509D01*
X92533Y185542D01*
X92958Y185585D01*
X98224D01*
X98332Y185575D01*
X98489Y185550D01*
X98578Y185526D01*
Y183397D01*
X112052D01*
Y190934D01*
X98578D01*
Y188805D01*
X98489Y188781D01*
X98332Y188755D01*
X98224Y188746D01*
X92952D01*
X92799Y188757D01*
X92585Y188786D01*
X92424Y188821D01*
X92405Y188828D01*
X92281Y189127D01*
X91677Y189914D01*
X90890Y190518D01*
X89973Y190898D01*
X88990Y191027D01*
D02*
G37*
G36*
X28990Y181027D02*
X23053D01*
X22069Y180898D01*
X21152Y180518D01*
X20365Y179914D01*
X19761Y179127D01*
X19381Y178210D01*
X19252Y177226D01*
X19381Y176242D01*
X19761Y175326D01*
X20365Y174538D01*
X21152Y173934D01*
X22069Y173555D01*
X23053Y173425D01*
X28990D01*
X29973Y173555D01*
X30890Y173934D01*
X31677Y174538D01*
X32281Y175326D01*
X32661Y176242D01*
X32791Y177226D01*
X32661Y178210D01*
X32281Y179127D01*
X31677Y179914D01*
X30890Y180518D01*
X29973Y180898D01*
X28990Y181027D01*
D02*
G37*
G36*
X104915Y170966D02*
X102347D01*
X101363Y170837D01*
X100446Y170457D01*
X99659Y169853D01*
X99055Y169066D01*
X98675Y168149D01*
X98598Y167565D01*
X104915D01*
Y170966D01*
D02*
G37*
G36*
X88990Y171027D02*
X83053D01*
X82069Y170898D01*
X81152Y170518D01*
X80365Y169914D01*
X79761Y169127D01*
X79381Y168210D01*
X79252Y167226D01*
X79381Y166242D01*
X79761Y165326D01*
X80365Y164538D01*
X81152Y163934D01*
X82069Y163555D01*
X83053Y163425D01*
X88990D01*
X89973Y163555D01*
X90890Y163934D01*
X91677Y164538D01*
X92281Y165326D01*
X92661Y166242D01*
X92791Y167226D01*
X92661Y168210D01*
X92281Y169127D01*
X91677Y169914D01*
X90890Y170518D01*
X89973Y170898D01*
X88990Y171027D01*
D02*
G37*
G36*
X28990D02*
X23053D01*
X22069Y170898D01*
X21152Y170518D01*
X20365Y169914D01*
X19761Y169127D01*
X19381Y168210D01*
X19252Y167226D01*
X19381Y166242D01*
X19761Y165326D01*
X20365Y164538D01*
X21152Y163934D01*
X22069Y163555D01*
X23053Y163425D01*
X28990D01*
X29973Y163555D01*
X30890Y163934D01*
X31677Y164538D01*
X32281Y165326D01*
X32661Y166242D01*
X32791Y167226D01*
X32661Y168210D01*
X32281Y169127D01*
X31677Y169914D01*
X30890Y170518D01*
X29973Y170898D01*
X28990Y171027D01*
D02*
G37*
G36*
X104915Y166765D02*
X98598D01*
X98675Y166182D01*
X99055Y165265D01*
X99659Y164478D01*
X100446Y163874D01*
X101363Y163494D01*
X102347Y163364D01*
X104915D01*
Y166765D01*
D02*
G37*
G36*
X16579Y171013D02*
X3105D01*
Y163476D01*
X12921D01*
X12939Y163472D01*
X12958Y163476D01*
X13777D01*
X13861Y163428D01*
X14124Y163244D01*
X14716Y162743D01*
X15980Y161480D01*
Y160083D01*
X15658Y159974D01*
X15480Y159947D01*
X14712Y160536D01*
X13795Y160916D01*
X12811Y161045D01*
X10243D01*
Y157244D01*
Y153443D01*
X12811D01*
X13795Y153573D01*
X14712Y153952D01*
X15480Y154542D01*
X15658Y154515D01*
X15980Y154405D01*
Y152296D01*
X15949Y152249D01*
X15795Y151476D01*
X15949Y150703D01*
X16387Y150048D01*
X17042Y149610D01*
X17815Y149457D01*
X18588Y149610D01*
X19243Y150048D01*
X19681Y150703D01*
X19835Y151476D01*
X19681Y152249D01*
X19650Y152296D01*
Y154648D01*
X20150Y154818D01*
X20365Y154538D01*
X21152Y153934D01*
X22069Y153555D01*
X23053Y153425D01*
X28990D01*
X29973Y153555D01*
X30890Y153934D01*
X31677Y154538D01*
X32281Y155326D01*
X32661Y156242D01*
X32791Y157226D01*
X32661Y158210D01*
X32281Y159127D01*
X31677Y159914D01*
X30890Y160518D01*
X29973Y160898D01*
X28990Y161027D01*
X23053D01*
X22069Y160898D01*
X21152Y160518D01*
X20365Y159914D01*
X20150Y159634D01*
X19650Y159804D01*
Y162240D01*
X19511Y162943D01*
X19113Y163538D01*
X17409Y165241D01*
X17064Y165612D01*
X16817Y165921D01*
X16627Y166194D01*
X16579Y166278D01*
Y167098D01*
X16583Y167116D01*
X16579Y167134D01*
Y171013D01*
D02*
G37*
G36*
X9443Y161045D02*
X6874D01*
X5890Y160916D01*
X4973Y160536D01*
X4186Y159932D01*
X3582Y159145D01*
X3202Y158228D01*
X3126Y157644D01*
X9443D01*
Y161045D01*
D02*
G37*
G36*
Y156844D02*
X3126D01*
X3202Y156260D01*
X3582Y155344D01*
X4186Y154556D01*
X4973Y153952D01*
X5890Y153573D01*
X6874Y153443D01*
X9443D01*
Y156844D01*
D02*
G37*
G36*
X88990Y161027D02*
X83053D01*
X82069Y160898D01*
X81152Y160518D01*
X80365Y159914D01*
X79761Y159127D01*
X79381Y158210D01*
X79252Y157226D01*
X79381Y156242D01*
X79761Y155326D01*
X80365Y154538D01*
X81152Y153934D01*
X82069Y153555D01*
X83053Y153425D01*
X88990D01*
X89973Y153555D01*
X90890Y153934D01*
X91677Y154538D01*
X92281Y155326D01*
X92661Y156242D01*
X92791Y157226D01*
X92661Y158210D01*
X92281Y159127D01*
X91677Y159914D01*
X90890Y160518D01*
X89973Y160898D01*
X88990Y161027D01*
D02*
G37*
G36*
Y151027D02*
X83053D01*
X82069Y150898D01*
X81152Y150518D01*
X80365Y149914D01*
X79761Y149127D01*
X79381Y148210D01*
X79252Y147226D01*
X79381Y146242D01*
X79761Y145326D01*
X80365Y144538D01*
X81152Y143934D01*
X82069Y143555D01*
X83053Y143425D01*
X88990D01*
X89973Y143555D01*
X90890Y143934D01*
X91677Y144538D01*
X92281Y145326D01*
X92661Y146242D01*
X92791Y147226D01*
X92661Y148210D01*
X92281Y149127D01*
X91677Y149914D01*
X90890Y150518D01*
X89973Y150898D01*
X88990Y151027D01*
D02*
G37*
G36*
X12811Y151045D02*
X6874D01*
X5890Y150916D01*
X4973Y150536D01*
X4186Y149932D01*
X3582Y149145D01*
X3202Y148228D01*
X3073Y147244D01*
X3202Y146260D01*
X3582Y145344D01*
X4186Y144556D01*
X4973Y143952D01*
X5890Y143573D01*
X6874Y143443D01*
X12811D01*
X13795Y143573D01*
X14712Y143952D01*
X15499Y144556D01*
X16103Y145344D01*
X16197Y145570D01*
X16221Y145579D01*
X16371Y145611D01*
X16795Y145655D01*
X19105D01*
X19259Y145644D01*
X19474Y145614D01*
X19636Y145579D01*
X19659Y145571D01*
X19761Y145326D01*
X20365Y144538D01*
X21152Y143934D01*
X22069Y143555D01*
X23053Y143425D01*
X28990D01*
X29973Y143555D01*
X30890Y143934D01*
X31677Y144538D01*
X32281Y145326D01*
X32661Y146242D01*
X32791Y147226D01*
X32661Y148210D01*
X32281Y149127D01*
X31677Y149914D01*
X30890Y150518D01*
X29973Y150898D01*
X28990Y151027D01*
X23053D01*
X22069Y150898D01*
X21152Y150518D01*
X20365Y149914D01*
X19761Y149127D01*
X19667Y148900D01*
X19642Y148892D01*
X19493Y148859D01*
X19069Y148816D01*
X16758D01*
X16604Y148827D01*
X16389Y148856D01*
X16228Y148891D01*
X16204Y148899D01*
X16103Y149145D01*
X15499Y149932D01*
X14712Y150536D01*
X13795Y150916D01*
X12811Y151045D01*
D02*
G37*
G36*
X88990Y141041D02*
X83053D01*
X82069Y140911D01*
X81152Y140532D01*
X80365Y139928D01*
X79761Y139140D01*
X79381Y138224D01*
X79252Y137240D01*
X79381Y136256D01*
X79761Y135339D01*
X80365Y134552D01*
X81152Y133948D01*
X82069Y133568D01*
X83053Y133439D01*
X88990D01*
X89973Y133568D01*
X90890Y133948D01*
X91677Y134552D01*
X92281Y135339D01*
X92661Y136256D01*
X92791Y137240D01*
X92661Y138224D01*
X92281Y139140D01*
X91677Y139928D01*
X90890Y140532D01*
X89973Y140911D01*
X88990Y141041D01*
D02*
G37*
G36*
X12811Y141045D02*
X6874D01*
X5890Y140916D01*
X4973Y140536D01*
X4186Y139932D01*
X3582Y139145D01*
X3202Y138228D01*
X3073Y137244D01*
X3202Y136260D01*
X3582Y135344D01*
X4186Y134556D01*
X4973Y133952D01*
X5890Y133573D01*
X6874Y133443D01*
X12811D01*
X13795Y133573D01*
X14712Y133952D01*
X15499Y134556D01*
X16103Y135344D01*
X16200Y135577D01*
X16224Y135586D01*
X16373Y135618D01*
X16797Y135662D01*
X19107D01*
X19261Y135651D01*
X19476Y135621D01*
X19638Y135586D01*
X19662Y135578D01*
X19761Y135339D01*
X20365Y134552D01*
X21152Y133948D01*
X22069Y133568D01*
X23053Y133439D01*
X28990D01*
X29973Y133568D01*
X30890Y133948D01*
X31677Y134552D01*
X32281Y135339D01*
X32661Y136256D01*
X32791Y137240D01*
X32661Y138224D01*
X32281Y139140D01*
X31677Y139928D01*
X30890Y140532D01*
X29973Y140911D01*
X28990Y141041D01*
X23053D01*
X22069Y140911D01*
X21152Y140532D01*
X20365Y139928D01*
X19761Y139140D01*
X19664Y138907D01*
X19640Y138898D01*
X19491Y138866D01*
X19067Y138822D01*
X16756D01*
X16602Y138833D01*
X16387Y138863D01*
X16225Y138898D01*
X16202Y138906D01*
X16103Y139145D01*
X15499Y139932D01*
X14712Y140536D01*
X13795Y140916D01*
X12811Y141045D01*
D02*
G37*
G36*
X88990Y131026D02*
X83053D01*
X82069Y130897D01*
X81152Y130517D01*
X80365Y129913D01*
X79761Y129126D01*
X79381Y128209D01*
X79252Y127225D01*
X79381Y126241D01*
X79761Y125325D01*
X80365Y124538D01*
X81152Y123933D01*
X82069Y123554D01*
X83053Y123424D01*
X88990D01*
X89973Y123554D01*
X90890Y123933D01*
X91677Y124538D01*
X92281Y125325D01*
X92661Y126241D01*
X92791Y127225D01*
X92661Y128209D01*
X92281Y129126D01*
X91677Y129913D01*
X90890Y130517D01*
X89973Y130897D01*
X88990Y131026D01*
D02*
G37*
G36*
X89008Y121045D02*
X83071D01*
X82087Y120916D01*
X81170Y120536D01*
X80383Y119932D01*
X79779Y119145D01*
X79399Y118228D01*
X79270Y117244D01*
X79399Y116260D01*
X79779Y115344D01*
X80383Y114556D01*
X81170Y113952D01*
X82087Y113573D01*
X83071Y113443D01*
X89008D01*
X89992Y113573D01*
X90908Y113952D01*
X91696Y114556D01*
X92300Y115344D01*
X92679Y116260D01*
X92809Y117244D01*
X92679Y118228D01*
X92300Y119145D01*
X91696Y119932D01*
X90908Y120536D01*
X89992Y120916D01*
X89008Y121045D01*
D02*
G37*
G36*
Y111045D02*
X83071D01*
X82087Y110916D01*
X81170Y110536D01*
X80383Y109932D01*
X79779Y109145D01*
X79399Y108228D01*
X79270Y107244D01*
X79399Y106260D01*
X79779Y105344D01*
X80383Y104556D01*
X81170Y103952D01*
X82087Y103573D01*
X83071Y103443D01*
X89008D01*
X89992Y103573D01*
X90908Y103952D01*
X91696Y104556D01*
X92300Y105344D01*
X92679Y106260D01*
X92809Y107244D01*
X92679Y108228D01*
X92300Y109145D01*
X91696Y109932D01*
X90908Y110536D01*
X89992Y110916D01*
X89008Y111045D01*
D02*
G37*
G36*
Y101045D02*
X83071D01*
X82087Y100916D01*
X81170Y100536D01*
X80383Y99932D01*
X79779Y99145D01*
X79399Y98228D01*
X79270Y97244D01*
X79399Y96260D01*
X79779Y95344D01*
X80383Y94556D01*
X81170Y93952D01*
X82087Y93573D01*
X83071Y93443D01*
X89008D01*
X89992Y93573D01*
X90908Y93952D01*
X91696Y94556D01*
X92300Y95344D01*
X92679Y96260D01*
X92809Y97244D01*
X92679Y98228D01*
X92300Y99145D01*
X91696Y99932D01*
X90908Y100536D01*
X89992Y100916D01*
X89008Y101045D01*
D02*
G37*
G36*
Y91045D02*
X86439D01*
Y87644D01*
X92756D01*
X92679Y88228D01*
X92300Y89145D01*
X91696Y89932D01*
X90908Y90536D01*
X89992Y90916D01*
X89008Y91045D01*
D02*
G37*
G36*
X85639D02*
X83071D01*
X82087Y90916D01*
X81170Y90536D01*
X80383Y89932D01*
X79779Y89145D01*
X79399Y88228D01*
X79322Y87644D01*
X85639D01*
Y91045D01*
D02*
G37*
G36*
X29008Y81045D02*
X23071D01*
X22087Y80916D01*
X21170Y80536D01*
X20383Y79932D01*
X19779Y79145D01*
X19399Y78228D01*
X19270Y77244D01*
X19399Y76260D01*
X19779Y75344D01*
X20383Y74556D01*
X21170Y73952D01*
X22087Y73573D01*
X23071Y73443D01*
X29008D01*
X29992Y73573D01*
X30908Y73952D01*
X31696Y74556D01*
X32300Y75344D01*
X32679Y76260D01*
X32809Y77244D01*
X32679Y78228D01*
X32300Y79145D01*
X31696Y79932D01*
X30908Y80536D01*
X29992Y80916D01*
X29008Y81045D01*
D02*
G37*
G36*
Y71045D02*
X26439D01*
Y67644D01*
X32756D01*
X32679Y68228D01*
X32300Y69145D01*
X31696Y69932D01*
X30908Y70536D01*
X29992Y70916D01*
X29008Y71045D01*
D02*
G37*
G36*
X25639D02*
X23071D01*
X22087Y70916D01*
X21170Y70536D01*
X20383Y69932D01*
X19779Y69145D01*
X19399Y68228D01*
X19322Y67644D01*
X25639D01*
Y71045D01*
D02*
G37*
G36*
X89008D02*
X83071D01*
X82087Y70916D01*
X81170Y70536D01*
X80383Y69932D01*
X79779Y69145D01*
X79399Y68228D01*
X79270Y67244D01*
X79399Y66260D01*
X79779Y65344D01*
X80383Y64556D01*
X81170Y63952D01*
X82087Y63573D01*
X83071Y63443D01*
X89008D01*
X89992Y63573D01*
X90908Y63952D01*
X91696Y64556D01*
X92300Y65344D01*
X92679Y66260D01*
X92809Y67244D01*
X92679Y68228D01*
X92300Y69145D01*
X91696Y69932D01*
X90908Y70536D01*
X89992Y70916D01*
X89008Y71045D01*
D02*
G37*
G36*
X32756Y66844D02*
X26439D01*
Y63443D01*
X29008D01*
X29992Y63573D01*
X30908Y63952D01*
X31696Y64556D01*
X32300Y65344D01*
X32679Y66260D01*
X32756Y66844D01*
D02*
G37*
G36*
X25639D02*
X19322D01*
X19399Y66260D01*
X19779Y65344D01*
X20383Y64556D01*
X21170Y63952D01*
X22087Y63573D01*
X23071Y63443D01*
X25639D01*
Y66844D01*
D02*
G37*
G36*
X89008Y61045D02*
X83071D01*
X82087Y60916D01*
X81170Y60536D01*
X80383Y59932D01*
X79779Y59145D01*
X79399Y58228D01*
X79270Y57244D01*
X79399Y56260D01*
X79779Y55344D01*
X80383Y54556D01*
X81170Y53952D01*
X82087Y53573D01*
X83071Y53443D01*
X89008D01*
X89992Y53573D01*
X90908Y53952D01*
X91696Y54556D01*
X92300Y55344D01*
X92679Y56260D01*
X92809Y57244D01*
X92679Y58228D01*
X92300Y59145D01*
X91696Y59932D01*
X90908Y60536D01*
X89992Y60916D01*
X89008Y61045D01*
D02*
G37*
G36*
X29008D02*
X23071D01*
X22087Y60916D01*
X21170Y60536D01*
X20383Y59932D01*
X19779Y59145D01*
X19399Y58228D01*
X19270Y57244D01*
X19399Y56260D01*
X19779Y55344D01*
X20383Y54556D01*
X21170Y53952D01*
X22087Y53573D01*
X23071Y53443D01*
X29008D01*
X29992Y53573D01*
X30908Y53952D01*
X31696Y54556D01*
X32300Y55344D01*
X32679Y56260D01*
X32809Y57244D01*
X32679Y58228D01*
X32300Y59145D01*
X31696Y59932D01*
X30908Y60536D01*
X29992Y60916D01*
X29008Y61045D01*
D02*
G37*
G36*
X66120Y26541D02*
Y21621D01*
X71041D01*
X70911Y22611D01*
X70374Y23907D01*
X69520Y25020D01*
X68407Y25874D01*
X67111Y26411D01*
X66120Y26541D01*
D02*
G37*
G36*
X65320D02*
X64330Y26411D01*
X63034Y25874D01*
X61921Y25020D01*
X61067Y23907D01*
X60530Y22611D01*
X60400Y21621D01*
X65320D01*
Y26541D01*
D02*
G37*
G36*
X71041Y20820D02*
X66120D01*
Y15900D01*
X67111Y16030D01*
X68407Y16567D01*
X69520Y17421D01*
X70374Y18534D01*
X70911Y19830D01*
X71041Y20820D01*
D02*
G37*
G36*
X65320D02*
X60400D01*
X60530Y19830D01*
X61067Y18534D01*
X61921Y17421D01*
X63034Y16567D01*
X64330Y16030D01*
X65320Y15900D01*
Y20820D01*
D02*
G37*
G36*
X110236Y13632D02*
X108746Y13436D01*
X107357Y12860D01*
X106165Y11946D01*
X105250Y10753D01*
X104674Y9364D01*
X104478Y7874D01*
X104674Y6384D01*
X105250Y4995D01*
X106165Y3803D01*
X107357Y2888D01*
X108746Y2312D01*
X110236Y2116D01*
X111726Y2312D01*
X113115Y2888D01*
X114308Y3803D01*
X115223Y4995D01*
X115798Y6384D01*
X115994Y7874D01*
X115798Y9364D01*
X115223Y10753D01*
X114308Y11946D01*
X113115Y12860D01*
X111726Y13436D01*
X110236Y13632D01*
D02*
G37*
G36*
X7874D02*
X6384Y13436D01*
X4995Y12860D01*
X3803Y11946D01*
X2888Y10753D01*
X2312Y9364D01*
X2116Y7874D01*
X2312Y6384D01*
X2888Y4995D01*
X3803Y3803D01*
X4995Y2888D01*
X6384Y2312D01*
X7874Y2116D01*
X9364Y2312D01*
X10753Y2888D01*
X11946Y3803D01*
X12860Y4995D01*
X13436Y6384D01*
X13632Y7874D01*
X13436Y9364D01*
X12860Y10753D01*
X11946Y11946D01*
X10753Y12860D01*
X9364Y13436D01*
X7874Y13632D01*
D02*
G37*
%LPD*%
G36*
X91577Y188518D02*
X91629Y188392D01*
X91718Y188280D01*
X91844Y188183D01*
X92006Y188101D01*
X92205Y188034D01*
X92441Y187982D01*
X92714Y187945D01*
X93024Y187923D01*
X93370Y187915D01*
X93333Y186415D01*
X92987Y186408D01*
X92404Y186348D01*
X92166Y186296D01*
X91964Y186229D01*
X91799Y186147D01*
X91669Y186051D01*
X91576Y185939D01*
X91518Y185812D01*
X91497Y185671D01*
X91562Y188660D01*
X91577Y188518D01*
D02*
G37*
G36*
X99402Y185665D02*
X99387Y185808D01*
X99341Y185935D01*
X99266Y186048D01*
X99160Y186145D01*
X99024Y186228D01*
X98858Y186295D01*
X98661Y186348D01*
X98434Y186385D01*
X98177Y186408D01*
X97890Y186415D01*
Y187915D01*
X98177Y187923D01*
X98434Y187945D01*
X98661Y187983D01*
X98858Y188035D01*
X99024Y188103D01*
X99160Y188185D01*
X99266Y188283D01*
X99341Y188395D01*
X99387Y188523D01*
X99402Y188665D01*
Y185665D01*
D02*
G37*
G36*
X15654Y166960D02*
X15598Y166777D01*
Y166565D01*
X15654Y166324D01*
X15767Y166055D01*
X15937Y165758D01*
X16163Y165433D01*
X16446Y165079D01*
X17182Y164288D01*
X15767Y162873D01*
X15357Y163269D01*
X14622Y163892D01*
X14297Y164118D01*
X14000Y164288D01*
X13731Y164401D01*
X13491Y164457D01*
X13279D01*
X13095Y164401D01*
X12939Y164288D01*
X15767Y167116D01*
X15654Y166960D01*
D02*
G37*
G36*
X20508Y145741D02*
X20490Y145882D01*
X20436Y146009D01*
X20345Y146120D01*
X20218Y146217D01*
X20054Y146299D01*
X19854Y146366D01*
X19617Y146418D01*
X19344Y146455D01*
X19034Y146478D01*
X18688Y146485D01*
X18693Y147985D01*
X19039Y147993D01*
X19623Y148052D01*
X19860Y148104D01*
X20060Y148171D01*
X20224Y148253D01*
X20352Y148350D01*
X20444Y148461D01*
X20499Y148588D01*
X20517Y148730D01*
X20508Y145741D01*
D02*
G37*
G36*
X15374Y148588D02*
X15428Y148461D01*
X15519Y148350D01*
X15646Y148253D01*
X15810Y148171D01*
X16010Y148104D01*
X16247Y148052D01*
X16520Y148015D01*
X16830Y147993D01*
X17176Y147985D01*
X17170Y146485D01*
X16824Y146478D01*
X16241Y146418D01*
X16004Y146366D01*
X15803Y146299D01*
X15639Y146217D01*
X15511Y146120D01*
X15420Y146009D01*
X15365Y145882D01*
X15346Y145741D01*
X15356Y148730D01*
X15374Y148588D01*
D02*
G37*
G36*
X25045Y136267D02*
X24975Y136310D01*
X24856Y136348D01*
X24686Y136382D01*
X24467Y136411D01*
X23879Y136456D01*
X22107Y136492D01*
Y137992D01*
X22625Y137994D01*
X24856Y138136D01*
X24975Y138174D01*
X25045Y138217D01*
Y136267D01*
D02*
G37*
G36*
X10888Y138174D02*
X11008Y138136D01*
X11177Y138102D01*
X11397Y138073D01*
X11984Y138028D01*
X13757Y137992D01*
Y136492D01*
X13239Y136490D01*
X11008Y136348D01*
X10888Y136310D01*
X10818Y136267D01*
Y138217D01*
X10888Y138174D01*
D02*
G37*
G36*
X20512Y135748D02*
X20493Y135889D01*
X20439Y136016D01*
X20348Y136127D01*
X20220Y136224D01*
X20056Y136306D01*
X19856Y136373D01*
X19619Y136425D01*
X19346Y136462D01*
X19036Y136485D01*
X18690Y136492D01*
X18691Y137992D01*
X19037Y137999D01*
X19621Y138059D01*
X19857Y138111D01*
X20058Y138178D01*
X20222Y138260D01*
X20349Y138357D01*
X20441Y138468D01*
X20495Y138595D01*
X20514Y138736D01*
X20512Y135748D01*
D02*
G37*
G36*
X15370Y138595D02*
X15425Y138468D01*
X15516Y138357D01*
X15643Y138260D01*
X15807Y138178D01*
X16008Y138111D01*
X16244Y138059D01*
X16518Y138022D01*
X16827Y137999D01*
X17174Y137992D01*
X17172Y136492D01*
X16826Y136485D01*
X16243Y136425D01*
X16006Y136373D01*
X15806Y136306D01*
X15642Y136224D01*
X15514Y136127D01*
X15423Y136016D01*
X15368Y135889D01*
X15350Y135748D01*
X15352Y138736D01*
X15370Y138595D01*
D02*
G37*
%LPC*%
G36*
X110138Y104955D02*
X106398D01*
X105970Y104870D01*
X105608Y104628D01*
X105366Y104266D01*
X105281Y103839D01*
Y100492D01*
X105366Y100065D01*
X105608Y99703D01*
X105970Y99460D01*
X106271Y99401D01*
X106285Y99376D01*
X106332Y99257D01*
X106379Y99077D01*
X106418Y98839D01*
X106432Y98670D01*
Y87040D01*
X106402Y86993D01*
X106248Y86221D01*
X106402Y85448D01*
X106839Y84792D01*
X107495Y84354D01*
X108268Y84201D01*
X109041Y84354D01*
X109696Y84792D01*
X110134Y85448D01*
X110288Y86221D01*
X110134Y86993D01*
X110103Y87040D01*
Y98670D01*
X110117Y98839D01*
X110156Y99077D01*
X110203Y99257D01*
X110250Y99376D01*
X110265Y99401D01*
X110565Y99460D01*
X110927Y99703D01*
X111170Y100065D01*
X111255Y100492D01*
Y103839D01*
X111170Y104266D01*
X110927Y104628D01*
X110565Y104870D01*
X110138Y104955D01*
D02*
G37*
%LPD*%
G36*
X110072Y100228D02*
X109903Y100166D01*
X109754Y100064D01*
X109625Y99921D01*
X109516Y99737D01*
X109427Y99512D01*
X109357Y99246D01*
X109307Y98940D01*
X109278Y98592D01*
X109268Y98203D01*
X107268D01*
X107258Y98592D01*
X107228Y98940D01*
X107178Y99246D01*
X107109Y99512D01*
X107019Y99737D01*
X106910Y99921D01*
X106781Y100064D01*
X106632Y100166D01*
X106463Y100228D01*
X106274Y100248D01*
X110261D01*
X110072Y100228D01*
D02*
G37*
D10*
X108268Y86221D02*
Y102165D01*
X56457Y87244D02*
X61417Y82284D01*
X93701D01*
X97441Y86024D01*
Y102165D01*
X26039Y87244D02*
X56457D01*
X17815Y93405D02*
X23976Y87244D01*
X26039D01*
X17815Y93405D02*
Y132087D01*
Y151476D02*
Y162240D01*
X12811Y167244D02*
X17815Y162240D01*
X97328Y108578D02*
Y126701D01*
Y126951D02*
Y136142D01*
X97578Y118957D02*
X102854Y113681D01*
X106535Y138122D02*
X107134Y138721D01*
X97328Y136142D02*
X99308Y138122D01*
X106535D01*
X102854Y92520D02*
Y113681D01*
X99410Y40354D02*
X102756Y43701D01*
X54134Y40354D02*
X99410D01*
X46035Y32256D02*
X54134Y40354D01*
X102756Y43701D02*
X113779Y54724D01*
X102756Y43701D02*
Y86221D01*
X107659Y176696D02*
X112315D01*
X107134Y177220D02*
X107659Y176696D01*
X112315D02*
X113779Y175231D01*
Y119488D02*
Y175231D01*
Y92520D02*
Y119488D01*
X108268Y113976D02*
X113779Y119488D01*
X108268Y108465D02*
Y113976D01*
X113779Y54724D02*
Y86221D01*
X9843Y167244D02*
X12811D01*
X46035Y21220D02*
Y32256D01*
D15*
X108268Y102165D02*
D03*
Y108465D02*
D03*
X97441Y102165D02*
D03*
Y108465D02*
D03*
X113779Y92520D02*
D03*
Y86221D02*
D03*
X102756Y92520D02*
D03*
Y86221D02*
D03*
D21*
X95472Y150591D02*
X97342Y148721D01*
X95472Y150591D02*
Y175787D01*
X94034Y177226D02*
X95472Y175787D01*
X86082Y187165D02*
X105315D01*
X97342Y148721D02*
X107134D01*
X9845Y137242D02*
X26019D01*
X9843Y147244D02*
X9851Y147235D01*
X26012D01*
X26021Y147226D01*
X86021Y177226D02*
X94034D01*
X22702Y147226D02*
X26021D01*
D22*
X26019Y137242D02*
X26021Y137240D01*
X9843Y137244D02*
X9845Y137242D01*
D23*
X105315Y187165D02*
D03*
Y148779D02*
D03*
X9843Y167244D02*
D03*
D24*
X105315Y177165D02*
D03*
Y167165D02*
D03*
Y138779D02*
D03*
Y128779D02*
D03*
X9843Y157244D02*
D03*
Y137244D02*
D03*
Y147244D02*
D03*
X86039Y107244D02*
D03*
Y97244D02*
D03*
Y57244D02*
D03*
Y67244D02*
D03*
Y87244D02*
D03*
Y77244D02*
D03*
Y117244D02*
D03*
X86021Y127225D02*
D03*
Y137240D02*
D03*
Y147226D02*
D03*
Y157226D02*
D03*
Y167226D02*
D03*
Y177226D02*
D03*
Y187226D02*
D03*
Y197226D02*
D03*
X26039Y107244D02*
D03*
Y97244D02*
D03*
Y57244D02*
D03*
Y67244D02*
D03*
Y87244D02*
D03*
Y77244D02*
D03*
Y117244D02*
D03*
X26021Y127225D02*
D03*
Y137240D02*
D03*
Y147226D02*
D03*
Y157226D02*
D03*
Y167226D02*
D03*
Y177226D02*
D03*
Y187226D02*
D03*
Y197226D02*
D03*
D25*
X46035Y21220D02*
D03*
X65720D02*
D03*
D26*
X108268Y86221D02*
D03*
X93701Y82284D02*
D03*
X26142Y152270D02*
D03*
X17815Y151476D02*
D03*
Y132087D02*
D03*
X105315Y123819D02*
D03*
X105315Y161417D02*
D03*
X105315Y172146D02*
D03*
X92520Y33465D02*
D03*
X66929Y187008D02*
D03*
X79724Y161417D02*
D03*
X66929Y135827D02*
D03*
Y33465D02*
D03*
X41339Y187008D02*
D03*
X54134Y161417D02*
D03*
X41339Y135827D02*
D03*
X54134Y110236D02*
D03*
Y59055D02*
D03*
X41339Y33465D02*
D03*
X15748Y187008D02*
D03*
Y84646D02*
D03*
Y33465D02*
D03*
X105315Y133760D02*
D03*
X9843Y162205D02*
D03*
Y152264D02*
D03*
X86024Y92224D02*
D03*
X77854Y87303D02*
D03*
X17913Y67224D02*
D03*
X34252Y67323D02*
D03*
M02*
