G04*
G04 #@! TF.GenerationSoftware,Altium Limited,Altium Designer,21.6.4 (81)*
G04*
G04 Layer_Color=65535*
%FSLAX25Y25*%
%MOIN*%
G70*
G04*
G04 #@! TF.SameCoordinates,4A2346EC-D30A-4EC8-B750-871CECD4BB15*
G04*
G04*
G04 #@! TF.FilePolarity,Positive*
G04*
G01*
G75*
%ADD10C,0.02000*%
%ADD11C,0.00787*%
%ADD12C,0.01000*%
%ADD13C,0.00591*%
%ADD14C,0.00500*%
G36*
X13410Y31025D02*
X13400D01*
Y31036D01*
X13410D01*
Y31025D01*
D02*
G37*
G36*
X27762Y31057D02*
X27940D01*
Y31047D01*
X28044D01*
Y31036D01*
X28128D01*
Y31025D01*
X28201D01*
Y31015D01*
X28275D01*
Y31005D01*
X28327D01*
Y30994D01*
X28379D01*
Y30984D01*
X28432D01*
Y30973D01*
X28484D01*
Y30963D01*
X28526D01*
Y30952D01*
X28579D01*
Y30942D01*
X28620D01*
Y30931D01*
X28652D01*
Y30921D01*
X28694D01*
Y30910D01*
X28725D01*
Y30900D01*
X28757D01*
Y30889D01*
X28798D01*
Y30879D01*
X28830D01*
Y30868D01*
X28861D01*
Y30858D01*
X28893D01*
Y30847D01*
X28924D01*
Y30837D01*
X28956D01*
Y30827D01*
X28987D01*
Y30816D01*
X29008D01*
Y30806D01*
X29039D01*
Y30795D01*
X29071D01*
Y30785D01*
X29092D01*
Y30774D01*
X29113D01*
Y30764D01*
X29134D01*
Y30753D01*
X29155D01*
Y30743D01*
X29176D01*
Y30732D01*
X29197D01*
Y30722D01*
X29217D01*
Y30711D01*
X29239D01*
Y30701D01*
X29259D01*
Y30690D01*
X29280D01*
Y30680D01*
X29301D01*
Y30669D01*
X29312D01*
Y30659D01*
X29333D01*
Y30648D01*
X29354D01*
Y30638D01*
X29375D01*
Y30628D01*
X29385D01*
Y30617D01*
X29406D01*
Y30606D01*
X29427D01*
Y30596D01*
X29448D01*
Y30586D01*
X29458D01*
Y30575D01*
X29479D01*
Y30565D01*
X29500D01*
Y30554D01*
X29511D01*
Y30544D01*
X29532D01*
Y30533D01*
X29553D01*
Y30512D01*
X29563D01*
Y30470D01*
X29574D01*
Y30439D01*
X29584D01*
Y30386D01*
X29595D01*
Y30345D01*
X29605D01*
Y30282D01*
X29616D01*
Y30219D01*
X29626D01*
Y30125D01*
X29636D01*
Y29989D01*
X29647D01*
Y29821D01*
X29636D01*
Y29831D01*
X29626D01*
Y29852D01*
X29616D01*
Y29873D01*
X29605D01*
Y29884D01*
X29595D01*
Y29905D01*
X29584D01*
Y29915D01*
X29574D01*
Y29936D01*
X29563D01*
Y29947D01*
X29553D01*
Y29967D01*
X29542D01*
Y29978D01*
X29532D01*
Y29999D01*
X29521D01*
Y30009D01*
X29511D01*
Y30030D01*
X29500D01*
Y30041D01*
X29490D01*
Y30051D01*
X29479D01*
Y30062D01*
X29469D01*
Y30083D01*
X29458D01*
Y30093D01*
X29448D01*
Y30104D01*
X29427D01*
Y30114D01*
X29417D01*
Y30125D01*
X29406D01*
Y30135D01*
X29385D01*
Y30146D01*
X29375D01*
Y30156D01*
X29354D01*
Y30167D01*
X29333D01*
Y30177D01*
X29322D01*
Y30187D01*
X29301D01*
Y30198D01*
X29291D01*
Y30209D01*
X29270D01*
Y30219D01*
X29249D01*
Y30229D01*
X29228D01*
Y30240D01*
X29217D01*
Y30250D01*
X29197D01*
Y30261D01*
X29176D01*
Y30271D01*
X29165D01*
Y30282D01*
X29144D01*
Y30292D01*
X29123D01*
Y30303D01*
X29102D01*
Y30313D01*
X29081D01*
Y30324D01*
X29060D01*
Y30334D01*
X29039D01*
Y30345D01*
X29019D01*
Y30355D01*
X28998D01*
Y30366D01*
X28977D01*
Y30376D01*
X28956D01*
Y30386D01*
X28935D01*
Y30397D01*
X28903D01*
Y30408D01*
X28882D01*
Y30418D01*
X28861D01*
Y30428D01*
X28830D01*
Y30439D01*
X28809D01*
Y30449D01*
X28778D01*
Y30460D01*
X28746D01*
Y30470D01*
X28725D01*
Y30481D01*
X28694D01*
Y30491D01*
X28662D01*
Y30502D01*
X28631D01*
Y30512D01*
X28600D01*
Y30523D01*
X28568D01*
Y30533D01*
X28537D01*
Y30544D01*
X28495D01*
Y30554D01*
X28453D01*
Y30565D01*
X28421D01*
Y30575D01*
X28369D01*
Y30586D01*
X28327D01*
Y30596D01*
X28285D01*
Y30606D01*
X28233D01*
Y30617D01*
X28181D01*
Y30628D01*
X28118D01*
Y30638D01*
X28055D01*
Y30648D01*
X27950D01*
Y30659D01*
X27824D01*
Y30669D01*
X27332D01*
Y30659D01*
X27175D01*
Y30648D01*
X27070D01*
Y30638D01*
X26997D01*
Y30628D01*
X26923D01*
Y30617D01*
X26861D01*
Y30606D01*
X26798D01*
Y30596D01*
X26745D01*
Y30586D01*
X26693D01*
Y30575D01*
X26651D01*
Y30565D01*
X26609D01*
Y30554D01*
X26567D01*
Y30544D01*
X26536D01*
Y30533D01*
X26504D01*
Y30523D01*
X26473D01*
Y30512D01*
X26442D01*
Y30502D01*
X26410D01*
Y30491D01*
X26379D01*
Y30481D01*
X26347D01*
Y30470D01*
X26316D01*
Y30460D01*
X26295D01*
Y30449D01*
X26263D01*
Y30439D01*
X26243D01*
Y30428D01*
X26211D01*
Y30418D01*
X26190D01*
Y30408D01*
X26169D01*
Y30397D01*
X26148D01*
Y30386D01*
X26127D01*
Y30376D01*
X26106D01*
Y30366D01*
X26085D01*
Y30355D01*
X26065D01*
Y30345D01*
X26043D01*
Y30334D01*
X26023D01*
Y30324D01*
X26002D01*
Y30313D01*
X25991D01*
Y30303D01*
X25970D01*
Y30292D01*
X25949D01*
Y30282D01*
X25928D01*
Y30271D01*
X25918D01*
Y30261D01*
X25897D01*
Y30250D01*
X25886D01*
Y30240D01*
X25865D01*
Y30229D01*
X25855D01*
Y30219D01*
X25834D01*
Y30209D01*
X25824D01*
Y30198D01*
X25813D01*
Y30187D01*
X25792D01*
Y30177D01*
X25782D01*
Y30167D01*
X25761D01*
Y30156D01*
X25750D01*
Y30146D01*
X25740D01*
Y30135D01*
X25729D01*
Y30125D01*
X25708D01*
Y30114D01*
X25698D01*
Y30104D01*
X25687D01*
Y30093D01*
X25677D01*
Y30083D01*
X25666D01*
Y30072D01*
X25656D01*
Y30062D01*
X25646D01*
Y30051D01*
X25635D01*
Y30041D01*
X25614D01*
Y30030D01*
X25604D01*
Y30020D01*
X25593D01*
Y30009D01*
X25583D01*
Y29999D01*
X25572D01*
Y29989D01*
X25562D01*
Y29978D01*
X25551D01*
Y29957D01*
X25541D01*
Y29947D01*
X25530D01*
Y29936D01*
X25520D01*
Y29926D01*
X25509D01*
Y29915D01*
X25499D01*
Y29905D01*
X25488D01*
Y29894D01*
X25478D01*
Y29884D01*
X25467D01*
Y29863D01*
X25457D01*
Y29852D01*
X25446D01*
Y29842D01*
X25436D01*
Y29821D01*
X25425D01*
Y29810D01*
X25415D01*
Y29800D01*
X25405D01*
Y29779D01*
X25394D01*
Y29768D01*
X25384D01*
Y29758D01*
X25373D01*
Y29737D01*
X25363D01*
Y29716D01*
X25352D01*
Y29706D01*
X25342D01*
Y29685D01*
X25331D01*
Y29674D01*
X25321D01*
Y29653D01*
X25310D01*
Y29632D01*
X25300D01*
Y29622D01*
X25289D01*
Y29601D01*
X25279D01*
Y29580D01*
X25268D01*
Y29559D01*
X25258D01*
Y29538D01*
X25247D01*
Y29517D01*
X25237D01*
Y29496D01*
X25227D01*
Y29475D01*
X25216D01*
Y29444D01*
X25205D01*
Y29423D01*
X25195D01*
Y29402D01*
X25185D01*
Y29370D01*
X25174D01*
Y29339D01*
X25164D01*
Y29318D01*
X25153D01*
Y29287D01*
X25143D01*
Y29255D01*
X25132D01*
Y29213D01*
X25122D01*
Y29182D01*
X25111D01*
Y29140D01*
X25101D01*
Y29098D01*
X25090D01*
Y29056D01*
X25080D01*
Y29004D01*
X25069D01*
Y28951D01*
X25059D01*
Y28878D01*
X25048D01*
Y28794D01*
X25038D01*
Y28679D01*
X25027D01*
Y28271D01*
X25038D01*
Y28166D01*
X25048D01*
Y28082D01*
X25059D01*
Y28009D01*
X25069D01*
Y27956D01*
X25080D01*
Y27914D01*
X25090D01*
Y27862D01*
X25101D01*
Y27820D01*
X25111D01*
Y27789D01*
X25122D01*
Y27747D01*
X25132D01*
Y27715D01*
X25143D01*
Y27684D01*
X25153D01*
Y27652D01*
X25164D01*
Y27632D01*
X25174D01*
Y27600D01*
X25185D01*
Y27569D01*
X25195D01*
Y27548D01*
X25205D01*
Y27527D01*
X25216D01*
Y27495D01*
X25227D01*
Y27474D01*
X25237D01*
Y27454D01*
X25247D01*
Y27433D01*
X25258D01*
Y27412D01*
X25268D01*
Y27391D01*
X25279D01*
Y27370D01*
X25289D01*
Y27349D01*
X25300D01*
Y27338D01*
X25310D01*
Y27317D01*
X25321D01*
Y27296D01*
X25331D01*
Y27286D01*
X25342D01*
Y27265D01*
X25352D01*
Y27254D01*
X25363D01*
Y27233D01*
X25373D01*
Y27213D01*
X25384D01*
Y27202D01*
X25394D01*
Y27192D01*
X25405D01*
Y27171D01*
X25415D01*
Y27160D01*
X25425D01*
Y27150D01*
X25436D01*
Y27129D01*
X25446D01*
Y27118D01*
X25457D01*
Y27108D01*
X25467D01*
Y27087D01*
X25478D01*
Y27076D01*
X25488D01*
Y27066D01*
X25499D01*
Y27055D01*
X25509D01*
Y27045D01*
X25520D01*
Y27034D01*
X25530D01*
Y27024D01*
X25541D01*
Y27003D01*
X25551D01*
Y26992D01*
X25562D01*
Y26982D01*
X25572D01*
Y26972D01*
X25583D01*
Y26961D01*
X25593D01*
Y26951D01*
X25604D01*
Y26940D01*
X25614D01*
Y26930D01*
X25624D01*
Y26919D01*
X25635D01*
Y26909D01*
X25646D01*
Y26898D01*
X25656D01*
Y26888D01*
X25677D01*
Y26877D01*
X25687D01*
Y26867D01*
X25698D01*
Y26856D01*
X25708D01*
Y26846D01*
X25719D01*
Y26835D01*
X25729D01*
Y26825D01*
X25750D01*
Y26814D01*
X25761D01*
Y26804D01*
X25771D01*
Y26794D01*
X25792D01*
Y26783D01*
X25803D01*
Y26773D01*
X25813D01*
Y26762D01*
X25834D01*
Y26752D01*
X25844D01*
Y26741D01*
X25855D01*
Y26731D01*
X25876D01*
Y26720D01*
X25886D01*
Y26710D01*
X25907D01*
Y26699D01*
X25918D01*
Y26689D01*
X25939D01*
Y26678D01*
X25960D01*
Y26668D01*
X25970D01*
Y26657D01*
X25991D01*
Y26647D01*
X26012D01*
Y26636D01*
X26023D01*
Y26626D01*
X26043D01*
Y26615D01*
X26065D01*
Y26605D01*
X26085D01*
Y26594D01*
X26106D01*
Y26584D01*
X26127D01*
Y26574D01*
X26148D01*
Y26563D01*
X26169D01*
Y26553D01*
X26190D01*
Y26542D01*
X26211D01*
Y26532D01*
X26243D01*
Y26521D01*
X26263D01*
Y26511D01*
X26285D01*
Y26500D01*
X26316D01*
Y26490D01*
X26337D01*
Y26479D01*
X26368D01*
Y26469D01*
X26389D01*
Y26458D01*
X26421D01*
Y26448D01*
X26452D01*
Y26437D01*
X26484D01*
Y26427D01*
X26515D01*
Y26416D01*
X26546D01*
Y26406D01*
X26588D01*
Y26395D01*
X26620D01*
Y26385D01*
X26662D01*
Y26375D01*
X26704D01*
Y26364D01*
X26745D01*
Y26354D01*
X26798D01*
Y26343D01*
X26850D01*
Y26333D01*
X26913D01*
Y26322D01*
X26986D01*
Y26312D01*
X27060D01*
Y26301D01*
X27154D01*
Y26291D01*
X27269D01*
Y26280D01*
X27877D01*
Y26291D01*
X28034D01*
Y26301D01*
X28159D01*
Y26312D01*
X28264D01*
Y26322D01*
X28359D01*
Y26333D01*
X28432D01*
Y26343D01*
X28505D01*
Y26354D01*
X28579D01*
Y26364D01*
X28631D01*
Y26375D01*
X28683D01*
Y26385D01*
X28746D01*
Y26395D01*
X28798D01*
Y26406D01*
X28851D01*
Y26416D01*
X28903D01*
Y26427D01*
X28945D01*
Y26437D01*
X28998D01*
Y26448D01*
X29039D01*
Y26458D01*
X29081D01*
Y26469D01*
X29123D01*
Y26479D01*
X29155D01*
Y26490D01*
X29186D01*
Y26500D01*
X29228D01*
Y26511D01*
X29249D01*
Y26521D01*
X29259D01*
Y27045D01*
Y27055D01*
Y28030D01*
X29249D01*
Y28040D01*
X27489D01*
Y28051D01*
X27520D01*
Y28061D01*
X27552D01*
Y28071D01*
X27583D01*
Y28082D01*
X27615D01*
Y28093D01*
X27636D01*
Y28103D01*
X27657D01*
Y28113D01*
X27667D01*
Y28124D01*
X27688D01*
Y28134D01*
X27699D01*
Y28145D01*
X27709D01*
Y28155D01*
X27730D01*
Y28166D01*
X27740D01*
Y28176D01*
X27751D01*
Y28187D01*
X27762D01*
Y28197D01*
X27772D01*
Y28208D01*
X27782D01*
Y28218D01*
X27793D01*
Y28239D01*
X27803D01*
Y28250D01*
X27814D01*
Y28260D01*
X27824D01*
Y28281D01*
X27835D01*
Y28291D01*
X27845D01*
Y28312D01*
X27856D01*
Y28333D01*
X27866D01*
Y28354D01*
X27877D01*
Y28386D01*
X27887D01*
Y28407D01*
X27898D01*
Y28438D01*
X27908D01*
Y28449D01*
X28338D01*
Y28459D01*
X29658D01*
Y26259D01*
X29636D01*
Y26249D01*
X29616D01*
Y26238D01*
X29584D01*
Y26228D01*
X29553D01*
Y26217D01*
X29521D01*
Y26207D01*
X29500D01*
Y26196D01*
X29469D01*
Y26186D01*
X29438D01*
Y26175D01*
X29406D01*
Y26165D01*
X29375D01*
Y26155D01*
X29343D01*
Y26144D01*
X29312D01*
Y26134D01*
X29280D01*
Y26123D01*
X29249D01*
Y26113D01*
X29217D01*
Y26102D01*
X29186D01*
Y26092D01*
X29144D01*
Y26081D01*
X29113D01*
Y26071D01*
X29071D01*
Y26060D01*
X29029D01*
Y26050D01*
X28987D01*
Y26039D01*
X28956D01*
Y26029D01*
X28914D01*
Y26018D01*
X28861D01*
Y26008D01*
X28820D01*
Y25997D01*
X28767D01*
Y25987D01*
X28715D01*
Y25976D01*
X28673D01*
Y25966D01*
X28610D01*
Y25956D01*
X28547D01*
Y25945D01*
X28484D01*
Y25935D01*
X28411D01*
Y25924D01*
X28338D01*
Y25914D01*
X28233D01*
Y25903D01*
X28128D01*
Y25893D01*
X27992D01*
Y25882D01*
X27772D01*
Y25872D01*
X27343D01*
Y25882D01*
X27175D01*
Y25893D01*
X27070D01*
Y25903D01*
X26976D01*
Y25914D01*
X26902D01*
Y25924D01*
X26829D01*
Y25935D01*
X26766D01*
Y25945D01*
X26714D01*
Y25956D01*
X26662D01*
Y25966D01*
X26620D01*
Y25976D01*
X26567D01*
Y25987D01*
X26525D01*
Y25997D01*
X26484D01*
Y26008D01*
X26452D01*
Y26018D01*
X26410D01*
Y26029D01*
X26368D01*
Y26039D01*
X26337D01*
Y26050D01*
X26305D01*
Y26060D01*
X26263D01*
Y26071D01*
X26243D01*
Y26081D01*
X26211D01*
Y26092D01*
X26180D01*
Y26102D01*
X26159D01*
Y26113D01*
X26127D01*
Y26123D01*
X26096D01*
Y26134D01*
X26075D01*
Y26144D01*
X26054D01*
Y26155D01*
X26023D01*
Y26165D01*
X26002D01*
Y26175D01*
X25981D01*
Y26186D01*
X25960D01*
Y26196D01*
X25939D01*
Y26207D01*
X25918D01*
Y26217D01*
X25897D01*
Y26228D01*
X25876D01*
Y26238D01*
X25855D01*
Y26249D01*
X25834D01*
Y26259D01*
X25813D01*
Y26270D01*
X25792D01*
Y26280D01*
X25782D01*
Y26291D01*
X25761D01*
Y26301D01*
X25740D01*
Y26312D01*
X25729D01*
Y26322D01*
X25708D01*
Y26333D01*
X25687D01*
Y26343D01*
X25677D01*
Y26354D01*
X25656D01*
Y26364D01*
X25646D01*
Y26375D01*
X25624D01*
Y26385D01*
X25614D01*
Y26395D01*
X25593D01*
Y26406D01*
X25583D01*
Y26416D01*
X25572D01*
Y26427D01*
X25551D01*
Y26437D01*
X25541D01*
Y26448D01*
X25520D01*
Y26458D01*
X25509D01*
Y26469D01*
X25499D01*
Y26479D01*
X25488D01*
Y26490D01*
X25467D01*
Y26500D01*
X25457D01*
Y26511D01*
X25446D01*
Y26521D01*
X25436D01*
Y26532D01*
X25425D01*
Y26542D01*
X25405D01*
Y26553D01*
X25394D01*
Y26563D01*
X25384D01*
Y26574D01*
X25373D01*
Y26584D01*
X25363D01*
Y26594D01*
X25352D01*
Y26605D01*
X25342D01*
Y26615D01*
X25331D01*
Y26626D01*
X25321D01*
Y26636D01*
X25310D01*
Y26647D01*
X25300D01*
Y26657D01*
X25289D01*
Y26668D01*
X25279D01*
Y26678D01*
X25268D01*
Y26689D01*
X25258D01*
Y26699D01*
X25247D01*
Y26710D01*
X25237D01*
Y26720D01*
X25227D01*
Y26731D01*
X25216D01*
Y26741D01*
X25205D01*
Y26752D01*
X25195D01*
Y26762D01*
X25185D01*
Y26773D01*
X25174D01*
Y26794D01*
X25164D01*
Y26804D01*
X25153D01*
Y26814D01*
X25143D01*
Y26825D01*
X25132D01*
Y26846D01*
X25122D01*
Y26856D01*
X25111D01*
Y26867D01*
X25101D01*
Y26877D01*
X25090D01*
Y26898D01*
X25080D01*
Y26909D01*
X25069D01*
Y26930D01*
X25059D01*
Y26940D01*
X25048D01*
Y26951D01*
X25038D01*
Y26972D01*
X25027D01*
Y26982D01*
X25017D01*
Y27003D01*
X25006D01*
Y27013D01*
X24996D01*
Y27034D01*
X24985D01*
Y27055D01*
X24975D01*
Y27066D01*
X24965D01*
Y27087D01*
X24954D01*
Y27097D01*
X24944D01*
Y27118D01*
X24933D01*
Y27139D01*
X24923D01*
Y27160D01*
X24912D01*
Y27181D01*
X24902D01*
Y27192D01*
X24891D01*
Y27213D01*
X24881D01*
Y27233D01*
X24870D01*
Y27265D01*
X24860D01*
Y27286D01*
X24849D01*
Y27307D01*
X24839D01*
Y27328D01*
X24828D01*
Y27349D01*
X24818D01*
Y27370D01*
X24807D01*
Y27401D01*
X24797D01*
Y27422D01*
X24787D01*
Y27454D01*
X24776D01*
Y27474D01*
X24766D01*
Y27506D01*
X24755D01*
Y27537D01*
X24745D01*
Y27569D01*
X24734D01*
Y27600D01*
X24724D01*
Y27642D01*
X24713D01*
Y27684D01*
X24703D01*
Y27715D01*
X24692D01*
Y27768D01*
X24682D01*
Y27810D01*
X24671D01*
Y27862D01*
X24661D01*
Y27925D01*
X24650D01*
Y27988D01*
X24640D01*
Y28071D01*
X24629D01*
Y28166D01*
X24619D01*
Y28354D01*
X24608D01*
Y28553D01*
X24619D01*
Y28752D01*
X24629D01*
Y28868D01*
X24640D01*
Y28941D01*
X24650D01*
Y29004D01*
X24661D01*
Y29067D01*
X24671D01*
Y29119D01*
X24682D01*
Y29161D01*
X24692D01*
Y29203D01*
X24703D01*
Y29245D01*
X24713D01*
Y29287D01*
X24724D01*
Y29318D01*
X24734D01*
Y29349D01*
X24745D01*
Y29381D01*
X24755D01*
Y29412D01*
X24766D01*
Y29444D01*
X24776D01*
Y29475D01*
X24787D01*
Y29496D01*
X24797D01*
Y29528D01*
X24807D01*
Y29548D01*
X24818D01*
Y29580D01*
X24828D01*
Y29601D01*
X24839D01*
Y29622D01*
X24849D01*
Y29643D01*
X24860D01*
Y29674D01*
X24870D01*
Y29695D01*
X24881D01*
Y29716D01*
X24891D01*
Y29737D01*
X24902D01*
Y29758D01*
X24912D01*
Y29779D01*
X24923D01*
Y29789D01*
X24933D01*
Y29810D01*
X24944D01*
Y29831D01*
X24954D01*
Y29842D01*
X24965D01*
Y29863D01*
X24975D01*
Y29884D01*
X24985D01*
Y29894D01*
X24996D01*
Y29915D01*
X25006D01*
Y29936D01*
X25017D01*
Y29947D01*
X25027D01*
Y29957D01*
X25038D01*
Y29978D01*
X25048D01*
Y29989D01*
X25059D01*
Y30009D01*
X25069D01*
Y30020D01*
X25080D01*
Y30041D01*
X25090D01*
Y30051D01*
X25101D01*
Y30062D01*
X25111D01*
Y30083D01*
X25122D01*
Y30093D01*
X25132D01*
Y30104D01*
X25143D01*
Y30114D01*
X25153D01*
Y30125D01*
X25164D01*
Y30146D01*
X25174D01*
Y30156D01*
X25185D01*
Y30167D01*
X25195D01*
Y30177D01*
X25205D01*
Y30187D01*
X25216D01*
Y30198D01*
X25227D01*
Y30209D01*
X25237D01*
Y30219D01*
X25247D01*
Y30240D01*
X25258D01*
Y30250D01*
X25268D01*
Y30261D01*
X25279D01*
Y30271D01*
X25289D01*
Y30282D01*
X25300D01*
Y30292D01*
X25310D01*
Y30303D01*
X25321D01*
Y30313D01*
X25331D01*
Y30324D01*
X25342D01*
Y30334D01*
X25363D01*
Y30345D01*
X25373D01*
Y30355D01*
X25384D01*
Y30366D01*
X25394D01*
Y30376D01*
X25405D01*
Y30386D01*
X25415D01*
Y30397D01*
X25425D01*
Y30408D01*
X25446D01*
Y30418D01*
X25457D01*
Y30428D01*
X25467D01*
Y30439D01*
X25478D01*
Y30449D01*
X25499D01*
Y30460D01*
X25509D01*
Y30470D01*
X25520D01*
Y30481D01*
X25541D01*
Y30491D01*
X25551D01*
Y30502D01*
X25562D01*
Y30512D01*
X25572D01*
Y30523D01*
X25593D01*
Y30533D01*
X25604D01*
Y30544D01*
X25624D01*
Y30554D01*
X25635D01*
Y30565D01*
X25656D01*
Y30575D01*
X25666D01*
Y30586D01*
X25687D01*
Y30596D01*
X25698D01*
Y30606D01*
X25719D01*
Y30617D01*
X25740D01*
Y30628D01*
X25750D01*
Y30638D01*
X25771D01*
Y30648D01*
X25792D01*
Y30659D01*
X25813D01*
Y30669D01*
X25824D01*
Y30680D01*
X25844D01*
Y30690D01*
X25865D01*
Y30701D01*
X25886D01*
Y30711D01*
X25907D01*
Y30722D01*
X25928D01*
Y30732D01*
X25949D01*
Y30743D01*
X25970D01*
Y30753D01*
X25991D01*
Y30764D01*
X26012D01*
Y30774D01*
X26043D01*
Y30785D01*
X26065D01*
Y30795D01*
X26085D01*
Y30806D01*
X26117D01*
Y30816D01*
X26138D01*
Y30827D01*
X26169D01*
Y30837D01*
X26201D01*
Y30847D01*
X26222D01*
Y30858D01*
X26253D01*
Y30868D01*
X26285D01*
Y30879D01*
X26316D01*
Y30889D01*
X26347D01*
Y30900D01*
X26389D01*
Y30910D01*
X26421D01*
Y30921D01*
X26452D01*
Y30931D01*
X26494D01*
Y30942D01*
X26525D01*
Y30952D01*
X26578D01*
Y30963D01*
X26620D01*
Y30973D01*
X26672D01*
Y30984D01*
X26724D01*
Y30994D01*
X26766D01*
Y31005D01*
X26829D01*
Y31015D01*
X26892D01*
Y31025D01*
X26976D01*
Y31036D01*
X27070D01*
Y31047D01*
X27175D01*
Y31057D01*
X27343D01*
Y31067D01*
X27762D01*
Y31057D01*
D02*
G37*
G36*
X15066Y27768D02*
X15055D01*
Y27778D01*
X15066D01*
Y27768D01*
D02*
G37*
G36*
X15055Y27757D02*
X15044D01*
Y27768D01*
X15055D01*
Y27757D01*
D02*
G37*
G36*
X9294Y31047D02*
X9304D01*
Y31025D01*
X9314D01*
Y31005D01*
X9325D01*
Y30984D01*
X9336D01*
Y30952D01*
X9346D01*
Y30931D01*
X9356D01*
Y30910D01*
X9367D01*
Y30889D01*
X9377D01*
Y30868D01*
X9388D01*
Y30837D01*
X9398D01*
Y30816D01*
X9409D01*
Y30795D01*
X9419D01*
Y30774D01*
X9430D01*
Y30753D01*
X9440D01*
Y30722D01*
X9451D01*
Y30701D01*
X9461D01*
Y30680D01*
X9472D01*
Y30659D01*
X9482D01*
Y30628D01*
X9493D01*
Y30606D01*
X9503D01*
Y30586D01*
X9514D01*
Y30565D01*
X9524D01*
Y30544D01*
X9534D01*
Y30512D01*
X9545D01*
Y30491D01*
X9556D01*
Y30470D01*
X9566D01*
Y30449D01*
X9576D01*
Y30428D01*
X9587D01*
Y30397D01*
X9597D01*
Y30376D01*
X9608D01*
Y30355D01*
X9618D01*
Y30334D01*
X9629D01*
Y30303D01*
X9639D01*
Y30282D01*
X9650D01*
Y30261D01*
X9660D01*
Y30240D01*
X9671D01*
Y30219D01*
X9681D01*
Y30187D01*
X9692D01*
Y30167D01*
X9702D01*
Y30146D01*
X9713D01*
Y30125D01*
X9723D01*
Y30093D01*
X9734D01*
Y30072D01*
X9744D01*
Y30051D01*
X9754D01*
Y30030D01*
X9765D01*
Y30009D01*
X9775D01*
Y29978D01*
X9786D01*
Y29957D01*
X9796D01*
Y29936D01*
X9807D01*
Y29915D01*
X9817D01*
Y29894D01*
X9828D01*
Y29863D01*
X9838D01*
Y29842D01*
X9849D01*
Y29821D01*
X9859D01*
Y29800D01*
X9870D01*
Y29768D01*
X9880D01*
Y29748D01*
X9891D01*
Y29727D01*
X9901D01*
Y29706D01*
X9912D01*
Y29685D01*
X9922D01*
Y29653D01*
X9933D01*
Y29632D01*
X9943D01*
Y29611D01*
X9954D01*
Y29590D01*
X9964D01*
Y29570D01*
X9974D01*
Y29538D01*
X9985D01*
Y29517D01*
X9995D01*
Y29496D01*
X10006D01*
Y29475D01*
X10016D01*
Y29444D01*
X10027D01*
Y29423D01*
X10037D01*
Y29402D01*
X10048D01*
Y29381D01*
X10058D01*
Y29360D01*
X10069D01*
Y29329D01*
X10079D01*
Y29308D01*
X10090D01*
Y29287D01*
X10100D01*
Y29266D01*
X10111D01*
Y29234D01*
X10121D01*
Y29213D01*
X10132D01*
Y29192D01*
X10142D01*
Y29171D01*
X10153D01*
Y29151D01*
X10163D01*
Y29119D01*
X10174D01*
Y29098D01*
X10184D01*
Y29077D01*
X10194D01*
Y29056D01*
X10205D01*
Y29035D01*
X10215D01*
Y29004D01*
X10226D01*
Y28983D01*
X10236D01*
Y28962D01*
X10247D01*
Y28941D01*
X10257D01*
Y28910D01*
X10268D01*
Y28889D01*
X10278D01*
Y28868D01*
X10289D01*
Y28847D01*
X10299D01*
Y28826D01*
X10310D01*
Y28794D01*
X10320D01*
Y28773D01*
X10331D01*
Y28752D01*
X10341D01*
Y28731D01*
X10352D01*
Y28710D01*
X10362D01*
Y28679D01*
X10373D01*
Y28658D01*
X10383D01*
Y28637D01*
X10394D01*
Y28616D01*
X10404D01*
Y28585D01*
X10414D01*
Y28564D01*
X10425D01*
Y28543D01*
X10435D01*
Y28522D01*
X10446D01*
Y28501D01*
X10456D01*
Y28470D01*
X10467D01*
Y28449D01*
X10477D01*
Y28428D01*
X10488D01*
Y28407D01*
X10498D01*
Y28375D01*
X10509D01*
Y28354D01*
X10519D01*
Y28333D01*
X10530D01*
Y28312D01*
X10540D01*
Y28291D01*
X10551D01*
Y28260D01*
X10561D01*
Y28239D01*
X10572D01*
Y28218D01*
X10582D01*
Y28197D01*
X10593D01*
Y28176D01*
X10603D01*
Y28145D01*
X10614D01*
Y28124D01*
X10624D01*
Y28103D01*
X10634D01*
Y28082D01*
X10645D01*
Y28051D01*
X10655D01*
Y28030D01*
X10666D01*
Y28009D01*
X10676D01*
Y27988D01*
X10687D01*
Y27967D01*
X10697D01*
Y27935D01*
X10708D01*
Y27914D01*
X10718D01*
Y27893D01*
X10729D01*
Y27872D01*
X10739D01*
Y27852D01*
X10750D01*
Y27820D01*
X10760D01*
Y27799D01*
X10771D01*
Y27778D01*
X10781D01*
Y27757D01*
X10791D01*
Y27726D01*
X10802D01*
Y27705D01*
X10813D01*
Y27684D01*
X10823D01*
Y27663D01*
X10833D01*
Y27642D01*
X10844D01*
Y27611D01*
X10854D01*
Y27590D01*
X10865D01*
Y27569D01*
X10875D01*
Y27548D01*
X10886D01*
Y27516D01*
X10896D01*
Y27495D01*
X10907D01*
Y27474D01*
X10917D01*
Y27454D01*
X10928D01*
Y27433D01*
X10938D01*
Y27401D01*
X10949D01*
Y27380D01*
X10959D01*
Y27359D01*
X10970D01*
Y27338D01*
X10980D01*
Y27317D01*
X10991D01*
Y27286D01*
X11001D01*
Y27265D01*
X11011D01*
Y27244D01*
X11022D01*
Y27223D01*
X11033D01*
Y27192D01*
X11043D01*
Y27171D01*
X11053D01*
Y27150D01*
X11064D01*
Y27129D01*
X11074D01*
Y27108D01*
X11085D01*
Y27076D01*
X11095D01*
Y27055D01*
X11106D01*
Y27034D01*
X11116D01*
Y27013D01*
X11127D01*
Y26992D01*
X11137D01*
Y26961D01*
X11148D01*
Y26972D01*
X11158D01*
Y27003D01*
X11169D01*
Y27024D01*
X11179D01*
Y27045D01*
X11190D01*
Y27066D01*
X11200D01*
Y27097D01*
X11210D01*
Y27118D01*
X11221D01*
Y27139D01*
X11231D01*
Y27160D01*
X11242D01*
Y27181D01*
X11253D01*
Y27213D01*
X11263D01*
Y27233D01*
X11273D01*
Y27254D01*
X11284D01*
Y27275D01*
X11294D01*
Y27296D01*
X11305D01*
Y27328D01*
X11315D01*
Y27349D01*
X11326D01*
Y27370D01*
X11336D01*
Y27391D01*
X11347D01*
Y27422D01*
X11357D01*
Y27443D01*
X11368D01*
Y27464D01*
X11378D01*
Y27485D01*
X11389D01*
Y27506D01*
X11399D01*
Y27537D01*
X11410D01*
Y27558D01*
X11420D01*
Y27579D01*
X11430D01*
Y27600D01*
X11441D01*
Y27632D01*
X11451D01*
Y27652D01*
X11462D01*
Y27673D01*
X11472D01*
Y27694D01*
X11483D01*
Y27715D01*
X11493D01*
Y27747D01*
X11504D01*
Y27768D01*
X11514D01*
Y27789D01*
X11525D01*
Y27810D01*
X11535D01*
Y27831D01*
X11546D01*
Y27862D01*
X11556D01*
Y27883D01*
X11567D01*
Y27904D01*
X11577D01*
Y27925D01*
X11588D01*
Y27956D01*
X11598D01*
Y27977D01*
X11609D01*
Y27998D01*
X11619D01*
Y28019D01*
X11630D01*
Y28040D01*
X11640D01*
Y28071D01*
X11650D01*
Y28093D01*
X11661D01*
Y28113D01*
X11671D01*
Y28134D01*
X11682D01*
Y28166D01*
X11692D01*
Y28187D01*
X11703D01*
Y28208D01*
X11713D01*
Y28229D01*
X11724D01*
Y28250D01*
X11734D01*
Y28281D01*
X11745D01*
Y28302D01*
X11755D01*
Y28323D01*
X11766D01*
Y28344D01*
X11776D01*
Y28365D01*
X11787D01*
Y28396D01*
X11797D01*
Y28417D01*
X11808D01*
Y28438D01*
X11818D01*
Y28459D01*
X11829D01*
Y28490D01*
X11839D01*
Y28512D01*
X11850D01*
Y28532D01*
X11860D01*
Y28553D01*
X11870D01*
Y28574D01*
X11881D01*
Y28606D01*
X11891D01*
Y28627D01*
X11902D01*
Y28648D01*
X11912D01*
Y28669D01*
X11923D01*
Y28700D01*
X11933D01*
Y28721D01*
X11944D01*
Y28742D01*
X11954D01*
Y28763D01*
X11965D01*
Y28784D01*
X11975D01*
Y28815D01*
X11986D01*
Y28836D01*
X11996D01*
Y28857D01*
X12007D01*
Y28878D01*
X12017D01*
Y28899D01*
X12028D01*
Y28931D01*
X12038D01*
Y28951D01*
X12049D01*
Y28972D01*
X12059D01*
Y28993D01*
X12070D01*
Y29025D01*
X12080D01*
Y29046D01*
X12090D01*
Y29067D01*
X12101D01*
Y29088D01*
X12111D01*
Y29109D01*
X12122D01*
Y29140D01*
X12132D01*
Y29161D01*
X12143D01*
Y29182D01*
X12153D01*
Y29203D01*
X12164D01*
Y29224D01*
X12174D01*
Y29255D01*
X12185D01*
Y29276D01*
X12195D01*
Y29297D01*
X12206D01*
Y29318D01*
X12216D01*
Y29349D01*
X12227D01*
Y29370D01*
X12237D01*
Y29391D01*
X12248D01*
Y29412D01*
X12258D01*
Y29433D01*
X12269D01*
Y29465D01*
X12279D01*
Y29486D01*
X12290D01*
Y29507D01*
X12300D01*
Y29528D01*
X12310D01*
Y29559D01*
X12321D01*
Y29580D01*
X12331D01*
Y29601D01*
X12342D01*
Y29622D01*
X12352D01*
Y29643D01*
X12363D01*
Y29674D01*
X12373D01*
Y29695D01*
X12384D01*
Y29716D01*
X12394D01*
Y29737D01*
X12405D01*
Y29758D01*
X12415D01*
Y29789D01*
X12426D01*
Y29810D01*
X12436D01*
Y29831D01*
X12447D01*
Y29852D01*
X12457D01*
Y29884D01*
X12468D01*
Y29905D01*
X12478D01*
Y29926D01*
X12489D01*
Y29947D01*
X12499D01*
Y29967D01*
X12509D01*
Y29999D01*
X12520D01*
Y30020D01*
X12530D01*
Y30041D01*
X12541D01*
Y30062D01*
X12551D01*
Y30083D01*
X12562D01*
Y30114D01*
X12572D01*
Y30135D01*
X12583D01*
Y30156D01*
X12593D01*
Y30177D01*
X12604D01*
Y30209D01*
X12614D01*
Y30229D01*
X12625D01*
Y30250D01*
X12635D01*
Y30271D01*
X12646D01*
Y30292D01*
X12656D01*
Y30324D01*
X12667D01*
Y30345D01*
X12677D01*
Y30366D01*
X12688D01*
Y30386D01*
X12698D01*
Y30408D01*
X12709D01*
Y30439D01*
X12719D01*
Y30460D01*
X12730D01*
Y30481D01*
X12740D01*
Y30502D01*
X12750D01*
Y30533D01*
X12761D01*
Y30554D01*
X12771D01*
Y30575D01*
X12782D01*
Y30596D01*
X12834D01*
Y30586D01*
X12928D01*
Y30596D01*
X12970D01*
Y30606D01*
X12991D01*
Y30617D01*
X13012D01*
Y30628D01*
X13033D01*
Y30638D01*
X13044D01*
Y30648D01*
X13065D01*
Y30659D01*
X13075D01*
Y30669D01*
X13086D01*
Y30680D01*
X13107D01*
Y30690D01*
X13117D01*
Y30701D01*
X13127D01*
Y30711D01*
X13138D01*
Y30722D01*
X13149D01*
Y30732D01*
X13159D01*
Y30743D01*
X13169D01*
Y30753D01*
X13180D01*
Y30764D01*
X13190D01*
Y30774D01*
X13201D01*
Y30785D01*
X13211D01*
Y30795D01*
X13222D01*
Y30806D01*
X13232D01*
Y30816D01*
X13243D01*
Y30827D01*
X13253D01*
Y30837D01*
X13264D01*
Y30858D01*
X13274D01*
Y30868D01*
X13285D01*
Y30879D01*
X13295D01*
Y30889D01*
X13306D01*
Y30910D01*
X13316D01*
Y30921D01*
X13327D01*
Y30931D01*
X13337D01*
Y30952D01*
X13348D01*
Y30963D01*
X13358D01*
Y30984D01*
X13368D01*
Y30994D01*
X13379D01*
Y31015D01*
X13389D01*
Y31025D01*
X13400D01*
Y30994D01*
X13389D01*
Y30973D01*
X13379D01*
Y30952D01*
X13368D01*
Y30931D01*
X13358D01*
Y30900D01*
X13348D01*
Y30879D01*
X13337D01*
Y30858D01*
X13327D01*
Y30837D01*
X13316D01*
Y30806D01*
X13306D01*
Y30785D01*
X13295D01*
Y30764D01*
X13285D01*
Y30732D01*
X13274D01*
Y30711D01*
X13264D01*
Y30690D01*
X13253D01*
Y30669D01*
X13243D01*
Y30638D01*
X13232D01*
Y30617D01*
X13222D01*
Y30596D01*
X13211D01*
Y30565D01*
X13201D01*
Y30544D01*
X13190D01*
Y30523D01*
X13180D01*
Y30502D01*
X13169D01*
Y30470D01*
X13159D01*
Y30449D01*
X13149D01*
Y30428D01*
X13138D01*
Y30397D01*
X13127D01*
Y30376D01*
X13117D01*
Y30355D01*
X13107D01*
Y30334D01*
X13096D01*
Y30303D01*
X13086D01*
Y30282D01*
X13075D01*
Y30261D01*
X13065D01*
Y30240D01*
X13054D01*
Y30209D01*
X13044D01*
Y30187D01*
X13033D01*
Y30167D01*
X13023D01*
Y30135D01*
X13012D01*
Y30114D01*
X13002D01*
Y30093D01*
X12991D01*
Y30072D01*
X12981D01*
Y30041D01*
X12970D01*
Y30020D01*
X12960D01*
Y29999D01*
X12949D01*
Y29967D01*
X12939D01*
Y29947D01*
X12928D01*
Y29926D01*
X12918D01*
Y29905D01*
X12908D01*
Y29873D01*
X12897D01*
Y29852D01*
X12887D01*
Y29831D01*
X12876D01*
Y29810D01*
X12866D01*
Y29779D01*
X12855D01*
Y29758D01*
X12845D01*
Y29737D01*
X12834D01*
Y29706D01*
X12824D01*
Y29685D01*
X12813D01*
Y29664D01*
X12803D01*
Y29643D01*
X12792D01*
Y29611D01*
X12782D01*
Y29590D01*
X12771D01*
Y29570D01*
X12761D01*
Y29538D01*
X12750D01*
Y29517D01*
X12740D01*
Y29496D01*
X12730D01*
Y29475D01*
X12719D01*
Y29444D01*
X12709D01*
Y29423D01*
X12698D01*
Y29402D01*
X12688D01*
Y29370D01*
X12677D01*
Y29349D01*
X12667D01*
Y29329D01*
X12656D01*
Y29308D01*
X12646D01*
Y29276D01*
X12635D01*
Y29255D01*
X12625D01*
Y29234D01*
X12614D01*
Y29213D01*
X12604D01*
Y29182D01*
X12593D01*
Y29161D01*
X12583D01*
Y29140D01*
X12572D01*
Y29109D01*
X12562D01*
Y29088D01*
X12551D01*
Y29067D01*
X12541D01*
Y29046D01*
X12530D01*
Y29014D01*
X12520D01*
Y28993D01*
X12509D01*
Y28972D01*
X12499D01*
Y28941D01*
X12489D01*
Y28920D01*
X12478D01*
Y28899D01*
X12468D01*
Y28878D01*
X12457D01*
Y28847D01*
X12447D01*
Y28826D01*
X12436D01*
Y28805D01*
X12426D01*
Y28773D01*
X12415D01*
Y28752D01*
X12405D01*
Y28731D01*
X12394D01*
Y28710D01*
X12384D01*
Y28679D01*
X12373D01*
Y28658D01*
X12363D01*
Y28637D01*
X12352D01*
Y28616D01*
X12342D01*
Y28585D01*
X12331D01*
Y28564D01*
X12321D01*
Y28543D01*
X12310D01*
Y28512D01*
X12300D01*
Y28490D01*
X12290D01*
Y28470D01*
X12279D01*
Y28449D01*
X12269D01*
Y28417D01*
X12258D01*
Y28396D01*
X12248D01*
Y28375D01*
X12237D01*
Y28344D01*
X12227D01*
Y28323D01*
X12216D01*
Y28302D01*
X12206D01*
Y28281D01*
X12195D01*
Y28250D01*
X12185D01*
Y28229D01*
X12174D01*
Y28208D01*
X12164D01*
Y28187D01*
X12153D01*
Y28155D01*
X12143D01*
Y28134D01*
X12132D01*
Y28113D01*
X12122D01*
Y28082D01*
X12111D01*
Y28061D01*
X12101D01*
Y28040D01*
X12090D01*
Y28019D01*
X12080D01*
Y27988D01*
X12070D01*
Y27967D01*
X12059D01*
Y27946D01*
X12049D01*
Y27914D01*
X12038D01*
Y27893D01*
X12028D01*
Y27872D01*
X12017D01*
Y27852D01*
X12007D01*
Y27820D01*
X11996D01*
Y27799D01*
X11986D01*
Y27778D01*
X11975D01*
Y27747D01*
X11965D01*
Y27726D01*
X11954D01*
Y27705D01*
X11944D01*
Y27684D01*
X11933D01*
Y27652D01*
X11923D01*
Y27632D01*
X11912D01*
Y27611D01*
X11902D01*
Y27590D01*
X11891D01*
Y27558D01*
X11881D01*
Y27537D01*
X11870D01*
Y27516D01*
X11860D01*
Y27485D01*
X11850D01*
Y27464D01*
X11839D01*
Y27443D01*
X11829D01*
Y27422D01*
X11818D01*
Y27391D01*
X11808D01*
Y27370D01*
X11797D01*
Y27349D01*
X11787D01*
Y27317D01*
X11776D01*
Y27296D01*
X11766D01*
Y27275D01*
X11755D01*
Y27254D01*
X11745D01*
Y27223D01*
X11734D01*
Y27202D01*
X11724D01*
Y27181D01*
X11713D01*
Y27160D01*
X11703D01*
Y27129D01*
X11692D01*
Y27108D01*
X11682D01*
Y27087D01*
X11671D01*
Y27055D01*
X11661D01*
Y27034D01*
X11650D01*
Y27013D01*
X11640D01*
Y26992D01*
X11630D01*
Y26961D01*
X11619D01*
Y26940D01*
X11609D01*
Y26919D01*
X11598D01*
Y26888D01*
X11588D01*
Y26867D01*
X11577D01*
Y26846D01*
X11567D01*
Y26825D01*
X11556D01*
Y26794D01*
X11546D01*
Y26773D01*
X11535D01*
Y26752D01*
X11525D01*
Y26720D01*
X11514D01*
Y26699D01*
X11504D01*
Y26678D01*
X11493D01*
Y26657D01*
X11483D01*
Y26626D01*
X11472D01*
Y26605D01*
X11462D01*
Y26584D01*
X11451D01*
Y26563D01*
X11441D01*
Y26532D01*
X11430D01*
Y26511D01*
X11420D01*
Y26490D01*
X11410D01*
Y26458D01*
X11399D01*
Y26437D01*
X11389D01*
Y26416D01*
X11378D01*
Y26395D01*
X11368D01*
Y26364D01*
X11357D01*
Y26343D01*
X11347D01*
Y26322D01*
X11336D01*
Y26291D01*
X11326D01*
Y26270D01*
X11315D01*
Y26249D01*
X11305D01*
Y26228D01*
X11294D01*
Y26196D01*
X11284D01*
Y26175D01*
X11273D01*
Y26155D01*
X11263D01*
Y26134D01*
X11253D01*
Y26102D01*
X11242D01*
Y26081D01*
X11231D01*
Y26060D01*
X11221D01*
Y26029D01*
X11210D01*
Y26008D01*
X11200D01*
Y25987D01*
X11190D01*
Y25966D01*
X11179D01*
Y25935D01*
X11169D01*
Y25914D01*
X11158D01*
Y25893D01*
X11148D01*
Y25882D01*
X11137D01*
Y25903D01*
X11127D01*
Y25924D01*
X11116D01*
Y25945D01*
X11106D01*
Y25966D01*
X11095D01*
Y25987D01*
X11085D01*
Y26018D01*
X11074D01*
Y26039D01*
X11064D01*
Y26060D01*
X11053D01*
Y26081D01*
X11043D01*
Y26102D01*
X11033D01*
Y26123D01*
X11022D01*
Y26155D01*
X11011D01*
Y26175D01*
X11001D01*
Y26196D01*
X10991D01*
Y26217D01*
X10980D01*
Y26238D01*
X10970D01*
Y26259D01*
X10959D01*
Y26280D01*
X10949D01*
Y26312D01*
X10938D01*
Y26333D01*
X10928D01*
Y26354D01*
X10917D01*
Y26375D01*
X10907D01*
Y26395D01*
X10896D01*
Y26416D01*
X10886D01*
Y26448D01*
X10875D01*
Y26469D01*
X10865D01*
Y26490D01*
X10854D01*
Y26511D01*
X10844D01*
Y26532D01*
X10833D01*
Y26553D01*
X10823D01*
Y26584D01*
X10813D01*
Y26605D01*
X10802D01*
Y26626D01*
X10791D01*
Y26647D01*
X10781D01*
Y26668D01*
X10771D01*
Y26689D01*
X10760D01*
Y26720D01*
X10750D01*
Y26741D01*
X10739D01*
Y26762D01*
X10729D01*
Y26783D01*
X10718D01*
Y26804D01*
X10708D01*
Y26825D01*
X10697D01*
Y26856D01*
X10687D01*
Y26877D01*
X10676D01*
Y26898D01*
X10666D01*
Y26919D01*
X10655D01*
Y26940D01*
X10645D01*
Y26961D01*
X10634D01*
Y26992D01*
X10624D01*
Y27013D01*
X10614D01*
Y27034D01*
X10603D01*
Y27055D01*
X10593D01*
Y27076D01*
X10582D01*
Y27097D01*
X10572D01*
Y27129D01*
X10561D01*
Y27150D01*
X10551D01*
Y27171D01*
X10540D01*
Y27192D01*
X10530D01*
Y27213D01*
X10519D01*
Y27233D01*
X10509D01*
Y27265D01*
X10498D01*
Y27286D01*
X10488D01*
Y27307D01*
X10477D01*
Y27328D01*
X10467D01*
Y27349D01*
X10456D01*
Y27370D01*
X10446D01*
Y27401D01*
X10435D01*
Y27422D01*
X10425D01*
Y27443D01*
X10414D01*
Y27464D01*
X10404D01*
Y27485D01*
X10394D01*
Y27506D01*
X10383D01*
Y27537D01*
X10373D01*
Y27558D01*
X10362D01*
Y27579D01*
X10352D01*
Y27600D01*
X10341D01*
Y27621D01*
X10331D01*
Y27642D01*
X10320D01*
Y27663D01*
X10310D01*
Y27694D01*
X10299D01*
Y27715D01*
X10289D01*
Y27736D01*
X10278D01*
Y27757D01*
X10268D01*
Y27778D01*
X10257D01*
Y27799D01*
X10247D01*
Y27831D01*
X10236D01*
Y27852D01*
X10226D01*
Y27872D01*
X10215D01*
Y27893D01*
X10205D01*
Y27914D01*
X10194D01*
Y27935D01*
X10184D01*
Y27967D01*
X10174D01*
Y27988D01*
X10163D01*
Y28009D01*
X10153D01*
Y28030D01*
X10142D01*
Y28051D01*
X10132D01*
Y28071D01*
X10121D01*
Y28103D01*
X10111D01*
Y28124D01*
X10100D01*
Y28145D01*
X10090D01*
Y28166D01*
X10079D01*
Y28187D01*
X10069D01*
Y28208D01*
X10058D01*
Y28239D01*
X10048D01*
Y28260D01*
X10037D01*
Y28281D01*
X10027D01*
Y28302D01*
X10016D01*
Y28323D01*
X10006D01*
Y28344D01*
X9995D01*
Y28375D01*
X9985D01*
Y28396D01*
X9974D01*
Y28417D01*
X9964D01*
Y28438D01*
X9954D01*
Y28459D01*
X9943D01*
Y28480D01*
X9933D01*
Y28512D01*
X9922D01*
Y28532D01*
X9912D01*
Y28553D01*
X9901D01*
Y28574D01*
X9891D01*
Y28595D01*
X9880D01*
Y28616D01*
X9870D01*
Y28648D01*
X9859D01*
Y28669D01*
X9849D01*
Y28690D01*
X9838D01*
Y28710D01*
X9828D01*
Y28731D01*
X9817D01*
Y28752D01*
X9807D01*
Y28784D01*
X9796D01*
Y28805D01*
X9786D01*
Y28826D01*
X9775D01*
Y28847D01*
X9765D01*
Y28868D01*
X9754D01*
Y28889D01*
X9744D01*
Y28910D01*
X9734D01*
Y28941D01*
X9723D01*
Y28962D01*
X9713D01*
Y28983D01*
X9702D01*
Y29004D01*
X9692D01*
Y29025D01*
X9681D01*
Y29046D01*
X9671D01*
Y29077D01*
X9660D01*
Y29098D01*
X9650D01*
Y29119D01*
X9639D01*
Y29140D01*
X9629D01*
Y29161D01*
X9618D01*
Y29182D01*
X9608D01*
Y29213D01*
X9597D01*
Y29234D01*
X9587D01*
Y29255D01*
X9576D01*
Y29276D01*
X9566D01*
Y29297D01*
X9556D01*
Y29318D01*
X9545D01*
Y29349D01*
X9534D01*
Y29370D01*
X9524D01*
Y29391D01*
X9514D01*
Y29412D01*
X9503D01*
Y29433D01*
X9493D01*
Y29454D01*
X9482D01*
Y29486D01*
X9472D01*
Y29507D01*
X9461D01*
Y29528D01*
X9451D01*
Y29548D01*
X9440D01*
Y29570D01*
X9430D01*
Y29590D01*
X9419D01*
Y29622D01*
X9409D01*
Y29643D01*
X9398D01*
Y29664D01*
X9388D01*
Y29685D01*
X9377D01*
Y29706D01*
X9367D01*
Y29727D01*
X9356D01*
Y29758D01*
X9346D01*
Y29779D01*
X9336D01*
Y29800D01*
X9325D01*
Y29821D01*
X9314D01*
Y29842D01*
X9304D01*
Y29863D01*
X9294D01*
Y29873D01*
X9283D01*
Y29852D01*
X9273D01*
Y29831D01*
X9262D01*
Y29810D01*
X9252D01*
Y29789D01*
X9241D01*
Y29768D01*
X9231D01*
Y29737D01*
X9220D01*
Y29716D01*
X9210D01*
Y29695D01*
X9199D01*
Y29674D01*
X9189D01*
Y29653D01*
X9178D01*
Y29632D01*
X9168D01*
Y29601D01*
X9157D01*
Y29580D01*
X9147D01*
Y29559D01*
X9136D01*
Y29538D01*
X9126D01*
Y29517D01*
X9116D01*
Y29496D01*
X9105D01*
Y29475D01*
X9094D01*
Y29444D01*
X9084D01*
Y29423D01*
X9074D01*
Y29402D01*
X9063D01*
Y29381D01*
X9053D01*
Y29360D01*
X9042D01*
Y29339D01*
X9032D01*
Y29308D01*
X9021D01*
Y29287D01*
X9011D01*
Y29266D01*
X9000D01*
Y29245D01*
X8990D01*
Y29224D01*
X8979D01*
Y29203D01*
X8969D01*
Y29171D01*
X8958D01*
Y29151D01*
X8948D01*
Y29129D01*
X8937D01*
Y29109D01*
X8927D01*
Y29088D01*
X8917D01*
Y29067D01*
X8906D01*
Y29035D01*
X8896D01*
Y29014D01*
X8885D01*
Y28993D01*
X8875D01*
Y28972D01*
X8864D01*
Y28951D01*
X8854D01*
Y28931D01*
X8843D01*
Y28899D01*
X8833D01*
Y28878D01*
X8822D01*
Y28857D01*
X8812D01*
Y28836D01*
X8801D01*
Y28815D01*
X8791D01*
Y28794D01*
X8780D01*
Y28763D01*
X8770D01*
Y28742D01*
X8759D01*
Y28721D01*
X8749D01*
Y28700D01*
X8738D01*
Y28679D01*
X8728D01*
Y28658D01*
X8717D01*
Y28627D01*
X8707D01*
Y28606D01*
X8697D01*
Y28585D01*
X8686D01*
Y28564D01*
X8676D01*
Y28543D01*
X8665D01*
Y28522D01*
X8655D01*
Y28490D01*
X8644D01*
Y28470D01*
X8634D01*
Y28449D01*
X8623D01*
Y28428D01*
X8613D01*
Y28407D01*
X8602D01*
Y28386D01*
X8592D01*
Y28354D01*
X8581D01*
Y28333D01*
X8571D01*
Y28312D01*
X8560D01*
Y28291D01*
X8550D01*
Y28271D01*
X8539D01*
Y28250D01*
X8529D01*
Y28218D01*
X8518D01*
Y28197D01*
X8508D01*
Y28176D01*
X8497D01*
Y28155D01*
X8487D01*
Y28134D01*
X8477D01*
Y28113D01*
X8466D01*
Y28093D01*
X8456D01*
Y28061D01*
X8445D01*
Y28040D01*
X8435D01*
Y28019D01*
X8424D01*
Y27998D01*
X8414D01*
Y27977D01*
X8403D01*
Y27956D01*
X8393D01*
Y27925D01*
X8382D01*
Y27904D01*
X8372D01*
Y27883D01*
X8361D01*
Y27862D01*
X8351D01*
Y27841D01*
X8340D01*
Y27820D01*
X8330D01*
Y27789D01*
X8319D01*
Y27768D01*
X8309D01*
Y27747D01*
X8298D01*
Y27726D01*
X8288D01*
Y27705D01*
X8277D01*
Y27684D01*
X8267D01*
Y27652D01*
X8257D01*
Y27632D01*
X8246D01*
Y27611D01*
X8236D01*
Y27590D01*
X8225D01*
Y27569D01*
X8215D01*
Y27548D01*
X8204D01*
Y27516D01*
X8194D01*
Y27495D01*
X8183D01*
Y27474D01*
X8173D01*
Y27454D01*
X8162D01*
Y27433D01*
X8152D01*
Y27412D01*
X8141D01*
Y27380D01*
X8131D01*
Y27359D01*
X8120D01*
Y27338D01*
X8110D01*
Y27317D01*
X8099D01*
Y27296D01*
X8089D01*
Y27275D01*
X8078D01*
Y27244D01*
X8068D01*
Y27223D01*
X8057D01*
Y27202D01*
X8047D01*
Y27181D01*
X8037D01*
Y27160D01*
X8026D01*
Y27139D01*
X8016D01*
Y27108D01*
X8005D01*
Y27087D01*
X7995D01*
Y27066D01*
X7984D01*
Y27045D01*
X7974D01*
Y27024D01*
X7963D01*
Y27003D01*
X7953D01*
Y26972D01*
X7942D01*
Y26951D01*
X7932D01*
Y26930D01*
X7921D01*
Y26909D01*
X7911D01*
Y26888D01*
X7900D01*
Y26867D01*
X7890D01*
Y26846D01*
X7879D01*
Y26814D01*
X7869D01*
Y26794D01*
X7858D01*
Y26773D01*
X7848D01*
Y26752D01*
X7837D01*
Y26731D01*
X7827D01*
Y26710D01*
X7817D01*
Y26678D01*
X7806D01*
Y26657D01*
X7796D01*
Y26636D01*
X7785D01*
Y26615D01*
X7775D01*
Y26594D01*
X7764D01*
Y26574D01*
X7754D01*
Y26542D01*
X7743D01*
Y26521D01*
X7733D01*
Y26500D01*
X7722D01*
Y26479D01*
X7712D01*
Y26458D01*
X7701D01*
Y26437D01*
X7691D01*
Y26406D01*
X7680D01*
Y26385D01*
X7670D01*
Y26364D01*
X7659D01*
Y26343D01*
X7649D01*
Y26322D01*
X7638D01*
Y26301D01*
X7628D01*
Y26270D01*
X7617D01*
Y26249D01*
X7607D01*
Y26228D01*
X7597D01*
Y26207D01*
X7586D01*
Y26186D01*
X7576D01*
Y26165D01*
X7565D01*
Y26134D01*
X7555D01*
Y26113D01*
X7544D01*
Y26092D01*
X7534D01*
Y26071D01*
X7523D01*
Y26050D01*
X7513D01*
Y26029D01*
X7502D01*
Y25997D01*
X7492D01*
Y25976D01*
X7481D01*
Y25956D01*
X7471D01*
Y25935D01*
X7460D01*
Y25914D01*
X7450D01*
Y25893D01*
X7439D01*
Y25882D01*
X7429D01*
Y25903D01*
X7418D01*
Y25924D01*
X7408D01*
Y25945D01*
X7397D01*
Y25966D01*
X7387D01*
Y25987D01*
X7377D01*
Y26008D01*
X7366D01*
Y26039D01*
X7356D01*
Y26060D01*
X7345D01*
Y26081D01*
X7335D01*
Y26102D01*
X7324D01*
Y26123D01*
X7314D01*
Y26144D01*
X7303D01*
Y26175D01*
X7293D01*
Y26196D01*
X7282D01*
Y26217D01*
X7272D01*
Y26238D01*
X7261D01*
Y26259D01*
X7251D01*
Y26280D01*
X7240D01*
Y26312D01*
X7230D01*
Y26333D01*
X7220D01*
Y26354D01*
X7209D01*
Y26375D01*
X7198D01*
Y26395D01*
X7188D01*
Y26416D01*
X7178D01*
Y26437D01*
X7167D01*
Y26469D01*
X7157D01*
Y26490D01*
X7146D01*
Y26511D01*
X7136D01*
Y26532D01*
X7125D01*
Y26553D01*
X7115D01*
Y26574D01*
X7104D01*
Y26605D01*
X7094D01*
Y26626D01*
X7083D01*
Y26647D01*
X7073D01*
Y26668D01*
X7062D01*
Y26689D01*
X7052D01*
Y26710D01*
X7041D01*
Y26741D01*
X7031D01*
Y26762D01*
X7020D01*
Y26783D01*
X7010D01*
Y26804D01*
X7000D01*
Y26825D01*
X6989D01*
Y26846D01*
X6978D01*
Y26877D01*
X6968D01*
Y26898D01*
X6958D01*
Y26919D01*
X6947D01*
Y26940D01*
X6937D01*
Y26961D01*
X6926D01*
Y26982D01*
X6916D01*
Y27003D01*
X6905D01*
Y27034D01*
X6895D01*
Y27055D01*
X6884D01*
Y27076D01*
X6874D01*
Y27097D01*
X6863D01*
Y27118D01*
X6853D01*
Y27139D01*
X6842D01*
Y27171D01*
X6832D01*
Y27192D01*
X6821D01*
Y27213D01*
X6811D01*
Y27233D01*
X6800D01*
Y27254D01*
X6790D01*
Y27275D01*
X6780D01*
Y27307D01*
X6769D01*
Y27328D01*
X6758D01*
Y27349D01*
X6748D01*
Y27370D01*
X6738D01*
Y27391D01*
X6727D01*
Y27412D01*
X6717D01*
Y27433D01*
X6706D01*
Y27464D01*
X6696D01*
Y27485D01*
X6685D01*
Y27506D01*
X6675D01*
Y27527D01*
X6664D01*
Y27548D01*
X6654D01*
Y27569D01*
X6643D01*
Y27600D01*
X6633D01*
Y27621D01*
X6622D01*
Y27642D01*
X6612D01*
Y27663D01*
X6601D01*
Y27684D01*
X6591D01*
Y27705D01*
X6581D01*
Y27736D01*
X6570D01*
Y27757D01*
X6560D01*
Y27778D01*
X6549D01*
Y27799D01*
X6539D01*
Y27820D01*
X6528D01*
Y27841D01*
X6518D01*
Y27862D01*
X6507D01*
Y27893D01*
X6497D01*
Y27914D01*
X6486D01*
Y27935D01*
X6476D01*
Y27956D01*
X6465D01*
Y27977D01*
X6455D01*
Y27998D01*
X6444D01*
Y28030D01*
X6434D01*
Y28051D01*
X6423D01*
Y28071D01*
X6413D01*
Y28093D01*
X6402D01*
Y28113D01*
X6392D01*
Y28134D01*
X6381D01*
Y28166D01*
X6371D01*
Y28187D01*
X6361D01*
Y28208D01*
X6350D01*
Y28229D01*
X6340D01*
Y28250D01*
X6329D01*
Y28271D01*
X6319D01*
Y28291D01*
X6308D01*
Y28323D01*
X6298D01*
Y28344D01*
X6287D01*
Y28365D01*
X6277D01*
Y28386D01*
X6266D01*
Y28407D01*
X6256D01*
Y28428D01*
X6245D01*
Y28459D01*
X6235D01*
Y28480D01*
X6224D01*
Y28501D01*
X6214D01*
Y28522D01*
X6203D01*
Y28543D01*
X6193D01*
Y28564D01*
X6182D01*
Y28595D01*
X6172D01*
Y28616D01*
X6162D01*
Y28637D01*
X6151D01*
Y28658D01*
X6140D01*
Y28679D01*
X6130D01*
Y28700D01*
X6120D01*
Y28731D01*
X6109D01*
Y28752D01*
X6099D01*
Y28773D01*
X6088D01*
Y28794D01*
X6078D01*
Y28815D01*
X6067D01*
Y28836D01*
X6057D01*
Y28857D01*
X6046D01*
Y28889D01*
X6036D01*
Y28910D01*
X6025D01*
Y28931D01*
X6015D01*
Y28951D01*
X6004D01*
Y28972D01*
X5994D01*
Y28993D01*
X5983D01*
Y29025D01*
X5973D01*
Y29046D01*
X5962D01*
Y29067D01*
X5952D01*
Y29088D01*
X5942D01*
Y29109D01*
X5931D01*
Y29129D01*
X5920D01*
Y29161D01*
X5910D01*
Y29182D01*
X5900D01*
Y29203D01*
X5889D01*
Y29224D01*
X5879D01*
Y29245D01*
X5868D01*
Y29266D01*
X5858D01*
Y29297D01*
X5847D01*
Y29318D01*
X5837D01*
Y29339D01*
X5826D01*
Y29360D01*
X5816D01*
Y29381D01*
X5805D01*
Y29402D01*
X5795D01*
Y29423D01*
X5784D01*
Y29454D01*
X5774D01*
Y29475D01*
X5763D01*
Y29496D01*
X5753D01*
Y29517D01*
X5742D01*
Y29538D01*
X5732D01*
Y29559D01*
X5722D01*
Y29590D01*
X5711D01*
Y29611D01*
X5700D01*
Y29632D01*
X5690D01*
Y29653D01*
X5680D01*
Y29674D01*
X5669D01*
Y29695D01*
X5659D01*
Y29727D01*
X5648D01*
Y29748D01*
X5638D01*
Y29768D01*
X5627D01*
Y29789D01*
X5617D01*
Y29810D01*
X5606D01*
Y29831D01*
X5596D01*
Y29863D01*
X5585D01*
Y29884D01*
X5575D01*
Y29905D01*
X5564D01*
Y29926D01*
X5554D01*
Y29947D01*
X5543D01*
Y29967D01*
X5533D01*
Y29989D01*
X5522D01*
Y30020D01*
X5512D01*
Y30041D01*
X5502D01*
Y30062D01*
X5491D01*
Y30083D01*
X5481D01*
Y30104D01*
X5470D01*
Y30125D01*
X5460D01*
Y30156D01*
X5449D01*
Y30177D01*
X5439D01*
Y30198D01*
X5428D01*
Y30219D01*
X5418D01*
Y30240D01*
X5407D01*
Y30261D01*
X5397D01*
Y30292D01*
X5386D01*
Y30313D01*
X5376D01*
Y30334D01*
X5365D01*
Y30355D01*
X5355D01*
Y30376D01*
X5344D01*
Y30397D01*
X5334D01*
Y30418D01*
X5323D01*
Y30449D01*
X5313D01*
Y30470D01*
X5302D01*
Y30491D01*
X5292D01*
Y30512D01*
X5282D01*
Y30533D01*
X5271D01*
Y30554D01*
X5261D01*
Y30586D01*
X5250D01*
Y30606D01*
X5240D01*
Y30628D01*
X5229D01*
Y30648D01*
X5219D01*
Y30669D01*
X5208D01*
Y30690D01*
X5198D01*
Y30722D01*
X5187D01*
Y30743D01*
X5177D01*
Y30764D01*
X5166D01*
Y30785D01*
X5156D01*
Y30806D01*
X5145D01*
Y30827D01*
X5135D01*
Y30858D01*
X5124D01*
Y30879D01*
X5114D01*
Y30900D01*
X5103D01*
Y30921D01*
X5093D01*
Y30942D01*
X5082D01*
Y30963D01*
X5072D01*
Y30984D01*
X5062D01*
Y31015D01*
X5051D01*
Y31025D01*
Y31036D01*
X5041D01*
Y31047D01*
X5051D01*
Y31036D01*
X5062D01*
Y31015D01*
X5072D01*
Y31005D01*
X5082D01*
Y30984D01*
X5093D01*
Y30973D01*
X5103D01*
Y30952D01*
X5114D01*
Y30942D01*
X5124D01*
Y30931D01*
X5135D01*
Y30910D01*
X5145D01*
Y30900D01*
X5156D01*
Y30889D01*
X5166D01*
Y30868D01*
X5177D01*
Y30858D01*
X5187D01*
Y30847D01*
X5198D01*
Y30837D01*
X5208D01*
Y30827D01*
X5219D01*
Y30816D01*
X5229D01*
Y30806D01*
X5240D01*
Y30795D01*
X5250D01*
Y30785D01*
X5261D01*
Y30774D01*
X5271D01*
Y30764D01*
X5282D01*
Y30753D01*
X5292D01*
Y30743D01*
X5313D01*
Y30732D01*
X5323D01*
Y30722D01*
X5344D01*
Y30711D01*
X5355D01*
Y30701D01*
X5376D01*
Y30690D01*
X5397D01*
Y30680D01*
X5418D01*
Y30669D01*
X5449D01*
Y30659D01*
X5470D01*
Y30648D01*
X5502D01*
Y30638D01*
X5543D01*
Y30628D01*
X5575D01*
Y30617D01*
X5638D01*
Y30606D01*
X5690D01*
Y30596D01*
X5700D01*
Y30575D01*
X5711D01*
Y30554D01*
X5722D01*
Y30533D01*
X5732D01*
Y30512D01*
X5742D01*
Y30491D01*
X5753D01*
Y30470D01*
X5763D01*
Y30449D01*
X5774D01*
Y30418D01*
X5784D01*
Y30397D01*
X5795D01*
Y30376D01*
X5805D01*
Y30355D01*
X5816D01*
Y30334D01*
X5826D01*
Y30313D01*
X5837D01*
Y30292D01*
X5847D01*
Y30271D01*
X5858D01*
Y30250D01*
X5868D01*
Y30229D01*
X5879D01*
Y30209D01*
X5889D01*
Y30177D01*
X5900D01*
Y30156D01*
X5910D01*
Y30135D01*
X5920D01*
Y30114D01*
X5931D01*
Y30093D01*
X5942D01*
Y30072D01*
X5952D01*
Y30051D01*
X5962D01*
Y30030D01*
X5973D01*
Y30009D01*
X5983D01*
Y29989D01*
X5994D01*
Y29967D01*
X6004D01*
Y29936D01*
X6015D01*
Y29915D01*
X6025D01*
Y29894D01*
X6036D01*
Y29873D01*
X6046D01*
Y29852D01*
X6057D01*
Y29831D01*
X6067D01*
Y29810D01*
X6078D01*
Y29789D01*
X6088D01*
Y29768D01*
X6099D01*
Y29748D01*
X6109D01*
Y29727D01*
X6120D01*
Y29695D01*
X6130D01*
Y29674D01*
X6140D01*
Y29653D01*
X6151D01*
Y29632D01*
X6162D01*
Y29611D01*
X6172D01*
Y29590D01*
X6182D01*
Y29570D01*
X6193D01*
Y29548D01*
X6203D01*
Y29528D01*
X6214D01*
Y29507D01*
X6224D01*
Y29486D01*
X6235D01*
Y29454D01*
X6245D01*
Y29433D01*
X6256D01*
Y29412D01*
X6266D01*
Y29391D01*
X6277D01*
Y29370D01*
X6287D01*
Y29349D01*
X6298D01*
Y29329D01*
X6308D01*
Y29308D01*
X6319D01*
Y29287D01*
X6329D01*
Y29266D01*
X6340D01*
Y29245D01*
X6350D01*
Y29213D01*
X6361D01*
Y29192D01*
X6371D01*
Y29171D01*
X6381D01*
Y29151D01*
X6392D01*
Y29129D01*
X6402D01*
Y29109D01*
X6413D01*
Y29088D01*
X6423D01*
Y29067D01*
X6434D01*
Y29046D01*
X6444D01*
Y29025D01*
X6455D01*
Y29004D01*
X6465D01*
Y28972D01*
X6476D01*
Y28951D01*
X6486D01*
Y28931D01*
X6497D01*
Y28910D01*
X6507D01*
Y28889D01*
X6518D01*
Y28868D01*
X6528D01*
Y28847D01*
X6539D01*
Y28826D01*
X6549D01*
Y28805D01*
X6560D01*
Y28784D01*
X6570D01*
Y28763D01*
X6581D01*
Y28731D01*
X6591D01*
Y28710D01*
X6601D01*
Y28690D01*
X6612D01*
Y28669D01*
X6622D01*
Y28648D01*
X6633D01*
Y28627D01*
X6643D01*
Y28606D01*
X6654D01*
Y28585D01*
X6664D01*
Y28564D01*
X6675D01*
Y28543D01*
X6685D01*
Y28522D01*
X6696D01*
Y28490D01*
X6706D01*
Y28470D01*
X6717D01*
Y28449D01*
X6727D01*
Y28428D01*
X6738D01*
Y28407D01*
X6748D01*
Y28386D01*
X6758D01*
Y28365D01*
X6769D01*
Y28344D01*
X6780D01*
Y28323D01*
X6790D01*
Y28302D01*
X6800D01*
Y28281D01*
X6811D01*
Y28260D01*
X6821D01*
Y28229D01*
X6832D01*
Y28208D01*
X6842D01*
Y28187D01*
X6853D01*
Y28166D01*
X6863D01*
Y28145D01*
X6874D01*
Y28124D01*
X6884D01*
Y28103D01*
X6895D01*
Y28082D01*
X6905D01*
Y28061D01*
X6916D01*
Y28040D01*
X6926D01*
Y28019D01*
X6937D01*
Y27988D01*
X6947D01*
Y27967D01*
X6958D01*
Y27946D01*
X6968D01*
Y27925D01*
X6978D01*
Y27904D01*
X6989D01*
Y27883D01*
X7000D01*
Y27862D01*
X7010D01*
Y27841D01*
X7020D01*
Y27820D01*
X7031D01*
Y27799D01*
X7041D01*
Y27778D01*
X7052D01*
Y27747D01*
X7062D01*
Y27726D01*
X7073D01*
Y27705D01*
X7083D01*
Y27684D01*
X7094D01*
Y27663D01*
X7104D01*
Y27642D01*
X7115D01*
Y27621D01*
X7125D01*
Y27600D01*
X7136D01*
Y27579D01*
X7146D01*
Y27558D01*
X7157D01*
Y27537D01*
X7167D01*
Y27506D01*
X7178D01*
Y27485D01*
X7188D01*
Y27464D01*
X7198D01*
Y27443D01*
X7209D01*
Y27422D01*
X7220D01*
Y27401D01*
X7230D01*
Y27380D01*
X7240D01*
Y27359D01*
X7251D01*
Y27338D01*
X7261D01*
Y27317D01*
X7272D01*
Y27296D01*
X7282D01*
Y27275D01*
X7293D01*
Y27244D01*
X7303D01*
Y27223D01*
X7314D01*
Y27202D01*
X7324D01*
Y27181D01*
X7335D01*
Y27160D01*
X7345D01*
Y27139D01*
X7356D01*
Y27118D01*
X7366D01*
Y27097D01*
X7377D01*
Y27076D01*
X7387D01*
Y27055D01*
X7397D01*
Y27034D01*
X7408D01*
Y27003D01*
X7418D01*
Y26982D01*
X7429D01*
Y26961D01*
X7439D01*
Y26972D01*
X7450D01*
Y27003D01*
X7460D01*
Y27024D01*
X7471D01*
Y27045D01*
X7481D01*
Y27066D01*
X7492D01*
Y27087D01*
X7502D01*
Y27118D01*
X7513D01*
Y27139D01*
X7523D01*
Y27160D01*
X7534D01*
Y27181D01*
X7544D01*
Y27213D01*
X7555D01*
Y27233D01*
X7565D01*
Y27254D01*
X7576D01*
Y27275D01*
X7586D01*
Y27296D01*
X7597D01*
Y27328D01*
X7607D01*
Y27349D01*
X7617D01*
Y27370D01*
X7628D01*
Y27391D01*
X7638D01*
Y27422D01*
X7649D01*
Y27443D01*
X7659D01*
Y27464D01*
X7670D01*
Y27485D01*
X7680D01*
Y27506D01*
X7691D01*
Y27537D01*
X7701D01*
Y27558D01*
X7712D01*
Y27579D01*
X7722D01*
Y27600D01*
X7733D01*
Y27621D01*
X7743D01*
Y27652D01*
X7754D01*
Y27673D01*
X7764D01*
Y27694D01*
X7775D01*
Y27715D01*
X7785D01*
Y27747D01*
X7796D01*
Y27768D01*
X7806D01*
Y27789D01*
X7817D01*
Y27810D01*
X7827D01*
Y27831D01*
X7837D01*
Y27862D01*
X7848D01*
Y27883D01*
X7858D01*
Y27904D01*
X7869D01*
Y27925D01*
X7879D01*
Y27946D01*
X7890D01*
Y27977D01*
X7900D01*
Y27998D01*
X7911D01*
Y28019D01*
X7921D01*
Y28040D01*
X7932D01*
Y28071D01*
X7942D01*
Y28093D01*
X7953D01*
Y28113D01*
X7963D01*
Y28134D01*
X7974D01*
Y28155D01*
X7984D01*
Y28187D01*
X7995D01*
Y28208D01*
X8005D01*
Y28229D01*
X8016D01*
Y28250D01*
X8026D01*
Y28281D01*
X8037D01*
Y28302D01*
X8047D01*
Y28323D01*
X8057D01*
Y28344D01*
X8068D01*
Y28365D01*
X8078D01*
Y28396D01*
X8089D01*
Y28417D01*
X8099D01*
Y28438D01*
X8110D01*
Y28459D01*
X8120D01*
Y28480D01*
X8131D01*
Y28512D01*
X8141D01*
Y28532D01*
X8152D01*
Y28553D01*
X8162D01*
Y28574D01*
X8173D01*
Y28606D01*
X8183D01*
Y28627D01*
X8194D01*
Y28648D01*
X8204D01*
Y28669D01*
X8215D01*
Y28690D01*
X8225D01*
Y28721D01*
X8236D01*
Y28742D01*
X8246D01*
Y28763D01*
X8257D01*
Y28784D01*
X8267D01*
Y28805D01*
X8277D01*
Y28836D01*
X8288D01*
Y28857D01*
X8298D01*
Y28878D01*
X8309D01*
Y28899D01*
X8319D01*
Y28931D01*
X8330D01*
Y28951D01*
X8340D01*
Y28972D01*
X8351D01*
Y28993D01*
X8361D01*
Y29014D01*
X8372D01*
Y29046D01*
X8382D01*
Y29067D01*
X8393D01*
Y29088D01*
X8403D01*
Y29109D01*
X8414D01*
Y29140D01*
X8424D01*
Y29161D01*
X8435D01*
Y29182D01*
X8445D01*
Y29203D01*
X8456D01*
Y29224D01*
X8466D01*
Y29255D01*
X8477D01*
Y29276D01*
X8487D01*
Y29297D01*
X8497D01*
Y29318D01*
X8508D01*
Y29339D01*
X8518D01*
Y29370D01*
X8529D01*
Y29391D01*
X8539D01*
Y29412D01*
X8550D01*
Y29433D01*
X8560D01*
Y29465D01*
X8571D01*
Y29486D01*
X8581D01*
Y29507D01*
X8592D01*
Y29528D01*
X8602D01*
Y29548D01*
X8613D01*
Y29580D01*
X8623D01*
Y29601D01*
X8634D01*
Y29622D01*
X8644D01*
Y29643D01*
X8655D01*
Y29664D01*
X8665D01*
Y29695D01*
X8676D01*
Y29716D01*
X8686D01*
Y29737D01*
X8697D01*
Y29758D01*
X8707D01*
Y29789D01*
X8717D01*
Y29810D01*
X8728D01*
Y29831D01*
X8738D01*
Y29852D01*
X8749D01*
Y29873D01*
X8759D01*
Y29905D01*
X8770D01*
Y29926D01*
X8780D01*
Y29947D01*
X8791D01*
Y29967D01*
X8801D01*
Y29999D01*
X8812D01*
Y30020D01*
X8822D01*
Y30041D01*
X8833D01*
Y30062D01*
X8843D01*
Y30083D01*
X8854D01*
Y30114D01*
X8864D01*
Y30135D01*
X8875D01*
Y30156D01*
X8885D01*
Y30177D01*
X8896D01*
Y30198D01*
X8906D01*
Y30229D01*
X8917D01*
Y30250D01*
X8927D01*
Y30271D01*
X8937D01*
Y30292D01*
X8948D01*
Y30324D01*
X8958D01*
Y30345D01*
X8969D01*
Y30366D01*
X8979D01*
Y30386D01*
X8990D01*
Y30408D01*
X9000D01*
Y30439D01*
X9011D01*
Y30460D01*
X9021D01*
Y30481D01*
X9032D01*
Y30502D01*
X9042D01*
Y30523D01*
X9053D01*
Y30554D01*
X9063D01*
Y30575D01*
X9074D01*
Y30596D01*
X9084D01*
Y30617D01*
X9094D01*
Y30648D01*
X9105D01*
Y30669D01*
X9116D01*
Y30690D01*
X9126D01*
Y30711D01*
X9136D01*
Y30732D01*
X9147D01*
Y30764D01*
X9157D01*
Y30785D01*
X9168D01*
Y30806D01*
X9178D01*
Y30827D01*
X9189D01*
Y30858D01*
X9199D01*
Y30879D01*
X9210D01*
Y30900D01*
X9220D01*
Y30921D01*
X9231D01*
Y30942D01*
X9241D01*
Y30973D01*
X9252D01*
Y30994D01*
X9262D01*
Y31015D01*
X9273D01*
Y31036D01*
X9283D01*
Y31057D01*
X9294D01*
Y31047D01*
D02*
G37*
G36*
X15526Y31036D02*
X15537D01*
Y31015D01*
X15547D01*
Y30994D01*
X15558D01*
Y30973D01*
X15568D01*
Y30952D01*
X15579D01*
Y30931D01*
X15589D01*
Y30910D01*
X15600D01*
Y30889D01*
X15610D01*
Y30868D01*
X15621D01*
Y30847D01*
X15631D01*
Y30827D01*
X15642D01*
Y30806D01*
X15652D01*
Y30785D01*
X15663D01*
Y30764D01*
X15673D01*
Y30743D01*
X15684D01*
Y30722D01*
X15694D01*
Y30701D01*
X15704D01*
Y30680D01*
X15715D01*
Y30659D01*
X15725D01*
Y30638D01*
X15736D01*
Y30617D01*
X15746D01*
Y30596D01*
X15757D01*
Y30575D01*
X15767D01*
Y30554D01*
X15778D01*
Y30533D01*
X15788D01*
Y30512D01*
X15799D01*
Y30491D01*
X15809D01*
Y30470D01*
X15820D01*
Y30449D01*
X15830D01*
Y30428D01*
X15841D01*
Y30408D01*
X15851D01*
Y30376D01*
X15862D01*
Y30355D01*
X15872D01*
Y30334D01*
X15882D01*
Y30313D01*
X15893D01*
Y30292D01*
X15903D01*
Y30271D01*
X15914D01*
Y30250D01*
X15924D01*
Y30229D01*
X15935D01*
Y30209D01*
X15945D01*
Y30187D01*
X15956D01*
Y30167D01*
X15966D01*
Y30146D01*
X15977D01*
Y30125D01*
X15987D01*
Y30104D01*
X15998D01*
Y30083D01*
X16008D01*
Y30062D01*
X16019D01*
Y30041D01*
X16029D01*
Y30020D01*
X16040D01*
Y29999D01*
X16050D01*
Y29978D01*
X16061D01*
Y29957D01*
X16071D01*
Y29936D01*
X16082D01*
Y29915D01*
X16092D01*
Y29894D01*
X16103D01*
Y29873D01*
X16113D01*
Y29852D01*
X16123D01*
Y29831D01*
X16134D01*
Y29810D01*
X16144D01*
Y29789D01*
X16155D01*
Y29768D01*
X16165D01*
Y29748D01*
X16176D01*
Y29727D01*
X16186D01*
Y29695D01*
X16197D01*
Y29674D01*
X16207D01*
Y29653D01*
X16218D01*
Y29632D01*
X16228D01*
Y29611D01*
X16239D01*
Y29590D01*
X16249D01*
Y29570D01*
X16260D01*
Y29548D01*
X16270D01*
Y29528D01*
X16281D01*
Y29507D01*
X16291D01*
Y29486D01*
X16301D01*
Y29465D01*
X16312D01*
Y29444D01*
X16322D01*
Y29423D01*
X16333D01*
Y29402D01*
X16343D01*
Y29381D01*
X16354D01*
Y29360D01*
X16364D01*
Y29339D01*
X16375D01*
Y29318D01*
X16385D01*
Y29297D01*
X16396D01*
Y29276D01*
X16406D01*
Y29255D01*
X16417D01*
Y29234D01*
X16427D01*
Y29213D01*
X16438D01*
Y29192D01*
X16448D01*
Y29171D01*
X16459D01*
Y29151D01*
X16469D01*
Y29129D01*
X16480D01*
Y29109D01*
X16490D01*
Y29088D01*
X16501D01*
Y29067D01*
X16511D01*
Y29046D01*
X16522D01*
Y29025D01*
X16532D01*
Y29004D01*
X16543D01*
Y28983D01*
X16553D01*
Y28962D01*
X16563D01*
Y28931D01*
X16574D01*
Y28910D01*
X16584D01*
Y28889D01*
X16595D01*
Y28868D01*
X16605D01*
Y28847D01*
X16616D01*
Y28826D01*
X16626D01*
Y28805D01*
X16637D01*
Y28784D01*
X16647D01*
Y28763D01*
X16658D01*
Y28742D01*
X16668D01*
Y28721D01*
X16679D01*
Y28700D01*
X16689D01*
Y28679D01*
X16700D01*
Y28658D01*
X16710D01*
Y28637D01*
X16721D01*
Y28616D01*
X16731D01*
Y28595D01*
X16741D01*
Y28574D01*
X16752D01*
Y28564D01*
X16741D01*
Y28553D01*
X16762D01*
Y28532D01*
X16773D01*
Y28512D01*
X16783D01*
Y28490D01*
X16794D01*
Y28470D01*
X16804D01*
Y28449D01*
X16815D01*
Y28428D01*
X16825D01*
Y28407D01*
X16836D01*
Y28386D01*
X16846D01*
Y28365D01*
X16857D01*
Y28344D01*
X16867D01*
Y28323D01*
X16878D01*
Y28302D01*
X16888D01*
Y28281D01*
X16899D01*
Y28260D01*
X16909D01*
Y28239D01*
X16920D01*
Y28218D01*
X16930D01*
Y28197D01*
X16940D01*
Y28166D01*
X16951D01*
Y28145D01*
X16962D01*
Y28124D01*
X16972D01*
Y28103D01*
X16982D01*
Y28082D01*
X16993D01*
Y28061D01*
X17003D01*
Y28040D01*
X17014D01*
Y28019D01*
X17024D01*
Y27998D01*
X17035D01*
Y27977D01*
X17045D01*
Y27956D01*
X17056D01*
Y27935D01*
X17066D01*
Y27914D01*
X17077D01*
Y27893D01*
X17087D01*
Y27872D01*
X17098D01*
Y27852D01*
X17108D01*
Y27831D01*
X17119D01*
Y27810D01*
X17129D01*
Y27789D01*
X17140D01*
Y27768D01*
X17150D01*
Y27747D01*
X17161D01*
Y27726D01*
X17171D01*
Y27705D01*
X17181D01*
Y27684D01*
X17192D01*
Y27663D01*
X17202D01*
Y27642D01*
X17213D01*
Y27621D01*
X17223D01*
Y27600D01*
X17234D01*
Y27579D01*
X17244D01*
Y27558D01*
X17255D01*
Y27537D01*
X17265D01*
Y27506D01*
X17276D01*
Y27485D01*
X17286D01*
Y27464D01*
X17297D01*
Y27443D01*
X17307D01*
Y27422D01*
X17318D01*
Y27401D01*
X17328D01*
Y27380D01*
X17339D01*
Y27359D01*
X17349D01*
Y27338D01*
X17359D01*
Y27317D01*
X17370D01*
Y27296D01*
X17380D01*
Y27275D01*
X17391D01*
Y27254D01*
X17401D01*
Y27233D01*
X17412D01*
Y27213D01*
X17422D01*
Y27192D01*
X17433D01*
Y27171D01*
X17443D01*
Y27150D01*
X17454D01*
Y27129D01*
X17464D01*
Y27108D01*
X17475D01*
Y27087D01*
X17485D01*
Y27066D01*
X17496D01*
Y27045D01*
X17506D01*
Y27024D01*
X17517D01*
Y27003D01*
X17527D01*
Y26982D01*
X17538D01*
Y26961D01*
X17548D01*
Y26940D01*
X17559D01*
Y26919D01*
X17569D01*
Y26898D01*
X17580D01*
Y26877D01*
X17590D01*
Y26856D01*
X17601D01*
Y26835D01*
X17611D01*
Y26804D01*
X17621D01*
Y26783D01*
X17632D01*
Y26762D01*
X17642D01*
Y26741D01*
X17653D01*
Y26720D01*
X17663D01*
Y26699D01*
X17674D01*
Y26678D01*
X17684D01*
Y26657D01*
X17695D01*
Y26636D01*
X17705D01*
Y26615D01*
X17716D01*
Y26594D01*
X17726D01*
Y26574D01*
X17737D01*
Y26553D01*
X17747D01*
Y26532D01*
X17758D01*
Y26511D01*
X17768D01*
Y26490D01*
X17778D01*
Y26469D01*
X17789D01*
Y26448D01*
X17799D01*
Y26427D01*
X17810D01*
Y26406D01*
X17820D01*
Y26385D01*
X17831D01*
Y26364D01*
X17841D01*
Y26343D01*
X17852D01*
Y26322D01*
X17862D01*
Y26301D01*
X17873D01*
Y26280D01*
X17883D01*
Y26259D01*
X17894D01*
Y26238D01*
X17904D01*
Y26217D01*
X17915D01*
Y26196D01*
X17925D01*
Y26175D01*
X17936D01*
Y26155D01*
X17946D01*
Y26134D01*
X17957D01*
Y26113D01*
X17967D01*
Y26092D01*
X17978D01*
Y26071D01*
X17988D01*
Y26039D01*
X17999D01*
Y26018D01*
X18009D01*
Y25997D01*
X18020D01*
Y25976D01*
X18030D01*
Y25956D01*
X18040D01*
Y25935D01*
X18051D01*
Y25914D01*
X18061D01*
Y25893D01*
X18072D01*
Y25882D01*
X18051D01*
Y25893D01*
X18040D01*
Y25903D01*
X18030D01*
Y25914D01*
X18009D01*
Y25924D01*
X17988D01*
Y25935D01*
X17978D01*
Y25945D01*
X17957D01*
Y25956D01*
X17936D01*
Y25966D01*
X17904D01*
Y25976D01*
X17883D01*
Y25987D01*
X17852D01*
Y25997D01*
X17810D01*
Y26008D01*
X17758D01*
Y26018D01*
X17559D01*
Y26008D01*
X17527D01*
Y26018D01*
X17517D01*
Y26029D01*
X17506D01*
Y26039D01*
X17496D01*
Y26050D01*
X17485D01*
Y26060D01*
X17475D01*
Y26071D01*
X17464D01*
Y26081D01*
X17454D01*
Y26092D01*
X17443D01*
Y26102D01*
X17422D01*
Y26113D01*
X17412D01*
Y26123D01*
X17401D01*
Y26134D01*
X17391D01*
Y26144D01*
X17380D01*
Y26155D01*
X17370D01*
Y26165D01*
X17359D01*
Y26175D01*
X17349D01*
Y26186D01*
X17339D01*
Y26196D01*
X17328D01*
Y26207D01*
X17318D01*
Y26217D01*
X17307D01*
Y26228D01*
X17297D01*
Y26238D01*
X17286D01*
Y26249D01*
X17276D01*
Y26259D01*
X17265D01*
Y26270D01*
X17244D01*
Y26280D01*
X17234D01*
Y26291D01*
X17223D01*
Y26301D01*
X17213D01*
Y26312D01*
X17202D01*
Y26322D01*
X17192D01*
Y26333D01*
X17181D01*
Y26343D01*
X17171D01*
Y26354D01*
X17161D01*
Y26364D01*
X17150D01*
Y26375D01*
X17140D01*
Y26385D01*
X17129D01*
Y26395D01*
X17119D01*
Y26406D01*
X17108D01*
Y26416D01*
X17098D01*
Y26427D01*
X17087D01*
Y26437D01*
X17077D01*
Y26448D01*
X17056D01*
Y26458D01*
X17045D01*
Y26469D01*
X17035D01*
Y26479D01*
X17024D01*
Y26490D01*
X17014D01*
Y26500D01*
X17003D01*
Y26511D01*
X16993D01*
Y26521D01*
X16982D01*
Y26532D01*
X16972D01*
Y26626D01*
X16962D01*
Y26720D01*
X16951D01*
Y26804D01*
X16940D01*
Y26898D01*
X16930D01*
Y26992D01*
X16920D01*
Y27087D01*
X16909D01*
Y27181D01*
X16899D01*
Y27275D01*
X16888D01*
Y27359D01*
X16878D01*
Y27454D01*
X16867D01*
Y27548D01*
X16857D01*
Y27642D01*
X16846D01*
Y27736D01*
X16836D01*
Y27831D01*
X16825D01*
Y27914D01*
X16815D01*
Y28009D01*
X16804D01*
Y28103D01*
X16794D01*
Y28197D01*
X16783D01*
Y28291D01*
X16773D01*
Y28386D01*
X16762D01*
Y28291D01*
X16773D01*
Y28166D01*
X16783D01*
Y28040D01*
X16794D01*
Y27914D01*
X16804D01*
Y27789D01*
X16815D01*
Y27663D01*
X16825D01*
Y27537D01*
X16836D01*
Y27412D01*
X16846D01*
Y27275D01*
X16857D01*
Y27150D01*
X16867D01*
Y27024D01*
X16878D01*
Y26898D01*
X16888D01*
Y26773D01*
X16899D01*
Y26636D01*
X16909D01*
Y26584D01*
X16899D01*
Y26594D01*
X16888D01*
Y26605D01*
X16878D01*
Y26615D01*
X16867D01*
Y26626D01*
X16857D01*
Y26636D01*
X16846D01*
Y26647D01*
X16836D01*
Y26657D01*
X16815D01*
Y26668D01*
X16804D01*
Y26678D01*
X16794D01*
Y26689D01*
X16783D01*
Y26699D01*
X16773D01*
Y26710D01*
X16762D01*
Y26720D01*
X16752D01*
Y26731D01*
X16741D01*
Y26741D01*
X16731D01*
Y26752D01*
X16721D01*
Y26762D01*
X16710D01*
Y26773D01*
X16700D01*
Y26783D01*
X16689D01*
Y26794D01*
X16679D01*
Y26804D01*
X16668D01*
Y26814D01*
X16658D01*
Y26825D01*
X16647D01*
Y26835D01*
X16637D01*
Y26846D01*
X16626D01*
Y26856D01*
X16616D01*
Y26867D01*
X16605D01*
Y26877D01*
X16595D01*
Y26888D01*
X16584D01*
Y26898D01*
X16574D01*
Y26909D01*
X16563D01*
Y26919D01*
X16553D01*
Y26930D01*
X16543D01*
Y26940D01*
X16532D01*
Y26951D01*
X16522D01*
Y26961D01*
X16511D01*
Y26992D01*
X16501D01*
Y27045D01*
X16490D01*
Y27087D01*
X16480D01*
Y27139D01*
X16469D01*
Y27181D01*
X16459D01*
Y27233D01*
X16448D01*
Y27275D01*
X16438D01*
Y27328D01*
X16427D01*
Y27370D01*
X16417D01*
Y27422D01*
X16406D01*
Y27464D01*
X16396D01*
Y27516D01*
X16385D01*
Y27558D01*
X16375D01*
Y27611D01*
X16364D01*
Y27652D01*
X16354D01*
Y27705D01*
X16343D01*
Y27747D01*
X16333D01*
Y27799D01*
X16322D01*
Y27841D01*
X16312D01*
Y27893D01*
X16301D01*
Y27935D01*
X16291D01*
Y27988D01*
X16281D01*
Y28030D01*
X16270D01*
Y28082D01*
X16260D01*
Y28124D01*
X16249D01*
Y28176D01*
X16239D01*
Y28208D01*
X16228D01*
Y28239D01*
X16218D01*
Y28271D01*
X16207D01*
Y28291D01*
X16197D01*
Y28312D01*
Y28323D01*
X16186D01*
Y28354D01*
X16176D01*
Y28386D01*
X16165D01*
Y28417D01*
X16155D01*
Y28438D01*
X16144D01*
Y28470D01*
X16134D01*
Y28501D01*
X16123D01*
Y28532D01*
X16113D01*
Y28553D01*
X16103D01*
Y28585D01*
X16092D01*
Y28616D01*
X16082D01*
Y28648D01*
X16071D01*
Y28679D01*
X16061D01*
Y28700D01*
X16050D01*
Y28731D01*
X16040D01*
Y28763D01*
X16029D01*
Y28794D01*
X16019D01*
Y28815D01*
X16008D01*
Y28847D01*
X15998D01*
Y28878D01*
X15987D01*
Y28910D01*
X15977D01*
Y28941D01*
X15966D01*
Y28962D01*
X15956D01*
Y28993D01*
X15945D01*
Y29025D01*
X15935D01*
Y29056D01*
X15924D01*
Y29077D01*
X15914D01*
Y29109D01*
X15903D01*
Y29140D01*
X15893D01*
Y29171D01*
X15882D01*
Y29192D01*
X15872D01*
Y29224D01*
X15862D01*
Y29255D01*
X15851D01*
Y29287D01*
X15841D01*
Y29308D01*
X15830D01*
Y29339D01*
X15820D01*
Y29370D01*
X15809D01*
Y29402D01*
X15799D01*
Y29423D01*
X15788D01*
Y29454D01*
X15778D01*
Y29486D01*
X15767D01*
Y29517D01*
X15757D01*
Y29538D01*
X15746D01*
Y29570D01*
X15736D01*
Y29601D01*
X15725D01*
Y29632D01*
X15715D01*
Y29653D01*
X15704D01*
Y29685D01*
X15694D01*
Y29716D01*
X15684D01*
Y29737D01*
X15673D01*
Y29768D01*
X15663D01*
Y29800D01*
X15652D01*
Y29831D01*
X15642D01*
Y29852D01*
X15631D01*
Y29884D01*
X15621D01*
Y29915D01*
X15610D01*
Y29947D01*
X15600D01*
Y29967D01*
X15589D01*
Y29999D01*
X15579D01*
Y30030D01*
X15568D01*
Y30062D01*
X15558D01*
Y30083D01*
X15547D01*
Y30062D01*
X15558D01*
Y30030D01*
X15568D01*
Y29999D01*
X15579D01*
Y29967D01*
X15589D01*
Y29936D01*
X15600D01*
Y29905D01*
X15610D01*
Y29863D01*
X15621D01*
Y29831D01*
X15631D01*
Y29800D01*
X15642D01*
Y29768D01*
X15652D01*
Y29737D01*
X15663D01*
Y29706D01*
X15673D01*
Y29674D01*
X15684D01*
Y29643D01*
X15694D01*
Y29611D01*
X15704D01*
Y29580D01*
X15715D01*
Y29538D01*
X15725D01*
Y29507D01*
X15736D01*
Y29475D01*
X15746D01*
Y29444D01*
X15757D01*
Y29412D01*
X15767D01*
Y29381D01*
X15778D01*
Y29349D01*
X15788D01*
Y29318D01*
X15799D01*
Y29287D01*
X15809D01*
Y29245D01*
X15820D01*
Y29213D01*
X15830D01*
Y29182D01*
X15841D01*
Y29151D01*
X15851D01*
Y29119D01*
X15862D01*
Y29088D01*
X15872D01*
Y29056D01*
X15882D01*
Y29014D01*
X15893D01*
Y28983D01*
X15903D01*
Y28951D01*
X15914D01*
Y28920D01*
X15924D01*
Y28889D01*
X15935D01*
Y28857D01*
X15945D01*
Y28826D01*
X15956D01*
Y28794D01*
X15966D01*
Y28752D01*
X15977D01*
Y28721D01*
X15987D01*
Y28690D01*
X15998D01*
Y28658D01*
X16008D01*
Y28627D01*
X16019D01*
Y28595D01*
X16029D01*
Y28564D01*
X16040D01*
Y28522D01*
X16050D01*
Y28490D01*
X16061D01*
Y28459D01*
X16071D01*
Y28428D01*
X16082D01*
Y28417D01*
X16071D01*
Y28396D01*
X16061D01*
Y28365D01*
X16050D01*
Y28344D01*
X16040D01*
Y28323D01*
X16029D01*
Y28302D01*
X16019D01*
Y28281D01*
X16008D01*
Y28250D01*
X15998D01*
Y28229D01*
X15987D01*
Y28208D01*
X15977D01*
Y28187D01*
X15966D01*
Y28166D01*
X15956D01*
Y28134D01*
X15945D01*
Y28113D01*
X15935D01*
Y28093D01*
X15924D01*
Y28071D01*
X15914D01*
Y28051D01*
X15903D01*
Y28019D01*
X15893D01*
Y27998D01*
X15882D01*
Y28009D01*
X15872D01*
Y28019D01*
X15862D01*
Y28030D01*
X15851D01*
Y28040D01*
X15841D01*
Y28061D01*
X15830D01*
Y28071D01*
X15820D01*
Y28082D01*
X15809D01*
Y28093D01*
X15799D01*
Y28113D01*
X15788D01*
Y28124D01*
X15778D01*
Y28134D01*
X15767D01*
Y28155D01*
X15757D01*
Y28166D01*
X15746D01*
Y28176D01*
X15736D01*
Y28187D01*
X15725D01*
Y28208D01*
X15715D01*
Y28218D01*
X15704D01*
Y28229D01*
X15694D01*
Y28239D01*
X15684D01*
Y28250D01*
X15673D01*
Y28271D01*
X15663D01*
Y28281D01*
X15652D01*
Y28291D01*
X15642D01*
Y28302D01*
X15631D01*
Y28312D01*
X15621D01*
Y28333D01*
X15610D01*
Y28344D01*
X15600D01*
Y28354D01*
X15589D01*
Y28365D01*
X15579D01*
Y28386D01*
X15568D01*
Y28396D01*
X15558D01*
Y28407D01*
X15547D01*
Y28417D01*
X15537D01*
Y28428D01*
X15526D01*
Y28417D01*
X15537D01*
Y28407D01*
X15547D01*
Y28396D01*
X15558D01*
Y28375D01*
X15568D01*
Y28365D01*
X15579D01*
Y28344D01*
X15589D01*
Y28333D01*
X15600D01*
Y28312D01*
X15610D01*
Y28302D01*
X15621D01*
Y28291D01*
X15631D01*
Y28271D01*
X15642D01*
Y28260D01*
X15652D01*
Y28239D01*
X15663D01*
Y28229D01*
X15673D01*
Y28208D01*
X15684D01*
Y28197D01*
X15694D01*
Y28187D01*
X15704D01*
Y28166D01*
X15715D01*
Y28155D01*
X15725D01*
Y28134D01*
X15736D01*
Y28124D01*
X15746D01*
Y28103D01*
X15757D01*
Y28093D01*
X15767D01*
Y28082D01*
X15778D01*
Y28061D01*
X15788D01*
Y28051D01*
X15799D01*
Y28030D01*
X15809D01*
Y28019D01*
X15820D01*
Y27998D01*
X15830D01*
Y27988D01*
X15841D01*
Y27967D01*
X15851D01*
Y27956D01*
X15862D01*
Y27935D01*
X15872D01*
Y27925D01*
X15882D01*
Y27914D01*
X15893D01*
Y27893D01*
X15903D01*
Y27883D01*
X15914D01*
Y27862D01*
X15924D01*
Y27852D01*
X15935D01*
Y27831D01*
X15945D01*
Y27820D01*
X15956D01*
Y27799D01*
X15966D01*
Y27789D01*
X15977D01*
Y27768D01*
X15987D01*
Y27757D01*
X15998D01*
Y27747D01*
X15987D01*
Y27757D01*
X15977D01*
Y27768D01*
X15966D01*
Y27778D01*
X15956D01*
Y27789D01*
X15945D01*
Y27799D01*
X15924D01*
Y27810D01*
X15903D01*
Y27820D01*
X15882D01*
Y27831D01*
X15862D01*
Y27841D01*
X15778D01*
Y27831D01*
X15757D01*
Y27820D01*
X15736D01*
Y27810D01*
X15725D01*
Y27799D01*
X15704D01*
Y27789D01*
X15694D01*
Y27778D01*
X15684D01*
Y27768D01*
X15673D01*
Y27747D01*
X15663D01*
Y27736D01*
X15652D01*
Y27715D01*
X15642D01*
Y27694D01*
X15631D01*
Y27673D01*
X15621D01*
Y27652D01*
X15610D01*
Y27621D01*
X15600D01*
Y27590D01*
X15589D01*
Y27558D01*
X15579D01*
Y27516D01*
X15568D01*
Y27474D01*
X15558D01*
Y27422D01*
X15547D01*
Y27359D01*
X15537D01*
Y27254D01*
X15526D01*
Y27129D01*
X15516D01*
Y27233D01*
X15505D01*
Y27338D01*
X15495D01*
Y27412D01*
X15484D01*
Y27485D01*
X15474D01*
Y27527D01*
X15463D01*
Y27569D01*
X15453D01*
Y27600D01*
X15443D01*
Y27632D01*
X15432D01*
Y27663D01*
X15422D01*
Y27684D01*
X15411D01*
Y27705D01*
X15401D01*
Y27726D01*
X15390D01*
Y27747D01*
X15380D01*
Y27757D01*
X15369D01*
Y27768D01*
X15359D01*
Y27789D01*
X15348D01*
Y27799D01*
X15338D01*
Y27810D01*
X15317D01*
Y27820D01*
X15306D01*
Y27831D01*
X15275D01*
Y27841D01*
X15181D01*
Y27831D01*
X15149D01*
Y27820D01*
X15128D01*
Y27810D01*
X15107D01*
Y27799D01*
X15097D01*
Y27789D01*
X15086D01*
Y27778D01*
X15066D01*
Y27799D01*
X15076D01*
Y27810D01*
X15086D01*
Y27831D01*
X15097D01*
Y27841D01*
X15107D01*
Y27862D01*
X15118D01*
Y27872D01*
X15128D01*
Y27883D01*
X15139D01*
Y27904D01*
X15149D01*
Y27914D01*
X15160D01*
Y27935D01*
X15170D01*
Y27946D01*
X15181D01*
Y27967D01*
X15191D01*
Y27977D01*
X15202D01*
Y27998D01*
X15212D01*
Y28009D01*
X15223D01*
Y28019D01*
X15233D01*
Y28040D01*
X15244D01*
Y28051D01*
X15254D01*
Y28071D01*
X15265D01*
Y28082D01*
X15275D01*
Y28103D01*
X15285D01*
Y28113D01*
X15296D01*
Y28134D01*
X15306D01*
Y28145D01*
X15317D01*
Y28166D01*
X15327D01*
Y28176D01*
X15338D01*
Y28187D01*
X15348D01*
Y28208D01*
X15359D01*
Y28218D01*
X15369D01*
Y28239D01*
X15380D01*
Y28250D01*
X15390D01*
Y28271D01*
X15401D01*
Y28281D01*
X15411D01*
Y28302D01*
X15422D01*
Y28312D01*
X15432D01*
Y28333D01*
X15443D01*
Y28344D01*
X15453D01*
Y28365D01*
X15443D01*
Y28354D01*
X15432D01*
Y28344D01*
X15422D01*
Y28333D01*
X15411D01*
Y28312D01*
X15401D01*
Y28302D01*
X15390D01*
Y28291D01*
X15380D01*
Y28281D01*
X15369D01*
Y28260D01*
X15359D01*
Y28250D01*
X15348D01*
Y28239D01*
X15338D01*
Y28229D01*
X15327D01*
Y28208D01*
X15317D01*
Y28197D01*
X15306D01*
Y28187D01*
X15296D01*
Y28176D01*
X15285D01*
Y28155D01*
X15275D01*
Y28145D01*
X15265D01*
Y28134D01*
X15254D01*
Y28124D01*
X15244D01*
Y28103D01*
X15233D01*
Y28093D01*
X15223D01*
Y28082D01*
X15212D01*
Y28061D01*
X15202D01*
Y28051D01*
X15191D01*
Y28040D01*
X15181D01*
Y28030D01*
X15170D01*
Y28009D01*
X15160D01*
Y27998D01*
X15149D01*
Y28009D01*
X15139D01*
Y28030D01*
X15128D01*
Y28061D01*
X15118D01*
Y28082D01*
X15107D01*
Y28103D01*
X15097D01*
Y28124D01*
X15086D01*
Y28145D01*
X15076D01*
Y28166D01*
X15066D01*
Y28187D01*
X15055D01*
Y28218D01*
X15044D01*
Y28239D01*
X15034D01*
Y28260D01*
X15023D01*
Y28281D01*
X15013D01*
Y28302D01*
X15003D01*
Y28323D01*
X14992D01*
Y28344D01*
X14982D01*
Y28365D01*
X14971D01*
Y28396D01*
X14961D01*
Y28417D01*
X14950D01*
Y28428D01*
X14961D01*
Y28459D01*
X14971D01*
Y28490D01*
X14982D01*
Y28522D01*
X14992D01*
Y28553D01*
X15003D01*
Y28585D01*
X15013D01*
Y28627D01*
X15023D01*
Y28658D01*
X15034D01*
Y28690D01*
X15044D01*
Y28721D01*
X15055D01*
Y28752D01*
X15066D01*
Y28784D01*
X15076D01*
Y28815D01*
X15086D01*
Y28847D01*
X15097D01*
Y28878D01*
X15107D01*
Y28910D01*
X15118D01*
Y28941D01*
X15128D01*
Y28983D01*
X15139D01*
Y29014D01*
X15149D01*
Y29046D01*
X15160D01*
Y29077D01*
X15170D01*
Y29109D01*
X15181D01*
Y29140D01*
X15191D01*
Y29171D01*
X15202D01*
Y29203D01*
X15212D01*
Y29234D01*
X15223D01*
Y29266D01*
X15233D01*
Y29308D01*
X15244D01*
Y29339D01*
X15254D01*
Y29370D01*
X15265D01*
Y29402D01*
X15275D01*
Y29433D01*
X15285D01*
Y29465D01*
X15296D01*
Y29496D01*
X15306D01*
Y29528D01*
X15317D01*
Y29559D01*
X15327D01*
Y29590D01*
X15338D01*
Y29622D01*
X15348D01*
Y29653D01*
X15359D01*
Y29685D01*
X15369D01*
Y29727D01*
X15380D01*
Y29758D01*
X15390D01*
Y29789D01*
X15401D01*
Y29821D01*
X15411D01*
Y29852D01*
X15422D01*
Y29884D01*
X15432D01*
Y29915D01*
X15443D01*
Y29947D01*
X15453D01*
Y29978D01*
X15463D01*
Y30009D01*
X15474D01*
Y30041D01*
X15484D01*
Y30072D01*
D01*
D01*
X15474D01*
Y30051D01*
X15463D01*
Y30020D01*
X15453D01*
Y29989D01*
X15443D01*
Y29957D01*
X15432D01*
Y29936D01*
X15422D01*
Y29905D01*
X15411D01*
Y29873D01*
X15401D01*
Y29842D01*
X15390D01*
Y29821D01*
X15380D01*
Y29789D01*
X15369D01*
Y29758D01*
X15359D01*
Y29727D01*
X15348D01*
Y29706D01*
X15338D01*
Y29674D01*
X15327D01*
Y29643D01*
X15317D01*
Y29611D01*
X15306D01*
Y29590D01*
X15296D01*
Y29559D01*
X15285D01*
Y29528D01*
X15275D01*
Y29507D01*
X15265D01*
Y29475D01*
X15254D01*
Y29444D01*
X15244D01*
Y29412D01*
X15233D01*
Y29391D01*
X15223D01*
Y29360D01*
X15212D01*
Y29329D01*
X15202D01*
Y29297D01*
X15191D01*
Y29276D01*
X15181D01*
Y29245D01*
X15170D01*
Y29213D01*
X15160D01*
Y29182D01*
X15149D01*
Y29161D01*
X15139D01*
Y29129D01*
X15128D01*
Y29098D01*
X15118D01*
Y29067D01*
X15107D01*
Y29046D01*
X15097D01*
Y29014D01*
X15086D01*
Y28983D01*
X15076D01*
Y28951D01*
X15066D01*
Y28920D01*
X15055D01*
Y28899D01*
X15044D01*
Y28868D01*
X15034D01*
Y28836D01*
X15023D01*
Y28805D01*
X15013D01*
Y28784D01*
X15003D01*
Y28752D01*
X14992D01*
Y28721D01*
X14982D01*
Y28690D01*
X14971D01*
Y28669D01*
X14961D01*
Y28637D01*
X14950D01*
Y28606D01*
X14940D01*
Y28574D01*
X14929D01*
Y28543D01*
X14919D01*
Y28522D01*
X14908D01*
Y28490D01*
X14898D01*
Y28459D01*
X14887D01*
Y28428D01*
X14877D01*
Y28407D01*
X14866D01*
Y28375D01*
X14856D01*
Y28344D01*
X14845D01*
Y28312D01*
X14835D01*
Y28291D01*
X14825D01*
Y28260D01*
X14814D01*
Y28229D01*
X14804D01*
Y28197D01*
X14793D01*
Y28155D01*
X14783D01*
Y28103D01*
X14772D01*
Y28061D01*
X14762D01*
Y28019D01*
X14751D01*
Y27967D01*
X14741D01*
Y27925D01*
X14730D01*
Y27883D01*
X14720D01*
Y27831D01*
X14709D01*
Y27789D01*
X14699D01*
Y27736D01*
X14688D01*
Y27694D01*
X14678D01*
Y27652D01*
X14667D01*
Y27600D01*
X14657D01*
Y27558D01*
X14646D01*
Y27506D01*
X14636D01*
Y27464D01*
X14626D01*
Y27422D01*
X14615D01*
Y27370D01*
X14604D01*
Y27328D01*
X14594D01*
Y27275D01*
X14584D01*
Y27233D01*
X14573D01*
Y27192D01*
X14563D01*
Y27139D01*
X14552D01*
Y27097D01*
X14542D01*
Y27055D01*
X14531D01*
Y27003D01*
X14521D01*
Y26961D01*
X14510D01*
Y26951D01*
X14500D01*
Y26940D01*
X14489D01*
Y26930D01*
X14479D01*
Y26919D01*
X14468D01*
Y26909D01*
X14458D01*
Y26898D01*
X14447D01*
Y26888D01*
X14437D01*
Y26877D01*
X14426D01*
Y26867D01*
X14416D01*
Y26856D01*
X14405D01*
Y26846D01*
X14395D01*
Y26835D01*
X14385D01*
Y26825D01*
X14374D01*
Y26814D01*
X14364D01*
Y26804D01*
X14353D01*
Y26794D01*
X14343D01*
Y26783D01*
X14332D01*
Y26773D01*
X14322D01*
Y26762D01*
X14311D01*
Y26752D01*
X14301D01*
Y26741D01*
X14290D01*
Y26731D01*
X14280D01*
Y26720D01*
X14269D01*
Y26710D01*
X14259D01*
Y26699D01*
X14248D01*
Y26689D01*
X14238D01*
Y26678D01*
X14227D01*
Y26668D01*
X14217D01*
Y26657D01*
X14207D01*
Y26647D01*
X14196D01*
Y26636D01*
X14186D01*
Y26626D01*
X14175D01*
Y26615D01*
X14165D01*
Y26605D01*
X14154D01*
Y26594D01*
X14144D01*
Y26584D01*
X14133D01*
Y26699D01*
X14144D01*
Y26835D01*
X14154D01*
Y26961D01*
X14165D01*
Y27087D01*
X14175D01*
Y27213D01*
X14186D01*
Y27349D01*
X14196D01*
Y27474D01*
X14207D01*
Y27600D01*
X14217D01*
Y27736D01*
X14227D01*
Y27862D01*
X14238D01*
Y27988D01*
X14248D01*
Y28113D01*
X14259D01*
Y28229D01*
X14248D01*
Y28145D01*
X14238D01*
Y28051D01*
X14227D01*
Y27956D01*
X14217D01*
Y27862D01*
X14207D01*
Y27768D01*
X14196D01*
Y27673D01*
X14186D01*
Y27579D01*
X14175D01*
Y27485D01*
X14165D01*
Y27401D01*
X14154D01*
Y27307D01*
X14144D01*
Y27213D01*
X14133D01*
Y27118D01*
X14123D01*
Y27024D01*
X14112D01*
Y26930D01*
X14102D01*
Y26835D01*
X14091D01*
Y26741D01*
X14081D01*
Y26647D01*
X14070D01*
Y26553D01*
X14060D01*
Y26521D01*
X14049D01*
Y26511D01*
X14039D01*
Y26500D01*
X14028D01*
Y26490D01*
X14018D01*
Y26479D01*
X14007D01*
Y26469D01*
X13997D01*
Y26458D01*
X13976D01*
Y26448D01*
X13965D01*
Y26437D01*
X13955D01*
Y26427D01*
X13945D01*
Y26416D01*
X13934D01*
Y26406D01*
X13924D01*
Y26395D01*
X13913D01*
Y26385D01*
X13903D01*
Y26375D01*
X13892D01*
Y26364D01*
X13882D01*
Y26354D01*
X13871D01*
Y26343D01*
X13861D01*
Y26333D01*
X13850D01*
Y26322D01*
X13840D01*
Y26312D01*
X13829D01*
Y26301D01*
X13819D01*
Y26291D01*
X13808D01*
Y26280D01*
X13798D01*
Y26270D01*
X13788D01*
Y26259D01*
X13777D01*
Y26249D01*
X13767D01*
Y26238D01*
X13756D01*
Y26228D01*
X13746D01*
Y26217D01*
X13735D01*
Y26207D01*
X13725D01*
Y26196D01*
X13714D01*
Y26186D01*
X13704D01*
Y26175D01*
X13693D01*
Y26165D01*
X13672D01*
Y26155D01*
X13662D01*
Y26144D01*
X13651D01*
Y26134D01*
X13641D01*
Y26123D01*
X13630D01*
Y26113D01*
X13620D01*
Y26102D01*
X13609D01*
Y26092D01*
X13599D01*
Y26081D01*
X13588D01*
Y26071D01*
X13578D01*
Y26060D01*
X13567D01*
Y26050D01*
X13557D01*
Y26039D01*
X13546D01*
Y26029D01*
X13536D01*
Y26018D01*
X13526D01*
Y26008D01*
X13505D01*
Y26018D01*
X13264D01*
Y26008D01*
X13222D01*
Y25997D01*
X13180D01*
Y25987D01*
X13149D01*
Y25976D01*
X13117D01*
Y25966D01*
X13096D01*
Y25956D01*
X13075D01*
Y25945D01*
X13054D01*
Y25935D01*
X13033D01*
Y25924D01*
X13023D01*
Y25914D01*
X13002D01*
Y25903D01*
X12991D01*
Y25893D01*
X12981D01*
Y25882D01*
X12960D01*
Y25893D01*
X12970D01*
Y25914D01*
X12981D01*
Y25935D01*
X12991D01*
Y25956D01*
X13002D01*
Y25976D01*
X13012D01*
Y25997D01*
X13023D01*
Y26018D01*
X13033D01*
Y26039D01*
X13044D01*
Y26060D01*
X13054D01*
Y26081D01*
X13065D01*
Y26102D01*
X13075D01*
Y26123D01*
X13086D01*
Y26144D01*
X13096D01*
Y26165D01*
X13107D01*
Y26186D01*
X13117D01*
Y26207D01*
X13127D01*
Y26228D01*
X13138D01*
Y26249D01*
X13149D01*
Y26270D01*
X13159D01*
Y26291D01*
X13169D01*
Y26312D01*
X13180D01*
Y26333D01*
X13190D01*
Y26354D01*
X13201D01*
Y26375D01*
X13211D01*
Y26395D01*
X13222D01*
Y26416D01*
X13232D01*
Y26437D01*
X13243D01*
Y26469D01*
X13253D01*
Y26490D01*
X13264D01*
Y26511D01*
X13274D01*
Y26532D01*
X13285D01*
Y26553D01*
X13295D01*
Y26574D01*
X13306D01*
Y26594D01*
X13316D01*
Y26615D01*
X13327D01*
Y26636D01*
X13337D01*
Y26657D01*
X13348D01*
Y26678D01*
X13358D01*
Y26699D01*
X13368D01*
Y26720D01*
X13379D01*
Y26741D01*
X13389D01*
Y26762D01*
X13400D01*
Y26783D01*
X13410D01*
Y26804D01*
X13421D01*
Y26825D01*
X13431D01*
Y26846D01*
X13442D01*
Y26867D01*
X13452D01*
Y26888D01*
X13463D01*
Y26909D01*
X13473D01*
Y26930D01*
X13484D01*
Y26951D01*
X13494D01*
Y26972D01*
X13505D01*
Y26992D01*
X13515D01*
Y27013D01*
X13526D01*
Y27034D01*
X13536D01*
Y27055D01*
X13546D01*
Y27076D01*
X13557D01*
Y27097D01*
X13567D01*
Y27118D01*
X13578D01*
Y27139D01*
X13588D01*
Y27160D01*
X13599D01*
Y27181D01*
X13609D01*
Y27202D01*
X13620D01*
Y27223D01*
X13630D01*
Y27244D01*
X13641D01*
Y27275D01*
X13651D01*
Y27296D01*
X13662D01*
Y27317D01*
X13672D01*
Y27338D01*
X13683D01*
Y27359D01*
X13693D01*
Y27380D01*
X13704D01*
Y27401D01*
X13714D01*
Y27422D01*
X13725D01*
Y27443D01*
X13735D01*
Y27464D01*
X13746D01*
Y27485D01*
X13756D01*
Y27506D01*
X13767D01*
Y27527D01*
X13777D01*
Y27548D01*
X13788D01*
Y27569D01*
X13798D01*
Y27590D01*
X13808D01*
Y27611D01*
X13819D01*
Y27632D01*
X13829D01*
Y27652D01*
X13840D01*
Y27673D01*
X13850D01*
Y27694D01*
X13861D01*
Y27715D01*
X13871D01*
Y27736D01*
X13882D01*
Y27757D01*
X13892D01*
Y27778D01*
X13903D01*
Y27799D01*
X13913D01*
Y27820D01*
X13924D01*
Y27841D01*
X13934D01*
Y27862D01*
X13945D01*
Y27883D01*
X13955D01*
Y27904D01*
X13965D01*
Y27925D01*
X13976D01*
Y27946D01*
X13986D01*
Y27967D01*
X13997D01*
Y27988D01*
X14007D01*
Y28019D01*
X14018D01*
Y28040D01*
X14028D01*
Y28061D01*
X14039D01*
Y28082D01*
X14049D01*
Y28103D01*
X14060D01*
Y28124D01*
X14070D01*
Y28145D01*
X14081D01*
Y28166D01*
X14091D01*
Y28187D01*
X14102D01*
Y28208D01*
X14112D01*
Y28229D01*
X14123D01*
Y28250D01*
X14133D01*
Y28271D01*
X14144D01*
Y28291D01*
X14154D01*
Y28312D01*
X14165D01*
Y28333D01*
X14175D01*
Y28354D01*
X14186D01*
Y28375D01*
X14196D01*
Y28396D01*
X14207D01*
Y28417D01*
X14217D01*
Y28438D01*
X14227D01*
Y28459D01*
X14238D01*
Y28480D01*
X14248D01*
Y28501D01*
X14259D01*
Y28522D01*
X14269D01*
Y28543D01*
X14280D01*
Y28564D01*
X14290D01*
Y28585D01*
X14301D01*
Y28606D01*
X14311D01*
Y28627D01*
X14322D01*
Y28648D01*
X14332D01*
Y28669D01*
X14343D01*
Y28690D01*
X14353D01*
Y28710D01*
X14364D01*
Y28731D01*
X14374D01*
Y28752D01*
X14385D01*
Y28773D01*
X14395D01*
Y28794D01*
X14405D01*
Y28815D01*
X14416D01*
Y28836D01*
X14426D01*
Y28857D01*
X14437D01*
Y28889D01*
X14447D01*
Y28910D01*
X14458D01*
Y28931D01*
X14468D01*
Y28951D01*
X14479D01*
Y28972D01*
X14489D01*
Y28993D01*
X14500D01*
Y29014D01*
X14510D01*
Y29035D01*
X14521D01*
Y29056D01*
X14531D01*
Y29077D01*
X14542D01*
Y29098D01*
X14552D01*
Y29119D01*
X14563D01*
Y29140D01*
X14573D01*
Y29161D01*
X14584D01*
Y29182D01*
X14594D01*
Y29203D01*
X14604D01*
Y29224D01*
X14615D01*
Y29245D01*
X14626D01*
Y29266D01*
X14636D01*
Y29287D01*
X14646D01*
Y29308D01*
X14657D01*
Y29329D01*
X14667D01*
Y29349D01*
X14678D01*
Y29370D01*
X14688D01*
Y29391D01*
X14699D01*
Y29412D01*
X14709D01*
Y29433D01*
X14720D01*
Y29454D01*
X14730D01*
Y29475D01*
X14741D01*
Y29496D01*
X14751D01*
Y29517D01*
X14762D01*
Y29538D01*
X14772D01*
Y29559D01*
X14783D01*
Y29580D01*
X14793D01*
Y29601D01*
X14804D01*
Y29632D01*
X14814D01*
Y29653D01*
X14825D01*
Y29674D01*
X14835D01*
Y29695D01*
X14845D01*
Y29716D01*
X14856D01*
Y29737D01*
X14866D01*
Y29758D01*
X14877D01*
Y29779D01*
X14887D01*
Y29800D01*
X14898D01*
Y29821D01*
X14908D01*
Y29842D01*
X14919D01*
Y29863D01*
X14929D01*
Y29884D01*
X14940D01*
Y29905D01*
X14950D01*
Y29926D01*
X14961D01*
Y29947D01*
X14971D01*
Y29967D01*
X14982D01*
Y29989D01*
X14992D01*
Y30009D01*
X15003D01*
Y30030D01*
X15013D01*
Y30051D01*
X15023D01*
Y30072D01*
X15034D01*
Y30093D01*
X15044D01*
Y30114D01*
X15055D01*
Y30135D01*
X15066D01*
Y30156D01*
X15076D01*
Y30177D01*
X15086D01*
Y30198D01*
X15097D01*
Y30219D01*
X15107D01*
Y30240D01*
X15118D01*
Y30261D01*
X15128D01*
Y30282D01*
X15139D01*
Y30303D01*
X15149D01*
Y30324D01*
X15160D01*
Y30345D01*
X15170D01*
Y30376D01*
X15181D01*
Y30397D01*
X15191D01*
Y30418D01*
X15202D01*
Y30439D01*
X15212D01*
Y30460D01*
X15223D01*
Y30481D01*
X15233D01*
Y30502D01*
X15244D01*
Y30523D01*
X15254D01*
Y30544D01*
X15265D01*
Y30565D01*
X15275D01*
Y30586D01*
X15285D01*
Y30606D01*
X15296D01*
Y30628D01*
X15306D01*
Y30648D01*
X15317D01*
Y30669D01*
X15327D01*
Y30690D01*
X15338D01*
Y30711D01*
X15348D01*
Y30732D01*
X15359D01*
Y30753D01*
X15369D01*
Y30774D01*
X15380D01*
Y30795D01*
X15390D01*
Y30816D01*
X15401D01*
Y30837D01*
X15411D01*
Y30858D01*
X15422D01*
Y30879D01*
X15432D01*
Y30900D01*
X15443D01*
Y30921D01*
X15453D01*
Y30942D01*
X15463D01*
Y30963D01*
X15474D01*
Y30984D01*
X15484D01*
Y31005D01*
X15495D01*
Y31025D01*
X15505D01*
Y31047D01*
X15516D01*
Y31057D01*
X15526D01*
Y31036D01*
D02*
G37*
G36*
X21780Y31057D02*
X21927D01*
Y31047D01*
X22021D01*
Y31036D01*
X22105D01*
Y31025D01*
X22189D01*
Y31015D01*
X22241D01*
Y31005D01*
X22304D01*
Y30994D01*
X22356D01*
Y30984D01*
X22398D01*
Y30973D01*
X22440D01*
Y30963D01*
X22482D01*
Y30952D01*
X22524D01*
Y30942D01*
X22555D01*
Y30931D01*
X22587D01*
Y30921D01*
X22618D01*
Y30910D01*
X22649D01*
Y30900D01*
X22681D01*
Y30889D01*
X22702D01*
Y30879D01*
X22723D01*
Y30868D01*
X22754D01*
Y30858D01*
X22775D01*
Y30847D01*
X22796D01*
Y30837D01*
X22817D01*
Y30827D01*
X22838D01*
Y30816D01*
X22849D01*
Y30806D01*
X22870D01*
Y30795D01*
X22891D01*
Y30785D01*
X22901D01*
Y30774D01*
X22922D01*
Y30764D01*
X22932D01*
Y30753D01*
X22943D01*
Y30743D01*
X22964D01*
Y30732D01*
X22974D01*
Y30722D01*
X22985D01*
Y30711D01*
X22995D01*
Y30701D01*
X23006D01*
Y30690D01*
X23016D01*
Y30669D01*
X23027D01*
Y30659D01*
X23037D01*
Y30648D01*
X23048D01*
Y30638D01*
X23058D01*
Y30628D01*
X23069D01*
Y30606D01*
X23079D01*
Y30596D01*
X23089D01*
Y30586D01*
X23100D01*
Y30575D01*
X23110D01*
Y30554D01*
X23121D01*
Y30544D01*
X23131D01*
Y30523D01*
X23142D01*
Y30512D01*
X23152D01*
Y30502D01*
X23163D01*
Y30481D01*
X23173D01*
Y30470D01*
X23184D01*
Y30449D01*
X23194D01*
Y30439D01*
X23205D01*
Y30418D01*
X23215D01*
Y30397D01*
X23226D01*
Y30376D01*
X23236D01*
Y30355D01*
X23247D01*
Y30334D01*
X23257D01*
Y30313D01*
X23268D01*
Y30292D01*
X23278D01*
Y30271D01*
X23289D01*
Y30240D01*
X23299D01*
Y30219D01*
X23310D01*
Y30187D01*
X23320D01*
Y30156D01*
X23330D01*
Y30125D01*
X23341D01*
Y30083D01*
X23351D01*
Y30051D01*
X23362D01*
Y29999D01*
X23372D01*
Y29936D01*
X23383D01*
Y29873D01*
X23393D01*
Y29758D01*
X23404D01*
Y29465D01*
X23393D01*
Y29381D01*
X23383D01*
Y29308D01*
X23372D01*
Y29245D01*
X23362D01*
Y29192D01*
X23351D01*
Y29140D01*
X23341D01*
Y29098D01*
X23330D01*
Y29056D01*
X23320D01*
Y29014D01*
X23310D01*
Y28972D01*
X23299D01*
Y28941D01*
X23289D01*
Y28910D01*
X23278D01*
Y28878D01*
X23268D01*
Y28847D01*
X23257D01*
Y28826D01*
X23247D01*
Y28805D01*
X23236D01*
Y28773D01*
X23226D01*
Y28752D01*
X23215D01*
Y28731D01*
X23205D01*
Y28710D01*
X23194D01*
Y28690D01*
X23184D01*
Y28679D01*
X23173D01*
Y28658D01*
X23163D01*
Y28637D01*
X23152D01*
Y28616D01*
X23142D01*
Y28606D01*
X23131D01*
Y28595D01*
X23121D01*
Y28574D01*
X23110D01*
Y28564D01*
X23100D01*
Y28553D01*
X23089D01*
Y28532D01*
X23079D01*
Y28522D01*
X23069D01*
Y28512D01*
X23048D01*
Y28501D01*
X23037D01*
Y28490D01*
X23027D01*
Y28480D01*
X23016D01*
Y28470D01*
X23006D01*
Y28459D01*
X22995D01*
Y28449D01*
X22985D01*
Y28438D01*
X22964D01*
Y28428D01*
X22953D01*
Y28417D01*
X22943D01*
Y28407D01*
X22932D01*
Y28396D01*
X22922D01*
Y28386D01*
X22901D01*
Y28375D01*
X22891D01*
Y28365D01*
X22870D01*
Y28354D01*
X22859D01*
Y28344D01*
X22838D01*
Y28333D01*
X22828D01*
Y28323D01*
X22817D01*
Y28312D01*
X22796D01*
Y28302D01*
X22775D01*
Y28291D01*
X22765D01*
Y28281D01*
X22744D01*
Y28271D01*
X22723D01*
Y28260D01*
X22702D01*
Y28250D01*
X22681D01*
Y28239D01*
X22670D01*
Y28229D01*
X22649D01*
Y28218D01*
X22618D01*
Y28208D01*
X22597D01*
Y28197D01*
X22576D01*
Y28187D01*
X22545D01*
Y28176D01*
X22524D01*
Y28166D01*
X22503D01*
Y28155D01*
X22471D01*
Y28145D01*
X22451D01*
Y28134D01*
X22419D01*
Y28124D01*
X22388D01*
Y28113D01*
X22356D01*
Y28103D01*
X22325D01*
Y28093D01*
X22283D01*
Y28082D01*
X22241D01*
Y28071D01*
X22199D01*
Y28061D01*
X22147D01*
Y28051D01*
X22115D01*
Y28030D01*
X22126D01*
Y28019D01*
X22136D01*
Y28009D01*
X22147D01*
Y27998D01*
X22157D01*
Y27977D01*
X22168D01*
Y27967D01*
X22178D01*
Y27956D01*
X22189D01*
Y27946D01*
X22199D01*
Y27925D01*
X22210D01*
Y27914D01*
X22220D01*
Y27904D01*
X22230D01*
Y27883D01*
X22241D01*
Y27872D01*
X22252D01*
Y27862D01*
X22262D01*
Y27852D01*
X22272D01*
Y27831D01*
X22283D01*
Y27820D01*
X22293D01*
Y27810D01*
X22304D01*
Y27799D01*
X22314D01*
Y27778D01*
X22325D01*
Y27768D01*
X22335D01*
Y27757D01*
X22346D01*
Y27736D01*
X22356D01*
Y27726D01*
X22367D01*
Y27715D01*
X22377D01*
Y27705D01*
X22388D01*
Y27684D01*
X22398D01*
Y27673D01*
X22409D01*
Y27663D01*
X22419D01*
Y27642D01*
X22430D01*
Y27632D01*
X22440D01*
Y27621D01*
X22451D01*
Y27611D01*
X22461D01*
Y27590D01*
X22471D01*
Y27579D01*
X22482D01*
Y27569D01*
X22492D01*
Y27558D01*
X22503D01*
Y27537D01*
X22513D01*
Y27527D01*
X22524D01*
Y27516D01*
X22534D01*
Y27495D01*
X22545D01*
Y27485D01*
X22555D01*
Y27474D01*
X22566D01*
Y27464D01*
X22576D01*
Y27443D01*
X22587D01*
Y27433D01*
X22597D01*
Y27422D01*
X22608D01*
Y27401D01*
X22618D01*
Y27391D01*
X22629D01*
Y27380D01*
X22639D01*
Y27370D01*
X22649D01*
Y27349D01*
X22660D01*
Y27338D01*
X22670D01*
Y27328D01*
X22681D01*
Y27317D01*
X22692D01*
Y27296D01*
X22702D01*
Y27286D01*
X22712D01*
Y27275D01*
X22723D01*
Y27254D01*
X22733D01*
Y27244D01*
X22744D01*
Y27233D01*
X22754D01*
Y27223D01*
X22765D01*
Y27202D01*
X22775D01*
Y27192D01*
X22786D01*
Y27181D01*
X22796D01*
Y27171D01*
X22807D01*
Y27150D01*
X22817D01*
Y27139D01*
X22828D01*
Y27129D01*
X22838D01*
Y27108D01*
X22849D01*
Y27097D01*
X22859D01*
Y27087D01*
X22870D01*
Y27076D01*
X22880D01*
Y27055D01*
X22891D01*
Y27045D01*
X22901D01*
Y27034D01*
X22911D01*
Y27013D01*
X22922D01*
Y27003D01*
X22932D01*
Y26992D01*
X22943D01*
Y26982D01*
X22953D01*
Y26961D01*
X22964D01*
Y26951D01*
X22974D01*
Y26940D01*
X22985D01*
Y26930D01*
X22995D01*
Y26909D01*
X23006D01*
Y26898D01*
X23016D01*
Y26888D01*
X23027D01*
Y26867D01*
X23037D01*
Y26856D01*
X23048D01*
Y26846D01*
X23058D01*
Y26835D01*
X23069D01*
Y26814D01*
X23079D01*
Y26804D01*
X23089D01*
Y26794D01*
X23100D01*
Y26773D01*
X23110D01*
Y26762D01*
X23121D01*
Y26752D01*
X23131D01*
Y26741D01*
X23142D01*
Y26720D01*
X23152D01*
Y26710D01*
X23163D01*
Y26699D01*
X23173D01*
Y26678D01*
X23184D01*
Y26668D01*
X23194D01*
Y26657D01*
X23205D01*
Y26647D01*
X23215D01*
Y26626D01*
X23226D01*
Y26615D01*
X23236D01*
Y26605D01*
X23247D01*
Y26594D01*
X23257D01*
Y26574D01*
X23268D01*
Y26563D01*
X23278D01*
Y26553D01*
X23289D01*
Y26532D01*
X23299D01*
Y26521D01*
X23310D01*
Y26511D01*
X23320D01*
Y26500D01*
X23330D01*
Y26479D01*
X23341D01*
Y26469D01*
X23351D01*
Y26458D01*
X23362D01*
Y26437D01*
X23372D01*
Y26427D01*
X23383D01*
Y26416D01*
X23393D01*
Y26406D01*
X23404D01*
Y26385D01*
X23414D01*
Y26375D01*
X23425D01*
Y26364D01*
X23435D01*
Y26343D01*
X23446D01*
Y26333D01*
X23456D01*
Y26322D01*
X23467D01*
Y26312D01*
X23477D01*
Y26291D01*
X23488D01*
Y26280D01*
X23498D01*
Y26270D01*
X23508D01*
Y26249D01*
X23519D01*
Y26238D01*
X23529D01*
Y26228D01*
X23540D01*
Y26217D01*
X23550D01*
Y26196D01*
X23561D01*
Y26186D01*
X23571D01*
Y26175D01*
X23582D01*
Y26165D01*
X23592D01*
Y26144D01*
X23603D01*
Y26134D01*
X23613D01*
Y26123D01*
X23624D01*
Y26102D01*
X23634D01*
Y26092D01*
X23645D01*
Y26081D01*
X23655D01*
Y26071D01*
X23666D01*
Y26050D01*
X23676D01*
Y26039D01*
X23687D01*
Y26029D01*
X23697D01*
Y26008D01*
X23708D01*
Y25997D01*
X23718D01*
Y25987D01*
X23729D01*
Y25976D01*
X23739D01*
Y25956D01*
X23749D01*
Y25945D01*
X23760D01*
Y25935D01*
X23770D01*
Y25914D01*
X23781D01*
Y25903D01*
X23791D01*
Y25893D01*
X23802D01*
Y25882D01*
X23812D01*
Y25872D01*
X23802D01*
Y25882D01*
X23770D01*
Y25893D01*
X23749D01*
Y25903D01*
X23729D01*
Y25914D01*
X23697D01*
Y25924D01*
X23676D01*
Y25935D01*
X23645D01*
Y25945D01*
X23624D01*
Y25956D01*
X23592D01*
Y25966D01*
X23561D01*
Y25976D01*
X23529D01*
Y25987D01*
X23488D01*
Y25997D01*
X23446D01*
Y26008D01*
X23383D01*
Y26018D01*
X23215D01*
Y26008D01*
X23205D01*
Y26018D01*
X23194D01*
Y26039D01*
X23184D01*
Y26050D01*
X23173D01*
Y26060D01*
X23163D01*
Y26071D01*
X23152D01*
Y26092D01*
X23142D01*
Y26102D01*
X23131D01*
Y26113D01*
X23121D01*
Y26134D01*
X23110D01*
Y26144D01*
X23100D01*
Y26155D01*
X23089D01*
Y26175D01*
X23079D01*
Y26186D01*
X23069D01*
Y26196D01*
X23058D01*
Y26217D01*
X23048D01*
Y26228D01*
X23037D01*
Y26238D01*
X23027D01*
Y26249D01*
X23016D01*
Y26270D01*
X23006D01*
Y26280D01*
X22995D01*
Y26291D01*
X22985D01*
Y26312D01*
X22974D01*
Y26322D01*
X22964D01*
Y26333D01*
X22953D01*
Y26354D01*
X22943D01*
Y26364D01*
X22932D01*
Y26375D01*
X22922D01*
Y26395D01*
X22911D01*
Y26406D01*
X22901D01*
Y26416D01*
X22891D01*
Y26427D01*
X22880D01*
Y26448D01*
X22870D01*
Y26458D01*
X22859D01*
Y26469D01*
X22849D01*
Y26490D01*
X22838D01*
Y26500D01*
X22828D01*
Y26511D01*
X22817D01*
Y26532D01*
X22807D01*
Y26542D01*
X22796D01*
Y26553D01*
X22786D01*
Y26574D01*
X22775D01*
Y26584D01*
X22765D01*
Y26594D01*
X22754D01*
Y26605D01*
X22744D01*
Y26626D01*
X22733D01*
Y26636D01*
X22723D01*
Y26647D01*
X22712D01*
Y26668D01*
X22702D01*
Y26678D01*
X22692D01*
Y26689D01*
X22681D01*
Y26710D01*
X22670D01*
Y26720D01*
X22660D01*
Y26731D01*
X22649D01*
Y26752D01*
X22639D01*
Y26762D01*
X22629D01*
Y26773D01*
X22618D01*
Y26783D01*
X22608D01*
Y26804D01*
X22597D01*
Y26814D01*
X22587D01*
Y26825D01*
X22576D01*
Y26846D01*
X22566D01*
Y26856D01*
X22555D01*
Y26867D01*
X22545D01*
Y26888D01*
X22534D01*
Y26898D01*
X22524D01*
Y26909D01*
X22513D01*
Y26930D01*
X22503D01*
Y26940D01*
X22492D01*
Y26951D01*
X22482D01*
Y26961D01*
X22471D01*
Y26982D01*
X22461D01*
Y26992D01*
X22451D01*
Y27003D01*
X22440D01*
Y27024D01*
X22430D01*
Y27034D01*
X22419D01*
Y27045D01*
X22409D01*
Y27066D01*
X22398D01*
Y27076D01*
X22388D01*
Y27087D01*
X22377D01*
Y27108D01*
X22367D01*
Y27118D01*
X22356D01*
Y27129D01*
X22346D01*
Y27139D01*
X22335D01*
Y27160D01*
X22325D01*
Y27171D01*
X22314D01*
Y27181D01*
X22304D01*
Y27202D01*
X22293D01*
Y27213D01*
X22283D01*
Y27223D01*
X22272D01*
Y27244D01*
X22262D01*
Y27254D01*
X22252D01*
Y27265D01*
X22241D01*
Y27286D01*
X22230D01*
Y27296D01*
X22220D01*
Y27307D01*
X22210D01*
Y27317D01*
X22199D01*
Y27338D01*
X22189D01*
Y27349D01*
X22178D01*
Y27359D01*
X22168D01*
Y27380D01*
X22157D01*
Y27391D01*
X22147D01*
Y27401D01*
X22136D01*
Y27422D01*
X22126D01*
Y27433D01*
X22115D01*
Y27443D01*
X22105D01*
Y27464D01*
X22094D01*
Y27474D01*
X22084D01*
Y27485D01*
X22073D01*
Y27506D01*
X22063D01*
Y27516D01*
X22052D01*
Y27527D01*
X22042D01*
Y27537D01*
X22031D01*
Y27558D01*
X22021D01*
Y27569D01*
X22011D01*
Y27579D01*
X22000D01*
Y27600D01*
X21990D01*
Y27611D01*
X21979D01*
Y27621D01*
X21969D01*
Y27642D01*
X21958D01*
Y27652D01*
X21948D01*
Y27663D01*
X21937D01*
Y27684D01*
X21927D01*
Y27694D01*
X21916D01*
Y27705D01*
X21906D01*
Y27715D01*
X21895D01*
Y27736D01*
X21885D01*
Y27747D01*
X21874D01*
Y27757D01*
X21864D01*
Y27778D01*
X21853D01*
Y27789D01*
X21843D01*
Y27799D01*
X21833D01*
Y27820D01*
X21822D01*
Y27831D01*
X21812D01*
Y27841D01*
X21801D01*
Y27862D01*
X21791D01*
Y27872D01*
X21780D01*
Y27883D01*
X21770D01*
Y27893D01*
X21759D01*
Y27914D01*
X21749D01*
Y27925D01*
X21738D01*
Y27935D01*
X21728D01*
Y27956D01*
X21717D01*
Y27967D01*
X21707D01*
Y27977D01*
X21696D01*
Y27998D01*
X21497D01*
Y27988D01*
X19685D01*
Y26312D01*
X19664D01*
Y26301D01*
X19643D01*
Y26291D01*
X19622D01*
Y26280D01*
X19601D01*
Y26270D01*
X19580D01*
Y26259D01*
X19570D01*
Y26249D01*
X19549D01*
Y26238D01*
X19538D01*
Y26228D01*
X19528D01*
Y26217D01*
X19517D01*
Y26207D01*
X19507D01*
Y26196D01*
X19497D01*
Y26186D01*
X19486D01*
Y26175D01*
X19476D01*
Y26165D01*
X19465D01*
Y26155D01*
X19455D01*
Y26144D01*
X19444D01*
Y26123D01*
X19434D01*
Y26113D01*
X19423D01*
Y26102D01*
X19413D01*
Y26081D01*
X19402D01*
Y26071D01*
X19392D01*
Y26050D01*
X19381D01*
Y26039D01*
X19371D01*
Y26018D01*
X19360D01*
Y26008D01*
X19350D01*
Y25987D01*
X19339D01*
Y25966D01*
X19329D01*
Y25945D01*
X19318D01*
Y25935D01*
X19308D01*
Y25914D01*
X19297D01*
Y25893D01*
X19287D01*
Y25882D01*
X19276D01*
Y31067D01*
X21780D01*
Y31057D01*
D02*
G37*
%LPC*%
G36*
X15526Y30167D02*
X15505D01*
Y30146D01*
X15516D01*
Y30156D01*
X15526D01*
Y30167D01*
D02*
G37*
G36*
X15537Y30146D02*
X15526D01*
Y30135D01*
Y30125D01*
X15537D01*
Y30146D01*
D02*
G37*
G36*
X15505Y30135D02*
X15495D01*
Y30104D01*
X15505D01*
Y30135D01*
D02*
G37*
G36*
X15547Y30114D02*
X15537D01*
Y30093D01*
X15547D01*
Y30114D01*
D02*
G37*
G36*
X15495Y30104D02*
X15484D01*
Y30072D01*
D01*
D01*
X15495D01*
Y30104D01*
D02*
G37*
G36*
X14290Y28512D02*
X14280D01*
Y28501D01*
X14290D01*
Y28512D01*
D02*
G37*
G36*
X15526Y28449D02*
X15505D01*
Y28438D01*
X15526D01*
Y28449D01*
D02*
G37*
G36*
X16762Y28470D02*
X16752D01*
Y28417D01*
X16762D01*
Y28470D01*
D02*
G37*
G36*
X15505Y28438D02*
X15495D01*
Y28417D01*
X15505D01*
Y28438D01*
D02*
G37*
G36*
X15495Y28417D02*
X15484D01*
Y28407D01*
X15495D01*
Y28417D01*
D02*
G37*
G36*
X15484Y28407D02*
X15474D01*
Y28396D01*
X15484D01*
Y28407D01*
D02*
G37*
G36*
X14280Y28417D02*
X14269D01*
Y28375D01*
X14280D01*
Y28386D01*
Y28396D01*
Y28417D01*
D02*
G37*
G36*
X15474Y28396D02*
X15463D01*
Y28386D01*
X15453D01*
Y28365D01*
X15463D01*
Y28375D01*
X15474D01*
Y28396D01*
D02*
G37*
G36*
X14269Y28323D02*
X14259D01*
Y28250D01*
X14269D01*
Y28281D01*
Y28291D01*
Y28323D01*
D02*
G37*
G36*
X21466Y30690D02*
X19685D01*
Y28365D01*
X21172D01*
Y28375D01*
X21508D01*
Y28386D01*
X21675D01*
Y28396D01*
X21812D01*
Y28407D01*
X21958D01*
Y28417D01*
X22031D01*
Y28428D01*
X22105D01*
Y28438D01*
X22157D01*
Y28449D01*
X22210D01*
Y28459D01*
X22252D01*
Y28470D01*
X22283D01*
Y28480D01*
X22314D01*
Y28490D01*
X22356D01*
Y28501D01*
X22388D01*
Y28512D01*
X22419D01*
Y28522D01*
X22451D01*
Y28532D01*
X22471D01*
Y28543D01*
X22492D01*
Y28553D01*
X22524D01*
Y28564D01*
X22545D01*
Y28574D01*
X22566D01*
Y28585D01*
X22587D01*
Y28595D01*
X22597D01*
Y28606D01*
X22618D01*
Y28616D01*
X22639D01*
Y28627D01*
X22649D01*
Y28637D01*
X22660D01*
Y28648D01*
X22681D01*
Y28658D01*
X22692D01*
Y28669D01*
X22702D01*
Y28679D01*
X22723D01*
Y28690D01*
X22733D01*
Y28700D01*
X22744D01*
Y28710D01*
X22754D01*
Y28721D01*
X22765D01*
Y28731D01*
X22775D01*
Y28742D01*
X22786D01*
Y28752D01*
X22796D01*
Y28763D01*
X22807D01*
Y28773D01*
X22817D01*
Y28794D01*
X22828D01*
Y28805D01*
X22838D01*
Y28815D01*
X22849D01*
Y28826D01*
X22859D01*
Y28836D01*
X22870D01*
Y28847D01*
X22880D01*
Y28857D01*
X22891D01*
Y28878D01*
X22901D01*
Y28899D01*
X22911D01*
Y28920D01*
X22922D01*
Y28951D01*
X22932D01*
Y28972D01*
X22943D01*
Y29004D01*
X22953D01*
Y29046D01*
X22964D01*
Y29088D01*
X22974D01*
Y29140D01*
X22985D01*
Y29213D01*
X22995D01*
Y29297D01*
X23006D01*
Y29402D01*
X23016D01*
Y29695D01*
X23006D01*
Y29863D01*
X22995D01*
Y29947D01*
X22985D01*
Y29999D01*
X22974D01*
Y30051D01*
X22964D01*
Y30093D01*
X22953D01*
Y30135D01*
X22943D01*
Y30156D01*
X22932D01*
Y30177D01*
X22922D01*
Y30209D01*
X22911D01*
Y30219D01*
X22901D01*
Y30240D01*
X22891D01*
Y30250D01*
X22880D01*
Y30271D01*
X22870D01*
Y30282D01*
X22859D01*
Y30292D01*
X22849D01*
Y30313D01*
X22838D01*
Y30324D01*
X22828D01*
Y30345D01*
X22817D01*
Y30355D01*
X22807D01*
Y30366D01*
X22796D01*
Y30376D01*
X22786D01*
Y30386D01*
X22775D01*
Y30397D01*
X22765D01*
Y30408D01*
X22744D01*
Y30418D01*
X22733D01*
Y30428D01*
X22712D01*
Y30439D01*
X22702D01*
Y30449D01*
X22692D01*
Y30460D01*
X22670D01*
Y30470D01*
X22660D01*
Y30481D01*
X22639D01*
Y30491D01*
X22618D01*
Y30502D01*
X22597D01*
Y30512D01*
X22576D01*
Y30523D01*
X22555D01*
Y30533D01*
X22524D01*
Y30544D01*
X22492D01*
Y30554D01*
X22471D01*
Y30565D01*
X22440D01*
Y30575D01*
X22398D01*
Y30586D01*
X22356D01*
Y30596D01*
X22314D01*
Y30606D01*
X22272D01*
Y30617D01*
X22210D01*
Y30628D01*
X22157D01*
Y30638D01*
X22073D01*
Y30648D01*
X21990D01*
Y30659D01*
X21874D01*
Y30669D01*
X21696D01*
Y30680D01*
X21466D01*
Y30690D01*
D02*
G37*
%LPD*%
D10*
X105815Y196165D02*
X105065Y196598D01*
Y195732D01*
X105815Y196165D01*
Y157780D02*
X105065Y158212D01*
Y157346D01*
X105815Y157780D01*
X10343Y176244D02*
X9593Y176677D01*
Y175811D01*
X10343Y176244D01*
D11*
X116142Y82284D02*
Y83071D01*
X100787Y82284D02*
X116142D01*
X100787D02*
Y83071D01*
X110630Y112205D02*
Y112992D01*
X95276D02*
X110630D01*
X95276Y112205D02*
Y112992D01*
X93539Y49744D02*
Y205244D01*
X18539D02*
X93539D01*
X18539Y49744D02*
X93539D01*
X18539D02*
Y205244D01*
Y209744D01*
X93539D01*
Y205244D02*
Y209744D01*
D12*
X112315Y161165D02*
Y193165D01*
X98315Y161165D02*
Y193165D01*
X112315D01*
X98315Y161165D02*
X112315D01*
Y122780D02*
Y154780D01*
X98315Y122780D02*
Y154780D01*
X112315D01*
X98315Y122780D02*
X112315D01*
X35878Y4220D02*
X75878D01*
X35878Y37220D02*
X75878D01*
Y4220D02*
Y37220D01*
X35878Y4220D02*
Y37220D01*
X2843Y131244D02*
X16842D01*
X2843Y173244D02*
X16842D01*
X2843Y131244D02*
Y173244D01*
X16842Y131244D02*
Y173244D01*
D13*
X82217Y30218D02*
X81692Y30743D01*
X80643D01*
X80118Y30218D01*
Y28119D01*
X80643Y27595D01*
X81692D01*
X82217Y28119D01*
Y29169D01*
X81168D01*
X83267Y30743D02*
X84316D01*
X83792D01*
Y27595D01*
X83267D01*
X84316D01*
X85891D02*
Y30743D01*
X86940Y29694D01*
X87990Y30743D01*
Y27595D01*
X89039Y30743D02*
Y27595D01*
X90613D01*
X91138Y28119D01*
Y28644D01*
X90613Y29169D01*
X89039D01*
X90613D01*
X91138Y29694D01*
Y30218D01*
X90613Y30743D01*
X89039D01*
X92188Y27595D02*
Y29694D01*
X93237Y30743D01*
X94287Y29694D01*
Y27595D01*
Y29169D01*
X92188D01*
X95336Y30743D02*
Y27595D01*
X97435D01*
X82217Y25023D02*
X81692Y25548D01*
X80643D01*
X80118Y25023D01*
Y24498D01*
X80643Y23973D01*
X81692D01*
X82217Y23449D01*
Y22924D01*
X81692Y22399D01*
X80643D01*
X80118Y22924D01*
X85366Y25548D02*
X83267D01*
Y22399D01*
X85366D01*
X83267Y23973D02*
X84316D01*
X86415Y25548D02*
Y22924D01*
X86940Y22399D01*
X87990D01*
X88514Y22924D01*
Y25548D01*
X89564Y22399D02*
Y25548D01*
X91663Y22399D01*
Y25548D01*
X94811Y25023D02*
X94287Y25548D01*
X93237D01*
X92712Y25023D01*
Y22924D01*
X93237Y22399D01*
X94287D01*
X94811Y22924D01*
Y23973D01*
X93762D01*
X95861Y22399D02*
Y25548D01*
X96911Y24498D01*
X97960Y25548D01*
Y22399D01*
X99010Y25548D02*
X100059D01*
X99534D01*
Y22399D01*
X99010D01*
X100059D01*
X101634D02*
Y25548D01*
X103733Y22399D01*
Y25548D01*
X107931D02*
Y22399D01*
Y23973D01*
X110030D01*
Y25548D01*
Y22399D01*
X111079D02*
Y22924D01*
X111604D01*
Y22399D01*
X111079D01*
X80118Y17203D02*
Y20352D01*
X82217Y17203D01*
Y20352D01*
X84841D02*
X83792D01*
X83267Y19827D01*
Y17728D01*
X83792Y17203D01*
X84841D01*
X85366Y17728D01*
Y19827D01*
X84841Y20352D01*
X86415D02*
Y18253D01*
X87465Y17203D01*
X88514Y18253D01*
Y20352D01*
X94811Y17203D02*
X92712D01*
X94811Y19302D01*
Y19827D01*
X94287Y20352D01*
X93237D01*
X92712Y19827D01*
X95861D02*
X96386Y20352D01*
X97435D01*
X97960Y19827D01*
Y17728D01*
X97435Y17203D01*
X96386D01*
X95861Y17728D01*
Y19827D01*
X101109Y17203D02*
X99010D01*
X101109Y19302D01*
Y19827D01*
X100584Y20352D01*
X99534D01*
X99010Y19827D01*
X102158Y17203D02*
X103208D01*
X102683D01*
Y20352D01*
X102158Y19827D01*
X80118Y12008D02*
Y15157D01*
X81692D01*
X82217Y14632D01*
Y13582D01*
X81692Y13057D01*
X80118D01*
X81168D02*
X82217Y12008D01*
X85366Y15157D02*
X83267D01*
Y12008D01*
X85366D01*
X83267Y13582D02*
X84316D01*
X86415Y15157D02*
Y13057D01*
X87465Y12008D01*
X88514Y13057D01*
Y15157D01*
X92712Y12008D02*
X93762D01*
X93237D01*
Y15157D01*
X92712Y14632D01*
X104134Y77362D02*
Y80511D01*
X105708D01*
X106233Y79986D01*
Y78936D01*
X105708Y78412D01*
X104134D01*
X107282Y80511D02*
Y77362D01*
X108857D01*
X109381Y77887D01*
Y79986D01*
X108857Y80511D01*
X107282D01*
X110431D02*
Y77362D01*
X112005D01*
X112530Y77887D01*
Y78412D01*
X112005Y78936D01*
X110431D01*
X112005D01*
X112530Y79461D01*
Y79986D01*
X112005Y80511D01*
X110431D01*
X97441Y114764D02*
Y117912D01*
X99540Y114764D01*
Y117912D01*
X100590Y114764D02*
Y116863D01*
X101639Y117912D01*
X102689Y116863D01*
Y114764D01*
Y116338D01*
X100590D01*
X103738Y114764D02*
Y117912D01*
X105837Y114764D01*
Y117912D01*
X108461D02*
X107412D01*
X106887Y117388D01*
Y115288D01*
X107412Y114764D01*
X108461D01*
X108986Y115288D01*
Y117388D01*
X108461Y117912D01*
D14*
X115991Y151862D02*
X113492D01*
Y150613D01*
X113909Y150196D01*
X115575D01*
X115991Y150613D01*
Y151862D01*
X113492Y149363D02*
Y148530D01*
Y148946D01*
X115991D01*
X115575Y149363D01*
Y147280D02*
X115991Y146864D01*
Y146031D01*
X115575Y145614D01*
X113909D01*
X113492Y146031D01*
Y146864D01*
X113909Y147280D01*
X115575D01*
X115991Y190051D02*
X113492D01*
Y188802D01*
X113909Y188385D01*
X115575D01*
X115991Y188802D01*
Y190051D01*
X113492Y187552D02*
Y186719D01*
Y187136D01*
X115991D01*
X115575Y187552D01*
X113492Y185469D02*
Y184636D01*
Y185053D01*
X115991D01*
X115575Y185469D01*
M02*
