G04*
G04 #@! TF.GenerationSoftware,Altium Limited,Altium Designer,21.9.2 (33)*
G04*
G04 Layer_Physical_Order=3*
G04 Layer_Color=36540*
%FSLAX25Y25*%
%MOIN*%
G70*
G04*
G04 #@! TF.SameCoordinates,4B28BFC6-66F2-4CE6-BA62-AB5105B5E065*
G04*
G04*
G04 #@! TF.FilePolarity,Positive*
G04*
G01*
G75*
%ADD57R,0.05937X0.11874*%
%ADD59C,0.09055*%
%ADD60C,0.03150*%
%ADD61C,0.02362*%
G36*
X288739Y195702D02*
X290026Y195311D01*
X291211Y194678D01*
X292250Y193825D01*
X293103Y192786D01*
X293737Y191601D01*
X294127Y190314D01*
X294258Y188985D01*
X294256Y188976D01*
Y7874D01*
X294258Y7865D01*
X294127Y6536D01*
X293737Y5250D01*
X293103Y4064D01*
X292250Y3025D01*
X291211Y2173D01*
X290026Y1539D01*
X288739Y1149D01*
X287410Y1018D01*
X287402Y1020D01*
X7874D01*
X7865Y1018D01*
X6536Y1149D01*
X5250Y1539D01*
X4064Y2173D01*
X3025Y3025D01*
X2173Y4064D01*
X1539Y5250D01*
X1149Y6536D01*
X1018Y7865D01*
X1020Y7874D01*
Y188976D01*
X1018Y188985D01*
X1149Y190314D01*
X1539Y191601D01*
X2173Y192786D01*
X3025Y193825D01*
X4064Y194678D01*
X5250Y195311D01*
X6536Y195702D01*
X7865Y195833D01*
X7874Y195831D01*
X287402D01*
X287410Y195833D01*
X288739Y195702D01*
D02*
G37*
%LPC*%
G36*
X280279Y186811D02*
X278776D01*
X277324Y186422D01*
X276022Y185670D01*
X274959Y184608D01*
X274208Y183306D01*
X273819Y181854D01*
Y180351D01*
X274208Y178899D01*
X274959Y177597D01*
X276022Y176534D01*
X277324Y175783D01*
X278776Y175394D01*
X280279D01*
X281731Y175783D01*
X283033Y176534D01*
X284096Y177597D01*
X284847Y178899D01*
X285236Y180351D01*
Y181854D01*
X284847Y183306D01*
X284096Y184608D01*
X283033Y185670D01*
X281731Y186422D01*
X280279Y186811D01*
D02*
G37*
G36*
X16500D02*
X14997D01*
X13545Y186422D01*
X12243Y185670D01*
X11180Y184608D01*
X10428Y183306D01*
X10039Y181854D01*
Y180351D01*
X10428Y178899D01*
X11180Y177597D01*
X12243Y176534D01*
X13545Y175783D01*
X14997Y175394D01*
X16500D01*
X17952Y175783D01*
X19253Y176534D01*
X20316Y177597D01*
X21068Y178899D01*
X21457Y180351D01*
Y181854D01*
X21068Y183306D01*
X20316Y184608D01*
X19253Y185670D01*
X17952Y186422D01*
X16500Y186811D01*
D02*
G37*
G36*
X159230Y172576D02*
Y169073D01*
X162734D01*
X162631Y169456D01*
X161904Y170717D01*
X160874Y171746D01*
X159614Y172474D01*
X159230Y172576D01*
D02*
G37*
G36*
X155730D02*
X155347Y172474D01*
X154086Y171746D01*
X153057Y170717D01*
X152329Y169456D01*
X152227Y169073D01*
X155730D01*
Y172576D01*
D02*
G37*
G36*
X162734Y165573D02*
X159230D01*
Y162069D01*
X159614Y162172D01*
X160874Y162900D01*
X161904Y163929D01*
X162631Y165189D01*
X162734Y165573D01*
D02*
G37*
G36*
X155730D02*
X152227D01*
X152329Y165189D01*
X153057Y163929D01*
X154086Y162900D01*
X155347Y162172D01*
X155730Y162069D01*
Y165573D01*
D02*
G37*
G36*
X251969Y175197D02*
X179134D01*
X175197Y171260D01*
Y155555D01*
X145669D01*
X145669Y171260D01*
X141732Y175197D01*
X43307D01*
X39370Y171260D01*
Y100394D01*
X35433Y96457D01*
X25591D01*
X21654Y92520D01*
Y84646D01*
X25591Y80709D01*
X53150D01*
X57087Y76772D01*
Y53150D01*
Y25591D01*
X61024Y21654D01*
X78740D01*
X82677Y25591D01*
Y35433D01*
X86614Y39370D01*
X98425D01*
X102362Y35433D01*
Y25591D01*
X106299Y21654D01*
X118110D01*
X122047Y25591D01*
Y35433D01*
X125984Y39370D01*
X145669D01*
X149606Y35433D01*
Y25591D01*
X153543Y21654D01*
X270473D01*
X272441Y23622D01*
Y74803D01*
X270472Y76772D01*
X259842D01*
X255906Y80709D01*
Y100394D01*
X269685D01*
X273622Y104331D01*
Y112205D01*
X269685Y116142D01*
X255906D01*
X255906Y171260D01*
X251969Y175197D01*
D02*
G37*
G36*
X31278Y113521D02*
Y110018D01*
X34781D01*
X34678Y110401D01*
X33951Y111662D01*
X32922Y112691D01*
X31661Y113419D01*
X31278Y113521D01*
D02*
G37*
G36*
X27778D02*
X27394Y113419D01*
X26134Y112691D01*
X25104Y111662D01*
X24377Y110401D01*
X24274Y110018D01*
X27778D01*
Y113521D01*
D02*
G37*
G36*
X34781Y106518D02*
X31278D01*
Y103014D01*
X31661Y103117D01*
X32922Y103845D01*
X33951Y104874D01*
X34678Y106134D01*
X34781Y106518D01*
D02*
G37*
G36*
X27778D02*
X24274D01*
X24377Y106134D01*
X25104Y104874D01*
X26134Y103845D01*
X27394Y103117D01*
X27778Y103014D01*
Y106518D01*
D02*
G37*
G36*
X267498Y93836D02*
Y90333D01*
X271002D01*
X270899Y90716D01*
X270171Y91977D01*
X269142Y93006D01*
X267882Y93734D01*
X267498Y93836D01*
D02*
G37*
G36*
X263998Y93836D02*
X263615Y93734D01*
X262354Y93006D01*
X261325Y91977D01*
X260597Y90716D01*
X260494Y90333D01*
X263998D01*
Y93836D01*
D02*
G37*
G36*
X271002Y86833D02*
X267498D01*
Y83329D01*
X267882Y83432D01*
X269142Y84159D01*
X270171Y85189D01*
X270899Y86449D01*
X271002Y86833D01*
D02*
G37*
G36*
X263998D02*
X260494D01*
X260597Y86449D01*
X261325Y85189D01*
X262354Y84159D01*
X263615Y83432D01*
X263998Y83329D01*
Y86833D01*
D02*
G37*
G36*
X276732Y74380D02*
X275827Y74261D01*
X274983Y73912D01*
X274258Y73356D01*
X273703Y72631D01*
X273353Y71787D01*
X273234Y70882D01*
Y64945D01*
X273353Y64039D01*
X273703Y63196D01*
X274258Y62471D01*
X274983Y61915D01*
X275827Y61566D01*
X276732Y61446D01*
X277638Y61566D01*
X278482Y61915D01*
X279206Y62471D01*
X279762Y63196D01*
X280112Y64039D01*
X280231Y64945D01*
Y70882D01*
X280112Y71787D01*
X279762Y72631D01*
X279206Y73356D01*
X278482Y73912D01*
X277638Y74261D01*
X276732Y74380D01*
D02*
G37*
G36*
Y58632D02*
X275827Y58513D01*
X274983Y58164D01*
X274258Y57608D01*
X273703Y56883D01*
X273353Y56039D01*
X273234Y55134D01*
Y49197D01*
X273353Y48291D01*
X273703Y47448D01*
X274258Y46723D01*
X274983Y46167D01*
X275827Y45818D01*
X276732Y45698D01*
X277638Y45818D01*
X278482Y46167D01*
X279206Y46723D01*
X279762Y47448D01*
X280112Y48291D01*
X280231Y49197D01*
Y55134D01*
X280112Y56039D01*
X279762Y56883D01*
X279206Y57608D01*
X278482Y58164D01*
X277638Y58513D01*
X276732Y58632D01*
D02*
G37*
G36*
X139545Y34781D02*
Y31278D01*
X143049D01*
X142946Y31661D01*
X142218Y32922D01*
X141189Y33951D01*
X139929Y34678D01*
X139545Y34781D01*
D02*
G37*
G36*
X136045D02*
X135662Y34678D01*
X134401Y33951D01*
X133372Y32922D01*
X132644Y31661D01*
X132542Y31278D01*
X136045D01*
Y34781D01*
D02*
G37*
G36*
X94270D02*
Y31278D01*
X97773D01*
X97671Y31661D01*
X96943Y32922D01*
X95914Y33951D01*
X94653Y34678D01*
X94270Y34781D01*
D02*
G37*
G36*
X90770D02*
X90386Y34678D01*
X89126Y33951D01*
X88096Y32922D01*
X87369Y31661D01*
X87266Y31278D01*
X90770D01*
Y34781D01*
D02*
G37*
G36*
X48994D02*
Y31278D01*
X52498D01*
X52395Y31661D01*
X51667Y32922D01*
X50638Y33951D01*
X49378Y34678D01*
X48994Y34781D01*
D02*
G37*
G36*
X45494D02*
X45110Y34678D01*
X43850Y33951D01*
X42821Y32922D01*
X42093Y31661D01*
X41990Y31278D01*
X45494D01*
Y34781D01*
D02*
G37*
G36*
X276772Y42687D02*
X275866Y42568D01*
X275022Y42219D01*
X274298Y41663D01*
X273742Y40938D01*
X273392Y40094D01*
X273273Y39189D01*
Y33252D01*
X273392Y32346D01*
X273742Y31503D01*
X274298Y30778D01*
X275022Y30222D01*
X275866Y29873D01*
X276772Y29754D01*
X277677Y29873D01*
X278521Y30222D01*
X279245Y30778D01*
X279801Y31503D01*
X280151Y32346D01*
X280270Y33252D01*
Y39189D01*
X280151Y40094D01*
X279801Y40938D01*
X279245Y41663D01*
X278521Y42219D01*
X277677Y42568D01*
X276772Y42687D01*
D02*
G37*
G36*
X143049Y27778D02*
X139545D01*
Y24274D01*
X139929Y24377D01*
X141189Y25104D01*
X142218Y26134D01*
X142946Y27394D01*
X143049Y27778D01*
D02*
G37*
G36*
X136045D02*
X132542D01*
X132644Y27394D01*
X133372Y26134D01*
X134401Y25104D01*
X135662Y24377D01*
X136045Y24274D01*
Y27778D01*
D02*
G37*
G36*
X97773D02*
X94270D01*
Y24274D01*
X94653Y24377D01*
X95914Y25104D01*
X96943Y26134D01*
X97671Y27394D01*
X97773Y27778D01*
D02*
G37*
G36*
X90770D02*
X87266D01*
X87369Y27394D01*
X88096Y26134D01*
X89126Y25104D01*
X90386Y24377D01*
X90770Y24274D01*
Y27778D01*
D02*
G37*
G36*
X52498D02*
X48994D01*
Y24274D01*
X49378Y24377D01*
X50638Y25104D01*
X51667Y26134D01*
X52395Y27394D01*
X52498Y27778D01*
D02*
G37*
G36*
X45494D02*
X41990D01*
X42093Y27394D01*
X42821Y26134D01*
X43850Y25104D01*
X45110Y24377D01*
X45494Y24274D01*
Y27778D01*
D02*
G37*
G36*
X280279Y21457D02*
X278776D01*
X277324Y21068D01*
X276022Y20316D01*
X274959Y19253D01*
X274208Y17952D01*
X273819Y16500D01*
Y14997D01*
X274208Y13545D01*
X274959Y12243D01*
X276022Y11180D01*
X277324Y10428D01*
X278776Y10039D01*
X280279D01*
X281731Y10428D01*
X283033Y11180D01*
X284096Y12243D01*
X284847Y13545D01*
X285236Y14997D01*
Y16500D01*
X284847Y17952D01*
X284096Y19253D01*
X283033Y20316D01*
X281731Y21068D01*
X280279Y21457D01*
D02*
G37*
G36*
X16500D02*
X14997D01*
X13545Y21068D01*
X12243Y20316D01*
X11180Y19253D01*
X10428Y17952D01*
X10039Y16500D01*
Y14997D01*
X10428Y13545D01*
X11180Y12243D01*
X12243Y11180D01*
X13545Y10428D01*
X14997Y10039D01*
X16500D01*
X17952Y10428D01*
X19253Y11180D01*
X20316Y12243D01*
X21068Y13545D01*
X21457Y14997D01*
Y16500D01*
X21068Y17952D01*
X20316Y19253D01*
X19253Y20316D01*
X17952Y21068D01*
X16500Y21457D01*
D02*
G37*
%LPD*%
G36*
X103789Y159673D02*
X100170Y156053D01*
X84870D01*
X81250Y159673D01*
Y174656D01*
X103789D01*
Y159673D01*
D02*
G37*
G36*
X145128Y171036D02*
X145128Y156012D01*
X144646Y155512D01*
X132655D01*
X126525Y161642D01*
Y174656D01*
X141508D01*
X145128Y171036D01*
D02*
G37*
G36*
X240158Y151575D02*
Y125984D01*
X236221Y122047D01*
X149606D01*
X145669Y125984D01*
X145669Y155014D01*
X236718D01*
X240158Y151575D01*
D02*
G37*
G36*
X255364Y171036D02*
X255364Y116142D01*
X250000D01*
X246063Y112205D01*
Y104331D01*
X250000Y100394D01*
X255364D01*
Y80709D01*
X255523Y80326D01*
X255523Y80326D01*
X259460Y76389D01*
X259842Y76230D01*
X259842Y76230D01*
X270248D01*
X271900Y74579D01*
Y23846D01*
X270248Y22195D01*
X173228D01*
Y50197D01*
X177165Y54134D01*
X220472D01*
X224409Y58071D01*
X224409Y96457D01*
X220472Y100394D01*
X125984D01*
X122047Y104331D01*
X122047Y135827D01*
X118110Y139764D01*
X62992D01*
X59055Y143701D01*
Y174656D01*
X80709D01*
Y159449D01*
X84646Y155512D01*
X100394D01*
X104331Y159449D01*
Y174656D01*
X125984D01*
Y161417D01*
X132431Y154971D01*
X145128D01*
X145128Y125984D01*
X145287Y125602D01*
X145287Y125601D01*
X149224Y121665D01*
X149606Y121506D01*
X149606Y121506D01*
X236221D01*
X236603Y121665D01*
X236603Y121665D01*
X240540Y125602D01*
X240699Y125984D01*
X240699Y125984D01*
Y151575D01*
X240540Y151957D01*
X240540Y151957D01*
X237101Y155396D01*
X236718Y155555D01*
X236718Y155555D01*
X175738D01*
Y171036D01*
X179358Y174656D01*
X251744D01*
X255364Y171036D01*
D02*
G37*
G36*
X255906Y115601D02*
X269461D01*
X273081Y111980D01*
Y104555D01*
X269461Y100935D01*
X255906D01*
X255635Y100823D01*
X255364Y100935D01*
X250224D01*
X246604Y104555D01*
Y111980D01*
X250224Y115601D01*
X255364D01*
X255635Y115713D01*
X255906Y115601D01*
D02*
G37*
G36*
X58514Y143701D02*
X58672Y143318D01*
X62609Y139381D01*
X62992Y139223D01*
X62992Y139223D01*
X117886D01*
X121506Y135603D01*
X121506Y104331D01*
X121506Y104331D01*
X121665Y103948D01*
X121665Y103948D01*
X125601Y100011D01*
X125601Y100011D01*
X125984Y99853D01*
X125984Y99853D01*
X220248D01*
X223868Y96232D01*
X223868Y58295D01*
X220248Y54675D01*
X177165D01*
X177165Y54675D01*
X176783Y54517D01*
X172846Y50580D01*
X172687Y50197D01*
X172687Y50197D01*
Y22195D01*
X153768D01*
X150147Y25815D01*
Y35433D01*
X149989Y35816D01*
X149989Y35816D01*
X146052Y39753D01*
X145669Y39911D01*
X145669Y39911D01*
X125984D01*
X125602Y39753D01*
X125601Y39753D01*
X121665Y35816D01*
X121506Y35433D01*
X121506Y35433D01*
Y25815D01*
X117886Y22195D01*
X106523D01*
X102903Y25815D01*
Y35433D01*
X102903Y35433D01*
X102745Y35816D01*
X98808Y39753D01*
X98425Y39911D01*
X98425Y39911D01*
X86614D01*
X86614Y39911D01*
X86231Y39753D01*
X82294Y35816D01*
X82136Y35433D01*
X82136Y35433D01*
Y25815D01*
X78516Y22195D01*
X61248D01*
X57628Y25815D01*
Y53150D01*
Y76772D01*
X57469Y77154D01*
X57469Y77154D01*
X53532Y81091D01*
X53150Y81250D01*
X53150Y81250D01*
X25815D01*
X22195Y84870D01*
Y92295D01*
X25815Y95916D01*
X35433D01*
X35433Y95916D01*
X35816Y96074D01*
X39753Y100011D01*
X39911Y100394D01*
X39911Y100394D01*
Y171036D01*
X43531Y174656D01*
X58514D01*
Y143701D01*
D02*
G37*
%LPC*%
G36*
X94270Y172581D02*
Y169073D01*
X97778D01*
X97348Y170110D01*
X96462Y171265D01*
X95307Y172151D01*
X94270Y172581D01*
D02*
G37*
G36*
X90770D02*
X89732Y172151D01*
X88577Y171265D01*
X87691Y170110D01*
X87262Y169073D01*
X90770D01*
Y172581D01*
D02*
G37*
G36*
X97778Y165573D02*
X94270D01*
Y162065D01*
X95307Y162495D01*
X96462Y163381D01*
X97348Y164535D01*
X97778Y165573D01*
D02*
G37*
G36*
X90770D02*
X87261D01*
X87691Y164535D01*
X88577Y163381D01*
X89732Y162495D01*
X90770Y162065D01*
Y165573D01*
D02*
G37*
G36*
X139545Y172581D02*
Y169073D01*
X143053D01*
X142624Y170110D01*
X141738Y171265D01*
X140583Y172151D01*
X139545Y172581D01*
D02*
G37*
G36*
X136045D02*
X135008Y172151D01*
X133853Y171265D01*
X132967Y170110D01*
X132537Y169073D01*
X136045D01*
Y172581D01*
D02*
G37*
G36*
X143053Y165573D02*
X139545D01*
Y162065D01*
X140583Y162495D01*
X141738Y163381D01*
X142624Y164535D01*
X143053Y165573D01*
D02*
G37*
G36*
X136045D02*
X132537D01*
X132967Y164535D01*
X133853Y163381D01*
X135008Y162495D01*
X136045Y162065D01*
Y165573D01*
D02*
G37*
G36*
X249644Y172613D02*
Y168935D01*
X253322D01*
X253182Y169456D01*
X252455Y170717D01*
X251426Y171746D01*
X250165Y172474D01*
X249644Y172613D01*
D02*
G37*
G36*
X204368D02*
Y168935D01*
X208046D01*
X207907Y169456D01*
X207179Y170717D01*
X206150Y171746D01*
X204889Y172474D01*
X204368Y172613D01*
D02*
G37*
G36*
X68542Y172613D02*
Y168935D01*
X72220D01*
X72080Y169456D01*
X71352Y170717D01*
X70323Y171746D01*
X69063Y172474D01*
X68542Y172613D01*
D02*
G37*
G36*
X113817D02*
Y168935D01*
X117495D01*
X117356Y169456D01*
X116628Y170717D01*
X115599Y171746D01*
X114338Y172474D01*
X113817Y172613D01*
D02*
G37*
G36*
X65317D02*
X64796Y172474D01*
X63535Y171746D01*
X62506Y170717D01*
X61778Y169456D01*
X61639Y168935D01*
X65317D01*
Y172613D01*
D02*
G37*
G36*
X110592D02*
X110071Y172474D01*
X108811Y171746D01*
X107782Y170717D01*
X107054Y169456D01*
X106914Y168935D01*
X110592D01*
Y172613D01*
D02*
G37*
G36*
X201143D02*
X200622Y172474D01*
X199362Y171746D01*
X198333Y170717D01*
X197605Y169456D01*
X197465Y168935D01*
X201143D01*
Y172613D01*
D02*
G37*
G36*
X246419Y172613D02*
X245898Y172474D01*
X244637Y171746D01*
X243608Y170717D01*
X242881Y169456D01*
X242741Y168935D01*
X246419D01*
Y172613D01*
D02*
G37*
G36*
X220885Y171760D02*
X220060D01*
X219297Y171444D01*
X218713Y170860D01*
X218398Y170098D01*
Y169272D01*
X218713Y168510D01*
X219297Y167926D01*
X220060Y167610D01*
X220885D01*
X221648Y167926D01*
X222231Y168510D01*
X222547Y169272D01*
Y170098D01*
X222231Y170860D01*
X221648Y171444D01*
X220885Y171760D01*
D02*
G37*
G36*
X236633Y171760D02*
X235808D01*
X235045Y171444D01*
X234461Y170860D01*
X234146Y170098D01*
Y169272D01*
X234461Y168510D01*
X235045Y167926D01*
X235808Y167610D01*
X236633D01*
X237396Y167926D01*
X237979Y168510D01*
X238295Y169272D01*
Y170098D01*
X237979Y170860D01*
X237396Y171444D01*
X236633Y171760D01*
D02*
G37*
G36*
X191358D02*
X190532D01*
X189770Y171444D01*
X189186Y170860D01*
X188870Y170098D01*
Y169272D01*
X189186Y168510D01*
X189770Y167926D01*
X190532Y167610D01*
X191358D01*
X192120Y167926D01*
X192704Y168510D01*
X193020Y169272D01*
Y170098D01*
X192704Y170860D01*
X192120Y171444D01*
X191358Y171760D01*
D02*
G37*
G36*
X220885Y167035D02*
X220060D01*
X219297Y166720D01*
X218713Y166136D01*
X218398Y165373D01*
Y164548D01*
X218713Y163785D01*
X219297Y163202D01*
X220060Y162886D01*
X220885D01*
X221648Y163202D01*
X222231Y163785D01*
X222547Y164548D01*
Y165373D01*
X222231Y166136D01*
X221648Y166720D01*
X220885Y167035D01*
D02*
G37*
G36*
X191358Y167035D02*
X190532D01*
X189770Y166720D01*
X189186Y166136D01*
X188870Y165373D01*
Y164548D01*
X189186Y163785D01*
X189770Y163202D01*
X190532Y162886D01*
X191358D01*
X192120Y163202D01*
X192704Y163785D01*
X193020Y164548D01*
Y165373D01*
X192704Y166136D01*
X192120Y166720D01*
X191358Y167035D01*
D02*
G37*
G36*
X236633D02*
X235808D01*
X235045Y166720D01*
X234461Y166136D01*
X234146Y165373D01*
Y164548D01*
X234461Y163785D01*
X235045Y163202D01*
X235808Y162886D01*
X236633D01*
X237396Y163202D01*
X237778Y163584D01*
X238357Y163491D01*
X238399Y163392D01*
X238982Y162808D01*
X239745Y162492D01*
X240570D01*
X241333Y162808D01*
X241916Y163392D01*
X242232Y164154D01*
Y164980D01*
X241916Y165742D01*
X241333Y166326D01*
X240570Y166642D01*
X239745D01*
X238982Y166326D01*
X238600Y165944D01*
X238020Y166037D01*
X237979Y166136D01*
X237396Y166720D01*
X236633Y167035D01*
D02*
G37*
G36*
X229008Y172350D02*
X227685D01*
X226406Y172008D01*
X225259Y171346D01*
X224323Y170410D01*
X223661Y169263D01*
X223319Y167985D01*
Y166661D01*
X223661Y165382D01*
X224323Y164236D01*
X225259Y163300D01*
X226406Y162638D01*
X227685Y162295D01*
X229008D01*
X230287Y162638D01*
X231433Y163300D01*
X232369Y164236D01*
X233031Y165382D01*
X233374Y166661D01*
Y167985D01*
X233031Y169263D01*
X232369Y170410D01*
X231433Y171346D01*
X230287Y172008D01*
X229008Y172350D01*
D02*
G37*
G36*
X183733D02*
X182409D01*
X181130Y172008D01*
X179984Y171346D01*
X179048Y170410D01*
X178386Y169263D01*
X178043Y167985D01*
Y166661D01*
X178386Y165382D01*
X179048Y164236D01*
X179984Y163300D01*
X181130Y162638D01*
X182409Y162295D01*
X183733D01*
X185011Y162638D01*
X186158Y163300D01*
X187094Y164236D01*
X187756Y165382D01*
X188098Y166661D01*
Y167985D01*
X187756Y169263D01*
X187094Y170410D01*
X186158Y171346D01*
X185011Y172008D01*
X183733Y172350D01*
D02*
G37*
G36*
X253322Y165710D02*
X249644D01*
Y162032D01*
X250165Y162172D01*
X251426Y162900D01*
X252455Y163929D01*
X253182Y165189D01*
X253322Y165710D01*
D02*
G37*
G36*
X208046D02*
X204368D01*
Y162032D01*
X204889Y162172D01*
X206150Y162900D01*
X207179Y163929D01*
X207907Y165189D01*
X208046Y165710D01*
D02*
G37*
G36*
X117495D02*
X113817D01*
Y162032D01*
X114338Y162172D01*
X115599Y162900D01*
X116628Y163929D01*
X117356Y165189D01*
X117495Y165710D01*
D02*
G37*
G36*
X72220D02*
X68542D01*
Y162032D01*
X69063Y162172D01*
X70323Y162900D01*
X71352Y163929D01*
X72080Y165189D01*
X72220Y165710D01*
D02*
G37*
G36*
X110592D02*
X106914D01*
X107054Y165189D01*
X107782Y163929D01*
X108811Y162900D01*
X110071Y162172D01*
X110592Y162032D01*
Y165710D01*
D02*
G37*
G36*
X65317D02*
X61639D01*
X61778Y165189D01*
X62506Y163929D01*
X63535Y162900D01*
X64796Y162172D01*
X65317Y162032D01*
Y165710D01*
D02*
G37*
G36*
X201143D02*
X197465D01*
X197605Y165189D01*
X198333Y163929D01*
X199362Y162900D01*
X200622Y162172D01*
X201143Y162032D01*
Y165710D01*
D02*
G37*
G36*
X246419D02*
X242741D01*
X242881Y165189D01*
X243608Y163929D01*
X244637Y162900D01*
X245898Y162172D01*
X246419Y162032D01*
Y165710D01*
D02*
G37*
G36*
X231121Y161524D02*
X230296D01*
X229533Y161208D01*
X228950Y160624D01*
X228634Y159862D01*
Y159036D01*
X228950Y158273D01*
X229533Y157690D01*
X230296Y157374D01*
X231121D01*
X231884Y157690D01*
X232468Y158273D01*
X232784Y159036D01*
Y159862D01*
X232468Y160624D01*
X231884Y161208D01*
X231121Y161524D01*
D02*
G37*
G36*
X226397D02*
X225571D01*
X224809Y161208D01*
X224225Y160624D01*
X223909Y159862D01*
Y159036D01*
X224225Y158273D01*
X224809Y157690D01*
X225571Y157374D01*
X226397D01*
X227160Y157690D01*
X227743Y158273D01*
X228059Y159036D01*
Y159862D01*
X227743Y160624D01*
X227160Y161208D01*
X226397Y161524D01*
D02*
G37*
G36*
X185846D02*
X185020D01*
X184258Y161208D01*
X183674Y160624D01*
X183358Y159862D01*
Y159036D01*
X183674Y158273D01*
X184258Y157690D01*
X185020Y157374D01*
X185846D01*
X186608Y157690D01*
X187192Y158273D01*
X187508Y159036D01*
Y159862D01*
X187192Y160624D01*
X186608Y161208D01*
X185846Y161524D01*
D02*
G37*
G36*
X181121D02*
X180296D01*
X179533Y161208D01*
X178950Y160624D01*
X178634Y159862D01*
Y159036D01*
X178950Y158273D01*
X179533Y157690D01*
X180296Y157374D01*
X181121D01*
X181884Y157690D01*
X182468Y158273D01*
X182783Y159036D01*
Y159862D01*
X182468Y160624D01*
X181884Y161208D01*
X181121Y161524D01*
D02*
G37*
G36*
X250019Y157193D02*
X249194D01*
X248431Y156877D01*
X247847Y156293D01*
X247532Y155531D01*
Y154705D01*
X247847Y153943D01*
X248431Y153359D01*
X249194Y153043D01*
X250019D01*
X250782Y153359D01*
X251365Y153943D01*
X251681Y154705D01*
Y155531D01*
X251365Y156293D01*
X250782Y156877D01*
X250019Y157193D01*
D02*
G37*
G36*
X127184D02*
X126359D01*
X125596Y156877D01*
X125013Y156293D01*
X124697Y155531D01*
Y154705D01*
X125013Y153943D01*
X125596Y153359D01*
X126359Y153043D01*
X127184D01*
X127947Y153359D01*
X128531Y153943D01*
X128847Y154705D01*
Y155531D01*
X128531Y156293D01*
X127947Y156877D01*
X127184Y157193D01*
D02*
G37*
G36*
X117736D02*
X116910D01*
X116148Y156877D01*
X115564Y156293D01*
X115248Y155531D01*
Y154705D01*
X115564Y153943D01*
X116148Y153359D01*
X116910Y153043D01*
X117736D01*
X118498Y153359D01*
X119082Y153943D01*
X119398Y154705D01*
Y155531D01*
X119082Y156293D01*
X118498Y156877D01*
X117736Y157193D01*
D02*
G37*
G36*
X108287D02*
X107461D01*
X106699Y156877D01*
X106115Y156293D01*
X105799Y155531D01*
Y154705D01*
X106115Y153943D01*
X106699Y153359D01*
X107461Y153043D01*
X108287D01*
X109049Y153359D01*
X109633Y153943D01*
X109949Y154705D01*
Y155531D01*
X109633Y156293D01*
X109049Y156877D01*
X108287Y157193D01*
D02*
G37*
G36*
X79940D02*
X79115D01*
X78352Y156877D01*
X77769Y156293D01*
X77453Y155531D01*
Y154705D01*
X77769Y153943D01*
X78352Y153359D01*
X79115Y153043D01*
X79940D01*
X80703Y153359D01*
X81287Y153943D01*
X81602Y154705D01*
Y155531D01*
X81287Y156293D01*
X80703Y156877D01*
X79940Y157193D01*
D02*
G37*
G36*
X70491D02*
X69666D01*
X68903Y156877D01*
X68320Y156293D01*
X68004Y155531D01*
Y154705D01*
X68320Y153943D01*
X68903Y153359D01*
X69666Y153043D01*
X70491D01*
X71254Y153359D01*
X71838Y153943D01*
X72154Y154705D01*
Y155531D01*
X71838Y156293D01*
X71254Y156877D01*
X70491Y157193D01*
D02*
G37*
G36*
X72775Y147350D02*
X72107D01*
X71489Y147095D01*
X71016Y146622D01*
X70760Y146004D01*
Y145335D01*
X71016Y144717D01*
X71489Y144244D01*
X72107Y143988D01*
X72775D01*
X73393Y144244D01*
X73866Y144717D01*
X74122Y145335D01*
Y146004D01*
X73866Y146622D01*
X73393Y147095D01*
X72775Y147350D01*
D02*
G37*
G36*
X250019Y147744D02*
X249194D01*
X248431Y147428D01*
X247847Y146845D01*
X247532Y146082D01*
Y145257D01*
X247847Y144494D01*
X248431Y143910D01*
X249194Y143595D01*
X250019D01*
X250782Y143910D01*
X251365Y144494D01*
X251681Y145257D01*
Y146082D01*
X251365Y146845D01*
X250782Y147428D01*
X250019Y147744D01*
D02*
G37*
G36*
Y138295D02*
X249194D01*
X248431Y137979D01*
X247847Y137396D01*
X247532Y136633D01*
Y135808D01*
X247847Y135045D01*
X248431Y134462D01*
X249194Y134146D01*
X250019D01*
X250782Y134462D01*
X251365Y135045D01*
X251681Y135808D01*
Y136633D01*
X251365Y137396D01*
X250782Y137979D01*
X250019Y138295D01*
D02*
G37*
G36*
Y128847D02*
X249194D01*
X248431Y128531D01*
X247847Y127947D01*
X247532Y127184D01*
Y126359D01*
X247847Y125596D01*
X248431Y125013D01*
X249194Y124697D01*
X250019D01*
X250782Y125013D01*
X251365Y125596D01*
X251681Y126359D01*
Y127184D01*
X251365Y127947D01*
X250782Y128531D01*
X250019Y128847D01*
D02*
G37*
G36*
X140098Y119791D02*
X139429D01*
X138812Y119535D01*
X138339Y119062D01*
X138275Y118910D01*
X137685Y118792D01*
X137396Y119082D01*
X136633Y119398D01*
X135808D01*
X135045Y119082D01*
X134462Y118498D01*
X134146Y117736D01*
Y116910D01*
X134462Y116148D01*
X135045Y115564D01*
X135808Y115248D01*
X136633D01*
X137396Y115564D01*
X137979Y116148D01*
X138173Y116616D01*
X138757Y116739D01*
X138812Y116685D01*
X139429Y116429D01*
X140098D01*
X140716Y116685D01*
X141189Y117158D01*
X141445Y117776D01*
Y118445D01*
X141189Y119062D01*
X140716Y119535D01*
X140098Y119791D01*
D02*
G37*
G36*
X196309Y119880D02*
X195640D01*
X195022Y119624D01*
X194549Y119151D01*
X194293Y118533D01*
Y117864D01*
X194549Y117247D01*
X195022Y116774D01*
X195640Y116518D01*
X196309D01*
X196927Y116774D01*
X197400Y117247D01*
X197655Y117864D01*
Y118533D01*
X197400Y119151D01*
X196927Y119624D01*
X196309Y119880D01*
D02*
G37*
G36*
X240570Y119398D02*
X239745D01*
X238982Y119082D01*
X238399Y118498D01*
X238083Y117736D01*
Y116910D01*
X238399Y116148D01*
X238982Y115564D01*
X239745Y115248D01*
X240570D01*
X241333Y115564D01*
X241916Y116148D01*
X242232Y116910D01*
Y117736D01*
X241916Y118498D01*
X241333Y119082D01*
X240570Y119398D01*
D02*
G37*
G36*
X231121D02*
X230296D01*
X229533Y119082D01*
X228950Y118498D01*
X228634Y117736D01*
Y116910D01*
X228950Y116148D01*
X229533Y115564D01*
X230296Y115248D01*
X231121D01*
X231884Y115564D01*
X232468Y116148D01*
X232784Y116910D01*
Y117736D01*
X232468Y118498D01*
X231884Y119082D01*
X231121Y119398D01*
D02*
G37*
G36*
X221673D02*
X220847D01*
X220085Y119082D01*
X219501Y118498D01*
X219185Y117736D01*
Y116910D01*
X219501Y116148D01*
X220085Y115564D01*
X220847Y115248D01*
X221673D01*
X222435Y115564D01*
X223019Y116148D01*
X223335Y116910D01*
Y117736D01*
X223019Y118498D01*
X222435Y119082D01*
X221673Y119398D01*
D02*
G37*
G36*
X212224D02*
X211398D01*
X210636Y119082D01*
X210052Y118498D01*
X209736Y117736D01*
Y116910D01*
X210052Y116148D01*
X210636Y115564D01*
X211398Y115248D01*
X212224D01*
X212986Y115564D01*
X213570Y116148D01*
X213886Y116910D01*
Y117736D01*
X213570Y118498D01*
X212986Y119082D01*
X212224Y119398D01*
D02*
G37*
G36*
X202775D02*
X201950D01*
X201187Y119082D01*
X200603Y118498D01*
X200287Y117736D01*
Y116910D01*
X200603Y116148D01*
X201187Y115564D01*
X201950Y115248D01*
X202775D01*
X203538Y115564D01*
X204121Y116148D01*
X204437Y116910D01*
Y117736D01*
X204121Y118498D01*
X203538Y119082D01*
X202775Y119398D01*
D02*
G37*
G36*
X126319Y117035D02*
X125650D01*
X125032Y116779D01*
X124559Y116307D01*
X124303Y115689D01*
Y115020D01*
X124559Y114402D01*
X125032Y113929D01*
X125650Y113673D01*
X126319D01*
X126936Y113929D01*
X127409Y114402D01*
X127665Y115020D01*
Y115689D01*
X127409Y116307D01*
X126936Y116779D01*
X126319Y117035D01*
D02*
G37*
G36*
X129075Y114279D02*
X128406D01*
X127788Y114024D01*
X127315Y113551D01*
X127059Y112933D01*
Y112264D01*
X127315Y111646D01*
X127788Y111173D01*
X128406Y110917D01*
X129075D01*
X129692Y111173D01*
X130165Y111646D01*
X130421Y112264D01*
Y112933D01*
X130165Y113551D01*
X129692Y114024D01*
X129075Y114279D01*
D02*
G37*
G36*
X179075Y109161D02*
X178406D01*
X177788Y108905D01*
X177315Y108433D01*
X177059Y107815D01*
Y107146D01*
X177315Y106528D01*
X177788Y106055D01*
X178406Y105799D01*
X179075D01*
X179692Y106055D01*
X180165Y106528D01*
X180421Y107146D01*
Y107815D01*
X180165Y108433D01*
X179692Y108905D01*
X179075Y109161D01*
D02*
G37*
G36*
Y104831D02*
X178406D01*
X177788Y104575D01*
X177315Y104102D01*
X177059Y103484D01*
Y102815D01*
X177315Y102197D01*
X177788Y101725D01*
X178406Y101469D01*
X179075D01*
X179692Y101725D01*
X180165Y102197D01*
X180421Y102815D01*
Y103484D01*
X180165Y104102D01*
X179692Y104575D01*
X179075Y104831D01*
D02*
G37*
G36*
X250019Y91051D02*
X249194D01*
X248431Y90735D01*
X247847Y90152D01*
X247532Y89389D01*
Y88564D01*
X247847Y87801D01*
X248431Y87217D01*
X249194Y86902D01*
X250019D01*
X250782Y87217D01*
X251365Y87801D01*
X251681Y88564D01*
Y89389D01*
X251365Y90152D01*
X250782Y90735D01*
X250019Y91051D01*
D02*
G37*
G36*
Y81602D02*
X249194D01*
X248431Y81287D01*
X247847Y80703D01*
X247532Y79940D01*
Y79115D01*
X247847Y78352D01*
X248431Y77769D01*
X249194Y77453D01*
X250019D01*
X250782Y77769D01*
X251365Y78352D01*
X251681Y79115D01*
Y79940D01*
X251365Y80703D01*
X250782Y81287D01*
X250019Y81602D01*
D02*
G37*
G36*
X270701Y74850D02*
X268345D01*
Y69526D01*
X270701D01*
Y74850D01*
D02*
G37*
G36*
X265120D02*
X262764D01*
Y69526D01*
X265120D01*
Y74850D01*
D02*
G37*
G36*
X270701Y66301D02*
X268345D01*
Y60976D01*
X270701D01*
Y66301D01*
D02*
G37*
G36*
X265120D02*
X262764D01*
Y60976D01*
X265120D01*
Y66301D01*
D02*
G37*
G36*
X270701Y59102D02*
X268345D01*
Y53778D01*
X270701D01*
Y59102D01*
D02*
G37*
G36*
X265120D02*
X262764D01*
Y53778D01*
X265120D01*
Y59102D01*
D02*
G37*
G36*
X193326Y53256D02*
X192501D01*
X191738Y52940D01*
X191155Y52356D01*
X190839Y51594D01*
Y50768D01*
X191155Y50006D01*
X191738Y49422D01*
X192501Y49106D01*
X193326D01*
X194089Y49422D01*
X194672Y50006D01*
X194988Y50768D01*
Y51594D01*
X194672Y52356D01*
X194089Y52940D01*
X193326Y53256D01*
D02*
G37*
G36*
X183877D02*
X183052D01*
X182289Y52940D01*
X181706Y52356D01*
X181390Y51594D01*
Y50768D01*
X181706Y50006D01*
X182289Y49422D01*
X183052Y49106D01*
X183877D01*
X184640Y49422D01*
X185223Y50006D01*
X185539Y50768D01*
Y51594D01*
X185223Y52356D01*
X184640Y52940D01*
X183877Y53256D01*
D02*
G37*
G36*
X205925Y52075D02*
X205099D01*
X204337Y51759D01*
X203753Y51175D01*
X203437Y50413D01*
Y49587D01*
X203753Y48825D01*
X204337Y48241D01*
X205099Y47925D01*
X205925D01*
X206687Y48241D01*
X207271Y48825D01*
X207587Y49587D01*
Y50413D01*
X207271Y51175D01*
X206687Y51759D01*
X205925Y52075D01*
D02*
G37*
G36*
X270701Y50553D02*
X268345D01*
Y45228D01*
X270701D01*
Y50553D01*
D02*
G37*
G36*
X265120D02*
X262764D01*
Y45228D01*
X265120D01*
Y50553D01*
D02*
G37*
G36*
X227578Y47744D02*
X226753D01*
X225990Y47428D01*
X225406Y46845D01*
X225091Y46082D01*
Y45257D01*
X225406Y44494D01*
X225990Y43910D01*
X226753Y43595D01*
X227578D01*
X228341Y43910D01*
X228924Y44494D01*
X229240Y45257D01*
Y46082D01*
X228924Y46845D01*
X228341Y47428D01*
X227578Y47744D01*
D02*
G37*
G36*
X219704D02*
X218879D01*
X218116Y47428D01*
X217532Y46845D01*
X217216Y46082D01*
Y45257D01*
X217532Y44494D01*
X218116Y43910D01*
X218879Y43595D01*
X219704D01*
X220467Y43910D01*
X221050Y44494D01*
X221366Y45257D01*
Y46082D01*
X221050Y46845D01*
X220467Y47428D01*
X219704Y47744D01*
D02*
G37*
G36*
X211830D02*
X211005D01*
X210242Y47428D01*
X209658Y46845D01*
X209343Y46082D01*
Y45257D01*
X209658Y44494D01*
X210242Y43910D01*
X211005Y43595D01*
X211830D01*
X212593Y43910D01*
X213176Y44494D01*
X213492Y45257D01*
Y46082D01*
X213176Y46845D01*
X212593Y47428D01*
X211830Y47744D01*
D02*
G37*
G36*
X270740Y43158D02*
X268384D01*
Y37833D01*
X270740D01*
Y43158D01*
D02*
G37*
G36*
X265159D02*
X262803D01*
Y37833D01*
X265159D01*
Y43158D01*
D02*
G37*
G36*
X229959Y34818D02*
Y31140D01*
X233637D01*
X233497Y31661D01*
X232770Y32922D01*
X231740Y33951D01*
X230480Y34678D01*
X229959Y34818D01*
D02*
G37*
G36*
X226734D02*
X226213Y34678D01*
X224953Y33951D01*
X223923Y32922D01*
X223196Y31661D01*
X223056Y31140D01*
X226734D01*
Y34818D01*
D02*
G37*
G36*
X184683D02*
Y31140D01*
X188361D01*
X188222Y31661D01*
X187494Y32922D01*
X186465Y33951D01*
X185204Y34678D01*
X184683Y34818D01*
D02*
G37*
G36*
X181458D02*
X180937Y34678D01*
X179677Y33951D01*
X178648Y32922D01*
X177920Y31661D01*
X177780Y31140D01*
X181458D01*
Y34818D01*
D02*
G37*
G36*
X270740Y34608D02*
X268384D01*
Y29283D01*
X270740D01*
Y34608D01*
D02*
G37*
G36*
X265159D02*
X262803D01*
Y29283D01*
X265159D01*
Y34608D01*
D02*
G37*
G36*
X248693Y34555D02*
X247370D01*
X246091Y34212D01*
X244945Y33551D01*
X244008Y32615D01*
X243347Y31468D01*
X243004Y30189D01*
Y28866D01*
X243347Y27587D01*
X244008Y26441D01*
X244945Y25504D01*
X246091Y24843D01*
X247370Y24500D01*
X248693D01*
X249972Y24843D01*
X251118Y25504D01*
X252055Y26441D01*
X252716Y27587D01*
X253059Y28866D01*
Y30189D01*
X252716Y31468D01*
X252055Y32615D01*
X251118Y33551D01*
X249972Y34212D01*
X248693Y34555D01*
D02*
G37*
G36*
X203418D02*
X202094D01*
X200815Y34212D01*
X199669Y33551D01*
X198733Y32615D01*
X198071Y31468D01*
X197728Y30189D01*
Y28866D01*
X198071Y27587D01*
X198733Y26441D01*
X199669Y25504D01*
X200815Y24843D01*
X202094Y24500D01*
X203418D01*
X204696Y24843D01*
X205843Y25504D01*
X206779Y26441D01*
X207441Y27587D01*
X207784Y28866D01*
Y30189D01*
X207441Y31468D01*
X206779Y32615D01*
X205843Y33551D01*
X204696Y34212D01*
X203418Y34555D01*
D02*
G37*
G36*
X233637Y27915D02*
X229959D01*
Y24237D01*
X230480Y24377D01*
X231740Y25104D01*
X232770Y26134D01*
X233497Y27394D01*
X233637Y27915D01*
D02*
G37*
G36*
X226734D02*
X223056D01*
X223196Y27394D01*
X223923Y26134D01*
X224953Y25104D01*
X226213Y24377D01*
X226734Y24237D01*
Y27915D01*
D02*
G37*
G36*
X188361D02*
X184683D01*
Y24237D01*
X185204Y24377D01*
X186465Y25104D01*
X187494Y26134D01*
X188222Y27394D01*
X188361Y27915D01*
D02*
G37*
G36*
X181458D02*
X177780D01*
X177920Y27394D01*
X178648Y26134D01*
X179677Y25104D01*
X180937Y24377D01*
X181458Y24237D01*
Y27915D01*
D02*
G37*
G36*
X267498Y113526D02*
Y110018D01*
X271006D01*
X270576Y111055D01*
X269690Y112210D01*
X268536Y113096D01*
X267498Y113526D01*
D02*
G37*
G36*
X263998Y113526D02*
X262960Y113096D01*
X261806Y112210D01*
X260920Y111055D01*
X260490Y110018D01*
X263998D01*
Y113526D01*
D02*
G37*
G36*
X271006Y106518D02*
X267498D01*
Y103010D01*
X268536Y103439D01*
X269690Y104325D01*
X270576Y105480D01*
X271006Y106518D01*
D02*
G37*
G36*
X263998D02*
X260490D01*
X260920Y105480D01*
X261806Y104325D01*
X262960Y103439D01*
X263998Y103010D01*
Y106518D01*
D02*
G37*
G36*
X48994Y172581D02*
Y169073D01*
X52502D01*
X52072Y170110D01*
X51186Y171265D01*
X50032Y172151D01*
X48994Y172581D01*
D02*
G37*
G36*
X45494D02*
X44456Y172151D01*
X43302Y171265D01*
X42416Y170110D01*
X41986Y169073D01*
X45494D01*
Y172581D01*
D02*
G37*
G36*
X52502Y165573D02*
X48994D01*
Y162065D01*
X50032Y162495D01*
X51186Y163381D01*
X52072Y164535D01*
X52502Y165573D01*
D02*
G37*
G36*
X45494D02*
X41986D01*
X42416Y164535D01*
X43302Y163381D01*
X44456Y162495D01*
X45494Y162065D01*
Y165573D01*
D02*
G37*
G36*
X81102Y130848D02*
X80446Y130717D01*
X79890Y130346D01*
X79519Y129790D01*
X79388Y129134D01*
X79519Y128478D01*
X79890Y127922D01*
X80446Y127550D01*
X81102Y127420D01*
X81758Y127550D01*
X82314Y127922D01*
X82686Y128478D01*
X82816Y129134D01*
X82686Y129790D01*
X82314Y130346D01*
X81758Y130717D01*
X81102Y130848D01*
D02*
G37*
G36*
X31278Y93841D02*
Y90333D01*
X34786D01*
X34356Y91370D01*
X33470Y92525D01*
X32315Y93411D01*
X31278Y93841D01*
D02*
G37*
G36*
X27778D02*
X26740Y93411D01*
X25585Y92525D01*
X24699Y91370D01*
X24269Y90333D01*
X27778D01*
Y93841D01*
D02*
G37*
G36*
X34786Y86833D02*
X31278D01*
Y83325D01*
X32315Y83754D01*
X33470Y84640D01*
X34356Y85795D01*
X34786Y86833D01*
D02*
G37*
G36*
X27778D02*
X24269D01*
X24699Y85795D01*
X25585Y84640D01*
X26740Y83754D01*
X27778Y83325D01*
Y86833D01*
D02*
G37*
G36*
X143307Y74549D02*
X142651Y74418D01*
X142095Y74047D01*
X141724Y73491D01*
X141593Y72835D01*
X141724Y72179D01*
X142095Y71623D01*
X142651Y71251D01*
X143307Y71121D01*
X143963Y71251D01*
X144519Y71623D01*
X144891Y72179D01*
X145021Y72835D01*
X144891Y73491D01*
X144519Y74047D01*
X143963Y74418D01*
X143307Y74549D01*
D02*
G37*
G36*
X159230Y34786D02*
Y31278D01*
X162738D01*
X162309Y32315D01*
X161423Y33470D01*
X160268Y34356D01*
X159230Y34786D01*
D02*
G37*
G36*
X155730D02*
X154693Y34356D01*
X153538Y33470D01*
X152652Y32315D01*
X152222Y31278D01*
X155730D01*
Y34786D01*
D02*
G37*
G36*
X113955D02*
Y31278D01*
X117463D01*
X117033Y32315D01*
X116147Y33470D01*
X114992Y34356D01*
X113955Y34786D01*
D02*
G37*
G36*
X110455D02*
X109417Y34356D01*
X108262Y33470D01*
X107376Y32315D01*
X106947Y31278D01*
X110455D01*
Y34786D01*
D02*
G37*
G36*
X68679D02*
Y31278D01*
X72187D01*
X71757Y32315D01*
X70871Y33470D01*
X69717Y34356D01*
X68679Y34786D01*
D02*
G37*
G36*
X65179D02*
X64141Y34356D01*
X62987Y33470D01*
X62101Y32315D01*
X61671Y31278D01*
X65179D01*
Y34786D01*
D02*
G37*
G36*
X162738Y27778D02*
X159230D01*
Y24269D01*
X160268Y24699D01*
X161423Y25585D01*
X162309Y26740D01*
X162738Y27778D01*
D02*
G37*
G36*
X155730D02*
X152222D01*
X152652Y26740D01*
X153538Y25585D01*
X154693Y24699D01*
X155730Y24269D01*
Y27778D01*
D02*
G37*
G36*
X117463D02*
X113955D01*
Y24269D01*
X114992Y24699D01*
X116147Y25585D01*
X117033Y26740D01*
X117463Y27778D01*
D02*
G37*
G36*
X110455D02*
X106947D01*
X107376Y26740D01*
X108262Y25585D01*
X109417Y24699D01*
X110455Y24269D01*
Y27778D01*
D02*
G37*
G36*
X72187D02*
X68679D01*
Y24269D01*
X69717Y24699D01*
X70871Y25585D01*
X71757Y26740D01*
X72187Y27778D01*
D02*
G37*
G36*
X65179D02*
X61671D01*
X62101Y26740D01*
X62987Y25585D01*
X64141Y24699D01*
X65179Y24269D01*
Y27778D01*
D02*
G37*
%LPD*%
D57*
X266732Y67913D02*
D03*
Y52165D02*
D03*
X266772Y36220D02*
D03*
D59*
X66929Y29528D02*
D03*
X47244D02*
D03*
X29528Y88583D02*
D03*
Y108268D02*
D03*
X137795Y167323D02*
D03*
X157480D02*
D03*
Y29528D02*
D03*
X137795D02*
D03*
X265748Y108268D02*
D03*
Y88583D02*
D03*
X112205Y29528D02*
D03*
X92520D02*
D03*
X183071D02*
D03*
X228346D02*
D03*
X47244Y167323D02*
D03*
X66929D02*
D03*
X92520D02*
D03*
X112205D02*
D03*
X202756D02*
D03*
X248031D02*
D03*
D60*
X54331Y47244D02*
D03*
X43307D02*
D03*
X126772Y41732D02*
D03*
X79528D02*
D03*
X109843Y129921D02*
D03*
X105905D02*
D03*
X101969D02*
D03*
X105905Y125984D02*
D03*
X285827Y190551D02*
D03*
Y168504D02*
D03*
Y157480D02*
D03*
Y146457D02*
D03*
Y135433D02*
D03*
Y124409D02*
D03*
Y69291D02*
D03*
Y47244D02*
D03*
Y36220D02*
D03*
Y25197D02*
D03*
X274803Y190551D02*
D03*
Y168504D02*
D03*
Y157480D02*
D03*
Y146457D02*
D03*
Y135433D02*
D03*
Y124409D02*
D03*
Y113386D02*
D03*
Y102362D02*
D03*
Y91338D02*
D03*
Y80315D02*
D03*
X263779Y190551D02*
D03*
Y179527D02*
D03*
Y168504D02*
D03*
Y157480D02*
D03*
Y146457D02*
D03*
Y135433D02*
D03*
Y124409D02*
D03*
Y80315D02*
D03*
Y14173D02*
D03*
X252756Y190551D02*
D03*
Y179527D02*
D03*
Y14173D02*
D03*
X241732Y190551D02*
D03*
Y179527D02*
D03*
Y14173D02*
D03*
X230709Y179527D02*
D03*
Y14173D02*
D03*
X219685Y179527D02*
D03*
Y14173D02*
D03*
X208661Y190551D02*
D03*
Y179527D02*
D03*
Y14173D02*
D03*
X197638Y190551D02*
D03*
Y179527D02*
D03*
Y14173D02*
D03*
X186614Y179527D02*
D03*
Y14173D02*
D03*
X175591Y179527D02*
D03*
Y14173D02*
D03*
X164567Y179527D02*
D03*
Y168504D02*
D03*
Y14173D02*
D03*
X153543Y179527D02*
D03*
Y157480D02*
D03*
Y14173D02*
D03*
X142520Y179527D02*
D03*
Y36220D02*
D03*
Y14173D02*
D03*
X131496Y190551D02*
D03*
Y179527D02*
D03*
Y36220D02*
D03*
Y25197D02*
D03*
Y14173D02*
D03*
X120472Y190551D02*
D03*
Y179527D02*
D03*
Y14173D02*
D03*
X109449Y179527D02*
D03*
Y14173D02*
D03*
X98425Y190551D02*
D03*
Y179527D02*
D03*
Y36220D02*
D03*
Y25197D02*
D03*
Y14173D02*
D03*
X87401Y179527D02*
D03*
Y36220D02*
D03*
Y14173D02*
D03*
X76378Y190551D02*
D03*
Y14173D02*
D03*
X65354Y179527D02*
D03*
Y14173D02*
D03*
X54331Y190551D02*
D03*
Y179527D02*
D03*
Y69291D02*
D03*
Y58268D02*
D03*
Y36220D02*
D03*
Y25197D02*
D03*
Y14173D02*
D03*
X43307Y179527D02*
D03*
Y36220D02*
D03*
Y14173D02*
D03*
X32283Y190551D02*
D03*
Y179527D02*
D03*
Y168504D02*
D03*
Y157480D02*
D03*
Y146457D02*
D03*
Y135433D02*
D03*
Y124409D02*
D03*
Y69291D02*
D03*
Y58268D02*
D03*
Y47244D02*
D03*
Y36220D02*
D03*
Y25197D02*
D03*
Y14173D02*
D03*
X21260Y190551D02*
D03*
Y168504D02*
D03*
Y157480D02*
D03*
Y146457D02*
D03*
Y135433D02*
D03*
Y124409D02*
D03*
Y113386D02*
D03*
Y102362D02*
D03*
Y80315D02*
D03*
Y69291D02*
D03*
Y36220D02*
D03*
Y25197D02*
D03*
X10236Y190551D02*
D03*
Y168504D02*
D03*
Y157480D02*
D03*
Y146457D02*
D03*
Y135433D02*
D03*
Y124409D02*
D03*
Y69291D02*
D03*
Y36220D02*
D03*
Y25197D02*
D03*
X164567Y41732D02*
D03*
X155118D02*
D03*
X145669D02*
D03*
X136221D02*
D03*
X117323D02*
D03*
X107874D02*
D03*
X98425D02*
D03*
X88976D02*
D03*
X79528Y79528D02*
D03*
X70079Y41732D02*
D03*
X60630D02*
D03*
X51181Y155118D02*
D03*
Y145669D02*
D03*
Y136221D02*
D03*
Y126772D02*
D03*
Y117323D02*
D03*
Y107874D02*
D03*
Y98425D02*
D03*
Y88976D02*
D03*
X41732Y155118D02*
D03*
Y145669D02*
D03*
Y136221D02*
D03*
Y126772D02*
D03*
Y117323D02*
D03*
Y107874D02*
D03*
Y98425D02*
D03*
X236221Y27165D02*
D03*
Y31890D02*
D03*
X238189Y72441D02*
D03*
X238189Y67323D02*
D03*
X243307Y72441D02*
D03*
X243307Y67323D02*
D03*
X248425Y72441D02*
D03*
X248425Y67323D02*
D03*
X253543Y72441D02*
D03*
X253543Y67323D02*
D03*
X258661Y72441D02*
D03*
X258661Y67323D02*
D03*
X258661Y62205D02*
D03*
X253543Y62205D02*
D03*
X248425Y62205D02*
D03*
X243307D02*
D03*
X238189D02*
D03*
X238189Y57087D02*
D03*
X243307D02*
D03*
X248425D02*
D03*
X253543Y57087D02*
D03*
X258661Y57087D02*
D03*
X258661Y51968D02*
D03*
X253543Y51968D02*
D03*
X248425Y51968D02*
D03*
X243307D02*
D03*
X238189D02*
D03*
Y41732D02*
D03*
X238189Y46850D02*
D03*
X243307D02*
D03*
X243307Y41732D02*
D03*
X248425Y46850D02*
D03*
X248425Y41732D02*
D03*
X253543Y46850D02*
D03*
X253543Y41732D02*
D03*
X258661Y46850D02*
D03*
X258661Y41732D02*
D03*
X194488Y95669D02*
D03*
X177953D02*
D03*
X62205Y37795D02*
D03*
X71653D02*
D03*
X66929D02*
D03*
X75197Y24803D02*
D03*
Y34252D02*
D03*
Y29528D02*
D03*
X165748D02*
D03*
Y34252D02*
D03*
Y24803D02*
D03*
X157480Y37795D02*
D03*
X162205D02*
D03*
X152756D02*
D03*
X220472Y31890D02*
D03*
Y27165D02*
D03*
X163386Y151969D02*
D03*
X168504D02*
D03*
X173622D02*
D03*
X217717Y153150D02*
D03*
X212598D02*
D03*
X100394Y164961D02*
D03*
Y169685D02*
D03*
X94882Y159449D02*
D03*
X90158D02*
D03*
X84646Y164961D02*
D03*
Y169685D02*
D03*
X55118Y169685D02*
D03*
Y164961D02*
D03*
X49606Y159449D02*
D03*
X44882D02*
D03*
X200000Y37402D02*
D03*
X205118D02*
D03*
X210236Y37402D02*
D03*
X194882Y37402D02*
D03*
X114567D02*
D03*
X109843D02*
D03*
X185433D02*
D03*
X180709D02*
D03*
X225984D02*
D03*
X230709D02*
D03*
X181890Y153150D02*
D03*
X187008D02*
D03*
X192126D02*
D03*
X197244D02*
D03*
X202362D02*
D03*
X207480D02*
D03*
X222835D02*
D03*
X227953D02*
D03*
X192126Y58661D02*
D03*
X188189Y57087D02*
D03*
X181890Y148425D02*
D03*
X233071D02*
D03*
Y153150D02*
D03*
X227953Y148425D02*
D03*
X222835D02*
D03*
X217717D02*
D03*
X202362D02*
D03*
X207480D02*
D03*
X212598D02*
D03*
X197244D02*
D03*
X192126D02*
D03*
X187008D02*
D03*
X173622Y142520D02*
D03*
Y137795D02*
D03*
Y133071D02*
D03*
X173622Y147244D02*
D03*
X168504D02*
D03*
X168504Y133071D02*
D03*
Y137795D02*
D03*
Y142520D02*
D03*
X163386Y147244D02*
D03*
X163386Y133071D02*
D03*
Y137795D02*
D03*
Y142520D02*
D03*
X101969Y122047D02*
D03*
X105905D02*
D03*
X109843D02*
D03*
Y125984D02*
D03*
Y118110D02*
D03*
X101969Y125984D02*
D03*
Y118110D02*
D03*
X105905D02*
D03*
X142520Y159055D02*
D03*
X129528Y172047D02*
D03*
X133071Y159055D02*
D03*
X129528Y162598D02*
D03*
Y167323D02*
D03*
X137795Y159055D02*
D03*
X257087Y108268D02*
D03*
Y103543D02*
D03*
X252362Y108268D02*
D03*
Y103543D02*
D03*
X257087Y112992D02*
D03*
X252362D02*
D03*
X192126Y90158D02*
D03*
Y82284D02*
D03*
Y74410D02*
D03*
Y66535D02*
D03*
X188189Y86614D02*
D03*
Y76772D02*
D03*
Y66929D02*
D03*
X72441Y79921D02*
D03*
X42913Y83858D02*
D03*
X61417Y79921D02*
D03*
X38189Y83858D02*
D03*
X42913Y93307D02*
D03*
Y88583D02*
D03*
X38189Y93307D02*
D03*
Y88583D02*
D03*
D61*
X233071Y62598D02*
D03*
X129921Y71260D02*
D03*
Y78740D02*
D03*
M02*
