G04*
G04 #@! TF.GenerationSoftware,Altium Limited,Altium Designer,21.9.2 (33)*
G04*
G04 Layer_Physical_Order=4*
G04 Layer_Color=16711680*
%FSLAX25Y25*%
%MOIN*%
G70*
G04*
G04 #@! TF.SameCoordinates,4B28BFC6-66F2-4CE6-BA62-AB5105B5E065*
G04*
G04*
G04 #@! TF.FilePolarity,Positive*
G04*
G01*
G75*
%ADD54C,0.02000*%
%ADD55C,0.01500*%
%ADD57R,0.05937X0.11874*%
%ADD58O,0.05937X0.11874*%
%ADD59C,0.09055*%
%ADD60C,0.03150*%
%ADD61C,0.02362*%
G36*
X288739Y195702D02*
X290026Y195311D01*
X291211Y194678D01*
X292250Y193825D01*
X293103Y192786D01*
X293737Y191601D01*
X294127Y190314D01*
X294258Y188985D01*
X294256Y188976D01*
Y7874D01*
X294258Y7865D01*
X294127Y6536D01*
X293737Y5250D01*
X293103Y4064D01*
X292250Y3025D01*
X291211Y2173D01*
X290026Y1539D01*
X288739Y1149D01*
X287410Y1018D01*
X287402Y1020D01*
X7874D01*
X7865Y1018D01*
X6536Y1149D01*
X5250Y1539D01*
X4064Y2173D01*
X3025Y3025D01*
X2173Y4064D01*
X1539Y5250D01*
X1149Y6536D01*
X1018Y7865D01*
X1020Y7874D01*
Y188976D01*
X1018Y188985D01*
X1149Y190314D01*
X1539Y191601D01*
X2173Y192786D01*
X3025Y193825D01*
X4064Y194678D01*
X5250Y195311D01*
X6536Y195702D01*
X7865Y195833D01*
X7874Y195831D01*
X287402D01*
X287410Y195833D01*
X288739Y195702D01*
D02*
G37*
%LPC*%
G36*
X280279Y186811D02*
X278776D01*
X277324Y186422D01*
X276022Y185670D01*
X274959Y184608D01*
X274208Y183306D01*
X273819Y181854D01*
Y180351D01*
X274208Y178899D01*
X274959Y177597D01*
X276022Y176534D01*
X277324Y175783D01*
X278776Y175394D01*
X280279D01*
X281731Y175783D01*
X283033Y176534D01*
X284096Y177597D01*
X284847Y178899D01*
X285236Y180351D01*
Y181854D01*
X284847Y183306D01*
X284096Y184608D01*
X283033Y185670D01*
X281731Y186422D01*
X280279Y186811D01*
D02*
G37*
G36*
X16500D02*
X14997D01*
X13545Y186422D01*
X12243Y185670D01*
X11180Y184608D01*
X10428Y183306D01*
X10039Y181854D01*
Y180351D01*
X10428Y178899D01*
X11180Y177597D01*
X12243Y176534D01*
X13545Y175783D01*
X14997Y175394D01*
X16500D01*
X17952Y175783D01*
X19253Y176534D01*
X20316Y177597D01*
X21068Y178899D01*
X21457Y180351D01*
Y181854D01*
X21068Y183306D01*
X20316Y184608D01*
X19253Y185670D01*
X17952Y186422D01*
X16500Y186811D01*
D02*
G37*
G36*
X159230Y172576D02*
Y169073D01*
X162734D01*
X162631Y169456D01*
X161904Y170717D01*
X160874Y171746D01*
X159614Y172474D01*
X159230Y172576D01*
D02*
G37*
G36*
X155730D02*
X155347Y172474D01*
X154086Y171746D01*
X153057Y170717D01*
X152329Y169456D01*
X152227Y169073D01*
X155730D01*
Y172576D01*
D02*
G37*
G36*
X162734Y165573D02*
X159230D01*
Y162069D01*
X159614Y162172D01*
X160874Y162900D01*
X161904Y163929D01*
X162631Y165189D01*
X162734Y165573D01*
D02*
G37*
G36*
X155730D02*
X152227D01*
X152329Y165189D01*
X153057Y163929D01*
X154086Y162900D01*
X155347Y162172D01*
X155730Y162069D01*
Y165573D01*
D02*
G37*
G36*
X251969Y175197D02*
X179134D01*
X175197Y171260D01*
Y159449D01*
X171260Y155512D01*
X149606D01*
X145669Y159449D01*
Y171260D01*
X141732Y175197D01*
X43307D01*
X39370Y171260D01*
Y100394D01*
X35433Y96457D01*
X25591D01*
X21654Y92520D01*
Y84646D01*
X25591Y80709D01*
X53150D01*
X57087Y76772D01*
Y44094D01*
Y25591D01*
X61024Y21654D01*
X78740D01*
X82677Y25591D01*
Y35433D01*
X86614Y39370D01*
X98425D01*
X102362Y35433D01*
Y25591D01*
X106299Y21654D01*
X118110D01*
X122047Y25591D01*
Y35433D01*
X125984Y39370D01*
X145669D01*
X149606Y35433D01*
Y25591D01*
X153543Y21654D01*
X251969D01*
X255906Y25591D01*
Y96457D01*
X259842Y100394D01*
X269685D01*
X273622Y104331D01*
Y112205D01*
X269685Y116142D01*
X259842D01*
X255906Y120079D01*
Y171260D01*
X251969Y175197D01*
D02*
G37*
G36*
X31278Y113521D02*
Y110018D01*
X34781D01*
X34678Y110401D01*
X33951Y111662D01*
X32922Y112691D01*
X31661Y113419D01*
X31278Y113521D01*
D02*
G37*
G36*
X27778D02*
X27394Y113419D01*
X26134Y112691D01*
X25104Y111662D01*
X24377Y110401D01*
X24274Y110018D01*
X27778D01*
Y113521D01*
D02*
G37*
G36*
X34781Y106518D02*
X31278D01*
Y103014D01*
X31661Y103117D01*
X32922Y103845D01*
X33951Y104874D01*
X34678Y106134D01*
X34781Y106518D01*
D02*
G37*
G36*
X27778D02*
X24274D01*
X24377Y106134D01*
X25104Y104874D01*
X26134Y103845D01*
X27394Y103117D01*
X27778Y103014D01*
Y106518D01*
D02*
G37*
G36*
X267498Y93836D02*
Y90333D01*
X271002D01*
X270899Y90716D01*
X270171Y91977D01*
X269142Y93006D01*
X267882Y93734D01*
X267498Y93836D01*
D02*
G37*
G36*
X263998Y93836D02*
X263615Y93734D01*
X262354Y93006D01*
X261325Y91977D01*
X260597Y90716D01*
X260494Y90333D01*
X263998D01*
Y93836D01*
D02*
G37*
G36*
X271002Y86833D02*
X267498D01*
Y83329D01*
X267882Y83432D01*
X269142Y84159D01*
X270171Y85189D01*
X270899Y86449D01*
X271002Y86833D01*
D02*
G37*
G36*
X263998D02*
X260494D01*
X260597Y86449D01*
X261325Y85189D01*
X262354Y84159D01*
X263615Y83432D01*
X263998Y83329D01*
Y86833D01*
D02*
G37*
G36*
X259074Y74516D02*
X258249D01*
X257486Y74200D01*
X256903Y73616D01*
X256587Y72854D01*
Y72028D01*
X256903Y71266D01*
X257486Y70682D01*
X258249Y70366D01*
X259074D01*
X259837Y70682D01*
X260420Y71266D01*
X260736Y72028D01*
Y72854D01*
X260420Y73616D01*
X259837Y74200D01*
X259074Y74516D01*
D02*
G37*
G36*
X259074Y69398D02*
X258249D01*
X257486Y69082D01*
X256903Y68498D01*
X256587Y67736D01*
Y66910D01*
X256903Y66148D01*
X257486Y65564D01*
X258249Y65248D01*
X259074D01*
X259837Y65564D01*
X260420Y66148D01*
X260736Y66910D01*
Y67736D01*
X260420Y68498D01*
X259837Y69082D01*
X259074Y69398D01*
D02*
G37*
G36*
X270201Y74350D02*
X263264D01*
Y61476D01*
X270201D01*
Y74350D01*
D02*
G37*
G36*
X276732Y74380D02*
X275827Y74261D01*
X274983Y73912D01*
X274258Y73356D01*
X273703Y72631D01*
X273353Y71787D01*
X273234Y70882D01*
Y64945D01*
X273353Y64039D01*
X273703Y63196D01*
X274258Y62471D01*
X274983Y61915D01*
X275827Y61566D01*
X276732Y61446D01*
X277638Y61566D01*
X278482Y61915D01*
X279206Y62471D01*
X279762Y63196D01*
X280112Y64039D01*
X280231Y64945D01*
Y70882D01*
X280112Y71787D01*
X279762Y72631D01*
X279206Y73356D01*
X278482Y73912D01*
X277638Y74261D01*
X276732Y74380D01*
D02*
G37*
G36*
X259074Y64280D02*
X258249D01*
X257486Y63964D01*
X256903Y63380D01*
X256587Y62617D01*
Y61792D01*
X256903Y61029D01*
X257486Y60446D01*
X258249Y60130D01*
X259074D01*
X259837Y60446D01*
X260420Y61029D01*
X260736Y61792D01*
Y62617D01*
X260420Y63380D01*
X259837Y63964D01*
X259074Y64280D01*
D02*
G37*
G36*
X259074Y59161D02*
X258249D01*
X257486Y58846D01*
X256903Y58262D01*
X256587Y57499D01*
Y56674D01*
X256903Y55911D01*
X257486Y55328D01*
X258249Y55012D01*
X259074D01*
X259837Y55328D01*
X260420Y55911D01*
X260736Y56674D01*
Y57499D01*
X260420Y58262D01*
X259837Y58846D01*
X259074Y59161D01*
D02*
G37*
G36*
X259074Y54043D02*
X258249D01*
X257486Y53727D01*
X256903Y53144D01*
X256587Y52381D01*
Y51556D01*
X256903Y50793D01*
X257486Y50210D01*
X258249Y49894D01*
X259074D01*
X259837Y50210D01*
X260420Y50793D01*
X260736Y51556D01*
Y52381D01*
X260420Y53144D01*
X259837Y53727D01*
X259074Y54043D01*
D02*
G37*
G36*
X270201Y58602D02*
X263264D01*
Y45728D01*
X270201D01*
Y58602D01*
D02*
G37*
G36*
X276732Y58632D02*
X275827Y58513D01*
X274983Y58164D01*
X274258Y57608D01*
X273703Y56883D01*
X273353Y56039D01*
X273234Y55134D01*
Y49197D01*
X273353Y48291D01*
X273703Y47448D01*
X274258Y46723D01*
X274983Y46167D01*
X275827Y45818D01*
X276732Y45698D01*
X277638Y45818D01*
X278482Y46167D01*
X279206Y46723D01*
X279762Y47448D01*
X280112Y48291D01*
X280231Y49197D01*
Y55134D01*
X280112Y56039D01*
X279762Y56883D01*
X279206Y57608D01*
X278482Y58164D01*
X277638Y58513D01*
X276732Y58632D01*
D02*
G37*
G36*
X259074Y48925D02*
X258249D01*
X257486Y48609D01*
X256903Y48026D01*
X256587Y47263D01*
Y46438D01*
X256903Y45675D01*
X257486Y45092D01*
X258249Y44776D01*
X259074D01*
X259837Y45092D01*
X260420Y45675D01*
X260736Y46438D01*
Y47263D01*
X260420Y48026D01*
X259837Y48609D01*
X259074Y48925D01*
D02*
G37*
G36*
X259074Y43807D02*
X258249D01*
X257486Y43491D01*
X256903Y42908D01*
X256587Y42145D01*
Y41320D01*
X256903Y40557D01*
X257486Y39973D01*
X258249Y39658D01*
X259074D01*
X259837Y39973D01*
X260420Y40557D01*
X260736Y41320D01*
Y42145D01*
X260420Y42908D01*
X259837Y43491D01*
X259074Y43807D01*
D02*
G37*
G36*
X139545Y34781D02*
Y31278D01*
X143049D01*
X142946Y31661D01*
X142218Y32922D01*
X141189Y33951D01*
X139929Y34678D01*
X139545Y34781D01*
D02*
G37*
G36*
X136045D02*
X135662Y34678D01*
X134401Y33951D01*
X133372Y32922D01*
X132644Y31661D01*
X132542Y31278D01*
X136045D01*
Y34781D01*
D02*
G37*
G36*
X94270D02*
Y31278D01*
X97773D01*
X97671Y31661D01*
X96943Y32922D01*
X95914Y33951D01*
X94653Y34678D01*
X94270Y34781D01*
D02*
G37*
G36*
X90770D02*
X90386Y34678D01*
X89126Y33951D01*
X88096Y32922D01*
X87369Y31661D01*
X87266Y31278D01*
X90770D01*
Y34781D01*
D02*
G37*
G36*
X48994D02*
Y31278D01*
X52498D01*
X52395Y31661D01*
X51667Y32922D01*
X50638Y33951D01*
X49378Y34678D01*
X48994Y34781D01*
D02*
G37*
G36*
X45494D02*
X45110Y34678D01*
X43850Y33951D01*
X42821Y32922D01*
X42093Y31661D01*
X41990Y31278D01*
X45494D01*
Y34781D01*
D02*
G37*
G36*
X270240Y42658D02*
X263303D01*
Y29783D01*
X270240D01*
Y42658D01*
D02*
G37*
G36*
X276772Y42687D02*
X275866Y42568D01*
X275022Y42219D01*
X274298Y41663D01*
X273742Y40938D01*
X273392Y40094D01*
X273273Y39189D01*
Y33252D01*
X273392Y32346D01*
X273742Y31503D01*
X274298Y30778D01*
X275022Y30222D01*
X275866Y29873D01*
X276772Y29754D01*
X277677Y29873D01*
X278521Y30222D01*
X279245Y30778D01*
X279801Y31503D01*
X280151Y32346D01*
X280270Y33252D01*
Y39189D01*
X280151Y40094D01*
X279801Y40938D01*
X279245Y41663D01*
X278521Y42219D01*
X277677Y42568D01*
X276772Y42687D01*
D02*
G37*
G36*
X143049Y27778D02*
X139545D01*
Y24274D01*
X139929Y24377D01*
X141189Y25104D01*
X142218Y26134D01*
X142946Y27394D01*
X143049Y27778D01*
D02*
G37*
G36*
X136045D02*
X132542D01*
X132644Y27394D01*
X133372Y26134D01*
X134401Y25104D01*
X135662Y24377D01*
X136045Y24274D01*
Y27778D01*
D02*
G37*
G36*
X97773D02*
X94270D01*
Y24274D01*
X94653Y24377D01*
X95914Y25104D01*
X96943Y26134D01*
X97671Y27394D01*
X97773Y27778D01*
D02*
G37*
G36*
X90770D02*
X87266D01*
X87369Y27394D01*
X88096Y26134D01*
X89126Y25104D01*
X90386Y24377D01*
X90770Y24274D01*
Y27778D01*
D02*
G37*
G36*
X52498D02*
X48994D01*
Y24274D01*
X49378Y24377D01*
X50638Y25104D01*
X51667Y26134D01*
X52395Y27394D01*
X52498Y27778D01*
D02*
G37*
G36*
X45494D02*
X41990D01*
X42093Y27394D01*
X42821Y26134D01*
X43850Y25104D01*
X45110Y24377D01*
X45494Y24274D01*
Y27778D01*
D02*
G37*
G36*
X280279Y21457D02*
X278776D01*
X277324Y21068D01*
X276022Y20316D01*
X274959Y19253D01*
X274208Y17952D01*
X273819Y16500D01*
Y14997D01*
X274208Y13545D01*
X274959Y12243D01*
X276022Y11180D01*
X277324Y10428D01*
X278776Y10039D01*
X280279D01*
X281731Y10428D01*
X283033Y11180D01*
X284096Y12243D01*
X284847Y13545D01*
X285236Y14997D01*
Y16500D01*
X284847Y17952D01*
X284096Y19253D01*
X283033Y20316D01*
X281731Y21068D01*
X280279Y21457D01*
D02*
G37*
G36*
X16500D02*
X14997D01*
X13545Y21068D01*
X12243Y20316D01*
X11180Y19253D01*
X10428Y17952D01*
X10039Y16500D01*
Y14997D01*
X10428Y13545D01*
X11180Y12243D01*
X12243Y11180D01*
X13545Y10428D01*
X14997Y10039D01*
X16500D01*
X17952Y10428D01*
X19253Y11180D01*
X20316Y12243D01*
X21068Y13545D01*
X21457Y14997D01*
Y16500D01*
X21068Y17952D01*
X20316Y19253D01*
X19253Y20316D01*
X17952Y21068D01*
X16500Y21457D01*
D02*
G37*
%LPD*%
G36*
X255364Y171036D02*
Y120079D01*
X255523Y119696D01*
X255523Y119696D01*
X259460Y115759D01*
X259842Y115601D01*
X259842Y115601D01*
X269461D01*
X273081Y111980D01*
Y104555D01*
X269461Y100935D01*
X259842D01*
X259460Y100776D01*
X259460Y100776D01*
X255523Y96839D01*
X255364Y96457D01*
X255364Y96457D01*
Y74282D01*
X254864Y74054D01*
X254353Y74395D01*
X253543Y74556D01*
X252734Y74395D01*
X252047Y73937D01*
X251589Y73251D01*
X251428Y72441D01*
X251589Y71631D01*
X252047Y70945D01*
X252734Y70486D01*
X253543Y70325D01*
X254353Y70486D01*
X254864Y70828D01*
X255364Y70600D01*
Y69164D01*
X254864Y68936D01*
X254353Y69277D01*
X253543Y69438D01*
X252734Y69277D01*
X252047Y68819D01*
X251589Y68132D01*
X251428Y67323D01*
X251589Y66513D01*
X252047Y65827D01*
X252734Y65368D01*
X253543Y65207D01*
X254353Y65368D01*
X254864Y65710D01*
X255364Y65482D01*
Y64046D01*
X254864Y63817D01*
X254353Y64159D01*
X253543Y64320D01*
X252734Y64159D01*
X252047Y63701D01*
X251589Y63014D01*
X251428Y62205D01*
X251589Y61395D01*
X252047Y60709D01*
X252734Y60250D01*
X253543Y60089D01*
X254353Y60250D01*
X254864Y60592D01*
X255364Y60364D01*
Y58927D01*
X254864Y58699D01*
X254353Y59041D01*
X253543Y59202D01*
X252734Y59041D01*
X252047Y58583D01*
X251589Y57896D01*
X251428Y57087D01*
X251589Y56277D01*
X252047Y55591D01*
X252734Y55132D01*
X253543Y54971D01*
X254353Y55132D01*
X254864Y55474D01*
X255364Y55246D01*
Y53809D01*
X254864Y53581D01*
X254353Y53923D01*
X253543Y54084D01*
X252734Y53923D01*
X252047Y53464D01*
X251589Y52778D01*
X251428Y51968D01*
X251589Y51159D01*
X252047Y50473D01*
X252734Y50014D01*
X253543Y49853D01*
X254353Y50014D01*
X254864Y50356D01*
X255364Y50128D01*
Y48691D01*
X254864Y48463D01*
X254353Y48805D01*
X253543Y48966D01*
X252734Y48805D01*
X252047Y48346D01*
X251589Y47660D01*
X251428Y46850D01*
X251589Y46041D01*
X252047Y45355D01*
X252734Y44896D01*
X253543Y44735D01*
X254353Y44896D01*
X254864Y45238D01*
X255364Y45010D01*
Y43573D01*
X254864Y43345D01*
X254353Y43687D01*
X253543Y43848D01*
X252734Y43687D01*
X252047Y43228D01*
X251589Y42542D01*
X251428Y41732D01*
X251589Y40923D01*
X252047Y40236D01*
X252734Y39778D01*
X253543Y39617D01*
X254353Y39778D01*
X254864Y40120D01*
X255364Y39892D01*
Y25815D01*
X251744Y22195D01*
X153768D01*
X150147Y25815D01*
Y35433D01*
X149989Y35816D01*
X149989Y35816D01*
X146052Y39753D01*
X145669Y39911D01*
X145669Y39911D01*
X125984D01*
X125602Y39753D01*
X125601Y39753D01*
X121665Y35816D01*
X121506Y35433D01*
X121506Y35433D01*
Y25815D01*
X117886Y22195D01*
X106523D01*
X102903Y25815D01*
Y35433D01*
X102903Y35433D01*
X102745Y35816D01*
X98808Y39753D01*
X98425Y39911D01*
X98425Y39911D01*
X86614D01*
X86614Y39911D01*
X86231Y39753D01*
X82294Y35816D01*
X82136Y35433D01*
X82136Y35433D01*
Y25815D01*
X78516Y22195D01*
X61248D01*
X57628Y25815D01*
Y44094D01*
Y76772D01*
X57469Y77154D01*
X57469Y77154D01*
X53532Y81091D01*
X53150Y81250D01*
X53150Y81250D01*
X25815D01*
X22195Y84870D01*
Y92295D01*
X25815Y95916D01*
X35433D01*
X35433Y95916D01*
X35816Y96074D01*
X39753Y100011D01*
X39911Y100394D01*
X39911Y100394D01*
Y171036D01*
X43531Y174656D01*
X141508D01*
X145128Y171036D01*
Y159449D01*
X145287Y159066D01*
X145287Y159066D01*
X149224Y155129D01*
X149606Y154971D01*
X149606Y154971D01*
X171260D01*
X171642Y155129D01*
X171642Y155129D01*
X175580Y159066D01*
X175738Y159449D01*
X175738Y159449D01*
Y171036D01*
X179358Y174656D01*
X251744D01*
X255364Y171036D01*
D02*
G37*
%LPC*%
G36*
X184821Y172581D02*
Y169073D01*
X188329D01*
X187899Y170110D01*
X187013Y171265D01*
X185859Y172151D01*
X184821Y172581D01*
D02*
G37*
G36*
X139545Y172581D02*
Y169073D01*
X143053D01*
X142624Y170110D01*
X141738Y171265D01*
X140583Y172151D01*
X139545Y172581D01*
D02*
G37*
G36*
X230097D02*
Y169073D01*
X233605D01*
X233175Y170110D01*
X232289Y171265D01*
X231134Y172151D01*
X230097Y172581D01*
D02*
G37*
G36*
X94270D02*
Y169073D01*
X97778D01*
X97348Y170110D01*
X96462Y171265D01*
X95307Y172151D01*
X94270Y172581D01*
D02*
G37*
G36*
X48994D02*
Y169073D01*
X52502D01*
X52072Y170110D01*
X51186Y171265D01*
X50032Y172151D01*
X48994Y172581D01*
D02*
G37*
G36*
X136045D02*
X135008Y172151D01*
X133853Y171265D01*
X132967Y170110D01*
X132537Y169073D01*
X136045D01*
Y172581D01*
D02*
G37*
G36*
X226596D02*
X225559Y172151D01*
X224404Y171265D01*
X223518Y170110D01*
X223088Y169073D01*
X226596D01*
Y172581D01*
D02*
G37*
G36*
X90770D02*
X89732Y172151D01*
X88577Y171265D01*
X87691Y170110D01*
X87262Y169073D01*
X90770D01*
Y172581D01*
D02*
G37*
G36*
X45494D02*
X44456Y172151D01*
X43302Y171265D01*
X42416Y170110D01*
X41986Y169073D01*
X45494D01*
Y172581D01*
D02*
G37*
G36*
X181321Y172581D02*
X180283Y172151D01*
X179129Y171265D01*
X178243Y170110D01*
X177813Y169073D01*
X181321D01*
Y172581D01*
D02*
G37*
G36*
X248031Y172394D02*
X246719Y172221D01*
X245496Y171714D01*
X244446Y170908D01*
X243640Y169858D01*
X243133Y168635D01*
X242961Y167323D01*
X243133Y166010D01*
X243640Y164787D01*
X244446Y163737D01*
X245496Y162931D01*
X246719Y162425D01*
X248031Y162252D01*
X249344Y162425D01*
X250567Y162931D01*
X251617Y163737D01*
X252423Y164787D01*
X252930Y166010D01*
X253102Y167323D01*
X252930Y168635D01*
X252423Y169858D01*
X251617Y170908D01*
X250567Y171714D01*
X249344Y172221D01*
X248031Y172394D01*
D02*
G37*
G36*
X202756D02*
X201444Y172221D01*
X200220Y171714D01*
X199170Y170908D01*
X198364Y169858D01*
X197858Y168635D01*
X197685Y167323D01*
X197858Y166010D01*
X198364Y164787D01*
X199170Y163737D01*
X200220Y162931D01*
X201444Y162425D01*
X202756Y162252D01*
X204068Y162425D01*
X205291Y162931D01*
X206342Y163737D01*
X207148Y164787D01*
X207654Y166010D01*
X207827Y167323D01*
X207654Y168635D01*
X207148Y169858D01*
X206342Y170908D01*
X205291Y171714D01*
X204068Y172221D01*
X202756Y172394D01*
D02*
G37*
G36*
X112205D02*
X110892Y172221D01*
X109669Y171714D01*
X108619Y170908D01*
X107813Y169858D01*
X107307Y168635D01*
X107134Y167323D01*
X107307Y166010D01*
X107813Y164787D01*
X108619Y163737D01*
X109669Y162931D01*
X110892Y162425D01*
X112205Y162252D01*
X113517Y162425D01*
X114740Y162931D01*
X115790Y163737D01*
X116596Y164787D01*
X117103Y166010D01*
X117276Y167323D01*
X117103Y168635D01*
X116596Y169858D01*
X115790Y170908D01*
X114740Y171714D01*
X113517Y172221D01*
X112205Y172394D01*
D02*
G37*
G36*
X66929D02*
X65617Y172221D01*
X64394Y171714D01*
X63343Y170908D01*
X62538Y169858D01*
X62031Y168635D01*
X61858Y167323D01*
X62031Y166010D01*
X62538Y164787D01*
X63343Y163737D01*
X64394Y162931D01*
X65617Y162425D01*
X66929Y162252D01*
X68242Y162425D01*
X69465Y162931D01*
X70515Y163737D01*
X71321Y164787D01*
X71827Y166010D01*
X72000Y167323D01*
X71827Y168635D01*
X71321Y169858D01*
X70515Y170908D01*
X69465Y171714D01*
X68242Y172221D01*
X66929Y172394D01*
D02*
G37*
G36*
X188329Y165573D02*
X184821D01*
Y162065D01*
X185859Y162495D01*
X187013Y163381D01*
X187899Y164535D01*
X188329Y165573D01*
D02*
G37*
G36*
X233605D02*
X230097D01*
Y162065D01*
X231134Y162495D01*
X232289Y163381D01*
X233175Y164535D01*
X233605Y165573D01*
D02*
G37*
G36*
X143053D02*
X139545D01*
Y162065D01*
X140583Y162495D01*
X141738Y163381D01*
X142624Y164535D01*
X143053Y165573D01*
D02*
G37*
G36*
X97778D02*
X94270D01*
Y162065D01*
X95307Y162495D01*
X96462Y163381D01*
X97348Y164535D01*
X97778Y165573D01*
D02*
G37*
G36*
X52502D02*
X48994D01*
Y162065D01*
X50032Y162495D01*
X51186Y163381D01*
X52072Y164535D01*
X52502Y165573D01*
D02*
G37*
G36*
X226596D02*
X223088D01*
X223518Y164535D01*
X224404Y163381D01*
X225559Y162495D01*
X226596Y162065D01*
Y165573D01*
D02*
G37*
G36*
X136045D02*
X132537D01*
X132967Y164535D01*
X133853Y163381D01*
X135008Y162495D01*
X136045Y162065D01*
Y165573D01*
D02*
G37*
G36*
X90770D02*
X87261D01*
X87691Y164535D01*
X88577Y163381D01*
X89732Y162495D01*
X90770Y162065D01*
Y165573D01*
D02*
G37*
G36*
X45494D02*
X41986D01*
X42416Y164535D01*
X43302Y163381D01*
X44456Y162495D01*
X45494Y162065D01*
Y165573D01*
D02*
G37*
G36*
X181321D02*
X177813D01*
X178243Y164535D01*
X179129Y163381D01*
X180283Y162495D01*
X181321Y162065D01*
Y165573D01*
D02*
G37*
G36*
X233071Y155265D02*
X232261Y155104D01*
X231575Y154646D01*
X231116Y153959D01*
X230955Y153150D01*
X231116Y152340D01*
X231575Y151654D01*
X232261Y151195D01*
X233071Y151034D01*
X233880Y151195D01*
X234567Y151654D01*
X235025Y152340D01*
X235186Y153150D01*
X235025Y153959D01*
X234567Y154646D01*
X233880Y155104D01*
X233071Y155265D01*
D02*
G37*
G36*
X227953D02*
X227143Y155104D01*
X226457Y154646D01*
X225998Y153959D01*
X225837Y153150D01*
X225998Y152340D01*
X226457Y151654D01*
X227143Y151195D01*
X227953Y151034D01*
X228762Y151195D01*
X229449Y151654D01*
X229907Y152340D01*
X230068Y153150D01*
X229907Y153959D01*
X229449Y154646D01*
X228762Y155104D01*
X227953Y155265D01*
D02*
G37*
G36*
X222835D02*
X222025Y155104D01*
X221339Y154646D01*
X220880Y153959D01*
X220719Y153150D01*
X220880Y152340D01*
X221339Y151654D01*
X222025Y151195D01*
X222835Y151034D01*
X223644Y151195D01*
X224330Y151654D01*
X224789Y152340D01*
X224950Y153150D01*
X224789Y153959D01*
X224330Y154646D01*
X223644Y155104D01*
X222835Y155265D01*
D02*
G37*
G36*
X217717D02*
X216907Y155104D01*
X216221Y154646D01*
X215762Y153959D01*
X215601Y153150D01*
X215762Y152340D01*
X216221Y151654D01*
X216907Y151195D01*
X217717Y151034D01*
X218526Y151195D01*
X219212Y151654D01*
X219671Y152340D01*
X219832Y153150D01*
X219671Y153959D01*
X219212Y154646D01*
X218526Y155104D01*
X217717Y155265D01*
D02*
G37*
G36*
X212598D02*
X211789Y155104D01*
X211103Y154646D01*
X210644Y153959D01*
X210483Y153150D01*
X210644Y152340D01*
X211103Y151654D01*
X211789Y151195D01*
X212598Y151034D01*
X213408Y151195D01*
X214094Y151654D01*
X214553Y152340D01*
X214714Y153150D01*
X214553Y153959D01*
X214094Y154646D01*
X213408Y155104D01*
X212598Y155265D01*
D02*
G37*
G36*
X207480D02*
X206671Y155104D01*
X205984Y154646D01*
X205526Y153959D01*
X205365Y153150D01*
X205526Y152340D01*
X205984Y151654D01*
X206671Y151195D01*
X207480Y151034D01*
X208290Y151195D01*
X208976Y151654D01*
X209435Y152340D01*
X209596Y153150D01*
X209435Y153959D01*
X208976Y154646D01*
X208290Y155104D01*
X207480Y155265D01*
D02*
G37*
G36*
X202362D02*
X201553Y155104D01*
X200866Y154646D01*
X200408Y153959D01*
X200247Y153150D01*
X200408Y152340D01*
X200866Y151654D01*
X201553Y151195D01*
X202362Y151034D01*
X203172Y151195D01*
X203858Y151654D01*
X204317Y152340D01*
X204478Y153150D01*
X204317Y153959D01*
X203858Y154646D01*
X203172Y155104D01*
X202362Y155265D01*
D02*
G37*
G36*
X197244D02*
X196434Y155104D01*
X195748Y154646D01*
X195290Y153959D01*
X195129Y153150D01*
X195290Y152340D01*
X195748Y151654D01*
X196434Y151195D01*
X197244Y151034D01*
X198054Y151195D01*
X198740Y151654D01*
X199198Y152340D01*
X199360Y153150D01*
X199198Y153959D01*
X198740Y154646D01*
X198054Y155104D01*
X197244Y155265D01*
D02*
G37*
G36*
X192126D02*
X191316Y155104D01*
X190630Y154646D01*
X190172Y153959D01*
X190010Y153150D01*
X190172Y152340D01*
X190630Y151654D01*
X191316Y151195D01*
X192126Y151034D01*
X192936Y151195D01*
X193622Y151654D01*
X194080Y152340D01*
X194241Y153150D01*
X194080Y153959D01*
X193622Y154646D01*
X192936Y155104D01*
X192126Y155265D01*
D02*
G37*
G36*
X187008D02*
X186198Y155104D01*
X185512Y154646D01*
X185054Y153959D01*
X184892Y153150D01*
X185054Y152340D01*
X185512Y151654D01*
X186198Y151195D01*
X187008Y151034D01*
X187817Y151195D01*
X188504Y151654D01*
X188962Y152340D01*
X189123Y153150D01*
X188962Y153959D01*
X188504Y154646D01*
X187817Y155104D01*
X187008Y155265D01*
D02*
G37*
G36*
X181890D02*
X181080Y155104D01*
X180394Y154646D01*
X179935Y153959D01*
X179774Y153150D01*
X179935Y152340D01*
X180394Y151654D01*
X181080Y151195D01*
X181890Y151034D01*
X182699Y151195D01*
X183386Y151654D01*
X183844Y152340D01*
X184005Y153150D01*
X183844Y153959D01*
X183386Y154646D01*
X182699Y155104D01*
X181890Y155265D01*
D02*
G37*
G36*
X173622Y154084D02*
X172812Y153923D01*
X172126Y153464D01*
X171668Y152778D01*
X171507Y151969D01*
X171668Y151159D01*
X172126Y150473D01*
X172812Y150014D01*
X173622Y149853D01*
X174432Y150014D01*
X175118Y150473D01*
X175576Y151159D01*
X175738Y151969D01*
X175576Y152778D01*
X175118Y153464D01*
X174432Y153923D01*
X173622Y154084D01*
D02*
G37*
G36*
X168504D02*
X167694Y153923D01*
X167008Y153464D01*
X166550Y152778D01*
X166388Y151969D01*
X166550Y151159D01*
X167008Y150473D01*
X167694Y150014D01*
X168504Y149853D01*
X169314Y150014D01*
X170000Y150473D01*
X170458Y151159D01*
X170619Y151969D01*
X170458Y152778D01*
X170000Y153464D01*
X169314Y153923D01*
X168504Y154084D01*
D02*
G37*
G36*
X163386D02*
X162576Y153923D01*
X161890Y153464D01*
X161431Y152778D01*
X161270Y151969D01*
X161431Y151159D01*
X161890Y150473D01*
X162576Y150014D01*
X163386Y149853D01*
X164195Y150014D01*
X164882Y150473D01*
X165340Y151159D01*
X165501Y151969D01*
X165340Y152778D01*
X164882Y153464D01*
X164195Y153923D01*
X163386Y154084D01*
D02*
G37*
G36*
X233071Y150541D02*
X232261Y150380D01*
X231575Y149921D01*
X231116Y149235D01*
X230955Y148425D01*
X231116Y147616D01*
X231575Y146929D01*
X232261Y146471D01*
X233071Y146310D01*
X233880Y146471D01*
X234567Y146929D01*
X235025Y147616D01*
X235186Y148425D01*
X235025Y149235D01*
X234567Y149921D01*
X233880Y150380D01*
X233071Y150541D01*
D02*
G37*
G36*
X227953D02*
X227143Y150380D01*
X226457Y149921D01*
X225998Y149235D01*
X225837Y148425D01*
X225998Y147616D01*
X226457Y146929D01*
X227143Y146471D01*
X227953Y146310D01*
X228762Y146471D01*
X229449Y146929D01*
X229907Y147616D01*
X230068Y148425D01*
X229907Y149235D01*
X229449Y149921D01*
X228762Y150380D01*
X227953Y150541D01*
D02*
G37*
G36*
X222835D02*
X222025Y150380D01*
X221339Y149921D01*
X220880Y149235D01*
X220719Y148425D01*
X220880Y147616D01*
X221339Y146929D01*
X222025Y146471D01*
X222835Y146310D01*
X223644Y146471D01*
X224330Y146929D01*
X224789Y147616D01*
X224950Y148425D01*
X224789Y149235D01*
X224330Y149921D01*
X223644Y150380D01*
X222835Y150541D01*
D02*
G37*
G36*
X217717D02*
X216907Y150380D01*
X216221Y149921D01*
X215762Y149235D01*
X215601Y148425D01*
X215762Y147616D01*
X216221Y146929D01*
X216907Y146471D01*
X217717Y146310D01*
X218526Y146471D01*
X219212Y146929D01*
X219671Y147616D01*
X219832Y148425D01*
X219671Y149235D01*
X219212Y149921D01*
X218526Y150380D01*
X217717Y150541D01*
D02*
G37*
G36*
X212598D02*
X211789Y150380D01*
X211103Y149921D01*
X210644Y149235D01*
X210483Y148425D01*
X210644Y147616D01*
X211103Y146929D01*
X211789Y146471D01*
X212598Y146310D01*
X213408Y146471D01*
X214094Y146929D01*
X214553Y147616D01*
X214714Y148425D01*
X214553Y149235D01*
X214094Y149921D01*
X213408Y150380D01*
X212598Y150541D01*
D02*
G37*
G36*
X207480D02*
X206671Y150380D01*
X205984Y149921D01*
X205526Y149235D01*
X205365Y148425D01*
X205526Y147616D01*
X205984Y146929D01*
X206671Y146471D01*
X207480Y146310D01*
X208290Y146471D01*
X208976Y146929D01*
X209435Y147616D01*
X209596Y148425D01*
X209435Y149235D01*
X208976Y149921D01*
X208290Y150380D01*
X207480Y150541D01*
D02*
G37*
G36*
X202362D02*
X201553Y150380D01*
X200866Y149921D01*
X200408Y149235D01*
X200247Y148425D01*
X200408Y147616D01*
X200866Y146929D01*
X201553Y146471D01*
X202362Y146310D01*
X203172Y146471D01*
X203858Y146929D01*
X204317Y147616D01*
X204478Y148425D01*
X204317Y149235D01*
X203858Y149921D01*
X203172Y150380D01*
X202362Y150541D01*
D02*
G37*
G36*
X197244D02*
X196435Y150380D01*
X195748Y149921D01*
X195290Y149235D01*
X195129Y148425D01*
X195290Y147616D01*
X195748Y146929D01*
X196435Y146471D01*
X197244Y146310D01*
X198054Y146471D01*
X198740Y146929D01*
X199198Y147616D01*
X199360Y148425D01*
X199198Y149235D01*
X198740Y149921D01*
X198054Y150380D01*
X197244Y150541D01*
D02*
G37*
G36*
X192126D02*
X191316Y150380D01*
X190630Y149921D01*
X190172Y149235D01*
X190011Y148425D01*
X190172Y147616D01*
X190630Y146929D01*
X191316Y146471D01*
X192126Y146310D01*
X192936Y146471D01*
X193622Y146929D01*
X194080Y147616D01*
X194241Y148425D01*
X194080Y149235D01*
X193622Y149921D01*
X192936Y150380D01*
X192126Y150541D01*
D02*
G37*
G36*
X187008D02*
X186198Y150380D01*
X185512Y149921D01*
X185054Y149235D01*
X184892Y148425D01*
X185054Y147616D01*
X185512Y146929D01*
X186198Y146471D01*
X187008Y146310D01*
X187818Y146471D01*
X188504Y146929D01*
X188962Y147616D01*
X189123Y148425D01*
X188962Y149235D01*
X188504Y149921D01*
X187818Y150380D01*
X187008Y150541D01*
D02*
G37*
G36*
X181890D02*
X181080Y150380D01*
X180394Y149921D01*
X179935Y149235D01*
X179774Y148425D01*
X179935Y147616D01*
X180394Y146929D01*
X181080Y146471D01*
X181890Y146310D01*
X182699Y146471D01*
X183386Y146929D01*
X183844Y147616D01*
X184005Y148425D01*
X183844Y149235D01*
X183386Y149921D01*
X182699Y150380D01*
X181890Y150541D01*
D02*
G37*
G36*
X173622Y149360D02*
X172812Y149198D01*
X172126Y148740D01*
X171668Y148054D01*
X171507Y147244D01*
X171668Y146434D01*
X172126Y145748D01*
X172812Y145290D01*
X173622Y145129D01*
X174432Y145290D01*
X175118Y145748D01*
X175576Y146434D01*
X175738Y147244D01*
X175576Y148054D01*
X175118Y148740D01*
X174432Y149198D01*
X173622Y149360D01*
D02*
G37*
G36*
X168504D02*
X167694Y149198D01*
X167008Y148740D01*
X166550Y148054D01*
X166388Y147244D01*
X166550Y146434D01*
X167008Y145748D01*
X167694Y145290D01*
X168504Y145129D01*
X169314Y145290D01*
X170000Y145748D01*
X170458Y146434D01*
X170619Y147244D01*
X170458Y148054D01*
X170000Y148740D01*
X169314Y149198D01*
X168504Y149360D01*
D02*
G37*
G36*
X163386D02*
X162576Y149198D01*
X161890Y148740D01*
X161431Y148054D01*
X161270Y147244D01*
X161431Y146434D01*
X161890Y145748D01*
X162576Y145290D01*
X163386Y145129D01*
X164195Y145290D01*
X164882Y145748D01*
X165340Y146434D01*
X165501Y147244D01*
X165340Y148054D01*
X164882Y148740D01*
X164195Y149198D01*
X163386Y149360D01*
D02*
G37*
G36*
X173622Y144635D02*
X172812Y144474D01*
X172126Y144016D01*
X171668Y143329D01*
X171507Y142520D01*
X171668Y141710D01*
X172126Y141024D01*
X172812Y140565D01*
X173622Y140404D01*
X174432Y140565D01*
X175118Y141024D01*
X175576Y141710D01*
X175738Y142520D01*
X175576Y143329D01*
X175118Y144016D01*
X174432Y144474D01*
X173622Y144635D01*
D02*
G37*
G36*
X168504D02*
X167694Y144474D01*
X167008Y144016D01*
X166550Y143329D01*
X166388Y142520D01*
X166550Y141710D01*
X167008Y141024D01*
X167694Y140565D01*
X168504Y140404D01*
X169314Y140565D01*
X170000Y141024D01*
X170458Y141710D01*
X170619Y142520D01*
X170458Y143329D01*
X170000Y144016D01*
X169314Y144474D01*
X168504Y144635D01*
D02*
G37*
G36*
X163386D02*
X162576Y144474D01*
X161890Y144016D01*
X161431Y143329D01*
X161270Y142520D01*
X161431Y141710D01*
X161890Y141024D01*
X162576Y140565D01*
X163386Y140404D01*
X164195Y140565D01*
X164882Y141024D01*
X165340Y141710D01*
X165501Y142520D01*
X165340Y143329D01*
X164882Y144016D01*
X164195Y144474D01*
X163386Y144635D01*
D02*
G37*
G36*
X173622Y139911D02*
X172812Y139750D01*
X172126Y139291D01*
X171668Y138605D01*
X171507Y137795D01*
X171668Y136986D01*
X172126Y136299D01*
X172812Y135841D01*
X173622Y135680D01*
X174432Y135841D01*
X175118Y136299D01*
X175576Y136986D01*
X175738Y137795D01*
X175576Y138605D01*
X175118Y139291D01*
X174432Y139750D01*
X173622Y139911D01*
D02*
G37*
G36*
X168504D02*
X167694Y139750D01*
X167008Y139291D01*
X166550Y138605D01*
X166388Y137795D01*
X166550Y136986D01*
X167008Y136299D01*
X167694Y135841D01*
X168504Y135680D01*
X169314Y135841D01*
X170000Y136299D01*
X170458Y136986D01*
X170619Y137795D01*
X170458Y138605D01*
X170000Y139291D01*
X169314Y139750D01*
X168504Y139911D01*
D02*
G37*
G36*
X163386D02*
X162576Y139750D01*
X161890Y139291D01*
X161431Y138605D01*
X161270Y137795D01*
X161431Y136986D01*
X161890Y136299D01*
X162576Y135841D01*
X163386Y135680D01*
X164195Y135841D01*
X164882Y136299D01*
X165340Y136986D01*
X165501Y137795D01*
X165340Y138605D01*
X164882Y139291D01*
X164195Y139750D01*
X163386Y139911D01*
D02*
G37*
G36*
X173622Y135186D02*
X172812Y135025D01*
X172126Y134567D01*
X171668Y133880D01*
X171507Y133071D01*
X171668Y132261D01*
X172126Y131575D01*
X172812Y131116D01*
X173622Y130955D01*
X174432Y131116D01*
X175118Y131575D01*
X175576Y132261D01*
X175738Y133071D01*
X175576Y133880D01*
X175118Y134567D01*
X174432Y135025D01*
X173622Y135186D01*
D02*
G37*
G36*
X168504D02*
X167694Y135025D01*
X167008Y134567D01*
X166550Y133880D01*
X166388Y133071D01*
X166550Y132261D01*
X167008Y131575D01*
X167694Y131116D01*
X168504Y130955D01*
X169314Y131116D01*
X170000Y131575D01*
X170458Y132261D01*
X170619Y133071D01*
X170458Y133880D01*
X170000Y134567D01*
X169314Y135025D01*
X168504Y135186D01*
D02*
G37*
G36*
X163386D02*
X162576Y135025D01*
X161890Y134567D01*
X161431Y133880D01*
X161270Y133071D01*
X161431Y132261D01*
X161890Y131575D01*
X162576Y131116D01*
X163386Y130955D01*
X164195Y131116D01*
X164882Y131575D01*
X165340Y132261D01*
X165501Y133071D01*
X165340Y133880D01*
X164882Y134567D01*
X164195Y135025D01*
X163386Y135186D01*
D02*
G37*
G36*
X72441Y147383D02*
X71785Y147253D01*
X71229Y146881D01*
X70857Y146325D01*
X70727Y145669D01*
X70857Y145013D01*
X71229Y144457D01*
X71785Y144086D01*
X72245Y143994D01*
X72593Y143690D01*
X72676Y143608D01*
X72716Y143592D01*
X75891Y140417D01*
Y133071D01*
X75988Y132583D01*
X76264Y132170D01*
X79023Y129411D01*
X79039Y129372D01*
X79211Y129195D01*
X79334Y129060D01*
X79412Y128965D01*
X79422Y128952D01*
X79422Y128952D01*
X79422Y128951D01*
X79424Y128948D01*
X79426Y128946D01*
X79519Y128478D01*
X79890Y127922D01*
X80446Y127550D01*
X81102Y127420D01*
X81758Y127550D01*
X82314Y127922D01*
X82686Y128478D01*
X82816Y129134D01*
X82686Y129790D01*
X82314Y130346D01*
X81758Y130717D01*
X81299Y130809D01*
X80950Y131113D01*
X80867Y131195D01*
X80827Y131212D01*
X78440Y133599D01*
Y140945D01*
X78343Y141433D01*
X78066Y141846D01*
X74520Y145392D01*
X74505Y145431D01*
X74332Y145608D01*
X74209Y145743D01*
X74131Y145838D01*
X74121Y145851D01*
X74121Y145852D01*
X74121Y145852D01*
X74119Y145855D01*
X74118Y145857D01*
X74024Y146325D01*
X73653Y146881D01*
X73097Y147253D01*
X72441Y147383D01*
D02*
G37*
G36*
X195974Y119913D02*
X195318Y119782D01*
X194857Y119474D01*
X194433Y119447D01*
X194315Y119446D01*
X194304Y119441D01*
X194292Y119445D01*
X194258Y119429D01*
X141389D01*
X141349Y119446D01*
X141221Y119446D01*
X140916Y119455D01*
X140792Y119465D01*
X140769Y119469D01*
X140766Y119470D01*
X140764Y119469D01*
X140751Y119472D01*
X140420Y119694D01*
X139764Y119824D01*
X139108Y119694D01*
X138552Y119322D01*
X138180Y118766D01*
X138050Y118110D01*
X138180Y117454D01*
X138552Y116898D01*
X139108Y116527D01*
X139764Y116396D01*
X140420Y116527D01*
X140882Y116835D01*
X141305Y116863D01*
X141423Y116863D01*
X141434Y116868D01*
X141446Y116864D01*
X141480Y116880D01*
X194349D01*
X194389Y116863D01*
X194517Y116863D01*
X194823Y116854D01*
X194947Y116844D01*
X194969Y116840D01*
X194972Y116840D01*
X194974Y116840D01*
X194987Y116837D01*
X195318Y116615D01*
X195974Y116485D01*
X196630Y116615D01*
X197186Y116987D01*
X197558Y117543D01*
X197688Y118199D01*
X197558Y118855D01*
X197186Y119411D01*
X196630Y119782D01*
X195974Y119913D01*
D02*
G37*
G36*
X267498Y113526D02*
Y110018D01*
X271006D01*
X270576Y111055D01*
X269690Y112210D01*
X268536Y113096D01*
X267498Y113526D01*
D02*
G37*
G36*
X263998Y113526D02*
X262960Y113096D01*
X261806Y112210D01*
X260920Y111055D01*
X260490Y110018D01*
X263998D01*
Y113526D01*
D02*
G37*
G36*
X271006Y106518D02*
X267498D01*
Y103010D01*
X268536Y103439D01*
X269690Y104325D01*
X270576Y105480D01*
X271006Y106518D01*
D02*
G37*
G36*
X263998D02*
X260490D01*
X260920Y105480D01*
X261806Y104325D01*
X262960Y103439D01*
X263998Y103010D01*
Y106518D01*
D02*
G37*
G36*
X125000Y118110D02*
X123031Y116142D01*
Y112205D01*
X125000Y110236D01*
X125757D01*
X131776Y104217D01*
X132189Y103941D01*
X132677Y103844D01*
X175197D01*
Y102362D01*
X177165Y100394D01*
X181102D01*
X183071Y102362D01*
X183071Y108268D01*
X181102Y110236D01*
X177165D01*
X175684Y108755D01*
X134386D01*
X131905Y111236D01*
X132874Y112205D01*
Y116142D01*
X130906Y118110D01*
X125000Y118110D01*
D02*
G37*
G36*
X31278Y93841D02*
Y90333D01*
X34786D01*
X34356Y91370D01*
X33470Y92525D01*
X32315Y93411D01*
X31278Y93841D01*
D02*
G37*
G36*
X27778D02*
X26740Y93411D01*
X25585Y92525D01*
X24699Y91370D01*
X24269Y90333D01*
X27778D01*
Y93841D01*
D02*
G37*
G36*
X34786Y86833D02*
X31278D01*
Y83325D01*
X32315Y83754D01*
X33470Y84640D01*
X34356Y85795D01*
X34786Y86833D01*
D02*
G37*
G36*
X27778D02*
X24269D01*
X24699Y85795D01*
X25585Y84640D01*
X26740Y83754D01*
X27778Y83325D01*
Y86833D01*
D02*
G37*
G36*
X248425Y74556D02*
X247616Y74395D01*
X246929Y73937D01*
X246471Y73251D01*
X246310Y72441D01*
X246471Y71631D01*
X246929Y70945D01*
X247616Y70486D01*
X248425Y70325D01*
X249235Y70486D01*
X249921Y70945D01*
X250380Y71631D01*
X250541Y72441D01*
X250380Y73251D01*
X249921Y73937D01*
X249235Y74395D01*
X248425Y74556D01*
D02*
G37*
G36*
X243307D02*
X242497Y74395D01*
X241811Y73937D01*
X241353Y73251D01*
X241192Y72441D01*
X241353Y71631D01*
X241811Y70945D01*
X242497Y70486D01*
X243307Y70325D01*
X244117Y70486D01*
X244803Y70945D01*
X245262Y71631D01*
X245423Y72441D01*
X245262Y73251D01*
X244803Y73937D01*
X244117Y74395D01*
X243307Y74556D01*
D02*
G37*
G36*
X238189D02*
X237379Y74395D01*
X236693Y73937D01*
X236235Y73251D01*
X236073Y72441D01*
X236235Y71631D01*
X236693Y70945D01*
X237379Y70486D01*
X238189Y70325D01*
X238999Y70486D01*
X239685Y70945D01*
X240143Y71631D01*
X240304Y72441D01*
X240143Y73251D01*
X239685Y73937D01*
X238999Y74395D01*
X238189Y74556D01*
D02*
G37*
G36*
X248425Y69438D02*
X247616Y69277D01*
X246929Y68819D01*
X246471Y68132D01*
X246310Y67323D01*
X246471Y66513D01*
X246929Y65827D01*
X247616Y65368D01*
X248425Y65207D01*
X249235Y65368D01*
X249921Y65827D01*
X250380Y66513D01*
X250541Y67323D01*
X250380Y68132D01*
X249921Y68819D01*
X249235Y69277D01*
X248425Y69438D01*
D02*
G37*
G36*
X243307D02*
X242497Y69277D01*
X241811Y68819D01*
X241353Y68132D01*
X241192Y67323D01*
X241353Y66513D01*
X241811Y65827D01*
X242497Y65368D01*
X243307Y65207D01*
X244117Y65368D01*
X244803Y65827D01*
X245262Y66513D01*
X245423Y67323D01*
X245262Y68132D01*
X244803Y68819D01*
X244117Y69277D01*
X243307Y69438D01*
D02*
G37*
G36*
X238189D02*
X237379Y69277D01*
X236693Y68819D01*
X236235Y68132D01*
X236073Y67323D01*
X236235Y66513D01*
X236693Y65827D01*
X237379Y65368D01*
X238189Y65207D01*
X238999Y65368D01*
X239685Y65827D01*
X240143Y66513D01*
X240304Y67323D01*
X240143Y68132D01*
X239685Y68819D01*
X238999Y69277D01*
X238189Y69438D01*
D02*
G37*
G36*
X143307Y74549D02*
X142651Y74418D01*
X142095Y74047D01*
X141724Y73491D01*
X141593Y72835D01*
X141724Y72179D01*
X142095Y71623D01*
X142651Y71251D01*
X142747Y71232D01*
X152462Y61517D01*
X152958Y61185D01*
X153543Y61069D01*
X232334D01*
X232415Y61015D01*
X233071Y60884D01*
X233727Y61015D01*
X234283Y61386D01*
X234654Y61942D01*
X234785Y62598D01*
X234654Y63254D01*
X234283Y63810D01*
X233727Y64182D01*
X233071Y64312D01*
X232415Y64182D01*
X232334Y64128D01*
X154177D01*
X144910Y73395D01*
X144891Y73491D01*
X144519Y74047D01*
X143963Y74418D01*
X143307Y74549D01*
D02*
G37*
G36*
X248425Y64320D02*
X247616Y64159D01*
X246929Y63701D01*
X246471Y63014D01*
X246310Y62205D01*
X246471Y61395D01*
X246929Y60709D01*
X247616Y60250D01*
X248425Y60089D01*
X249235Y60250D01*
X249921Y60709D01*
X250380Y61395D01*
X250541Y62205D01*
X250380Y63014D01*
X249921Y63701D01*
X249235Y64159D01*
X248425Y64320D01*
D02*
G37*
G36*
X243307D02*
X242497Y64159D01*
X241811Y63701D01*
X241353Y63014D01*
X241192Y62205D01*
X241353Y61395D01*
X241811Y60709D01*
X242497Y60250D01*
X243307Y60089D01*
X244117Y60250D01*
X244803Y60709D01*
X245262Y61395D01*
X245423Y62205D01*
X245262Y63014D01*
X244803Y63701D01*
X244117Y64159D01*
X243307Y64320D01*
D02*
G37*
G36*
X238189D02*
X237379Y64159D01*
X236693Y63701D01*
X236235Y63014D01*
X236073Y62205D01*
X236235Y61395D01*
X236693Y60709D01*
X237379Y60250D01*
X238189Y60089D01*
X238999Y60250D01*
X239685Y60709D01*
X240143Y61395D01*
X240304Y62205D01*
X240143Y63014D01*
X239685Y63701D01*
X238999Y64159D01*
X238189Y64320D01*
D02*
G37*
G36*
X248425Y59202D02*
X247616Y59041D01*
X246929Y58583D01*
X246471Y57896D01*
X246310Y57087D01*
X246471Y56277D01*
X246929Y55591D01*
X247616Y55132D01*
X248425Y54971D01*
X249235Y55132D01*
X249921Y55591D01*
X250380Y56277D01*
X250541Y57087D01*
X250380Y57896D01*
X249921Y58583D01*
X249235Y59041D01*
X248425Y59202D01*
D02*
G37*
G36*
X243307D02*
X242497Y59041D01*
X241811Y58583D01*
X241353Y57896D01*
X241192Y57087D01*
X241353Y56277D01*
X241811Y55591D01*
X242497Y55132D01*
X243307Y54971D01*
X244117Y55132D01*
X244803Y55591D01*
X245262Y56277D01*
X245423Y57087D01*
X245262Y57896D01*
X244803Y58583D01*
X244117Y59041D01*
X243307Y59202D01*
D02*
G37*
G36*
X238189D02*
X237379Y59041D01*
X236693Y58583D01*
X236235Y57896D01*
X236073Y57087D01*
X236235Y56277D01*
X236693Y55591D01*
X237379Y55132D01*
X238189Y54971D01*
X238999Y55132D01*
X239685Y55591D01*
X240143Y56277D01*
X240304Y57087D01*
X240143Y57896D01*
X239685Y58583D01*
X238999Y59041D01*
X238189Y59202D01*
D02*
G37*
G36*
X248425Y54084D02*
X247616Y53923D01*
X246929Y53464D01*
X246471Y52778D01*
X246310Y51968D01*
X246471Y51159D01*
X246929Y50473D01*
X247616Y50014D01*
X248425Y49853D01*
X249235Y50014D01*
X249921Y50473D01*
X250380Y51159D01*
X250541Y51968D01*
X250380Y52778D01*
X249921Y53464D01*
X249235Y53923D01*
X248425Y54084D01*
D02*
G37*
G36*
X243307D02*
X242497Y53923D01*
X241811Y53464D01*
X241353Y52778D01*
X241192Y51968D01*
X241353Y51159D01*
X241811Y50473D01*
X242497Y50014D01*
X243307Y49853D01*
X244117Y50014D01*
X244803Y50473D01*
X245262Y51159D01*
X245423Y51968D01*
X245262Y52778D01*
X244803Y53464D01*
X244117Y53923D01*
X243307Y54084D01*
D02*
G37*
G36*
X238189D02*
X237379Y53923D01*
X236693Y53464D01*
X236234Y52778D01*
X236073Y51968D01*
X236234Y51159D01*
X236693Y50473D01*
X237379Y50014D01*
X238189Y49853D01*
X238999Y50014D01*
X239685Y50473D01*
X240143Y51159D01*
X240304Y51968D01*
X240143Y52778D01*
X239685Y53464D01*
X238999Y53923D01*
X238189Y54084D01*
D02*
G37*
G36*
X248425Y48966D02*
X247616Y48805D01*
X246929Y48346D01*
X246471Y47660D01*
X246310Y46850D01*
X246471Y46041D01*
X246929Y45355D01*
X247616Y44896D01*
X248425Y44735D01*
X249235Y44896D01*
X249921Y45355D01*
X250380Y46041D01*
X250541Y46850D01*
X250380Y47660D01*
X249921Y48346D01*
X249235Y48805D01*
X248425Y48966D01*
D02*
G37*
G36*
X243307D02*
X242497Y48805D01*
X241811Y48346D01*
X241353Y47660D01*
X241192Y46850D01*
X241353Y46041D01*
X241811Y45355D01*
X242497Y44896D01*
X243307Y44735D01*
X244117Y44896D01*
X244803Y45355D01*
X245262Y46041D01*
X245423Y46850D01*
X245262Y47660D01*
X244803Y48346D01*
X244117Y48805D01*
X243307Y48966D01*
D02*
G37*
G36*
X238189D02*
X237379Y48805D01*
X236693Y48346D01*
X236235Y47660D01*
X236073Y46850D01*
X236235Y46041D01*
X236693Y45355D01*
X237379Y44896D01*
X238189Y44735D01*
X238999Y44896D01*
X239685Y45355D01*
X240143Y46041D01*
X240304Y46850D01*
X240143Y47660D01*
X239685Y48346D01*
X238999Y48805D01*
X238189Y48966D01*
D02*
G37*
G36*
X248425Y43848D02*
X247616Y43687D01*
X246929Y43228D01*
X246471Y42542D01*
X246310Y41732D01*
X246471Y40923D01*
X246929Y40236D01*
X247616Y39778D01*
X248425Y39617D01*
X249235Y39778D01*
X249921Y40236D01*
X250380Y40923D01*
X250541Y41732D01*
X250380Y42542D01*
X249921Y43228D01*
X249235Y43687D01*
X248425Y43848D01*
D02*
G37*
G36*
X243307D02*
X242497Y43687D01*
X241811Y43228D01*
X241353Y42542D01*
X241192Y41732D01*
X241353Y40923D01*
X241811Y40236D01*
X242497Y39778D01*
X243307Y39617D01*
X244117Y39778D01*
X244803Y40236D01*
X245262Y40923D01*
X245423Y41732D01*
X245262Y42542D01*
X244803Y43228D01*
X244117Y43687D01*
X243307Y43848D01*
D02*
G37*
G36*
X238189D02*
X237379Y43687D01*
X236693Y43228D01*
X236234Y42542D01*
X236073Y41732D01*
X236234Y40923D01*
X236693Y40236D01*
X237379Y39778D01*
X238189Y39617D01*
X238999Y39778D01*
X239685Y40236D01*
X240143Y40923D01*
X240304Y41732D01*
X240143Y42542D01*
X239685Y43228D01*
X238999Y43687D01*
X238189Y43848D01*
D02*
G37*
G36*
X210236Y39517D02*
X209427Y39356D01*
X208740Y38897D01*
X208282Y38211D01*
X208121Y37402D01*
X208282Y36592D01*
X208740Y35906D01*
X209427Y35447D01*
X210236Y35286D01*
X211046Y35447D01*
X211732Y35906D01*
X212191Y36592D01*
X212352Y37402D01*
X212191Y38211D01*
X211732Y38897D01*
X211046Y39356D01*
X210236Y39517D01*
D02*
G37*
G36*
X230709Y39517D02*
X229899Y39356D01*
X229213Y38897D01*
X228754Y38211D01*
X228593Y37402D01*
X228754Y36592D01*
X229213Y35906D01*
X229899Y35447D01*
X230709Y35286D01*
X231518Y35447D01*
X232205Y35906D01*
X232663Y36592D01*
X232824Y37402D01*
X232663Y38211D01*
X232205Y38897D01*
X231518Y39356D01*
X230709Y39517D01*
D02*
G37*
G36*
X225984D02*
X225175Y39356D01*
X224488Y38897D01*
X224030Y38211D01*
X223869Y37402D01*
X224030Y36592D01*
X224488Y35906D01*
X225175Y35447D01*
X225984Y35286D01*
X226794Y35447D01*
X227480Y35906D01*
X227939Y36592D01*
X228100Y37402D01*
X227939Y38211D01*
X227480Y38897D01*
X226794Y39356D01*
X225984Y39517D01*
D02*
G37*
G36*
X205118D02*
X204309Y39356D01*
X203622Y38897D01*
X203164Y38211D01*
X203003Y37402D01*
X203164Y36592D01*
X203622Y35906D01*
X204309Y35447D01*
X205118Y35286D01*
X205928Y35447D01*
X206614Y35906D01*
X207073Y36592D01*
X207234Y37402D01*
X207073Y38211D01*
X206614Y38897D01*
X205928Y39356D01*
X205118Y39517D01*
D02*
G37*
G36*
X200000D02*
X199190Y39356D01*
X198504Y38897D01*
X198046Y38211D01*
X197885Y37402D01*
X198046Y36592D01*
X198504Y35906D01*
X199190Y35447D01*
X200000Y35286D01*
X200810Y35447D01*
X201496Y35906D01*
X201954Y36592D01*
X202116Y37402D01*
X201954Y38211D01*
X201496Y38897D01*
X200810Y39356D01*
X200000Y39517D01*
D02*
G37*
G36*
X194882D02*
X194072Y39356D01*
X193386Y38897D01*
X192928Y38211D01*
X192766Y37402D01*
X192928Y36592D01*
X193386Y35906D01*
X194072Y35447D01*
X194882Y35286D01*
X195692Y35447D01*
X196378Y35906D01*
X196836Y36592D01*
X196997Y37402D01*
X196836Y38211D01*
X196378Y38897D01*
X195692Y39356D01*
X194882Y39517D01*
D02*
G37*
G36*
X185433D02*
X184624Y39356D01*
X183937Y38897D01*
X183479Y38211D01*
X183318Y37402D01*
X183479Y36592D01*
X183937Y35906D01*
X184624Y35447D01*
X185433Y35286D01*
X186243Y35447D01*
X186929Y35906D01*
X187388Y36592D01*
X187548Y37402D01*
X187388Y38211D01*
X186929Y38897D01*
X186243Y39356D01*
X185433Y39517D01*
D02*
G37*
G36*
X180709D02*
X179899Y39356D01*
X179213Y38897D01*
X178754Y38211D01*
X178593Y37402D01*
X178754Y36592D01*
X179213Y35906D01*
X179899Y35447D01*
X180709Y35286D01*
X181518Y35447D01*
X182204Y35906D01*
X182663Y36592D01*
X182824Y37402D01*
X182663Y38211D01*
X182204Y38897D01*
X181518Y39356D01*
X180709Y39517D01*
D02*
G37*
G36*
X249781Y34786D02*
Y31278D01*
X253290D01*
X252860Y32315D01*
X251974Y33470D01*
X250819Y34356D01*
X249781Y34786D01*
D02*
G37*
G36*
X246282D02*
X245244Y34356D01*
X244089Y33470D01*
X243203Y32315D01*
X242773Y31278D01*
X246282D01*
Y34786D01*
D02*
G37*
G36*
X204506D02*
Y31278D01*
X208014D01*
X207584Y32315D01*
X206698Y33470D01*
X205543Y34356D01*
X204506Y34786D01*
D02*
G37*
G36*
X201006D02*
X199968Y34356D01*
X198814Y33470D01*
X197928Y32315D01*
X197498Y31278D01*
X201006D01*
Y34786D01*
D02*
G37*
G36*
X159230D02*
Y31278D01*
X162738D01*
X162309Y32315D01*
X161423Y33470D01*
X160268Y34356D01*
X159230Y34786D01*
D02*
G37*
G36*
X155730D02*
X154693Y34356D01*
X153538Y33470D01*
X152652Y32315D01*
X152222Y31278D01*
X155730D01*
Y34786D01*
D02*
G37*
G36*
X113955D02*
Y31278D01*
X117463D01*
X117033Y32315D01*
X116147Y33470D01*
X114992Y34356D01*
X113955Y34786D01*
D02*
G37*
G36*
X110455D02*
X109417Y34356D01*
X108262Y33470D01*
X107376Y32315D01*
X106947Y31278D01*
X110455D01*
Y34786D01*
D02*
G37*
G36*
X68679D02*
Y31278D01*
X72187D01*
X71757Y32315D01*
X70871Y33470D01*
X69717Y34356D01*
X68679Y34786D01*
D02*
G37*
G36*
X65179D02*
X64141Y34356D01*
X62987Y33470D01*
X62101Y32315D01*
X61671Y31278D01*
X65179D01*
Y34786D01*
D02*
G37*
G36*
X220472Y34005D02*
X219663Y33844D01*
X218977Y33386D01*
X218518Y32699D01*
X218357Y31890D01*
X218518Y31080D01*
X218977Y30394D01*
X219663Y29935D01*
X220472Y29774D01*
X221282Y29935D01*
X221968Y30394D01*
X222427Y31080D01*
X222588Y31890D01*
X222427Y32699D01*
X221968Y33386D01*
X221282Y33844D01*
X220472Y34005D01*
D02*
G37*
G36*
X236221Y34005D02*
X235411Y33844D01*
X234725Y33386D01*
X234266Y32699D01*
X234105Y31890D01*
X234266Y31080D01*
X234725Y30394D01*
X235411Y29935D01*
X236221Y29774D01*
X237030Y29935D01*
X237716Y30394D01*
X238175Y31080D01*
X238336Y31890D01*
X238175Y32699D01*
X237716Y33386D01*
X237030Y33844D01*
X236221Y34005D01*
D02*
G37*
G36*
X220472Y29281D02*
X219663Y29120D01*
X218977Y28661D01*
X218518Y27975D01*
X218357Y27165D01*
X218518Y26356D01*
X218977Y25670D01*
X219663Y25211D01*
X220472Y25050D01*
X221282Y25211D01*
X221968Y25670D01*
X222427Y26356D01*
X222588Y27165D01*
X222427Y27975D01*
X221968Y28661D01*
X221282Y29120D01*
X220472Y29281D01*
D02*
G37*
G36*
X236221Y29281D02*
X235411Y29120D01*
X234725Y28661D01*
X234266Y27975D01*
X234105Y27165D01*
X234266Y26356D01*
X234725Y25670D01*
X235411Y25211D01*
X236221Y25050D01*
X237030Y25211D01*
X237716Y25670D01*
X238175Y26356D01*
X238336Y27165D01*
X238175Y27975D01*
X237716Y28661D01*
X237030Y29120D01*
X236221Y29281D01*
D02*
G37*
G36*
X228346Y34598D02*
X227034Y34426D01*
X225811Y33919D01*
X224761Y33113D01*
X223955Y32063D01*
X223448Y30840D01*
X223275Y29528D01*
X223448Y28215D01*
X223955Y26992D01*
X224761Y25942D01*
X225811Y25136D01*
X227034Y24629D01*
X228346Y24457D01*
X229659Y24629D01*
X230882Y25136D01*
X231932Y25942D01*
X232738Y26992D01*
X233245Y28215D01*
X233417Y29528D01*
X233245Y30840D01*
X232738Y32063D01*
X231932Y33113D01*
X230882Y33919D01*
X229659Y34426D01*
X228346Y34598D01*
D02*
G37*
G36*
X183071D02*
X181758Y34426D01*
X180535Y33919D01*
X179485Y33113D01*
X178679Y32063D01*
X178173Y30840D01*
X178000Y29528D01*
X178173Y28215D01*
X178679Y26992D01*
X179485Y25942D01*
X180535Y25136D01*
X181758Y24629D01*
X183071Y24457D01*
X184383Y24629D01*
X185606Y25136D01*
X186657Y25942D01*
X187462Y26992D01*
X187969Y28215D01*
X188142Y29528D01*
X187969Y30840D01*
X187462Y32063D01*
X186657Y33113D01*
X185606Y33919D01*
X184383Y34426D01*
X183071Y34598D01*
D02*
G37*
G36*
X253290Y27778D02*
X249781D01*
Y24269D01*
X250819Y24699D01*
X251974Y25585D01*
X252860Y26740D01*
X253290Y27778D01*
D02*
G37*
G36*
X246282D02*
X242773D01*
X243203Y26740D01*
X244089Y25585D01*
X245244Y24699D01*
X246282Y24269D01*
Y27778D01*
D02*
G37*
G36*
X208014D02*
X204506D01*
Y24269D01*
X205543Y24699D01*
X206698Y25585D01*
X207584Y26740D01*
X208014Y27778D01*
D02*
G37*
G36*
X201006D02*
X197498D01*
X197928Y26740D01*
X198814Y25585D01*
X199968Y24699D01*
X201006Y24269D01*
Y27778D01*
D02*
G37*
G36*
X162738D02*
X159230D01*
Y24269D01*
X160268Y24699D01*
X161423Y25585D01*
X162309Y26740D01*
X162738Y27778D01*
D02*
G37*
G36*
X155730D02*
X152222D01*
X152652Y26740D01*
X153538Y25585D01*
X154693Y24699D01*
X155730Y24269D01*
Y27778D01*
D02*
G37*
G36*
X117463D02*
X113955D01*
Y24269D01*
X114992Y24699D01*
X116147Y25585D01*
X117033Y26740D01*
X117463Y27778D01*
D02*
G37*
G36*
X110455D02*
X106947D01*
X107376Y26740D01*
X108262Y25585D01*
X109417Y24699D01*
X110455Y24269D01*
Y27778D01*
D02*
G37*
G36*
X72187D02*
X68679D01*
Y24269D01*
X69717Y24699D01*
X70871Y25585D01*
X71757Y26740D01*
X72187Y27778D01*
D02*
G37*
G36*
X65179D02*
X61671D01*
X62101Y26740D01*
X62987Y25585D01*
X64141Y24699D01*
X65179Y24269D01*
Y27778D01*
D02*
G37*
%LPD*%
G36*
X73627Y145632D02*
X73642Y145599D01*
X73666Y145558D01*
X73701Y145509D01*
X73800Y145388D01*
X73939Y145236D01*
X74117Y145053D01*
X73057Y143993D01*
X72961Y144087D01*
X72552Y144444D01*
X72511Y144469D01*
X72478Y144483D01*
X72453Y144488D01*
X73622Y145658D01*
X73627Y145632D01*
D02*
G37*
G36*
X80582Y130716D02*
X80991Y130359D01*
X81032Y130334D01*
X81065Y130320D01*
X81090Y130315D01*
X79921Y129146D01*
X79917Y129171D01*
X79902Y129204D01*
X79877Y129245D01*
X79843Y129294D01*
X79743Y129415D01*
X79605Y129567D01*
X79426Y129750D01*
X80486Y130810D01*
X80582Y130716D01*
D02*
G37*
G36*
X195162Y117341D02*
X195143Y117353D01*
X195110Y117364D01*
X195065Y117373D01*
X195007Y117382D01*
X194853Y117394D01*
X194526Y117404D01*
X194392Y117404D01*
X194319Y118904D01*
X194453Y118905D01*
X194937Y118937D01*
X194996Y118948D01*
X195043Y118961D01*
X195078Y118976D01*
X195100Y118993D01*
X195162Y117341D01*
D02*
G37*
G36*
X140595Y118956D02*
X140628Y118945D01*
X140673Y118936D01*
X140731Y118927D01*
X140885Y118915D01*
X141212Y118905D01*
X141347Y118904D01*
X141419Y117404D01*
X141286Y117404D01*
X140802Y117373D01*
X140742Y117361D01*
X140695Y117348D01*
X140660Y117333D01*
X140638Y117316D01*
X140576Y118968D01*
X140595Y118956D01*
D02*
G37*
G36*
X126796Y114489D02*
X126783Y114456D01*
X126772Y114409D01*
X126762Y114350D01*
X126746Y114195D01*
X126737Y113989D01*
X126734Y113733D01*
X125234D01*
X125233Y113867D01*
X125197Y114409D01*
X125185Y114456D01*
X125172Y114489D01*
X125157Y114511D01*
X126811D01*
X126796Y114489D01*
D02*
G37*
G36*
X129926Y112561D02*
X129941Y112528D01*
X129965Y112487D01*
X130000Y112438D01*
X130099Y112318D01*
X130238Y112166D01*
X130417Y111983D01*
X129356Y110922D01*
X129261Y111016D01*
X128851Y111373D01*
X128811Y111398D01*
X128777Y111413D01*
X128752Y111417D01*
X129921Y112587D01*
X129926Y112561D01*
D02*
G37*
G36*
X177897Y106653D02*
X177875Y106668D01*
X177841Y106681D01*
X177795Y106693D01*
X177736Y106703D01*
X177581Y106718D01*
X177375Y106727D01*
X177119Y106730D01*
Y108230D01*
X177253Y108231D01*
X177795Y108268D01*
X177841Y108279D01*
X177875Y108292D01*
X177897Y108307D01*
Y106653D01*
D02*
G37*
G36*
X178220Y104732D02*
X178629Y104375D01*
X178670Y104350D01*
X178703Y104335D01*
X178728Y104331D01*
X177559Y103161D01*
X177554Y103187D01*
X177540Y103220D01*
X177515Y103261D01*
X177480Y103310D01*
X177381Y103430D01*
X177242Y103583D01*
X177064Y103766D01*
X178124Y104826D01*
X178220Y104732D01*
D02*
G37*
D54*
X153543Y62598D02*
X233071D01*
X143307Y72835D02*
X153543Y62598D01*
D55*
X139764Y118110D02*
X139808Y118155D01*
X195930D01*
X195974Y118199D01*
X77165Y133071D02*
Y140945D01*
Y133071D02*
X81102Y129134D01*
X72441Y145669D02*
X77165Y140945D01*
X125984Y111811D02*
X132677Y105118D01*
X176772D01*
X125984Y111811D02*
Y115354D01*
X128740Y112598D02*
X133858Y107480D01*
X178740D01*
X176772Y105118D02*
X178740Y103150D01*
D57*
X266732Y67913D02*
D03*
Y52165D02*
D03*
X266772Y36220D02*
D03*
D58*
X276732Y67913D02*
D03*
Y52165D02*
D03*
X276772Y36220D02*
D03*
D59*
X66929Y29528D02*
D03*
X47244D02*
D03*
X29528Y88583D02*
D03*
Y108268D02*
D03*
X137795Y167323D02*
D03*
X157480D02*
D03*
Y29528D02*
D03*
X137795D02*
D03*
X265748Y108268D02*
D03*
Y88583D02*
D03*
X112205Y29528D02*
D03*
X92520D02*
D03*
X202756D02*
D03*
X183071D02*
D03*
X248031D02*
D03*
X228346D02*
D03*
X47244Y167323D02*
D03*
X66929D02*
D03*
X92520D02*
D03*
X112205D02*
D03*
X183071D02*
D03*
X202756D02*
D03*
X228346D02*
D03*
X248031D02*
D03*
D60*
X54331Y47244D02*
D03*
X43307D02*
D03*
X126772Y41732D02*
D03*
X79528D02*
D03*
X109843Y129921D02*
D03*
X105905D02*
D03*
X101969D02*
D03*
X105905Y125984D02*
D03*
X285827Y190551D02*
D03*
Y168504D02*
D03*
Y157480D02*
D03*
Y146457D02*
D03*
Y135433D02*
D03*
Y124409D02*
D03*
Y69291D02*
D03*
Y47244D02*
D03*
Y36220D02*
D03*
Y25197D02*
D03*
X274803Y190551D02*
D03*
Y168504D02*
D03*
Y157480D02*
D03*
Y146457D02*
D03*
Y135433D02*
D03*
Y124409D02*
D03*
Y113386D02*
D03*
Y102362D02*
D03*
Y91338D02*
D03*
Y80315D02*
D03*
X263779Y190551D02*
D03*
Y179527D02*
D03*
Y168504D02*
D03*
Y157480D02*
D03*
Y146457D02*
D03*
Y135433D02*
D03*
Y124409D02*
D03*
Y80315D02*
D03*
Y14173D02*
D03*
X252756Y190551D02*
D03*
Y179527D02*
D03*
Y14173D02*
D03*
X241732Y190551D02*
D03*
Y179527D02*
D03*
Y14173D02*
D03*
X230709Y179527D02*
D03*
Y14173D02*
D03*
X219685Y179527D02*
D03*
Y14173D02*
D03*
X208661Y190551D02*
D03*
Y179527D02*
D03*
Y14173D02*
D03*
X197638Y190551D02*
D03*
Y179527D02*
D03*
Y14173D02*
D03*
X186614Y179527D02*
D03*
Y14173D02*
D03*
X175591Y179527D02*
D03*
Y14173D02*
D03*
X164567Y179527D02*
D03*
Y168504D02*
D03*
Y14173D02*
D03*
X153543Y179527D02*
D03*
Y157480D02*
D03*
Y14173D02*
D03*
X142520Y179527D02*
D03*
Y36220D02*
D03*
Y14173D02*
D03*
X131496Y190551D02*
D03*
Y179527D02*
D03*
Y36220D02*
D03*
Y25197D02*
D03*
Y14173D02*
D03*
X120472Y190551D02*
D03*
Y179527D02*
D03*
Y14173D02*
D03*
X109449Y179527D02*
D03*
Y14173D02*
D03*
X98425Y190551D02*
D03*
Y179527D02*
D03*
Y36220D02*
D03*
Y25197D02*
D03*
Y14173D02*
D03*
X87401Y179527D02*
D03*
Y36220D02*
D03*
Y14173D02*
D03*
X76378Y190551D02*
D03*
Y14173D02*
D03*
X65354Y179527D02*
D03*
Y14173D02*
D03*
X54331Y190551D02*
D03*
Y179527D02*
D03*
Y69291D02*
D03*
Y58268D02*
D03*
Y36220D02*
D03*
Y25197D02*
D03*
Y14173D02*
D03*
X43307Y179527D02*
D03*
Y36220D02*
D03*
Y14173D02*
D03*
X32283Y190551D02*
D03*
Y179527D02*
D03*
Y168504D02*
D03*
Y157480D02*
D03*
Y146457D02*
D03*
Y135433D02*
D03*
Y124409D02*
D03*
Y69291D02*
D03*
Y58268D02*
D03*
Y47244D02*
D03*
Y36220D02*
D03*
Y25197D02*
D03*
Y14173D02*
D03*
X21260Y190551D02*
D03*
Y168504D02*
D03*
Y157480D02*
D03*
Y146457D02*
D03*
Y135433D02*
D03*
Y124409D02*
D03*
Y113386D02*
D03*
Y102362D02*
D03*
Y80315D02*
D03*
Y69291D02*
D03*
Y36220D02*
D03*
Y25197D02*
D03*
X10236Y190551D02*
D03*
Y168504D02*
D03*
Y157480D02*
D03*
Y146457D02*
D03*
Y135433D02*
D03*
Y124409D02*
D03*
Y69291D02*
D03*
Y36220D02*
D03*
Y25197D02*
D03*
X249606Y155118D02*
D03*
Y145669D02*
D03*
Y136221D02*
D03*
Y126772D02*
D03*
Y88976D02*
D03*
Y79528D02*
D03*
X240158Y164567D02*
D03*
Y117323D02*
D03*
X230709D02*
D03*
X221260D02*
D03*
X211811D02*
D03*
X202362D02*
D03*
X192913Y51181D02*
D03*
X183465D02*
D03*
X164567Y41732D02*
D03*
X155118D02*
D03*
X145669D02*
D03*
X136221Y117323D02*
D03*
Y41732D02*
D03*
X126772Y155118D02*
D03*
X117323D02*
D03*
Y41732D02*
D03*
X107874Y155118D02*
D03*
Y41732D02*
D03*
X98425D02*
D03*
X88976D02*
D03*
X79528Y155118D02*
D03*
Y79528D02*
D03*
X70079Y155118D02*
D03*
Y41732D02*
D03*
X60630D02*
D03*
X51181Y155118D02*
D03*
Y145669D02*
D03*
Y136221D02*
D03*
Y126772D02*
D03*
Y117323D02*
D03*
Y107874D02*
D03*
Y98425D02*
D03*
Y88976D02*
D03*
X41732Y155118D02*
D03*
Y145669D02*
D03*
Y136221D02*
D03*
Y126772D02*
D03*
Y117323D02*
D03*
Y107874D02*
D03*
Y98425D02*
D03*
X236221Y27165D02*
D03*
Y31890D02*
D03*
X238189Y72441D02*
D03*
X238189Y67323D02*
D03*
X243307Y72441D02*
D03*
X243307Y67323D02*
D03*
X248425Y72441D02*
D03*
X248425Y67323D02*
D03*
X253543Y72441D02*
D03*
X253543Y67323D02*
D03*
X258661Y72441D02*
D03*
X258661Y67323D02*
D03*
X258661Y62205D02*
D03*
X253543Y62205D02*
D03*
X248425Y62205D02*
D03*
X243307D02*
D03*
X238189D02*
D03*
X238189Y57087D02*
D03*
X243307D02*
D03*
X248425D02*
D03*
X253543Y57087D02*
D03*
X258661Y57087D02*
D03*
X258661Y51968D02*
D03*
X253543Y51968D02*
D03*
X248425Y51968D02*
D03*
X243307D02*
D03*
X238189D02*
D03*
Y41732D02*
D03*
X238189Y46850D02*
D03*
X243307D02*
D03*
X243307Y41732D02*
D03*
X248425Y46850D02*
D03*
X248425Y41732D02*
D03*
X253543Y46850D02*
D03*
X253543Y41732D02*
D03*
X258661Y46850D02*
D03*
X258661Y41732D02*
D03*
X194488Y95669D02*
D03*
X177953D02*
D03*
X62205Y37795D02*
D03*
X71653D02*
D03*
X66929D02*
D03*
X75197Y24803D02*
D03*
Y34252D02*
D03*
Y29528D02*
D03*
X165748D02*
D03*
Y34252D02*
D03*
Y24803D02*
D03*
X157480Y37795D02*
D03*
X162205D02*
D03*
X152756D02*
D03*
X220472Y31890D02*
D03*
Y27165D02*
D03*
Y169685D02*
D03*
Y164961D02*
D03*
X225984Y159449D02*
D03*
X230709D02*
D03*
X236221Y169685D02*
D03*
Y164961D02*
D03*
X180709Y159449D02*
D03*
X185433D02*
D03*
X190945Y169685D02*
D03*
Y164961D02*
D03*
X163386Y151969D02*
D03*
X168504D02*
D03*
X173622D02*
D03*
X217717Y153150D02*
D03*
X212598D02*
D03*
X100394Y164961D02*
D03*
Y169685D02*
D03*
X94882Y159449D02*
D03*
X90158D02*
D03*
X84646Y164961D02*
D03*
Y169685D02*
D03*
X55118Y169685D02*
D03*
Y164961D02*
D03*
X49606Y159449D02*
D03*
X44882D02*
D03*
X200000Y37402D02*
D03*
X205118D02*
D03*
X210236Y37402D02*
D03*
X194882Y37402D02*
D03*
X114567D02*
D03*
X109843D02*
D03*
X185433D02*
D03*
X180709D02*
D03*
X225984D02*
D03*
X230709D02*
D03*
X227165Y45669D02*
D03*
X219291D02*
D03*
X211417D02*
D03*
X181890Y153150D02*
D03*
X187008D02*
D03*
X192126D02*
D03*
X197244D02*
D03*
X202362D02*
D03*
X207480D02*
D03*
X222835D02*
D03*
X227953D02*
D03*
X192126Y58661D02*
D03*
X188189Y57087D02*
D03*
X181890Y148425D02*
D03*
X233071D02*
D03*
Y153150D02*
D03*
X227953Y148425D02*
D03*
X222835D02*
D03*
X217717D02*
D03*
X202362D02*
D03*
X207480D02*
D03*
X212598D02*
D03*
X197244D02*
D03*
X192126D02*
D03*
X187008D02*
D03*
X173622Y142520D02*
D03*
Y137795D02*
D03*
Y133071D02*
D03*
X173622Y147244D02*
D03*
X168504D02*
D03*
X168504Y133071D02*
D03*
Y137795D02*
D03*
Y142520D02*
D03*
X163386Y147244D02*
D03*
X163386Y133071D02*
D03*
Y137795D02*
D03*
Y142520D02*
D03*
X101969Y122047D02*
D03*
X105905D02*
D03*
X109843D02*
D03*
Y125984D02*
D03*
Y118110D02*
D03*
X101969Y125984D02*
D03*
Y118110D02*
D03*
X105905D02*
D03*
X142520Y159055D02*
D03*
X129528Y172047D02*
D03*
X133071Y159055D02*
D03*
X129528Y162598D02*
D03*
Y167323D02*
D03*
X137795Y159055D02*
D03*
X205512Y50000D02*
D03*
X257087Y108268D02*
D03*
Y103543D02*
D03*
X252362Y108268D02*
D03*
Y103543D02*
D03*
X257087Y112992D02*
D03*
X252362D02*
D03*
X192126Y90158D02*
D03*
Y82284D02*
D03*
Y74410D02*
D03*
Y66535D02*
D03*
X188189Y86614D02*
D03*
Y76772D02*
D03*
Y66929D02*
D03*
X72441Y79921D02*
D03*
X42913Y83858D02*
D03*
X61417Y79921D02*
D03*
X38189Y83858D02*
D03*
X42913Y93307D02*
D03*
Y88583D02*
D03*
X38189Y93307D02*
D03*
Y88583D02*
D03*
D61*
X139764Y118110D02*
D03*
X233071Y62598D02*
D03*
X195974Y118199D02*
D03*
X81102Y129134D02*
D03*
X129921Y71260D02*
D03*
Y78740D02*
D03*
X72441Y145669D02*
D03*
X143307Y72835D02*
D03*
X128740Y112598D02*
D03*
X125984Y115354D02*
D03*
X178740Y107480D02*
D03*
Y103150D02*
D03*
M02*
