G04*
G04 #@! TF.GenerationSoftware,Altium Limited,Altium Designer,21.9.2 (33)*
G04*
G04 Layer_Color=16711935*
%FSLAX25Y25*%
%MOIN*%
G70*
G04*
G04 #@! TF.SameCoordinates,4B28BFC6-66F2-4CE6-BA62-AB5105B5E065*
G04*
G04*
G04 #@! TF.FilePolarity,Negative*
G04*
G01*
G75*
%ADD48C,0.00591*%
%ADD49R,0.06528X0.12465*%
%ADD50O,0.06528X0.12465*%
%ADD51C,0.09646*%
D48*
X15748Y15748D02*
D03*
X279528D02*
D03*
X15748Y181102D02*
D03*
X279528D02*
D03*
D49*
X266732Y67913D02*
D03*
Y52165D02*
D03*
X266772Y36220D02*
D03*
D50*
X276732Y67913D02*
D03*
Y52165D02*
D03*
X276772Y36220D02*
D03*
D51*
X66929Y29528D02*
D03*
X47244D02*
D03*
X29528Y88583D02*
D03*
Y108268D02*
D03*
X137795Y167323D02*
D03*
X157480D02*
D03*
Y29528D02*
D03*
X137795D02*
D03*
X265748Y108268D02*
D03*
Y88583D02*
D03*
X112205Y29528D02*
D03*
X92520D02*
D03*
X202756D02*
D03*
X183071D02*
D03*
X248031D02*
D03*
X228346D02*
D03*
X47244Y167323D02*
D03*
X66929D02*
D03*
X92520D02*
D03*
X112205D02*
D03*
X183071D02*
D03*
X202756D02*
D03*
X228346D02*
D03*
X248031D02*
D03*
M02*
