G04*
G04 #@! TF.GenerationSoftware,Altium Limited,Altium Designer,21.5.1 (32)*
G04*
G04 Layer_Color=8388736*
%FSLAX25Y25*%
%MOIN*%
G70*
G04*
G04 #@! TF.SameCoordinates,B42815E3-1C8A-49E7-A1B9-2BA69348AFE0*
G04*
G04*
G04 #@! TF.FilePolarity,Negative*
G04*
G01*
G75*
G04:AMPARAMS|DCode=19|XSize=49.21mil|YSize=45.28mil|CornerRadius=5.91mil|HoleSize=0mil|Usage=FLASHONLY|Rotation=0.000|XOffset=0mil|YOffset=0mil|HoleType=Round|Shape=RoundedRectangle|*
%AMROUNDEDRECTD19*
21,1,0.04921,0.03347,0,0,0.0*
21,1,0.03740,0.04528,0,0,0.0*
1,1,0.01181,0.01870,-0.01673*
1,1,0.01181,-0.01870,-0.01673*
1,1,0.01181,-0.01870,0.01673*
1,1,0.01181,0.01870,0.01673*
%
%ADD19ROUNDEDRECTD19*%
G04:AMPARAMS|DCode=20|XSize=61.02mil|YSize=41.34mil|CornerRadius=5.61mil|HoleSize=0mil|Usage=FLASHONLY|Rotation=180.000|XOffset=0mil|YOffset=0mil|HoleType=Round|Shape=RoundedRectangle|*
%AMROUNDEDRECTD20*
21,1,0.06102,0.03012,0,0,180.0*
21,1,0.04980,0.04134,0,0,180.0*
1,1,0.01122,-0.02490,0.01506*
1,1,0.01122,0.02490,0.01506*
1,1,0.01122,0.02490,-0.01506*
1,1,0.01122,-0.02490,-0.01506*
%
%ADD20ROUNDEDRECTD20*%
G04:AMPARAMS|DCode=21|XSize=49.21mil|YSize=45.28mil|CornerRadius=6.89mil|HoleSize=0mil|Usage=FLASHONLY|Rotation=180.000|XOffset=0mil|YOffset=0mil|HoleType=Round|Shape=RoundedRectangle|*
%AMROUNDEDRECTD21*
21,1,0.04921,0.03150,0,0,180.0*
21,1,0.03543,0.04528,0,0,180.0*
1,1,0.01378,-0.01772,0.01575*
1,1,0.01378,0.01772,0.01575*
1,1,0.01378,0.01772,-0.01575*
1,1,0.01378,-0.01772,-0.01575*
%
%ADD21ROUNDEDRECTD21*%
G04:AMPARAMS|DCode=22|XSize=61.15mil|YSize=33.59mil|CornerRadius=5.92mil|HoleSize=0mil|Usage=FLASHONLY|Rotation=270.000|XOffset=0mil|YOffset=0mil|HoleType=Round|Shape=RoundedRectangle|*
%AMROUNDEDRECTD22*
21,1,0.06115,0.02175,0,0,270.0*
21,1,0.04931,0.03359,0,0,270.0*
1,1,0.01184,-0.01088,-0.02466*
1,1,0.01184,-0.01088,0.02466*
1,1,0.01184,0.01088,0.02466*
1,1,0.01184,0.01088,-0.02466*
%
%ADD22ROUNDEDRECTD22*%
G04:AMPARAMS|DCode=23|XSize=68.9mil|YSize=124.02mil|CornerRadius=7.68mil|HoleSize=0mil|Usage=FLASHONLY|Rotation=90.000|XOffset=0mil|YOffset=0mil|HoleType=Round|Shape=RoundedRectangle|*
%AMROUNDEDRECTD23*
21,1,0.06890,0.10866,0,0,90.0*
21,1,0.05354,0.12402,0,0,90.0*
1,1,0.01535,0.05433,0.02677*
1,1,0.01535,0.05433,-0.02677*
1,1,0.01535,-0.05433,-0.02677*
1,1,0.01535,-0.05433,0.02677*
%
%ADD23ROUNDEDRECTD23*%
G04:AMPARAMS|DCode=24|XSize=34.25mil|YSize=80.71mil|CornerRadius=5.08mil|HoleSize=0mil|Usage=FLASHONLY|Rotation=270.000|XOffset=0mil|YOffset=0mil|HoleType=Round|Shape=RoundedRectangle|*
%AMROUNDEDRECTD24*
21,1,0.03425,0.07055,0,0,270.0*
21,1,0.02410,0.08071,0,0,270.0*
1,1,0.01016,-0.03528,-0.01205*
1,1,0.01016,-0.03528,0.01205*
1,1,0.01016,0.03528,0.01205*
1,1,0.01016,0.03528,-0.01205*
%
%ADD24ROUNDEDRECTD24*%
%ADD25C,0.09646*%
D19*
X57972Y31890D02*
D03*
Y38189D02*
D03*
X65551Y38189D02*
D03*
Y31890D02*
D03*
D20*
X49606Y45571D02*
D03*
Y52067D02*
D03*
X57874Y45571D02*
D03*
Y52067D02*
D03*
X41339D02*
D03*
Y45571D02*
D03*
X48720Y109252D02*
D03*
Y102756D02*
D03*
X72342D02*
D03*
Y109252D02*
D03*
X64468D02*
D03*
Y102756D02*
D03*
X56595Y109252D02*
D03*
Y102756D02*
D03*
D21*
X79921Y48425D02*
D03*
Y54724D02*
D03*
D22*
X73032Y48228D02*
D03*
X69291Y58858D02*
D03*
X65551Y48228D02*
D03*
X69291D02*
D03*
X65551Y58858D02*
D03*
X73032D02*
D03*
D23*
X69291Y70669D02*
D03*
Y92323D02*
D03*
D24*
X31209Y52031D02*
D03*
Y57031D02*
D03*
Y62031D02*
D03*
Y67031D02*
D03*
X8964Y52031D02*
D03*
Y57031D02*
D03*
Y62031D02*
D03*
Y67031D02*
D03*
D25*
X33858Y92913D02*
D03*
X14173D02*
D03*
X33858Y25984D02*
D03*
X14173D02*
D03*
M02*
