G04*
G04 #@! TF.GenerationSoftware,Altium Limited,Altium Designer,21.5.1 (32)*
G04*
G04 Layer_Physical_Order=1*
G04 Layer_Color=255*
%FSLAX25Y25*%
%MOIN*%
G70*
G04*
G04 #@! TF.SameCoordinates,B42815E3-1C8A-49E7-A1B9-2BA69348AFE0*
G04*
G04*
G04 #@! TF.FilePolarity,Positive*
G04*
G01*
G75*
%ADD11C,0.01000*%
G04:AMPARAMS|DCode=13|XSize=43.31mil|YSize=39.37mil|CornerRadius=2.95mil|HoleSize=0mil|Usage=FLASHONLY|Rotation=0.000|XOffset=0mil|YOffset=0mil|HoleType=Round|Shape=RoundedRectangle|*
%AMROUNDEDRECTD13*
21,1,0.04331,0.03347,0,0,0.0*
21,1,0.03740,0.03937,0,0,0.0*
1,1,0.00591,0.01870,-0.01673*
1,1,0.00591,-0.01870,-0.01673*
1,1,0.00591,-0.01870,0.01673*
1,1,0.00591,0.01870,0.01673*
%
%ADD13ROUNDEDRECTD13*%
G04:AMPARAMS|DCode=14|XSize=55.12mil|YSize=35.43mil|CornerRadius=2.66mil|HoleSize=0mil|Usage=FLASHONLY|Rotation=180.000|XOffset=0mil|YOffset=0mil|HoleType=Round|Shape=RoundedRectangle|*
%AMROUNDEDRECTD14*
21,1,0.05512,0.03012,0,0,180.0*
21,1,0.04980,0.03543,0,0,180.0*
1,1,0.00532,-0.02490,0.01506*
1,1,0.00532,0.02490,0.01506*
1,1,0.00532,0.02490,-0.01506*
1,1,0.00532,-0.02490,-0.01506*
%
%ADD14ROUNDEDRECTD14*%
G04:AMPARAMS|DCode=15|XSize=43.31mil|YSize=39.37mil|CornerRadius=3.94mil|HoleSize=0mil|Usage=FLASHONLY|Rotation=180.000|XOffset=0mil|YOffset=0mil|HoleType=Round|Shape=RoundedRectangle|*
%AMROUNDEDRECTD15*
21,1,0.04331,0.03150,0,0,180.0*
21,1,0.03543,0.03937,0,0,180.0*
1,1,0.00787,-0.01772,0.01575*
1,1,0.00787,0.01772,0.01575*
1,1,0.00787,0.01772,-0.01575*
1,1,0.00787,-0.01772,-0.01575*
%
%ADD15ROUNDEDRECTD15*%
G04:AMPARAMS|DCode=16|XSize=53.15mil|YSize=25.59mil|CornerRadius=1.92mil|HoleSize=0mil|Usage=FLASHONLY|Rotation=270.000|XOffset=0mil|YOffset=0mil|HoleType=Round|Shape=RoundedRectangle|*
%AMROUNDEDRECTD16*
21,1,0.05315,0.02175,0,0,270.0*
21,1,0.04931,0.02559,0,0,270.0*
1,1,0.00384,-0.01088,-0.02466*
1,1,0.00384,-0.01088,0.02466*
1,1,0.00384,0.01088,0.02466*
1,1,0.00384,0.01088,-0.02466*
%
%ADD16ROUNDEDRECTD16*%
G04:AMPARAMS|DCode=17|XSize=62.99mil|YSize=118.11mil|CornerRadius=4.72mil|HoleSize=0mil|Usage=FLASHONLY|Rotation=90.000|XOffset=0mil|YOffset=0mil|HoleType=Round|Shape=RoundedRectangle|*
%AMROUNDEDRECTD17*
21,1,0.06299,0.10866,0,0,90.0*
21,1,0.05354,0.11811,0,0,90.0*
1,1,0.00945,0.05433,0.02677*
1,1,0.00945,0.05433,-0.02677*
1,1,0.00945,-0.05433,-0.02677*
1,1,0.00945,-0.05433,0.02677*
%
%ADD17ROUNDEDRECTD17*%
G04:AMPARAMS|DCode=18|XSize=28.35mil|YSize=74.8mil|CornerRadius=2.13mil|HoleSize=0mil|Usage=FLASHONLY|Rotation=270.000|XOffset=0mil|YOffset=0mil|HoleType=Round|Shape=RoundedRectangle|*
%AMROUNDEDRECTD18*
21,1,0.02835,0.07055,0,0,270.0*
21,1,0.02410,0.07480,0,0,270.0*
1,1,0.00425,-0.03528,-0.01205*
1,1,0.00425,-0.03528,0.01205*
1,1,0.00425,0.03528,0.01205*
1,1,0.00425,0.03528,-0.01205*
%
%ADD18ROUNDEDRECTD18*%
%ADD26C,0.02000*%
%ADD27C,0.01500*%
%ADD28C,0.09055*%
%ADD29C,0.02362*%
G36*
X80679Y57901D02*
X80701Y57644D01*
X80739Y57417D01*
X80791Y57221D01*
X80859Y57054D01*
X80941Y56918D01*
X81039Y56813D01*
X81151Y56737D01*
X81279Y56691D01*
X81421Y56676D01*
X78421D01*
X78564Y56691D01*
X78691Y56737D01*
X78804Y56813D01*
X78901Y56918D01*
X78984Y57054D01*
X79051Y57221D01*
X79104Y57417D01*
X79141Y57644D01*
X79164Y57901D01*
X79171Y58188D01*
X80671D01*
X80679Y57901D01*
D02*
G37*
G36*
X76378Y74016D02*
Y68110D01*
X74606Y66338D01*
Y64862D01*
X73524Y63779D01*
X72047D01*
X70866Y62598D01*
Y56595D01*
X70177Y55905D01*
X68405D01*
X67716Y56595D01*
Y62598D01*
X62205Y68110D01*
Y74016D01*
X62992Y74803D01*
X75590D01*
X76378Y74016D01*
D02*
G37*
G36*
X84446Y117291D02*
X84812Y117139D01*
X85142Y116919D01*
X85423Y116638D01*
X85643Y116308D01*
X85795Y115942D01*
X85872Y115553D01*
Y115354D01*
Y3543D01*
Y3345D01*
X85795Y2956D01*
X85643Y2589D01*
X85423Y2259D01*
X85142Y1979D01*
X84812Y1759D01*
X84446Y1607D01*
X84057Y1529D01*
X24644D01*
X24163Y2029D01*
X24163Y48273D01*
X24663Y48671D01*
X61811Y48671D01*
X62194Y48830D01*
X63296Y49932D01*
X63758Y49741D01*
Y45763D01*
X63785Y45626D01*
X63785Y45625D01*
X63786Y45621D01*
X63790Y45601D01*
X63786Y45588D01*
X63797Y45565D01*
X63812Y45493D01*
X63883Y45386D01*
X63887Y45341D01*
X63903Y45310D01*
X63915Y45270D01*
X63932Y45183D01*
X64008Y43924D01*
X64010Y43565D01*
X64022Y43537D01*
Y42191D01*
X64010Y42165D01*
X64001Y41793D01*
X63974Y41481D01*
X63932Y41220D01*
X63877Y41011D01*
X63816Y40857D01*
X63756Y40756D01*
X63705Y40700D01*
X63666Y40673D01*
X63648Y40666D01*
X63579Y40653D01*
X63499Y40644D01*
X63479Y40633D01*
X63371Y40611D01*
X63207Y40502D01*
X63175Y40489D01*
X63172Y40481D01*
X63094Y40449D01*
X63079Y40413D01*
X63046Y40393D01*
X62939Y40253D01*
X62840Y40151D01*
X62728Y40060D01*
X62599Y39979D01*
X62452Y39908D01*
X62284Y39847D01*
X62095Y39797D01*
X61883Y39761D01*
X61762Y39749D01*
X61641Y39761D01*
X61429Y39797D01*
X61239Y39847D01*
X61072Y39908D01*
X60925Y39979D01*
X60796Y40060D01*
X60684Y40151D01*
X60584Y40253D01*
X60478Y40393D01*
X60444Y40413D01*
X60429Y40449D01*
X60340Y40486D01*
X60153Y40611D01*
X59842Y40673D01*
X56102D01*
X55792Y40611D01*
X55529Y40436D01*
X55353Y40172D01*
X55291Y39862D01*
Y36516D01*
X55353Y36206D01*
X55529Y35942D01*
X55792Y35767D01*
X56102Y35705D01*
X59842D01*
X60153Y35767D01*
X60340Y35892D01*
X60429Y35929D01*
X60444Y35965D01*
X60478Y35985D01*
X60585Y36125D01*
X60684Y36227D01*
X60796Y36318D01*
X60925Y36399D01*
X61072Y36470D01*
X61239Y36531D01*
X61429Y36581D01*
X61641Y36617D01*
X61762Y36629D01*
X61883Y36617D01*
X62095Y36581D01*
X62284Y36531D01*
X62452Y36470D01*
X62599Y36399D01*
X62728Y36318D01*
X62840Y36227D01*
X62939Y36125D01*
X63046Y35985D01*
X63079Y35965D01*
X63094Y35929D01*
X63183Y35892D01*
X63371Y35767D01*
X63681Y35705D01*
X67421D01*
X67732Y35767D01*
X67995Y35942D01*
X68170Y36206D01*
X68232Y36516D01*
Y39862D01*
X68170Y40172D01*
X67995Y40436D01*
X67932Y40477D01*
X67927Y40489D01*
X67895Y40502D01*
X67732Y40611D01*
X67624Y40633D01*
X67603Y40644D01*
X67523Y40653D01*
X67455Y40666D01*
X67436Y40673D01*
X67397Y40700D01*
X67347Y40756D01*
X67287Y40857D01*
X67225Y41011D01*
X67171Y41220D01*
X67128Y41481D01*
X67102Y41793D01*
X67092Y42165D01*
X67081Y42191D01*
Y43530D01*
X67092Y43557D01*
X67112Y44552D01*
X67143Y44973D01*
X67295Y45097D01*
X67612Y45285D01*
X67635Y45281D01*
X67697Y45266D01*
X67715Y45257D01*
X67934Y45111D01*
X68204Y45057D01*
X70379D01*
X70649Y45111D01*
X70868Y45257D01*
X70880Y45264D01*
X71161D01*
X71443D01*
X71455Y45257D01*
X71674Y45111D01*
X71944Y45057D01*
X74119D01*
X74389Y45111D01*
X74618Y45264D01*
X74771Y45493D01*
X74825Y45763D01*
Y46840D01*
X74840Y46868D01*
X74848Y46947D01*
X74849Y46950D01*
X74852Y46953D01*
X74871Y46970D01*
X74923Y47003D01*
X75018Y47041D01*
X75157Y47078D01*
X75337Y47108D01*
X75557Y47127D01*
X75828Y47134D01*
X75865Y47151D01*
X76209D01*
X76246Y47134D01*
X76517Y47127D01*
X76737Y47108D01*
X76917Y47078D01*
X77056Y47041D01*
X77151Y47003D01*
X77204Y46970D01*
X77223Y46953D01*
X77225Y46950D01*
X77226Y46947D01*
X77234Y46868D01*
X77238Y46861D01*
Y46850D01*
X77308Y46502D01*
X77505Y46206D01*
X77801Y46009D01*
X78150Y45939D01*
X81693D01*
X82042Y46009D01*
X82337Y46206D01*
X82535Y46502D01*
X82604Y46850D01*
Y50000D01*
X82535Y50349D01*
X82337Y50644D01*
X82042Y50842D01*
X81693Y50911D01*
X78150D01*
X77801Y50842D01*
X77505Y50644D01*
X77308Y50349D01*
X77238Y50000D01*
Y49990D01*
X77234Y49982D01*
X77226Y49904D01*
X77225Y49901D01*
X77223Y49898D01*
X77204Y49880D01*
X77151Y49848D01*
X77056Y49809D01*
X76917Y49772D01*
X76737Y49742D01*
X76517Y49723D01*
X76246Y49716D01*
X76209Y49700D01*
X75865D01*
X75828Y49716D01*
X75557Y49723D01*
X75337Y49742D01*
X75157Y49772D01*
X75018Y49809D01*
X74923Y49848D01*
X74871Y49880D01*
X74852Y49898D01*
X74849Y49901D01*
X74848Y49904D01*
X74840Y49982D01*
X74825Y50011D01*
Y50694D01*
X74771Y50964D01*
X74618Y51193D01*
X74389Y51346D01*
X74119Y51399D01*
X71944D01*
X71802Y51371D01*
X71518Y51585D01*
X71407Y51756D01*
Y54331D01*
X71407Y54331D01*
X71249Y54713D01*
X71249Y54713D01*
X70828Y55134D01*
X70853Y55816D01*
X70879Y55842D01*
X71445Y55894D01*
X71528Y55838D01*
X71674Y55741D01*
X71944Y55687D01*
X72281D01*
Y58858D01*
X73032D01*
Y59608D01*
X74825D01*
Y61052D01*
X75325Y61259D01*
X78624Y57960D01*
X78623Y57932D01*
X78604Y57712D01*
X78574Y57531D01*
X78537Y57393D01*
X78499Y57298D01*
X78466Y57245D01*
X78449Y57226D01*
X78446Y57224D01*
X78443Y57223D01*
X78364Y57215D01*
X78356Y57210D01*
X78150D01*
X77801Y57141D01*
X77505Y56944D01*
X77308Y56648D01*
X77238Y56299D01*
Y53150D01*
X77308Y52801D01*
X77505Y52505D01*
X77801Y52308D01*
X78150Y52238D01*
X81693D01*
X82042Y52308D01*
X82337Y52505D01*
X82535Y52801D01*
X82604Y53150D01*
Y56299D01*
X82535Y56648D01*
X82337Y56944D01*
X82042Y57141D01*
X81693Y57210D01*
X81486D01*
X81478Y57215D01*
X81400Y57223D01*
X81397Y57224D01*
X81394Y57226D01*
X81376Y57245D01*
X81344Y57298D01*
X81305Y57393D01*
X81268Y57531D01*
X81239Y57712D01*
X81219Y57932D01*
X81212Y58202D01*
X81196Y58240D01*
Y58464D01*
X81099Y58952D01*
X80822Y59366D01*
X75147Y65041D01*
Y66114D01*
X76761Y67727D01*
X76761Y67728D01*
X76919Y68110D01*
X76919Y68110D01*
Y74016D01*
X76761Y74398D01*
X76761Y74398D01*
X75973Y75186D01*
X75590Y75344D01*
X75590Y75344D01*
X62992D01*
X62992Y75344D01*
X62609Y75186D01*
X62609Y75186D01*
X61822Y74398D01*
X61664Y74016D01*
X61664Y74016D01*
Y68110D01*
X61822Y67728D01*
X61822Y67728D01*
X63980Y65570D01*
X63788Y65108D01*
X35715Y65108D01*
X35457Y65476D01*
X35419Y65608D01*
X35463Y65826D01*
Y66281D01*
X31208D01*
X26954D01*
Y65826D01*
X26998Y65608D01*
X26960Y65476D01*
X26702Y65108D01*
X24663D01*
X24163Y65506D01*
Y68110D01*
X24005Y68493D01*
X21643Y70855D01*
X21643Y70855D01*
X21260Y71014D01*
X21260Y71014D01*
X1575D01*
X1529Y71044D01*
Y115354D01*
Y115553D01*
X1607Y115942D01*
X1759Y116308D01*
X1979Y116638D01*
X2259Y116919D01*
X2589Y117139D01*
X2956Y117291D01*
X3345Y117368D01*
X84057D01*
X84446Y117291D01*
D02*
G37*
G36*
X66929Y62481D02*
X66639Y62029D01*
X66301D01*
Y58858D01*
Y55687D01*
X66639D01*
X66909Y55741D01*
X67020Y55815D01*
X67716Y55118D01*
X70079Y55118D01*
X70866Y54331D01*
Y51756D01*
X70379Y51399D01*
X70041D01*
Y48228D01*
X68541D01*
Y51399D01*
X68204D01*
X67934Y51346D01*
X67705Y51193D01*
X67187Y51317D01*
X66929Y51575D01*
X64173Y51575D01*
X61811Y49213D01*
X24409Y49213D01*
Y64567D01*
X64844Y64567D01*
X66929Y62481D01*
D02*
G37*
G36*
X77772Y46925D02*
X77757Y47068D01*
X77712Y47195D01*
X77636Y47308D01*
X77530Y47405D01*
X77394Y47488D01*
X77228Y47555D01*
X77032Y47608D01*
X76805Y47645D01*
X76548Y47668D01*
X76260Y47675D01*
Y49175D01*
X76548Y49183D01*
X76805Y49205D01*
X77032Y49243D01*
X77228Y49295D01*
X77394Y49363D01*
X77530Y49445D01*
X77636Y49543D01*
X77712Y49655D01*
X77757Y49783D01*
X77772Y49925D01*
Y46925D01*
D02*
G37*
G36*
X74317Y49783D02*
X74362Y49655D01*
X74438Y49543D01*
X74544Y49445D01*
X74680Y49363D01*
X74846Y49295D01*
X75043Y49243D01*
X75270Y49205D01*
X75527Y49183D01*
X75814Y49175D01*
Y47675D01*
X75527Y47668D01*
X75270Y47645D01*
X75043Y47608D01*
X74846Y47555D01*
X74680Y47488D01*
X74544Y47405D01*
X74438Y47308D01*
X74362Y47195D01*
X74317Y47068D01*
X74302Y46925D01*
Y49925D01*
X74317Y49783D01*
D02*
G37*
G36*
X66734Y45588D02*
X66695Y45513D01*
X66662Y45401D01*
X66632Y45251D01*
X66607Y45064D01*
X66571Y44578D01*
X66551Y43568D01*
X64551D01*
X64549Y43942D01*
X64470Y45251D01*
X64441Y45401D01*
X64407Y45513D01*
X64369Y45588D01*
X64326Y45625D01*
X66777D01*
X66734Y45588D01*
D02*
G37*
G36*
X66561Y41763D02*
X66591Y41415D01*
X66641Y41108D01*
X66710Y40842D01*
X66799Y40617D01*
X66909Y40433D01*
X67038Y40290D01*
X67187Y40188D01*
X67356Y40126D01*
X67545Y40106D01*
X63558D01*
X63747Y40126D01*
X63915Y40188D01*
X64064Y40290D01*
X64194Y40433D01*
X64303Y40617D01*
X64392Y40842D01*
X64462Y41108D01*
X64512Y41415D01*
X64541Y41763D01*
X64551Y42151D01*
X66551D01*
X66561Y41763D01*
D02*
G37*
G36*
X63477Y36312D02*
X63350Y36478D01*
X63206Y36627D01*
X63043Y36759D01*
X62862Y36873D01*
X62663Y36970D01*
X62445Y37049D01*
X62209Y37110D01*
X61955Y37154D01*
X61762Y37173D01*
X61568Y37154D01*
X61314Y37110D01*
X61079Y37049D01*
X60861Y36970D01*
X60662Y36873D01*
X60481Y36759D01*
X60318Y36627D01*
X60173Y36478D01*
X60047Y36312D01*
Y40066D01*
X60173Y39900D01*
X60318Y39750D01*
X60481Y39619D01*
X60662Y39505D01*
X60861Y39408D01*
X61079Y39329D01*
X61314Y39268D01*
X61568Y39224D01*
X61762Y39205D01*
X61955Y39224D01*
X62209Y39268D01*
X62445Y39329D01*
X62663Y39408D01*
X62862Y39505D01*
X63043Y39619D01*
X63206Y39750D01*
X63350Y39900D01*
X63477Y40066D01*
Y36312D01*
D02*
G37*
G36*
X23622Y68110D02*
X23622Y1575D01*
X3937D01*
X1575Y3937D01*
Y70472D01*
X21260D01*
X23622Y68110D01*
D02*
G37*
%LPC*%
G36*
X74833Y111539D02*
X73093D01*
Y110002D01*
X75613D01*
Y110758D01*
X75554Y111057D01*
X75385Y111310D01*
X75131Y111479D01*
X74833Y111539D01*
D02*
G37*
G36*
X71592D02*
X69852D01*
X69554Y111479D01*
X69300Y111310D01*
X69131Y111057D01*
X69072Y110758D01*
Y110002D01*
X71592D01*
Y111539D01*
D02*
G37*
G36*
X66959D02*
X65219D01*
Y110002D01*
X67739D01*
Y110758D01*
X67680Y111057D01*
X67511Y111310D01*
X67257Y111479D01*
X66959Y111539D01*
D02*
G37*
G36*
X63718D02*
X61978D01*
X61680Y111479D01*
X61426Y111310D01*
X61257Y111057D01*
X61198Y110758D01*
Y110002D01*
X63718D01*
Y111539D01*
D02*
G37*
G36*
X59085D02*
X57345D01*
Y110002D01*
X59865D01*
Y110758D01*
X59806Y111057D01*
X59637Y111310D01*
X59383Y111479D01*
X59085Y111539D01*
D02*
G37*
G36*
X55844D02*
X54104D01*
X53806Y111479D01*
X53552Y111310D01*
X53383Y111057D01*
X53324Y110758D01*
Y110002D01*
X55844D01*
Y111539D01*
D02*
G37*
G36*
X51211D02*
X49470D01*
Y110002D01*
X51991D01*
Y110758D01*
X51932Y111057D01*
X51763Y111310D01*
X51509Y111479D01*
X51211Y111539D01*
D02*
G37*
G36*
X47971D02*
X46230D01*
X45932Y111479D01*
X45678Y111310D01*
X45509Y111057D01*
X45450Y110758D01*
Y110002D01*
X47971D01*
Y111539D01*
D02*
G37*
G36*
X75613Y108502D02*
X73093D01*
Y106965D01*
X74833D01*
X75131Y107025D01*
X75385Y107194D01*
X75554Y107447D01*
X75613Y107746D01*
Y108502D01*
D02*
G37*
G36*
X71592D02*
X69072D01*
Y107746D01*
X69131Y107447D01*
X69300Y107194D01*
X69554Y107025D01*
X69852Y106965D01*
X71592D01*
Y108502D01*
D02*
G37*
G36*
X67739D02*
X65219D01*
Y106965D01*
X66959D01*
X67257Y107025D01*
X67511Y107194D01*
X67680Y107447D01*
X67739Y107746D01*
Y108502D01*
D02*
G37*
G36*
X63718D02*
X61198D01*
Y107746D01*
X61257Y107447D01*
X61426Y107194D01*
X61680Y107025D01*
X61978Y106965D01*
X63718D01*
Y108502D01*
D02*
G37*
G36*
X59865D02*
X57345D01*
Y106965D01*
X59085D01*
X59383Y107025D01*
X59637Y107194D01*
X59806Y107447D01*
X59865Y107746D01*
Y108502D01*
D02*
G37*
G36*
X55844D02*
X53324D01*
Y107746D01*
X53383Y107447D01*
X53552Y107194D01*
X53806Y107025D01*
X54104Y106965D01*
X55844D01*
Y108502D01*
D02*
G37*
G36*
X51991D02*
X49470D01*
Y106965D01*
X51211D01*
X51509Y107025D01*
X51763Y107194D01*
X51932Y107447D01*
X51991Y107746D01*
Y108502D01*
D02*
G37*
G36*
X47971D02*
X45450D01*
Y107746D01*
X45509Y107447D01*
X45678Y107194D01*
X45932Y107025D01*
X46230Y106965D01*
X47971D01*
Y108502D01*
D02*
G37*
G36*
X15173Y98357D02*
Y93913D01*
X19617D01*
X19558Y94356D01*
X19002Y95701D01*
X18115Y96856D01*
X16961Y97742D01*
X15616Y98299D01*
X15173Y98357D01*
D02*
G37*
G36*
X13173D02*
X12730Y98299D01*
X11386Y97742D01*
X10231Y96856D01*
X9345Y95701D01*
X8788Y94356D01*
X8730Y93913D01*
X13173D01*
Y98357D01*
D02*
G37*
G36*
Y91913D02*
X8730D01*
X8788Y91470D01*
X9345Y90126D01*
X10231Y88971D01*
X11386Y88085D01*
X12730Y87528D01*
X13173Y87470D01*
Y91913D01*
D02*
G37*
G36*
X19617D02*
X15173D01*
Y87470D01*
X15616Y87528D01*
X16961Y88085D01*
X18115Y88971D01*
X19002Y90126D01*
X19558Y91470D01*
X19617Y91913D01*
D02*
G37*
G36*
X45581Y106447D02*
X29134D01*
X28751Y106288D01*
X28751Y106288D01*
X26389Y103926D01*
X26230Y103543D01*
X26230Y103543D01*
X26230Y88976D01*
X26389Y88594D01*
X29539Y85444D01*
X29921Y85286D01*
X29921Y85286D01*
X74410Y85286D01*
X74792Y85444D01*
X74792Y85444D01*
X77942Y88594D01*
X78100Y88976D01*
X78100Y88976D01*
X78100Y103543D01*
X78100Y103543D01*
X77942Y103926D01*
X76964Y104903D01*
X76841Y104954D01*
X76739Y105039D01*
X76657Y105031D01*
X76582Y105062D01*
X76459Y105011D01*
X76326Y104998D01*
X75866Y104752D01*
X75417Y104810D01*
X75308Y104865D01*
X75131Y104983D01*
X74833Y105043D01*
X69852D01*
X69554Y104983D01*
X69300Y104814D01*
X69131Y104561D01*
X69072Y104262D01*
Y101683D01*
X68891Y101449D01*
X68656Y101297D01*
X68155D01*
X67920Y101449D01*
X67739Y101683D01*
Y104262D01*
X67680Y104561D01*
X67511Y104814D01*
X67257Y104983D01*
X66959Y105043D01*
X61978D01*
X61680Y104983D01*
X61426Y104814D01*
X61257Y104561D01*
X61198Y104262D01*
Y101683D01*
X61017Y101449D01*
X60782Y101297D01*
X60281D01*
X60046Y101449D01*
X59865Y101683D01*
Y104262D01*
X59806Y104561D01*
X59637Y104814D01*
X59383Y104983D01*
X59085Y105043D01*
X54104D01*
X53806Y104983D01*
X53552Y104814D01*
X53383Y104561D01*
X53324Y104262D01*
Y101683D01*
X53143Y101449D01*
X52908Y101297D01*
X52407D01*
X52172Y101449D01*
X51991Y101683D01*
Y104262D01*
X51932Y104561D01*
X51763Y104814D01*
X51509Y104983D01*
X51211Y105043D01*
X46614D01*
X46413Y105166D01*
X46205Y105432D01*
X46200Y105520D01*
X46188Y105738D01*
X46155Y105809D01*
X46159Y105887D01*
X46092Y106082D01*
X46010Y106174D01*
X45963Y106288D01*
X45878Y106323D01*
X45817Y106392D01*
X45694Y106400D01*
X45581Y106447D01*
D02*
G37*
G36*
X34736Y68962D02*
X31958D01*
Y67781D01*
X35463D01*
Y68235D01*
X35407Y68514D01*
X35250Y68749D01*
X35014Y68907D01*
X34736Y68962D01*
D02*
G37*
G36*
X30458D02*
X27681D01*
X27403Y68907D01*
X27167Y68749D01*
X27010Y68514D01*
X26954Y68235D01*
Y67781D01*
X30458D01*
Y68962D01*
D02*
G37*
G36*
X74825Y58108D02*
X73782D01*
Y55687D01*
X74119D01*
X74389Y55741D01*
X74618Y55894D01*
X74771Y56123D01*
X74825Y56393D01*
Y58108D01*
D02*
G37*
G36*
X60364Y47857D02*
X58624D01*
Y46321D01*
X61145D01*
Y47077D01*
X61085Y47376D01*
X60916Y47629D01*
X60663Y47798D01*
X60364Y47857D01*
D02*
G37*
G36*
X52096D02*
X50356D01*
Y46321D01*
X52877D01*
Y47077D01*
X52818Y47376D01*
X52649Y47629D01*
X52395Y47798D01*
X52096Y47857D01*
D02*
G37*
G36*
X43829D02*
X42089D01*
Y46321D01*
X44609D01*
Y47077D01*
X44550Y47376D01*
X44381Y47629D01*
X44128Y47798D01*
X43829Y47857D01*
D02*
G37*
G36*
X48856D02*
X47116D01*
X46817Y47798D01*
X46564Y47629D01*
X46395Y47376D01*
X46335Y47077D01*
Y46321D01*
X48856D01*
Y47857D01*
D02*
G37*
G36*
X40589D02*
X38848D01*
X38550Y47798D01*
X38296Y47629D01*
X38127Y47376D01*
X38068Y47077D01*
Y46321D01*
X40589D01*
Y47857D01*
D02*
G37*
G36*
X57124D02*
X55384D01*
X55085Y47798D01*
X54832Y47629D01*
X54663Y47376D01*
X54603Y47077D01*
Y46321D01*
X57124D01*
Y47857D01*
D02*
G37*
G36*
X61145Y44821D02*
X58624D01*
Y43284D01*
X60364D01*
X60663Y43344D01*
X60916Y43513D01*
X61085Y43766D01*
X61145Y44065D01*
Y44821D01*
D02*
G37*
G36*
X57124D02*
X54603D01*
Y44065D01*
X54663Y43766D01*
X54832Y43513D01*
X55085Y43344D01*
X55384Y43284D01*
X57124D01*
Y44821D01*
D02*
G37*
G36*
X52877D02*
X50356D01*
Y43284D01*
X52096D01*
X52395Y43344D01*
X52649Y43513D01*
X52818Y43766D01*
X52877Y44065D01*
Y44821D01*
D02*
G37*
G36*
X48856D02*
X46335D01*
Y44065D01*
X46395Y43766D01*
X46564Y43513D01*
X46817Y43344D01*
X47116Y43284D01*
X48856D01*
Y44821D01*
D02*
G37*
G36*
X44609D02*
X42089D01*
Y43284D01*
X43829D01*
X44128Y43344D01*
X44381Y43513D01*
X44550Y43766D01*
X44609Y44065D01*
Y44821D01*
D02*
G37*
G36*
X40589D02*
X38068D01*
Y44065D01*
X38127Y43766D01*
X38296Y43513D01*
X38550Y43344D01*
X38848Y43284D01*
X40589D01*
Y44821D01*
D02*
G37*
G36*
X59842Y34374D02*
X56102D01*
X55792Y34312D01*
X55604Y34187D01*
X55515Y34150D01*
X55500Y34113D01*
X55466Y34092D01*
X55352Y33941D01*
X55245Y33829D01*
X55127Y33730D01*
X54995Y33643D01*
X54847Y33567D01*
X54681Y33503D01*
X54495Y33452D01*
X54289Y33414D01*
X54061Y33390D01*
X53796Y33382D01*
X53771Y33370D01*
X51844D01*
X51837Y33375D01*
X51181Y33505D01*
X50525Y33375D01*
X49969Y33003D01*
X49597Y32447D01*
X49467Y31791D01*
X49597Y31135D01*
X49969Y30579D01*
X50525Y30208D01*
X51181Y30077D01*
X51837Y30208D01*
X51992Y30311D01*
X53772D01*
X53798Y30300D01*
X54078Y30292D01*
X54320Y30270D01*
X54537Y30235D01*
X54730Y30188D01*
X54900Y30130D01*
X55046Y30063D01*
X55171Y29988D01*
X55278Y29904D01*
X55369Y29813D01*
X55468Y29683D01*
X55501Y29664D01*
X55515Y29630D01*
X55604Y29593D01*
X55792Y29467D01*
X56102Y29406D01*
X59842D01*
X60153Y29467D01*
X60416Y29643D01*
X60592Y29906D01*
X60653Y30217D01*
Y33563D01*
X60592Y33873D01*
X60416Y34136D01*
X60153Y34312D01*
X59842Y34374D01*
D02*
G37*
G36*
X67421Y34374D02*
X66301D01*
Y32640D01*
X68232D01*
Y33563D01*
X68170Y33873D01*
X67995Y34136D01*
X67732Y34312D01*
X67421Y34374D01*
D02*
G37*
G36*
X64801D02*
X63681D01*
X63371Y34312D01*
X63108Y34136D01*
X62932Y33873D01*
X62870Y33563D01*
Y32640D01*
X64801D01*
Y34374D01*
D02*
G37*
G36*
X68232Y31140D02*
X66301D01*
Y29406D01*
X67421D01*
X67732Y29467D01*
X67995Y29643D01*
X68170Y29906D01*
X68232Y30217D01*
Y31140D01*
D02*
G37*
G36*
X64801D02*
X62870D01*
Y30217D01*
X62932Y29906D01*
X63108Y29643D01*
X63371Y29467D01*
X63681Y29406D01*
X64801D01*
Y31140D01*
D02*
G37*
G36*
X34858Y31428D02*
Y26984D01*
X39302D01*
X39244Y27427D01*
X38687Y28772D01*
X37801Y29926D01*
X36646Y30813D01*
X35301Y31370D01*
X34858Y31428D01*
D02*
G37*
G36*
X32858D02*
X32415Y31370D01*
X31071Y30813D01*
X29916Y29926D01*
X29030Y28772D01*
X28473Y27427D01*
X28415Y26984D01*
X32858D01*
Y31428D01*
D02*
G37*
G36*
X39302Y24984D02*
X34858D01*
Y20541D01*
X35301Y20599D01*
X36646Y21156D01*
X37801Y22042D01*
X38687Y23197D01*
X39244Y24541D01*
X39302Y24984D01*
D02*
G37*
G36*
X32858D02*
X28415D01*
X28473Y24541D01*
X29030Y23197D01*
X29916Y22042D01*
X31071Y21156D01*
X32415Y20599D01*
X32858Y20541D01*
Y24984D01*
D02*
G37*
%LPD*%
G36*
X45648Y105710D02*
X45664Y105405D01*
X45318Y105174D01*
X45038Y104756D01*
X44940Y104262D01*
Y104006D01*
X48720D01*
Y102756D01*
X49970D01*
Y99959D01*
X51211D01*
X51705Y100058D01*
X52123Y100338D01*
X52402Y100755D01*
X52407Y100756D01*
X52908D01*
X52913Y100755D01*
X53192Y100338D01*
X53610Y100058D01*
X54104Y99959D01*
X55344D01*
Y102756D01*
X57845D01*
Y99959D01*
X59085D01*
X59579Y100058D01*
X59997Y100338D01*
X60276Y100755D01*
X60281Y100756D01*
X60782D01*
X60787Y100755D01*
X61066Y100338D01*
X61484Y100058D01*
X61978Y99959D01*
X63218D01*
Y102756D01*
X65719D01*
Y99959D01*
X66959D01*
X67453Y100058D01*
X67871Y100338D01*
X68150Y100755D01*
X68155Y100756D01*
X68656D01*
X68661Y100755D01*
X68940Y100338D01*
X69358Y100058D01*
X69852Y99959D01*
X71092D01*
Y102756D01*
X72342D01*
Y104006D01*
X76123D01*
Y104262D01*
X76121Y104274D01*
X76582Y104521D01*
X77559Y103543D01*
X77559Y88976D01*
X74410Y85827D01*
X29921Y85827D01*
X26772Y88976D01*
X26772Y103543D01*
X29134Y105905D01*
X45581D01*
X45648Y105710D01*
D02*
G37*
%LPC*%
G36*
X76123Y101506D02*
X73593D01*
Y99959D01*
X74833D01*
X75327Y100058D01*
X75745Y100338D01*
X76025Y100756D01*
X76123Y101250D01*
Y101506D01*
D02*
G37*
G36*
X47471D02*
X44940D01*
Y101250D01*
X45038Y100756D01*
X45318Y100338D01*
X45737Y100058D01*
X46230Y99959D01*
X47471D01*
Y101506D01*
D02*
G37*
G36*
X34858Y98368D02*
Y93913D01*
X39313D01*
X39009Y95047D01*
X38281Y96307D01*
X37252Y97337D01*
X35992Y98064D01*
X34858Y98368D01*
D02*
G37*
G36*
X32858Y98368D02*
X31725Y98064D01*
X30464Y97337D01*
X29435Y96307D01*
X28707Y95047D01*
X28404Y93913D01*
X32858D01*
Y98368D01*
D02*
G37*
G36*
X74724Y96501D02*
X70541D01*
Y93573D01*
X76226D01*
Y95000D01*
X76111Y95574D01*
X75786Y96062D01*
X75299Y96387D01*
X74724Y96501D01*
D02*
G37*
G36*
X68041D02*
X63858D01*
X63284Y96387D01*
X62797Y96062D01*
X62471Y95574D01*
X62357Y95000D01*
Y93573D01*
X68041D01*
Y96501D01*
D02*
G37*
G36*
X76226Y91073D02*
X70541D01*
Y88144D01*
X74724D01*
X75299Y88259D01*
X75786Y88584D01*
X76111Y89071D01*
X76226Y89646D01*
Y91073D01*
D02*
G37*
G36*
X68041D02*
X62357D01*
Y89646D01*
X62471Y89071D01*
X62797Y88584D01*
X63284Y88259D01*
X63858Y88144D01*
X68041D01*
Y91073D01*
D02*
G37*
G36*
X32858Y91913D02*
X28404D01*
X28707Y90780D01*
X29435Y89519D01*
X30464Y88490D01*
X31725Y87762D01*
X32858Y87459D01*
Y91913D01*
D02*
G37*
G36*
X39313D02*
X34858D01*
Y87459D01*
X35992Y87762D01*
X37252Y88490D01*
X38281Y89519D01*
X39009Y90780D01*
X39313Y91913D01*
D02*
G37*
%LPD*%
G36*
X55898Y30012D02*
X55778Y30170D01*
X55638Y30310D01*
X55478Y30435D01*
X55299Y30542D01*
X55100Y30634D01*
X54882Y30708D01*
X54644Y30766D01*
X54387Y30807D01*
X54110Y30832D01*
X53813Y30841D01*
Y32841D01*
X54098Y32850D01*
X54366Y32878D01*
X54617Y32924D01*
X54851Y32989D01*
X55067Y33072D01*
X55267Y33174D01*
X55450Y33295D01*
X55617Y33434D01*
X55766Y33591D01*
X55898Y33767D01*
Y30012D01*
D02*
G37*
%LPC*%
G36*
X34736Y63962D02*
X31958D01*
Y62781D01*
X35463D01*
Y63235D01*
X35407Y63513D01*
X35250Y63749D01*
X35014Y63907D01*
X34736Y63962D01*
D02*
G37*
G36*
X30458D02*
X27681D01*
X27403Y63907D01*
X27167Y63749D01*
X27010Y63513D01*
X26954Y63235D01*
Y62781D01*
X30458D01*
Y63962D01*
D02*
G37*
G36*
X35463Y61281D02*
X31958D01*
Y60100D01*
X34736D01*
X35014Y60155D01*
X35250Y60312D01*
X35407Y60548D01*
X35463Y60826D01*
Y61281D01*
D02*
G37*
G36*
X30458D02*
X26954D01*
Y60826D01*
X27010Y60548D01*
X27167Y60312D01*
X27403Y60155D01*
X27681Y60100D01*
X30458D01*
Y61281D01*
D02*
G37*
G36*
X64801Y62029D02*
X64464D01*
X64194Y61976D01*
X63965Y61823D01*
X63812Y61594D01*
X63758Y61324D01*
Y59608D01*
X64801D01*
Y62029D01*
D02*
G37*
G36*
X34736Y58962D02*
X31958D01*
Y57781D01*
X35463D01*
Y58236D01*
X35407Y58513D01*
X35250Y58749D01*
X35014Y58907D01*
X34736Y58962D01*
D02*
G37*
G36*
X30458D02*
X27681D01*
X27403Y58907D01*
X27167Y58749D01*
X27010Y58513D01*
X26954Y58236D01*
Y57781D01*
X30458D01*
Y58962D01*
D02*
G37*
G36*
X64801Y58108D02*
X63758D01*
Y56393D01*
X63812Y56123D01*
X63965Y55894D01*
X64194Y55741D01*
X64464Y55687D01*
X64801D01*
Y58108D01*
D02*
G37*
G36*
X35463Y56281D02*
X31958D01*
Y55099D01*
X34736D01*
X35014Y55155D01*
X35250Y55312D01*
X35407Y55548D01*
X35463Y55826D01*
Y56281D01*
D02*
G37*
G36*
X30458D02*
X26954D01*
Y55826D01*
X27010Y55548D01*
X27167Y55312D01*
X27403Y55155D01*
X27681Y55099D01*
X30458D01*
Y56281D01*
D02*
G37*
G36*
X60364Y54354D02*
X58624D01*
Y52817D01*
X61145D01*
Y53573D01*
X61085Y53872D01*
X60916Y54125D01*
X60663Y54294D01*
X60364Y54354D01*
D02*
G37*
G36*
X52096D02*
X50356D01*
Y52817D01*
X52877D01*
Y53573D01*
X52818Y53872D01*
X52649Y54125D01*
X52395Y54294D01*
X52096Y54354D01*
D02*
G37*
G36*
X43829D02*
X42089D01*
Y52817D01*
X44609D01*
Y53573D01*
X44550Y53872D01*
X44381Y54125D01*
X44128Y54294D01*
X43829Y54354D01*
D02*
G37*
G36*
X48856D02*
X47116D01*
X46817Y54294D01*
X46564Y54125D01*
X46395Y53872D01*
X46335Y53573D01*
Y52817D01*
X48856D01*
Y54354D01*
D02*
G37*
G36*
X40589D02*
X38848D01*
X38550Y54294D01*
X38296Y54125D01*
X38127Y53872D01*
X38068Y53573D01*
Y52817D01*
X40589D01*
Y54354D01*
D02*
G37*
G36*
X57124D02*
X55384D01*
X55085Y54294D01*
X54832Y54125D01*
X54663Y53872D01*
X54603Y53573D01*
Y52817D01*
X57124D01*
Y54354D01*
D02*
G37*
G36*
X34736Y53962D02*
X31958D01*
Y52781D01*
X35463D01*
Y53236D01*
X35407Y53513D01*
X35250Y53749D01*
X35014Y53907D01*
X34736Y53962D01*
D02*
G37*
G36*
X30458D02*
X27681D01*
X27403Y53907D01*
X27167Y53749D01*
X27010Y53513D01*
X26954Y53236D01*
Y52781D01*
X30458D01*
Y53962D01*
D02*
G37*
G36*
X35463Y51281D02*
X31958D01*
Y50099D01*
X34736D01*
X35014Y50155D01*
X35250Y50312D01*
X35407Y50548D01*
X35463Y50826D01*
Y51281D01*
D02*
G37*
G36*
X30458D02*
X26954D01*
Y50826D01*
X27010Y50548D01*
X27167Y50312D01*
X27403Y50155D01*
X27681Y50099D01*
X30458D01*
Y51281D01*
D02*
G37*
G36*
X61145Y51317D02*
X58624D01*
Y49780D01*
X60364D01*
X60663Y49840D01*
X60916Y50009D01*
X61085Y50262D01*
X61145Y50561D01*
Y51317D01*
D02*
G37*
G36*
X57124D02*
X54603D01*
Y50561D01*
X54663Y50262D01*
X54832Y50009D01*
X55085Y49840D01*
X55384Y49780D01*
X57124D01*
Y51317D01*
D02*
G37*
G36*
X52877D02*
X50356D01*
Y49780D01*
X52096D01*
X52395Y49840D01*
X52649Y50009D01*
X52818Y50262D01*
X52877Y50561D01*
Y51317D01*
D02*
G37*
G36*
X48856D02*
X46335D01*
Y50561D01*
X46395Y50262D01*
X46564Y50009D01*
X46817Y49840D01*
X47116Y49780D01*
X48856D01*
Y51317D01*
D02*
G37*
G36*
X44609D02*
X42089D01*
Y49780D01*
X43829D01*
X44128Y49840D01*
X44381Y50009D01*
X44550Y50262D01*
X44609Y50561D01*
Y51317D01*
D02*
G37*
G36*
X40589D02*
X38068D01*
Y50561D01*
X38127Y50262D01*
X38296Y50009D01*
X38550Y49840D01*
X38848Y49780D01*
X40589D01*
Y51317D01*
D02*
G37*
G36*
X12492Y68962D02*
X9714D01*
Y67781D01*
X13218D01*
Y68235D01*
X13163Y68514D01*
X13006Y68749D01*
X12770Y68907D01*
X12492Y68962D01*
D02*
G37*
G36*
X8214D02*
X5437D01*
X5159Y68907D01*
X4923Y68749D01*
X4766Y68514D01*
X4710Y68235D01*
Y67781D01*
X8214D01*
Y68962D01*
D02*
G37*
G36*
X13218Y66281D02*
X9714D01*
Y65100D01*
X12492D01*
X12770Y65155D01*
X13006Y65312D01*
X13163Y65548D01*
X13218Y65826D01*
Y66281D01*
D02*
G37*
G36*
X8214D02*
X4710D01*
Y65826D01*
X4766Y65548D01*
X4923Y65312D01*
X5159Y65155D01*
X5437Y65100D01*
X8214D01*
Y66281D01*
D02*
G37*
G36*
X12492Y63962D02*
X9714D01*
Y62781D01*
X13218D01*
Y63235D01*
X13163Y63513D01*
X13006Y63749D01*
X12770Y63907D01*
X12492Y63962D01*
D02*
G37*
G36*
X8214D02*
X5437D01*
X5159Y63907D01*
X4923Y63749D01*
X4766Y63513D01*
X4710Y63235D01*
Y62781D01*
X8214D01*
Y63962D01*
D02*
G37*
G36*
X13218Y61281D02*
X9714D01*
Y60100D01*
X12492D01*
X12770Y60155D01*
X13006Y60312D01*
X13163Y60548D01*
X13218Y60826D01*
Y61281D01*
D02*
G37*
G36*
X8214D02*
X4710D01*
Y60826D01*
X4766Y60548D01*
X4923Y60312D01*
X5159Y60155D01*
X5437Y60100D01*
X8214D01*
Y61281D01*
D02*
G37*
G36*
X12492Y58962D02*
X9714D01*
Y57781D01*
X13218D01*
Y58236D01*
X13163Y58513D01*
X13006Y58749D01*
X12770Y58907D01*
X12492Y58962D01*
D02*
G37*
G36*
X8214D02*
X5437D01*
X5159Y58907D01*
X4923Y58749D01*
X4766Y58513D01*
X4710Y58236D01*
Y57781D01*
X8214D01*
Y58962D01*
D02*
G37*
G36*
X13218Y56281D02*
X9714D01*
Y55099D01*
X12492D01*
X12770Y55155D01*
X13006Y55312D01*
X13163Y55548D01*
X13218Y55826D01*
Y56281D01*
D02*
G37*
G36*
X8214D02*
X4710D01*
Y55826D01*
X4766Y55548D01*
X4923Y55312D01*
X5159Y55155D01*
X5437Y55099D01*
X8214D01*
Y56281D01*
D02*
G37*
G36*
X12492Y53962D02*
X9714D01*
Y52781D01*
X13218D01*
Y53236D01*
X13163Y53513D01*
X13006Y53749D01*
X12770Y53907D01*
X12492Y53962D01*
D02*
G37*
G36*
X8214D02*
X5437D01*
X5159Y53907D01*
X4923Y53749D01*
X4766Y53513D01*
X4710Y53236D01*
Y52781D01*
X8214D01*
Y53962D01*
D02*
G37*
G36*
X13218Y51281D02*
X9714D01*
Y50099D01*
X12492D01*
X12770Y50155D01*
X13006Y50312D01*
X13163Y50548D01*
X13218Y50826D01*
Y51281D01*
D02*
G37*
G36*
X8214D02*
X4710D01*
Y50826D01*
X4766Y50548D01*
X4923Y50312D01*
X5159Y50155D01*
X5437Y50099D01*
X8214D01*
Y51281D01*
D02*
G37*
G36*
X15173Y31439D02*
Y26984D01*
X19628D01*
X19324Y28118D01*
X18596Y29378D01*
X17567Y30407D01*
X16307Y31135D01*
X15173Y31439D01*
D02*
G37*
G36*
X13173D02*
X12040Y31135D01*
X10779Y30407D01*
X9750Y29378D01*
X9022Y28118D01*
X8719Y26984D01*
X13173D01*
Y31439D01*
D02*
G37*
G36*
X19628Y24984D02*
X15173D01*
Y20530D01*
X16307Y20833D01*
X17567Y21561D01*
X18596Y22590D01*
X19324Y23851D01*
X19628Y24984D01*
D02*
G37*
G36*
X13173D02*
X8719D01*
X9022Y23851D01*
X9750Y22590D01*
X10779Y21561D01*
X12040Y20833D01*
X13173Y20530D01*
Y24984D01*
D02*
G37*
%LPD*%
D11*
X60039Y38189D02*
X60039Y38189D01*
X73032Y48228D02*
X73228Y48425D01*
D13*
X57972Y31890D02*
D03*
Y38189D02*
D03*
X65551Y38189D02*
D03*
Y31890D02*
D03*
D14*
X49606Y45571D02*
D03*
Y52067D02*
D03*
X57874Y45571D02*
D03*
Y52067D02*
D03*
X41339D02*
D03*
Y45571D02*
D03*
X48720Y109252D02*
D03*
Y102756D02*
D03*
X72342D02*
D03*
Y109252D02*
D03*
X64468D02*
D03*
Y102756D02*
D03*
X56595Y109252D02*
D03*
Y102756D02*
D03*
D15*
X79921Y48425D02*
D03*
Y54724D02*
D03*
D16*
X73032Y48228D02*
D03*
X69291Y58858D02*
D03*
X65551Y48228D02*
D03*
X69291D02*
D03*
X65551Y58858D02*
D03*
X73032D02*
D03*
D17*
X69291Y70669D02*
D03*
Y92323D02*
D03*
D18*
X31209Y52031D02*
D03*
Y57031D02*
D03*
Y62031D02*
D03*
Y67031D02*
D03*
X8964Y52031D02*
D03*
Y57031D02*
D03*
Y62031D02*
D03*
Y67031D02*
D03*
D26*
X51230Y31841D02*
X57923D01*
X57972Y31890D01*
X65551Y38189D02*
Y48228D01*
X60039Y38189D02*
X65551D01*
X51181Y31791D02*
X51230Y31841D01*
D27*
X69291Y69095D02*
Y70669D01*
Y69095D02*
X79921Y58464D01*
Y54724D02*
Y58464D01*
X73228Y48425D02*
X79528D01*
D28*
X33858Y92913D02*
D03*
X14173D02*
D03*
X33858Y25984D02*
D03*
X14173D02*
D03*
D29*
X56693Y114173D02*
D03*
X41142Y13189D02*
D03*
Y21457D02*
D03*
X48819Y114173D02*
D03*
X41142Y30118D02*
D03*
Y37992D02*
D03*
X61811Y41732D02*
D03*
X64567Y114173D02*
D03*
X82874Y104134D02*
D03*
X41437Y88484D02*
D03*
X82874Y112402D02*
D03*
Y87599D02*
D03*
Y95866D02*
D03*
X72441Y114173D02*
D03*
X58071Y21457D02*
D03*
X82874Y79331D02*
D03*
X74607D02*
D03*
X82874Y29724D02*
D03*
X58071Y79331D02*
D03*
X82874Y71063D02*
D03*
Y62795D02*
D03*
X74607Y37992D02*
D03*
X66339Y79331D02*
D03*
X58071Y71063D02*
D03*
X82874Y37992D02*
D03*
X74607Y29724D02*
D03*
X51181Y31791D02*
D03*
X75689Y54823D02*
D03*
X75492Y52362D02*
D03*
X73425Y53740D02*
D03*
X25000Y87599D02*
D03*
X8465Y79331D02*
D03*
X25000Y71063D02*
D03*
X49803Y21457D02*
D03*
X25000Y104134D02*
D03*
X33268Y71063D02*
D03*
X8465Y104134D02*
D03*
X33268Y46260D02*
D03*
X16732Y79331D02*
D03*
Y104134D02*
D03*
X33268Y79331D02*
D03*
X25000D02*
D03*
X58071Y13189D02*
D03*
X33268Y37992D02*
D03*
X49803Y79331D02*
D03*
X8465Y87599D02*
D03*
X49803Y13189D02*
D03*
Y37992D02*
D03*
X25000Y95866D02*
D03*
X49803Y71063D02*
D03*
X33268Y13189D02*
D03*
X52362Y41339D02*
D03*
X46850D02*
D03*
X49606D02*
D03*
M02*
