G04*
G04 #@! TF.GenerationSoftware,Altium Limited,Altium Designer,21.4.1 (30)*
G04*
G04 Layer_Physical_Order=1*
G04 Layer_Color=255*
%FSLAX25Y25*%
%MOIN*%
G70*
G04*
G04 #@! TF.SameCoordinates,A6571A55-D74C-4003-A557-C9CE236E7139*
G04*
G04*
G04 #@! TF.FilePolarity,Positive*
G04*
G01*
G75*
G04:AMPARAMS|DCode=24|XSize=96.46mil|YSize=104.33mil|CornerRadius=7.23mil|HoleSize=0mil|Usage=FLASHONLY|Rotation=180.000|XOffset=0mil|YOffset=0mil|HoleType=Round|Shape=RoundedRectangle|*
%AMROUNDEDRECTD24*
21,1,0.09646,0.08986,0,0,180.0*
21,1,0.08199,0.10433,0,0,180.0*
1,1,0.01447,-0.04099,0.04493*
1,1,0.01447,0.04099,0.04493*
1,1,0.01447,0.04099,-0.04493*
1,1,0.01447,-0.04099,-0.04493*
%
%ADD24ROUNDEDRECTD24*%
G04:AMPARAMS|DCode=25|XSize=53.15mil|YSize=61.02mil|CornerRadius=3.99mil|HoleSize=0mil|Usage=FLASHONLY|Rotation=90.000|XOffset=0mil|YOffset=0mil|HoleType=Round|Shape=RoundedRectangle|*
%AMROUNDEDRECTD25*
21,1,0.05315,0.05305,0,0,90.0*
21,1,0.04518,0.06102,0,0,90.0*
1,1,0.00797,0.02653,0.02259*
1,1,0.00797,0.02653,-0.02259*
1,1,0.00797,-0.02653,-0.02259*
1,1,0.00797,-0.02653,0.02259*
%
%ADD25ROUNDEDRECTD25*%
G04:AMPARAMS|DCode=26|XSize=47.24mil|YSize=51.18mil|CornerRadius=3.54mil|HoleSize=0mil|Usage=FLASHONLY|Rotation=90.000|XOffset=0mil|YOffset=0mil|HoleType=Round|Shape=RoundedRectangle|*
%AMROUNDEDRECTD26*
21,1,0.04724,0.04409,0,0,90.0*
21,1,0.04016,0.05118,0,0,90.0*
1,1,0.00709,0.02205,0.02008*
1,1,0.00709,0.02205,-0.02008*
1,1,0.00709,-0.02205,-0.02008*
1,1,0.00709,-0.02205,0.02008*
%
%ADD26ROUNDEDRECTD26*%
G04:AMPARAMS|DCode=27|XSize=29.53mil|YSize=39.37mil|CornerRadius=2.22mil|HoleSize=0mil|Usage=FLASHONLY|Rotation=90.000|XOffset=0mil|YOffset=0mil|HoleType=Round|Shape=RoundedRectangle|*
%AMROUNDEDRECTD27*
21,1,0.02953,0.03494,0,0,90.0*
21,1,0.02510,0.03937,0,0,90.0*
1,1,0.00443,0.01747,0.01255*
1,1,0.00443,0.01747,-0.01255*
1,1,0.00443,-0.01747,-0.01255*
1,1,0.00443,-0.01747,0.01255*
%
%ADD27ROUNDEDRECTD27*%
%ADD28C,0.16000*%
%ADD29C,0.04000*%
%ADD30C,0.05000*%
%ADD31C,0.03500*%
%ADD32C,0.07874*%
%ADD33C,0.12795*%
%ADD34C,0.11811*%
%ADD35C,0.04500*%
G36*
X-75000Y87000D02*
Y71478D01*
X-75500Y71151D01*
X-75751Y71201D01*
X-76265D01*
X-76839Y71439D01*
X-77557Y71533D01*
X-89237D01*
X-89338Y71685D01*
X-89786Y71984D01*
X-90315Y72089D01*
X-94724D01*
X-95253Y71984D01*
X-95701Y71685D01*
X-95802Y71533D01*
X-106233D01*
X-106266Y71702D01*
X-106575Y72165D01*
X-107038Y72474D01*
X-107584Y72583D01*
X-112889D01*
X-113435Y72474D01*
X-113897Y72165D01*
X-114188Y71730D01*
X-125062D01*
X-129897Y76565D01*
X-129314Y77438D01*
X-128793Y78694D01*
X-128528Y80028D01*
Y81389D01*
X-128793Y82723D01*
X-129314Y83980D01*
X-130069Y85111D01*
X-131031Y86072D01*
X-132162Y86828D01*
X-133419Y87349D01*
X-134753Y87614D01*
X-136113D01*
X-137447Y87349D01*
X-138704Y86828D01*
X-139835Y86072D01*
X-140797Y85111D01*
X-141553Y83980D01*
X-142073Y82723D01*
X-142339Y81389D01*
Y80028D01*
X-142073Y78694D01*
X-141553Y77438D01*
X-140797Y76307D01*
X-139835Y75345D01*
X-138704Y74589D01*
X-137447Y74068D01*
X-136113Y73803D01*
X-134980D01*
X-128172Y66995D01*
X-127597Y66554D01*
X-126928Y66277D01*
X-126210Y66183D01*
X-114224D01*
X-114206Y66093D01*
X-113897Y65630D01*
X-113435Y65321D01*
X-112889Y65213D01*
X-107584D01*
X-107038Y65321D01*
X-106575Y65630D01*
X-106338Y65986D01*
X-95881D01*
X-95701Y65716D01*
X-95253Y65417D01*
X-94724Y65312D01*
X-90315D01*
X-89786Y65417D01*
X-89338Y65716D01*
X-89159Y65986D01*
X-77944D01*
X-77498Y65927D01*
X-76780Y66022D01*
X-76348Y66201D01*
X-75751D01*
X-75500Y66250D01*
X-75000Y65923D01*
Y63998D01*
X-75500Y63671D01*
X-75751Y63721D01*
X-76748D01*
Y61221D01*
Y58720D01*
X-75751D01*
X-75500Y58770D01*
X-75000Y58443D01*
Y49000D01*
X-83000Y41000D01*
X-139000D01*
X-148000Y50000D01*
Y84000D01*
X-138000Y94000D01*
X-114377D01*
X-114110Y93500D01*
X-114206Y93356D01*
X-114315Y92810D01*
Y91301D01*
X-110236D01*
X-106158D01*
Y92810D01*
X-106266Y93356D01*
X-106363Y93500D01*
X-106095Y94000D01*
X-82000D01*
X-75000Y87000D01*
D02*
G37*
%LPC*%
G36*
X-106158Y89801D02*
X-109486D01*
Y86866D01*
X-107584D01*
X-107038Y86975D01*
X-106575Y87284D01*
X-106266Y87747D01*
X-106158Y88292D01*
Y89801D01*
D02*
G37*
G36*
X-110986D02*
X-114315D01*
Y88292D01*
X-114206Y87747D01*
X-113897Y87284D01*
X-113435Y86975D01*
X-112889Y86866D01*
X-110986D01*
Y89801D01*
D02*
G37*
G36*
X-78248Y63721D02*
X-79245D01*
X-79722Y63626D01*
X-80126Y63356D01*
X-80396Y62952D01*
X-80490Y62475D01*
Y61971D01*
X-78248D01*
Y63721D01*
D02*
G37*
G36*
X-90315Y64609D02*
X-91770D01*
Y61971D01*
X-88934D01*
Y63228D01*
X-89039Y63757D01*
X-89338Y64205D01*
X-89786Y64504D01*
X-90315Y64609D01*
D02*
G37*
G36*
X-93270D02*
X-94724D01*
X-95253Y64504D01*
X-95701Y64205D01*
X-96000Y63757D01*
X-96105Y63228D01*
Y61971D01*
X-93270D01*
Y64609D01*
D02*
G37*
G36*
X-107584Y64709D02*
X-109486D01*
Y61774D01*
X-106158D01*
Y63283D01*
X-106266Y63828D01*
X-106575Y64291D01*
X-107038Y64600D01*
X-107584Y64709D01*
D02*
G37*
G36*
X-110986D02*
X-112889D01*
X-113435Y64600D01*
X-113897Y64291D01*
X-114206Y63828D01*
X-114315Y63283D01*
Y61774D01*
X-110986D01*
Y64709D01*
D02*
G37*
G36*
X-78248Y60470D02*
X-80490D01*
Y59966D01*
X-80396Y59489D01*
X-80126Y59085D01*
X-79722Y58815D01*
X-79245Y58720D01*
X-78248D01*
Y60470D01*
D02*
G37*
G36*
X-88934Y60470D02*
X-91770D01*
Y57832D01*
X-90315D01*
X-89786Y57937D01*
X-89338Y58236D01*
X-89039Y58684D01*
X-88934Y59213D01*
Y60470D01*
D02*
G37*
G36*
X-93270D02*
X-96105D01*
Y59213D01*
X-96000Y58684D01*
X-95701Y58236D01*
X-95253Y57937D01*
X-94724Y57832D01*
X-93270D01*
Y60470D01*
D02*
G37*
G36*
X-106158Y60274D02*
X-109486D01*
Y57339D01*
X-107584D01*
X-107038Y57447D01*
X-106575Y57756D01*
X-106266Y58219D01*
X-106158Y58765D01*
Y60274D01*
D02*
G37*
G36*
X-110986D02*
X-114315D01*
Y58765D01*
X-114206Y58219D01*
X-113897Y57756D01*
X-113435Y57447D01*
X-112889Y57339D01*
X-110986D01*
Y60274D01*
D02*
G37*
G36*
X-134683Y62600D02*
Y56459D01*
X-128542D01*
X-128793Y57723D01*
X-129314Y58980D01*
X-130069Y60111D01*
X-131031Y61072D01*
X-132162Y61828D01*
X-133419Y62349D01*
X-134683Y62600D01*
D02*
G37*
G36*
X-136183D02*
X-137447Y62349D01*
X-138704Y61828D01*
X-139835Y61072D01*
X-140797Y60111D01*
X-141553Y58980D01*
X-142073Y57723D01*
X-142325Y56459D01*
X-136183D01*
Y62600D01*
D02*
G37*
G36*
Y54959D02*
X-142325D01*
X-142073Y53694D01*
X-141553Y52438D01*
X-140797Y51307D01*
X-139835Y50345D01*
X-138704Y49589D01*
X-137447Y49068D01*
X-136183Y48817D01*
Y54959D01*
D02*
G37*
G36*
X-128542D02*
X-134683D01*
Y48817D01*
X-133419Y49068D01*
X-132162Y49589D01*
X-131031Y50345D01*
X-130069Y51307D01*
X-129314Y52438D01*
X-128793Y53694D01*
X-128542Y54959D01*
D02*
G37*
%LPD*%
D24*
X-86000Y116535D02*
D03*
Y133465D02*
D03*
D25*
X-110236Y68898D02*
D03*
Y61024D02*
D03*
Y90551D02*
D03*
Y98425D02*
D03*
D26*
X-92520Y68701D02*
D03*
Y61221D02*
D03*
D27*
X-77498Y68701D02*
D03*
Y61221D02*
D03*
X-69746Y64961D02*
D03*
D28*
X-39370Y53630D02*
Y88819D01*
X-133858Y8169D02*
X-84831D01*
X-39370Y53630D01*
X-133858Y-56652D02*
Y-16831D01*
X-125786Y-64724D02*
X-39370D01*
X-133858Y-56652D02*
X-125786Y-64724D01*
X30630Y-25118D02*
X70059D01*
X30630Y-24724D02*
Y98819D01*
X70059Y-25118D02*
X77953Y-17224D01*
X78000Y7823D02*
Y115000D01*
X77953Y7776D02*
X110224D01*
X30630Y128819D02*
X64181D01*
X118000Y-25000D02*
Y0D01*
X88276Y-54724D02*
X118000Y-25000D01*
X30630Y-54724D02*
X88276D01*
X77953Y7776D02*
X78000Y7823D01*
X64181Y128819D02*
X78000Y115000D01*
X110224Y7776D02*
X118000Y0D01*
D29*
X-70000Y108000D02*
Y114192D01*
X-86000Y116535D02*
X-72343D01*
X-70000Y114192D01*
Y108000D02*
X-69746Y107746D01*
Y64961D02*
Y107746D01*
D30*
X-93000Y133465D02*
X-61465D01*
X-135433Y105709D02*
X-107677Y133465D01*
X-61465D02*
X-24370Y96370D01*
X-107677Y133465D02*
X-93000D01*
X-135433Y105709D02*
X-128150Y98425D01*
X-110236D01*
X-24370Y38819D02*
Y96370D01*
Y-114724D02*
Y38819D01*
D31*
X-135433Y78179D02*
X-126210Y68956D01*
X-92520Y68701D02*
X-92461Y68760D01*
X-135433Y78179D02*
Y80709D01*
X-110295Y68956D02*
X-110098Y68760D01*
X-92461D02*
X-77557D01*
X-77498Y68701D01*
X-110098Y68760D02*
X-92578D01*
X-92520Y68701D01*
X-126210Y68956D02*
X-110295D01*
D32*
X15630Y38819D02*
D03*
X-24370D02*
D03*
X15630Y-114724D02*
D03*
X-24370D02*
D03*
D33*
X-39370Y88819D02*
D03*
X30630Y128819D02*
D03*
Y98819D02*
D03*
X-39370Y-64724D02*
D03*
X30630Y-24724D02*
D03*
Y-54724D02*
D03*
D34*
X77953Y-17224D02*
D03*
Y7776D02*
D03*
X-135433Y105709D02*
D03*
Y80709D02*
D03*
Y55709D02*
D03*
X-133858Y8169D02*
D03*
Y-16831D02*
D03*
D35*
X-70000Y108000D02*
D03*
M02*
