<?xml version="1.0" encoding="UTF-8" standalone="no"?>
<!-- Generator: Gravit.io -->

<svg
   style="isolation:isolate"
   viewBox="0 0 2040 430.14401"
   width="2040pt"
   height="430.14401pt"
   version="1.1"
   id="svg396"
   sodipodi:docname="warg-logo.svg"
   inkscape:version="1.2.2 (b0a8486541, 2022-12-01)"
   xmlns:inkscape="http://www.inkscape.org/namespaces/inkscape"
   xmlns:sodipodi="http://sodipodi.sourceforge.net/DTD/sodipodi-0.dtd"
   xmlns="http://www.w3.org/2000/svg"
   xmlns:svg="http://www.w3.org/2000/svg">
  <sodipodi:namedview
     id="namedview398"
     pagecolor="#ffffff"
     bordercolor="#000000"
     borderopacity="0.25"
     inkscape:showpageshadow="2"
     inkscape:pageopacity="0.0"
     inkscape:pagecheckerboard="0"
     inkscape:deskcolor="#d1d1d1"
     inkscape:document-units="pt"
     showgrid="false"
     inkscape:zoom="0.4579781"
     inkscape:cx="1219.4906"
     inkscape:cy="465.08774"
     inkscape:window-width="1920"
     inkscape:window-height="1131"
     inkscape:window-x="0"
     inkscape:window-y="0"
     inkscape:window-maximized="1"
     inkscape:current-layer="g394" />
  <defs
     id="defs220">
    <clipPath
       id="_clipPath_FOcv2lnxIs5aFN8Vb0Q6PUE9aqhkUPZa">
      <rect
         width="2040"
         height="2040"
         id="rect217"
         x="0"
         y="0" />
    </clipPath>
  </defs>
  <g
     clip-path="url(#_clipPath_FOcv2lnxIs5aFN8Vb0Q6PUE9aqhkUPZa)"
     id="g394">
    <g
       id="g260"
       style="isolation:isolate"
       transform="matrix(2.9034119,0,0,2.8892982,-435.51179,-3648.4844)">
      <path
         d="m 271.992,1262.758 53.17,117.705 47.062,-104.425 c 4.84,2.246 10.901,-2.171 18.155,-13.28 l -65.217,148.829 -53.17,-114.908 -53.077,114.908 L 150,1262.758 q 5.096,7.957 9.485,10.434 4.39,2.477 9.486,2.846 l 49.944,104.425 z"
         fill="#000000"
         id="path252" />
      <path
         d="m 616.177,1350.953 h -46.5 v 48.005 c -7.069,2.109 -10.881,12.084 -11.579,12.49 v -148.69 h 63.359 v 0 q 14.543,0 24.918,2.27 v 0 0 q 14.021,3.358 18.511,8.568 15.549,18.041 0,0 v 0 c 8.248,9.152 11.684,19.147 11.383,33.354 v 0 0 q -1.983,20.105 -9.486,28.673 v 0 0 q -10.96,10.513 -27.633,13.663 v 0 l 48.723,62.301 c -8.229,-3.648 -13.985,-4.966 -17.296,-3.983 l -43.562,-57.021 v 0 q -2.593,0.185 -5.28,0.278 v 0 0 q -2.686,0.092 -5.558,0.092 z m 43.966,-23.673 c 6.318,-5.041 6.366,-35.422 1.235,-41.133 v 0 0 q -2.874,-5.048 -9.365,-7.827 v 0 0 q -6.49,-2.779 -17.014,-3.751 v 0 0 q -10.524,-0.973 -25.823,-0.973 v 0 h -39.499 v 66.519 h 33.848 v 0 q 15.299,0 25.87,-0.879 v 0 0 q 10.159,-0.406 16.98,-2.881 v 0 0 c 5.555,-1.578 10.635,-4.709 13.768,-9.075 z"
         fill-rule="evenodd"
         fill="#000000"
         id="path254" />
      <path
         d="m 794.612,1262.758 v 0 0 q 8.8,0 16.395,0.992 v 0 0 q 7.596,0.991 14.543,2.818 v 0 0 q 6.948,1.826 13.524,4.383 v 0 0 c 4.301,2.137 8.092,4.158 13.247,7.369 v 0 c 1.725,5.544 2.535,11.257 2.766,20.59 v 0 q -4.682,-7.769 -6.688,-9.076 c -2.353,-1.532 -4.8,-3.009 -7.341,-4.428 v 0 0 q -5.979,-3.34 -12.885,-5.845 v 0 0 q -6.906,-2.504 -14.831,-3.966 v 0 0 q -7.926,-1.461 -17.01,-1.461 v 0 0 q -18.539,0 -32.351,4.384 v 0 0 q -13.812,4.383 -22.989,12.524 v 0 0 q -9.177,8.141 -13.765,19.83 v 0 0 q -4.589,11.689 -4.589,26.301 v 0 0 q 0,13.672 4.496,25.205 v 0 0 q 4.496,11.532 13.627,19.882 v 0 0 q 9.131,8.349 22.851,13.046 v 0 0 q 13.72,4.696 32.167,4.696 v 0 0 q 7.231,0 14.323,-0.626 v 0 0 q 7.091,-0.626 13.395,-1.618 v 0 0 q 6.304,-0.991 11.495,-2.191 v 0 0 q 5.191,-1.201 8.807,-2.453 v 0 -43.522 h -51.781 c 6.913,-1.313 11.295,-5.271 13.118,-11.9 l 50.241,-0.311 v 63.039 0 q -6.854,2.713 -13.848,4.801 v 0 0 q -6.993,2.087 -14.45,3.496 v 0 0 q -7.457,1.409 -15.469,2.14 v 0 0 q -8.013,0.73 -16.813,0.73 v 0 0 q -17.97,0 -33.347,-4.54 v 0 0 q -15.376,-4.54 -26.631,-13.776 v 0 0 q -11.254,-9.237 -17.646,-23.222 v 0 0 q -6.391,-13.986 -6.391,-32.876 v 0 0 q 0,-12.629 2.964,-23.014 v 0 0 q 2.964,-10.384 8.383,-18.681 v 0 0 q 5.419,-8.298 13.061,-14.455 v 0 0 q 7.642,-6.158 16.951,-10.176 v 0 0 q 9.309,-4.018 20.054,-6.054 v 0 0 q 10.746,-2.035 22.417,-2.035 z"
         fill="#000000"
         id="path256" />
      <path
         d="m 523.655,1411.633 c -4.806,-3.289 -10.844,-4.623 -16.544,-4.029 l -15.084,-14.897 -6.64,-58.809 4.743,57.482 -11.382,-10.917 -7.87,-35.43 -20.586,-56.664 16.032,50.272 -5.544,12.133 -10.488,-13.082 13.279,19.919 c -5.821,-6.914 -12.508,-3.913 -13.279,18.971 h -0.093 c -0.701,-22.969 -7.686,-26.019 -13.187,-18.971 l 13.28,-19.919 0.855,-21.816 -0.855,-27.507 -1.042,27.507 1.042,21.816 -10.518,13.082 -5.7,-12.133 16.218,-50.272 -20.637,56.571 -8.061,35.523 -11.141,10.917 4.743,-57.482 -6.64,58.809 -15.418,14.897 c -6.443,-0.849 -11.116,0.318 -16.302,4.029 l 73.456,-148.875 z"
         fill="#000000"
         id="path258" />
    </g>
  </g>
</svg>
