G04*
G04 #@! TF.GenerationSoftware,Altium Limited,Altium Designer,21.4.1 (30)*
G04*
G04 Layer_Physical_Order=2*
G04 Layer_Color=16711680*
%FSLAX25Y25*%
%MOIN*%
G70*
G04*
G04 #@! TF.SameCoordinates,A6571A55-D74C-4003-A557-C9CE236E7139*
G04*
G04*
G04 #@! TF.FilePolarity,Positive*
G04*
G01*
G75*
%ADD28C,0.16000*%
%ADD29C,0.04000*%
%ADD32C,0.07874*%
%ADD33C,0.12795*%
%ADD34C,0.11811*%
%ADD35C,0.04500*%
D28*
X88276Y-54724D02*
X118000Y-25000D01*
X30630Y-54724D02*
X88276D01*
X30630Y-24724D02*
Y98819D01*
X-84831Y8169D02*
X-39370Y53630D01*
Y88819D01*
X-133858Y8169D02*
X-84831D01*
X-133858Y-56652D02*
Y-16831D01*
Y-56652D02*
X-125786Y-64724D01*
X-39370D01*
X70059Y-25118D02*
X77953Y-17224D01*
X30630Y-25118D02*
X70059D01*
X77953Y7776D02*
X78000Y7823D01*
X64181Y128819D02*
X78000Y115000D01*
Y7823D02*
Y115000D01*
X118000Y-25000D02*
Y-296D01*
X109928Y7776D02*
X118000Y-296D01*
X77953Y7776D02*
X109928D01*
X30630Y128819D02*
X64181D01*
D29*
X16004Y-113957D02*
Y38996D01*
X15630Y-114331D02*
X16004Y-113957D01*
X-67764Y110236D02*
X-38189D01*
X-70000Y108000D02*
X-67764Y110236D01*
X16004Y38996D02*
X16378Y39370D01*
X16142Y39606D02*
Y55905D01*
Y39606D02*
X16378Y39370D01*
X-38189Y110236D02*
X16142Y55905D01*
D32*
X15630Y38819D02*
D03*
X-24370D02*
D03*
X15630Y-114724D02*
D03*
X-24370D02*
D03*
D33*
X-39370Y88819D02*
D03*
X30630Y128819D02*
D03*
Y98819D02*
D03*
X-39370Y-64724D02*
D03*
X30630Y-24724D02*
D03*
Y-54724D02*
D03*
D34*
X77953Y-17224D02*
D03*
Y7776D02*
D03*
X-135433Y105709D02*
D03*
Y80709D02*
D03*
Y55709D02*
D03*
X-133858Y8169D02*
D03*
Y-16831D02*
D03*
D35*
X-70000Y108000D02*
D03*
M02*
