G04*
G04 #@! TF.GenerationSoftware,Altium Limited,Altium Designer,22.1.2 (22)*
G04*
G04 Layer_Physical_Order=2*
G04 Layer_Color=16711680*
%FSLAX44Y44*%
%MOMM*%
G71*
G04*
G04 #@! TF.SameCoordinates,955625FC-3A8F-475D-A4FE-D344C6288806*
G04*
G04*
G04 #@! TF.FilePolarity,Positive*
G04*
G01*
G75*
%ADD19C,5.0000*%
%ADD20C,0.7112*%
%ADD21C,1.2700*%
G36*
X1744582Y115309D02*
X1744789Y115309D01*
X1746030Y115237D01*
X1748373Y114771D01*
X1750921Y113716D01*
X1753214Y112184D01*
X1755164Y110233D01*
X1756696Y107941D01*
X1757751Y105393D01*
X1758289Y102688D01*
Y101309D01*
X1758289Y101309D01*
X1758289Y101309D01*
X1758289Y50309D01*
Y48832D01*
X1757713Y45934D01*
X1756582Y43204D01*
X1754941Y40747D01*
X1752851Y38658D01*
X1750394Y37016D01*
X1747665Y35886D01*
X1744767Y35309D01*
X1743289Y35309D01*
X41989Y35309D01*
X40165Y35346D01*
X36600Y36130D01*
X33257Y37595D01*
X30264Y39684D01*
X27736Y42316D01*
X25770Y45392D01*
X24442Y48791D01*
X23802Y52385D01*
X23839Y54209D01*
Y100309D01*
Y101787D01*
X24416Y104684D01*
X25547Y107414D01*
X27188Y109871D01*
X29277Y111960D01*
X31734Y113602D01*
X34464Y114733D01*
X37362Y115309D01*
X38839D01*
X38839Y115309D01*
X1744582Y115309D01*
D02*
G37*
%LPC*%
G36*
X205179Y102928D02*
Y76673D01*
X231434D01*
X231194Y79724D01*
X230182Y83940D01*
X228523Y87945D01*
X226258Y91641D01*
X223443Y94937D01*
X220147Y97752D01*
X216451Y100017D01*
X212446Y101676D01*
X208230Y102688D01*
X205179Y102928D01*
D02*
G37*
G36*
X202639D02*
X199587Y102688D01*
X195372Y101676D01*
X191367Y100017D01*
X187671Y97752D01*
X184375Y94937D01*
X181560Y91641D01*
X179295Y87945D01*
X177636Y83940D01*
X176624Y79724D01*
X176384Y76673D01*
X202639D01*
Y102928D01*
D02*
G37*
G36*
X118909Y101529D02*
X113812Y101027D01*
X108911Y99540D01*
X104394Y97126D01*
X100435Y93877D01*
X97186Y89918D01*
X94772Y85401D01*
X93285Y80500D01*
X92783Y75403D01*
X93285Y70306D01*
X94772Y65405D01*
X97186Y60888D01*
X100435Y56929D01*
X104394Y53680D01*
X108911Y51266D01*
X113812Y49779D01*
X118909Y49277D01*
X124006Y49779D01*
X128907Y51266D01*
X133424Y53680D01*
X137383Y56929D01*
X140632Y60888D01*
X143046Y65405D01*
X144533Y70306D01*
X145035Y75403D01*
X144533Y80500D01*
X143046Y85401D01*
X140632Y89918D01*
X137383Y93877D01*
X133424Y97126D01*
X128907Y99540D01*
X124006Y101027D01*
X118909Y101529D01*
D02*
G37*
G36*
X231434Y74133D02*
X205179D01*
Y47878D01*
X208230Y48118D01*
X212446Y49130D01*
X216451Y50789D01*
X220147Y53054D01*
X223443Y55869D01*
X226258Y59165D01*
X228523Y62861D01*
X230182Y66866D01*
X231194Y71082D01*
X231434Y74133D01*
D02*
G37*
G36*
X202639D02*
X176384D01*
X176624Y71082D01*
X177636Y66866D01*
X179295Y62861D01*
X181560Y59165D01*
X184375Y55869D01*
X187671Y53054D01*
X191367Y50789D01*
X195372Y49130D01*
X199587Y48118D01*
X202639Y47878D01*
Y74133D01*
D02*
G37*
%LPD*%
D19*
X118909Y75403D02*
D03*
X203909D02*
D03*
D20*
X1502264Y84710D02*
D03*
X1298814Y84489D02*
D03*
X1099058Y84518D02*
D03*
X894975Y83997D02*
D03*
X702047Y83996D02*
D03*
X297950Y84935D02*
D03*
X499500Y85000D02*
D03*
X1697500D02*
D03*
D21*
X221909Y74903D02*
D03*
X203909Y94403D02*
D03*
Y56403D02*
D03*
X185409Y74903D02*
D03*
M02*
