G04*
G04 #@! TF.GenerationSoftware,Altium Limited,Altium Designer,22.1.2 (22)*
G04*
G04 Layer_Color=65535*
%FSLAX44Y44*%
%MOMM*%
G71*
G04*
G04 #@! TF.SameCoordinates,B00DDC5C-F8D0-431D-9E70-9109967B179A*
G04*
G04*
G04 #@! TF.FilePolarity,Positive*
G04*
G01*
G75*
%ADD10C,0.2000*%
D10*
X507530Y77380D02*
X507540D01*
X507530Y85000D02*
Y92620D01*
X538010D01*
Y77380D02*
Y92620D01*
X507540Y77380D02*
X538010D01*
X507530D02*
Y85000D01*
X504990Y77380D02*
Y92620D01*
Y77380D02*
X507530D01*
X504990Y92620D02*
X507530D01*
X336240Y62200D02*
Y69620D01*
X308300D02*
X336240D01*
X308300Y54780D02*
Y69620D01*
Y54780D02*
X336240D01*
Y54980D02*
Y62200D01*
X303490Y92620D02*
X306030D01*
X303490Y77380D02*
X306030D01*
X303490D02*
Y92620D01*
X306030Y77380D02*
Y85000D01*
X306040Y77380D02*
X336510D01*
Y92620D01*
X306030D02*
X336510D01*
X306030Y85000D02*
Y92620D01*
Y77380D02*
X306040D01*
X536740Y54980D02*
Y62200D01*
X508800Y54780D02*
X536740D01*
X508800D02*
Y69620D01*
X536740D01*
Y62200D02*
Y69620D01*
X1337240Y52980D02*
Y60200D01*
X1309300Y52780D02*
X1337240D01*
X1309300D02*
Y67620D01*
X1337240D01*
Y60200D02*
Y67620D01*
X1308030Y77380D02*
X1308040D01*
X1308030Y85000D02*
Y92620D01*
X1338510D01*
Y77380D02*
Y92620D01*
X1308040Y77380D02*
X1338510D01*
X1308030D02*
Y85000D01*
X1305490Y77380D02*
Y92620D01*
Y77380D02*
X1308030D01*
X1305490Y92620D02*
X1308030D01*
X1508490D02*
X1511030D01*
X1508490Y77380D02*
X1511030D01*
X1508490D02*
Y92620D01*
X1511030Y77380D02*
Y85000D01*
X1511040Y77380D02*
X1541510D01*
Y92620D01*
X1511030D02*
X1541510D01*
X1511030Y85000D02*
Y92620D01*
Y77380D02*
X1511040D01*
X1539740Y52980D02*
Y60200D01*
X1511800Y52780D02*
X1539740D01*
X1511800D02*
Y67620D01*
X1539740D01*
Y60200D02*
Y67620D01*
X711030Y77380D02*
X711040D01*
X711030Y85000D02*
Y92620D01*
X741510D01*
Y77380D02*
Y92620D01*
X711040Y77380D02*
X741510D01*
X711030D02*
Y85000D01*
X708490Y77380D02*
Y92620D01*
Y77380D02*
X711030D01*
X708490Y92620D02*
X711030D01*
X1105490D02*
X1108030D01*
X1105490Y77380D02*
X1108030D01*
X1105490D02*
Y92620D01*
X1108030Y77380D02*
Y85000D01*
X1108040Y77380D02*
X1138510D01*
Y92620D01*
X1108030D02*
X1138510D01*
X1108030Y85000D02*
Y92620D01*
Y77380D02*
X1108040D01*
X903490Y92620D02*
X906030D01*
X903490Y77380D02*
X906030D01*
X903490D02*
Y92620D01*
X906030Y77380D02*
Y85000D01*
X906040Y77380D02*
X936510D01*
Y92620D01*
X906030D02*
X936510D01*
X906030Y85000D02*
Y92620D01*
Y77380D02*
X906040D01*
X1708030D02*
X1708040D01*
X1708030Y85000D02*
Y92620D01*
X1738510D01*
Y77380D02*
Y92620D01*
X1708040Y77380D02*
X1738510D01*
X1708030D02*
Y85000D01*
X1705490Y77380D02*
Y92620D01*
Y77380D02*
X1708030D01*
X1705490Y92620D02*
X1708030D01*
X1737240Y60200D02*
Y67620D01*
X1709300D02*
X1737240D01*
X1709300Y52780D02*
Y67620D01*
Y52780D02*
X1737240D01*
Y52980D02*
Y60200D01*
X1137240D02*
Y67620D01*
X1109300D02*
X1137240D01*
X1109300Y52780D02*
Y67620D01*
Y52780D02*
X1137240D01*
Y52980D02*
Y60200D01*
X935631Y60931D02*
Y68351D01*
X907691D02*
X935631D01*
X907691Y53511D02*
Y68351D01*
Y53511D02*
X935631D01*
Y53711D02*
Y60931D01*
X739240Y60430D02*
Y67850D01*
X711300D02*
X739240D01*
X711300Y53010D02*
Y67850D01*
Y53010D02*
X739240D01*
Y53210D02*
Y60430D01*
M02*
