G04*
G04 #@! TF.GenerationSoftware,Altium Limited,Altium Designer,22.1.2 (22)*
G04*
G04 Layer_Physical_Order=1*
G04 Layer_Color=255*
%FSLAX44Y44*%
%MOMM*%
G71*
G04*
G04 #@! TF.SameCoordinates,50683AA0-DA01-4EFE-9B7F-76C002CA6F73*
G04*
G04*
G04 #@! TF.FilePolarity,Positive*
G04*
G01*
G75*
%ADD11R,0.6000X0.9000*%
%ADD12R,0.8000X0.8000*%
%ADD16C,0.2540*%
%ADD17C,5.0000*%
%ADD18C,1.2700*%
G36*
X2244972Y115657D02*
Y36500D01*
X25028D01*
X25027Y116500D01*
X2244074Y116555D01*
X2244972Y115657D01*
D02*
G37*
%LPC*%
G36*
X77168Y102540D02*
X76270D01*
Y76270D01*
X102540D01*
Y77168D01*
X101862Y81449D01*
X100522Y85572D01*
X98554Y89434D01*
X96006Y92941D01*
X92941Y96006D01*
X89434Y98554D01*
X85572Y100522D01*
X81449Y101862D01*
X77168Y102540D01*
D02*
G37*
G36*
X73730D02*
X72832D01*
X68551Y101862D01*
X64428Y100522D01*
X60566Y98554D01*
X57059Y96006D01*
X53994Y92941D01*
X51446Y89434D01*
X49478Y85572D01*
X48138Y81449D01*
X47460Y77168D01*
Y76270D01*
X73730D01*
Y102540D01*
D02*
G37*
G36*
X1718900Y113660D02*
X1716560D01*
X1714299Y113054D01*
X1712271Y111884D01*
X1710616Y110229D01*
X1709446Y108201D01*
X1708840Y105940D01*
Y103600D01*
X1709446Y101339D01*
X1710616Y99311D01*
X1712271Y97656D01*
X1713712Y96824D01*
Y88815D01*
X1709649D01*
Y75735D01*
X1718496D01*
X1718982Y74562D01*
X1713753Y69333D01*
X1712911Y68073D01*
X1712615Y66586D01*
Y65540D01*
X1710960D01*
Y51460D01*
X1722040D01*
Y65540D01*
X1722040D01*
X1721720Y66312D01*
X1731143Y75735D01*
X1738729D01*
Y88815D01*
X1725649D01*
Y81229D01*
X1723902Y79482D01*
X1722729Y79968D01*
Y88815D01*
X1721482D01*
Y96671D01*
X1723188Y97656D01*
X1724844Y99311D01*
X1726014Y101339D01*
X1726620Y103600D01*
Y105940D01*
X1726014Y108201D01*
X1724844Y110229D01*
X1723188Y111884D01*
X1721161Y113054D01*
X1718900Y113660D01*
D02*
G37*
G36*
X1989540Y69040D02*
X1985270D01*
Y63270D01*
X1989540D01*
Y69040D01*
D02*
G37*
G36*
X1982730D02*
X1978460D01*
Y63270D01*
X1982730D01*
Y69040D01*
D02*
G37*
G36*
X268733Y104151D02*
X266392D01*
X264131Y103545D01*
X262104Y102375D01*
X260448Y100719D01*
X259278Y98692D01*
X258672Y96431D01*
Y94091D01*
X259278Y91830D01*
X260448Y89802D01*
X262104Y88147D01*
X263678Y87239D01*
Y84306D01*
X261481D01*
Y71226D01*
X269498D01*
X269984Y70053D01*
X263956Y64025D01*
X263114Y62765D01*
X262819Y61278D01*
Y60770D01*
X260730D01*
Y46690D01*
X271810D01*
Y60770D01*
X271810Y60770D01*
X271810D01*
X272588Y61669D01*
X282145Y71226D01*
X290561D01*
Y84306D01*
X277481D01*
Y77550D01*
X275735Y75803D01*
X274561Y76289D01*
Y84306D01*
X271447D01*
Y87239D01*
X273021Y88147D01*
X274676Y89802D01*
X275846Y91830D01*
X276452Y94091D01*
Y96431D01*
X275846Y98692D01*
X274676Y100719D01*
X273021Y102375D01*
X270994Y103545D01*
X268733Y104151D01*
D02*
G37*
G36*
X1737040Y65540D02*
X1732770D01*
Y59770D01*
X1737040D01*
Y65540D01*
D02*
G37*
G36*
X1730230D02*
X1725960D01*
Y59770D01*
X1730230D01*
Y65540D01*
D02*
G37*
G36*
X1474080Y64770D02*
X1469810D01*
Y59000D01*
X1474080D01*
Y64770D01*
D02*
G37*
G36*
X1467270D02*
X1463000D01*
Y59000D01*
X1467270D01*
Y64770D01*
D02*
G37*
G36*
X1235040Y64540D02*
X1230770D01*
Y58770D01*
X1235040D01*
Y64540D01*
D02*
G37*
G36*
X1228230D02*
X1223960D01*
Y58770D01*
X1228230D01*
Y64540D01*
D02*
G37*
G36*
X1001431Y62771D02*
X997161D01*
Y57001D01*
X1001431D01*
Y62771D01*
D02*
G37*
G36*
X994621D02*
X990351D01*
Y57001D01*
X994621D01*
Y62771D01*
D02*
G37*
G36*
X760040Y62270D02*
X755770D01*
Y56500D01*
X760040D01*
Y62270D01*
D02*
G37*
G36*
X753230D02*
X748960D01*
Y56500D01*
X753230D01*
Y62270D01*
D02*
G37*
G36*
X519024Y62147D02*
X514754D01*
Y56377D01*
X519024D01*
Y62147D01*
D02*
G37*
G36*
X512214D02*
X507944D01*
Y56377D01*
X512214D01*
Y62147D01*
D02*
G37*
G36*
X286810Y60770D02*
X282540D01*
Y55000D01*
X286810D01*
Y60770D01*
D02*
G37*
G36*
X280000D02*
X275730D01*
Y55000D01*
X280000D01*
Y60770D01*
D02*
G37*
G36*
X1989540Y60730D02*
X1985270D01*
Y54960D01*
X1989540D01*
Y60730D01*
D02*
G37*
G36*
X1982730D02*
X1978460D01*
Y54960D01*
X1982730D01*
Y60730D01*
D02*
G37*
G36*
X1973686Y113479D02*
X1971346D01*
X1969084Y112873D01*
X1967057Y111703D01*
X1965402Y110048D01*
X1964232Y108020D01*
X1963626Y105759D01*
Y103419D01*
X1964232Y101158D01*
X1965402Y99130D01*
X1967057Y97475D01*
X1968498Y96643D01*
Y92315D01*
X1964149D01*
Y79235D01*
X1972996D01*
X1973482Y78062D01*
X1967983Y72563D01*
X1967141Y71303D01*
X1966845Y69816D01*
Y69040D01*
X1963460D01*
Y54960D01*
X1974540D01*
Y63355D01*
X1974615Y63730D01*
Y68207D01*
X1985643Y79235D01*
X1993229D01*
Y92315D01*
X1980149D01*
Y84729D01*
X1978402Y82982D01*
X1977229Y83468D01*
Y92315D01*
X1976268D01*
Y96490D01*
X1977975Y97475D01*
X1979630Y99130D01*
X1980800Y101158D01*
X1981406Y103419D01*
Y105759D01*
X1980800Y108020D01*
X1979630Y110048D01*
X1977975Y111703D01*
X1975947Y112873D01*
X1973686Y113479D01*
D02*
G37*
G36*
X1737040Y57230D02*
X1732770D01*
Y51460D01*
X1737040D01*
Y57230D01*
D02*
G37*
G36*
X1730230D02*
X1725960D01*
Y51460D01*
X1730230D01*
Y57230D01*
D02*
G37*
G36*
X1474080Y56460D02*
X1469810D01*
Y50690D01*
X1474080D01*
Y56460D01*
D02*
G37*
G36*
X1467270D02*
X1463000D01*
Y50690D01*
X1467270D01*
Y56460D01*
D02*
G37*
G36*
X1454266Y112416D02*
X1451926D01*
X1449664Y111810D01*
X1447637Y110640D01*
X1445982Y108985D01*
X1444812Y106957D01*
X1444206Y104696D01*
Y102356D01*
X1444812Y100095D01*
X1445982Y98067D01*
X1447637Y96412D01*
X1449078Y95580D01*
Y88045D01*
X1448689D01*
Y74965D01*
X1457536D01*
X1458022Y73792D01*
X1452523Y68293D01*
X1451681Y67033D01*
X1451385Y65546D01*
Y64770D01*
X1448000D01*
Y50690D01*
X1459080D01*
Y59085D01*
X1459155Y59460D01*
Y63937D01*
X1470183Y74965D01*
X1477769D01*
Y88045D01*
X1464689D01*
Y80459D01*
X1462942Y78712D01*
X1461769Y79198D01*
Y88045D01*
X1456848D01*
Y95427D01*
X1458555Y96412D01*
X1460210Y98067D01*
X1461380Y100095D01*
X1461986Y102356D01*
Y104696D01*
X1461380Y106957D01*
X1460210Y108985D01*
X1458555Y110640D01*
X1456527Y111810D01*
X1454266Y112416D01*
D02*
G37*
G36*
X1235040Y56230D02*
X1230770D01*
Y50460D01*
X1235040D01*
Y56230D01*
D02*
G37*
G36*
X1228230D02*
X1223960D01*
Y50460D01*
X1228230D01*
Y56230D01*
D02*
G37*
G36*
X1215670Y111390D02*
X1213330D01*
X1211069Y110784D01*
X1209041Y109614D01*
X1207386Y107959D01*
X1206216Y105931D01*
X1205610Y103670D01*
Y101330D01*
X1206216Y99069D01*
X1207386Y97041D01*
X1209041Y95386D01*
X1210482Y94554D01*
Y86545D01*
X1208419D01*
Y73465D01*
X1217266D01*
X1217752Y72292D01*
X1213483Y68023D01*
X1212641Y66763D01*
X1212345Y65276D01*
Y64540D01*
X1208960D01*
Y50460D01*
X1220040D01*
Y58855D01*
X1220115Y59230D01*
Y63667D01*
X1229913Y73465D01*
X1237499D01*
Y86545D01*
X1224419D01*
Y78959D01*
X1222672Y77212D01*
X1221499Y77698D01*
Y86545D01*
X1218252D01*
Y94401D01*
X1219959Y95386D01*
X1221614Y97041D01*
X1222784Y99069D01*
X1223390Y101330D01*
Y103670D01*
X1222784Y105931D01*
X1221614Y107959D01*
X1219959Y109614D01*
X1217931Y110784D01*
X1215670Y111390D01*
D02*
G37*
G36*
X1001431Y54461D02*
X997161D01*
Y48691D01*
X1001431D01*
Y54461D01*
D02*
G37*
G36*
X994621D02*
X990351D01*
Y48691D01*
X994621D01*
Y54461D01*
D02*
G37*
G36*
X982970Y113049D02*
X980629D01*
X978368Y112444D01*
X976340Y111273D01*
X974685Y109618D01*
X973515Y107591D01*
X972909Y105330D01*
Y102989D01*
X973515Y100728D01*
X974685Y98701D01*
X976340Y97046D01*
X977914Y96137D01*
Y90779D01*
X976040D01*
Y77699D01*
X984040D01*
X984526Y76526D01*
X978144Y70144D01*
X977302Y68884D01*
X977006Y67397D01*
Y62771D01*
X975351D01*
Y48691D01*
X986431D01*
Y62771D01*
X984776D01*
Y65788D01*
X996687Y77699D01*
X1005120D01*
Y90779D01*
X992040D01*
Y84040D01*
X990293Y82293D01*
X989120Y82779D01*
Y90779D01*
X985684D01*
Y96137D01*
X987258Y97046D01*
X988913Y98701D01*
X990083Y100728D01*
X990689Y102989D01*
Y105330D01*
X990083Y107591D01*
X988913Y109618D01*
X987258Y111273D01*
X985230Y112444D01*
X982970Y113049D01*
D02*
G37*
G36*
X760040Y53960D02*
X755770D01*
Y48190D01*
X760040D01*
Y53960D01*
D02*
G37*
G36*
X753230D02*
X748960D01*
Y48190D01*
X753230D01*
Y53960D01*
D02*
G37*
G36*
X735670Y114890D02*
X733330D01*
X731069Y114284D01*
X729041Y113114D01*
X727386Y111459D01*
X726216Y109431D01*
X725610Y107170D01*
Y104830D01*
X726216Y102569D01*
X727386Y100541D01*
X729041Y98886D01*
X731069Y97716D01*
X731712Y97543D01*
Y91754D01*
X732008Y90267D01*
X732574Y89420D01*
Y87505D01*
X732649Y87130D01*
Y78235D01*
X742424D01*
X742910Y77062D01*
X735174Y69326D01*
X734332Y68066D01*
X734036Y66579D01*
Y62270D01*
X733960D01*
Y48190D01*
X745040D01*
Y62270D01*
X741806D01*
Y64970D01*
X755071Y78235D01*
X761729D01*
Y91315D01*
X748649D01*
Y82801D01*
X746902Y81054D01*
X745729Y81540D01*
Y91315D01*
X740259D01*
X740048Y92379D01*
X739482Y93226D01*
Y98611D01*
X739959Y98886D01*
X741614Y100541D01*
X742784Y102569D01*
X743390Y104830D01*
Y107170D01*
X742784Y109431D01*
X741614Y111459D01*
X739959Y113114D01*
X737931Y114284D01*
X735670Y114890D01*
D02*
G37*
G36*
X519024Y53837D02*
X514754D01*
Y48067D01*
X519024D01*
Y53837D01*
D02*
G37*
G36*
X512214D02*
X507944D01*
Y48067D01*
X512214D01*
Y53837D01*
D02*
G37*
G36*
X501170Y105890D02*
X498830D01*
X496569Y105284D01*
X494541Y104114D01*
X492886Y102459D01*
X491716Y100431D01*
X491110Y98170D01*
Y95830D01*
X491716Y93569D01*
X492886Y91541D01*
X494541Y89886D01*
X496115Y88977D01*
Y86540D01*
X494960D01*
Y73460D01*
X502729D01*
X503215Y72287D01*
X500018Y69089D01*
X499175Y67829D01*
X498880Y66342D01*
Y62147D01*
X492944D01*
Y48067D01*
X504024D01*
Y55153D01*
X505511Y56641D01*
X506353Y57901D01*
X506649Y59387D01*
Y64733D01*
X515376Y73460D01*
X524040D01*
Y86540D01*
X510960D01*
Y80031D01*
X509213Y78285D01*
X508040Y78771D01*
Y86540D01*
X503885D01*
Y88977D01*
X505459Y89886D01*
X507114Y91541D01*
X508284Y93569D01*
X508890Y95830D01*
Y98170D01*
X508284Y100431D01*
X507114Y102459D01*
X505459Y104114D01*
X503431Y105284D01*
X501170Y105890D01*
D02*
G37*
G36*
X162167Y102540D02*
X157833D01*
X153551Y101862D01*
X149428Y100522D01*
X145566Y98554D01*
X142059Y96006D01*
X138994Y92941D01*
X136446Y89434D01*
X134478Y85572D01*
X133138Y81449D01*
X132460Y77168D01*
Y72832D01*
X133138Y68551D01*
X134478Y64428D01*
X136446Y60566D01*
X138994Y57059D01*
X142059Y53994D01*
X145566Y51446D01*
X149428Y49478D01*
X153551Y48138D01*
X157833Y47460D01*
X162167D01*
X166449Y48138D01*
X170572Y49478D01*
X174434Y51446D01*
X177941Y53994D01*
X181006Y57059D01*
X183554Y60566D01*
X185522Y64428D01*
X186862Y68551D01*
X187540Y72832D01*
Y77168D01*
X186862Y81449D01*
X185522Y85572D01*
X183554Y89434D01*
X181006Y92941D01*
X177941Y96006D01*
X174434Y98554D01*
X170572Y100522D01*
X166449Y101862D01*
X162167Y102540D01*
D02*
G37*
G36*
X102540Y73730D02*
X76270D01*
Y47460D01*
X77168D01*
X81449Y48138D01*
X85572Y49478D01*
X89434Y51446D01*
X92941Y53994D01*
X96006Y57059D01*
X98554Y60566D01*
X100522Y64428D01*
X101862Y68551D01*
X102540Y72832D01*
Y73730D01*
D02*
G37*
G36*
X73730D02*
X47460D01*
Y72832D01*
X48138Y68551D01*
X49478Y64428D01*
X51446Y60566D01*
X53994Y57059D01*
X57059Y53994D01*
X60566Y51446D01*
X64428Y49478D01*
X68551Y48138D01*
X72832Y47460D01*
X73730D01*
Y73730D01*
D02*
G37*
G36*
X286810Y52460D02*
X282540D01*
Y46690D01*
X286810D01*
Y52460D01*
D02*
G37*
G36*
X280000D02*
X275730D01*
Y46690D01*
X280000D01*
Y52460D01*
D02*
G37*
%LPD*%
D11*
X1468540Y57730D02*
D03*
X1453540D02*
D03*
X1731500Y58500D02*
D03*
X1716500D02*
D03*
X498484Y55107D02*
D03*
X513484D02*
D03*
X281270Y53730D02*
D03*
X266270D02*
D03*
X1969000Y62000D02*
D03*
X1984000D02*
D03*
X1214500Y57500D02*
D03*
X1229500D02*
D03*
X980891Y55731D02*
D03*
X995891D02*
D03*
X739500Y55230D02*
D03*
X754500D02*
D03*
D12*
X1471229Y81505D02*
D03*
X1455229D02*
D03*
X1716189Y82275D02*
D03*
X1732189D02*
D03*
X755189Y84775D02*
D03*
X739189D02*
D03*
X501500Y80000D02*
D03*
X517500D02*
D03*
X1214959Y80005D02*
D03*
X1230959D02*
D03*
X982580Y84239D02*
D03*
X998580D02*
D03*
X284021Y77766D02*
D03*
X268021D02*
D03*
X1986689Y85775D02*
D03*
X1970689D02*
D03*
D16*
X1453540Y57730D02*
X1455270Y59460D01*
Y65546D01*
X1452963Y83010D02*
Y103393D01*
X1716500Y58500D02*
Y66586D01*
X1455270Y65546D02*
X1471229Y81505D01*
X1716500Y66586D02*
X1732189Y82275D01*
X1717597Y84254D02*
Y104637D01*
X734500Y106000D02*
X735597Y104903D01*
X736459Y87505D02*
Y90892D01*
Y87505D02*
X739189Y84775D01*
X735597Y91754D02*
Y104903D01*
Y91754D02*
X736459Y90892D01*
X737921Y66579D02*
X752814Y81472D01*
X737921Y55230D02*
Y66579D01*
X500000Y82055D02*
X500844Y81211D01*
X500000Y82055D02*
Y97000D01*
X980891Y67397D02*
X1000040Y86546D01*
X980891Y55731D02*
Y67397D01*
X502765Y66342D02*
X517102Y80679D01*
X498484Y55107D02*
X502765Y59387D01*
Y66342D01*
X267562Y78225D02*
Y95261D01*
X267429Y95128D02*
X267562Y95261D01*
X1970730Y63730D02*
Y69816D01*
X1969000Y62000D02*
X1970730Y63730D01*
Y69816D02*
X1986689Y85775D01*
X1214500Y57500D02*
X1216230Y59230D01*
Y65276D02*
X1230959Y80005D01*
X1216230Y59230D02*
Y65276D01*
X981799Y83776D02*
Y104159D01*
X1972383Y84073D02*
Y104456D01*
X266703Y53730D02*
Y61278D01*
X283606Y78181D01*
X267562Y78225D02*
X268021Y77766D01*
X1214367Y81984D02*
Y102367D01*
X281270Y53730D02*
X282200Y52800D01*
D17*
X160000Y75000D02*
D03*
X75000D02*
D03*
D18*
X1453096Y103526D02*
D03*
X734500Y106000D02*
D03*
X500000Y97000D02*
D03*
X981799Y104159D02*
D03*
X1972516Y104589D02*
D03*
X1717730Y104770D02*
D03*
X1214500Y102500D02*
D03*
X267562Y95261D02*
D03*
M02*
