G04*
G04 #@! TF.GenerationSoftware,Altium Limited,Altium Designer,22.1.2 (22)*
G04*
G04 Layer_Physical_Order=1*
G04 Layer_Color=255*
%FSLAX44Y44*%
%MOMM*%
G71*
G04*
G04 #@! TF.SameCoordinates,B00DDC5C-F8D0-431D-9E70-9109967B179A*
G04*
G04*
G04 #@! TF.FilePolarity,Positive*
G04*
G01*
G75*
%ADD11R,0.8000X0.8000*%
%ADD12R,0.6000X0.9000*%
%ADD13C,5.0000*%
%ADD17C,0.2540*%
%ADD18C,1.2700*%
G36*
X2248375Y114424D02*
X2251105Y113293D01*
X2253562Y111651D01*
X2255651Y109562D01*
X2257293Y107105D01*
X2258423Y104375D01*
X2259000Y101477D01*
X2259000Y100000D01*
X2259000D01*
X2259000Y100000D01*
X2259000Y50000D01*
Y48523D01*
X2258423Y45625D01*
X2257293Y42895D01*
X2255651Y40438D01*
X2253562Y38349D01*
X2251105Y36707D01*
X2248375Y35577D01*
X2245477Y35000D01*
X2244000Y35000D01*
X24000Y35000D01*
X22523D01*
X19625Y35576D01*
X16895Y36707D01*
X14438Y38349D01*
X12349Y40438D01*
X10707Y42895D01*
X9577Y45625D01*
X9000Y48523D01*
X9000Y50000D01*
X9000Y100000D01*
Y101477D01*
X9576Y104375D01*
X10707Y107105D01*
X12349Y109562D01*
X14438Y111651D01*
X16895Y113293D01*
X19625Y114424D01*
X22522Y115000D01*
X24000D01*
X24000Y115000D01*
X2244000Y115000D01*
X2245477Y115000D01*
X2248375Y114424D01*
D02*
G37*
%LPC*%
G36*
X338270Y94590D02*
X336889D01*
X336876Y94587D01*
X336863Y94590D01*
X336381Y94489D01*
X335898Y94393D01*
X335887Y94385D01*
X335874Y94382D01*
X334795Y93922D01*
X334389Y93645D01*
X333979Y93371D01*
X333971Y93360D01*
X333960Y93352D01*
X333691Y92941D01*
X333417Y92531D01*
X333415Y92518D01*
X333407Y92507D01*
X333316Y92022D01*
X333220Y91540D01*
X322730D01*
Y80486D01*
X322439Y80291D01*
X321877Y79451D01*
X321680Y78460D01*
Y69040D01*
X321877Y68049D01*
X322439Y67209D01*
X323279Y66647D01*
X324230Y66458D01*
Y54960D01*
X332720D01*
X332788Y54618D01*
X332814Y54271D01*
X332886Y54127D01*
X332917Y53969D01*
X333111Y53679D01*
X333268Y53368D01*
X334016Y52408D01*
X334138Y52303D01*
X334227Y52169D01*
X334517Y51975D01*
X334781Y51747D01*
X334934Y51697D01*
X335067Y51607D01*
X335409Y51539D01*
X335740Y51430D01*
X335901Y51442D01*
X336058Y51410D01*
X338270D01*
X339261Y51607D01*
X340101Y52169D01*
X340663Y53009D01*
X340860Y54000D01*
Y92000D01*
X340663Y92991D01*
X340101Y93831D01*
X339261Y94393D01*
X338270Y94590D01*
D02*
G37*
G36*
X938270Y96090D02*
X923270D01*
X922279Y95893D01*
X921439Y95331D01*
X920877Y94491D01*
X920680Y93500D01*
Y92450D01*
X919810Y91540D01*
X919410Y91540D01*
X906730D01*
Y88885D01*
X891283D01*
X891035Y89483D01*
X889610Y91340D01*
X887753Y92765D01*
X885591Y93661D01*
X883270Y93967D01*
X880949Y93661D01*
X878787Y92765D01*
X876930Y91340D01*
X875505Y89483D01*
X874609Y87321D01*
X874303Y85000D01*
X874609Y82679D01*
X875505Y80517D01*
X876930Y78660D01*
X878787Y77235D01*
X880949Y76339D01*
X883270Y76033D01*
X885591Y76339D01*
X887753Y77235D01*
X889610Y78660D01*
X891035Y80517D01*
X891283Y81115D01*
X906730D01*
Y78460D01*
X919410D01*
X919810Y78460D01*
X920680Y77551D01*
Y68896D01*
X920757Y68513D01*
X920788Y68212D01*
X920788D01*
X920757Y68513D01*
X920777Y68208D01*
X919854Y67849D01*
X919588Y67771D01*
X918659Y67771D01*
X915431D01*
Y62001D01*
X919701D01*
Y66548D01*
X919701Y66679D01*
X919743Y66931D01*
X920980Y67498D01*
X920995Y67493D01*
X921149Y67000D01*
X921205Y66896D01*
X921228Y66780D01*
X921445Y66455D01*
X921632Y66112D01*
X921724Y66038D01*
X921790Y65940D01*
X922115Y65723D01*
X922419Y65478D01*
X922532Y65444D01*
X922630Y65379D01*
X923013Y65303D01*
X923388Y65192D01*
X923621Y63940D01*
Y53691D01*
X930953D01*
X932144Y53284D01*
X932334Y52092D01*
X932439Y51807D01*
X932498Y51509D01*
X932613Y51338D01*
X932684Y51145D01*
X932891Y50922D01*
X933060Y50669D01*
X933231Y50554D01*
X933371Y50403D01*
X933647Y50276D01*
X933900Y50107D01*
X934102Y50067D01*
X934289Y49981D01*
X934593Y49970D01*
X934891Y49910D01*
X938270D01*
X939261Y50107D01*
X940101Y50669D01*
X940663Y51509D01*
X940860Y52500D01*
Y93500D01*
X940663Y94491D01*
X940101Y95331D01*
X939261Y95893D01*
X938270Y96090D01*
D02*
G37*
G36*
X743270Y95590D02*
X728270D01*
X727279Y95393D01*
X726439Y94831D01*
X725877Y93991D01*
X725680Y93000D01*
Y92450D01*
X724810Y91540D01*
X724410Y91540D01*
X711730D01*
Y88885D01*
X696283D01*
X696035Y89483D01*
X694610Y91340D01*
X692753Y92765D01*
X690591Y93661D01*
X688270Y93967D01*
X685949Y93661D01*
X683787Y92765D01*
X681930Y91340D01*
X680505Y89483D01*
X679609Y87321D01*
X679303Y85000D01*
X679609Y82679D01*
X680505Y80517D01*
X681930Y78660D01*
X683787Y77235D01*
X685949Y76339D01*
X688270Y76033D01*
X690591Y76339D01*
X692753Y77235D01*
X694610Y78660D01*
X696035Y80517D01*
X696283Y81115D01*
X711730D01*
Y78460D01*
X724410D01*
X724810Y78460D01*
X725680Y77551D01*
Y67270D01*
X725877Y66279D01*
X726439Y65439D01*
X727230Y64910D01*
Y53190D01*
X735881D01*
X735917Y53009D01*
X736479Y52169D01*
X737319Y51607D01*
X738310Y51410D01*
X743270D01*
X744261Y51607D01*
X745101Y52169D01*
X745663Y53009D01*
X745860Y54000D01*
Y93000D01*
X745663Y93991D01*
X745101Y94831D01*
X744261Y95393D01*
X743270Y95590D01*
D02*
G37*
G36*
X1678270Y93967D02*
X1675949Y93661D01*
X1673787Y92765D01*
X1671930Y91340D01*
X1670505Y89483D01*
X1669609Y87321D01*
X1669303Y85000D01*
X1669609Y82679D01*
X1670505Y80517D01*
X1671930Y78660D01*
X1673787Y77235D01*
X1675949Y76339D01*
X1678270Y76033D01*
X1680591Y76339D01*
X1682753Y77235D01*
X1684610Y78660D01*
X1686035Y80517D01*
X1686283Y81115D01*
X1708730D01*
Y78460D01*
X1721810D01*
Y91540D01*
X1708730D01*
Y88885D01*
X1686283D01*
X1686035Y89483D01*
X1684610Y91340D01*
X1682753Y92765D01*
X1680591Y93661D01*
X1678270Y93967D01*
D02*
G37*
G36*
X487270D02*
X484949Y93661D01*
X482787Y92765D01*
X480930Y91340D01*
X479505Y89483D01*
X478609Y87321D01*
X478303Y85000D01*
X478609Y82679D01*
X479505Y80517D01*
X480930Y78660D01*
X482787Y77235D01*
X484949Y76339D01*
X487270Y76033D01*
X489591Y76339D01*
X491753Y77235D01*
X493610Y78660D01*
X495035Y80517D01*
X495283Y81115D01*
X508230D01*
Y78460D01*
X521310D01*
Y91540D01*
X508230D01*
Y88885D01*
X495283D01*
X495035Y89483D01*
X493610Y91340D01*
X491753Y92765D01*
X489591Y93661D01*
X487270Y93967D01*
D02*
G37*
G36*
X283270D02*
X280949Y93661D01*
X278787Y92765D01*
X276930Y91340D01*
X275505Y89483D01*
X274609Y87321D01*
X274303Y85000D01*
X274609Y82679D01*
X275505Y80517D01*
X276930Y78660D01*
X278787Y77235D01*
X280949Y76339D01*
X283270Y76033D01*
X285591Y76339D01*
X287753Y77235D01*
X289610Y78660D01*
X291035Y80517D01*
X291283Y81115D01*
X306730D01*
Y78460D01*
X319810D01*
Y87337D01*
X319942Y88000D01*
X319810Y88663D01*
Y91540D01*
X317617D01*
X317544Y91589D01*
X316057Y91885D01*
X314571Y91589D01*
X314497Y91540D01*
X306730D01*
Y88885D01*
X291283D01*
X291035Y89483D01*
X289610Y91340D01*
X287753Y92765D01*
X285591Y93661D01*
X283270Y93967D01*
D02*
G37*
G36*
X76270Y102525D02*
Y76270D01*
X102525D01*
X102285Y79321D01*
X101273Y83537D01*
X99614Y87542D01*
X97349Y91238D01*
X94534Y94534D01*
X91238Y97349D01*
X87542Y99614D01*
X83537Y101273D01*
X79321Y102285D01*
X76270Y102525D01*
D02*
G37*
G36*
X73730D02*
X70679Y102285D01*
X66463Y101273D01*
X62458Y99614D01*
X58762Y97349D01*
X55466Y94534D01*
X52651Y91238D01*
X50386Y87542D01*
X48727Y83537D01*
X47715Y79321D01*
X47475Y76270D01*
X73730D01*
Y102525D01*
D02*
G37*
G36*
X520810Y69040D02*
X516540D01*
Y63270D01*
X520810D01*
Y69040D01*
D02*
G37*
G36*
X320310D02*
X316040D01*
Y63270D01*
X320310D01*
Y69040D01*
D02*
G37*
G36*
X313500D02*
X309230D01*
Y63270D01*
X313500D01*
Y69040D01*
D02*
G37*
G36*
X514000D02*
X509730D01*
Y63270D01*
X514000D01*
Y69040D01*
D02*
G37*
G36*
X912891Y67771D02*
X908621D01*
Y62001D01*
X912891D01*
Y67771D01*
D02*
G37*
G36*
X723310Y67270D02*
X719040D01*
Y61500D01*
X723310D01*
Y67270D01*
D02*
G37*
G36*
X716500D02*
X712230D01*
Y61500D01*
X716500D01*
Y67270D01*
D02*
G37*
G36*
X1721310Y67040D02*
X1717040D01*
Y61270D01*
X1721310D01*
Y67040D01*
D02*
G37*
G36*
X1321310D02*
X1317040D01*
Y61270D01*
X1321310D01*
Y67040D01*
D02*
G37*
G36*
X1523810D02*
X1519540D01*
Y61270D01*
X1523810D01*
Y67040D01*
D02*
G37*
G36*
X1517000D02*
X1512730D01*
Y61270D01*
X1517000D01*
Y67040D01*
D02*
G37*
G36*
X1314500D02*
X1310230D01*
Y61270D01*
X1314500D01*
Y67040D01*
D02*
G37*
G36*
X1114500D02*
X1110230D01*
Y61270D01*
X1114500D01*
Y67040D01*
D02*
G37*
G36*
X1714500D02*
X1710230D01*
Y61270D01*
X1714500D01*
Y67040D01*
D02*
G37*
G36*
X520810Y60730D02*
X516540D01*
Y54960D01*
X520810D01*
Y60730D01*
D02*
G37*
G36*
X514000D02*
X509730D01*
Y54960D01*
X514000D01*
Y60730D01*
D02*
G37*
G36*
X320310D02*
X316040D01*
Y54960D01*
X320310D01*
Y60730D01*
D02*
G37*
G36*
X313500D02*
X309230D01*
Y54960D01*
X313500D01*
Y60730D01*
D02*
G37*
G36*
X919701Y59461D02*
X915431D01*
Y53691D01*
X919701D01*
Y59461D01*
D02*
G37*
G36*
X912891D02*
X908621D01*
Y53691D01*
X912891D01*
Y59461D01*
D02*
G37*
G36*
X540270Y93590D02*
X537310D01*
X536319Y93393D01*
X535479Y92831D01*
X534917Y91991D01*
X534828Y91540D01*
X524230D01*
Y80820D01*
X523439Y80291D01*
X522877Y79451D01*
X522680Y78460D01*
Y69040D01*
X522877Y68049D01*
X523439Y67209D01*
X524279Y66647D01*
X524730Y66558D01*
Y54960D01*
X533450D01*
X533979Y54169D01*
X534819Y53607D01*
X535810Y53410D01*
X540270D01*
X541261Y53607D01*
X542101Y54169D01*
X542663Y55009D01*
X542860Y56000D01*
Y91000D01*
X542663Y91991D01*
X542101Y92831D01*
X541261Y93393D01*
X540270Y93590D01*
D02*
G37*
G36*
X723310Y58960D02*
X719040D01*
Y53190D01*
X723310D01*
Y58960D01*
D02*
G37*
G36*
X716500D02*
X712230D01*
Y53190D01*
X716500D01*
Y58960D01*
D02*
G37*
G36*
X1721310Y58730D02*
X1717040D01*
Y52960D01*
X1721310D01*
Y58730D01*
D02*
G37*
G36*
X1714500D02*
X1710230D01*
Y52960D01*
X1714500D01*
Y58730D01*
D02*
G37*
G36*
X1523810D02*
X1519540D01*
Y52960D01*
X1523810D01*
Y58730D01*
D02*
G37*
G36*
X1517000D02*
X1512730D01*
Y52960D01*
X1517000D01*
Y58730D01*
D02*
G37*
G36*
X1321310D02*
X1317040D01*
Y52960D01*
X1321310D01*
Y58730D01*
D02*
G37*
G36*
X1314500D02*
X1310230D01*
Y52960D01*
X1314500D01*
Y58730D01*
D02*
G37*
G36*
X1121310D02*
X1117040D01*
Y52960D01*
X1121310D01*
Y58730D01*
D02*
G37*
G36*
X1114500D02*
X1110230D01*
Y52960D01*
X1114500D01*
Y58730D01*
D02*
G37*
G36*
X1278270Y93967D02*
X1275949Y93661D01*
X1273787Y92765D01*
X1271930Y91340D01*
X1270505Y89483D01*
X1269609Y87321D01*
X1269303Y85000D01*
X1269609Y82679D01*
X1270505Y80517D01*
X1271930Y78660D01*
X1273787Y77235D01*
X1275949Y76339D01*
X1278270Y76033D01*
X1280591Y76339D01*
X1282753Y77235D01*
X1284610Y78660D01*
X1286035Y80517D01*
X1286283Y81115D01*
X1308730D01*
Y78460D01*
X1321410D01*
X1321810Y78460D01*
X1322680Y77551D01*
Y67040D01*
X1322877Y66049D01*
X1323439Y65209D01*
X1324279Y64647D01*
X1325230Y64458D01*
Y52960D01*
X1334791D01*
X1335319Y52607D01*
X1336310Y52410D01*
X1340270D01*
X1341261Y52607D01*
X1342101Y53169D01*
X1342663Y54009D01*
X1342860Y55000D01*
Y90000D01*
X1342663Y90991D01*
X1342101Y91831D01*
X1341261Y92393D01*
X1340270Y92590D01*
X1337810D01*
X1336819Y92393D01*
X1335979Y91831D01*
X1335784Y91540D01*
X1324730D01*
Y80942D01*
X1324279Y80853D01*
X1323439Y80291D01*
X1323080Y79754D01*
X1321810Y80099D01*
Y91540D01*
X1308730D01*
Y88885D01*
X1286283D01*
X1286035Y89483D01*
X1284610Y91340D01*
X1282753Y92765D01*
X1280591Y93661D01*
X1278270Y93967D01*
D02*
G37*
G36*
X1740270Y92090D02*
X1737810D01*
X1736819Y91893D01*
X1736291Y91540D01*
X1724730D01*
Y80486D01*
X1724439Y80291D01*
X1723877Y79451D01*
X1723680Y78460D01*
Y67040D01*
X1723877Y66049D01*
X1724439Y65209D01*
X1725230Y64680D01*
Y52960D01*
X1734284D01*
X1734479Y52669D01*
X1735319Y52107D01*
X1736310Y51910D01*
X1740270D01*
X1741261Y52107D01*
X1742101Y52669D01*
X1742663Y53509D01*
X1742860Y54500D01*
Y89500D01*
X1742663Y90491D01*
X1742101Y91331D01*
X1741261Y91893D01*
X1740270Y92090D01*
D02*
G37*
G36*
X1083270Y93967D02*
X1080949Y93661D01*
X1078787Y92765D01*
X1076930Y91340D01*
X1075505Y89483D01*
X1074609Y87321D01*
X1074303Y85000D01*
X1074609Y82679D01*
X1075505Y80517D01*
X1076930Y78660D01*
X1078787Y77235D01*
X1080949Y76339D01*
X1083270Y76033D01*
X1085591Y76339D01*
X1087753Y77235D01*
X1089610Y78660D01*
X1091035Y80517D01*
X1091283Y81115D01*
X1108730D01*
Y78460D01*
X1120600D01*
X1120863Y78333D01*
X1121630Y77464D01*
X1121680Y77381D01*
X1121680Y77380D01*
X1121680Y77190D01*
Y68157D01*
X1121517Y67664D01*
X1120867Y67170D01*
X1120505Y67040D01*
X1117040D01*
Y61270D01*
X1121310D01*
Y65361D01*
X1121968Y65708D01*
X1122548Y65861D01*
X1122580Y65859D01*
X1122678Y65746D01*
X1123638Y64998D01*
X1123949Y64841D01*
X1124239Y64647D01*
X1124397Y64616D01*
X1124540Y64544D01*
X1124888Y64518D01*
X1125230Y64450D01*
Y52960D01*
X1133950D01*
X1134479Y52169D01*
X1135319Y51607D01*
X1136310Y51410D01*
X1140270D01*
X1141261Y51607D01*
X1142101Y52169D01*
X1142663Y53009D01*
X1142860Y54000D01*
Y90000D01*
X1142663Y90991D01*
X1142101Y91831D01*
X1141261Y92393D01*
X1140270Y92590D01*
X1137810D01*
X1136819Y92393D01*
X1135979Y91831D01*
X1135784Y91540D01*
X1124730D01*
Y81050D01*
X1124248Y80954D01*
X1123763Y80863D01*
X1123752Y80855D01*
X1123739Y80853D01*
X1123330Y80579D01*
X1123080Y80416D01*
X1122361Y80616D01*
X1121810Y80948D01*
Y91540D01*
X1108730D01*
Y88885D01*
X1091283D01*
X1091035Y89483D01*
X1089610Y91340D01*
X1087753Y92765D01*
X1085591Y93661D01*
X1083270Y93967D01*
D02*
G37*
G36*
X1488270D02*
X1485949Y93661D01*
X1483787Y92765D01*
X1481930Y91340D01*
X1480505Y89483D01*
X1479609Y87321D01*
X1479303Y85000D01*
X1479609Y82679D01*
X1480505Y80517D01*
X1481930Y78660D01*
X1483787Y77235D01*
X1485949Y76339D01*
X1488270Y76033D01*
X1490591Y76339D01*
X1492753Y77235D01*
X1494610Y78660D01*
X1496035Y80517D01*
X1496283Y81115D01*
X1511730D01*
Y78460D01*
X1524410D01*
X1524810Y78460D01*
X1525680Y77551D01*
Y67040D01*
X1525877Y66049D01*
X1526439Y65209D01*
X1527279Y64647D01*
X1527730Y64558D01*
Y52960D01*
X1536450D01*
X1536979Y52169D01*
X1537819Y51607D01*
X1538810Y51410D01*
X1543270D01*
X1544261Y51607D01*
X1545101Y52169D01*
X1545663Y53009D01*
X1545860Y54000D01*
Y90000D01*
X1545663Y90991D01*
X1545101Y91831D01*
X1544261Y92393D01*
X1543270Y92590D01*
X1540810D01*
X1539819Y92393D01*
X1538979Y91831D01*
X1538784Y91540D01*
X1527730D01*
Y80942D01*
X1527279Y80853D01*
X1526439Y80291D01*
X1526080Y79754D01*
X1524810Y80099D01*
Y91540D01*
X1511730D01*
Y88885D01*
X1496283D01*
X1496035Y89483D01*
X1494610Y91340D01*
X1492753Y92765D01*
X1490591Y93661D01*
X1488270Y93967D01*
D02*
G37*
G36*
X102525Y73730D02*
X76270D01*
Y47475D01*
X79321Y47715D01*
X83537Y48727D01*
X87542Y50386D01*
X91238Y52651D01*
X94534Y55466D01*
X97349Y58762D01*
X99614Y62458D01*
X101273Y66463D01*
X102285Y70679D01*
X102525Y73730D01*
D02*
G37*
G36*
X73730D02*
X47475D01*
X47715Y70679D01*
X48727Y66463D01*
X50386Y62458D01*
X52651Y58762D01*
X55466Y55466D01*
X58762Y52651D01*
X62458Y50386D01*
X66463Y48727D01*
X70679Y47715D01*
X73730Y47475D01*
Y73730D01*
D02*
G37*
G36*
X160000Y102967D02*
X157679Y102661D01*
X157028Y102391D01*
X155678Y102285D01*
X151463Y101273D01*
X147458Y99614D01*
X143762Y97349D01*
X140466Y94534D01*
X137651Y91238D01*
X135386Y87542D01*
X133727Y83537D01*
X132715Y79321D01*
X132375Y75000D01*
X132715Y70679D01*
X133727Y66463D01*
X135386Y62458D01*
X137651Y58762D01*
X140466Y55466D01*
X143762Y52651D01*
X147458Y50386D01*
X151463Y48727D01*
X155678Y47715D01*
X157028Y47609D01*
X157679Y47339D01*
X160000Y47033D01*
X162321Y47339D01*
X162973Y47609D01*
X164321Y47715D01*
X168537Y48727D01*
X172542Y50386D01*
X176238Y52651D01*
X179534Y55466D01*
X182349Y58762D01*
X184614Y62458D01*
X186273Y66463D01*
X187285Y70679D01*
X187625Y75000D01*
X187285Y79321D01*
X186273Y83537D01*
X184614Y87542D01*
X182349Y91238D01*
X179534Y94534D01*
X176238Y97349D01*
X172542Y99614D01*
X168537Y101273D01*
X164321Y102285D01*
X162972Y102391D01*
X162321Y102661D01*
X160000Y102967D01*
D02*
G37*
%LPD*%
G36*
X338270Y54000D02*
X336058D01*
X335310Y54960D01*
Y60730D01*
X329770D01*
Y62000D01*
X328500D01*
Y69040D01*
X324270D01*
Y78460D01*
X328000D01*
Y85000D01*
X329270D01*
Y86270D01*
X335810D01*
Y91540D01*
X336889Y92000D01*
X338270D01*
Y54000D01*
D02*
G37*
%LPC*%
G36*
X335810Y83730D02*
X330540D01*
Y78460D01*
X335810D01*
Y83730D01*
D02*
G37*
G36*
X335310Y69040D02*
X331040D01*
Y63270D01*
X335310D01*
Y69040D01*
D02*
G37*
%LPD*%
G36*
X938270Y52500D02*
X934891D01*
X934701Y53691D01*
X934701Y53770D01*
Y59461D01*
X929161D01*
Y60731D01*
X927891D01*
Y67771D01*
X923621Y67771D01*
X923270Y68896D01*
Y78460D01*
X928000D01*
Y85000D01*
Y91540D01*
X923270D01*
Y93500D01*
X938270D01*
Y52500D01*
D02*
G37*
%LPC*%
G36*
X935810Y91540D02*
X930540D01*
Y86270D01*
X935810D01*
Y91540D01*
D02*
G37*
G36*
Y83730D02*
X930540D01*
Y78460D01*
X935810D01*
Y83730D01*
D02*
G37*
G36*
X930431Y67771D02*
Y62001D01*
X934701D01*
Y67771D01*
X930431D01*
D02*
G37*
%LPD*%
G36*
X743270Y54000D02*
X738310D01*
Y58960D01*
X732770D01*
Y60230D01*
X731500D01*
Y67270D01*
X728270D01*
Y78460D01*
X733000D01*
Y85000D01*
Y91540D01*
X728270D01*
Y93000D01*
X743270D01*
Y54000D01*
D02*
G37*
%LPC*%
G36*
X740810Y91540D02*
X735540D01*
Y86270D01*
X740810D01*
Y91540D01*
D02*
G37*
G36*
Y83730D02*
X735540D01*
Y78460D01*
X740810D01*
Y83730D01*
D02*
G37*
G36*
X738310Y67270D02*
X734040D01*
Y61500D01*
X738310D01*
Y67270D01*
D02*
G37*
%LPD*%
G36*
X540270Y56000D02*
X535810D01*
Y60730D01*
X530270D01*
Y62000D01*
X529000D01*
Y69040D01*
X525270D01*
Y78460D01*
X529500D01*
Y85000D01*
X530770D01*
Y86270D01*
X537310D01*
Y91000D01*
X540270D01*
Y56000D01*
D02*
G37*
%LPC*%
G36*
X537310Y83730D02*
X532040D01*
Y78460D01*
X537310D01*
Y83730D01*
D02*
G37*
G36*
X535810Y69040D02*
X531540D01*
Y63270D01*
X535810D01*
Y69040D01*
D02*
G37*
%LPD*%
G36*
X1340270Y55000D02*
X1336310D01*
Y58730D01*
X1330770D01*
Y60000D01*
X1329500D01*
Y67040D01*
X1325270D01*
Y78460D01*
X1330000D01*
Y85000D01*
X1331270D01*
Y86270D01*
X1337810D01*
Y90000D01*
X1340270D01*
Y55000D01*
D02*
G37*
%LPC*%
G36*
X1337810Y83730D02*
X1332540D01*
Y78460D01*
X1337810D01*
Y83730D01*
D02*
G37*
G36*
X1336310Y67040D02*
X1332040D01*
Y61270D01*
X1336310D01*
Y67040D01*
D02*
G37*
%LPD*%
G36*
X1740270Y54500D02*
X1736310D01*
Y58730D01*
X1730770D01*
Y60000D01*
X1729500D01*
Y67040D01*
X1726270D01*
Y78460D01*
X1730000D01*
Y85000D01*
X1731270D01*
Y86270D01*
X1737810D01*
Y89500D01*
X1740270D01*
Y54500D01*
D02*
G37*
%LPC*%
G36*
X1737810Y83730D02*
X1732540D01*
Y78460D01*
X1737810D01*
Y83730D01*
D02*
G37*
G36*
X1736310Y67040D02*
X1732040D01*
Y61270D01*
X1736310D01*
Y67040D01*
D02*
G37*
%LPD*%
G36*
X1140270Y54000D02*
X1136310D01*
Y58730D01*
X1130770D01*
Y60000D01*
X1129500D01*
Y67040D01*
X1125230D01*
X1124270Y67788D01*
Y77380D01*
X1124730Y78460D01*
X1130000D01*
Y85000D01*
X1131270D01*
Y86270D01*
X1137810D01*
Y90000D01*
X1140270D01*
Y54000D01*
D02*
G37*
%LPC*%
G36*
X1137810Y83730D02*
X1132540D01*
Y78460D01*
X1137810D01*
Y83730D01*
D02*
G37*
G36*
X1132040Y67040D02*
Y61270D01*
X1136310D01*
Y67040D01*
X1132040D01*
D02*
G37*
%LPD*%
G36*
X1543270Y54000D02*
X1538810D01*
Y58730D01*
X1533270D01*
Y60000D01*
X1532000D01*
Y67040D01*
X1528270D01*
Y78460D01*
X1533000D01*
Y85000D01*
X1534270D01*
Y86270D01*
X1540810D01*
Y90000D01*
X1543270D01*
Y54000D01*
D02*
G37*
%LPC*%
G36*
X1540810Y83730D02*
X1535540D01*
Y78460D01*
X1540810D01*
Y83730D01*
D02*
G37*
G36*
X1538810Y67040D02*
X1534540D01*
Y61270D01*
X1538810D01*
Y67040D01*
D02*
G37*
%LPD*%
D11*
X530770Y85000D02*
D03*
X514770D02*
D03*
X313270D02*
D03*
X329270D02*
D03*
X1331270D02*
D03*
X1315270D02*
D03*
X1518270D02*
D03*
X1534270D02*
D03*
X734270D02*
D03*
X718270D02*
D03*
X1115270D02*
D03*
X1131270D02*
D03*
X913270D02*
D03*
X929270D02*
D03*
X1731270D02*
D03*
X1715270D02*
D03*
D12*
X314770Y62000D02*
D03*
X329770D02*
D03*
X515270D02*
D03*
X530270D02*
D03*
X1315770Y60000D02*
D03*
X1330770D02*
D03*
X1518270D02*
D03*
X1533270D02*
D03*
X1730770D02*
D03*
X1715770D02*
D03*
X1130770D02*
D03*
X1115770D02*
D03*
X929161Y60731D02*
D03*
X914161D02*
D03*
X732770Y60230D02*
D03*
X717770D02*
D03*
D13*
X160000Y75000D02*
D03*
X75000D02*
D03*
D17*
X1678270Y85000D02*
X1715270D01*
X1488270D02*
X1518270D01*
X1278270D02*
X1315270D01*
X1083270D02*
X1115270D01*
X883270D02*
X913270D01*
X688270D02*
X718270D01*
X313057D02*
X316057Y88000D01*
X313057Y85000D02*
X313270D01*
X283270D02*
X313057D01*
X329770Y62000D02*
Y63500D01*
X512902Y85000D02*
X514114Y86211D01*
X487270Y85000D02*
X512902D01*
X160000Y75000D02*
Y94000D01*
X160000Y94000D01*
D18*
X1678270Y85000D02*
D03*
X883270D02*
D03*
X688270D02*
D03*
X283270D02*
D03*
X1488270D02*
D03*
X1278270D02*
D03*
X1083270D02*
D03*
X487270D02*
D03*
X178000Y74000D02*
D03*
X160000Y94000D02*
D03*
Y56000D02*
D03*
X141500Y74500D02*
D03*
M02*
