G04*
G04 #@! TF.GenerationSoftware,Altium Limited,Altium Designer,22.1.2 (22)*
G04*
G04 Layer_Physical_Order=2*
G04 Layer_Color=16711680*
%FSLAX44Y44*%
%MOMM*%
G71*
G04*
G04 #@! TF.SameCoordinates,B00DDC5C-F8D0-431D-9E70-9109967B179A*
G04*
G04*
G04 #@! TF.FilePolarity,Positive*
G04*
G01*
G75*
%ADD18C,1.2700*%
G36*
X2249982Y115030D02*
X2252712Y113899D01*
X2255168Y112258D01*
X2257258Y110169D01*
X2258899Y107712D01*
X2260030Y104982D01*
X2260607Y102084D01*
X2260607Y100607D01*
X2260607D01*
X2260607Y100607D01*
X2260607Y50607D01*
Y49129D01*
X2260030Y46231D01*
X2258899Y43502D01*
X2257258Y41045D01*
X2255168Y38955D01*
X2252712Y37314D01*
X2249982Y36183D01*
X2247084Y35607D01*
X2245607Y35607D01*
X25607Y35607D01*
X24129D01*
X21231Y36183D01*
X18501Y37314D01*
X16045Y38955D01*
X13955Y41045D01*
X12314Y43502D01*
X11183Y46231D01*
X10607Y49129D01*
X10607Y50607D01*
X10606Y100607D01*
Y102084D01*
X11183Y104982D01*
X12314Y107712D01*
X13955Y110169D01*
X16045Y112258D01*
X18501Y113899D01*
X21231Y115030D01*
X24129Y115607D01*
X25607D01*
X25607Y115607D01*
X2245607Y115607D01*
X2247084Y115607D01*
X2249982Y115030D01*
D02*
G37*
%LPC*%
G36*
X161270Y102800D02*
Y95270D01*
X168799D01*
X168661Y96321D01*
X167765Y98483D01*
X166340Y100340D01*
X164483Y101765D01*
X162321Y102661D01*
X161270Y102800D01*
D02*
G37*
G36*
X158730D02*
X157679Y102661D01*
X155517Y101765D01*
X153660Y100340D01*
X152235Y98483D01*
X151339Y96321D01*
X151201Y95270D01*
X158730D01*
Y102800D01*
D02*
G37*
G36*
X1679540Y93799D02*
Y86270D01*
X1687070D01*
X1686931Y87321D01*
X1686035Y89483D01*
X1684610Y91340D01*
X1682753Y92765D01*
X1680591Y93661D01*
X1679540Y93799D01*
D02*
G37*
G36*
X1677000D02*
X1675949Y93661D01*
X1673787Y92765D01*
X1671930Y91340D01*
X1670505Y89483D01*
X1669609Y87321D01*
X1669471Y86270D01*
X1677000D01*
Y93799D01*
D02*
G37*
G36*
X1489540D02*
Y86270D01*
X1497070D01*
X1496931Y87321D01*
X1496035Y89483D01*
X1494610Y91340D01*
X1492753Y92765D01*
X1490591Y93661D01*
X1489540Y93799D01*
D02*
G37*
G36*
X1487000D02*
X1485949Y93661D01*
X1483787Y92765D01*
X1481930Y91340D01*
X1480505Y89483D01*
X1479609Y87321D01*
X1479471Y86270D01*
X1487000D01*
Y93799D01*
D02*
G37*
G36*
X1279540D02*
Y86270D01*
X1287070D01*
X1286931Y87321D01*
X1286035Y89483D01*
X1284610Y91340D01*
X1282753Y92765D01*
X1280591Y93661D01*
X1279540Y93799D01*
D02*
G37*
G36*
X1277000D02*
X1275949Y93661D01*
X1273787Y92765D01*
X1271930Y91340D01*
X1270505Y89483D01*
X1269609Y87321D01*
X1269471Y86270D01*
X1277000D01*
Y93799D01*
D02*
G37*
G36*
X1084540D02*
Y86270D01*
X1092069D01*
X1091931Y87321D01*
X1091035Y89483D01*
X1089610Y91340D01*
X1087753Y92765D01*
X1085591Y93661D01*
X1084540Y93799D01*
D02*
G37*
G36*
X1082000D02*
X1080949Y93661D01*
X1078787Y92765D01*
X1076930Y91340D01*
X1075505Y89483D01*
X1074609Y87321D01*
X1074471Y86270D01*
X1082000D01*
Y93799D01*
D02*
G37*
G36*
X884540D02*
Y86270D01*
X892069D01*
X891931Y87321D01*
X891035Y89483D01*
X889610Y91340D01*
X887753Y92765D01*
X885591Y93661D01*
X884540Y93799D01*
D02*
G37*
G36*
X882000D02*
X880949Y93661D01*
X878787Y92765D01*
X876930Y91340D01*
X875505Y89483D01*
X874609Y87321D01*
X874471Y86270D01*
X882000D01*
Y93799D01*
D02*
G37*
G36*
X689540D02*
Y86270D01*
X697069D01*
X696931Y87321D01*
X696035Y89483D01*
X694610Y91340D01*
X692753Y92765D01*
X690591Y93661D01*
X689540Y93799D01*
D02*
G37*
G36*
X687000D02*
X685949Y93661D01*
X683787Y92765D01*
X681930Y91340D01*
X680505Y89483D01*
X679609Y87321D01*
X679471Y86270D01*
X687000D01*
Y93799D01*
D02*
G37*
G36*
X488540D02*
Y86270D01*
X496069D01*
X495931Y87321D01*
X495035Y89483D01*
X493610Y91340D01*
X491753Y92765D01*
X489591Y93661D01*
X488540Y93799D01*
D02*
G37*
G36*
X486000D02*
X484949Y93661D01*
X482787Y92765D01*
X480930Y91340D01*
X479505Y89483D01*
X478609Y87321D01*
X478470Y86270D01*
X486000D01*
Y93799D01*
D02*
G37*
G36*
X284540D02*
Y86270D01*
X292069D01*
X291931Y87321D01*
X291035Y89483D01*
X289610Y91340D01*
X287753Y92765D01*
X285591Y93661D01*
X284540Y93799D01*
D02*
G37*
G36*
X282000D02*
X280949Y93661D01*
X278787Y92765D01*
X276930Y91340D01*
X275505Y89483D01*
X274609Y87321D01*
X274471Y86270D01*
X282000D01*
Y93799D01*
D02*
G37*
G36*
X168799Y92730D02*
X161270D01*
Y85201D01*
X162321Y85339D01*
X164483Y86235D01*
X166340Y87660D01*
X167765Y89517D01*
X168661Y91679D01*
X168799Y92730D01*
D02*
G37*
G36*
X158730D02*
X151201D01*
X151339Y91679D01*
X152235Y89517D01*
X153660Y87660D01*
X155517Y86235D01*
X157679Y85339D01*
X158730Y85201D01*
Y92730D01*
D02*
G37*
G36*
X1687070Y83730D02*
X1679540D01*
Y76200D01*
X1680591Y76339D01*
X1682753Y77235D01*
X1684610Y78660D01*
X1686035Y80517D01*
X1686931Y82679D01*
X1687070Y83730D01*
D02*
G37*
G36*
X1677000D02*
X1669471D01*
X1669609Y82679D01*
X1670505Y80517D01*
X1671930Y78660D01*
X1673787Y77235D01*
X1675949Y76339D01*
X1677000Y76200D01*
Y83730D01*
D02*
G37*
G36*
X1497070D02*
X1489540D01*
Y76200D01*
X1490591Y76339D01*
X1492753Y77235D01*
X1494610Y78660D01*
X1496035Y80517D01*
X1496931Y82679D01*
X1497070Y83730D01*
D02*
G37*
G36*
X1487000D02*
X1479471D01*
X1479609Y82679D01*
X1480505Y80517D01*
X1481930Y78660D01*
X1483787Y77235D01*
X1485949Y76339D01*
X1487000Y76200D01*
Y83730D01*
D02*
G37*
G36*
X1287070D02*
X1279540D01*
Y76200D01*
X1280591Y76339D01*
X1282753Y77235D01*
X1284610Y78660D01*
X1286035Y80517D01*
X1286931Y82679D01*
X1287070Y83730D01*
D02*
G37*
G36*
X1277000D02*
X1269471D01*
X1269609Y82679D01*
X1270505Y80517D01*
X1271930Y78660D01*
X1273787Y77235D01*
X1275949Y76339D01*
X1277000Y76200D01*
Y83730D01*
D02*
G37*
G36*
X1092069D02*
X1084540D01*
Y76200D01*
X1085591Y76339D01*
X1087753Y77235D01*
X1089610Y78660D01*
X1091035Y80517D01*
X1091931Y82679D01*
X1092069Y83730D01*
D02*
G37*
G36*
X1082000D02*
X1074471D01*
X1074609Y82679D01*
X1075505Y80517D01*
X1076930Y78660D01*
X1078787Y77235D01*
X1080949Y76339D01*
X1082000Y76200D01*
Y83730D01*
D02*
G37*
G36*
X892069D02*
X884540D01*
Y76200D01*
X885591Y76339D01*
X887753Y77235D01*
X889610Y78660D01*
X891035Y80517D01*
X891931Y82679D01*
X892069Y83730D01*
D02*
G37*
G36*
X882000D02*
X874471D01*
X874609Y82679D01*
X875505Y80517D01*
X876930Y78660D01*
X878787Y77235D01*
X880949Y76339D01*
X882000Y76200D01*
Y83730D01*
D02*
G37*
G36*
X697069D02*
X689540D01*
Y76200D01*
X690591Y76339D01*
X692753Y77235D01*
X694610Y78660D01*
X696035Y80517D01*
X696931Y82679D01*
X697069Y83730D01*
D02*
G37*
G36*
X687000D02*
X679471D01*
X679609Y82679D01*
X680505Y80517D01*
X681930Y78660D01*
X683787Y77235D01*
X685949Y76339D01*
X687000Y76200D01*
Y83730D01*
D02*
G37*
G36*
X496069D02*
X488540D01*
Y76200D01*
X489591Y76339D01*
X491753Y77235D01*
X493610Y78660D01*
X495035Y80517D01*
X495931Y82679D01*
X496069Y83730D01*
D02*
G37*
G36*
X486000D02*
X478470D01*
X478609Y82679D01*
X479505Y80517D01*
X480930Y78660D01*
X482787Y77235D01*
X484949Y76339D01*
X486000Y76200D01*
Y83730D01*
D02*
G37*
G36*
X292069D02*
X284540D01*
Y76200D01*
X285591Y76339D01*
X287753Y77235D01*
X289610Y78660D01*
X291035Y80517D01*
X291931Y82679D01*
X292069Y83730D01*
D02*
G37*
G36*
X282000D02*
X274471D01*
X274609Y82679D01*
X275505Y80517D01*
X276930Y78660D01*
X278787Y77235D01*
X280949Y76339D01*
X282000Y76200D01*
Y83730D01*
D02*
G37*
G36*
X142770Y83300D02*
Y75770D01*
X150300D01*
X150161Y76821D01*
X149265Y78983D01*
X147840Y80840D01*
X145983Y82265D01*
X143821Y83161D01*
X142770Y83300D01*
D02*
G37*
G36*
X140230D02*
X139179Y83161D01*
X137017Y82265D01*
X135160Y80840D01*
X133735Y78983D01*
X132839Y76821D01*
X132701Y75770D01*
X140230D01*
Y83300D01*
D02*
G37*
G36*
X179270Y82800D02*
Y75270D01*
X186800D01*
X186661Y76321D01*
X185765Y78483D01*
X184340Y80340D01*
X182483Y81765D01*
X180321Y82661D01*
X179270Y82800D01*
D02*
G37*
G36*
X176730D02*
X175679Y82661D01*
X173517Y81765D01*
X171660Y80340D01*
X170235Y78483D01*
X169339Y76321D01*
X169200Y75270D01*
X176730D01*
Y82800D01*
D02*
G37*
G36*
X150300Y73230D02*
X142770D01*
Y65700D01*
X143821Y65839D01*
X145983Y66735D01*
X147840Y68160D01*
X149265Y70017D01*
X150161Y72179D01*
X150300Y73230D01*
D02*
G37*
G36*
X140230D02*
X132701D01*
X132839Y72179D01*
X133735Y70017D01*
X135160Y68160D01*
X137017Y66735D01*
X139179Y65839D01*
X140230Y65700D01*
Y73230D01*
D02*
G37*
G36*
X186800Y72730D02*
X179270D01*
Y65201D01*
X180321Y65339D01*
X182483Y66235D01*
X184340Y67660D01*
X185765Y69517D01*
X186661Y71679D01*
X186800Y72730D01*
D02*
G37*
G36*
X176730D02*
X169200D01*
X169339Y71679D01*
X170235Y69517D01*
X171660Y67660D01*
X173517Y66235D01*
X175679Y65339D01*
X176730Y65201D01*
Y72730D01*
D02*
G37*
G36*
X161270Y64799D02*
Y57270D01*
X168799D01*
X168661Y58321D01*
X167765Y60483D01*
X166340Y62340D01*
X164483Y63765D01*
X162321Y64661D01*
X161270Y64799D01*
D02*
G37*
G36*
X158730D02*
X157679Y64661D01*
X155517Y63765D01*
X153660Y62340D01*
X152235Y60483D01*
X151339Y58321D01*
X151201Y57270D01*
X158730D01*
Y64799D01*
D02*
G37*
G36*
X168799Y54730D02*
X161270D01*
Y47200D01*
X162321Y47339D01*
X164483Y48235D01*
X166340Y49660D01*
X167765Y51517D01*
X168661Y53679D01*
X168799Y54730D01*
D02*
G37*
G36*
X158730D02*
X151201D01*
X151339Y53679D01*
X152235Y51517D01*
X153660Y49660D01*
X155517Y48235D01*
X157679Y47339D01*
X158730Y47200D01*
Y54730D01*
D02*
G37*
%LPD*%
D18*
X1678270Y85000D02*
D03*
X883270D02*
D03*
X688270D02*
D03*
X283270D02*
D03*
X1488270D02*
D03*
X1278270D02*
D03*
X1083270D02*
D03*
X487270D02*
D03*
X178000Y74000D02*
D03*
X160000Y94000D02*
D03*
Y56000D02*
D03*
X141500Y74500D02*
D03*
M02*
