G04*
G04 #@! TF.GenerationSoftware,Altium Limited,Altium Designer,22.1.2 (22)*
G04*
G04 Layer_Color=16711935*
%FSLAX44Y44*%
%MOMM*%
G71*
G04*
G04 #@! TF.SameCoordinates,B00DDC5C-F8D0-431D-9E70-9109967B179A*
G04*
G04*
G04 #@! TF.FilePolarity,Positive*
G04*
G01*
G75*
%ADD10C,0.2000*%
%ADD17C,0.2540*%
D10*
X507530Y77380D02*
Y92620D01*
X504990D02*
X538010D01*
Y77380D02*
Y92620D01*
X504990Y77380D02*
X538010D01*
X504990D02*
Y92620D01*
X303490Y77380D02*
Y92620D01*
Y77380D02*
X336510D01*
Y92620D01*
X303490D02*
X336510D01*
X306030Y77380D02*
Y92620D01*
X1308030Y77380D02*
Y92620D01*
X1305490D02*
X1338510D01*
Y77380D02*
Y92620D01*
X1305490Y77380D02*
X1338510D01*
X1305490D02*
Y92620D01*
X1508490Y77380D02*
Y92620D01*
Y77380D02*
X1541510D01*
Y92620D01*
X1508490D02*
X1541510D01*
X1511030Y77380D02*
Y92620D01*
X711030Y77380D02*
Y92620D01*
X708490D02*
X741510D01*
Y77380D02*
Y92620D01*
X708490Y77380D02*
X741510D01*
X708490D02*
Y92620D01*
X1105490Y77380D02*
Y92620D01*
Y77380D02*
X1138510D01*
Y92620D01*
X1105490D02*
X1138510D01*
X1108030Y77380D02*
Y92620D01*
X903490Y77380D02*
Y92620D01*
Y77380D02*
X936510D01*
Y92620D01*
X903490D02*
X936510D01*
X906030Y77380D02*
Y92620D01*
X1708030Y77380D02*
Y92620D01*
X1705490D02*
X1738510D01*
Y77380D02*
Y92620D01*
X1705490Y77380D02*
X1738510D01*
X1705490D02*
Y92620D01*
D17*
X308300Y54380D02*
X336240D01*
X308300D02*
Y69620D01*
X336240D01*
Y54380D02*
Y69620D01*
X536740Y54380D02*
Y69620D01*
X508800D02*
X536740D01*
X508800Y54380D02*
Y69620D01*
Y54380D02*
X536740D01*
X1337240Y52380D02*
Y67620D01*
X1309300D02*
X1337240D01*
X1309300Y52380D02*
Y67620D01*
Y52380D02*
X1337240D01*
X1539740D02*
Y67620D01*
X1511800D02*
X1539740D01*
X1511800Y52380D02*
Y67620D01*
Y52380D02*
X1539740D01*
X1709300D02*
X1737240D01*
X1709300D02*
Y67620D01*
X1737240D01*
Y52380D02*
Y67620D01*
X1109300Y52380D02*
X1137240D01*
X1109300D02*
Y67620D01*
X1137240D01*
Y52380D02*
Y67620D01*
X907691Y53111D02*
X935631D01*
X907691D02*
Y68351D01*
X935631D01*
Y53111D02*
Y68351D01*
X711300Y52610D02*
X739240D01*
X711300D02*
Y67850D01*
X739240D01*
Y52610D02*
Y67850D01*
M02*
