G04*
G04 #@! TF.GenerationSoftware,Altium Limited,Altium Designer,22.0.2 (36)*
G04*
G04 Layer_Physical_Order=2*
G04 Layer_Color=16711680*
%FSLAX44Y44*%
%MOMM*%
G71*
G04*
G04 #@! TF.SameCoordinates,801A256F-8863-4A65-8F5D-B335E14D3FE3*
G04*
G04*
G04 #@! TF.FilePolarity,Positive*
G04*
G01*
G75*
%ADD17C,5.0000*%
%ADD18C,1.2700*%
G36*
X2243000Y34500D02*
X23000Y34500D01*
Y114500D01*
X728902D01*
X729243Y113230D01*
X729041Y113114D01*
X727386Y111459D01*
X726216Y109431D01*
X725637Y107270D01*
X743363D01*
X742784Y109431D01*
X741614Y111459D01*
X739959Y113114D01*
X739757Y113230D01*
X740098Y114500D01*
X1714787D01*
X1714955Y113230D01*
X1714299Y113054D01*
X1712271Y111884D01*
X1710616Y110229D01*
X1709446Y108201D01*
X1708867Y106040D01*
X1726593D01*
X1726014Y108201D01*
X1724844Y110229D01*
X1723188Y111884D01*
X1721161Y113054D01*
X1720505Y113230D01*
X1720672Y114500D01*
X1970249D01*
X1970416Y113230D01*
X1969084Y112873D01*
X1967057Y111703D01*
X1965402Y110048D01*
X1964232Y108020D01*
X1963653Y105859D01*
X1981379D01*
X1980800Y108020D01*
X1979630Y110048D01*
X1977975Y111703D01*
X1975947Y112873D01*
X1974616Y113230D01*
X1974783Y114500D01*
X2243000D01*
Y34500D01*
D02*
G37*
%LPC*%
G36*
X983069Y113023D02*
Y105429D01*
X990662D01*
X990083Y107591D01*
X988913Y109618D01*
X987258Y111273D01*
X985230Y112444D01*
X983069Y113023D01*
D02*
G37*
G36*
X980529D02*
X978368Y112444D01*
X976340Y111273D01*
X974685Y109618D01*
X973515Y107591D01*
X972936Y105429D01*
X980529D01*
Y113023D01*
D02*
G37*
G36*
X1454366Y112389D02*
Y104796D01*
X1461959D01*
X1461380Y106957D01*
X1460210Y108985D01*
X1458555Y110640D01*
X1456527Y111810D01*
X1454366Y112389D01*
D02*
G37*
G36*
X1451826D02*
X1449664Y111810D01*
X1447637Y110640D01*
X1445982Y108985D01*
X1444812Y106957D01*
X1444233Y104796D01*
X1451826D01*
Y112389D01*
D02*
G37*
G36*
X1215770Y111363D02*
Y103770D01*
X1223363D01*
X1222784Y105931D01*
X1221614Y107959D01*
X1219959Y109614D01*
X1217931Y110784D01*
X1215770Y111363D01*
D02*
G37*
G36*
X1213230D02*
X1211069Y110784D01*
X1209041Y109614D01*
X1207386Y107959D01*
X1206216Y105931D01*
X1205637Y103770D01*
X1213230D01*
Y111363D01*
D02*
G37*
G36*
X501270Y105863D02*
Y98270D01*
X508863D01*
X508284Y100431D01*
X507114Y102459D01*
X505459Y104114D01*
X503431Y105284D01*
X501270Y105863D01*
D02*
G37*
G36*
X498730D02*
X496569Y105284D01*
X494541Y104114D01*
X492886Y102459D01*
X491716Y100431D01*
X491137Y98270D01*
X498730D01*
Y105863D01*
D02*
G37*
G36*
X743363Y104730D02*
X735770D01*
Y97137D01*
X737931Y97716D01*
X739959Y98886D01*
X741614Y100541D01*
X742784Y102569D01*
X743363Y104730D01*
D02*
G37*
G36*
X733230D02*
X725637D01*
X726216Y102569D01*
X727386Y100541D01*
X729041Y98886D01*
X731069Y97716D01*
X733230Y97137D01*
Y104730D01*
D02*
G37*
G36*
X268832Y104124D02*
Y96531D01*
X276425D01*
X275846Y98692D01*
X274676Y100719D01*
X273021Y102375D01*
X270994Y103545D01*
X268832Y104124D01*
D02*
G37*
G36*
X266292D02*
X264131Y103545D01*
X262104Y102375D01*
X260448Y100719D01*
X259278Y98692D01*
X258699Y96531D01*
X266292D01*
Y104124D01*
D02*
G37*
G36*
X1726593Y103500D02*
X1719000D01*
Y95907D01*
X1721161Y96486D01*
X1723188Y97656D01*
X1724844Y99311D01*
X1726014Y101339D01*
X1726593Y103500D01*
D02*
G37*
G36*
X1716460D02*
X1708867D01*
X1709446Y101339D01*
X1710616Y99311D01*
X1712271Y97656D01*
X1714299Y96486D01*
X1716460Y95907D01*
Y103500D01*
D02*
G37*
G36*
X1981379Y103319D02*
X1973786D01*
Y95726D01*
X1975947Y96305D01*
X1977975Y97475D01*
X1979630Y99130D01*
X1980800Y101158D01*
X1981379Y103319D01*
D02*
G37*
G36*
X1971246D02*
X1963653D01*
X1964232Y101158D01*
X1965402Y99130D01*
X1967057Y97475D01*
X1969084Y96305D01*
X1971246Y95726D01*
Y103319D01*
D02*
G37*
G36*
X990662Y102889D02*
X983069D01*
Y95296D01*
X985230Y95875D01*
X987258Y97046D01*
X988913Y98701D01*
X990083Y100728D01*
X990662Y102889D01*
D02*
G37*
G36*
X980529D02*
X972936D01*
X973515Y100728D01*
X974685Y98701D01*
X976340Y97046D01*
X978368Y95875D01*
X980529Y95296D01*
Y102889D01*
D02*
G37*
G36*
X1461959Y102256D02*
X1454366D01*
Y94663D01*
X1456527Y95242D01*
X1458555Y96412D01*
X1460210Y98067D01*
X1461380Y100095D01*
X1461959Y102256D01*
D02*
G37*
G36*
X1451826D02*
X1444233D01*
X1444812Y100095D01*
X1445982Y98067D01*
X1447637Y96412D01*
X1449664Y95242D01*
X1451826Y94663D01*
Y102256D01*
D02*
G37*
G36*
X1223363Y101230D02*
X1215770D01*
Y93637D01*
X1217931Y94216D01*
X1219959Y95386D01*
X1221614Y97041D01*
X1222784Y99069D01*
X1223363Y101230D01*
D02*
G37*
G36*
X1213230D02*
X1205637D01*
X1206216Y99069D01*
X1207386Y97041D01*
X1209041Y95386D01*
X1211069Y94216D01*
X1213230Y93637D01*
Y101230D01*
D02*
G37*
G36*
X508863Y95730D02*
X501270D01*
Y88137D01*
X503431Y88716D01*
X505459Y89886D01*
X507114Y91541D01*
X508284Y93569D01*
X508863Y95730D01*
D02*
G37*
G36*
X498730D02*
X491137D01*
X491716Y93569D01*
X492886Y91541D01*
X494541Y89886D01*
X496569Y88716D01*
X498730Y88137D01*
Y95730D01*
D02*
G37*
G36*
X276425Y93991D02*
X268832D01*
Y86398D01*
X270994Y86977D01*
X273021Y88147D01*
X274676Y89802D01*
X275846Y91830D01*
X276425Y93991D01*
D02*
G37*
G36*
X266292D02*
X258699D01*
X259278Y91830D01*
X260448Y89802D01*
X262104Y88147D01*
X264131Y86977D01*
X266292Y86398D01*
Y93991D01*
D02*
G37*
G36*
X162167Y102540D02*
X161270D01*
Y76270D01*
X187540D01*
Y77168D01*
X186862Y81449D01*
X185522Y85572D01*
X183554Y89434D01*
X181006Y92941D01*
X177941Y96006D01*
X174434Y98554D01*
X170572Y100522D01*
X166449Y101862D01*
X162167Y102540D01*
D02*
G37*
G36*
X158730D02*
X157833D01*
X153551Y101862D01*
X149428Y100522D01*
X145566Y98554D01*
X142059Y96006D01*
X138994Y92941D01*
X136446Y89434D01*
X134478Y85572D01*
X133138Y81449D01*
X132460Y77168D01*
Y76270D01*
X158730D01*
Y102540D01*
D02*
G37*
G36*
X187540Y73730D02*
X161270D01*
Y47460D01*
X162167D01*
X166449Y48138D01*
X170572Y49478D01*
X174434Y51446D01*
X177941Y53994D01*
X181006Y57059D01*
X183554Y60566D01*
X185522Y64428D01*
X186862Y68551D01*
X187540Y72832D01*
Y73730D01*
D02*
G37*
G36*
X158730D02*
X132460D01*
Y72832D01*
X133138Y68551D01*
X134478Y64428D01*
X136446Y60566D01*
X138994Y57059D01*
X142059Y53994D01*
X145566Y51446D01*
X149428Y49478D01*
X153551Y48138D01*
X157833Y47460D01*
X158730D01*
Y73730D01*
D02*
G37*
G36*
X77168Y102540D02*
X72832D01*
X68551Y101862D01*
X64428Y100522D01*
X60566Y98554D01*
X57059Y96006D01*
X53994Y92941D01*
X51446Y89434D01*
X49478Y85572D01*
X48138Y81449D01*
X47460Y77168D01*
Y72832D01*
X48138Y68551D01*
X49478Y64428D01*
X51446Y60566D01*
X53994Y57059D01*
X57059Y53994D01*
X60566Y51446D01*
X64428Y49478D01*
X68551Y48138D01*
X72832Y47460D01*
X77168D01*
X81449Y48138D01*
X85572Y49478D01*
X89434Y51446D01*
X92941Y53994D01*
X96006Y57059D01*
X98554Y60566D01*
X100522Y64428D01*
X101862Y68551D01*
X102540Y72832D01*
Y77168D01*
X101862Y81449D01*
X100522Y85572D01*
X98554Y89434D01*
X96006Y92941D01*
X92941Y96006D01*
X89434Y98554D01*
X85572Y100522D01*
X81449Y101862D01*
X77168Y102540D01*
D02*
G37*
%LPD*%
D17*
X160000Y75000D02*
D03*
X75000D02*
D03*
D18*
X1453096Y103526D02*
D03*
X734500Y106000D02*
D03*
X500000Y97000D02*
D03*
X981799Y104159D02*
D03*
X1972516Y104589D02*
D03*
X1717730Y104770D02*
D03*
X1214500Y102500D02*
D03*
X267562Y95261D02*
D03*
M02*
