G04*
G04 #@! TF.GenerationSoftware,Altium Limited,Altium Designer,22.1.2 (22)*
G04*
G04 Layer_Physical_Order=1*
G04 Layer_Color=255*
%FSLAX44Y44*%
%MOMM*%
G71*
G04*
G04 #@! TF.SameCoordinates,FFFDF75E-C363-4650-965A-1A0CB3C4B1F3*
G04*
G04*
G04 #@! TF.FilePolarity,Positive*
G04*
G01*
G75*
%ADD10C,0.2540*%
%ADD13C,5.0000*%
G04:AMPARAMS|DCode=14|XSize=1.1mm|YSize=1mm|CornerRadius=0.075mm|HoleSize=0mm|Usage=FLASHONLY|Rotation=270.000|XOffset=0mm|YOffset=0mm|HoleType=Round|Shape=RoundedRectangle|*
%AMROUNDEDRECTD14*
21,1,1.1000,0.8500,0,0,270.0*
21,1,0.9500,1.0000,0,0,270.0*
1,1,0.1500,-0.4250,-0.4750*
1,1,0.1500,-0.4250,0.4750*
1,1,0.1500,0.4250,0.4750*
1,1,0.1500,0.4250,-0.4750*
%
%ADD14ROUNDEDRECTD14*%
%ADD15R,0.8000X0.8000*%
%ADD19C,0.7000*%
%ADD20C,0.7112*%
%ADD21C,1.2700*%
G36*
X1743293Y115000D02*
X1743500Y115000D01*
X1744740Y114928D01*
X1747084Y114462D01*
X1749632Y113407D01*
X1751924Y111875D01*
X1753875Y109924D01*
X1755407Y107632D01*
X1756462Y105084D01*
X1757000Y102379D01*
Y101000D01*
X1757000Y101000D01*
X1757000Y101000D01*
X1757000Y50000D01*
Y48523D01*
X1756423Y45625D01*
X1755293Y42895D01*
X1753651Y40438D01*
X1751562Y38349D01*
X1749105Y36707D01*
X1746375Y35577D01*
X1743477Y35000D01*
X1742000Y35000D01*
X40700Y35000D01*
X38875Y35037D01*
X35311Y35821D01*
X31968Y37286D01*
X28975Y39375D01*
X26447Y42007D01*
X24481Y45082D01*
X23152Y48482D01*
X22513Y52075D01*
X22550Y53900D01*
Y100000D01*
Y101477D01*
X23126Y104375D01*
X24257Y107105D01*
X25899Y109562D01*
X27988Y111651D01*
X30445Y113293D01*
X33175Y114424D01*
X36073Y115000D01*
X37550D01*
X37550Y115000D01*
X1743293Y115000D01*
D02*
G37*
%LPC*%
G36*
X1727900Y98582D02*
X1727135Y98265D01*
Y98265D01*
X1721145Y92276D01*
X1720828Y91510D01*
Y91039D01*
X1720270Y90000D01*
X1719558Y90000D01*
X1710270D01*
Y89588D01*
X1697787D01*
X1697500Y89645D01*
X1695722Y89292D01*
X1694215Y88285D01*
X1693208Y86778D01*
X1692855Y85000D01*
X1693208Y83222D01*
X1694215Y81715D01*
X1695722Y80708D01*
X1697500Y80355D01*
X1697787Y80412D01*
X1710270D01*
Y80000D01*
X1719558D01*
X1720270Y80000D01*
X1720828Y78961D01*
Y76715D01*
X1720583Y76515D01*
X1717603D01*
Y68410D01*
Y60306D01*
X1720583D01*
X1720906Y60370D01*
X1721145Y59794D01*
X1726704Y54235D01*
X1727469Y53918D01*
X1737500D01*
X1737500Y53917D01*
X1738265Y54235D01*
X1738266Y54235D01*
X1742265Y58235D01*
X1742582Y59000D01*
Y93500D01*
X1742583Y93500D01*
X1742265Y94265D01*
X1742265Y94265D01*
X1738265Y98265D01*
X1737500Y98582D01*
X1727900Y98582D01*
X1727900Y98582D01*
D02*
G37*
G36*
X536198Y97464D02*
X526297D01*
X525532Y97147D01*
X519863Y91478D01*
X519546Y90713D01*
Y90000D01*
X509770D01*
Y89588D01*
X499787D01*
X499500Y89645D01*
X497722Y89292D01*
X496215Y88285D01*
X495208Y86778D01*
X494855Y85000D01*
X495208Y83222D01*
X496215Y81715D01*
X497722Y80708D01*
X499500Y80355D01*
X499787Y80412D01*
X509770D01*
Y80000D01*
X519546D01*
Y76346D01*
X518275Y75304D01*
X518120Y75335D01*
X515140D01*
Y67230D01*
Y59126D01*
X518120D01*
X519404Y59381D01*
X519646Y59307D01*
X519863Y58786D01*
X525532Y53117D01*
X525532Y53117D01*
X526297Y52800D01*
X534878D01*
X535643Y53117D01*
X535643Y53117D01*
X542243Y59717D01*
X542560Y60482D01*
Y91102D01*
X542561Y91102D01*
X542243Y91867D01*
X542243Y91868D01*
X536963Y97147D01*
X536198Y97464D01*
D02*
G37*
G36*
X333500Y98582D02*
X326450D01*
X325685Y98265D01*
X318485Y91065D01*
X318168Y90300D01*
Y90000D01*
X308270D01*
Y89588D01*
X298045D01*
X297978Y89575D01*
X297950Y89580D01*
X296172Y89227D01*
X294665Y88220D01*
X293658Y86713D01*
X293305Y84935D01*
X293658Y83157D01*
X294665Y81650D01*
X296172Y80643D01*
X297950Y80290D01*
X298564Y80412D01*
X308270D01*
Y80000D01*
X318168D01*
Y77407D01*
X316898Y76365D01*
X316750Y76394D01*
X313770D01*
Y68290D01*
Y60185D01*
X316750D01*
X318034Y60441D01*
X318295Y60362D01*
X318485Y59904D01*
X324154Y54235D01*
X324154Y54235D01*
X324919Y53918D01*
X333500D01*
X334265Y54235D01*
X334265Y54235D01*
X340865Y60835D01*
X341182Y61600D01*
Y90900D01*
X340865Y91665D01*
X340865Y91665D01*
X334265Y98265D01*
X333500Y98582D01*
D02*
G37*
G36*
X1530000Y98582D02*
X1529235Y98265D01*
X1529235Y98265D01*
X1524170Y93200D01*
X1523853Y92435D01*
Y90877D01*
X1523460Y89770D01*
X1522583Y89770D01*
X1513460D01*
Y89358D01*
X1502354D01*
X1502302Y89348D01*
X1502264Y89355D01*
X1500486Y89002D01*
X1498979Y87995D01*
X1497972Y86488D01*
X1497619Y84710D01*
X1497972Y82932D01*
X1498979Y81425D01*
X1500486Y80418D01*
X1502264Y80065D01*
X1502853Y80182D01*
X1513460D01*
Y79770D01*
X1523460Y79770D01*
X1523853Y78663D01*
Y77037D01*
X1523203Y76504D01*
X1520223D01*
Y68399D01*
Y60294D01*
X1523203D01*
X1523853Y59761D01*
Y57081D01*
X1524170Y56316D01*
X1524170Y56316D01*
X1526251Y54235D01*
X1527016Y53918D01*
X1542375D01*
X1542375Y53917D01*
X1543140Y54235D01*
X1543140Y54235D01*
X1545174Y56268D01*
X1545174Y56268D01*
X1545491Y57034D01*
Y91591D01*
X1545491Y91591D01*
X1545174Y92357D01*
X1539265Y98265D01*
X1538500Y98582D01*
X1530000Y98582D01*
D02*
G37*
G36*
X1127190Y98512D02*
X1126425Y98195D01*
X1126425Y98195D01*
X1121135Y92905D01*
X1120818Y92140D01*
Y90037D01*
X1119770Y89500D01*
X1119548Y89500D01*
X1109770D01*
Y89097D01*
X1099390D01*
X1099058Y89163D01*
X1097280Y88810D01*
X1095773Y87803D01*
X1094766Y86296D01*
X1094413Y84518D01*
X1094766Y82740D01*
X1095773Y81233D01*
X1097280Y80226D01*
X1099058Y79873D01*
X1099300Y79921D01*
X1109770D01*
Y79500D01*
X1119548D01*
X1119770Y79500D01*
X1120818Y78963D01*
Y75397D01*
X1119836Y74592D01*
X1119620Y74634D01*
X1116640D01*
Y66530D01*
Y58426D01*
X1119620D01*
X1120904Y58681D01*
X1121506Y59083D01*
X1126425Y54165D01*
X1127190Y53848D01*
X1135690D01*
X1136455Y54165D01*
X1141315Y59025D01*
X1141632Y59790D01*
Y92570D01*
X1141315Y93335D01*
X1136455Y98195D01*
X1135690Y98512D01*
X1127190Y98512D01*
D02*
G37*
G36*
X1320000Y89500D02*
X1310000D01*
Y89083D01*
X1299073D01*
X1298814Y89134D01*
X1297036Y88781D01*
X1295529Y87774D01*
X1294522Y86267D01*
X1294169Y84489D01*
X1294522Y82711D01*
X1295529Y81204D01*
X1297036Y80197D01*
X1298814Y79844D01*
X1299129Y79906D01*
X1310000D01*
Y79500D01*
X1320000D01*
Y89500D01*
D02*
G37*
G36*
X924500Y98582D02*
X923735Y98265D01*
Y98265D01*
X916685Y91215D01*
X916368Y90450D01*
Y89911D01*
X915500Y89000D01*
X915098Y89000D01*
X905500D01*
Y88587D01*
X895255D01*
X894975Y88642D01*
X893197Y88289D01*
X891690Y87282D01*
X890683Y85775D01*
X890330Y83997D01*
X890683Y82219D01*
X891690Y80712D01*
X893197Y79705D01*
X894975Y79352D01*
X895270Y79410D01*
X905500D01*
Y79000D01*
X915098D01*
X916368Y78089D01*
Y76253D01*
X915386Y75447D01*
X915350Y75455D01*
X912370D01*
Y67350D01*
Y59246D01*
X915098D01*
X916043Y58792D01*
X916368Y58550D01*
X916685Y57785D01*
X920235Y54235D01*
X920235Y54235D01*
X921000Y53918D01*
X933000D01*
X933000Y53917D01*
X933765Y54235D01*
X933765Y54235D01*
X937765Y58235D01*
X938082Y59000D01*
Y90530D01*
X938083Y90530D01*
X937765Y91295D01*
X937765Y91295D01*
X930795Y98265D01*
X930030Y98582D01*
X924500Y98582D01*
X924500Y98582D01*
D02*
G37*
G36*
X731000Y98083D02*
X730235Y97765D01*
Y97765D01*
X723235Y90765D01*
X722952Y90083D01*
X722917Y89999D01*
X722258Y89000D01*
X721648Y89000D01*
X712500D01*
Y88586D01*
X702324D01*
X702047Y88641D01*
X700269Y88288D01*
X698762Y87281D01*
X697755Y85774D01*
X697402Y83996D01*
X697755Y82218D01*
X698762Y80711D01*
X700269Y79704D01*
X702047Y79351D01*
X702344Y79410D01*
X712500D01*
Y79000D01*
X722500Y79000D01*
X722918Y77903D01*
Y76002D01*
X722250Y75455D01*
X719270D01*
Y67350D01*
Y59246D01*
X722250D01*
X723060Y59407D01*
X723235Y58985D01*
X723235Y58985D01*
X728485Y53735D01*
X729250Y53418D01*
X739500D01*
X739500Y53418D01*
X740265Y53735D01*
X740265Y53735D01*
X744265Y57735D01*
X744582Y58500D01*
Y90215D01*
X744583Y90215D01*
X744265Y90980D01*
X744265Y90981D01*
X737480Y97765D01*
X736715Y98082D01*
X731000Y98082D01*
X731000Y98083D01*
D02*
G37*
G36*
X76270Y102525D02*
Y76270D01*
X102525D01*
X102285Y79321D01*
X101273Y83537D01*
X99614Y87542D01*
X97349Y91238D01*
X94534Y94534D01*
X91238Y97349D01*
X87542Y99614D01*
X83537Y101273D01*
X79321Y102285D01*
X76270Y102525D01*
D02*
G37*
G36*
X73730D02*
X70679Y102285D01*
X66463Y101273D01*
X62458Y99614D01*
X58762Y97349D01*
X55466Y94534D01*
X52651Y91238D01*
X50386Y87542D01*
X48727Y83537D01*
X47715Y79321D01*
X47475Y76270D01*
X73730D01*
Y102525D01*
D02*
G37*
G36*
X1328000Y98582D02*
X1327235Y98265D01*
X1322039Y93070D01*
X1321722Y92304D01*
Y76444D01*
X1320740Y75638D01*
X1320655Y75655D01*
X1317675D01*
Y67551D01*
Y59447D01*
X1320655D01*
X1321513Y59617D01*
X1321722Y59446D01*
X1322039Y58680D01*
X1322039Y58680D01*
X1326485Y54235D01*
X1327250Y53918D01*
X1336500D01*
X1337265Y54235D01*
X1342246Y59215D01*
X1342563Y59981D01*
Y92519D01*
X1342246Y93285D01*
X1337265Y98265D01*
X1336500Y98582D01*
X1328000Y98582D01*
D02*
G37*
G36*
X1715063Y76515D02*
X1712083D01*
X1710799Y76259D01*
X1709711Y75532D01*
X1708984Y74444D01*
X1708728Y73160D01*
Y69680D01*
X1715063D01*
Y76515D01*
D02*
G37*
G36*
X1517683Y76504D02*
X1514703D01*
X1513419Y76248D01*
X1512331Y75521D01*
X1511604Y74433D01*
X1511349Y73149D01*
Y69669D01*
X1517683D01*
Y76504D01*
D02*
G37*
G36*
X311230Y76394D02*
X308250D01*
X306966Y76139D01*
X305878Y75412D01*
X305151Y74324D01*
X304896Y73040D01*
Y69560D01*
X311230D01*
Y76394D01*
D02*
G37*
G36*
X1315135Y75655D02*
X1312155D01*
X1310871Y75400D01*
X1309783Y74673D01*
X1309056Y73585D01*
X1308801Y72301D01*
Y68821D01*
X1315135D01*
Y75655D01*
D02*
G37*
G36*
X716730Y75455D02*
X713750D01*
X712466Y75199D01*
X711378Y74472D01*
X710651Y73384D01*
X710396Y72100D01*
Y68620D01*
X716730D01*
Y75455D01*
D02*
G37*
G36*
X909830D02*
X906850D01*
X905566Y75199D01*
X904478Y74472D01*
X903751Y73384D01*
X903496Y72100D01*
Y68620D01*
X909830D01*
Y75455D01*
D02*
G37*
G36*
X512600Y75335D02*
X509620D01*
X508336Y75079D01*
X507248Y74352D01*
X506521Y73264D01*
X506265Y71980D01*
Y68500D01*
X512600D01*
Y75335D01*
D02*
G37*
G36*
X1114100Y74634D02*
X1111120D01*
X1109836Y74379D01*
X1108748Y73652D01*
X1108021Y72564D01*
X1107766Y71280D01*
Y67800D01*
X1114100D01*
Y74634D01*
D02*
G37*
G36*
X1715063Y67140D02*
X1708728D01*
Y63660D01*
X1708984Y62376D01*
X1709711Y61288D01*
X1710799Y60561D01*
X1712083Y60306D01*
X1715063D01*
Y67140D01*
D02*
G37*
G36*
X1517683Y67129D02*
X1511349D01*
Y63649D01*
X1511604Y62365D01*
X1512331Y61277D01*
X1513419Y60550D01*
X1514703Y60294D01*
X1517683D01*
Y67129D01*
D02*
G37*
G36*
X311230Y67020D02*
X304896D01*
Y63540D01*
X305151Y62256D01*
X305878Y61168D01*
X306966Y60441D01*
X308250Y60185D01*
X311230D01*
Y67020D01*
D02*
G37*
G36*
X1315135Y66281D02*
X1308801D01*
Y62801D01*
X1309056Y61517D01*
X1309783Y60429D01*
X1310871Y59702D01*
X1312155Y59447D01*
X1315135D01*
Y66281D01*
D02*
G37*
G36*
X909830Y66080D02*
X903496D01*
Y62600D01*
X903751Y61316D01*
X904478Y60228D01*
X905566Y59501D01*
X906850Y59246D01*
X909830D01*
Y66080D01*
D02*
G37*
G36*
X716730Y66080D02*
X710396D01*
Y62600D01*
X710651Y61316D01*
X711378Y60228D01*
X712466Y59501D01*
X713750Y59246D01*
X716730D01*
Y66080D01*
D02*
G37*
G36*
X512600Y65960D02*
X506265D01*
Y62480D01*
X506521Y61196D01*
X507248Y60108D01*
X508336Y59381D01*
X509620Y59126D01*
X512600D01*
Y65960D01*
D02*
G37*
G36*
X1114100Y65260D02*
X1107766D01*
Y61780D01*
X1108021Y60496D01*
X1108748Y59408D01*
X1109836Y58681D01*
X1111120Y58426D01*
X1114100D01*
Y65260D01*
D02*
G37*
G36*
X160000Y101413D02*
X158081Y101161D01*
X157372Y100867D01*
X154903Y100624D01*
X150002Y99137D01*
X145485Y96723D01*
X141526Y93474D01*
X138277Y89515D01*
X135863Y84998D01*
X134376Y80097D01*
X133874Y75000D01*
X134376Y69903D01*
X135863Y65002D01*
X138277Y60485D01*
X141526Y56526D01*
X145485Y53277D01*
X150002Y50863D01*
X154903Y49376D01*
X157372Y49133D01*
X158081Y48839D01*
X160000Y48587D01*
X161919Y48839D01*
X162628Y49133D01*
X165097Y49376D01*
X169998Y50863D01*
X174515Y53277D01*
X178474Y56526D01*
X181723Y60485D01*
X184137Y65002D01*
X185624Y69903D01*
X186126Y75000D01*
X185624Y80097D01*
X184137Y84998D01*
X181723Y89515D01*
X178474Y93474D01*
X174515Y96723D01*
X169998Y99137D01*
X165097Y100624D01*
X162628Y100867D01*
X161919Y101161D01*
X160000Y101413D01*
D02*
G37*
G36*
X102525Y73730D02*
X76270D01*
Y47475D01*
X79321Y47715D01*
X83537Y48727D01*
X87542Y50386D01*
X91238Y52651D01*
X94534Y55466D01*
X97349Y58762D01*
X99614Y62458D01*
X101273Y66463D01*
X102285Y70679D01*
X102525Y73730D01*
D02*
G37*
G36*
X73730D02*
X47475D01*
X47715Y70679D01*
X48727Y66463D01*
X50386Y62458D01*
X52651Y58762D01*
X55466Y55466D01*
X58762Y52651D01*
X62458Y50386D01*
X66463Y48727D01*
X70679Y47715D01*
X73730Y47475D01*
Y73730D01*
D02*
G37*
%LPD*%
G36*
X1737500Y97500D02*
X1741500Y93500D01*
Y59000D01*
X1737500Y55000D01*
X1727469D01*
X1721910Y60559D01*
Y62497D01*
X1722231Y62977D01*
X1722367Y63660D01*
Y73160D01*
X1722231Y73843D01*
X1721910Y74324D01*
Y91510D01*
X1727900Y97500D01*
X1737500Y97500D01*
D02*
G37*
%LPC*%
G36*
X1737810Y91540D02*
X1732540D01*
Y86270D01*
X1737810D01*
Y91540D01*
D02*
G37*
G36*
X1730000D02*
X1724730D01*
Y86270D01*
X1730000D01*
Y91540D01*
D02*
G37*
G36*
X1737810Y83730D02*
X1732540D01*
Y78460D01*
X1737810D01*
Y83730D01*
D02*
G37*
G36*
X1730000D02*
X1724730D01*
Y78460D01*
X1730000D01*
Y83730D01*
D02*
G37*
G36*
X1736583Y76515D02*
X1733603D01*
Y69680D01*
X1739937D01*
Y73160D01*
X1739682Y74444D01*
X1738955Y75532D01*
X1737867Y76259D01*
X1736583Y76515D01*
D02*
G37*
G36*
X1731063D02*
X1728083D01*
X1726799Y76259D01*
X1725711Y75532D01*
X1724984Y74444D01*
X1724729Y73160D01*
Y69680D01*
X1731063D01*
Y76515D01*
D02*
G37*
G36*
X1739937Y67140D02*
X1733603D01*
Y60306D01*
X1736583D01*
X1737867Y60561D01*
X1738955Y61288D01*
X1739682Y62376D01*
X1739937Y63660D01*
Y67140D01*
D02*
G37*
G36*
X1731063D02*
X1724729D01*
Y63660D01*
X1724984Y62376D01*
X1725711Y61288D01*
X1726799Y60561D01*
X1728083Y60306D01*
X1731063D01*
Y67140D01*
D02*
G37*
%LPD*%
G36*
X541478Y91102D02*
Y60482D01*
X534878Y53882D01*
X526297D01*
X520628Y59551D01*
Y90713D01*
X526297Y96382D01*
X536198D01*
X541478Y91102D01*
D02*
G37*
%LPC*%
G36*
X537310Y91540D02*
X532040D01*
Y86270D01*
X537310D01*
Y91540D01*
D02*
G37*
G36*
X529500D02*
X524230D01*
Y86270D01*
X529500D01*
Y91540D01*
D02*
G37*
G36*
X537310Y83730D02*
X532040D01*
Y78460D01*
X537310D01*
Y83730D01*
D02*
G37*
G36*
X529500D02*
X524230D01*
Y78460D01*
X529500D01*
Y83730D01*
D02*
G37*
G36*
X534120Y75335D02*
X531140D01*
Y68500D01*
X537474D01*
Y71980D01*
X537219Y73264D01*
X536492Y74352D01*
X535404Y75079D01*
X534120Y75335D01*
D02*
G37*
G36*
X528600D02*
X525620D01*
X524336Y75079D01*
X523248Y74352D01*
X522521Y73264D01*
X522266Y71980D01*
Y68500D01*
X528600D01*
Y75335D01*
D02*
G37*
G36*
X537474Y65960D02*
X531140D01*
Y59126D01*
X534120D01*
X535404Y59381D01*
X536492Y60108D01*
X537219Y61196D01*
X537474Y62480D01*
Y65960D01*
D02*
G37*
G36*
X528600D02*
X522266D01*
Y62480D01*
X522521Y61196D01*
X523248Y60108D01*
X524336Y59381D01*
X525620Y59126D01*
X528600D01*
Y65960D01*
D02*
G37*
%LPD*%
G36*
X340100Y90900D02*
Y61600D01*
X333500Y55000D01*
X324919D01*
X319250Y60669D01*
Y90300D01*
X326450Y97500D01*
X333500D01*
X340100Y90900D01*
D02*
G37*
%LPC*%
G36*
X335810Y91540D02*
X330540D01*
Y86270D01*
X335810D01*
Y91540D01*
D02*
G37*
G36*
X328000D02*
X322730D01*
Y86270D01*
X328000D01*
Y91540D01*
D02*
G37*
G36*
X335810Y83730D02*
X330540D01*
Y78460D01*
X335810D01*
Y83730D01*
D02*
G37*
G36*
X328000D02*
X322730D01*
Y78460D01*
X328000D01*
Y83730D01*
D02*
G37*
G36*
X332750Y76394D02*
X329770D01*
Y69560D01*
X336105D01*
Y73040D01*
X335849Y74324D01*
X335122Y75412D01*
X334034Y76139D01*
X332750Y76394D01*
D02*
G37*
G36*
X327230D02*
X324250D01*
X322966Y76139D01*
X321878Y75412D01*
X321151Y74324D01*
X320896Y73040D01*
Y69560D01*
X327230D01*
Y76394D01*
D02*
G37*
G36*
X336105Y67020D02*
X329770D01*
Y60185D01*
X332750D01*
X334034Y60441D01*
X335122Y61168D01*
X335849Y62256D01*
X336105Y63540D01*
Y67020D01*
D02*
G37*
G36*
X327230D02*
X320896D01*
Y63540D01*
X321151Y62256D01*
X321878Y61168D01*
X322966Y60441D01*
X324250Y60185D01*
X327230D01*
Y67020D01*
D02*
G37*
%LPD*%
G36*
X1538500Y97500D02*
X1544409Y91591D01*
Y57034D01*
X1542375Y55000D01*
X1527016D01*
X1524935Y57081D01*
Y63386D01*
X1524987Y63649D01*
Y73149D01*
X1524935Y73412D01*
Y92435D01*
X1530000Y97500D01*
X1538500Y97500D01*
D02*
G37*
%LPC*%
G36*
X1541000Y91310D02*
X1535730D01*
Y86040D01*
X1541000D01*
Y91310D01*
D02*
G37*
G36*
X1533190D02*
X1527920D01*
Y86040D01*
X1533190D01*
Y91310D01*
D02*
G37*
G36*
X1541000Y83500D02*
X1535730D01*
Y78230D01*
X1541000D01*
Y83500D01*
D02*
G37*
G36*
X1533190D02*
X1527920D01*
Y78230D01*
X1533190D01*
Y83500D01*
D02*
G37*
G36*
X1539203Y76504D02*
X1536223D01*
Y69669D01*
X1542557D01*
Y73149D01*
X1542302Y74433D01*
X1541575Y75521D01*
X1540487Y76248D01*
X1539203Y76504D01*
D02*
G37*
G36*
X1533683D02*
X1530703D01*
X1529419Y76248D01*
X1528331Y75521D01*
X1527604Y74433D01*
X1527348Y73149D01*
Y69669D01*
X1533683D01*
Y76504D01*
D02*
G37*
G36*
X1542557Y67129D02*
X1536223D01*
Y60294D01*
X1539203D01*
X1540487Y60550D01*
X1541575Y61277D01*
X1542302Y62365D01*
X1542557Y63649D01*
Y67129D01*
D02*
G37*
G36*
X1533683D02*
X1527348D01*
Y63649D01*
X1527604Y62365D01*
X1528331Y61277D01*
X1529419Y60550D01*
X1530703Y60294D01*
X1533683D01*
Y67129D01*
D02*
G37*
%LPD*%
G36*
X1135690Y97430D02*
X1140550Y92570D01*
Y59790D01*
X1135690Y54930D01*
X1127190D01*
X1121900Y60220D01*
Y92140D01*
X1127190Y97430D01*
X1135690Y97430D01*
D02*
G37*
%LPC*%
G36*
X1137310Y91040D02*
X1132040D01*
Y85770D01*
X1137310D01*
Y91040D01*
D02*
G37*
G36*
X1129500D02*
X1124230D01*
Y85770D01*
X1129500D01*
Y91040D01*
D02*
G37*
G36*
X1137310Y83230D02*
X1132040D01*
Y77960D01*
X1137310D01*
Y83230D01*
D02*
G37*
G36*
X1129500D02*
X1124230D01*
Y77960D01*
X1129500D01*
Y83230D01*
D02*
G37*
G36*
X1135620Y74634D02*
X1132640D01*
Y67800D01*
X1138975D01*
Y71280D01*
X1138719Y72564D01*
X1137992Y73652D01*
X1136904Y74379D01*
X1135620Y74634D01*
D02*
G37*
G36*
X1130100D02*
X1127120D01*
X1125836Y74379D01*
X1124748Y73652D01*
X1124021Y72564D01*
X1123766Y71280D01*
Y67800D01*
X1130100D01*
Y74634D01*
D02*
G37*
G36*
X1138975Y65260D02*
X1132640D01*
Y58426D01*
X1135620D01*
X1136904Y58681D01*
X1137992Y59408D01*
X1138719Y60496D01*
X1138975Y61780D01*
Y65260D01*
D02*
G37*
G36*
X1130100D02*
X1123766D01*
Y61780D01*
X1124021Y60496D01*
X1124748Y59408D01*
X1125836Y58681D01*
X1127120Y58426D01*
X1130100D01*
Y65260D01*
D02*
G37*
%LPD*%
G36*
X930030Y97500D02*
X937000Y90530D01*
Y59000D01*
X933000Y55000D01*
X921000D01*
X917450Y58550D01*
X917450Y90450D01*
X924500Y97500D01*
X930030Y97500D01*
D02*
G37*
%LPC*%
G36*
X933040Y90540D02*
X927770D01*
Y85270D01*
X933040D01*
Y90540D01*
D02*
G37*
G36*
X925230D02*
X919960D01*
Y85270D01*
X925230D01*
Y90540D01*
D02*
G37*
G36*
X933040Y82730D02*
X927770D01*
Y77460D01*
X933040D01*
Y82730D01*
D02*
G37*
G36*
X925230D02*
X919960D01*
Y77460D01*
X925230D01*
Y82730D01*
D02*
G37*
G36*
X931350Y75455D02*
X928370D01*
Y68620D01*
X934705D01*
Y72100D01*
X934449Y73384D01*
X933722Y74472D01*
X932634Y75199D01*
X931350Y75455D01*
D02*
G37*
G36*
X925830D02*
X922850D01*
X921566Y75199D01*
X920478Y74472D01*
X919751Y73384D01*
X919495Y72100D01*
Y68620D01*
X925830D01*
Y75455D01*
D02*
G37*
G36*
X934705Y66080D02*
X928370D01*
Y59246D01*
X931350D01*
X932634Y59501D01*
X933722Y60228D01*
X934449Y61316D01*
X934705Y62600D01*
Y66080D01*
D02*
G37*
G36*
X925830D02*
X919495D01*
Y62600D01*
X919751Y61316D01*
X920478Y60228D01*
X921566Y59501D01*
X922850Y59246D01*
X925830D01*
Y66080D01*
D02*
G37*
%LPD*%
G36*
X736715Y97000D02*
X743500Y90215D01*
Y58500D01*
X739500Y54500D01*
X729250D01*
X724000Y59750D01*
Y62428D01*
X724034Y62600D01*
Y72100D01*
X724000Y72272D01*
Y90000D01*
X731000Y97000D01*
X736715Y97000D01*
D02*
G37*
%LPC*%
G36*
X740040Y90540D02*
X734770D01*
Y85270D01*
X740040D01*
Y90540D01*
D02*
G37*
G36*
X732230D02*
X726960D01*
Y85270D01*
X732230D01*
Y90540D01*
D02*
G37*
G36*
X740040Y82730D02*
X734770D01*
Y77460D01*
X740040D01*
Y82730D01*
D02*
G37*
G36*
X732230D02*
X726960D01*
Y77460D01*
X732230D01*
Y82730D01*
D02*
G37*
G36*
X738250Y75455D02*
X735270D01*
Y68620D01*
X741605D01*
Y72100D01*
X741349Y73384D01*
X740622Y74472D01*
X739534Y75199D01*
X738250Y75455D01*
D02*
G37*
G36*
X732730D02*
X729750D01*
X728466Y75199D01*
X727378Y74472D01*
X726651Y73384D01*
X726395Y72100D01*
Y68620D01*
X732730D01*
Y75455D01*
D02*
G37*
G36*
X741605Y66080D02*
X735270D01*
Y59246D01*
X738250D01*
X739534Y59501D01*
X740622Y60228D01*
X741349Y61316D01*
X741605Y62600D01*
Y66080D01*
D02*
G37*
G36*
X732730D02*
X726395D01*
Y62600D01*
X726651Y61316D01*
X727378Y60228D01*
X728466Y59501D01*
X729750Y59246D01*
X732730D01*
Y66080D01*
D02*
G37*
%LPD*%
G36*
X1336500Y97500D02*
X1341481Y92519D01*
Y59981D01*
X1336500Y55000D01*
X1327250D01*
X1322804Y59446D01*
Y92304D01*
X1328000Y97500D01*
X1336500Y97500D01*
D02*
G37*
%LPC*%
G36*
X1337540Y91040D02*
X1332270D01*
Y85770D01*
X1337540D01*
Y91040D01*
D02*
G37*
G36*
X1329730D02*
X1324460D01*
Y85770D01*
X1329730D01*
Y91040D01*
D02*
G37*
G36*
X1337540Y83230D02*
X1332270D01*
Y77960D01*
X1337540D01*
Y83230D01*
D02*
G37*
G36*
X1329730D02*
X1324460D01*
Y77960D01*
X1329730D01*
Y83230D01*
D02*
G37*
G36*
X1336655Y75655D02*
X1333675D01*
Y68821D01*
X1340009D01*
Y72301D01*
X1339754Y73585D01*
X1339027Y74673D01*
X1337939Y75400D01*
X1336655Y75655D01*
D02*
G37*
G36*
X1331135D02*
X1328155D01*
X1326871Y75400D01*
X1325783Y74673D01*
X1325056Y73585D01*
X1324801Y72301D01*
Y68821D01*
X1331135D01*
Y75655D01*
D02*
G37*
G36*
X1340009Y66281D02*
X1333675D01*
Y59447D01*
X1336655D01*
X1337939Y59702D01*
X1339027Y60429D01*
X1339754Y61517D01*
X1340009Y62801D01*
Y66281D01*
D02*
G37*
G36*
X1331135D02*
X1324801D01*
Y62801D01*
X1325056Y61517D01*
X1325783Y60429D01*
X1326871Y59702D01*
X1328155Y59447D01*
X1331135D01*
Y66281D01*
D02*
G37*
%LPD*%
D10*
X512902Y85000D02*
X514114Y86211D01*
X328500Y67540D02*
Y69040D01*
X160000Y75000D02*
Y94000D01*
X160000Y94000D01*
D13*
X75000Y75000D02*
D03*
X160000D02*
D03*
D14*
X312500Y68290D02*
D03*
X328500D02*
D03*
X529870Y67230D02*
D03*
X513870D02*
D03*
X718000Y67350D02*
D03*
X734000D02*
D03*
X927100D02*
D03*
X911100D02*
D03*
X1115370Y66530D02*
D03*
X1131370D02*
D03*
X1332405Y67551D02*
D03*
X1316405D02*
D03*
X1518953Y68399D02*
D03*
X1534953D02*
D03*
X1732333Y68410D02*
D03*
X1716333D02*
D03*
D15*
X1534460Y84770D02*
D03*
X1518460D02*
D03*
X313270Y85000D02*
D03*
X329270D02*
D03*
X717500Y84000D02*
D03*
X733500D02*
D03*
X514770Y85000D02*
D03*
X530770D02*
D03*
X1331000Y84500D02*
D03*
X1315000D02*
D03*
X1114770D02*
D03*
X1130770D02*
D03*
X910500Y84000D02*
D03*
X926500D02*
D03*
X1731270Y85000D02*
D03*
X1715270D02*
D03*
D19*
X1502294Y84710D02*
X1502354Y84770D01*
X1518460D01*
X1502264Y84710D02*
X1502294D01*
X1314995Y84494D02*
X1315000Y84500D01*
X1298814Y84489D02*
X1298819Y84494D01*
X1314995D01*
X1114761Y84509D02*
X1114770Y84500D01*
X1099067Y84509D02*
X1114761D01*
X1099058Y84518D02*
X1099067Y84509D01*
X910499Y83998D02*
X910500Y84000D01*
X894977Y83998D02*
X910499D01*
X894975Y83997D02*
X894977Y83998D01*
X717498Y83998D02*
X717500Y84000D01*
X702049Y83998D02*
X717498D01*
X702047Y83996D02*
X702049Y83998D01*
X298045Y85000D02*
X313270D01*
X297950Y84935D02*
X297980D01*
X298045Y85000D01*
X499500D02*
X512902D01*
X1697500D02*
X1715270D01*
D20*
X1502264Y84710D02*
D03*
X1298814Y84489D02*
D03*
X1099058Y84518D02*
D03*
X894975Y83997D02*
D03*
X702047Y83996D02*
D03*
X297950Y84935D02*
D03*
X499500Y85000D02*
D03*
X1697500D02*
D03*
D21*
X178000Y74500D02*
D03*
X160000Y94000D02*
D03*
Y56000D02*
D03*
X141500Y74500D02*
D03*
M02*
