G04*
G04 #@! TF.GenerationSoftware,Altium Limited,Altium Designer,22.1.2 (22)*
G04*
G04 Layer_Color=65535*
%FSLAX44Y44*%
%MOMM*%
G71*
G04*
G04 #@! TF.SameCoordinates,81063EFC-00F6-4805-BBA1-6CCB0DCB9E20*
G04*
G04*
G04 #@! TF.FilePolarity,Positive*
G04*
G01*
G75*
%ADD10C,0.2540*%
%ADD11C,0.1270*%
%ADD12C,0.2000*%
D10*
X150659Y75403D02*
G03*
X150659Y75403I-31750J0D01*
G01*
D11*
X306203Y77955D02*
X336203D01*
X306203Y91954D02*
X336203D01*
X306203Y77955D02*
Y91954D01*
X336203Y77955D02*
Y91954D01*
X338203Y77955D02*
Y91954D01*
X539702Y77955D02*
Y91954D01*
X537702Y77955D02*
Y91954D01*
X507702Y77955D02*
Y91954D01*
X537702D01*
X507702Y77955D02*
X537702D01*
X710433Y76954D02*
X740433D01*
X710433Y90955D02*
X740433D01*
X710433Y76954D02*
Y90955D01*
X740433Y76954D02*
Y90955D01*
X742432Y76954D02*
Y90955D01*
X935433Y76954D02*
Y90955D01*
X933432Y76954D02*
Y90955D01*
X903432Y76954D02*
Y90955D01*
X933432D01*
X903432Y76954D02*
X933432D01*
X1107702Y77455D02*
X1137702D01*
X1107702Y91454D02*
X1137702D01*
X1107702Y77455D02*
Y91454D01*
X1137702Y77455D02*
Y91454D01*
X1139703Y77455D02*
Y91454D01*
X1339933Y77455D02*
Y91454D01*
X1337932Y77455D02*
Y91454D01*
X1307932Y77455D02*
Y91454D01*
X1337932D01*
X1307932Y77455D02*
X1337932D01*
X1511393Y77724D02*
X1541393D01*
X1511393Y91725D02*
X1541393D01*
X1511393Y77724D02*
Y91725D01*
X1541393Y77724D02*
Y91725D01*
X1543392Y77724D02*
Y91725D01*
X1740202Y77955D02*
Y91954D01*
X1738203Y77955D02*
Y91954D01*
X1708203Y77955D02*
Y91954D01*
X1738203D01*
X1708203Y77955D02*
X1738203D01*
X1108370Y59530D02*
Y73530D01*
X1138370Y59530D02*
Y73530D01*
X1108370Y59530D02*
X1138370D01*
X1108370Y73530D02*
X1138370D01*
X305500Y75290D02*
X335500D01*
X305500Y61290D02*
X335500D01*
Y75290D01*
X305500Y61290D02*
Y75290D01*
X506870Y60230D02*
Y74230D01*
X536870Y60230D02*
Y74230D01*
X506870Y60230D02*
X536870D01*
X506870Y74230D02*
X536870D01*
X711000Y74350D02*
X741000D01*
X711000Y60350D02*
X741000D01*
Y74350D01*
X711000Y60350D02*
Y74350D01*
X904100Y60350D02*
Y74350D01*
X934100Y60350D02*
Y74350D01*
X904100Y60350D02*
X934100D01*
X904100Y74350D02*
X934100D01*
X1309000Y60000D02*
Y74000D01*
X1339000Y60000D02*
Y74000D01*
X1309000Y60000D02*
X1339000D01*
X1309000Y74000D02*
X1339000D01*
X1511953Y75399D02*
X1541953D01*
X1511953Y61399D02*
X1541953D01*
Y75399D01*
X1511953Y61399D02*
Y75399D01*
X1709333Y61410D02*
Y75410D01*
X1739333Y61410D02*
Y75410D01*
X1709333Y61410D02*
X1739333D01*
X1709333Y75410D02*
X1739333D01*
D12*
X155035Y105303D02*
X153368Y106969D01*
X150036D01*
X148370Y105303D01*
Y98638D01*
X150036Y96972D01*
X153368D01*
X155035Y98638D01*
Y101970D01*
X151702D01*
X158367Y96972D02*
Y106969D01*
X165031Y96972D01*
Y106969D01*
X168363D02*
Y96972D01*
X173362D01*
X175028Y98638D01*
Y105303D01*
X173362Y106969D01*
X168363D01*
X79932Y106813D02*
X73267D01*
Y101814D01*
X76599Y103481D01*
X78265D01*
X79932Y101814D01*
Y98482D01*
X78265Y96816D01*
X74933D01*
X73267Y98482D01*
X83264Y106813D02*
Y100148D01*
X86596Y96816D01*
X89928Y100148D01*
Y106813D01*
M02*
