G04*
G04 #@! TF.GenerationSoftware,Altium Limited,Altium Designer,22.1.2 (22)*
G04*
G04 Layer_Color=65535*
%FSLAX44Y44*%
%MOMM*%
G71*
G04*
G04 #@! TF.SameCoordinates,3DC6AD5A-3514-449E-A232-3399599D5601*
G04*
G04*
G04 #@! TF.FilePolarity,Positive*
G04*
G01*
G75*
%ADD10C,0.2000*%
%ADD11C,0.2540*%
D10*
X707720Y91620D02*
X710260D01*
X707720Y76380D02*
X710260D01*
X707720D02*
Y91620D01*
X710260Y76380D02*
Y84000D01*
X710270Y76380D02*
X740740D01*
Y91620D01*
X710260D02*
X740740D01*
X710260Y84000D02*
Y91620D01*
Y76380D02*
X710270D01*
X504990Y92620D02*
X507530D01*
X504990Y77380D02*
X507530D01*
X504990D02*
Y92620D01*
X507530Y77380D02*
Y85000D01*
X507540Y77380D02*
X538010D01*
Y92620D01*
X507530D02*
X538010D01*
X507530Y85000D02*
Y92620D01*
Y77380D02*
X507540D01*
X306030D02*
X306040D01*
X306030Y85000D02*
Y92620D01*
X336510D01*
Y77380D02*
Y92620D01*
X306040Y77380D02*
X336510D01*
X306030D02*
Y85000D01*
X303490Y77380D02*
Y92620D01*
Y77380D02*
X306030D01*
X303490Y92620D02*
X306030D01*
X1307760Y76880D02*
X1307770D01*
X1307760Y84500D02*
Y92120D01*
X1338240D01*
Y76880D02*
Y92120D01*
X1307770Y76880D02*
X1338240D01*
X1307760D02*
Y84500D01*
X1305220Y76880D02*
Y92120D01*
Y76880D02*
X1307760D01*
X1305220Y92120D02*
X1307760D01*
X1507220Y91120D02*
X1509760D01*
X1507220Y75880D02*
X1509760D01*
X1507220D02*
Y91120D01*
X1509760Y75880D02*
Y83500D01*
X1509770Y75880D02*
X1540240D01*
Y91120D01*
X1509760D02*
X1540240D01*
X1509760Y83500D02*
Y91120D01*
Y75880D02*
X1509770D01*
X1104990Y92120D02*
X1107530D01*
X1104990Y76880D02*
X1107530D01*
X1104990D02*
Y92120D01*
X1107530Y76880D02*
Y84500D01*
X1107540Y76880D02*
X1138010D01*
Y92120D01*
X1107530D02*
X1138010D01*
X1107530Y84500D02*
Y92120D01*
Y76880D02*
X1107540D01*
X900720Y91620D02*
X903260D01*
X900720Y76380D02*
X903260D01*
X900720D02*
Y91620D01*
X903260Y76380D02*
Y84000D01*
X903270Y76380D02*
X933740D01*
Y91620D01*
X903260D02*
X933740D01*
X903260Y84000D02*
Y91620D01*
Y76380D02*
X903270D01*
X1708030Y77380D02*
X1708040D01*
X1708030Y85000D02*
Y92620D01*
X1738510D01*
Y77380D02*
Y92620D01*
X1708040Y77380D02*
X1738510D01*
X1708030D02*
Y85000D01*
X1705490Y77380D02*
Y92620D01*
Y77380D02*
X1708030D01*
X1705490Y92620D02*
X1708030D01*
D11*
X537217Y59880D02*
Y75120D01*
X509277D02*
X537217D01*
X509277Y59880D02*
Y75120D01*
Y59880D02*
X537217D01*
X306777Y60380D02*
X334717D01*
X306777D02*
Y75620D01*
X334717D01*
Y60380D02*
Y75620D01*
X711777Y58380D02*
X739717D01*
X711777D02*
Y73620D01*
X739717D01*
Y58380D02*
Y73620D01*
X933223Y58380D02*
Y73620D01*
X905283D02*
X933223D01*
X905283Y58380D02*
Y73620D01*
Y58380D02*
X933223D01*
X1109777Y58880D02*
X1137717D01*
X1109777D02*
Y74120D01*
X1137717D01*
Y58880D02*
Y74120D01*
X1337217Y58880D02*
Y74120D01*
X1309277D02*
X1337217D01*
X1309277Y58880D02*
Y74120D01*
Y58880D02*
X1337217D01*
X1511277Y57880D02*
X1539217D01*
X1511277D02*
Y73120D01*
X1539217D01*
Y57880D02*
Y73120D01*
X1738217Y59380D02*
Y74620D01*
X1710277D02*
X1738217D01*
X1710277Y59380D02*
Y74620D01*
Y59380D02*
X1738217D01*
M02*
