G04*
G04 #@! TF.GenerationSoftware,Altium Limited,Altium Designer,22.1.2 (22)*
G04*
G04 Layer_Color=65535*
%FSLAX44Y44*%
%MOMM*%
G71*
G04*
G04 #@! TF.SameCoordinates,955625FC-3A8F-475D-A4FE-D344C6288806*
G04*
G04*
G04 #@! TF.FilePolarity,Positive*
G04*
G01*
G75*
%ADD10C,0.2540*%
%ADD11C,0.1270*%
%ADD12C,0.2000*%
D10*
X150659Y75403D02*
G03*
X150659Y75403I-31750J0D01*
G01*
D11*
X1108370Y59530D02*
Y73530D01*
X1138370Y59530D02*
Y73530D01*
X1108370Y59530D02*
X1138370D01*
X1108370Y73530D02*
X1138370D01*
X305500Y75290D02*
X335500D01*
X305500Y61290D02*
X335500D01*
Y75290D01*
X305500Y61290D02*
Y75290D01*
X506870Y60230D02*
Y74230D01*
X536870Y60230D02*
Y74230D01*
X506870Y60230D02*
X536870D01*
X506870Y74230D02*
X536870D01*
X711000Y74350D02*
X741000D01*
X711000Y60350D02*
X741000D01*
Y74350D01*
X711000Y60350D02*
Y74350D01*
X904100Y60350D02*
Y74350D01*
X934100Y60350D02*
Y74350D01*
X904100Y60350D02*
X934100D01*
X904100Y74350D02*
X934100D01*
X1309000Y60000D02*
Y74000D01*
X1339000Y60000D02*
Y74000D01*
X1309000Y60000D02*
X1339000D01*
X1309000Y74000D02*
X1339000D01*
X1511953Y75399D02*
X1541953D01*
X1511953Y61399D02*
X1541953D01*
Y75399D01*
X1511953Y61399D02*
Y75399D01*
X1709333Y61410D02*
Y75410D01*
X1739333Y61410D02*
Y75410D01*
X1709333Y61410D02*
X1739333D01*
X1709333Y75410D02*
X1739333D01*
D12*
X1511220Y77150D02*
X1511230D01*
X1511220Y84770D02*
Y92390D01*
X1541700D01*
Y77150D02*
Y92390D01*
X1511230Y77150D02*
X1541700D01*
X1511220D02*
Y84770D01*
X1508680Y77150D02*
Y92390D01*
Y77150D02*
X1511220D01*
X1508680Y92390D02*
X1511220D01*
X303490Y92620D02*
X306030D01*
X303490Y77380D02*
X306030D01*
X303490D02*
Y92620D01*
X306030Y77380D02*
Y85000D01*
X306040Y77380D02*
X336510D01*
Y92620D01*
X306030D02*
X336510D01*
X306030Y85000D02*
Y92620D01*
Y77380D02*
X306040D01*
X707720Y91620D02*
X710260D01*
X707720Y76380D02*
X710260D01*
X707720D02*
Y91620D01*
X710260Y76380D02*
Y84000D01*
X710270Y76380D02*
X740740D01*
Y91620D01*
X710260D02*
X740740D01*
X710260Y84000D02*
Y91620D01*
Y76380D02*
X710270D01*
X504990Y92620D02*
X507530D01*
X504990Y77380D02*
X507530D01*
X504990D02*
Y92620D01*
X507530Y77380D02*
Y85000D01*
X507540Y77380D02*
X538010D01*
Y92620D01*
X507530D02*
X538010D01*
X507530Y85000D02*
Y92620D01*
Y77380D02*
X507540D01*
X1307760Y76880D02*
X1307770D01*
X1307760Y84500D02*
Y92120D01*
X1338240D01*
Y76880D02*
Y92120D01*
X1307770Y76880D02*
X1338240D01*
X1307760D02*
Y84500D01*
X1305220Y76880D02*
Y92120D01*
Y76880D02*
X1307760D01*
X1305220Y92120D02*
X1307760D01*
X1104990D02*
X1107530D01*
X1104990Y76880D02*
X1107530D01*
X1104990D02*
Y92120D01*
X1107530Y76880D02*
Y84500D01*
X1107540Y76880D02*
X1138010D01*
Y92120D01*
X1107530D02*
X1138010D01*
X1107530Y84500D02*
Y92120D01*
Y76880D02*
X1107540D01*
X900720Y91620D02*
X903260D01*
X900720Y76380D02*
X903260D01*
X900720D02*
Y91620D01*
X903260Y76380D02*
Y84000D01*
X903270Y76380D02*
X933740D01*
Y91620D01*
X903260D02*
X933740D01*
X903260Y84000D02*
Y91620D01*
Y76380D02*
X903270D01*
X1708030Y77380D02*
X1708040D01*
X1708030Y85000D02*
Y92620D01*
X1738510D01*
Y77380D02*
Y92620D01*
X1708040Y77380D02*
X1738510D01*
X1708030D02*
Y85000D01*
X1705490Y77380D02*
Y92620D01*
Y77380D02*
X1708030D01*
X1705490Y92620D02*
X1708030D01*
X155035Y105303D02*
X153368Y106969D01*
X150036D01*
X148370Y105303D01*
Y98638D01*
X150036Y96972D01*
X153368D01*
X155035Y98638D01*
Y101970D01*
X151702D01*
X158367Y96972D02*
Y106969D01*
X165031Y96972D01*
Y106969D01*
X168363D02*
Y96972D01*
X173362D01*
X175028Y98638D01*
Y105303D01*
X173362Y106969D01*
X168363D01*
X79932Y106813D02*
X73267D01*
Y101814D01*
X76599Y103481D01*
X78265D01*
X79932Y101814D01*
Y98482D01*
X78265Y96816D01*
X74933D01*
X73267Y98482D01*
X83264Y106813D02*
Y100148D01*
X86596Y96816D01*
X89928Y100148D01*
Y106813D01*
M02*
