G04*
G04 #@! TF.GenerationSoftware,Altium Limited,Altium Designer,22.1.2 (22)*
G04*
G04 Layer_Color=65535*
%FSLAX44Y44*%
%MOMM*%
G71*
G04*
G04 #@! TF.SameCoordinates,50683AA0-DA01-4EFE-9B7F-76C002CA6F73*
G04*
G04*
G04 #@! TF.FilePolarity,Positive*
G04*
G01*
G75*
%ADD10C,0.2000*%
D10*
X1447070Y57530D02*
Y64750D01*
Y64950D02*
X1475010D01*
Y50110D02*
Y64950D01*
X1447070Y50110D02*
X1475010D01*
X1447070D02*
Y57530D01*
X1447989Y73885D02*
X1447999D01*
X1447989Y81505D02*
Y89125D01*
X1478469D01*
Y73885D02*
Y89125D01*
X1447999Y73885D02*
X1478469D01*
X1447989D02*
Y81505D01*
X1445449Y73885D02*
Y89125D01*
Y73885D02*
X1447989D01*
X1445449Y89125D02*
X1447989D01*
X1706409Y89895D02*
X1708949D01*
X1706409Y74655D02*
X1708949D01*
X1706409D02*
Y89895D01*
X1708949Y74655D02*
Y82275D01*
X1708959Y74655D02*
X1739429D01*
Y89895D01*
X1708949D02*
X1739429D01*
X1708949Y82275D02*
Y89895D01*
Y74655D02*
X1708959D01*
X1710030Y58300D02*
Y65520D01*
Y65720D02*
X1737970D01*
Y50880D02*
Y65720D01*
X1710030Y50880D02*
X1737970D01*
X1710030D02*
Y58300D01*
X731949Y77155D02*
X731959D01*
X731949Y84775D02*
Y92395D01*
X762429D01*
Y77155D02*
Y92395D01*
X731959Y77155D02*
X762429D01*
X731949D02*
Y84775D01*
X729409Y77155D02*
Y92395D01*
Y77155D02*
X731949D01*
X729409Y92395D02*
X731949D01*
X492014Y47487D02*
Y54907D01*
Y47487D02*
X519954D01*
Y62327D01*
X492014D02*
X519954D01*
X492014Y54907D02*
Y62127D01*
X491720Y87620D02*
X494260D01*
X491720Y72380D02*
X494260D01*
X491720D02*
Y87620D01*
X494260Y72380D02*
Y80000D01*
X494270Y72380D02*
X524740D01*
Y87620D01*
X494260D02*
X524740D01*
X494260Y80000D02*
Y87620D01*
Y72380D02*
X494270D01*
X259800Y53530D02*
Y60750D01*
Y60950D02*
X287740D01*
Y46110D02*
Y60950D01*
X259800Y46110D02*
X287740D01*
X259800D02*
Y53530D01*
X1205179Y87625D02*
X1207719D01*
X1205179Y72385D02*
X1207719D01*
X1205179D02*
Y87625D01*
X1207719Y72385D02*
Y80005D01*
X1207729Y72385D02*
X1238199D01*
Y87625D01*
X1207719D02*
X1238199D01*
X1207719Y80005D02*
Y87625D01*
Y72385D02*
X1207729D01*
X972800Y91859D02*
X975340D01*
X972800Y76619D02*
X975340D01*
X972800D02*
Y91859D01*
X975340Y76619D02*
Y84239D01*
X975350Y76619D02*
X1005820D01*
Y91859D01*
X975340D02*
X1005820D01*
X975340Y84239D02*
Y91859D01*
Y76619D02*
X975350D01*
X260781Y70146D02*
X260791D01*
X260781Y77766D02*
Y85386D01*
X291261D01*
Y70146D02*
Y85386D01*
X260791Y70146D02*
X291261D01*
X260781D02*
Y77766D01*
X258241Y70146D02*
Y85386D01*
Y70146D02*
X260781D01*
X258241Y85386D02*
X260781D01*
X1963449Y78155D02*
X1963459D01*
X1963449Y85775D02*
Y93395D01*
X1993929D01*
Y78155D02*
Y93395D01*
X1963459Y78155D02*
X1993929D01*
X1963449D02*
Y85775D01*
X1960909Y78155D02*
Y93395D01*
Y78155D02*
X1963449D01*
X1960909Y93395D02*
X1963449D01*
X1962530Y54380D02*
Y61800D01*
Y54380D02*
X1990470D01*
Y69220D01*
X1962530D02*
X1990470D01*
X1962530Y61800D02*
Y69020D01*
X1208030Y49880D02*
Y57300D01*
Y49880D02*
X1235970D01*
Y64720D01*
X1208030D02*
X1235970D01*
X1208030Y57300D02*
Y64520D01*
X974421Y48111D02*
Y55531D01*
Y48111D02*
X1002361D01*
Y62951D01*
X974421D02*
X1002361D01*
X974421Y55531D02*
Y62751D01*
X733030Y47610D02*
Y55030D01*
Y47610D02*
X760970D01*
Y62450D01*
X733030D02*
X760970D01*
X733030Y55030D02*
Y62250D01*
M02*
