G04*
G04 #@! TF.GenerationSoftware,Altium Limited,Altium Designer,22.1.2 (22)*
G04*
G04 Layer_Physical_Order=2*
G04 Layer_Color=16711680*
%FSLAX44Y44*%
%MOMM*%
G71*
G04*
G04 #@! TF.SameCoordinates,FFFDF75E-C363-4650-965A-1A0CB3C4B1F3*
G04*
G04*
G04 #@! TF.FilePolarity,Positive*
G04*
G01*
G75*
%ADD20C,0.7112*%
%ADD21C,1.2700*%
G36*
X1743293Y115000D02*
X1743500Y115000D01*
X1744740Y114928D01*
X1747084Y114462D01*
X1749632Y113407D01*
X1751924Y111875D01*
X1753875Y109924D01*
X1755407Y107632D01*
X1756462Y105084D01*
X1757000Y102379D01*
Y101000D01*
X1757000Y101000D01*
X1757000Y101000D01*
X1757000Y50000D01*
Y48523D01*
X1756423Y45625D01*
X1755293Y42895D01*
X1753651Y40438D01*
X1751562Y38349D01*
X1749105Y36707D01*
X1746375Y35577D01*
X1743477Y35000D01*
X1742000Y35000D01*
X40700Y35000D01*
X38875Y35037D01*
X35311Y35821D01*
X31968Y37286D01*
X28975Y39375D01*
X26447Y42007D01*
X24481Y45082D01*
X23152Y48482D01*
X22513Y52075D01*
X22550Y53900D01*
Y100000D01*
Y101477D01*
X23126Y104375D01*
X24257Y107105D01*
X25899Y109562D01*
X27988Y111651D01*
X30445Y113293D01*
X33175Y114424D01*
X36073Y115000D01*
X37550D01*
X37550Y115000D01*
X1743293Y115000D01*
D02*
G37*
%LPC*%
G36*
X161270Y102800D02*
Y95270D01*
X168799D01*
X168661Y96321D01*
X167765Y98483D01*
X166340Y100340D01*
X164483Y101765D01*
X162321Y102661D01*
X161270Y102800D01*
D02*
G37*
G36*
X158730D02*
X157679Y102661D01*
X155517Y101765D01*
X153660Y100340D01*
X152235Y98483D01*
X151339Y96321D01*
X151201Y95270D01*
X158730D01*
Y102800D01*
D02*
G37*
G36*
X1698770Y90963D02*
Y86270D01*
X1703463D01*
X1703242Y87379D01*
X1701895Y89395D01*
X1699879Y90742D01*
X1698770Y90963D01*
D02*
G37*
G36*
X1696230D02*
X1695121Y90742D01*
X1693105Y89395D01*
X1691758Y87379D01*
X1691537Y86270D01*
X1696230D01*
Y90963D01*
D02*
G37*
G36*
X500770D02*
Y86270D01*
X505463D01*
X505242Y87379D01*
X503895Y89395D01*
X501879Y90742D01*
X500770Y90963D01*
D02*
G37*
G36*
X498230D02*
X497122Y90742D01*
X495105Y89395D01*
X493758Y87379D01*
X493537Y86270D01*
X498230D01*
Y90963D01*
D02*
G37*
G36*
X299220Y90898D02*
Y86205D01*
X303913D01*
X303692Y87313D01*
X302345Y89330D01*
X300329Y90677D01*
X299220Y90898D01*
D02*
G37*
G36*
X296680D02*
X295571Y90677D01*
X293555Y89330D01*
X292208Y87313D01*
X291987Y86205D01*
X296680D01*
Y90898D01*
D02*
G37*
G36*
X1503534Y90673D02*
Y85980D01*
X1508227D01*
X1508006Y87088D01*
X1506659Y89105D01*
X1504642Y90452D01*
X1503534Y90673D01*
D02*
G37*
G36*
X1500994D02*
X1499886Y90452D01*
X1497869Y89105D01*
X1496522Y87088D01*
X1496301Y85980D01*
X1500994D01*
Y90673D01*
D02*
G37*
G36*
X1100328Y90481D02*
Y85788D01*
X1105021D01*
X1104800Y86896D01*
X1103453Y88913D01*
X1101436Y90260D01*
X1100328Y90481D01*
D02*
G37*
G36*
X1097788D02*
X1096680Y90260D01*
X1094663Y88913D01*
X1093316Y86896D01*
X1093095Y85788D01*
X1097788D01*
Y90481D01*
D02*
G37*
G36*
X1300084Y90452D02*
Y85759D01*
X1304777D01*
X1304556Y86868D01*
X1303209Y88884D01*
X1301192Y90231D01*
X1300084Y90452D01*
D02*
G37*
G36*
X1297544D02*
X1296436Y90231D01*
X1294419Y88884D01*
X1293072Y86868D01*
X1292851Y85759D01*
X1297544D01*
Y90452D01*
D02*
G37*
G36*
X896245Y89960D02*
Y85267D01*
X900938D01*
X900717Y86376D01*
X899370Y88392D01*
X897354Y89739D01*
X896245Y89960D01*
D02*
G37*
G36*
X893705D02*
X892597Y89739D01*
X890580Y88392D01*
X889233Y86376D01*
X889012Y85267D01*
X893705D01*
Y89960D01*
D02*
G37*
G36*
X703317Y89959D02*
Y85266D01*
X708010D01*
X707789Y86375D01*
X706442Y88391D01*
X704426Y89738D01*
X703317Y89959D01*
D02*
G37*
G36*
X700777D02*
X699669Y89738D01*
X697652Y88391D01*
X696305Y86375D01*
X696084Y85266D01*
X700777D01*
Y89959D01*
D02*
G37*
G36*
X168799Y92730D02*
X161270D01*
Y85201D01*
X162321Y85339D01*
X164483Y86235D01*
X166340Y87660D01*
X167765Y89517D01*
X168661Y91679D01*
X168799Y92730D01*
D02*
G37*
G36*
X158730D02*
X151201D01*
X151339Y91679D01*
X152235Y89517D01*
X153660Y87660D01*
X155517Y86235D01*
X157679Y85339D01*
X158730Y85201D01*
Y92730D01*
D02*
G37*
G36*
X1703463Y83730D02*
X1698770D01*
Y79037D01*
X1699879Y79258D01*
X1701895Y80605D01*
X1703242Y82621D01*
X1703463Y83730D01*
D02*
G37*
G36*
X1696230D02*
X1691537D01*
X1691758Y82621D01*
X1693105Y80605D01*
X1695121Y79258D01*
X1696230Y79037D01*
Y83730D01*
D02*
G37*
G36*
X505463D02*
X500770D01*
Y79037D01*
X501879Y79258D01*
X503895Y80605D01*
X505242Y82621D01*
X505463Y83730D01*
D02*
G37*
G36*
X498230D02*
X493537D01*
X493758Y82621D01*
X495105Y80605D01*
X497122Y79258D01*
X498230Y79037D01*
Y83730D01*
D02*
G37*
G36*
X303913Y83665D02*
X299220D01*
Y78972D01*
X300329Y79193D01*
X302345Y80540D01*
X303692Y82556D01*
X303913Y83665D01*
D02*
G37*
G36*
X296680D02*
X291987D01*
X292208Y82556D01*
X293555Y80540D01*
X295571Y79193D01*
X296680Y78972D01*
Y83665D01*
D02*
G37*
G36*
X1508227Y83440D02*
X1503534D01*
Y78747D01*
X1504642Y78968D01*
X1506659Y80315D01*
X1508006Y82331D01*
X1508227Y83440D01*
D02*
G37*
G36*
X1500994D02*
X1496301D01*
X1496522Y82331D01*
X1497869Y80315D01*
X1499886Y78968D01*
X1500994Y78747D01*
Y83440D01*
D02*
G37*
G36*
X1105021Y83248D02*
X1100328D01*
Y78555D01*
X1101436Y78776D01*
X1103453Y80123D01*
X1104800Y82140D01*
X1105021Y83248D01*
D02*
G37*
G36*
X1097788D02*
X1093095D01*
X1093316Y82140D01*
X1094663Y80123D01*
X1096680Y78776D01*
X1097788Y78555D01*
Y83248D01*
D02*
G37*
G36*
X1304777Y83219D02*
X1300084D01*
Y78526D01*
X1301192Y78747D01*
X1303209Y80094D01*
X1304556Y82111D01*
X1304777Y83219D01*
D02*
G37*
G36*
X1297544D02*
X1292851D01*
X1293072Y82111D01*
X1294419Y80094D01*
X1296436Y78747D01*
X1297544Y78526D01*
Y83219D01*
D02*
G37*
G36*
X900938Y82727D02*
X896245D01*
Y78034D01*
X897354Y78255D01*
X899370Y79602D01*
X900717Y81618D01*
X900938Y82727D01*
D02*
G37*
G36*
X893705D02*
X889012D01*
X889233Y81618D01*
X890580Y79602D01*
X892597Y78255D01*
X893705Y78034D01*
Y82727D01*
D02*
G37*
G36*
X708010Y82726D02*
X703317D01*
Y78033D01*
X704426Y78254D01*
X706442Y79601D01*
X707789Y81617D01*
X708010Y82726D01*
D02*
G37*
G36*
X700777D02*
X696084D01*
X696305Y81617D01*
X697652Y79601D01*
X699669Y78254D01*
X700777Y78033D01*
Y82726D01*
D02*
G37*
G36*
X179270Y83300D02*
Y75770D01*
X186800D01*
X186661Y76821D01*
X185765Y78983D01*
X184340Y80840D01*
X182483Y82265D01*
X180321Y83161D01*
X179270Y83300D01*
D02*
G37*
G36*
X176730D02*
X175679Y83161D01*
X173517Y82265D01*
X171660Y80840D01*
X170235Y78983D01*
X169339Y76821D01*
X169200Y75770D01*
X176730D01*
Y83300D01*
D02*
G37*
G36*
X142770D02*
Y75770D01*
X150300D01*
X150161Y76821D01*
X149265Y78983D01*
X147840Y80840D01*
X145983Y82265D01*
X143821Y83161D01*
X142770Y83300D01*
D02*
G37*
G36*
X140230D02*
X139179Y83161D01*
X137017Y82265D01*
X135160Y80840D01*
X133735Y78983D01*
X132839Y76821D01*
X132701Y75770D01*
X140230D01*
Y83300D01*
D02*
G37*
G36*
X186800Y73230D02*
X179270D01*
Y65700D01*
X180321Y65839D01*
X182483Y66735D01*
X184340Y68160D01*
X185765Y70017D01*
X186661Y72179D01*
X186800Y73230D01*
D02*
G37*
G36*
X176730D02*
X169200D01*
X169339Y72179D01*
X170235Y70017D01*
X171660Y68160D01*
X173517Y66735D01*
X175679Y65839D01*
X176730Y65700D01*
Y73230D01*
D02*
G37*
G36*
X150300D02*
X142770D01*
Y65700D01*
X143821Y65839D01*
X145983Y66735D01*
X147840Y68160D01*
X149265Y70017D01*
X150161Y72179D01*
X150300Y73230D01*
D02*
G37*
G36*
X140230D02*
X132701D01*
X132839Y72179D01*
X133735Y70017D01*
X135160Y68160D01*
X137017Y66735D01*
X139179Y65839D01*
X140230Y65700D01*
Y73230D01*
D02*
G37*
G36*
X161270Y64799D02*
Y57270D01*
X168799D01*
X168661Y58321D01*
X167765Y60483D01*
X166340Y62340D01*
X164483Y63765D01*
X162321Y64661D01*
X161270Y64799D01*
D02*
G37*
G36*
X158730D02*
X157679Y64661D01*
X155517Y63765D01*
X153660Y62340D01*
X152235Y60483D01*
X151339Y58321D01*
X151201Y57270D01*
X158730D01*
Y64799D01*
D02*
G37*
G36*
X168799Y54730D02*
X161270D01*
Y47200D01*
X162321Y47339D01*
X164483Y48235D01*
X166340Y49660D01*
X167765Y51517D01*
X168661Y53679D01*
X168799Y54730D01*
D02*
G37*
G36*
X158730D02*
X151201D01*
X151339Y53679D01*
X152235Y51517D01*
X153660Y49660D01*
X155517Y48235D01*
X157679Y47339D01*
X158730Y47200D01*
Y54730D01*
D02*
G37*
%LPD*%
D20*
X1502264Y84710D02*
D03*
X1298814Y84489D02*
D03*
X1099058Y84518D02*
D03*
X894975Y83997D02*
D03*
X702047Y83996D02*
D03*
X297950Y84935D02*
D03*
X499500Y85000D02*
D03*
X1697500D02*
D03*
D21*
X178000Y74500D02*
D03*
X160000Y94000D02*
D03*
Y56000D02*
D03*
X141500Y74500D02*
D03*
M02*
