G04*
G04 #@! TF.GenerationSoftware,Altium Limited,Altium Designer,21.9.2 (33)*
G04*
G04 Layer_Physical_Order=2*
G04 Layer_Color=36540*
%FSLAX25Y25*%
%MOIN*%
G70*
G04*
G04 #@! TF.SameCoordinates,4D01AB76-DD33-443A-9DFE-E83AFE04FE17*
G04*
G04*
G04 #@! TF.FilePolarity,Positive*
G04*
G01*
G75*
%ADD81O,0.05937X0.11874*%
%ADD84O,0.11874X0.05937*%
%ADD85C,0.09055*%
%ADD86C,0.02362*%
G36*
X289106Y333595D02*
X290768Y333196D01*
X292348Y332542D01*
X293805Y331649D01*
X295105Y330538D01*
X296216Y329238D01*
X297109Y327781D01*
X297763Y326201D01*
X298162Y324539D01*
X298258Y323323D01*
X298295Y322835D01*
X298295Y322835D01*
X298295Y322343D01*
X298295Y11811D01*
X298296Y11807D01*
X298162Y10107D01*
X297763Y8444D01*
X297109Y6865D01*
X296216Y5407D01*
X295105Y4107D01*
X293805Y2997D01*
X292348Y2104D01*
X290768Y1450D01*
X289106Y1051D01*
X287406Y917D01*
X287402Y918D01*
X11811D01*
X11807Y917D01*
X10107Y1051D01*
X8444Y1450D01*
X6865Y2104D01*
X5407Y2997D01*
X4107Y4107D01*
X2997Y5407D01*
X2104Y6865D01*
X1450Y8444D01*
X1051Y10107D01*
X955Y11322D01*
X918Y11811D01*
X918Y11811D01*
X918Y12303D01*
X918Y322835D01*
X917Y322839D01*
X1051Y324539D01*
X1450Y326201D01*
X2104Y327781D01*
X2997Y329238D01*
X4107Y330538D01*
X5407Y331649D01*
X6865Y332542D01*
X8444Y333196D01*
X10107Y333595D01*
X11807Y333729D01*
X11811Y333728D01*
X287402D01*
X287406Y333729D01*
X289106Y333595D01*
D02*
G37*
%LPC*%
G36*
X72247Y327206D02*
Y321066D01*
X75445D01*
Y323835D01*
X75329Y324714D01*
X74990Y325533D01*
X74450Y326237D01*
X73746Y326777D01*
X72927Y327116D01*
X72247Y327206D01*
D02*
G37*
G36*
X71847D02*
X71168Y327116D01*
X70349Y326777D01*
X69645Y326237D01*
X69105Y325533D01*
X68765Y324714D01*
X68650Y323835D01*
Y321066D01*
X71847D01*
Y327206D01*
D02*
G37*
G36*
X216657Y326812D02*
Y320672D01*
X219854D01*
Y323441D01*
X219739Y324320D01*
X219399Y325140D01*
X218859Y325843D01*
X218156Y326383D01*
X217336Y326723D01*
X216657Y326812D01*
D02*
G37*
G36*
X216257D02*
X215577Y326723D01*
X214758Y326383D01*
X214054Y325843D01*
X213514Y325140D01*
X213175Y324320D01*
X213059Y323441D01*
Y320672D01*
X216257D01*
Y326812D01*
D02*
G37*
G36*
X154368Y326124D02*
X141694D01*
Y319387D01*
X154368D01*
Y326124D01*
D02*
G37*
G36*
X139014D02*
X126340D01*
Y319387D01*
X139014D01*
Y326124D01*
D02*
G37*
G36*
X123660D02*
X110986D01*
Y319387D01*
X123660D01*
Y326124D01*
D02*
G37*
G36*
X108306D02*
X95631D01*
Y319387D01*
X108306D01*
Y326124D01*
D02*
G37*
G36*
X285039Y326230D02*
X283549Y326034D01*
X282160Y325459D01*
X280968Y324544D01*
X280053Y323351D01*
X279478Y321963D01*
X279281Y320472D01*
X279478Y318982D01*
X280053Y317594D01*
X280968Y316401D01*
X282160Y315486D01*
X283549Y314911D01*
X285039Y314715D01*
X286530Y314911D01*
X287918Y315486D01*
X289111Y316401D01*
X290026Y317594D01*
X290601Y318982D01*
X290797Y320472D01*
X290601Y321963D01*
X290026Y323351D01*
X289111Y324544D01*
X287918Y325459D01*
X286530Y326034D01*
X285039Y326230D01*
D02*
G37*
G36*
X14173D02*
X12683Y326034D01*
X11294Y325459D01*
X10102Y324544D01*
X9187Y323351D01*
X8612Y321963D01*
X8415Y320472D01*
X8612Y318982D01*
X9187Y317594D01*
X10102Y316401D01*
X11294Y315486D01*
X12683Y314911D01*
X14173Y314715D01*
X15664Y314911D01*
X17052Y315486D01*
X18245Y316401D01*
X19160Y317594D01*
X19735Y318982D01*
X19931Y320472D01*
X19735Y321963D01*
X19160Y323351D01*
X18245Y324544D01*
X17052Y325459D01*
X15664Y326034D01*
X14173Y326230D01*
D02*
G37*
G36*
X45416Y327203D02*
X38679D01*
Y314529D01*
X45416D01*
Y327203D01*
D02*
G37*
G36*
X71847Y320666D02*
X68650D01*
Y317898D01*
X68765Y317018D01*
X69105Y316199D01*
X69645Y315495D01*
X70349Y314955D01*
X71168Y314616D01*
X71847Y314526D01*
Y320666D01*
D02*
G37*
G36*
X75445D02*
X72247D01*
Y314526D01*
X72927Y314616D01*
X73746Y314955D01*
X74450Y315495D01*
X74990Y316199D01*
X75329Y317018D01*
X75445Y317898D01*
Y320666D01*
D02*
G37*
G36*
X62047Y327232D02*
X61168Y327116D01*
X60348Y326777D01*
X59645Y326237D01*
X59105Y325533D01*
X58765Y324714D01*
X58650Y323835D01*
Y317898D01*
X58765Y317018D01*
X59105Y316199D01*
X59645Y315495D01*
X60348Y314955D01*
X61168Y314616D01*
X62047Y314500D01*
X62927Y314616D01*
X63746Y314955D01*
X64450Y315495D01*
X64990Y316199D01*
X65329Y317018D01*
X65445Y317898D01*
Y323835D01*
X65329Y324714D01*
X64990Y325533D01*
X64450Y326237D01*
X63746Y326777D01*
X62927Y327116D01*
X62047Y327232D01*
D02*
G37*
G36*
X52047D02*
X51168Y327116D01*
X50349Y326777D01*
X49645Y326237D01*
X49105Y325533D01*
X48765Y324714D01*
X48650Y323835D01*
Y317898D01*
X48765Y317018D01*
X49105Y316199D01*
X49645Y315495D01*
X50349Y314955D01*
X51168Y314616D01*
X52047Y314500D01*
X52927Y314616D01*
X53746Y314955D01*
X54450Y315495D01*
X54990Y316199D01*
X55329Y317018D01*
X55445Y317898D01*
Y323835D01*
X55329Y324714D01*
X54990Y325533D01*
X54450Y326237D01*
X53746Y326777D01*
X52927Y327116D01*
X52047Y327232D01*
D02*
G37*
G36*
X169825Y326810D02*
X163088D01*
Y314135D01*
X169825D01*
Y326810D01*
D02*
G37*
G36*
X219854Y320272D02*
X216657D01*
Y314133D01*
X217336Y314222D01*
X218156Y314562D01*
X218859Y315102D01*
X219399Y315805D01*
X219739Y316625D01*
X219854Y317504D01*
Y320272D01*
D02*
G37*
G36*
X216257D02*
X213059D01*
Y317504D01*
X213175Y316625D01*
X213514Y315805D01*
X214054Y315102D01*
X214758Y314562D01*
X215577Y314222D01*
X216257Y314133D01*
Y320272D01*
D02*
G37*
G36*
X206457Y326838D02*
X205577Y326723D01*
X204758Y326383D01*
X204054Y325843D01*
X203514Y325140D01*
X203175Y324320D01*
X203059Y323441D01*
Y317504D01*
X203175Y316625D01*
X203514Y315805D01*
X204054Y315102D01*
X204758Y314562D01*
X205577Y314222D01*
X206457Y314106D01*
X207336Y314222D01*
X208155Y314562D01*
X208859Y315102D01*
X209399Y315805D01*
X209738Y316625D01*
X209854Y317504D01*
Y323441D01*
X209738Y324320D01*
X209399Y325140D01*
X208859Y325843D01*
X208155Y326383D01*
X207336Y326723D01*
X206457Y326838D01*
D02*
G37*
G36*
X196457D02*
X195577Y326723D01*
X194758Y326383D01*
X194054Y325843D01*
X193514Y325140D01*
X193175Y324320D01*
X193059Y323441D01*
Y317504D01*
X193175Y316625D01*
X193514Y315805D01*
X194054Y315102D01*
X194758Y314562D01*
X195577Y314222D01*
X196457Y314106D01*
X197336Y314222D01*
X198155Y314562D01*
X198859Y315102D01*
X199399Y315805D01*
X199739Y316625D01*
X199854Y317504D01*
Y323441D01*
X199739Y324320D01*
X199399Y325140D01*
X198859Y325843D01*
X198155Y326383D01*
X197336Y326723D01*
X196457Y326838D01*
D02*
G37*
G36*
X186457D02*
X185577Y326723D01*
X184758Y326383D01*
X184054Y325843D01*
X183514Y325140D01*
X183175Y324320D01*
X183059Y323441D01*
Y317504D01*
X183175Y316625D01*
X183514Y315805D01*
X184054Y315102D01*
X184758Y314562D01*
X185577Y314222D01*
X186457Y314106D01*
X187336Y314222D01*
X188155Y314562D01*
X188859Y315102D01*
X189399Y315805D01*
X189739Y316625D01*
X189854Y317504D01*
Y323441D01*
X189739Y324320D01*
X189399Y325140D01*
X188859Y325843D01*
X188155Y326383D01*
X187336Y326723D01*
X186457Y326838D01*
D02*
G37*
G36*
X176457D02*
X175577Y326723D01*
X174758Y326383D01*
X174054Y325843D01*
X173514Y325140D01*
X173175Y324320D01*
X173059Y323441D01*
Y317504D01*
X173175Y316625D01*
X173514Y315805D01*
X174054Y315102D01*
X174758Y314562D01*
X175577Y314222D01*
X176457Y314106D01*
X177336Y314222D01*
X178156Y314562D01*
X178859Y315102D01*
X179399Y315805D01*
X179738Y316625D01*
X179854Y317504D01*
Y323441D01*
X179738Y324320D01*
X179399Y325140D01*
X178859Y325843D01*
X178156Y326383D01*
X177336Y326723D01*
X176457Y326838D01*
D02*
G37*
G36*
X151000Y316154D02*
X148231D01*
Y312956D01*
X154371D01*
X154282Y313635D01*
X153942Y314455D01*
X153402Y315158D01*
X152699Y315698D01*
X151879Y316038D01*
X151000Y316154D01*
D02*
G37*
G36*
X147831D02*
X145063D01*
X144184Y316038D01*
X143364Y315698D01*
X142660Y315158D01*
X142121Y314455D01*
X141781Y313635D01*
X141692Y312956D01*
X147831D01*
Y316154D01*
D02*
G37*
G36*
X135646D02*
X132877D01*
Y312956D01*
X139017D01*
X138927Y313635D01*
X138588Y314455D01*
X138048Y315158D01*
X137345Y315698D01*
X136525Y316038D01*
X135646Y316154D01*
D02*
G37*
G36*
X132477D02*
X129709D01*
X128829Y316038D01*
X128010Y315698D01*
X127306Y315158D01*
X126766Y314455D01*
X126427Y313635D01*
X126337Y312956D01*
X132477D01*
Y316154D01*
D02*
G37*
G36*
X120291D02*
X117523D01*
Y312956D01*
X123663D01*
X123573Y313635D01*
X123234Y314455D01*
X122694Y315158D01*
X121990Y315698D01*
X121171Y316038D01*
X120291Y316154D01*
D02*
G37*
G36*
X117123D02*
X114354D01*
X113475Y316038D01*
X112655Y315698D01*
X111952Y315158D01*
X111412Y314455D01*
X111073Y313635D01*
X110983Y312956D01*
X117123D01*
Y316154D01*
D02*
G37*
G36*
X104937D02*
X102169D01*
Y312956D01*
X108308D01*
X108219Y313635D01*
X107879Y314455D01*
X107340Y315158D01*
X106636Y315698D01*
X105816Y316038D01*
X104937Y316154D01*
D02*
G37*
G36*
X101769D02*
X99000D01*
X98121Y316038D01*
X97301Y315698D01*
X96598Y315158D01*
X96058Y314455D01*
X95718Y313635D01*
X95629Y312956D01*
X101769D01*
Y316154D01*
D02*
G37*
G36*
X242326Y314393D02*
Y309649D01*
X247070D01*
X246927Y310735D01*
X246430Y311934D01*
X245640Y312963D01*
X244611Y313753D01*
X243412Y314249D01*
X242326Y314393D01*
D02*
G37*
G36*
X241926Y314393D02*
X240840Y314249D01*
X239641Y313753D01*
X238612Y312963D01*
X237822Y311934D01*
X237325Y310735D01*
X237182Y309649D01*
X241926D01*
Y314393D01*
D02*
G37*
G36*
X154371Y312556D02*
X148231D01*
Y309358D01*
X151000D01*
X151879Y309474D01*
X152699Y309813D01*
X153402Y310353D01*
X153942Y311057D01*
X154282Y311877D01*
X154371Y312556D01*
D02*
G37*
G36*
X147831D02*
X141692D01*
X141781Y311877D01*
X142121Y311057D01*
X142660Y310353D01*
X143364Y309813D01*
X144184Y309474D01*
X145063Y309358D01*
X147831D01*
Y312556D01*
D02*
G37*
G36*
X139017D02*
X132877D01*
Y309358D01*
X135646D01*
X136525Y309474D01*
X137345Y309813D01*
X138048Y310353D01*
X138588Y311057D01*
X138927Y311877D01*
X139017Y312556D01*
D02*
G37*
G36*
X132477D02*
X126337D01*
X126427Y311877D01*
X126766Y311057D01*
X127306Y310353D01*
X128010Y309813D01*
X128829Y309474D01*
X129709Y309358D01*
X132477D01*
Y312556D01*
D02*
G37*
G36*
X123663D02*
X117523D01*
Y309358D01*
X120291D01*
X121171Y309474D01*
X121990Y309813D01*
X122694Y310353D01*
X123234Y311057D01*
X123573Y311877D01*
X123663Y312556D01*
D02*
G37*
G36*
X117123D02*
X110983D01*
X111073Y311877D01*
X111412Y311057D01*
X111952Y310353D01*
X112655Y309813D01*
X113475Y309474D01*
X114354Y309358D01*
X117123D01*
Y312556D01*
D02*
G37*
G36*
X108308D02*
X102169D01*
Y309358D01*
X104937D01*
X105816Y309474D01*
X106636Y309813D01*
X107340Y310353D01*
X107879Y311057D01*
X108219Y311877D01*
X108308Y312556D01*
D02*
G37*
G36*
X101769D02*
X95629D01*
X95718Y311877D01*
X96058Y311057D01*
X96598Y310353D01*
X97301Y309813D01*
X98121Y309474D01*
X99000Y309358D01*
X101769D01*
Y312556D01*
D02*
G37*
G36*
X247070Y309249D02*
X242326D01*
Y304505D01*
X243412Y304648D01*
X244611Y305145D01*
X245640Y305934D01*
X246430Y306964D01*
X246927Y308162D01*
X247070Y309249D01*
D02*
G37*
G36*
X241926D02*
X237182D01*
X237325Y308162D01*
X237822Y306964D01*
X238612Y305934D01*
X239641Y305145D01*
X240840Y304648D01*
X241926Y304505D01*
Y309249D01*
D02*
G37*
G36*
X261811Y314419D02*
X260525Y314249D01*
X259326Y313753D01*
X258297Y312963D01*
X257507Y311934D01*
X257010Y310735D01*
X256841Y309449D01*
X257010Y308162D01*
X257507Y306964D01*
X258297Y305934D01*
X259326Y305145D01*
X260525Y304648D01*
X261811Y304479D01*
X263097Y304648D01*
X264296Y305145D01*
X265325Y305934D01*
X266115Y306964D01*
X266612Y308162D01*
X266781Y309449D01*
X266612Y310735D01*
X266115Y311934D01*
X265325Y312963D01*
X264296Y313753D01*
X263097Y314249D01*
X261811Y314419D01*
D02*
G37*
G36*
X220116Y309195D02*
X207442D01*
Y302458D01*
X220116D01*
Y309195D01*
D02*
G37*
G36*
X201575Y302895D02*
X200919Y302765D01*
X200363Y302393D01*
X199991Y301837D01*
X199861Y301181D01*
X199991Y300525D01*
X200363Y299969D01*
X200919Y299598D01*
X201575Y299467D01*
X202231Y299598D01*
X202787Y299969D01*
X203158Y300525D01*
X203289Y301181D01*
X203158Y301837D01*
X202787Y302393D01*
X202231Y302765D01*
X201575Y302895D01*
D02*
G37*
G36*
X151000Y306153D02*
X145063D01*
X144184Y306038D01*
X143364Y305698D01*
X142660Y305158D01*
X142121Y304455D01*
X141781Y303635D01*
X141665Y302756D01*
X141781Y301876D01*
X142121Y301057D01*
X142660Y300354D01*
X143364Y299814D01*
X144184Y299474D01*
X145063Y299358D01*
X151000D01*
X151879Y299474D01*
X152699Y299814D01*
X153402Y300354D01*
X153942Y301057D01*
X154282Y301876D01*
X154398Y302756D01*
X154282Y303635D01*
X153942Y304455D01*
X153402Y305158D01*
X152699Y305698D01*
X151879Y306038D01*
X151000Y306153D01*
D02*
G37*
G36*
X135646D02*
X129709D01*
X128829Y306038D01*
X128010Y305698D01*
X127306Y305158D01*
X126766Y304455D01*
X126427Y303635D01*
X126311Y302756D01*
X126427Y301876D01*
X126766Y301057D01*
X127306Y300354D01*
X128010Y299814D01*
X128829Y299474D01*
X129709Y299358D01*
X135646D01*
X136525Y299474D01*
X137345Y299814D01*
X138048Y300354D01*
X138588Y301057D01*
X138927Y301876D01*
X139043Y302756D01*
X138927Y303635D01*
X138588Y304455D01*
X138048Y305158D01*
X137345Y305698D01*
X136525Y306038D01*
X135646Y306153D01*
D02*
G37*
G36*
X120291D02*
X114354D01*
X113475Y306038D01*
X112655Y305698D01*
X111952Y305158D01*
X111412Y304455D01*
X111073Y303635D01*
X110957Y302756D01*
X111073Y301876D01*
X111412Y301057D01*
X111952Y300354D01*
X112655Y299814D01*
X113475Y299474D01*
X114354Y299358D01*
X120291D01*
X121171Y299474D01*
X121990Y299814D01*
X122694Y300354D01*
X123234Y301057D01*
X123573Y301876D01*
X123689Y302756D01*
X123573Y303635D01*
X123234Y304455D01*
X122694Y305158D01*
X121990Y305698D01*
X121171Y306038D01*
X120291Y306153D01*
D02*
G37*
G36*
X104937D02*
X99000D01*
X98121Y306038D01*
X97301Y305698D01*
X96598Y305158D01*
X96058Y304455D01*
X95718Y303635D01*
X95602Y302756D01*
X95718Y301876D01*
X96058Y301057D01*
X96598Y300354D01*
X97301Y299814D01*
X98121Y299474D01*
X99000Y299358D01*
X104937D01*
X105816Y299474D01*
X106636Y299814D01*
X107340Y300354D01*
X107879Y301057D01*
X108219Y301876D01*
X108335Y302756D01*
X108219Y303635D01*
X107879Y304455D01*
X107340Y305158D01*
X106636Y305698D01*
X105816Y306038D01*
X104937Y306153D01*
D02*
G37*
G36*
X15397Y305159D02*
Y299019D01*
X18594D01*
Y301787D01*
X18479Y302667D01*
X18139Y303486D01*
X17599Y304190D01*
X16896Y304730D01*
X16076Y305069D01*
X15397Y305159D01*
D02*
G37*
G36*
X14997D02*
X14318Y305069D01*
X13498Y304730D01*
X12794Y304190D01*
X12254Y303486D01*
X11915Y302667D01*
X11799Y301787D01*
Y299019D01*
X14997D01*
Y305159D01*
D02*
G37*
G36*
X68565Y305156D02*
X61828D01*
Y292482D01*
X68565D01*
Y305156D01*
D02*
G37*
G36*
X18594Y298619D02*
X15397D01*
Y292479D01*
X16076Y292569D01*
X16896Y292908D01*
X17599Y293448D01*
X18139Y294152D01*
X18479Y294971D01*
X18594Y295850D01*
Y298619D01*
D02*
G37*
G36*
X14997D02*
X11799D01*
Y295850D01*
X11915Y294971D01*
X12254Y294152D01*
X12794Y293448D01*
X13498Y292908D01*
X14318Y292569D01*
X14997Y292479D01*
Y298619D01*
D02*
G37*
G36*
X55197Y305185D02*
X54317Y305069D01*
X53498Y304730D01*
X52794Y304190D01*
X52254Y303486D01*
X51915Y302667D01*
X51799Y301787D01*
Y295850D01*
X51915Y294971D01*
X52254Y294152D01*
X52794Y293448D01*
X53498Y292908D01*
X54317Y292569D01*
X55197Y292453D01*
X56076Y292569D01*
X56896Y292908D01*
X57599Y293448D01*
X58139Y294152D01*
X58479Y294971D01*
X58594Y295850D01*
Y301787D01*
X58479Y302667D01*
X58139Y303486D01*
X57599Y304190D01*
X56896Y304730D01*
X56076Y305069D01*
X55197Y305185D01*
D02*
G37*
G36*
X45197D02*
X44317Y305069D01*
X43498Y304730D01*
X42794Y304190D01*
X42254Y303486D01*
X41915Y302667D01*
X41799Y301787D01*
Y295850D01*
X41915Y294971D01*
X42254Y294152D01*
X42794Y293448D01*
X43498Y292908D01*
X44317Y292569D01*
X45197Y292453D01*
X46076Y292569D01*
X46896Y292908D01*
X47599Y293448D01*
X48139Y294152D01*
X48479Y294971D01*
X48594Y295850D01*
Y301787D01*
X48479Y302667D01*
X48139Y303486D01*
X47599Y304190D01*
X46896Y304730D01*
X46076Y305069D01*
X45197Y305185D01*
D02*
G37*
G36*
X35197D02*
X34317Y305069D01*
X33498Y304730D01*
X32794Y304190D01*
X32254Y303486D01*
X31915Y302667D01*
X31799Y301787D01*
Y295850D01*
X31915Y294971D01*
X32254Y294152D01*
X32794Y293448D01*
X33498Y292908D01*
X34317Y292569D01*
X35197Y292453D01*
X36076Y292569D01*
X36896Y292908D01*
X37599Y293448D01*
X38139Y294152D01*
X38479Y294971D01*
X38594Y295850D01*
Y301787D01*
X38479Y302667D01*
X38139Y303486D01*
X37599Y304190D01*
X36896Y304730D01*
X36076Y305069D01*
X35197Y305185D01*
D02*
G37*
G36*
X25197D02*
X24317Y305069D01*
X23498Y304730D01*
X22794Y304190D01*
X22254Y303486D01*
X21915Y302667D01*
X21799Y301787D01*
Y295850D01*
X21915Y294971D01*
X22254Y294152D01*
X22794Y293448D01*
X23498Y292908D01*
X24317Y292569D01*
X25197Y292453D01*
X26076Y292569D01*
X26896Y292908D01*
X27599Y293448D01*
X28139Y294152D01*
X28479Y294971D01*
X28594Y295850D01*
Y301787D01*
X28479Y302667D01*
X28139Y303486D01*
X27599Y304190D01*
X26896Y304730D01*
X26076Y305069D01*
X25197Y305185D01*
D02*
G37*
G36*
X216748Y299224D02*
X210811D01*
X209932Y299109D01*
X209112Y298769D01*
X208409Y298229D01*
X207869Y297526D01*
X207529Y296706D01*
X207414Y295827D01*
X207529Y294947D01*
X207869Y294128D01*
X208409Y293424D01*
X209112Y292884D01*
X209932Y292545D01*
X210811Y292429D01*
X216748D01*
X217627Y292545D01*
X218447Y292884D01*
X219150Y293424D01*
X219690Y294128D01*
X220030Y294947D01*
X220146Y295827D01*
X220030Y296706D01*
X219690Y297526D01*
X219150Y298229D01*
X218447Y298769D01*
X217627Y299109D01*
X216748Y299224D01*
D02*
G37*
G36*
X151000Y296153D02*
X145063D01*
X144184Y296038D01*
X143364Y295698D01*
X142660Y295158D01*
X142121Y294455D01*
X141781Y293635D01*
X141665Y292756D01*
X141781Y291877D01*
X142121Y291057D01*
X142660Y290353D01*
X143364Y289813D01*
X144184Y289474D01*
X145063Y289358D01*
X151000D01*
X151879Y289474D01*
X152699Y289813D01*
X153402Y290353D01*
X153942Y291057D01*
X154282Y291877D01*
X154398Y292756D01*
X154282Y293635D01*
X153942Y294455D01*
X153402Y295158D01*
X152699Y295698D01*
X151879Y296038D01*
X151000Y296153D01*
D02*
G37*
G36*
X135646D02*
X129709D01*
X128829Y296038D01*
X128010Y295698D01*
X127306Y295158D01*
X126766Y294455D01*
X126427Y293635D01*
X126311Y292756D01*
X126427Y291877D01*
X126766Y291057D01*
X127306Y290353D01*
X128010Y289813D01*
X128829Y289474D01*
X129709Y289358D01*
X135646D01*
X136525Y289474D01*
X137345Y289813D01*
X138048Y290353D01*
X138588Y291057D01*
X138927Y291877D01*
X139043Y292756D01*
X138927Y293635D01*
X138588Y294455D01*
X138048Y295158D01*
X137345Y295698D01*
X136525Y296038D01*
X135646Y296153D01*
D02*
G37*
G36*
X120291D02*
X114354D01*
X113475Y296038D01*
X112655Y295698D01*
X111952Y295158D01*
X111412Y294455D01*
X111073Y293635D01*
X110957Y292756D01*
X111073Y291877D01*
X111412Y291057D01*
X111952Y290353D01*
X112655Y289813D01*
X113475Y289474D01*
X114354Y289358D01*
X120291D01*
X121171Y289474D01*
X121990Y289813D01*
X122694Y290353D01*
X123234Y291057D01*
X123573Y291877D01*
X123689Y292756D01*
X123573Y293635D01*
X123234Y294455D01*
X122694Y295158D01*
X121990Y295698D01*
X121171Y296038D01*
X120291Y296153D01*
D02*
G37*
G36*
X104937D02*
X99000D01*
X98121Y296038D01*
X97301Y295698D01*
X96598Y295158D01*
X96058Y294455D01*
X95718Y293635D01*
X95602Y292756D01*
X95718Y291877D01*
X96058Y291057D01*
X96598Y290353D01*
X97301Y289813D01*
X98121Y289474D01*
X99000Y289358D01*
X104937D01*
X105816Y289474D01*
X106636Y289813D01*
X107340Y290353D01*
X107879Y291057D01*
X108219Y291877D01*
X108335Y292756D01*
X108219Y293635D01*
X107879Y294455D01*
X107340Y295158D01*
X106636Y295698D01*
X105816Y296038D01*
X104937Y296153D01*
D02*
G37*
G36*
X201575Y291872D02*
X200919Y291741D01*
X200363Y291370D01*
X199991Y290813D01*
X199861Y290158D01*
X199991Y289502D01*
X200363Y288946D01*
X200919Y288574D01*
X201575Y288443D01*
X202231Y288574D01*
X202787Y288946D01*
X203158Y289502D01*
X203289Y290158D01*
X203158Y290813D01*
X202787Y291370D01*
X202231Y291741D01*
X201575Y291872D01*
D02*
G37*
G36*
X216748Y289224D02*
X210811D01*
X209932Y289109D01*
X209112Y288769D01*
X208409Y288229D01*
X207869Y287526D01*
X207529Y286706D01*
X207414Y285827D01*
X207529Y284947D01*
X207869Y284128D01*
X208409Y283424D01*
X209112Y282884D01*
X209932Y282545D01*
X210811Y282429D01*
X216748D01*
X217627Y282545D01*
X218447Y282884D01*
X219150Y283424D01*
X219690Y284128D01*
X220030Y284947D01*
X220146Y285827D01*
X220030Y286706D01*
X219690Y287526D01*
X219150Y288229D01*
X218447Y288769D01*
X217627Y289109D01*
X216748Y289224D01*
D02*
G37*
G36*
X293307Y281242D02*
X292651Y281111D01*
X292095Y280740D01*
X291723Y280184D01*
X291593Y279528D01*
X291723Y278872D01*
X292095Y278316D01*
X292651Y277944D01*
X293307Y277814D01*
X293963Y277944D01*
X294519Y278316D01*
X294891Y278872D01*
X295021Y279528D01*
X294891Y280184D01*
X294519Y280740D01*
X293963Y281111D01*
X293307Y281242D01*
D02*
G37*
G36*
X287402D02*
X286746Y281111D01*
X286190Y280740D01*
X285818Y280184D01*
X285687Y279528D01*
X285818Y278872D01*
X286190Y278316D01*
X286746Y277944D01*
X287402Y277814D01*
X288057Y277944D01*
X288614Y278316D01*
X288985Y278872D01*
X289116Y279528D01*
X288985Y280184D01*
X288614Y280740D01*
X288057Y281111D01*
X287402Y281242D01*
D02*
G37*
G36*
X281496D02*
X280840Y281111D01*
X280284Y280740D01*
X279912Y280184D01*
X279782Y279528D01*
X279912Y278872D01*
X280284Y278316D01*
X280840Y277944D01*
X281496Y277814D01*
X282152Y277944D01*
X282708Y278316D01*
X283080Y278872D01*
X283210Y279528D01*
X283080Y280184D01*
X282708Y280740D01*
X282152Y281111D01*
X281496Y281242D01*
D02*
G37*
G36*
X55118Y276222D02*
X54462Y276091D01*
X53906Y275720D01*
X53535Y275164D01*
X53404Y274508D01*
X53535Y273852D01*
X53906Y273296D01*
X54462Y272924D01*
X55118Y272794D01*
X55774Y272924D01*
X56330Y273296D01*
X56702Y273852D01*
X56832Y274508D01*
X56702Y275164D01*
X56330Y275720D01*
X55774Y276091D01*
X55118Y276222D01*
D02*
G37*
G36*
X216748Y279224D02*
X210811D01*
X209932Y279109D01*
X209112Y278769D01*
X208409Y278229D01*
X207869Y277526D01*
X207529Y276706D01*
X207414Y275827D01*
X207529Y274947D01*
X207869Y274128D01*
X208409Y273424D01*
X209112Y272884D01*
X209932Y272545D01*
X210811Y272429D01*
X216748D01*
X217627Y272545D01*
X218447Y272884D01*
X219150Y273424D01*
X219690Y274128D01*
X220030Y274947D01*
X220146Y275827D01*
X220030Y276706D01*
X219690Y277526D01*
X219150Y278229D01*
X218447Y278769D01*
X217627Y279109D01*
X216748Y279224D01*
D02*
G37*
G36*
X293307Y275336D02*
X292651Y275206D01*
X292095Y274834D01*
X291723Y274278D01*
X291593Y273622D01*
X291723Y272966D01*
X292095Y272410D01*
X292651Y272039D01*
X293307Y271908D01*
X293963Y272039D01*
X294519Y272410D01*
X294891Y272966D01*
X295021Y273622D01*
X294891Y274278D01*
X294519Y274834D01*
X293963Y275206D01*
X293307Y275336D01*
D02*
G37*
G36*
X287402Y275336D02*
X286746Y275206D01*
X286190Y274834D01*
X285818Y274278D01*
X285687Y273622D01*
X285818Y272966D01*
X286190Y272410D01*
X286746Y272039D01*
X287402Y271908D01*
X288057Y272039D01*
X288614Y272410D01*
X288985Y272966D01*
X289116Y273622D01*
X288985Y274278D01*
X288614Y274834D01*
X288057Y275206D01*
X287402Y275336D01*
D02*
G37*
G36*
X281496Y275336D02*
X280840Y275206D01*
X280284Y274834D01*
X279912Y274278D01*
X279782Y273622D01*
X279912Y272966D01*
X280284Y272410D01*
X280840Y272039D01*
X281496Y271908D01*
X282152Y272039D01*
X282708Y272410D01*
X283080Y272966D01*
X283210Y273622D01*
X283080Y274278D01*
X282708Y274834D01*
X282152Y275206D01*
X281496Y275336D01*
D02*
G37*
G36*
X195276Y270316D02*
X194620Y270186D01*
X194064Y269814D01*
X193692Y269258D01*
X193562Y268602D01*
X193692Y267946D01*
X194064Y267390D01*
X194620Y267019D01*
X195276Y266888D01*
X195931Y267019D01*
X196488Y267390D01*
X196859Y267946D01*
X196990Y268602D01*
X196859Y269258D01*
X196488Y269814D01*
X195931Y270186D01*
X195276Y270316D01*
D02*
G37*
G36*
X35397Y272481D02*
Y266342D01*
X38594D01*
Y269110D01*
X38479Y269990D01*
X38139Y270809D01*
X37599Y271513D01*
X36896Y272053D01*
X36076Y272392D01*
X35397Y272481D01*
D02*
G37*
G36*
X34997D02*
X34317Y272392D01*
X33498Y272053D01*
X32794Y271513D01*
X32254Y270809D01*
X31915Y269990D01*
X31799Y269110D01*
Y266342D01*
X34997D01*
Y272481D01*
D02*
G37*
G36*
X216748Y269224D02*
X213980D01*
Y266027D01*
X220119D01*
X220030Y266706D01*
X219690Y267526D01*
X219150Y268229D01*
X218447Y268769D01*
X217627Y269109D01*
X216748Y269224D01*
D02*
G37*
G36*
X213580D02*
X210811D01*
X209932Y269109D01*
X209112Y268769D01*
X208409Y268229D01*
X207869Y267526D01*
X207529Y266706D01*
X207440Y266027D01*
X213580D01*
Y269224D01*
D02*
G37*
G36*
X293307Y269431D02*
X292651Y269300D01*
X292095Y268929D01*
X291723Y268373D01*
X291593Y267717D01*
X291723Y267061D01*
X292095Y266505D01*
X292651Y266133D01*
X293307Y266002D01*
X293963Y266133D01*
X294519Y266505D01*
X294891Y267061D01*
X295021Y267717D01*
X294891Y268373D01*
X294519Y268929D01*
X293963Y269300D01*
X293307Y269431D01*
D02*
G37*
G36*
X287402Y269431D02*
X286746Y269300D01*
X286190Y268929D01*
X285818Y268373D01*
X285687Y267717D01*
X285818Y267061D01*
X286190Y266505D01*
X286746Y266133D01*
X287402Y266002D01*
X288057Y266133D01*
X288614Y266505D01*
X288985Y267061D01*
X289116Y267717D01*
X288985Y268373D01*
X288614Y268929D01*
X288057Y269300D01*
X287402Y269431D01*
D02*
G37*
G36*
X281496D02*
X280840Y269300D01*
X280284Y268929D01*
X279912Y268373D01*
X279782Y267717D01*
X279912Y267061D01*
X280284Y266505D01*
X280840Y266133D01*
X281496Y266002D01*
X282152Y266133D01*
X282708Y266505D01*
X283080Y267061D01*
X283210Y267717D01*
X283080Y268373D01*
X282708Y268929D01*
X282152Y269300D01*
X281496Y269431D01*
D02*
G37*
G36*
X220119Y265627D02*
X213980D01*
Y262429D01*
X216748D01*
X217627Y262545D01*
X218447Y262884D01*
X219150Y263424D01*
X219690Y264128D01*
X220030Y264947D01*
X220119Y265627D01*
D02*
G37*
G36*
X213580D02*
X207440D01*
X207529Y264947D01*
X207869Y264128D01*
X208409Y263424D01*
X209112Y262884D01*
X209932Y262545D01*
X210811Y262429D01*
X213580D01*
Y265627D01*
D02*
G37*
G36*
X293307Y263525D02*
X292651Y263395D01*
X292095Y263023D01*
X291723Y262467D01*
X291593Y261811D01*
X291723Y261155D01*
X292095Y260599D01*
X292651Y260227D01*
X293307Y260097D01*
X293963Y260227D01*
X294519Y260599D01*
X294891Y261155D01*
X295021Y261811D01*
X294891Y262467D01*
X294519Y263023D01*
X293963Y263395D01*
X293307Y263525D01*
D02*
G37*
G36*
X287402Y263525D02*
X286746Y263395D01*
X286190Y263023D01*
X285818Y262467D01*
X285687Y261811D01*
X285818Y261155D01*
X286190Y260599D01*
X286746Y260227D01*
X287402Y260097D01*
X288057Y260227D01*
X288614Y260599D01*
X288985Y261155D01*
X289116Y261811D01*
X288985Y262467D01*
X288614Y263023D01*
X288057Y263395D01*
X287402Y263525D01*
D02*
G37*
G36*
X281496D02*
X280840Y263395D01*
X280284Y263023D01*
X279912Y262467D01*
X279782Y261811D01*
X279912Y261155D01*
X280284Y260599D01*
X280840Y260227D01*
X281496Y260097D01*
X282152Y260227D01*
X282708Y260599D01*
X283080Y261155D01*
X283210Y261811D01*
X283080Y262467D01*
X282708Y263023D01*
X282152Y263395D01*
X281496Y263525D01*
D02*
G37*
G36*
X18565Y272479D02*
X11828D01*
Y259805D01*
X18565D01*
Y272479D01*
D02*
G37*
G36*
X38594Y265942D02*
X35397D01*
Y259802D01*
X36076Y259891D01*
X36896Y260231D01*
X37599Y260771D01*
X38139Y261474D01*
X38479Y262294D01*
X38594Y263173D01*
Y265942D01*
D02*
G37*
G36*
X34997D02*
X31799D01*
Y263173D01*
X31915Y262294D01*
X32254Y261474D01*
X32794Y260771D01*
X33498Y260231D01*
X34317Y259891D01*
X34997Y259802D01*
Y265942D01*
D02*
G37*
G36*
X45197Y272508D02*
X44317Y272392D01*
X43498Y272053D01*
X42794Y271513D01*
X42254Y270809D01*
X41915Y269990D01*
X41799Y269110D01*
Y263173D01*
X41915Y262294D01*
X42254Y261474D01*
X42794Y260771D01*
X43498Y260231D01*
X44317Y259891D01*
X45197Y259776D01*
X46076Y259891D01*
X46896Y260231D01*
X47599Y260771D01*
X48139Y261474D01*
X48479Y262294D01*
X48594Y263173D01*
Y269110D01*
X48479Y269990D01*
X48139Y270809D01*
X47599Y271513D01*
X46896Y272053D01*
X46076Y272392D01*
X45197Y272508D01*
D02*
G37*
G36*
X25197D02*
X24317Y272392D01*
X23498Y272053D01*
X22794Y271513D01*
X22254Y270809D01*
X21915Y269990D01*
X21799Y269110D01*
Y263173D01*
X21915Y262294D01*
X22254Y261474D01*
X22794Y260771D01*
X23498Y260231D01*
X24317Y259891D01*
X25197Y259776D01*
X26076Y259891D01*
X26896Y260231D01*
X27599Y260771D01*
X28139Y261474D01*
X28479Y262294D01*
X28594Y263173D01*
Y269110D01*
X28479Y269990D01*
X28139Y270809D01*
X27599Y271513D01*
X26896Y272053D01*
X26076Y272392D01*
X25197Y272508D01*
D02*
G37*
G36*
X238189Y262738D02*
X237533Y262607D01*
X236977Y262236D01*
X236605Y261680D01*
X236475Y261024D01*
X236605Y260368D01*
X236977Y259812D01*
X237533Y259440D01*
X238189Y259310D01*
X238845Y259440D01*
X239401Y259812D01*
X239773Y260368D01*
X239903Y261024D01*
X239773Y261680D01*
X239401Y262236D01*
X238845Y262607D01*
X238189Y262738D01*
D02*
G37*
G36*
X156299Y262049D02*
X155643Y261918D01*
X155087Y261547D01*
X154716Y260991D01*
X154585Y260335D01*
X154716Y259679D01*
X155087Y259123D01*
X155643Y258751D01*
X156299Y258621D01*
X156955Y258751D01*
X157511Y259123D01*
X157883Y259679D01*
X158013Y260335D01*
X157883Y260991D01*
X157511Y261547D01*
X156955Y261918D01*
X156299Y262049D01*
D02*
G37*
G36*
X216748Y259224D02*
X210811D01*
X209932Y259109D01*
X209112Y258769D01*
X208409Y258229D01*
X207869Y257526D01*
X207529Y256706D01*
X207414Y255827D01*
X207529Y254947D01*
X207869Y254128D01*
X208409Y253424D01*
X209112Y252884D01*
X209932Y252545D01*
X210811Y252429D01*
X216748D01*
X217627Y252545D01*
X218447Y252884D01*
X219150Y253424D01*
X219690Y254128D01*
X220030Y254947D01*
X220146Y255827D01*
X220030Y256706D01*
X219690Y257526D01*
X219150Y258229D01*
X218447Y258769D01*
X217627Y259109D01*
X216748Y259224D01*
D02*
G37*
G36*
X84071Y255352D02*
X83415Y255221D01*
X82859Y254850D01*
X82487Y254294D01*
X82357Y253638D01*
X82487Y252982D01*
X82859Y252426D01*
X83415Y252054D01*
X84071Y251924D01*
X84727Y252054D01*
X85283Y252426D01*
X85654Y252982D01*
X85785Y253638D01*
X85654Y254294D01*
X85283Y254850D01*
X84727Y255221D01*
X84071Y255352D01*
D02*
G37*
G36*
X35397Y257127D02*
Y250987D01*
X38594D01*
Y253756D01*
X38479Y254635D01*
X38139Y255455D01*
X37599Y256158D01*
X36896Y256698D01*
X36076Y257038D01*
X35397Y257127D01*
D02*
G37*
G36*
X34997D02*
X34317Y257038D01*
X33498Y256698D01*
X32794Y256158D01*
X32254Y255455D01*
X31915Y254635D01*
X31799Y253756D01*
Y250987D01*
X34997D01*
Y257127D01*
D02*
G37*
G36*
X55118Y249844D02*
X54462Y249713D01*
X53906Y249342D01*
X53535Y248786D01*
X53404Y248130D01*
X53535Y247474D01*
X53906Y246918D01*
X54462Y246546D01*
X55118Y246416D01*
X55774Y246546D01*
X56330Y246918D01*
X56702Y247474D01*
X56832Y248130D01*
X56702Y248786D01*
X56330Y249342D01*
X55774Y249713D01*
X55118Y249844D01*
D02*
G37*
G36*
X18565Y257124D02*
X11828D01*
Y244450D01*
X18565D01*
Y257124D01*
D02*
G37*
G36*
X38594Y250587D02*
X35397D01*
Y244448D01*
X36076Y244537D01*
X36896Y244877D01*
X37599Y245416D01*
X38139Y246120D01*
X38479Y246939D01*
X38594Y247819D01*
Y250587D01*
D02*
G37*
G36*
X34997D02*
X31799D01*
Y247819D01*
X31915Y246939D01*
X32254Y246120D01*
X32794Y245416D01*
X33498Y244877D01*
X34317Y244537D01*
X34997Y244448D01*
Y250587D01*
D02*
G37*
G36*
X45197Y257154D02*
X44317Y257038D01*
X43498Y256698D01*
X42794Y256158D01*
X42254Y255455D01*
X41915Y254635D01*
X41799Y253756D01*
Y247819D01*
X41915Y246939D01*
X42254Y246120D01*
X42794Y245416D01*
X43498Y244877D01*
X44317Y244537D01*
X45197Y244421D01*
X46076Y244537D01*
X46896Y244877D01*
X47599Y245416D01*
X48139Y246120D01*
X48479Y246939D01*
X48594Y247819D01*
Y253756D01*
X48479Y254635D01*
X48139Y255455D01*
X47599Y256158D01*
X46896Y256698D01*
X46076Y257038D01*
X45197Y257154D01*
D02*
G37*
G36*
X25197D02*
X24317Y257038D01*
X23498Y256698D01*
X22794Y256158D01*
X22254Y255455D01*
X21915Y254635D01*
X21799Y253756D01*
Y247819D01*
X21915Y246939D01*
X22254Y246120D01*
X22794Y245416D01*
X23498Y244877D01*
X24317Y244537D01*
X25197Y244421D01*
X26076Y244537D01*
X26896Y244877D01*
X27599Y245416D01*
X28139Y246120D01*
X28479Y246939D01*
X28594Y247819D01*
Y253756D01*
X28479Y254635D01*
X28139Y255455D01*
X27599Y256158D01*
X26896Y256698D01*
X26076Y257038D01*
X25197Y257154D01*
D02*
G37*
G36*
X216748Y249224D02*
X210811D01*
X209932Y249109D01*
X209112Y248769D01*
X208409Y248229D01*
X207869Y247526D01*
X207529Y246706D01*
X207414Y245827D01*
X207529Y244947D01*
X207869Y244128D01*
X208409Y243424D01*
X209112Y242884D01*
X209932Y242545D01*
X210811Y242429D01*
X216748D01*
X217627Y242545D01*
X218447Y242884D01*
X219150Y243424D01*
X219690Y244128D01*
X220030Y244947D01*
X220146Y245827D01*
X220030Y246706D01*
X219690Y247526D01*
X219150Y248229D01*
X218447Y248769D01*
X217627Y249109D01*
X216748Y249224D01*
D02*
G37*
G36*
X94134Y245277D02*
X93478Y245146D01*
X92922Y244775D01*
X92550Y244219D01*
X92420Y243563D01*
X92550Y242907D01*
X92922Y242351D01*
X93478Y241979D01*
X94134Y241849D01*
X94790Y241979D01*
X95346Y242351D01*
X95717Y242907D01*
X95848Y243563D01*
X95717Y244219D01*
X95346Y244775D01*
X94790Y245146D01*
X94134Y245277D01*
D02*
G37*
G36*
X76575Y243545D02*
X75919Y243414D01*
X75363Y243043D01*
X74991Y242487D01*
X74861Y241831D01*
X74991Y241175D01*
X75363Y240619D01*
X75919Y240247D01*
X76575Y240117D01*
X77231Y240247D01*
X77787Y240619D01*
X78158Y241175D01*
X78289Y241831D01*
X78158Y242487D01*
X77787Y243043D01*
X77231Y243414D01*
X76575Y243545D01*
D02*
G37*
G36*
X65354Y243053D02*
X64698Y242922D01*
X64142Y242551D01*
X63771Y241995D01*
X63640Y241339D01*
X63771Y240683D01*
X64142Y240127D01*
X64698Y239755D01*
X65354Y239625D01*
X66010Y239755D01*
X66566Y240127D01*
X66938Y240683D01*
X67068Y241339D01*
X66938Y241995D01*
X66566Y242551D01*
X66010Y242922D01*
X65354Y243053D01*
D02*
G37*
G36*
X116142Y242265D02*
X115486Y242135D01*
X114930Y241763D01*
X114558Y241207D01*
X114428Y240551D01*
X114558Y239895D01*
X114930Y239339D01*
X115486Y238968D01*
X116142Y238837D01*
X116798Y238968D01*
X117354Y239339D01*
X117725Y239895D01*
X117856Y240551D01*
X117725Y241207D01*
X117354Y241763D01*
X116798Y242135D01*
X116142Y242265D01*
D02*
G37*
G36*
X165354Y241970D02*
X164698Y241840D01*
X164142Y241468D01*
X163771Y240912D01*
X163640Y240256D01*
X163771Y239600D01*
X164142Y239044D01*
X164698Y238672D01*
X165354Y238542D01*
X166010Y238672D01*
X166566Y239044D01*
X166938Y239600D01*
X167068Y240256D01*
X166938Y240912D01*
X166566Y241468D01*
X166010Y241840D01*
X165354Y241970D01*
D02*
G37*
G36*
X101575Y241084D02*
X100919Y240954D01*
X100363Y240582D01*
X99991Y240026D01*
X99861Y239370D01*
X99991Y238714D01*
X100363Y238158D01*
X100919Y237787D01*
X101575Y237656D01*
X102231Y237787D01*
X102787Y238158D01*
X103158Y238714D01*
X103289Y239370D01*
X103158Y240026D01*
X102787Y240582D01*
X102231Y240954D01*
X101575Y241084D01*
D02*
G37*
G36*
X92028Y238623D02*
X91372Y238493D01*
X90816Y238122D01*
X90638Y237856D01*
X90236Y237653D01*
X90011Y237748D01*
X89632Y238001D01*
X88976Y238131D01*
X88320Y238001D01*
X87764Y237629D01*
X87617Y237409D01*
X87427Y237393D01*
X87052Y237463D01*
X86743Y237925D01*
X86187Y238296D01*
X85532Y238427D01*
X84876Y238296D01*
X84320Y237925D01*
X83948Y237368D01*
X83817Y236713D01*
X83948Y236057D01*
X84320Y235501D01*
X84876Y235129D01*
X85532Y234999D01*
X86187Y235129D01*
X86743Y235501D01*
X86891Y235721D01*
X87081Y235736D01*
X87456Y235667D01*
X87764Y235205D01*
X88320Y234834D01*
X88976Y234703D01*
X89632Y234834D01*
X90188Y235205D01*
X90366Y235471D01*
X90768Y235674D01*
X90993Y235579D01*
X91372Y235326D01*
X92028Y235195D01*
X92684Y235326D01*
X93240Y235697D01*
X93611Y236253D01*
X93742Y236910D01*
X93611Y237565D01*
X93240Y238122D01*
X92684Y238493D01*
X92028Y238623D01*
D02*
G37*
G36*
X35676Y240790D02*
X35020Y240660D01*
X34464Y240288D01*
X34093Y239732D01*
X33962Y239076D01*
X34093Y238420D01*
X34464Y237864D01*
X35020Y237493D01*
X35676Y237362D01*
X36332Y237493D01*
X36888Y237864D01*
X37260Y238420D01*
X37390Y239076D01*
X37260Y239732D01*
X36888Y240288D01*
X36332Y240660D01*
X35676Y240790D01*
D02*
G37*
G36*
X133858Y240297D02*
X133202Y240166D01*
X132646Y239795D01*
X132275Y239239D01*
X132144Y238583D01*
X132275Y237927D01*
X132646Y237371D01*
X133202Y236999D01*
X133858Y236869D01*
X134137Y236924D01*
X134562Y236499D01*
X134506Y236221D01*
X134637Y235564D01*
X135009Y235009D01*
X135564Y234637D01*
X136221Y234506D01*
X136876Y234637D01*
X137433Y235009D01*
X137804Y235564D01*
X137935Y236221D01*
X137804Y236876D01*
X137433Y237433D01*
X136876Y237804D01*
X136221Y237934D01*
X135942Y237879D01*
X135517Y238304D01*
X135572Y238583D01*
X135442Y239239D01*
X135070Y239795D01*
X134514Y240166D01*
X133858Y240297D01*
D02*
G37*
G36*
X216766Y239243D02*
X210829D01*
X209950Y239127D01*
X209131Y238788D01*
X208427Y238248D01*
X207887Y237544D01*
X207547Y236725D01*
X207432Y235846D01*
X207547Y234966D01*
X207887Y234147D01*
X208427Y233443D01*
X209131Y232903D01*
X209950Y232564D01*
X210829Y232448D01*
X216766D01*
X217646Y232564D01*
X218465Y232903D01*
X219169Y233443D01*
X219709Y234147D01*
X220048Y234966D01*
X220164Y235846D01*
X220048Y236725D01*
X219709Y237544D01*
X219169Y238248D01*
X218465Y238788D01*
X217646Y239127D01*
X216766Y239243D01*
D02*
G37*
G36*
X14961Y231537D02*
X14305Y231406D01*
X13749Y231035D01*
X13377Y230479D01*
X13247Y229823D01*
X13377Y229167D01*
X13749Y228611D01*
X14305Y228239D01*
X14961Y228109D01*
X15617Y228239D01*
X16173Y228611D01*
X16544Y229167D01*
X16675Y229823D01*
X16544Y230479D01*
X16173Y231035D01*
X15617Y231406D01*
X14961Y231537D01*
D02*
G37*
G36*
X31791Y229372D02*
X31135Y229241D01*
X30579Y228870D01*
X30208Y228313D01*
X30077Y227658D01*
X30208Y227002D01*
X30579Y226446D01*
X31135Y226074D01*
X31791Y225943D01*
X32447Y226074D01*
X33003Y226446D01*
X33375Y227002D01*
X33505Y227658D01*
X33375Y228313D01*
X33003Y228870D01*
X32447Y229241D01*
X31791Y229372D01*
D02*
G37*
G36*
X146752Y229076D02*
X146096Y228946D01*
X145540Y228574D01*
X145168Y228018D01*
X145038Y227362D01*
X145168Y226706D01*
X145540Y226150D01*
X146096Y225779D01*
X146752Y225648D01*
X147408Y225779D01*
X147964Y226150D01*
X148336Y226706D01*
X148466Y227362D01*
X148336Y228018D01*
X147964Y228574D01*
X147408Y228946D01*
X146752Y229076D01*
D02*
G37*
G36*
X77658Y227994D02*
X77002Y227863D01*
X76446Y227491D01*
X76074Y226936D01*
X75943Y226279D01*
X76074Y225624D01*
X76446Y225067D01*
X77002Y224696D01*
X77658Y224566D01*
X78313Y224696D01*
X78869Y225067D01*
X79241Y225624D01*
X79372Y226279D01*
X79241Y226936D01*
X78869Y227491D01*
X78313Y227863D01*
X77658Y227994D01*
D02*
G37*
G36*
X216766Y229228D02*
X210829D01*
X209950Y229113D01*
X209131Y228773D01*
X208427Y228233D01*
X207887Y227530D01*
X207547Y226710D01*
X207432Y225831D01*
X207547Y224952D01*
X207887Y224132D01*
X208427Y223429D01*
X209131Y222888D01*
X209950Y222549D01*
X210829Y222433D01*
X216766D01*
X217646Y222549D01*
X218465Y222888D01*
X219169Y223429D01*
X219709Y224132D01*
X220048Y224952D01*
X220164Y225831D01*
X220048Y226710D01*
X219709Y227530D01*
X219169Y228233D01*
X218465Y228773D01*
X217646Y229113D01*
X216766Y229228D01*
D02*
G37*
G36*
X163189Y222679D02*
X162533Y222548D01*
X161977Y222177D01*
X161605Y221620D01*
X161475Y220965D01*
X161605Y220309D01*
X161977Y219753D01*
X162533Y219381D01*
X163189Y219250D01*
X163845Y219381D01*
X164401Y219753D01*
X164772Y220309D01*
X164903Y220965D01*
X164772Y221620D01*
X164401Y222177D01*
X163845Y222548D01*
X163189Y222679D01*
D02*
G37*
G36*
X178740Y218053D02*
X178084Y217922D01*
X177528Y217551D01*
X177157Y216995D01*
X177026Y216339D01*
X177157Y215683D01*
X177528Y215127D01*
X178084Y214755D01*
X178740Y214625D01*
X179396Y214755D01*
X179952Y215127D01*
X180324Y215683D01*
X180454Y216339D01*
X180324Y216995D01*
X179952Y217551D01*
X179396Y217922D01*
X178740Y218053D01*
D02*
G37*
G36*
X245079Y216281D02*
X244423Y216150D01*
X243867Y215779D01*
X243495Y215223D01*
X243365Y214567D01*
X243495Y213911D01*
X243867Y213355D01*
X244423Y212983D01*
X245079Y212853D01*
X245735Y212983D01*
X246291Y213355D01*
X246662Y213911D01*
X246793Y214567D01*
X246662Y215223D01*
X246291Y215779D01*
X245735Y216150D01*
X245079Y216281D01*
D02*
G37*
G36*
X240158D02*
X239502Y216150D01*
X238946Y215779D01*
X238574Y215223D01*
X238443Y214567D01*
X238574Y213911D01*
X238946Y213355D01*
X239502Y212983D01*
X240158Y212853D01*
X240813Y212983D01*
X241370Y213355D01*
X241741Y213911D01*
X241872Y214567D01*
X241741Y215223D01*
X241370Y215779D01*
X240813Y216150D01*
X240158Y216281D01*
D02*
G37*
G36*
X235236D02*
X234580Y216150D01*
X234024Y215779D01*
X233653Y215223D01*
X233522Y214567D01*
X233653Y213911D01*
X234024Y213355D01*
X234580Y212983D01*
X235236Y212853D01*
X235892Y212983D01*
X236448Y213355D01*
X236820Y213911D01*
X236950Y214567D01*
X236820Y215223D01*
X236448Y215779D01*
X235892Y216150D01*
X235236Y216281D01*
D02*
G37*
G36*
X230315D02*
X229659Y216150D01*
X229103Y215779D01*
X228731Y215223D01*
X228601Y214567D01*
X228731Y213911D01*
X229103Y213355D01*
X229659Y212983D01*
X230315Y212853D01*
X230971Y212983D01*
X231527Y213355D01*
X231898Y213911D01*
X232029Y214567D01*
X231898Y215223D01*
X231527Y215779D01*
X230971Y216150D01*
X230315Y216281D01*
D02*
G37*
G36*
X70990Y219726D02*
X70334Y219595D01*
X69778Y219224D01*
X69406Y218668D01*
X69276Y218012D01*
X69406Y217356D01*
X69778Y216800D01*
X70227Y216500D01*
X70295Y216102D01*
X70274Y215930D01*
X70048Y215779D01*
X69676Y215223D01*
X69546Y214567D01*
X69676Y213911D01*
X70048Y213355D01*
X70604Y212983D01*
X71260Y212853D01*
X71916Y212983D01*
X72472Y213355D01*
X72843Y213911D01*
X72974Y214567D01*
X72843Y215223D01*
X72472Y215779D01*
X72023Y216079D01*
X71955Y216477D01*
X71975Y216649D01*
X72202Y216800D01*
X72573Y217356D01*
X72704Y218012D01*
X72573Y218668D01*
X72202Y219224D01*
X71646Y219595D01*
X70990Y219726D01*
D02*
G37*
G36*
X216766Y219242D02*
X210829D01*
X209950Y219127D01*
X209131Y218787D01*
X208427Y218247D01*
X207887Y217544D01*
X207547Y216724D01*
X207432Y215845D01*
X207547Y214965D01*
X207887Y214146D01*
X208427Y213442D01*
X209131Y212902D01*
X209950Y212563D01*
X210829Y212447D01*
X216766D01*
X217646Y212563D01*
X218465Y212902D01*
X219169Y213442D01*
X219709Y214146D01*
X220048Y214965D01*
X220164Y215845D01*
X220048Y216724D01*
X219709Y217544D01*
X219169Y218247D01*
X218465Y218787D01*
X217646Y219127D01*
X216766Y219242D01*
D02*
G37*
G36*
X245079Y211360D02*
X244423Y211229D01*
X243867Y210858D01*
X243495Y210302D01*
X243365Y209646D01*
X243495Y208990D01*
X243867Y208434D01*
X244423Y208062D01*
X245079Y207932D01*
X245735Y208062D01*
X246291Y208434D01*
X246662Y208990D01*
X246793Y209646D01*
X246662Y210302D01*
X246291Y210858D01*
X245735Y211229D01*
X245079Y211360D01*
D02*
G37*
G36*
X240158D02*
X239502Y211229D01*
X238946Y210858D01*
X238574Y210302D01*
X238443Y209646D01*
X238574Y208990D01*
X238946Y208434D01*
X239502Y208062D01*
X240158Y207932D01*
X240813Y208062D01*
X241370Y208434D01*
X241741Y208990D01*
X241872Y209646D01*
X241741Y210302D01*
X241370Y210858D01*
X240813Y211229D01*
X240158Y211360D01*
D02*
G37*
G36*
X235236D02*
X234580Y211229D01*
X234024Y210858D01*
X233653Y210302D01*
X233522Y209646D01*
X233653Y208990D01*
X234024Y208434D01*
X234580Y208062D01*
X235236Y207932D01*
X235892Y208062D01*
X236448Y208434D01*
X236820Y208990D01*
X236950Y209646D01*
X236820Y210302D01*
X236448Y210858D01*
X235892Y211229D01*
X235236Y211360D01*
D02*
G37*
G36*
X230315D02*
X229659Y211229D01*
X229103Y210858D01*
X228731Y210302D01*
X228601Y209646D01*
X228731Y208990D01*
X229103Y208434D01*
X229659Y208062D01*
X230315Y207932D01*
X230971Y208062D01*
X231527Y208434D01*
X231898Y208990D01*
X232029Y209646D01*
X231898Y210302D01*
X231527Y210858D01*
X230971Y211229D01*
X230315Y211360D01*
D02*
G37*
G36*
X55118D02*
X54462Y211229D01*
X53906Y210858D01*
X53535Y210302D01*
X53404Y209646D01*
X53535Y208990D01*
X53906Y208434D01*
X54462Y208062D01*
X55118Y207932D01*
X55774Y208062D01*
X56330Y208434D01*
X56702Y208990D01*
X56832Y209646D01*
X56702Y210302D01*
X56330Y210858D01*
X55774Y211229D01*
X55118Y211360D01*
D02*
G37*
G36*
X245079Y206438D02*
X244423Y206308D01*
X243867Y205936D01*
X243495Y205380D01*
X243365Y204724D01*
X243495Y204068D01*
X243867Y203512D01*
X244423Y203141D01*
X245079Y203010D01*
X245735Y203141D01*
X246291Y203512D01*
X246662Y204068D01*
X246793Y204724D01*
X246662Y205380D01*
X246291Y205936D01*
X245735Y206308D01*
X245079Y206438D01*
D02*
G37*
G36*
X240158D02*
X239502Y206308D01*
X238946Y205936D01*
X238574Y205380D01*
X238443Y204724D01*
X238574Y204068D01*
X238946Y203512D01*
X239502Y203141D01*
X240158Y203010D01*
X240813Y203141D01*
X241370Y203512D01*
X241741Y204068D01*
X241872Y204724D01*
X241741Y205380D01*
X241370Y205936D01*
X240813Y206308D01*
X240158Y206438D01*
D02*
G37*
G36*
X235236D02*
X234580Y206308D01*
X234024Y205936D01*
X233653Y205380D01*
X233522Y204724D01*
X233653Y204068D01*
X234024Y203512D01*
X234580Y203141D01*
X235236Y203010D01*
X235892Y203141D01*
X236448Y203512D01*
X236820Y204068D01*
X236950Y204724D01*
X236820Y205380D01*
X236448Y205936D01*
X235892Y206308D01*
X235236Y206438D01*
D02*
G37*
G36*
X230315D02*
X229659Y206308D01*
X229103Y205936D01*
X228731Y205380D01*
X228601Y204724D01*
X228731Y204068D01*
X229103Y203512D01*
X229659Y203141D01*
X230315Y203010D01*
X230971Y203141D01*
X231527Y203512D01*
X231898Y204068D01*
X232029Y204724D01*
X231898Y205380D01*
X231527Y205936D01*
X230971Y206308D01*
X230315Y206438D01*
D02*
G37*
G36*
X62608Y205454D02*
X61953Y205324D01*
X61396Y204952D01*
X61025Y204396D01*
X60895Y203740D01*
X61025Y203084D01*
X61396Y202528D01*
X61953Y202157D01*
X62608Y202026D01*
X63264Y202157D01*
X63820Y202528D01*
X64192Y203084D01*
X64323Y203740D01*
X64192Y204396D01*
X63820Y204952D01*
X63264Y205324D01*
X62608Y205454D01*
D02*
G37*
G36*
X245079Y201517D02*
X244423Y201387D01*
X243867Y201015D01*
X243495Y200459D01*
X243365Y199803D01*
X243495Y199147D01*
X243867Y198591D01*
X244423Y198220D01*
X245079Y198089D01*
X245735Y198220D01*
X246291Y198591D01*
X246662Y199147D01*
X246793Y199803D01*
X246662Y200459D01*
X246291Y201015D01*
X245735Y201387D01*
X245079Y201517D01*
D02*
G37*
G36*
X240158D02*
X239502Y201387D01*
X238946Y201015D01*
X238574Y200459D01*
X238443Y199803D01*
X238574Y199147D01*
X238946Y198591D01*
X239502Y198220D01*
X240158Y198089D01*
X240813Y198220D01*
X241370Y198591D01*
X241741Y199147D01*
X241872Y199803D01*
X241741Y200459D01*
X241370Y201015D01*
X240813Y201387D01*
X240158Y201517D01*
D02*
G37*
G36*
X235236D02*
X234580Y201387D01*
X234024Y201015D01*
X233653Y200459D01*
X233522Y199803D01*
X233653Y199147D01*
X234024Y198591D01*
X234580Y198220D01*
X235236Y198089D01*
X235892Y198220D01*
X236448Y198591D01*
X236820Y199147D01*
X236950Y199803D01*
X236820Y200459D01*
X236448Y201015D01*
X235892Y201387D01*
X235236Y201517D01*
D02*
G37*
G36*
X230315D02*
X229659Y201387D01*
X229103Y201015D01*
X228731Y200459D01*
X228601Y199803D01*
X228731Y199147D01*
X229103Y198591D01*
X229659Y198220D01*
X230315Y198089D01*
X230971Y198220D01*
X231527Y198591D01*
X231898Y199147D01*
X232029Y199803D01*
X231898Y200459D01*
X231527Y201015D01*
X230971Y201387D01*
X230315Y201517D01*
D02*
G37*
G36*
X41339Y199746D02*
X40683Y199615D01*
X40127Y199243D01*
X39755Y198687D01*
X39625Y198031D01*
X39755Y197376D01*
X40127Y196819D01*
X40683Y196448D01*
X41339Y196318D01*
X41995Y196448D01*
X42551Y196819D01*
X42922Y197376D01*
X43053Y198031D01*
X42922Y198687D01*
X42551Y199243D01*
X41995Y199615D01*
X41339Y199746D01*
D02*
G37*
G36*
X182480Y198761D02*
X181824Y198631D01*
X181268Y198259D01*
X180897Y197703D01*
X180766Y197047D01*
X180897Y196391D01*
X181268Y195835D01*
X181824Y195464D01*
X182480Y195333D01*
X183136Y195464D01*
X183692Y195835D01*
X184064Y196391D01*
X184194Y197047D01*
X184064Y197703D01*
X183692Y198259D01*
X183136Y198631D01*
X182480Y198761D01*
D02*
G37*
G36*
X245079Y196596D02*
X244423Y196466D01*
X243867Y196094D01*
X243495Y195538D01*
X243365Y194882D01*
X243495Y194226D01*
X243867Y193670D01*
X244423Y193298D01*
X245079Y193168D01*
X245735Y193298D01*
X246291Y193670D01*
X246662Y194226D01*
X246793Y194882D01*
X246662Y195538D01*
X246291Y196094D01*
X245735Y196466D01*
X245079Y196596D01*
D02*
G37*
G36*
X240158D02*
X239502Y196466D01*
X238946Y196094D01*
X238574Y195538D01*
X238443Y194882D01*
X238574Y194226D01*
X238946Y193670D01*
X239502Y193298D01*
X240158Y193168D01*
X240813Y193298D01*
X241370Y193670D01*
X241741Y194226D01*
X241872Y194882D01*
X241741Y195538D01*
X241370Y196094D01*
X240813Y196466D01*
X240158Y196596D01*
D02*
G37*
G36*
X235236D02*
X234580Y196466D01*
X234024Y196094D01*
X233653Y195538D01*
X233522Y194882D01*
X233653Y194226D01*
X234024Y193670D01*
X234580Y193298D01*
X235236Y193168D01*
X235892Y193298D01*
X236448Y193670D01*
X236820Y194226D01*
X236950Y194882D01*
X236820Y195538D01*
X236448Y196094D01*
X235892Y196466D01*
X235236Y196596D01*
D02*
G37*
G36*
X230315D02*
X229659Y196466D01*
X229103Y196094D01*
X228731Y195538D01*
X228601Y194882D01*
X228731Y194226D01*
X229103Y193670D01*
X229659Y193298D01*
X230315Y193168D01*
X230971Y193298D01*
X231527Y193670D01*
X231898Y194226D01*
X232029Y194882D01*
X231898Y195538D01*
X231527Y196094D01*
X230971Y196466D01*
X230315Y196596D01*
D02*
G37*
G36*
X59153Y194627D02*
X58498Y194497D01*
X57942Y194125D01*
X57570Y193569D01*
X57440Y192913D01*
X57570Y192257D01*
X57942Y191701D01*
X58498Y191330D01*
X59153Y191199D01*
X59809Y191330D01*
X60365Y191701D01*
X60737Y192257D01*
X60868Y192913D01*
X60737Y193569D01*
X60365Y194125D01*
X59809Y194497D01*
X59153Y194627D01*
D02*
G37*
G36*
X48819Y192659D02*
X48163Y192528D01*
X47607Y192157D01*
X47235Y191601D01*
X47105Y190945D01*
X47235Y190289D01*
X47607Y189733D01*
X48163Y189361D01*
X48819Y189231D01*
X49475Y189361D01*
X50031Y189733D01*
X50402Y190289D01*
X50533Y190945D01*
X50402Y191601D01*
X50031Y192157D01*
X49475Y192528D01*
X48819Y192659D01*
D02*
G37*
G36*
X182185Y186556D02*
X181529Y186426D01*
X180973Y186055D01*
X180602Y185498D01*
X180471Y184843D01*
X180602Y184187D01*
X180973Y183631D01*
X181529Y183259D01*
X182185Y183128D01*
X182841Y183259D01*
X183397Y183631D01*
X183769Y184187D01*
X183899Y184843D01*
X183769Y185498D01*
X183397Y186055D01*
X182841Y186426D01*
X182185Y186556D01*
D02*
G37*
G36*
X226378Y180848D02*
X225722Y180717D01*
X225166Y180346D01*
X224794Y179790D01*
X224664Y179134D01*
X224794Y178478D01*
X225166Y177922D01*
X225722Y177550D01*
X226378Y177420D01*
X227034Y177550D01*
X227590Y177922D01*
X227961Y178478D01*
X228092Y179134D01*
X227961Y179790D01*
X227590Y180346D01*
X227034Y180717D01*
X226378Y180848D01*
D02*
G37*
G36*
X52658Y177895D02*
X52002Y177765D01*
X51446Y177393D01*
X51074Y176837D01*
X50943Y176181D01*
X51074Y175525D01*
X51446Y174969D01*
X52002Y174598D01*
X52658Y174467D01*
X53313Y174598D01*
X53869Y174969D01*
X54241Y175525D01*
X54372Y176181D01*
X54241Y176837D01*
X53869Y177393D01*
X53313Y177765D01*
X52658Y177895D01*
D02*
G37*
G36*
X74311Y174844D02*
X73655Y174714D01*
X73099Y174342D01*
X72728Y173786D01*
X72597Y173130D01*
X72728Y172474D01*
X73099Y171918D01*
X73655Y171546D01*
X74311Y171416D01*
X74967Y171546D01*
X75523Y171918D01*
X75895Y172474D01*
X76025Y173130D01*
X75895Y173786D01*
X75523Y174342D01*
X74967Y174714D01*
X74311Y174844D01*
D02*
G37*
G36*
X71752Y171694D02*
X71096Y171564D01*
X70540Y171192D01*
X70168Y170636D01*
X70038Y169980D01*
X70168Y169324D01*
X70540Y168768D01*
X71096Y168397D01*
X71752Y168266D01*
X72408Y168397D01*
X72964Y168768D01*
X73335Y169324D01*
X73466Y169980D01*
X73335Y170636D01*
X72964Y171192D01*
X72408Y171564D01*
X71752Y171694D01*
D02*
G37*
G36*
X52756Y170021D02*
X52100Y169891D01*
X51544Y169519D01*
X51172Y168963D01*
X51042Y168307D01*
X51172Y167651D01*
X51544Y167095D01*
X52100Y166724D01*
X52756Y166593D01*
X53412Y166724D01*
X53968Y167095D01*
X54339Y167651D01*
X54470Y168307D01*
X54339Y168963D01*
X53968Y169519D01*
X53412Y169891D01*
X52756Y170021D01*
D02*
G37*
G36*
X218504Y168249D02*
X217848Y168119D01*
X217292Y167747D01*
X216920Y167191D01*
X216790Y166535D01*
X216920Y165879D01*
X217292Y165323D01*
X217848Y164952D01*
X218504Y164821D01*
X219160Y164952D01*
X219716Y165323D01*
X220088Y165879D01*
X220218Y166535D01*
X220088Y167191D01*
X219716Y167747D01*
X219160Y168119D01*
X218504Y168249D01*
D02*
G37*
G36*
X71457Y161064D02*
X70801Y160934D01*
X70245Y160562D01*
X69873Y160006D01*
X69743Y159350D01*
X69873Y158695D01*
X70245Y158138D01*
X70801Y157767D01*
X71457Y157636D01*
X72113Y157767D01*
X72669Y158138D01*
X73040Y158695D01*
X73171Y159350D01*
X73040Y160006D01*
X72669Y160562D01*
X72113Y160934D01*
X71457Y161064D01*
D02*
G37*
G36*
X206299Y160375D02*
X205643Y160245D01*
X205087Y159873D01*
X204716Y159317D01*
X204585Y158661D01*
X204716Y158005D01*
X205087Y157449D01*
X205643Y157078D01*
X206299Y156947D01*
X206955Y157078D01*
X207511Y157449D01*
X207883Y158005D01*
X208013Y158661D01*
X207883Y159317D01*
X207511Y159873D01*
X206955Y160245D01*
X206299Y160375D01*
D02*
G37*
G36*
X182480Y157127D02*
X181824Y156997D01*
X181268Y156625D01*
X180897Y156069D01*
X180766Y155413D01*
X180897Y154757D01*
X181268Y154201D01*
X181824Y153830D01*
X182480Y153699D01*
X183136Y153830D01*
X183692Y154201D01*
X184064Y154757D01*
X184194Y155413D01*
X184064Y156069D01*
X183692Y156625D01*
X183136Y156997D01*
X182480Y157127D01*
D02*
G37*
G36*
X163779Y157915D02*
X163124Y157784D01*
X162567Y157413D01*
X162196Y156857D01*
X162065Y156201D01*
X162196Y155545D01*
X162567Y154989D01*
X162734Y154877D01*
Y154276D01*
X162567Y154165D01*
X162196Y153609D01*
X162065Y152953D01*
X162196Y152297D01*
X162567Y151741D01*
X162901Y151518D01*
Y150943D01*
X162567Y150720D01*
X162196Y150164D01*
X162065Y149508D01*
X162196Y148852D01*
X162567Y148296D01*
X163124Y147924D01*
X163779Y147794D01*
X164436Y147924D01*
X164991Y148296D01*
X165363Y148852D01*
X165494Y149508D01*
X165363Y150164D01*
X164991Y150720D01*
X164658Y150943D01*
Y151518D01*
X164991Y151741D01*
X165363Y152297D01*
X165494Y152953D01*
X165363Y153609D01*
X164991Y154165D01*
X164825Y154276D01*
Y154877D01*
X164991Y154989D01*
X165363Y155545D01*
X165494Y156201D01*
X165363Y156857D01*
X164991Y157413D01*
X164436Y157784D01*
X163779Y157915D01*
D02*
G37*
G36*
X13484Y148860D02*
X12828Y148729D01*
X12272Y148358D01*
X11901Y147802D01*
X11770Y147146D01*
X11901Y146490D01*
X12272Y145934D01*
X12828Y145562D01*
X13484Y145432D01*
X14140Y145562D01*
X14696Y145934D01*
X15068Y146490D01*
X15198Y147146D01*
X15068Y147802D01*
X14696Y148358D01*
X14140Y148729D01*
X13484Y148860D01*
D02*
G37*
G36*
X191535Y145710D02*
X190879Y145580D01*
X190323Y145208D01*
X189952Y144652D01*
X189821Y143996D01*
X189952Y143340D01*
X190323Y142784D01*
X190879Y142412D01*
X191535Y142282D01*
X192191Y142412D01*
X192747Y142784D01*
X193119Y143340D01*
X193249Y143996D01*
X193119Y144652D01*
X192747Y145208D01*
X192191Y145580D01*
X191535Y145710D01*
D02*
G37*
G36*
X182480Y143053D02*
X181824Y142922D01*
X181268Y142551D01*
X180897Y141995D01*
X180766Y141339D01*
X180897Y140683D01*
X181268Y140127D01*
X181824Y139755D01*
X182480Y139625D01*
X183136Y139755D01*
X183692Y140127D01*
X184064Y140683D01*
X184194Y141339D01*
X184064Y141995D01*
X183692Y142551D01*
X183136Y142922D01*
X182480Y143053D01*
D02*
G37*
G36*
X25984Y142265D02*
X25328Y142135D01*
X24772Y141763D01*
X24401Y141207D01*
X24270Y140551D01*
X24401Y139895D01*
X24772Y139339D01*
X25328Y138968D01*
X25984Y138837D01*
X26640Y138968D01*
X27196Y139339D01*
X27568Y139895D01*
X27698Y140551D01*
X27568Y141207D01*
X27196Y141763D01*
X26640Y142135D01*
X25984Y142265D01*
D02*
G37*
G36*
X206693Y139903D02*
X206037Y139772D01*
X205481Y139401D01*
X205109Y138845D01*
X204979Y138189D01*
X205109Y137533D01*
X205481Y136977D01*
X206037Y136605D01*
X206693Y136475D01*
X207349Y136605D01*
X207905Y136977D01*
X208277Y137533D01*
X208407Y138189D01*
X208277Y138845D01*
X207905Y139401D01*
X207349Y139772D01*
X206693Y139903D01*
D02*
G37*
G36*
X140650Y136753D02*
X139994Y136623D01*
X139438Y136251D01*
X139066Y135695D01*
X138936Y135039D01*
X139066Y134383D01*
X139438Y133827D01*
X139994Y133456D01*
X140650Y133325D01*
X141305Y133456D01*
X141862Y133827D01*
X142353Y133662D01*
X142489Y133459D01*
X143045Y133087D01*
X143701Y132957D01*
X144357Y133087D01*
X144913Y133459D01*
X145094Y133730D01*
X145695D01*
X145748Y133652D01*
X146304Y133280D01*
X146960Y133150D01*
X147616Y133280D01*
X148172Y133652D01*
X148544Y134208D01*
X148674Y134864D01*
X148544Y135520D01*
X148172Y136076D01*
X147616Y136447D01*
X146960Y136578D01*
X146304Y136447D01*
X145748Y136076D01*
X145567Y135804D01*
X144965D01*
X144913Y135883D01*
X144357Y136254D01*
X143701Y136385D01*
X143045Y136254D01*
X142489Y135883D01*
X141998Y136048D01*
X141862Y136251D01*
X141305Y136623D01*
X140650Y136753D01*
D02*
G37*
G36*
X189969Y133840D02*
X189313Y133709D01*
X188757Y133338D01*
X188385Y132782D01*
X188254Y132126D01*
X188385Y131470D01*
X188757Y130914D01*
X189313Y130542D01*
X189969Y130412D01*
X190624Y130542D01*
X191181Y130914D01*
X191552Y131470D01*
X191683Y132126D01*
X191552Y132782D01*
X191181Y133338D01*
X190624Y133709D01*
X189969Y133840D01*
D02*
G37*
G36*
X66142Y133308D02*
X65486Y133178D01*
X64930Y132807D01*
X64558Y132250D01*
X64428Y131595D01*
X64558Y130939D01*
X64930Y130383D01*
X65486Y130011D01*
X66142Y129880D01*
X66798Y130011D01*
X67354Y130383D01*
X67725Y130939D01*
X67856Y131595D01*
X67725Y132250D01*
X67354Y132807D01*
X66798Y133178D01*
X66142Y133308D01*
D02*
G37*
G36*
X218898Y132029D02*
X218242Y131898D01*
X217686Y131527D01*
X217314Y130971D01*
X217184Y130315D01*
X217314Y129659D01*
X217686Y129103D01*
X218242Y128731D01*
X218898Y128601D01*
X219554Y128731D01*
X220110Y129103D01*
X220481Y129659D01*
X220612Y130315D01*
X220481Y130971D01*
X220110Y131527D01*
X219554Y131898D01*
X218898Y132029D01*
D02*
G37*
G36*
X146756Y124746D02*
X146100Y124615D01*
X145544Y124243D01*
X145172Y123687D01*
X145042Y123031D01*
X145172Y122376D01*
X145544Y121819D01*
X146100Y121448D01*
X146756Y121318D01*
X147412Y121448D01*
X147968Y121819D01*
X148339Y122376D01*
X148470Y123031D01*
X148339Y123687D01*
X147968Y124243D01*
X147412Y124615D01*
X146756Y124746D01*
D02*
G37*
G36*
X226378Y119824D02*
X225722Y119694D01*
X225166Y119322D01*
X224794Y118766D01*
X224664Y118110D01*
X224794Y117454D01*
X225166Y116898D01*
X225722Y116527D01*
X226378Y116396D01*
X227034Y116527D01*
X227590Y116898D01*
X227961Y117454D01*
X228092Y118110D01*
X227961Y118766D01*
X227590Y119322D01*
X227034Y119694D01*
X226378Y119824D01*
D02*
G37*
G36*
X80315Y117068D02*
X79659Y116938D01*
X79103Y116566D01*
X78731Y116010D01*
X78601Y115354D01*
X78731Y114698D01*
X79103Y114142D01*
X79659Y113771D01*
X80315Y113640D01*
X80971Y113771D01*
X81527Y114142D01*
X81898Y114698D01*
X82029Y115354D01*
X81898Y116010D01*
X81527Y116566D01*
X80971Y116938D01*
X80315Y117068D01*
D02*
G37*
G36*
X111122Y116872D02*
X110466Y116741D01*
X109910Y116369D01*
X109538Y115813D01*
X109408Y115157D01*
X109538Y114502D01*
X109910Y113945D01*
X110466Y113574D01*
X111122Y113444D01*
X111778Y113574D01*
X112334Y113945D01*
X112706Y114502D01*
X112836Y115157D01*
X112706Y115813D01*
X112334Y116369D01*
X111778Y116741D01*
X111122Y116872D01*
D02*
G37*
G36*
X133465Y116773D02*
X132809Y116643D01*
X132253Y116271D01*
X131881Y115715D01*
X131751Y115059D01*
X131881Y114403D01*
X132253Y113847D01*
X132809Y113476D01*
X133465Y113345D01*
X134121Y113476D01*
X134677Y113847D01*
X135048Y114403D01*
X135179Y115059D01*
X135048Y115715D01*
X134677Y116271D01*
X134121Y116643D01*
X133465Y116773D01*
D02*
G37*
G36*
X155610Y116675D02*
X154954Y116544D01*
X154398Y116173D01*
X154027Y115617D01*
X153896Y114961D01*
X154027Y114305D01*
X154398Y113749D01*
X154954Y113377D01*
X155610Y113247D01*
X156266Y113377D01*
X156822Y113749D01*
X157194Y114305D01*
X157324Y114961D01*
X157194Y115617D01*
X156822Y116173D01*
X156266Y116544D01*
X155610Y116675D01*
D02*
G37*
G36*
X122539D02*
X121883Y116544D01*
X121327Y116173D01*
X120956Y115617D01*
X120825Y114961D01*
X120956Y114305D01*
X121327Y113749D01*
X121883Y113377D01*
X122539Y113247D01*
X123195Y113377D01*
X123751Y113749D01*
X124123Y114305D01*
X124253Y114961D01*
X124123Y115617D01*
X123751Y116173D01*
X123195Y116544D01*
X122539Y116675D01*
D02*
G37*
G36*
X92815Y116478D02*
X92159Y116347D01*
X91603Y115976D01*
X91231Y115420D01*
X91101Y114764D01*
X91231Y114108D01*
X91603Y113552D01*
X92159Y113180D01*
X92815Y113050D01*
X93471Y113180D01*
X94027Y113552D01*
X94398Y114108D01*
X94529Y114764D01*
X94398Y115420D01*
X94027Y115976D01*
X93471Y116347D01*
X92815Y116478D01*
D02*
G37*
G36*
X35397Y111064D02*
Y104924D01*
X38594D01*
Y107693D01*
X38479Y108572D01*
X38139Y109392D01*
X37599Y110095D01*
X36896Y110635D01*
X36076Y110975D01*
X35397Y111064D01*
D02*
G37*
G36*
X34997D02*
X34317Y110975D01*
X33498Y110635D01*
X32794Y110095D01*
X32254Y109392D01*
X31915Y108572D01*
X31799Y107693D01*
Y104924D01*
X34997D01*
Y111064D01*
D02*
G37*
G36*
X18565Y111061D02*
X11828D01*
Y98387D01*
X18565D01*
Y111061D01*
D02*
G37*
G36*
X38594Y104524D02*
X35397D01*
Y98385D01*
X36076Y98474D01*
X36896Y98813D01*
X37599Y99353D01*
X38139Y100057D01*
X38479Y100876D01*
X38594Y101756D01*
Y104524D01*
D02*
G37*
G36*
X34997D02*
X31799D01*
Y101756D01*
X31915Y100876D01*
X32254Y100057D01*
X32794Y99353D01*
X33498Y98813D01*
X34317Y98474D01*
X34997Y98385D01*
Y104524D01*
D02*
G37*
G36*
X45197Y111091D02*
X44317Y110975D01*
X43498Y110635D01*
X42794Y110095D01*
X42254Y109392D01*
X41915Y108572D01*
X41799Y107693D01*
Y101756D01*
X41915Y100876D01*
X42254Y100057D01*
X42794Y99353D01*
X43498Y98813D01*
X44317Y98474D01*
X45197Y98358D01*
X46076Y98474D01*
X46896Y98813D01*
X47599Y99353D01*
X48139Y100057D01*
X48479Y100876D01*
X48594Y101756D01*
Y107693D01*
X48479Y108572D01*
X48139Y109392D01*
X47599Y110095D01*
X46896Y110635D01*
X46076Y110975D01*
X45197Y111091D01*
D02*
G37*
G36*
X25197D02*
X24317Y110975D01*
X23498Y110635D01*
X22794Y110095D01*
X22254Y109392D01*
X21915Y108572D01*
X21799Y107693D01*
Y101756D01*
X21915Y100876D01*
X22254Y100057D01*
X22794Y99353D01*
X23498Y98813D01*
X24317Y98474D01*
X25197Y98358D01*
X26076Y98474D01*
X26896Y98813D01*
X27599Y99353D01*
X28139Y100057D01*
X28479Y100876D01*
X28594Y101756D01*
Y107693D01*
X28479Y108572D01*
X28139Y109392D01*
X27599Y110095D01*
X26896Y110635D01*
X26076Y110975D01*
X25197Y111091D01*
D02*
G37*
G36*
X133054Y102993D02*
Y96854D01*
X136252D01*
Y99622D01*
X136136Y100501D01*
X135797Y101321D01*
X135257Y102024D01*
X134553Y102564D01*
X133734Y102904D01*
X133054Y102993D01*
D02*
G37*
G36*
X132654D02*
X131975Y102904D01*
X131156Y102564D01*
X130452Y102024D01*
X129912Y101321D01*
X129572Y100501D01*
X129457Y99622D01*
Y96854D01*
X132654D01*
Y102993D01*
D02*
G37*
G36*
X34646Y95809D02*
X33990Y95678D01*
X33434Y95306D01*
X33062Y94750D01*
X32932Y94095D01*
X33062Y93439D01*
X33434Y92883D01*
X33990Y92511D01*
X34646Y92380D01*
X35302Y92511D01*
X35858Y92883D01*
X36229Y93439D01*
X36360Y94095D01*
X36229Y94750D01*
X35858Y95306D01*
X35302Y95678D01*
X34646Y95809D01*
D02*
G37*
G36*
X25591D02*
X24935Y95678D01*
X24379Y95306D01*
X24007Y94750D01*
X23877Y94095D01*
X24007Y93439D01*
X24379Y92883D01*
X24935Y92511D01*
X25591Y92380D01*
X26247Y92511D01*
X26803Y92883D01*
X27174Y93439D01*
X27305Y94095D01*
X27174Y94750D01*
X26803Y95306D01*
X26247Y95678D01*
X25591Y95809D01*
D02*
G37*
G36*
X176223Y102991D02*
X169486D01*
Y90316D01*
X176223D01*
Y102991D01*
D02*
G37*
G36*
X132654Y96453D02*
X129457D01*
Y93685D01*
X129572Y92806D01*
X129912Y91986D01*
X130452Y91283D01*
X131156Y90743D01*
X131975Y90403D01*
X132654Y90314D01*
Y96453D01*
D02*
G37*
G36*
X136252D02*
X133054D01*
Y90314D01*
X133734Y90403D01*
X134553Y90743D01*
X135257Y91283D01*
X135797Y91986D01*
X136136Y92806D01*
X136252Y93685D01*
Y96453D01*
D02*
G37*
G36*
X162854Y103020D02*
X161975Y102904D01*
X161155Y102564D01*
X160452Y102024D01*
X159912Y101321D01*
X159573Y100501D01*
X159457Y99622D01*
Y93685D01*
X159573Y92806D01*
X159912Y91986D01*
X160452Y91283D01*
X161155Y90743D01*
X161975Y90403D01*
X162854Y90288D01*
X163734Y90403D01*
X164553Y90743D01*
X165257Y91283D01*
X165797Y91986D01*
X166136Y92806D01*
X166252Y93685D01*
Y99622D01*
X166136Y100501D01*
X165797Y101321D01*
X165257Y102024D01*
X164553Y102564D01*
X163734Y102904D01*
X162854Y103020D01*
D02*
G37*
G36*
X152854D02*
X151975Y102904D01*
X151155Y102564D01*
X150452Y102024D01*
X149912Y101321D01*
X149573Y100501D01*
X149457Y99622D01*
Y93685D01*
X149573Y92806D01*
X149912Y91986D01*
X150452Y91283D01*
X151155Y90743D01*
X151975Y90403D01*
X152854Y90288D01*
X153734Y90403D01*
X154553Y90743D01*
X155257Y91283D01*
X155797Y91986D01*
X156136Y92806D01*
X156252Y93685D01*
Y99622D01*
X156136Y100501D01*
X155797Y101321D01*
X155257Y102024D01*
X154553Y102564D01*
X153734Y102904D01*
X152854Y103020D01*
D02*
G37*
G36*
X142854D02*
X141975Y102904D01*
X141156Y102564D01*
X140452Y102024D01*
X139912Y101321D01*
X139573Y100501D01*
X139457Y99622D01*
Y93685D01*
X139573Y92806D01*
X139912Y91986D01*
X140452Y91283D01*
X141156Y90743D01*
X141975Y90403D01*
X142854Y90288D01*
X143734Y90403D01*
X144553Y90743D01*
X145257Y91283D01*
X145797Y91986D01*
X146136Y92806D01*
X146252Y93685D01*
Y99622D01*
X146136Y100501D01*
X145797Y101321D01*
X145257Y102024D01*
X144553Y102564D01*
X143734Y102904D01*
X142854Y103020D01*
D02*
G37*
G36*
X90546Y89121D02*
X89890Y88990D01*
X89334Y88619D01*
X88963Y88063D01*
X88886Y87950D01*
X88483Y87783D01*
X88451Y87804D01*
X87795Y87934D01*
X87139Y87804D01*
X86583Y87432D01*
X86212Y86876D01*
X86081Y86221D01*
X86212Y85565D01*
X86583Y85009D01*
X87139Y84637D01*
X87795Y84506D01*
X88451Y84637D01*
X89007Y85009D01*
X89378Y85564D01*
X89455Y85677D01*
X89858Y85844D01*
X89890Y85823D01*
X90546Y85693D01*
X91202Y85823D01*
X91758Y86195D01*
X92130Y86751D01*
X92260Y87407D01*
X92130Y88063D01*
X91758Y88619D01*
X91202Y88990D01*
X90546Y89121D01*
D02*
G37*
G36*
X58957Y90494D02*
X58301Y90363D01*
X57745Y89991D01*
X57373Y89435D01*
X57243Y88779D01*
X57373Y88124D01*
X57745Y87568D01*
X58301Y87196D01*
X58957Y87066D01*
X59613Y87196D01*
X60169Y87568D01*
X60540Y88124D01*
X60671Y88779D01*
X60540Y89435D01*
X60169Y89991D01*
X59613Y90363D01*
X58957Y90494D01*
D02*
G37*
G36*
X97244Y85966D02*
X96588Y85835D01*
X96032Y85464D01*
X95661Y84908D01*
X95530Y84252D01*
X95661Y83596D01*
X95957Y83153D01*
X96002Y82821D01*
X95957Y82489D01*
X95661Y82046D01*
X95530Y81390D01*
X95661Y80734D01*
X96032Y80178D01*
X96588Y79806D01*
X97244Y79676D01*
X97900Y79806D01*
X98456Y80178D01*
X98828Y80734D01*
X98958Y81390D01*
X98828Y82046D01*
X98532Y82489D01*
X98486Y82821D01*
X98532Y83153D01*
X98828Y83596D01*
X98958Y84252D01*
X98828Y84908D01*
X98456Y85464D01*
X97900Y85835D01*
X97244Y85966D01*
D02*
G37*
G36*
X148031Y80848D02*
X147376Y80717D01*
X146819Y80346D01*
X146448Y79790D01*
X146318Y79134D01*
X146448Y78478D01*
X146819Y77922D01*
X147376Y77550D01*
X148031Y77420D01*
X148687Y77550D01*
X149243Y77922D01*
X149615Y78478D01*
X149746Y79134D01*
X149615Y79790D01*
X149243Y80346D01*
X148687Y80717D01*
X148031Y80848D01*
D02*
G37*
G36*
X64961Y76911D02*
X64305Y76780D01*
X63749Y76409D01*
X63377Y75853D01*
X63247Y75197D01*
X63377Y74541D01*
X63749Y73985D01*
X64305Y73613D01*
X64961Y73483D01*
X65617Y73613D01*
X66173Y73985D01*
X66544Y74541D01*
X66675Y75197D01*
X66544Y75853D01*
X66173Y76409D01*
X65617Y76780D01*
X64961Y76911D01*
D02*
G37*
G36*
X125787Y74155D02*
X125131Y74024D01*
X124575Y73653D01*
X124204Y73097D01*
X124073Y72441D01*
X124204Y71785D01*
X124575Y71229D01*
X125131Y70857D01*
X125787Y70727D01*
X126443Y70857D01*
X126999Y71229D01*
X127371Y71785D01*
X127501Y72441D01*
X127371Y73097D01*
X126999Y73653D01*
X126443Y74024D01*
X125787Y74155D01*
D02*
G37*
G36*
X62264Y69324D02*
X61608Y69194D01*
X61052Y68822D01*
X60681Y68266D01*
X60550Y67610D01*
X60681Y66954D01*
X61052Y66398D01*
X61608Y66027D01*
X62264Y65896D01*
X62920Y66027D01*
X63476Y66398D01*
X63848Y66954D01*
X63978Y67610D01*
X63848Y68266D01*
X63476Y68822D01*
X62920Y69194D01*
X62264Y69324D01*
D02*
G37*
G36*
X74213Y45415D02*
X73557Y45284D01*
X73001Y44913D01*
X72629Y44357D01*
X72499Y43701D01*
X72629Y43045D01*
X73001Y42489D01*
X73557Y42117D01*
X74213Y41987D01*
X74869Y42117D01*
X75425Y42489D01*
X75796Y43045D01*
X75927Y43701D01*
X75796Y44357D01*
X75425Y44913D01*
X74869Y45284D01*
X74213Y45415D01*
D02*
G37*
G36*
X104823Y44037D02*
X104167Y43906D01*
X103611Y43535D01*
X103239Y42979D01*
X103109Y42323D01*
X103239Y41667D01*
X103611Y41111D01*
X104167Y40739D01*
X104823Y40609D01*
X105479Y40739D01*
X106035Y41111D01*
X106406Y41667D01*
X106537Y42323D01*
X106406Y42979D01*
X106035Y43535D01*
X105479Y43906D01*
X104823Y44037D01*
D02*
G37*
G36*
X53543Y41084D02*
X52887Y40954D01*
X52331Y40582D01*
X51960Y40026D01*
X51829Y39370D01*
X51960Y38714D01*
X52331Y38158D01*
X52887Y37786D01*
X53543Y37656D01*
X54199Y37786D01*
X54755Y38158D01*
X55127Y38714D01*
X55257Y39370D01*
X55127Y40026D01*
X54755Y40582D01*
X54199Y40954D01*
X53543Y41084D01*
D02*
G37*
G36*
X77264Y40789D02*
X76608Y40658D01*
X76052Y40287D01*
X75680Y39731D01*
X75550Y39075D01*
X75680Y38419D01*
X76052Y37863D01*
X76608Y37491D01*
X77264Y37361D01*
X77920Y37491D01*
X78476Y37863D01*
X78847Y38419D01*
X78978Y39075D01*
X78847Y39731D01*
X78476Y40287D01*
X77920Y40658D01*
X77264Y40789D01*
D02*
G37*
G36*
X81988Y40690D02*
X81332Y40560D01*
X80776Y40188D01*
X80405Y39632D01*
X80274Y38976D01*
X80405Y38320D01*
X80776Y37764D01*
X81332Y37393D01*
X81988Y37262D01*
X82644Y37393D01*
X83200Y37764D01*
X83572Y38320D01*
X83702Y38976D01*
X83572Y39632D01*
X83200Y40188D01*
X82644Y40560D01*
X81988Y40690D01*
D02*
G37*
G36*
X268975Y34369D02*
X256301D01*
Y27632D01*
X268975D01*
Y34369D01*
D02*
G37*
G36*
X253475D02*
X240801D01*
Y27632D01*
X253475D01*
Y34369D01*
D02*
G37*
G36*
X237975D02*
X225301D01*
Y27632D01*
X237975D01*
Y34369D01*
D02*
G37*
G36*
X222475D02*
X209801D01*
Y27632D01*
X222475D01*
Y34369D01*
D02*
G37*
G36*
X206975D02*
X194301D01*
Y27632D01*
X206975D01*
Y34369D01*
D02*
G37*
G36*
X191475D02*
X178801D01*
Y27632D01*
X191475D01*
Y34369D01*
D02*
G37*
G36*
X175975D02*
X163301D01*
Y27632D01*
X175975D01*
Y34369D01*
D02*
G37*
G36*
X160475D02*
X147801D01*
Y27632D01*
X160475D01*
Y34369D01*
D02*
G37*
G36*
X144975D02*
X132301D01*
Y27632D01*
X144975D01*
Y34369D01*
D02*
G37*
G36*
X84071Y27009D02*
X83415Y26879D01*
X82859Y26507D01*
X82487Y25951D01*
X82357Y25295D01*
X82487Y24639D01*
X82859Y24083D01*
X83415Y23712D01*
X84071Y23581D01*
X84727Y23712D01*
X85283Y24083D01*
X85654Y24639D01*
X85785Y25295D01*
X85654Y25951D01*
X85283Y26507D01*
X84727Y26879D01*
X84071Y27009D01*
D02*
G37*
G36*
X97638Y23580D02*
X96982Y23450D01*
X96426Y23078D01*
X96054Y22522D01*
X95924Y21866D01*
X96054Y21210D01*
X96426Y20654D01*
X96982Y20283D01*
X97638Y20152D01*
X98294Y20283D01*
X98850Y20654D01*
X99221Y21210D01*
X99352Y21866D01*
X99221Y22522D01*
X98850Y23078D01*
X98294Y23450D01*
X97638Y23580D01*
D02*
G37*
G36*
X107283Y23466D02*
X106628Y23336D01*
X106071Y22964D01*
X105700Y22408D01*
X105569Y21752D01*
X105700Y21096D01*
X106071Y20540D01*
X106628Y20168D01*
X107283Y20038D01*
X107939Y20168D01*
X108495Y20540D01*
X108867Y21096D01*
X108997Y21752D01*
X108867Y22408D01*
X108495Y22964D01*
X107939Y23336D01*
X107283Y23466D01*
D02*
G37*
G36*
X265606Y24398D02*
X259669D01*
X258790Y24282D01*
X257970Y23942D01*
X257267Y23402D01*
X256727Y22699D01*
X256387Y21879D01*
X256272Y21000D01*
X256387Y20121D01*
X256727Y19301D01*
X257267Y18598D01*
X257970Y18058D01*
X258790Y17718D01*
X259669Y17602D01*
X265606D01*
X266486Y17718D01*
X267305Y18058D01*
X268009Y18598D01*
X268549Y19301D01*
X268888Y20121D01*
X269004Y21000D01*
X268888Y21879D01*
X268549Y22699D01*
X268009Y23402D01*
X267305Y23942D01*
X266486Y24282D01*
X265606Y24398D01*
D02*
G37*
G36*
X250106D02*
X244169D01*
X243290Y24282D01*
X242471Y23942D01*
X241767Y23402D01*
X241227Y22699D01*
X240887Y21879D01*
X240772Y21000D01*
X240887Y20121D01*
X241227Y19301D01*
X241767Y18598D01*
X242471Y18058D01*
X243290Y17718D01*
X244169Y17602D01*
X250106D01*
X250986Y17718D01*
X251805Y18058D01*
X252509Y18598D01*
X253049Y19301D01*
X253388Y20121D01*
X253504Y21000D01*
X253388Y21879D01*
X253049Y22699D01*
X252509Y23402D01*
X251805Y23942D01*
X250986Y24282D01*
X250106Y24398D01*
D02*
G37*
G36*
X234606D02*
X228669D01*
X227790Y24282D01*
X226971Y23942D01*
X226267Y23402D01*
X225727Y22699D01*
X225388Y21879D01*
X225272Y21000D01*
X225388Y20121D01*
X225727Y19301D01*
X226267Y18598D01*
X226971Y18058D01*
X227790Y17718D01*
X228669Y17602D01*
X234606D01*
X235486Y17718D01*
X236305Y18058D01*
X237009Y18598D01*
X237549Y19301D01*
X237888Y20121D01*
X238004Y21000D01*
X237888Y21879D01*
X237549Y22699D01*
X237009Y23402D01*
X236305Y23942D01*
X235486Y24282D01*
X234606Y24398D01*
D02*
G37*
G36*
X219106D02*
X213169D01*
X212290Y24282D01*
X211471Y23942D01*
X210767Y23402D01*
X210227Y22699D01*
X209888Y21879D01*
X209772Y21000D01*
X209888Y20121D01*
X210227Y19301D01*
X210767Y18598D01*
X211471Y18058D01*
X212290Y17718D01*
X213169Y17602D01*
X219106D01*
X219986Y17718D01*
X220805Y18058D01*
X221509Y18598D01*
X222049Y19301D01*
X222388Y20121D01*
X222504Y21000D01*
X222388Y21879D01*
X222049Y22699D01*
X221509Y23402D01*
X220805Y23942D01*
X219986Y24282D01*
X219106Y24398D01*
D02*
G37*
G36*
X203606D02*
X197669D01*
X196790Y24282D01*
X195970Y23942D01*
X195267Y23402D01*
X194727Y22699D01*
X194387Y21879D01*
X194272Y21000D01*
X194387Y20121D01*
X194727Y19301D01*
X195267Y18598D01*
X195970Y18058D01*
X196790Y17718D01*
X197669Y17602D01*
X203606D01*
X204486Y17718D01*
X205305Y18058D01*
X206009Y18598D01*
X206549Y19301D01*
X206888Y20121D01*
X207004Y21000D01*
X206888Y21879D01*
X206549Y22699D01*
X206009Y23402D01*
X205305Y23942D01*
X204486Y24282D01*
X203606Y24398D01*
D02*
G37*
G36*
X188106D02*
X182169D01*
X181290Y24282D01*
X180471Y23942D01*
X179767Y23402D01*
X179227Y22699D01*
X178887Y21879D01*
X178772Y21000D01*
X178887Y20121D01*
X179227Y19301D01*
X179767Y18598D01*
X180471Y18058D01*
X181290Y17718D01*
X182169Y17602D01*
X188106D01*
X188986Y17718D01*
X189805Y18058D01*
X190509Y18598D01*
X191049Y19301D01*
X191388Y20121D01*
X191504Y21000D01*
X191388Y21879D01*
X191049Y22699D01*
X190509Y23402D01*
X189805Y23942D01*
X188986Y24282D01*
X188106Y24398D01*
D02*
G37*
G36*
X172606D02*
X166669D01*
X165790Y24282D01*
X164971Y23942D01*
X164267Y23402D01*
X163727Y22699D01*
X163388Y21879D01*
X163272Y21000D01*
X163388Y20121D01*
X163727Y19301D01*
X164267Y18598D01*
X164971Y18058D01*
X165790Y17718D01*
X166669Y17602D01*
X172606D01*
X173486Y17718D01*
X174305Y18058D01*
X175009Y18598D01*
X175549Y19301D01*
X175888Y20121D01*
X176004Y21000D01*
X175888Y21879D01*
X175549Y22699D01*
X175009Y23402D01*
X174305Y23942D01*
X173486Y24282D01*
X172606Y24398D01*
D02*
G37*
G36*
X157106D02*
X151169D01*
X150290Y24282D01*
X149470Y23942D01*
X148767Y23402D01*
X148227Y22699D01*
X147888Y21879D01*
X147772Y21000D01*
X147888Y20121D01*
X148227Y19301D01*
X148767Y18598D01*
X149470Y18058D01*
X150290Y17718D01*
X151169Y17602D01*
X157106D01*
X157986Y17718D01*
X158805Y18058D01*
X159509Y18598D01*
X160049Y19301D01*
X160388Y20121D01*
X160504Y21000D01*
X160388Y21879D01*
X160049Y22699D01*
X159509Y23402D01*
X158805Y23942D01*
X157986Y24282D01*
X157106Y24398D01*
D02*
G37*
G36*
X141606D02*
X135669D01*
X134790Y24282D01*
X133970Y23942D01*
X133267Y23402D01*
X132727Y22699D01*
X132387Y21879D01*
X132272Y21000D01*
X132387Y20121D01*
X132727Y19301D01*
X133267Y18598D01*
X133970Y18058D01*
X134790Y17718D01*
X135669Y17602D01*
X141606D01*
X142486Y17718D01*
X143305Y18058D01*
X144009Y18598D01*
X144549Y19301D01*
X144888Y20121D01*
X145004Y21000D01*
X144888Y21879D01*
X144549Y22699D01*
X144009Y23402D01*
X143305Y23942D01*
X142486Y24282D01*
X141606Y24398D01*
D02*
G37*
G36*
X107500Y18905D02*
X106621Y18790D01*
X105801Y18450D01*
X105098Y17910D01*
X104558Y17207D01*
X104218Y16387D01*
X104102Y15508D01*
Y14067D01*
X103885Y13937D01*
X103602Y13857D01*
X103117Y14182D01*
X102461Y14312D01*
X101805Y14182D01*
X101398Y13910D01*
X100898Y14117D01*
Y15508D01*
X100782Y16387D01*
X100442Y17207D01*
X99902Y17910D01*
X99199Y18450D01*
X98379Y18790D01*
X97500Y18905D01*
X96621Y18790D01*
X95801Y18450D01*
X95098Y17910D01*
X94558Y17207D01*
X94218Y16387D01*
X94102Y15508D01*
Y9571D01*
X94218Y8692D01*
X94558Y7872D01*
X95098Y7168D01*
X95801Y6628D01*
X96621Y6289D01*
X97500Y6173D01*
X98379Y6289D01*
X99199Y6628D01*
X99902Y7168D01*
X100442Y7872D01*
X100782Y8692D01*
X100898Y9571D01*
Y11080D01*
X101398Y11287D01*
X101805Y11015D01*
X102461Y10884D01*
X103117Y11015D01*
X103602Y11339D01*
X103885Y11260D01*
X104102Y11130D01*
Y9571D01*
X104218Y8692D01*
X104558Y7872D01*
X105098Y7168D01*
X105801Y6628D01*
X106621Y6289D01*
X107500Y6173D01*
X108379Y6289D01*
X109199Y6628D01*
X109902Y7168D01*
X110442Y7872D01*
X110782Y8692D01*
X110898Y9571D01*
Y15508D01*
X110782Y16387D01*
X110442Y17207D01*
X109902Y17910D01*
X109199Y18450D01*
X108379Y18790D01*
X107500Y18905D01*
D02*
G37*
G36*
X265606Y14398D02*
X262838D01*
Y11200D01*
X268978D01*
X268888Y11879D01*
X268549Y12699D01*
X268009Y13402D01*
X267305Y13942D01*
X266486Y14282D01*
X265606Y14398D01*
D02*
G37*
G36*
X262438D02*
X259669D01*
X258790Y14282D01*
X257970Y13942D01*
X257267Y13402D01*
X256727Y12699D01*
X256387Y11879D01*
X256298Y11200D01*
X262438D01*
Y14398D01*
D02*
G37*
G36*
X250106D02*
X247338D01*
Y11200D01*
X253478D01*
X253388Y11879D01*
X253049Y12699D01*
X252509Y13402D01*
X251805Y13942D01*
X250986Y14282D01*
X250106Y14398D01*
D02*
G37*
G36*
X246938D02*
X244169D01*
X243290Y14282D01*
X242471Y13942D01*
X241767Y13402D01*
X241227Y12699D01*
X240887Y11879D01*
X240798Y11200D01*
X246938D01*
Y14398D01*
D02*
G37*
G36*
X234606D02*
X231838D01*
Y11200D01*
X237978D01*
X237888Y11879D01*
X237549Y12699D01*
X237009Y13402D01*
X236305Y13942D01*
X235486Y14282D01*
X234606Y14398D01*
D02*
G37*
G36*
X231438D02*
X228669D01*
X227790Y14282D01*
X226971Y13942D01*
X226267Y13402D01*
X225727Y12699D01*
X225388Y11879D01*
X225298Y11200D01*
X231438D01*
Y14398D01*
D02*
G37*
G36*
X219106D02*
X216338D01*
Y11200D01*
X222478D01*
X222388Y11879D01*
X222049Y12699D01*
X221509Y13402D01*
X220805Y13942D01*
X219986Y14282D01*
X219106Y14398D01*
D02*
G37*
G36*
X215938D02*
X213169D01*
X212290Y14282D01*
X211471Y13942D01*
X210767Y13402D01*
X210227Y12699D01*
X209888Y11879D01*
X209798Y11200D01*
X215938D01*
Y14398D01*
D02*
G37*
G36*
X203606D02*
X200838D01*
Y11200D01*
X206978D01*
X206888Y11879D01*
X206549Y12699D01*
X206009Y13402D01*
X205305Y13942D01*
X204486Y14282D01*
X203606Y14398D01*
D02*
G37*
G36*
X200438D02*
X197669D01*
X196790Y14282D01*
X195970Y13942D01*
X195267Y13402D01*
X194727Y12699D01*
X194387Y11879D01*
X194298Y11200D01*
X200438D01*
Y14398D01*
D02*
G37*
G36*
X188106D02*
X185338D01*
Y11200D01*
X191478D01*
X191388Y11879D01*
X191049Y12699D01*
X190509Y13402D01*
X189805Y13942D01*
X188986Y14282D01*
X188106Y14398D01*
D02*
G37*
G36*
X184938D02*
X182169D01*
X181290Y14282D01*
X180471Y13942D01*
X179767Y13402D01*
X179227Y12699D01*
X178887Y11879D01*
X178798Y11200D01*
X184938D01*
Y14398D01*
D02*
G37*
G36*
X172606D02*
X169838D01*
Y11200D01*
X175978D01*
X175888Y11879D01*
X175549Y12699D01*
X175009Y13402D01*
X174305Y13942D01*
X173486Y14282D01*
X172606Y14398D01*
D02*
G37*
G36*
X169438D02*
X166669D01*
X165790Y14282D01*
X164971Y13942D01*
X164267Y13402D01*
X163727Y12699D01*
X163388Y11879D01*
X163298Y11200D01*
X169438D01*
Y14398D01*
D02*
G37*
G36*
X157106D02*
X154338D01*
Y11200D01*
X160477D01*
X160388Y11879D01*
X160049Y12699D01*
X159509Y13402D01*
X158805Y13942D01*
X157986Y14282D01*
X157106Y14398D01*
D02*
G37*
G36*
X153938D02*
X151169D01*
X150290Y14282D01*
X149470Y13942D01*
X148767Y13402D01*
X148227Y12699D01*
X147888Y11879D01*
X147798Y11200D01*
X153938D01*
Y14398D01*
D02*
G37*
G36*
X141606D02*
X138838D01*
Y11200D01*
X144977D01*
X144888Y11879D01*
X144549Y12699D01*
X144009Y13402D01*
X143305Y13942D01*
X142486Y14282D01*
X141606Y14398D01*
D02*
G37*
G36*
X138438D02*
X135669D01*
X134790Y14282D01*
X133970Y13942D01*
X133267Y13402D01*
X132727Y12699D01*
X132387Y11879D01*
X132298Y11200D01*
X138438D01*
Y14398D01*
D02*
G37*
G36*
X285039Y19931D02*
X283549Y19735D01*
X282160Y19160D01*
X280968Y18245D01*
X280053Y17052D01*
X279478Y15664D01*
X279281Y14173D01*
X279478Y12683D01*
X280053Y11294D01*
X280968Y10102D01*
X282160Y9187D01*
X283549Y8612D01*
X285039Y8415D01*
X286530Y8612D01*
X287918Y9187D01*
X289111Y10102D01*
X290026Y11294D01*
X290601Y12683D01*
X290797Y14173D01*
X290601Y15664D01*
X290026Y17052D01*
X289111Y18245D01*
X287918Y19160D01*
X286530Y19735D01*
X285039Y19931D01*
D02*
G37*
G36*
X14173D02*
X12683Y19735D01*
X11294Y19160D01*
X10102Y18245D01*
X9187Y17052D01*
X8612Y15664D01*
X8415Y14173D01*
X8612Y12683D01*
X9187Y11294D01*
X10102Y10102D01*
X11294Y9187D01*
X12683Y8612D01*
X14173Y8415D01*
X15664Y8612D01*
X17052Y9187D01*
X18245Y10102D01*
X19160Y11294D01*
X19735Y12683D01*
X19931Y14173D01*
X19735Y15664D01*
X19160Y17052D01*
X18245Y18245D01*
X17052Y19160D01*
X15664Y19735D01*
X14173Y19931D01*
D02*
G37*
G36*
X268978Y10800D02*
X262838D01*
Y7602D01*
X265606D01*
X266486Y7718D01*
X267305Y8058D01*
X268009Y8598D01*
X268549Y9301D01*
X268888Y10121D01*
X268978Y10800D01*
D02*
G37*
G36*
X262438D02*
X256298D01*
X256387Y10121D01*
X256727Y9301D01*
X257267Y8598D01*
X257970Y8058D01*
X258790Y7718D01*
X259669Y7602D01*
X262438D01*
Y10800D01*
D02*
G37*
G36*
X253478D02*
X247338D01*
Y7602D01*
X250106D01*
X250986Y7718D01*
X251805Y8058D01*
X252509Y8598D01*
X253049Y9301D01*
X253388Y10121D01*
X253478Y10800D01*
D02*
G37*
G36*
X246938D02*
X240798D01*
X240887Y10121D01*
X241227Y9301D01*
X241767Y8598D01*
X242471Y8058D01*
X243290Y7718D01*
X244169Y7602D01*
X246938D01*
Y10800D01*
D02*
G37*
G36*
X237978D02*
X231838D01*
Y7602D01*
X234606D01*
X235486Y7718D01*
X236305Y8058D01*
X237009Y8598D01*
X237549Y9301D01*
X237888Y10121D01*
X237978Y10800D01*
D02*
G37*
G36*
X231438D02*
X225298D01*
X225388Y10121D01*
X225727Y9301D01*
X226267Y8598D01*
X226971Y8058D01*
X227790Y7718D01*
X228669Y7602D01*
X231438D01*
Y10800D01*
D02*
G37*
G36*
X222478D02*
X216338D01*
Y7602D01*
X219106D01*
X219986Y7718D01*
X220805Y8058D01*
X221509Y8598D01*
X222049Y9301D01*
X222388Y10121D01*
X222478Y10800D01*
D02*
G37*
G36*
X215938D02*
X209798D01*
X209888Y10121D01*
X210227Y9301D01*
X210767Y8598D01*
X211471Y8058D01*
X212290Y7718D01*
X213169Y7602D01*
X215938D01*
Y10800D01*
D02*
G37*
G36*
X206978D02*
X200838D01*
Y7602D01*
X203606D01*
X204486Y7718D01*
X205305Y8058D01*
X206009Y8598D01*
X206549Y9301D01*
X206888Y10121D01*
X206978Y10800D01*
D02*
G37*
G36*
X200438D02*
X194298D01*
X194387Y10121D01*
X194727Y9301D01*
X195267Y8598D01*
X195970Y8058D01*
X196790Y7718D01*
X197669Y7602D01*
X200438D01*
Y10800D01*
D02*
G37*
G36*
X191478D02*
X185338D01*
Y7602D01*
X188106D01*
X188986Y7718D01*
X189805Y8058D01*
X190509Y8598D01*
X191049Y9301D01*
X191388Y10121D01*
X191478Y10800D01*
D02*
G37*
G36*
X184938D02*
X178798D01*
X178887Y10121D01*
X179227Y9301D01*
X179767Y8598D01*
X180471Y8058D01*
X181290Y7718D01*
X182169Y7602D01*
X184938D01*
Y10800D01*
D02*
G37*
G36*
X175978D02*
X169838D01*
Y7602D01*
X172606D01*
X173486Y7718D01*
X174305Y8058D01*
X175009Y8598D01*
X175549Y9301D01*
X175888Y10121D01*
X175978Y10800D01*
D02*
G37*
G36*
X169438D02*
X163298D01*
X163388Y10121D01*
X163727Y9301D01*
X164267Y8598D01*
X164971Y8058D01*
X165790Y7718D01*
X166669Y7602D01*
X169438D01*
Y10800D01*
D02*
G37*
G36*
X160477D02*
X154338D01*
Y7602D01*
X157106D01*
X157986Y7718D01*
X158805Y8058D01*
X159509Y8598D01*
X160049Y9301D01*
X160388Y10121D01*
X160477Y10800D01*
D02*
G37*
G36*
X153938D02*
X147798D01*
X147888Y10121D01*
X148227Y9301D01*
X148767Y8598D01*
X149470Y8058D01*
X150290Y7718D01*
X151169Y7602D01*
X153938D01*
Y10800D01*
D02*
G37*
G36*
X144977D02*
X138838D01*
Y7602D01*
X141606D01*
X142486Y7718D01*
X143305Y8058D01*
X144009Y8598D01*
X144549Y9301D01*
X144888Y10121D01*
X144977Y10800D01*
D02*
G37*
G36*
X138438D02*
X132298D01*
X132387Y10121D01*
X132727Y9301D01*
X133267Y8598D01*
X133970Y8058D01*
X134790Y7718D01*
X135669Y7602D01*
X138438D01*
Y10800D01*
D02*
G37*
G36*
X70868Y18876D02*
X64131D01*
Y6202D01*
X70868D01*
Y18876D01*
D02*
G37*
G36*
X87500Y18905D02*
X86621Y18790D01*
X85801Y18450D01*
X85098Y17910D01*
X84558Y17207D01*
X84218Y16387D01*
X84102Y15508D01*
Y9571D01*
X84218Y8692D01*
X84558Y7872D01*
X85098Y7168D01*
X85801Y6628D01*
X86621Y6289D01*
X87500Y6173D01*
X88379Y6289D01*
X89199Y6628D01*
X89902Y7168D01*
X90442Y7872D01*
X90782Y8692D01*
X90898Y9571D01*
Y15508D01*
X90782Y16387D01*
X90442Y17207D01*
X89902Y17910D01*
X89199Y18450D01*
X88379Y18790D01*
X87500Y18905D01*
D02*
G37*
G36*
X77500D02*
X76621Y18790D01*
X75801Y18450D01*
X75098Y17910D01*
X74558Y17207D01*
X74218Y16387D01*
X74102Y15508D01*
Y9571D01*
X74218Y8692D01*
X74558Y7872D01*
X75098Y7168D01*
X75801Y6628D01*
X76621Y6289D01*
X77500Y6173D01*
X78379Y6289D01*
X79199Y6628D01*
X79902Y7168D01*
X80442Y7872D01*
X80782Y8692D01*
X80898Y9571D01*
Y15508D01*
X80782Y16387D01*
X80442Y17207D01*
X79902Y17910D01*
X79199Y18450D01*
X78379Y18790D01*
X77500Y18905D01*
D02*
G37*
%LPD*%
D81*
X15197Y298819D02*
D03*
X216457Y320472D02*
D03*
X132854Y96653D02*
D03*
X72047Y320866D02*
D03*
X35197Y266142D02*
D03*
Y104724D02*
D03*
Y250787D02*
D03*
D84*
X169638Y11000D02*
D03*
X154138D02*
D03*
X185138D02*
D03*
X200638D02*
D03*
X216138D02*
D03*
X247138D02*
D03*
X262638D02*
D03*
X138638D02*
D03*
X231638D02*
D03*
X213779Y265827D02*
D03*
X117323Y312756D02*
D03*
X101969D02*
D03*
X148031D02*
D03*
X132677D02*
D03*
D85*
X242126Y309449D02*
D03*
D86*
X155905Y250394D02*
D03*
X160630Y250197D02*
D03*
X19783Y147343D02*
D03*
X282677Y176870D02*
D03*
Y148524D02*
D03*
Y120177D02*
D03*
Y49311D02*
D03*
Y35138D02*
D03*
X268504Y148524D02*
D03*
Y120177D02*
D03*
Y49311D02*
D03*
X254331Y261910D02*
D03*
Y176870D02*
D03*
Y148524D02*
D03*
Y120177D02*
D03*
Y49311D02*
D03*
X240158Y318602D02*
D03*
Y176870D02*
D03*
Y148524D02*
D03*
Y120177D02*
D03*
X225984Y318602D02*
D03*
Y304429D02*
D03*
Y290256D02*
D03*
Y276083D02*
D03*
Y261910D02*
D03*
Y247736D02*
D03*
Y233563D02*
D03*
Y219390D02*
D03*
Y162697D02*
D03*
Y148524D02*
D03*
Y134350D02*
D03*
Y63484D02*
D03*
X211811Y148524D02*
D03*
Y120177D02*
D03*
Y106004D02*
D03*
Y91831D02*
D03*
Y63484D02*
D03*
X197638Y290256D02*
D03*
Y191043D02*
D03*
Y176870D02*
D03*
Y148524D02*
D03*
Y120177D02*
D03*
Y63484D02*
D03*
X183465Y304429D02*
D03*
Y290256D02*
D03*
Y276083D02*
D03*
Y261910D02*
D03*
Y247736D02*
D03*
Y219390D02*
D03*
Y120177D02*
D03*
Y106004D02*
D03*
Y77658D02*
D03*
Y63484D02*
D03*
X169291Y290256D02*
D03*
Y276083D02*
D03*
Y261910D02*
D03*
Y247736D02*
D03*
Y120177D02*
D03*
X155118Y276083D02*
D03*
Y219390D02*
D03*
Y205217D02*
D03*
Y191043D02*
D03*
Y176870D02*
D03*
Y162697D02*
D03*
Y148524D02*
D03*
Y134350D02*
D03*
X126772Y276083D02*
D03*
Y219390D02*
D03*
Y205217D02*
D03*
Y191043D02*
D03*
Y176870D02*
D03*
Y162697D02*
D03*
Y148524D02*
D03*
Y134350D02*
D03*
Y106004D02*
D03*
Y6791D02*
D03*
X112599Y276083D02*
D03*
Y247736D02*
D03*
Y219390D02*
D03*
Y205217D02*
D03*
Y191043D02*
D03*
Y176870D02*
D03*
Y162697D02*
D03*
Y148524D02*
D03*
Y134350D02*
D03*
Y106004D02*
D03*
Y91831D02*
D03*
X98425Y219390D02*
D03*
Y205217D02*
D03*
Y191043D02*
D03*
Y176870D02*
D03*
Y162697D02*
D03*
Y148524D02*
D03*
Y134350D02*
D03*
Y49311D02*
D03*
X84252Y318602D02*
D03*
Y304429D02*
D03*
Y290256D02*
D03*
Y276083D02*
D03*
Y219390D02*
D03*
Y205217D02*
D03*
Y191043D02*
D03*
Y176870D02*
D03*
Y162697D02*
D03*
Y148524D02*
D03*
Y134350D02*
D03*
Y63484D02*
D03*
Y49311D02*
D03*
X70079Y134350D02*
D03*
Y106004D02*
D03*
Y35138D02*
D03*
X55905Y233563D02*
D03*
Y106004D02*
D03*
Y91831D02*
D03*
Y6791D02*
D03*
X41732Y191043D02*
D03*
Y162697D02*
D03*
Y77658D02*
D03*
Y49311D02*
D03*
Y35138D02*
D03*
Y20965D02*
D03*
Y6791D02*
D03*
X27559Y318602D02*
D03*
Y205217D02*
D03*
Y191043D02*
D03*
Y148524D02*
D03*
Y120177D02*
D03*
Y91831D02*
D03*
Y77658D02*
D03*
Y20965D02*
D03*
Y6791D02*
D03*
X13386Y205217D02*
D03*
Y191043D02*
D03*
Y134350D02*
D03*
Y120177D02*
D03*
Y77658D02*
D03*
Y63484D02*
D03*
Y49311D02*
D03*
X18898Y218898D02*
D03*
Y183071D02*
D03*
X17126Y162894D02*
D03*
X14469Y69980D02*
D03*
Y34154D02*
D03*
X258169Y171457D02*
D03*
X255020Y157677D02*
D03*
X254921Y134153D02*
D03*
X286221Y126181D02*
D03*
X288878Y139469D02*
D03*
Y176476D02*
D03*
X287894Y170768D02*
D03*
X257874Y226772D02*
D03*
X248622Y284941D02*
D03*
X234055D02*
D03*
X254921Y281299D02*
D03*
X257776Y262992D02*
D03*
X251870Y272047D02*
D03*
X68701Y233563D02*
D03*
X115256Y237697D02*
D03*
X69784Y25295D02*
D03*
X182480Y190748D02*
D03*
X61319Y150591D02*
D03*
X26476Y133858D02*
D03*
X49311Y125787D02*
D03*
X70177Y119685D02*
D03*
X116339Y115157D02*
D03*
X229724Y86910D02*
D03*
X57874Y125689D02*
D03*
X65256Y81496D02*
D03*
X26378Y126378D02*
D03*
X65354Y255217D02*
D03*
X72559Y190866D02*
D03*
X71457Y193799D02*
D03*
X71063Y197736D02*
D03*
X172146Y229331D02*
D03*
X54232Y50492D02*
D03*
X229626Y69980D02*
D03*
X229724Y77854D02*
D03*
Y94980D02*
D03*
Y102953D02*
D03*
X182480Y178543D02*
D03*
X189075Y212205D02*
D03*
X188878Y202559D02*
D03*
X182776Y161713D02*
D03*
Y147835D02*
D03*
X149619Y133059D02*
D03*
X149213Y115059D02*
D03*
X127264D02*
D03*
X52658Y153347D02*
D03*
Y171260D02*
D03*
X39370Y178051D02*
D03*
X43307Y160236D02*
D03*
X52658Y182579D02*
D03*
X82712Y237205D02*
D03*
X52953Y192815D02*
D03*
X59153Y220768D02*
D03*
X49114Y205020D02*
D03*
X84055Y247638D02*
D03*
X130709Y240748D02*
D03*
X59153Y94882D02*
D03*
X54134Y69291D02*
D03*
X53543Y45669D02*
D03*
X100984Y21457D02*
D03*
X125394Y66142D02*
D03*
X138091Y113878D02*
D03*
X41339Y63779D02*
D03*
M02*
