G04*
G04 #@! TF.GenerationSoftware,Altium Limited,Altium Designer,21.9.2 (33)*
G04*
G04 Layer_Physical_Order=3*
G04 Layer_Color=16440176*
%FSLAX25Y25*%
%MOIN*%
G70*
G04*
G04 #@! TF.SameCoordinates,4D01AB76-DD33-443A-9DFE-E83AFE04FE17*
G04*
G04*
G04 #@! TF.FilePolarity,Positive*
G04*
G01*
G75*
%ADD81O,0.05937X0.11874*%
%ADD82R,0.05937X0.11874*%
%ADD83R,0.11874X0.05937*%
%ADD84O,0.11874X0.05937*%
%ADD86C,0.02362*%
G36*
X11811Y333728D02*
X251536D01*
Y273728D01*
X251515Y273691D01*
X251214Y273631D01*
X250658Y273259D01*
X250287Y272703D01*
X250156Y272047D01*
X250287Y271391D01*
X250658Y270835D01*
X251214Y270464D01*
X251515Y270404D01*
X251536Y270366D01*
Y51360D01*
X243915Y43740D01*
X129921Y43740D01*
X129615Y43613D01*
X121741Y35739D01*
X121614Y35433D01*
Y918D01*
X11811D01*
X11807Y917D01*
X10107Y1051D01*
X8444Y1450D01*
X6865Y2104D01*
X5407Y2997D01*
X4107Y4107D01*
X2997Y5407D01*
X2104Y6865D01*
X1450Y8444D01*
X1051Y10107D01*
X955Y11322D01*
X918Y11811D01*
X918Y11811D01*
X918Y12303D01*
X918Y322835D01*
X917Y322839D01*
X1051Y324539D01*
X1450Y326201D01*
X2104Y327781D01*
X2997Y329238D01*
X4107Y330538D01*
X5407Y331649D01*
X6865Y332542D01*
X8444Y333196D01*
X10107Y333595D01*
X11807Y333729D01*
X11811Y333728D01*
D02*
G37*
G36*
X289106Y333595D02*
X290768Y333196D01*
X292348Y332542D01*
X293805Y331649D01*
X295105Y330538D01*
X296216Y329238D01*
X297109Y327781D01*
X297763Y326201D01*
X298162Y324539D01*
X298258Y323323D01*
X298295Y322835D01*
X298295Y322835D01*
X298295Y322343D01*
X298295Y11811D01*
X298296Y11807D01*
X298162Y10107D01*
X297763Y8444D01*
X297109Y6865D01*
X296216Y5407D01*
X295105Y4107D01*
X293805Y2997D01*
X292348Y2104D01*
X290768Y1450D01*
X289106Y1051D01*
X287406Y917D01*
X287402Y918D01*
X122047D01*
Y35433D01*
X129921Y43307D01*
X244094Y43307D01*
X251969Y51181D01*
Y270366D01*
X252204D01*
X252822Y270622D01*
X253295Y271095D01*
X253551Y271713D01*
Y272382D01*
X253295Y273000D01*
X252822Y273472D01*
X252204Y273728D01*
X251969D01*
Y333728D01*
X287402D01*
X287406Y333729D01*
X289106Y333595D01*
D02*
G37*
%LPC*%
G36*
X154368Y326124D02*
X148231D01*
Y322956D01*
X154368D01*
Y326124D01*
D02*
G37*
G36*
X147831D02*
X141694D01*
Y322956D01*
X147831D01*
Y326124D01*
D02*
G37*
G36*
X139014D02*
X132877D01*
Y322956D01*
X139014D01*
Y326124D01*
D02*
G37*
G36*
X132477D02*
X126340D01*
Y322956D01*
X132477D01*
Y326124D01*
D02*
G37*
G36*
X123660D02*
X117523D01*
Y322956D01*
X123660D01*
Y326124D01*
D02*
G37*
G36*
X117123D02*
X110986D01*
Y322956D01*
X117123D01*
Y326124D01*
D02*
G37*
G36*
X108306D02*
X102169D01*
Y322956D01*
X108306D01*
Y326124D01*
D02*
G37*
G36*
X101769D02*
X95631D01*
Y322956D01*
X101769D01*
Y326124D01*
D02*
G37*
G36*
X45416Y327203D02*
X42247D01*
Y321066D01*
X45416D01*
Y327203D01*
D02*
G37*
G36*
X41847D02*
X38679D01*
Y321066D01*
X41847D01*
Y327203D01*
D02*
G37*
G36*
X206657Y326812D02*
Y320672D01*
X209854D01*
Y323441D01*
X209738Y324320D01*
X209399Y325140D01*
X208859Y325843D01*
X208155Y326383D01*
X207336Y326723D01*
X206657Y326812D01*
D02*
G37*
G36*
X206257D02*
X205577Y326723D01*
X204758Y326383D01*
X204054Y325843D01*
X203514Y325140D01*
X203175Y324320D01*
X203059Y323441D01*
Y320672D01*
X206257D01*
Y326812D01*
D02*
G37*
G36*
X154368Y322556D02*
X148231D01*
Y319387D01*
X154368D01*
Y322556D01*
D02*
G37*
G36*
X147831D02*
X141694D01*
Y319387D01*
X147831D01*
Y322556D01*
D02*
G37*
G36*
X139014D02*
X132877D01*
Y319387D01*
X139014D01*
Y322556D01*
D02*
G37*
G36*
X132477D02*
X126340D01*
Y319387D01*
X132477D01*
Y322556D01*
D02*
G37*
G36*
X123660D02*
X117523D01*
Y319387D01*
X123660D01*
Y322556D01*
D02*
G37*
G36*
X117123D02*
X110986D01*
Y319387D01*
X117123D01*
Y322556D01*
D02*
G37*
G36*
X108306D02*
X102169D01*
Y319387D01*
X108306D01*
Y322556D01*
D02*
G37*
G36*
X101769D02*
X95631D01*
Y319387D01*
X101769D01*
Y322556D01*
D02*
G37*
G36*
X240158Y320316D02*
X239502Y320186D01*
X238946Y319814D01*
X238574Y319258D01*
X238443Y318602D01*
X238574Y317947D01*
X238946Y317390D01*
X239502Y317019D01*
X240158Y316888D01*
X240813Y317019D01*
X241370Y317390D01*
X241741Y317947D01*
X241872Y318602D01*
X241741Y319258D01*
X241370Y319814D01*
X240813Y320186D01*
X240158Y320316D01*
D02*
G37*
G36*
X225984D02*
X225328Y320186D01*
X224772Y319814D01*
X224401Y319258D01*
X224270Y318602D01*
X224401Y317947D01*
X224772Y317390D01*
X225328Y317019D01*
X225984Y316888D01*
X226640Y317019D01*
X227196Y317390D01*
X227568Y317947D01*
X227698Y318602D01*
X227568Y319258D01*
X227196Y319814D01*
X226640Y320186D01*
X225984Y320316D01*
D02*
G37*
G36*
X84252D02*
X83596Y320186D01*
X83040Y319814D01*
X82668Y319258D01*
X82538Y318602D01*
X82668Y317947D01*
X83040Y317390D01*
X83596Y317019D01*
X84252Y316888D01*
X84908Y317019D01*
X85464Y317390D01*
X85836Y317947D01*
X85966Y318602D01*
X85836Y319258D01*
X85464Y319814D01*
X84908Y320186D01*
X84252Y320316D01*
D02*
G37*
G36*
X27559D02*
X26903Y320186D01*
X26347Y319814D01*
X25975Y319258D01*
X25845Y318602D01*
X25975Y317947D01*
X26347Y317390D01*
X26903Y317019D01*
X27559Y316888D01*
X28215Y317019D01*
X28771Y317390D01*
X29143Y317947D01*
X29273Y318602D01*
X29143Y319258D01*
X28771Y319814D01*
X28215Y320186D01*
X27559Y320316D01*
D02*
G37*
G36*
X14173Y326230D02*
X12683Y326034D01*
X11294Y325459D01*
X10102Y324544D01*
X9187Y323351D01*
X8612Y321963D01*
X8415Y320472D01*
X8612Y318982D01*
X9187Y317594D01*
X10102Y316401D01*
X11294Y315486D01*
X12683Y314911D01*
X14173Y314715D01*
X15664Y314911D01*
X17052Y315486D01*
X18245Y316401D01*
X19160Y317594D01*
X19735Y318982D01*
X19931Y320472D01*
X19735Y321963D01*
X19160Y323351D01*
X18245Y324544D01*
X17052Y325459D01*
X15664Y326034D01*
X14173Y326230D01*
D02*
G37*
G36*
X45416Y320666D02*
X42247D01*
Y314529D01*
X45416D01*
Y320666D01*
D02*
G37*
G36*
X41847D02*
X38679D01*
Y314529D01*
X41847D01*
Y320666D01*
D02*
G37*
G36*
X72047Y327232D02*
X71168Y327116D01*
X70349Y326777D01*
X69645Y326237D01*
X69105Y325533D01*
X68765Y324714D01*
X68650Y323835D01*
Y317898D01*
X68765Y317018D01*
X69105Y316199D01*
X69645Y315495D01*
X70349Y314955D01*
X71168Y314616D01*
X72047Y314500D01*
X72927Y314616D01*
X73746Y314955D01*
X74450Y315495D01*
X74990Y316199D01*
X75329Y317018D01*
X75445Y317898D01*
Y323835D01*
X75329Y324714D01*
X74990Y325533D01*
X74450Y326237D01*
X73746Y326777D01*
X72927Y327116D01*
X72047Y327232D01*
D02*
G37*
G36*
X62047D02*
X61168Y327116D01*
X60348Y326777D01*
X59645Y326237D01*
X59105Y325533D01*
X58765Y324714D01*
X58650Y323835D01*
Y317898D01*
X58765Y317018D01*
X59105Y316199D01*
X59645Y315495D01*
X60348Y314955D01*
X61168Y314616D01*
X62047Y314500D01*
X62927Y314616D01*
X63746Y314955D01*
X64450Y315495D01*
X64990Y316199D01*
X65329Y317018D01*
X65445Y317898D01*
Y323835D01*
X65329Y324714D01*
X64990Y325533D01*
X64450Y326237D01*
X63746Y326777D01*
X62927Y327116D01*
X62047Y327232D01*
D02*
G37*
G36*
X52047D02*
X51168Y327116D01*
X50349Y326777D01*
X49645Y326237D01*
X49105Y325533D01*
X48765Y324714D01*
X48650Y323835D01*
Y317898D01*
X48765Y317018D01*
X49105Y316199D01*
X49645Y315495D01*
X50349Y314955D01*
X51168Y314616D01*
X52047Y314500D01*
X52927Y314616D01*
X53746Y314955D01*
X54450Y315495D01*
X54990Y316199D01*
X55329Y317018D01*
X55445Y317898D01*
Y323835D01*
X55329Y324714D01*
X54990Y325533D01*
X54450Y326237D01*
X53746Y326777D01*
X52927Y327116D01*
X52047Y327232D01*
D02*
G37*
G36*
X169825Y326810D02*
X163088D01*
Y314135D01*
X169825D01*
Y326810D01*
D02*
G37*
G36*
X209854Y320272D02*
X206657D01*
Y314133D01*
X207336Y314222D01*
X208155Y314562D01*
X208859Y315102D01*
X209399Y315805D01*
X209738Y316625D01*
X209854Y317504D01*
Y320272D01*
D02*
G37*
G36*
X206257D02*
X203059D01*
Y317504D01*
X203175Y316625D01*
X203514Y315805D01*
X204054Y315102D01*
X204758Y314562D01*
X205577Y314222D01*
X206257Y314133D01*
Y320272D01*
D02*
G37*
G36*
X216457Y326838D02*
X215577Y326723D01*
X214758Y326383D01*
X214054Y325843D01*
X213514Y325140D01*
X213175Y324320D01*
X213059Y323441D01*
Y317504D01*
X213175Y316625D01*
X213514Y315805D01*
X214054Y315102D01*
X214758Y314562D01*
X215577Y314222D01*
X216457Y314106D01*
X217336Y314222D01*
X218156Y314562D01*
X218859Y315102D01*
X219399Y315805D01*
X219739Y316625D01*
X219854Y317504D01*
Y323441D01*
X219739Y324320D01*
X219399Y325140D01*
X218859Y325843D01*
X218156Y326383D01*
X217336Y326723D01*
X216457Y326838D01*
D02*
G37*
G36*
X196457D02*
X195577Y326723D01*
X194758Y326383D01*
X194054Y325843D01*
X193514Y325140D01*
X193175Y324320D01*
X193059Y323441D01*
Y317504D01*
X193175Y316625D01*
X193514Y315805D01*
X194054Y315102D01*
X194758Y314562D01*
X195577Y314222D01*
X196457Y314106D01*
X197336Y314222D01*
X198155Y314562D01*
X198859Y315102D01*
X199399Y315805D01*
X199739Y316625D01*
X199854Y317504D01*
Y323441D01*
X199739Y324320D01*
X199399Y325140D01*
X198859Y325843D01*
X198155Y326383D01*
X197336Y326723D01*
X196457Y326838D01*
D02*
G37*
G36*
X186457D02*
X185577Y326723D01*
X184758Y326383D01*
X184054Y325843D01*
X183514Y325140D01*
X183175Y324320D01*
X183059Y323441D01*
Y317504D01*
X183175Y316625D01*
X183514Y315805D01*
X184054Y315102D01*
X184758Y314562D01*
X185577Y314222D01*
X186457Y314106D01*
X187336Y314222D01*
X188155Y314562D01*
X188859Y315102D01*
X189399Y315805D01*
X189739Y316625D01*
X189854Y317504D01*
Y323441D01*
X189739Y324320D01*
X189399Y325140D01*
X188859Y325843D01*
X188155Y326383D01*
X187336Y326723D01*
X186457Y326838D01*
D02*
G37*
G36*
X176457D02*
X175577Y326723D01*
X174758Y326383D01*
X174054Y325843D01*
X173514Y325140D01*
X173175Y324320D01*
X173059Y323441D01*
Y317504D01*
X173175Y316625D01*
X173514Y315805D01*
X174054Y315102D01*
X174758Y314562D01*
X175577Y314222D01*
X176457Y314106D01*
X177336Y314222D01*
X178156Y314562D01*
X178859Y315102D01*
X179399Y315805D01*
X179738Y316625D01*
X179854Y317504D01*
Y323441D01*
X179738Y324320D01*
X179399Y325140D01*
X178859Y325843D01*
X178156Y326383D01*
X177336Y326723D01*
X176457Y326838D01*
D02*
G37*
G36*
X151000Y316154D02*
X145063D01*
X144184Y316038D01*
X143364Y315698D01*
X142660Y315158D01*
X142121Y314455D01*
X141781Y313635D01*
X141665Y312756D01*
X141781Y311877D01*
X142121Y311057D01*
X142660Y310353D01*
X143364Y309813D01*
X144184Y309474D01*
X145063Y309358D01*
X151000D01*
X151879Y309474D01*
X152699Y309813D01*
X153402Y310353D01*
X153942Y311057D01*
X154282Y311877D01*
X154398Y312756D01*
X154282Y313635D01*
X153942Y314455D01*
X153402Y315158D01*
X152699Y315698D01*
X151879Y316038D01*
X151000Y316154D01*
D02*
G37*
G36*
X135646D02*
X129709D01*
X128829Y316038D01*
X128010Y315698D01*
X127306Y315158D01*
X126766Y314455D01*
X126427Y313635D01*
X126311Y312756D01*
X126427Y311877D01*
X126766Y311057D01*
X127306Y310353D01*
X128010Y309813D01*
X128829Y309474D01*
X129709Y309358D01*
X135646D01*
X136525Y309474D01*
X137345Y309813D01*
X138048Y310353D01*
X138588Y311057D01*
X138927Y311877D01*
X139043Y312756D01*
X138927Y313635D01*
X138588Y314455D01*
X138048Y315158D01*
X137345Y315698D01*
X136525Y316038D01*
X135646Y316154D01*
D02*
G37*
G36*
X120291D02*
X114354D01*
X113475Y316038D01*
X112655Y315698D01*
X111952Y315158D01*
X111412Y314455D01*
X111073Y313635D01*
X110957Y312756D01*
X111073Y311877D01*
X111412Y311057D01*
X111952Y310353D01*
X112655Y309813D01*
X113475Y309474D01*
X114354Y309358D01*
X120291D01*
X121171Y309474D01*
X121990Y309813D01*
X122694Y310353D01*
X123234Y311057D01*
X123573Y311877D01*
X123689Y312756D01*
X123573Y313635D01*
X123234Y314455D01*
X122694Y315158D01*
X121990Y315698D01*
X121171Y316038D01*
X120291Y316154D01*
D02*
G37*
G36*
X104937D02*
X99000D01*
X98121Y316038D01*
X97301Y315698D01*
X96598Y315158D01*
X96058Y314455D01*
X95718Y313635D01*
X95602Y312756D01*
X95718Y311877D01*
X96058Y311057D01*
X96598Y310353D01*
X97301Y309813D01*
X98121Y309474D01*
X99000Y309358D01*
X104937D01*
X105816Y309474D01*
X106636Y309813D01*
X107340Y310353D01*
X107879Y311057D01*
X108219Y311877D01*
X108335Y312756D01*
X108219Y313635D01*
X107879Y314455D01*
X107340Y315158D01*
X106636Y315698D01*
X105816Y316038D01*
X104937Y316154D01*
D02*
G37*
G36*
X220116Y309195D02*
X213980D01*
Y306027D01*
X220116D01*
Y309195D01*
D02*
G37*
G36*
X213580D02*
X207442D01*
Y306027D01*
X213580D01*
Y309195D01*
D02*
G37*
G36*
X242126Y314419D02*
X240840Y314249D01*
X239641Y313753D01*
X238612Y312963D01*
X237822Y311934D01*
X237325Y310735D01*
X237156Y309449D01*
X237325Y308162D01*
X237822Y306964D01*
X238612Y305934D01*
X239641Y305145D01*
X240840Y304648D01*
X242126Y304479D01*
X243412Y304648D01*
X244611Y305145D01*
X245640Y305934D01*
X246430Y306964D01*
X246927Y308162D01*
X247096Y309449D01*
X246927Y310735D01*
X246430Y311934D01*
X245640Y312963D01*
X244611Y313753D01*
X243412Y314249D01*
X242126Y314419D01*
D02*
G37*
G36*
X225984Y306143D02*
X225328Y306013D01*
X224772Y305641D01*
X224401Y305085D01*
X224270Y304429D01*
X224401Y303773D01*
X224772Y303217D01*
X225328Y302846D01*
X225984Y302715D01*
X226640Y302846D01*
X227196Y303217D01*
X227568Y303773D01*
X227698Y304429D01*
X227568Y305085D01*
X227196Y305641D01*
X226640Y306013D01*
X225984Y306143D01*
D02*
G37*
G36*
X183465D02*
X182809Y306013D01*
X182253Y305641D01*
X181881Y305085D01*
X181751Y304429D01*
X181881Y303773D01*
X182253Y303217D01*
X182809Y302846D01*
X183465Y302715D01*
X184121Y302846D01*
X184677Y303217D01*
X185048Y303773D01*
X185179Y304429D01*
X185048Y305085D01*
X184677Y305641D01*
X184121Y306013D01*
X183465Y306143D01*
D02*
G37*
G36*
X84252D02*
X83596Y306013D01*
X83040Y305641D01*
X82668Y305085D01*
X82538Y304429D01*
X82668Y303773D01*
X83040Y303217D01*
X83596Y302846D01*
X84252Y302715D01*
X84908Y302846D01*
X85464Y303217D01*
X85836Y303773D01*
X85966Y304429D01*
X85836Y305085D01*
X85464Y305641D01*
X84908Y306013D01*
X84252Y306143D01*
D02*
G37*
G36*
X220116Y305627D02*
X213980D01*
Y302458D01*
X220116D01*
Y305627D01*
D02*
G37*
G36*
X213580D02*
X207442D01*
Y302458D01*
X213580D01*
Y305627D01*
D02*
G37*
G36*
X201575Y302895D02*
X200919Y302765D01*
X200363Y302393D01*
X199991Y301837D01*
X199861Y301181D01*
X199991Y300525D01*
X200363Y299969D01*
X200919Y299598D01*
X201575Y299467D01*
X202231Y299598D01*
X202787Y299969D01*
X203158Y300525D01*
X203289Y301181D01*
X203158Y301837D01*
X202787Y302393D01*
X202231Y302765D01*
X201575Y302895D01*
D02*
G37*
G36*
X151000Y306153D02*
X145063D01*
X144184Y306038D01*
X143364Y305698D01*
X142660Y305158D01*
X142121Y304455D01*
X141781Y303635D01*
X141665Y302756D01*
X141781Y301876D01*
X142121Y301057D01*
X142660Y300354D01*
X143364Y299814D01*
X144184Y299474D01*
X145063Y299358D01*
X151000D01*
X151879Y299474D01*
X152699Y299814D01*
X153402Y300354D01*
X153942Y301057D01*
X154282Y301876D01*
X154398Y302756D01*
X154282Y303635D01*
X153942Y304455D01*
X153402Y305158D01*
X152699Y305698D01*
X151879Y306038D01*
X151000Y306153D01*
D02*
G37*
G36*
X135646D02*
X129709D01*
X128829Y306038D01*
X128010Y305698D01*
X127306Y305158D01*
X126766Y304455D01*
X126427Y303635D01*
X126311Y302756D01*
X126427Y301876D01*
X126766Y301057D01*
X127306Y300354D01*
X128010Y299814D01*
X128829Y299474D01*
X129709Y299358D01*
X135646D01*
X136525Y299474D01*
X137345Y299814D01*
X138048Y300354D01*
X138588Y301057D01*
X138927Y301876D01*
X139043Y302756D01*
X138927Y303635D01*
X138588Y304455D01*
X138048Y305158D01*
X137345Y305698D01*
X136525Y306038D01*
X135646Y306153D01*
D02*
G37*
G36*
X120291D02*
X114354D01*
X113475Y306038D01*
X112655Y305698D01*
X111952Y305158D01*
X111412Y304455D01*
X111073Y303635D01*
X110957Y302756D01*
X111073Y301876D01*
X111412Y301057D01*
X111952Y300354D01*
X112655Y299814D01*
X113475Y299474D01*
X114354Y299358D01*
X120291D01*
X121171Y299474D01*
X121990Y299814D01*
X122694Y300354D01*
X123234Y301057D01*
X123573Y301876D01*
X123689Y302756D01*
X123573Y303635D01*
X123234Y304455D01*
X122694Y305158D01*
X121990Y305698D01*
X121171Y306038D01*
X120291Y306153D01*
D02*
G37*
G36*
X104937D02*
X99000D01*
X98121Y306038D01*
X97301Y305698D01*
X96598Y305158D01*
X96058Y304455D01*
X95718Y303635D01*
X95602Y302756D01*
X95718Y301876D01*
X96058Y301057D01*
X96598Y300354D01*
X97301Y299814D01*
X98121Y299474D01*
X99000Y299358D01*
X104937D01*
X105816Y299474D01*
X106636Y299814D01*
X107340Y300354D01*
X107879Y301057D01*
X108219Y301876D01*
X108335Y302756D01*
X108219Y303635D01*
X107879Y304455D01*
X107340Y305158D01*
X106636Y305698D01*
X105816Y306038D01*
X104937Y306153D01*
D02*
G37*
G36*
X25397Y305159D02*
Y299019D01*
X28594D01*
Y301787D01*
X28479Y302667D01*
X28139Y303486D01*
X27599Y304190D01*
X26896Y304730D01*
X26076Y305069D01*
X25397Y305159D01*
D02*
G37*
G36*
X24997D02*
X24317Y305069D01*
X23498Y304730D01*
X22794Y304190D01*
X22254Y303486D01*
X21915Y302667D01*
X21799Y301787D01*
Y299019D01*
X24997D01*
Y305159D01*
D02*
G37*
G36*
X68565Y305156D02*
X61828D01*
Y292482D01*
X68565D01*
Y305156D01*
D02*
G37*
G36*
X28594Y298619D02*
X25397D01*
Y292479D01*
X26076Y292569D01*
X26896Y292908D01*
X27599Y293448D01*
X28139Y294152D01*
X28479Y294971D01*
X28594Y295850D01*
Y298619D01*
D02*
G37*
G36*
X24997D02*
X21799D01*
Y295850D01*
X21915Y294971D01*
X22254Y294152D01*
X22794Y293448D01*
X23498Y292908D01*
X24317Y292569D01*
X24997Y292479D01*
Y298619D01*
D02*
G37*
G36*
X55197Y305185D02*
X54317Y305069D01*
X53498Y304730D01*
X52794Y304190D01*
X52254Y303486D01*
X51915Y302667D01*
X51799Y301787D01*
Y295850D01*
X51915Y294971D01*
X52254Y294152D01*
X52794Y293448D01*
X53498Y292908D01*
X54317Y292569D01*
X55197Y292453D01*
X56076Y292569D01*
X56896Y292908D01*
X57599Y293448D01*
X58139Y294152D01*
X58479Y294971D01*
X58594Y295850D01*
Y301787D01*
X58479Y302667D01*
X58139Y303486D01*
X57599Y304190D01*
X56896Y304730D01*
X56076Y305069D01*
X55197Y305185D01*
D02*
G37*
G36*
X45197D02*
X44317Y305069D01*
X43498Y304730D01*
X42794Y304190D01*
X42254Y303486D01*
X41915Y302667D01*
X41799Y301787D01*
Y295850D01*
X41915Y294971D01*
X42254Y294152D01*
X42794Y293448D01*
X43498Y292908D01*
X44317Y292569D01*
X45197Y292453D01*
X46076Y292569D01*
X46896Y292908D01*
X47599Y293448D01*
X48139Y294152D01*
X48479Y294971D01*
X48594Y295850D01*
Y301787D01*
X48479Y302667D01*
X48139Y303486D01*
X47599Y304190D01*
X46896Y304730D01*
X46076Y305069D01*
X45197Y305185D01*
D02*
G37*
G36*
X35197D02*
X34317Y305069D01*
X33498Y304730D01*
X32794Y304190D01*
X32254Y303486D01*
X31915Y302667D01*
X31799Y301787D01*
Y295850D01*
X31915Y294971D01*
X32254Y294152D01*
X32794Y293448D01*
X33498Y292908D01*
X34317Y292569D01*
X35197Y292453D01*
X36076Y292569D01*
X36896Y292908D01*
X37599Y293448D01*
X38139Y294152D01*
X38479Y294971D01*
X38594Y295850D01*
Y301787D01*
X38479Y302667D01*
X38139Y303486D01*
X37599Y304190D01*
X36896Y304730D01*
X36076Y305069D01*
X35197Y305185D01*
D02*
G37*
G36*
X15197D02*
X14318Y305069D01*
X13498Y304730D01*
X12794Y304190D01*
X12254Y303486D01*
X11915Y302667D01*
X11799Y301787D01*
Y295850D01*
X11915Y294971D01*
X12254Y294152D01*
X12794Y293448D01*
X13498Y292908D01*
X14318Y292569D01*
X15197Y292453D01*
X16076Y292569D01*
X16896Y292908D01*
X17599Y293448D01*
X18139Y294152D01*
X18479Y294971D01*
X18594Y295850D01*
Y301787D01*
X18479Y302667D01*
X18139Y303486D01*
X17599Y304190D01*
X16896Y304730D01*
X16076Y305069D01*
X15197Y305185D01*
D02*
G37*
G36*
X216748Y299224D02*
X210811D01*
X209932Y299109D01*
X209112Y298769D01*
X208409Y298229D01*
X207869Y297526D01*
X207529Y296706D01*
X207414Y295827D01*
X207529Y294947D01*
X207869Y294128D01*
X208409Y293424D01*
X209112Y292884D01*
X209932Y292545D01*
X210811Y292429D01*
X216748D01*
X217627Y292545D01*
X218447Y292884D01*
X219150Y293424D01*
X219690Y294128D01*
X220030Y294947D01*
X220146Y295827D01*
X220030Y296706D01*
X219690Y297526D01*
X219150Y298229D01*
X218447Y298769D01*
X217627Y299109D01*
X216748Y299224D01*
D02*
G37*
G36*
X151000Y296153D02*
X145063D01*
X144184Y296038D01*
X143364Y295698D01*
X142660Y295158D01*
X142121Y294455D01*
X141781Y293635D01*
X141665Y292756D01*
X141781Y291877D01*
X142121Y291057D01*
X142660Y290353D01*
X143364Y289813D01*
X144184Y289474D01*
X145063Y289358D01*
X151000D01*
X151879Y289474D01*
X152699Y289813D01*
X153402Y290353D01*
X153942Y291057D01*
X154282Y291877D01*
X154398Y292756D01*
X154282Y293635D01*
X153942Y294455D01*
X153402Y295158D01*
X152699Y295698D01*
X151879Y296038D01*
X151000Y296153D01*
D02*
G37*
G36*
X135646D02*
X129709D01*
X128829Y296038D01*
X128010Y295698D01*
X127306Y295158D01*
X126766Y294455D01*
X126427Y293635D01*
X126311Y292756D01*
X126427Y291877D01*
X126766Y291057D01*
X127306Y290353D01*
X128010Y289813D01*
X128829Y289474D01*
X129709Y289358D01*
X135646D01*
X136525Y289474D01*
X137345Y289813D01*
X138048Y290353D01*
X138588Y291057D01*
X138927Y291877D01*
X139043Y292756D01*
X138927Y293635D01*
X138588Y294455D01*
X138048Y295158D01*
X137345Y295698D01*
X136525Y296038D01*
X135646Y296153D01*
D02*
G37*
G36*
X120291D02*
X114354D01*
X113475Y296038D01*
X112655Y295698D01*
X111952Y295158D01*
X111412Y294455D01*
X111073Y293635D01*
X110957Y292756D01*
X111073Y291877D01*
X111412Y291057D01*
X111952Y290353D01*
X112655Y289813D01*
X113475Y289474D01*
X114354Y289358D01*
X120291D01*
X121171Y289474D01*
X121990Y289813D01*
X122694Y290353D01*
X123234Y291057D01*
X123573Y291877D01*
X123689Y292756D01*
X123573Y293635D01*
X123234Y294455D01*
X122694Y295158D01*
X121990Y295698D01*
X121171Y296038D01*
X120291Y296153D01*
D02*
G37*
G36*
X104937D02*
X99000D01*
X98121Y296038D01*
X97301Y295698D01*
X96598Y295158D01*
X96058Y294455D01*
X95718Y293635D01*
X95602Y292756D01*
X95718Y291877D01*
X96058Y291057D01*
X96598Y290353D01*
X97301Y289813D01*
X98121Y289474D01*
X99000Y289358D01*
X104937D01*
X105816Y289474D01*
X106636Y289813D01*
X107340Y290353D01*
X107879Y291057D01*
X108219Y291877D01*
X108335Y292756D01*
X108219Y293635D01*
X107879Y294455D01*
X107340Y295158D01*
X106636Y295698D01*
X105816Y296038D01*
X104937Y296153D01*
D02*
G37*
G36*
X225984Y291970D02*
X225328Y291840D01*
X224772Y291468D01*
X224401Y290912D01*
X224270Y290256D01*
X224401Y289600D01*
X224772Y289044D01*
X225328Y288672D01*
X225984Y288542D01*
X226640Y288672D01*
X227196Y289044D01*
X227568Y289600D01*
X227698Y290256D01*
X227568Y290912D01*
X227196Y291468D01*
X226640Y291840D01*
X225984Y291970D01*
D02*
G37*
G36*
X197638D02*
X196982Y291840D01*
X196426Y291468D01*
X196054Y290912D01*
X195924Y290256D01*
X196054Y289600D01*
X196426Y289044D01*
X196982Y288672D01*
X197638Y288542D01*
X198294Y288672D01*
X198850Y289044D01*
X199221Y289600D01*
X199352Y290256D01*
X199221Y290912D01*
X198850Y291468D01*
X198294Y291840D01*
X197638Y291970D01*
D02*
G37*
G36*
X183465D02*
X182809Y291840D01*
X182253Y291468D01*
X181881Y290912D01*
X181751Y290256D01*
X181881Y289600D01*
X182253Y289044D01*
X182809Y288672D01*
X183465Y288542D01*
X184121Y288672D01*
X184677Y289044D01*
X185048Y289600D01*
X185179Y290256D01*
X185048Y290912D01*
X184677Y291468D01*
X184121Y291840D01*
X183465Y291970D01*
D02*
G37*
G36*
X169291D02*
X168635Y291840D01*
X168079Y291468D01*
X167708Y290912D01*
X167577Y290256D01*
X167708Y289600D01*
X168079Y289044D01*
X168635Y288672D01*
X169291Y288542D01*
X169947Y288672D01*
X170503Y289044D01*
X170875Y289600D01*
X171005Y290256D01*
X170875Y290912D01*
X170503Y291468D01*
X169947Y291840D01*
X169291Y291970D01*
D02*
G37*
G36*
X84252D02*
X83596Y291840D01*
X83040Y291468D01*
X82668Y290912D01*
X82538Y290256D01*
X82668Y289600D01*
X83040Y289044D01*
X83596Y288672D01*
X84252Y288542D01*
X84908Y288672D01*
X85464Y289044D01*
X85836Y289600D01*
X85966Y290256D01*
X85836Y290912D01*
X85464Y291468D01*
X84908Y291840D01*
X84252Y291970D01*
D02*
G37*
G36*
X201575Y291872D02*
X200919Y291741D01*
X200363Y291370D01*
X199991Y290813D01*
X199861Y290158D01*
X199991Y289502D01*
X200363Y288946D01*
X200919Y288574D01*
X201575Y288443D01*
X202231Y288574D01*
X202787Y288946D01*
X203158Y289502D01*
X203289Y290158D01*
X203158Y290813D01*
X202787Y291370D01*
X202231Y291741D01*
X201575Y291872D01*
D02*
G37*
G36*
X248622Y286655D02*
X247966Y286525D01*
X247410Y286153D01*
X247039Y285597D01*
X246908Y284941D01*
X247039Y284285D01*
X247410Y283729D01*
X247966Y283357D01*
X248622Y283227D01*
X249278Y283357D01*
X249834Y283729D01*
X250206Y284285D01*
X250336Y284941D01*
X250206Y285597D01*
X249834Y286153D01*
X249278Y286525D01*
X248622Y286655D01*
D02*
G37*
G36*
X234055D02*
X233399Y286525D01*
X232843Y286153D01*
X232472Y285597D01*
X232341Y284941D01*
X232472Y284285D01*
X232843Y283729D01*
X233399Y283357D01*
X234055Y283227D01*
X234711Y283357D01*
X235267Y283729D01*
X235639Y284285D01*
X235769Y284941D01*
X235639Y285597D01*
X235267Y286153D01*
X234711Y286525D01*
X234055Y286655D01*
D02*
G37*
G36*
X216748Y289224D02*
X210811D01*
X209932Y289109D01*
X209112Y288769D01*
X208409Y288229D01*
X207869Y287526D01*
X207529Y286706D01*
X207414Y285827D01*
X207529Y284947D01*
X207869Y284128D01*
X208409Y283424D01*
X209112Y282884D01*
X209932Y282545D01*
X210811Y282429D01*
X216748D01*
X217627Y282545D01*
X218447Y282884D01*
X219150Y283424D01*
X219690Y284128D01*
X220030Y284947D01*
X220146Y285827D01*
X220030Y286706D01*
X219690Y287526D01*
X219150Y288229D01*
X218447Y288769D01*
X217627Y289109D01*
X216748Y289224D01*
D02*
G37*
G36*
X225984Y277797D02*
X225328Y277666D01*
X224772Y277295D01*
X224401Y276739D01*
X224270Y276083D01*
X224401Y275427D01*
X224772Y274871D01*
X225328Y274499D01*
X225984Y274369D01*
X226640Y274499D01*
X227196Y274871D01*
X227568Y275427D01*
X227698Y276083D01*
X227568Y276739D01*
X227196Y277295D01*
X226640Y277666D01*
X225984Y277797D01*
D02*
G37*
G36*
X183465D02*
X182809Y277666D01*
X182253Y277295D01*
X181881Y276739D01*
X181751Y276083D01*
X181881Y275427D01*
X182253Y274871D01*
X182809Y274499D01*
X183465Y274369D01*
X184121Y274499D01*
X184677Y274871D01*
X185048Y275427D01*
X185179Y276083D01*
X185048Y276739D01*
X184677Y277295D01*
X184121Y277666D01*
X183465Y277797D01*
D02*
G37*
G36*
X169291D02*
X168635Y277666D01*
X168079Y277295D01*
X167708Y276739D01*
X167577Y276083D01*
X167708Y275427D01*
X168079Y274871D01*
X168635Y274499D01*
X169291Y274369D01*
X169947Y274499D01*
X170503Y274871D01*
X170875Y275427D01*
X171005Y276083D01*
X170875Y276739D01*
X170503Y277295D01*
X169947Y277666D01*
X169291Y277797D01*
D02*
G37*
G36*
X155118D02*
X154462Y277666D01*
X153906Y277295D01*
X153535Y276739D01*
X153404Y276083D01*
X153535Y275427D01*
X153906Y274871D01*
X154462Y274499D01*
X155118Y274369D01*
X155774Y274499D01*
X156330Y274871D01*
X156702Y275427D01*
X156832Y276083D01*
X156702Y276739D01*
X156330Y277295D01*
X155774Y277666D01*
X155118Y277797D01*
D02*
G37*
G36*
X126772D02*
X126116Y277666D01*
X125560Y277295D01*
X125188Y276739D01*
X125058Y276083D01*
X125188Y275427D01*
X125560Y274871D01*
X126116Y274499D01*
X126772Y274369D01*
X127428Y274499D01*
X127984Y274871D01*
X128355Y275427D01*
X128486Y276083D01*
X128355Y276739D01*
X127984Y277295D01*
X127428Y277666D01*
X126772Y277797D01*
D02*
G37*
G36*
X112599D02*
X111943Y277666D01*
X111386Y277295D01*
X111015Y276739D01*
X110884Y276083D01*
X111015Y275427D01*
X111386Y274871D01*
X111943Y274499D01*
X112599Y274369D01*
X113254Y274499D01*
X113810Y274871D01*
X114182Y275427D01*
X114313Y276083D01*
X114182Y276739D01*
X113810Y277295D01*
X113254Y277666D01*
X112599Y277797D01*
D02*
G37*
G36*
X84252D02*
X83596Y277666D01*
X83040Y277295D01*
X82668Y276739D01*
X82538Y276083D01*
X82668Y275427D01*
X83040Y274871D01*
X83596Y274499D01*
X84252Y274369D01*
X84908Y274499D01*
X85464Y274871D01*
X85836Y275427D01*
X85966Y276083D01*
X85836Y276739D01*
X85464Y277295D01*
X84908Y277666D01*
X84252Y277797D01*
D02*
G37*
G36*
X216748Y279224D02*
X210811D01*
X209932Y279109D01*
X209112Y278769D01*
X208409Y278229D01*
X207869Y277526D01*
X207529Y276706D01*
X207414Y275827D01*
X207529Y274947D01*
X207869Y274128D01*
X208409Y273424D01*
X209112Y272884D01*
X209932Y272545D01*
X210811Y272429D01*
X216748D01*
X217627Y272545D01*
X218447Y272884D01*
X219150Y273424D01*
X219690Y274128D01*
X220030Y274947D01*
X220146Y275827D01*
X220030Y276706D01*
X219690Y277526D01*
X219150Y278229D01*
X218447Y278769D01*
X217627Y279109D01*
X216748Y279224D01*
D02*
G37*
G36*
X25397Y272481D02*
Y266342D01*
X28594D01*
Y269110D01*
X28479Y269990D01*
X28139Y270809D01*
X27599Y271513D01*
X26896Y272053D01*
X26076Y272392D01*
X25397Y272481D01*
D02*
G37*
G36*
X24997D02*
X24317Y272392D01*
X23498Y272053D01*
X22794Y271513D01*
X22254Y270809D01*
X21915Y269990D01*
X21799Y269110D01*
Y266342D01*
X24997D01*
Y272481D01*
D02*
G37*
G36*
X216748Y269224D02*
X210811D01*
X209932Y269109D01*
X209112Y268769D01*
X208409Y268229D01*
X207869Y267526D01*
X207529Y266706D01*
X207414Y265827D01*
X207529Y264947D01*
X207869Y264128D01*
X208409Y263424D01*
X209112Y262884D01*
X209932Y262545D01*
X210811Y262429D01*
X216748D01*
X217627Y262545D01*
X218447Y262884D01*
X219150Y263424D01*
X219690Y264128D01*
X220030Y264947D01*
X220146Y265827D01*
X220030Y266706D01*
X219690Y267526D01*
X219150Y268229D01*
X218447Y268769D01*
X217627Y269109D01*
X216748Y269224D01*
D02*
G37*
G36*
X225984Y263623D02*
X225328Y263493D01*
X224772Y263122D01*
X224401Y262565D01*
X224270Y261910D01*
X224401Y261254D01*
X224772Y260698D01*
X225328Y260326D01*
X225984Y260195D01*
X226640Y260326D01*
X227196Y260698D01*
X227568Y261254D01*
X227698Y261910D01*
X227568Y262565D01*
X227196Y263122D01*
X226640Y263493D01*
X225984Y263623D01*
D02*
G37*
G36*
X183465D02*
X182809Y263493D01*
X182253Y263122D01*
X181881Y262565D01*
X181751Y261910D01*
X181881Y261254D01*
X182253Y260698D01*
X182809Y260326D01*
X183465Y260195D01*
X184121Y260326D01*
X184677Y260698D01*
X185048Y261254D01*
X185179Y261910D01*
X185048Y262565D01*
X184677Y263122D01*
X184121Y263493D01*
X183465Y263623D01*
D02*
G37*
G36*
X169291D02*
X168635Y263493D01*
X168079Y263122D01*
X167708Y262565D01*
X167577Y261910D01*
X167708Y261254D01*
X168079Y260698D01*
X168635Y260326D01*
X169291Y260195D01*
X169947Y260326D01*
X170503Y260698D01*
X170875Y261254D01*
X171005Y261910D01*
X170875Y262565D01*
X170503Y263122D01*
X169947Y263493D01*
X169291Y263623D01*
D02*
G37*
G36*
X18565Y272479D02*
X11828D01*
Y259805D01*
X18565D01*
Y272479D01*
D02*
G37*
G36*
X28594Y265942D02*
X25397D01*
Y259802D01*
X26076Y259891D01*
X26896Y260231D01*
X27599Y260771D01*
X28139Y261474D01*
X28479Y262294D01*
X28594Y263173D01*
Y265942D01*
D02*
G37*
G36*
X24997D02*
X21799D01*
Y263173D01*
X21915Y262294D01*
X22254Y261474D01*
X22794Y260771D01*
X23498Y260231D01*
X24317Y259891D01*
X24997Y259802D01*
Y265942D01*
D02*
G37*
G36*
X45197Y272508D02*
X44317Y272392D01*
X43498Y272053D01*
X42794Y271513D01*
X42254Y270809D01*
X41915Y269990D01*
X41799Y269110D01*
Y263173D01*
X41915Y262294D01*
X42254Y261474D01*
X42794Y260771D01*
X43498Y260231D01*
X44317Y259891D01*
X45197Y259776D01*
X46076Y259891D01*
X46896Y260231D01*
X47599Y260771D01*
X48139Y261474D01*
X48479Y262294D01*
X48594Y263173D01*
Y269110D01*
X48479Y269990D01*
X48139Y270809D01*
X47599Y271513D01*
X46896Y272053D01*
X46076Y272392D01*
X45197Y272508D01*
D02*
G37*
G36*
X35197D02*
X34317Y272392D01*
X33498Y272053D01*
X32794Y271513D01*
X32254Y270809D01*
X31915Y269990D01*
X31799Y269110D01*
Y263173D01*
X31915Y262294D01*
X32254Y261474D01*
X32794Y260771D01*
X33498Y260231D01*
X34317Y259891D01*
X35197Y259776D01*
X36076Y259891D01*
X36896Y260231D01*
X37599Y260771D01*
X38139Y261474D01*
X38479Y262294D01*
X38594Y263173D01*
Y269110D01*
X38479Y269990D01*
X38139Y270809D01*
X37599Y271513D01*
X36896Y272053D01*
X36076Y272392D01*
X35197Y272508D01*
D02*
G37*
G36*
X156299Y262049D02*
X155643Y261918D01*
X155087Y261547D01*
X154716Y260991D01*
X154585Y260335D01*
X154716Y259679D01*
X155087Y259123D01*
X155643Y258751D01*
X156299Y258621D01*
X156955Y258751D01*
X157511Y259123D01*
X157883Y259679D01*
X158013Y260335D01*
X157883Y260991D01*
X157511Y261547D01*
X156955Y261918D01*
X156299Y262049D01*
D02*
G37*
G36*
X216748Y259224D02*
X210811D01*
X209932Y259109D01*
X209112Y258769D01*
X208409Y258229D01*
X207869Y257526D01*
X207529Y256706D01*
X207414Y255827D01*
X207529Y254947D01*
X207869Y254128D01*
X208409Y253424D01*
X209112Y252884D01*
X209932Y252545D01*
X210811Y252429D01*
X216748D01*
X217627Y252545D01*
X218447Y252884D01*
X219150Y253424D01*
X219690Y254128D01*
X220030Y254947D01*
X220146Y255827D01*
X220030Y256706D01*
X219690Y257526D01*
X219150Y258229D01*
X218447Y258769D01*
X217627Y259109D01*
X216748Y259224D01*
D02*
G37*
G36*
X25397Y257127D02*
Y250987D01*
X28594D01*
Y253756D01*
X28479Y254635D01*
X28139Y255455D01*
X27599Y256158D01*
X26896Y256698D01*
X26076Y257038D01*
X25397Y257127D01*
D02*
G37*
G36*
X24997D02*
X24317Y257038D01*
X23498Y256698D01*
X22794Y256158D01*
X22254Y255455D01*
X21915Y254635D01*
X21799Y253756D01*
Y250987D01*
X24997D01*
Y257127D01*
D02*
G37*
G36*
X155905Y252108D02*
X155250Y251977D01*
X154693Y251606D01*
X154322Y251050D01*
X154192Y250394D01*
X154322Y249738D01*
X154693Y249182D01*
X155250Y248810D01*
X155905Y248680D01*
X156561Y248810D01*
X157117Y249182D01*
X157489Y249738D01*
X157620Y250394D01*
X157489Y251050D01*
X157117Y251606D01*
X156561Y251977D01*
X155905Y252108D01*
D02*
G37*
G36*
X160630Y251911D02*
X159974Y251780D01*
X159418Y251409D01*
X159046Y250853D01*
X158916Y250197D01*
X159046Y249541D01*
X159418Y248985D01*
X159974Y248613D01*
X160630Y248483D01*
X161286Y248613D01*
X161842Y248985D01*
X162214Y249541D01*
X162344Y250197D01*
X162214Y250853D01*
X161842Y251409D01*
X161286Y251780D01*
X160630Y251911D01*
D02*
G37*
G36*
X225984Y249450D02*
X225328Y249320D01*
X224772Y248948D01*
X224401Y248392D01*
X224270Y247736D01*
X224401Y247080D01*
X224772Y246524D01*
X225328Y246153D01*
X225984Y246022D01*
X226640Y246153D01*
X227196Y246524D01*
X227568Y247080D01*
X227698Y247736D01*
X227568Y248392D01*
X227196Y248948D01*
X226640Y249320D01*
X225984Y249450D01*
D02*
G37*
G36*
X183465D02*
X182809Y249320D01*
X182253Y248948D01*
X181881Y248392D01*
X181751Y247736D01*
X181881Y247080D01*
X182253Y246524D01*
X182809Y246153D01*
X183465Y246022D01*
X184121Y246153D01*
X184677Y246524D01*
X185048Y247080D01*
X185179Y247736D01*
X185048Y248392D01*
X184677Y248948D01*
X184121Y249320D01*
X183465Y249450D01*
D02*
G37*
G36*
X169291D02*
X168635Y249320D01*
X168079Y248948D01*
X167708Y248392D01*
X167577Y247736D01*
X167708Y247080D01*
X168079Y246524D01*
X168635Y246153D01*
X169291Y246022D01*
X169947Y246153D01*
X170503Y246524D01*
X170875Y247080D01*
X171005Y247736D01*
X170875Y248392D01*
X170503Y248948D01*
X169947Y249320D01*
X169291Y249450D01*
D02*
G37*
G36*
X112599D02*
X111943Y249320D01*
X111386Y248948D01*
X111015Y248392D01*
X110884Y247736D01*
X111015Y247080D01*
X111386Y246524D01*
X111943Y246153D01*
X112599Y246022D01*
X113254Y246153D01*
X113810Y246524D01*
X114182Y247080D01*
X114313Y247736D01*
X114182Y248392D01*
X113810Y248948D01*
X113254Y249320D01*
X112599Y249450D01*
D02*
G37*
G36*
X18565Y257124D02*
X11828D01*
Y244450D01*
X18565D01*
Y257124D01*
D02*
G37*
G36*
X28594Y250587D02*
X25397D01*
Y244448D01*
X26076Y244537D01*
X26896Y244877D01*
X27599Y245416D01*
X28139Y246120D01*
X28479Y246939D01*
X28594Y247819D01*
Y250587D01*
D02*
G37*
G36*
X24997D02*
X21799D01*
Y247819D01*
X21915Y246939D01*
X22254Y246120D01*
X22794Y245416D01*
X23498Y244877D01*
X24317Y244537D01*
X24997Y244448D01*
Y250587D01*
D02*
G37*
G36*
X45197Y257154D02*
X44317Y257038D01*
X43498Y256698D01*
X42794Y256158D01*
X42254Y255455D01*
X41915Y254635D01*
X41799Y253756D01*
Y247819D01*
X41915Y246939D01*
X42254Y246120D01*
X42794Y245416D01*
X43498Y244877D01*
X44317Y244537D01*
X45197Y244421D01*
X46076Y244537D01*
X46896Y244877D01*
X47599Y245416D01*
X48139Y246120D01*
X48479Y246939D01*
X48594Y247819D01*
Y253756D01*
X48479Y254635D01*
X48139Y255455D01*
X47599Y256158D01*
X46896Y256698D01*
X46076Y257038D01*
X45197Y257154D01*
D02*
G37*
G36*
X35197D02*
X34317Y257038D01*
X33498Y256698D01*
X32794Y256158D01*
X32254Y255455D01*
X31915Y254635D01*
X31799Y253756D01*
Y247819D01*
X31915Y246939D01*
X32254Y246120D01*
X32794Y245416D01*
X33498Y244877D01*
X34317Y244537D01*
X35197Y244421D01*
X36076Y244537D01*
X36896Y244877D01*
X37599Y245416D01*
X38139Y246120D01*
X38479Y246939D01*
X38594Y247819D01*
Y253756D01*
X38479Y254635D01*
X38139Y255455D01*
X37599Y256158D01*
X36896Y256698D01*
X36076Y257038D01*
X35197Y257154D01*
D02*
G37*
G36*
X216748Y249224D02*
X210811D01*
X209932Y249109D01*
X209112Y248769D01*
X208409Y248229D01*
X207869Y247526D01*
X207529Y246706D01*
X207414Y245827D01*
X207529Y244947D01*
X207869Y244128D01*
X208409Y243424D01*
X209112Y242884D01*
X209932Y242545D01*
X210811Y242429D01*
X216748D01*
X217627Y242545D01*
X218447Y242884D01*
X219150Y243424D01*
X219690Y244128D01*
X220030Y244947D01*
X220146Y245827D01*
X220030Y246706D01*
X219690Y247526D01*
X219150Y248229D01*
X218447Y248769D01*
X217627Y249109D01*
X216748Y249224D01*
D02*
G37*
G36*
X94134Y245277D02*
X93478Y245146D01*
X92922Y244775D01*
X92550Y244219D01*
X92420Y243563D01*
X92550Y242907D01*
X92922Y242351D01*
X93478Y241979D01*
X94134Y241849D01*
X94790Y241979D01*
X95346Y242351D01*
X95717Y242907D01*
X95848Y243563D01*
X95717Y244219D01*
X95346Y244775D01*
X94790Y245146D01*
X94134Y245277D01*
D02*
G37*
G36*
X92028Y238623D02*
X91372Y238493D01*
X90816Y238122D01*
X90638Y237856D01*
X90236Y237653D01*
X90011Y237748D01*
X89632Y238001D01*
X88976Y238131D01*
X88320Y238001D01*
X87764Y237629D01*
X87617Y237409D01*
X87427Y237393D01*
X87052Y237463D01*
X86743Y237925D01*
X86187Y238296D01*
X85532Y238427D01*
X84876Y238296D01*
X84320Y237925D01*
X83948Y237368D01*
X83817Y236713D01*
X83948Y236057D01*
X84320Y235501D01*
X84876Y235129D01*
X85532Y234999D01*
X86187Y235129D01*
X86743Y235501D01*
X86891Y235721D01*
X87081Y235736D01*
X87456Y235667D01*
X87764Y235205D01*
X88320Y234834D01*
X88976Y234703D01*
X89632Y234834D01*
X90188Y235205D01*
X90366Y235471D01*
X90768Y235674D01*
X90993Y235579D01*
X91372Y235326D01*
X92028Y235195D01*
X92684Y235326D01*
X93240Y235697D01*
X93611Y236253D01*
X93742Y236910D01*
X93611Y237565D01*
X93240Y238122D01*
X92684Y238493D01*
X92028Y238623D01*
D02*
G37*
G36*
X115256Y239411D02*
X114600Y239280D01*
X114044Y238909D01*
X113672Y238353D01*
X113542Y237697D01*
X113672Y237041D01*
X114044Y236485D01*
X114600Y236113D01*
X115256Y235983D01*
X115912Y236113D01*
X116468Y236485D01*
X116840Y237041D01*
X116970Y237697D01*
X116840Y238353D01*
X116468Y238909D01*
X115912Y239280D01*
X115256Y239411D01*
D02*
G37*
G36*
X130709Y242462D02*
X130053Y242332D01*
X129497Y241960D01*
X129125Y241404D01*
X128995Y240748D01*
X129125Y240092D01*
X129497Y239536D01*
X130053Y239164D01*
X130709Y239034D01*
X131365Y239164D01*
X131854Y239492D01*
X132183Y239294D01*
X132270Y239214D01*
X132144Y238583D01*
X132275Y237927D01*
X132646Y237371D01*
X133202Y236999D01*
X133858Y236869D01*
X134137Y236924D01*
X134562Y236499D01*
X134506Y236221D01*
X134637Y235564D01*
X135009Y235009D01*
X135564Y234637D01*
X136221Y234506D01*
X136876Y234637D01*
X137433Y235009D01*
X137804Y235564D01*
X137935Y236221D01*
X137804Y236876D01*
X137433Y237433D01*
X136876Y237804D01*
X136221Y237934D01*
X135942Y237879D01*
X135517Y238304D01*
X135572Y238583D01*
X135442Y239239D01*
X135070Y239795D01*
X134514Y240166D01*
X133858Y240297D01*
X133202Y240166D01*
X132713Y239839D01*
X132384Y240037D01*
X132297Y240117D01*
X132423Y240748D01*
X132292Y241404D01*
X131921Y241960D01*
X131365Y242332D01*
X130709Y242462D01*
D02*
G37*
G36*
X216766Y239243D02*
X210829D01*
X209950Y239127D01*
X209131Y238788D01*
X208427Y238248D01*
X207887Y237544D01*
X207547Y236725D01*
X207432Y235846D01*
X207547Y234966D01*
X207887Y234147D01*
X208427Y233443D01*
X209131Y232903D01*
X209950Y232564D01*
X210829Y232448D01*
X216766D01*
X217646Y232564D01*
X218465Y232903D01*
X219169Y233443D01*
X219709Y234147D01*
X220048Y234966D01*
X220164Y235846D01*
X220048Y236725D01*
X219709Y237544D01*
X219169Y238248D01*
X218465Y238788D01*
X217646Y239127D01*
X216766Y239243D01*
D02*
G37*
G36*
X225984Y235277D02*
X225328Y235147D01*
X224772Y234775D01*
X224401Y234219D01*
X224270Y233563D01*
X224401Y232907D01*
X224772Y232351D01*
X225328Y231979D01*
X225984Y231849D01*
X226640Y231979D01*
X227196Y232351D01*
X227568Y232907D01*
X227698Y233563D01*
X227568Y234219D01*
X227196Y234775D01*
X226640Y235147D01*
X225984Y235277D01*
D02*
G37*
G36*
X55905D02*
X55250Y235147D01*
X54694Y234775D01*
X54322Y234219D01*
X54191Y233563D01*
X54322Y232907D01*
X54694Y232351D01*
X55250Y231979D01*
X55905Y231849D01*
X56561Y231979D01*
X57117Y232351D01*
X57489Y232907D01*
X57620Y233563D01*
X57489Y234219D01*
X57117Y234775D01*
X56561Y235147D01*
X55905Y235277D01*
D02*
G37*
G36*
X68701Y235277D02*
X68045Y235146D01*
X67489Y234775D01*
X67117Y234219D01*
X66987Y233563D01*
X67117Y232907D01*
X67489Y232351D01*
X68045Y231979D01*
X68701Y231849D01*
X69357Y231979D01*
X69913Y232351D01*
X70284Y232907D01*
X70415Y233563D01*
X70284Y234219D01*
X69913Y234775D01*
X69357Y235146D01*
X68701Y235277D01*
D02*
G37*
G36*
X172146Y231045D02*
X171490Y230914D01*
X170934Y230543D01*
X170562Y229987D01*
X170432Y229331D01*
X170562Y228675D01*
X170934Y228119D01*
X171490Y227747D01*
X172146Y227617D01*
X172802Y227747D01*
X173358Y228119D01*
X173729Y228675D01*
X173860Y229331D01*
X173729Y229987D01*
X173358Y230543D01*
X172802Y230914D01*
X172146Y231045D01*
D02*
G37*
G36*
X31791Y229372D02*
X31135Y229241D01*
X30579Y228870D01*
X30208Y228313D01*
X30077Y227658D01*
X30208Y227002D01*
X30579Y226446D01*
X31135Y226074D01*
X31791Y225943D01*
X32447Y226074D01*
X33003Y226446D01*
X33375Y227002D01*
X33505Y227658D01*
X33375Y228313D01*
X33003Y228870D01*
X32447Y229241D01*
X31791Y229372D01*
D02*
G37*
G36*
X146752Y229076D02*
X146096Y228946D01*
X145540Y228574D01*
X145168Y228018D01*
X145038Y227362D01*
X145168Y226706D01*
X145540Y226150D01*
X146096Y225779D01*
X146752Y225648D01*
X147408Y225779D01*
X147964Y226150D01*
X148336Y226706D01*
X148466Y227362D01*
X148336Y228018D01*
X147964Y228574D01*
X147408Y228946D01*
X146752Y229076D01*
D02*
G37*
G36*
X216766Y229228D02*
X210829D01*
X209950Y229113D01*
X209131Y228773D01*
X208427Y228233D01*
X207887Y227530D01*
X207547Y226710D01*
X207432Y225831D01*
X207547Y224952D01*
X207887Y224132D01*
X208427Y223429D01*
X209131Y222888D01*
X209950Y222549D01*
X210829Y222433D01*
X216766D01*
X217646Y222549D01*
X218465Y222888D01*
X219169Y223429D01*
X219709Y224132D01*
X220048Y224952D01*
X220164Y225831D01*
X220048Y226710D01*
X219709Y227530D01*
X219169Y228233D01*
X218465Y228773D01*
X217646Y229113D01*
X216766Y229228D01*
D02*
G37*
G36*
X163189Y222679D02*
X162533Y222548D01*
X161977Y222177D01*
X161605Y221620D01*
X161475Y220965D01*
X161605Y220309D01*
X161977Y219753D01*
X162533Y219381D01*
X163189Y219250D01*
X163845Y219381D01*
X164401Y219753D01*
X164772Y220309D01*
X164903Y220965D01*
X164772Y221620D01*
X164401Y222177D01*
X163845Y222548D01*
X163189Y222679D01*
D02*
G37*
G36*
X59153Y222482D02*
X58498Y222351D01*
X57942Y221980D01*
X57570Y221424D01*
X57440Y220768D01*
X57570Y220112D01*
X57942Y219556D01*
X58498Y219184D01*
X59153Y219054D01*
X59809Y219184D01*
X60365Y219556D01*
X60737Y220112D01*
X60868Y220768D01*
X60737Y221424D01*
X60365Y221980D01*
X59809Y222351D01*
X59153Y222482D01*
D02*
G37*
G36*
X225984Y221104D02*
X225328Y220973D01*
X224772Y220602D01*
X224401Y220046D01*
X224270Y219390D01*
X224401Y218734D01*
X224772Y218178D01*
X225328Y217806D01*
X225984Y217676D01*
X226640Y217806D01*
X227196Y218178D01*
X227568Y218734D01*
X227698Y219390D01*
X227568Y220046D01*
X227196Y220602D01*
X226640Y220973D01*
X225984Y221104D01*
D02*
G37*
G36*
X183465D02*
X182809Y220973D01*
X182253Y220602D01*
X181881Y220046D01*
X181751Y219390D01*
X181881Y218734D01*
X182253Y218178D01*
X182809Y217806D01*
X183465Y217676D01*
X184121Y217806D01*
X184677Y218178D01*
X185048Y218734D01*
X185179Y219390D01*
X185048Y220046D01*
X184677Y220602D01*
X184121Y220973D01*
X183465Y221104D01*
D02*
G37*
G36*
X155118D02*
X154462Y220973D01*
X153906Y220602D01*
X153535Y220046D01*
X153404Y219390D01*
X153535Y218734D01*
X153906Y218178D01*
X154462Y217806D01*
X155118Y217676D01*
X155774Y217806D01*
X156330Y218178D01*
X156702Y218734D01*
X156832Y219390D01*
X156702Y220046D01*
X156330Y220602D01*
X155774Y220973D01*
X155118Y221104D01*
D02*
G37*
G36*
X126772D02*
X126116Y220973D01*
X125560Y220602D01*
X125188Y220046D01*
X125058Y219390D01*
X125188Y218734D01*
X125560Y218178D01*
X126116Y217806D01*
X126772Y217676D01*
X127428Y217806D01*
X127984Y218178D01*
X128355Y218734D01*
X128486Y219390D01*
X128355Y220046D01*
X127984Y220602D01*
X127428Y220973D01*
X126772Y221104D01*
D02*
G37*
G36*
X112599D02*
X111943Y220973D01*
X111386Y220602D01*
X111015Y220046D01*
X110884Y219390D01*
X111015Y218734D01*
X111386Y218178D01*
X111943Y217806D01*
X112599Y217676D01*
X113254Y217806D01*
X113810Y218178D01*
X114182Y218734D01*
X114313Y219390D01*
X114182Y220046D01*
X113810Y220602D01*
X113254Y220973D01*
X112599Y221104D01*
D02*
G37*
G36*
X98425D02*
X97769Y220973D01*
X97213Y220602D01*
X96842Y220046D01*
X96711Y219390D01*
X96842Y218734D01*
X97213Y218178D01*
X97769Y217806D01*
X98425Y217676D01*
X99081Y217806D01*
X99637Y218178D01*
X100009Y218734D01*
X100139Y219390D01*
X100009Y220046D01*
X99637Y220602D01*
X99081Y220973D01*
X98425Y221104D01*
D02*
G37*
G36*
X84252D02*
X83596Y220973D01*
X83040Y220602D01*
X82668Y220046D01*
X82538Y219390D01*
X82668Y218734D01*
X83040Y218178D01*
X83596Y217806D01*
X84252Y217676D01*
X84908Y217806D01*
X85464Y218178D01*
X85836Y218734D01*
X85966Y219390D01*
X85836Y220046D01*
X85464Y220602D01*
X84908Y220973D01*
X84252Y221104D01*
D02*
G37*
G36*
X18898Y220612D02*
X18242Y220481D01*
X17686Y220110D01*
X17314Y219554D01*
X17184Y218898D01*
X17314Y218242D01*
X17686Y217686D01*
X18242Y217314D01*
X18898Y217184D01*
X19554Y217314D01*
X20110Y217686D01*
X20481Y218242D01*
X20612Y218898D01*
X20481Y219554D01*
X20110Y220110D01*
X19554Y220481D01*
X18898Y220612D01*
D02*
G37*
G36*
X70990Y219726D02*
X70334Y219595D01*
X69778Y219224D01*
X69406Y218668D01*
X69276Y218012D01*
X69406Y217356D01*
X69778Y216800D01*
X70227Y216500D01*
X70295Y216102D01*
X70274Y215930D01*
X70048Y215779D01*
X69676Y215223D01*
X69546Y214567D01*
X69676Y213911D01*
X70048Y213355D01*
X70604Y212983D01*
X71260Y212853D01*
X71916Y212983D01*
X72472Y213355D01*
X72843Y213911D01*
X72974Y214567D01*
X72843Y215223D01*
X72472Y215779D01*
X72023Y216079D01*
X71955Y216477D01*
X71975Y216649D01*
X72202Y216800D01*
X72573Y217356D01*
X72704Y218012D01*
X72573Y218668D01*
X72202Y219224D01*
X71646Y219595D01*
X70990Y219726D01*
D02*
G37*
G36*
X216766Y219242D02*
X210829D01*
X209950Y219127D01*
X209131Y218787D01*
X208427Y218247D01*
X207887Y217544D01*
X207547Y216724D01*
X207432Y215845D01*
X207547Y214965D01*
X207887Y214146D01*
X208427Y213442D01*
X209131Y212902D01*
X209950Y212563D01*
X210829Y212447D01*
X216766D01*
X217646Y212563D01*
X218465Y212902D01*
X219169Y213442D01*
X219709Y214146D01*
X220048Y214965D01*
X220164Y215845D01*
X220048Y216724D01*
X219709Y217544D01*
X219169Y218247D01*
X218465Y218787D01*
X217646Y219127D01*
X216766Y219242D01*
D02*
G37*
G36*
X189075Y213919D02*
X188419Y213788D01*
X187863Y213417D01*
X187491Y212861D01*
X187361Y212205D01*
X187491Y211549D01*
X187863Y210993D01*
X188419Y210621D01*
X189075Y210491D01*
X189731Y210621D01*
X190287Y210993D01*
X190658Y211549D01*
X190789Y212205D01*
X190658Y212861D01*
X190287Y213417D01*
X189731Y213788D01*
X189075Y213919D01*
D02*
G37*
G36*
X155118Y206931D02*
X154462Y206800D01*
X153906Y206429D01*
X153535Y205873D01*
X153404Y205217D01*
X153535Y204561D01*
X153906Y204005D01*
X154462Y203633D01*
X155118Y203502D01*
X155774Y203633D01*
X156330Y204005D01*
X156702Y204561D01*
X156832Y205217D01*
X156702Y205873D01*
X156330Y206429D01*
X155774Y206800D01*
X155118Y206931D01*
D02*
G37*
G36*
X126772D02*
X126116Y206800D01*
X125560Y206429D01*
X125188Y205873D01*
X125058Y205217D01*
X125188Y204561D01*
X125560Y204005D01*
X126116Y203633D01*
X126772Y203502D01*
X127428Y203633D01*
X127984Y204005D01*
X128355Y204561D01*
X128486Y205217D01*
X128355Y205873D01*
X127984Y206429D01*
X127428Y206800D01*
X126772Y206931D01*
D02*
G37*
G36*
X112599D02*
X111943Y206800D01*
X111386Y206429D01*
X111015Y205873D01*
X110884Y205217D01*
X111015Y204561D01*
X111386Y204005D01*
X111943Y203633D01*
X112599Y203502D01*
X113254Y203633D01*
X113810Y204005D01*
X114182Y204561D01*
X114313Y205217D01*
X114182Y205873D01*
X113810Y206429D01*
X113254Y206800D01*
X112599Y206931D01*
D02*
G37*
G36*
X98425D02*
X97769Y206800D01*
X97213Y206429D01*
X96842Y205873D01*
X96711Y205217D01*
X96842Y204561D01*
X97213Y204005D01*
X97769Y203633D01*
X98425Y203502D01*
X99081Y203633D01*
X99637Y204005D01*
X100009Y204561D01*
X100139Y205217D01*
X100009Y205873D01*
X99637Y206429D01*
X99081Y206800D01*
X98425Y206931D01*
D02*
G37*
G36*
X84252D02*
X83596Y206800D01*
X83040Y206429D01*
X82668Y205873D01*
X82538Y205217D01*
X82668Y204561D01*
X83040Y204005D01*
X83596Y203633D01*
X84252Y203502D01*
X84908Y203633D01*
X85464Y204005D01*
X85836Y204561D01*
X85966Y205217D01*
X85836Y205873D01*
X85464Y206429D01*
X84908Y206800D01*
X84252Y206931D01*
D02*
G37*
G36*
X27559D02*
X26903Y206800D01*
X26347Y206429D01*
X25975Y205873D01*
X25845Y205217D01*
X25975Y204561D01*
X26347Y204005D01*
X26903Y203633D01*
X27559Y203502D01*
X28215Y203633D01*
X28771Y204005D01*
X29143Y204561D01*
X29273Y205217D01*
X29143Y205873D01*
X28771Y206429D01*
X28215Y206800D01*
X27559Y206931D01*
D02*
G37*
G36*
X13386D02*
X12730Y206800D01*
X12174Y206429D01*
X11802Y205873D01*
X11672Y205217D01*
X11802Y204561D01*
X12174Y204005D01*
X12730Y203633D01*
X13386Y203502D01*
X14042Y203633D01*
X14598Y204005D01*
X14969Y204561D01*
X15100Y205217D01*
X14969Y205873D01*
X14598Y206429D01*
X14042Y206800D01*
X13386Y206931D01*
D02*
G37*
G36*
X49114Y206734D02*
X48458Y206603D01*
X47902Y206232D01*
X47531Y205676D01*
X47400Y205020D01*
X47531Y204364D01*
X47902Y203808D01*
X48458Y203436D01*
X49114Y203306D01*
X49770Y203436D01*
X50326Y203808D01*
X50698Y204364D01*
X50828Y205020D01*
X50698Y205676D01*
X50326Y206232D01*
X49770Y206603D01*
X49114Y206734D01*
D02*
G37*
G36*
X188878Y204273D02*
X188222Y204143D01*
X187666Y203771D01*
X187294Y203215D01*
X187164Y202559D01*
X187294Y201903D01*
X187666Y201347D01*
X188222Y200975D01*
X188878Y200845D01*
X189534Y200975D01*
X190090Y201347D01*
X190462Y201903D01*
X190592Y202559D01*
X190462Y203215D01*
X190090Y203771D01*
X189534Y204143D01*
X188878Y204273D01*
D02*
G37*
G36*
X41339Y199746D02*
X40683Y199615D01*
X40127Y199243D01*
X39755Y198687D01*
X39625Y198031D01*
X39755Y197376D01*
X40127Y196819D01*
X40683Y196448D01*
X41339Y196318D01*
X41995Y196448D01*
X42551Y196819D01*
X42922Y197376D01*
X43053Y198031D01*
X42922Y198687D01*
X42551Y199243D01*
X41995Y199615D01*
X41339Y199746D01*
D02*
G37*
G36*
X71063Y199450D02*
X70407Y199320D01*
X69851Y198948D01*
X69479Y198392D01*
X69349Y197736D01*
X69479Y197080D01*
X69851Y196524D01*
X70407Y196153D01*
X71063Y196022D01*
X71719Y196153D01*
X72275Y196524D01*
X72647Y197080D01*
X72777Y197736D01*
X72647Y198392D01*
X72275Y198948D01*
X71719Y199320D01*
X71063Y199450D01*
D02*
G37*
G36*
X52953Y194529D02*
X52297Y194398D01*
X51741Y194027D01*
X51369Y193471D01*
X51239Y192815D01*
X51369Y192159D01*
X51741Y191603D01*
X52297Y191231D01*
X52953Y191101D01*
X53609Y191231D01*
X54165Y191603D01*
X54536Y192159D01*
X54667Y192815D01*
X54536Y193471D01*
X54165Y194027D01*
X53609Y194398D01*
X52953Y194529D01*
D02*
G37*
G36*
X197638Y192757D02*
X196982Y192627D01*
X196426Y192255D01*
X196054Y191699D01*
X195924Y191043D01*
X196054Y190387D01*
X196426Y189831D01*
X196982Y189460D01*
X197638Y189329D01*
X198294Y189460D01*
X198850Y189831D01*
X199221Y190387D01*
X199352Y191043D01*
X199221Y191699D01*
X198850Y192255D01*
X198294Y192627D01*
X197638Y192757D01*
D02*
G37*
G36*
X155118D02*
X154462Y192627D01*
X153906Y192255D01*
X153535Y191699D01*
X153404Y191043D01*
X153535Y190387D01*
X153906Y189831D01*
X154462Y189460D01*
X155118Y189329D01*
X155774Y189460D01*
X156330Y189831D01*
X156702Y190387D01*
X156832Y191043D01*
X156702Y191699D01*
X156330Y192255D01*
X155774Y192627D01*
X155118Y192757D01*
D02*
G37*
G36*
X126772D02*
X126116Y192627D01*
X125560Y192255D01*
X125188Y191699D01*
X125058Y191043D01*
X125188Y190387D01*
X125560Y189831D01*
X126116Y189460D01*
X126772Y189329D01*
X127428Y189460D01*
X127984Y189831D01*
X128355Y190387D01*
X128486Y191043D01*
X128355Y191699D01*
X127984Y192255D01*
X127428Y192627D01*
X126772Y192757D01*
D02*
G37*
G36*
X112599D02*
X111943Y192627D01*
X111386Y192255D01*
X111015Y191699D01*
X110884Y191043D01*
X111015Y190387D01*
X111386Y189831D01*
X111943Y189460D01*
X112599Y189329D01*
X113254Y189460D01*
X113810Y189831D01*
X114182Y190387D01*
X114313Y191043D01*
X114182Y191699D01*
X113810Y192255D01*
X113254Y192627D01*
X112599Y192757D01*
D02*
G37*
G36*
X98425D02*
X97769Y192627D01*
X97213Y192255D01*
X96842Y191699D01*
X96711Y191043D01*
X96842Y190387D01*
X97213Y189831D01*
X97769Y189460D01*
X98425Y189329D01*
X99081Y189460D01*
X99637Y189831D01*
X100009Y190387D01*
X100139Y191043D01*
X100009Y191699D01*
X99637Y192255D01*
X99081Y192627D01*
X98425Y192757D01*
D02*
G37*
G36*
X84252D02*
X83596Y192627D01*
X83040Y192255D01*
X82668Y191699D01*
X82538Y191043D01*
X82668Y190387D01*
X83040Y189831D01*
X83596Y189460D01*
X84252Y189329D01*
X84908Y189460D01*
X85464Y189831D01*
X85836Y190387D01*
X85966Y191043D01*
X85836Y191699D01*
X85464Y192255D01*
X84908Y192627D01*
X84252Y192757D01*
D02*
G37*
G36*
X41732D02*
X41076Y192627D01*
X40520Y192255D01*
X40149Y191699D01*
X40018Y191043D01*
X40149Y190387D01*
X40520Y189831D01*
X41076Y189460D01*
X41732Y189329D01*
X42388Y189460D01*
X42944Y189831D01*
X43316Y190387D01*
X43446Y191043D01*
X43316Y191699D01*
X42944Y192255D01*
X42388Y192627D01*
X41732Y192757D01*
D02*
G37*
G36*
X27559D02*
X26903Y192627D01*
X26347Y192255D01*
X25975Y191699D01*
X25845Y191043D01*
X25975Y190387D01*
X26347Y189831D01*
X26903Y189460D01*
X27559Y189329D01*
X28215Y189460D01*
X28771Y189831D01*
X29143Y190387D01*
X29273Y191043D01*
X29143Y191699D01*
X28771Y192255D01*
X28215Y192627D01*
X27559Y192757D01*
D02*
G37*
G36*
X13386D02*
X12730Y192627D01*
X12174Y192255D01*
X11802Y191699D01*
X11672Y191043D01*
X11802Y190387D01*
X12174Y189831D01*
X12730Y189460D01*
X13386Y189329D01*
X14042Y189460D01*
X14598Y189831D01*
X14969Y190387D01*
X15100Y191043D01*
X14969Y191699D01*
X14598Y192255D01*
X14042Y192627D01*
X13386Y192757D01*
D02*
G37*
G36*
X48819Y192659D02*
X48163Y192528D01*
X47607Y192157D01*
X47235Y191601D01*
X47105Y190945D01*
X47235Y190289D01*
X47607Y189733D01*
X48163Y189361D01*
X48819Y189231D01*
X49475Y189361D01*
X50031Y189733D01*
X50402Y190289D01*
X50533Y190945D01*
X50402Y191601D01*
X50031Y192157D01*
X49475Y192528D01*
X48819Y192659D01*
D02*
G37*
G36*
X71457Y195513D02*
X70801Y195383D01*
X70245Y195011D01*
X69873Y194455D01*
X69743Y193799D01*
X69873Y193143D01*
X70245Y192587D01*
X70801Y192216D01*
X70833Y192209D01*
X71063Y191654D01*
X70976Y191522D01*
X70845Y190866D01*
X70976Y190210D01*
X71347Y189654D01*
X71903Y189283D01*
X72559Y189152D01*
X73215Y189283D01*
X73771Y189654D01*
X74143Y190210D01*
X74273Y190866D01*
X74143Y191522D01*
X73771Y192078D01*
X73215Y192450D01*
X73182Y192456D01*
X72952Y193012D01*
X73040Y193143D01*
X73171Y193799D01*
X73040Y194455D01*
X72669Y195011D01*
X72113Y195383D01*
X71457Y195513D01*
D02*
G37*
G36*
X182480Y192462D02*
X181824Y192332D01*
X181268Y191960D01*
X180897Y191404D01*
X180766Y190748D01*
X180897Y190092D01*
X181268Y189536D01*
X181824Y189164D01*
X182480Y189034D01*
X183136Y189164D01*
X183692Y189536D01*
X184064Y190092D01*
X184194Y190748D01*
X184064Y191404D01*
X183692Y191960D01*
X183136Y192332D01*
X182480Y192462D01*
D02*
G37*
G36*
X18898Y184785D02*
X18242Y184654D01*
X17686Y184283D01*
X17314Y183727D01*
X17184Y183071D01*
X17314Y182415D01*
X17686Y181859D01*
X18242Y181487D01*
X18898Y181357D01*
X19554Y181487D01*
X20110Y181859D01*
X20481Y182415D01*
X20612Y183071D01*
X20481Y183727D01*
X20110Y184283D01*
X19554Y184654D01*
X18898Y184785D01*
D02*
G37*
G36*
X52658Y184293D02*
X52002Y184162D01*
X51446Y183791D01*
X51074Y183235D01*
X50943Y182579D01*
X51074Y181923D01*
X51446Y181367D01*
X52002Y180995D01*
X52658Y180865D01*
X53313Y180995D01*
X53869Y181367D01*
X54241Y181923D01*
X54372Y182579D01*
X54241Y183235D01*
X53869Y183791D01*
X53313Y184162D01*
X52658Y184293D01*
D02*
G37*
G36*
X182480Y180257D02*
X181824Y180127D01*
X181268Y179755D01*
X180897Y179199D01*
X180766Y178543D01*
X180897Y177887D01*
X181268Y177331D01*
X181824Y176960D01*
X182480Y176829D01*
X183136Y176960D01*
X183692Y177331D01*
X184064Y177887D01*
X184194Y178543D01*
X184064Y179199D01*
X183692Y179755D01*
X183136Y180127D01*
X182480Y180257D01*
D02*
G37*
G36*
X240158Y178584D02*
X239502Y178454D01*
X238946Y178082D01*
X238574Y177526D01*
X238443Y176870D01*
X238574Y176214D01*
X238946Y175658D01*
X239502Y175287D01*
X240158Y175156D01*
X240813Y175287D01*
X241370Y175658D01*
X241741Y176214D01*
X241872Y176870D01*
X241741Y177526D01*
X241370Y178082D01*
X240813Y178454D01*
X240158Y178584D01*
D02*
G37*
G36*
X197638D02*
X196982Y178454D01*
X196426Y178082D01*
X196054Y177526D01*
X195924Y176870D01*
X196054Y176214D01*
X196426Y175658D01*
X196982Y175287D01*
X197638Y175156D01*
X198294Y175287D01*
X198850Y175658D01*
X199221Y176214D01*
X199352Y176870D01*
X199221Y177526D01*
X198850Y178082D01*
X198294Y178454D01*
X197638Y178584D01*
D02*
G37*
G36*
X155118D02*
X154462Y178454D01*
X153906Y178082D01*
X153535Y177526D01*
X153404Y176870D01*
X153535Y176214D01*
X153906Y175658D01*
X154462Y175287D01*
X155118Y175156D01*
X155774Y175287D01*
X156330Y175658D01*
X156702Y176214D01*
X156832Y176870D01*
X156702Y177526D01*
X156330Y178082D01*
X155774Y178454D01*
X155118Y178584D01*
D02*
G37*
G36*
X126772D02*
X126116Y178454D01*
X125560Y178082D01*
X125188Y177526D01*
X125058Y176870D01*
X125188Y176214D01*
X125560Y175658D01*
X126116Y175287D01*
X126772Y175156D01*
X127428Y175287D01*
X127984Y175658D01*
X128355Y176214D01*
X128486Y176870D01*
X128355Y177526D01*
X127984Y178082D01*
X127428Y178454D01*
X126772Y178584D01*
D02*
G37*
G36*
X112599D02*
X111943Y178454D01*
X111386Y178082D01*
X111015Y177526D01*
X110884Y176870D01*
X111015Y176214D01*
X111386Y175658D01*
X111943Y175287D01*
X112599Y175156D01*
X113254Y175287D01*
X113810Y175658D01*
X114182Y176214D01*
X114313Y176870D01*
X114182Y177526D01*
X113810Y178082D01*
X113254Y178454D01*
X112599Y178584D01*
D02*
G37*
G36*
X98425D02*
X97769Y178454D01*
X97213Y178082D01*
X96842Y177526D01*
X96711Y176870D01*
X96842Y176214D01*
X97213Y175658D01*
X97769Y175287D01*
X98425Y175156D01*
X99081Y175287D01*
X99637Y175658D01*
X100009Y176214D01*
X100139Y176870D01*
X100009Y177526D01*
X99637Y178082D01*
X99081Y178454D01*
X98425Y178584D01*
D02*
G37*
G36*
X84252D02*
X83596Y178454D01*
X83040Y178082D01*
X82668Y177526D01*
X82538Y176870D01*
X82668Y176214D01*
X83040Y175658D01*
X83596Y175287D01*
X84252Y175156D01*
X84908Y175287D01*
X85464Y175658D01*
X85836Y176214D01*
X85966Y176870D01*
X85836Y177526D01*
X85464Y178082D01*
X84908Y178454D01*
X84252Y178584D01*
D02*
G37*
G36*
X74311Y174844D02*
X73655Y174714D01*
X73099Y174342D01*
X72728Y173786D01*
X72597Y173130D01*
X72728Y172474D01*
X73099Y171918D01*
X73655Y171546D01*
X74311Y171416D01*
X74967Y171546D01*
X75523Y171918D01*
X75895Y172474D01*
X76025Y173130D01*
X75895Y173786D01*
X75523Y174342D01*
X74967Y174714D01*
X74311Y174844D01*
D02*
G37*
G36*
X71752Y171694D02*
X71096Y171564D01*
X70540Y171192D01*
X70168Y170636D01*
X70038Y169980D01*
X70168Y169324D01*
X70540Y168768D01*
X71096Y168397D01*
X71752Y168266D01*
X72408Y168397D01*
X72964Y168768D01*
X73335Y169324D01*
X73466Y169980D01*
X73335Y170636D01*
X72964Y171192D01*
X72408Y171564D01*
X71752Y171694D01*
D02*
G37*
G36*
X52756Y170021D02*
X52100Y169891D01*
X51544Y169519D01*
X51172Y168963D01*
X51042Y168307D01*
X51172Y167651D01*
X51544Y167095D01*
X52100Y166724D01*
X52756Y166593D01*
X53412Y166724D01*
X53968Y167095D01*
X54339Y167651D01*
X54470Y168307D01*
X54339Y168963D01*
X53968Y169519D01*
X53412Y169891D01*
X52756Y170021D01*
D02*
G37*
G36*
X17126Y164608D02*
X16470Y164477D01*
X15914Y164106D01*
X15542Y163550D01*
X15412Y162894D01*
X15542Y162238D01*
X15914Y161682D01*
X16470Y161310D01*
X17126Y161180D01*
X17782Y161310D01*
X18338Y161682D01*
X18710Y162238D01*
X18840Y162894D01*
X18710Y163550D01*
X18338Y164106D01*
X17782Y164477D01*
X17126Y164608D01*
D02*
G37*
G36*
X225984Y164411D02*
X225328Y164280D01*
X224772Y163909D01*
X224401Y163353D01*
X224270Y162697D01*
X224401Y162041D01*
X224772Y161485D01*
X225328Y161113D01*
X225984Y160983D01*
X226640Y161113D01*
X227196Y161485D01*
X227568Y162041D01*
X227698Y162697D01*
X227568Y163353D01*
X227196Y163909D01*
X226640Y164280D01*
X225984Y164411D01*
D02*
G37*
G36*
X155118D02*
X154462Y164280D01*
X153906Y163909D01*
X153535Y163353D01*
X153404Y162697D01*
X153535Y162041D01*
X153906Y161485D01*
X154462Y161113D01*
X155118Y160983D01*
X155774Y161113D01*
X156330Y161485D01*
X156702Y162041D01*
X156832Y162697D01*
X156702Y163353D01*
X156330Y163909D01*
X155774Y164280D01*
X155118Y164411D01*
D02*
G37*
G36*
X126772D02*
X126116Y164280D01*
X125560Y163909D01*
X125188Y163353D01*
X125058Y162697D01*
X125188Y162041D01*
X125560Y161485D01*
X126116Y161113D01*
X126772Y160983D01*
X127428Y161113D01*
X127984Y161485D01*
X128355Y162041D01*
X128486Y162697D01*
X128355Y163353D01*
X127984Y163909D01*
X127428Y164280D01*
X126772Y164411D01*
D02*
G37*
G36*
X112599D02*
X111943Y164280D01*
X111386Y163909D01*
X111015Y163353D01*
X110884Y162697D01*
X111015Y162041D01*
X111386Y161485D01*
X111943Y161113D01*
X112599Y160983D01*
X113254Y161113D01*
X113810Y161485D01*
X114182Y162041D01*
X114313Y162697D01*
X114182Y163353D01*
X113810Y163909D01*
X113254Y164280D01*
X112599Y164411D01*
D02*
G37*
G36*
X98425D02*
X97769Y164280D01*
X97213Y163909D01*
X96842Y163353D01*
X96711Y162697D01*
X96842Y162041D01*
X97213Y161485D01*
X97769Y161113D01*
X98425Y160983D01*
X99081Y161113D01*
X99637Y161485D01*
X100009Y162041D01*
X100139Y162697D01*
X100009Y163353D01*
X99637Y163909D01*
X99081Y164280D01*
X98425Y164411D01*
D02*
G37*
G36*
X84252D02*
X83596Y164280D01*
X83040Y163909D01*
X82668Y163353D01*
X82538Y162697D01*
X82668Y162041D01*
X83040Y161485D01*
X83596Y161113D01*
X84252Y160983D01*
X84908Y161113D01*
X85464Y161485D01*
X85836Y162041D01*
X85966Y162697D01*
X85836Y163353D01*
X85464Y163909D01*
X84908Y164280D01*
X84252Y164411D01*
D02*
G37*
G36*
X41732D02*
X41076Y164280D01*
X40520Y163909D01*
X40149Y163353D01*
X40018Y162697D01*
X40149Y162041D01*
X40520Y161485D01*
X41076Y161113D01*
X41732Y160983D01*
X42388Y161113D01*
X42944Y161485D01*
X43316Y162041D01*
X43446Y162697D01*
X43316Y163353D01*
X42944Y163909D01*
X42388Y164280D01*
X41732Y164411D01*
D02*
G37*
G36*
X182776Y163427D02*
X182120Y163296D01*
X181564Y162925D01*
X181192Y162369D01*
X181062Y161713D01*
X181192Y161057D01*
X181564Y160501D01*
X182120Y160129D01*
X182776Y159999D01*
X183431Y160129D01*
X183988Y160501D01*
X184359Y161057D01*
X184490Y161713D01*
X184359Y162369D01*
X183988Y162925D01*
X183431Y163296D01*
X182776Y163427D01*
D02*
G37*
G36*
X71457Y161064D02*
X70801Y160934D01*
X70245Y160562D01*
X69873Y160006D01*
X69743Y159350D01*
X69873Y158695D01*
X70245Y158138D01*
X70801Y157767D01*
X71457Y157636D01*
X72113Y157767D01*
X72669Y158138D01*
X73040Y158695D01*
X73171Y159350D01*
X73040Y160006D01*
X72669Y160562D01*
X72113Y160934D01*
X71457Y161064D01*
D02*
G37*
G36*
X163779Y157915D02*
X163124Y157784D01*
X162567Y157413D01*
X162196Y156857D01*
X162065Y156201D01*
X162196Y155545D01*
X162567Y154989D01*
X162734Y154877D01*
Y154276D01*
X162567Y154165D01*
X162196Y153609D01*
X162065Y152953D01*
X162196Y152297D01*
X162567Y151741D01*
X162901Y151518D01*
Y150943D01*
X162567Y150720D01*
X162196Y150164D01*
X162065Y149508D01*
X162196Y148852D01*
X162567Y148296D01*
X163124Y147924D01*
X163779Y147794D01*
X164436Y147924D01*
X164991Y148296D01*
X165363Y148852D01*
X165494Y149508D01*
X165363Y150164D01*
X164991Y150720D01*
X164658Y150943D01*
Y151518D01*
X164991Y151741D01*
X165363Y152297D01*
X165494Y152953D01*
X165363Y153609D01*
X164991Y154165D01*
X164825Y154276D01*
Y154877D01*
X164991Y154989D01*
X165363Y155545D01*
X165494Y156201D01*
X165363Y156857D01*
X164991Y157413D01*
X164436Y157784D01*
X163779Y157915D01*
D02*
G37*
G36*
X240158Y150238D02*
X239502Y150107D01*
X238946Y149736D01*
X238574Y149180D01*
X238443Y148524D01*
X238574Y147868D01*
X238946Y147312D01*
X239502Y146940D01*
X240158Y146810D01*
X240813Y146940D01*
X241370Y147312D01*
X241741Y147868D01*
X241872Y148524D01*
X241741Y149180D01*
X241370Y149736D01*
X240813Y150107D01*
X240158Y150238D01*
D02*
G37*
G36*
X225984D02*
X225328Y150107D01*
X224772Y149736D01*
X224401Y149180D01*
X224270Y148524D01*
X224401Y147868D01*
X224772Y147312D01*
X225328Y146940D01*
X225984Y146810D01*
X226640Y146940D01*
X227196Y147312D01*
X227568Y147868D01*
X227698Y148524D01*
X227568Y149180D01*
X227196Y149736D01*
X226640Y150107D01*
X225984Y150238D01*
D02*
G37*
G36*
X211811D02*
X211155Y150107D01*
X210599Y149736D01*
X210227Y149180D01*
X210097Y148524D01*
X210227Y147868D01*
X210599Y147312D01*
X211155Y146940D01*
X211811Y146810D01*
X212467Y146940D01*
X213023Y147312D01*
X213395Y147868D01*
X213525Y148524D01*
X213395Y149180D01*
X213023Y149736D01*
X212467Y150107D01*
X211811Y150238D01*
D02*
G37*
G36*
X197638D02*
X196982Y150107D01*
X196426Y149736D01*
X196054Y149180D01*
X195924Y148524D01*
X196054Y147868D01*
X196426Y147312D01*
X196982Y146940D01*
X197638Y146810D01*
X198294Y146940D01*
X198850Y147312D01*
X199221Y147868D01*
X199352Y148524D01*
X199221Y149180D01*
X198850Y149736D01*
X198294Y150107D01*
X197638Y150238D01*
D02*
G37*
G36*
X155118D02*
X154462Y150107D01*
X153906Y149736D01*
X153535Y149180D01*
X153404Y148524D01*
X153535Y147868D01*
X153906Y147312D01*
X154462Y146940D01*
X155118Y146810D01*
X155774Y146940D01*
X156330Y147312D01*
X156702Y147868D01*
X156832Y148524D01*
X156702Y149180D01*
X156330Y149736D01*
X155774Y150107D01*
X155118Y150238D01*
D02*
G37*
G36*
X126772D02*
X126116Y150107D01*
X125560Y149736D01*
X125188Y149180D01*
X125058Y148524D01*
X125188Y147868D01*
X125560Y147312D01*
X126116Y146940D01*
X126772Y146810D01*
X127428Y146940D01*
X127984Y147312D01*
X128355Y147868D01*
X128486Y148524D01*
X128355Y149180D01*
X127984Y149736D01*
X127428Y150107D01*
X126772Y150238D01*
D02*
G37*
G36*
X112599D02*
X111943Y150107D01*
X111386Y149736D01*
X111015Y149180D01*
X110884Y148524D01*
X111015Y147868D01*
X111386Y147312D01*
X111943Y146940D01*
X112599Y146810D01*
X113254Y146940D01*
X113810Y147312D01*
X114182Y147868D01*
X114313Y148524D01*
X114182Y149180D01*
X113810Y149736D01*
X113254Y150107D01*
X112599Y150238D01*
D02*
G37*
G36*
X98425D02*
X97769Y150107D01*
X97213Y149736D01*
X96842Y149180D01*
X96711Y148524D01*
X96842Y147868D01*
X97213Y147312D01*
X97769Y146940D01*
X98425Y146810D01*
X99081Y146940D01*
X99637Y147312D01*
X100009Y147868D01*
X100139Y148524D01*
X100009Y149180D01*
X99637Y149736D01*
X99081Y150107D01*
X98425Y150238D01*
D02*
G37*
G36*
X84252D02*
X83596Y150107D01*
X83040Y149736D01*
X82668Y149180D01*
X82538Y148524D01*
X82668Y147868D01*
X83040Y147312D01*
X83596Y146940D01*
X84252Y146810D01*
X84908Y146940D01*
X85464Y147312D01*
X85836Y147868D01*
X85966Y148524D01*
X85836Y149180D01*
X85464Y149736D01*
X84908Y150107D01*
X84252Y150238D01*
D02*
G37*
G36*
X27559D02*
X26903Y150107D01*
X26347Y149736D01*
X25975Y149180D01*
X25845Y148524D01*
X25975Y147868D01*
X26347Y147312D01*
X26903Y146940D01*
X27559Y146810D01*
X28215Y146940D01*
X28771Y147312D01*
X29143Y147868D01*
X29273Y148524D01*
X29143Y149180D01*
X28771Y149736D01*
X28215Y150107D01*
X27559Y150238D01*
D02*
G37*
G36*
X182776Y149549D02*
X182120Y149418D01*
X181564Y149047D01*
X181192Y148491D01*
X181062Y147835D01*
X181192Y147179D01*
X181564Y146623D01*
X182120Y146251D01*
X182776Y146121D01*
X183431Y146251D01*
X183988Y146623D01*
X184359Y147179D01*
X184490Y147835D01*
X184359Y148491D01*
X183988Y149047D01*
X183431Y149418D01*
X182776Y149549D01*
D02*
G37*
G36*
X19783Y149056D02*
X19128Y148926D01*
X18572Y148555D01*
X18200Y147998D01*
X18069Y147343D01*
X18200Y146687D01*
X18572Y146131D01*
X19128Y145759D01*
X19783Y145628D01*
X20439Y145759D01*
X20996Y146131D01*
X21367Y146687D01*
X21497Y147343D01*
X21367Y147998D01*
X20996Y148555D01*
X20439Y148926D01*
X19783Y149056D01*
D02*
G37*
G36*
X191535Y145710D02*
X190879Y145580D01*
X190323Y145208D01*
X189952Y144652D01*
X189821Y143996D01*
X189952Y143340D01*
X190323Y142784D01*
X190879Y142412D01*
X191535Y142282D01*
X192191Y142412D01*
X192747Y142784D01*
X193119Y143340D01*
X193249Y143996D01*
X193119Y144652D01*
X192747Y145208D01*
X192191Y145580D01*
X191535Y145710D01*
D02*
G37*
G36*
X225984Y136065D02*
X225328Y135934D01*
X224772Y135562D01*
X224401Y135006D01*
X224270Y134350D01*
X224401Y133695D01*
X224772Y133138D01*
X225328Y132767D01*
X225984Y132636D01*
X226640Y132767D01*
X227196Y133138D01*
X227568Y133695D01*
X227698Y134350D01*
X227568Y135006D01*
X227196Y135562D01*
X226640Y135934D01*
X225984Y136065D01*
D02*
G37*
G36*
X155118D02*
X154462Y135934D01*
X153906Y135562D01*
X153535Y135006D01*
X153404Y134350D01*
X153535Y133695D01*
X153906Y133138D01*
X154462Y132767D01*
X155118Y132636D01*
X155774Y132767D01*
X156330Y133138D01*
X156702Y133695D01*
X156832Y134350D01*
X156702Y135006D01*
X156330Y135562D01*
X155774Y135934D01*
X155118Y136065D01*
D02*
G37*
G36*
X126772D02*
X126116Y135934D01*
X125560Y135562D01*
X125188Y135006D01*
X125058Y134350D01*
X125188Y133695D01*
X125560Y133138D01*
X126116Y132767D01*
X126772Y132636D01*
X127428Y132767D01*
X127984Y133138D01*
X128355Y133695D01*
X128486Y134350D01*
X128355Y135006D01*
X127984Y135562D01*
X127428Y135934D01*
X126772Y136065D01*
D02*
G37*
G36*
X112599D02*
X111943Y135934D01*
X111386Y135562D01*
X111015Y135006D01*
X110884Y134350D01*
X111015Y133695D01*
X111386Y133138D01*
X111943Y132767D01*
X112599Y132636D01*
X113254Y132767D01*
X113810Y133138D01*
X114182Y133695D01*
X114313Y134350D01*
X114182Y135006D01*
X113810Y135562D01*
X113254Y135934D01*
X112599Y136065D01*
D02*
G37*
G36*
X98425D02*
X97769Y135934D01*
X97213Y135562D01*
X96842Y135006D01*
X96711Y134350D01*
X96842Y133695D01*
X97213Y133138D01*
X97769Y132767D01*
X98425Y132636D01*
X99081Y132767D01*
X99637Y133138D01*
X100009Y133695D01*
X100139Y134350D01*
X100009Y135006D01*
X99637Y135562D01*
X99081Y135934D01*
X98425Y136065D01*
D02*
G37*
G36*
X84252D02*
X83596Y135934D01*
X83040Y135562D01*
X82668Y135006D01*
X82538Y134350D01*
X82668Y133695D01*
X83040Y133138D01*
X83596Y132767D01*
X84252Y132636D01*
X84908Y132767D01*
X85464Y133138D01*
X85836Y133695D01*
X85966Y134350D01*
X85836Y135006D01*
X85464Y135562D01*
X84908Y135934D01*
X84252Y136065D01*
D02*
G37*
G36*
X70079D02*
X69423Y135934D01*
X68867Y135562D01*
X68495Y135006D01*
X68365Y134350D01*
X68495Y133695D01*
X68867Y133138D01*
X69423Y132767D01*
X70079Y132636D01*
X70735Y132767D01*
X71291Y133138D01*
X71662Y133695D01*
X71793Y134350D01*
X71662Y135006D01*
X71291Y135562D01*
X70735Y135934D01*
X70079Y136065D01*
D02*
G37*
G36*
X13386D02*
X12730Y135934D01*
X12174Y135562D01*
X11802Y135006D01*
X11672Y134350D01*
X11802Y133695D01*
X12174Y133138D01*
X12730Y132767D01*
X13386Y132636D01*
X14042Y132767D01*
X14598Y133138D01*
X14969Y133695D01*
X15100Y134350D01*
X14969Y135006D01*
X14598Y135562D01*
X14042Y135934D01*
X13386Y136065D01*
D02*
G37*
G36*
X140650Y136753D02*
X139994Y136623D01*
X139438Y136251D01*
X139066Y135695D01*
X138936Y135039D01*
X139066Y134383D01*
X139438Y133827D01*
X139994Y133456D01*
X140650Y133325D01*
X141305Y133456D01*
X141862Y133827D01*
X142353Y133662D01*
X142489Y133459D01*
X143045Y133087D01*
X143701Y132957D01*
X144357Y133087D01*
X144913Y133459D01*
X145094Y133730D01*
X145695D01*
X145748Y133652D01*
X146304Y133280D01*
X146960Y133150D01*
X147432Y133243D01*
X147750Y133119D01*
X147938Y132894D01*
X148035Y132403D01*
X148407Y131846D01*
X148963Y131475D01*
X149619Y131344D01*
X150275Y131475D01*
X150831Y131846D01*
X151202Y132403D01*
X151333Y133059D01*
X151202Y133714D01*
X150831Y134271D01*
X150275Y134642D01*
X149619Y134773D01*
X149147Y134679D01*
X148829Y134803D01*
X148641Y135029D01*
X148544Y135520D01*
X148172Y136076D01*
X147616Y136447D01*
X146960Y136578D01*
X146304Y136447D01*
X145748Y136076D01*
X145567Y135804D01*
X144965D01*
X144913Y135883D01*
X144357Y136254D01*
X143701Y136385D01*
X143045Y136254D01*
X142489Y135883D01*
X141998Y136048D01*
X141862Y136251D01*
X141305Y136623D01*
X140650Y136753D01*
D02*
G37*
G36*
X189969Y133840D02*
X189313Y133709D01*
X188757Y133338D01*
X188385Y132782D01*
X188254Y132126D01*
X188385Y131470D01*
X188757Y130914D01*
X189313Y130542D01*
X189969Y130412D01*
X190624Y130542D01*
X191181Y130914D01*
X191552Y131470D01*
X191683Y132126D01*
X191552Y132782D01*
X191181Y133338D01*
X190624Y133709D01*
X189969Y133840D01*
D02*
G37*
G36*
X240158Y121891D02*
X239502Y121761D01*
X238946Y121389D01*
X238574Y120833D01*
X238443Y120177D01*
X238574Y119521D01*
X238946Y118965D01*
X239502Y118594D01*
X240158Y118463D01*
X240813Y118594D01*
X241370Y118965D01*
X241741Y119521D01*
X241872Y120177D01*
X241741Y120833D01*
X241370Y121389D01*
X240813Y121761D01*
X240158Y121891D01*
D02*
G37*
G36*
X211811D02*
X211155Y121761D01*
X210599Y121389D01*
X210227Y120833D01*
X210097Y120177D01*
X210227Y119521D01*
X210599Y118965D01*
X211155Y118594D01*
X211811Y118463D01*
X212467Y118594D01*
X213023Y118965D01*
X213395Y119521D01*
X213525Y120177D01*
X213395Y120833D01*
X213023Y121389D01*
X212467Y121761D01*
X211811Y121891D01*
D02*
G37*
G36*
X197638D02*
X196982Y121761D01*
X196426Y121389D01*
X196054Y120833D01*
X195924Y120177D01*
X196054Y119521D01*
X196426Y118965D01*
X196982Y118594D01*
X197638Y118463D01*
X198294Y118594D01*
X198850Y118965D01*
X199221Y119521D01*
X199352Y120177D01*
X199221Y120833D01*
X198850Y121389D01*
X198294Y121761D01*
X197638Y121891D01*
D02*
G37*
G36*
X183465D02*
X182809Y121761D01*
X182253Y121389D01*
X181881Y120833D01*
X181751Y120177D01*
X181881Y119521D01*
X182253Y118965D01*
X182809Y118594D01*
X183465Y118463D01*
X184121Y118594D01*
X184677Y118965D01*
X185048Y119521D01*
X185179Y120177D01*
X185048Y120833D01*
X184677Y121389D01*
X184121Y121761D01*
X183465Y121891D01*
D02*
G37*
G36*
X169291D02*
X168635Y121761D01*
X168079Y121389D01*
X167708Y120833D01*
X167577Y120177D01*
X167708Y119521D01*
X168079Y118965D01*
X168635Y118594D01*
X169291Y118463D01*
X169947Y118594D01*
X170503Y118965D01*
X170875Y119521D01*
X171005Y120177D01*
X170875Y120833D01*
X170503Y121389D01*
X169947Y121761D01*
X169291Y121891D01*
D02*
G37*
G36*
X27559D02*
X26903Y121761D01*
X26347Y121389D01*
X25975Y120833D01*
X25845Y120177D01*
X25975Y119521D01*
X26347Y118965D01*
X26903Y118594D01*
X27559Y118463D01*
X28215Y118594D01*
X28771Y118965D01*
X29143Y119521D01*
X29273Y120177D01*
X29143Y120833D01*
X28771Y121389D01*
X28215Y121761D01*
X27559Y121891D01*
D02*
G37*
G36*
X13386D02*
X12730Y121761D01*
X12174Y121389D01*
X11802Y120833D01*
X11672Y120177D01*
X11802Y119521D01*
X12174Y118965D01*
X12730Y118594D01*
X13386Y118463D01*
X14042Y118594D01*
X14598Y118965D01*
X14969Y119521D01*
X15100Y120177D01*
X14969Y120833D01*
X14598Y121389D01*
X14042Y121761D01*
X13386Y121891D01*
D02*
G37*
G36*
X70177Y121399D02*
X69521Y121269D01*
X68965Y120897D01*
X68594Y120341D01*
X68463Y119685D01*
X68594Y119029D01*
X68965Y118473D01*
X69521Y118102D01*
X70177Y117971D01*
X70833Y118102D01*
X71389Y118473D01*
X71761Y119029D01*
X71891Y119685D01*
X71761Y120341D01*
X71389Y120897D01*
X70833Y121269D01*
X70177Y121399D01*
D02*
G37*
G36*
X25397Y111064D02*
Y104924D01*
X28594D01*
Y107693D01*
X28479Y108572D01*
X28139Y109392D01*
X27599Y110095D01*
X26896Y110635D01*
X26076Y110975D01*
X25397Y111064D01*
D02*
G37*
G36*
X24997D02*
X24317Y110975D01*
X23498Y110635D01*
X22794Y110095D01*
X22254Y109392D01*
X21915Y108572D01*
X21799Y107693D01*
Y104924D01*
X24997D01*
Y111064D01*
D02*
G37*
G36*
X211811Y107718D02*
X211155Y107588D01*
X210599Y107216D01*
X210227Y106660D01*
X210097Y106004D01*
X210227Y105348D01*
X210599Y104792D01*
X211155Y104420D01*
X211811Y104290D01*
X212467Y104420D01*
X213023Y104792D01*
X213395Y105348D01*
X213525Y106004D01*
X213395Y106660D01*
X213023Y107216D01*
X212467Y107588D01*
X211811Y107718D01*
D02*
G37*
G36*
X183465D02*
X182809Y107588D01*
X182253Y107216D01*
X181881Y106660D01*
X181751Y106004D01*
X181881Y105348D01*
X182253Y104792D01*
X182809Y104420D01*
X183465Y104290D01*
X184121Y104420D01*
X184677Y104792D01*
X185048Y105348D01*
X185179Y106004D01*
X185048Y106660D01*
X184677Y107216D01*
X184121Y107588D01*
X183465Y107718D01*
D02*
G37*
G36*
X126772D02*
X126116Y107588D01*
X125560Y107216D01*
X125188Y106660D01*
X125058Y106004D01*
X125188Y105348D01*
X125560Y104792D01*
X126116Y104420D01*
X126772Y104290D01*
X127428Y104420D01*
X127984Y104792D01*
X128355Y105348D01*
X128486Y106004D01*
X128355Y106660D01*
X127984Y107216D01*
X127428Y107588D01*
X126772Y107718D01*
D02*
G37*
G36*
X112599D02*
X111943Y107588D01*
X111386Y107216D01*
X111015Y106660D01*
X110884Y106004D01*
X111015Y105348D01*
X111386Y104792D01*
X111943Y104420D01*
X112599Y104290D01*
X113254Y104420D01*
X113810Y104792D01*
X114182Y105348D01*
X114313Y106004D01*
X114182Y106660D01*
X113810Y107216D01*
X113254Y107588D01*
X112599Y107718D01*
D02*
G37*
G36*
X70079D02*
X69423Y107588D01*
X68867Y107216D01*
X68495Y106660D01*
X68365Y106004D01*
X68495Y105348D01*
X68867Y104792D01*
X69423Y104420D01*
X70079Y104290D01*
X70735Y104420D01*
X71291Y104792D01*
X71662Y105348D01*
X71793Y106004D01*
X71662Y106660D01*
X71291Y107216D01*
X70735Y107588D01*
X70079Y107718D01*
D02*
G37*
G36*
X55905D02*
X55250Y107588D01*
X54694Y107216D01*
X54322Y106660D01*
X54191Y106004D01*
X54322Y105348D01*
X54694Y104792D01*
X55250Y104420D01*
X55905Y104290D01*
X56561Y104420D01*
X57117Y104792D01*
X57489Y105348D01*
X57620Y106004D01*
X57489Y106660D01*
X57117Y107216D01*
X56561Y107588D01*
X55905Y107718D01*
D02*
G37*
G36*
X18565Y111061D02*
X11828D01*
Y98387D01*
X18565D01*
Y111061D01*
D02*
G37*
G36*
X28594Y104524D02*
X25397D01*
Y98385D01*
X26076Y98474D01*
X26896Y98813D01*
X27599Y99353D01*
X28139Y100057D01*
X28479Y100876D01*
X28594Y101756D01*
Y104524D01*
D02*
G37*
G36*
X24997D02*
X21799D01*
Y101756D01*
X21915Y100876D01*
X22254Y100057D01*
X22794Y99353D01*
X23498Y98813D01*
X24317Y98474D01*
X24997Y98385D01*
Y104524D01*
D02*
G37*
G36*
X45197Y111091D02*
X44317Y110975D01*
X43498Y110635D01*
X42794Y110095D01*
X42254Y109392D01*
X41915Y108572D01*
X41799Y107693D01*
Y101756D01*
X41915Y100876D01*
X42254Y100057D01*
X42794Y99353D01*
X43498Y98813D01*
X44317Y98474D01*
X45197Y98358D01*
X46076Y98474D01*
X46896Y98813D01*
X47599Y99353D01*
X48139Y100057D01*
X48479Y100876D01*
X48594Y101756D01*
Y107693D01*
X48479Y108572D01*
X48139Y109392D01*
X47599Y110095D01*
X46896Y110635D01*
X46076Y110975D01*
X45197Y111091D01*
D02*
G37*
G36*
X35197D02*
X34317Y110975D01*
X33498Y110635D01*
X32794Y110095D01*
X32254Y109392D01*
X31915Y108572D01*
X31799Y107693D01*
Y101756D01*
X31915Y100876D01*
X32254Y100057D01*
X32794Y99353D01*
X33498Y98813D01*
X34317Y98474D01*
X35197Y98358D01*
X36076Y98474D01*
X36896Y98813D01*
X37599Y99353D01*
X38139Y100057D01*
X38479Y100876D01*
X38594Y101756D01*
Y107693D01*
X38479Y108572D01*
X38139Y109392D01*
X37599Y110095D01*
X36896Y110635D01*
X36076Y110975D01*
X35197Y111091D01*
D02*
G37*
G36*
X143054Y102993D02*
Y96854D01*
X146252D01*
Y99622D01*
X146136Y100501D01*
X145797Y101321D01*
X145257Y102024D01*
X144553Y102564D01*
X143734Y102904D01*
X143054Y102993D01*
D02*
G37*
G36*
X142654D02*
X141975Y102904D01*
X141156Y102564D01*
X140452Y102024D01*
X139912Y101321D01*
X139573Y100501D01*
X139457Y99622D01*
Y96854D01*
X142654D01*
Y102993D01*
D02*
G37*
G36*
X176223Y102991D02*
X169486D01*
Y90316D01*
X176223D01*
Y102991D01*
D02*
G37*
G36*
X142654Y96453D02*
X139457D01*
Y93685D01*
X139573Y92806D01*
X139912Y91986D01*
X140452Y91283D01*
X141156Y90743D01*
X141975Y90403D01*
X142654Y90314D01*
Y96453D01*
D02*
G37*
G36*
X146252D02*
X143054D01*
Y90314D01*
X143734Y90403D01*
X144553Y90743D01*
X145257Y91283D01*
X145797Y91986D01*
X146136Y92806D01*
X146252Y93685D01*
Y96453D01*
D02*
G37*
G36*
X162854Y103020D02*
X161975Y102904D01*
X161155Y102564D01*
X160452Y102024D01*
X159912Y101321D01*
X159573Y100501D01*
X159457Y99622D01*
Y93685D01*
X159573Y92806D01*
X159912Y91986D01*
X160452Y91283D01*
X161155Y90743D01*
X161975Y90403D01*
X162854Y90288D01*
X163734Y90403D01*
X164553Y90743D01*
X165257Y91283D01*
X165797Y91986D01*
X166136Y92806D01*
X166252Y93685D01*
Y99622D01*
X166136Y100501D01*
X165797Y101321D01*
X165257Y102024D01*
X164553Y102564D01*
X163734Y102904D01*
X162854Y103020D01*
D02*
G37*
G36*
X152854D02*
X151975Y102904D01*
X151155Y102564D01*
X150452Y102024D01*
X149912Y101321D01*
X149573Y100501D01*
X149457Y99622D01*
Y93685D01*
X149573Y92806D01*
X149912Y91986D01*
X150452Y91283D01*
X151155Y90743D01*
X151975Y90403D01*
X152854Y90288D01*
X153734Y90403D01*
X154553Y90743D01*
X155257Y91283D01*
X155797Y91986D01*
X156136Y92806D01*
X156252Y93685D01*
Y99622D01*
X156136Y100501D01*
X155797Y101321D01*
X155257Y102024D01*
X154553Y102564D01*
X153734Y102904D01*
X152854Y103020D01*
D02*
G37*
G36*
X132854D02*
X131975Y102904D01*
X131156Y102564D01*
X130452Y102024D01*
X129912Y101321D01*
X129572Y100501D01*
X129457Y99622D01*
Y93685D01*
X129572Y92806D01*
X129912Y91986D01*
X130452Y91283D01*
X131156Y90743D01*
X131975Y90403D01*
X132854Y90288D01*
X133734Y90403D01*
X134553Y90743D01*
X135257Y91283D01*
X135797Y91986D01*
X136136Y92806D01*
X136252Y93685D01*
Y99622D01*
X136136Y100501D01*
X135797Y101321D01*
X135257Y102024D01*
X134553Y102564D01*
X133734Y102904D01*
X132854Y103020D01*
D02*
G37*
G36*
X211811Y93545D02*
X211155Y93414D01*
X210599Y93043D01*
X210227Y92487D01*
X210097Y91831D01*
X210227Y91175D01*
X210599Y90619D01*
X211155Y90247D01*
X211811Y90117D01*
X212467Y90247D01*
X213023Y90619D01*
X213395Y91175D01*
X213525Y91831D01*
X213395Y92487D01*
X213023Y93043D01*
X212467Y93414D01*
X211811Y93545D01*
D02*
G37*
G36*
X112599D02*
X111943Y93414D01*
X111386Y93043D01*
X111015Y92487D01*
X110884Y91831D01*
X111015Y91175D01*
X111386Y90619D01*
X111943Y90247D01*
X112599Y90117D01*
X113254Y90247D01*
X113810Y90619D01*
X114182Y91175D01*
X114313Y91831D01*
X114182Y92487D01*
X113810Y93043D01*
X113254Y93414D01*
X112599Y93545D01*
D02*
G37*
G36*
X55905D02*
X55250Y93414D01*
X54694Y93043D01*
X54322Y92487D01*
X54191Y91831D01*
X54322Y91175D01*
X54694Y90619D01*
X55250Y90247D01*
X55905Y90117D01*
X56561Y90247D01*
X57117Y90619D01*
X57489Y91175D01*
X57620Y91831D01*
X57489Y92487D01*
X57117Y93043D01*
X56561Y93414D01*
X55905Y93545D01*
D02*
G37*
G36*
X27559D02*
X26903Y93414D01*
X26347Y93043D01*
X25975Y92487D01*
X25845Y91831D01*
X25975Y91175D01*
X26347Y90619D01*
X26903Y90247D01*
X27559Y90117D01*
X28215Y90247D01*
X28771Y90619D01*
X29143Y91175D01*
X29273Y91831D01*
X29143Y92487D01*
X28771Y93043D01*
X28215Y93414D01*
X27559Y93545D01*
D02*
G37*
G36*
X90546Y89121D02*
X89890Y88990D01*
X89334Y88619D01*
X88963Y88063D01*
X88886Y87950D01*
X88483Y87783D01*
X88451Y87804D01*
X87795Y87934D01*
X87139Y87804D01*
X86583Y87432D01*
X86212Y86876D01*
X86081Y86221D01*
X86212Y85565D01*
X86583Y85009D01*
X87139Y84637D01*
X87795Y84506D01*
X88451Y84637D01*
X89007Y85009D01*
X89378Y85564D01*
X89455Y85677D01*
X89858Y85844D01*
X89890Y85823D01*
X90546Y85693D01*
X91202Y85823D01*
X91758Y86195D01*
X92130Y86751D01*
X92260Y87407D01*
X92130Y88063D01*
X91758Y88619D01*
X91202Y88990D01*
X90546Y89121D01*
D02*
G37*
G36*
X65256Y83210D02*
X64600Y83080D01*
X64044Y82708D01*
X63672Y82152D01*
X63542Y81496D01*
X63672Y80840D01*
X64044Y80284D01*
X64600Y79913D01*
X65256Y79782D01*
X65912Y79913D01*
X66468Y80284D01*
X66839Y80840D01*
X66970Y81496D01*
X66839Y82152D01*
X66468Y82708D01*
X65912Y83080D01*
X65256Y83210D01*
D02*
G37*
G36*
X97244Y85966D02*
X96588Y85835D01*
X96032Y85464D01*
X95661Y84908D01*
X95530Y84252D01*
X95661Y83596D01*
X95957Y83153D01*
X96002Y82821D01*
X95957Y82489D01*
X95661Y82046D01*
X95530Y81390D01*
X95661Y80734D01*
X96032Y80178D01*
X96588Y79806D01*
X97244Y79676D01*
X97900Y79806D01*
X98456Y80178D01*
X98828Y80734D01*
X98958Y81390D01*
X98828Y82046D01*
X98532Y82489D01*
X98486Y82821D01*
X98532Y83153D01*
X98828Y83596D01*
X98958Y84252D01*
X98828Y84908D01*
X98456Y85464D01*
X97900Y85835D01*
X97244Y85966D01*
D02*
G37*
G36*
X148031Y80848D02*
X147376Y80717D01*
X146819Y80346D01*
X146448Y79790D01*
X146318Y79134D01*
X146448Y78478D01*
X146819Y77922D01*
X147376Y77550D01*
X148031Y77420D01*
X148687Y77550D01*
X149243Y77922D01*
X149615Y78478D01*
X149746Y79134D01*
X149615Y79790D01*
X149243Y80346D01*
X148687Y80717D01*
X148031Y80848D01*
D02*
G37*
G36*
X183465Y79372D02*
X182809Y79241D01*
X182253Y78869D01*
X181881Y78313D01*
X181751Y77658D01*
X181881Y77002D01*
X182253Y76446D01*
X182809Y76074D01*
X183465Y75943D01*
X184121Y76074D01*
X184677Y76446D01*
X185048Y77002D01*
X185179Y77658D01*
X185048Y78313D01*
X184677Y78869D01*
X184121Y79241D01*
X183465Y79372D01*
D02*
G37*
G36*
X41732D02*
X41076Y79241D01*
X40520Y78869D01*
X40149Y78313D01*
X40018Y77658D01*
X40149Y77002D01*
X40520Y76446D01*
X41076Y76074D01*
X41732Y75943D01*
X42388Y76074D01*
X42944Y76446D01*
X43316Y77002D01*
X43446Y77658D01*
X43316Y78313D01*
X42944Y78869D01*
X42388Y79241D01*
X41732Y79372D01*
D02*
G37*
G36*
X27559D02*
X26903Y79241D01*
X26347Y78869D01*
X25975Y78313D01*
X25845Y77658D01*
X25975Y77002D01*
X26347Y76446D01*
X26903Y76074D01*
X27559Y75943D01*
X28215Y76074D01*
X28771Y76446D01*
X29143Y77002D01*
X29273Y77658D01*
X29143Y78313D01*
X28771Y78869D01*
X28215Y79241D01*
X27559Y79372D01*
D02*
G37*
G36*
X13386D02*
X12730Y79241D01*
X12174Y78869D01*
X11802Y78313D01*
X11672Y77658D01*
X11802Y77002D01*
X12174Y76446D01*
X12730Y76074D01*
X13386Y75943D01*
X14042Y76074D01*
X14598Y76446D01*
X14969Y77002D01*
X15100Y77658D01*
X14969Y78313D01*
X14598Y78869D01*
X14042Y79241D01*
X13386Y79372D01*
D02*
G37*
G36*
X14469Y71694D02*
X13813Y71564D01*
X13257Y71192D01*
X12885Y70636D01*
X12754Y69980D01*
X12885Y69324D01*
X13257Y68768D01*
X13813Y68397D01*
X14469Y68266D01*
X15124Y68397D01*
X15680Y68768D01*
X16052Y69324D01*
X16183Y69980D01*
X16052Y70636D01*
X15680Y71192D01*
X15124Y71564D01*
X14469Y71694D01*
D02*
G37*
G36*
X125394Y67856D02*
X124738Y67725D01*
X124182Y67354D01*
X123810Y66798D01*
X123680Y66142D01*
X123810Y65486D01*
X124182Y64930D01*
X124738Y64558D01*
X125394Y64428D01*
X126050Y64558D01*
X126606Y64930D01*
X126977Y65486D01*
X127108Y66142D01*
X126977Y66798D01*
X126606Y67354D01*
X126050Y67725D01*
X125394Y67856D01*
D02*
G37*
G36*
X225984Y65198D02*
X225328Y65068D01*
X224772Y64696D01*
X224401Y64140D01*
X224270Y63484D01*
X224401Y62828D01*
X224772Y62272D01*
X225328Y61901D01*
X225984Y61770D01*
X226640Y61901D01*
X227196Y62272D01*
X227568Y62828D01*
X227698Y63484D01*
X227568Y64140D01*
X227196Y64696D01*
X226640Y65068D01*
X225984Y65198D01*
D02*
G37*
G36*
X211811D02*
X211155Y65068D01*
X210599Y64696D01*
X210227Y64140D01*
X210097Y63484D01*
X210227Y62828D01*
X210599Y62272D01*
X211155Y61901D01*
X211811Y61770D01*
X212467Y61901D01*
X213023Y62272D01*
X213395Y62828D01*
X213525Y63484D01*
X213395Y64140D01*
X213023Y64696D01*
X212467Y65068D01*
X211811Y65198D01*
D02*
G37*
G36*
X197638D02*
X196982Y65068D01*
X196426Y64696D01*
X196054Y64140D01*
X195924Y63484D01*
X196054Y62828D01*
X196426Y62272D01*
X196982Y61901D01*
X197638Y61770D01*
X198294Y61901D01*
X198850Y62272D01*
X199221Y62828D01*
X199352Y63484D01*
X199221Y64140D01*
X198850Y64696D01*
X198294Y65068D01*
X197638Y65198D01*
D02*
G37*
G36*
X183465D02*
X182809Y65068D01*
X182253Y64696D01*
X181881Y64140D01*
X181751Y63484D01*
X181881Y62828D01*
X182253Y62272D01*
X182809Y61901D01*
X183465Y61770D01*
X184121Y61901D01*
X184677Y62272D01*
X185048Y62828D01*
X185179Y63484D01*
X185048Y64140D01*
X184677Y64696D01*
X184121Y65068D01*
X183465Y65198D01*
D02*
G37*
G36*
X84252D02*
X83596Y65068D01*
X83040Y64696D01*
X82668Y64140D01*
X82538Y63484D01*
X82668Y62828D01*
X83040Y62272D01*
X83596Y61901D01*
X84252Y61770D01*
X84908Y61901D01*
X85464Y62272D01*
X85836Y62828D01*
X85966Y63484D01*
X85836Y64140D01*
X85464Y64696D01*
X84908Y65068D01*
X84252Y65198D01*
D02*
G37*
G36*
X13386D02*
X12730Y65068D01*
X12174Y64696D01*
X11802Y64140D01*
X11672Y63484D01*
X11802Y62828D01*
X12174Y62272D01*
X12730Y61901D01*
X13386Y61770D01*
X14042Y61901D01*
X14598Y62272D01*
X14969Y62828D01*
X15100Y63484D01*
X14969Y64140D01*
X14598Y64696D01*
X14042Y65068D01*
X13386Y65198D01*
D02*
G37*
G36*
X98425Y51025D02*
X97769Y50895D01*
X97213Y50523D01*
X96842Y49967D01*
X96711Y49311D01*
X96842Y48655D01*
X97213Y48099D01*
X97769Y47728D01*
X98425Y47597D01*
X99081Y47728D01*
X99637Y48099D01*
X100009Y48655D01*
X100139Y49311D01*
X100009Y49967D01*
X99637Y50523D01*
X99081Y50895D01*
X98425Y51025D01*
D02*
G37*
G36*
X84252D02*
X83596Y50895D01*
X83040Y50523D01*
X82668Y49967D01*
X82538Y49311D01*
X82668Y48655D01*
X83040Y48099D01*
X83596Y47728D01*
X84252Y47597D01*
X84908Y47728D01*
X85464Y48099D01*
X85836Y48655D01*
X85966Y49311D01*
X85836Y49967D01*
X85464Y50523D01*
X84908Y50895D01*
X84252Y51025D01*
D02*
G37*
G36*
X41732D02*
X41076Y50895D01*
X40520Y50523D01*
X40149Y49967D01*
X40018Y49311D01*
X40149Y48655D01*
X40520Y48099D01*
X41076Y47728D01*
X41732Y47597D01*
X42388Y47728D01*
X42944Y48099D01*
X43316Y48655D01*
X43446Y49311D01*
X43316Y49967D01*
X42944Y50523D01*
X42388Y50895D01*
X41732Y51025D01*
D02*
G37*
G36*
X13386D02*
X12730Y50895D01*
X12174Y50523D01*
X11802Y49967D01*
X11672Y49311D01*
X11802Y48655D01*
X12174Y48099D01*
X12730Y47728D01*
X13386Y47597D01*
X14042Y47728D01*
X14598Y48099D01*
X14969Y48655D01*
X15100Y49311D01*
X14969Y49967D01*
X14598Y50523D01*
X14042Y50895D01*
X13386Y51025D01*
D02*
G37*
G36*
X53543Y47383D02*
X52887Y47253D01*
X52331Y46881D01*
X51960Y46325D01*
X51829Y45669D01*
X51960Y45013D01*
X52331Y44457D01*
X52887Y44086D01*
X53543Y43955D01*
X54199Y44086D01*
X54755Y44457D01*
X55127Y45013D01*
X55257Y45669D01*
X55127Y46325D01*
X54755Y46881D01*
X54199Y47253D01*
X53543Y47383D01*
D02*
G37*
G36*
X74213Y45415D02*
X73557Y45284D01*
X73001Y44913D01*
X72629Y44357D01*
X72499Y43701D01*
X72629Y43045D01*
X73001Y42489D01*
X73557Y42117D01*
X74213Y41987D01*
X74869Y42117D01*
X75425Y42489D01*
X75796Y43045D01*
X75927Y43701D01*
X75796Y44357D01*
X75425Y44913D01*
X74869Y45284D01*
X74213Y45415D01*
D02*
G37*
G36*
X104823Y44037D02*
X104167Y43906D01*
X103611Y43535D01*
X103239Y42979D01*
X103109Y42323D01*
X103239Y41667D01*
X103611Y41111D01*
X104167Y40739D01*
X104823Y40609D01*
X105479Y40739D01*
X106035Y41111D01*
X106406Y41667D01*
X106537Y42323D01*
X106406Y42979D01*
X106035Y43535D01*
X105479Y43906D01*
X104823Y44037D01*
D02*
G37*
G36*
X77264Y40789D02*
X76608Y40658D01*
X76052Y40287D01*
X75680Y39731D01*
X75550Y39075D01*
X75680Y38419D01*
X76052Y37863D01*
X76608Y37491D01*
X77264Y37361D01*
X77920Y37491D01*
X78476Y37863D01*
X78847Y38419D01*
X78978Y39075D01*
X78847Y39731D01*
X78476Y40287D01*
X77920Y40658D01*
X77264Y40789D01*
D02*
G37*
G36*
X81988Y40690D02*
X81332Y40560D01*
X80776Y40188D01*
X80405Y39632D01*
X80274Y38976D01*
X80405Y38320D01*
X80776Y37764D01*
X81332Y37393D01*
X81988Y37262D01*
X82644Y37393D01*
X83200Y37764D01*
X83572Y38320D01*
X83702Y38976D01*
X83572Y39632D01*
X83200Y40188D01*
X82644Y40560D01*
X81988Y40690D01*
D02*
G37*
G36*
X70079Y36852D02*
X69423Y36721D01*
X68867Y36350D01*
X68495Y35794D01*
X68365Y35138D01*
X68495Y34482D01*
X68867Y33926D01*
X69423Y33554D01*
X70079Y33424D01*
X70735Y33554D01*
X71291Y33926D01*
X71662Y34482D01*
X71793Y35138D01*
X71662Y35794D01*
X71291Y36350D01*
X70735Y36721D01*
X70079Y36852D01*
D02*
G37*
G36*
X41732D02*
X41076Y36721D01*
X40520Y36350D01*
X40149Y35794D01*
X40018Y35138D01*
X40149Y34482D01*
X40520Y33926D01*
X41076Y33554D01*
X41732Y33424D01*
X42388Y33554D01*
X42944Y33926D01*
X43316Y34482D01*
X43446Y35138D01*
X43316Y35794D01*
X42944Y36350D01*
X42388Y36721D01*
X41732Y36852D01*
D02*
G37*
G36*
X14469Y35868D02*
X13813Y35737D01*
X13257Y35366D01*
X12885Y34809D01*
X12754Y34154D01*
X12885Y33498D01*
X13257Y32941D01*
X13813Y32570D01*
X14469Y32440D01*
X15124Y32570D01*
X15680Y32941D01*
X16052Y33498D01*
X16183Y34154D01*
X16052Y34809D01*
X15680Y35366D01*
X15124Y35737D01*
X14469Y35868D01*
D02*
G37*
G36*
X69784Y27009D02*
X69128Y26879D01*
X68572Y26507D01*
X68200Y25951D01*
X68069Y25295D01*
X68200Y24639D01*
X68572Y24083D01*
X69128Y23712D01*
X69784Y23581D01*
X70439Y23712D01*
X70995Y24083D01*
X71367Y24639D01*
X71497Y25295D01*
X71367Y25951D01*
X70995Y26507D01*
X70439Y26879D01*
X69784Y27009D01*
D02*
G37*
G36*
X97638Y23580D02*
X96982Y23450D01*
X96426Y23078D01*
X96054Y22522D01*
X95924Y21866D01*
X96054Y21210D01*
X96426Y20654D01*
X96982Y20283D01*
X97638Y20152D01*
X98294Y20283D01*
X98850Y20654D01*
X98904Y20735D01*
X99070Y20757D01*
X99475Y20690D01*
X99772Y20245D01*
X100328Y19873D01*
X100984Y19743D01*
X101640Y19873D01*
X102196Y20245D01*
X102568Y20801D01*
X102698Y21457D01*
X102568Y22113D01*
X102196Y22669D01*
X101640Y23040D01*
X100984Y23171D01*
X100328Y23040D01*
X99772Y22669D01*
X99718Y22588D01*
X99552Y22566D01*
X99147Y22633D01*
X98850Y23078D01*
X98294Y23450D01*
X97638Y23580D01*
D02*
G37*
G36*
X41732Y22679D02*
X41076Y22548D01*
X40520Y22177D01*
X40149Y21621D01*
X40018Y20965D01*
X40149Y20309D01*
X40520Y19753D01*
X41076Y19381D01*
X41732Y19251D01*
X42388Y19381D01*
X42944Y19753D01*
X43316Y20309D01*
X43446Y20965D01*
X43316Y21621D01*
X42944Y22177D01*
X42388Y22548D01*
X41732Y22679D01*
D02*
G37*
G36*
X27559D02*
X26903Y22548D01*
X26347Y22177D01*
X25975Y21621D01*
X25845Y20965D01*
X25975Y20309D01*
X26347Y19753D01*
X26903Y19381D01*
X27559Y19251D01*
X28215Y19381D01*
X28771Y19753D01*
X29143Y20309D01*
X29273Y20965D01*
X29143Y21621D01*
X28771Y22177D01*
X28215Y22548D01*
X27559Y22679D01*
D02*
G37*
G36*
X107500Y18905D02*
X106621Y18790D01*
X105801Y18450D01*
X105098Y17910D01*
X104558Y17207D01*
X104218Y16387D01*
X104102Y15508D01*
Y14067D01*
X103885Y13937D01*
X103602Y13857D01*
X103117Y14182D01*
X102461Y14312D01*
X101805Y14182D01*
X101398Y13910D01*
X100898Y14117D01*
Y15508D01*
X100782Y16387D01*
X100442Y17207D01*
X99902Y17910D01*
X99199Y18450D01*
X98379Y18790D01*
X97500Y18905D01*
X96621Y18790D01*
X95801Y18450D01*
X95098Y17910D01*
X94558Y17207D01*
X94218Y16387D01*
X94102Y15508D01*
Y9571D01*
X94218Y8692D01*
X94558Y7872D01*
X95098Y7168D01*
X95801Y6628D01*
X96621Y6289D01*
X97500Y6173D01*
X98379Y6289D01*
X99199Y6628D01*
X99902Y7168D01*
X100442Y7872D01*
X100782Y8692D01*
X100898Y9571D01*
Y11080D01*
X101398Y11287D01*
X101805Y11015D01*
X102461Y10884D01*
X103117Y11015D01*
X103602Y11339D01*
X103885Y11260D01*
X104102Y11130D01*
Y9571D01*
X104218Y8692D01*
X104558Y7872D01*
X105098Y7168D01*
X105801Y6628D01*
X106621Y6289D01*
X107500Y6173D01*
X108379Y6289D01*
X109199Y6628D01*
X109902Y7168D01*
X110442Y7872D01*
X110782Y8692D01*
X110898Y9571D01*
Y15508D01*
X110782Y16387D01*
X110442Y17207D01*
X109902Y17910D01*
X109199Y18450D01*
X108379Y18790D01*
X107500Y18905D01*
D02*
G37*
G36*
X14173Y19931D02*
X12683Y19735D01*
X11294Y19160D01*
X10102Y18245D01*
X9187Y17052D01*
X8612Y15664D01*
X8415Y14173D01*
X8612Y12683D01*
X9187Y11294D01*
X10102Y10102D01*
X11294Y9187D01*
X12683Y8612D01*
X14173Y8415D01*
X15664Y8612D01*
X17052Y9187D01*
X18245Y10102D01*
X19160Y11294D01*
X19735Y12683D01*
X19931Y14173D01*
X19735Y15664D01*
X19160Y17052D01*
X18245Y18245D01*
X17052Y19160D01*
X15664Y19735D01*
X14173Y19931D01*
D02*
G37*
G36*
X70868Y18876D02*
X64131D01*
Y6202D01*
X70868D01*
Y18876D01*
D02*
G37*
G36*
X87500Y18905D02*
X86621Y18790D01*
X85801Y18450D01*
X85098Y17910D01*
X84558Y17207D01*
X84218Y16387D01*
X84102Y15508D01*
Y9571D01*
X84218Y8692D01*
X84558Y7872D01*
X85098Y7168D01*
X85801Y6628D01*
X86621Y6289D01*
X87500Y6173D01*
X88379Y6289D01*
X89199Y6628D01*
X89902Y7168D01*
X90442Y7872D01*
X90782Y8692D01*
X90898Y9571D01*
Y15508D01*
X90782Y16387D01*
X90442Y17207D01*
X89902Y17910D01*
X89199Y18450D01*
X88379Y18790D01*
X87500Y18905D01*
D02*
G37*
G36*
X77500D02*
X76621Y18790D01*
X75801Y18450D01*
X75098Y17910D01*
X74558Y17207D01*
X74218Y16387D01*
X74102Y15508D01*
Y9571D01*
X74218Y8692D01*
X74558Y7872D01*
X75098Y7168D01*
X75801Y6628D01*
X76621Y6289D01*
X77500Y6173D01*
X78379Y6289D01*
X79199Y6628D01*
X79902Y7168D01*
X80442Y7872D01*
X80782Y8692D01*
X80898Y9571D01*
Y15508D01*
X80782Y16387D01*
X80442Y17207D01*
X79902Y17910D01*
X79199Y18450D01*
X78379Y18790D01*
X77500Y18905D01*
D02*
G37*
G36*
X55905Y8505D02*
X55250Y8375D01*
X54694Y8003D01*
X54322Y7447D01*
X54191Y6791D01*
X54322Y6135D01*
X54694Y5579D01*
X55250Y5208D01*
X55905Y5077D01*
X56561Y5208D01*
X57117Y5579D01*
X57489Y6135D01*
X57620Y6791D01*
X57489Y7447D01*
X57117Y8003D01*
X56561Y8375D01*
X55905Y8505D01*
D02*
G37*
G36*
X41732D02*
X41076Y8375D01*
X40520Y8003D01*
X40149Y7447D01*
X40018Y6791D01*
X40149Y6135D01*
X40520Y5579D01*
X41076Y5208D01*
X41732Y5077D01*
X42388Y5208D01*
X42944Y5579D01*
X43316Y6135D01*
X43446Y6791D01*
X43316Y7447D01*
X42944Y8003D01*
X42388Y8375D01*
X41732Y8505D01*
D02*
G37*
G36*
X27559D02*
X26903Y8375D01*
X26347Y8003D01*
X25975Y7447D01*
X25845Y6791D01*
X25975Y6135D01*
X26347Y5579D01*
X26903Y5208D01*
X27559Y5077D01*
X28215Y5208D01*
X28771Y5579D01*
X29143Y6135D01*
X29273Y6791D01*
X29143Y7447D01*
X28771Y8003D01*
X28215Y8375D01*
X27559Y8505D01*
D02*
G37*
G36*
X285791Y326181D02*
X284288D01*
X282836Y325792D01*
X281534Y325041D01*
X280471Y323978D01*
X279720Y322676D01*
X279331Y321224D01*
Y319721D01*
X279720Y318269D01*
X280471Y316967D01*
X281534Y315904D01*
X282836Y315153D01*
X284288Y314764D01*
X285791D01*
X287243Y315153D01*
X288545Y315904D01*
X289607Y316967D01*
X290359Y318269D01*
X290748Y319721D01*
Y321224D01*
X290359Y322676D01*
X289607Y323978D01*
X288545Y325041D01*
X287243Y325792D01*
X285791Y326181D01*
D02*
G37*
G36*
X262460Y314376D02*
X261162D01*
X259909Y314041D01*
X258785Y313392D01*
X257868Y312474D01*
X257219Y311351D01*
X256884Y310098D01*
Y308800D01*
X257219Y307547D01*
X257868Y306423D01*
X258785Y305506D01*
X259909Y304857D01*
X261162Y304521D01*
X262460D01*
X263713Y304857D01*
X264837Y305506D01*
X265754Y306423D01*
X266403Y307547D01*
X266739Y308800D01*
Y310098D01*
X266403Y311351D01*
X265754Y312474D01*
X264837Y313392D01*
X263713Y314041D01*
X262460Y314376D01*
D02*
G37*
G36*
X255256Y282980D02*
X254587D01*
X253969Y282724D01*
X253496Y282252D01*
X253240Y281634D01*
Y280965D01*
X253496Y280347D01*
X253969Y279874D01*
X254587Y279618D01*
X255256D01*
X255873Y279874D01*
X256346Y280347D01*
X256602Y280965D01*
Y281634D01*
X256346Y282252D01*
X255873Y282724D01*
X255256Y282980D01*
D02*
G37*
G36*
X258110Y264673D02*
X257441D01*
X256823Y264417D01*
X256350Y263944D01*
X256095Y263327D01*
Y263230D01*
X255594Y263023D01*
X255283Y263335D01*
X254665Y263591D01*
X253996D01*
X253379Y263335D01*
X252906Y262862D01*
X252650Y262244D01*
Y261575D01*
X252906Y260957D01*
X253379Y260484D01*
X253996Y260228D01*
X254665D01*
X255283Y260484D01*
X255756Y260957D01*
X256012Y261575D01*
Y261671D01*
X256512Y261878D01*
X256823Y261567D01*
X257441Y261311D01*
X258110D01*
X258728Y261567D01*
X259201Y262040D01*
X259457Y262658D01*
Y263327D01*
X259201Y263944D01*
X258728Y264417D01*
X258110Y264673D01*
D02*
G37*
G36*
X258208Y228453D02*
X257540D01*
X256922Y228197D01*
X256449Y227724D01*
X256193Y227106D01*
Y226437D01*
X256449Y225819D01*
X256922Y225346D01*
X257540Y225091D01*
X258208D01*
X258826Y225346D01*
X259299Y225819D01*
X259555Y226437D01*
Y227106D01*
X259299Y227724D01*
X258826Y228197D01*
X258208Y228453D01*
D02*
G37*
G36*
X283012Y178551D02*
X282343D01*
X281725Y178295D01*
X281252Y177822D01*
X280996Y177205D01*
Y176536D01*
X281252Y175918D01*
X281725Y175445D01*
X282343Y175189D01*
X283012D01*
X283629Y175445D01*
X284102Y175918D01*
X284358Y176536D01*
Y177205D01*
X284102Y177822D01*
X283629Y178295D01*
X283012Y178551D01*
D02*
G37*
G36*
X254665D02*
X253996D01*
X253379Y178295D01*
X252906Y177822D01*
X252650Y177205D01*
Y176536D01*
X252906Y175918D01*
X253379Y175445D01*
X253996Y175189D01*
X254665D01*
X255283Y175445D01*
X255756Y175918D01*
X256012Y176536D01*
Y177205D01*
X255756Y177822D01*
X255283Y178295D01*
X254665Y178551D01*
D02*
G37*
G36*
X289212Y178157D02*
X288544D01*
X287926Y177901D01*
X287453Y177429D01*
X287197Y176811D01*
Y176142D01*
X287453Y175524D01*
X287926Y175051D01*
X288544Y174795D01*
X289212D01*
X289830Y175051D01*
X290303Y175524D01*
X290559Y176142D01*
Y176811D01*
X290303Y177429D01*
X289830Y177901D01*
X289212Y178157D01*
D02*
G37*
G36*
X258504Y173138D02*
X257835D01*
X257217Y172882D01*
X256744Y172409D01*
X256488Y171791D01*
Y171122D01*
X256744Y170504D01*
X257217Y170031D01*
X257835Y169776D01*
X258504D01*
X259121Y170031D01*
X259594Y170504D01*
X259850Y171122D01*
Y171791D01*
X259594Y172409D01*
X259121Y172882D01*
X258504Y173138D01*
D02*
G37*
G36*
X288228Y172449D02*
X287559D01*
X286941Y172193D01*
X286469Y171720D01*
X286213Y171102D01*
Y170433D01*
X286469Y169816D01*
X286941Y169343D01*
X287559Y169087D01*
X288228D01*
X288846Y169343D01*
X289319Y169816D01*
X289575Y170433D01*
Y171102D01*
X289319Y171720D01*
X288846Y172193D01*
X288228Y172449D01*
D02*
G37*
G36*
X255354Y159358D02*
X254685D01*
X254067Y159102D01*
X253594Y158629D01*
X253339Y158012D01*
Y157343D01*
X253594Y156725D01*
X254067Y156252D01*
X254685Y155996D01*
X255354D01*
X255972Y156252D01*
X256445Y156725D01*
X256701Y157343D01*
Y158012D01*
X256445Y158629D01*
X255972Y159102D01*
X255354Y159358D01*
D02*
G37*
G36*
X283012Y150205D02*
X282343D01*
X281725Y149949D01*
X281252Y149476D01*
X280996Y148858D01*
Y148189D01*
X281252Y147571D01*
X281725Y147099D01*
X282343Y146843D01*
X283012D01*
X283629Y147099D01*
X284102Y147571D01*
X284358Y148189D01*
Y148858D01*
X284102Y149476D01*
X283629Y149949D01*
X283012Y150205D01*
D02*
G37*
G36*
X268838D02*
X268170D01*
X267552Y149949D01*
X267079Y149476D01*
X266823Y148858D01*
Y148189D01*
X267079Y147571D01*
X267552Y147099D01*
X268170Y146843D01*
X268838D01*
X269456Y147099D01*
X269929Y147571D01*
X270185Y148189D01*
Y148858D01*
X269929Y149476D01*
X269456Y149949D01*
X268838Y150205D01*
D02*
G37*
G36*
X254665D02*
X253996D01*
X253379Y149949D01*
X252906Y149476D01*
X252650Y148858D01*
Y148189D01*
X252906Y147571D01*
X253379Y147099D01*
X253996Y146843D01*
X254665D01*
X255283Y147099D01*
X255756Y147571D01*
X256012Y148189D01*
Y148858D01*
X255756Y149476D01*
X255283Y149949D01*
X254665Y150205D01*
D02*
G37*
G36*
X289212Y141150D02*
X288544D01*
X287926Y140894D01*
X287453Y140421D01*
X287197Y139803D01*
Y139134D01*
X287453Y138516D01*
X287926Y138043D01*
X288544Y137787D01*
X289212D01*
X289830Y138043D01*
X290303Y138516D01*
X290559Y139134D01*
Y139803D01*
X290303Y140421D01*
X289830Y140894D01*
X289212Y141150D01*
D02*
G37*
G36*
X255256Y135835D02*
X254587D01*
X253969Y135579D01*
X253496Y135106D01*
X253240Y134488D01*
Y133819D01*
X253496Y133201D01*
X253969Y132728D01*
X254587Y132472D01*
X255256D01*
X255873Y132728D01*
X256346Y133201D01*
X256602Y133819D01*
Y134488D01*
X256346Y135106D01*
X255873Y135579D01*
X255256Y135835D01*
D02*
G37*
G36*
X286555Y127862D02*
X285886D01*
X285268Y127606D01*
X284795Y127133D01*
X284539Y126515D01*
Y125847D01*
X284795Y125229D01*
X285268Y124756D01*
X285886Y124500D01*
X286555D01*
X287173Y124756D01*
X287646Y125229D01*
X287902Y125847D01*
Y126515D01*
X287646Y127133D01*
X287173Y127606D01*
X286555Y127862D01*
D02*
G37*
G36*
X283012Y121858D02*
X282343D01*
X281725Y121602D01*
X281252Y121130D01*
X280996Y120512D01*
Y119843D01*
X281252Y119225D01*
X281725Y118752D01*
X282343Y118496D01*
X283012D01*
X283629Y118752D01*
X284102Y119225D01*
X284358Y119843D01*
Y120512D01*
X284102Y121130D01*
X283629Y121602D01*
X283012Y121858D01*
D02*
G37*
G36*
X268838D02*
X268170D01*
X267552Y121602D01*
X267079Y121130D01*
X266823Y120512D01*
Y119843D01*
X267079Y119225D01*
X267552Y118752D01*
X268170Y118496D01*
X268838D01*
X269456Y118752D01*
X269929Y119225D01*
X270185Y119843D01*
Y120512D01*
X269929Y121130D01*
X269456Y121602D01*
X268838Y121858D01*
D02*
G37*
G36*
X254665D02*
X253996D01*
X253379Y121602D01*
X252906Y121130D01*
X252650Y120512D01*
Y119843D01*
X252906Y119225D01*
X253379Y118752D01*
X253996Y118496D01*
X254665D01*
X255283Y118752D01*
X255756Y119225D01*
X256012Y119843D01*
Y120512D01*
X255756Y121130D01*
X255283Y121602D01*
X254665Y121858D01*
D02*
G37*
G36*
X283012Y50992D02*
X282343D01*
X281725Y50736D01*
X281252Y50263D01*
X280996Y49645D01*
Y48977D01*
X281252Y48359D01*
X281725Y47886D01*
X282343Y47630D01*
X283012D01*
X283629Y47886D01*
X284102Y48359D01*
X284358Y48977D01*
Y49645D01*
X284102Y50263D01*
X283629Y50736D01*
X283012Y50992D01*
D02*
G37*
G36*
X268838D02*
X268170D01*
X267552Y50736D01*
X267079Y50263D01*
X266823Y49645D01*
Y48977D01*
X267079Y48359D01*
X267552Y47886D01*
X268170Y47630D01*
X268838D01*
X269456Y47886D01*
X269929Y48359D01*
X270185Y48977D01*
Y49645D01*
X269929Y50263D01*
X269456Y50736D01*
X268838Y50992D01*
D02*
G37*
G36*
X254665D02*
X253996D01*
X253379Y50736D01*
X252906Y50263D01*
X252650Y49645D01*
Y48977D01*
X252906Y48359D01*
X253379Y47886D01*
X253996Y47630D01*
X254665D01*
X255283Y47886D01*
X255756Y48359D01*
X256012Y48977D01*
Y49645D01*
X255756Y50263D01*
X255283Y50736D01*
X254665Y50992D01*
D02*
G37*
G36*
X283012Y36819D02*
X282343D01*
X281725Y36563D01*
X281252Y36090D01*
X280996Y35472D01*
Y34803D01*
X281252Y34186D01*
X281725Y33713D01*
X282343Y33457D01*
X283012D01*
X283629Y33713D01*
X284102Y34186D01*
X284358Y34803D01*
Y35472D01*
X284102Y36090D01*
X283629Y36563D01*
X283012Y36819D01*
D02*
G37*
G36*
X268975Y34369D02*
X256301D01*
Y27632D01*
X268975D01*
Y34369D01*
D02*
G37*
G36*
X253475D02*
X240801D01*
Y27632D01*
X253475D01*
Y34369D01*
D02*
G37*
G36*
X237975D02*
X225301D01*
Y27632D01*
X237975D01*
Y34369D01*
D02*
G37*
G36*
X222475D02*
X209801D01*
Y27632D01*
X222475D01*
Y34369D01*
D02*
G37*
G36*
X206975D02*
X194301D01*
Y27632D01*
X206975D01*
Y34369D01*
D02*
G37*
G36*
X191475D02*
X178801D01*
Y27632D01*
X191475D01*
Y34369D01*
D02*
G37*
G36*
X175975D02*
X163301D01*
Y27632D01*
X175975D01*
Y34369D01*
D02*
G37*
G36*
X160475D02*
X147801D01*
Y27632D01*
X160475D01*
Y34369D01*
D02*
G37*
G36*
X144975D02*
X132301D01*
Y27632D01*
X144975D01*
Y34369D01*
D02*
G37*
G36*
X265606Y24398D02*
X262838D01*
Y21200D01*
X268978D01*
X268888Y21879D01*
X268549Y22699D01*
X268009Y23402D01*
X267305Y23942D01*
X266486Y24282D01*
X265606Y24398D01*
D02*
G37*
G36*
X262438D02*
X259669D01*
X258790Y24282D01*
X257970Y23942D01*
X257267Y23402D01*
X256727Y22699D01*
X256387Y21879D01*
X256298Y21200D01*
X262438D01*
Y24398D01*
D02*
G37*
G36*
X250106D02*
X247338D01*
Y21200D01*
X253478D01*
X253388Y21879D01*
X253049Y22699D01*
X252509Y23402D01*
X251805Y23942D01*
X250986Y24282D01*
X250106Y24398D01*
D02*
G37*
G36*
X246938D02*
X244169D01*
X243290Y24282D01*
X242471Y23942D01*
X241767Y23402D01*
X241227Y22699D01*
X240887Y21879D01*
X240798Y21200D01*
X246938D01*
Y24398D01*
D02*
G37*
G36*
X234606D02*
X231838D01*
Y21200D01*
X237978D01*
X237888Y21879D01*
X237549Y22699D01*
X237009Y23402D01*
X236305Y23942D01*
X235486Y24282D01*
X234606Y24398D01*
D02*
G37*
G36*
X231438D02*
X228669D01*
X227790Y24282D01*
X226971Y23942D01*
X226267Y23402D01*
X225727Y22699D01*
X225388Y21879D01*
X225298Y21200D01*
X231438D01*
Y24398D01*
D02*
G37*
G36*
X219106D02*
X216338D01*
Y21200D01*
X222478D01*
X222388Y21879D01*
X222049Y22699D01*
X221509Y23402D01*
X220805Y23942D01*
X219986Y24282D01*
X219106Y24398D01*
D02*
G37*
G36*
X215938D02*
X213169D01*
X212290Y24282D01*
X211471Y23942D01*
X210767Y23402D01*
X210227Y22699D01*
X209888Y21879D01*
X209798Y21200D01*
X215938D01*
Y24398D01*
D02*
G37*
G36*
X203606D02*
X200838D01*
Y21200D01*
X206978D01*
X206888Y21879D01*
X206549Y22699D01*
X206009Y23402D01*
X205305Y23942D01*
X204486Y24282D01*
X203606Y24398D01*
D02*
G37*
G36*
X200438D02*
X197669D01*
X196790Y24282D01*
X195970Y23942D01*
X195267Y23402D01*
X194727Y22699D01*
X194387Y21879D01*
X194298Y21200D01*
X200438D01*
Y24398D01*
D02*
G37*
G36*
X188106D02*
X185338D01*
Y21200D01*
X191478D01*
X191388Y21879D01*
X191049Y22699D01*
X190509Y23402D01*
X189805Y23942D01*
X188986Y24282D01*
X188106Y24398D01*
D02*
G37*
G36*
X184938D02*
X182169D01*
X181290Y24282D01*
X180471Y23942D01*
X179767Y23402D01*
X179227Y22699D01*
X178887Y21879D01*
X178798Y21200D01*
X184938D01*
Y24398D01*
D02*
G37*
G36*
X172606D02*
X169838D01*
Y21200D01*
X175978D01*
X175888Y21879D01*
X175549Y22699D01*
X175009Y23402D01*
X174305Y23942D01*
X173486Y24282D01*
X172606Y24398D01*
D02*
G37*
G36*
X169438D02*
X166669D01*
X165790Y24282D01*
X164971Y23942D01*
X164267Y23402D01*
X163727Y22699D01*
X163388Y21879D01*
X163298Y21200D01*
X169438D01*
Y24398D01*
D02*
G37*
G36*
X157106D02*
X154338D01*
Y21200D01*
X160477D01*
X160388Y21879D01*
X160049Y22699D01*
X159509Y23402D01*
X158805Y23942D01*
X157986Y24282D01*
X157106Y24398D01*
D02*
G37*
G36*
X153938D02*
X151169D01*
X150290Y24282D01*
X149470Y23942D01*
X148767Y23402D01*
X148227Y22699D01*
X147888Y21879D01*
X147798Y21200D01*
X153938D01*
Y24398D01*
D02*
G37*
G36*
X141606D02*
X138838D01*
Y21200D01*
X144977D01*
X144888Y21879D01*
X144549Y22699D01*
X144009Y23402D01*
X143305Y23942D01*
X142486Y24282D01*
X141606Y24398D01*
D02*
G37*
G36*
X138438D02*
X135669D01*
X134790Y24282D01*
X133970Y23942D01*
X133267Y23402D01*
X132727Y22699D01*
X132387Y21879D01*
X132298Y21200D01*
X138438D01*
Y24398D01*
D02*
G37*
G36*
X268978Y20800D02*
X262838D01*
Y17602D01*
X265606D01*
X266486Y17718D01*
X267305Y18058D01*
X268009Y18598D01*
X268549Y19301D01*
X268888Y20121D01*
X268978Y20800D01*
D02*
G37*
G36*
X262438D02*
X256298D01*
X256387Y20121D01*
X256727Y19301D01*
X257267Y18598D01*
X257970Y18058D01*
X258790Y17718D01*
X259669Y17602D01*
X262438D01*
Y20800D01*
D02*
G37*
G36*
X253478D02*
X247338D01*
Y17602D01*
X250106D01*
X250986Y17718D01*
X251805Y18058D01*
X252509Y18598D01*
X253049Y19301D01*
X253388Y20121D01*
X253478Y20800D01*
D02*
G37*
G36*
X246938D02*
X240798D01*
X240887Y20121D01*
X241227Y19301D01*
X241767Y18598D01*
X242471Y18058D01*
X243290Y17718D01*
X244169Y17602D01*
X246938D01*
Y20800D01*
D02*
G37*
G36*
X237978D02*
X231838D01*
Y17602D01*
X234606D01*
X235486Y17718D01*
X236305Y18058D01*
X237009Y18598D01*
X237549Y19301D01*
X237888Y20121D01*
X237978Y20800D01*
D02*
G37*
G36*
X231438D02*
X225298D01*
X225388Y20121D01*
X225727Y19301D01*
X226267Y18598D01*
X226971Y18058D01*
X227790Y17718D01*
X228669Y17602D01*
X231438D01*
Y20800D01*
D02*
G37*
G36*
X222478D02*
X216338D01*
Y17602D01*
X219106D01*
X219986Y17718D01*
X220805Y18058D01*
X221509Y18598D01*
X222049Y19301D01*
X222388Y20121D01*
X222478Y20800D01*
D02*
G37*
G36*
X215938D02*
X209798D01*
X209888Y20121D01*
X210227Y19301D01*
X210767Y18598D01*
X211471Y18058D01*
X212290Y17718D01*
X213169Y17602D01*
X215938D01*
Y20800D01*
D02*
G37*
G36*
X206978D02*
X200838D01*
Y17602D01*
X203606D01*
X204486Y17718D01*
X205305Y18058D01*
X206009Y18598D01*
X206549Y19301D01*
X206888Y20121D01*
X206978Y20800D01*
D02*
G37*
G36*
X200438D02*
X194298D01*
X194387Y20121D01*
X194727Y19301D01*
X195267Y18598D01*
X195970Y18058D01*
X196790Y17718D01*
X197669Y17602D01*
X200438D01*
Y20800D01*
D02*
G37*
G36*
X191478D02*
X185338D01*
Y17602D01*
X188106D01*
X188986Y17718D01*
X189805Y18058D01*
X190509Y18598D01*
X191049Y19301D01*
X191388Y20121D01*
X191478Y20800D01*
D02*
G37*
G36*
X184938D02*
X178798D01*
X178887Y20121D01*
X179227Y19301D01*
X179767Y18598D01*
X180471Y18058D01*
X181290Y17718D01*
X182169Y17602D01*
X184938D01*
Y20800D01*
D02*
G37*
G36*
X175978D02*
X169838D01*
Y17602D01*
X172606D01*
X173486Y17718D01*
X174305Y18058D01*
X175009Y18598D01*
X175549Y19301D01*
X175888Y20121D01*
X175978Y20800D01*
D02*
G37*
G36*
X169438D02*
X163298D01*
X163388Y20121D01*
X163727Y19301D01*
X164267Y18598D01*
X164971Y18058D01*
X165790Y17718D01*
X166669Y17602D01*
X169438D01*
Y20800D01*
D02*
G37*
G36*
X160477D02*
X154338D01*
Y17602D01*
X157106D01*
X157986Y17718D01*
X158805Y18058D01*
X159509Y18598D01*
X160049Y19301D01*
X160388Y20121D01*
X160477Y20800D01*
D02*
G37*
G36*
X153938D02*
X147798D01*
X147888Y20121D01*
X148227Y19301D01*
X148767Y18598D01*
X149470Y18058D01*
X150290Y17718D01*
X151169Y17602D01*
X153938D01*
Y20800D01*
D02*
G37*
G36*
X144977D02*
X138838D01*
Y17602D01*
X141606D01*
X142486Y17718D01*
X143305Y18058D01*
X144009Y18598D01*
X144549Y19301D01*
X144888Y20121D01*
X144977Y20800D01*
D02*
G37*
G36*
X138438D02*
X132298D01*
X132387Y20121D01*
X132727Y19301D01*
X133267Y18598D01*
X133970Y18058D01*
X134790Y17718D01*
X135669Y17602D01*
X138438D01*
Y20800D01*
D02*
G37*
G36*
X285791Y19882D02*
X284288D01*
X282836Y19493D01*
X281534Y18741D01*
X280471Y17678D01*
X279720Y16377D01*
X279331Y14925D01*
Y13422D01*
X279720Y11970D01*
X280471Y10668D01*
X281534Y9605D01*
X282836Y8854D01*
X284288Y8465D01*
X285791D01*
X287243Y8854D01*
X288545Y9605D01*
X289607Y10668D01*
X290359Y11970D01*
X290748Y13422D01*
Y14925D01*
X290359Y16377D01*
X289607Y17678D01*
X288545Y18741D01*
X287243Y19493D01*
X285791Y19882D01*
D02*
G37*
G36*
X265606Y14398D02*
X259669D01*
X258790Y14282D01*
X257970Y13942D01*
X257267Y13402D01*
X256727Y12699D01*
X256387Y11879D01*
X256272Y11000D01*
X256387Y10121D01*
X256727Y9301D01*
X257267Y8598D01*
X257970Y8058D01*
X258790Y7718D01*
X259669Y7602D01*
X265606D01*
X266486Y7718D01*
X267305Y8058D01*
X268009Y8598D01*
X268549Y9301D01*
X268888Y10121D01*
X269004Y11000D01*
X268888Y11879D01*
X268549Y12699D01*
X268009Y13402D01*
X267305Y13942D01*
X266486Y14282D01*
X265606Y14398D01*
D02*
G37*
G36*
X250106D02*
X244169D01*
X243290Y14282D01*
X242471Y13942D01*
X241767Y13402D01*
X241227Y12699D01*
X240887Y11879D01*
X240772Y11000D01*
X240887Y10121D01*
X241227Y9301D01*
X241767Y8598D01*
X242471Y8058D01*
X243290Y7718D01*
X244169Y7602D01*
X250106D01*
X250986Y7718D01*
X251805Y8058D01*
X252509Y8598D01*
X253049Y9301D01*
X253388Y10121D01*
X253504Y11000D01*
X253388Y11879D01*
X253049Y12699D01*
X252509Y13402D01*
X251805Y13942D01*
X250986Y14282D01*
X250106Y14398D01*
D02*
G37*
G36*
X234606D02*
X228669D01*
X227790Y14282D01*
X226971Y13942D01*
X226267Y13402D01*
X225727Y12699D01*
X225388Y11879D01*
X225272Y11000D01*
X225388Y10121D01*
X225727Y9301D01*
X226267Y8598D01*
X226971Y8058D01*
X227790Y7718D01*
X228669Y7602D01*
X234606D01*
X235486Y7718D01*
X236305Y8058D01*
X237009Y8598D01*
X237549Y9301D01*
X237888Y10121D01*
X238004Y11000D01*
X237888Y11879D01*
X237549Y12699D01*
X237009Y13402D01*
X236305Y13942D01*
X235486Y14282D01*
X234606Y14398D01*
D02*
G37*
G36*
X219106D02*
X213169D01*
X212290Y14282D01*
X211471Y13942D01*
X210767Y13402D01*
X210227Y12699D01*
X209888Y11879D01*
X209772Y11000D01*
X209888Y10121D01*
X210227Y9301D01*
X210767Y8598D01*
X211471Y8058D01*
X212290Y7718D01*
X213169Y7602D01*
X219106D01*
X219986Y7718D01*
X220805Y8058D01*
X221509Y8598D01*
X222049Y9301D01*
X222388Y10121D01*
X222504Y11000D01*
X222388Y11879D01*
X222049Y12699D01*
X221509Y13402D01*
X220805Y13942D01*
X219986Y14282D01*
X219106Y14398D01*
D02*
G37*
G36*
X203606D02*
X197669D01*
X196790Y14282D01*
X195970Y13942D01*
X195267Y13402D01*
X194727Y12699D01*
X194387Y11879D01*
X194272Y11000D01*
X194387Y10121D01*
X194727Y9301D01*
X195267Y8598D01*
X195970Y8058D01*
X196790Y7718D01*
X197669Y7602D01*
X203606D01*
X204486Y7718D01*
X205305Y8058D01*
X206009Y8598D01*
X206549Y9301D01*
X206888Y10121D01*
X207004Y11000D01*
X206888Y11879D01*
X206549Y12699D01*
X206009Y13402D01*
X205305Y13942D01*
X204486Y14282D01*
X203606Y14398D01*
D02*
G37*
G36*
X188106D02*
X182169D01*
X181290Y14282D01*
X180471Y13942D01*
X179767Y13402D01*
X179227Y12699D01*
X178887Y11879D01*
X178772Y11000D01*
X178887Y10121D01*
X179227Y9301D01*
X179767Y8598D01*
X180471Y8058D01*
X181290Y7718D01*
X182169Y7602D01*
X188106D01*
X188986Y7718D01*
X189805Y8058D01*
X190509Y8598D01*
X191049Y9301D01*
X191388Y10121D01*
X191504Y11000D01*
X191388Y11879D01*
X191049Y12699D01*
X190509Y13402D01*
X189805Y13942D01*
X188986Y14282D01*
X188106Y14398D01*
D02*
G37*
G36*
X172606D02*
X166669D01*
X165790Y14282D01*
X164971Y13942D01*
X164267Y13402D01*
X163727Y12699D01*
X163388Y11879D01*
X163272Y11000D01*
X163388Y10121D01*
X163727Y9301D01*
X164267Y8598D01*
X164971Y8058D01*
X165790Y7718D01*
X166669Y7602D01*
X172606D01*
X173486Y7718D01*
X174305Y8058D01*
X175009Y8598D01*
X175549Y9301D01*
X175888Y10121D01*
X176004Y11000D01*
X175888Y11879D01*
X175549Y12699D01*
X175009Y13402D01*
X174305Y13942D01*
X173486Y14282D01*
X172606Y14398D01*
D02*
G37*
G36*
X157106D02*
X151169D01*
X150290Y14282D01*
X149470Y13942D01*
X148767Y13402D01*
X148227Y12699D01*
X147888Y11879D01*
X147772Y11000D01*
X147888Y10121D01*
X148227Y9301D01*
X148767Y8598D01*
X149470Y8058D01*
X150290Y7718D01*
X151169Y7602D01*
X157106D01*
X157986Y7718D01*
X158805Y8058D01*
X159509Y8598D01*
X160049Y9301D01*
X160388Y10121D01*
X160504Y11000D01*
X160388Y11879D01*
X160049Y12699D01*
X159509Y13402D01*
X158805Y13942D01*
X157986Y14282D01*
X157106Y14398D01*
D02*
G37*
G36*
X141606D02*
X135669D01*
X134790Y14282D01*
X133970Y13942D01*
X133267Y13402D01*
X132727Y12699D01*
X132387Y11879D01*
X132272Y11000D01*
X132387Y10121D01*
X132727Y9301D01*
X133267Y8598D01*
X133970Y8058D01*
X134790Y7718D01*
X135669Y7602D01*
X141606D01*
X142486Y7718D01*
X143305Y8058D01*
X144009Y8598D01*
X144549Y9301D01*
X144888Y10121D01*
X145004Y11000D01*
X144888Y11879D01*
X144549Y12699D01*
X144009Y13402D01*
X143305Y13942D01*
X142486Y14282D01*
X141606Y14398D01*
D02*
G37*
G36*
X127106Y8472D02*
X126437D01*
X125819Y8217D01*
X125347Y7744D01*
X125091Y7126D01*
Y6457D01*
X125347Y5839D01*
X125819Y5366D01*
X126437Y5110D01*
X127106D01*
X127724Y5366D01*
X128197Y5839D01*
X128453Y6457D01*
Y7126D01*
X128197Y7744D01*
X127724Y8217D01*
X127106Y8472D01*
D02*
G37*
%LPD*%
D81*
X25197Y298819D02*
D03*
X206457Y320472D02*
D03*
X142854Y96653D02*
D03*
X25197Y266142D02*
D03*
Y104724D02*
D03*
Y250787D02*
D03*
D82*
X42047Y320866D02*
D03*
D83*
X213779Y305827D02*
D03*
X117323Y322756D02*
D03*
X101969D02*
D03*
X148031D02*
D03*
X132677D02*
D03*
D84*
X169638Y21000D02*
D03*
X154138D02*
D03*
X185138D02*
D03*
X200638D02*
D03*
X216138D02*
D03*
X247138D02*
D03*
X262638D02*
D03*
X138638D02*
D03*
X231638D02*
D03*
D86*
X62264Y67610D02*
D03*
X165354Y240256D02*
D03*
X218898Y130315D02*
D03*
X218504Y166535D02*
D03*
X206693Y138189D02*
D03*
X206299Y158661D02*
D03*
X235236Y214567D02*
D03*
Y209646D02*
D03*
Y204724D02*
D03*
Y199803D02*
D03*
Y194882D02*
D03*
X230315Y199803D02*
D03*
Y214567D02*
D03*
Y209646D02*
D03*
Y204724D02*
D03*
Y194882D02*
D03*
X245079Y214567D02*
D03*
Y209646D02*
D03*
X240158Y204724D02*
D03*
Y214567D02*
D03*
Y209646D02*
D03*
X245079Y204724D02*
D03*
X240158Y199803D02*
D03*
X245079D02*
D03*
Y194882D02*
D03*
X240158D02*
D03*
X281496Y261811D02*
D03*
X287402D02*
D03*
X293307Y261811D02*
D03*
Y273622D02*
D03*
Y267717D02*
D03*
X287402Y267717D02*
D03*
X281496D02*
D03*
X287402Y273622D02*
D03*
X281496Y273622D02*
D03*
X293307Y279528D02*
D03*
X287402D02*
D03*
X281496D02*
D03*
X178740Y216339D02*
D03*
X101575Y239370D02*
D03*
X35676Y239076D02*
D03*
X55118Y248130D02*
D03*
Y274508D02*
D03*
X58957Y88779D02*
D03*
X52658Y176181D02*
D03*
X111122Y115157D02*
D03*
X133465Y115059D02*
D03*
X25984Y140551D02*
D03*
X76575Y241831D02*
D03*
X125787Y72441D02*
D03*
X64961Y75197D02*
D03*
X238189Y261024D02*
D03*
X65354Y241339D02*
D03*
X77658Y226279D02*
D03*
X195276Y268602D02*
D03*
X182185Y184843D02*
D03*
X182480Y197047D02*
D03*
Y155413D02*
D03*
X146756Y123031D02*
D03*
X155610Y114961D02*
D03*
X122539D02*
D03*
X92815Y114764D02*
D03*
X66142Y131595D02*
D03*
X14961Y229823D02*
D03*
X13484Y147146D02*
D03*
X59153Y192913D02*
D03*
X55118Y209646D02*
D03*
X62608Y203740D02*
D03*
X84071Y253638D02*
D03*
X116142Y240551D02*
D03*
X25591Y94095D02*
D03*
X34646D02*
D03*
X80315Y115354D02*
D03*
X53543Y39370D02*
D03*
X84071Y25295D02*
D03*
X107283Y21752D02*
D03*
X182480Y141339D02*
D03*
X226378Y118110D02*
D03*
Y179134D02*
D03*
M02*
