G04*
G04 #@! TF.GenerationSoftware,Altium Limited,Altium Designer,21.9.2 (33)*
G04*
G04 Layer_Color=16711935*
%FSLAX25Y25*%
%MOIN*%
G70*
G04*
G04 #@! TF.SameCoordinates,4D01AB76-DD33-443A-9DFE-E83AFE04FE17*
G04*
G04*
G04 #@! TF.FilePolarity,Positive*
G04*
G01*
G75*
%ADD17C,0.01000*%
D17*
X287402Y0D02*
X288377Y40D01*
X289346Y161D01*
X290301Y361D01*
X291237Y640D01*
X292146Y995D01*
X293023Y1424D01*
X293862Y1923D01*
X294656Y2490D01*
X295401Y3121D01*
X296091Y3812D01*
X296722Y4557D01*
X297289Y5351D01*
X297789Y6190D01*
X298218Y7067D01*
X298573Y7976D01*
X298851Y8912D01*
X299051Y9867D01*
X299172Y10836D01*
X299213Y11811D01*
X0D02*
X40Y10836D01*
X161Y9867D01*
X361Y8912D01*
X640Y7976D01*
X995Y7067D01*
X1424Y6190D01*
X1923Y5351D01*
X2490Y4557D01*
X3121Y3812D01*
X3812Y3121D01*
X4557Y2490D01*
X5351Y1923D01*
X6190Y1424D01*
X7067Y995D01*
X7976Y640D01*
X8912Y361D01*
X9867Y161D01*
X10836Y40D01*
X11811Y0D01*
X299213Y322835D02*
X299172Y323810D01*
X299051Y324779D01*
X298851Y325734D01*
X298573Y326670D01*
X298218Y327579D01*
X297789Y328456D01*
X297289Y329295D01*
X296722Y330089D01*
X296091Y330834D01*
X295401Y331524D01*
X294656Y332155D01*
X293862Y332722D01*
X293023Y333222D01*
X292146Y333651D01*
X291237Y334006D01*
X290301Y334284D01*
X289346Y334485D01*
X288377Y334605D01*
X287402Y334646D01*
X11811D02*
X10836Y334605D01*
X9867Y334485D01*
X8912Y334284D01*
X7976Y334006D01*
X7067Y333651D01*
X6190Y333222D01*
X5351Y332722D01*
X4557Y332155D01*
X3812Y331524D01*
X3121Y330834D01*
X2490Y330089D01*
X1923Y329295D01*
X1424Y328456D01*
X995Y327579D01*
X640Y326670D01*
X361Y325734D01*
X161Y324779D01*
X40Y323810D01*
X0Y322835D01*
X11811Y334646D02*
X287402D01*
X299213Y11811D02*
X299213Y322835D01*
X11811Y0D02*
X287402D01*
X-0Y11811D02*
X0Y322835D01*
M02*
