G04*
G04 #@! TF.GenerationSoftware,Altium Limited,Altium Designer,21.9.2 (33)*
G04*
G04 Layer_Color=16711935*
%FSLAX25Y25*%
%MOIN*%
G70*
G04*
G04 #@! TF.SameCoordinates,4D01AB76-DD33-443A-9DFE-E83AFE04FE17*
G04*
G04*
G04 #@! TF.FilePolarity,Negative*
G04*
G01*
G75*
%ADD71C,0.00591*%
%ADD72O,0.06528X0.12465*%
%ADD73R,0.06528X0.12465*%
%ADD74R,0.12465X0.06528*%
%ADD75O,0.12465X0.06528*%
%ADD76C,0.09646*%
%ADD77C,0.02953*%
D71*
X14173Y320472D02*
D03*
X285039D02*
D03*
X14173Y14173D02*
D03*
X285039D02*
D03*
D72*
X45197Y298819D02*
D03*
X35197D02*
D03*
X55197D02*
D03*
X25197D02*
D03*
X15197D02*
D03*
X186457Y320472D02*
D03*
X196457D02*
D03*
X176457D02*
D03*
X206457D02*
D03*
X216457D02*
D03*
X152854Y96653D02*
D03*
X142854D02*
D03*
X162854D02*
D03*
X132854D02*
D03*
X87500Y12539D02*
D03*
X97500D02*
D03*
X77500D02*
D03*
X107500D02*
D03*
X52047Y320866D02*
D03*
X72047D02*
D03*
X62047D02*
D03*
X25197Y266142D02*
D03*
X45197D02*
D03*
X35197D02*
D03*
X25197Y104724D02*
D03*
X45197D02*
D03*
X35197D02*
D03*
X25197Y250787D02*
D03*
X45197D02*
D03*
X35197D02*
D03*
D73*
X65197Y298819D02*
D03*
X166457Y320472D02*
D03*
X172854Y96653D02*
D03*
X67500Y12539D02*
D03*
X42047Y320866D02*
D03*
X15197Y266142D02*
D03*
Y104724D02*
D03*
Y250787D02*
D03*
D74*
X169638Y31000D02*
D03*
X154138D02*
D03*
X185138D02*
D03*
X200638D02*
D03*
X216138D02*
D03*
X247138D02*
D03*
X262638D02*
D03*
X138638D02*
D03*
X231638D02*
D03*
X213779Y305827D02*
D03*
X117323Y322756D02*
D03*
X101969D02*
D03*
X148031D02*
D03*
X132677D02*
D03*
D75*
X169638Y21000D02*
D03*
Y11000D02*
D03*
X154138Y21000D02*
D03*
Y11000D02*
D03*
X185138Y21000D02*
D03*
Y11000D02*
D03*
X200638Y21000D02*
D03*
Y11000D02*
D03*
X216138Y21000D02*
D03*
Y11000D02*
D03*
X247138Y21000D02*
D03*
Y11000D02*
D03*
X262638Y21000D02*
D03*
Y11000D02*
D03*
X138638Y21000D02*
D03*
Y11000D02*
D03*
X231638Y21000D02*
D03*
Y11000D02*
D03*
X213798Y215845D02*
D03*
Y225831D02*
D03*
Y235846D02*
D03*
X213779Y245827D02*
D03*
Y285827D02*
D03*
Y275827D02*
D03*
Y295827D02*
D03*
Y265827D02*
D03*
Y255827D02*
D03*
X117323Y312756D02*
D03*
Y292756D02*
D03*
Y302756D02*
D03*
X101969Y312756D02*
D03*
Y292756D02*
D03*
Y302756D02*
D03*
X148031Y312756D02*
D03*
Y292756D02*
D03*
Y302756D02*
D03*
X132677Y312756D02*
D03*
Y292756D02*
D03*
Y302756D02*
D03*
D76*
X242126Y309449D02*
D03*
X261811D02*
D03*
D77*
X165354Y240256D02*
D03*
X218898Y130315D02*
D03*
X218504Y166535D02*
D03*
X206693Y138189D02*
D03*
X206299Y158661D02*
D03*
M02*
